<?xml version="1.0" encoding="UTF-8"?>
<svg width="47px" height="40px" viewBox="0 0 47 40" version="1.1" xmlns="http://www.w3.org/2000/svg" xmlns:xlink="http://www.w3.org/1999/xlink">
    <!-- Generator: Sketch 45.2 (43514) - http://www.bohemiancoding.com/sketch -->
    <title>quote</title>
    <desc>Created with Sketch.</desc>
    <defs></defs>
    <g id="Montar-2" stroke="none" stroke-width="1" fill="none" fill-rule="evenodd" opacity="0.100000001">
        <g id="Montar-Design" transform="translate(-182.000000, -4385.000000)" fill="#353535">
            <path d="M228.057839,4425 C223.710785,4424.41552 220.030456,4422.86303 217.016743,4420.34247 C214.003029,4417.82191 211.619491,4414.78997 209.866058,4411.24658 C208.112624,4407.70318 207.235921,4403.90413 207.235921,4399.84932 C207.235921,4395.24655 208.350065,4391.62102 210.578387,4388.9726 C212.806708,4386.32419 215.455084,4385 218.523592,4385 C220.898033,4385 222.980204,4385.86757 224.770167,4387.60274 C226.560131,4389.33791 227.455099,4391.48401 227.455099,4394.0411 C227.455099,4396.19636 226.651454,4398.23287 225.04414,4400.15068 C223.436826,4402.0685 220.934568,4403.0274 217.537291,4403.0274 C217.537291,4405.87673 217.948246,4408.29679 218.770167,4410.28767 C219.592089,4412.27855 220.687969,4413.91324 222.057839,4415.19178 C223.427709,4416.47033 225.427689,4417.45662 228.057839,4418.15068 L228.057839,4425 Z M202.821918,4425 C198.474864,4424.41552 194.794536,4422.86303 191.780822,4420.34247 C188.767108,4417.82191 186.38357,4414.78997 184.630137,4411.24658 C182.876704,4407.70318 182,4403.90413 182,4399.84932 C182,4395.24655 183.114144,4391.62102 185.342466,4388.9726 C187.570787,4386.32419 190.237427,4385 193.342466,4385 C195.716907,4385 197.789945,4385.86757 199.561644,4387.60274 C201.333342,4389.33791 202.219178,4391.48401 202.219178,4394.0411 C202.219178,4396.19636 201.415533,4398.23287 199.808219,4400.15068 C198.200905,4402.0685 195.698647,4403.0274 192.30137,4403.0274 C192.30137,4405.87673 192.712325,4408.29679 193.534247,4410.28767 C194.356168,4412.27855 195.46118,4413.91324 196.849315,4415.19178 C198.23745,4416.47033 200.228298,4417.45662 202.821918,4418.15068 L202.821918,4425 Z" id="quote"></path>
        </g>
    </g>
</svg>