<?xml version="1.0" encoding="UTF-8"?>
<svg width="104px" height="18px" viewBox="0 0 104 18" version="1.1" xmlns="http://www.w3.org/2000/svg" xmlns:xlink="http://www.w3.org/1999/xlink">
    <!-- Generator: Sketch 45.2 (43514) - http://www.bohemiancoding.com/sketch -->
    <title>starsg</title>
    <desc>Created with Sketch.</desc>
    <defs></defs>
    <g id="Montar-2" stroke="none" stroke-width="1" fill="none" fill-rule="evenodd">
        <g id="Montar-Design" transform="translate(-135.000000, -1598.000000)" fill="#E9E9E9">
            <g id="starsg" transform="translate(135.000000, 1598.000000)">
                <polygon id="Page-1" points="17.2972973 7.24324324 11.3344605 6.33108108 8.64864865 0.621621622 5.96283676 6.33108108 0 7.24324324 4.32432432 11.6520259 3.29392 17.9189189 8.64864865 14.9628368 14.0033773 17.9189189 12.972973 11.6520259"></polygon>
                <polygon id="Page-1" points="38.9189189 7.24324324 32.9560822 6.33108108 30.2702703 0.621621622 27.5844584 6.33108108 21.6216216 7.24324324 25.9459459 11.6520259 24.9155416 17.9189189 30.2702703 14.9628368 35.6249989 17.9189189 34.5945946 11.6520259"></polygon>
                <polygon id="Page-1" points="60.5405405 7.24324324 54.5777038 6.33108108 51.8918919 0.621621622 49.20608 6.33108108 43.2432432 7.24324324 47.5675676 11.6520259 46.5371632 17.9189189 51.8918919 14.9628368 57.2466205 17.9189189 56.2162162 11.6520259"></polygon>
                <polygon id="Page-1" points="82.1621622 7.24324324 76.1993254 6.33108108 73.5135135 0.621621622 70.8277016 6.33108108 64.8648649 7.24324324 69.1891892 11.6520259 68.1587849 17.9189189 73.5135135 14.9628368 78.8682422 17.9189189 77.8378378 11.6520259"></polygon>
                <polygon id="Page-1" points="103.783784 7.24324324 97.820947 6.33108108 95.1351351 0.621621622 92.4493232 6.33108108 86.4864865 7.24324324 90.8108108 11.6520259 89.7804065 17.9189189 95.1351351 14.9628368 100.489864 17.9189189 99.4594595 11.6520259"></polygon>
            </g>
        </g>
    </g>
</svg>