<?xml version="1.0" encoding="UTF-8"?>
<svg width="18px" height="11px" viewBox="0 0 18 11" version="1.1" xmlns="http://www.w3.org/2000/svg" xmlns:xlink="http://www.w3.org/1999/xlink">
    <!-- Generator: Sketch 45.2 (43514) - http://www.bohemiancoding.com/sketch -->
    <title>sub_arrow</title>
    <desc>Created with Sketch.</desc>
    <defs></defs>
    <g id="Montar-2" stroke="none" stroke-width="1" fill="none" fill-rule="evenodd">
        <g id="Montar-Design" transform="translate(-1172.000000, -7114.000000)" fill="#DA0000">
            <g id="subscribe" transform="translate(0.000000, 6960.000000)">
                <g id="Group-28" transform="translate(805.000000, 135.000000)">
                    <path d="M379.143109,29.2625387 C378.928186,29.0476154 378.928186,28.8326952 379.143109,28.6177719 L382.743057,24.6417098 L367.429845,24.6417098 C367.14328,24.6417098 367,24.4984306 367,24.2118652 C367,23.9252999 367.14328,23.7820207 367.429845,23.7820207 L382.743057,23.7820207 L379.143109,19.8059585 C378.928186,19.5910363 378.928186,19.376114 379.143109,19.1611917 C379.358031,18.9462694 379.572953,18.9462694 379.787876,19.1611917 C382.6177,22.2775819 384.0505,23.8536603 384.086321,23.8894818 C384.157961,23.9611214 384.193782,24.0685826 384.193782,24.2118652 C384.193782,24.3551479 384.157961,24.462609 384.086321,24.5342486 L379.787876,29.2625387 C379.716236,29.3341799 379.608775,29.3699999 379.465492,29.3699999 C379.322209,29.3699999 379.214748,29.3341799 379.143109,29.2625387 Z" id="sub_arrow"></path>
                </g>
            </g>
        </g>
    </g>
</svg>