<?xml version="1.0" encoding="UTF-8"?>
<svg width="80px" height="80px" viewBox="0 0 80 80" version="1.1" xmlns="http://www.w3.org/2000/svg" xmlns:xlink="http://www.w3.org/1999/xlink">
    <!-- Generator: Sketch 41.2 (35397) - http://www.bohemiancoding.com/sketch -->
    <title>Page 1</title>
    <desc>Created with Sketch.</desc>
    <defs></defs>
    <g id="Website" stroke="none" stroke-width="1" fill="none" fill-rule="evenodd">
        <path d="M40,0 C34.47914,0 29.28388,1.04166 24.41406,3.125 C19.54425,5.20834 15.2995,8.05988 11.67969,11.67969 C8.059878,15.2995 5.208344,19.54425 3.125,24.41406 C1.041656,29.28388 0,34.47914 0,40 C0,45.52086 1.041656,50.71612 3.125,55.58594 C5.208344,60.45575 8.059878,64.7005 11.67969,68.32031 C15.2995,71.940122 19.54425,74.791656 24.41406,76.875 C29.28388,78.958344 34.47914,80 40,80 C45.52086,80 50.71612,78.958344 55.58594,76.875 C60.45575,74.791656 64.7005,71.940122 68.32031,68.32031 C71.94012,64.7005 74.79166,60.45575 76.875,55.58594 C78.95834,50.71612 80,45.52086 80,40 C80,34.47914 78.95834,29.28388 76.875,24.41406 C74.79166,19.54425 71.94012,15.2995 68.32031,11.67969 C64.7005,8.05988 60.45575,5.20834 55.58594,3.125 C50.71612,1.04166 45.52086,0 40,0 Z M56.32812,41.32812 C55.85937,41.84896 55.27344,42.10938 54.57031,42.10938 C53.86718,42.10938 53.28125,41.84896 52.8125,41.32812 L42.5,31.01562 L42.5,57.5 C42.5,58.17709 42.25261,58.76302 41.75781,59.25781 C41.26302,59.75261 40.67709,60 40,60 C39.32291,60 38.73698,59.75261 38.24219,59.25781 C37.74739,58.76302 37.5,58.17709 37.5,57.5 L37.5,31.01562 L27.1875,41.32812 C26.71875,41.84896 26.13282,42.10938 25.42969,42.10938 C24.72656,42.10938 24.14063,41.84896 23.67188,41.32812 C23.15104,40.85937 22.89062,40.27344 22.89062,39.57031 C22.89062,38.86718 23.15104,38.28125 23.67188,37.8125 L37.8125,23.67188 C38.125,23.35937 38.47656,23.15104 38.86719,23.04688 C39.25781,22.94271 39.63541,22.94271 40,23.04688 C40.36459,22.94271 40.74219,22.94271 41.13281,23.04688 C41.52344,23.15104 41.875,23.35937 42.1875,23.67188 L56.32812,37.8125 C56.84896,38.28125 57.10938,38.86718 57.10938,39.57031 C57.10938,40.27344 56.84896,40.85937 56.32812,41.32812 Z" id="Page-1" fill="#000000"></path>
    </g>
</svg>