<?xml version="1.0" encoding="UTF-8"?>
<svg width="20px" height="32px" viewBox="0 0 20 32" version="1.1" xmlns="http://www.w3.org/2000/svg" xmlns:xlink="http://www.w3.org/1999/xlink">
    <!-- Generator: Sketch 41.2 (35397) - http://www.bohemiancoding.com/sketch -->
    <title>arrow</title>
    <desc>Created with Sketch.</desc>
    <defs></defs>
    <g id="Website" stroke="none" stroke-width="1" fill="none" fill-rule="evenodd">
        <g id="Home-Bahasa" transform="translate(-792.000000, -673.000000)" fill="#3BC2DC">
            <g id="hero-01" transform="translate(150.000000, 218.000000)">
                <path d="M650.623688,486.616192 C650.873163,486.865667 651.208996,487 651.535232,487 C651.861469,487 652.197301,486.875262 652.446777,486.616192 L660.67946,478.383508 C661.188006,477.874963 661.188006,477.05937 660.67946,476.550825 C660.170915,476.042279 659.355322,476.042279 658.846777,476.550825 L652.830585,482.576612 L652.830585,456.295352 C652.830585,455.575712 652.254873,455 651.535232,455 C650.815592,455 650.23988,455.575712 650.23988,456.295352 L650.23988,482.576612 L644.214093,476.550825 C643.705547,476.042279 642.889955,476.042279 642.381409,476.550825 C641.872864,477.05937 641.872864,477.874963 642.381409,478.383508 L650.623688,486.616192 Z" id="arrow"></path>
            </g>
        </g>
    </g>
</svg>