<?xml version="1.0" encoding="UTF-8"?>
<svg width="15px" height="24px" viewBox="0 0 15 24" version="1.1" xmlns="http://www.w3.org/2000/svg" xmlns:xlink="http://www.w3.org/1999/xlink">
    <!-- Generator: Sketch 41.2 (35397) - http://www.bohemiancoding.com/sketch -->
    <title></title>
    <desc>Created with Sketch.</desc>
    <defs></defs>
    <g id="Website" stroke="none" stroke-width="1" fill="none" fill-rule="evenodd">
        <g id="Terms-&amp;-Condition" transform="translate(-1370.000000, -448.000000)" fill="#3BC2DC">
            <path d="M1384.4,460.002218 C1384.4,459.809833 1384.30103,459.5934 1384.15258,459.449112 L1372.62268,448.242699 C1372.47423,448.09841 1372.25155,448.002218 1372.05361,448.002218 C1371.85567,448.002218 1371.63299,448.09841 1371.48454,448.242699 L1370.24742,449.445104 C1370.09897,449.589392 1370,449.805825 1370,449.99821 C1370,450.190595 1370.09897,450.407027 1370.24742,450.551316 L1379.97113,460.002218 L1370.24742,469.45312 C1370.09897,469.597408 1370,469.813841 1370,470.006226 C1370,470.222659 1370.09897,470.415043 1370.24742,470.559332 L1371.48454,471.761737 C1371.63299,471.906025 1371.85567,472.002218 1372.05361,472.002218 C1372.25155,472.002218 1372.47423,471.906025 1372.62268,471.761737 L1384.15258,460.555324 C1384.30103,460.411035 1384.4,460.194603 1384.4,460.002218 Z" id="" transform="translate(1377.200000, 460.002218) scale(-1, 1) translate(-1377.200000, -460.002218) "></path>
        </g>
    </g>
</svg>