<?xml version="1.0" encoding="UTF-8"?>
<svg width="214px" height="64px" viewBox="0 0 214 64" version="1.1" xmlns="http://www.w3.org/2000/svg" xmlns:xlink="http://www.w3.org/1999/xlink">
    <!-- Generator: Sketch 41.2 (35397) - http://www.bohemiancoding.com/sketch -->
    <title>btn-playstore</title>
    <desc>Created with Sketch.</desc>
    <defs>
        <linearGradient x1="50%" y1="0%" x2="50%" y2="38.9125982%" id="linearGradient-1">
            <stop stop-color="#FBDA09" offset="0%"></stop>
            <stop stop-color="#FFBC00" offset="100%"></stop>
        </linearGradient>
        <path d="M26.2331799,13.7002024 C27.8706759,14.6316682 27.8710508,16.1416814 26.2331799,17.0733875 L2.98641693,30.2973548 C1.34892091,31.2288477 0.0214681085,30.4577657 0.0214681085,28.5740982 L0.0214681085,2.19992474 C0.0214681085,0.316703523 1.34854604,-0.455059917 2.98641693,0.476619142 L26.2331799,13.7002024 Z" id="path-2"></path>
        <linearGradient x1="0%" y1="58.4755255%" x2="69.3064856%" y2="39.0830098%" id="linearGradient-4">
            <stop stop-color="#01E2FF" offset="0%"></stop>
            <stop stop-color="#01C4FF" offset="100%"></stop>
        </linearGradient>
        <linearGradient x1="20.2810876%" y1="20.1019903%" x2="83.820166%" y2="83.6214476%" id="linearGradient-5">
            <stop stop-color="#28D781" offset="0%"></stop>
            <stop stop-color="#02F076" offset="100%"></stop>
        </linearGradient>
        <linearGradient x1="74.4881466%" y1="17.4301299%" x2="10.1079427%" y2="91.1838038%" id="linearGradient-6">
            <stop stop-color="#F2414E" offset="0%"></stop>
            <stop stop-color="#E02554" offset="100%"></stop>
        </linearGradient>
    </defs>
    <g id="Website" stroke="none" stroke-width="1" fill="none" fill-rule="evenodd">
        <g id="Home-Bahasa" transform="translate(-576.000000, -4283.000000)">
            <g id="Group-18" transform="translate(576.000000, 4283.000000)">
                <g id="btn-playstore">
                    <rect id="background" fill="#000000" x="0" y="0" width="213.333333" height="63.0095248" rx="31.5047624"></rect>
                    <g id="Group-16" transform="translate(36.546667, 15.360000)">
                        <g id="get-it-on" transform="translate(37.776993, 0.284116)" fill="#FFFFFF">
                            <path d="M35.943444,7.79586606 C38.0959638,7.79586606 39.8409259,6.050702 39.8409259,3.89793303 C39.8409259,1.74516406 38.0959638,0 35.943444,0 C33.7909242,0 32.0459621,1.74516406 32.0459621,3.89793303 C32.0459621,6.050702 33.7909242,7.79586606 35.943444,7.79586606 Z M35.943444,6.60483097 C37.4382494,6.60483097 38.6500286,5.39291148 38.6500286,3.89793303 C38.6500286,2.40295458 37.4382494,1.19103509 35.943444,1.19103509 C34.4486386,1.19103509 33.2368594,2.40295458 33.2368594,3.89793303 C33.2368594,5.39291148 34.4486386,6.60483097 35.943444,6.60483097 Z" id="o"></path>
                            <path d="M9.52717793,4.3310367 L9.52717793,6.71310688 L12.6668161,6.71310688 L12.6668161,7.57931422 L8.33628069,7.57931422 L8.33628069,7.14621055 L8.33628069,0.812069381 L8.33628069,0.324827752 L12.6668161,0.324827752 L12.6668161,1.19103509 L9.52717793,1.19103509 L9.52717793,3.46482936 L12.342026,3.46482936 L12.342026,4.3310367 L9.52717793,4.3310367 Z" id="e"></path>
                            <path d="M16.8890881,1.19103509 L16.8890881,7.57931422 L15.6981909,7.57931422 L15.6981909,1.19103509 L13.8577134,1.19103509 L13.8577134,0.324827752 L18.7295657,0.324827752 L18.7295657,1.19103509 L16.8890881,1.19103509 Z" id="t"></path>
                            <path d="M27.4988999,1.19103509 L27.4988999,7.57931422 L26.3080027,7.57931422 L26.3080027,1.19103509 L24.4675251,1.19103509 L24.4675251,0.324827752 L29.3393775,0.324827752 L29.3393775,1.19103509 L27.4988999,1.19103509 Z" id="t"></path>
                            <rect id="i" x="22.193994" y="0.324827752" width="1.19089724" height="7.25448647"></rect>
                            <path d="M41.5190084,0.324827752 L40.8152964,0.324827752 L40.8152964,7.57931422 L42.0061936,7.57931422 L42.0061936,1.917276 L45.4706219,7.57931422 L46.0660706,7.57931422 L46.6615192,7.57931422 L46.6615192,0.324827752 L45.4706219,0.324827752 L45.4706219,5.63298859 L42.2227204,0.324827752 L41.5190084,0.324827752 Z" id="n"></path>
                            <g id="g" transform="translate(0.000000, 0.108276)">
                                <polygon id="Rectangle-1" points="3.87401707 3.48324832 7.1346481 3.48324832 7.10236463 4.51532189 3.87401707 4.51532189"></polygon>
                                <path d="M7.4069408,3.48324832 C7.40704886,3.49600995 7.40710298,3.50879753 7.40710298,3.52161091 C7.7653739,6.14979534 5.97370405,7.6631337 3.82559186,7.64379491 C1.71277785,7.64076833 0,5.93267314 0,3.82189746 C0,1.71112178 1.71277581,0 3.82559186,0 C4.92997102,0 5.85836324,0.385468893 6.4930081,1.05488124 L5.74688441,1.80028439 C5.28150468,1.3249235 4.62052666,1.06432587 3.85787533,1.06432587 C2.33343844,1.06432587 1.09763817,2.29893273 1.09763817,3.82189746 C1.09763817,5.34486219 2.33343844,6.57946904 3.85787533,6.57946904 C5.38231222,6.57946904 6.46463988,5.69901907 6.46236994,3.82189746 C6.46494824,3.70589257 6.46224422,3.59297185 6.45448949,3.48324832 L7.4069408,3.48324832 Z" id="Oval-1"></path>
                            </g>
                        </g>
                        <g id="googleplay" transform="translate(37.235676, 13.060674)" fill="#FFFFFF">
                            <g id="big-P" transform="translate(67.556353, 0.541380)">
                                <path d="M0.541316928,3.80551063e-07 L6.67908153,0 C6.67908153,0 10.2124234,0.601227409 10.2124231,4.65909093 C10.2124229,8.71695445 6.67908153,9.31818186 6.67908153,9.31818186 L0.541316928,9.31818224 L0.541316928,3.80551063e-07 Z M1.73221417,2.25397033 L5.89882865,2.25397033 C5.89882865,2.25397033 7.79496376,2.25397033 7.79496376,4.7542284 C7.79496376,7.25448647 5.89882865,7.25448647 5.89882865,7.25448647 L1.73221417,7.25448647 L1.73221417,2.25397033 Z" id="Combined-Shape"></path>
                                <rect id="Rectangle-6" x="0" y="0" width="2.16526771" height="15.1586284"></rect>
                            </g>
                            <rect id="y" x="79.0322715" y="0.541379587" width="2.16526771" height="15.1586284"></rect>
                            <path d="M89.2228895,14.6161805 L89.2228895,15.6951441 L91.3881572,15.6951441 L91.3881572,9.11533709 C91.3883067,9.11113376 91.3883818,9.10690306 91.3883818,9.10264483 C91.3883818,8.22781983 90.7473422,5.63034771 86.981922,5.63034771 C83.9536035,5.63034771 82.9443532,7.71116976 82.9443532,7.71116976 L84.7479324,8.7772223 C84.7479324,8.7772223 85.1833214,7.71116976 87.1548896,7.71116976 C88.5899563,7.71116976 89.0686377,8.79501203 89.2228895,9.38488059 L89.2228895,9.83026772 C88.5938745,9.52451397 87.2328059,9.04296779 85.2895136,9.33197777 C82.545132,9.74012723 82.7152979,12.307821 82.7152979,12.5201431 C82.7152979,12.7324652 82.7170954,15.881032 86.167092,15.6655374 C87.6730187,15.5714738 88.6264984,15.1083039 89.2228895,14.6161805 Z M89.0682124,11.3692886 C89.0682124,11.3692886 84.8967945,10.2448157 84.7517914,12.5885029 C84.6067882,14.93219 88.7536777,13.8068184 89.1241943,12.1454069 C89.1241942,11.617086 89.0682124,11.3692886 89.0682124,11.3692886 Z" id="a"></path>
                            <path d="M95.4511345,15.1248919 L93.4313017,19.9227688 L95.5965694,19.9227688 L101.454634,6.00762161 L99.2893659,6.00762161 L96.5337684,12.5532216 L93.7560919,5.95517546 L91.5908242,5.95517546 L95.4511345,15.1248919 Z" id="y"></path>
                            <path d="M62.7088971,9.49857591 C62.7088971,9.49857591 61.7595392,5.63034771 58.1293589,5.63034771 C54.4991785,5.63034771 53.2655857,8.89980177 53.2655857,10.8306388 C53.2655857,12.8346749 54.8197324,15.9204991 58.348325,15.9204991 C61.2197559,15.9204991 62.6217843,13.6527292 62.6217843,13.6527292 L60.8843324,12.475939 C60.8843324,12.475939 59.9742269,13.9133212 58.3620104,13.9051048 C56.3030835,13.8946119 55.8608087,12.3290701 55.8608087,12.3290701 L62.7088971,9.49857591 Z M60.1033443,8.69673825 C60.1033443,8.69673825 59.2417596,7.38570692 57.9203936,7.62749007 C55.125285,8.13893815 55.4770257,10.5852225 55.4770257,10.5852225 L60.1033443,8.69673825 Z" id="e"></path>
                            <rect id="i" x="50.0176841" y="0.541379587" width="2.29072314" height="15.1267826"></rect>
                            <path d="M46.3518746,5.95910185 L46.3518746,6.90309969 C46.3518746,6.90309969 45.4313353,5.57809506 43.5161704,5.63194579 C41.1251755,5.69917593 38.6500286,7.54741402 38.6500286,10.7786629 C38.6500286,14.0099117 41.2786098,15.9052927 43.4905761,15.9052897 C45.5307514,15.9052869 46.3521378,14.6195788 46.3521378,14.6195788 L46.3521378,15.6553821 C46.3521378,16.3947435 46.0750087,18.5547061 43.7011205,18.5547089 C41.6165335,18.5547114 41.0233905,16.6882845 41.0233905,16.6882845 L39.0786181,17.5062732 C39.0786181,17.5062732 40.1823971,20.5347154 43.6000592,20.5347154 C47.0177213,20.5347154 48.469425,17.9605362 48.469425,15.5219334 L48.469425,5.97739732 L46.3518746,5.95910185 Z M43.6713811,13.9657263 C45.2155857,13.9657263 46.4674108,12.5510281 46.4674108,10.8059095 C46.4674108,9.06079082 45.2155857,7.64609264 43.6713811,7.64609264 C42.1271766,7.64609264 40.8753514,9.06079082 40.8753514,10.8059095 C40.8753514,12.5510281 42.1271766,13.9657263 43.6713811,13.9657263 Z" id="g"></path>
                            <path d="M32.5447636,15.9165599 C35.3913094,15.9165599 37.6988907,13.6139128 37.6988907,10.7734538 C37.6988907,7.93299474 35.3913094,5.63034771 32.5447636,5.63034771 C29.6982178,5.63034771 27.3906365,7.93299474 27.3906365,10.7734538 C27.3906365,13.6139128 29.6982178,15.9165599 32.5447636,15.9165599 Z M32.5110765,13.8996555 C34.1110957,13.8996555 35.4081675,12.5000073 35.4081675,10.7734538 C35.4081675,9.04690025 34.1110957,7.64725205 32.5110765,7.64725205 C30.9110573,7.64725205 29.6139855,9.04690025 29.6139855,10.7734538 C29.6139855,12.5000073 30.9110573,13.8996555 32.5110765,13.8996555 Z" id="o"></path>
                            <path d="M21.3936349,15.9165599 C24.2401807,15.9165599 26.5477619,13.6139128 26.5477619,10.7734538 C26.5477619,7.93299474 24.2401807,5.63034771 21.3936349,5.63034771 C18.5470891,5.63034771 16.2395078,7.93299474 16.2395078,10.7734538 C16.2395078,13.6139128 18.5470891,15.9165599 21.3936349,15.9165599 Z M21.3599478,13.8996555 C22.959967,13.8996555 24.2570388,12.5000073 24.2570388,10.7734538 C24.2570388,9.04690025 22.959967,7.64725205 21.3599478,7.64725205 C19.7599286,7.64725205 18.4628568,9.04690025 18.4628568,10.7734538 C18.4628568,12.5000073 19.7599286,13.8996555 21.3599478,13.8996555 Z" id="o"></path>
                            <g id="big-g">
                                <polygon id="Rectangle-1" points="8.08490519 7.26085564 14.8897004 7.26085564 14.8223262 9.41222028 8.08490519 9.41222028"></polygon>
                                <path d="M15.4579634,7.26085564 C15.4581889,7.28745736 15.4583019,7.31411317 15.4583019,7.34082275 C16.2059977,12.8192917 12.4668606,15.9738562 7.98384387,15.9335443 C3.57449291,15.9272354 0,12.3666989 0,7.96677216 C0,3.56684539 3.57448866,0 7.98384387,0 C10.2886352,0 12.2261494,0.803512621 13.5506256,2.19890737 L11.9934979,3.75270548 C11.0222706,2.76181238 9.64283825,2.21859478 8.05121808,2.21859478 C4.86978457,2.21859478 2.29072314,4.79214146 2.29072314,7.96677216 C2.29072314,11.1414029 4.86978457,13.7149495 8.05121808,13.7149495 C11.2326516,13.7149495 13.4914224,11.8796454 13.4866851,7.96677216 C13.4920659,7.72495916 13.4864227,7.48957512 13.4702389,7.26085564 L15.4579634,7.26085564 Z" id="Oval-1"></path>
                            </g>
                        </g>
                        <g id="logo_play" transform="translate(0.209598, 0.608944)">
                            <mask id="mask-3" fill="white">
                                <use xlink:href="#path-2"></use>
                            </mask>
                            <use id="yellow" fill="url(#linearGradient-1)" xlink:href="#path-2"></use>
                            <polygon id="blue" fill="url(#linearGradient-4)" mask="url(#mask-3)" points="-1.39194212e-13 0.0975987085 15.133797 15.1409514 -0.195475557 30.7788911"></polygon>
                            <polygon id="green" fill="url(#linearGradient-5)" mask="url(#mask-3)" points="-3.11207112 -2.99929226 15.132001 15.1453515 20.5561762 9.97017949"></polygon>
                            <polygon id="red" fill="url(#linearGradient-6)" mask="url(#mask-3)" points="15.1344862 15.1418898 23.4383547 23.5127692 -1.36866305 31.8836485"></polygon>
                        </g>
                    </g>
                </g>
            </g>
        </g>
    </g>
</svg>