<?xml version="1.0" encoding="UTF-8"?>
<svg width="214px" height="64px" viewBox="0 0 214 64" version="1.1" xmlns="http://www.w3.org/2000/svg" xmlns:xlink="http://www.w3.org/1999/xlink">
    <!-- Generator: Sketch 41.2 (35397) - http://www.bohemiancoding.com/sketch -->
    <title>btn-appstore</title>
    <desc>Created with Sketch.</desc>
    <defs></defs>
    <g id="Website" stroke="none" stroke-width="1" fill="none" fill-rule="evenodd">
        <g id="Home-Bahasa" transform="translate(-809.000000, -4283.000000)">
            <g id="Group-18" transform="translate(576.000000, 4283.000000)">
                <g id="btn-appstore" transform="translate(233.000000, 0.000000)">
                    <rect id="backfround-copy" fill="#000000" x="0" y="0" width="213.333333" height="63.3241506" rx="31.6620753"></rect>
                    <g id="Group-17" transform="translate(40.106667, 14.506667)" fill="#FFFFFF">
                        <path d="M47.6315877,29.6189476 L50.3376795,29.6189476 L44.4138399,13.2118449 L41.6736377,13.2118449 L35.7497982,29.6189476 L38.3649289,29.6189476 L39.8771566,25.2641865 L46.1307301,25.2641865 L47.6315877,29.6189476 Z M42.9129823,16.1908199 L43.1062746,16.1908199 L45.4826325,23.1266013 L40.5252543,23.1266013 L42.9129823,16.1908199 Z M57.5129269,17.0322097 C55.8301471,17.0322097 54.37477,17.8735996 53.6243412,19.2834962 L53.4424191,19.2834962 L53.4424191,17.2368722 L51.0888014,17.2368722 L51.0888014,33.6326048 L53.5333802,33.6326048 L53.5333802,27.7428756 L53.7266724,27.7428756 C54.37477,29.0504409 55.7732965,29.82361 57.5356672,29.82361 C60.6624539,29.82361 62.6522273,27.356291 62.6522273,23.4222248 C62.6522273,19.4881586 60.6624539,17.0322097 57.5129269,17.0322097 L57.5129269,17.0322097 Z M56.8193488,27.6291742 C54.7727247,27.6291742 53.4878996,26.0146153 53.4878996,23.433595 C53.4878996,20.8412045 54.7727247,19.2266455 56.8307189,19.2266455 C58.9000832,19.2266455 60.1394278,20.8070941 60.1394278,23.4222248 C60.1394278,26.0487257 58.9000832,27.6291742 56.8193488,27.6291742 L56.8193488,27.6291742 Z M70.1913189,17.0322097 C68.5085392,17.0322097 67.0531621,17.8735996 66.3027332,19.2834962 L66.1208111,19.2834962 L66.1208111,17.2368722 L63.7671935,17.2368722 L63.7671935,33.6326048 L66.2117722,33.6326048 L66.2117722,27.7428756 L66.4050645,27.7428756 C67.0531621,29.0504409 68.4516885,29.82361 70.2140592,29.82361 C73.3408459,29.82361 75.3306193,27.356291 75.3306193,23.4222248 C75.3306193,19.4881586 73.3408459,17.0322097 70.1913189,17.0322097 L70.1913189,17.0322097 Z M69.4977408,27.6291742 C67.4511167,27.6291742 66.1662916,26.0146153 66.1662916,23.433595 C66.1662916,20.8412045 67.4511167,19.2266455 69.5091109,19.2266455 C71.5784752,19.2266455 72.8178198,20.8070941 72.8178198,23.4222248 C72.8178198,26.0487257 71.5784752,27.6291742 69.4977408,27.6291742 L69.4977408,27.6291742 Z M80.5054163,25.2073358 C80.6873384,28.1408303 83.1319171,30.0169023 86.7703599,30.0169023 C90.6589455,30.0169023 93.0921541,28.0498692 93.0921541,24.9117123 C93.0921541,22.4443933 91.7049978,21.0799773 88.3394383,20.2954381 L86.5315871,19.8520029 C84.3940019,19.351717 83.5298718,18.6808791 83.5298718,17.5097554 C83.5298718,16.031638 84.8715475,15.0651766 86.8840612,15.0651766 C88.7942436,15.0651766 90.1131791,16.0088977 90.3519519,17.5211255 L92.8306411,17.5211255 C92.6828293,14.758183 90.2496207,12.8138902 86.9181716,12.8138902 C83.3365795,12.8138902 80.9488515,14.758183 80.9488515,17.6803074 C80.9488515,20.0907757 82.3018974,21.5234125 85.2695022,22.2169907 L87.3843471,22.7286467 C89.5560426,23.2403027 90.5111338,23.9907315 90.5111338,25.2414462 C90.5111338,26.6968233 89.0102762,27.7542457 86.9636521,27.7542457 C84.7692163,27.7542457 83.2456184,26.7650441 83.0295859,25.2073358 L80.5054163,25.2073358 Z M95.1963219,14.2351569 L95.1963219,17.2937228 L93.161068,17.2937228 L93.161068,19.351717 L95.1963219,19.351717 L95.1963219,26.3443492 C95.1963219,28.7320772 96.2764846,29.6871684 98.9939465,29.6871684 C99.4714921,29.6871684 99.9149274,29.6303178 100.301512,29.562097 L100.301512,27.526843 C99.9604079,27.5609534 99.7671156,27.5836937 99.3919012,27.5836937 C98.1752969,27.5836937 97.6409006,27.015187 97.6409006,25.7189918 L97.6409006,19.351717 L100.415213,19.351717 L100.415213,17.2937228 L97.6409006,17.2937228 L97.6409006,14.2351569 L95.1963219,14.2351569 Z M106.476188,27.6860249 C104.349973,27.6860249 103.156109,26.1283166 103.156109,23.4222248 C103.156109,20.7388733 104.349973,19.1697949 106.476188,19.1697949 C108.591032,19.1697949 109.796267,20.7388733 109.796267,23.4222248 C109.796267,26.1169465 108.591032,27.6860249 106.476188,27.6860249 L106.476188,27.6860249 Z M106.476188,29.8577204 C110.09189,29.8577204 112.309066,27.435882 112.309066,23.4222248 C112.309066,19.4313079 110.08052,16.9980993 106.476188,16.9980993 C102.860485,16.9980993 100.631939,19.4313079 100.631939,23.4222248 C100.631939,27.435882 102.849115,29.8577204 106.476188,29.8577204 L106.476188,29.8577204 Z M113.424032,29.6189476 L115.868611,29.6189476 L115.868611,22.3079517 C115.868611,20.5683213 117.176176,19.3971975 119.018138,19.3971975 C119.427463,19.3971975 120.177892,19.4767885 120.371184,19.5450093 L120.371184,17.1345409 C120.109671,17.0663201 119.643495,17.0322097 119.291021,17.0322097 C117.676462,17.0322097 116.312046,17.9190802 115.959572,19.1356845 L115.77765,19.1356845 L115.77765,17.2368722 L113.424032,17.2368722 L113.424032,29.6189476 Z M125.875022,19.0788338 C127.682873,19.0788338 128.865367,20.3409186 128.922217,22.2852115 L122.668644,22.2852115 C122.805085,20.3522888 124.06717,19.0788338 125.875022,19.0788338 L125.875022,19.0788338 Z M128.910847,26.2761284 C128.456042,27.2425897 127.4441,27.776986 125.965983,27.776986 C124.01032,27.776986 122.748235,26.4011998 122.668644,24.2295043 L122.668644,24.0930627 L131.412277,24.0930627 L131.412277,23.2403027 C131.412277,19.351717 129.331542,16.9980993 125.886392,16.9980993 C122.395761,16.9980993 120.178585,19.5108989 120.178585,23.4677054 C120.178585,27.4245118 122.35028,29.8577204 125.897762,29.8577204 C128.728925,29.8577204 130.707328,28.4933044 131.264465,26.2761284 L128.910847,26.2761284 Z" id="App-Store"></path>
                        <path d="M38.0407176,0.405067831 L38.0407176,8.21797391 L40.8615936,8.21797391 C43.1897638,8.21797391 44.5379368,6.78317134 44.5379368,4.2871563 C44.5379368,1.8290417 43.1789351,0.405067831 40.8615936,0.405067831 L38.0407176,0.405067831 Z M39.2535319,1.50959509 L40.7262349,1.50959509 C42.3451254,1.50959509 43.3034652,2.53832147 43.3034652,4.30339935 C43.3034652,6.09554897 42.3613684,7.11344664 40.7262349,7.11344664 L39.2535319,7.11344664 L39.2535319,1.50959509 Z M48.805527,7.29753452 C47.7930436,7.29753452 47.224537,6.55576866 47.224537,5.26715352 C47.224537,3.98936708 47.7930436,3.24218688 48.805527,3.24218688 C49.8125959,3.24218688 50.386517,3.98936708 50.386517,5.26715352 C50.386517,6.55035432 49.8125959,7.29753452 48.805527,7.29753452 L48.805527,7.29753452 Z M48.805527,8.33167524 C50.5272901,8.33167524 51.5830882,7.17841884 51.5830882,5.26715352 C51.5830882,3.36671691 50.5218757,2.20804616 48.805527,2.20804616 C47.0837639,2.20804616 46.0225514,3.36671691 46.0225514,5.26715352 C46.0225514,7.17841884 47.0783495,8.33167524 48.805527,8.33167524 L48.805527,8.33167524 Z M60.7073497,2.32174749 L59.5432645,2.32174749 L58.4928808,6.82107178 L58.4008368,6.82107178 L57.1880226,2.32174749 L56.0726666,2.32174749 L54.8598524,6.82107178 L54.7732228,6.82107178 L53.7174247,2.32174749 L52.5370965,2.32174749 L54.1614013,8.21797391 L55.3579725,8.21797391 L56.5707868,3.87566575 L56.6628307,3.87566575 L57.8810593,8.21797391 L59.0884592,8.21797391 L60.7073497,2.32174749 Z M62.1865499,8.21797391 L63.350635,8.21797391 L63.350635,4.76903339 C63.350635,3.848594 63.924556,3.27467297 64.8612385,3.27467297 C65.7275343,3.27467297 66.1498536,3.74572136 66.1498536,4.6932325 L66.1498536,8.21797391 L67.3139387,8.21797391 L67.3139387,4.40085763 C67.3139387,2.99854116 66.5721728,2.20804616 65.256486,2.20804616 C64.3685327,2.20804616 63.6809103,2.60329366 63.3939498,3.25842993 L63.3073202,3.25842993 L63.3073202,2.32174749 L62.1865499,2.32174749 L62.1865499,8.21797391 Z M69.2804304,8.21797391 L70.4445155,8.21797391 L70.4445155,0.0206490289 L69.2804304,0.0206490289 L69.2804304,8.21797391 Z M74.9557513,7.29753452 C73.943268,7.29753452 73.3747613,6.55576866 73.3747613,5.26715352 C73.3747613,3.98936708 73.943268,3.24218688 74.9557513,3.24218688 C75.9628203,3.24218688 76.5367413,3.98936708 76.5367413,5.26715352 C76.5367413,6.55035432 75.9628203,7.29753452 74.9557513,7.29753452 L74.9557513,7.29753452 Z M74.9557513,8.33167524 C76.6775144,8.33167524 77.7333125,7.17841884 77.7333125,5.26715352 C77.7333125,3.36671691 76.6721001,2.20804616 74.9557513,2.20804616 C73.2339883,2.20804616 72.1727758,3.36671691 72.1727758,5.26715352 C72.1727758,7.17841884 73.2285739,8.33167524 74.9557513,8.33167524 L74.9557513,8.33167524 Z M81.3349377,7.33543497 C80.7014588,7.33543497 80.2412391,7.02681706 80.2412391,6.49621082 C80.2412391,5.97643329 80.6094149,5.70030147 81.4215673,5.64615798 L82.8617842,5.55411404 L82.8617842,6.04681983 C82.8617842,6.77775699 82.2120623,7.33543497 81.3349377,7.33543497 L81.3349377,7.33543497 Z M81.0371485,8.3154322 C81.8114005,8.3154322 82.455708,7.97974254 82.8076407,7.38957846 L82.8996847,7.38957846 L82.8996847,8.21797391 L84.020455,8.21797391 L84.020455,4.18969801 C84.020455,2.94439766 83.1866452,2.20804616 81.7085278,2.20804616 C80.3711835,2.20804616 79.4182581,2.85776808 79.2991424,3.8702514 L80.425327,3.8702514 C80.5552714,3.4533465 81.0046624,3.21511513 81.6543843,3.21511513 C82.4502937,3.21511513 82.8617842,3.56704784 82.8617842,4.18969801 L82.8617842,4.69864685 L81.2645512,4.79069078 C79.8622347,4.87732037 79.0717397,5.48914185 79.0717397,6.55035432 C79.0717397,7.62780983 79.9001351,8.3154322 81.0371485,8.3154322 L81.0371485,8.3154322 Z M88.1093716,8.3154322 C88.921524,8.3154322 89.6091464,7.93101339 89.9610791,7.28670582 L90.053123,7.28670582 L90.053123,8.21797391 L91.168479,8.21797391 L91.168479,0.0206490289 L90.0043939,0.0206490289 L90.0043939,3.25842993 L89.9177643,3.25842993 C89.5983177,2.60870801 88.9161096,2.2242892 88.1093716,2.2242892 C86.6204255,2.2242892 85.6620857,3.40461736 85.6620857,5.26715352 C85.6620857,7.13510404 86.6095968,8.3154322 88.1093716,8.3154322 L88.1093716,8.3154322 Z M88.4396469,3.26925862 C89.4142298,3.26925862 90.0260513,4.04351058 90.0260513,5.27256787 C90.0260513,6.50703952 89.4196441,7.27046278 88.4396469,7.27046278 C87.4542353,7.27046278 86.8640712,6.51786822 86.8640712,5.26715352 C86.8640712,4.02726753 87.4596497,3.26925862 88.4396469,3.26925862 L88.4396469,3.26925862 Z M98.9889651,7.29753452 C97.9764818,7.29753452 97.4079751,6.55576866 97.4079751,5.26715352 C97.4079751,3.98936708 97.9764818,3.24218688 98.9889651,3.24218688 C99.9960341,3.24218688 100.569955,3.98936708 100.569955,5.26715352 C100.569955,6.55035432 99.9960341,7.29753452 98.9889651,7.29753452 L98.9889651,7.29753452 Z M98.9889651,8.33167524 C100.710728,8.33167524 101.766526,7.17841884 101.766526,5.26715352 C101.766526,3.36671691 100.705314,2.20804616 98.9889651,2.20804616 C97.267202,2.20804616 96.2059896,3.36671691 96.2059896,5.26715352 C96.2059896,7.17841884 97.2617877,8.33167524 98.9889651,8.33167524 L98.9889651,8.33167524 Z M103.440643,8.21797391 L104.604728,8.21797391 L104.604728,4.76903339 C104.604728,3.848594 105.178649,3.27467297 106.115332,3.27467297 C106.981628,3.27467297 107.403947,3.74572136 107.403947,4.6932325 L107.403947,8.21797391 L108.568032,8.21797391 L108.568032,4.40085763 C108.568032,2.99854116 107.826266,2.20804616 106.510579,2.20804616 C105.622626,2.20804616 104.935004,2.60329366 104.648043,3.25842993 L104.561413,3.25842993 L104.561413,2.32174749 L103.440643,2.32174749 L103.440643,8.21797391 Z M114.201121,0.89235927 L114.201121,2.34881924 L113.231952,2.34881924 L113.231952,3.32881647 L114.201121,3.32881647 L114.201121,6.6586413 C114.201121,7.79565466 114.715484,8.25046 116.009514,8.25046 C116.236916,8.25046 116.448076,8.22338826 116.632164,8.19090216 L116.632164,7.22173363 C116.469733,7.23797668 116.377689,7.24880538 116.199016,7.24880538 C115.619681,7.24880538 115.365206,6.97808791 115.365206,6.36085209 L115.365206,3.32881647 L116.686307,3.32881647 L116.686307,2.34881924 L115.365206,2.34881924 L115.365206,0.89235927 L114.201121,0.89235927 Z M118.344181,8.21797391 L119.508266,8.21797391 L119.508266,4.77444774 C119.508266,3.8810801 120.09843,3.28008732 121.051356,3.28008732 C121.92848,3.28008732 122.367043,3.75655006 122.367043,4.69864685 L122.367043,8.21797391 L123.531128,8.21797391 L123.531128,4.41168633 C123.531128,3.00936986 122.773119,2.21346051 121.446603,2.21346051 C120.55865,2.21346051 119.876442,2.60870801 119.589481,3.26925862 L119.497437,3.26925862 L119.497437,0.0206490289 L118.344181,0.0206490289 L118.344181,8.21797391 Z M127.869104,3.19887208 C128.729986,3.19887208 129.293078,3.79986486 129.32015,4.72571859 L126.342258,4.72571859 C126.40723,3.80527921 127.008223,3.19887208 127.869104,3.19887208 L127.869104,3.19887208 Z M129.314736,6.62615521 C129.098162,7.0863749 128.616285,7.34084932 127.912419,7.34084932 C126.981151,7.34084932 126.380158,6.68571305 126.342258,5.65157233 L126.342258,5.58660014 L130.505893,5.58660014 L130.505893,5.18052394 C130.505893,3.32881647 129.515067,2.20804616 127.874519,2.20804616 C126.212314,2.20804616 125.156515,3.40461736 125.156515,5.28881092 C125.156515,7.17300449 126.190656,8.33167524 127.879933,8.33167524 C129.228106,8.33167524 130.170203,7.68195332 130.435506,6.62615521 L129.314736,6.62615521 Z" id="Download-on-the"></path>
                        <g id="logo_apple" transform="translate(0.246610, 0.345077)">
                            <path d="M21.4387599,16.6943374 C21.4030756,12.7284629 24.6860273,10.799052 24.8361473,10.7092261 C22.9768744,7.99845303 20.095063,7.62807505 19.0823684,7.59854325 C16.6619914,7.34383149 14.3142133,9.0468319 13.0812607,9.0468319 C11.8236983,9.0468319 9.92504969,7.62315309 7.87874211,7.6649898 C5.24549002,7.70559603 2.78204577,9.23017516 1.43096596,11.5976411 C-1.35732808,16.4248597 0.722202781,23.518644 3.39360011,27.4205329 C4.72991403,29.3327169 6.29140791,31.4651589 8.33525451,31.3900989 C10.3348034,31.3088865 11.0817118,30.1153096 13.4947059,30.1153096 C15.8855512,30.1153096 16.5869314,31.3900989 18.6713842,31.3408793 C20.8173616,31.3088865 22.1684414,29.4225428 23.4579967,27.493132 C25.0022637,25.3053178 25.6224314,23.145805 25.6470413,23.0350608 C25.5978216,23.0190644 21.4805966,21.4477266 21.4387599,16.6943374" id="Fill-2"></path>
                            <path d="M17.5011867,5.03173771 C18.5766364,3.68681036 19.3124704,1.8570693 19.1082087,0.000257428514 C17.5516368,0.0691649599 15.6049991,1.07693761 14.4840212,2.39233316 C13.4922449,3.55145628 12.606291,5.45133536 12.8351624,7.23800921 C14.583691,7.36844132 16.3789783,6.35574671 17.5011867,5.03173771" id="Fill-3"></path>
                        </g>
                    </g>
                </g>
            </g>
        </g>
    </g>
</svg>