<?xml version="1.0" encoding="UTF-8"?>
<svg width="24px" height="24px" viewBox="0 0 24 24" version="1.1" xmlns="http://www.w3.org/2000/svg" xmlns:xlink="http://www.w3.org/1999/xlink">
    <!-- Generator: Sketch 41.2 (35397) - http://www.bohemiancoding.com/sketch -->
    <title>credit-6</title>
    <desc>Created with Sketch.</desc>
    <defs></defs>
    <g id="Website" stroke="none" stroke-width="1" fill="none" fill-rule="evenodd">
        <g id="Home-Bahasa" transform="translate(-474.000000, -3512.000000)" fill="#FFC73E">
            <g id="credit-6" transform="translate(474.000000, 3512.000000)">
                <path d="M15.0313282,0 C12.9073588,0 11.1860763,1.72519084 11.1860763,3.84916031 C11.1860763,5.97312977 12.9112672,7.69441221 15.0313282,7.69441221 C17.1552977,7.69441221 18.8804885,5.96916031 18.8804885,3.84525191 C18.8804885,1.72134351 17.1552977,0 15.0313282,0 Z M15.0313282,6.36793893 C13.6456183,6.36793893 12.5126107,5.23883969 12.5126107,3.84922137 C12.5165802,2.46351145 13.6456794,1.33050382 15.0313282,1.33050382 C16.4170382,1.33050382 17.5500458,2.45960305 17.5500458,3.84922137 C17.5501069,5.23487023 16.4210076,6.36793893 15.0313282,6.36793893 Z" id="Shape"></path>
                <path d="M23.9693435,17.3548702 C23.7719695,13.5254351 21.1623817,10.2486718 17.4751145,9.21038168 C17.1829618,9.12354198 16.871084,9.25380153 16.7171298,9.51829008 L15.0313893,12.4357863 L13.3456489,9.51829008 C13.1956031,9.25380153 12.8837252,9.12745038 12.5916336,9.21038168 C11.5020458,9.51829008 10.4992366,10.0236336 9.59914504,10.7105954 C8.77007634,10.3552977 7.8581374,10.1618321 6.90271756,10.1618321 C3.09691603,10.1578626 0.00177099237,13.2608855 0.00177099237,17.066687 C0.00177099237,20.8724885 3.09691603,23.971542 6.90662595,23.971542 C10.3767939,23.971542 13.2508702,21.3935878 13.7285496,18.0576489 L23.3021679,18.0576489 C23.8745649,18.0220458 23.9772214,17.5403969 23.9693435,17.3548702 Z M6.90662595,22.6410382 C4.65239695,22.6410382 2.70607634,21.2908702 1.82967939,19.3563969 L2.41789313,19.3563969 C2.78503817,19.3563969 3.0850687,19.0603359 3.0850687,18.6892214 C3.0850687,18.3181069 2.78503817,18.0259542 2.41789313,18.0259542 L1.4230229,18.0259542 C1.37563359,17.7416794 1.34406107,17.4534962 1.33618321,17.1613435 L3.46015267,17.1613435 C3.82729771,17.1613435 4.12732824,16.8652214 4.12732824,16.4941679 C4.12732824,16.1230534 3.83126718,15.8269924 3.46015267,15.8269924 L1.47829008,15.8269924 C2.04280916,13.3477252 4.26155725,11.4922137 6.91059542,11.4922137 C9.9820458,11.4922137 12.4850076,13.9951756 12.4850076,17.066626 C12.4850076,20.1380763 9.98198473,22.6410382 6.90662595,22.6410382 Z M13.7956641,16.7311145 L13.7956641,16.727145 C13.6890992,14.544 12.5678779,12.621374 10.8900153,11.4330382 C11.3874198,11.1132824 11.9085802,10.8448244 12.4652214,10.6434809 L14.4549618,14.0978931 C14.573374,14.3071145 14.7945038,14.4334656 15.0313282,14.4334656 C15.2681527,14.4334656 15.4892824,14.3071145 15.6076947,14.1018626 L17.605313,10.6474504 C20.262229,11.5949313 22.1730076,13.9399695 22.5756947,16.7311145 L13.7956641,16.7311145 Z" id="Shape"></path>
                <path d="M6.90662595,16.395542 C6.3539542,16.395542 5.91175573,15.9454656 5.91175573,15.4006718 C5.91175573,14.8558779 6.3578626,14.4058015 6.90662595,14.4058015 C7.45935878,14.4058015 7.90149618,14.8558779 7.90149618,15.4006718 C7.90149618,15.7678168 8.19755725,16.0678473 8.56867176,16.0678473 C8.93978626,16.0678473 9.23584733,15.7717863 9.23584733,15.4006718 C9.23584733,14.3465649 8.53312977,13.4583206 7.57380153,13.1701374 L7.57380153,13.0082443 C7.57380153,12.6410992 7.27774046,12.3410687 6.90662595,12.3410687 C6.53551145,12.3410687 6.23945038,12.6371908 6.23945038,13.0082443 L6.23945038,13.1701374 C5.27615267,13.4583206 4.57343511,14.3505344 4.57343511,15.4006718 C4.57343511,16.6837252 5.61569466,17.7298931 6.90265649,17.7298931 C7.45538931,17.7298931 7.89752672,18.1799695 7.89752672,18.7247634 C7.89752672,19.2774962 7.44745038,19.7196336 6.90265649,19.7196336 C6.34998473,19.7196336 5.90778626,19.2695573 5.90778626,18.7247634 C5.90778626,18.3576183 5.61166412,18.0575878 5.24061069,18.0575878 C4.87346565,18.0575878 4.57343511,18.3536489 4.57343511,18.7247634 C4.57343511,19.7788702 5.27615267,20.6671145 6.23945038,20.9552977 L6.23945038,21.1171908 C6.23945038,21.4843359 6.53557252,21.7843664 6.90662595,21.7843664 C7.27774046,21.7843664 7.57380153,21.4883053 7.57380153,21.1171908 L7.57380153,20.9552977 C8.53709924,20.6671145 9.23584733,19.7749008 9.23584733,18.7247634 C9.23584733,17.4417099 8.19358779,16.395542 6.90662595,16.395542 Z" id="Shape"></path>
            </g>
        </g>
    </g>
</svg>