<?xml version="1.0" encoding="UTF-8"?>
<svg width="24px" height="18px" viewBox="0 0 24 18" version="1.1" xmlns="http://www.w3.org/2000/svg" xmlns:xlink="http://www.w3.org/1999/xlink">
    <!-- Generator: Sketch 41.2 (35397) - http://www.bohemiancoding.com/sketch -->
    <title>credit-5</title>
    <desc>Created with Sketch.</desc>
    <defs></defs>
    <g id="Website" stroke="none" stroke-width="1" fill="none" fill-rule="evenodd">
        <g id="Home-Bahasa" transform="translate(-475.000000, -3713.000000)" fill="#FF8696">
            <g id="credit-5" transform="translate(474.000000, 3713.000000)">
                <path d="M25,1.99508929 C25,0.893231902 24.1028848,0 22.9948544,0 L3.00276387,0 C1.89535256,0 0.997736428,0.892622799 0.997882302,1.99508929 L0.999736019,16.0049107 C0.999881812,17.1067681 1.89702623,18 3.00494659,18 L22.9950534,18 C24.1023548,18 25,17.1073772 25,16.0049107 L25,1.99508929 Z M3.3298971,16.75 C2.7779137,16.75 2.33044275,16.2988071 2.33044275,15.7484264 L2.33044275,11 L3.23847328,11 L3.90564885,10.2787799 L3.23847328,9.62934778 L2.33044275,9.62934778 L2.33044275,8.47641997 L4.80970992,8.47641997 L5.4768855,7.82698783 L4.80970992,7 L2.33044275,7 L2.33044275,2.3471812 C2.33044275,1.79650716 2.77554482,1.35009766 3.32971383,1.35009766 L22.6417671,1.35009766 C23.1936493,1.35009766 23.6410382,1.79594984 23.6410382,2.35905721 L23.6410382,6 L19.484566,6 C19.2094601,6 18.8258786,6.1641347 18.632131,6.36219082 L16.3543118,8.69066333 C16.1586308,8.8906958 16.1609877,9.22151759 16.3434866,9.41271795 L18.650834,11.8300776 C18.8405364,12.0288249 19.21863,12.1898803 19.4920191,12.1898059 L23.6449466,12.1886751 L23.6449466,15.7489979 C23.6449466,16.3018361 23.1997629,16.75 22.6454922,16.75 L3.3298971,16.75 Z M23.6410382,11 L19.9927911,11 C19.8513066,11 19.655525,10.9163336 19.5624608,10.8203073 L18.0236766,9.23254681 C17.9274963,9.13330529 17.9306124,8.97392497 18.0236766,8.8833358 L19.5624608,7.38547524 C19.6586411,7.29185284 19.8492519,7.21595689 19.9927911,7.21595689 L23.6410382,7.21595689 L23.6410382,11 Z" id="Shape"></path>
                <path d="M11.2210687,8.63151145 C10.3525496,8.63151145 9.64983206,7.92879389 9.64983206,7.06027481 C9.64983206,6.19175573 10.3565191,5.48903817 11.2210687,5.48903817 C12.0895878,5.48903817 12.7923053,6.19175573 12.7923053,7.06027481 C12.7923053,7.42741985 13.0883664,7.72745038 13.4594809,7.72745038 C13.8305954,7.72745038 14.1266565,7.43132824 14.1266565,7.06027481 C14.1266565,5.68641221 13.1673282,4.54155725 11.8881832,4.23755725 L11.8881832,3.84671756 C11.8881832,3.47957252 11.5920611,3.17954198 11.2210076,3.17954198 C10.8538626,3.17954198 10.5538321,3.47566412 10.5538321,3.84671756 L10.5538321,4.23755725 C9.27474809,4.53758779 8.31535878,5.69038168 8.31535878,7.06027481 C8.31535878,8.65917557 9.6181374,9.9619542 11.2170382,9.9619542 C12.0855573,9.9619542 12.7882748,10.6646718 12.7882748,11.5331908 C12.7882748,12.4017099 12.0855573,13.1044275 11.2170382,13.1044275 C10.3485191,13.1044275 9.64580153,12.4017099 9.64580153,11.5331908 C9.64580153,11.1660458 9.34967939,10.8660153 8.97862595,10.8660153 C8.60751145,10.8660153 8.31145038,11.1621374 8.31145038,11.5331908 C8.31145038,12.9070534 9.27077863,14.0519084 10.5499237,14.3559084 L10.5499237,14.7467481 C10.5499237,15.1138931 10.8460458,15.4139237 11.2170992,15.4139237 C11.5842443,15.4139237 11.8842748,15.1178015 11.8842748,14.7467481 L11.8842748,14.3559084 C13.1633588,14.0558779 14.1227481,12.903084 14.1227481,11.5331908 C14.1227481,9.93435115 12.8199695,8.63151145 11.2210687,8.63151145 Z" id="Shape"></path>
                <path d="M21.0023741,7.99890137 C20.501187,7.99890137 20,8.50027466 20,9 C20,9.49972534 20.501187,9.99890137 21.0023741,9.99890137 C21.5035611,9.99890137 22.0047481,9.50027466 22.0047481,9 C22.0047481,8.49972534 21.5035611,7.99890137 21.0023741,7.99890137 Z" id="Shape"></path>
            </g>
        </g>
    </g>
</svg>