<?xml version="1.0" encoding="UTF-8"?>
<svg width="18px" height="24px" viewBox="0 0 18 24" version="1.1" xmlns="http://www.w3.org/2000/svg" xmlns:xlink="http://www.w3.org/1999/xlink">
    <!-- Generator: Sketch 41.2 (35397) - http://www.bohemiancoding.com/sketch -->
    <title>credit-4</title>
    <desc>Created with Sketch.</desc>
    <defs></defs>
    <g id="Website" stroke="none" stroke-width="1" fill="none" fill-rule="evenodd">
        <g id="Home-Bahasa" transform="translate(-478.000000, -3903.000000)" fill="#FF4A62">
            <g id="credit-4" transform="translate(478.000000, 3903.000000)">
                <path d="M14.3849799,20.0047634 L3.61138263,20.0047634 C3.27494031,20.0047634 3,20.3008244 3,20.6719389 C3,21.039084 3.27135875,21.3391145 3.61138263,21.3391145 L14.3886174,21.3391145 C14.7250597,21.3391145 15,21.0429924 15,20.6719389 C14.9963625,20.3008244 14.7250597,20.0047634 14.3849799,20.0047634 Z" id="Shape"></path>
                <path d="M14.3849799,17 L3.61138263,17 C3.27494031,17 3,17.2960611 3,17.6671756 C3,18.0343206 3.27135875,18.3343511 3.61138263,18.3343511 L14.3886174,18.3343511 C14.7250597,18.3343511 15,18.038229 15,17.6671756 C14.9963625,17.2961221 14.7250597,17 14.3849799,17 Z" id="Shape"></path>
                <path d="M9.10760305,2.7990229 C7.52842748,2.7990229 6.23749618,4.0860458 6.23749618,5.66912977 C6.23749618,7.24830534 7.52842748,8.53526718 9.10760305,8.53526718 C10.6867786,8.53526718 11.9777099,7.24824427 11.9777099,5.66516031 C11.9777099,4.08207634 10.6867786,2.7990229 9.10760305,2.7990229 Z M9.10760305,7.19700763 C8.26668702,7.19700763 7.57581679,6.5061374 7.57581679,5.66522137 C7.57581679,4.82430534 8.26271756,4.13343511 9.10760305,4.13343511 C9.95248855,4.13343511 10.6393893,4.82430534 10.6393893,5.66522137 C10.6393893,6.50607634 9.94851908,7.19700763 9.10760305,7.19700763 Z" id="Shape"></path>
                <path d="M12.917313,9.97630534 C10.4814656,9.02882443 7.74161832,9.02882443 5.30583206,9.97630534 C4.50833588,10.2881832 3.97538931,11.0817099 3.97538931,11.9541985 L3.97538931,14.6624122 C3.97141985,15.0295573 4.27151145,15.3295878 4.63865649,15.3295878 L13.5805802,15.3295878 C13.9477252,15.3295878 14.2477557,15.0335267 14.2477557,14.6624122 L14.2477557,11.9541985 C14.2477557,11.0817099 13.7148092,10.2881832 12.917313,9.97630534 Z M12.917313,13.999145 L5.30583206,13.999145 L5.30583206,11.9581069 C5.30583206,11.6343817 5.49929771,11.3343511 5.78748092,11.2238168 C7.91535878,10.3987176 10.3077863,10.3987176 12.4357252,11.2238168 C12.7239084,11.3383206 12.917374,11.6304733 12.917374,11.9581069 L12.917374,13.999145 L12.917313,13.999145 Z" id="Shape"></path>
                <path d="M5.15975573,0 C4.64653435,0 4.1648855,0.197374046 3.80170992,0.560610687 L0.697292195,3.77745528 C0.31218835,4.17650571 6.70793361e-15,4.94392294 1.42108547e-14,5.49381655 L2.39491862e-13,22.0047976 C2.54526802e-13,23.1067175 0.892622799,24 1.99508929,24 L16.0049107,24 C17.1067681,24 18,23.1029738 18,21.9950534 L18,2.00494659 C18,0.897645164 17.097099,0 15.9937118,0 L5.15975573,0 Z M4,2.2739542 L4,4 L2.32122137,4 L4,2.2739542 Z M16.8375573,7 L14.3582901,7 C14.3582901,7 13.6869165,6.99975586 13.6911145,7.66992188 C13.6953125,8.34008789 14.3582901,8.34008789 14.3582901,8.34008789 L16.8375573,8.34008789 L16.8375573,9.65251908 L15.9295267,9.65251908 C15.5623817,9.65251908 15.2623511,9.94858015 15.2623511,10.3196947 C15.2623511,10.6868397 15.5584733,10.9868702 15.9295267,10.9868702 L16.8375573,10.9868702 L16.8375573,22.0487939 C16.8375573,22.3764885 16.5730687,22.6409771 16.2493435,22.6409771 L1.96592366,22.6409771 C1.64219847,22.6409771 1.37770992,22.3764885 1.37770992,22.0527634 L1.37770992,5.25459542 L4.63865649,5.25459542 C5.00580153,5.25459542 5.30583206,4.95853435 5.30583206,4.58741985 L5.30583206,1.32647328 L16.2493435,1.32647328 C16.5730687,1.32647328 16.8375573,1.59096183 16.8375573,1.91468702 L16.8375573,7 Z" id="Shape"></path>
            </g>
        </g>
    </g>
</svg>