<svg width="1069px" height="437px" viewBox="0 0 1069 437" version="1.1" xmlns="http://www.w3.org/2000/svg" xmlns:xlink="http://www.w3.org/1999/xlink" class="credit-graph-chart" id="credit-graph-chart">
    <defs>
        <rect id="path-1" x="0" y="0" width="435" height="435"></rect>
        <rect id="path-3" x="0" y="0" width="435" height="435"></rect>
        <rect id="path-5" x="0" y="0" width="435" height="435"></rect>
        <rect id="path-7" x="0" y="0" width="435" height="435"></rect>
        <rect id="path-9" x="0" y="0" width="435" height="435"></rect>
        <rect id="path-11" x="0" y="0" width="435" height="435"></rect>
    </defs>
    <g id="Website" stroke="none" stroke-width="1" fill="none" fill-rule="evenodd">
        <g id="credit-graph">
            <g id="pieces" transform="translate(317.000000, 1.000000)">
                <g id="piece-1">
                    <mask id="mask-2" fill="white">
                        <use xlink:href="#path-1"></use>
                    </mask>
                    <use id="Mask" fill-opacity="0" fill="#FFFFFF" xlink:href="#path-1"></use>
                    <path d="M85.467375,343.080455 C54.1251429,310.210458 36.4618393,267.619396 35.3553214,222.240274 L4.99969643,222.240274 C6.162375,277.416265 28.3989821,327.413348 64.0003214,364.522287 L85.467375,343.080455 Z" id="Fill-4" fill="#FF4A62" mask="url(#mask-2)"></path>
                </g>
                <g id="piece-2">
                    <mask id="mask-4" fill="white">
                        <use xlink:href="#path-3"></use>
                    </mask>
                    <use id="Mask" fill-opacity="0" fill="#FFFFFF" xlink:href="#path-3"></use>
                    <path d="M35.3551696,213.143831 C36.4616875,167.76471 54.1249911,125.173647 85.4672232,92.3036507 L64.0016875,70.8633346 C28.3988304,107.970758 6.16222321,157.966324 4.99954464,213.143831 L35.3551696,213.143831 Z" id="Fill-1" fill="#FF8696" mask="url(#mask-4)"></path>
                </g>
                <g id="piece-3">
                    <mask id="mask-6" fill="white">
                        <use xlink:href="#path-5"></use>
                    </mask>
                    <use id="Mask" fill-opacity="0" fill="#FFFFFF" xlink:href="#path-5"></use>
                    <path d="M91.9071875,85.8720107 C124.815848,54.5666021 167.457009,36.924051 212.889509,35.8188331 L212.889509,5.4988726 C157.647098,6.66018515 107.592723,28.8691507 70.4401339,64.4301785 L91.9071875,85.8720107 Z" id="Fill-7" fill="#FFC73E" mask="url(#mask-6)"></path>
                </g>
                <g id="piece-4">
                    <mask id="mask-8" fill="white">
                        <use xlink:href="#path-7"></use>
                    </mask>
                    <use id="Mask" fill-opacity="0" fill="#FFFFFF" xlink:href="#path-7"></use>
                    <path d="M221.995893,5.49932742 L221.995893,35.819288 C267.428393,36.9245058 310.069554,54.5655409 342.978214,85.8724655 L364.445268,64.4306333 C327.292679,28.8696055 277.238304,6.66063997 221.995893,5.49932742" id="Fill-10" fill="#6DC66A" mask="url(#mask-8)"></path>
                </g>
                <g id="piece-5">
                    <mask id="mask-10" fill="white">
                        <use xlink:href="#path-9"></use>
                    </mask>
                    <use id="Mask" fill-opacity="0" fill="#FFFFFF" xlink:href="#path-9"></use>
                    <path d="M349.41742,92.3042571 C380.759652,125.174254 398.422955,167.765316 399.530991,213.144438 L429.885098,213.144438 C428.72242,157.966931 406.48733,107.971364 370.884473,70.8624249 L349.41742,92.3042571 Z" id="Fill-17" fill="#2EB827" mask="url(#mask-10)"></path>
                </g>
                <g id="piece-6">
                    <mask id="mask-12" fill="white">
                        <use xlink:href="#path-11"></use>
                    </mask>
                    <use id="Mask" fill-opacity="0" fill="#FFFFFF" xlink:href="#path-11"></use>
                    <path d="M399.530384,222.240274 C398.423866,267.619396 380.760562,310.210458 349.416812,343.080455 L370.883866,364.522287 C406.486723,327.413348 428.721812,277.417781 429.884491,222.240274 L399.530384,222.240274 Z" id="Fill-20" fill="#56DFE6" mask="url(#mask-12)"></path>
                </g>
            </g>
            <g id="items">
                <g id="item-1" transform="translate(143.000000, 362.000000)">
                    <path d="M237.823811,0.264563266 L234.882064,2.97493685 C234.475894,3.34916135 234.449996,3.98179649 234.824221,4.38796698 C235.198445,4.79413747 235.83108,4.82003482 236.237251,4.44581032 L239.178998,1.73543673 C239.585168,1.36121224 239.611066,0.728577097 239.236841,0.322406604 C238.862617,-0.0837638885 238.229982,-0.109661233 237.823811,0.264563266 Z M231.940317,5.68531043 L228.99857,8.39568401 C228.5924,8.76990851 228.566502,9.40254365 228.940727,9.80871414 C229.314951,10.2148846 229.947587,10.240782 230.353757,9.86655748 L233.295504,7.1561839 C233.701674,6.7819594 233.727572,6.14932426 233.353347,5.74315377 C232.979123,5.33698328 232.346488,5.31108593 231.940317,5.68531043 Z M226.056823,11.1060576 L223.115076,13.8164312 C222.708906,14.1906557 222.683009,14.8232908 223.057233,15.2294613 C223.431458,15.6356318 224.064093,15.6615291 224.470263,15.2873046 L227.41201,12.5769311 C227.818181,12.2027066 227.844078,11.5700714 227.469853,11.1639009 C227.095629,10.7577304 226.462994,10.7318331 226.056823,11.1060576 Z M220.173329,16.5268048 L217.231583,19.2371783 C216.825412,19.6114028 216.799515,20.244038 217.173739,20.6502085 C217.547964,21.056379 218.180599,21.0822763 218.586769,20.7080518 L221.528516,17.9976782 C221.934687,17.6234537 221.960584,16.9908186 221.58636,16.5846481 C221.212135,16.1784776 220.5795,16.1525803 220.173329,16.5268048 Z M214.289836,21.9475519 L211.348089,24.6579255 C210.941918,25.03215 210.916021,25.6647851 211.290245,26.0709556 C211.66447,26.4771261 212.297105,26.5030235 212.703275,26.128799 L215.645022,23.4184254 C216.051193,23.0442009 216.07709,22.4115658 215.702866,22.0053953 C215.328641,21.5992248 214.696006,21.5733274 214.289836,21.9475519 Z M208.406342,27.3682991 L205.464595,30.0786727 C205.058424,30.4528972 205.032527,31.0855323 205.406751,31.4917028 C205.780976,31.8978733 206.413611,31.9237706 206.819782,31.5495461 L209.761529,28.8391726 C210.167699,28.4649481 210.193596,27.8323129 209.819372,27.4261424 C209.445147,27.0199719 208.812512,26.9940746 208.406342,27.3682991 Z M202.522848,32.7890463 L199.581101,35.4994198 C199.17493,35.8736443 199.149033,36.5062795 199.523258,36.91245 C199.897482,37.3186205 200.530117,37.3445178 200.936288,36.9702933 L203.878035,34.2599197 C204.284205,33.8856952 204.310102,33.2530601 203.935878,32.8468896 C203.561653,32.4407191 202.929018,32.4148218 202.522848,32.7890463 Z M196.639354,38.2097934 L193.697607,40.920167 C193.291437,41.2943915 193.265539,41.9270266 193.639764,42.3331971 C194.013988,42.7393676 194.646623,42.765265 195.052794,42.3910405 L197.994541,39.6806669 C198.400711,39.3064424 198.426609,38.6738073 198.052384,38.2676368 C197.67816,37.8614663 197.045524,37.8355689 196.639354,38.2097934 Z M190.509668,41 L186.509668,41 C185.957384,41 185.509668,41.4477153 185.509668,42 C185.509668,42.5522847 185.957384,43 186.509668,43 L190.509668,43 C191.061953,43 191.509668,42.5522847 191.509668,42 C191.509668,41.4477153 191.061953,41 190.509668,41 Z M182.509668,41 L178.509668,41 C177.957384,41 177.509668,41.4477153 177.509668,42 C177.509668,42.5522847 177.957384,43 178.509668,43 L182.509668,43 C183.061953,43 183.509668,42.5522847 183.509668,42 C183.509668,41.4477153 183.061953,41 182.509668,41 Z M174.509668,41 L170.509668,41 C169.957384,41 169.509668,41.4477153 169.509668,42 C169.509668,42.5522847 169.957384,43 170.509668,43 L174.509668,43 C175.061953,43 175.509668,42.5522847 175.509668,42 C175.509668,41.4477153 175.061953,41 174.509668,41 Z M166.509668,41 L162.509668,41 C161.957384,41 161.509668,41.4477153 161.509668,42 C161.509668,42.5522847 161.957384,43 162.509668,43 L166.509668,43 C167.061953,43 167.509668,42.5522847 167.509668,42 C167.509668,41.4477153 167.061953,41 166.509668,41 Z M158.509668,41 L154.509668,41 C153.957384,41 153.509668,41.4477153 153.509668,42 C153.509668,42.5522847 153.957384,43 154.509668,43 L158.509668,43 C159.061953,43 159.509668,42.5522847 159.509668,42 C159.509668,41.4477153 159.061953,41 158.509668,41 Z M150.509668,41 L146.509668,41 C145.957384,41 145.509668,41.4477153 145.509668,42 C145.509668,42.5522847 145.957384,43 146.509668,43 L150.509668,43 C151.061953,43 151.509668,42.5522847 151.509668,42 C151.509668,41.4477153 151.061953,41 150.509668,41 Z M142.509668,41 L138.509668,41 C137.957384,41 137.509668,41.4477153 137.509668,42 C137.509668,42.5522847 137.957384,43 138.509668,43 L142.509668,43 C143.061953,43 143.509668,42.5522847 143.509668,42 C143.509668,41.4477153 143.061953,41 142.509668,41 Z M134.509668,41 L130.509668,41 C129.957384,41 129.509668,41.4477153 129.509668,42 C129.509668,42.5522847 129.957384,43 130.509668,43 L134.509668,43 C135.061953,43 135.509668,42.5522847 135.509668,42 C135.509668,41.4477153 135.061953,41 134.509668,41 Z M126.509668,41 L122.509668,41 C121.957384,41 121.509668,41.4477153 121.509668,42 C121.509668,42.5522847 121.957384,43 122.509668,43 L126.509668,43 C127.061953,43 127.509668,42.5522847 127.509668,42 C127.509668,41.4477153 127.061953,41 126.509668,41 Z M118.509668,41 L114.509668,41 C113.957384,41 113.509668,41.4477153 113.509668,42 C113.509668,42.5522847 113.957384,43 114.509668,43 L118.509668,43 C119.061953,43 119.509668,42.5522847 119.509668,42 C119.509668,41.4477153 119.061953,41 118.509668,41 Z M110.509668,41 L106.509668,41 C105.957384,41 105.509668,41.4477153 105.509668,42 C105.509668,42.5522847 105.957384,43 106.509668,43 L110.509668,43 C111.061953,43 111.509668,42.5522847 111.509668,42 C111.509668,41.4477153 111.061953,41 110.509668,41 Z M102.509668,41 L102,41 C101.447715,41 101,41.4477153 101,42 C101,42.5522847 101.447715,43 102,43 L102.509668,43 C103.061953,43 103.509668,42.5522847 103.509668,42 C103.509668,41.4477153 103.061953,41 102.509668,41 Z" id="line-1" fill="#FF4A62"></path>
                    <g id="credit-1" transform="translate(66.000000, 31.000000)" fill="#FF4A62">
                        <path d="M14.3849799,20.0047634 L3.61138263,20.0047634 C3.27494031,20.0047634 3,20.3008244 3,20.6719389 C3,21.039084 3.27135875,21.3391145 3.61138263,21.3391145 L14.3886174,21.3391145 C14.7250597,21.3391145 15,21.0429924 15,20.6719389 C14.9963625,20.3008244 14.7250597,20.0047634 14.3849799,20.0047634 Z" id="Shape"></path>
                        <path d="M14.3849799,17 L3.61138263,17 C3.27494031,17 3,17.2960611 3,17.6671756 C3,18.0343206 3.27135875,18.3343511 3.61138263,18.3343511 L14.3886174,18.3343511 C14.7250597,18.3343511 15,18.038229 15,17.6671756 C14.9963625,17.2961221 14.7250597,17 14.3849799,17 Z" id="Shape"></path>
                        <path d="M9.10760305,2.7990229 C7.52842748,2.7990229 6.23749618,4.0860458 6.23749618,5.66912977 C6.23749618,7.24830534 7.52842748,8.53526718 9.10760305,8.53526718 C10.6867786,8.53526718 11.9777099,7.24824427 11.9777099,5.66516031 C11.9777099,4.08207634 10.6867786,2.7990229 9.10760305,2.7990229 Z M9.10760305,7.19700763 C8.26668702,7.19700763 7.57581679,6.5061374 7.57581679,5.66522137 C7.57581679,4.82430534 8.26271756,4.13343511 9.10760305,4.13343511 C9.95248855,4.13343511 10.6393893,4.82430534 10.6393893,5.66522137 C10.6393893,6.50607634 9.94851908,7.19700763 9.10760305,7.19700763 Z" id="Shape"></path>
                        <path d="M12.917313,9.97630534 C10.4814656,9.02882443 7.74161832,9.02882443 5.30583206,9.97630534 C4.50833588,10.2881832 3.97538931,11.0817099 3.97538931,11.9541985 L3.97538931,14.6624122 C3.97141985,15.0295573 4.27151145,15.3295878 4.63865649,15.3295878 L13.5805802,15.3295878 C13.9477252,15.3295878 14.2477557,15.0335267 14.2477557,14.6624122 L14.2477557,11.9541985 C14.2477557,11.0817099 13.7148092,10.2881832 12.917313,9.97630534 Z M12.917313,13.999145 L5.30583206,13.999145 L5.30583206,11.9581069 C5.30583206,11.6343817 5.49929771,11.3343511 5.78748092,11.2238168 C7.91535878,10.3987176 10.3077863,10.3987176 12.4357252,11.2238168 C12.7239084,11.3383206 12.917374,11.6304733 12.917374,11.9581069 L12.917374,13.999145 L12.917313,13.999145 Z" id="Shape"></path>
                        <path d="M5.15975573,0 C4.64653435,0 4.1648855,0.197374046 3.80170992,0.560610687 L0.697292195,3.77745528 C0.31218835,4.17650571 6.70793361e-15,4.94392294 1.42108547e-14,5.49381655 L2.39491862e-13,22.0047976 C2.54526802e-13,23.1067175 0.892622799,24 1.99508929,24 L16.0049107,24 C17.1067681,24 18,23.1029738 18,21.9950534 L18,2.00494659 C18,0.897645164 17.097099,0 15.9937118,0 L5.15975573,0 Z M4,2.2739542 L4,4 L2.32122137,4 L4,2.2739542 Z M16.8375573,7 L14.3582901,7 C14.3582901,7 13.6869165,6.99975586 13.6911145,7.66992188 C13.6953125,8.34008789 14.3582901,8.34008789 14.3582901,8.34008789 L16.8375573,8.34008789 L16.8375573,9.65251908 L15.9295267,9.65251908 C15.5623817,9.65251908 15.2623511,9.94858015 15.2623511,10.3196947 C15.2623511,10.6868397 15.5584733,10.9868702 15.9295267,10.9868702 L16.8375573,10.9868702 L16.8375573,22.0487939 C16.8375573,22.3764885 16.5730687,22.6409771 16.2493435,22.6409771 L1.96592366,22.6409771 C1.64219847,22.6409771 1.37770992,22.3764885 1.37770992,22.0527634 L1.37770992,5.25459542 L4.63865649,5.25459542 C5.00580153,5.25459542 5.30583206,4.95853435 5.30583206,4.58741985 L5.30583206,1.32647328 L16.2493435,1.32647328 C16.5730687,1.32647328 16.8375573,1.59096183 16.8375573,1.91468702 L16.8375573,7 Z" id="Shape"></path>
                    </g>
                    <text id="label-1" font-family="Roboto-Medium, Roboto" font-size="16" font-weight="400" line-spacing="24" fill="#393F46">
                        <tspan x="0.71875" y="47">KYC</tspan>
                    </text>
                </g>
                <g id="item-2" transform="translate(0.000000, 201.000000)">
                    <path d="M322,11 L318,11 C317.447715,11 317,11.4477153 317,12 C317,12.5522847 317.447715,13 318,13 L322,13 C322.552285,13 323,12.5522847 323,12 C323,11.4477153 322.552285,11 322,11 Z M314,11 L310,11 C309.447715,11 309,11.4477153 309,12 C309,12.5522847 309.447715,13 310,13 L314,13 C314.552285,13 315,12.5522847 315,12 C315,11.4477153 314.552285,11 314,11 Z M306,11 L302,11 C301.447715,11 301,11.4477153 301,12 C301,12.5522847 301.447715,13 302,13 L306,13 C306.552285,13 307,12.5522847 307,12 C307,11.4477153 306.552285,11 306,11 Z M298,11 L294,11 C293.447715,11 293,11.4477153 293,12 C293,12.5522847 293.447715,13 294,13 L298,13 C298.552285,13 299,12.5522847 299,12 C299,11.4477153 298.552285,11 298,11 Z M290,11 L286,11 C285.447715,11 285,11.4477153 285,12 C285,12.5522847 285.447715,13 286,13 L290,13 C290.552285,13 291,12.5522847 291,12 C291,11.4477153 290.552285,11 290,11 Z M282,11 L278,11 C277.447715,11 277,11.4477153 277,12 C277,12.5522847 277.447715,13 278,13 L282,13 C282.552285,13 283,12.5522847 283,12 C283,11.4477153 282.552285,11 282,11 Z M274,11 L270,11 C269.447715,11 269,11.4477153 269,12 C269,12.5522847 269.447715,13 270,13 L274,13 C274.552285,13 275,12.5522847 275,12 C275,11.4477153 274.552285,11 274,11 Z M266,11 L262,11 C261.447715,11 261,11.4477153 261,12 C261,12.5522847 261.447715,13 262,13 L266,13 C266.552285,13 267,12.5522847 267,12 C267,11.4477153 266.552285,11 266,11 Z M258,11 L254,11 C253.447715,11 253,11.4477153 253,12 C253,12.5522847 253.447715,13 254,13 L258,13 C258.552285,13 259,12.5522847 259,12 C259,11.4477153 258.552285,11 258,11 Z M250,11 L246,11 C245.447715,11 245,11.4477153 245,12 C245,12.5522847 245.447715,13 246,13 L250,13 C250.552285,13 251,12.5522847 251,12 C251,11.4477153 250.552285,11 250,11 Z" id="line-2" fill="#FF8696"></path>
                    <g id="credit-2" transform="translate(205.000000, 2.000000)" fill="#FF8696">
                        <path d="M25,1.99508929 C25,0.893231902 24.1028848,0 22.9948544,0 L3.00276387,0 C1.89535256,0 0.997736428,0.892622799 0.997882302,1.99508929 L0.999736019,16.0049107 C0.999881812,17.1067681 1.89702623,18 3.00494659,18 L22.9950534,18 C24.1023548,18 25,17.1073772 25,16.0049107 L25,1.99508929 Z M3.3298971,16.75 C2.7779137,16.75 2.33044275,16.2988071 2.33044275,15.7484264 L2.33044275,11 L3.23847328,11 L3.90564885,10.2787799 L3.23847328,9.62934778 L2.33044275,9.62934778 L2.33044275,8.47641997 L4.80970992,8.47641997 L5.4768855,7.82698783 L4.80970992,7 L2.33044275,7 L2.33044275,2.3471812 C2.33044275,1.79650716 2.77554482,1.35009766 3.32971383,1.35009766 L22.6417671,1.35009766 C23.1936493,1.35009766 23.6410382,1.79594984 23.6410382,2.35905721 L23.6410382,6 L19.484566,6 C19.2094601,6 18.8258786,6.1641347 18.632131,6.36219082 L16.3543118,8.69066333 C16.1586308,8.8906958 16.1609877,9.22151759 16.3434866,9.41271795 L18.650834,11.8300776 C18.8405364,12.0288249 19.21863,12.1898803 19.4920191,12.1898059 L23.6449466,12.1886751 L23.6449466,15.7489979 C23.6449466,16.3018361 23.1997629,16.75 22.6454922,16.75 L3.3298971,16.75 Z M23.6410382,11 L19.9927911,11 C19.8513066,11 19.655525,10.9163336 19.5624608,10.8203073 L18.0236766,9.23254681 C17.9274963,9.13330529 17.9306124,8.97392497 18.0236766,8.8833358 L19.5624608,7.38547524 C19.6586411,7.29185284 19.8492519,7.21595689 19.9927911,7.21595689 L23.6410382,7.21595689 L23.6410382,11 Z" id="Shape"></path>
                        <path d="M11.2210687,8.63151145 C10.3525496,8.63151145 9.64983206,7.92879389 9.64983206,7.06027481 C9.64983206,6.19175573 10.3565191,5.48903817 11.2210687,5.48903817 C12.0895878,5.48903817 12.7923053,6.19175573 12.7923053,7.06027481 C12.7923053,7.42741985 13.0883664,7.72745038 13.4594809,7.72745038 C13.8305954,7.72745038 14.1266565,7.43132824 14.1266565,7.06027481 C14.1266565,5.68641221 13.1673282,4.54155725 11.8881832,4.23755725 L11.8881832,3.84671756 C11.8881832,3.47957252 11.5920611,3.17954198 11.2210076,3.17954198 C10.8538626,3.17954198 10.5538321,3.47566412 10.5538321,3.84671756 L10.5538321,4.23755725 C9.27474809,4.53758779 8.31535878,5.69038168 8.31535878,7.06027481 C8.31535878,8.65917557 9.6181374,9.9619542 11.2170382,9.9619542 C12.0855573,9.9619542 12.7882748,10.6646718 12.7882748,11.5331908 C12.7882748,12.4017099 12.0855573,13.1044275 11.2170382,13.1044275 C10.3485191,13.1044275 9.64580153,12.4017099 9.64580153,11.5331908 C9.64580153,11.1660458 9.34967939,10.8660153 8.97862595,10.8660153 C8.60751145,10.8660153 8.31145038,11.1621374 8.31145038,11.5331908 C8.31145038,12.9070534 9.27077863,14.0519084 10.5499237,14.3559084 L10.5499237,14.7467481 C10.5499237,15.1138931 10.8460458,15.4139237 11.2170992,15.4139237 C11.5842443,15.4139237 11.8842748,15.1178015 11.8842748,14.7467481 L11.8842748,14.3559084 C13.1633588,14.0558779 14.1227481,12.903084 14.1227481,11.5331908 C14.1227481,9.93435115 12.8199695,8.63151145 11.2210687,8.63151145 Z" id="Shape"></path>
                        <path d="M21.0023741,7.99890137 C20.501187,7.99890137 20,8.50027466 20,9 C20,9.49972534 20.501187,9.99890137 21.0023741,9.99890137 C21.5035611,9.99890137 22.0047481,9.50027466 22.0047481,9 C22.0047481,8.49972534 21.5035611,7.99890137 21.0023741,7.99890137 Z" id="Shape"></path>
                    </g>
                    <text id="label-2" font-family="Roboto-Medium, Roboto" font-size="16" font-weight="400" line-spacing="24" fill="#393F46">
                        <tspan x="0.4140625" y="15">Penghasilan / Kapasitas</tspan>
                    </text>
                </g>
                <g id="item-3" transform="translate(73.000000, 2.000000)">
                    <path d="M316.849708,63.2997913 L314.048873,60.4440383 C313.662158,60.0497411 313.029023,60.0435942 312.634726,60.4303088 C312.240429,60.8170233 312.234282,61.4501585 312.620996,61.8444557 L315.421831,64.7002087 C315.808546,65.0945059 316.441681,65.1006528 316.835978,64.7139382 C317.230275,64.3272237 317.236422,63.6940885 316.849708,63.2997913 Z M311.248038,57.5882853 L308.447204,54.7325323 C308.060489,54.3382351 307.427354,54.3320882 307.033057,54.7188028 C306.63876,55.1055173 306.632613,55.7386525 307.019327,56.1329497 L309.820162,58.9887027 C310.206876,59.3829999 310.840012,59.3891468 311.234309,59.0024323 C311.628606,58.6157177 311.634753,57.9825826 311.248038,57.5882853 Z M305.646369,51.8767794 L302.845534,49.0210264 C302.45882,48.6267292 301.825685,48.6205822 301.431387,49.0072968 C301.03709,49.3940113 301.030943,50.0271465 301.417658,50.4214437 L304.218492,53.2771967 C304.605207,53.6714939 305.238342,53.6776408 305.632639,53.2909263 C306.026937,52.9042117 306.033084,52.2710766 305.646369,51.8767794 Z M300.0447,46.1652734 L297.243865,43.3095204 C296.85715,42.9152232 296.224015,42.9090762 295.829718,43.2957908 C295.435421,43.6825054 295.429274,44.3156405 295.815988,44.7099377 L298.616823,47.5656907 C299.003538,47.9599879 299.636673,47.9661349 300.03097,47.5794203 C300.425267,47.1927057 300.431414,46.5595706 300.0447,46.1652734 Z M294.44303,40.4537674 L291.642196,37.5980144 C291.255481,37.2037172 290.622346,37.1975702 290.228049,37.5842848 C289.833752,37.9709994 289.827605,38.6041345 290.214319,38.9984317 L293.015154,41.8541847 C293.401868,42.2484819 294.035004,42.2546289 294.429301,41.8679143 C294.823598,41.4811997 294.829745,40.8480646 294.44303,40.4537674 Z M288.841361,34.7422614 L286.040526,31.8865084 C285.653812,31.4922112 285.020677,31.4860642 284.626379,31.8727788 C284.232082,32.2594934 284.225935,32.8926285 284.61265,33.2869257 L287.413484,36.1426787 C287.800199,36.5369759 288.433334,36.5431229 288.827631,36.1564083 C289.221929,35.7696937 289.228076,35.1365586 288.841361,34.7422614 Z M283.239692,29.0307554 L280.438857,26.1750024 C280.052142,25.7807052 279.419007,25.7745583 279.02471,26.1612728 C278.630413,26.5479874 278.624266,27.1811225 279.01098,27.5754197 L281.811815,30.4311727 C282.19853,30.8254699 282.831665,30.8316169 283.225962,30.4449023 C283.620259,30.0581877 283.626406,29.4250526 283.239692,29.0307554 Z M277.638022,23.3192494 L274.837188,20.4634964 C274.450473,20.0691992 273.817338,20.0630523 273.423041,20.4497668 C273.028743,20.8364814 273.022597,21.4696165 273.409311,21.8639138 L276.210146,24.7196667 C276.59686,25.113964 277.229995,25.1201109 277.624293,24.7333963 C278.01859,24.3466818 278.024737,23.7135466 277.638022,23.3192494 Z M272.036353,17.6077434 L269.235518,14.7519904 C268.848804,14.3576932 268.215669,14.3515463 267.821371,14.7382608 C267.427074,15.1249754 267.420927,15.7581106 267.807642,16.1524078 L270.608476,19.0081608 C270.995191,19.402458 271.628326,19.4086049 272.022623,19.0218903 C272.416921,18.6351758 272.423068,18.0020406 272.036353,17.6077434 Z M265.006807,13.2966548 C265.393522,13.690952 266.026657,13.6970989 266.420954,13.3103843 C266.815251,12.9236698 266.821398,12.2905346 266.434684,11.8962374 L265.555682,11 L261.9712,11 C261.418916,11 260.9712,11.4477153 260.9712,12 C260.9712,12.5522847 261.418916,13 261.9712,13 L264.715857,13 L265.006807,13.2966548 Z M257.9712,11 L253.9712,11 C253.418916,11 252.9712,11.4477153 252.9712,12 C252.9712,12.5522847 253.418916,13 253.9712,13 L257.9712,13 C258.523485,13 258.9712,12.5522847 258.9712,12 C258.9712,11.4477153 258.523485,11 257.9712,11 Z M249.9712,11 L245.9712,11 C245.418916,11 244.9712,11.4477153 244.9712,12 C244.9712,12.5522847 245.418916,13 245.9712,13 L249.9712,13 C250.523485,13 250.9712,12.5522847 250.9712,12 C250.9712,11.4477153 250.523485,11 249.9712,11 Z M241.9712,11 L237.9712,11 C237.418916,11 236.9712,11.4477153 236.9712,12 C236.9712,12.5522847 237.418916,13 237.9712,13 L241.9712,13 C242.523485,13 242.9712,12.5522847 242.9712,12 C242.9712,11.4477153 242.523485,11 241.9712,11 Z M233.9712,11 L229.9712,11 C229.418916,11 228.9712,11.4477153 228.9712,12 C228.9712,12.5522847 229.418916,13 229.9712,13 L233.9712,13 C234.523485,13 234.9712,12.5522847 234.9712,12 C234.9712,11.4477153 234.523485,11 233.9712,11 Z M225.9712,11 L221.9712,11 C221.418916,11 220.9712,11.4477153 220.9712,12 C220.9712,12.5522847 221.418916,13 221.9712,13 L225.9712,13 C226.523485,13 226.9712,12.5522847 226.9712,12 C226.9712,11.4477153 226.523485,11 225.9712,11 Z M217.9712,11 L213.9712,11 C213.418916,11 212.9712,11.4477153 212.9712,12 C212.9712,12.5522847 213.418916,13 213.9712,13 L217.9712,13 C218.523485,13 218.9712,12.5522847 218.9712,12 C218.9712,11.4477153 218.523485,11 217.9712,11 Z M209.9712,11 L205.9712,11 C205.418916,11 204.9712,11.4477153 204.9712,12 C204.9712,12.5522847 205.418916,13 205.9712,13 L209.9712,13 C210.523485,13 210.9712,12.5522847 210.9712,12 C210.9712,11.4477153 210.523485,11 209.9712,11 Z M201.9712,11 L197.9712,11 C197.418916,11 196.9712,11.4477153 196.9712,12 C196.9712,12.5522847 197.418916,13 197.9712,13 L201.9712,13 C202.523485,13 202.9712,12.5522847 202.9712,12 C202.9712,11.4477153 202.523485,11 201.9712,11 Z M193.9712,11 L189.9712,11 C189.418916,11 188.9712,11.4477153 188.9712,12 C188.9712,12.5522847 189.418916,13 189.9712,13 L193.9712,13 C194.523485,13 194.9712,12.5522847 194.9712,12 C194.9712,11.4477153 194.523485,11 193.9712,11 Z M185.9712,11 L181.9712,11 C181.418916,11 180.9712,11.4477153 180.9712,12 C180.9712,12.5522847 181.418916,13 181.9712,13 L185.9712,13 C186.523485,13 186.9712,12.5522847 186.9712,12 C186.9712,11.4477153 186.523485,11 185.9712,11 Z M177.9712,11 L173.9712,11 C173.418916,11 172.9712,11.4477153 172.9712,12 C172.9712,12.5522847 173.418916,13 173.9712,13 L177.9712,13 C178.523485,13 178.9712,12.5522847 178.9712,12 C178.9712,11.4477153 178.523485,11 177.9712,11 Z" id="line-3" fill="#FFC73E"></path>
                    <g id="credit-3" transform="translate(132.000000, 0.000000)" fill="#FFC73E">
                        <path d="M15.0313282,0 C12.9073588,0 11.1860763,1.72519084 11.1860763,3.84916031 C11.1860763,5.97312977 12.9112672,7.69441221 15.0313282,7.69441221 C17.1552977,7.69441221 18.8804885,5.96916031 18.8804885,3.84525191 C18.8804885,1.72134351 17.1552977,0 15.0313282,0 Z M15.0313282,6.36793893 C13.6456183,6.36793893 12.5126107,5.23883969 12.5126107,3.84922137 C12.5165802,2.46351145 13.6456794,1.33050382 15.0313282,1.33050382 C16.4170382,1.33050382 17.5500458,2.45960305 17.5500458,3.84922137 C17.5501069,5.23487023 16.4210076,6.36793893 15.0313282,6.36793893 Z" id="Shape"></path>
                        <path d="M23.9693435,17.3548702 C23.7719695,13.5254351 21.1623817,10.2486718 17.4751145,9.21038168 C17.1829618,9.12354198 16.871084,9.25380153 16.7171298,9.51829008 L15.0313893,12.4357863 L13.3456489,9.51829008 C13.1956031,9.25380153 12.8837252,9.12745038 12.5916336,9.21038168 C11.5020458,9.51829008 10.4992366,10.0236336 9.59914504,10.7105954 C8.77007634,10.3552977 7.8581374,10.1618321 6.90271756,10.1618321 C3.09691603,10.1578626 0.00177099237,13.2608855 0.00177099237,17.066687 C0.00177099237,20.8724885 3.09691603,23.971542 6.90662595,23.971542 C10.3767939,23.971542 13.2508702,21.3935878 13.7285496,18.0576489 L23.3021679,18.0576489 C23.8745649,18.0220458 23.9772214,17.5403969 23.9693435,17.3548702 Z M6.90662595,22.6410382 C4.65239695,22.6410382 2.70607634,21.2908702 1.82967939,19.3563969 L2.41789313,19.3563969 C2.78503817,19.3563969 3.0850687,19.0603359 3.0850687,18.6892214 C3.0850687,18.3181069 2.78503817,18.0259542 2.41789313,18.0259542 L1.4230229,18.0259542 C1.37563359,17.7416794 1.34406107,17.4534962 1.33618321,17.1613435 L3.46015267,17.1613435 C3.82729771,17.1613435 4.12732824,16.8652214 4.12732824,16.4941679 C4.12732824,16.1230534 3.83126718,15.8269924 3.46015267,15.8269924 L1.47829008,15.8269924 C2.04280916,13.3477252 4.26155725,11.4922137 6.91059542,11.4922137 C9.9820458,11.4922137 12.4850076,13.9951756 12.4850076,17.066626 C12.4850076,20.1380763 9.98198473,22.6410382 6.90662595,22.6410382 Z M13.7956641,16.7311145 L13.7956641,16.727145 C13.6890992,14.544 12.5678779,12.621374 10.8900153,11.4330382 C11.3874198,11.1132824 11.9085802,10.8448244 12.4652214,10.6434809 L14.4549618,14.0978931 C14.573374,14.3071145 14.7945038,14.4334656 15.0313282,14.4334656 C15.2681527,14.4334656 15.4892824,14.3071145 15.6076947,14.1018626 L17.605313,10.6474504 C20.262229,11.5949313 22.1730076,13.9399695 22.5756947,16.7311145 L13.7956641,16.7311145 Z" id="Shape"></path>
                        <path d="M6.90662595,16.395542 C6.3539542,16.395542 5.91175573,15.9454656 5.91175573,15.4006718 C5.91175573,14.8558779 6.3578626,14.4058015 6.90662595,14.4058015 C7.45935878,14.4058015 7.90149618,14.8558779 7.90149618,15.4006718 C7.90149618,15.7678168 8.19755725,16.0678473 8.56867176,16.0678473 C8.93978626,16.0678473 9.23584733,15.7717863 9.23584733,15.4006718 C9.23584733,14.3465649 8.53312977,13.4583206 7.57380153,13.1701374 L7.57380153,13.0082443 C7.57380153,12.6410992 7.27774046,12.3410687 6.90662595,12.3410687 C6.53551145,12.3410687 6.23945038,12.6371908 6.23945038,13.0082443 L6.23945038,13.1701374 C5.27615267,13.4583206 4.57343511,14.3505344 4.57343511,15.4006718 C4.57343511,16.6837252 5.61569466,17.7298931 6.90265649,17.7298931 C7.45538931,17.7298931 7.89752672,18.1799695 7.89752672,18.7247634 C7.89752672,19.2774962 7.44745038,19.7196336 6.90265649,19.7196336 C6.34998473,19.7196336 5.90778626,19.2695573 5.90778626,18.7247634 C5.90778626,18.3576183 5.61166412,18.0575878 5.24061069,18.0575878 C4.87346565,18.0575878 4.57343511,18.3536489 4.57343511,18.7247634 C4.57343511,19.7788702 5.27615267,20.6671145 6.23945038,20.9552977 L6.23945038,21.1171908 C6.23945038,21.4843359 6.53557252,21.7843664 6.90662595,21.7843664 C7.27774046,21.7843664 7.57380153,21.4883053 7.57380153,21.1171908 L7.57380153,20.9552977 C8.53709924,20.6671145 9.23584733,19.7749008 9.23584733,18.7247634 C9.23584733,17.4417099 8.19358779,16.395542 6.90662595,16.395542 Z" id="Shape"></path>
                    </g>
                    <text id="label-3" font-family="Roboto-Medium, Roboto" font-size="16" font-weight="400" line-spacing="24" fill="#393F46">
                        <tspan x="0.2109375" y="16">Sejarah Kredit</tspan>
                    </text>
                </g>
                <g id="item-4" transform="translate(679.000000, 0.000000)">
                    <path d="M1.71393825,66.7002087 L4.51477292,63.8444557 C4.90148748,63.4501585 4.89534054,62.8170233 4.50104333,62.4303088 C4.10674613,62.0435942 3.47361099,62.0497411 3.08689642,62.4440383 L0.286061751,65.2997913 C-0.100652817,65.6940885 -0.0945058739,66.3272237 0.299791333,66.7139382 C0.69408854,67.1006528 1.32722368,67.0945059 1.71393825,66.7002087 Z M7.31560758,60.9887027 L10.1164423,58.1329497 C10.5031568,57.7386525 10.4970099,57.1055173 10.1027127,56.7188028 C9.70841546,56.3320882 9.07528032,56.3382351 8.68856575,56.7325323 L5.88773109,59.5882853 C5.50101652,59.9825826 5.50716346,60.6157177 5.90146067,61.0024323 C6.29575788,61.3891468 6.92889302,61.3829999 7.31560758,60.9887027 Z M12.9172769,55.2771967 L15.7181116,52.4214437 C16.1048262,52.0271465 16.0986792,51.3940113 15.704382,51.0072968 C15.3100848,50.6205822 14.6769497,50.6267292 14.2902351,51.0210264 L11.4894004,53.8767794 C11.1026859,54.2710766 11.1088328,54.9042117 11.50313,55.2909263 C11.8974272,55.6776408 12.5305624,55.6714939 12.9172769,55.2771967 Z M18.5189463,49.5656907 L21.3197809,46.7099377 C21.7064955,46.3156405 21.7003485,45.6825054 21.3060513,45.2957908 C20.9117541,44.9090762 20.278619,44.9152232 19.8919044,45.3095204 L17.0910698,48.1652734 C16.7043552,48.5595706 16.7105021,49.1927057 17.1047993,49.5794203 C17.4990965,49.9661349 18.1322317,49.9599879 18.5189463,49.5656907 Z M24.1206156,43.8541847 L26.9214503,40.9984317 C27.3081648,40.6041345 27.3020179,39.9709994 26.9077207,39.5842848 C26.5134235,39.1975702 25.8802883,39.2037172 25.4935738,39.5980144 L22.6927391,42.4537674 C22.3060245,42.8480646 22.3121715,43.4811997 22.7064687,43.8679143 C23.1007659,44.2546289 23.733901,44.2484819 24.1206156,43.8541847 Z M29.7222849,38.1426787 L32.5231196,35.2869257 C32.9098342,34.8926285 32.9036872,34.2594934 32.50939,33.8727788 C32.1150928,33.4860642 31.4819577,33.4922112 31.0952431,33.8865084 L28.2944084,36.7422614 C27.9076939,37.1365586 27.9138408,37.7696937 28.308138,38.1564083 C28.7024352,38.5431229 29.3355704,38.5369759 29.7222849,38.1426787 Z M35.3239543,32.4311727 L38.1247889,29.5754197 C38.5115035,29.1811225 38.5053566,28.5479874 38.1110593,28.1612728 C37.7167621,27.7745583 37.083627,27.7807052 36.6969124,28.1750024 L33.8960778,31.0307554 C33.5093632,31.4250526 33.5155101,32.0581877 33.9098073,32.4449023 C34.3041046,32.8316169 34.9372397,32.8254699 35.3239543,32.4311727 Z M40.9256236,26.7196667 L43.7264583,23.8639138 C44.1131728,23.4696165 44.1070259,22.8364814 43.7127287,22.4497668 C43.3184315,22.0630523 42.6852963,22.0691992 42.2985818,22.4634964 L39.4977471,25.3192494 C39.1110325,25.7135466 39.1171795,26.3466818 39.5114767,26.7333963 C39.9057739,27.1201109 40.538909,27.113964 40.9256236,26.7196667 Z M46.5272929,21.0081608 L49.3281276,18.1524078 C49.7148422,17.7581106 49.7086952,17.1249754 49.314398,16.7382608 C48.9201008,16.3515463 48.2869657,16.3576932 47.9002511,16.7519904 L45.0994164,19.6077434 C44.7127019,20.0020406 44.7188488,20.6351758 45.113146,21.0218903 C45.5074432,21.4086049 46.1405784,21.402458 46.5272929,21.0081608 Z M55.1645691,15 C55.7168538,15 56.1645691,14.5522847 56.1645691,14 C56.1645691,13.4477153 55.7168538,13 55.1645691,13 L51.5800879,13 L50.7010858,13.8962374 C50.3143712,14.2905346 50.3205181,14.9236698 50.7148153,15.3103843 C51.1091126,15.6970989 51.7422477,15.690952 52.1289623,15.2966548 L52.4199121,15 L55.1645691,15 Z M59.1645691,15 L63.1645691,15 C63.7168538,15 64.1645691,14.5522847 64.1645691,14 C64.1645691,13.4477153 63.7168538,13 63.1645691,13 L59.1645691,13 C58.6122843,13 58.1645691,13.4477153 58.1645691,14 C58.1645691,14.5522847 58.6122843,15 59.1645691,15 Z M67.1645691,15 L71.1645691,15 C71.7168538,15 72.1645691,14.5522847 72.1645691,14 C72.1645691,13.4477153 71.7168538,13 71.1645691,13 L67.1645691,13 C66.6122843,13 66.1645691,13.4477153 66.1645691,14 C66.1645691,14.5522847 66.6122843,15 67.1645691,15 Z M75.1645691,15 L79.1645691,15 C79.7168538,15 80.1645691,14.5522847 80.1645691,14 C80.1645691,13.4477153 79.7168538,13 79.1645691,13 L75.1645691,13 C74.6122843,13 74.1645691,13.4477153 74.1645691,14 C74.1645691,14.5522847 74.6122843,15 75.1645691,15 Z M83.1645691,15 L87.1645691,15 C87.7168538,15 88.1645691,14.5522847 88.1645691,14 C88.1645691,13.4477153 87.7168538,13 87.1645691,13 L83.1645691,13 C82.6122843,13 82.1645691,13.4477153 82.1645691,14 C82.1645691,14.5522847 82.6122843,15 83.1645691,15 Z M91.1645691,15 L95.1645691,15 C95.7168538,15 96.1645691,14.5522847 96.1645691,14 C96.1645691,13.4477153 95.7168538,13 95.1645691,13 L91.1645691,13 C90.6122843,13 90.1645691,13.4477153 90.1645691,14 C90.1645691,14.5522847 90.6122843,15 91.1645691,15 Z M99.1645691,15 L103.164569,15 C103.716854,15 104.164569,14.5522847 104.164569,14 C104.164569,13.4477153 103.716854,13 103.164569,13 L99.1645691,13 C98.6122843,13 98.1645691,13.4477153 98.1645691,14 C98.1645691,14.5522847 98.6122843,15 99.1645691,15 Z M107.164569,15 L111.164569,15 C111.716854,15 112.164569,14.5522847 112.164569,14 C112.164569,13.4477153 111.716854,13 111.164569,13 L107.164569,13 C106.612284,13 106.164569,13.4477153 106.164569,14 C106.164569,14.5522847 106.612284,15 107.164569,15 Z M115.164569,15 L119.164569,15 C119.716854,15 120.164569,14.5522847 120.164569,14 C120.164569,13.4477153 119.716854,13 119.164569,13 L115.164569,13 C114.612284,13 114.164569,13.4477153 114.164569,14 C114.164569,14.5522847 114.612284,15 115.164569,15 Z M123.164569,15 L127.164569,15 C127.716854,15 128.164569,14.5522847 128.164569,14 C128.164569,13.4477153 127.716854,13 127.164569,13 L123.164569,13 C122.612284,13 122.164569,13.4477153 122.164569,14 C122.164569,14.5522847 122.612284,15 123.164569,15 Z M131.164569,15 L135.164569,15 C135.716854,15 136.164569,14.5522847 136.164569,14 C136.164569,13.4477153 135.716854,13 135.164569,13 L131.164569,13 C130.612284,13 130.164569,13.4477153 130.164569,14 C130.164569,14.5522847 130.612284,15 131.164569,15 Z M139.164569,15 L143.164569,15 C143.716854,15 144.164569,14.5522847 144.164569,14 C144.164569,13.4477153 143.716854,13 143.164569,13 L139.164569,13 C138.612284,13 138.164569,13.4477153 138.164569,14 C138.164569,14.5522847 138.612284,15 139.164569,15 Z" id="line-4" fill="#6DC66A"></path>
                    <g id="credit-4" transform="translate(160.000000, 0.000000)" fill="#6DC66A">
                        <path d="M15.5244094,15.8125984 C14.7259843,15.3401575 13.880315,14.9669291 13.0110236,14.6976378 C12.7086614,14.6031496 12.3826772,14.7354331 12.2314961,15.0141732 L9.59055118,19.8141732 L6.95433071,15.0141732 C6.80314961,14.7354331 6.47716535,14.6031496 6.17480315,14.6976378 C5.29606299,14.9669291 4.44566929,15.3448819 3.6519685,15.8125984 C2.12598425,16.7244094 1.17165354,18.4204724 1.17165354,20.2440945 L1.17165354,23.3338583 C1.17165354,23.7023622 1.46929134,24 1.83779528,24 L17.3385827,24 C17.7070866,24 18.0047244,23.7023622 18.0047244,23.3338583 L18.0047244,20.2440945 C18.0047244,18.4204724 17.0551181,16.7244094 15.5244094,15.8125984 Z M16.6771654,22.6677165 L16.6724409,22.6677165 L2.50866142,22.6677165 L2.50866142,21.7086614 L4.07716535,21.7086614 C4.44566929,21.7086614 4.74330709,21.4110236 4.74330709,21.0425197 C4.74330709,20.6740157 4.44566929,20.376378 4.07716535,20.376378 L2.50866142,20.376378 C2.50866142,20.376378 2.46141732,20.3291339 2.59370079,19.4692913 L5.40944882,19.4692913 C5.77795276,19.4692913 6.07559055,19.1716535 6.07559055,18.8031496 C6.07559055,18.4346457 5.77795276,18.1370079 5.40944882,18.1370079 L3.13700787,18.1370079 C3.44409449,17.6645669 3.84566929,17.2582677 4.33700787,16.9653543 C4.88503937,16.6393701 5.46141732,16.3653543 6.05669291,16.1480315 L9.00944882,21.5244094 C9.12755906,21.7370079 9.3496063,21.8692913 9.59527559,21.8692913 C9.83622047,21.8692913 10.0629921,21.7370079 10.1811024,21.5244094 L13.1338583,16.1480315 C13.7244094,16.3653543 14.3007874,16.6393701 14.8488189,16.9653543 C15.9779528,17.6362205 16.6771654,18.8976378 16.6771654,20.2535433 L16.6771654,22.6677165 Z" id="Shape"></path>
                        <path d="M9.59055118,4.91338583 C7.02519685,4.91338583 4.94173228,7.0015748 4.94173228,9.56220472 C4.94173228,12.1228346 7.02519685,14.215748 9.59055118,14.215748 C12.1559055,14.215748 14.2393701,12.1275591 14.2393701,9.56692913 C14.2393701,7.00629921 12.1559055,4.91338583 9.59055118,4.91338583 Z M9.59055118,12.8787402 C7.76220472,12.8787402 6.27401575,11.3905512 6.27401575,9.56220472 C6.27401575,7.73385827 7.76220472,6.24566929 9.59055118,6.24566929 C11.4188976,6.24566929 12.9070866,7.73385827 12.9070866,9.56220472 C12.9070866,11.3905512 11.4188976,12.8787402 9.59055118,12.8787402 Z" id="Shape"></path>
                        <path d="M9.59055118,0 C9.22204724,0 8.92440945,0.297637795 8.92440945,0.666141732 L8.92440945,2.36692913 C8.92440945,2.73543307 9.22204724,3.03307087 9.59055118,3.03307087 C9.95905512,3.03307087 10.2566929,2.73543307 10.2566929,2.36692913 L10.2566929,0.666141732 C10.2566929,0.297637795 9.95905512,0 9.59055118,0 Z" id="Shape"></path>
                        <path d="M4.97480315,4.0015748 L3.77007874,2.79685039 C3.51023622,2.53700787 3.08976378,2.53700787 2.82519685,2.79685039 C2.56535433,3.05669291 2.56535433,3.47716535 2.82519685,3.74173228 L4.02992126,4.94645669 C4.2519685,5.15433071 4.71968504,5.18267717 4.97480315,4.94645669 C5.24409449,4.69606299 5.23464567,4.26614173 4.97480315,4.0015748 Z" id="Shape"></path>
                        <path d="M2.39527559,8.89606299 L0.694488189,8.89606299 C0.325984252,8.89606299 0.0283464567,9.19370079 0.0283464567,9.56220472 C0.0283464567,9.93070866 0.325984252,10.2283465 0.694488189,10.2283465 L2.39527559,10.2283465 C2.76377953,10.2283465 3.06141732,9.93070866 3.06141732,9.56220472 C3.06141732,9.19370079 2.76377953,8.89606299 2.39527559,8.89606299 Z" id="Shape"></path>
                        <path d="M18.4866142,8.89606299 L16.7858268,8.89606299 C16.4173228,8.89606299 16.119685,9.19370079 16.119685,9.56220472 C16.119685,9.93070866 16.4173228,10.2283465 16.7858268,10.2283465 L18.4866142,10.2283465 C18.8551181,10.2283465 19.1527559,9.93070866 19.1527559,9.56220472 C19.1527559,9.19370079 18.8551181,8.89606299 18.4866142,8.89606299 Z" id="Shape"></path>
                        <path d="M16.3559055,2.79685039 C16.096063,2.53700787 15.6755906,2.53700787 15.4110236,2.79685039 L14.2062992,4.0015748 C13.9464567,4.26141732 13.9370079,4.69133858 14.2062992,4.94645669 C14.4094488,5.13543307 14.9291339,5.14488189 15.1511811,4.94645669 L16.3559055,3.74173228 C16.615748,3.48188976 16.615748,3.06141732 16.3559055,2.79685039 Z" id="Shape"></path>
                    </g>
                    <text id="label-4" font-family="Roboto-Medium, Roboto" font-size="16" font-weight="400" line-spacing="24" fill="#393F46">
                        <tspan x="216" y="18">Psychometric</tspan>
                    </text>
                </g>
                <g id="item-5" transform="translate(745.000000, 200.000000)">
                    <path d="M1.5,14 L5.5,14 C6.05228475,14 6.5,13.5522847 6.5,13 C6.5,12.4477153 6.05228475,12 5.5,12 L1.5,12 C0.94771525,12 0.5,12.4477153 0.5,13 C0.5,13.5522847 0.94771525,14 1.5,14 Z M9.5,14 L13.5,14 C14.0522847,14 14.5,13.5522847 14.5,13 C14.5,12.4477153 14.0522847,12 13.5,12 L9.5,12 C8.94771525,12 8.5,12.4477153 8.5,13 C8.5,13.5522847 8.94771525,14 9.5,14 Z M17.5,14 L21.5,14 C22.0522847,14 22.5,13.5522847 22.5,13 C22.5,12.4477153 22.0522847,12 21.5,12 L17.5,12 C16.9477153,12 16.5,12.4477153 16.5,13 C16.5,13.5522847 16.9477153,14 17.5,14 Z M25.5,14 L29.5,14 C30.0522847,14 30.5,13.5522847 30.5,13 C30.5,12.4477153 30.0522847,12 29.5,12 L25.5,12 C24.9477153,12 24.5,12.4477153 24.5,13 C24.5,13.5522847 24.9477153,14 25.5,14 Z M33.5,14 L37.5,14 C38.0522847,14 38.5,13.5522847 38.5,13 C38.5,12.4477153 38.0522847,12 37.5,12 L33.5,12 C32.9477153,12 32.5,12.4477153 32.5,13 C32.5,13.5522847 32.9477153,14 33.5,14 Z M41.5,14 L45.5,14 C46.0522847,14 46.5,13.5522847 46.5,13 C46.5,12.4477153 46.0522847,12 45.5,12 L41.5,12 C40.9477153,12 40.5,12.4477153 40.5,13 C40.5,13.5522847 40.9477153,14 41.5,14 Z M49.5,14 L53.5,14 C54.0522847,14 54.5,13.5522847 54.5,13 C54.5,12.4477153 54.0522847,12 53.5,12 L49.5,12 C48.9477153,12 48.5,12.4477153 48.5,13 C48.5,13.5522847 48.9477153,14 49.5,14 Z M57.5,14 L61.5,14 C62.0522847,14 62.5,13.5522847 62.5,13 C62.5,12.4477153 62.0522847,12 61.5,12 L57.5,12 C56.9477153,12 56.5,12.4477153 56.5,13 C56.5,13.5522847 56.9477153,14 57.5,14 Z M65.5,14 L69.5,14 C70.0522847,14 70.5,13.5522847 70.5,13 C70.5,12.4477153 70.0522847,12 69.5,12 L65.5,12 C64.9477153,12 64.5,12.4477153 64.5,13 C64.5,13.5522847 64.9477153,14 65.5,14 Z M73.5,14 L77.5,14 C78.0522847,14 78.5,13.5522847 78.5,13 C78.5,12.4477153 78.0522847,12 77.5,12 L73.5,12 C72.9477153,12 72.5,12.4477153 72.5,13 C72.5,13.5522847 72.9477153,14 73.5,14 Z" id="line-5" fill="#2EB827"></path>
                    <g id="credit-5" transform="translate(96.000000, 0.000000)" fill="#2EB827">
                        <path d="M21.3698321,17.4930687 L21.3698321,14.946687 C21.3698321,14.579542 21.073771,14.2795115 20.7026565,14.2795115 L12.6608244,14.2795115 L12.6608244,8.70112977 L15.6770076,8.70112977 C16.0441527,8.70112977 16.3441832,8.4050687 16.3441832,8.0339542 L16.3441832,0.667175573 C16.3441832,0.300030534 16.0481221,0 15.6770076,0 L8.30632061,0 C7.93917557,0 7.63914504,0.296061069 7.63914504,0.667175573 L7.63914504,8.03389313 C7.63914504,8.40103817 7.93526718,8.7010687 8.30632061,8.7010687 L11.3225038,8.7010687 L11.3225038,14.2754809 L3.28067176,14.2754809 C2.91352672,14.2754809 2.61349618,14.571542 2.61349618,14.9426565 L2.61349618,17.4890382 C1.12512977,17.800916 0.00396946565,19.1234809 0.00396946565,20.7025954 C0.00396946565,22.5067481 1.47651908,23.9793588 3.28073282,23.9793588 C5.08494656,23.9793588 6.55749618,22.5068092 6.55749618,20.7025954 C6.55749618,19.1234198 5.43627481,17.800916 3.94796947,17.4929466 L3.94796947,15.6098321 L11.322626,15.6098321 L11.322626,17.4929466 C9.83035115,17.800855 8.71309924,19.1194504 8.71309924,20.7025954 C8.71309924,22.5107176 10.1856489,23.9793588 11.9898626,23.9793588 C13.7979847,23.9793588 15.266626,22.5068092 15.266626,20.7025954 C15.266626,19.1234198 14.1454046,17.800916 12.6570992,17.4929466 L12.6570992,15.6098321 L20.0317557,15.6098321 L20.0317557,17.4929466 C18.5433893,17.800855 17.422229,19.1194504 17.422229,20.7025954 C17.422229,22.5107176 18.8947786,23.9793588 20.6989924,23.9793588 C22.5071145,23.9793588 23.9757557,22.5068092 23.9757557,20.7025954 C23.9794198,19.1195725 22.8581985,17.7970076 21.3698321,17.4930687 Z M5.23090076,20.7026565 C5.23090076,21.7725191 4.35841221,22.6450076 3.28854962,22.6450076 C2.21868702,22.6450076 1.34619847,21.7725191 1.34619847,20.7026565 C1.34619847,19.6327939 2.21868702,18.7603053 3.28854962,18.7603053 C4.35847328,18.7524275 5.23090076,19.624916 5.23090076,20.7026565 Z M13.936,20.7026565 C13.936,21.7725191 13.0635115,22.6450076 11.9936489,22.6450076 C10.9237863,22.6450076 10.0512977,21.7725191 10.0512977,20.7026565 C10.0512977,19.6327939 10.9237863,18.7603053 11.9936489,18.7603053 C13.0635115,18.7524275 13.936,19.624916 13.936,20.7026565 Z M8.97746565,7.37068702 L8.97746565,1.33435115 L15.0137405,1.33435115 L15.0137405,7.37062595 L8.97746565,7.37062595 L8.97746565,7.37068702 Z M20.706626,22.6450076 C19.6367634,22.6450076 18.7642748,21.7725191 18.7642748,20.7026565 C18.7642748,19.6327939 19.6367634,18.7603053 20.706626,18.7603053 C21.7764885,18.7603053 22.6489771,19.6327939 22.6489771,20.7026565 C22.6489771,21.7725191 21.7764885,22.6450076 20.706626,22.6450076 Z" id="Shape"></path>
                    </g>
                    <text id="label-5" font-family="Roboto-Medium, Roboto" font-size="16" font-weight="400" line-spacing="24" fill="#393F46">
                        <tspan x="150" y="16">Jejak Sosial</tspan>
                    </text>
                </g>
                <g id="item-6" transform="translate(686.000000, 362.000000)">
                    <path d="M0.322406604,1.73543673 L3.26415354,4.44581032 C3.67032403,4.82003482 4.30295917,4.79413747 4.67718367,4.38796698 C5.05140817,3.98179649 5.02551083,3.34916135 4.61934033,2.97493685 L1.6775934,0.264563266 C1.2714229,-0.109661233 0.638787765,-0.0837638885 0.264563266,0.322406604 C-0.109661233,0.728577097 -0.0837638885,1.36121224 0.322406604,1.73543673 Z M6.20590048,7.1561839 L9.14764742,9.86655748 C9.55381791,10.240782 10.186453,10.2148846 10.5606775,9.80871414 C10.934902,9.40254365 10.9090047,8.76990851 10.5028342,8.39568401 L7.56108727,5.68531043 C7.15491678,5.31108593 6.52228164,5.33698328 6.14805714,5.74315377 C5.77383264,6.14932426 5.79972999,6.7819594 6.20590048,7.1561839 Z M12.0893944,12.5769311 L15.0311413,15.2873046 C15.4373118,15.6615291 16.0699469,15.6356318 16.4441714,15.2294613 C16.8183959,14.8232908 16.7924986,14.1906557 16.3863281,13.8164312 L13.4445811,11.1060576 C13.0384107,10.7318331 12.4057755,10.7577304 12.031551,11.1639009 C11.6573265,11.5700714 11.6832239,12.2027066 12.0893944,12.5769311 Z M17.9728882,17.9976782 L20.9146352,20.7080518 C21.3208057,21.0822763 21.9534408,21.056379 22.3276653,20.6502085 C22.7018898,20.244038 22.6759924,19.6114028 22.269822,19.2371783 L19.328075,16.5268048 C18.9219045,16.1525803 18.2892694,16.1784776 17.9150449,16.5846481 C17.5408204,16.9908186 17.5667177,17.6234537 17.9728882,17.9976782 Z M23.8563821,23.4184254 L26.798129,26.128799 C27.2042995,26.5030235 27.8369347,26.4771261 28.2111592,26.0709556 C28.5853837,25.6647851 28.5594863,25.03215 28.1533158,24.6579255 L25.2115689,21.9475519 C24.8053984,21.5733274 24.1727633,21.5992248 23.7985388,22.0053953 C23.4243143,22.4115658 23.4502116,23.0442009 23.8563821,23.4184254 Z M29.739876,28.8391726 L32.6816229,31.5495461 C33.0877934,31.9237706 33.7204285,31.8978733 34.094653,31.4917028 C34.4688775,31.0855323 34.4429802,30.4528972 34.0368097,30.0786727 L31.0950628,27.3682991 C30.6888923,26.9940746 30.0562571,27.0199719 29.6820326,27.4261424 C29.3078081,27.8323129 29.3337055,28.4649481 29.739876,28.8391726 Z M35.6233699,34.2599197 L38.5651168,36.9702933 C38.9712873,37.3445178 39.6039224,37.3186205 39.9781469,36.91245 C40.3523714,36.5062795 40.3264741,35.8736443 39.9203036,35.4994198 L36.9785566,32.7890463 C36.5723861,32.4148218 35.939751,32.4407191 35.5655265,32.8468896 C35.191302,33.2530601 35.2171994,33.8856952 35.6233699,34.2599197 Z M41.5068637,39.6806669 L44.4486107,42.3910405 C44.8547812,42.765265 45.4874163,42.7393676 45.8616408,42.3331971 C46.2358653,41.9270266 46.2099679,41.2943915 45.8037975,40.920167 L42.8620505,38.2097934 C42.45588,37.8355689 41.8232449,37.8614663 41.4490204,38.2676368 C41.0747959,38.6738073 41.1006932,39.3064424 41.5068637,39.6806669 Z M48.9917361,43 L52.9917361,43 C53.5440209,43 53.9917361,42.5522847 53.9917361,42 C53.9917361,41.4477153 53.5440209,41 52.9917361,41 L48.9917361,41 C48.4394514,41 47.9917361,41.4477153 47.9917361,42 C47.9917361,42.5522847 48.4394514,43 48.9917361,43 Z M56.9917361,43 L60.9917361,43 C61.5440209,43 61.9917361,42.5522847 61.9917361,42 C61.9917361,41.4477153 61.5440209,41 60.9917361,41 L56.9917361,41 C56.4394514,41 55.9917361,41.4477153 55.9917361,42 C55.9917361,42.5522847 56.4394514,43 56.9917361,43 Z M64.9917361,43 L68.9917361,43 C69.5440209,43 69.9917361,42.5522847 69.9917361,42 C69.9917361,41.4477153 69.5440209,41 68.9917361,41 L64.9917361,41 C64.4394514,41 63.9917361,41.4477153 63.9917361,42 C63.9917361,42.5522847 64.4394514,43 64.9917361,43 Z M72.9917361,43 L76.9917361,43 C77.5440209,43 77.9917361,42.5522847 77.9917361,42 C77.9917361,41.4477153 77.5440209,41 76.9917361,41 L72.9917361,41 C72.4394514,41 71.9917361,41.4477153 71.9917361,42 C71.9917361,42.5522847 72.4394514,43 72.9917361,43 Z M80.9917361,43 L84.9917361,43 C85.5440209,43 85.9917361,42.5522847 85.9917361,42 C85.9917361,41.4477153 85.5440209,41 84.9917361,41 L80.9917361,41 C80.4394514,41 79.9917361,41.4477153 79.9917361,42 C79.9917361,42.5522847 80.4394514,43 80.9917361,43 Z M88.9917361,43 L92.9917361,43 C93.5440209,43 93.9917361,42.5522847 93.9917361,42 C93.9917361,41.4477153 93.5440209,41 92.9917361,41 L88.9917361,41 C88.4394514,41 87.9917361,41.4477153 87.9917361,42 C87.9917361,42.5522847 88.4394514,43 88.9917361,43 Z M96.9917361,43 L100.991736,43 C101.544021,43 101.991736,42.5522847 101.991736,42 C101.991736,41.4477153 101.544021,41 100.991736,41 L96.9917361,41 C96.4394514,41 95.9917361,41.4477153 95.9917361,42 C95.9917361,42.5522847 96.4394514,43 96.9917361,43 Z M104.991736,43 L108.991736,43 C109.544021,43 109.991736,42.5522847 109.991736,42 C109.991736,41.4477153 109.544021,41 108.991736,41 L104.991736,41 C104.439451,41 103.991736,41.4477153 103.991736,42 C103.991736,42.5522847 104.439451,43 104.991736,43 Z M112.991736,43 L116.991736,43 C117.544021,43 117.991736,42.5522847 117.991736,42 C117.991736,41.4477153 117.544021,41 116.991736,41 L112.991736,41 C112.439451,41 111.991736,41.4477153 111.991736,42 C111.991736,42.5522847 112.439451,43 112.991736,43 Z M120.991736,43 L124.991736,43 C125.544021,43 125.991736,42.5522847 125.991736,42 C125.991736,41.4477153 125.544021,41 124.991736,41 L120.991736,41 C120.439451,41 119.991736,41.4477153 119.991736,42 C119.991736,42.5522847 120.439451,43 120.991736,43 Z M128.991736,43 L132.991736,43 C133.544021,43 133.991736,42.5522847 133.991736,42 C133.991736,41.4477153 133.544021,41 132.991736,41 L128.991736,41 C128.439451,41 127.991736,41.4477153 127.991736,42 C127.991736,42.5522847 128.439451,43 128.991736,43 Z M136.991736,43 L137.501404,43 C138.053689,43 138.501404,42.5522847 138.501404,42 C138.501404,41.4477153 138.053689,41 137.501404,41 L136.991736,41 C136.439451,41 135.991736,41.4477153 135.991736,42 C135.991736,42.5522847 136.439451,43 136.991736,43 Z" id="line-6" fill="#56DFE6"></path>
                    <g id="credit-6" transform="translate(153.000000, 25.000000)" fill="#56DFE6">
                        <g id="Group">
                            <path d="M25,15 L24,15 L24,19.0001925 C24,19.5523709 23.5446944,20 23.0081969,20 L4.99180311,20 C4.44404538,20 4,19.544239 4,18.9975267 L4,9.00247329 C4,8.44882258 4.44483697,8 4.9955775,8 L15,8 L15,7 L5.0085302,7 C3.8992496,7 3,7.89706013 3,9.00585866 L3,21 L0,24 C0,25.3092917 0.696194226,26 2,26 L26,26 C27.3038058,26 28,25.3092917 28,24 L25,21 L25,20 L25,15 Z M11,26 L11,25 L17,25 L17,26 L11,26 Z M9,24 L10,23 L18,23 L19,24 C19,24 9,24 9,24 Z" id="Shape"></path>
                            <rect id="Rectangle-path" x="13" y="13" width="2" height="2"></rect>
                            <polygon id="Rectangle-path" points="15 10 17 10 17 12 15 12"></polygon>
                            <rect id="Rectangle-path" x="16" y="13" width="2" height="2"></rect>
                            <polygon id="Rectangle-path" points="19 10 22 10 22 13 19 13"></polygon>
                            <polygon id="Rectangle-path" points="22 1 25 1 25 4 22 4"></polygon>
                            <rect id="Rectangle-path" x="16" y="6" width="3" height="3"></rect>
                            <rect id="Rectangle-path" x="20" y="5" width="4" height="4"></rect>
                            <rect id="Rectangle-path" x="24" y="10" width="4" height="4"></rect>
                            <rect id="Rectangle-path" x="26" y="0" width="6" height="6"></rect>
                            <polygon id="Rectangle-path" points="20 14 23 14 23 17 20 17"></polygon>
                        </g>
                    </g>
                    <text id="label-6" font-family="Roboto-Medium, Roboto" font-size="16" font-weight="400" line-spacing="24" fill="#393F46">
                        <tspan x="209" y="47">Jejak Digital</tspan>
                    </text>
                </g>
            </g>
            <rect id="alignter" fill="#FFFFFF" x="0" y="436" width="1069" height="1"></rect>
        </g>
    </g>
</svg>
