<?xml version="1.0" encoding="UTF-8"?>
<svg width="24px" height="24px" viewBox="0 0 24 24" version="1.1" xmlns="http://www.w3.org/2000/svg" xmlns:xlink="http://www.w3.org/1999/xlink">
    <!-- Generator: Sketch 41.2 (35397) - http://www.bohemiancoding.com/sketch -->
    <title>credit-2</title>
    <desc>Created with Sketch.</desc>
    <defs></defs>
    <g id="Website" stroke="none" stroke-width="1" fill="none" fill-rule="evenodd">
        <g id="Home-Bahasa" transform="translate(-1110.000000, -3710.000000)" fill="#2EB827">
            <g id="credit-2" transform="translate(1110.000000, 3710.000000)">
                <path d="M21.3698321,17.4930687 L21.3698321,14.946687 C21.3698321,14.579542 21.073771,14.2795115 20.7026565,14.2795115 L12.6608244,14.2795115 L12.6608244,8.70112977 L15.6770076,8.70112977 C16.0441527,8.70112977 16.3441832,8.4050687 16.3441832,8.0339542 L16.3441832,0.667175573 C16.3441832,0.300030534 16.0481221,0 15.6770076,0 L8.30632061,0 C7.93917557,0 7.63914504,0.296061069 7.63914504,0.667175573 L7.63914504,8.03389313 C7.63914504,8.40103817 7.93526718,8.7010687 8.30632061,8.7010687 L11.3225038,8.7010687 L11.3225038,14.2754809 L3.28067176,14.2754809 C2.91352672,14.2754809 2.61349618,14.571542 2.61349618,14.9426565 L2.61349618,17.4890382 C1.12512977,17.800916 0.00396946565,19.1234809 0.00396946565,20.7025954 C0.00396946565,22.5067481 1.47651908,23.9793588 3.28073282,23.9793588 C5.08494656,23.9793588 6.55749618,22.5068092 6.55749618,20.7025954 C6.55749618,19.1234198 5.43627481,17.800916 3.94796947,17.4929466 L3.94796947,15.6098321 L11.322626,15.6098321 L11.322626,17.4929466 C9.83035115,17.800855 8.71309924,19.1194504 8.71309924,20.7025954 C8.71309924,22.5107176 10.1856489,23.9793588 11.9898626,23.9793588 C13.7979847,23.9793588 15.266626,22.5068092 15.266626,20.7025954 C15.266626,19.1234198 14.1454046,17.800916 12.6570992,17.4929466 L12.6570992,15.6098321 L20.0317557,15.6098321 L20.0317557,17.4929466 C18.5433893,17.800855 17.422229,19.1194504 17.422229,20.7025954 C17.422229,22.5107176 18.8947786,23.9793588 20.6989924,23.9793588 C22.5071145,23.9793588 23.9757557,22.5068092 23.9757557,20.7025954 C23.9794198,19.1195725 22.8581985,17.7970076 21.3698321,17.4930687 Z M5.23090076,20.7026565 C5.23090076,21.7725191 4.35841221,22.6450076 3.28854962,22.6450076 C2.21868702,22.6450076 1.34619847,21.7725191 1.34619847,20.7026565 C1.34619847,19.6327939 2.21868702,18.7603053 3.28854962,18.7603053 C4.35847328,18.7524275 5.23090076,19.624916 5.23090076,20.7026565 Z M13.936,20.7026565 C13.936,21.7725191 13.0635115,22.6450076 11.9936489,22.6450076 C10.9237863,22.6450076 10.0512977,21.7725191 10.0512977,20.7026565 C10.0512977,19.6327939 10.9237863,18.7603053 11.9936489,18.7603053 C13.0635115,18.7524275 13.936,19.624916 13.936,20.7026565 Z M8.97746565,7.37068702 L8.97746565,1.33435115 L15.0137405,1.33435115 L15.0137405,7.37062595 L8.97746565,7.37062595 L8.97746565,7.37068702 Z M20.706626,22.6450076 C19.6367634,22.6450076 18.7642748,21.7725191 18.7642748,20.7026565 C18.7642748,19.6327939 19.6367634,18.7603053 20.706626,18.7603053 C21.7764885,18.7603053 22.6489771,19.6327939 22.6489771,20.7026565 C22.6489771,21.7725191 21.7764885,22.6450076 20.706626,22.6450076 Z" id="Shape"></path>
            </g>
        </g>
    </g>
</svg>