<?xml version="1.0" encoding="UTF-8"?>
<svg width="20px" height="24px" viewBox="0 0 20 24" version="1.1" xmlns="http://www.w3.org/2000/svg" xmlns:xlink="http://www.w3.org/1999/xlink">
    <!-- Generator: Sketch 41.2 (35397) - http://www.bohemiancoding.com/sketch -->
    <title>credit-1</title>
    <desc>Created with Sketch.</desc>
    <defs></defs>
    <g id="Website" stroke="none" stroke-width="1" fill="none" fill-rule="evenodd">
        <g id="Home-Bahasa" transform="translate(-1108.000000, -3510.000000)" fill="#6DC66A">
            <g id="credit-1" transform="translate(1108.000000, 3510.000000)">
                <path d="M15.5244094,15.8125984 C14.7259843,15.3401575 13.880315,14.9669291 13.0110236,14.6976378 C12.7086614,14.6031496 12.3826772,14.7354331 12.2314961,15.0141732 L9.59055118,19.8141732 L6.95433071,15.0141732 C6.80314961,14.7354331 6.47716535,14.6031496 6.17480315,14.6976378 C5.29606299,14.9669291 4.44566929,15.3448819 3.6519685,15.8125984 C2.12598425,16.7244094 1.17165354,18.4204724 1.17165354,20.2440945 L1.17165354,23.3338583 C1.17165354,23.7023622 1.46929134,24 1.83779528,24 L17.3385827,24 C17.7070866,24 18.0047244,23.7023622 18.0047244,23.3338583 L18.0047244,20.2440945 C18.0047244,18.4204724 17.0551181,16.7244094 15.5244094,15.8125984 Z M16.6771654,22.6677165 L16.6724409,22.6677165 L2.50866142,22.6677165 L2.50866142,21.7086614 L4.07716535,21.7086614 C4.44566929,21.7086614 4.74330709,21.4110236 4.74330709,21.0425197 C4.74330709,20.6740157 4.44566929,20.376378 4.07716535,20.376378 L2.50866142,20.376378 C2.50866142,20.376378 2.46141732,20.3291339 2.59370079,19.4692913 L5.40944882,19.4692913 C5.77795276,19.4692913 6.07559055,19.1716535 6.07559055,18.8031496 C6.07559055,18.4346457 5.77795276,18.1370079 5.40944882,18.1370079 L3.13700787,18.1370079 C3.44409449,17.6645669 3.84566929,17.2582677 4.33700787,16.9653543 C4.88503937,16.6393701 5.46141732,16.3653543 6.05669291,16.1480315 L9.00944882,21.5244094 C9.12755906,21.7370079 9.3496063,21.8692913 9.59527559,21.8692913 C9.83622047,21.8692913 10.0629921,21.7370079 10.1811024,21.5244094 L13.1338583,16.1480315 C13.7244094,16.3653543 14.3007874,16.6393701 14.8488189,16.9653543 C15.9779528,17.6362205 16.6771654,18.8976378 16.6771654,20.2535433 L16.6771654,22.6677165 Z" id="Shape"></path>
                <path d="M9.59055118,4.91338583 C7.02519685,4.91338583 4.94173228,7.0015748 4.94173228,9.56220472 C4.94173228,12.1228346 7.02519685,14.215748 9.59055118,14.215748 C12.1559055,14.215748 14.2393701,12.1275591 14.2393701,9.56692913 C14.2393701,7.00629921 12.1559055,4.91338583 9.59055118,4.91338583 Z M9.59055118,12.8787402 C7.76220472,12.8787402 6.27401575,11.3905512 6.27401575,9.56220472 C6.27401575,7.73385827 7.76220472,6.24566929 9.59055118,6.24566929 C11.4188976,6.24566929 12.9070866,7.73385827 12.9070866,9.56220472 C12.9070866,11.3905512 11.4188976,12.8787402 9.59055118,12.8787402 Z" id="Shape"></path>
                <path d="M9.59055118,0 C9.22204724,0 8.92440945,0.297637795 8.92440945,0.666141732 L8.92440945,2.36692913 C8.92440945,2.73543307 9.22204724,3.03307087 9.59055118,3.03307087 C9.95905512,3.03307087 10.2566929,2.73543307 10.2566929,2.36692913 L10.2566929,0.666141732 C10.2566929,0.297637795 9.95905512,0 9.59055118,0 Z" id="Shape"></path>
                <path d="M4.97480315,4.0015748 L3.77007874,2.79685039 C3.51023622,2.53700787 3.08976378,2.53700787 2.82519685,2.79685039 C2.56535433,3.05669291 2.56535433,3.47716535 2.82519685,3.74173228 L4.02992126,4.94645669 C4.2519685,5.15433071 4.71968504,5.18267717 4.97480315,4.94645669 C5.24409449,4.69606299 5.23464567,4.26614173 4.97480315,4.0015748 Z" id="Shape"></path>
                <path d="M2.39527559,8.89606299 L0.694488189,8.89606299 C0.325984252,8.89606299 0.0283464567,9.19370079 0.0283464567,9.56220472 C0.0283464567,9.93070866 0.325984252,10.2283465 0.694488189,10.2283465 L2.39527559,10.2283465 C2.76377953,10.2283465 3.06141732,9.93070866 3.06141732,9.56220472 C3.06141732,9.19370079 2.76377953,8.89606299 2.39527559,8.89606299 Z" id="Shape"></path>
                <path d="M18.4866142,8.89606299 L16.7858268,8.89606299 C16.4173228,8.89606299 16.119685,9.19370079 16.119685,9.56220472 C16.119685,9.93070866 16.4173228,10.2283465 16.7858268,10.2283465 L18.4866142,10.2283465 C18.8551181,10.2283465 19.1527559,9.93070866 19.1527559,9.56220472 C19.1527559,9.19370079 18.8551181,8.89606299 18.4866142,8.89606299 Z" id="Shape"></path>
                <path d="M16.3559055,2.79685039 C16.096063,2.53700787 15.6755906,2.53700787 15.4110236,2.79685039 L14.2062992,4.0015748 C13.9464567,4.26141732 13.9370079,4.69133858 14.2062992,4.94645669 C14.4094488,5.13543307 14.9291339,5.14488189 15.1511811,4.94645669 L16.3559055,3.74173228 C16.615748,3.48188976 16.615748,3.06141732 16.3559055,2.79685039 Z" id="Shape"></path>
            </g>
        </g>
    </g>
</svg>