<?xml version="1.0" encoding="UTF-8"?>
<svg width="6px" height="10px" viewBox="0 0 6 10" version="1.1" xmlns="http://www.w3.org/2000/svg" xmlns:xlink="http://www.w3.org/1999/xlink">
    <!-- Generator: Sketch 41.2 (35397) - http://www.bohemiancoding.com/sketch -->
    <title></title>
    <desc>Created with Sketch.</desc>
    <defs></defs>
    <g id="Website" stroke="none" stroke-width="1" fill="none" fill-rule="evenodd">
        <g id="Terms-&amp;-Condition" transform="translate(-1370.000000, -448.000000)" fill="#393F46">
            <path d="M1376,453.002218 C1376,452.922058 1375.95876,452.831877 1375.89691,452.771757 L1371.09278,448.102418 C1371.03093,448.042298 1370.93814,448.002218 1370.85567,448.002218 C1370.7732,448.002218 1370.68041,448.042298 1370.61856,448.102418 L1370.10309,448.60342 C1370.04124,448.66354 1370,448.753721 1370,448.833881 C1370,448.914041 1370.04124,449.004222 1370.10309,449.064342 L1374.15464,453.002218 L1370.10309,456.940094 C1370.04124,457.000214 1370,457.090394 1370,457.170555 C1370,457.260735 1370.04124,457.340895 1370.10309,457.401015 L1370.61856,457.902017 C1370.68041,457.962138 1370.7732,458.002218 1370.85567,458.002218 C1370.93814,458.002218 1371.03093,457.962138 1371.09278,457.902017 L1375.89691,453.232679 C1375.95876,453.172559 1376,453.082378 1376,453.002218 Z" id=""></path>
        </g>
    </g>
</svg>