<?xml version="1.0" encoding="UTF-8"?>
<svg width="59px" height="64px" viewBox="0 0 59 64" version="1.1" xmlns="http://www.w3.org/2000/svg" xmlns:xlink="http://www.w3.org/1999/xlink">
    <!-- Generator: Sketch 41.2 (35397) - http://www.bohemiancoding.com/sketch -->
    <title>engage-4</title>
    <desc>Created with Sketch.</desc>
    <defs></defs>
    <g id="Website" stroke="none" stroke-width="1" fill="none" fill-rule="evenodd">
        <g id="Home-Bahasa" transform="translate(-1174.000000, -2114.000000)" fill="#FFFFFF">
            <g id="Group-22" transform="translate(-3.000000, 1588.000000)">
                <g id="Engagements-ways">
                    <g id="engage-4" transform="translate(1177.000000, 526.000000)">
                        <path d="M47.6556725,42.9257856 C44.3193138,42.9257856 41.344499,44.4955945 39.4249981,46.9334581 L20.2009201,35.8346355 C20.6859727,34.6292398 20.9555712,33.314807 20.9555712,31.9377466 C20.9555712,30.5608109 20.685848,29.2463782 20.2009201,28.0408577 L39.4249981,16.9420351 C41.3446238,19.3797739 44.3193138,20.9497076 47.6556725,20.9497076 C53.4315166,20.9497076 58.1304639,16.2506355 58.1304639,10.4749162 C58.1304639,4.69907212 53.4316413,0 47.6556725,0 C41.8797037,0 37.1808811,4.69894737 37.1808811,10.4746667 C37.1808811,11.8517271 37.450729,13.1664094 37.9359064,14.3720546 L18.712078,25.4708772 C16.7924522,23.0328889 13.8175127,21.4628304 10.4809045,21.4628304 C4.70506043,21.4628304 0.00611306043,26.1619025 0.00611306043,31.9376218 C0.00611306043,37.7133411 4.70506043,42.4124133 10.4809045,42.4124133 C13.8175127,42.4124133 16.7924522,40.8423548 18.712078,38.4043665 L37.9359064,49.5033138 C37.450729,50.7089591 37.1808811,52.0235166 37.1808811,53.4007018 C37.1808811,59.1765458 41.8798285,63.8753684 47.6556725,63.8753684 C53.4315166,63.8753684 58.1304639,59.1764211 58.1304639,53.4007018 C58.1304639,47.6249825 53.4316413,42.9257856 47.6556725,42.9257856 Z M47.6556725,2.97019883 C51.7937154,2.97019883 55.1603899,6.33674854 55.1603899,10.4746667 C55.1603899,14.6127096 51.7938402,17.979384 47.6556725,17.979384 C43.5176296,17.979384 40.1509552,14.6127096 40.1509552,10.4746667 C40.1510799,6.33662378 43.5177544,2.97019883 47.6556725,2.97019883 Z M10.4809045,39.4423392 C6.3428616,39.4423392 2.97618713,36.0756647 2.97618713,31.9376218 C2.97618713,27.7995789 6.34273684,24.4329045 10.4809045,24.4329045 C14.6189474,24.4329045 17.9856218,27.7995789 17.9856218,31.9376218 C17.9856218,36.0756647 14.6189474,39.4423392 10.4809045,39.4423392 Z M47.6556725,60.9050448 C43.5176296,60.9050448 40.1509552,57.5384951 40.1509552,53.400577 C40.1509552,49.2625341 43.5175049,45.8958596 47.6556725,45.8958596 C51.7937154,45.8958596 55.1603899,49.2625341 55.1603899,53.400577 C55.1603899,57.5386199 51.7937154,60.9050448 47.6556725,60.9050448 Z" id="Shape"></path>
                        <path d="M10.4809045,27.5219961 C8.04615984,27.5219961 6.06527875,29.5027524 6.06527875,31.9376218 C6.06527875,32.7576452 6.73010526,33.4227212 7.55037817,33.4227212 C8.37065107,33.4227212 9.03547758,32.7576452 9.03547758,31.9376218 C9.03547758,31.1405536 9.68383626,30.4921949 10.4809045,30.4921949 C11.3010526,30.4921949 11.9660039,29.8271189 11.9660039,29.0070955 C11.9660039,28.1869474 11.3010526,27.5219961 10.4809045,27.5219961 Z" id="Shape"></path>
                    </g>
                </g>
            </g>
        </g>
    </g>
</svg>