<?xml version="1.0" encoding="UTF-8"?>
<svg width="64px" height="64px" viewBox="0 0 64 64" version="1.1" xmlns="http://www.w3.org/2000/svg" xmlns:xlink="http://www.w3.org/1999/xlink">
    <!-- Generator: Sketch 41.2 (35397) - http://www.bohemiancoding.com/sketch -->
    <title>engage-2</title>
    <desc>Created with Sketch.</desc>
    <defs></defs>
    <g id="Website" stroke="none" stroke-width="1" fill="none" fill-rule="evenodd">
        <g id="Home-Bahasa" transform="translate(-634.000000, -2421.000000)" fill="#FFFFFF">
            <g id="Group-22" transform="translate(-3.000000, 1588.000000)">
                <g id="Engagements-ways">
                    <g id="engage-2" transform="translate(637.000000, 833.000000)">
                        <path d="M63.8752437,36.6843509 C63.8752437,33.6200858 62.2651384,30.9328343 59.8479844,29.4201637 C60.8421676,28.0225185 61.4288967,26.3129825 61.4288967,24.466963 C61.4288967,21.696 60.1092242,19.2340585 58.0663392,17.6726082 C58.397692,16.7184717 58.5770916,15.6930994 58.5770916,14.626807 C58.5770916,9.47574269 54.4016218,5.29927485 49.2476881,5.29927485 C48.2067212,5.29927485 47.2048031,5.47081481 46.2691306,5.7865731 C45.3139961,2.44547368 42.2380039,0 38.5927485,0 C35.8130526,0 33.368577,1.41910331 31.9377466,3.57015205 C30.5069162,1.41910331 28.0615673,0 25.2837427,0 C21.636616,0 18.5614971,2.44547368 17.6063626,5.7865731 C16.6706901,5.47081481 15.6687719,5.29927485 14.625809,5.29927485 C9.47474464,5.29927485 5.29927485,9.47574269 5.29927485,14.626807 C5.29927485,15.6930994 5.47867446,16.7184717 5.80902924,17.6726082 C3.7651462,19.2340585 2.44647173,21.696 2.44647173,24.466963 C2.44647173,26.3129825 3.03220273,28.0225185 4.02738402,29.4201637 C1.60910721,30.9329591 0,33.6200858 0,36.6843509 C0,39.3431579 1.21350487,41.7213879 3.11791033,43.2905731 C2.82061598,44.3334113 2.66180117,45.4367563 2.66180117,46.5751579 C2.66180117,53.1287329 7.92589474,58.4543314 14.4561404,58.5517661 C16.1286238,61.7194542 19.4561248,63.8792359 23.2875166,63.8792359 C26.9854191,63.8792359 30.2134893,61.8695361 31.9376218,58.8792515 C33.6607563,61.8695361 36.8889513,63.8792359 40.5887251,63.8792359 C44.4191189,63.8792359 47.7466199,61.7194542 49.4191033,58.5517661 C55.9493489,58.4543314 61.2124444,53.1287329 61.2124444,46.5751579 C61.2124444,45.4367563 61.0545029,44.3334113 60.7563353,43.2905731 C62.6608655,41.7213879 63.8752437,39.3432827 63.8752437,36.6843509 Z M30.6072203,21.292538 L30.6052242,21.292538 C30.5847641,22.0088889 29.997037,22.5858869 29.2758207,22.5858869 C28.5408811,22.5858869 27.9454191,23.182347 27.9454191,23.9172865 C27.9454191,24.6522261 28.5408811,25.2476881 29.2758207,25.2476881 C29.7426589,25.2476881 30.1900351,25.166846 30.6072203,25.0196335 L30.6072203,35.9319454 C30.6072203,38.1307758 28.8158441,39.922152 26.6150175,39.922152 C25.880078,39.922152 25.2836179,40.5186121 25.2836179,41.2535517 C25.2836179,41.9884912 25.880078,42.5829552 26.6150175,42.5829552 C28.1130916,42.5829552 29.4951423,42.0877973 30.6072203,41.2535517 L30.6072203,53.898729 C30.6072203,57.933848 27.3236335,61.2185575 23.2875166,61.2185575 C19.2523977,61.2185575 15.9688109,57.9339727 15.9688109,53.8988538 C15.9688109,51.8539727 16.8674308,49.945575 18.225154,48.6161715 C18.4746667,48.3743938 18.6306121,48.0371774 18.6306121,47.661037 C18.6306121,46.9260975 18.034152,46.3296374 17.2992125,46.3296374 C16.9366706,46.3296374 16.6071891,46.477848 16.3674074,46.7116413 C14.4249513,48.5323353 13.3070097,51.027462 13.3070097,53.8988538 C13.3070097,54.5558207 13.371384,55.1990643 13.4931462,55.822846 C11.4385341,55.5733333 9.5379961,54.6493879 8.05164912,53.164039 C6.29146199,51.4038519 5.32260429,49.0646706 5.32260429,46.5754074 C5.32260429,44.0880156 6.29146199,41.7488343 8.05164912,39.9906433 C9.81096296,38.2304561 12.1501442,37.2615984 14.6384094,37.2615984 C15.4308616,37.2615984 16.2085926,37.3590331 16.9581287,37.5500351 C17.0672904,37.5773567 17.1813177,37.5968187 17.2992125,37.5968187 C18.034152,37.5968187 18.6306121,37.0003587 18.6306121,36.263423 C18.6306121,35.6161871 18.1647719,35.0743704 17.5497232,34.9573489 C16.6169201,34.7234308 15.6423236,34.5986745 14.6384094,34.5986745 C10.1715088,34.5986745 6.27586745,37.0450214 4.21738791,40.6708148 C3.25152437,39.620117 2.66180117,38.2204756 2.66180117,36.6844756 C2.66180117,34.6377232 3.69977388,32.7643821 5.43862768,31.6766316 L6.6608655,30.911501 C7.02153606,30.6737154 7.26031969,30.2642651 7.26031969,29.799423 C7.26031969,29.5148538 7.17161793,29.2516179 7.01953996,29.0352904 L6.19502534,27.8764288 C5.48353996,26.8773801 5.10727485,25.6990565 5.10727485,24.4670877 C5.10727485,22.729232 5.86454581,21.1669084 7.06532554,20.0888889 C8.76026511,22.4300663 11.5146355,23.9534659 14.625809,23.9534659 C15.3607485,23.9534659 15.9689357,23.3580039 15.9689357,22.6230643 C15.9689357,21.8881248 15.365614,21.2926628 14.6306745,21.2926628 C10.9552281,21.2926628 7.96107602,18.3023782 7.96107602,14.6269318 C7.96107602,10.9514854 10.9503626,7.96120078 14.625809,7.96120078 C15.5839376,7.96120078 16.4942846,8.16492788 17.3187992,8.53133723 C17.599501,12.6853489 21.0576218,15.9689357 25.2837427,15.9689357 C26.0186823,15.9689357 26.6151423,15.3734737 26.6151423,14.6385341 C26.6151423,13.9035945 26.0186823,13.3081326 25.2837427,13.3081326 C22.3489747,13.3071345 19.9610136,10.9202963 19.9610136,7.98453021 C19.9610136,5.04988694 22.3489747,2.66192593 25.2836179,2.66192593 C28.2192593,2.66192593 30.6072203,5.04988694 30.6072203,7.98453021 L30.6072203,21.292538 Z M59.6569825,40.6706901 C57.5985029,37.0450214 53.7037349,34.5985497 49.235961,34.5985497 C48.2340429,34.5985497 47.2574503,34.723306 46.3256452,34.9572242 C45.7115945,35.0742456 45.2437583,35.6160624 45.2437583,36.2632982 C45.2437583,37.0001092 45.8402183,37.596694 46.577154,37.596694 C46.6941754,37.596694 46.8072047,37.577232 46.9163665,37.5499103 C47.6649045,37.3589084 48.4446316,37.2614737 49.2360858,37.2614737 C51.7253489,37.2614737 54.0645302,38.2303314 55.8247173,39.9905185 C57.5830331,41.7488343 58.5537622,44.0880156 58.5537622,46.5752827 C58.5537622,49.0645458 57.5830331,51.4037271 55.8247173,53.1639142 C54.3373723,54.6492632 52.4368343,55.5732086 50.3822222,55.8227212 C50.5031111,55.1989396 50.5693567,54.5556959 50.5693567,53.898729 C50.5693567,51.0273372 49.4504172,48.5322105 47.5089591,46.7116413 C47.2671813,46.4777232 46.9398207,46.3296374 46.577154,46.3296374 C45.8403431,46.3296374 45.2437583,46.9260975 45.2437583,47.661037 C45.2437583,48.0373021 45.3997037,48.3745185 45.6492164,48.6161715 C47.0078129,49.945575 47.9064327,51.8539727 47.9064327,53.8988538 C47.9064327,57.9339727 44.6238441,61.2185575 40.5887251,61.2185575 C36.5517349,61.2185575 33.2670253,57.9339727 33.2670253,53.8988538 L33.2670253,41.2535517 C34.3801014,42.087922 35.762152,42.5829552 37.2592281,42.5829552 C37.996039,42.5829552 38.5926238,41.9883665 38.5926238,41.2535517 C38.5926238,40.5187368 37.9961637,39.922152 37.2592281,39.922152 C35.0603977,39.922152 33.2670253,38.1307758 33.2670253,35.9319454 L33.2670253,25.0196335 C33.6842105,25.166846 34.1325848,25.2476881 34.6004211,25.2476881 C35.3333645,25.2476881 35.9298246,24.6522261 35.9298246,23.9172865 C35.9298246,23.182347 35.3333645,22.5858869 34.6004211,22.5858869 C33.8772086,22.5858869 33.2904795,22.0088889 33.2710175,21.292538 L33.2671501,21.292538 L33.2671501,7.98453021 C33.2671501,5.04988694 35.6569825,2.66192593 38.5927485,2.66192593 C41.526269,2.66192593 43.91423,5.04988694 43.91423,7.98453021 C43.91423,10.9201715 41.526269,13.3071345 38.5926238,13.3081326 C37.8558129,13.3081326 37.2592281,13.9035945 37.2592281,14.6385341 C37.2592281,15.3734737 37.8556881,15.9689357 38.5926238,15.9689357 C42.8187446,15.9689357 46.2768655,12.6853489 46.5575673,8.53133723 C47.3802105,8.16480312 48.2924288,7.96120078 49.2475634,7.96120078 C52.9240078,7.96120078 55.9142924,10.9514854 55.9142924,14.6269318 C55.9142924,18.3023782 52.9201404,21.2926628 49.2436959,21.2926628 C48.5107524,21.2926628 47.9064327,21.8881248 47.9064327,22.6230643 C47.9064327,23.3580039 48.5146199,23.9534659 49.2475634,23.9534659 C52.3587368,23.9534659 55.1149786,22.4300663 56.8109162,20.0888889 C58.0116959,21.1669084 58.7680936,22.729232 58.7680936,24.4670877 C58.7680936,25.6990565 58.3918285,26.8773801 57.6803431,27.8764288 L56.8558285,29.0352904 C56.7037505,29.2516179 56.6160468,29.5148538 56.6160468,29.799423 C56.6160468,30.2643899 56.8538324,30.6737154 57.2145029,30.911501 L58.4367407,31.6766316 C60.1755945,32.7643821 61.2125692,34.6375984 61.2125692,36.6844756 C61.2124444,38.2204756 60.6238441,39.6199922 59.6569825,40.6706901 Z" id="Shape"></path>
                    </g>
                </g>
            </g>
        </g>
    </g>
</svg>