<?xml version="1.0" encoding="UTF-8"?>
<svg width="64px" height="50px" viewBox="0 0 64 50" version="1.1" xmlns="http://www.w3.org/2000/svg" xmlns:xlink="http://www.w3.org/1999/xlink">
    <!-- Generator: Sketch 41.2 (35397) - http://www.bohemiancoding.com/sketch -->
    <title>engage-3</title>
    <desc>Created with Sketch.</desc>
    <defs></defs>
    <g id="Website" stroke="none" stroke-width="1" fill="none" fill-rule="evenodd">
        <g id="Home-Bahasa" transform="translate(-901.000000, -2277.000000)" fill="#FFFFFF">
            <g id="Group-22" transform="translate(-3.000000, 1588.000000)">
                <g id="Engagements-ways">
                    <g id="engage-3" transform="translate(904.000000, 689.000000)">
                        <path d="M39.01952,34.558002 L24.918041,34.558002 C23.8552039,34.558002 22.9906732,35.4225327 22.9906732,36.4853698 L22.9906732,40.8103961 C22.9906732,41.8732332 23.8552039,42.7378888 24.918041,42.7378888 L39.0196449,42.7378888 C40.082482,42.7378888 40.9471376,41.873358 40.9471376,40.8103961 L40.9471376,36.4853698 C40.9468878,35.4226576 40.0823571,34.558002 39.01952,34.558002 Z M38.4688078,40.2598088 L25.4686283,40.2598088 L25.4686283,37.0362068 L38.4688078,37.0362068 L38.4688078,40.2598088 Z" id="Shape"></path>
                        <path d="M63.3101737,23.8464624 L63.3300293,23.8364722 L54.038478,5.46641171 C53.2873366,3.98161171 51.7875512,3.05938732 50.1240507,3.05938732 L48.3581502,3.05938732 L48.3581502,1.35168 C48.3581502,0.667348293 47.803442,0.11264 47.1191102,0.11264 L16.8185756,0.11264 C16.1342439,0.11264 15.5795356,0.667348293 15.5795356,1.35168 L15.5795356,3.05938732 L13.8136351,3.05938732 C12.1501346,3.05938732 10.6503493,3.98161171 9.8992078,5.46641171 L0.607531707,23.8364722 L0.627387317,23.8464624 C0.229400976,24.5019473 0,25.2706966 0,26.0918946 L0,45.4990673 C0,47.8919805 1.94684878,49.8387044 4.33976195,49.8387044 L59.5979239,49.8387044 C61.9908371,49.8387044 63.937561,47.8918556 63.937561,45.4990673 L63.937561,26.0918946 C63.937561,25.2706966 63.70816,24.5019473 63.3101737,23.8464624 Z M48.3580254,5.81282341 L50.1239259,5.81282341 C50.7431961,5.81282341 51.3015259,6.15636293 51.5813776,6.70932293 L59.1901971,21.7523824 L54.0163746,21.7523824 L54.0163746,17.1236527 C54.0163746,16.439321 53.4616663,15.8846127 52.7773346,15.8846127 L51.2444566,15.8846127 L51.2444566,9.23772878 C51.2444566,8.55339707 50.6897483,7.99868878 50.0054166,7.99868878 L48.3580254,7.99868878 L48.3580254,5.81282341 Z M51.5384195,18.3625678 L51.5384195,21.7522576 L44.9999298,21.7522576 C43.8780254,21.7522576 42.8552741,22.4132371 42.3943493,23.4358634 L40.6090927,27.3957463 C40.5921093,27.4330849 40.5547707,27.4573112 40.5136859,27.4573112 L23.424,27.4573112 C23.3829151,27.4573112 23.3455766,27.4330849 23.3285932,27.3956215 L21.5434615,23.4359883 C21.0824117,22.4132371 20.0596605,21.7522576 18.9377561,21.7522576 L12.3992663,21.7522576 L12.3992663,18.3625678 L51.5384195,18.3625678 L51.5384195,18.3625678 Z M18.0576156,2.59072 L45.8799454,2.59072 L45.8799454,7.9985639 L18.0576156,7.9985639 L18.0576156,2.59072 Z M48.7663766,10.4766439 L48.7663766,15.8844878 L15.1711844,15.8844878 L15.1711844,10.4766439 L48.7663766,10.4766439 Z M12.3561834,6.70932293 C12.6359102,6.15623805 13.1943649,5.81282341 13.8136351,5.81282341 L15.5795356,5.81282341 L15.5795356,7.9985639 L13.9321444,7.9985639 C13.2478127,7.9985639 12.6931044,8.5532722 12.6931044,9.2376039 L12.6931044,15.8844878 L11.1602263,15.8844878 C10.4758946,15.8844878 9.92118634,16.4391961 9.92118634,17.1235278 L9.92118634,21.7522576 L4.7473639,21.7522576 L12.3561834,6.70932293 Z M59.5979239,47.0851434 L4.33976195,47.0851434 C3.4651161,47.0851434 2.7534361,46.3734634 2.7534361,45.4990673 L2.7534361,26.0918946 C2.7534361,25.2173737 3.46499122,24.5058185 4.33976195,24.5058185 L18.9377561,24.5058185 C18.9787161,24.5058185 19.0163044,24.5300449 19.0332878,24.5676332 L20.8184195,28.5272663 C21.2794693,29.5500176 22.3020956,30.2107473 23.424,30.2107473 L40.513561,30.2107473 C41.6354654,30.2107473 42.6582166,29.5498927 43.1191415,28.5273912 L44.904398,24.5676332 L44.904398,24.5675083 C44.9213815,24.5300449 44.95872,24.5058185 44.9998049,24.5058185 L59.597799,24.5058185 C60.4724449,24.5058185 61.1838751,25.2174985 61.1838751,26.0918946 L61.1838751,45.4990673 L61.184,45.4990673 C61.1841249,46.3737132 60.4725698,47.0851434 59.5979239,47.0851434 Z" id="Shape"></path>
                    </g>
                </g>
            </g>
        </g>
    </g>
</svg>