<?xml version="1.0" encoding="UTF-8"?>
<svg width="58px" height="64px" viewBox="0 0 58 64" version="1.1" xmlns="http://www.w3.org/2000/svg" xmlns:xlink="http://www.w3.org/1999/xlink">
    <!-- Generator: Sketch 41.2 (35397) - http://www.bohemiancoding.com/sketch -->
    <title>engage-1</title>
    <desc>Created with Sketch.</desc>
    <defs></defs>
    <g id="Website" stroke="none" stroke-width="1" fill="none" fill-rule="evenodd">
        <g id="Home-Bahasa" transform="translate(-370.000000, -2574.000000)" fill="#FFFFFF">
            <g id="Group-22" transform="translate(-3.000000, 1588.000000)">
                <g id="Engagements-ways">
                    <g id="engage-1" transform="translate(373.000000, 986.000000)">
                        <g id="Group">
                            <path d="M19.18375,12.73925 C19.40375,12.874375 19.647,12.938875 19.88775,12.938875 C20.34,12.938875 20.78175,12.711125 21.035875,12.2975 C21.164875,12.087875 21.302,11.882 21.443375,11.686 C22.723,9.91375 24.50125,8.728375 26.585875,8.258 C27.31125,8.09425 27.766375,7.373625 27.602875,6.648375 C27.439,5.923125 26.718125,5.467625 25.99325,5.631375 C23.2585,6.2485 20.93025,7.797125 19.26025,10.11 C19.079875,10.35975 18.9055,10.62125 18.742125,10.88725 C18.352625,11.520625 18.5505,12.34975 19.18375,12.73925 Z" id="Shape"></path>
                            <path d="M30.06,8.107 C30.0655,8.10775 30.078875,8.109625 30.082,8.11 C30.140375,8.1175 30.198,8.121125 30.255375,8.121125 C30.919625,8.121125 31.49225,7.628 31.582125,6.951375 C31.679875,6.2165 31.158625,5.54 30.42375,5.43925 C30.401375,5.43625 30.379375,5.4335 30.35725,5.431 C29.617625,5.352875 28.95525,5.8895 28.8775,6.628875 C28.800125,7.36325 29.328375,8.021625 30.06,8.107 Z" id="Shape"></path>
                            <path d="M56.427625,42.8825 C53.310375,42.02825 50.043375,40.64275 47.22875,38.980875 C46.8065,38.731625 46.28225,38.7315 45.86,38.980875 C45.42825,39.23575 44.994875,39.479375 44.559625,39.71475 C42.24075,39.57725 40.593875,38.957125 39.440875,36.670625 C42.22925,34.77425 43.230125,33.238375 44.3525,26.420375 C44.4225,25.99525 44.527875,25.445375 44.650125,24.808875 C45.321,21.311 46.335125,16.024875 45.336375,12.682125 C44.17975,8.809875 41.985125,5.578625 38.98925,3.33775 C36.070375,1.154375 32.529625,0.00025 28.749875,0 C24.970125,0 21.429625,1.154 18.510625,3.337375 C15.51475,5.578375 13.319875,8.8095 12.163,12.681875 C11.164625,16.023625 12.1785,21.309375 12.849375,24.807 C12.971625,25.444375 13.077,25.994625 13.147125,26.42025 C14.275875,33.275375 15.28175,34.791 18.10475,36.702 C17.206125,38.44425 15.197875,39.298125 12.21325,40.4455 C9.544125,41.471625 6.519125,42.634625 4.144625,45.09325 C1.41075,47.924125 0.081875,51.924375 0.081875,57.322625 C0.081875,58.066125 0.684625,58.668875 1.428125,58.668875 L28.74975,58.668875 L38.765875,58.668875 C39.2865,59.35875 39.82475,59.954375 40.33925,60.4585 C42.57175,62.646 45.2985,64 46.544125,64 C47.790125,64 50.516625,62.645875 52.749125,60.4585 C54.879,58.371625 57.417875,54.73025 57.417875,49.2325 L57.417875,44.181 C57.418125,43.574375 57.012625,43.04275 56.427625,42.8825 Z M14.743,13.4525 C16.725875,6.8155 22.093,2.6925 28.74975,2.6925 C35.407375,2.693 40.7745,6.816 42.756625,13.452625 C43.116875,14.65825 43.1235,16.334875 42.968625,18.0925 C40.029625,17.097875 38.45325,13.11 38.4365,13.066875 C38.277125,12.649125 37.92075,12.33775 37.485375,12.236 C37.050125,12.1345 36.5925,12.25525 36.264375,12.558875 C29.958875,18.393875 18.921375,14.9545 18.812,14.9195 C18.216125,14.7275 17.567,14.971625 17.244875,15.50825 C16.7695,16.3005 15.6075,17.08925 14.49725,17.672875 C14.379625,16.06975 14.4115,14.561625 14.743,13.4525 Z M15.804,25.982875 C15.72825,25.5225 15.619625,24.955875 15.493875,24.29975 C15.287875,23.22625 15.033125,21.897375 14.82525,20.508125 C15.954375,19.999125 17.739375,19.054625 18.916375,17.745625 C21.756125,18.478625 30.39375,20.168375 36.711125,15.65975 C37.701,17.416375 39.6375,20.049875 42.630125,20.801625 C42.430875,22.084375 42.1975,23.303375 42.006,24.301375 C41.88025,24.956625 41.77175,25.522625 41.696,25.98275 C40.577875,32.77475 39.873,33.223125 36.90575,35.11025 C36.4095,35.425875 35.848625,35.782625 35.224,36.205125 C33.073625,37.438875 30.8955,38.064125 28.749625,38.064125 C26.60375,38.064 24.425875,37.43875 22.276,36.205625 C21.65175,35.783125 21.090875,35.426375 20.594875,35.111 C20.552375,35.084125 20.51075,35.057375 20.46925,35.031 C20.466375,35.02925 20.4635,35.027375 20.460625,35.025625 C17.60575,33.208625 16.905375,32.671625 15.804,25.982875 Z M28.749875,55.976125 L28.749875,55.97625 L2.806,55.97625 C3.2495,46.776875 8.293875,44.83675 13.179375,42.9585 C16.00325,41.872875 18.906875,40.755625 20.371875,38.1715 C20.5135,38.26525 20.658,38.36175 20.806,38.462 L20.8885,38.51375 C23.466125,40.002 26.110875,40.756625 28.749375,40.75675 L28.74975,40.75675 C31.388,40.75675 34.033,40.001875 36.611375,38.51325 L36.69375,38.4615 C36.858,38.350125 37.0175,38.24375 37.174,38.1405 C38.12175,39.893625 39.329375,40.9345 40.639,41.550625 C39.347125,42.06575 38.025875,42.508375 36.66125,42.88225 C36.07625,43.0425 35.67075,43.574125 35.67075,44.18075 L35.67075,49.23225 C35.67075,49.717875 35.6915,50.18825 35.729125,50.645 L27.351625,50.645 C26.608125,50.645 26.005375,51.24775 26.005375,51.99125 C26.005375,52.73475 26.608125,53.3375 27.351625,53.3375 L36.182625,53.3375 C36.431875,54.29675 36.75925,55.175 37.137,55.976125 L28.749875,55.976125 Z M46.544375,61.30175 C45.89475,61.17275 42.829625,59.803125 40.642125,56.687625 C40.5965,56.602625 40.541875,56.5235 40.47975,56.450625 C39.627,55.175125 38.927,53.6205 38.58675,51.75525 C38.584125,51.740125 38.581875,51.725 38.578625,51.71 C38.4405,50.937625 38.363125,50.113125 38.363125,49.23225 L38.363125,45.194375 C40.84225,44.448375 43.194375,43.4835 45.489125,42.271375 C45.491375,42.270125 45.493625,42.269 45.496,42.267875 C45.84675,42.082375 46.1965,41.891625 46.544875,41.6945 C49.12,43.1455 51.917,44.341625 54.7255,45.19325 L54.7255,49.23225 L54.725625,49.23225 C54.725625,57.753125 47.57775,61.0965 46.544375,61.30175 Z" id="Shape"></path>
                            <rect id="Rectangle-9" x="45" y="49" width="3" height="7" rx="1.5"></rect>
                            <rect id="Rectangle-9" x="45" y="45" width="3" height="3" rx="1.5"></rect>
                            <path d="M23.49225,50.645125 L23.394625,50.645125 C22.651125,50.645125 22.048375,51.247875 22.048375,51.991375 C22.048375,52.734875 22.651125,53.337625 23.394625,53.337625 L23.49225,53.337625 C24.23575,53.337625 24.8385,52.734875 24.8385,51.991375 C24.8385,51.247875 24.23575,50.645125 23.49225,50.645125 Z" id="Shape"></path>
                            <path d="M23.351625,26.54075 C24.26925,26.54075 25.017875,25.792375 25.017875,24.8745 C25.017875,23.956625 24.26925,23.208375 23.351625,23.208375 C22.43375,23.208375 21.685375,23.95675 21.685375,24.8745 C21.685375,25.792375 22.433625,26.54075 23.351625,26.54075 Z" id="Shape"></path>
                            <path d="M34.14925,26.54075 C35.067,26.54075 35.8155,25.792375 35.8155,24.8745 C35.8155,23.956625 35.067125,23.208375 34.14925,23.208375 C33.231625,23.208375 32.483,23.95675 32.483,24.8745 C32.483,25.792375 33.2315,26.54075 34.14925,26.54075 Z" id="Shape"></path>
                        </g>
                    </g>
                </g>
            </g>
        </g>
    </g>
</svg>