<?xml version="1.0" encoding="UTF-8"?>
<svg width="49px" height="48px" viewBox="0 0 49 48" version="1.1" xmlns="http://www.w3.org/2000/svg" xmlns:xlink="http://www.w3.org/1999/xlink">
    <!-- Generator: Sketch 41.2 (35397) - http://www.bohemiancoding.com/sketch -->
    <title>keun-2</title>
    <desc>Created with Sketch.</desc>
    <defs></defs>
    <g id="Website" stroke="none" stroke-width="1" fill="none" fill-rule="evenodd">
        <g id="Home-Bahasa" transform="translate(-537.000000, -1341.000000)">
            <g id="keun-2" transform="translate(538.000000, 1341.000000)">
                <path d="M42.9943004,26 C42.7286014,37.6431686 33.2070033,47 21.5,47 C9.62587788,47 0,37.3741221 0,25.5 C0,13.6258779 9.62587788,4 21.5,4 C21.6671189,4 21.8337924,4.00190673 22,4.00569961 L22,26 L42.9943004,26 Z" id="Combined-Shape" stroke="#3BC2DC" stroke-width="2" fill="#FFFFFF"></path>
                <path d="M29,0 C28.4075961,0 28,0.407596109 28,1 L28,19 C28,19.5924039 28.4075961,20 29,20 L47,20 C47.5924039,20 48,19.5924039 48,19 C48,14.4233441 46.3047707,9.93978694 43,6 C39.597962,2.35294118 34.3825845,0 29,0 Z M30,18 L30,2 C34.5156161,2.24545455 38.7677456,4.29090909 42,8 C44.3191369,10.5636364 45.7910278,14.2 46,18 L30,18 Z" id="Shape" fill="#3BC2DC"></path>
            </g>
        </g>
    </g>
</svg>