<?xml version="1.0" encoding="UTF-8"?>
<svg width="41px" height="48px" viewBox="0 0 41 48" version="1.1" xmlns="http://www.w3.org/2000/svg" xmlns:xlink="http://www.w3.org/1999/xlink">
    <!-- Generator: Sketch 41.2 (35397) - http://www.bohemiancoding.com/sketch -->
    <title>keun-4</title>
    <desc>Created with Sketch.</desc>
    <defs></defs>
    <g id="Website" stroke="none" stroke-width="1" fill="none" fill-rule="evenodd">
        <g id="Home-Bahasa" transform="translate(-1067.000000, -1340.000000)" fill="#3BC2DC">
            <g id="keun-4" transform="translate(1067.000000, 1340.000000)">
                <g id="Group">
                    <path d="M40.1773099,8.27237427 C33.5859649,6.46633918 26.955883,3.65417544 21.0037895,0.139976608 C20.6876257,-0.0466900585 20.2952982,-0.0466900585 19.9792281,0.139976608 C13.8554386,3.7551345 7.58362573,6.41515789 0.805146199,8.27237427 C0.367251462,8.39223392 0.0637192982,8.79026901 0.0637192982,9.24435088 L0.0637192982,19.5410526 C0.0637192982,30.1443743 4.95532164,37.1630409 9.05899415,41.1837193 C13.4768655,45.5126082 18.6230643,47.9065263 20.4915088,47.9065263 C22.3597661,47.9065263 27.5059649,45.5126082 31.9238363,41.1837193 C36.0274152,37.1631345 40.9187368,30.1444678 40.9187368,19.5410526 L40.9187368,9.24425731 C40.9187368,8.79026901 40.6152047,8.39223392 40.1773099,8.27237427 Z M38.9032982,19.5409591 C38.9032982,29.4443977 34.3408655,35.9936374 30.5132164,39.744 C26.1687953,44.0008421 21.5238363,45.8909006 20.4915088,45.8909006 C19.4591813,45.8909006 14.8139415,44.0008421 10.4694269,39.744 C6.64187135,35.9935439 2.07925146,29.4443977 2.07925146,19.5409591 L2.07925146,10.0092632 C8.56140351,8.16879532 14.5981754,5.6002807 20.4916959,2.1754386 C26.2380351,5.5094269 32.576,8.20566082 38.9032982,10.0088889 L38.9032982,19.5409591 Z" id="Shape"></path>
                    <path d="M30.7856842,16.8500585 C31.0238129,16.6119298 31.3407251,16.4808421 31.6777544,16.4808421 C32.0149708,16.4808421 32.3316023,16.6119298 32.5699181,16.8500585 C33.061614,17.3417544 33.061614,18.1421287 32.569731,18.6340117 L20.1478363,31.056 C19.9097076,31.2941287 19.5927953,31.4252164 19.2557661,31.4252164 C18.9187368,31.4252164 18.6018246,31.2941287 18.3636023,31.056 L12.4132865,25.1058713 C11.9214035,24.6139883 11.9214035,23.813614 12.4130994,23.3219181 C12.6513216,23.0837895 12.9682339,22.9525146 13.3053567,22.9525146 C13.6424795,22.9525146 13.9592047,23.0836023 14.1973333,23.321731 L18.5430643,27.6675556 C18.7321637,27.8564678 18.9883509,27.9626667 19.2556725,27.9626667 C19.5229942,27.9626667 19.7791813,27.8565614 19.9680936,27.6675556 L30.7856842,16.8500585 Z" id="Shape"></path>
                </g>
            </g>
        </g>
    </g>
</svg>