<?xml version="1.0" encoding="UTF-8"?>
<svg width="50px" height="56px" viewBox="0 0 50 56" version="1.1" xmlns="http://www.w3.org/2000/svg" xmlns:xlink="http://www.w3.org/1999/xlink">
    <!-- Generator: Sketch 41.2 (35397) - http://www.bohemiancoding.com/sketch -->
    <title>keun-1</title>
    <desc>Created with Sketch.</desc>
    <defs></defs>
    <g id="Website" stroke="none" stroke-width="1" fill="none" fill-rule="evenodd">
        <g id="Home-Bahasa" transform="translate(-266.000000, -1108.000000)" fill="#3BC2DC">
            <g id="keun-1" transform="translate(266.000000, 1108.000000)">
                <path d="M49.0808779,24.7402358 C49.0808779,38.1057529 38.2063779,48.9802529 24.8407514,48.9802529 L21.177792,48.9802529 L25.5622835,53.888138 C25.9182784,54.2865321 25.883824,54.8981479 25.4853333,55.2541647 C25.3053481,55.4148079 25.0775681,55.5 24.8412983,55.5 C24.5667521,55.5 24.3056669,55.3857264 24.1193588,55.17714 L18.9156925,49.3523281 C18.2333757,48.5885328 18.2333757,47.4372173 18.9156996,46.673414 L24.1193277,40.8486449 C24.4752984,40.4501972 25.0870289,40.4156707 25.4852998,40.7715554 C25.8837641,41.127613 25.9182424,41.7392582 25.5623239,42.1375669 L21.9220577,46.2123857 L21.177792,47.0454972 L24.8407514,47.0454972 C37.1403844,47.0454972 47.1461222,37.039794 47.1461222,24.7402358 C47.1461222,12.4405856 37.1404017,2.43486511 24.8407514,2.43486511 C12.5410638,2.43486511 2.53538073,12.4405136 2.53538073,24.7402358 C2.53538073,25.2743886 2.10217791,25.7076137 1.56800287,25.7076137 C1.03378428,25.7076137 0.600625,25.2744544 0.600625,24.7402358 C0.600625,11.3745928 11.475251,0.5 24.8408608,0.5 C38.2064277,0.5 49.0808779,11.3745498 49.0808779,24.7402358 Z" id="Path"></path>
                <path d="M28.4492188,28.4223633 C28.4492188,27.6736616 28.1867702,27.0429713 27.6618652,26.5302734 C27.1369603,26.0175756 26.2519594,25.553713 25.0068359,25.1386719 C23.2734288,24.6096979 22.0100137,23.9200075 21.2165527,23.0695801 C20.4230917,22.2191526 20.0263672,21.1388412 20.0263672,19.8286133 C20.0263672,18.4939712 20.4149538,17.3994183 21.1921387,16.5449219 C21.9693235,15.6904254 23.0374281,15.1818042 24.3964844,15.019043 L24.3964844,12.3457031 L26.215332,12.3457031 L26.215332,15.03125 C27.5825264,15.2184254 28.646562,15.7921501 29.4074707,16.7524414 C30.1683795,17.7127327 30.5488281,19.0270099 30.5488281,20.6953125 L28.3027344,20.6953125 C28.3027344,19.5478458 28.0301134,18.6363966 27.4848633,17.9609375 C26.9396132,17.2854784 26.2031296,16.9477539 25.2753906,16.9477539 C24.3069613,16.9477539 23.5664088,17.1979955 23.0537109,17.6984863 C22.5410131,18.1989771 22.284668,18.8968054 22.284668,19.7919922 C22.284668,20.6220745 22.5552545,21.283282 23.0964355,21.7756348 C23.6376166,22.2679875 24.528721,22.7155742 25.7697754,23.1184082 C27.0108298,23.5212422 27.9792446,23.9647599 28.6750488,24.4489746 C29.3708531,24.9331893 29.8835433,25.4967416 30.2131348,26.1396484 C30.5427263,26.7825553 30.7075195,27.5353147 30.7075195,28.3979492 C30.7075195,29.7732816 30.2945191,30.8800414 29.4685059,31.7182617 C28.6424926,32.5564821 27.4848707,33.0528964 25.9956055,33.2075195 L25.9956055,35.5390625 L24.1889648,35.5390625 L24.1889648,33.2075195 C22.6752854,33.0691725 21.4891807,32.530034 20.6306152,31.5900879 C19.7720497,30.6501418 19.3427734,29.3745198 19.3427734,27.7631836 L21.6010742,27.7631836 C21.6010742,28.8943741 21.898109,29.7651337 22.4921875,30.3754883 C23.086266,30.9858429 23.9285427,31.2910156 25.019043,31.2910156 C26.085129,31.2910156 26.9233368,31.0346705 27.5336914,30.5219727 C28.144046,30.0092748 28.4492188,29.309412 28.4492188,28.4223633 Z" id="$"></path>
            </g>
        </g>
    </g>
</svg>