<?xml version="1.0" encoding="UTF-8"?>
<svg width="132px" height="30px" viewBox="0 0 132 30" version="1.1" xmlns="http://www.w3.org/2000/svg" xmlns:xlink="http://www.w3.org/1999/xlink">
    <g id="Website" stroke="none" stroke-width="1" fill="none" fill-rule="evenodd">
        <g id="Home-Bahasa" transform="translate(-30.000000, -46.000000)">
            <g id="Logo" transform="translate(30.000000, 46.000000)">
                <path d="M89.045251,13.4885396 C88.6372913,13.4136805 88.2306604,13.3771369 87.7859356,13.3771369 C87.3048886,13.3771369 86.8969289,13.4136805 86.5270631,13.4885396 C86.1191034,13.5620698 85.7479087,13.7102376 85.378043,13.8584054 C85.0081772,14.007902 84.637204,14.2296 84.3408685,14.4145329 C84.0445329,14.6362309 83.7479758,14.8958013 83.4516403,15.1932443 L83.4148752,15.1932443 C82.6002846,16.0446 81.7112779,15.6747342 80.8220497,14.6362309 C79.970694,13.6353785 79.451553,12.8210094 80.1923919,12.1167141 C80.229157,12.079949 80.267251,12.0420765 80.3040161,12.0420765 C80.8220497,11.5238215 81.3781772,11.0793181 81.9708483,10.7094523 C82.4888819,10.3382577 83.081553,10.0419221 83.6746671,9.81911678 C83.7112107,9.78235168 83.7860698,9.74425772 83.8226134,9.74425772 C84.4890362,9.48579463 85.118694,9.30086174 85.8227678,9.1513651 C86.4889691,9.04129128 87.1567208,8.96643221 87.8227007,8.96643221 C88.1560228,8.96643221 88.5272174,8.96643221 88.9336268,9.00452617 C89.045251,9.04129128 89.1934188,9.04129128 89.3048215,9.07805638 C89.3783517,9.00452617 89.4529893,8.96643221 89.5265195,8.89312349 C89.7114523,8.7449557 89.8977141,8.52192886 90.082647,8.26213691 C90.2308148,8.04043893 90.3422174,7.81896242 90.4155262,7.59615705 C90.4903852,7.3363651 90.5271503,7.07657315 90.5271503,6.81833154 C90.5271503,6.41037181 90.4525128,6.03917718 90.3422174,5.74284161 C90.1940497,5.40974094 90.0080094,5.15017047 89.7114523,4.85361342 C89.4529893,4.59404295 89.1566537,4.37101611 88.8603181,4.25961342 C88.5272174,4.1127745 88.1560228,4.03791544 87.7859356,4.03791544 L87.6747544,4.03791544 L76.7105597,4.03791544 C76.4888617,4.03791544 76.3404725,4.07468054 76.2658349,4.18608322 C76.1557611,4.25961342 76.1176671,4.40911007 76.1176671,4.59404295 L76.1176671,14.8958013 L76.1176671,25.3477208 C76.1176671,25.4591235 76.1925262,25.5326537 76.2658349,25.5707477 C76.4140027,25.7175866 76.6370295,25.7908953 76.9701302,25.7908953 L87.7859356,25.7908953 C88.2306604,25.7908953 88.6372913,25.7554591 89.045251,25.6794926 C89.4529893,25.6061839 89.8596201,25.4591235 90.1940497,25.3096268 C90.6004591,25.1627879 90.9716537,24.9397611 91.2682107,24.7548282 C91.6013114,24.5318013 91.897647,24.2733383 92.194204,23.9745664 C92.4524456,23.7163248 92.7122376,23.4197678 92.935043,23.0853383 C93.1567409,22.7535664 93.3416738,22.4191369 93.4898416,22.0111772 C93.6380094,21.6415329 93.7861772,21.2716671 93.8610362,20.8637074 C93.934345,20.4557477 93.9711101,20.0480094 93.9711101,19.6021772 C93.9711101,19.1587812 93.934345,18.712949 93.8610362,18.3049893 C93.7861772,17.8970295 93.6380094,17.5271638 93.4898416,17.157298 C93.3416738,16.7495597 93.1567409,16.4151302 92.935043,16.082694 C92.7122376,15.7863584 92.5273047,15.5265664 92.2677342,15.2667745 C92.2309691,15.2300094 92.194204,15.2300094 92.194204,15.1932443 C91.897647,14.8958013 91.6013114,14.6362309 91.2682107,14.451298 C90.9716537,14.2296 90.6004591,14.0433383 90.1940497,13.8584054 C89.8596201,13.7102376 89.4529893,13.5999423 89.045251,13.4885396" class="blue_part" id="Fill-1" fill="#3AC3DC"></path>
                <path d="M92.8603168,10.9311725 C93.0452497,11.0412463 93.2315114,11.152649 93.4164443,11.2642732 C93.9344779,11.6354678 94.4525114,12.0420987 94.8604711,12.4877094 C94.8972362,12.5244745 94.9351087,12.5612396 94.9718738,12.5993336 C95.3798336,13.0072933 95.7496993,13.4885617 96.0828,13.9698302 C96.4539946,14.4891926 96.7501087,15.0439913 97.0085718,15.6747564 C97.2683638,16.3037497 97.4532966,16.9342933 97.6014644,17.5652799 C97.7128671,18.2314812 97.7863973,18.897904 97.7863973,19.6019779 C97.7863973,20.2708369 97.7128671,20.9370383 97.6014644,21.6034611 C97.4532966,22.2342262 97.2683638,22.9004275 97.0085718,23.5311926 C96.7501087,24.1240852 96.4539946,24.6786624 96.0828,25.1982463 C95.7129342,25.7554812 95.3049745,26.2724074 94.8604711,26.6801456 C94.4525114,27.1259779 93.9344779,27.5339376 93.4164443,27.9038034 C92.8603168,28.2736691 92.3041893,28.5702262 91.7126255,28.830904 C91.0820819,29.0893671 90.4524242,29.2743 89.7862228,29.4237966 C89.1198,29.5351993 88.4524913,29.6087295 87.7860685,29.6087295 L76.9700416,29.6087295 C75.7109477,29.6087295 74.5989141,29.1626758 73.7843235,28.496696 C72.8583302,27.6807765 72.3024242,26.6066154 72.3024242,25.347743 L72.3024242,14.895602 L72.3024242,4.5940651 C72.3024242,3.37040738 72.747149,2.25948121 73.5993906,1.44378322 C74.340451,0.702722819 75.4146121,0.221454362 76.7104711,0.221454362 C77.0816658,0.221454362 81.1550617,0.221454362 87.6746658,0.258219463 L87.7860685,0.258219463 C88.6752966,0.258219463 89.5264309,0.406387248 90.3042564,0.739487919 C91.0820819,1.03715235 91.7861557,1.51842081 92.4158134,2.14807852 C93.0452497,2.77773624 93.527847,3.51990403 93.8611691,4.29750805 C94.1940483,5.07533356 94.3422161,5.92779664 94.3422161,6.81835369 C94.3422161,7.44778993 94.2675785,8.07722617 94.046102,8.70821275 C93.8611691,9.30088389 93.6013772,9.89355503 93.2315114,10.4131389 C93.1201087,10.5980718 92.9719409,10.7830047 92.8603168,10.9311725 M89.0451624,13.4885617 C88.6374242,13.4137027 88.2307933,13.3769376 87.7860685,13.3769376 C87.3048,13.3769376 86.8968403,13.4137027 86.5269745,13.4885617 C86.1192362,13.5618705 85.7480416,13.7102597 85.3781758,13.8584275 C85.0083101,14.0079242 84.6371154,14.2296221 84.3407799,14.414555 C84.0444443,14.636253 83.7478872,14.895602 83.4517732,15.1932664 L83.4150081,15.1932664 C82.6004174,16.0446221 81.7111893,15.6747564 80.8221826,14.636253 C79.9708268,13.6354007 79.4514644,12.8210315 80.1925248,12.1167362 C80.2292899,12.0799711 80.2673839,12.0420987 80.304149,12.0420987 C80.8221826,11.5238436 81.3780886,11.0793403 81.9707597,10.7094745 C82.4890148,10.3382799 83.0816859,10.0419443 83.6745785,9.81913893 C83.7111221,9.78237383 83.7859812,9.74427987 83.8225248,9.74427987 C84.4889477,9.48581678 85.1186054,9.30088389 85.8229007,9.15138725 C86.4888805,9.04131342 87.1566322,8.96645436 87.8228336,8.96645436 C88.1561557,8.96645436 88.5273503,8.96645436 88.9337597,9.00454832 C89.0451624,9.04131342 89.1933302,9.04131342 89.3047329,9.07807852 C89.3782631,9.00454832 89.4529007,8.96645436 89.5264309,8.89314564 C89.7113638,8.74475638 89.8976255,8.52195101 90.0825584,8.26215906 C90.2307262,8.04046107 90.3423503,7.81898456 90.4156591,7.59595772 C90.4905181,7.33638725 90.5272832,7.0765953 90.5272832,6.81835369 C90.5272832,6.41039396 90.4524242,6.03919933 90.3423503,5.74286376 C90.1939611,5.40976309 90.0079208,5.14997114 89.7113638,4.85363557 C89.4529007,4.5940651 89.1565651,4.37103826 88.8602295,4.25963557 C88.5273503,4.11257517 88.1561557,4.03793758 87.7860685,4.03793758 L87.6746658,4.03793758 L76.7104711,4.03793758 C76.4887732,4.03793758 76.3403839,4.07470268 76.2657463,4.18610537 C76.1556725,4.25963557 76.1175785,4.40913221 76.1175785,4.5940651 L76.1175785,14.895602 L76.1175785,25.347743 C76.1175785,25.4591456 76.1924376,25.5326758 76.2657463,25.5707698 C76.4139141,25.7176087 76.6369409,25.7909174 76.9700416,25.7909174 L87.7860685,25.7909174 C88.2307933,25.7909174 88.6374242,25.7554812 89.0451624,25.6795148 C89.4529007,25.606206 89.8595315,25.4591456 90.1939611,25.309649 C90.6005919,25.1628101 90.9717866,24.9397832 91.2683436,24.7548503 C91.6012228,24.5318235 91.8975584,24.2733604 92.1941154,23.9745886 C92.452357,23.716347 92.712149,23.4197899 92.9351758,23.0853604 C93.1568738,22.7535886 93.3418067,22.4191591 93.4899745,22.0111993 C93.6381423,21.6413336 93.7863101,21.2714678 93.8611691,20.8637295 C93.9344779,20.4557698 93.971243,20.0480315 93.971243,19.6019779 C93.971243,19.1585819 93.9344779,18.7129711 93.8611691,18.3050114 C93.7863101,17.8970517 93.6381423,17.5271859 93.4899745,17.1573201 C93.3418067,16.7495819 93.1568738,16.4151523 92.9351758,16.0827161 C92.712149,15.7863805 92.5272161,15.5265886 92.2676456,15.2667966 C92.2308805,15.2300315 92.1941154,15.2300315 92.1941154,15.1932664 C91.8975584,14.895602 91.6012228,14.636253 91.2683436,14.4513201 C90.9717866,14.2296221 90.6005919,14.0433604 90.1939611,13.8584275 C89.8595315,13.7102597 89.4529007,13.5999644 89.0451624,13.4885617" class="black_part" id="Fill-3" fill="#1D1D1D"></path>
                <path d="M52.0788946,12.7107805 C52.0788946,17.8237872 56.1536195,18.6394852 59.9689953,19.0472235 C63.1531631,19.3435591 64.6733779,19.6779886 64.6733779,21.5299752 C64.6733779,23.0854047 63.3026597,23.8656664 60.5235725,23.8656664 C58.152445,23.8656664 56.7465121,23.2349013 56.115747,21.6792503 C55.7077872,20.7878074 55.2646128,20.6788409 54.4867872,20.9370826 L52.745096,21.4918812 C51.8193242,21.8263107 51.6343913,22.3075792 51.9307268,23.1613711 C53.1162906,26.1987 56.0789819,27.9038477 60.6719617,27.9038477 C66.265351,27.9038477 69.1547336,25.1982906 69.1547336,21.3448208 C69.1547336,16.5644718 65.8208477,15.4898678 61.1545591,15.0440356 C58.152445,14.7474785 56.5602503,14.451143 56.5602503,12.5993779 C56.5602503,11.1907872 57.709049,10.4864919 60.2653309,10.4864919 C62.7467537,10.4864919 63.8209148,11.338955 64.4871161,12.5245188 C65.0051497,13.3391094 65.2649416,13.4505121 66.1539483,13.0806463 L67.8958611,12.376351 C68.7467738,11.9683913 69.0065658,11.4873443 68.5250758,10.5978946 C67.2648745,8.04050537 64.6733779,6.41043826 60.1537067,6.41043826 C54.7452503,6.41043826 52.0788946,9.00459262 52.0788946,12.7107805 M44.1152638,19.1586262 L44.1152638,23.2727738 C44.1152638,23.6047671 44.0040826,23.6782973 43.6707604,23.8275725 C42.9664651,23.9744114 41.7441362,24.1241295 39.7442034,24.1241295 C36.706653,24.1241295 36.0772168,23.1234987 36.0772168,21.4918812 C36.0772168,19.8983577 36.8548208,18.9358208 39.8188409,18.9358208 C41.3742705,18.9358208 43.2630221,19.1205322 44.1152638,19.1586262 M32.1504383,10.4864919 C31.6691698,11.3757201 31.9655054,11.8572101 32.8168611,12.2281832 L34.373398,12.8957134 C35.2993913,13.2655792 35.5224181,13.1541765 36.0772168,12.338257 C36.8929148,11.0793846 38.2253174,10.4486195 40.1887067,10.4486195 C43.1146329,10.4486195 44.1152638,11.8572101 44.1152638,14.3395188 L44.1152638,15.4152302 C43.4490624,15.3784651 41.8555389,15.2300758 40.3368745,15.2300758 C34.0770624,15.2300758 31.446143,16.8229349 31.446143,21.5299752 C31.446143,25.6062503 33.2626933,27.9038477 40.1887067,27.9038477 C43.4111899,27.9038477 45.7823174,27.4958879 47.2263443,26.8675591 C48.3383779,26.3836329 48.633606,26.0137671 48.633606,24.6432705 L48.633606,14.4892369 C48.633606,9.85572685 46.7069819,6.41043826 40.2622369,6.41043826 C36.1886195,6.41043826 33.4841698,7.92910268 32.1504383,10.4864919 M13.5191698,7.7074047 C12.3347134,6.81839799 10.7414114,6.41043826 8.66661946,6.41043826 C5.22243826,6.41043826 3.07300872,7.11451208 1.51757919,7.7441698 C0.33179396,8.22543826 2.21476512e-05,8.70825705 2.21476512e-05,9.96712953 L2.21476512e-05,26.0872973 C2.21476512e-05,26.9765255 0.33179396,27.310955 1.22124362,27.310955 L3.3693443,27.310955 C4.25857248,27.310955 4.55490805,26.9765255 4.55490805,26.0872973 L4.55490805,11.4873443 C4.55490805,11.3024114 4.59300201,11.1526933 4.85124362,11.0412906 C5.85209597,10.7095188 6.77786779,10.5600221 8.00019664,10.5600221 C10.5183846,10.5600221 11.8523376,11.8572101 11.8523376,14.3776128 L11.8523376,26.0872973 C11.8523376,26.9765255 12.1484517,27.310955 13.074445,27.310955 L15.186002,27.310955 C16.0752302,27.310955 16.3715658,26.9765255 16.3715658,26.0872973 L16.3715658,14.1926799 C16.3715658,13.1174114 16.2601631,12.0800154 15.9638275,11.2643174 C16.8530557,10.9312168 18.1867872,10.5600221 19.7422168,10.5600221 C22.2984987,10.5600221 23.5573711,11.8572101 23.5573711,14.3776128 L23.5573711,26.0872973 C23.5573711,26.9765255 23.8904718,27.310955 24.7797,27.310955 L26.9280221,27.310955 C27.8540154,27.310955 28.1135859,26.9765255 28.1135859,26.0872973 L28.1135859,14.1926799 C28.1135859,9.2630557 25.7424584,6.41043826 20.4084181,6.41043826 C17.0379886,6.41043826 14.8896664,7.1501698 13.5191698,7.7074047" class="black_part" id="Fill-6" fill="#1D1D1D"></path>
                <path d="M127.419954,14.2295336 L127.419954,20.047943 C127.419954,22.4192919 125.789887,23.7895671 122.900726,23.7895671 C120.048109,23.7895671 118.419149,22.4192919 118.419149,20.047943 L118.419149,14.2295336 C118.419149,11.8570772 120.048109,10.5233456 122.900726,10.5233456 C125.789887,10.5233456 127.419954,11.8570772 127.419954,14.2295336 L127.419954,14.2295336 Z M113.862934,14.2295336 L113.862934,20.047943 C113.862934,24.9018221 117.085196,27.9037148 122.900726,27.9037148 C128.790451,27.9037148 131.938075,24.9018221 131.938075,20.047943 L131.938075,14.2295336 C131.938075,9.3743255 128.790451,6.41030537 122.900726,6.41030537 C117.085196,6.41030537 113.862934,9.3743255 113.862934,14.2295336 L113.862934,14.2295336 Z M109.973142,6.41030537 C106.454323,6.48383557 104.121068,7.03996309 102.675713,7.55799664 C101.416619,8.07735906 101.158377,8.55862752 101.158377,9.81905034 L101.158377,26.0873859 C101.158377,26.9766141 101.453384,27.3108221 102.342612,27.3108221 L104.529028,27.3108221 C105.416706,27.3108221 105.676498,26.9766141 105.676498,26.0873859 L105.676498,11.4872114 C105.676498,11.3022785 105.713263,11.1160168 106.084458,11.0411577 C107.08376,10.7093859 108.269323,10.5601107 109.788209,10.5601107 L111.233344,10.5601107 C112.121243,10.5601107 112.4178,10.2267886 112.4178,9.3375604 L112.4178,7.63263423 C112.4178,6.66876846 112.121243,6.41030537 111.233344,6.41030537 L109.973142,6.41030537 Z" class="black_part" id="Fill-8" fill="#1D1D1D"></path>
            </g>
        </g>
    </g>
</svg>