<?xml version="1.0" encoding="UTF-8"?>
<svg width="18px" height="15px" viewBox="0 0 18 15" version="1.1" xmlns="http://www.w3.org/2000/svg" xmlns:xlink="http://www.w3.org/1999/xlink">
    <!-- Generator: Sketch 41.2 (35397) - http://www.bohemiancoding.com/sketch -->
    <title>social-tweet</title>
    <desc>Created with Sketch.</desc>
    <defs></defs>
    <g id="Website" stroke="none" stroke-width="1" fill="none" fill-rule="evenodd">
        <g id="Home-Bahasa" transform="translate(-790.000000, -4598.000000)" fill="#FFFFFF">
            <g id="Footer" transform="translate(582.000000, 4503.000000)">
                <g id="Group-21" transform="translate(154.000000, 87.000000)">
                    <g id="002-twitter-logo-button" transform="translate(48.000000, 0.000000)">
                        <path d="M22.0575744,11.7620736 C22.0643328,11.913216 22.0680192,12.0655872 22.0680192,12.2179584 C22.0680192,16.8572928 18.5376768,22.2050304 12.0784896,22.2050304 C10.0958208,22.2050304 8.2501632,21.6256512 6.69696,20.6290944 C6.9715968,20.6616576 7.2511488,20.6782464 7.5343872,20.6782464 C9.1797504,20.6782464 10.6930176,20.1166848 11.894784,19.175424 C10.358784,19.1471616 9.0617856,18.1321728 8.6151168,16.7368704 C8.828928,16.7774208 9.0494976,16.8001536 9.2749824,16.8001536 C9.5950848,16.8001536 9.9059712,16.7583744 10.2002688,16.677888 C8.5942272,16.3559424 7.3844736,14.9372928 7.3844736,13.2354048 C7.3844736,13.2206592 7.3844736,13.2052992 7.385088,13.191168 C7.858176,13.4535168 8.3994624,13.612032 8.9745408,13.6298496 C8.03328,13.0013184 7.4133504,11.9261184 7.4133504,10.7083776 C7.4133504,10.0644864 7.5859968,9.4611456 7.8882816,8.942592 C9.6190464,11.0671872 12.2068992,12.4643328 15.1240704,12.6117888 C15.0638592,12.3543552 15.0337536,12.0870912 15.0337536,11.8112256 C15.0337536,9.8727936 16.6053888,8.300544 18.5438208,8.300544 C19.5538944,8.300544 20.4650496,8.7269376 21.1064832,9.4089216 C21.9070464,9.2516352 22.6566144,8.9604096 23.3367552,8.5567488 C23.0725632,9.3769728 22.51776,10.0644864 21.7909248,10.4994816 C22.5017856,10.4146944 23.1800832,10.226688 23.8073856,9.947136 C23.3392128,10.6500096 22.7438592,11.2687104 22.0575744,11.7620736 Z" id="social-tweet"></path>
                    </g>
                </g>
            </g>
        </g>
    </g>
</svg>