<?xml version="1.0" encoding="UTF-8"?>
<svg width="18px" height="18px" viewBox="0 0 18 18" version="1.1" xmlns="http://www.w3.org/2000/svg" xmlns:xlink="http://www.w3.org/1999/xlink">
    <!-- Generator: Sketch 41.2 (35397) - http://www.bohemiancoding.com/sketch -->
    <title>social-insta</title>
    <desc>Created with Sketch.</desc>
    <defs></defs>
    <g id="Website" stroke="none" stroke-width="1" fill="none" fill-rule="evenodd">
        <g id="Home-Bahasa" transform="translate(-839.000000, -4597.000000)" fill="#FFFFFF">
            <g id="Footer" transform="translate(582.000000, 4503.000000)">
                <g id="Group-21" transform="translate(154.000000, 87.000000)">
                    <g id="Group-26" transform="translate(96.000000, 0.000000)">
                        <g id="social-insta" transform="translate(7.040000, 7.040000)">
                            <path d="M12.9030325,0 L4.91788047,0 C2.20616282,0 0,2.20626824 0,4.91798588 L0,12.9031379 C0,15.6149609 2.20616282,17.8211238 4.91788047,17.8211238 L12.9030325,17.8211238 C15.6149609,17.8211238 17.8211238,15.6148555 17.8211238,12.9031379 L17.8211238,4.91798588 C17.8212292,2.20626824 15.6149609,0 12.9030325,0 Z M16.2400527,12.9031379 C16.2400527,14.7431002 14.7431002,16.2399473 12.9031379,16.2399473 L4.91788047,16.2399473 C3.07802353,16.2400527 1.58117647,14.7431002 1.58117647,12.9031379 L1.58117647,4.91798588 C1.58117647,3.07812894 3.07802353,1.58117647 4.91788047,1.58117647 L12.9030325,1.58117647 C14.7429948,1.58117647 16.2399473,3.07812894 16.2399473,4.91798588 L16.2399473,12.9031379 L16.2400527,12.9031379 Z" id="Shape"></path>
                            <path d="M8.91056188,4.31872 C6.37846588,4.31872 4.31850918,6.37867671 4.31850918,8.91077271 C4.31850918,11.4427633 6.37846588,13.5026146 8.91056188,13.5026146 C11.4426579,13.5026146 13.5026146,11.4427633 13.5026146,8.91077271 C13.5026146,6.37867671 11.4426579,4.31872 8.91056188,4.31872 Z M8.91056188,11.9213327 C7.250432,11.9213327 5.89968565,10.5707972 5.89968565,8.91066729 C5.89968565,7.250432 7.25032659,5.89979106 8.91056188,5.89979106 C10.5707972,5.89979106 11.9214381,7.250432 11.9214381,8.91066729 C11.9214381,10.5707972 10.5706918,11.9213327 8.91056188,11.9213327 Z" id="Shape"></path>
                            <path d="M13.6952019,2.97798776 C13.3905619,2.97798776 13.0912979,3.10131953 12.8761525,3.31741365 C12.6599529,3.53245365 12.5356725,3.83182306 12.5356725,4.13751718 C12.5356725,4.44226259 12.6600584,4.74152659 12.8761525,4.95762071 C13.0911925,5.17266071 13.3905619,5.29704659 13.6952019,5.29704659 C14.000896,5.29704659 14.2992113,5.17266071 14.5153054,4.95762071 C14.7313995,4.74152659 14.8547313,4.44215718 14.8547313,4.13751718 C14.8547313,3.83182306 14.7313995,3.53245365 14.5153054,3.31741365 C14.3002654,3.10131953 14.000896,2.97798776 13.6952019,2.97798776 Z" id="Shape"></path>
                        </g>
                    </g>
                </g>
            </g>
        </g>
    </g>
</svg>