<?xml version="1.0" encoding="UTF-8"?>
<svg width="16px" height="16px" viewBox="0 0 16 16" version="1.1" xmlns="http://www.w3.org/2000/svg" xmlns:xlink="http://www.w3.org/1999/xlink">
    <!-- Generator: Sketch 41.2 (35397) - http://www.bohemiancoding.com/sketch -->
    <title>social-linkedin</title>
    <desc>Created with Sketch.</desc>
    <defs></defs>
    <g id="Website" stroke="none" stroke-width="1" fill="none" fill-rule="evenodd">
        <g id="Home-Bahasa" transform="translate(-913.000000, -4577.000000)" fill="#FFFFFF">
            <g id="Footer" transform="translate(582.000000, 4503.000000)">
                <g id="Group-21" transform="translate(154.000000, 74.000000)">
                    <g id="Group-26" transform="translate(96.000000, 0.000000)">
                        <path d="M84.6354173,5.19890972 L84.6354173,16 L81.1979167,16 L81.1979167,5.19890972 L84.6354173,5.19890972 Z M84.8541673,1.86375825 C84.8611113,2.39418784 84.6857659,2.83741734 84.3281243,3.19345896 C83.9704849,3.54950057 83.5000033,3.72751894 82.9166667,3.72751894 L82.8958333,3.72751894 C82.3263861,3.72751894 81.8680574,3.54950057 81.5208334,3.19345896 C81.1736094,2.83741734 81,2.39418784 81,1.86375825 C81,1.326063 81.1788177,0.881017082 81.5364583,0.528608296 C81.894099,0.17619951 82.3611082,-3.77475828e-15 82.9374999,-3.77475828e-15 C83.5138913,-3.77475828e-15 83.9756929,0.17619951 84.3229163,0.528608296 C84.6701396,0.881017082 84.8472233,1.326063 84.8541673,1.86375825 Z M97,9.8092646 L97,16 L93.5729167,16 L93.5729167,10.2234339 C93.5729167,9.4604862 93.4322937,8.86285416 93.1510407,8.43051826 C92.8697901,7.99817992 92.4305588,7.78201686 91.8333328,7.78201686 C91.3958305,7.78201686 91.0295158,7.90735433 90.7343748,8.15803659 C90.4392338,8.40872129 90.2187501,8.71934278 90.0729168,9.08991815 C89.9965281,9.30790252 89.9583338,9.60217872 89.9583338,9.97275165 L89.9583338,16 L86.5312506,16 C86.5451386,13.1008026 86.5520826,10.7502356 86.5520826,8.94822807 C86.5520826,7.14622059 86.5486106,6.07084473 86.5416666,5.72207122 L86.5312506,5.19890972 L89.9583338,5.19890972 L89.9583338,6.76839177 L89.9374995,6.76839177 C90.0763888,6.53587365 90.2187501,6.33242548 90.3645835,6.1580375 C90.5104168,5.98364952 90.7065965,5.79473267 90.9531248,5.59127962 C91.1996531,5.38782658 91.5017334,5.22979121 91.8593751,5.1171662 C92.2170144,5.00454119 92.6145818,4.94822746 93.0520841,4.94822746 C94.2395897,4.94822746 95.194441,5.36057548 95.916666,6.18528616 C96.638891,7.0099944 97,8.21797582 97,9.8092646 Z" id="social-linkedin"></path>
                    </g>
                </g>
            </g>
        </g>
    </g>
</svg>