<?xml version="1.0" encoding="UTF-8"?>
<svg width="14px" height="14px" viewBox="0 0 14 14" version="1.1" xmlns="http://www.w3.org/2000/svg" xmlns:xlink="http://www.w3.org/1999/xlink">
    <!-- Generator: Sketch 41.2 (35397) - http://www.bohemiancoding.com/sketch -->
    <title>social-phone</title>
    <desc>Created with Sketch.</desc>
    <defs></defs>
    <g id="Website" stroke="none" stroke-width="1" fill="none" fill-rule="evenodd">
        <g id="Home-Bahasa" transform="translate(-648.000000, -4645.000000)" fill="#3BC2DC">
            <g id="Footer" transform="translate(582.000000, 4503.000000)">
                <g id="Group-25" transform="translate(66.000000, 137.000000)">
                    <path d="M13.9958824,16.0435294 C14.0255536,16.2708478 13.9562803,16.4684948 13.7883529,16.6364706 L11.8168235,18.5931038 C11.7278824,18.6919273 11.6117889,18.776 11.4684948,18.8451038 C11.3252007,18.9143045 11.1844014,18.9587751 11.0460969,18.9785156 C11.0362145,18.9785156 11.0064948,18.9810588 10.9570588,18.986 C10.9077197,18.990917 10.8434844,18.993436 10.7644256,18.993436 C10.5766125,18.993436 10.2727059,18.9613183 9.85270588,18.8970588 C9.43270588,18.8327993 8.91884775,18.6746574 8.31113149,18.4227059 C7.7032699,18.1707059 7.014,17.7926574 6.24320069,17.2887059 C5.47240138,16.7847785 4.65214187,16.0929654 3.78249481,15.2134118 C3.0907301,14.5315294 2.51755363,13.8792941 2.0629654,13.2567301 C1.60837716,12.6341176 1.2427301,12.0584706 0.966024221,11.5297647 C0.689294118,11.0010588 0.481764706,10.5217647 0.343411765,10.0918824 C0.205058824,9.662 0.111176471,9.29141176 0.0617647059,8.98011765 C0.0123529412,8.66882353 -0.00741176471,8.42423529 0.00247058824,8.24635294 C0.0123529412,8.06847059 0.0172941176,7.96964706 0.0172941176,7.94988235 C0.0370588235,7.81152941 0.0815294118,7.67070588 0.150705882,7.52741176 C0.219882353,7.38411765 0.303882353,7.268 0.402705882,7.17905882 L2.37423529,5.20752941 C2.51258824,5.06917647 2.67070588,5 2.84858824,5 C2.97705882,5 3.09070588,5.03705882 3.18952941,5.11117647 C3.28835294,5.18529412 3.37235294,5.27670588 3.44152941,5.38541176 L5.02764706,8.39458824 C5.11658824,8.55270588 5.14129412,8.72564706 5.10176471,8.91341176 C5.06223529,9.10117647 4.97823529,9.25929412 4.84976471,9.38776471 L4.12341176,10.1141176 C4.10364706,10.1338824 4.08635294,10.166 4.07152941,10.2104706 C4.05670588,10.2549412 4.04929412,10.292 4.04929412,10.3216471 C4.08882353,10.5291765 4.17776471,10.7663529 4.31611765,11.0331765 C4.43470588,11.2703529 4.61752941,11.5594118 4.86458824,11.9003529 C5.11164706,12.2412941 5.46247059,12.6340934 5.91705882,13.0787993 C6.36176471,13.533436 6.75705882,13.8866817 7.10294118,14.1387301 C7.44875087,14.3906332 7.73790657,14.576 7.97014187,14.6945882 C8.20237716,14.8131765 8.38025952,14.8848235 8.50376471,14.9094567 L8.68901038,14.9465398 C8.70877509,14.9465398 8.7409654,14.9391038 8.78538754,14.9243045 C8.82985813,14.9094567 8.86197578,14.8921869 8.88176471,14.8723979 L9.72668166,14.0126332 C9.9046609,13.8545398 10.1120934,13.775481 10.3492941,13.775481 C10.5173426,13.775481 10.6506817,13.8051038 10.7495052,13.8644221 L10.7643045,13.8644221 L13.6252215,15.5543045 C13.8328235,15.682872 13.9563287,15.8458824 13.9958824,16.0435294 Z" id="social-phone"></path>
                </g>
            </g>
        </g>
    </g>
</svg>