<?xml version="1.0" encoding="UTF-8"?>
<svg width="14px" height="14px" viewBox="0 0 14 14" version="1.1" xmlns="http://www.w3.org/2000/svg" xmlns:xlink="http://www.w3.org/1999/xlink">
    <!-- Generator: Sketch 41.2 (35397) - http://www.bohemiancoding.com/sketch -->
    <title>social-mail</title>
    <desc>Created with Sketch.</desc>
    <defs></defs>
    <g id="Website" stroke="none" stroke-width="1" fill="none" fill-rule="evenodd">
        <g id="Home-Bahasa" transform="translate(-804.000000, -4645.000000)" fill="#3BC2DC">
            <g id="Footer" transform="translate(582.000000, 4503.000000)">
                <g id="Group-25" transform="translate(66.000000, 137.000000)">
                    <path d="M167.941344,6.76211813 C166.666802,5.58737271 165.081466,5 163.188187,5 C161.197963,5 159.501426,5.66720978 158.101426,7.00448065 C156.701426,8.34175153 156,10.0040733 156,11.9942974 C156,13.901833 156.66721,15.5413442 157.998778,16.9156823 C159.336049,18.2900204 161.132383,18.9771894 163.393483,18.9771894 C164.756415,18.9771894 166.093686,18.6977597 167.405295,18.1360489 C167.832994,17.9535642 168.041141,17.4631365 167.86721,17.0325866 L167.86721,17.0325866 C167.687576,16.58778 167.180041,16.3824847 166.738086,16.5706721 C165.597556,17.0610998 164.479837,17.3063136 163.390631,17.3063136 C161.657026,17.3063136 160.314053,16.7788187 159.361711,15.7209776 C158.41222,14.6659878 157.936049,13.4256619 157.936049,12.0028513 C157.936049,10.4574338 158.446436,9.16863544 159.464358,8.13360489 C160.47943,7.10142566 161.731161,6.58248473 163.213849,6.58248473 C164.579633,6.58248473 165.73442,7.00733198 166.675356,7.85702648 C167.616293,8.70672098 168.086762,9.77596741 168.086762,11.0647658 C168.086762,11.9458248 167.870061,12.6814664 167.439511,13.2659878 C167.008961,13.8533605 166.561303,14.1441955 166.096538,14.1441955 C165.845621,14.1441955 165.720163,14.0101833 165.720163,13.7393075 C165.720163,13.5197556 165.737271,13.2631365 165.768635,12.9665988 L166.298982,8.62973523 L164.474134,8.62973523 L164.35723,9.05458248 C163.892464,8.67535642 163.382077,8.48431772 162.828921,8.48431772 C161.950713,8.48431772 161.197963,8.83503055 160.573523,9.53360489 C159.946232,10.2321792 159.635438,11.1331976 159.635438,12.2338086 C159.635438,13.3087576 159.912016,14.1784114 160.468024,14.8370672 C161.024033,15.4985743 161.691242,15.8264766 162.472505,15.8264766 C163.171079,15.8264766 163.767006,15.5327902 164.263136,14.9482688 C164.63666,15.5099796 165.186965,15.7894094 165.914053,15.7894094 C166.983299,15.7894094 167.907128,15.3246436 168.68554,14.3922607 C169.463951,13.4627291 169.854582,12.3393075 169.854582,11.0248473 C169.854582,9.35967413 169.218737,7.93686354 167.941344,6.76211813 Z M163.738493,13.3230143 C163.416293,13.7564155 163.031365,13.9759674 162.583707,13.9759674 C162.278615,13.9759674 162.033401,13.8162933 161.848065,13.496945 C161.659878,13.1775967 161.565784,12.7812627 161.565784,12.3050916 C161.565784,11.7177189 161.696945,11.2443992 161.959267,10.8851324 C162.221589,10.5258656 162.54664,10.3433809 162.93442,10.3433809 C163.270876,10.3433809 163.570265,10.4773931 163.832587,10.7482688 C164.094908,11.0191446 164.226069,11.3784114 164.226069,11.8289206 C164.223218,12.3906314 164.060692,12.8867617 163.738493,13.3230143 Z" id="social-mail"></path>
                </g>
            </g>
        </g>
    </g>
</svg>