<?xml version="1.0" encoding="UTF-8"?>
<svg width="24px" height="23px" viewBox="0 0 24 23" version="1.1" xmlns="http://www.w3.org/2000/svg" xmlns:xlink="http://www.w3.org/1999/xlink">
    <!-- Generator: Sketch 47.1 (45422) - http://www.bohemiancoding.com/sketch -->
    <title>cart_active</title>
    <desc>Created with Sketch.</desc>
    <defs></defs>
    <g id="Pages" stroke="none" stroke-width="1" fill="none" fill-rule="evenodd">
        <g id="Giỏ-hàng" transform="translate(-159.000000, -182.000000)" fill-rule="nonzero" fill="#2D9DD5">
            <g id="Group-6" transform="translate(159.000000, 179.000000)">
                <path d="M23.7780585,6.30984795 C23.6373333,6.13918129 23.4262456,6.04037427 23.2046784,6.04037427 L5.61104094,6.04037427 L4.95981287,3.60163743 C4.87298246,3.27377778 4.5765614,3.04622222 4.23672515,3.04622222 L0.748538012,3.04622222 C0.335345029,3.04622222 0,3.38156725 0,3.79476023 C0,4.20795322 0.335345029,4.54329825 0.748538012,4.54329825 L3.66184795,4.54329825 L7.51083041,18.9586433 C7.59766082,19.2865029 7.89408187,19.5140585 8.23391813,19.5140585 L20.2105263,19.5140585 C20.6237193,19.5140585 20.9590643,19.1787135 20.9590643,18.7655205 C20.9590643,18.3523275 20.6237193,18.0169825 20.2105263,18.0169825 L8.80879532,18.0169825 L8.37015205,16.373193 L21.740538,15.7713684 C22.0893567,15.7549006 22.3812865,15.5003977 22.4426667,15.1575673 L23.9397427,6.92364912 C23.9801637,6.70507602 23.9202807,6.48051462 23.7780585,6.30984795 Z M21.0788304,14.3027368 L7.9734269,14.8925848 L6.01076023,7.53745029 L22.3079298,7.53745029 L21.0788304,14.3027368 Z M9.73099415,21.0111345 C8.49291228,21.0111345 7.48538012,22.0186667 7.48538012,23.2567485 C7.48538012,24.4948304 8.49291228,25.5023626 9.73099415,25.5023626 C10.969076,25.5023626 11.9766082,24.4948304 11.9766082,23.2567485 C11.9766082,22.0186667 10.969076,21.0111345 9.73099415,21.0111345 Z M9.73099415,24.0052865 C9.31780117,24.0052865 8.98245614,23.6699415 8.98245614,23.2567485 C8.98245614,22.8435556 9.31780117,22.5082105 9.73099415,22.5082105 C10.1441871,22.5082105 10.4795322,22.8435556 10.4795322,23.2567485 C10.4795322,23.6699415 10.1441871,24.0052865 9.73099415,24.0052865 Z M18.7134503,21.0111345 C17.4753684,21.0111345 16.4678363,22.0186667 16.4678363,23.2567485 C16.4678363,24.4948304 17.4753684,25.5023626 18.7134503,25.5023626 C19.9515322,25.5023626 20.9590643,24.4948304 20.9590643,23.2567485 C20.9590643,22.0186667 19.9515322,21.0111345 18.7134503,21.0111345 Z M18.7134503,24.0052865 C18.3002573,24.0052865 17.9649123,23.6699415 17.9649123,23.2567485 C17.9649123,22.8435556 18.3002573,22.5082105 18.7134503,22.5082105 C19.1266433,22.5082105 19.4619883,22.8435556 19.4619883,23.2567485 C19.4619883,23.6699415 19.1266433,24.0052865 18.7134503,24.0052865 Z M15.7192982,10.5316023 L12.7251462,10.5316023 C12.3119532,10.5316023 11.9766082,10.8669474 11.9766082,11.2801404 C11.9766082,11.6933333 12.3119532,12.0286784 12.7251462,12.0286784 L15.7192982,12.0286784 C16.1324912,12.0286784 16.4678363,11.6933333 16.4678363,11.2801404 C16.4678363,10.8669474 16.1324912,10.5316023 15.7192982,10.5316023 Z" id="cart_active"></path>
            </g>
        </g>
    </g>
</svg>