<?xml version="1.0" encoding="UTF-8"?>
<svg width="23px" height="24px" viewBox="0 0 23 24" version="1.1" xmlns="http://www.w3.org/2000/svg" xmlns:xlink="http://www.w3.org/1999/xlink">
    <!-- Generator: Sketch 47.1 (45422) - http://www.bohemiancoding.com/sketch -->
    <title>checkedout_inactive</title>
    <desc>Created with Sketch.</desc>
    <defs></defs>
    <g id="Pages" stroke="none" stroke-width="1" fill="none" fill-rule="evenodd">
        <g id="Giỏ-hàng" transform="translate(-1086.000000, -181.000000)" fill-rule="nonzero" fill="#B6C3C9">
            <g id="Group-8" transform="translate(1086.000000, 179.000000)">
                <path d="M18.7141988,2 L3.7434386,2 C1.68046784,2 0.000748538012,3.6797193 0.000748538012,5.74269006 L0.000748538012,10.2339181 C0.000748538012,10.6471111 0.336093567,10.9824561 0.74928655,10.9824561 L5.98905263,10.9824561 L5.98905263,25.1897076 L5.98905263,25.1912047 L5.98905263,25.2046784 C5.98905263,25.2525848 6.00701754,25.2945029 6.016,25.3394152 C6.02498246,25.3873216 6.02348538,25.4352281 6.04294737,25.4831345 C6.04294737,25.4846316 6.04594152,25.4861287 6.04594152,25.4876257 C6.09684211,25.6133801 6.18666667,25.7121871 6.29295906,25.7915322 C6.31840936,25.8109942 6.3408655,25.8259649 6.36781287,25.8409357 C6.47859649,25.9053099 6.59985965,25.9532164 6.73759064,25.9532164 C6.83040936,25.9532164 6.92472515,25.9367485 7.01604678,25.8993216 L7.02952047,25.8933333 C7.02952047,25.8933333 7.02952047,25.8933333 7.03101754,25.8933333 L10.4802807,24.5145263 L13.9445146,25.9008187 C14.1226667,25.9726784 14.3217778,25.9726784 14.4999298,25.9008187 L17.9656608,24.5145263 L21.4298947,25.9008187 C21.6604444,25.9936374 21.9224327,25.9636959 22.1275322,25.8259649 C22.3326316,25.6852398 22.4568889,25.453193 22.4568889,25.2046784 L22.4568889,5.74269006 C22.4568889,3.6797193 20.7771696,2 18.7141988,2 Z M5.98905263,9.48538012 L1.49782456,9.48538012 L1.49782456,5.74269006 C1.49782456,4.50460819 2.50535673,3.49707602 3.7434386,3.49707602 C4.98152047,3.49707602 5.98905263,4.50460819 5.98905263,5.74269006 L5.98905263,9.48538012 Z M20.9598129,24.0998363 L18.244117,23.0129591 C18.0659649,22.9410994 17.8668538,22.9410994 17.6887018,23.0129591 L14.2229708,24.3977544 L10.7587368,23.011462 C10.5805848,22.9396023 10.3814737,22.9396023 10.2033216,23.011462 L7.48612865,24.0983392 L7.48612865,5.74269006 C7.48612865,4.89684211 7.19419883,4.12435088 6.71812865,3.49707602 L18.7141988,3.49707602 C19.9522807,3.49707602 20.9598129,4.50460819 20.9598129,5.74269006 L20.9598129,24.0998363 Z M18.7141988,6.49122807 L9.73174269,6.49122807 C9.31854971,6.49122807 8.98320468,6.8265731 8.98320468,7.23976608 C8.98320468,7.65295906 9.31854971,7.98830409 9.73174269,7.98830409 L18.7141988,7.98830409 C19.1273918,7.98830409 19.4627368,7.65295906 19.4627368,7.23976608 C19.4627368,6.8265731 19.1273918,6.49122807 18.7141988,6.49122807 Z M18.7141988,12.4795322 L9.73174269,12.4795322 C9.31854971,12.4795322 8.98320468,12.8148772 8.98320468,13.2280702 C8.98320468,13.6412632 9.31854971,13.9766082 9.73174269,13.9766082 L18.7141988,13.9766082 C19.1273918,13.9766082 19.4627368,13.6412632 19.4627368,13.2280702 C19.4627368,12.8148772 19.1273918,12.4795322 18.7141988,12.4795322 Z M18.7141988,15.4736842 L12.7258947,15.4736842 C12.3127018,15.4736842 11.9773567,15.8090292 11.9773567,16.2222222 C11.9773567,16.6354152 12.3127018,16.9707602 12.7258947,16.9707602 L18.7141988,16.9707602 C19.1273918,16.9707602 19.4627368,16.6354152 19.4627368,16.2222222 C19.4627368,15.8090292 19.1273918,15.4736842 18.7141988,15.4736842 Z M18.7141988,18.4678363 L12.7258947,18.4678363 C12.3127018,18.4678363 11.9773567,18.8031813 11.9773567,19.2163743 C11.9773567,19.6295673 12.3127018,19.9649123 12.7258947,19.9649123 L18.7141988,19.9649123 C19.1273918,19.9649123 19.4627368,19.6295673 19.4627368,19.2163743 C19.4627368,18.8031813 19.1273918,18.4678363 18.7141988,18.4678363 Z" id="checkedout_inactive"></path>
            </g>
        </g>
    </g>
</svg>