<?xml version="1.0" encoding="UTF-8"?>
<svg width="24px" height="18px" viewBox="0 0 24 18" version="1.1" xmlns="http://www.w3.org/2000/svg" xmlns:xlink="http://www.w3.org/1999/xlink">
    <!-- Generator: Sketch 47.1 (45422) - http://www.bohemiancoding.com/sketch -->
    <title>checkout_active</title>
    <desc>Created with Sketch.</desc>
    <defs></defs>
    <g id="Pages" stroke="none" stroke-width="1" fill="none" fill-rule="evenodd">
        <g id="Giỏ-hàng" transform="translate(-653.000000, -184.000000)" fill-rule="nonzero" fill="#2D9DD5">
            <g id="Group-7" transform="translate(653.000000, 179.000000)">
                <path d="M22.4561404,5.74269006 L1.49707602,5.74269006 C0.672187135,5.74269006 0,6.41487719 0,7.23976608 L0,20.7134503 C0,21.5383392 0.672187135,22.2105263 1.49707602,22.2105263 L22.4561404,22.2105263 C23.2810292,22.2105263 23.9532164,21.5383392 23.9532164,20.7134503 L23.9532164,7.23976608 C23.9532164,6.41487719 23.2810292,5.74269006 22.4561404,5.74269006 Z M1.49707602,7.23976608 L22.4561404,7.23976608 L22.4561404,10.2339181 L1.49707602,10.2339181 L1.49707602,7.23976608 Z M22.4561404,21.4619883 L22.4561404,20.7134503 L1.49707602,20.7134503 L1.49707602,11.7309942 L22.4561404,11.7309942 L22.4561404,20.7134503 C22.4561404,20.7134503 22.4561404,20.7134503 22.4576374,20.7134503 L22.4561404,21.4619883 Z M8.23391813,16.2222222 L3.74269006,16.2222222 C3.32949708,16.2222222 2.99415205,16.5575673 2.99415205,16.9707602 C2.99415205,17.3839532 3.32949708,17.7192982 3.74269006,17.7192982 L8.23391813,17.7192982 C8.64711111,17.7192982 8.98245614,17.3839532 8.98245614,16.9707602 C8.98245614,16.5575673 8.64711111,16.2222222 8.23391813,16.2222222 Z M17.9649123,13.2280702 C17.4184795,13.2280702 16.9124678,13.3852632 16.4708304,13.6427602 C16.0202105,13.3762807 15.5052164,13.2280702 14.9707602,13.2280702 C13.3194854,13.2280702 11.9766082,14.5709474 11.9766082,16.2222222 C11.9766082,17.8734971 13.3194854,19.2163743 14.9707602,19.2163743 C15.5052164,19.2163743 16.0202105,19.0681637 16.4708304,18.8016842 C16.9124678,19.0591813 17.4184795,19.2163743 17.9649123,19.2163743 C19.6161871,19.2163743 20.9590643,17.8734971 20.9590643,16.2222222 C20.9590643,14.5709474 19.6161871,13.2280702 17.9649123,13.2280702 Z M15.3495205,17.6489357 C15.2252632,17.6818713 15.1025029,17.7192982 14.9707602,17.7192982 C14.1458713,17.7192982 13.4736842,17.0471111 13.4736842,16.2222222 C13.4736842,15.3973333 14.1458713,14.7251462 14.9707602,14.7251462 C15.1025029,14.7251462 15.2252632,14.7625731 15.3495205,14.7955088 C15.1159766,15.2221754 14.9707602,15.7027368 14.9707602,16.2222222 C14.9707602,16.7417076 15.1159766,17.222269 15.3495205,17.6489357 Z M17.9649123,17.7192982 C17.1400234,17.7192982 16.4678363,17.0471111 16.4678363,16.2222222 C16.4678363,15.3973333 17.1400234,14.7251462 17.9649123,14.7251462 C18.7898012,14.7251462 19.4619883,15.3973333 19.4619883,16.2222222 C19.4619883,17.0471111 18.7898012,17.7192982 17.9649123,17.7192982 Z" id="checkout_active"></path>
            </g>
        </g>
    </g>
</svg>