<?xml version="1.0" encoding="UTF-8"?>
<svg width="28px" height="28px" viewBox="0 0 28 28" version="1.1" xmlns="http://www.w3.org/2000/svg" xmlns:xlink="http://www.w3.org/1999/xlink">
    <!-- Generator: Sketch 46.1 (44463) - http://www.bohemiancoding.com/sketch -->
    <title>ct_benefit_allday</title>
    <desc>Created with Sketch.</desc>
    <defs></defs>
    <g id="Dịch-vụ" stroke="none" stroke-width="1" fill="none" fill-rule="evenodd">
        <g id="Dịch-vụ---Hosting-Typing" transform="translate(-853.000000, -617.000000)" fill-rule="nonzero" fill="#7A8E97">
            <g id="Group-3" transform="translate(135.000000, 504.000000)">
                <g id="Group" transform="translate(600.000000, 113.000000)">
                    <path d="M145.900974,12.4728416 C145.900974,5.59530024 140.305674,0 133.428199,0 C128.321806,0 123.923092,3.08489835 121.995726,7.48857683 C121.921059,7.48036879 121.846194,7.47480851 121.77113,7.47480851 C120.659139,7.47480851 119.807754,8.36994799 119.056652,9.15970686 C118.925853,9.29719149 118.802336,9.42713002 118.681069,9.54839716 C117.836567,10.3925674 117.839877,12.2420898 118.690005,14.4958582 C119.626449,16.9784586 121.475905,19.6796974 123.897806,22.1017967 C128.215168,26.4187612 132.316605,27.950818 134.517021,27.9510827 C134.51722,27.9510827 134.517418,27.9510827 134.517617,27.9510827 C135.368473,27.9510827 136.036898,27.7324444 136.450676,27.3187329 C136.572076,27.1972671 136.70208,27.073617 136.839764,26.9426856 C137.651168,26.1709976 138.570799,25.2963783 138.522875,24.144539 C138.519035,24.0527943 138.508378,23.9614468 138.492293,23.8702979 C142.853343,21.9248605 145.900974,17.5483215 145.900974,12.4728416 Z M137.167556,21.9153948 C137.116851,21.872435 137.065352,21.829409 137.011735,21.7862506 C135.836993,20.8421939 134.922657,20.4024681 134.134222,20.4024681 C133.17408,20.4024681 132.54365,21.0422317 131.876217,21.7195934 C131.805522,21.7913475 131.733636,21.8642931 131.660028,21.9378345 C131.568681,22.0292482 131.453371,22.0718771 131.297352,22.0718771 C131.297286,22.0718771 131.297286,22.0718771 131.29722,22.0718771 C130.737683,22.0718771 129.537787,21.538818 126.999253,19.0000189 C125.850988,17.8516879 125.01079,16.8726809 124.501957,16.0902695 C124.179395,15.594279 123.693333,14.7072151 124.061371,14.3390449 C124.134648,14.2657683 124.207395,14.1941466 124.279017,14.1235839 C125.495527,12.9252104 126.546222,11.8902033 124.212293,8.98793381 C124.137825,8.89519622 124.063489,8.80834988 123.989286,8.72428369 C125.483811,4.97420331 129.151348,2.31678487 133.428199,2.31678487 C139.028265,2.31678487 143.584189,6.87277541 143.584189,12.4728416 C143.584189,16.7530686 140.922534,20.4231206 137.167556,21.9153948 Z M131.374931,13.0340331 C131.89687,12.4684066 132.277617,12.0029314 132.506648,11.6507801 C132.748255,11.2791678 132.87078,10.8675745 132.87078,10.4273853 C132.87078,9.77676596 132.651414,9.24708274 132.218638,8.85303073 C131.79043,8.46308274 131.199452,8.2654279 130.462052,8.2654279 C129.711943,8.2654279 129.104681,8.49571631 128.657144,8.95000473 C128.209012,9.4048227 127.990241,9.96747045 128.006922,10.6224586 L128.007518,10.6472151 L128.062392,10.8116407 L129.668785,10.8116407 L129.668785,10.646156 C129.668785,10.3314043 129.73948,10.0795366 129.879017,9.89750355 C130.010014,9.72659102 130.200719,9.64351773 130.462052,9.64351773 C130.695385,9.64351773 130.867953,9.71341844 130.989617,9.85719149 C131.118298,10.0092388 131.180851,10.2033191 131.180851,10.4506856 C131.180851,10.636227 131.120085,10.8440757 131.000208,11.0684728 C130.873314,11.3060426 130.653418,11.604974 130.350383,11.9526903 L128.113891,14.3505626 L128.113891,15.4701655 L133.070818,15.4701655 L133.070818,14.0920095 L130.403206,14.0920095 L131.374931,13.0340331 Z M138.103537,8.36299764 L136.478147,8.36299764 L133.589778,12.9776359 L133.665636,13.9994043 L136.418241,13.9994043 L136.418241,15.4700331 L138.10347,15.4700331 L138.10347,13.9994043 L138.871385,13.9994043 L138.871385,12.6213144 L138.10347,12.6213144 L138.10347,8.36299764 L138.103537,8.36299764 Z M135.32452,12.6213144 L136.418307,10.8843215 L136.418307,12.6213144 L135.32452,12.6213144 L135.32452,12.6213144 Z" id="ct_benefit_allday"></path>
                </g>
            </g>
        </g>
    </g>
</svg>