<?xml version="1.0" encoding="UTF-8"?>
<svg width="30px" height="26px" viewBox="0 0 30 26" version="1.1" xmlns="http://www.w3.org/2000/svg" xmlns:xlink="http://www.w3.org/1999/xlink">
    <!-- Generator: Sketch 47.1 (45422) - http://www.bohemiancoding.com/sketch -->
    <title>ct_benefit_roll</title>
    <desc>Created with Sketch.</desc>
    <defs></defs>
    <g id="Dịch-vụ" stroke="none" stroke-width="1" fill="none" fill-rule="evenodd">
        <g id="Dịch-vụ---Quản-trị-máy-chủ" transform="translate(-134.000000, -1259.000000)" fill-rule="nonzero" fill="#7A8E97">
            <path d="M151.142857,1259 C158.242879,1259 164,1264.75712 164,1271.85714 C164,1278.95717 158.242879,1284.71429 151.142857,1284.71429 C148.199978,1284.71429 145.492879,1283.71431 143.321429,1282.04288 L145.342879,1279.99283 C146.985714,1281.16424 148.978571,1281.85712 151.142857,1281.85712 C156.664263,1281.85712 161.142835,1277.37855 161.142835,1271.85714 C161.142835,1266.33574 156.664263,1261.85717 151.142857,1261.85717 C145.621451,1261.85717 141.142879,1266.33574 141.142879,1271.85714 L145.428594,1271.85714 L139.714263,1277.57141 L134,1271.85714 L138.285714,1271.85714 C138.285714,1264.75712 144.042835,1259 151.142857,1259 Z M154.000022,1271.85714 C154.000022,1273.43569 152.721473,1274.71431 151.142857,1274.71431 C149.564241,1274.71431 148.285692,1273.43569 148.285692,1271.85714 C148.285692,1270.27859 149.564241,1268.99998 151.142857,1268.99998 C152.721473,1268.99998 154.000022,1270.27859 154.000022,1271.85714 Z" id="ct_benefit_roll"></path>
        </g>
    </g>
</svg>