<?xml version="1.0" encoding="UTF-8"?>
<svg width="26px" height="26px" viewBox="0 0 26 26" version="1.1" xmlns="http://www.w3.org/2000/svg" xmlns:xlink="http://www.w3.org/1999/xlink">
    <!-- Generator: Sketch 46.1 (44463) - http://www.bohemiancoding.com/sketch -->
    <title>ct_benefit_tool</title>
    <desc>Created with Sketch.</desc>
    <defs></defs>
    <g id="Dịch-vụ" stroke="none" stroke-width="1" fill="none" fill-rule="evenodd">
        <g id="Dịch-vụ---Hosting-Typing" transform="translate(-557.000000, -617.000000)" fill-rule="nonzero" fill="#7A8E97">
            <g id="Group-3" transform="translate(135.000000, 504.000000)">
                <g id="Group" transform="translate(300.000000, 113.000000)">
                    <path d="M122.713318,21.8390924 L130.706423,13.8459343 L134.150382,17.2866366 L126.157277,25.2813963 C125.681749,25.756924 125.05855,25.9938604 124.435298,25.9938604 C123.812045,25.9938604 123.188846,25.756924 122.713318,25.2813963 C121.762263,24.3303409 121.762263,22.7901478 122.713318,21.8390924 Z M142.690448,7.02464476 L138.452875,11.2638193 L136.735754,9.54344148 L140.97007,5.30426694 L142.773199,1.82624641 L146.295051,0.00202874743 L147.994287,1.70126489 L146.171725,5.22471869 L142.690448,7.02464476 Z M143.453203,16.2642012 C145.986682,16.4362177 147.994287,18.5233717 147.995889,21.1007351 C147.995889,21.8505708 147.814103,22.5516632 147.50899,23.1878891 L144.274419,19.9533183 C144.107261,19.7813018 143.904386,19.667692 143.691795,19.5881437 C143.506752,19.5183655 143.318505,19.4777906 143.127002,19.4777906 C142.711536,19.4777906 142.292813,19.6368337 141.979585,19.9533183 C141.513774,20.4174743 141.398563,21.0910185 141.611154,21.6655277 C141.692304,21.8765175 141.810772,22.0793388 141.979585,22.248152 L145.214156,25.4827228 C144.581187,25.7894908 143.876838,25.9696222 143.127002,25.9696222 C140.549745,25.9696222 138.46099,23.9636181 138.292177,21.428538 L138.258115,21.1006817 C138.258115,20.5066858 138.37984,19.9434949 138.571343,19.4176756 L128.580349,9.42502669 C128.05453,9.61813142 127.491339,9.73985626 126.897343,9.73985626 L126.569487,9.7073963 C124.036008,9.53537988 122.028402,7.44822587 122.028402,4.8709692 C122.028402,4.12113347 122.211791,3.41838604 122.515302,2.7838152 L125.749819,6.01678439 C125.920234,6.18880082 126.121507,6.30241068 126.334099,6.38356057 C126.515885,6.45173717 126.705786,6.49391376 126.89729,6.49391376 C127.312756,6.49391376 127.728222,6.33487064 128.044706,6.01838604 C128.507261,5.55422998 128.622472,4.88228747 128.409881,4.30777823 C128.331988,4.09513347 128.215121,3.89391376 128.044706,3.72349897 L124.810136,0.488928131 C125.444706,0.185416838 126.147454,0.00202874743 126.89729,0.00202874743 C129.474546,0.00202874743 131.5617,2.0096345 131.733717,4.54311294 L131.766177,4.8709692 C131.766177,5.46496509 131.644452,6.02815606 131.449692,6.55397536 L141.442341,16.5482259 C141.96816,16.3534661 142.531351,16.2317413 143.125347,16.2317413 L143.453203,16.2642012 Z" id="ct_benefit_tool"></path>
                </g>
            </g>
        </g>
    </g>
</svg>