<?xml version="1.0" encoding="UTF-8"?>
<svg width="26px" height="26px" viewBox="0 0 26 26" version="1.1" xmlns="http://www.w3.org/2000/svg" xmlns:xlink="http://www.w3.org/1999/xlink">
    <!-- Generator: Sketch 46.1 (44463) - http://www.bohemiancoding.com/sketch -->
    <title>ct_benefit_speed</title>
    <desc>Created with Sketch.</desc>
    <defs></defs>
    <g id="Dịch-vụ" stroke="none" stroke-width="1" fill="none" fill-rule="evenodd">
        <g id="Dịch-vụ---Hosting" transform="translate(-138.000000, -1179.000000)" fill-rule="nonzero" fill="#7A8E97">
            <g id="Group-7" transform="translate(135.000000, 1176.000000)">
                <path d="M28.9484592,15.0203223 C28.7429272,12.1678411 27.6261898,9.57162914 25.8755806,7.52388521 L23.9405033,9.45896247 L22.6046313,8.12188521 L24.5421766,6.18307726 C22.504362,4.39774393 19.9044194,3.24140397 17.0383355,3.01113466 L17.0383355,5.81907726 L15.1490596,5.81907726 L15.1490596,3 C12.253245,3.18573068 9.61743046,4.30860927 7.54368653,6.08028256 L9.58523179,8.12062252 L8.24815453,9.45769978 L6.20287859,7.41242384 C4.39653863,9.4775011 3.23646799,12.1145784 3.02726269,15.0215276 L5.94660927,15.0215276 L5.94660927,16.9108035 L3.026,16.9108035 C3.51253863,23.65083 9.12096247,28.9744592 15.9859956,28.9744592 C22.8510287,28.9744592 28.4606578,23.65083 28.9484592,16.9108035 L26.2395806,16.9108035 L26.2408433,15.0203223 L28.9484592,15.0203223 Z M13.7665712,17.2276547 C13.2480628,15.9443013 13.8667564,14.4845692 15.1523981,13.9651363 C16.1017157,13.5815871 17.1488466,13.8234771 17.8393123,14.4979355 L26.2650101,12.1085648 L26.3494552,12.324162 L18.5960069,16.3807795 C18.5572613,17.3391493 17.9789335,18.2310817 17.0307335,18.6141794 C15.7455433,19.1347299 14.2855312,18.5121257 13.7665712,17.2276547 Z" id="ct_benefit_speed"></path>
            </g>
        </g>
    </g>
</svg>