<?xml version="1.0" encoding="UTF-8"?>
<svg width="19px" height="24px" viewBox="0 0 19 24" version="1.1" xmlns="http://www.w3.org/2000/svg" xmlns:xlink="http://www.w3.org/1999/xlink">
    <!-- Generator: Sketch 46.1 (44463) - http://www.bohemiancoding.com/sketch -->
    <title>ct_benefit_realtime</title>
    <desc>Created with Sketch.</desc>
    <defs></defs>
    <g id="Dịch-vụ" stroke="none" stroke-width="1" fill="none" fill-rule="evenodd">
        <g id="Dịch-vụ---Hosting-Typing" transform="translate(-1160.000000, -618.000000)" fill-rule="nonzero" fill="#7A8E97">
            <g id="Group-3" transform="translate(135.000000, 504.000000)">
                <g id="Group" transform="translate(900.000000, 114.000000)">
                    <path d="M141.444172,21.698625 L141.444172,19.303875 C141.444172,16.4833594 139.264766,14.7964687 137.170156,13.1506875 C136.880844,12.9238594 136.512594,12.493125 136.512594,11.8356094 C136.512594,11.1780938 136.844328,10.5369844 137.170156,10.2627656 C139.208141,8.5479375 141.444172,6.93004688 141.444172,4.10957812 L141.444172,2.301375 L143.087984,2.301375 L143.087984,0 L125.005766,0 L125.005766,2.301375 L126.649578,2.301375 L126.649578,4.109625 C126.649578,6.93014062 128.885516,8.54798438 130.923594,10.2628125 C131.249422,10.5370313 131.581156,11.1780938 131.581156,11.8356562 C131.581156,12.4932188 131.212906,12.9238594 130.923594,13.1507344 C128.829031,14.7965625 126.649578,16.4834531 126.649578,19.3039219 L126.649578,21.6986719 L125.005766,21.6986719 L125.005766,24 L143.087938,24 L143.087938,21.698625 L141.444172,21.698625 Z M129.895531,6.2465625 C129.289578,5.56073437 128.951,4.90059375 128.951,4.10957813 L128.951,2.301375 L139.14275,2.301375 L139.14275,4.109625 C139.14275,4.90059375 138.804078,5.56082813 138.198219,6.24660938 L129.895531,6.24660938 L129.895531,6.2465625 Z M139.14275,21.0572344 L135.272188,19.5465937 C134.598219,19.2835781 133.495859,19.2835781 132.821891,19.5465937 L128.951,21.0573281 L128.951,19.3040156 C128.951,17.7081562 130.219391,16.6305 132.289297,15.0044062 L132.344188,14.961375 C133.129906,14.34525 133.639531,13.4872031 133.8125,12.5416406 C133.967328,12.5761406 134.126469,12.5761406 134.281297,12.5416406 C134.453563,13.486875 134.963797,14.3449687 135.748531,14.9603906 L135.804406,15.0044063 C137.874313,16.6304063 139.142703,17.7077813 139.142703,19.3039688 L139.142703,21.0572344 L139.14275,21.0572344 Z" id="ct_benefit_realtime"></path>
                </g>
            </g>
        </g>
    </g>
</svg>