<?xml version="1.0" encoding="UTF-8"?>
<svg width="26px" height="22px" viewBox="0 0 26 22" version="1.1" xmlns="http://www.w3.org/2000/svg" xmlns:xlink="http://www.w3.org/1999/xlink">
    <!-- Generator: Sketch 46.1 (44463) - http://www.bohemiancoding.com/sketch -->
    <title>ct_benefit_safe</title>
    <desc>Created with Sketch.</desc>
    <defs></defs>
    <g id="Dịch-vụ" stroke="none" stroke-width="1" fill="none" fill-rule="evenodd">
        <g id="Dịch-vụ---Hosting" transform="translate(-539.000000, -1183.000000)" fill-rule="nonzero" fill="#7A8E97">
            <g id="Group-6" transform="translate(535.000000, 1176.000000)">
                <path d="M6.16668359,14.5833672 L25.6666836,14.5833672 C26.8611094,14.5833672 27.8333672,13.611668 27.8333672,12.4166836 L27.8333672,9.16668359 C27.8333672,7.97175 26.8611094,7 25.6666836,7 L6.16668359,7 C4.97225781,7.00005078 4,7.97175 4,9.16668359 L4,12.4166836 C4,13.611668 4.97225781,14.5833672 6.16668359,14.5833672 Z M11.5833164,9.70836719 C11.5833164,9.40896094 11.8255937,9.16668359 12.125,9.16668359 C12.4244062,9.16668359 12.6666836,9.40896094 12.6666836,9.70836719 L12.6666836,11.8750508 C12.6666836,12.174457 12.4244062,12.4167344 12.125,12.4167344 C11.8255937,12.4167344 11.5833164,12.174457 11.5833164,11.8750508 L11.5833164,9.70836719 Z M7.25,9.70836719 C7.25,9.40896094 7.49227734,9.16668359 7.79168359,9.16668359 C8.09108984,9.16668359 8.33336719,9.40896094 8.33336719,9.70836719 L8.33336719,11.8750508 C8.33336719,12.174457 8.09108984,12.4167344 7.79168359,12.4167344 C7.49227734,12.4167344 7.25,12.174457 7.25,11.8750508 L7.25,9.70836719 Z M20.4288008,16.6728125 C20.6382734,16.5474336 20.7377031,16.2983008 20.6721445,16.0639453 C20.6076016,15.829082 20.3939141,15.6666836 20.1505703,15.6666836 L6.16668359,15.6666836 C4.97225781,15.6666836 4,16.6384336 4,17.8333672 L4,21.0833672 C4,22.2783008 4.97225781,23.2500508 6.16668359,23.2500508 L16.4583672,23.2500508 C16.7577734,23.2500508 17.0000508,23.0077734 17.0000508,22.7083672 C17,20.2174453 18.2822266,17.9613867 20.4288008,16.6728125 Z M7.79163281,21.0833672 C7.49227734,21.0833672 7.25,20.8410898 7.25,20.5416836 L7.25,18.375 C7.25,18.0756445 7.49227734,17.8333672 7.79168359,17.8333672 C8.09108984,17.8333672 8.33336719,18.0756445 8.33336719,18.3750508 L8.33336719,20.5416836 C8.33331641,20.8410898 8.09103906,21.0833672 7.79163281,21.0833672 Z M12.6666836,20.5416836 C12.6666836,20.8410898 12.4244062,21.0833672 12.125,21.0833672 C11.8255937,21.0833672 11.5833164,20.8410898 11.5833164,20.5416836 L11.5833164,18.375 C11.5833164,18.0755938 11.8255937,17.8333164 12.125,17.8333164 C12.4244062,17.8333164 12.6666836,18.0755938 12.6666836,18.375 L12.6666836,20.5416836 Z M24.0416836,16.7500508 C20.7567461,16.7500508 18.0833672,19.4229219 18.0833672,22.7083672 C18.0833672,25.9938125 20.7567969,28.6666836 24.0416836,28.6666836 C27.3265703,28.6666836 30,25.9938125 30,22.7083672 C30,19.4229219 27.3265703,16.7500508 24.0416836,16.7500508 Z M20.7921914,23.2500508 L20.7921406,23.25 L20.7916836,23.2500508 C20.4922773,23.2500508 20.25,23.0077734 20.25,22.7083672 C20.25,20.6178555 21.9511719,18.9166836 24.0416836,18.9166836 C25.303293,18.9166836 26.4786758,19.5413945 27.1853477,20.58825 C27.3530273,20.8358086 27.2879766,21.1727422 27.0398594,21.3399141 C26.7928086,21.5081523 26.4548086,21.4419844 26.2881953,21.1944258 C25.7825156,20.4464688 24.943,20 24.0416328,20 C23.2683867,20 22.5744102,20.3297227 22.0804102,20.8511953 L22.6589102,21.1404961 C22.8313633,21.2267227 22.9450625,21.3986172 22.95725,21.5911797 C22.9694375,21.78425 22.8778789,21.9688906 22.7171055,22.0757344 L21.0921055,23.1590508 C21.0822031,23.1656016 21.0702187,23.1629609 21.0601133,23.16875 C20.9802852,23.2155195 20.8924844,23.2493398 20.7932578,23.2496953 C20.7932578,23.2496953 20.7925469,23.2500508 20.7921914,23.2500508 Z M24.0416836,26.5000508 C22.7800742,26.5000508 21.6046914,25.8753398 20.8980195,24.8284844 C20.7303398,24.5809258 20.7953906,24.2439922 21.0435078,24.0768203 C21.29,23.9091406 21.628,23.9741914 21.7951719,24.2223086 C22.3008516,24.9702656 23.1403672,25.4167344 24.0417344,25.4167344 C24.8149805,25.4167344 25.508957,25.0869609 26.002957,24.5655391 L25.424457,24.2762383 C25.2520039,24.1900117 25.1383047,24.0181172 25.1261172,23.8255547 C25.1139297,23.6324844 25.2054883,23.4478438 25.3662617,23.341 L26.9912617,22.2576836 C27.0037539,22.2493047 27.0081719,22.2564141 27.019293,22.2506758 C27.1004922,22.2021289 27.1901719,22.1666836 27.2917344,22.1666836 C27.5911406,22.1666836 27.833418,22.4089609 27.833418,22.7083672 C27.8333164,24.7988789 26.1321445,26.5000508 24.0416836,26.5000508 Z" id="ct_benefit_safe"></path>
            </g>
        </g>
    </g>
</svg>