<?xml version="1.0" encoding="UTF-8"?>
<svg width="26px" height="26px" viewBox="0 0 26 26" version="1.1" xmlns="http://www.w3.org/2000/svg" xmlns:xlink="http://www.w3.org/1999/xlink">
    <!-- Generator: Sketch 46.1 (44463) - http://www.bohemiancoding.com/sketch -->
    <title>ct_benefit_gift</title>
    <desc>Created with Sketch.</desc>
    <defs></defs>
    <g id="Dịch-vụ" stroke="none" stroke-width="1" fill="none" fill-rule="evenodd">
        <g id="Dịch-vụ---Server" transform="translate(-738.000000, -1363.000000)" fill-rule="nonzero" fill="#7A8E97">
            <g id="Group-5" transform="translate(735.000000, 1360.000000)">
                <path d="M25.75,5.43748664 C25.75,4.0919752 24.7440871,3 22.5,3 C20.3988511,3 18.7446381,3.94572279 17.6250267,5.04261583 C17.134258,4.75171467 16.5687594,4.57461883 15.9529063,4.57461883 C15.3646359,4.57461883 14.8203054,4.74038224 14.3425262,5.0101153 C13.224465,3.92626523 11.5799808,3 9.5,3 C7.25585947,3 6.25,4.0919752 6.25,5.43748664 C6.25,6.78299808 7.25585947,7.87497327 9.5,7.87497327 L16,7.87497327 L15.9983964,7.86198375 L16.0032607,7.86198375 L16,7.87497327 L22.5,7.87497327 C24.7440871,7.87497327 25.75,6.78299808 25.75,5.43748664 Z M13.09612,6.25 L9.5,6.25 C8.75900919,6.25 7.87502673,6.10861198 7.87502673,5.43748664 C7.87502673,4.76636129 8.75900919,4.62497327 9.5,4.62497327 C11.1152445,4.62497327 12.3404826,5.34811017 13.1659855,6.12320515 L13.09612,6.25 Z M18.7722208,6.18173819 C19.5977236,5.37900706 20.8489942,4.62497327 22.4999465,4.62497327 C23.2409374,4.62497327 24.1249198,4.76636129 24.1249198,5.43748664 C24.1249198,6.10861198 23.2409374,6.25 22.4999465,6.25 L18.8095857,6.25 L18.7722208,6.18173819 Z M3,11.1249733 C3,10.2280013 3.72800128,9.5 4.62497327,9.5 L14.3749733,9.5 L14.3749733,14.3749733 L3,14.3749733 L3,11.1249733 Z M4.62497327,27.3749733 L4.62497327,16 L14.3749198,16 L14.3749198,28.9999465 L6.24994655,28.9999465 C5.35297456,28.9999465 4.62497327,28.2719987 4.62497327,27.3749733 Z M27.3749733,9.5 C28.2719987,9.5 29,10.2280013 29,11.1249733 L29,14.3749733 L17.6932351,14.3749733 L17.6932351,9.5 L27.3749733,9.5 Z M17.6932351,29 L17.6932351,16 L27.3749733,16 L27.3749733,27.3750267 C27.3749733,28.2719987 26.6470254,29 25.75,29 L17.6932351,29 Z" id="ct_benefit_gift"></path>
            </g>
        </g>
    </g>
</svg>