<?xml version="1.0" encoding="UTF-8"?>
<svg width="26px" height="26px" viewBox="0 0 26 26" version="1.1" xmlns="http://www.w3.org/2000/svg" xmlns:xlink="http://www.w3.org/1999/xlink">
    <!-- Generator: Sketch 46.1 (44463) - http://www.bohemiancoding.com/sketch -->
    <title>ct_benefit_app</title>
    <desc>Created with Sketch.</desc>
    <defs></defs>
    <g id="Dịch-vụ" stroke="none" stroke-width="1" fill="none" fill-rule="evenodd">
        <g id="Dịch-vụ---Server" transform="translate(-338.000000, -1363.000000)" fill-rule="nonzero" fill="#7A8E97">
            <g id="Group-8" transform="translate(335.000000, 1360.000000)">
                <path d="M25.9047619,15.3809524 L24.047619,15.3809524 L24.047619,10.4285714 C24.047619,9.06666667 22.9333333,7.95238095 21.5714286,7.95238095 L16.6190476,7.95238095 L16.6190476,6.0952381 C16.6190476,4.36190476 15.2571429,3 13.5238095,3 C11.7904762,3 10.4285714,4.36190476 10.4285714,6.0952381 L10.4285714,7.95238095 L5.47619048,7.95238095 C4.11428571,7.95238095 3,9.06666667 3,10.4285714 L3,15.1333333 L4.85714286,15.1333333 C6.71428571,15.1333333 8.2,16.6190476 8.2,18.4761905 C8.2,20.3333333 6.71428571,21.8190476 4.85714286,21.8190476 L3,21.8190476 L3,26.5238095 C3,27.8857143 4.11428571,29 5.47619048,29 L10.1809524,29 L10.1809524,27.1428571 C10.1809524,25.2857143 11.6666667,23.8 13.5238095,23.8 C15.3809524,23.8 16.8666667,25.2857143 16.8666667,27.1428571 L16.8666667,29 L21.5714286,29 C22.9333333,29 24.047619,27.8857143 24.047619,26.5238095 L24.047619,21.5714286 L25.9047619,21.5714286 C27.6380952,21.5714286 29,20.2095238 29,18.4761905 C29,16.7428571 27.6380952,15.3809524 25.9047619,15.3809524 Z" id="ct_benefit_app"></path>
            </g>
        </g>
    </g>
</svg>