<?xml version="1.0" encoding="UTF-8"?>
<svg width="32px" height="32px" viewBox="0 0 32 32" version="1.1" xmlns="http://www.w3.org/2000/svg" xmlns:xlink="http://www.w3.org/1999/xlink">
    <!-- Generator: Sketch 46.1 (44463) - http://www.bohemiancoding.com/sketch -->
    <title>ct_benefit_hardware</title>
    <desc>Created with Sketch.</desc>
    <defs></defs>
    <g id="Dịch-vụ" stroke="none" stroke-width="1" fill="none" fill-rule="evenodd">
        <g id="Dịch-vụ---Server" transform="translate(-335.000000, -1250.000000)" fill-rule="nonzero" fill="#7A8E97">
            <g id="Group-7" transform="translate(335.000000, 1250.000000)">
                <path d="M24.9827368,6.90694737 L24.9827368,24.9730526 L24.9692632,24.9818947 L6.91368421,24.9818947 L6.90021053,24.9730526 L6.90021053,6.90694737 L6.91368421,6.89936842 L24.9692632,6.89936842 L24.9827368,6.90694737 Z M27.5684211,10.088 C26.9717895,10.088 26.4896842,9.60421053 26.4896842,9.00926316 C26.4896842,8.41389474 26.9717895,7.93178947 27.5684211,7.93178947 L30.8021053,7.93178947 C31.4004211,7.93178947 31.8825263,8.41684211 31.8825263,9.01052632 C31.8825263,9.60421053 31.3987368,10.088 30.8021053,10.088 L27.5684211,10.088 Z M30.8008421,12.5498947 C31.3991579,12.5498947 31.8825263,13.0336842 31.8825263,13.6286316 C31.8825263,14.2235789 31.3987368,14.7073684 30.8021053,14.7073684 L27.5684211,14.7073684 C26.9717895,14.7073684 26.4896842,14.2223158 26.4896842,13.6286316 C26.4896842,13.0349474 26.9717895,12.5498947 27.5671579,12.5498947 L30.8008421,12.5498947 Z M30.8008421,17.1717895 C31.3991579,17.1717895 31.8812632,17.6568421 31.8812632,18.2505263 C31.8812632,18.8471579 31.3974737,19.3309474 30.8008421,19.3309474 L27.5671579,19.3309474 C26.9705263,19.3309474 26.4884211,18.8471579 26.4884211,18.2505263 C26.4884211,17.6555789 26.9705263,17.1717895 27.5671579,17.1717895 L30.8008421,17.1717895 Z M30.8008421,21.7949474 C31.3991579,21.7949474 31.8825263,22.2774737 31.8825263,22.8724211 C31.8825263,23.4673684 31.3987368,23.9511579 30.8021053,23.9511579 L27.5684211,23.9511579 C26.9717895,23.9511579 26.4896842,23.4677895 26.4896842,22.8724211 C26.4896842,22.2770526 26.9717895,21.7949474 27.5671579,21.7949474 L30.8008421,21.7949474 Z M10.0871579,4.31494737 C10.0871579,4.91031579 9.60505263,5.39242105 9.00968421,5.39368421 C8.41305263,5.39368421 7.92926316,4.91157895 7.92926316,4.31494737 L7.92926316,1.08126316 C7.92926316,0.484631579 8.41305263,0.00252631579 9.00968421,0.00252631579 C9.60505263,0.00252631579 10.0871579,0.484631579 10.0871579,1.08126316 L10.0871579,4.31494737 Z M12.5524211,1.07957895 C12.5524211,0.484631579 13.0357895,0.000842105263 13.6311579,0.000842105263 C14.2265263,0.000842105263 14.7086316,0.482947368 14.7086316,1.07957895 L14.7086316,4.31326316 C14.7086316,4.90989474 14.2261053,5.392 13.6311579,5.392 C13.0362105,5.392 12.5524211,4.90989474 12.5524211,4.31326316 L12.5524211,1.07957895 Z M17.1738947,1.07957895 C17.1738947,0.484631579 17.656,0.000842105263 18.2513684,0.000842105263 C18.8467368,0.000842105263 19.3317895,0.482947368 19.3317895,1.07957895 L19.3317895,4.31326316 C19.3317895,4.90989474 18.8467368,5.392 18.2513684,5.392 C17.656,5.392 17.1738947,4.90989474 17.1738947,4.31326316 L17.1738947,1.07957895 Z M21.7953684,1.07957895 C21.7953684,0.484631579 22.2778947,-0.000842105263 22.8728421,0.000842105263 C23.4694737,0.000842105263 23.9532632,0.482947368 23.9532632,1.07957895 L23.9532632,4.31326316 C23.9532632,4.90989474 23.4694737,5.392 22.8728421,5.392 C22.2774737,5.392 21.7953684,4.90989474 21.7953684,4.31326316 L21.7953684,1.07957895 Z M10.0871579,30.8029474 C10.0871579,31.3983158 9.60505263,31.8804211 9.00968421,31.8804211 C8.41305263,31.8804211 7.92926316,31.3995789 7.92926316,30.8029474 L7.92926316,27.5692632 C7.92926316,26.9709474 8.41305263,26.4888421 9.00968421,26.4888421 C9.60505263,26.4888421 10.0871579,26.9726316 10.0871579,27.5692632 L10.0871579,30.8029474 Z M12.5524211,27.5675789 C12.5524211,26.9709474 13.0357895,26.4888421 13.6311579,26.4888421 C14.2265263,26.4888421 14.7086316,26.9709474 14.7086316,27.5675789 L14.7086316,30.8012632 C14.7086316,31.3995789 14.2261053,31.8816842 13.6311579,31.8816842 C13.0362105,31.8816842 12.5524211,31.3978947 12.5524211,30.8012632 L12.5524211,27.5675789 Z M17.1738947,27.5675789 C17.1738947,26.9709474 17.656,26.4888421 18.2513684,26.4888421 C18.8467368,26.4888421 19.3317895,26.9709474 19.3317895,27.5675789 L19.3317895,30.8012632 C19.3317895,31.3995789 18.8467368,31.8816842 18.2513684,31.8816842 C17.656,31.8816842 17.1738947,31.3978947 17.1738947,30.8012632 L17.1738947,27.5675789 Z M21.7953684,27.5675789 C21.7953684,26.9709474 22.2774737,26.4888421 22.8728421,26.4888421 C23.4682105,26.4888421 23.9515789,26.9709474 23.9532632,27.5675789 L23.9532632,30.8012632 C23.9532632,31.3995789 23.4694737,31.8816842 22.8728421,31.8816842 C22.2774737,31.8816842 21.7953684,31.3978947 21.7953684,30.8012632 L21.7953684,27.5675789 Z M1.08210526,10.088 C0.483789474,10.088 1.77635684e-15,9.60421053 1.77635684e-15,9.00884211 C1.77635684e-15,8.41389474 0.483789474,7.93010526 1.08084211,7.93052632 L4.31452632,7.93052632 C4.91115789,7.93052632 5.39326316,8.41557895 5.39326316,9.00926316 C5.39326316,9.60294737 4.91115789,10.088 4.31578947,10.088 L1.08210526,10.088 Z M4.31410526,12.5498947 C4.91073684,12.5498947 5.39326316,13.0324211 5.39284211,13.6273684 C5.39284211,14.2223158 4.91073684,14.7061053 4.31410526,14.7061053 L1.08042105,14.7061053 C0.482105263,14.7061053 1.77635684e-15,14.2210526 1.77635684e-15,13.6273684 C1.77635684e-15,13.0336842 0.483789474,12.5498947 1.08042105,12.5498947 L4.31410526,12.5498947 Z M4.31410526,17.1717895 C4.91073684,17.1717895 5.39326316,17.6568421 5.39284211,18.2505263 C5.39284211,18.8471579 4.91073684,19.3309474 4.31410526,19.3309474 L1.08042105,19.3309474 C0.482105263,19.3309474 1.77635684e-15,18.8471579 1.77635684e-15,18.2505263 C1.77635684e-15,17.6555789 0.483789474,17.1717895 1.08042105,17.1717895 L4.31410526,17.1717895 Z M4.31410526,21.7949474 C4.91073684,21.7949474 5.39284211,22.2787368 5.39284211,22.8724211 C5.39284211,23.4661053 4.91073684,23.9494737 4.31410526,23.9511579 L1.08042105,23.9511579 C0.482105263,23.9511579 1.77635684e-15,23.4677895 1.77635684e-15,22.8724211 C1.77635684e-15,22.2770526 0.483789474,21.7949474 1.08042105,21.7949474 L4.31410526,21.7949474 Z" id="ct_benefit_hardware"></path>
            </g>
        </g>
    </g>
</svg>