<?xml version="1.0" encoding="UTF-8"?>
<svg width="32px" height="27px" viewBox="0 0 32 27" version="1.1" xmlns="http://www.w3.org/2000/svg" xmlns:xlink="http://www.w3.org/1999/xlink">
    <!-- Generator: Sketch 47.1 (45422) - http://www.bohemiancoding.com/sketch -->
    <title>ct_benefit_legal</title>
    <desc>Created with Sketch.</desc>
    <defs></defs>
    <g id="Dịch-vụ" stroke="none" stroke-width="1" fill="none" fill-rule="evenodd">
        <g id="Dịch-vụ---Quản-trị-máy-chủ" transform="translate(-538.000000, -1404.000000)" fill-rule="nonzero" fill="#7A8E97">
            <path d="M550.961758,1427.78337 C550.961758,1427.99096 550.908545,1428.18608 550.815243,1428.35618 L552.528529,1428.35618 L552.528529,1430.82952 L538,1430.82952 L538,1428.35618 L539.713351,1428.35618 C539.619984,1428.18614 539.566836,1427.99096 539.566836,1427.78337 C539.566836,1427.12454 540.100983,1426.59039 540.759749,1426.59039 L549.768845,1426.59039 C550.427611,1426.59039 550.961758,1427.12447 550.961758,1427.78337 Z M549.428709,1407.38682 C548.903853,1406.97931 548.765589,1406.23179 549.128791,1405.65963 L549.494072,1405.08455 C549.880014,1404.47679 550.685426,1404.29701 551.293058,1404.68289 L558.695099,1409.38327 C559.302796,1409.76921 559.482578,1410.57462 559.096765,1411.18238 L558.731484,1411.7574 C558.368217,1412.32962 557.632782,1412.52227 557.040809,1412.22059 L549.428709,1407.38682 Z M569.996589,1425.85288 C570.003412,1426.00661 570.000293,1426.17593 569.984569,1426.36545 C569.819796,1426.46025 569.667888,1426.53516 569.525921,1426.59429 L569.41943,1426.63847 L569.317162,1426.67616 C569.247705,1426.70325 569.183641,1426.72203 569.118278,1426.74263 C568.857084,1426.82495 568.621555,1426.86679 568.400061,1426.88661 C567.958955,1426.92338 567.581784,1426.85932 567.254578,1426.71677 C567.172516,1426.68161 567.095003,1426.63899 567.01697,1426.59741 L566.78287,1426.47253 C566.626349,1426.39027 566.472557,1426.3036 566.317725,1426.21835 C566.162633,1426.13369 566.009231,1426.04611 565.856023,1425.95846 C565.702296,1425.87146 565.549478,1425.78336 565.397635,1425.6935 C565.09252,1425.51599 564.790653,1425.33361 564.488981,1425.15051 L564.038325,1424.87334 L563.590137,1424.59239 C563.292299,1424.40332 562.99498,1424.21392 562.699546,1424.02115 C562.403461,1423.82915 562.108807,1423.63533 561.815776,1423.43872 L560.937724,1422.84779 L560.06565,1422.2473 L559.198514,1421.63909 L558.33599,1421.02353 L557.477626,1420.40128 L556.623874,1419.77194 C556.340329,1419.56045 556.05659,1419.34942 555.77519,1419.13468 C555.49314,1418.92086 555.210635,1418.708 554.930664,1418.4908 L555.216483,1418.04059 L553.989328,1417.02558 L552.37922,1419.56123 L544.76712,1414.72753 L548.726865,1408.49176 L556.3389,1413.32547 L554.728792,1415.86112 L556.169254,1416.54003 L556.455008,1416.0899 C556.770584,1416.25083 557.083691,1416.416 557.396993,1416.58032 C557.711075,1416.74379 558.022753,1416.91084 558.334756,1417.07756 L559.267386,1417.5826 L560.195662,1418.09472 L561.11952,1418.61366 L562.03883,1419.13969 L562.953137,1419.67377 L563.861402,1420.21714 C564.163918,1420.39861 564.464681,1420.58301 564.764274,1420.76916 C565.064321,1420.95459 565.362355,1421.14314 565.659933,1421.33228 L566.105002,1421.61849 L566.547601,1421.90853 C566.841736,1422.10358 567.135092,1422.29928 567.425393,1422.49999 C567.571324,1422.59914 567.71602,1422.7001 567.860131,1422.80218 C568.004697,1422.90354 568.149133,1423.00509 568.291815,1423.10944 C568.434756,1423.2132 568.578673,1423.31553 568.719795,1423.42228 L568.932323,1423.58101 C569.003275,1423.6339 569.07468,1423.68595 569.141408,1423.74527 C569.409619,1423.98067 569.627995,1424.29488 569.782437,1424.7098 C569.858586,1424.91869 569.920895,1425.1496 569.95741,1425.421 C569.966507,1425.4889 569.976902,1425.55491 569.981775,1425.62917 L569.991262,1425.73781 L569.996589,1425.85288 Z M542.411506,1418.66967 C541.803744,1418.28379 541.623897,1417.47831 542.009904,1416.87055 L542.375056,1416.29554 C542.738387,1415.72325 543.473822,1415.53067 544.065796,1415.83228 L551.677831,1420.66598 C552.202622,1421.07349 552.341016,1421.82088 551.977684,1422.39317 L551.612468,1422.96831 C551.22659,1423.57601 550.421179,1423.75573 549.813417,1423.36992 L542.411506,1418.66967 Z" id="ct_benefit_legal"></path>
        </g>
    </g>
</svg>