<?xml version="1.0" encoding="UTF-8"?>
<svg width="32px" height="32px" viewBox="0 0 32 32" version="1.1" xmlns="http://www.w3.org/2000/svg" xmlns:xlink="http://www.w3.org/1999/xlink">
    <!-- Generator: Sketch 46.1 (44463) - http://www.bohemiancoding.com/sketch -->
    <title>ct_benefit_spec</title>
    <desc>Created with Sketch.</desc>
    <defs></defs>
    <g id="Dịch-vụ" stroke="none" stroke-width="1" fill="none" fill-rule="evenodd">
        <g id="Dịch-vụ---Server" transform="translate(-735.000000, -1250.000000)" fill-rule="nonzero" fill="#7A8E97">
            <g id="Group-6" transform="translate(735.000000, 1250.000000)">
                <path d="M2.09903537,11.576866 C2.26709539,12.1530718 2.50032154,12.7086988 2.79528403,13.2300279 L1.95498392,14.2898349 C1.68060021,14.6362444 1.71146838,15.130135 2.02015005,15.4422465 L3.46752412,16.8896206 C3.77963558,17.201732 4.27352626,17.2291361 4.61993569,16.9547524 L5.67288317,16.1213119 C6.214791,16.4334577 6.79099678,16.6769389 7.39121115,16.8484287 L7.54898178,18.2031983 C7.60042872,18.6422122 7.97084673,18.9714727 8.40986066,18.9714727 L10.4574491,18.9714727 C10.896463,18.9714727 11.266881,18.6421779 11.318328,18.2031983 L11.469239,16.8964459 C12.1140407,16.7283859 12.7314041,16.4780107 13.3110397,16.1521801 L14.3296892,16.9581822 C14.6760986,17.2325659 15.1699893,17.2016977 15.4821008,16.8930161 L16.9294748,15.445642 C17.2415863,15.1335305 17.2690247,14.6396399 16.9946409,14.2932304 L16.202358,13.2883001 C16.5316184,12.7189196 16.7888532,12.11188 16.960343,11.4773676 L18.1813505,11.336746 C18.6203987,11.285299 18.9496249,10.914881 18.9496249,10.4758671 L18.9496249,8.42827867 C18.9496249,7.98926474 18.6203644,7.61884673 18.1813505,7.56739979 L16.977492,7.42677814 C16.8128274,6.7991254 16.5659164,6.19891104 16.2504094,5.63642444 L16.9912454,4.70009003 C17.2656292,4.3536806 17.234761,3.85978992 16.9260793,3.54767846 L15.482135,2.10373419 C15.1700236,1.79162272 14.6761329,1.76418435 14.3297235,2.03856806 L13.4208274,2.75882529 C12.8309025,2.41241586 12.1997856,2.14832154 11.5378692,1.96997213 L11.4006774,0.793551983 C11.3492304,0.354538049 10.9788124,0.0252775991 10.5397985,0.0252775991 L8.49221008,0.0252775991 C8.05319614,0.0252775991 7.68277814,0.354538049 7.63133119,0.793551983 L7.49413934,1.96997213 C6.81503966,2.15175134 6.16680815,2.42613505 5.56316399,2.78626367 L4.61996999,2.03856806 C4.27356056,1.76418435 3.77966988,1.79505252 3.46755841,2.10373419 L2.02018435,3.55110825 C1.70807288,3.86321972 1.68063451,4.3571104 1.95501822,4.70351983 L2.74387138,5.70159057 C2.42833012,6.27093676 2.18824437,6.87801072 2.03047374,7.50909325 L0.768308682,7.65314469 C0.329294748,7.70459164 3.42979638e-05,8.07500965 3.42979638e-05,8.51402358 L3.42979638e-05,10.561612 C3.42979638e-05,11.0006259 0.329294748,11.3710439 0.768308682,11.4224909 L2.09903537,11.576866 Z M9.51768489,6.03774491 C11.3834941,6.03774491 12.9028939,7.55714469 12.9028939,9.42295391 C12.9028939,11.2887631 11.3834941,12.8081629 9.51768489,12.8081629 C7.65190997,12.8081629 6.13247588,11.2887631 6.13247588,9.42295391 C6.13247588,7.55714469 7.65187567,6.03774491 9.51768489,6.03774491 Z M29.7603087,12.0810461 L28.6799228,11.1687203 C28.3472669,10.887477 27.8567717,10.9011961 27.5412647,11.1995884 L26.9444802,11.7586452 C26.4403344,11.5151297 25.9052862,11.3436399 25.3530547,11.2441758 L25.1850632,10.4210247 C25.0993183,9.9957299 24.7048917,9.70076742 24.2726688,9.73506538 L22.8630225,9.85510825 C22.4308682,9.89283601 22.0913183,10.246105 22.0775991,10.6816892 L22.0501951,11.5185595 C21.5082529,11.7140579 20.9972133,11.981582 20.530761,12.317702 L19.8173976,11.8443901 C19.4537706,11.6043044 18.9702036,11.6729003 18.6889946,12.0055906 L17.7766688,13.092836 C17.4953912,13.4255263 17.5091104,13.9159871 17.8074684,14.2315284 L18.4317256,14.8968746 C18.2156141,15.3839057 18.0612733,15.8949796 17.9721329,16.4197042 L17.0803859,16.6014834 C16.6550911,16.6872283 16.3601286,17.0816549 16.3944266,17.5138435 L16.5144695,18.9234898 C16.5521972,19.3556442 16.9054662,19.695194 17.3410504,19.7089132 L18.3048232,19.7397471 C18.4798114,20.1993398 18.7095734,20.6349582 18.9873526,21.0430697 L18.4489089,21.8559314 C18.2088232,22.2194898 18.2774191,22.7030911 18.610075,22.9843344 L19.6904609,23.8966602 C20.0231854,24.1779035 20.513612,24.1641844 20.8291876,23.8657921 L21.5357256,23.2038414 C21.9987481,23.4199185 22.4857449,23.581119 22.9864952,23.6771533 L23.1820279,24.6443558 C23.2677728,25.0696506 23.6621994,25.3646131 24.0943537,25.3303151 L25.504,25.2102722 C25.9361543,25.1725445 26.2757042,24.8193098 26.2894234,24.3836913 L26.3202915,23.4370332 C26.834761,23.255254 27.3217578,23.0083087 27.7710611,22.7030911 L28.5496592,23.2175606 C28.9132176,23.4576463 29.3967846,23.3890504 29.6780622,23.0563601 L30.590388,21.9759743 C30.871597,21.643284 30.8578778,21.1528232 30.5595198,20.8372819 L29.9318328,20.1719357 C30.1616635,19.6849046 30.3297578,19.1704352 30.4257235,18.6422122 L31.2831726,18.4672926 C31.7084673,18.3815477 32.0034298,17.9871211 31.9691318,17.5549325 L31.849089,16.1452862 C31.8113612,15.7131318 31.4580922,15.373582 31.022508,15.3598628 L30.1616292,15.3324244 C29.9832454,14.8316742 29.7431597,14.3583966 29.4448017,13.9193483 L29.9146495,13.2128103 C30.1616292,12.8493205 30.0930332,12.3622894 29.7603087,12.0810461 Z M24.4476227,20.2302079 C22.9247931,20.3605745 21.5802444,19.2252776 21.4533762,17.7024823 C21.3230096,16.1796527 22.4583408,14.8351383 23.9811018,14.7082358 C25.5039314,14.5779035 26.8484802,15.7132004 26.9753483,17.2359957 C27.1057149,18.7588596 25.9703837,20.1033398 24.4476227,20.2302079 Z M7.03108253,24.023597 C6.59892819,24.0681844 6.26623794,24.4317085 6.26280815,24.8673269 L6.25251876,25.7350654 C6.24565916,26.1706495 6.56806002,26.5410675 7.00021436,26.5959786 L7.63815648,26.6782594 C7.74448017,27.0658607 7.89539121,27.4362787 8.0908896,27.7861179 L7.67931404,28.2937278 C7.40493033,28.6332433 7.42550911,29.1203087 7.73076099,29.4324202 L8.33783494,30.0532133 C8.64308682,30.3653248 9.1301179,30.3996227 9.47652733,30.1320986 L9.98753269,29.737672 C10.3476613,29.9503194 10.728403,30.1184137 11.1262251,30.2349925 L11.194821,30.8935134 C11.2394084,31.3256677 11.6029668,31.658358 12.0385509,31.6617878 L12.9063237,31.6720772 C13.3418735,31.6789368 13.7123258,31.3565359 13.7672026,30.9243816 L13.8460879,30.3001586 C14.2782765,30.1938006 14.6898521,30.0326345 15.0808146,29.8199871 L15.5609861,30.2075541 C15.9005359,30.4819378 16.3876013,30.4613591 16.6997128,30.1561072 L17.3205059,29.5490332 C17.6326174,29.2438156 17.6669153,28.7567503 17.3994255,28.4103408 L17.0323687,27.9335648 C17.2587353,27.5562872 17.4336892,27.1550011 17.553732,26.7331361 L18.1230782,26.6748296 C18.5552326,26.6302422 18.8878885,26.2666838 18.8913526,25.8310997 L18.9016077,24.9633269 C18.9085016,24.5277771 18.5861008,24.1573248 18.1539464,24.102448 L17.5982851,24.0304223 C17.4919614,23.6119871 17.3342251,23.2072712 17.1284373,22.8299936 L17.4748467,22.4046988 C17.7492304,22.065149 17.7286517,21.5781179 17.4233998,21.2660064 L16.8163601,20.6452133 C16.5111083,20.3330675 16.0240086,20.2987696 15.6776334,20.566328 L15.2625938,20.885299 C14.8716313,20.6486431 14.4531618,20.4668639 14.0141822,20.3433912 L13.9592712,19.8049132 C13.9146838,19.3727245 13.5511597,19.0400686 13.1155413,19.0366388 L12.2478028,19.0263494 C11.8122186,19.0194898 11.4418006,19.3418907 11.3868896,19.774045 L11.3182937,20.3091275 C10.8655949,20.4257063 10.4300107,20.60409 10.0252947,20.8372819 L9.5965702,20.4874427 C9.25702036,20.2130589 8.76995498,20.233672 8.45784352,20.5388896 L7.83362058,21.1494277 C7.52150911,21.4546452 7.48721115,21.9417106 7.75473526,22.2880857 L8.12172347,22.7614319 C7.9090761,23.1387095 7.74101608,23.5399614 7.63126259,23.9618607 L7.03108253,24.023597 Z M12.63194,23.0426409 C13.8769561,23.0563601 14.8749925,24.0819035 14.8613076,25.3269196 C14.8475884,26.5719357 13.822045,27.5699721 12.5770289,27.5562872 C11.3320129,27.5425681 10.3339764,26.5170589 10.3476613,25.2720086 C10.3614148,24.0270268 11.3869239,23.0289561 12.63194,23.0426409 Z" id="ct_benefit_spec"></path>
            </g>
        </g>
    </g>
</svg>