<?xml version="1.0" encoding="UTF-8"?>
<svg width="116px" height="126px" viewBox="0 0 116 126" version="1.1" xmlns="http://www.w3.org/2000/svg" xmlns:xlink="http://www.w3.org/1999/xlink">
    <!-- Generator: Sketch 46.1 (44463) - http://www.bohemiancoding.com/sketch -->
    <title>dc_supporter</title>
    <desc>Created with Sketch.</desc>
    <defs>
        <filter x="-14.6%" y="-13.5%" width="129.2%" height="135.2%" filterUnits="objectBoundingBox" id="filter-1">
            <feOffset dx="0" dy="12" in="SourceAlpha" result="shadowOffsetOuter1"></feOffset>
            <feGaussianBlur stdDeviation="16" in="shadowOffsetOuter1" result="shadowBlurOuter1"></feGaussianBlur>
            <feColorMatrix values="0 0 0 0 0.0817123274   0 0 0 0 0.382927635   0 0 0 0 0.533535289  0 0 0 0.198709239 0" type="matrix" in="shadowBlurOuter1" result="shadowMatrixOuter1"></feColorMatrix>
            <feMerge>
                <feMergeNode in="shadowMatrixOuter1"></feMergeNode>
                <feMergeNode in="SourceGraphic"></feMergeNode>
            </feMerge>
        </filter>
    </defs>
    <g id="Dịch-vụ" stroke="none" stroke-width="1" fill="none" fill-rule="evenodd">
        <g id="Dịch-vụ---Data-Center" transform="translate(-962.000000, -340.000000)" fill-rule="nonzero">
            <g id="Group-4" filter="url(#filter-1)" transform="translate(835.000000, 208.000000)">
                <g id="dc_supporter" transform="translate(153.000000, 150.000000)">
                    <path d="M27.7333333,20.2666667 C25.9690667,20.2666667 24.5333333,21.7024 24.5333333,23.4666667 L26.6666667,23.4666667 C26.6666667,22.8789333 27.1445333,22.4 27.7333333,22.4 C28.3221333,22.4 28.8,22.8789333 28.8,23.4666667 L30.9333333,23.4666667 C30.9333333,21.7024 29.4976,20.2666667 27.7333333,20.2666667 Z" id="Shape" fill="#474C4E"></path>
                    <path d="M36.2666667,20.2666667 C34.5024,20.2666667 33.0666667,21.7024 33.0666667,23.4666667 L35.2,23.4666667 C35.2,22.8789333 35.6778667,22.4 36.2666667,22.4 C36.8554667,22.4 37.3333333,22.8789333 37.3333333,23.4666667 L39.4666667,23.4666667 C39.4666667,21.7024 38.0309333,20.2666667 36.2666667,20.2666667 Z" id="Shape" fill="#474C4E"></path>
                    <path d="M32,49.0666667 C29.6469333,49.0666667 27.7333333,50.9802667 27.7333333,53.3333333 C27.7333333,55.6864 29.6469333,57.6 32,57.6 C34.3530667,57.6 36.2666667,55.6864 36.2666667,53.3333333 C36.2666667,50.9802667 34.3530667,49.0666667 32,49.0666667 Z M32,55.4666667 C30.8234667,55.4666667 29.8666667,54.5098667 29.8666667,53.3333333 C29.8666667,52.1568 30.8234667,51.2 32,51.2 C33.1765333,51.2 34.1333333,52.1568 34.1333333,53.3333333 C34.1333333,54.5098667 33.1765333,55.4666667 32,55.4666667 Z" id="Shape" fill="#474C4E"></path>
                    <path d="M57.6,61.8666667 L57.6,48 C57.6,39.1776 50.4224,32 41.6,32 L40.4384,32 C40.8181333,31.6661333 41.1754667,31.3098667 41.5136,30.9333333 L42.6666667,30.9333333 C45.6074667,30.9333333 48,28.5408 48,25.6 L48,23.7205333 C49.2853333,22.8586667 50.1333333,21.3930667 50.1333333,19.7333333 C50.1333333,18.0672 49.2789333,16.5994667 47.9872,15.7386667 C47.8453333,7.03786667 40.7349333,0 32,0 C23.2650667,0 16.1546667,7.03786667 16.0128,15.7386667 C14.7210667,16.5994667 13.8666667,18.0672 13.8666667,19.7333333 C13.8666667,22.3797333 16.0202667,24.5333333 18.6666667,24.5333333 L19.3930667,24.5333333 C19.8922667,27.4890667 21.4026667,30.0992 23.5626667,32 L22.4,32 C13.5776,32 6.4,39.1776 6.4,48 L6.4,61.8666667 L0,61.8666667 L0,64 L7.46666667,64 L12.8,64 L51.2,64 L56.5333333,64 L64,64 L64,61.8666667 L57.6,61.8666667 Z M45.8666667,25.6 C45.8666667,27.2181333 44.6549333,28.5450667 43.0944,28.7562667 C43.8336,27.4709333 44.352,26.0469333 44.6069333,24.5333333 L45.3333333,24.5333333 C45.5157333,24.5333333 45.6896,24.4992 45.8666667,24.4789333 L45.8666667,25.6 Z M48,19.7333333 C48,21.2032 46.8042667,22.4 45.3333333,22.4 L44.8,22.4 L44.8,17.0666667 L45.3333333,17.0666667 C46.8042667,17.0666667 48,18.2634667 48,19.7333333 Z M19.2,22.4 L18.6666667,22.4 C17.1957333,22.4 16,21.2032 16,19.7333333 C16,18.2634667 17.1957333,17.0666667 18.6666667,17.0666667 L19.2,17.0666667 L19.2,22.4 Z M18.6666667,14.9333333 C18.5013333,14.9333333 18.3456,14.9653333 18.1845333,14.9824 C18.7093333,7.8112 24.6976,2.13333333 32,2.13333333 C39.3024,2.13333333 45.2906667,7.8112 45.8154667,14.9824 C45.6544,14.9653333 45.4986667,14.9333333 45.3333333,14.9333333 L44.6069333,14.9333333 C43.5872,8.8896 38.3296,4.26666667 32,4.26666667 C25.6704,4.26666667 20.4128,8.8896 19.3930667,14.9333333 L18.6666667,14.9333333 Z M42.6656,17.04 C34.9674667,16.7690667 29.8666667,13.6213333 29.8666667,10.6666667 C29.8666667,10.0778667 29.3898667,9.6 28.8,9.6 C28.2101333,9.6 27.7333333,10.0778667 27.7333333,10.6666667 C27.7333333,13.3322667 24.9770667,15.5413333 21.3952,15.9328 C21.9637333,10.5824 26.5024,6.4 32,6.4 C37.872,6.4 42.6506667,11.1712 42.6656,17.04 Z M21.3333333,22.4 L21.3333333,18.0736 C24.6645333,17.7845333 27.4912,16.1781333 28.9024,13.9285333 C31.1338667,16.8853333 36.3488,18.9664 42.6666667,19.1786667 L42.6666667,22.4 C42.6666667,24.8032 41.8581333,27.0144 40.5130667,28.8 L32,28.8 L32,30.9333333 L38.3722667,30.9333333 C37.76,31.392 37.0997333,31.7866667 36.3957333,32.1066667 C33.5968,33.3781333 30.4021333,33.3781333 27.6021333,32.1066667 C23.9114667,30.4277333 21.3333333,26.7136 21.3333333,22.4 Z M28.7029333,34.7541333 C29.7568,35.0357333 30.8586667,35.2 32,35.2 C33.1413333,35.2 34.2432,35.0357333 35.2970667,34.7541333 L32,41.3482667 L28.7029333,34.7541333 Z M30.2741333,42.6666667 L28.3925333,42.6666667 L24.1258667,34.1333333 L26.0074667,34.1333333 L30.2741333,42.6666667 Z M37.9925333,34.1333333 L39.8741333,34.1333333 L35.6074667,42.6666667 L33.7258667,42.6666667 L37.9925333,34.1333333 Z M11.7333333,48 L11.7333333,61.8666667 L8.53333333,61.8666667 L8.53333333,48 C8.53333333,40.5706667 14.4106667,34.5056 21.7568,34.1664 L26.0074667,42.6666667 L17.0666667,42.6666667 C14.1258667,42.6666667 11.7333333,45.0592 11.7333333,48 Z M50.1333333,61.8666667 L13.8666667,61.8666667 L13.8666667,48 C13.8666667,46.2357333 15.3024,44.8 17.0666667,44.8 L27.7333333,44.8 L32,44.8 L36.2666667,44.8 L46.9333333,44.8 C48.6976,44.8 50.1333333,46.2357333 50.1333333,48 L50.1333333,61.8666667 Z M55.4666667,61.8666667 L52.2666667,61.8666667 L52.2666667,48 C52.2666667,45.0592 49.8741333,42.6666667 46.9333333,42.6666667 L37.9925333,42.6666667 L42.2432,34.1664 C49.5893333,34.5056 55.4666667,40.5706667 55.4666667,48 L55.4666667,61.8666667 Z" id="Shape" fill="#7A8E97"></path>
                    <rect id="Rectangle-path" fill="#2D9DD5" x="45.8666667" y="52.2666667" width="2.13333333" height="7.46666667"></rect>
                    <rect id="Rectangle-path" fill="#2D9DD5" x="45.8666667" y="48" width="2.13333333" height="2.13333333"></rect>
                    <rect id="Rectangle-path" fill="#2D9DD5" x="55.4666667" y="9.6" width="2.13333333" height="2.13333333"></rect>
                    <rect id="Rectangle-path" fill="#2D9DD5" x="55.4666667" y="13.8666667" width="2.13333333" height="2.13333333"></rect>
                    <rect id="Rectangle-path" fill="#2D9DD5" x="55.4666667" y="18.1333333" width="2.13333333" height="2.13333333"></rect>
                    <rect id="Rectangle-path" fill="#2D9DD5" x="6.4" y="22.4" width="2.13333333" height="2.13333333"></rect>
                    <rect id="Rectangle-path" fill="#2D9DD5" x="6.4" y="26.6666667" width="2.13333333" height="2.13333333"></rect>
                    <rect id="Rectangle-path" fill="#2D9DD5" x="6.4" y="30.9333333" width="2.13333333" height="2.13333333"></rect>
                </g>
            </g>
        </g>
    </g>
</svg>