<?xml version="1.0" encoding="UTF-8"?>
<svg width="48px" height="48px" viewBox="0 0 48 48" version="1.1" xmlns="http://www.w3.org/2000/svg" xmlns:xlink="http://www.w3.org/1999/xlink">
    <!-- Generator: Sketch 46.1 (44463) - http://www.bohemiancoding.com/sketch -->
    <title>domain_cry</title>
    <desc>Created with Sketch.</desc>
    <defs></defs>
    <g id="Dịch-vụ" stroke="none" stroke-width="1" fill="none" fill-rule="evenodd">
        <g id="Dịch-vụ---Hosting-Kết-quả-2" transform="translate(-696.000000, -280.000000)" fill-rule="nonzero">
            <g id="domain_cry" transform="translate(696.000000, 280.000000)">
                <circle id="Oval" fill="#7A8E97" cx="23.9966582" cy="23.9966582" r="23.9966582"></circle>
                <g id="Group" transform="translate(11.443038, 11.949367)" fill="#FFFFFF">
                    <path d="M24.6755443,23.9088608 C17.9687089,17.0614684 7.02987342,17.0899241 0.362025316,23.9800506 C-0.487493671,24.8576203 0.850835443,26.1985823 1.70146835,25.3194937 C7.66298734,19.1590886 17.3347848,19.1216203 23.336,25.2483038 C24.192,26.1225316 25.5307342,24.7818734 24.6755443,23.9088608 L24.6755443,23.9088608 Z" id="Shape"></path>
                    <circle id="Oval" cx="5.2595443" cy="3.77032911" r="3.76870886"></circle>
                    <circle id="Oval" cx="19.5105823" cy="3.77032911" r="3.76870886"></circle>
                </g>
                <path d="M34.7510886,19.0999494 C34.7510886,19.0999494 31.964557,22.5302278 31.964557,26.068962 C31.964557,27.6085063 33.2111392,28.8558987 34.7506835,28.8563038 C36.2917468,28.8555949 37.5387342,27.6082025 37.5387342,26.0686582 C37.5387342,24.3551392 34.7510886,19.0999494 34.7510886,19.0999494 Z" id="Shape" fill="#A2D4DE"></path>
            </g>
        </g>
    </g>
</svg>