<?xml version="1.0" encoding="UTF-8"?>
<svg width="9px" height="13px" viewBox="0 0 9 13" version="1.1" xmlns="http://www.w3.org/2000/svg" xmlns:xlink="http://www.w3.org/1999/xlink">
    <!-- Generator: Sketch 46.1 (44463) - http://www.bohemiancoding.com/sketch -->
    <title>fc-ico_address</title>
    <desc>Created with Sketch.</desc>
    <defs></defs>
    <g id="Symbols" stroke="none" stroke-width="1" fill="none" fill-rule="evenodd">
        <g id="footer" transform="translate(-138.000000, -127.000000)" fill="#7A8E97">
            <g id="Group-23" transform="translate(135.000000, 70.000000)">
                <g id="Group-22" transform="translate(1.000000, 55.000000)">
                    <path d="M6.5,8.16431925 C6.9429556,8.16431925 7.32046754,8.0066533 7.63254937,7.69131358 C7.94463313,7.37597581 8.10067114,6.9945253 8.10067114,6.54694836 C8.10067114,6.09937142 7.94463313,5.7179209 7.63254937,5.40258314 C7.32046754,5.08724342 6.9429556,4.92957746 6.5,4.92957746 C6.0570444,4.92957746 5.67953246,5.08724342 5.36745063,5.40258314 C5.05536687,5.7179209 4.89932886,6.09937142 4.89932886,6.54694836 C4.89932886,6.9945253 5.05536687,7.37597581 5.36745063,7.69131358 C5.67953246,8.0066533 6.0570444,8.16431925 6.5,8.16431925 Z M6.5,2 C7.74832923,2 8.81039785,2.44248338 9.68624064,3.32746577 C10.5620854,4.2124462 11,5.28559534 11,6.54694836 C11,7.17762389 10.843962,7.89983895 10.5318782,8.71361502 C10.2197964,9.5273911 9.84228446,10.2902941 9.39932886,11.0023474 C8.95637326,11.7144008 8.51845863,12.3806706 8.08557144,13.0011727 C7.65268231,13.6216776 7.28523683,14.1150217 6.98322148,14.4812207 L6.5,15 C6.37919463,14.8575893 6.21812145,14.6694066 6.01677852,14.435446 C5.8154356,14.2014855 5.45302336,13.7335716 4.9295302,13.0316911 C4.40603705,12.3298093 3.94798948,11.6482821 3.55536913,10.9870882 C3.16274974,10.3258963 2.80537074,9.57825052 2.48322148,8.74413146 C2.16107221,7.91001239 2,7.17762389 2,6.54694836 C2,5.28559534 2.43791502,4.2124462 3.31375839,3.32746577 C4.18960215,2.44248338 5.25167077,2 6.5,2 Z" id="fc-ico_address"></path>
                </g>
            </g>
        </g>
    </g>
</svg>