<?xml version="1.0" encoding="UTF-8"?>
<svg width="13px" height="13px" viewBox="0 0 13 13" version="1.1" xmlns="http://www.w3.org/2000/svg" xmlns:xlink="http://www.w3.org/1999/xlink">
    <!-- Generator: Sketch 46.1 (44463) - http://www.bohemiancoding.com/sketch -->
    <title>fc-ico_phone</title>
    <desc>Created with Sketch.</desc>
    <defs></defs>
    <g id="Symbols" stroke="none" stroke-width="1" fill="none" fill-rule="evenodd">
        <g id="footer" transform="translate(-137.000000, -242.000000)" fill="#7A8E97">
            <g id="Group-23" transform="translate(135.000000, 70.000000)">
                <g id="Group-22" transform="translate(1.000000, 55.000000)">
                    <path d="M14,127.267044 C14,127.433239 13.9692234,127.650212 13.9076702,127.91797 C13.8461169,128.185726 13.7814883,128.396543 13.7137781,128.550426 C13.5845167,128.858193 13.2090466,129.184421 12.5873594,129.529119 C12.0087565,129.843041 11.4363189,130 10.870028,130 C10.7038351,130 10.5422604,129.989228 10.3852978,129.967685 C10.2283373,129.946141 10.0513754,129.907671 9.85440381,129.852273 C9.65743223,129.796875 9.51124693,129.752249 9.41583756,129.718395 C9.32043026,129.684541 9.14962326,129.621449 8.90341034,129.529119 C8.65719535,129.436789 8.5063918,129.381392 8.45099554,129.362926 C7.84777099,129.147489 7.30918747,128.892047 6.83522842,128.596591 C6.04734418,128.110319 5.23331399,127.447092 4.39311095,126.606889 C3.55290791,125.766686 2.88968065,124.952656 2.4034091,124.164772 C2.10795318,123.690813 1.85251058,123.152229 1.63707386,122.549004 C1.61860789,122.493608 1.56321081,122.342805 1.47088076,122.09659 C1.37855071,121.850377 1.31545937,121.67957 1.2816051,121.584162 C1.24775082,121.488753 1.20312529,121.342568 1.14772728,121.145596 C1.09232927,120.948625 1.05385901,120.771663 1.03231534,120.614702 C1.01077167,120.45774 1,120.296165 1,120.129972 C1,119.563681 1.15695867,118.991243 1.47088076,118.412641 C1.81557947,117.790953 2.14180725,117.415483 2.44957402,117.286222 C2.6034573,117.218512 2.81427432,117.153883 3.08203046,117.09233 C3.34978763,117.030777 3.56676059,117 3.73295556,117 C3.81912842,117 3.88375911,117.009232 3.92684761,117.027699 C4.03764218,117.064631 4.20075762,117.29853 4.41619393,117.729402 C4.48390207,117.846354 4.57622984,118.012547 4.6931814,118.227983 C4.81013295,118.443419 4.91785006,118.638848 5.01633482,118.814275 C5.11482164,118.989703 5.21022687,119.154355 5.30255672,119.308238 C5.32102351,119.33286 5.37488104,119.4098 5.46413343,119.539061 C5.55338582,119.668325 5.61955523,119.777579 5.66264167,119.866831 C5.70573017,119.956083 5.72727235,120.043797 5.72727235,120.129972 C5.72727235,120.253078 5.63956076,120.406959 5.46413343,120.591619 C5.2887061,120.776279 5.09789357,120.945547 4.89168963,121.099432 C4.68548776,121.253315 4.49467523,121.416429 4.3192479,121.588779 C4.14382057,121.761126 4.05610898,121.902698 4.05610898,122.013494 C4.05610898,122.068893 4.07149625,122.138139 4.10227287,122.221235 C4.13304948,122.304332 4.15920992,122.367424 4.1807521,122.410511 C4.20229635,122.453599 4.24538278,122.527462 4.31001347,122.632102 C4.37464622,122.736742 4.41003902,122.795217 4.41619393,122.807527 C4.88399806,123.65081 5.41950413,124.374049 6.02272661,124.977273 C6.62595116,125.580496 7.34919024,126.116002 8.1924728,126.583806 C8.20478262,126.589961 8.2632584,126.625354 8.36789806,126.689987 C8.47253773,126.754617 8.54640077,126.797704 8.58948928,126.819248 C8.63257571,126.84079 8.69566767,126.866951 8.77876515,126.897727 C8.86186056,126.928504 8.93110743,126.943891 8.98650575,126.943891 C9.09730239,126.943891 9.23887358,126.856179 9.41122138,126.680752 C9.58357125,126.505325 9.74668462,126.314512 9.9005677,126.10831 C10.0544528,125.902106 10.2237211,125.711294 10.4083808,125.535867 C10.5930405,125.360439 10.7469215,125.272728 10.870028,125.272728 C10.9562029,125.272728 11.0439166,125.29427 11.133169,125.337358 C11.2224214,125.380445 11.3316751,125.446614 11.4609386,125.535867 C11.5901999,125.625119 11.6671404,125.678976 11.6917621,125.697443 C11.8456452,125.789773 12.0102973,125.885178 12.1857246,125.983665 C12.361152,126.08215 12.5565807,126.189867 12.772017,126.306819 C12.9874533,126.42377 13.1536462,126.516098 13.2705977,126.583806 C13.7014704,126.799242 13.9353693,126.962358 13.9723008,127.073152 C13.9907676,127.116241 14,127.180872 14,127.267044 Z" id="fc-ico_phone"></path>
                </g>
            </g>
        </g>
    </g>
</svg>