<?xml version="1.0" encoding="UTF-8"?>
<svg width="14px" height="14px" viewBox="0 0 14 14" version="1.1" xmlns="http://www.w3.org/2000/svg" xmlns:xlink="http://www.w3.org/1999/xlink">
    <!-- Generator: Sketch 46.1 (44463) - http://www.bohemiancoding.com/sketch -->
    <title>fc-ico_fax</title>
    <desc>Created with Sketch.</desc>
    <defs></defs>
    <g id="Symbols" stroke="none" stroke-width="1" fill="none" fill-rule="evenodd">
        <g id="footer" transform="translate(-136.000000, -271.000000)" fill="#7A8E97">
            <g id="Group-23" transform="translate(135.000000, 70.000000)">
                <g id="Group-22" transform="translate(1.000000, 55.000000)">
                    <path d="M2.2499995,149 C2.593752,149 2.88801975,149.122394 3.13281325,149.367187 C3.377605,149.611981 3.5,149.906249 3.5,150.249999 L3.5,158.75 C3.5,159.093752 3.377605,159.38802 3.13281325,159.632813 C2.88801975,159.877605 2.593752,160 2.2499995,160 L1.24999997,160 C0.90624835,160 0.611980425,159.877605 0.36718745,159.632813 C0.122394615,159.38802 0,159.093752 0,158.75 L0,150.249999 C0,149.906249 0.122394615,149.611981 0.36718745,149.367187 C0.611980425,149.122394 0.90624835,149 1.24999997,149 L2.2499995,149 Z M12.9999993,150.273437 C13.3020842,150.450521 13.5442702,150.692707 13.7265625,151 C13.9088547,151.307293 14,151.640623 14,151.999999 L14,158 C14,158.552086 13.8046895,159.023436 13.4140632,159.414063 C13.0234353,159.804689 12.5520867,160 12.0000002,160 L5.25,160 C4.9062475,160 4.61197975,159.877605 4.367188,159.632813 C4.1223945,159.38802 3.9999995,159.093752 3.9999995,158.75 L3.9999995,146.749999 C3.9999995,146.541665 4.07291675,146.364585 4.2187495,146.21875 C4.364584,146.072915 4.54166475,146 4.7500005,146 L10.0000005,146 C10.2083345,146 10.4374987,146.052084 10.6875002,146.15625 C10.9375017,146.260417 11.1354162,146.385416 11.2812507,146.531249 L12.46875,147.71875 C12.6145845,147.864585 12.7395835,148.062499 12.8437505,148.312501 C12.9479175,148.5625 12.9999993,148.791666 12.9999993,149 L12.9999993,150.273437 Z M7.24999975,158 L7.24999975,157 C7.24999975,156.927082 7.226562,156.867188 7.17968825,156.820313 C7.13281275,156.773438 7.07291725,156.75 7,156.75 L5.99999925,156.75 C5.92708375,156.75 5.86718825,156.773438 5.82031275,156.820313 C5.77343725,156.867188 5.7499995,156.927082 5.7499995,157 L5.7499995,158 C5.7499995,158.072917 5.77343725,158.132813 5.82031275,158.179687 C5.86718825,158.226562 5.92708375,158.25 5.99999925,158.25 L7,158.25 C7.07291725,158.25 7.13281275,158.226562 7.17968825,158.179687 C7.226562,158.132813 7.24999975,158.072917 7.24999975,158 Z M7.24999975,156 L7.24999975,155 C7.24999975,154.927083 7.226562,154.867187 7.17968825,154.820313 C7.13281275,154.773438 7.07291725,154.75 7,154.75 L5.99999925,154.75 C5.92708375,154.75 5.86718825,154.773438 5.82031275,154.820313 C5.77343725,154.867187 5.7499995,154.927083 5.7499995,155 L5.7499995,156 C5.7499995,156.072918 5.77343725,156.132812 5.82031275,156.179687 C5.86718825,156.226562 5.92708375,156.25 5.99999925,156.25 L7,156.25 C7.07291725,156.25 7.13281275,156.226562 7.17968825,156.179687 C7.226562,156.132812 7.24999975,156.072918 7.24999975,156 Z M7.24999975,154.000001 L7.24999975,153 C7.24999975,152.927083 7.226562,152.867187 7.17968825,152.820312 C7.13281275,152.773438 7.07291725,152.75 7,152.75 L5.99999925,152.75 C5.92708375,152.75 5.86718825,152.773438 5.82031275,152.820312 C5.77343725,152.867187 5.7499995,152.927083 5.7499995,153 L5.7499995,154.000001 C5.7499995,154.072916 5.77343725,154.132812 5.82031275,154.179687 C5.86718825,154.226563 5.92708375,154.25 5.99999925,154.25 L7,154.25 C7.07291725,154.25 7.13281275,154.226563 7.17968825,154.179687 C7.226562,154.132812 7.24999975,154.072916 7.24999975,154.000001 Z M9.2499995,158 L9.2499995,157 C9.2499995,156.927082 9.2265635,156.867188 9.179688,156.820313 C9.1328125,156.773438 9.072917,156.75 8.99999975,156.75 L8.00000075,156.75 C7.9270835,156.75 7.867188,156.773438 7.8203125,156.820313 C7.773437,156.867188 7.74999925,156.927082 7.74999925,157 L7.74999925,158 C7.74999925,158.072917 7.773437,158.132813 7.8203125,158.179687 C7.867188,158.226562 7.9270835,158.25 8.00000075,158.25 L8.99999975,158.25 C9.072917,158.25 9.1328125,158.226562 9.179688,158.179687 C9.2265635,158.132813 9.2499995,158.072917 9.2499995,158 Z M9.2499995,156 L9.2499995,155 C9.2499995,154.927083 9.2265635,154.867187 9.179688,154.820313 C9.1328125,154.773438 9.072917,154.75 8.99999975,154.75 L8.00000075,154.75 C7.9270835,154.75 7.867188,154.773438 7.8203125,154.820313 C7.773437,154.867187 7.74999925,154.927083 7.74999925,155 L7.74999925,156 C7.74999925,156.072918 7.773437,156.132812 7.8203125,156.179687 C7.867188,156.226562 7.9270835,156.25 8.00000075,156.25 L8.99999975,156.25 C9.072917,156.25 9.1328125,156.226562 9.179688,156.179687 C9.2265635,156.132812 9.2499995,156.072918 9.2499995,156 Z M9.2499995,154.000001 L9.2499995,153 C9.2499995,152.927083 9.2265635,152.867187 9.179688,152.820312 C9.1328125,152.773438 9.072917,152.75 8.99999975,152.75 L8.00000075,152.75 C7.9270835,152.75 7.867188,152.773438 7.8203125,152.820312 C7.773437,152.867187 7.74999925,152.927083 7.74999925,153 L7.74999925,154.000001 C7.74999925,154.072916 7.773437,154.132812 7.8203125,154.179687 C7.867188,154.226563 7.9270835,154.25 8.00000075,154.25 L8.99999975,154.25 C9.072917,154.25 9.1328125,154.226563 9.179688,154.179687 C9.2265635,154.132812 9.2499995,154.072916 9.2499995,154.000001 Z M11.2499993,158 L11.2499993,157 C11.2499993,156.927082 11.2265633,156.867188 11.1796878,156.820313 C11.1328123,156.773438 11.0729168,156.75 10.9999995,156.75 L10.0000005,156.75 C9.92708325,156.75 9.86718775,156.773438 9.82031225,156.820313 C9.77343675,156.867188 9.75000075,156.927082 9.75000075,157 L9.75000075,158 C9.75000075,158.072917 9.77343675,158.132813 9.82031225,158.179687 C9.86718775,158.226562 9.92708325,158.25 10.0000005,158.25 L10.9999995,158.25 C11.0729168,158.25 11.1328123,158.226562 11.1796878,158.179687 C11.2265633,158.132813 11.2499993,158.072917 11.2499993,158 Z M11.2499993,156 L11.2499993,155 C11.2499993,154.927083 11.2265633,154.867187 11.1796878,154.820313 C11.1328123,154.773438 11.0729168,154.75 10.9999995,154.75 L10.0000005,154.75 C9.92708325,154.75 9.86718775,154.773438 9.82031225,154.820313 C9.77343675,154.867187 9.75000075,154.927083 9.75000075,155 L9.75000075,156 C9.75000075,156.072918 9.77343675,156.132812 9.82031225,156.179687 C9.86718775,156.226562 9.92708325,156.25 10.0000005,156.25 L10.9999995,156.25 C11.0729168,156.25 11.1328123,156.226562 11.1796878,156.179687 C11.2265633,156.132812 11.2499993,156.072918 11.2499993,156 Z M11.2499993,154.000001 L11.2499993,153 C11.2499993,152.927083 11.2265633,152.867187 11.1796878,152.820312 C11.1328123,152.773438 11.0729168,152.75 10.9999995,152.75 L10.0000005,152.75 C9.92708325,152.75 9.86718775,152.773438 9.82031225,152.820312 C9.77343675,152.867187 9.75000075,152.927083 9.75000075,153 L9.75000075,154.000001 C9.75000075,154.072916 9.77343675,154.132812 9.82031225,154.179687 C9.86718775,154.226563 9.92708325,154.25 10.0000005,154.25 L10.9999995,154.25 C11.0729168,154.25 11.1328123,154.226563 11.1796878,154.179687 C11.2265633,154.132812 11.2499993,154.072916 11.2499993,154.000001 Z M12.0000003,151 L12.0000003,149 L10.7499998,149 C10.5416658,149 10.3645833,148.927083 10.2187505,148.78125 C10.072916,148.635416 10.0000005,148.458335 10.0000005,148.25 L10.0000005,147.000001 L5.00000025,147.000001 L5.00000025,151 L12.0000003,151 Z" id="fc-ico_fax"></path>
                </g>
            </g>
        </g>
    </g>
</svg>