<?xml version="1.0" encoding="UTF-8"?>
<svg width="14px" height="13px" viewBox="0 0 14 13" version="1.1" xmlns="http://www.w3.org/2000/svg" xmlns:xlink="http://www.w3.org/1999/xlink">
    <!-- Generator: Sketch 46.1 (44463) - http://www.bohemiancoding.com/sketch -->
    <title>h-ico_phone</title>
    <desc>Created with Sketch.</desc>
    <defs></defs>
    <g id="Symbols" stroke="none" stroke-width="1" fill="none" fill-rule="evenodd">
        <g id="header" transform="translate(-135.000000, -15.000000)" fill="#FFFFFF">
            <g id="Group-3" transform="translate(135.000000, 13.000000)">
                <path d="M13.171428,11.92857 C13.171428,12.089286 13.141666,12.299106 13.082142,12.558036 C13.022618,12.816965 12.96012,13.020832 12.894642,13.1696422 C12.769642,13.4672628 12.40655,13.7827358 11.805358,14.1160708 C11.24583,14.4196438 10.692264,14.571428 10.144642,14.571428 C9.983928,14.571428 9.82768,14.5610114 9.675892,14.540178 C9.524106,14.5193446 9.352978,14.4821426 9.1625,14.4285709 C8.972022,14.3749992 8.830656,14.3318448 8.738392,14.2991066 C8.64613,14.2663684 8.480954,14.205357 8.242858,14.1160708 C8.00476,14.0267846 7.858928,13.9732138 7.805358,13.9553566 C7.22202,13.7470222 6.701192,13.5000008 6.242858,13.2142852 C5.480948,12.7440446 4.693754,12.102682 3.88125,11.290178 C3.068746,10.477674 2.4273834,9.69048 1.9571428,8.92857 C1.6714272,8.470236 1.4244058,7.949408 1.2160714,7.36607 C1.1982142,7.3125 1.1446434,7.166668 1.0553572,6.92857 C0.966071,6.690474 0.9050596,6.525298 0.8723214,6.433036 C0.8395832,6.340772 0.79642884,6.199406 0.74285714,6.008928 C0.68928544,5.81845 0.65208344,5.647322 0.63125,5.495536 C0.610416562,5.343748 0.6,5.1875 0.6,5.026786 C0.6,4.479164 0.7517842,3.925598 1.0553572,3.36607 C1.3886922,2.764878 1.7041652,2.401786 2.0017858,2.276786 C2.150596,2.211308 2.354463,2.14881 2.613392,2.089286 C2.872322,2.029762 3.082142,2 3.242858,2 C3.32619,2 3.38869,2.008928 3.430358,2.026786 C3.5375,2.0625 3.695238,2.288688 3.903572,2.705356 C3.969048,2.818452 4.058332,2.979166 4.171428,3.1875 C4.284524,3.395834 4.38869,3.58482 4.483928,3.754464 C4.579168,3.924108 4.671428,4.083332 4.760714,4.232142 C4.778572,4.255952 4.830654,4.330356 4.916964,4.455356 C5.003274,4.580358 5.067262,4.68601 5.108928,4.77232 C5.150596,4.85863 5.171428,4.943452 5.171428,5.026786 C5.171428,5.145834 5.086608,5.294642 4.916964,5.473214 C4.74732,5.651786 4.562798,5.815474 4.363392,5.964286 C4.163988,6.113096 3.979466,6.270832 3.809822,6.4375 C3.640178,6.604166 3.555358,6.74107 3.555358,6.848214 C3.555358,6.901786 3.570238,6.96875 3.6,7.049106 C3.629762,7.129464 3.65506,7.190476 3.675892,7.232142 C3.696726,7.27381 3.738392,7.345238 3.800892,7.446428 C3.863394,7.547618 3.89762,7.604166 3.903572,7.61607 C4.355954,8.431552 4.873806,9.130948 5.457142,9.714286 C6.04048,10.297622 6.739876,10.815474 7.555358,11.267856 C7.567262,11.273808 7.62381,11.308034 7.725,11.370536 C7.82619,11.433036 7.897618,11.474702 7.939286,11.495536 C7.980952,11.516368 8.041964,11.541666 8.122322,11.571428 C8.202678,11.60119 8.269642,11.61607 8.323214,11.61607 C8.430358,11.61607 8.567262,11.53125 8.733928,11.361606 C8.900596,11.191962 9.058332,11.00744 9.207142,10.808036 C9.355954,10.60863 9.519642,10.424108 9.698214,10.254464 C9.876786,10.08482 10.025594,10 10.144642,10 C10.227976,10 10.312798,10.020832 10.399108,10.0625 C10.485418,10.104166 10.59107,10.168154 10.716072,10.254464 C10.841072,10.340774 10.915476,10.392856 10.939286,10.410714 C11.088096,10.5 11.24732,10.59226 11.416964,10.6875 C11.586608,10.782738 11.775594,10.886904 11.983928,11 C12.192262,11.113096 12.352976,11.20238 12.466072,11.267856 C12.88274,11.47619 13.108928,11.633928 13.144642,11.74107 C13.1625,11.782738 13.171428,11.845238 13.171428,11.92857 Z" id="h-ico_phone"></path>
            </g>
        </g>
    </g>
</svg>