<?xml version="1.0" encoding="UTF-8"?>
<svg width="14px" height="11px" viewBox="0 0 14 11" version="1.1" xmlns="http://www.w3.org/2000/svg" xmlns:xlink="http://www.w3.org/1999/xlink">
    <!-- Generator: Sketch 46.1 (44463) - http://www.bohemiancoding.com/sketch -->
    <title>h-ico_mail</title>
    <desc>Created with Sketch.</desc>
    <defs></defs>
    <g id="Symbols" stroke="none" stroke-width="1" fill="none" fill-rule="evenodd">
        <g id="header" transform="translate(-296.000000, -15.000000)" fill="#FFFFFF">
            <g id="Group-2" transform="translate(296.000000, 13.000000)">
                <path d="M14,5.54687375 L14,11.7499995 C14,12.0937512 13.877605,12.3880191 13.6328132,12.6328121 C13.3880197,12.8776049 13.093752,12.9999995 12.7499995,12.9999995 L1.24999997,12.9999995 C0.90624835,12.9999995 0.611980425,12.8776049 0.36718745,12.6328121 C0.122394615,12.3880191 0,12.0937512 0,11.7499995 L0,5.54687375 C0.22916775,5.80208325 0.4921861,6.0286435 0.789062575,6.2265615 C2.67448825,7.50781875 3.96874625,8.40624775 4.67187525,8.92187475 C4.96875225,9.14062475 5.2096345,9.31119725 5.39453075,9.433594 C5.57942875,9.555989 5.825519,9.680988 6.132812,9.80859275 C6.440105,9.9361975 6.72656075,9.999999 6.992188,9.999999 L7,9.999999 L7.007812,9.999999 C7.27343925,9.999999 7.559895,9.9361975 7.867188,9.80859275 C8.174481,9.680988 8.42057125,9.555989 8.60546925,9.433594 C8.7903655,9.31119725 9.03124775,9.14062475 9.32812475,8.92187475 C10.213546,8.281247 11.510408,7.382818 13.2187493,6.2265615 C13.5156263,6.0234355 13.7760403,5.79687525 14,5.54687375 Z M14,3.24999875 C14,3.6614605 13.872397,4.0546855 13.6171875,4.42968775 C13.361978,4.80468825 13.0442725,5.12499775 12.6640623,5.390625 C10.7057195,6.75000575 9.486981,7.59635125 9.00781175,7.92968775 C8.95572825,7.9661455 8.845053,8.045571 8.67578075,8.16796775 C8.50651025,8.2903645 8.3658855,8.38932175 8.2539065,8.464843 C8.14192575,8.54036425 8.00651075,8.6249995 7.84765625,8.71874875 C7.68880175,8.81249975 7.539063,8.88281125 7.39843825,8.92968675 C7.25781175,8.97656225 7.12760475,9 7.007812,9 L7,9 L6.992188,9 C6.87239525,9 6.74218825,8.97656225 6.60156175,8.92968675 C6.460937,8.88281125 6.31119825,8.81249975 6.15234375,8.71874875 C5.99348925,8.6249995 5.85807425,8.54036425 5.7460935,8.464843 C5.6341145,8.38932175 5.49348975,8.2903645 5.32421925,8.16796775 C5.154947,8.045571 5.04427175,7.9661455 4.99218825,7.92968775 C4.518227,7.59635125 3.83594225,7.12109675 2.945313,6.503905 C2.05468375,5.886715 1.52083418,5.51562575 1.34374993,5.390625 C1.0208317,5.17187325 0.71614725,4.8710955 0.429687475,4.48828125 C0.143227735,4.105467 0,3.75000175 0,3.421875 C0,3.015623 0.108071827,2.67708375 0.324218825,2.40625025 C0.5403657,2.135415 0.848956325,2 1.24999997,2 L12.7499995,2 C13.088544,2 13.3815098,2.12239325 13.6289055,2.36718675 C13.876303,2.61198025 14,2.906248 14,3.24999875 Z" id="h-ico_mail"></path>
            </g>
        </g>
    </g>
</svg>