<?xml version="1.0" encoding="UTF-8"?>
<svg width="20px" height="20px" viewBox="0 0 20 20" version="1.1" xmlns="http://www.w3.org/2000/svg" xmlns:xlink="http://www.w3.org/1999/xlink">
    <!-- Generator: Sketch 46.1 (44463) - http://www.bohemiancoding.com/sketch -->
    <title>ico_cart</title>
    <desc>Created with Sketch.</desc>
    <defs></defs>
    <g id="Symbols" stroke="none" stroke-width="1" fill="none" fill-rule="evenodd">
        <g id="header" transform="translate(-1279.000000, -66.000000)" fill="#B8CBD4">
            <g id="Group" transform="translate(1279.000000, 60.000000)">
                <path d="M6.13953488,18.6511628 C6.13953488,18.8062035 6.21705228,18.8837209 6.37209302,18.8837209 L17.8604651,18.8837209 L17.8604651,20.8837209 L5.95348837,20.8837209 C5.4263546,20.8837209 4.96899274,20.6821715 4.58139386,20.2790698 C4.19379795,19.875968 4,19.4108547 4,18.8837209 C4,18.5736424 4.0775174,18.2635669 4.23255814,17.9534884 L5.58139535,15.4883721 L2,7.95348837 L0,7.95348837 L0,6 L3.25581395,6 C3.87597098,7.30233153 4.49612205,8.62014809 5.11627907,9.95348837 C5.27131981,10.2325581 5.627904,10.9689868 6.18604651,12.1627892 C6.74418902,13.3565946 7.17829358,14.2790668 7.48837209,14.9302326 L14.4651163,14.9302326 C16.7907096,10.7131565 18.0620145,8.38759888 18.2790698,7.95348837 L20,8.93023256 L16.1860465,15.8604651 C15.8139505,16.5426396 15.240314,16.8837209 14.4651163,16.8837209 L7.06976744,16.8837209 L6.18604651,18.5116279 L6.13953488,18.6511628 Z M15.9069767,21.8604651 C16.4341105,21.8604651 16.8914724,22.0620145 17.2790713,22.4651163 C17.6666672,22.8682189 17.8604651,23.3333308 17.8604651,23.8604651 C17.8604651,24.3875995 17.6666672,24.8449593 17.2790713,25.2325581 C16.8914724,25.620157 16.4341105,25.8139535 15.9069767,25.8139535 C15.379843,25.8139535 14.9147297,25.620157 14.5116279,25.2325581 C14.1085261,24.8449593 13.9069767,24.3875995 13.9069767,23.8604651 C13.9069767,23.3333308 14.1085261,22.8682189 14.5116279,22.4651163 C14.9147297,22.0620145 15.379843,21.8604651 15.9069767,21.8604651 Z M5.95348837,21.8604651 C6.48062214,21.8604651 6.94573544,22.0620145 7.34883721,22.4651163 C7.75193898,22.8682189 7.95348837,23.3333308 7.95348837,23.8604651 C7.95348837,24.3875995 7.75193898,24.8449593 7.34883721,25.2325581 C6.94573544,25.620157 6.48062214,25.8139535 5.95348837,25.8139535 C5.4263546,25.8139535 4.96899274,25.620157 4.58139386,25.2325581 C4.19379795,24.8449593 4,24.3875995 4,23.8604651 C4,23.3333308 4.19379795,22.8682189 4.58139386,22.4651163 C4.96899274,22.0620145 5.4263546,21.8604651 5.95348837,21.8604651 Z" id="ico_cart"></path>
            </g>
        </g>
    </g>
</svg>