<?xml version="1.0" encoding="UTF-8"?>
<svg width="14px" height="14px" viewBox="0 0 14 14" version="1.1" xmlns="http://www.w3.org/2000/svg" xmlns:xlink="http://www.w3.org/1999/xlink">
    <!-- Generator: Sketch 47.1 (45422) - http://www.bohemiancoding.com/sketch -->
    <title>help</title>
    <desc>Created with Sketch.</desc>
    <defs></defs>
    <g id="Pages" stroke="none" stroke-width="1" fill="none" fill-rule="evenodd">
        <g id="Thanh-toán---Visa/Master-Card" transform="translate(-755.000000, -1189.000000)" fill="#B8CBD4">
            <g id="Group-15" transform="translate(135.000000, 968.000000)">
                <g id="Group-9" transform="translate(347.000000, 178.000000)">
                    <path d="M281.166666,54.3750006 L281.166666,52.6250004 C281.166666,52.5399303 281.139322,52.4700522 281.084634,52.4153641 C281.029948,52.360676 280.96007,52.333334 280.875,52.333334 L279.125,52.333334 C279.03993,52.333334 278.970052,52.360676 278.915364,52.4153641 C278.860678,52.4700522 278.833334,52.5399303 278.833334,52.6250004 L278.833334,54.3750006 C278.833334,54.4600708 278.860678,54.5299468 278.915364,54.5846349 C278.970052,54.639323 279.03993,54.666667 279.125,54.666667 L280.875,54.666667 C280.96007,54.666667 281.029948,54.639323 281.084634,54.5846349 C281.139322,54.5299468 281.166666,54.4600708 281.166666,54.3750006 Z M283.499999,48.2500008 C283.499999,47.715276 283.331382,47.2200555 282.99414,46.7643228 C282.656899,46.3085922 282.236114,45.9561638 281.731771,45.7070315 C281.227429,45.4578992 280.71094,45.333333 280.182291,45.333333 C278.705721,45.333333 277.578562,45.9804617 276.800781,47.2747395 C276.709635,47.4205737 276.733941,47.5481758 276.873697,47.657552 L278.076823,48.5690112 C278.119359,48.6054692 278.177083,48.6236972 278.250001,48.6236972 C278.347223,48.6236972 278.423177,48.5872392 278.477865,48.5143231 C278.799916,48.1011265 279.061198,47.8216162 279.261718,47.675782 C279.468316,47.5299478 279.729599,47.4570317 280.045573,47.4570317 C280.337241,47.4570317 280.597005,47.5360238 280.824869,47.69401 C281.052735,47.8519983 281.166666,48.0312484 281.166666,48.2317707 C281.166666,48.4626751 281.105902,48.6480033 280.984374,48.7877615 C280.862846,48.9275176 280.656252,49.0642358 280.364583,49.197916 C279.981769,49.3680562 279.630862,49.6308575 279.311849,49.986328 C278.992837,50.3417985 278.833334,50.7230879 278.833334,51.1302085 L278.833334,51.4583329 C278.833334,51.543403 278.860678,51.6132811 278.915364,51.6679692 C278.970052,51.7226572 279.03993,51.7499992 279.125,51.7499992 L280.875,51.7499992 C280.96007,51.7499992 281.029948,51.7226572 281.084634,51.6679692 C281.139322,51.6132811 281.166666,51.543403 281.166666,51.4583329 C281.166666,51.3428807 281.231988,51.1924915 281.36263,51.0071613 C281.493274,50.821831 281.658853,50.6714419 281.859375,50.5559897 C282.05382,50.4466136 282.20269,50.3600265 282.30599,50.2962244 C282.409288,50.2324223 282.549044,50.1260862 282.725261,49.977214 C282.901477,49.8283418 283.036674,49.6825096 283.13086,49.5397134 C283.225044,49.3969172 283.310112,49.213108 283.386068,48.9882817 C283.462022,48.7634534 283.499999,48.5173631 283.499999,48.2500008 Z M286.061197,46.4908865 C286.68707,47.560336 287,48.7300293 287,50.000001 C287,51.2699707 286.68707,52.441183 286.061197,53.5136725 C285.435326,54.58616 284.58616,55.4353267 283.513673,56.061198 C282.441183,56.6870691 281.269971,57 279.999999,57 C278.730029,57 277.558817,56.6870691 276.486327,56.061198 C275.41384,55.4353267 274.564673,54.58616 273.938802,53.5136725 C273.312931,52.441183 273,51.2699707 273,50.000001 C273,48.7300293 273.312931,47.558817 273.938802,46.4863275 C274.564673,45.41384 275.41384,44.5646741 276.486327,43.9388032 C277.558817,43.3129303 278.730029,43 279.999999,43 C281.269971,43 282.441183,43.3129303 283.513673,43.9388032 C284.58616,44.5646741 285.435326,45.415359 286.061197,46.4908865 Z" id="help"></path>
                </g>
            </g>
        </g>
    </g>
</svg>