<?xml version="1.0" encoding="UTF-8"?>
<svg width="13px" height="14px" viewBox="0 0 13 14" version="1.1" xmlns="http://www.w3.org/2000/svg" xmlns:xlink="http://www.w3.org/1999/xlink">
    <!-- Generator: Sketch 46.1 (44463) - http://www.bohemiancoding.com/sketch -->
    <title>Page 1</title>
    <desc>Created with Sketch.</desc>
    <defs></defs>
    <g id="Tài-khoản" stroke="none" stroke-width="1" fill="none" fill-rule="evenodd">
        <g id="Thông-tin-tài-khoản" transform="translate(-1055.000000, -505.000000)" fill="#B8CBD4">
            <g id="Group-4" transform="translate(885.000000, 462.000000)">
                <path d="M181.180328,55.5901639 L181.180328,47.9180328 L171.409836,47.9180328 L171.409836,55.5901639 L181.180328,55.5901639 Z M179.081967,43 L180.491803,43 L180.491803,44.4098361 L181.180328,44.4098361 C181.551914,44.4098361 181.879781,44.5519119 182.163934,44.8360656 C182.448088,45.1202193 182.590164,45.448086 182.590164,45.8196721 L182.590164,55.5901639 C182.590164,55.9617505 182.448088,56.2896162 182.163934,56.5737705 C181.879781,56.8579249 181.551914,57 181.180328,57 L171.409836,57 C171.016392,57 170.683062,56.8579249 170.409836,56.5737705 C170.136611,56.2896162 170,55.9617505 170,55.5901639 L170,45.8196721 C170,45.448086 170.136611,45.1202193 170.409836,44.8360656 C170.683062,44.5519119 171.016392,44.4098361 171.409836,44.4098361 L172.098361,44.4098361 L172.098361,43 L173.508197,43 L173.508197,44.4098361 L179.081967,44.4098361 L179.081967,43 Z" id="Page-1"></path>
            </g>
        </g>
    </g>
</svg>