<?xml version="1.0" encoding="UTF-8"?>
<svg width="14px" height="14px" viewBox="0 0 14 14" version="1.1" xmlns="http://www.w3.org/2000/svg" xmlns:xlink="http://www.w3.org/1999/xlink">
    <!-- Generator: Sketch 46.1 (44463) - http://www.bohemiancoding.com/sketch -->
    <title>Page 1</title>
    <desc>Created with Sketch.</desc>
    <defs></defs>
    <g id="Pages" stroke="none" stroke-width="1" fill="none" fill-rule="evenodd">
        <g id="Trang-chủ" transform="translate(-235.000000, -363.000000)" fill="#2D9DD5">
            <g id="Group-5" transform="translate(232.000000, 240.000000)">
                <g id="Group-4" transform="translate(3.000000, 118.000000)">
                    <path d="M2.03125,7.0625 C3.406256,5.687494 5.06249,5 7,5 C8.93751,5 10.588534,5.682284 11.953124,7.046876 C13.317716,8.411466 14,10.06249 14,12 C14,13.93751 13.317716,15.588534 11.953124,16.953124 C10.588534,18.3177152 8.93751,19 7,19 C5.06249,19 3.411466,18.3177152 2.046876,16.953124 C0.6822848,15.588534 0,13.93751 0,12 C0,10.06249 0.6770766,8.416674 2.03125,7.0625 Z M10.59375,9.65625 C10.614584,9.635416 10.625,9.604166 10.625,9.5625 C10.625,9.5 10.614584,9.458334 10.59375,9.4375 L9.625,8.6875 C9.604166,8.666666 9.5625,8.65625 9.5,8.65625 C9.458334,8.65625 9.427084,8.666666 9.40625,8.6875 L5.9375,13.15625 C5.020828,12.281246 4.552084,11.833334 4.53125,11.8125 C4.46875,11.75 4.40625,11.71875 4.34375,11.71875 C4.322916,11.71875 4.28125,11.75 4.21875,11.8125 L3.4375,12.59375 L3.40625,12.625 C3.385416,12.645834 3.375,12.6875 3.375,12.75 C3.375,12.791666 3.385416,12.822916 3.40625,12.84375 L3.46875,12.875 C5.093758,14.437508 5.916666,15.229166 5.9375,15.25 C6,15.3125 6.052084,15.34375 6.09375,15.34375 C6.135416,15.34375 6.1875,15.3125 6.25,15.25 L10.59375,9.65625 Z" id="Page-1"></path>
                </g>
            </g>
        </g>
    </g>
</svg>