<svg height="32" viewBox="0 0 161 32" width="161" xmlns="http://www.w3.org/2000/svg" xmlns:xlink="http://www.w3.org/1999/xlink"><mask id="a" fill="#fff"><path d="m0 31.8223036h160.957301v-31.82226505h-160.957301z" fill="#fff" fill-rule="evenodd"/></mask><g fill="#1f99d5" fill-rule="evenodd"><path d="m51.7775807 15.4346024v-.0285301c0-2.8526265 2.1359036-5.1886265 5.1739759-5.1886265 1.8490603 0 2.966747.6457831 3.9271326 1.5626024l-1.1323374 1.3039036c-.8030843-.745253-1.6624578-1.2472289-2.8090602-1.2472289-1.9207711 0-3.3110362 1.5776385-3.3110362 3.5404337v.0289157c0 1.9627952 1.3902651 3.5678072 3.3110362 3.5678072 1.2318072 0 2.0206265-.5019759 2.8803855-1.3039036l1.1319518 1.1462169c-1.0455903 1.0891566-2.1921928 1.7769638-4.0697831 1.7769638-2.9235663 0-5.1022651-2.2781686-5.1022651-5.1585542z"/><path d="m62.8858602 10.3901687h1.8775904l3.0531084 4.7433253 3.0527229-4.7433253h1.8764338v10.0314217h-1.7623133v-7.194988l-3.1668434 4.7302169h-.0578313l-3.1379277-4.7009157v7.1656868h-1.7349398z"/><path d="m74.9699855 15.4346024v-.0285301c0-2.8526265 2.1359037-5.1886265 5.1743615-5.1886265 1.8486747 0 2.9663614.6457831 3.926747 1.5626024l-1.1323374 1.3039036c-.8030843-.745253-1.6624578-1.2472289-2.8090602-1.2472289-1.9207711 0-3.3110362 1.5776385-3.3110362 3.5404337v.0289157c0 1.9627952 1.3902651 3.5678072 3.3110362 3.5678072 1.2318072 0 2.0206265-.5019759 2.8803855-1.3039036l1.1319518 1.1462169c-1.0455903 1.0891566-2.1921927 1.7769638-4.0697831 1.7769638-2.9231807 0-5.1022651-2.2781686-5.1022651-5.1585542"/><path d="m92.9306602 12.0238265h-3.1811084v-1.6335422h8.1391807v1.6335422h-3.1811084v8.397494h-1.7769639z"/><path d="m99.8252337 10.3901687h7.4382653v1.5760964h-5.674795v2.6085783h5.030168v1.5764819h-5.030168v2.6941687h5.746891v1.5760964h-7.5103613z"/><path d="m109.51441 10.3901687h1.76347v8.4260241h5.273831v1.6053976h-7.037301z"/><path d="m118.473754 10.3901687h7.438265v1.5760964h-5.674795v2.6085783h5.030169v1.5764819h-5.030169v2.6941687h5.746892v1.5760964h-7.510362z"/><path d="m127.718863 15.4346024v-.0285301c0-2.8526265 2.135518-5.1886265 5.173976-5.1886265 1.84906 0 2.966747.6457831 3.926747 1.5626024l-1.131952 1.3039036c-.803085-.745253-1.662458-1.2472289-2.809061-1.2472289-1.920771 0-3.311036 1.5776385-3.311036 3.5404337v.0289157c0 1.9627952 1.390265 3.5678072 3.311036 3.5678072 1.231808 0 2.020627-.5019759 2.88-1.3039036l1.132338 1.1462169c-1.045976 1.0891566-2.192193 1.7769638-4.070169 1.7769638-2.923181 0-5.101879-2.2781686-5.101879-5.1585542"/><path d="m147.026467 15.4346024v-.0285301c0-1.9500723-1.41918-3.5693494-3.410891-3.5693494-1.992482 0-3.382747 1.590747-3.382747 3.5404337v.0289157c0 1.9481446 1.419181 3.5678072 3.410506 3.5678072 1.992867 0 3.383132-1.590747 3.383132-3.5392771m-8.642698 0v-.0285301c0-2.8237109 2.179084-5.1886265 5.259566-5.1886265 3.081638 0 5.231807 2.336 5.231807 5.1597108v.0289157c0 2.8233253-2.178699 5.1870843-5.259566 5.1870843-3.081639 0-5.231807-2.336-5.231807-5.1585542"/><path d="m151.097253 10.3901687h1.87759l3.053109 4.7433253 3.052723-4.7433253h1.876433v10.0314217h-1.762313v-7.194988l-3.166843 4.7302169h-.057832l-3.137927-4.7009157v7.1656868h-1.73494z"/><path d="m53.4613205 26.5020145h-1.5795663v-.8111808h4.0397109v.8111808h-1.5784097v4.1684819h-.8817349z"/><path d="m59.7199807 28.8137253v-.0142651c0-.6615903-.4761446-1.2098313-1.152-1.2098313-.6901205 0-1.1307952.5409157-1.1307952 1.1951807v.0146506c0 .6542651.4761446 1.2094458 1.1450603 1.2094458.6966747 0 1.1377349-.5482409 1.1377349-1.1951807m-3.1437108 0v-.0142651c0-1.074506.8528193-1.9631807 2.0059759-1.9631807 1.1523855 0 1.998265.8744097 1.998265 1.9485301v.0146506c0 1.0664097-.8528192 1.9558555-2.0125301 1.9558555-1.1454458 0-1.9917108-.8747952-1.9917108-1.9415904"/><path d="m61.1789494 26.9138892h.8817349l.7545061 2.5758072.8316144-2.5900723h.7321446l.8397108 2.5900723.7687711-2.5758072h.8609157l-1.2306506 3.7848674h-.7687711l-.8397108-2.5684819-.8462651 2.5684819h-.768z"/><path d="m69.978641 29.0983711c-.2205302-.0852048-.5274217-.1495904-.8605302-.1495904-.5420722 0-.8609156.2205301-.8609156.5825542v.0146506c0 .3554699.3188434.5551808.7255903.5551808.5682892 0 .9958555-.3203856.9958555-.7899759zm-.0223615 1.5718554v-.4618795c-.2556144.3057349-.6465542.5405301-1.216.5405301-.7113253 0-1.3370602-.4055904-1.3370602-1.1600964v-.014265c0-.8316145.6469397-1.2306506 1.5221205-1.2306506.4549397 0 .7464096.0643855 1.0386506.1561445v-.0705542c0-.5197108-.3277109-.8042409-.9249157-.8042409-.4194699 0-.7329157.0929156-1.074506.2347951l-.2347952-.6901204c.4133012-.1846747.8188916-.3122892 1.4299759-.3122892 1.1099759 0 1.6508916.5825542 1.6508916 1.5861205v2.226506z"/><path d="m71.877359 26.9138892h.8605302v.846265c.2347951-.5617349.6693012-.9461205 1.330506-.9172048v.9106506h-.049735c-.754506 0-1.280771.4907952-1.280771 1.4866506v1.4299759h-.8605302z"/><path d="m77.7039807 28.7994217v-.0146506c0-.7255904-.5131566-1.201735-1.0891566-1.201735-.5902651 0-1.0810602.4549398-1.0810602 1.201735v.0146506c0 .7255903.498506 1.2017349 1.0810602 1.2017349.576 0 1.0891566-.4830843 1.0891566-1.2017349m-3.0373012 0v-.0146506c0-1.2449157.8462651-1.9485301 1.7422651-1.9485301.6191807 0 1.0101205.3126747 1.2803855.6615903v-2.0206265h.8609157v5.193253h-.8609157v-.6261205c-.2768193.3909398-.6689156.7047711-1.2803855.7047711-.881735 0-1.7422651-.7047711-1.7422651-1.9496867"/><path d="m79.3532916 30.1797012.3843855-.5840964c.4055904.305735.8462651.4634217 1.2306506.4634217.3701205 0 .5829398-.1576867.5829398-.4055904v-.014265c0-.2914699-.3978795-.3913253-.8389398-.5266506-.5547952-.1569157-1.1739759-.3843856-1.1739759-1.1030362v-.014265c0-.7113253.5902651-1.1454458 1.3370602-1.1454458.4695904 0 .9815904.1638554 1.380241.4275663l-.3412048.6114698c-.3631807-.2205301-.7475663-.3554698-1.060241-.3554698-.3346506 0-.526265.1561445-.526265.3762891v.0142651c0 .2706506.4055903.3843855.8466506.5266506.5470843.1704096 1.166265.4198554 1.166265 1.0953253v.0146506c0 .7895903-.6114698 1.1805301-1.394506 1.1805301-.5328193 0-1.1234699-.1916145-1.5930602-.5613494"/><path d="m85.6064771 29.6311518v-1.9770602h-.4773012v-.740241h.4773012v-1.0313253h.8605301v1.0313253h1.0105061v.740241h-1.0105061v1.8417349c0 .3350362.1707952.4699759.4618795.4699759.1916145 0 .3635663-.0420241.533976-.1276144v.7036144c-.2135904.1218313-.4553254.1927711-.7753254.1927711-.6334457 0-1.0810602-.2779759-1.0810602-1.1034217"/><path d="m88.387894 25.4771663h.8605301v2.0206265c.2417349-.3558555.5906506-.6615904 1.1743614-.6615904.8462651 0 1.3370603.5686747 1.3370603 1.4438554v2.3903615h-.8605301v-2.134747c0-.5825542-.2914699-.9172048-.804241-.9172048-.4973494 0-.8466506.3489156-.8466506.9318554v2.1200964h-.8605301z"/><path d="m95.4163277 28.5291181c-.0574458-.5547952-.3843855-.9889157-.9538313-.9889157-.5258795 0-.896.4048193-.9746506.9889157zm-2.7813012.2768192v-.0131084c0-1.0748916.7610602-1.9566265 1.8351807-1.9566265 1.1951808 0 1.7989398.9384096 1.7989398 2.0198554 0 .0786506-.0065542.1573012-.0131084.2425061h-2.760482c.0921446.6114698.5262651.9522891 1.0810603.9522891.4198554 0 .7190361-.1561446 1.0170602-.4472289l.5050602.4472289c-.3554698.4279518-.846265.7043856-1.5363855.7043856-1.088 0-1.9273253-.7892049-1.9273253-1.9493013z"/><path d="m102.202294 28.7994217v-.0146506c0-.7255904-.512771-1.201735-1.088771-1.201735-.590265 0-1.08106.4549398-1.08106 1.201735v.0146506c0 .7255903.498506 1.2017349 1.08106 1.2017349.576 0 1.088771-.4830843 1.088771-1.2017349m-3.0373012 0v-.0146506c0-1.2449157.8462652-1.9485301 1.7426502-1.9485301.619181 0 1.010121.3126747 1.280386.6615903v-2.0206265h.86053v5.193253h-.86053v-.6261205c-.276819.3909398-.668916.7047711-1.280386.7047711-.88212 0-1.7426502-.7047711-1.7426502-1.9496867"/><path d="m104.207422 30.6703036h.86053v-3.7563373h-.86053zm-.03547-4.3323373h.924915v-.8173494h-.924915z" mask="url(#a)"/><path d="m109.080135 28.6142072v-.014265c0-.6184097-.50506-1.0378795-1.103036-1.0378795-.597205 0-1.066795.4121445-1.066795 1.0309397v.0146506c0 .6180241.476144 1.0378795 1.066795 1.0378795.597976 0 1.103036-.4264096 1.103036-1.0313253m-2.852241 2.760482.32-.6480964c.397879.2494458.825446.3990361 1.33706.3990361.768771 0 1.18747-.3990361 1.18747-1.1523855v-.2918554c-.312289.4048192-.703229.6901204-1.32241.6901204-.881734 0-1.70718-.6550361-1.70718-1.7573012v-.014265c0-1.1099759.832-1.7634699 1.70718-1.7634699.63229 0 1.024386.2914699 1.315856.6403855v-.5628915h.86053v2.9875662c0 .6334458-.163855 1.1030362-.476145 1.4157109-.342361.3419759-.868241.5050602-1.544096.5050602-.619181 0-1.195566-.1561446-1.678265-.4476144" mask="url(#a)"/><path d="m111.086265 30.6703036h.86053v-3.7563373h-.86053zm-.03547-4.3323373h.924916v-.8173494h-.924916z" mask="url(#a)"/><path d="m113.29172 29.6311518v-1.9770602h-.477301v-.740241h.477301v-1.0313253h.860531v1.0313253h1.010506v.740241h-1.010506v1.8417349c0 .3350362.170795.4699759.462265.4699759.191614 0 .36318-.0420241.53359-.1276144v.7036144c-.21359.1218313-.45494.1927711-.775325.1927711-.633446 0-1.081061-.2779759-1.081061-1.1034217" mask="url(#a)"/><path d="m118.391672 29.0983711c-.22053-.0852048-.527421-.1495904-.86053-.1495904-.541687 0-.862072.2205301-.862072.5825542v.0146506c0 .3554699.320385.5551808.726747.5551808.568289 0 .995855-.3203856.995855-.7899759zm-.021976 1.5718554v-.4618795c-.256.3057349-.646939.5405301-1.216385.5405301-.711325 0-1.33706-.4055904-1.33706-1.1600964v-.014265c0-.8316145.646939-1.2306506 1.52212-1.2306506.455325 0 .74641.0643855 1.039036.1561445v-.0705542c0-.5197108-.328096-.8042409-.924915-.8042409-.419856 0-.733302.0929156-1.074506.2347951l-.235181-.6901204c.413301-.1846747.818891-.3122892 1.430361-.3122892 1.109976 0 1.650506.5825542 1.650506 1.5861205v2.226506z" mask="url(#a)"/><path d="m120.340434 30.6703036h.86053v-5.193253h-.86053z" mask="url(#a)"/><path d="m124.735614 27.6540916h-.476144v-.7178796h.476144v-.2714216c0-.4186988.107567-.7325302.306892-.9314699.198554-.1997109.47653-.2984097.846265-.2984097.299181 0 .50506.0424097.696675.0986988v.7255904c-.17041-.0566747-.32-.091759-.50506-.091759-.326555 0-.49735.1781204-.49735.5690602v.2062651h.995856v.7113253h-.981591v3.0160964h-.861687z" mask="url(#a)"/><path d="m127.220357 29.3043277v-2.3903614h.86053v2.134747c0 .5825542.29147.9172048.803084.9172048.498506 0 .846265-.3481446.846265-.9318554v-2.1200964h.860916v3.7563373h-.860916v-.5840964c-.241349.3558555-.590265.662747-1.172819.662747-.846651 0-1.33706-.5690602-1.33706-1.4446265" mask="url(#a)"/><path d="m131.892627 29.6311518v-1.9770602h-.477302v-.740241h.477302v-1.0313253h.86053v1.0313253h1.010506v.740241h-1.010506v1.8417349c0 .3350362.170795.4699759.462265.4699759.191614 0 .36318-.0420241.53359-.1276144v.7036144c-.21359.1218313-.45494.1927711-.775325.1927711-.633446 0-1.08106-.2779759-1.08106-1.1034217" mask="url(#a)"/><path d="m134.632096 29.3043277v-2.3903614h.860531v2.134747c0 .5825542.291469.9172048.803084.9172048.498506 0 .84665-.3481446.84665-.9318554v-2.1200964h.861687v3.7563373h-.861687v-.5840964c-.241734.3558555-.59065.662747-1.173204.662747-.846265 0-1.337061-.5690602-1.337061-1.4446265" mask="url(#a)"/><path d="m139.11946 26.9138892h.86053v.846265c.235181-.5617349.669302-.9461205 1.330506-.9172048v.9106506h-.049735c-.754506 0-1.280771.4907952-1.280771 1.4866506v1.4299759h-.86053z" mask="url(#a)"/><path d="m144.67574 28.5291181c-.057446-.5547952-.384386-.9889157-.953832-.9889157-.525879 0-.896.4048193-.97465.9889157zm-2.781301.2768192v-.0131084c0-1.0748916.76106-1.9566265 1.83518-1.9566265 1.195181 0 1.79894.9384096 1.79894 2.0198554 0 .0786506-.006554.1573012-.013108.2425061h-2.760482c.092144.6114698.526265.9522891 1.08106.9522891.419855 0 .719036-.1561446 1.01706-.4472289l.50506.4472289c-.355469.4279518-.846265.7043856-1.536385.7043856-1.088 0-1.927325-.7892049-1.927325-1.9493013z" mask="url(#a)"/><path d="m13.4088096 25.5904771c-.0466506.5420723-.3708915.8566747-.6423132 1.0266988-.8574458.4240964-1.8205301.666988-2.84375905.666988-3.57166265 0-6.46631325-2.8958073-6.46631325-6.468241 0-3.5716627 2.8946506-6.4663133 6.46631325-6.4663133.61493975 0 1.20828915.0871326 1.77079515.2471326v-3.5423615c-.5748433-.1044819-1.1658795-.1623132-1.77079515-.1623132-5.47971084 0-9.9226988 4.4441445-9.9226988 9.9238554 0 5.481253 4.44298796 9.924241 9.9226988 9.924241 2.47209635 0 4.78226505-.9754217 6.16520485-2.1902651.0863614-.0952289.1815903-.182747.3026506-.378988l.0647711-.1006265c.0397108-.064771.123759-.2097349.133012-.2293976.0666988-.1438072.1256868-.3061204.1711807-.4919518.0011567-.0057831.0023133-.009253.0034699-.0150361.004241-.0192771.0077108-.0420241.0111807-.0613012.0080964-.0350843.013494-.0713253.0192771-.1075663.0088675-.0566747.0181205-.1137349.0250603-.173494.0065542-.0501204.0169638-.2008674.0212048-.2529156v-3.6426024l-3.4309398-4.9488193z" mask="url(#a)"/><path d="m33.2561349 11.5144096c-.6932048.2721928-2.3240482 1.0536868-3.6059759 2.7755181l-.0088674-.0077108-6.3093976 9.0791325-6.3078554-9.0791325-.0100241.0077108c-1.2807711-1.7218313-2.912-2.5033253-3.6052049-2.7755181v3.6275663l9.9230844 14.2831807 9.9242409-14.2831807z" mask="url(#a)"/><path d="m36.7414747 10.892453c-.6045301 0-1.1955663.0578313-1.7696386.1623133v3.5423614c.5628916-.16 1.1546988-.2482891 1.7696386-.2482891 3.5732048 0 6.4701687 2.8958072 6.4701687 6.4674698 0 3.5708916-2.8969639 6.468241-6.4701687 6.468241-1.0220723 0-1.9847711-.2440482-2.843759-.6673735-.2710362-.1696386-.5952771-.4853976-.6419277-1.0263132v-7.4436627l-3.4301687 4.9492048v3.6426024c.0046265.0516627.013494.2027952.0204337.2529157.0065542.059759.0158072.1168193.0250603.173494.0065542.0362409.0123373.0724819.0188915.1075662.0050121.0192771.0069398.0420241.0115663.0613012.0011566.0046265.0023132.009253.0034699.0138796.0451084.1858313.1056385.3481445.1711807.4919518.009253.0204337.0933012.1657831.1326265.2293976.0011566.0011566.0647711.1017831.0647711.1017831.1214458.1962409.2178313.283759.3030361.3789879 1.3837109 1.2148434 3.6931085 2.189494 6.1648193 2.189494 5.4820241 0 9.9253976-4.4422169 9.9253976-9.9234699 0-5.4808674-4.4433735-9.9238554-9.9253976-9.9238554" mask="url(#a)"/><path d="m17.0264675 11.2964241c-.0963856-.4422169-.1472771-.9017831-.1472771-1.37253012 0-3.56510844 2.8888674-6.45397591 6.4528192-6.45397591 3.565494 0 6.4543615 2.88886747 6.4543615 6.45397591 0 .47074702-.0524338.93031322-.1476627 1.37253012 1.0629398-.7757108 2.2858796-1.344 3.6106024-1.64896386-.1472771-5.35286747-4.5289638-9.64742169-9.9173012-9.64742169-5.3879518 0-9.7696385 4.29455422-9.9161445 9.64742169 1.3239518.30496386 2.5480482.87325306 3.6106024 1.64896386" mask="url(#a)"/></g></svg>