<?xml version="1.0" encoding="UTF-8"?>
<svg width="161px" height="32px" viewBox="0 0 161 32" version="1.1" xmlns="http://www.w3.org/2000/svg" xmlns:xlink="http://www.w3.org/1999/xlink">
    <!-- Generator: Sketch 46.1 (44463) - http://www.bohemiancoding.com/sketch -->
    <title>logo</title>
    <desc>Created with Sketch.</desc>
    <defs>
        <polygon id="path-1" points="0 31.8223036 160.957301 31.8223036 160.957301 3.85542169e-05 0 3.85542169e-05"></polygon>
    </defs>
    <g id="Symbols" stroke="none" stroke-width="1" fill="none" fill-rule="evenodd">
        <g id="footer" transform="translate(-135.000000, -73.000000)">
            <g id="Group-23" transform="translate(135.000000, 70.000000)">
                <g id="logo" transform="translate(0.000000, 3.000000)">
                    <path d="M51.7775807,15.4346024 L51.7775807,15.4060723 C51.7775807,12.5534458 53.9134843,10.2174458 56.9515566,10.2174458 C58.8006169,10.2174458 59.9183036,10.8632289 60.8786892,11.7800482 L59.7463518,13.0839518 C58.9432675,12.3386988 58.083894,11.8367229 56.9372916,11.8367229 C55.0165205,11.8367229 53.6262554,13.4143614 53.6262554,15.3771566 L53.6262554,15.4060723 C53.6262554,17.3688675 55.0165205,18.9738795 56.9372916,18.9738795 C58.1690988,18.9738795 58.9579181,18.4719036 59.8176771,17.6699759 L60.9496289,18.8161928 C59.9040386,19.9053494 58.7574361,20.5931566 56.8798458,20.5931566 C53.9562795,20.5931566 51.7775807,18.314988 51.7775807,15.4346024 Z" id="Fill-1" fill="#7A8E97"></path>
                    <polygon id="Fill-3" fill="#7A8E97" points="62.8858602 10.3901687 64.7634506 10.3901687 67.816559 15.133494 70.8692819 10.3901687 72.7457157 10.3901687 72.7457157 20.4215904 70.9834024 20.4215904 70.9834024 13.2266024 67.816559 17.9568193 67.7587277 17.9568193 64.6208 13.2559036 64.6208 20.4215904 62.8858602 20.4215904"></polygon>
                    <path d="M74.9699855,15.4346024 L74.9699855,15.4060723 C74.9699855,12.5534458 77.1058892,10.2174458 80.144347,10.2174458 C81.9930217,10.2174458 83.1107084,10.8632289 84.071094,11.7800482 L82.9387566,13.0839518 C82.1356723,12.3386988 81.2762988,11.8367229 80.1296964,11.8367229 C78.2089253,11.8367229 76.8186602,13.4143614 76.8186602,15.3771566 L76.8186602,15.4060723 C76.8186602,17.3688675 78.2089253,18.9738795 80.1296964,18.9738795 C81.3615036,18.9738795 82.1503229,18.4719036 83.0100819,17.6699759 L84.1420337,18.8161928 C83.0964434,19.9053494 81.949841,20.5931566 80.0722506,20.5931566 C77.1490699,20.5931566 74.9699855,18.314988 74.9699855,15.4346024" id="Fill-5" fill="#7A8E97"></path>
                    <polygon id="Fill-7" fill="#7A8E97" points="92.9306602 12.0238265 89.7495518 12.0238265 89.7495518 10.3902843 97.8887325 10.3902843 97.8887325 12.0238265 94.7076241 12.0238265 94.7076241 20.4213205 92.9306602 20.4213205"></polygon>
                    <polygon id="Fill-9" fill="#7A8E97" points="99.8252337 10.3901687 107.263499 10.3901687 107.263499 11.9662651 101.588704 11.9662651 101.588704 14.5748434 106.618872 14.5748434 106.618872 16.1513253 101.588704 16.1513253 101.588704 18.845494 107.335595 18.845494 107.335595 20.4215904 99.8252337 20.4215904"></polygon>
                    <polygon id="Fill-11" fill="#7A8E97" points="109.51441 10.3901687 111.27788 10.3901687 111.27788 18.8161928 116.551711 18.8161928 116.551711 20.4215904 109.51441 20.4215904"></polygon>
                    <polygon id="Fill-13" fill="#7A8E97" points="118.473754 10.3901687 125.912019 10.3901687 125.912019 11.9662651 120.237224 11.9662651 120.237224 14.5748434 125.267393 14.5748434 125.267393 16.1513253 120.237224 16.1513253 120.237224 18.845494 125.984116 18.845494 125.984116 20.4215904 118.473754 20.4215904"></polygon>
                    <path d="M127.718863,15.4346024 L127.718863,15.4060723 C127.718863,12.5534458 129.854381,10.2174458 132.892839,10.2174458 C134.741899,10.2174458 135.859586,10.8632289 136.819586,11.7800482 L135.687634,13.0839518 C134.884549,12.3386988 134.025176,11.8367229 132.878573,11.8367229 C130.957802,11.8367229 129.567537,13.4143614 129.567537,15.3771566 L129.567537,15.4060723 C129.567537,17.3688675 130.957802,18.9738795 132.878573,18.9738795 C134.110381,18.9738795 134.8992,18.4719036 135.758573,17.6699759 L136.890911,18.8161928 C135.844935,19.9053494 134.698718,20.5931566 132.820742,20.5931566 C129.897561,20.5931566 127.718863,18.314988 127.718863,15.4346024" id="Fill-15" fill="#7A8E97"></path>
                    <path d="M147.026467,15.4346024 L147.026467,15.4060723 C147.026467,13.456 145.607287,11.8367229 143.615576,11.8367229 C141.623094,11.8367229 140.232829,13.4274699 140.232829,15.3771566 L140.232829,15.4060723 C140.232829,17.3542169 141.65201,18.9738795 143.643335,18.9738795 C145.636202,18.9738795 147.026467,17.3831325 147.026467,15.4346024 M138.383769,15.4346024 L138.383769,15.4060723 C138.383769,12.5823614 140.562853,10.2174458 143.643335,10.2174458 C146.724973,10.2174458 148.875142,12.5534458 148.875142,15.3771566 L148.875142,15.4060723 C148.875142,18.2293976 146.696443,20.5931566 143.615576,20.5931566 C140.533937,20.5931566 138.383769,18.2571566 138.383769,15.4346024" id="Fill-17" fill="#7A8E97"></path>
                    <polygon id="Fill-19" fill="#7A8E97" points="151.097253 10.3901687 152.974843 10.3901687 156.027952 15.133494 159.080675 10.3901687 160.957108 10.3901687 160.957108 20.4215904 159.194795 20.4215904 159.194795 13.2266024 156.027952 17.9568193 155.97012 17.9568193 152.832193 13.2559036 152.832193 20.4215904 151.097253 20.4215904"></polygon>
                    <polygon id="Fill-21" fill="#7A8E97" points="53.4613205 26.5020145 51.8817542 26.5020145 51.8817542 25.6908337 55.9214651 25.6908337 55.9214651 26.5020145 54.3430554 26.5020145 54.3430554 30.6704964 53.4613205 30.6704964"></polygon>
                    <path d="M59.7199807,28.8137253 L59.7199807,28.7994602 C59.7199807,28.1378699 59.2438361,27.5896289 58.5679807,27.5896289 C57.8778602,27.5896289 57.4371855,28.1305446 57.4371855,28.7848096 L57.4371855,28.7994602 C57.4371855,29.4537253 57.9133301,30.008906 58.5822458,30.008906 C59.2789205,30.008906 59.7199807,29.4606651 59.7199807,28.8137253 M56.5762699,28.8137253 L56.5762699,28.7994602 C56.5762699,27.7249542 57.4290892,26.8362795 58.5822458,26.8362795 C59.7346313,26.8362795 60.5805108,27.7106892 60.5805108,28.7848096 L60.5805108,28.7994602 C60.5805108,29.8658699 59.7276916,30.7553157 58.5679807,30.7553157 C57.4225349,30.7553157 56.5762699,29.8805205 56.5762699,28.8137253" id="Fill-23" fill="#7A8E97"></path>
                    <polygon id="Fill-25" fill="#7A8E97" points="61.1789494 26.9138892 62.0606843 26.9138892 62.8151904 29.4896964 63.6468048 26.8996241 64.3789494 26.8996241 65.2186602 29.4896964 65.9874313 26.9138892 66.848347 26.9138892 65.6176964 30.6987566 64.8489253 30.6987566 64.0092145 28.1302747 63.1629494 30.6987566 62.3949494 30.6987566"></polygon>
                    <path d="M69.978641,29.0983711 C69.7581108,29.0131663 69.4512193,28.9487807 69.1181108,28.9487807 C68.5760386,28.9487807 68.2571952,29.1693108 68.2571952,29.5313349 L68.2571952,29.5459855 C68.2571952,29.9014554 68.5760386,30.1011663 68.9827855,30.1011663 C69.5510747,30.1011663 69.978641,29.7807807 69.978641,29.3111904 L69.978641,29.0983711 Z M69.9562795,30.6702265 L69.9562795,30.208347 C69.7006651,30.5140819 69.3097253,30.7488771 68.7402795,30.7488771 C68.0289542,30.7488771 67.4032193,30.3432867 67.4032193,29.5887807 L67.4032193,29.5745157 C67.4032193,28.7429012 68.050159,28.3438651 68.9253398,28.3438651 C69.3802795,28.3438651 69.6717494,28.4082506 69.9639904,28.5000096 L69.9639904,28.4294554 C69.9639904,27.9097446 69.6362795,27.6252145 69.0390747,27.6252145 C68.6196048,27.6252145 68.306159,27.7181301 67.9645687,27.8600096 L67.7297735,27.1698892 C68.1430747,26.9852145 68.5486651,26.8576 69.1597494,26.8576 C70.2697253,26.8576 70.810641,27.4401542 70.810641,28.4437205 L70.810641,30.6702265 L69.9562795,30.6702265 Z" id="Fill-27" fill="#7A8E97"></path>
                    <path d="M71.877359,26.9138892 L72.7378892,26.9138892 L72.7378892,27.7601542 C72.9726843,27.1984193 73.4071904,26.8140337 74.0683952,26.8429494 L74.0683952,27.7536 L74.0186602,27.7536 C73.2641542,27.7536 72.7378892,28.2443952 72.7378892,29.2402506 L72.7378892,30.6702265 L71.877359,30.6702265 L71.877359,26.9138892 Z" id="Fill-29" fill="#7A8E97"></path>
                    <path d="M77.7039807,28.7994217 L77.7039807,28.7847711 C77.7039807,28.0591807 77.1908241,27.5830361 76.6148241,27.5830361 C76.024559,27.5830361 75.5337639,28.0379759 75.5337639,28.7847711 L75.5337639,28.7994217 C75.5337639,29.525012 76.0322699,30.0011566 76.6148241,30.0011566 C77.1908241,30.0011566 77.7039807,29.5180723 77.7039807,28.7994217 M74.6666795,28.7994217 L74.6666795,28.7847711 C74.6666795,27.5398554 75.5129446,26.836241 76.4089446,26.836241 C77.0281253,26.836241 77.4190651,27.1489157 77.6893301,27.4978313 L77.6893301,25.4772048 L78.5502458,25.4772048 L78.5502458,30.6704578 L77.6893301,30.6704578 L77.6893301,30.0443373 C77.4125108,30.4352771 77.0204145,30.7491084 76.4089446,30.7491084 C75.5272096,30.7491084 74.6666795,30.0443373 74.6666795,28.7994217" id="Fill-31" fill="#7A8E97"></path>
                    <path d="M79.3532916,30.1797012 L79.7376771,29.5956048 C80.1432675,29.9013398 80.5839422,30.0590265 80.9683277,30.0590265 C81.3384482,30.0590265 81.5512675,29.9013398 81.5512675,29.6534361 L81.5512675,29.6391711 C81.5512675,29.3477012 81.153388,29.2478458 80.7123277,29.1125205 C80.1575325,28.9556048 79.5383518,28.7281349 79.5383518,28.0094843 L79.5383518,27.9952193 C79.5383518,27.283894 80.1286169,26.8497735 80.875412,26.8497735 C81.3450024,26.8497735 81.8570024,27.0136289 82.255653,27.2773398 L81.9144482,27.8888096 C81.5512675,27.6682795 81.1668819,27.5333398 80.8542072,27.5333398 C80.5195566,27.5333398 80.3279422,27.6894843 80.3279422,27.9096289 L80.3279422,27.923894 C80.3279422,28.1945446 80.7335325,28.3082795 81.1745928,28.4505446 C81.7216771,28.6209542 82.3408578,28.8704 82.3408578,29.5458699 L82.3408578,29.5605205 C82.3408578,30.3501108 81.729388,30.7410506 80.9463518,30.7410506 C80.4135325,30.7410506 79.8228819,30.5494361 79.3532916,30.1797012" id="Fill-33" fill="#7A8E97"></path>
                    <path d="M85.6064771,29.6311518 L85.6064771,27.6540916 L85.1291759,27.6540916 L85.1291759,26.9138506 L85.6064771,26.9138506 L85.6064771,25.8825253 L86.4670072,25.8825253 L86.4670072,26.9138506 L87.4775133,26.9138506 L87.4775133,27.6540916 L86.4670072,27.6540916 L86.4670072,29.4958265 C86.4670072,29.8308627 86.6378024,29.9658024 86.9288867,29.9658024 C87.1205012,29.9658024 87.292453,29.9237783 87.4628627,29.838188 L87.4628627,30.5418024 C87.2492723,30.6636337 87.0075373,30.7345735 86.6875373,30.7345735 C86.0540916,30.7345735 85.6064771,30.4565976 85.6064771,29.6311518" id="Fill-35" fill="#7A8E97"></path>
                    <path d="M88.387894,25.4771663 L89.2484241,25.4771663 L89.2484241,27.4977928 C89.490159,27.1419373 89.8390747,26.8362024 90.4227855,26.8362024 C91.2690506,26.8362024 91.7598458,27.4048771 91.7598458,28.2800578 L91.7598458,30.6704193 L90.8993157,30.6704193 L90.8993157,28.5356723 C90.8993157,27.9531181 90.6078458,27.6184675 90.0950747,27.6184675 C89.5977253,27.6184675 89.2484241,27.9673831 89.2484241,28.5503229 L89.2484241,30.6704193 L88.387894,30.6704193 L88.387894,25.4771663 Z" id="Fill-37" fill="#7A8E97"></path>
                    <path d="M95.4163277,28.5291181 C95.3588819,27.9743229 95.0319422,27.5402024 94.4624964,27.5402024 C93.9366169,27.5402024 93.5664964,27.9450217 93.4878458,28.5291181 L95.4163277,28.5291181 Z M92.6350265,28.8059373 L92.6350265,28.7928289 C92.6350265,27.7179373 93.3960867,26.8362024 94.4702072,26.8362024 C95.665388,26.8362024 96.269147,27.774612 96.269147,28.8560578 C96.269147,28.9347084 96.2625928,29.013359 96.2560386,29.0985639 L93.4955566,29.0985639 C93.5877012,29.7100337 94.0218217,30.050853 94.5766169,30.050853 C94.9964723,30.050853 95.295653,29.8947084 95.5936771,29.6036241 L96.0987373,30.050853 C95.7432675,30.4788048 95.2524723,30.7552386 94.5623518,30.7552386 C93.4743518,30.7552386 92.6350265,29.9660337 92.6350265,28.8059373 L92.6350265,28.8059373 Z" id="Fill-39" fill="#7A8E97"></path>
                    <path d="M102.202294,28.7994217 L102.202294,28.7847711 C102.202294,28.0591807 101.689523,27.5830361 101.113523,27.5830361 C100.523258,27.5830361 100.032463,28.0379759 100.032463,28.7847711 L100.032463,28.7994217 C100.032463,29.525012 100.530969,30.0011566 101.113523,30.0011566 C101.689523,30.0011566 102.202294,29.5180723 102.202294,28.7994217 M99.1649928,28.7994217 L99.1649928,28.7847711 C99.1649928,27.5398554 100.011258,26.836241 100.907643,26.836241 C101.526824,26.836241 101.917764,27.1489157 102.188029,27.4978313 L102.188029,25.4772048 L103.048559,25.4772048 L103.048559,30.6704578 L102.188029,30.6704578 L102.188029,30.0443373 C101.91121,30.4352771 101.519113,30.7491084 100.907643,30.7491084 C100.025523,30.7491084 99.1649928,30.0443373 99.1649928,28.7994217" id="Fill-41" fill="#7A8E97"></path>
                    <mask id="mask-2" fill="white">
                        <use xlink:href="#path-1"></use>
                    </mask>
                    <g id="Clip-44"></g>
                    <path d="M104.207422,30.6703036 L105.067952,30.6703036 L105.067952,26.9139663 L104.207422,26.9139663 L104.207422,30.6703036 Z M104.171952,26.3379663 L105.096867,26.3379663 L105.096867,25.5206169 L104.171952,25.5206169 L104.171952,26.3379663 Z" id="Fill-43" fill="#7A8E97" mask="url(#mask-2)"></path>
                    <path d="M109.080135,28.6142072 L109.080135,28.5999422 C109.080135,27.9815325 108.575075,27.5620627 107.977099,27.5620627 C107.379894,27.5620627 106.910304,27.9742072 106.910304,28.5930024 L106.910304,28.607653 C106.910304,29.2256771 107.386448,29.6455325 107.977099,29.6455325 C108.575075,29.6455325 109.080135,29.2191229 109.080135,28.6142072 M106.227894,31.3746892 L106.547894,30.7265928 C106.945773,30.9760386 107.37334,31.1256289 107.884954,31.1256289 C108.653725,31.1256289 109.072424,30.7265928 109.072424,29.9732434 L109.072424,29.681388 C108.760135,30.0862072 108.369195,30.3715084 107.750014,30.3715084 C106.86828,30.3715084 106.042834,29.7164723 106.042834,28.6142072 L106.042834,28.5999422 C106.042834,27.4899663 106.874834,26.8364723 107.750014,26.8364723 C108.382304,26.8364723 108.7744,27.1279422 109.06587,27.4768578 L109.06587,26.9139663 L109.9264,26.9139663 L109.9264,29.9015325 C109.9264,30.5349783 109.762545,31.0045687 109.450255,31.3172434 C109.107894,31.6592193 108.582014,31.8223036 107.906159,31.8223036 C107.286978,31.8223036 106.710593,31.666159 106.227894,31.3746892" id="Fill-45" fill="#7A8E97" mask="url(#mask-2)"></path>
                    <path d="M111.086265,30.6703036 L111.946795,30.6703036 L111.946795,26.9139663 L111.086265,26.9139663 L111.086265,30.6703036 Z M111.050795,26.3379663 L111.975711,26.3379663 L111.975711,25.5206169 L111.050795,25.5206169 L111.050795,26.3379663 Z" id="Fill-46" fill="#7A8E97" mask="url(#mask-2)"></path>
                    <path d="M113.29172,29.6311518 L113.29172,27.6540916 L112.814419,27.6540916 L112.814419,26.9138506 L113.29172,26.9138506 L113.29172,25.8825253 L114.152251,25.8825253 L114.152251,26.9138506 L115.162757,26.9138506 L115.162757,27.6540916 L114.152251,27.6540916 L114.152251,29.4958265 C114.152251,29.8308627 114.323046,29.9658024 114.614516,29.9658024 C114.80613,29.9658024 114.977696,29.9237783 115.148106,29.838188 L115.148106,30.5418024 C114.934516,30.6636337 114.693166,30.7345735 114.372781,30.7345735 C113.739335,30.7345735 113.29172,30.4565976 113.29172,29.6311518" id="Fill-47" fill="#7A8E97" mask="url(#mask-2)"></path>
                    <path d="M118.391672,29.0983711 C118.171142,29.0131663 117.864251,28.9487807 117.531142,28.9487807 C116.989455,28.9487807 116.66907,29.1693108 116.66907,29.5313349 L116.66907,29.5459855 C116.66907,29.9014554 116.989455,30.1011663 117.395817,30.1011663 C117.964106,30.1011663 118.391672,29.7807807 118.391672,29.3111904 L118.391672,29.0983711 Z M118.369696,30.6702265 L118.369696,30.208347 C118.113696,30.5140819 117.722757,30.7488771 117.153311,30.7488771 C116.441986,30.7488771 115.816251,30.3432867 115.816251,29.5887807 L115.816251,29.5745157 C115.816251,28.7429012 116.46319,28.3438651 117.338371,28.3438651 C117.793696,28.3438651 118.084781,28.4082506 118.377407,28.5000096 L118.377407,28.4294554 C118.377407,27.9097446 118.049311,27.6252145 117.452492,27.6252145 C117.032636,27.6252145 116.71919,27.7181301 116.377986,27.8600096 L116.142805,27.1698892 C116.556106,26.9852145 116.961696,26.8576 117.573166,26.8576 C118.683142,26.8576 119.223672,27.4401542 119.223672,28.4437205 L119.223672,30.6702265 L118.369696,30.6702265 Z" id="Fill-48" fill="#7A8E97" mask="url(#mask-2)"></path>
                    <polygon id="Fill-49" fill="#7A8E97" mask="url(#mask-2)" points="120.340434 30.6703036 121.200964 30.6703036 121.200964 25.4770506 120.340434 25.4770506"></polygon>
                    <path d="M124.735614,27.6540916 L124.25947,27.6540916 L124.25947,26.936212 L124.735614,26.936212 L124.735614,26.6647904 C124.735614,26.2460916 124.843181,25.9322602 125.042506,25.7333205 C125.24106,25.5336096 125.519036,25.4349108 125.888771,25.4349108 C126.187952,25.4349108 126.393831,25.4773205 126.585446,25.5336096 L126.585446,26.2592 C126.415036,26.2025253 126.265446,26.167441 126.080386,26.167441 C125.753831,26.167441 125.583036,26.3455614 125.583036,26.7365012 L125.583036,26.9427663 L126.578892,26.9427663 L126.578892,27.6540916 L125.597301,27.6540916 L125.597301,30.670188 L124.735614,30.670188 L124.735614,27.6540916 Z" id="Fill-50" fill="#7A8E97" mask="url(#mask-2)"></path>
                    <path d="M127.220357,29.3043277 L127.220357,26.9139663 L128.080887,26.9139663 L128.080887,29.0487133 C128.080887,29.6312675 128.372357,29.9659181 128.883971,29.9659181 C129.382477,29.9659181 129.730236,29.6177735 129.730236,29.0340627 L129.730236,26.9139663 L130.591152,26.9139663 L130.591152,30.6703036 L129.730236,30.6703036 L129.730236,30.0862072 C129.488887,30.4420627 129.139971,30.7489542 128.557417,30.7489542 C127.710766,30.7489542 127.220357,30.179894 127.220357,29.3043277" id="Fill-51" fill="#7A8E97" mask="url(#mask-2)"></path>
                    <path d="M131.892627,29.6311518 L131.892627,27.6540916 L131.415325,27.6540916 L131.415325,26.9138506 L131.892627,26.9138506 L131.892627,25.8825253 L132.753157,25.8825253 L132.753157,26.9138506 L133.763663,26.9138506 L133.763663,27.6540916 L132.753157,27.6540916 L132.753157,29.4958265 C132.753157,29.8308627 132.923952,29.9658024 133.215422,29.9658024 C133.407036,29.9658024 133.578602,29.9237783 133.749012,29.838188 L133.749012,30.5418024 C133.535422,30.6636337 133.294072,30.7345735 132.973687,30.7345735 C132.340241,30.7345735 131.892627,30.4565976 131.892627,29.6311518" id="Fill-52" fill="#7A8E97" mask="url(#mask-2)"></path>
                    <path d="M134.632096,29.3043277 L134.632096,26.9139663 L135.492627,26.9139663 L135.492627,29.0487133 C135.492627,29.6312675 135.784096,29.9659181 136.295711,29.9659181 C136.794217,29.9659181 137.142361,29.6177735 137.142361,29.0340627 L137.142361,26.9139663 L138.004048,26.9139663 L138.004048,30.6703036 L137.142361,30.6703036 L137.142361,30.0862072 C136.900627,30.4420627 136.551711,30.7489542 135.969157,30.7489542 C135.122892,30.7489542 134.632096,30.179894 134.632096,29.3043277" id="Fill-53" fill="#7A8E97" mask="url(#mask-2)"></path>
                    <path d="M139.11946,26.9138892 L139.97999,26.9138892 L139.97999,27.7601542 C140.215171,27.1984193 140.649292,26.8140337 141.310496,26.8429494 L141.310496,27.7536 L141.260761,27.7536 C140.506255,27.7536 139.97999,28.2443952 139.97999,29.2402506 L139.97999,30.6702265 L139.11946,30.6702265 L139.11946,26.9138892 Z" id="Fill-54" fill="#7A8E97" mask="url(#mask-2)"></path>
                    <path d="M144.67574,28.5291181 C144.618294,27.9743229 144.291354,27.5402024 143.721908,27.5402024 C143.196029,27.5402024 142.825908,27.9450217 142.747258,28.5291181 L144.67574,28.5291181 Z M141.894439,28.8059373 L141.894439,28.7928289 C141.894439,27.7179373 142.655499,26.8362024 143.729619,26.8362024 C144.9248,26.8362024 145.528559,27.774612 145.528559,28.8560578 C145.528559,28.9347084 145.522005,29.013359 145.515451,29.0985639 L142.754969,29.0985639 C142.847113,29.7100337 143.281234,30.050853 143.836029,30.050853 C144.255884,30.050853 144.555065,29.8947084 144.853089,29.6036241 L145.358149,30.050853 C145.00268,30.4788048 144.511884,30.7552386 143.821764,30.7552386 C142.733764,30.7552386 141.894439,29.9660337 141.894439,28.8059373 L141.894439,28.8059373 Z" id="Fill-55" fill="#7A8E97" mask="url(#mask-2)"></path>
                    <path d="M13.4088096,25.5904771 C13.362159,26.1325494 13.0379181,26.4471518 12.7664964,26.6171759 C11.9090506,27.0412723 10.9459663,27.2841639 9.92273735,27.2841639 C6.3510747,27.2841639 3.4564241,24.3883566 3.4564241,20.8159229 C3.4564241,17.2442602 6.3510747,14.3496096 9.92273735,14.3496096 C10.5376771,14.3496096 11.1310265,14.4367422 11.6935325,14.5967422 L11.6935325,11.0543807 C11.1186892,10.9498988 10.527653,10.8920675 9.92273735,10.8920675 C4.44302651,10.8920675 3.85542169e-05,15.336212 3.85542169e-05,20.8159229 C3.85542169e-05,26.2971759 4.44302651,30.7401639 9.92273735,30.7401639 C12.3948337,30.7401639 14.7050024,29.7647422 16.0879422,28.5498988 C16.1743036,28.4546699 16.2695325,28.3671518 16.3905928,28.1709108 L16.4553639,28.0702843 C16.4950747,28.0055133 16.5791229,27.8605494 16.5883759,27.8408867 C16.6550747,27.6970795 16.7140627,27.5347663 16.7595566,27.3489349 C16.7607133,27.3431518 16.7618699,27.3396819 16.7630265,27.3338988 C16.7672675,27.3146217 16.7707373,27.2918747 16.7742072,27.2725976 C16.7823036,27.2375133 16.7877012,27.2012723 16.7934843,27.1650313 C16.8023518,27.1083566 16.8116048,27.0512964 16.8185446,26.9915373 C16.8250988,26.9414169 16.8355084,26.7906699 16.8397494,26.7386217 L16.8397494,23.0960193 L13.4088096,18.1472 L13.4088096,25.5904771 Z" id="Fill-56" fill="#7A8E97" mask="url(#mask-2)"></path>
                    <path d="M33.2561349,11.5144096 C32.5629301,11.7866024 30.9320867,12.5680964 29.650159,14.2899277 L29.6412916,14.2822169 L23.331894,23.3613494 L17.0240386,14.2822169 L17.0140145,14.2899277 C15.7332434,12.5680964 14.1020145,11.7866024 13.4088096,11.5144096 L13.4088096,15.1419759 L23.331894,29.4251566 L33.2561349,15.1419759 L33.2561349,11.5144096 Z" id="Fill-57" fill="#7A8E97" mask="url(#mask-2)"></path>
                    <path d="M36.7414747,10.892453 C36.1369446,10.892453 35.5459084,10.9502843 34.9718361,11.0547663 L34.9718361,14.5971277 C35.5347277,14.4371277 36.1265349,14.3488386 36.7414747,14.3488386 C40.3146795,14.3488386 43.2116434,17.2446458 43.2116434,20.8163084 C43.2116434,24.3872 40.3146795,27.2845494 36.7414747,27.2845494 C35.7194024,27.2845494 34.7567036,27.0405012 33.8977157,26.6171759 C33.6266795,26.4475373 33.3024386,26.1317783 33.255788,25.5908627 L33.255788,18.1472 L29.8256193,23.0964048 L29.8256193,26.7390072 C29.8302458,26.7906699 29.8391133,26.9418024 29.846053,26.9919229 C29.8526072,27.0516819 29.8618602,27.1087422 29.8711133,27.1654169 C29.8776675,27.2016578 29.8834506,27.2378988 29.8900048,27.2729831 C29.8950169,27.2922602 29.8969446,27.3150072 29.9015711,27.3342843 C29.9027277,27.3389108 29.9038843,27.3435373 29.905041,27.3481639 C29.9501494,27.5339952 30.0106795,27.6963084 30.0762217,27.8401157 C30.0854747,27.8605494 30.1695229,28.0058988 30.2088482,28.0695133 C30.2100048,28.0706699 30.2736193,28.1712964 30.2736193,28.1712964 C30.3950651,28.3675373 30.4914506,28.4550554 30.5766554,28.5502843 C31.9603663,29.7651277 34.2697639,30.7397783 36.7414747,30.7397783 C42.2234988,30.7397783 46.6668723,26.2975614 46.6668723,20.8163084 C46.6668723,15.335441 42.2234988,10.892453 36.7414747,10.892453" id="Fill-58" fill="#7A8E97" mask="url(#mask-2)"></path>
                    <path d="M17.0264675,11.2964241 C16.9300819,10.8542072 16.8791904,10.394641 16.8791904,9.92389398 C16.8791904,6.35878554 19.7680578,3.46991807 23.3320096,3.46991807 C26.8975036,3.46991807 29.7863711,6.35878554 29.7863711,9.92389398 C29.7863711,10.394641 29.7339373,10.8542072 29.6387084,11.2964241 C30.7016482,10.5207133 31.924588,9.9524241 33.2493108,9.64746024 C33.1020337,4.29459277 28.720347,3.85542169e-05 23.3320096,3.85542169e-05 C17.9440578,3.85542169e-05 13.5623711,4.29459277 13.4158651,9.64746024 C14.7398169,9.9524241 15.9639133,10.5207133 17.0264675,11.2964241" id="Fill-59" fill="#7A8E97" mask="url(#mask-2)"></path>
                </g>
            </g>
        </g>
    </g>
</svg>