<?xml version="1.0" encoding="UTF-8"?>
<svg width="14px" height="14px" viewBox="0 0 14 14" version="1.1" xmlns="http://www.w3.org/2000/svg" xmlns:xlink="http://www.w3.org/1999/xlink">
    <!-- Generator: Sketch 47.1 (45422) - http://www.bohemiancoding.com/sketch -->
    <title>pm_address</title>
    <desc>Created with Sketch.</desc>
    <defs></defs>
    <g id="Pages" stroke="none" stroke-width="1" fill="none" fill-rule="evenodd">
        <g id="Thanh-toán---Trực-tiếp" transform="translate(-159.000000, -1171.000000)" fill="#7A8E97">
            <g id="Group-15" transform="translate(135.000000, 1026.000000)">
                <g id="Group-16" transform="translate(24.000000, 112.000000)">
                    <path d="M14,35.6249994 L14,44.3750006 C14,45.098094 13.7432747,45.7163603 13.229818,46.2298178 C12.7163593,46.7432751 12.0980936,47 11.3750006,47 L2.62499936,47 C1.90190597,47 1.2836397,46.7432751 0.770182188,46.2298178 C0.256724878,45.7163603 0,45.098094 0,44.3750006 L0,35.6249994 C0,34.9019064 0.256724878,34.2836407 0.770182188,33.770182 C1.2836397,33.2567253 1.90190597,33 2.62499936,33 L11.3750006,33 C12.0980936,33 12.7163593,33.2567253 13.229818,33.770182 C13.7432747,34.2836407 14,34.9019064 14,35.6249994 Z M6.94166652,35.2458333 C6.40289037,35.2458333 5.89947928,35.3455228 5.43141775,35.5449055 C4.96335622,35.7442883 4.55254601,36.0184344 4.19897446,36.3673539 C3.84540291,36.7162735 3.56760079,37.1216783 3.36555983,37.5835811 C3.16351889,38.045484 3.06249994,38.5422712 3.06249994,39.0739582 C3.06249994,39.4727238 3.23423219,40.0293242 3.57770175,40.7437786 C3.9211713,41.4582318 4.31514528,42.1643677 4.75963532,42.8622068 C5.20412574,43.5600459 5.63850706,44.1664911 6.0627922,44.681563 C6.48707863,45.1966345 6.78003329,45.4541664 6.94166652,45.4541664 C7.10329976,45.4541664 7.39457086,45.1966345 7.81548888,44.681563 C8.2364082,44.1664911 8.67078951,43.5583845 9.11864705,42.8572226 C9.56650459,42.1560607 9.96216148,41.4482634 10.3056306,40.7338089 C10.6491011,40.0193558 10.8208331,39.4660769 10.8208331,39.0739582 C10.8208331,38.5422712 10.7198144,38.045484 10.5177732,37.5835811 C10.315732,37.1216783 10.0379307,36.7162735 9.68435885,36.3673539 C9.33078703,36.0184344 8.91997683,35.7442883 8.45191529,35.5449055 C7.98385376,35.3455228 7.48044268,35.2458333 6.94166652,35.2458333 Z M6.94166652,40.7583332 C6.49249725,40.7583332 6.10798707,40.5984037 5.78812553,40.2785409 C5.46826269,39.9586793 5.30833322,39.5741691 5.30833322,39.1249999 C5.30833322,38.6758306 5.46826269,38.2913204 5.78812553,37.9714589 C6.10798707,37.651596 6.49249725,37.4916666 6.94166652,37.4916666 C7.39083579,37.4916666 7.77534597,37.651596 8.09520751,37.9714589 C8.41507036,38.2913204 8.57499982,38.6758306 8.57499982,39.1249999 C8.57499982,39.5741691 8.41507036,39.9586793 8.09520751,40.2785409 C7.77534597,40.5984037 7.39083579,40.7583332 6.94166652,40.7583332 Z" id="pm_address"></path>
                </g>
            </g>
        </g>
    </g>
</svg>