<?xml version="1.0" encoding="UTF-8"?>
<svg width="14px" height="14px" viewBox="0 0 14 14" version="1.1" xmlns="http://www.w3.org/2000/svg" xmlns:xlink="http://www.w3.org/1999/xlink">
    <!-- Generator: Sketch 47.1 (45422) - http://www.bohemiancoding.com/sketch -->
    <title>pm_phone</title>
    <desc>Created with Sketch.</desc>
    <defs></defs>
    <g id="Pages" stroke="none" stroke-width="1" fill="none" fill-rule="evenodd">
        <g id="Thanh-toán---Trực-tiếp" transform="translate(-159.000000, -1194.000000)" fill="#7A8E97">
            <g id="Group-15" transform="translate(135.000000, 1026.000000)">
                <g id="Group-16" transform="translate(24.000000, 112.000000)">
                    <path d="M11.666667,65.7070305 C11.666667,65.6401904 11.660591,65.5915803 11.648437,65.5611983 C11.630209,65.5125862 11.5132378,65.4229611 11.2975255,65.2923169 C11.0818132,65.1616748 10.8129359,65.0112856 10.4908855,64.8411454 L10.0078129,64.576823 C9.97743083,64.558593 9.91970475,64.5190969 9.83463463,64.4583329 C9.74956451,64.3975688 9.67361042,64.3519967 9.60677034,64.3216147 C9.53993026,64.2912327 9.47612818,64.2760427 9.4153641,64.2760427 C9.30598793,64.2760427 9.16319581,64.3747817 8.98697956,64.572266 C8.81076332,64.7697503 8.63758711,64.9687495 8.46744687,65.1692718 C8.29730866,65.3697921 8.1636285,65.4700522 8.06640637,65.4700522 C8.02387029,65.4700522 7.97374125,65.4594192 7.91601517,65.4381511 C7.85828909,65.4168831 7.81119805,65.3971361 7.77474,65.3789061 C7.73827992,65.3606781 7.68663188,65.331815 7.6197918,65.2923169 C7.55295172,65.2528209 7.51041564,65.2269958 7.49218764,65.2148438 C6.89062281,64.8806414 6.37261524,64.496314 5.93815063,64.0618494 C5.50368601,63.6273848 5.1193586,63.1093772 4.78515615,62.5078124 C4.77300415,62.4895844 4.74717911,62.4470483 4.70768307,62.3802082 C4.66818499,62.3133681 4.63932195,62.2617201 4.62109395,62.22526 C4.6028639,62.188802 4.5831169,62.1417109 4.56184886,62.0839848 C4.54058082,62.0262587 4.52994782,61.9761297 4.52994782,61.9335936 C4.52994782,61.8545995 4.5922309,61.7528224 4.71679707,61.6282563 C4.84136323,61.5036881 4.9780814,61.3867189 5.1269536,61.2773448 C5.27582581,61.1679686 5.41254193,61.0479615 5.53711013,60.9173173 C5.6616763,60.7866752 5.72395734,60.675782 5.72395734,60.5846359 C5.72395734,60.5238718 5.70876734,60.4600697 5.6783853,60.3932297 C5.64800326,60.3263896 5.60243122,60.2504355 5.54166713,60.1653654 C5.48090305,60.0802952 5.44140701,60.0225692 5.42317697,59.9921871 C5.40494693,59.9557291 5.35937489,59.869142 5.28645881,59.7324218 C5.21354068,59.5957036 5.1375866,59.4574665 5.05859452,59.3177083 C4.9796004,59.1779501 4.89908931,59.0336389 4.81705719,58.8847667 C4.73502507,58.7358945 4.65907099,58.6128474 4.5891929,58.5156252 C4.51931278,58.4184031 4.46918374,58.363715 4.4388017,58.351563 C4.40841966,58.339409 4.35980962,58.333333 4.29296954,58.333333 C4.00130112,58.333333 3.6944468,58.4001731 3.37239635,58.5338553 C3.09287994,58.6614594 2.84982769,58.9485647 2.6432294,59.3951834 C2.43663112,59.8418 2.33333299,60.2382794 2.33333299,60.5846359 C2.33333299,60.681858 2.34092799,60.7851562 2.35612003,60.8945323 C2.37131003,61.0039064 2.38650208,61.0965716 2.40169207,61.1725256 C2.41688412,61.2484818 2.44422816,61.3487419 2.4837242,61.4733081 C2.52322024,61.5978742 2.55360228,61.6874993 2.57487032,61.7421874 C2.59613632,61.7968755 2.63411336,61.8971356 2.68880144,62.0429698 C2.74348953,62.188802 2.77690957,62.2799481 2.78906157,62.3164061 C3.1536481,63.3129395 3.8114098,64.2866716 4.76236911,65.2376309 C5.71332842,66.1885902 6.68706049,66.8463519 7.68359388,67.2109384 C7.72005192,67.2230904 7.811196,67.2565105 7.95703021,67.3111986 C8.10286441,67.3658866 8.20312454,67.4038637 8.25781262,67.4251297 C8.3125007,67.4463977 8.40212578,67.4767798 8.52669195,67.5162758 C8.65125811,67.5557718 8.75151823,67.5831159 8.82747436,67.5983079 C8.90342844,67.6134979 8.99609356,67.62869 9.10546769,67.64388 C9.21484385,67.659072 9.31814197,67.666667 9.4153641,67.666667 C9.76172059,67.666667 10.1582,67.5633689 10.6048166,67.3567706 C11.0514353,67.1501723 11.3385406,66.9071201 11.4661447,66.6276037 C11.5998269,66.3055532 11.666667,65.9986989 11.666667,65.7070305 Z M14,58.6249994 L14,67.3750006 C14,68.098094 13.7432747,68.7163603 13.229818,69.2298178 C12.7163593,69.7432751 12.0980936,70 11.3750006,70 L2.62499936,70 C1.90190597,70 1.2836397,69.7432751 0.770182188,69.2298178 C0.256724878,68.7163603 0,68.098094 0,67.3750006 L0,58.6249994 C0,57.9019064 0.256724878,57.2836407 0.770182188,56.770182 C1.2836397,56.2567253 1.90190597,56 2.62499936,56 L11.3750006,56 C12.0980936,56 12.7163593,56.2567253 13.229818,56.770182 C13.7432747,57.2836407 14,57.9019064 14,58.6249994 Z" id="pm_phone"></path>
                </g>
            </g>
        </g>
    </g>
</svg>