<?xml version="1.0" encoding="UTF-8"?>
<svg width="16px" height="16px" viewBox="0 0 16 16" version="1.1" xmlns="http://www.w3.org/2000/svg" xmlns:xlink="http://www.w3.org/1999/xlink">
    <!-- Generator: Sketch 47.1 (45422) - http://www.bohemiancoding.com/sketch -->
    <title>printer</title>
    <desc>Created with Sketch.</desc>
    <defs></defs>
    <g id="Pages" stroke="none" stroke-width="1" fill="none" fill-rule="evenodd">
        <g id="Hoàn-tất-đặt-hàng" transform="translate(-155.000000, -851.000000)" fill="#7A8E97">
            <g id="Group-8" transform="translate(135.000000, 450.000000)">
                <g id="Group-7" transform="translate(20.000000, 401.000000)">
                    <path d="M16,4.98550725 L16,12.2512077 C16,12.5088575 15.884058,12.6376812 15.6521739,12.6376812 L13.0628019,12.6376812 L13.0628019,9.58454106 L12.057971,9.58454106 L3.94202899,9.58454106 L2.97584541,9.58454106 L2.97584541,12.6376812 L0.347826087,12.6376812 C0.115940866,12.6376812 0,12.5088575 0,12.2512077 L0,4.98550725 C0,4.75362319 0.115940866,4.63768116 0.347826087,4.63768116 L2.97584541,4.63768116 L2.97584541,0.38647343 C2.97584541,0.128823652 3.09178744,0 3.3236715,0 L12.6763285,0 C12.9339783,0 13.0628019,0.128823652 13.0628019,0.38647343 L13.0628019,4.63768116 L15.6521739,4.63768116 C15.884058,4.63768116 16,4.75362319 16,4.98550725 Z M12.057971,6.26086957 L12.057971,1.352657 C12.057971,1.12077295 11.942029,1.00483092 11.7101449,1.00483092 L4.28985507,1.00483092 C4.05797101,1.00483092 3.94202899,1.12077295 3.94202899,1.352657 L3.94202899,6.26086957 L12.057971,6.26086957 Z M3.98067633,15.4589372 L3.98067633,10.589372 L12.057971,10.589372 L12.057971,15.4589372 C12.057971,15.7165874 11.9291474,15.8454106 11.6714976,15.8454106 L4.32850242,15.8454106 C4.09661836,15.8454106 3.98067633,15.7165874 3.98067633,15.4589372 Z" id="printer"></path>
                </g>
            </g>
        </g>
    </g>
</svg>