<?xml version="1.0" encoding="UTF-8"?>
<svg width="360px" height="24px" viewBox="0 0 360 24" version="1.1" xmlns="http://www.w3.org/2000/svg" xmlns:xlink="http://www.w3.org/1999/xlink">
    <!-- Generator: Sketch 47.1 (45422) - http://www.bohemiancoding.com/sketch -->
    <title>Combined Shape</title>
    <desc>Created with Sketch.</desc>
    <defs>
        <rect id="path-1" x="0" y="0" width="360" height="24"></rect>
    </defs>
    <g id="Pages" stroke="none" stroke-width="1" fill="none" fill-rule="evenodd">
        <g id="Giỏ-hàng" transform="translate(-135.000000, -258.000000)">
            <g id="Combined-Shape" transform="translate(135.000000, 258.000000)">
                <mask id="mask-2" fill="white">
                    <use xlink:href="#path-1"></use>
                </mask>
                <g id="Mask"></g>
                <path d="M-2,0 L13,0 L-17,25.5 L-32,25.5 L-2,0 Z M28,0 L43,0 L13,25.5 L-2,25.5 L28,0 Z M58,0 L73,0 L43,25.5 L28,25.5 L58,0 Z M88,0 L103,0 L73,25.5 L58,25.5 L88,0 Z M118,0 L133,0 L103,25.5 L88,25.5 L118,0 Z M148,0 L163,0 L133,25.5 L118,25.5 L148,0 Z M178,0 L193,0 L163,25.5 L148,25.5 L178,0 Z M208,0 L223,0 L193,25.5 L178,25.5 L208,0 Z M238,0 L253,0 L223,25.5 L208,25.5 L238,0 Z M268,0 L283,0 L253,25.5 L238,25.5 L268,0 Z M298,0 L313,0 L283,25.5 L268,25.5 L298,0 Z M328,0 L343,0 L313,25.5 L298,25.5 L328,0 Z M358,0 L373,0 L343,25.5 L328,25.5 L358,0 Z M388,0 L403,0 L373,25.5 L358,25.5 L388,0 Z M418,0 L433,0 L403,25.5 L388,25.5 L418,0 Z M448,0 L463,0 L433,25.5 L418,25.5 L448,0 Z M478,0 L493,0 L463,25.5 L448,25.5 L478,0 Z M508,0 L523,0 L493,25.5 L478,25.5 L508,0 Z M538,0 L553,0 L523,25.5 L508,25.5 L538,0 Z M568,0 L583,0 L553,25.5 L538,25.5 L568,0 Z M598,0 L613,0 L583,25.5 L568,25.5 L598,0 Z M628,0 L643,0 L613,25.5 L598,25.5 L628,0 Z M658,0 L673,0 L643,25.5 L628,25.5 L658,0 Z M688,0 L703,0 L673,25.5 L658,25.5 L688,0 Z M718,0 L733,0 L703,25.5 L688,25.5 L718,0 Z M748,0 L763,0 L733,25.5 L718,25.5 L748,0 Z M778,0 L793,0 L763,25.5 L748,25.5 L778,0 Z M808,0 L823,0 L793,25.5 L778,25.5 L808,0 Z M838,0 L853,0 L823,25.5 L808,25.5 L838,0 Z M868,0 L883,0 L853,25.5 L838,25.5 L868,0 Z M898,0 L913,0 L883,25.5 L868,25.5 L898,0 Z M928,0 L943,0 L913,25.5 L898,25.5 L928,0 Z M958,0 L973,0 L943,25.5 L928,25.5 L958,0 Z M988,0 L1003,0 L973,25.5 L958,25.5 L988,0 Z M1018,0 L1033,0 L1003,25.5 L988,25.5 L1018,0 Z M1048,0 L1063,0 L1033,25.5 L1018,25.5 L1048,0 Z M1078,0 L1093,0 L1063,25.5 L1048,25.5 L1078,0 Z M1108,0 L1123,0 L1093,25.5 L1078,25.5 L1108,0 Z M1138,0 L1153,0 L1123,25.5 L1108,25.5 L1138,0 Z M1168,0 L1183,0 L1153,25.5 L1138,25.5 L1168,0 Z M1198,0 L1213,0 L1183,25.5 L1168,25.5 L1198,0 Z M1228,0 L1243,0 L1213,25.5 L1198,25.5 L1228,0 Z M1258,0 L1273,0 L1243,25.5 L1228,25.5 L1258,0 Z M1288,0 L1303,0 L1273,25.5 L1258,25.5 L1288,0 Z M1318,0 L1333,0 L1303,25.5 L1288,25.5 L1318,0 Z M1348,0 L1363,0 L1333,25.5 L1318,25.5 L1348,0 Z M1378,0 L1393,0 L1363,25.5 L1348,25.5 L1378,0 Z M1408,0 L1423,0 L1393,25.5 L1378,25.5 L1408,0 Z M1438,0 L1453,0 L1423,25.5 L1408,25.5 L1438,0 Z M1468,0 L1483,0 L1453,25.5 L1438,25.5 L1468,0 Z M1498,0 L1513,0 L1483,25.5 L1468,25.5 L1498,0 Z M1528,0 L1543,0 L1513,25.5 L1498,25.5 L1528,0 Z M1558,0 L1573,0 L1543,25.5 L1528,25.5 L1558,0 Z M1588,0 L1603,0 L1573,25.5 L1558,25.5 L1588,0 Z M1618,0 L1633,0 L1603,25.5 L1588,25.5 L1618,0 Z M1648,0 L1663,0 L1633,25.5 L1618,25.5 L1648,0 Z M1678,0 L1693,0 L1663,25.5 L1648,25.5 L1678,0 Z M1708,0 L1723,0 L1693,25.5 L1678,25.5 L1708,0 Z M1738,0 L1753,0 L1723,25.5 L1708,25.5 L1738,0 Z M1768,0 L1783,0 L1753,25.5 L1738,25.5 L1768,0 Z M1798,0 L1813,0 L1783,25.5 L1768,25.5 L1798,0 Z M1828,0 L1843,0 L1813,25.5 L1798,25.5 L1828,0 Z M1858,0 L1873,0 L1843,25.5 L1828,25.5 L1858,0 Z M1888,0 L1903,0 L1873,25.5 L1858,25.5 L1888,0 Z M1918,0 L1933,0 L1903,25.5 L1888,25.5 L1918,0 Z M1948,0 L1963,0 L1933,25.5 L1918,25.5 L1948,0 Z M1978,0 L1993,0 L1963,25.5 L1948,25.5 L1978,0 Z M2008,0 L2023,0 L1993,25.5 L1978,25.5 L2008,0 Z M2038,0 L2053,0 L2023,25.5 L2008,25.5 L2038,0 Z M2068,0 L2083,0 L2053,25.5 L2038,25.5 L2068,0 Z M2098,0 L2113,0 L2083,25.5 L2068,25.5 L2098,0 Z M2128,0 L2143,0 L2113,25.5 L2098,25.5 L2128,0 Z" fill-opacity="0.29577106" fill="#EFF5F9" mask="url(#mask-2)"></path>
            </g>
        </g>
    </g>
</svg>