<?xml version="1.0" encoding="UTF-8"?>
<svg width="20px" height="20px" viewBox="0 0 20 20" version="1.1" xmlns="http://www.w3.org/2000/svg" xmlns:xlink="http://www.w3.org/1999/xlink">
    <g id="Tài-khoản" stroke="none" stroke-width="1" fill="none" fill-rule="evenodd">
        <path d="M10,12.5146199 C12.1052744,12.5146199 14.2982325,12.9727064 16.5789492,13.8888908 C18.8596622,14.8050713 20,16.0038924 20,17.4853801 L20,20 L0,20 L0,17.4853801 C0,16.0038924 1.14033965,14.8050713 3.42105263,13.8888908 C5.70176749,12.9727064 7.89472561,12.5146199 10,12.5146199 Z M10,10 C8.63547135,10 7.46589193,9.51267556 6.49122807,8.5380117 C5.51656421,7.56334784 5.02923977,6.39376842 5.02923977,5.02923977 C5.02923977,3.66471111 5.51656421,2.48538573 6.49122807,1.49122994 C7.46589193,0.497070409 8.63547135,0 10,0 C11.3645287,0 12.5341081,0.497070409 13.5087719,1.49122994 C14.4834358,2.48538573 14.9707602,3.66471111 14.9707602,5.02923977 C14.9707602,6.39376842 14.4834358,7.56334784 13.5087719,8.5380117 C12.5341081,9.51267556 11.3645287,10 10,10 Z" id="reg-ico_indivisual" fill="#7A8E97"></path>
    </g>
</svg>
