<?xml version="1.0" encoding="UTF-8"?>
<svg width="23px" height="24px" viewBox="0 0 23 24" version="1.1" xmlns="http://www.w3.org/2000/svg" xmlns:xlink="http://www.w3.org/1999/xlink">
    <!-- Generator: Sketch 46.1 (44463) - http://www.bohemiancoding.com/sketch -->
    <title>reg-ico_business</title>
    <desc>Created with Sketch.</desc>
    <defs></defs>
    <g id="Tài-khoản" stroke="none" stroke-width="1" fill="none" fill-rule="evenodd">
        <path d="M20.2074074,16.4148148 L20.2074074,13.8666667 L17.7185185,13.8666667 L17.7185185,16.4148148 L20.2074074,16.4148148 Z M20.2074074,21.4518519 L20.2074074,18.962963 L17.7185185,18.962963 L17.7185185,21.4518519 L20.2074074,21.4518519 Z M12.6222222,6.28148148 L12.6222222,3.79259259 L10.1333333,3.79259259 L10.1333333,6.28148148 L12.6222222,6.28148148 Z M12.6222222,11.3777778 L12.6222222,8.82962963 L10.1333333,8.82962963 L10.1333333,11.3777778 L12.6222222,11.3777778 Z M12.6222222,16.4148148 L12.6222222,13.8666667 L10.1333333,13.8666667 L10.1333333,16.4148148 L12.6222222,16.4148148 Z M12.6222222,21.4518519 L12.6222222,18.962963 L10.1333333,18.962963 L10.1333333,21.4518519 L12.6222222,21.4518519 Z M5.03703704,11.3777778 L5.03703704,8.82962963 L2.54814815,8.82962963 L2.54814815,11.3777778 L5.03703704,11.3777778 Z M5.03703704,16.4148148 L5.03703704,13.8666667 L2.54814815,13.8666667 L2.54814815,16.4148148 L5.03703704,16.4148148 Z M5.03703704,21.4518519 L5.03703704,18.962963 L2.54814815,18.962963 L2.54814815,21.4518519 L5.03703704,21.4518519 Z M15.1703704,11.3777778 L22.7555556,11.3777778 L22.7555556,24 L0,24 L0,6.28148148 L7.58518519,6.28148148 L7.58518519,3.79259259 L11.3777778,0 L15.1703704,3.79259259 L15.1703704,11.3777778 Z" id="reg-ico_business" fill="#7A8E97"></path>
    </g>
</svg>