<?xml version="1.0" encoding="UTF-8"?>
<svg width="9px" height="9px" viewBox="0 0 9 9" version="1.1" xmlns="http://www.w3.org/2000/svg" xmlns:xlink="http://www.w3.org/1999/xlink">
    <!-- Generator: Sketch 47.1 (45422) - http://www.bohemiancoding.com/sketch -->
    <title>sd_mark</title>
    <desc>Created with Sketch.</desc>
    <defs></defs>
    <g id="Dịch-vụ" stroke="none" stroke-width="1" fill="none" fill-rule="evenodd">
        <g id="Dịch-vụ---Tên-miền-Kết-quả" transform="translate(-549.000000, -1162.000000)" fill="#EFF5F9">
            <g id="Group-6" transform="translate(335.000000, 580.000000)">
                <g id="Group-5" transform="translate(0.000000, 548.000000)">
                    <g id="Group-4" transform="translate(207.000000, 28.000000)">
                        <path d="M12.8732394,10.1514085 C13.1549305,9.86971741 13.2957746,9.53169194 13.2957746,9.13732394 C13.2957746,8.64436394 13.1197201,8.22183279 12.7676056,7.86971831 C12.4154912,7.51760383 11.99296,7.3415493 11.5,7.3415493 C11.00704,7.3415493 10.5845088,7.51760383 10.2323944,7.86971831 C9.88027989,8.22183279 9.70422535,8.64436394 9.70422535,9.13732394 L10.5915493,9.13732394 C10.5915493,8.89788642 10.6830981,8.68662017 10.8661972,8.50352113 C11.0492962,8.32042208 11.2605625,8.22887324 11.5,8.22887324 C11.7394375,8.22887324 11.9507038,8.32042208 12.1338028,8.50352113 C12.3169019,8.68662017 12.4084507,8.89788642 12.4084507,9.13732394 C12.4084507,9.37676146 12.3169019,9.58802772 12.1338028,9.77112676 L11.584507,10.3415493 C11.2323926,10.7218323 11.056338,11.1443635 11.056338,11.6091549 L11.056338,11.8415493 L11.943662,11.8415493 C11.943662,11.3767579 12.1197165,10.9542267 12.471831,10.5739437 L12.8732394,10.1514085 Z M11.943662,13.6373239 L11.943662,12.75 L11.056338,12.75 L11.056338,13.6373239 L11.943662,13.6373239 Z M11.5,5.98943662 C12.7394425,5.98943662 13.7992919,6.42957363 14.6795781,7.30985848 C15.559863,8.19014468 16,9.24999414 16,10.4894366 C16,11.7288791 15.559863,12.7887286 14.6795781,13.6690141 C13.7992919,14.5493001 12.7394425,14.9894366 11.5,14.9894366 C10.2605575,14.9894366 9.20070806,14.5493001 8.32042254,13.6690141 C7.44013647,12.7887286 7,11.7288791 7,10.4894366 C7,9.24999414 7.44013647,8.19014468 8.32042254,7.30985848 C9.20070806,6.42957363 10.2605575,5.98943662 11.5,5.98943662 Z" id="sd_mark"></path>
                    </g>
                </g>
            </g>
        </g>
    </g>
</svg>