<?xml version="1.0" encoding="UTF-8"?>
<svg width="16px" height="16px" viewBox="0 0 16 16" version="1.1" xmlns="http://www.w3.org/2000/svg" xmlns:xlink="http://www.w3.org/1999/xlink">
    <!-- Generator: Sketch 47.1 (45422) - http://www.bohemiancoding.com/sketch -->
    <title>Page 1</title>
    <desc>Created with Sketch.</desc>
    <defs></defs>
    <g id="Pages" stroke="none" stroke-width="1" fill="none" fill-rule="evenodd">
        <path d="M9.80769195,9.81730672 C10.653852,8.97114883 11.0769234,7.95513431 11.0769234,6.76923085 C11.0769234,5.5833274 10.6554545,4.56891319 9.81250149,3.72596021 C8.96954852,2.88300724 7.95513431,2.4615383 6.76923085,2.4615383 C5.5833274,2.4615383 4.56891534,2.88300724 3.72596237,3.72596021 C2.8830094,4.56891319 2.4615383,5.5833274 2.4615383,6.76923085 C2.4615383,7.95513431 2.8830094,8.96954636 3.72596237,9.81249934 C4.56891534,10.6554523 5.5833274,11.0769234 6.76923085,11.0769234 C7.95513431,11.0769234 8.96794606,10.6570548 9.80769195,9.81730672 Z M16,14.7692306 C16,15.1025657 15.8782065,15.3910243 15.6346172,15.6346153 C15.3910258,15.8782063 15.1025676,16 14.7692319,16 C14.4230765,16 14.1346184,15.8782063 13.9038466,15.6346153 L10.6057695,12.3461527 C9.45832731,13.1410297 8.17949401,13.5384617 6.76923085,13.5384617 C5.85256034,13.5384617 4.97596644,13.3605777 4.13942332,13.0048075 C3.30288019,12.6490373 2.58173369,12.168273 1.97596162,11.5624994 C1.37018934,10.956728 0.889425005,10.2355815 0.533653969,9.39903839 C0.177882847,8.56249526 0,7.68590137 0,6.76923085 C0,5.85255818 0.177882847,4.97596429 0.533653969,4.13942332 C0.889425005,3.30288019 1.37018934,2.58173369 1.97596162,1.97596011 C2.58173369,1.37018869 3.30288019,0.889424359 4.13942332,0.533652031 C4.97596644,0.177881856 5.85256034,0 6.76923085,0 C7.68590352,0 8.56249526,0.177881856 9.39903839,0.533652031 C10.2355815,0.889424359 10.956728,1.37018869 11.5625016,1.97596011 C12.168273,2.58173369 12.6490373,3.30288019 13.0048075,4.13942332 C13.3605798,4.97596429 13.5384617,5.85255818 13.5384617,6.76923085 C13.5384617,8.17949401 13.1410297,9.45832731 12.3461549,10.6057695 L15.644232,13.903846 C15.8814114,14.1410267 16,14.4294853 16,14.7692306 Z" id="Page-1" fill="#FFFFFF"></path>
    </g>
</svg>