<?xml version="1.0" encoding="UTF-8"?>
<svg width="28px" height="28px" viewBox="0 0 28 28" version="1.1" xmlns="http://www.w3.org/2000/svg" xmlns:xlink="http://www.w3.org/1999/xlink">
    <!-- Generator: Sketch 47.1 (45422) - http://www.bohemiancoding.com/sketch -->
    <title>sf_d-3</title>
    <desc>Created with Sketch.</desc>
    <defs></defs>
    <g id="Dịch-vụ" stroke="none" stroke-width="1" fill="none" fill-rule="evenodd">
        <g id="Dịch-vụ---Tên-miền" transform="translate(-853.000000, -617.000000)" fill-rule="nonzero" fill="#7A8E97">
            <path d="M880.900974,629.472842 C880.900974,622.5953 875.305674,617 868.428199,617 C863.321806,617 858.923092,620.084898 856.995726,624.488577 C856.921059,624.480369 856.846194,624.474809 856.77113,624.474809 C855.659139,624.474809 854.807754,625.369948 854.056652,626.159707 C853.925853,626.297191 853.802336,626.42713 853.681069,626.548397 C852.836567,627.392567 852.839877,629.24209 853.690005,631.495858 C854.626449,633.978459 856.475905,636.679697 858.897806,639.101797 C863.215168,643.418761 867.316605,644.950818 869.517021,644.951083 C869.51722,644.951083 869.517418,644.951083 869.517617,644.951083 C870.368473,644.951083 871.036898,644.732444 871.450676,644.318733 C871.572076,644.197267 871.70208,644.073617 871.839764,643.942686 C872.651168,643.170998 873.570799,642.296378 873.522875,641.144539 C873.519035,641.052794 873.508378,640.961447 873.492293,640.870298 C877.853343,638.924861 880.900974,634.548322 880.900974,629.472842 Z M872.167556,638.915395 C872.116851,638.872435 872.065352,638.829409 872.011735,638.786251 C870.836993,637.842194 869.922657,637.402468 869.134222,637.402468 C868.17408,637.402468 867.54365,638.042232 866.876217,638.719593 C866.805522,638.791348 866.733636,638.864293 866.660028,638.937835 C866.568681,639.029248 866.453371,639.071877 866.297352,639.071877 C866.297286,639.071877 866.297286,639.071877 866.29722,639.071877 C865.737683,639.071877 864.537787,638.538818 861.999253,636.000019 C860.850988,634.851688 860.01079,633.872681 859.501957,633.09027 C859.179395,632.594279 858.693333,631.707215 859.061371,631.339045 C859.134648,631.265768 859.207395,631.194147 859.279017,631.123584 C860.495527,629.92521 861.546222,628.890203 859.212293,625.987934 C859.137825,625.895196 859.063489,625.80835 858.989286,625.724284 C860.483811,621.974203 864.151348,619.316785 868.428199,619.316785 C874.028265,619.316785 878.584189,623.872775 878.584189,629.472842 C878.584189,633.753069 875.922534,637.423121 872.167556,638.915395 Z M866.374931,630.034033 C866.89687,629.468407 867.277617,629.002931 867.506648,628.65078 C867.748255,628.279168 867.87078,627.867574 867.87078,627.427385 C867.87078,626.776766 867.651414,626.247083 867.218638,625.853031 C866.79043,625.463083 866.199452,625.265428 865.462052,625.265428 C864.711943,625.265428 864.104681,625.495716 863.657144,625.950005 C863.209012,626.404823 862.990241,626.96747 863.006922,627.622459 L863.007518,627.647215 L863.062392,627.811641 L864.668785,627.811641 L864.668785,627.646156 C864.668785,627.331404 864.73948,627.079537 864.879017,626.897504 C865.010014,626.726591 865.200719,626.643518 865.462052,626.643518 C865.695385,626.643518 865.867953,626.713418 865.989617,626.857191 C866.118298,627.009239 866.180851,627.203319 866.180851,627.450686 C866.180851,627.636227 866.120085,627.844076 866.000208,628.068473 C865.873314,628.306043 865.653418,628.604974 865.350383,628.95269 L863.113891,631.350563 L863.113891,632.470165 L868.070818,632.470165 L868.070818,631.092009 L865.403206,631.092009 L866.374931,630.034033 Z M873.103537,625.362998 L871.478147,625.362998 L868.589778,629.977636 L868.665636,630.999404 L871.418241,630.999404 L871.418241,632.470033 L873.10347,632.470033 L873.10347,630.999404 L873.871385,630.999404 L873.871385,629.621314 L873.10347,629.621314 L873.10347,625.362998 L873.103537,625.362998 Z M870.32452,629.621314 L871.418307,627.884322 L871.418307,629.621314 L870.32452,629.621314 L870.32452,629.621314 Z" id="sf_d-3"></path>
        </g>
    </g>
</svg>