<?xml version="1.0" encoding="UTF-8"?>
<svg width="32px" height="32px" viewBox="0 0 32 32" version="1.1" xmlns="http://www.w3.org/2000/svg" xmlns:xlink="http://www.w3.org/1999/xlink">
    <!-- Generator: Sketch 47.1 (45422) - http://www.bohemiancoding.com/sketch -->
    <title>sf_d-1</title>
    <desc>Created with Sketch.</desc>
    <defs></defs>
    <g id="Dịch-vụ" stroke="none" stroke-width="1" fill="none" fill-rule="evenodd">
        <g id="Dịch-vụ---Tên-miền" transform="translate(-253.000000, -615.000000)" fill-rule="nonzero" fill="#7A8E97">
            <path d="M255.099001,626.551588 C255.267061,627.127794 255.500287,627.683421 255.79525,628.20475 L254.95495,629.264557 C254.680566,629.610967 254.711434,630.104857 255.020116,630.416969 L256.46749,631.864343 C256.779601,632.176454 257.273492,632.203859 257.619901,631.929475 L258.672849,631.096034 C259.214757,631.40818 259.790962,631.651661 260.391177,631.823151 L260.548947,633.177921 C260.600394,633.616935 260.970812,633.946195 261.409826,633.946195 L263.457415,633.946195 C263.896429,633.946195 264.266847,633.6169 264.318294,633.177921 L264.469205,631.871168 C265.114006,631.703108 265.73137,631.452733 266.311005,631.126902 L267.329655,631.932905 C267.676064,632.207288 268.169955,632.17642 268.482066,631.867738 L269.929441,630.420364 C270.241552,630.108253 270.26899,629.614362 269.994607,629.267953 L269.202324,628.263023 C269.531584,627.693642 269.788819,627.086602 269.960309,626.45209 L271.181316,626.311468 C271.620364,626.260021 271.949591,625.889603 271.949591,625.450589 L271.949591,623.403001 C271.949591,622.963987 271.62033,622.593569 271.181316,622.542122 L269.977458,622.401501 C269.812793,621.773848 269.565882,621.173633 269.250375,620.611147 L269.991211,619.674812 C270.265595,619.328403 270.234727,618.834512 269.926045,618.522401 L268.482101,617.078457 C268.169989,616.766345 267.676099,616.738907 267.329689,617.01329 L266.420793,617.733548 C265.830868,617.387138 265.199751,617.123044 264.537835,616.944695 L264.400643,615.768274 C264.349196,615.32926 263.978778,615 263.539764,615 L261.492176,615 C261.053162,615 260.682744,615.32926 260.631297,615.768274 L260.494105,616.944695 C259.815005,617.126474 259.166774,617.400857 258.56313,617.760986 L257.619936,617.01329 C257.273526,616.738907 256.779636,616.769775 256.467524,617.078457 L255.02015,618.525831 C254.708039,618.837942 254.6806,619.331833 254.954984,619.678242 L255.743837,620.676313 C255.428296,621.245659 255.18821,621.852733 255.030439,622.483816 L253.768274,622.627867 C253.32926,622.679314 253,623.049732 253,623.488746 L253,625.536334 C253,625.975348 253.32926,626.345766 253.768274,626.397213 L255.099001,626.551588 Z M262.517651,621.012467 C264.38346,621.012467 265.90286,622.531867 265.90286,624.397676 C265.90286,626.263486 264.38346,627.782885 262.517651,627.782885 C260.651876,627.782885 259.132442,626.263486 259.132442,624.397676 C259.132442,622.531867 260.651841,621.012467 262.517651,621.012467 Z M282.760274,627.055768 L281.679889,626.143443 C281.347233,625.862199 280.856737,625.875919 280.54123,626.174311 L279.944446,626.733368 C279.4403,626.489852 278.905252,626.318362 278.35302,626.218898 L278.185029,625.395747 C278.099284,624.970452 277.704857,624.67549 277.272635,624.709788 L275.862988,624.829831 C275.430834,624.867558 275.091284,625.220827 275.077565,625.656412 L275.050161,626.493282 C274.508219,626.68878 273.997179,626.956304 273.530727,627.292424 L272.817363,626.819113 C272.453736,626.579027 271.970169,626.647623 271.68896,626.980313 L270.776635,628.067558 C270.495357,628.400249 270.509076,628.89071 270.807434,629.206251 L271.431691,629.871597 C271.21558,630.358628 271.061239,630.869702 270.972099,631.394427 L270.080352,631.576206 C269.655057,631.661951 269.360094,632.056377 269.394392,632.488566 L269.514435,633.898212 C269.552163,634.330367 269.905432,634.669916 270.341016,634.683636 L271.304789,634.714469 C271.479777,635.174062 271.709539,635.609681 271.987318,636.017792 L271.448875,636.830654 C271.208789,637.194212 271.277385,637.677814 271.610041,637.959057 L272.690427,638.871383 C273.023151,639.152626 273.513578,639.138907 273.829153,638.840514 L274.535691,638.178564 C274.998714,638.394641 275.485711,638.555841 275.986461,638.651876 L276.181994,639.619078 C276.267738,640.044373 276.662165,640.339335 277.094319,640.305038 L278.503966,640.184995 C278.93612,640.147267 279.27567,639.794032 279.289389,639.358414 L279.320257,638.411756 C279.834727,638.229976 280.321723,637.983031 280.771027,637.677814 L281.549625,638.192283 C281.913183,638.432369 282.39675,638.363773 282.678028,638.031083 L283.590354,636.950697 C283.871563,636.618006 283.857844,636.127546 283.559486,635.812004 L282.931798,635.146658 C283.161629,634.659627 283.329723,634.145158 283.425689,633.616935 L284.283138,633.442015 C284.708433,633.35627 285.003395,632.961844 284.969098,632.529655 L284.849055,631.120009 C284.811327,630.687854 284.458058,630.348304 284.022474,630.334585 L283.161595,630.307147 C282.983211,629.806397 282.743125,629.333119 282.444767,628.894071 L282.914615,628.187533 C283.161595,627.824043 283.092999,627.337012 282.760274,627.055768 Z M277.447588,635.20493 C275.924759,635.335297 274.58021,634.2 274.453342,632.677205 C274.322975,631.154375 275.458307,629.809861 276.981068,629.682958 C278.503897,629.552626 279.848446,630.687923 279.975314,632.210718 C280.105681,633.733582 278.970349,635.078062 277.447588,635.20493 Z M260.031048,638.998319 C259.598894,639.042907 259.266204,639.406431 259.262774,639.842049 L259.252484,640.709788 C259.245625,641.145372 259.568026,641.51579 260.00018,641.570701 L260.638122,641.652982 C260.744446,642.040583 260.895357,642.411001 261.090855,642.76084 L260.67928,643.26845 C260.404896,643.607966 260.425475,644.095031 260.730727,644.407143 L261.337801,645.027936 C261.643053,645.340047 262.130084,645.374345 262.476493,645.106821 L262.987498,644.712394 C263.347627,644.925042 263.728369,645.093136 264.126191,645.209715 L264.194787,645.868236 C264.239374,646.30039 264.602932,646.63308 265.038517,646.63651 L265.906289,646.6468 C266.341839,646.653659 266.712292,646.331258 266.767168,645.899104 L266.846054,645.274881 C267.278242,645.168523 267.689818,645.007357 268.08078,644.79471 L268.560952,645.182277 C268.900502,645.45666 269.387567,645.436081 269.699678,645.13083 L270.320472,644.523756 C270.632583,644.218538 270.666881,643.731473 270.399391,643.385063 L270.032334,642.908287 C270.258701,642.53101 270.433655,642.129723 270.553698,641.707859 L271.123044,641.649552 C271.555198,641.604965 271.887854,641.241406 271.891318,640.805822 L271.901573,639.938049 C271.908467,639.502499 271.586066,639.132047 271.153912,639.07717 L270.598251,639.005145 C270.491927,638.58671 270.334191,638.181994 270.128403,637.804716 L270.474812,637.379421 C270.749196,637.039871 270.728617,636.55284 270.423365,636.240729 L269.816326,635.619936 C269.511074,635.30779 269.023974,635.273492 268.677599,635.54105 L268.262559,635.860021 C267.871597,635.623365 267.453128,635.441586 267.014148,635.318114 L266.959237,634.779636 C266.91465,634.347447 266.551125,634.014791 266.115507,634.011361 L265.247768,634.001072 C264.812184,633.994212 264.441766,634.316613 264.386855,634.748767 L264.318259,635.28385 C263.865561,635.400429 263.429976,635.578812 263.02526,635.812004 L262.596536,635.462165 C262.256986,635.187781 261.769921,635.208394 261.457809,635.513612 L260.833586,636.12415 C260.521475,636.429368 260.487177,636.916433 260.754701,637.262808 L261.121689,637.736154 C260.909042,638.113432 260.740982,638.514684 260.631228,638.936583 L260.031048,638.998319 Z M265.631906,638.017363 C266.876922,638.031083 267.874958,639.056626 267.861273,640.301642 C267.847554,641.546658 266.822011,642.544695 265.576995,642.53101 C264.331979,642.51729 263.333942,641.491781 263.347627,640.246731 C263.36138,639.001749 264.38689,638.003678 265.631906,638.017363 Z" id="sf_d-1"></path>
        </g>
    </g>
</svg>