<?xml version="1.0" encoding="UTF-8"?>
<svg width="19px" height="24px" viewBox="0 0 19 24" version="1.1" xmlns="http://www.w3.org/2000/svg" xmlns:xlink="http://www.w3.org/1999/xlink">
    <!-- Generator: Sketch 47.1 (45422) - http://www.bohemiancoding.com/sketch -->
    <title>sf_d-4</title>
    <desc>Created with Sketch.</desc>
    <defs></defs>
    <g id="Dịch-vụ" stroke="none" stroke-width="1" fill="none" fill-rule="evenodd">
        <g id="Dịch-vụ---Tên-miền" transform="translate(-1160.000000, -618.000000)" fill-rule="nonzero" fill="#7A8E97">
            <path d="M1176.44417,639.698625 L1176.44417,637.303875 C1176.44417,634.483359 1174.26477,632.796469 1172.17016,631.150688 C1171.88084,630.923859 1171.51259,630.493125 1171.51259,629.835609 C1171.51259,629.178094 1171.84433,628.536984 1172.17016,628.262766 C1174.20814,626.547937 1176.44417,624.930047 1176.44417,622.109578 L1176.44417,620.301375 L1178.08798,620.301375 L1178.08798,618 L1160.00577,618 L1160.00577,620.301375 L1161.64958,620.301375 L1161.64958,622.109625 C1161.64958,624.930141 1163.88552,626.547984 1165.92359,628.262812 C1166.24942,628.537031 1166.58116,629.178094 1166.58116,629.835656 C1166.58116,630.493219 1166.21291,630.923859 1165.92359,631.150734 C1163.82903,632.796563 1161.64958,634.483453 1161.64958,637.303922 L1161.64958,639.698672 L1160.00577,639.698672 L1160.00577,642 L1178.08794,642 L1178.08794,639.698625 L1176.44417,639.698625 Z M1164.89553,624.246562 C1164.28958,623.560734 1163.951,622.900594 1163.951,622.109578 L1163.951,620.301375 L1174.14275,620.301375 L1174.14275,622.109625 C1174.14275,622.900594 1173.80408,623.560828 1173.19822,624.246609 L1164.89553,624.246609 L1164.89553,624.246562 Z M1174.14275,639.057234 L1170.27219,637.546594 C1169.59822,637.283578 1168.49586,637.283578 1167.82189,637.546594 L1163.951,639.057328 L1163.951,637.304016 C1163.951,635.708156 1165.21939,634.6305 1167.2893,633.004406 L1167.34419,632.961375 C1168.12991,632.34525 1168.63953,631.487203 1168.8125,630.541641 C1168.96733,630.576141 1169.12647,630.576141 1169.2813,630.541641 C1169.45356,631.486875 1169.9638,632.344969 1170.74853,632.960391 L1170.80441,633.004406 C1172.87431,634.630406 1174.1427,635.707781 1174.1427,637.303969 L1174.1427,639.057234 L1174.14275,639.057234 Z" id="sf_d-4"></path>
        </g>
    </g>
</svg>