<?xml version="1.0" encoding="UTF-8"?>
<svg width="26px" height="26px" viewBox="0 0 26 26" version="1.1" xmlns="http://www.w3.org/2000/svg" xmlns:xlink="http://www.w3.org/1999/xlink">
    <!-- Generator: Sketch 47.1 (45422) - http://www.bohemiancoding.com/sketch -->
    <title>sf_d-2</title>
    <desc>Created with Sketch.</desc>
    <defs></defs>
    <g id="Dịch-vụ" stroke="none" stroke-width="1" fill="none" fill-rule="evenodd">
        <g id="Dịch-vụ---Tên-miền" transform="translate(-557.000000, -617.000000)" fill-rule="nonzero" fill="#7A8E97">
            <path d="M557.713318,638.839092 L565.706423,630.845934 L569.150382,634.286637 L561.157277,642.281396 C560.681749,642.756924 560.05855,642.99386 559.435298,642.99386 C558.812045,642.99386 558.188846,642.756924 557.713318,642.281396 C556.762263,641.330341 556.762263,639.790148 557.713318,638.839092 Z M577.690448,624.024645 L573.452875,628.263819 L571.735754,626.543441 L575.97007,622.304267 L577.773199,618.826246 L581.295051,617.002029 L582.994287,618.701265 L581.171725,622.224719 L577.690448,624.024645 Z M578.453203,633.264201 C580.986682,633.436218 582.994287,635.523372 582.995889,638.100735 C582.995889,638.850571 582.814103,639.551663 582.50899,640.187889 L579.274419,636.953318 C579.107261,636.781302 578.904386,636.667692 578.691795,636.588144 C578.506752,636.518366 578.318505,636.477791 578.127002,636.477791 C577.711536,636.477791 577.292813,636.636834 576.979585,636.953318 C576.513774,637.417474 576.398563,638.091018 576.611154,638.665528 C576.692304,638.876517 576.810772,639.079339 576.979585,639.248152 L580.214156,642.482723 C579.581187,642.789491 578.876838,642.969622 578.127002,642.969622 C575.549745,642.969622 573.46099,640.963618 573.292177,638.428538 L573.258115,638.100682 C573.258115,637.506686 573.37984,636.943495 573.571343,636.417676 L563.580349,626.425027 C563.05453,626.618131 562.491339,626.739856 561.897343,626.739856 L561.569487,626.707396 C559.036008,626.53538 557.028402,624.448226 557.028402,621.870969 C557.028402,621.121133 557.211791,620.418386 557.515302,619.783815 L560.749819,623.016784 C560.920234,623.188801 561.121507,623.302411 561.334099,623.383561 C561.515885,623.451737 561.705786,623.493914 561.89729,623.493914 C562.312756,623.493914 562.728222,623.334871 563.044706,623.018386 C563.507261,622.55423 563.622472,621.882287 563.409881,621.307778 C563.331988,621.095133 563.215121,620.893914 563.044706,620.723499 L559.810136,617.488928 C560.444706,617.185417 561.147454,617.002029 561.89729,617.002029 C564.474546,617.002029 566.5617,619.009634 566.733717,621.543113 L566.766177,621.870969 C566.766177,622.464965 566.644452,623.028156 566.449692,623.553975 L576.442341,633.548226 C576.96816,633.353466 577.531351,633.231741 578.125347,633.231741 L578.453203,633.264201 Z" id="sf_d-2"></path>
        </g>
    </g>
</svg>