<?xml version="1.0" encoding="UTF-8"?>
<svg width="32px" height="32px" viewBox="0 0 32 32" version="1.1" xmlns="http://www.w3.org/2000/svg" xmlns:xlink="http://www.w3.org/1999/xlink">
    <!-- Generator: Sketch 46.1 (44463) - http://www.bohemiancoding.com/sketch -->
    <title>si_dcp-ico_4</title>
    <desc>Created with Sketch.</desc>
    <defs></defs>
    <g id="Pages" stroke="none" stroke-width="1" fill="none" fill-rule="evenodd">
        <g id="Trang-chủ" transform="translate(-155.000000, -2221.000000)">
            <g id="Group-19" transform="translate(135.000000, 1970.000000)">
                <g id="3" transform="translate(20.000000, 34.000000)">
                    <g id="si_dcp-ico_4" transform="translate(0.000000, 217.000000)">
                        <path d="M7.69582796,10.5183656 C8.04129032,10.5183656 8.37505376,10.5706667 8.6892043,10.6676989 C9.8756129,9.33815054 11.1910538,8.12868817 12.6155699,7.0547957 C12.556043,6.80326882 12.5209462,6.54245161 12.5209462,6.27234409 C12.5209462,5.89935484 12.5842581,5.54116129 12.6964301,5.20567742 C11.1009032,4.06055914 9.36498925,3.09987097 7.51896774,2.35698925 C5.78787097,3.42675269 4.27836559,4.82133333 3.07544086,6.45574194 C3.96868817,8.03716129 5.03053763,9.51225806 6.23724731,10.8545376 C6.67905376,10.6412043 7.17316129,10.5183656 7.69582796,10.5183656 Z M20.9245591,18.7657634 C21.1341075,18.3294624 21.4317419,17.9437419 21.7995699,17.6368172 C20.8058495,14.5775484 19.2309677,11.780129 17.2029247,9.37324731 C16.7993118,9.54460215 16.3550968,9.63956989 15.8885161,9.63956989 C15.1580215,9.63956989 14.483957,9.40421505 13.932043,9.0092043 C12.7115699,9.93686022 11.5819355,10.9770323 10.5548387,12.112172 C10.8755269,12.6272688 11.0637419,13.2342366 11.0637419,13.8855914 C11.0637419,14.2375914 11.0093763,14.576172 10.9095914,14.8947957 C13.8635699,16.8684731 17.2624516,18.2214194 20.9245591,18.7657634 Z M20.1355699,21.0291613 C16.2288172,20.3819355 12.6059355,18.8913548 9.45307527,16.7552688 C8.94141935,17.0690753 8.34098925,17.2538495 7.69651613,17.2538495 C7.45978495,17.2538495 7.22924731,17.2287312 7.00593548,17.1822796 C5.49643011,20.044043 4.53195699,23.2357849 4.25462366,26.619871 C5.76172043,28.2356989 7.60051613,29.5373763 9.66606452,30.4113548 C12.2298495,26.4674409 15.8155699,23.2051613 20.1355699,21.0291613 Z M26.4533333,4.09668817 C23.9170753,4.34133333 21.4943656,4.97789247 19.2388817,5.9347957 C19.2509247,6.04593548 19.2564301,6.15810753 19.2564301,6.272 C19.2564301,6.8036129 19.1298065,7.30460215 18.9106237,7.75191398 C21.1636989,10.3972473 22.9140645,13.4802581 24.0189247,16.8550538 C25.388043,16.8794839 26.5589677,17.7183656 27.0623656,18.9095914 C28.5859785,18.7550968 30.0696774,18.4636559 31.4990108,18.0431828 C31.600172,17.3192258 31.6562581,16.5804731 31.6562581,15.8276129 C31.6562581,11.1755699 29.6488602,6.99251613 26.4533333,4.09668817 Z M21.8298495,22.8283871 C17.7971613,24.7174194 14.4254624,27.6266667 11.9834839,31.1834839 C13.2142796,31.4907527 14.5015054,31.6562581 15.827957,31.6562581 C18.2155699,31.6562581 20.4779355,31.1243011 22.5076989,30.1777204 C22.8338925,28.5821935 23.0066237,26.931957 23.0066237,25.2414624 C23.0066237,24.6307097 22.9790968,24.0261505 22.9333333,23.4270968 C22.5262796,23.2966882 22.1532903,23.0923011 21.8298495,22.8283871 Z" id="Shape" fill="#A2CEE5" fill-rule="nonzero"></path>
                        <path d="M4.32860215,13.8855914 C4.32860215,14.6508387 4.58597849,15.3538065 5.01643011,15.9187957 C3.69204301,18.3865806 2.73341935,21.0769892 2.22830108,23.9249892 C0.814107527,21.5556129 0,18.7874409 0,15.8276129 C0,13.272086 0.609376344,10.860043 1.68567742,8.72326882 C2.54348387,10.0875699 3.52206452,11.3682581 4.6031828,12.5546667 C4.42735484,12.9627527 4.32860215,13.4128172 4.32860215,13.8855914 Z M15.8885161,2.90443011 C15.2636559,2.90443011 14.6797419,3.07784946 14.1780645,3.37513978 C12.9455484,2.48154839 11.6356129,1.68877419 10.2606452,1.01023656 C11.9927742,0.35888172 13.8687312,0 15.827957,0 C18.7024516,0 21.3952688,0.770064516 23.7185376,2.10890323 C21.7940645,2.47948387 19.9432258,3.05892473 18.1863226,3.81488172 C17.5845161,3.2516129 16.7779785,2.90443011 15.8885161,2.90443011 Z M25.2927312,23.3114839 C26.1732473,22.9309247 26.8590108,22.1852903 27.1597419,21.263828 C28.4376774,21.1409892 29.6904946,20.9300645 30.9109677,20.6348387 C29.8804301,23.8713118 27.8365591,26.6546237 25.1530323,28.6152258 C25.2906667,27.5096774 25.3636129,26.384172 25.3636129,25.2414624 C25.3636129,24.5925161 25.3391828,23.9490753 25.2927312,23.3114839 Z" id="Combined-Shape" fill="#2D9DD5"></path>
                    </g>
                </g>
            </g>
        </g>
    </g>
</svg>