<?xml version="1.0" encoding="UTF-8"?>
<svg width="26px" height="32px" viewBox="0 0 26 32" version="1.1" xmlns="http://www.w3.org/2000/svg" xmlns:xlink="http://www.w3.org/1999/xlink">
    <!-- Generator: Sketch 46.1 (44463) - http://www.bohemiancoding.com/sketch -->
    <title>si_dcp-ico_2</title>
    <desc>Created with Sketch.</desc>
    <defs></defs>
    <g id="Pages" stroke="none" stroke-width="1" fill="none" fill-rule="evenodd">
        <g id="Trang-chủ" transform="translate(-556.000000, -2004.000000)">
            <g id="Group-19" transform="translate(135.000000, 1970.000000)">
                <g id="3" transform="translate(20.000000, 34.000000)">
                    <g id="si_dcp-ico_2" transform="translate(401.000000, 0.000000)">
                        <path d="M0.00728227571,8.19256018 L0.00728227571,31.977593 L11.7874836,31.977593 L11.7874836,27.0760613 L13.88814,27.0760613 L13.88814,31.977593 L25.6683414,31.977593 L25.6683414,8.19256018 L0.00728227571,8.19256018 Z M11.9732516,23.9474836 L3.62405252,23.9474836 L3.62405252,21.8468271 L11.9731816,21.8468271 L11.9731816,23.9474836 L11.9732516,23.9474836 Z M11.9732516,19.0459519 L3.62405252,19.0459519 L3.62405252,16.9452954 L11.9731816,16.9452954 L11.9731816,19.0459519 L11.9732516,19.0459519 Z M11.9732516,14.1444201 L3.62405252,14.1444201 L3.62405252,12.0437637 L11.9731816,12.0437637 L11.9731816,14.1444201 L11.9732516,14.1444201 Z M22.0515011,23.9474836 L14.1896543,23.9474836 L14.1896543,21.8468271 L22.0515711,21.8468271 L22.0515711,23.9474836 L22.0515011,23.9474836 Z M22.0515011,19.0459519 L14.1896543,19.0459519 L14.1896543,16.9452954 L22.0515711,16.9452954 L22.0515711,19.0459519 L22.0515011,19.0459519 Z M22.0515011,14.1444201 L14.1896543,14.1444201 L14.1896543,12.0437637 L22.0515711,12.0437637 L22.0515711,14.1444201 L22.0515011,14.1444201 Z" id="Shape" fill="#A2CEE5" fill-rule="nonzero"></path>
                        <polygon id="Path" fill="#2D9DD5" points="6.77265646 3.50109409 8.87331291 3.50109409 8.87331291 6.09190372 11.7874836 6.09190372 11.7874836 3.50109409 13.88814 3.50109409 13.88814 6.09190372 16.8023107 6.09190372 16.8023107 3.50109409 18.9029672 3.50109409 18.9029672 6.09190372 22.8674661 6.09190372 22.8674661 0 2.80815755 0 2.80815755 6.09190372 6.77265646 6.09190372"></polygon>
                    </g>
                </g>
            </g>
        </g>
    </g>
</svg>