<?xml version="1.0" encoding="UTF-8"?>
<svg width="32px" height="31px" viewBox="0 0 32 31" version="1.1" xmlns="http://www.w3.org/2000/svg" xmlns:xlink="http://www.w3.org/1999/xlink">
    <!-- Generator: Sketch 46.1 (44463) - http://www.bohemiancoding.com/sketch -->
    <title>si_dcp-ico_3</title>
    <desc>Created with Sketch.</desc>
    <defs></defs>
    <g id="Pages" stroke="none" stroke-width="1" fill="none" fill-rule="evenodd">
        <g id="Trang-chủ" transform="translate(-954.000000, -2005.000000)">
            <g id="Group-19" transform="translate(135.000000, 1970.000000)">
                <g id="3" transform="translate(20.000000, 34.000000)">
                    <g id="si_dcp-ico_3" transform="translate(799.000000, 1.000000)">
                        <path d="M27.8484528,19.085283 L31.5483774,15.1607547 L27.8436226,11.2410566 L28.5295094,5.89162264 L23.2283774,4.89720755 L20.6381887,0.167245283 L15.7657358,2.47728302 L10.8908679,0.173283019 L8.30732075,4.90566038 L3.00679245,5.90732075 L3.69932075,11.2561509 L2.5243549e-29,15.1794717 L3.70415094,19.0997736 L3.0170566,24.4492075 L8.31879245,25.4436226 L10.9083774,30.1735849 L15.7808302,27.8629434 L20.6563019,30.1675472 L23.2404528,25.4339623 L28.5403774,24.4329057 L28.4691321,23.885283 L27.8484528,19.085283 Z M15.7741887,25.5136604 C10.0606792,25.5136604 5.4309434,20.882717 5.4309434,15.1704151 C5.4309434,9.45811321 10.0606792,4.82716981 15.7741887,4.82716981 C21.4883019,4.82716981 26.117434,9.45811321 26.117434,15.1704151 C26.117434,20.882717 21.4876981,25.5136604 15.7741887,25.5136604 Z" id="Shape" fill="#A2CEE5" fill-rule="nonzero"></path>
                        <path d="M15.7741887,6.77856604 C20.4009057,6.77856604 24.1660377,10.5424906 24.1660377,15.1704151 C24.1660377,19.7983396 20.4009057,23.5622642 15.7741887,23.5622642 C11.1474717,23.5622642 7.38233962,19.7977358 7.38233962,15.1704151 C7.38233962,10.5430943 11.1474717,6.77856604 15.7741887,6.77856604 Z M15.6063396,19.0581132 L21.2443774,12.1249811 L19.7301132,10.8938868 L15.3382642,16.2928302 L12.2451321,13.7141132 L10.9959245,15.2126792 L11.7446038,15.8375849 L15.6063396,19.0581132 Z" id="Combined-Shape" fill="#2D9DD5"></path>
                    </g>
                </g>
            </g>
        </g>
    </g>
</svg>