<?xml version="1.0" encoding="UTF-8"?>
<svg width="32px" height="33px" viewBox="0 0 32 33" version="1.1" xmlns="http://www.w3.org/2000/svg" xmlns:xlink="http://www.w3.org/1999/xlink">
    <!-- Generator: Sketch 46.1 (44463) - http://www.bohemiancoding.com/sketch -->
    <title>si_dc-ico_4</title>
    <desc>Created with Sketch.</desc>
    <defs></defs>
    <g id="Pages" stroke="none" stroke-width="1" fill="none" fill-rule="evenodd">
        <g id="Trang-chủ" transform="translate(-1039.000000, -1237.000000)" fill-rule="nonzero" fill="#2D9DD5">
            <g id="Group-18" transform="translate(735.000000, 1074.000000)">
                <path d="M325.796767,176.40558 C325.788767,176.392176 325.778642,176.379779 325.77008,176.366942 C325.752455,176.341141 325.73383,176.315907 325.711393,176.293378 C325.69858,176.280478 325.684206,176.268647 325.669768,176.25688 C325.656956,176.246119 325.646331,176.233281 325.632456,176.22359 C325.621269,176.215536 325.608456,176.212326 325.596706,176.205341 C325.587644,176.199992 325.580706,176.192441 325.571644,176.188162 L320.238373,173.503183 C320.088499,173.42748 319.911438,173.42748 319.761564,173.503183 L314.428294,176.188162 C314.418669,176.192441 314.411731,176.200496 314.402669,176.205907 C314.391481,176.212326 314.378669,176.216102 314.367482,176.223653 C314.353607,176.233344 314.342919,176.246182 314.330169,176.256943 C314.315794,176.268773 314.301357,176.280541 314.288545,176.293441 C314.26617,176.31597 314.247482,176.341204 314.229858,176.367005 C314.221295,176.379905 314.21117,176.392239 314.20317,176.405643 C314.180795,176.445351 314.163733,176.486758 314.151983,176.530745 C314.151421,176.532885 314.150358,176.535024 314.149858,176.536661 C314.139171,176.579075 314.133296,176.623125 314.133296,176.668245 L314.133296,182.575172 C314.133296,182.778683 314.24742,182.964511 314.428231,183.055758 L319.761502,185.740736 C319.768939,185.744512 319.778064,185.742876 319.786064,185.746085 C319.854314,185.776668 319.926313,185.79712 319.999938,185.79712 C320.073562,185.79712 320.145561,185.776731 320.213811,185.746085 C320.221811,185.742876 320.230873,185.744449 320.238373,185.740736 L325.571644,183.055758 C325.752455,182.964448 325.866579,182.778683 325.866579,182.575172 L325.866579,176.668245 C325.866579,176.623125 325.860704,176.579075 325.850017,176.536661 C325.849454,176.535024 325.848392,176.532885 325.847892,176.530745 C325.836267,176.486695 325.819205,176.445351 325.796767,176.40558 Z M319.466692,184.391168 L315.200037,182.243223 L315.200037,177.461838 L319.466692,179.180232 L319.466692,184.391168 Z M324.800025,182.243223 L320.533371,184.391168 L320.533371,179.180232 L324.800025,177.461838 L324.800025,182.243223 Z M306.666792,178.279282 C306.961227,178.279282 307.200162,178.519292 307.2001,178.816252 L307.2001,180.427227 C307.2001,180.724187 306.961164,180.964197 306.666792,180.964197 C306.372419,180.964197 306.133483,180.724187 306.133483,180.427227 L306.133483,178.816252 C306.133483,178.519292 306.372419,178.279282 306.666792,178.279282 Z M314.81804,191.276636 C315.084726,191.402871 315.19885,191.722863 315.073476,191.99138 C314.982789,192.185766 314.790791,192.299604 314.590792,192.299604 C314.514543,192.299604 314.437231,192.283495 314.363607,192.249136 L312.91618,191.562835 C312.650057,191.436663 312.535433,191.116545 312.660745,190.848091 C312.786056,190.579638 313.104491,190.4658 313.370614,190.590902 L314.81804,191.276636 Z M333.866579,177.205278 L333.866579,178.816252 C333.866579,179.113213 333.628206,179.353223 333.333271,179.353223 C333.038336,179.353223 332.799963,179.113213 332.799963,178.816252 L332.799963,177.205278 C332.799963,176.908317 333.038336,176.668307 333.333271,176.668307 C333.628206,176.668307 333.866579,176.908317 333.866579,177.205278 Z M333.333271,180.427227 C333.628206,180.427227 333.866579,180.667237 333.866579,180.964197 L333.866579,182.575172 C333.866579,182.872132 333.628206,183.112142 333.333271,183.112142 C333.038336,183.112142 332.799963,182.872132 332.799963,182.575172 L332.799963,180.964197 C332.799963,180.667237 333.038336,180.427227 333.333271,180.427227 Z M333.866579,185.314709 C335.08207,185.563844 335.999938,186.648608 336,187.944813 C336,189.425337 334.803697,190.629792 333.333333,190.629792 C332.482152,190.629792 331.731783,190.218993 331.243225,189.592349 L329.497113,190.419862 C329.423489,190.454221 329.346177,190.470897 329.270428,190.470897 C329.069929,190.470897 328.877931,190.357059 328.787244,190.162106 C328.66187,189.893589 328.776556,189.5741 329.042679,189.447362 L330.766416,188.631114 C330.707729,188.410926 330.666667,188.183754 330.666667,187.944813 C330.666667,187.531875 330.767478,187.144675 330.933852,186.795106 C330.923727,186.789254 330.913602,186.787051 330.903977,186.780633 L327.704002,184.632688 C327.459192,184.468381 327.393067,184.135425 327.556253,183.88843 C327.71944,183.641435 328.050687,183.574857 328.295998,183.739163 L331.495973,185.887108 C331.52266,185.905358 331.539222,185.931725 331.561597,185.953183 C331.907157,185.641183 332.327966,185.411367 332.799963,185.314709 L332.799963,184.185957 C332.799963,183.889563 333.038336,183.648987 333.333271,183.648987 C333.628206,183.648987 333.866579,183.889563 333.866579,184.185957 L333.866579,185.314709 Z M326.629698,190.590776 C326.896384,190.465611 327.213694,190.579449 327.33963,190.848028 C327.465004,191.116482 327.350318,191.436537 327.084195,191.563276 L325.636206,192.24901 C325.563144,192.283432 325.48527,192.300045 325.40952,192.300045 C325.209522,192.300045 325.017523,192.186207 324.926837,191.991254 C324.800962,191.722737 324.915587,191.403248 325.182272,191.27651 L326.629698,190.590776 Z M323.25185,192.191178 C323.517973,192.066076 323.835845,192.179914 323.961594,192.448368 C324.086968,192.716822 323.972844,193.036877 323.706159,193.163615 L322.630417,193.673212 C322.454418,194.982947 321.348302,196 320.000062,196 C318.651823,196 317.545144,194.982947 317.369146,193.673212 L316.293966,193.163615 C316.027344,193.03694 315.913219,192.716885 316.038531,192.448368 C316.164405,192.179914 316.482277,192.066076 316.7484,192.191178 L317.463082,192.530049 C317.79908,191.43402 318.802759,190.630169 320.000125,190.630169 C321.197491,190.630169 322.20067,191.43402 322.536668,192.530049 L323.25185,192.191178 Z M323.28753,166.808822 L322.572348,166.469951 C322.236351,167.56598 321.233171,168.369831 320.035806,168.369831 C318.83844,168.369831 317.834761,167.56598 317.498763,166.469951 L316.784081,166.808822 C316.517958,166.933924 316.200086,166.820086 316.074212,166.551632 C315.9489,166.283115 316.063024,165.96306 316.329647,165.836385 L317.404826,165.326788 C317.580825,164.017053 318.687504,163 320.035743,163 C321.383983,163 322.490099,164.017053 322.666098,165.326788 L323.741839,165.836385 C324.008525,165.963123 324.122649,166.283178 323.997275,166.551632 C323.871526,166.820086 323.553653,166.933924 323.28753,166.808822 Z M325.078898,167.604254 C324.806337,167.49092 324.676776,167.177283 324.788838,166.902914 C324.901399,166.629615 325.212834,166.499667 325.485395,166.610799 L326.964821,167.224605 C327.236818,167.33794 327.366942,167.651514 327.254943,167.925946 C327.169631,168.132666 326.970696,168.258335 326.761072,168.258335 C326.693323,168.258335 326.624511,168.244931 326.558386,168.218061 L325.078898,167.604254 Z M313.238928,168.258146 C313.029304,168.258146 312.830369,168.132981 312.745557,167.925757 C312.633558,167.651325 312.763119,167.337751 313.035679,167.224417 L314.515168,166.611176 C314.786603,166.499478 315.099163,166.628859 315.211162,166.903291 C315.323162,167.177157 315.1936,167.490731 314.92104,167.604065 L313.441614,168.217872 C313.375489,168.245246 313.306677,168.258146 313.238928,168.258146 Z M306.133296,173.928581 C304.917868,173.67995 304,172.594682 304,171.298351 C304,169.817891 305.196241,168.613436 306.666667,168.613436 C307.346661,168.613436 307.961032,168.87868 308.432528,169.301812 C308.479465,169.256189 308.533277,169.217551 308.596777,169.19068 L310.569511,168.372922 C310.841509,168.260657 311.153507,168.390605 311.266068,168.665037 C311.378067,168.938903 311.248506,169.252476 310.975946,169.365811 L309.070335,170.156258 C309.234584,170.504191 309.333271,170.888182 309.333271,171.298414 C309.333271,171.712422 309.231897,172.099622 309.065523,172.450261 C309.075085,172.455609 309.086273,172.456176 309.095898,172.462595 L312.295873,174.610539 C312.540683,174.775413 312.606808,175.108368 312.443622,175.355363 C312.340685,175.510545 312.172186,175.594304 311.999375,175.594304 C311.898063,175.594304 311.795127,175.564727 311.70444,175.504064 L308.504465,173.356119 C308.477215,173.338436 308.461215,173.311565 308.43884,173.28954 C308.092718,173.602107 307.672471,173.832489 307.199913,173.928581 L307.199913,175.594304 C307.199913,175.891264 306.961539,176.131274 306.666604,176.131274 C306.372231,176.131274 306.133296,175.891264 306.133296,175.594304 L306.133296,173.928581 Z M328.0005,175.594304 C327.828251,175.594304 327.65919,175.510545 327.556128,175.3553 C327.392942,175.108242 327.459067,174.77535 327.703877,174.610476 L330.903852,172.462532 C330.913415,172.456113 330.924602,172.455547 330.934227,172.450198 C330.767291,172.099559 330.666479,171.712359 330.666479,171.298351 C330.666479,170.888119 330.765666,170.504191 330.929415,170.156195 L329.024367,169.365748 C328.751869,169.252413 328.622245,168.93884 328.734244,168.664974 C328.846806,168.390605 329.158241,168.261727 329.430801,168.372859 L331.403036,169.19068 C331.466473,169.217488 331.52091,169.256189 331.567285,169.301812 C332.038781,168.87868 332.653714,168.613373 333.333146,168.613373 C334.803572,168.613373 335.999813,169.817891 335.999813,171.298351 C335.999813,172.594619 335.081945,173.679887 333.866517,173.928518 L333.866517,175.594241 C333.866517,175.891201 333.628144,176.131211 333.333208,176.131211 C333.038273,176.131211 332.7999,175.891201 332.7999,175.594241 L332.7999,173.928518 C332.327904,173.832426 331.907157,173.602044 331.561535,173.290044 C331.539097,173.311565 331.522597,173.338373 331.49591,173.356119 L328.295935,175.504064 C328.204748,175.56479 328.101812,175.594304 328.0005,175.594304 Z M311.704252,183.739415 C311.949063,183.574542 312.280248,183.641121 312.443997,183.888242 C312.607183,184.1353 312.541058,184.468192 312.295748,184.633065 L309.095773,186.78101 C309.08671,186.787492 309.076085,186.789632 309.06646,186.79498 C309.232834,187.145053 309.333646,187.531687 309.333646,187.945191 C309.333646,188.183628 309.292584,188.410737 309.234459,188.630925 L310.957633,189.447676 C311.223756,189.573848 311.33838,189.893904 311.213069,190.16242 C311.121882,190.356807 310.929883,190.470645 310.729885,190.470645 C310.653573,190.470645 310.576824,190.454535 310.503199,190.41961 L308.757088,189.592098 C308.268592,190.218804 307.51766,190.630106 306.666979,190.630106 C305.196553,190.630106 304.000312,189.425588 304.000312,187.945128 C304.000312,186.648797 304.917618,185.563529 306.133671,185.314898 L306.133671,182.575172 C306.133671,182.278211 306.372044,182.038201 306.666979,182.038201 C306.961352,182.038201 307.200287,182.278211 307.200287,182.575172 L307.200287,185.314898 C307.672284,185.411053 308.093031,185.641435 308.438653,185.953939 C308.46109,185.931914 308.47759,185.905106 308.504277,185.88736 L311.704252,183.739415 Z" id="si_dc-ico_4"></path>
            </g>
        </g>
    </g>
</svg>