<?xml version="1.0" encoding="UTF-8"?>
<svg width="26px" height="25px" viewBox="0 0 26 25" version="1.1" xmlns="http://www.w3.org/2000/svg" xmlns:xlink="http://www.w3.org/1999/xlink">
    <!-- Generator: Sketch 46.1 (44463) - http://www.bohemiancoding.com/sketch -->
    <title>si_dc-ico_1</title>
    <desc>Created with Sketch.</desc>
    <defs></defs>
    <g id="Pages" stroke="none" stroke-width="1" fill="none" fill-rule="evenodd">
        <g id="Trang-chủ" transform="translate(-742.000000, -1096.000000)" fill-rule="nonzero" fill="#2D9DD5">
            <g id="Group-18" transform="translate(735.000000, 1074.000000)">
                <path d="M20.0008494,41.7749 C20.5852081,41.7749 21.1350262,41.5020009 21.4804321,41.0384615 C23.6915957,38.0760338 27.6031753,32.4190751 27.6031753,29.4627612 C27.6031753,25.3409293 24.1989459,22 20.0002831,22 C15.8004878,22 12.3973909,25.3409293 12.3973909,29.4627612 C12.3973909,32.4185193 16.3078381,38.0760338 18.5195679,41.0384615 C18.8666725,41.5020009 19.4164906,41.7749 20.0008494,41.7749 Z M16.8378378,29.3154735 C16.8378378,27.6013784 18.2534355,26.2118719 20.0002831,26.2118719 C21.7465645,26.2118719 23.1621622,27.6013784 23.1621622,29.3154735 C23.1621622,31.0295687 21.7465645,32.4190751 20.0002831,32.4190751 C18.2534355,32.4196309 16.8378378,31.0301245 16.8378378,29.3154735 Z M25.9820328,37.4879947 C25.5760394,38.1299466 25.1338067,38.7985771 24.6547684,39.4933304 C28.6869569,40.0852601 30.7508984,41.3536016 30.7508984,41.9838817 C30.7508984,42.8236994 27.0935601,44.792908 20.0002831,44.792908 C12.9064399,44.792908 9.2485354,42.8236994 9.2485354,41.9838817 C9.2485354,41.3530458 11.3124769,40.0852601 15.3457979,39.4933304 C14.8661933,38.7985771 14.4239606,38.1299466 14.0179672,37.4879947 C10.0378727,38.2255447 7,39.7395509 7,41.9844375 C7,45.2775678 13.5406277,47 20.0002831,47 C26.4599386,47 33,45.277012 33,41.9844375 C33,39.7395509 29.9626936,38.2255447 25.9820328,37.4879947 Z" id="si_dc-ico_1"></path>
            </g>
        </g>
    </g>
</svg>