<?xml version="1.0" encoding="UTF-8"?>
<svg width="25px" height="25px" viewBox="0 0 25 25" version="1.1" xmlns="http://www.w3.org/2000/svg" xmlns:xlink="http://www.w3.org/1999/xlink">
    <!-- Generator: Sketch 46.1 (44463) - http://www.bohemiancoding.com/sketch -->
    <title>si_dc-ico_5</title>
    <desc>Created with Sketch.</desc>
    <defs></defs>
    <g id="Pages" stroke="none" stroke-width="1" fill="none" fill-rule="evenodd">
        <g id="Trang-chủ" transform="translate(-743.000000, -1407.000000)" fill-rule="nonzero" fill="#2D9DD5">
            <g id="Group-18" transform="translate(735.000000, 1074.000000)">
                <path d="M21.3241758,337.010989 L21.3241758,358 L26.3379121,358 L26.3379121,354.2 L27.9862637,354.2 L27.9862637,358 L33,358 L33,337.010989 L21.3241758,337.010989 Z M30.3443407,349.868132 L23.9798352,349.868132 L23.9798352,348.21978 L30.3443407,348.21978 L30.3443407,349.868132 L30.3443407,349.868132 Z M30.3443407,345.857143 L23.9798352,345.857143 L23.9798352,344.208791 L30.3443407,344.208791 L30.3443407,345.857143 L30.3443407,345.857143 Z M30.3443407,341.846154 L23.9798352,341.846154 L23.9798352,340.197802 L30.3443407,340.197802 L30.3443407,341.846154 L30.3443407,341.846154 Z M8,358 L13.0137363,358 L13.0137363,354.2 L14.6620879,354.2 L14.6620879,358 L19.6758242,358 L19.6758242,333 L8,333 L8,358 Z M10.6556593,336.186813 L17.0201648,336.186813 L17.0201648,337.835165 L10.6556593,337.835165 L10.6556593,336.186813 Z M10.6556593,340.197802 L17.0201648,340.197802 L17.0201648,341.846154 L10.6556593,341.846154 L10.6556593,340.197802 Z M10.6556593,344.208791 L17.0201648,344.208791 L17.0201648,345.857143 L10.6556593,345.857143 L10.6556593,344.208791 Z M10.6556593,348.21978 L17.0201648,348.21978 L17.0201648,349.868132 L10.6556593,349.868132 L10.6556593,348.21978 Z" id="si_dc-ico_5" transform="translate(20.500000, 345.500000) scale(-1, 1) translate(-20.500000, -345.500000) "></path>
            </g>
        </g>
    </g>
</svg>