<?xml version="1.0" encoding="UTF-8"?>
<svg width="25px" height="31px" viewBox="0 0 25 31" version="1.1" xmlns="http://www.w3.org/2000/svg" xmlns:xlink="http://www.w3.org/1999/xlink">
    <!-- Generator: Sketch 46.1 (44463) - http://www.bohemiancoding.com/sketch -->
    <title>si_dc-ico_3</title>
    <desc>Created with Sketch.</desc>
    <defs></defs>
    <g id="Pages" stroke="none" stroke-width="1" fill="none" fill-rule="evenodd">
        <g id="Trang-chủ" transform="translate(-743.000000, -1236.000000)" fill-rule="nonzero" fill="#2D9DD5">
            <g id="Group-18" transform="translate(735.000000, 1074.000000)">
                <path d="M17.9395628,168.626491 L19.3966831,167.061862 L21.8149555,169.147168 L20.7170319,170.472877 L20.2841216,170.995604 L21.3704468,172.09358 L18.8890565,174.601334 L18.4667882,174.174651 L17.9387237,173.641066 L17.417507,174.181482 C14.3588213,177.352834 11.8797718,181.322761 12.206297,184.155669 C12.3427368,185.338528 12.9640332,186.303677 14.450097,187.19147 C15.3724263,187.74194 16.1482083,188.010915 16.8897532,188.010915 C17.0881697,188.010915 17.2855865,187.991095 17.4843592,187.952223 C18.1519052,187.821679 18.6126565,187.591432 19.8619615,186.852085 C20.1872425,186.659655 20.3349699,186.573157 20.5238868,186.465819 C22.02368,185.613675 23.2012094,185.203659 24.5740565,185.203659 C24.9662792,185.203659 25.3684913,185.242062 25.7677655,185.317694 C27.9373831,185.7284 29.9356349,186.833165 31.548359,188.517057 L33,190.033022 C30.9888754,192.002656 29.9986744,192.991649 30.0293969,193 L28.5468657,191.45177 C27.5312425,190.391463 26.332606,189.718403 24.9952997,189.465617 C24.1521489,189.30843 23.5796585,189.543315 21.9736699,190.492765 C19.879367,191.73429 18.6473795,192.226554 16.8899251,192.226554 C15.424595,192.226554 13.8897158,191.758718 12.3251478,190.824126 C9.61059779,189.203898 8.33210577,187.039301 8.05692358,184.636055 C7.54804058,180.187854 10.5129665,175.257354 14.4752866,171.18443 L14.9885386,170.656851 L14.2397174,169.902677 L16.7211319,167.395322 L17.402179,168.083489 L17.9395628,168.626491 Z M26.7847837,169.708682 C26.7943234,169.924484 26.7048562,170.133079 26.5424228,170.273589 L24.2102572,172.283722 L24.7010811,176.108246 C24.7504127,176.492522 24.4827844,176.843538 24.1034293,176.892951 C24.0727475,176.897293 24.0424953,176.899116 24.0131885,176.899116 C23.6703595,176.899116 23.372479,176.641803 23.3269289,176.288964 L22.7879766,172.087633 C22.7581541,171.852378 22.8469339,171.618078 23.0256966,171.464454 L24.9647561,169.793266 L23.075372,168.445738 C22.8917964,168.313912 22.7821324,168.100628 22.7821324,167.873362 L22.7821324,165.203056 L20.7510273,165.962489 C20.5072053,166.053239 20.2337328,165.999397 20.0420785,165.821632 L17.9437655,163.875501 L17.0252003,165.9776 C16.914419,166.231526 16.6658701,166.395397 16.3913663,166.395397 L11.925393,166.395397 C11.5426002,166.395397 11.2324298,166.081724 11.2324298,165.69519 C11.2324298,165.308656 11.5426002,164.994982 11.925393,164.994982 L15.9395608,164.994982 L17.0661095,162.417336 C17.1560924,162.211 17.339582,162.061024 17.5580506,162.014824 C17.7772928,161.96871 18.0038401,162.031584 18.1682502,162.183905 L20.6671463,164.501025 L23.2343676,163.540725 C23.4467343,163.461873 23.6849699,163.492615 23.8704362,163.623051 C24.0567619,163.754096 24.1677151,163.968335 24.1677151,164.197685 L24.1677151,167.510536 L26.4924895,169.168698 C26.6671269,169.293403 26.7749861,169.492619 26.7847837,169.708682 Z" id="si_dc-ico_3"></path>
            </g>
        </g>
    </g>
</svg>