<?xml version="1.0" encoding="UTF-8"?>
<svg width="32px" height="25px" viewBox="0 0 32 25" version="1.1" xmlns="http://www.w3.org/2000/svg" xmlns:xlink="http://www.w3.org/1999/xlink">
    <!-- Generator: Sketch 46.1 (44463) - http://www.bohemiancoding.com/sketch -->
    <title>si_dcp-ico_5</title>
    <desc>Created with Sketch.</desc>
    <defs></defs>
    <g id="Pages" stroke="none" stroke-width="1" fill="none" fill-rule="evenodd">
        <g id="Trang-chủ" transform="translate(-556.000000, -2222.000000)">
            <g id="Group-19" transform="translate(135.000000, 1970.000000)">
                <g id="3" transform="translate(20.000000, 34.000000)">
                    <g id="si_dcp-ico_5" transform="translate(401.000000, 218.000000)">
                        <path d="M6.874125,18.8531875 C6.7985,19.1531875 6.757875,19.467625 6.757875,19.7906875 C6.757875,20.11375 6.7985,20.428125 6.874125,20.728125 L5.1248125,20.728125 L5.1248125,24.85925 L0,24.85925 L0,14.722125 L5.1248125,14.722125 L5.1248125,18.8531875 L6.874125,18.8531875 Z M23.8378125,14.7115 L27.1001875,12.77525 L23.9128125,19.05125 L14.6931875,14.4420625 L13.193875,16.9963125 C12.737,16.56825 12.1751875,16.252 11.5520625,16.088875 L13.012,13.602125 L7.029125,10.611 L8.7471875,7.17425 L23.8378125,14.7115 Z" id="Combined-Shape" fill="#A2CEE5" fill-rule="nonzero"></path>
                        <path d="M11.6576875,18.1619375 C12.18575,18.5106875 12.5345,19.1100625 12.5345625,19.790625 C12.5345625,20.868125 11.660875,21.7411875 10.583375,21.7411875 C9.505875,21.7411875 8.6328125,20.868125 8.6328125,19.790625 C8.6328125,18.713125 9.5059375,17.8394375 10.583375,17.8394375 C10.9070625,17.8394375 11.2126875,17.9188125 11.4814375,18.0588125 C11.5420625,18.0894375 11.6008125,18.1244375 11.6576875,18.1619375 Z M29.5545,12.0815625 L32,13.304 L29.151375,19.0031875 L26.6695625,17.762625 L27.0945625,16.927 L27.5189375,16.0908125 L28.70575,13.753375 L29.130125,12.9178125 L29.5545,12.0815625 Z M12.325125,0.0158125 L29.276375,8.4885625 L28.66075,9.7010625 L23.7646875,12.5796875 L9.58525,5.4968125 L12.325125,0.0158125 Z" id="Combined-Shape" fill="#2D9DD5"></path>
                    </g>
                </g>
            </g>
        </g>
    </g>
</svg>