<?xml version="1.0" encoding="UTF-8"?>
<svg width="32px" height="31px" viewBox="0 0 32 31" version="1.1" xmlns="http://www.w3.org/2000/svg" xmlns:xlink="http://www.w3.org/1999/xlink">
    <!-- Generator: Sketch 46.1 (44463) - http://www.bohemiancoding.com/sketch -->
    <title>si_dc-ico_2</title>
    <desc>Created with Sketch.</desc>
    <defs></defs>
    <g id="Pages" stroke="none" stroke-width="1" fill="none" fill-rule="evenodd">
        <g id="Trang-chủ" transform="translate(-1039.000000, -1094.000000)" fill-rule="nonzero" fill="#2D9DD5">
            <g id="Group-18" transform="translate(735.000000, 1074.000000)">
                <path d="M315.960511,30.311147 C315.590128,30.6274735 315.258553,30.9863429 314.964426,31.3781487 L313.020596,29.5261632 C312.576681,29.8061224 312.056511,29.9749214 311.494128,29.9749214 C309.898894,29.9749214 308.605277,28.6725619 308.605277,27.0648546 C308.605277,25.4571473 309.898894,24.1561601 311.494128,24.1561601 C313.089362,24.1561601 314.380936,25.4578335 314.380936,27.0648546 C314.380936,27.5719377 314.240681,28.0419673 314.013957,28.457103 L315.960511,30.311147 Z M324.194043,30.07922 C323.808681,29.7834787 323.390638,29.5309664 322.947404,29.3285449 L325.525787,24.9541812 C325.009702,24.4278853 324.690383,23.7067157 324.690383,22.9086945 C324.690383,21.3009872 325.981277,20 327.576511,20 C329.174468,20 330.466043,21.3016734 330.466043,22.9086945 C330.466043,24.5164018 329.174468,25.8187613 327.576511,25.8187613 C327.299404,25.8187613 327.035234,25.7659259 326.780596,25.6925052 L324.194043,30.07922 Z M333.114553,33.7516269 C334.709106,33.7516269 336,35.0539865 336,36.6603214 C336,38.2673425 334.709106,39.5683297 333.114553,39.5683297 C331.674553,39.5683297 330.48783,38.5033866 330.270638,37.114569 L326.678468,36.757072 C326.771745,36.3117447 326.823489,35.8506353 326.823489,35.3785471 C326.823489,35.3517863 326.819404,35.3257116 326.819404,35.2982646 L330.412936,35.6557617 C330.820766,34.5469034 331.872681,33.7516269 333.114553,33.7516269 Z M323.197957,45.1915313 C324.75166,45.2381912 325.998979,46.5151622 325.996936,48.0926779 C325.996936,49.6990128 324.706043,51 323.111489,51 C321.513532,51 320.222638,49.699699 320.222638,48.0926779 C320.222638,46.9700961 320.859234,46.0087653 321.781787,45.5222675 L320.977021,41.9836646 C321.469277,41.9267121 321.941106,41.8128071 322.394553,41.6536146 L323.197957,45.1915313 Z M313.774979,36.7831467 C313.879149,37.2682722 314.03983,37.7314401 314.242043,38.1712781 L309.754553,39.6856656 C309.76,39.7515384 309.774298,39.8132941 309.774298,39.8805392 C309.774298,41.4896188 308.48,42.7912922 306.886128,42.7912922 C305.290894,42.7912922 304,41.4896188 304,39.8805392 C304,38.2735181 305.290894,36.9718447 306.886128,36.9718447 C307.897191,36.9718447 308.785702,37.4988269 309.301787,38.2934171 L313.774979,36.7831467 Z M320.224681,40.3677232 C317.490613,40.3677232 315.274213,38.133993 315.274213,35.3785471 C315.274213,32.6231012 317.490613,30.3893709 320.224681,30.3893709 C322.958749,30.3893709 325.175149,32.6231012 325.175149,35.3785471 C325.175149,38.133993 322.958749,40.3677232 320.224681,40.3677232 Z" id="si_dc-ico_2"></path>
            </g>
        </g>
    </g>
</svg>