<?xml version="1.0" encoding="UTF-8"?>
<svg width="23px" height="32px" viewBox="0 0 23 32" version="1.1" xmlns="http://www.w3.org/2000/svg" xmlns:xlink="http://www.w3.org/1999/xlink">
    <!-- Generator: Sketch 46.1 (44463) - http://www.bohemiancoding.com/sketch -->
    <title>si_dcp-ico_1</title>
    <desc>Created with Sketch.</desc>
    <defs></defs>
    <g id="Pages" stroke="none" stroke-width="1" fill="none" fill-rule="evenodd">
        <g id="Trang-chủ" transform="translate(-156.000000, -2006.000000)" fill-rule="nonzero">
            <g id="Group-19" transform="translate(135.000000, 1970.000000)">
                <g id="3" transform="translate(20.000000, 34.000000)">
                    <g id="si_dcp-ico_1" transform="translate(1.165849, 2.000000)">
                        <path d="M11.2,17.1291461 C17.1684404,17.1291461 22.0447706,15.8051094 22.3677064,14.1346507 C22.3794495,14.0759351 22.3853211,14.0172195 22.3853211,13.9585039 L22.3853211,9.93061397 C22.3119266,9.98639379 22.2385321,10.0392378 22.1592954,10.0920819 C21.5985615,10.4678617 20.8558092,10.8054764 19.9486239,11.0961186 C19.7813138,11.1489626 19.6080734,11.2018066 19.4290202,11.2546507 C19.2499376,11.3045296 19.0678899,11.3544378 18.88,11.4014397 C18.4455339,11.5100342 17.9904881,11.6069442 17.5148624,11.6950176 C15.6447706,12.0414397 13.4693872,12.2263938 11.2,12.2263938 C8.9306422,12.2263938 6.75522936,12.0414397 4.88220183,11.6950176 C4.4066055,11.6069442 3.95155963,11.5071277 3.51706422,11.4014397 C3.32917431,11.3544378 3.14715596,11.3074947 2.96807339,11.2546507 C2.78899083,11.2047424 2.61577982,11.1518984 2.44844037,11.0961186 C1.5412844,10.8054764 0.79853211,10.4678617 0.237798165,10.0920819 C0.15853211,10.0392378 0.0851376147,9.98639379 0.0117431193,9.93061397 L0.0117431193,13.9585039 C0.0117431193,14.0172195 0.0176146789,14.0759351 0.0293577982,14.1346507 C0.355258716,15.8051094 5.23158899,17.1291461 11.2,17.1291461 Z" id="Shape" fill="#2D9DD5"></path>
                        <path d="M4.88220183,10.4972195 C5.48990826,10.6146507 6.1387156,10.717403 6.82278165,10.7996342 C8.16736881,10.961102 9.64697248,11.0521112 11.2000294,11.0521112 C12.7530569,11.0521112 14.2326899,10.961102 15.5772477,10.7996342 C16.2612844,10.717403 16.9100917,10.6146507 17.5178275,10.4972195 C20.2833028,9.95997177 22.1563596,9.07923783 22.3677064,8.07226535 C22.3823853,8.00767819 22.3882275,7.94602682 22.3882275,7.88143966 L22.3882275,3.1706422 C22.3882275,1.42091743 17.3797872,0 11.2029064,0 C5.02605505,0 0.0175853211,1.42091743 0.0175853211,3.1706422 L0.0175853211,7.88143966 C0.0175853211,7.94602682 0.0234568807,8.00767819 0.0381357798,8.07226535 C0.246605505,9.07923783 2.11672661,9.95997177 4.88220183,10.4972195 Z M12.4036697,8.06639379 C12.4036697,8.72990939 11.8634862,9.27006351 11.2,9.27006351 C10.5365138,9.27006351 9.99633028,8.72990939 9.99633028,8.06639379 C9.99633028,7.40290755 10.5365138,6.86272406 11.2,6.86272406 C11.8634862,6.86272406 12.4036697,7.40290755 12.4036697,8.06639379 Z M11.2,23.1768525 C5.02314862,23.1768525 0.0146788991,21.7559351 0.0146788991,20.0062103 L0.0146788991,16.0076488 C0.0880733945,16.0634287 0.16146789,16.1162727 0.240733945,16.1691167 C0.907155963,16.6153846 1.82605505,17.005814 2.97100917,17.3317149 C5.18458716,17.957036 8.10568807,18.303458 11.2,18.303458 C14.2943119,18.303458 17.2154128,17.957036 19.4290202,17.3317442 C20.5739743,17.0058433 21.492844,16.6153846 22.1592954,16.1691461 C22.2385321,16.116302 22.3119266,16.063458 22.3853211,16.0076782 L22.3853211,20.0062103 C22.3853211,21.7559351 17.3768807,23.1768525 11.2,23.1768525 Z M0.763076923,30.2584615 L8.83076923,30.2584615 C9.15076923,31.2615385 10.0923077,31.9938462 11.2,31.9938462 C12.3076923,31.9938462 13.2492308,31.2615385 13.5692308,30.2584615 L21.6369231,30.2584615 C22.0553846,30.2584615 22.3938462,29.92 22.3938462,29.5015385 C22.3938462,29.0830769 22.0553846,28.7446154 21.6369231,28.7446154 L13.5692308,28.7446154 C13.3230769,27.9815385 12.72,27.3723077 11.9569231,27.1261538 L11.9569231,25.4153846 C11.9569231,24.9969231 11.6184615,24.6584615 11.2,24.6584615 C10.7815385,24.6584615 10.4430769,24.9969231 10.4430769,25.4153846 L10.4430769,27.1261538 C9.68,27.3723077 9.07076923,27.9753846 8.82461538,28.7446154 L0.763076923,28.7446154 C0.344615385,28.7446154 0.00615384615,29.0830769 0.00615384615,29.5015385 C0.00615384615,29.92 0.344615385,30.2584615 0.763076923,30.2584615 Z M11.2,28.5230769 C11.7415385,28.5230769 12.1784615,28.96 12.1784615,29.5015385 C12.1784615,30.0430769 11.7415385,30.48 11.2,30.48 C10.6584615,30.48 10.2215385,30.0430769 10.2215385,29.5015385 C10.2215385,28.9661538 10.6584615,28.5230769 11.2,28.5230769 Z" id="Shape" fill="#A2CEE5"></path>
                    </g>
                </g>
            </g>
        </g>
    </g>
</svg>