<?xml version="1.0" encoding="UTF-8"?>
<svg width="32px" height="26px" viewBox="0 0 32 26" version="1.1" xmlns="http://www.w3.org/2000/svg" xmlns:xlink="http://www.w3.org/1999/xlink">
    <!-- Generator: Sketch 46.1 (44463) - http://www.bohemiancoding.com/sketch -->
    <title>si_dcp-ico_6</title>
    <desc>Created with Sketch.</desc>
    <defs></defs>
    <g id="Pages" stroke="none" stroke-width="1" fill="none" fill-rule="evenodd">
        <g id="Trang-chủ" transform="translate(-954.000000, -2223.000000)">
            <g id="Group-19" transform="translate(135.000000, 1970.000000)">
                <g id="3" transform="translate(20.000000, 34.000000)">
                    <g id="si_dcp-ico_6" transform="translate(799.000000, 219.000000)">
                        <path d="M20.2542365,23.6247358 C15.9717255,21.914838 11.7690978,20.0395679 7.92828029,17.448035 C6.12974015,16.2344876 4.44191533,14.8887358 3.17184234,13.100473 C1.97674745,11.4176701 1.38684964,9.60499854 2.17552117,7.56096934 C2.68576934,6.23810803 3.60933139,5.24260438 4.7982365,4.28727591 C4.59490803,5.17253139 4.35105401,5.91121752 4.29663066,6.68704234 C4.12962336,9.07256058 5.01289343,11.0629839 6.61744818,12.7645898 C8.45592993,14.7140204 10.7596964,15.9459036 13.2399299,17.0051737 C13.2665577,16.722546 13.0900905,16.5824 12.9859153,16.4232175 C10.6184993,12.8062832 9.37038248,8.83559708 9.22112701,4.51863358 C9.19414891,3.73930511 9.25803212,2.96394745 9.43181314,2.2014365 C9.49312701,1.93247299 9.5842219,1.67168467 9.88366715,1.56879416 C11.9436964,0.859889051 14.0088642,0.170137226 16.2186161,0.11910073 C16.6657985,0.108940146 17.1148496,0.125407299 17.5403095,0.2944 C18.0457693,0.495275912 18.3384409,1.02175766 18.2353168,1.55571387 C18.1342949,2.07927591 17.8524847,2.51291095 17.5782657,2.95110073 C16.4137693,4.81258978 15.5280467,6.78689635 15.1526891,8.96558248 C14.5792584,12.2942832 15.353565,15.3345168 17.1704409,18.1317139 C19.052835,21.0296993 21.6243971,23.1995095 24.5409518,24.9930277 C24.9024117,25.2153927 25.2734482,25.4223416 25.6232292,25.6637431 C23.8363679,24.9771445 22.0318715,24.3344584 20.2542365,23.6247358 Z M23.0805372,17.4351883 C23.0764496,14.9913927 25.0356905,13.0096117 27.4666394,12.9985168 C29.9260847,12.9873051 31.9340263,14.9896409 31.9202453,17.4395095 C31.9064642,19.8718599 29.9200117,21.8504876 27.491165,21.8509547 C25.0603328,21.8513051 23.0846248,19.8734949 23.0805372,17.4351883 Z" id="Combined-Shape" fill="#2D9DD5"></path>
                        <path d="M20.7216701,15.8091562 C19.7082978,14.0594336 19.0103708,12.2106745 18.7568234,10.1967766 C18.5511591,8.56349197 18.7571737,7.0172146 19.5929109,5.58889343 C20.2069839,4.53955036 21.0978453,3.75870365 22.1651737,3.19309781 C23.284473,2.59969635 24.4587796,2.14001752 25.7008234,1.86498102 C25.9126774,1.81791533 26.1398307,1.72355036 26.2990131,1.91987153 C26.4788672,2.14176934 26.3265752,2.37032409 26.2114219,2.56792993 C25.6222248,3.57849927 24.8569109,4.46480584 24.184327,5.41686423 C22.7195679,7.4902073 21.3838599,9.62603212 20.8253781,12.1500613 C20.5579328,13.3588204 20.5552467,14.5745869 20.7216701,15.8091562 Z M20.9851912,25.0299679 C21.1804613,25.0759825 21.3758482,25.1217635 21.571235,25.1677781 C21.2886073,25.2155445 21.1511474,25.2139095 20.6265343,25.1511942 C15.4764029,24.7355445 10.415381,23.9379971 5.75178978,21.5374131 C4.02437372,20.6480701 2.49432993,19.4915153 1.38694307,17.8574131 C0.00919124088,15.8242453 -0.341290511,13.6190482 0.331877372,11.2542015 C0.331877372,11.2542015 0.331877372,11.2542015 0.331877372,11.2540847 C0.387235036,11.1166248 0.411527007,10.9706394 0.489424818,10.848946 C0.494213139,11.1020263 0.52609635,11.3124788 0.539994161,11.4800701 C0.532052555,11.4714277 0.524110949,11.4629022 0.516169343,11.4542599 C0.522125547,11.4647708 0.5296,11.4737635 0.539994161,11.4800701 C0.692286131,13.2053839 1.53374599,14.6052088 2.66238832,15.847019 C4.42425693,17.7855883 6.60866569,19.1589022 8.90145401,20.3675445 C12.7456584,22.3940555 16.8206365,23.8297343 20.9851912,25.0300847 L20.9851912,25.0299679 Z" id="Combined-Shape" fill="#A2CEE5"></path>
                    </g>
                </g>
            </g>
        </g>
    </g>
</svg>