<?xml version="1.0" encoding="UTF-8"?>
<svg width="48px" height="39px" viewBox="0 0 48 39" version="1.1" xmlns="http://www.w3.org/2000/svg" xmlns:xlink="http://www.w3.org/1999/xlink">
    <!-- Generator: Sketch 46.1 (44463) - http://www.bohemiancoding.com/sketch -->
    <title>si_prv-ico_4</title>
    <desc>Created with Sketch.</desc>
    <defs></defs>
    <g id="Pages" stroke="none" stroke-width="1" fill="none" fill-rule="evenodd">
        <g id="Trang-chủ" transform="translate(-1137.000000, -2901.000000)" fill-rule="nonzero" fill="#FFFFFF">
            <path d="M1149.97314,2940 L1158.45185,2940 L1158.45185,2931.28911 L1163.54825,2931.28911 L1163.54825,2940 L1172.02695,2940 L1172.02695,2901 L1149.97314,2901 L1149.97314,2940 Z M1162.54713,2905.59616 L1167.64342,2905.59616 L1167.64342,2910.71652 L1162.54713,2910.71652 L1162.54713,2905.59616 Z M1162.54713,2913.82533 L1167.64342,2913.82533 L1167.64342,2918.94569 L1162.54713,2918.94569 L1162.54713,2913.82533 Z M1162.54713,2922.05431 L1167.64342,2922.05431 L1167.64342,2927.17467 L1162.54713,2927.17467 L1162.54713,2922.05431 Z M1154.35658,2905.59616 L1159.45287,2905.59616 L1159.45287,2910.71652 L1154.35658,2910.71652 L1154.35658,2905.59616 Z M1154.35658,2913.82533 L1159.45287,2913.82533 L1159.45287,2918.94569 L1154.35658,2918.94569 L1154.35658,2913.82533 Z M1154.35658,2922.05431 L1159.45287,2922.05431 L1159.45287,2927.17467 L1154.35658,2927.17467 L1154.35658,2922.05431 Z M1174.00661,2904.49363 L1174.00661,2932.06959 L1177.28079,2932.06959 L1177.28079,2940 L1185,2940 L1185,2904.49363 L1174.00661,2904.49363 Z M1181.00929,2928.32376 L1176.36939,2928.32376 L1176.36939,2923.66214 L1181.00919,2923.66214 L1181.00919,2928.32376 L1181.00929,2928.32376 Z M1181.00929,2920.83169 L1176.36939,2920.83169 L1176.36939,2916.17017 L1181.00919,2916.17017 L1181.00919,2920.83169 L1181.00929,2920.83169 Z M1181.00929,2913.33973 L1176.36939,2913.33973 L1176.36939,2908.67821 L1181.00919,2908.67821 L1181.00919,2913.33973 L1181.00929,2913.33973 Z M1137,2940 L1144.71921,2940 L1144.71921,2932.06959 L1147.99339,2932.06959 L1147.99339,2904.49363 L1137,2904.49363 L1137,2940 Z M1140.99081,2908.67821 L1145.63061,2908.67821 L1145.63061,2913.33973 L1140.99081,2913.33973 L1140.99081,2908.67821 Z M1140.99081,2916.17017 L1145.63061,2916.17017 L1145.63061,2920.83169 L1140.99081,2920.83169 L1140.99081,2916.17017 Z M1140.99081,2923.66194 L1145.63061,2923.66194 L1145.63061,2928.32346 L1140.99081,2928.32346 L1140.99081,2923.66194 Z" id="si_prv-ico_4"></path>
        </g>
    </g>
</svg>