<?xml version="1.0" encoding="UTF-8"?>
<svg width="49px" height="47px" viewBox="0 0 49 47" version="1.1" xmlns="http://www.w3.org/2000/svg" xmlns:xlink="http://www.w3.org/1999/xlink">
    <!-- Generator: Sketch 46.1 (44463) - http://www.bohemiancoding.com/sketch -->
    <title>si_prv-ico_7</title>
    <desc>Created with Sketch.</desc>
    <defs></defs>
    <g id="Pages" stroke="none" stroke-width="1" fill="none" fill-rule="evenodd">
        <g id="Trang-chủ" transform="translate(-843.000000, -3123.000000)" fill="#FFFFFF">
            <path d="M873.982809,3128.5825 C874.709487,3129.75124 875.356543,3131.00102 875.924985,3132.31485 L868.822484,3132.31485 L868.822484,3123 C870.220408,3123.82452 872.153514,3125.63565 873.982809,3128.5825 Z M855.657509,3160.68515 C856.38318,3162.55032 857.253985,3164.31343 858.262868,3165.93745 C859.148791,3167.36335 860.109297,3168.63114 861.091976,3169.70081 C857.03326,3168.62614 853.311174,3166.50781 850.261342,3163.47991 C849.377435,3162.60136 848.570127,3161.66677 847.843448,3160.68515 L855.657509,3160.68515 Z M879.070465,3132.31525 C878.343786,3130.45008 877.472982,3128.68697 876.465106,3127.06295 C875.579183,3125.63706 874.619685,3124.36926 873.635998,3123.29959 C877.695722,3124.37426 881.4168,3126.49259 884.466632,3129.52049 C885.350539,3130.39804 886.15684,3131.33363 886.884526,3132.31525 L879.070465,3132.31525 Z M858.803695,3132.31525 C859.371129,3131.00142 860.019193,3129.75164 860.744863,3128.5829 C862.575166,3125.63605 864.507264,3123.82492 865.906196,3123.0004 L865.906196,3132.31525 L858.803695,3132.31525 Z M858.263372,3127.06295 C857.254489,3128.68797 856.383684,3130.45008 855.658013,3132.31525 L847.843952,3132.31525 C848.57063,3131.33363 849.376931,3130.39804 850.261846,3129.52049 C853.311678,3126.49259 857.032756,3124.37426 861.09248,3123.29959 C860.108793,3124.36926 859.149295,3125.63706 858.263372,3127.06295 Z M879.070465,3160.68515 L886.884526,3160.68515 C886.15684,3161.66677 885.350539,3162.60136 884.466632,3163.47991 C881.4168,3166.50781 877.695722,3168.62614 873.635998,3169.70081 C874.619685,3168.63114 875.579183,3167.36435 876.465106,3165.93745 C877.472982,3164.31343 878.343786,3162.55032 879.070465,3160.68515 Z M860.745166,3164.4179 C860.018487,3163.24916 859.371431,3161.99838 858.803997,3160.68555 L865.906498,3160.68555 L865.906498,3169.9994 C864.507566,3169.17588 862.57446,3167.36375 860.745166,3164.4179 Z M875.923776,3160.68515 C875.35735,3161.99798 874.709285,3163.24976 873.982607,3164.4175 C872.153312,3167.36435 870.220206,3169.17548 868.821275,3170 L868.821275,3160.68515 L875.923776,3160.68515 Z M854.672311,3135.21016 C854.425381,3136.04869 854.211712,3136.90523 854.021223,3137.77277 L844.824356,3137.77277 C845.167034,3136.89722 845.55809,3136.04069 846.004579,3135.21016 L854.672311,3135.21016 Z M857.009373,3137.77277 C857.216996,3136.90223 857.448807,3136.04569 857.71791,3135.21016 L865.905893,3135.21016 L865.905893,3137.77277 L857.009373,3137.77277 Z M877.010367,3135.21016 C877.27947,3136.04569 877.511281,3136.90223 877.718903,3137.77277 L868.822383,3137.77277 L868.822383,3135.21016 L877.010367,3135.21016 Z M880.707255,3137.77277 C880.516767,3136.90523 880.303097,3136.04869 880.056167,3135.21016 L888.7239,3135.21016 C889.169381,3136.04069 889.560437,3136.89722 889.904122,3137.77277 L880.707255,3137.77277 Z M854.020719,3155.22763 C854.211208,3156.09417 854.424877,3156.95171 854.671807,3157.79024 L846.004075,3157.79024 C845.558594,3156.95972 845.167538,3156.10318 844.823852,3155.22763 L854.020719,3155.22763 Z M857.717608,3157.78974 C857.448505,3156.95521 857.216693,3156.09767 857.009071,3155.22713 L865.906599,3155.22713 L865.906599,3157.78974 L857.717608,3157.78974 Z M868.822383,3157.78974 L868.822383,3155.22713 L877.718903,3155.22713 C877.511281,3156.09767 877.27947,3156.95521 877.010367,3157.78974 L868.822383,3157.78974 Z M880.055664,3157.78974 C880.302593,3156.95121 880.516263,3156.09467 880.706751,3155.22713 L889.903618,3155.22713 C889.56094,3156.10268 889.169885,3156.96022 888.723396,3157.78974 L880.055664,3157.78974 Z M848.73179,3151.45176 L846.177832,3151.45176 L843,3141.80871 L845.636603,3141.80871 L847.538465,3148.90316 L849.397996,3141.80871 L851.812866,3141.80871 L853.71372,3148.90316 L855.587361,3141.80871 L858.11209,3141.80871 L854.906037,3151.45176 L852.367198,3151.45176 L850.5631,3144.78357 L848.73179,3151.45176 Z M871.85095,3151.45176 L869.311102,3151.45176 L867.507005,3144.78357 L865.675694,3151.45176 L863.121737,3151.45176 L859.944912,3141.80871 L862.580508,3141.80871 L864.482369,3148.90316 L866.3419,3141.80871 L868.756771,3141.80871 L870.657625,3148.90316 L872.531266,3141.80871 L875.055995,3141.80871 L871.85095,3151.45176 Z M882.6197,3151.45176 L880.06675,3151.45176 L876.88791,3141.80871 L879.525521,3141.80871 L881.426375,3148.90316 L883.285906,3141.80871 L885.700776,3141.80871 L887.60163,3148.90316 L889.475271,3141.80871 L892,3141.80871 L888.794955,3151.45176 L886.255108,3151.45176 L884.45101,3144.78357 L882.6197,3151.45176 Z" id="si_prv-ico_7"></path>
        </g>
    </g>
</svg>