<?xml version="1.0" encoding="UTF-8"?>
<svg width="40px" height="40px" viewBox="0 0 40 40" version="1.1" xmlns="http://www.w3.org/2000/svg" xmlns:xlink="http://www.w3.org/1999/xlink">
    <!-- Generator: Sketch 46.1 (44463) - http://www.bohemiancoding.com/sketch -->
    <title>si_prv-ico_1</title>
    <desc>Created with Sketch.</desc>
    <defs></defs>
    <g id="Pages" stroke="none" stroke-width="1" fill="none" fill-rule="evenodd">
        <g id="Trang-chủ" transform="translate(-259.000000, -2901.000000)" fill-rule="nonzero" fill="#FFFFFF">
            <path d="M259,2901 L259,2909.64586 L299,2909.64586 L299,2901 L259,2901 Z M294.3125,2906.49477 L291.96875,2906.49477 L291.96875,2904.15102 L294.3125,2904.15102 L294.3125,2906.49477 Z M259,2916.67711 L259,2925.32289 L299,2925.32289 L299,2916.67711 L259,2916.67711 Z M294.3125,2922.17188 L291.96875,2922.17188 L291.96875,2919.82812 L294.3125,2919.82812 L294.3125,2922.17188 Z M259,2932.35414 L259,2941 L299,2941 L299,2932.35414 L259,2932.35414 Z M294.3125,2937.84898 L291.96875,2937.84898 L291.96875,2935.50523 L294.3125,2935.50523 L294.3125,2937.84898 Z M261.34375,2911.98984 L296.65625,2911.98984 L296.65625,2914.33359 L261.34375,2914.33359 L261.34375,2911.98984 Z M261.34375,2927.66641 L296.65625,2927.66641 L296.65625,2930.01016 L261.34375,2930.01016 L261.34375,2927.66641 Z" id="si_prv-ico_1"></path>
        </g>
    </g>
</svg>