<?xml version="1.0" encoding="UTF-8"?>
<svg width="48px" height="48px" viewBox="0 0 48 48" version="1.1" xmlns="http://www.w3.org/2000/svg" xmlns:xlink="http://www.w3.org/1999/xlink">
    <!-- Generator: Sketch 46.1 (44463) - http://www.bohemiancoding.com/sketch -->
    <title>si_prv-ico_6</title>
    <desc>Created with Sketch.</desc>
    <defs></defs>
    <g id="Pages" stroke="none" stroke-width="1" fill="none" fill-rule="evenodd">
        <g id="Trang-chủ" transform="translate(-549.000000, -3123.000000)" fill-rule="nonzero" fill="#FFFFFF">
            <path d="M587.000047,3154.00005 L587.000047,3143.99999 L559.000055,3143.99999 L559.000055,3154.00005 L564.000083,3154.00005 L564.000083,3156.00002 L559.000055,3156.00002 L559.000055,3166.00007 L563.50009,3166.00007 L563.50009,3169.00003 L560.00004,3169.00003 L560.00004,3171 L586.000061,3171 L586.000061,3169.00003 L582.500012,3169.00003 L582.500012,3166.00007 L587.000047,3166.00007 L587.000047,3156.00002 L583.000004,3156.00002 L583.000004,3154.00005 L587.000047,3154.00005 Z M566.000053,3156.00002 L566.000053,3154.00005 L581.000034,3154.00005 L581.000034,3156.00002 L566.000053,3156.00002 Z M579.000063,3159.99671 L579.000063,3161.99668 L577.000093,3161.99668 L577.000093,3159.99671 L579.000063,3159.99671 Z M576.999992,3147.99668 L578.999962,3147.99668 L578.999962,3149.99665 L576.999992,3149.99665 L576.999992,3147.99668 Z M562.999996,3149.99676 L562.999996,3147.99679 L570.999979,3147.99679 L570.999979,3149.99676 L562.999996,3149.99676 Z M562.999996,3161.99678 L562.999996,3159.99681 L570.999979,3159.99681 L570.999979,3161.99678 L562.999996,3161.99678 Z M580.500041,3169.00003 L565.50006,3169.00003 L565.50006,3166.00007 L580.500041,3166.00007 L580.500041,3169.00003 Z M583.000004,3161.99678 L581.000034,3161.99678 L581.000034,3159.99681 L583.000004,3159.99681 L583.000004,3161.99678 Z M581.000034,3149.99676 L581.000034,3147.99679 L583.000004,3147.99679 L583.000004,3149.99676 L581.000034,3149.99676 Z M590.190026,3138.4301 C594.150052,3139.40002 597,3143.00001 597,3147.27986 C597,3152.00059 593.687638,3155.51353 589.000017,3155.95198 L589.000017,3141.99667 L556.999983,3141.99667 L556.999983,3155.95208 C552.312362,3155.51364 549,3152.00069 549,3147.27996 C549,3143.77991 550.99997,3140.59003 554.059949,3139.08 C553.789996,3137.57007 553.919996,3136.06999 554.439997,3134.61003 C555.600044,3131.33006 558.490008,3129.00001 561.820042,3128.67014 C564.149989,3128.44 566.440022,3129.15002 568.220008,3130.62999 C569.920064,3126.11005 574.240028,3123 579.090048,3123 L579.180032,3123 C585.180045,3123.04987 590.349987,3128.04989 590.710026,3134.14995 C590.790057,3135.61996 590.620042,3137.04986 590.190026,3138.4301 Z" id="si_prv-ico_6"></path>
        </g>
    </g>
</svg>