<?xml version="1.0" encoding="UTF-8"?>
<svg width="48px" height="42px" viewBox="0 0 48 42" version="1.1" xmlns="http://www.w3.org/2000/svg" xmlns:xlink="http://www.w3.org/1999/xlink">
    <!-- Generator: Sketch 46.1 (44463) - http://www.bohemiancoding.com/sketch -->
    <title>si_prv-ico_5</title>
    <desc>Created with Sketch.</desc>
    <defs></defs>
    <g id="Pages" stroke="none" stroke-width="1" fill="none" fill-rule="evenodd">
        <g id="Trang-chủ" transform="translate(-255.000000, -3125.000000)" fill-rule="nonzero" fill="#FFFFFF">
            <path d="M279,3145.90708 C275.846625,3145.90708 273.28125,3148.44975 273.28125,3151.57522 C273.28125,3154.70069 275.846625,3157.24336 279,3157.24336 C282.153375,3157.24336 284.71875,3154.70069 284.71875,3151.57522 C284.71875,3148.44975 282.153375,3145.90708 279,3145.90708 Z M279,3152.96903 C278.224594,3152.96903 277.59375,3152.34377 277.59375,3151.57522 C277.59375,3150.80668 278.224594,3150.18142 279,3150.18142 C279.775406,3150.18142 280.40625,3150.80668 280.40625,3151.57522 C280.40625,3152.34377 279.775406,3152.96903 279,3152.96903 Z M294.5625,3125 L303,3125 L303,3133.36283 L294.5625,3133.36283 L294.5625,3125 Z M255,3136.15044 L255,3167 L303,3167 L303,3136.15044 L255,3136.15044 Z M290.34375,3152.96903 L287.414719,3152.96903 C287.197219,3154.26331 286.682531,3155.4592 285.942094,3156.48476 L288.015656,3158.53988 L286.026937,3160.511 L283.953375,3158.45588 C282.918656,3159.18977 281.712094,3159.6999 280.40625,3159.91547 L280.40625,3162.81858 L277.59375,3162.81858 L277.59375,3159.91547 C276.287906,3159.6999 275.081437,3159.18967 274.046625,3158.45588 L271.973062,3160.511 L269.984344,3158.53988 L272.057906,3156.48476 C271.317469,3155.45911 270.802781,3154.26331 270.585281,3152.96903 L267.65625,3152.96903 L267.65625,3150.18142 L270.585281,3150.18142 C270.802781,3148.88713 271.317469,3147.69134 272.057906,3146.66568 L269.984344,3144.61056 L271.973062,3142.63944 L274.046625,3144.69456 C275.081344,3143.96077 276.287906,3143.45054 277.59375,3143.23497 L277.59375,3140.33186 L280.40625,3140.33186 L280.40625,3143.23497 C281.712094,3143.45054 282.918563,3143.96068 283.953375,3144.69456 L286.026937,3142.63944 L288.015656,3144.61056 L285.942094,3146.66568 C286.682531,3147.69124 287.197219,3148.88713 287.414719,3150.18142 L290.34375,3150.18142 L290.34375,3152.96903 Z M255,3125 L291.75,3125 L291.75,3133.36283 L255,3133.36283 L255,3125 Z" id="si_prv-ico_5"></path>
        </g>
    </g>
</svg>