<?xml version="1.0" encoding="UTF-8"?>
<svg width="57px" height="40px" viewBox="0 0 57 40" version="1.1" xmlns="http://www.w3.org/2000/svg" xmlns:xlink="http://www.w3.org/1999/xlink">
    <!-- Generator: Sketch 46.1 (44463) - http://www.bohemiancoding.com/sketch -->
    <title>si_prv-ico_3</title>
    <desc>Created with Sketch.</desc>
    <defs></defs>
    <g id="Pages" stroke="none" stroke-width="1" fill="none" fill-rule="evenodd">
        <g id="Trang-chủ" transform="translate(-839.000000, -2901.000000)" fill-rule="nonzero" fill="#FFFFFF">
            <path d="M877,2901 L858,2901 L858,2941 L877,2941 L877,2901 Z M862.026493,2919.78741 C862.026493,2919.4903 862.266658,2919.24889 862.566247,2919.24889 L872.546749,2919.24889 C872.843861,2919.24889 873.086503,2919.4903 873.086503,2919.78741 L873.086503,2920.92139 C873.086503,2921.21974 872.847575,2921.46238 872.546749,2921.46238 L862.566247,2921.46238 C862.267896,2921.46238 862.026493,2921.22098 862.026493,2920.92139 L862.026493,2919.78741 Z M872.654452,2927.40463 L862.67395,2927.40463 C862.3756,2927.40463 862.135434,2927.16446 862.135434,2926.86364 L862.135434,2925.7309 C862.135434,2925.43255 862.374362,2925.19238 862.67395,2925.19238 L872.654452,2925.19238 C872.95404,2925.19238 873.194206,2925.43131 873.194206,2925.7309 L873.194206,2926.86364 C873.194206,2927.16323 872.957754,2927.40463 872.654452,2927.40463 Z M872.654452,2915.56099 L862.67395,2915.56099 C862.3756,2915.56099 862.135434,2915.31958 862.135434,2915.02247 L862.135434,2913.88849 C862.135434,2913.59014 862.374362,2913.34874 862.67395,2913.34874 L872.654452,2913.34874 C872.95404,2913.34874 873.194206,2913.59014 873.194206,2913.88849 L873.194206,2915.02247 C873.194206,2915.31958 872.957754,2915.56099 872.654452,2915.56099 Z M872.654452,2909.88614 L862.67395,2909.88614 C862.3756,2909.88614 862.135434,2909.64473 862.135434,2909.34762 L862.135434,2908.21364 C862.135434,2907.91529 862.374362,2907.67389 862.67395,2907.67389 L872.654452,2907.67389 C872.95404,2907.67389 873.194206,2907.91529 873.194206,2908.21364 L873.194206,2909.34762 C873.194206,2909.64473 872.957754,2909.88614 872.654452,2909.88614 Z M879,2901 L879,2941 L896,2939 L896,2903 L879,2901 Z M881.84513,2913.75974 C881.852558,2913.47253 882.091486,2913.24598 882.379933,2913.25341 L891.996472,2913.50348 C892.281205,2913.51091 892.508991,2913.7486 892.499087,2914.03581 L892.474328,2915.12893 C892.4669,2915.41491 892.225496,2915.64269 891.939525,2915.63526 L882.322986,2915.38519 C882.038253,2915.37777 881.810467,2915.13884 881.815419,2914.85163 L881.84513,2913.75974 Z M891.948191,2926.75593 L882.336604,2927.09019 C882.049395,2927.10009 881.806753,2926.87602 881.796849,2926.59005 L881.760948,2925.49692 C881.751045,2925.21219 881.973879,2924.96955 882.261088,2924.95964 L891.872675,2924.62415 C892.159884,2924.61425 892.40005,2924.83832 892.409953,2925.12553 L892.44833,2926.21742 C892.46071,2926.50463 892.232924,2926.74603 891.948191,2926.75593 Z M892.53994,2920.67503 C892.53994,2920.96224 892.307202,2921.19498 892.022469,2921.19498 L882.402216,2921.19498 C882.115007,2921.19498 881.882269,2920.96224 881.882269,2920.67503 L881.882269,2919.58191 C881.882269,2919.29594 882.115007,2919.0632 882.402216,2919.0632 L892.022469,2919.0632 C892.307202,2919.0632 892.53994,2919.29594 892.53994,2919.58191 L892.53994,2920.67503 Z M892.489183,2909.89976 C892.4669,2910.18573 892.218068,2910.40113 891.933335,2910.38133 L882.33908,2909.69549 C882.054347,2909.67445 881.836464,2909.42685 881.85751,2909.13964 L881.934264,2908.05023 C881.956547,2907.76426 882.202903,2907.54885 882.490112,2907.56866 L892.081892,2908.25326 C892.3691,2908.2743 892.584507,2908.5219 892.563461,2908.80911 L892.489183,2909.89976 Z M839,2939 L856,2941 L856,2901 L839,2903 L839,2939 Z M853.093312,2926.58881 C853.083408,2926.87478 852.843242,2927.09885 852.554796,2927.08895 L842.943208,2926.7547 C842.657237,2926.74479 842.431927,2926.50463 842.443069,2926.21618 L842.481446,2925.12553 C842.49135,2924.8408 842.730278,2924.61425 843.017486,2924.62415 L852.630312,2924.95964 C852.916282,2924.96955 853.140355,2925.21095 853.130451,2925.49692 L853.093312,2926.58881 Z M842.351459,2920.67503 L842.351459,2919.58191 C842.351459,2919.29594 842.584197,2919.0632 842.870168,2919.0632 L852.490421,2919.0632 C852.77763,2919.0632 853.010368,2919.29594 853.010368,2919.58191 L853.010368,2920.67503 C853.010368,2920.96224 852.77763,2921.19498 852.490421,2921.19498 L842.870168,2921.19498 C842.584197,2921.19498 842.351459,2920.96224 842.351459,2920.67503 Z M853.07598,2914.85163 C853.08217,2915.13884 852.855622,2915.37653 852.568413,2915.38519 L842.953112,2915.63526 C842.668379,2915.64269 842.426975,2915.41614 842.419548,2915.12893 L842.39355,2914.03581 C842.384884,2913.7486 842.612671,2913.51091 842.898641,2913.50348 L852.513943,2913.25341 C852.801151,2913.24722 853.040079,2913.47253 853.047507,2913.75974 L853.07598,2914.85163 Z M842.80827,2908.2545 L852.401287,2907.5699 C852.688496,2907.54885 852.937328,2907.76426 852.957135,2908.05147 L853.035127,2909.14088 C853.057411,2909.42685 852.839528,2909.67568 852.553558,2909.69673 L842.959302,2910.38256 C842.673331,2910.40237 842.424499,2910.18696 842.403454,2909.90099 L842.327938,2908.81158 C842.305654,2908.52313 842.521061,2908.27554 842.80827,2908.2545 Z" id="si_prv-ico_3"></path>
        </g>
    </g>
</svg>