<?xml version="1.0" encoding="UTF-8"?>
<svg width="38px" height="48px" viewBox="0 0 38 48" version="1.1" xmlns="http://www.w3.org/2000/svg" xmlns:xlink="http://www.w3.org/1999/xlink">
    <!-- Generator: Sketch 46.1 (44463) - http://www.bohemiancoding.com/sketch -->
    <title>si_prv-ico_2</title>
    <desc>Created with Sketch.</desc>
    <defs></defs>
    <g id="Pages" stroke="none" stroke-width="1" fill="none" fill-rule="evenodd">
        <g id="Trang-chủ" transform="translate(-554.000000, -2891.000000)" fill-rule="nonzero" fill="#FFFFFF">
            <path d="M587,2929 L559,2929 L559,2934 L587,2934 L587,2929 Z M585,2932 L582,2932 L582,2931 L585,2931 L585,2932 Z M574.770732,2898.20502 C574.770732,2897.45607 575.380401,2896.84688 576.130111,2896.84688 C576.880483,2896.84688 577.489622,2897.45607 577.489622,2898.20502 C577.489622,2898.95438 576.88035,2899.56317 576.130111,2899.56317 C575.380533,2899.56317 574.770732,2898.95425 574.770732,2898.20502 Z M583.593194,2898.20502 C583.593194,2897.45607 584.202598,2896.84688 584.952308,2896.84688 C585.70268,2896.84688 586.312481,2897.45607 586.312481,2898.20502 C586.312481,2898.95438 585.70268,2899.56317 584.952308,2899.56317 C584.20273,2899.56317 583.593194,2898.95425 583.593194,2898.20502 Z M587,2918 L559,2918 L559,2923 L587,2923 L587,2918 Z M585,2921 L582,2921 L582,2920 L585,2920 L585,2921 Z M554,2891 L554,2939 L592,2939 L592,2891 L554,2891 Z M584.952308,2894.62407 C586.92943,2894.62407 588.537521,2896.23028 588.537521,2898.20502 C588.537521,2900.17977 586.92943,2901.78598 584.952308,2901.78598 C582.976377,2901.78598 581.368286,2900.17964 581.368286,2898.20502 C581.368286,2896.23041 582.976377,2894.62407 584.952308,2894.62407 Z M576.130111,2894.62407 C578.1071,2894.62407 579.714662,2896.23028 579.714662,2898.20502 C579.714662,2900.17977 578.106968,2901.78598 576.130111,2901.78598 C574.153651,2901.78598 572.54556,2900.17964 572.54556,2898.20502 C572.54556,2896.23041 574.153651,2894.62407 576.130111,2894.62407 Z M557,2936 L557,2927 L589,2927 L589,2936 L557,2936 Z M557,2925 L557,2916 L589,2916 L589,2925 L557,2925 Z M557,2914 L557,2904.99722 L589,2904.99722 L589,2914 L557,2914 Z M587,2907 L559,2907 L559,2912 L587,2912 L587,2907 Z M585,2910 L582,2910 L582,2909 L585,2909 L585,2910 Z" id="si_prv-ico_2"></path>
        </g>
    </g>
</svg>