<?xml version="1.0" encoding="UTF-8"?>
<svg width="48px" height="48px" viewBox="0 0 48 48" version="1.1" xmlns="http://www.w3.org/2000/svg" xmlns:xlink="http://www.w3.org/1999/xlink">
    <!-- Generator: Sketch 46.1 (44463) - http://www.bohemiancoding.com/sketch -->
    <title>si_prv-ico_8</title>
    <desc>Created with Sketch.</desc>
    <defs></defs>
    <g id="Pages" stroke="none" stroke-width="1" fill="none" fill-rule="evenodd">
        <g id="Trang-chủ" transform="translate(-1137.000000, -3123.000000)" fill-rule="nonzero" fill="#FFFFFF">
            <path d="M1180.99959,3156.99986 C1179.1396,3156.99986 1177.56966,3158.26979 1177.12959,3159.9998 L1173.99967,3159.9998 L1173.99967,3148.99656 L1177.99967,3148.99656 L1177.99967,3146.9966 L1173.99967,3146.9966 L1173.99967,3144.99989 L1179.99962,3144.99989 L1179.99962,3134.99987 L1173.99967,3134.99987 L1173.99967,3133.00001 L1179.99962,3133.00001 L1179.99962,3123 L1141.99997,3123 L1141.99997,3133.00001 L1147.99992,3133.00001 L1147.99992,3134.99997 L1141.99997,3134.99997 L1141.99997,3144.99999 L1147.99992,3144.99999 L1147.99992,3146.9967 L1143.99992,3146.9967 L1143.99992,3148.99666 L1147.99992,3148.99666 L1147.99992,3159.9999 L1144.8699,3159.9999 C1144.42994,3158.26979 1142.8599,3156.99996 1140.9999,3156.99996 C1138.79002,3156.99986 1137,3158.78979 1137,3160.99989 C1137,3163.19982 1138.79002,3164.99991 1141,3164.99991 C1142.86,3164.99991 1144.42994,3163.71992 1144.87,3161.99997 L1149.99987,3161.99997 L1149.99987,3148.99666 L1154.99985,3148.99666 L1154.99985,3163.12995 C1153.26985,3163.56992 1151.99992,3165.13997 1151.99992,3166.99997 C1151.99992,3169.20001 1153.78995,3171 1155.99992,3171 C1158.2099,3171 1159.99992,3169.20001 1159.99992,3166.99997 C1159.99992,3165.13997 1158.7299,3163.57002 1157,3163.12995 L1157,3148.99666 L1164.9999,3148.99666 L1164.9999,3163.12995 C1163.2699,3163.56992 1161.99997,3165.13997 1161.99997,3166.99997 C1161.99997,3169.20001 1163.79,3171 1165.99997,3171 C1168.20995,3171 1169.99997,3169.20001 1169.99997,3166.99997 C1169.99997,3165.13997 1168.72995,3163.57002 1167.00005,3163.12995 L1167.00005,3148.99666 L1172.00003,3148.99666 L1172.00003,3161.99987 L1177.13,3161.99987 C1177.56996,3163.71982 1179.14,3164.99981 1181,3164.99981 C1183.20998,3164.99981 1185,3163.19982 1185,3160.99978 C1184.99949,3158.78979 1183.20957,3156.99986 1180.99959,3156.99986 Z M1173.99967,3126.99667 L1175.99962,3126.99667 L1175.99962,3128.99664 L1173.99967,3128.99664 L1173.99967,3126.99667 Z M1173.99967,3138.99665 L1175.99962,3138.99665 L1175.99962,3140.99661 L1173.99967,3140.99661 L1173.99967,3138.99665 Z M1145.99987,3128.99664 L1145.99987,3126.99667 L1151.99982,3126.99667 L1151.99982,3128.99664 L1145.99987,3128.99664 Z M1145.99987,3140.99661 L1145.99987,3138.99665 L1151.99982,3138.99665 L1151.99982,3140.99661 L1145.99987,3140.99661 Z M1171.99962,3146.9966 L1149.99987,3146.9966 L1149.99987,3144.99989 L1171.99962,3144.99989 L1171.99962,3146.9966 Z M1171.99962,3140.99661 L1169.99967,3140.99661 L1169.99967,3138.99665 L1171.99962,3138.99665 L1171.99962,3140.99661 Z M1171.99962,3134.99997 L1149.99987,3134.99997 L1149.99987,3133.00001 L1171.99962,3133.00001 L1171.99962,3134.99997 Z M1171.99962,3128.99664 L1169.99967,3128.99664 L1169.99967,3126.99667 L1171.99962,3126.99667 L1171.99962,3128.99664 Z" id="si_prv-ico_8"></path>
        </g>
    </g>
</svg>