<?xml version="1.0" encoding="UTF-8"?>
<svg width="96px" height="96px" viewBox="0 0 96 96" version="1.1" xmlns="http://www.w3.org/2000/svg" xmlns:xlink="http://www.w3.org/1999/xlink">
    <!-- Generator: Sketch 46.1 (44463) - http://www.bohemiancoding.com/sketch -->
    <title>sp_1</title>
    <desc>Created with Sketch.</desc>
    <defs></defs>
    <g id="Pages" stroke="none" stroke-width="1" fill="none" fill-rule="evenodd">
        <g id="Trang-chủ" transform="translate(-522.000000, -4263.000000)">
            <g id="Group-14" transform="translate(455.000000, 4263.000000)">
                <g id="Group-12">
                    <g id="sp_1" transform="translate(67.000000, 0.000000)">
                        <circle id="Oval-4" cx="48" cy="48" r="48"></circle>
                        <path d="M64.756625,64.630625 L55.55725,60.797625 C58.190125,60.3195 60.61925,59.580875 62.628625,58.64175 C63.55425,58.20925 64.147375,57.275625 64.139875,56.263 C64.04675,43.655875 62.29025,26.8955 48.17325,26.8955 C34.05625,26.8955 32.29975,43.656 32.206625,56.263 C32.199125,57.275375 32.79225,58.209 33.717875,58.641625 C35.727375,59.580625 38.156625,60.319375 40.789375,60.7975 L31.59,64.6305 C30.016625,65.28625 29,66.811125 29,68.515625 L29,72.79125 C29,74.522625 30.4085,75.931125 32.139875,75.931125 L64.206625,75.931125 C65.938,75.931125 67.3465,74.522625 67.3465,72.79125 L67.3465,68.515625 C67.3465,66.811125 66.329875,65.28625 64.756625,64.630625 Z M62.135625,56.278 C62.1375,56.509125 61.997875,56.724125 61.780125,56.826 C59.754875,57.772375 57.247875,58.502125 54.52,58.942125 L54.52,57.585 L56.30325,56.59425 C57.83125,55.74525 58.837875,54.19925 58.996,52.4585 L58.999875,52.415375 L59.931,52.415375 C60.7255,52.415375 61.451375,52.11825 62.005,51.63 C62.080125,53.09975 62.123375,54.648375 62.135625,56.278 Z M48.17325,55.622125 C52.00975,55.622125 54.63525,54.81875 56.338125,53.970875 C56.069,54.32225 55.7285,54.620875 55.329875,54.842375 L49.763,57.935 C48.767625,58.488 47.579,58.488 46.583625,57.935 L41.016875,54.842375 C40.069125,54.315875 39.444625,53.356875 39.346625,52.277125 L38.572,43.7565 C41.37225,43.44025 49.328,42.369375 54.12525,39.979 C54.702125,41.036125 55.8385,42.614875 57.79675,43.516875 L57.1085,51.0875 C56.290125,51.81125 53.694625,53.618 48.1735,53.618 C47.620125,53.618 47.171375,54.066625 47.171375,54.620125 C47.171375,55.173625 47.619875,55.622125 48.17325,55.622125 Z M59.18225,50.41125 L59.583125,46.002125 L59.931125,46.002125 C60.557375,46.002125 61.066875,46.511625 61.066875,47.137875 L61.066875,49.275625 C61.066875,49.901875 60.557375,50.411375 59.931125,50.411375 L59.18225,50.411375 L59.18225,50.41125 Z M37.116875,36.79525 C39.379625,31.4825 42.996,28.89975 48.17325,28.89975 C53.3505,28.89975 56.966875,31.4825 59.229625,36.795375 C60.110625,38.864 60.787375,41.3525 61.265625,44.2965 C60.860375,44.10525 60.408125,43.998 59.931125,43.998 L59.765125,43.998 L59.860125,42.953 C59.90225,42.489875 59.620125,42.05875 59.179,41.911625 C56.507375,41.021125 55.54525,38.293375 55.53725,38.26975 C55.441,37.981375 55.219375,37.75225 54.93425,37.646875 C54.649125,37.5415 54.331625,37.571125 54.071,37.7275 C48.986125,40.778375 37.50875,41.853875 37.3935,41.864375 C36.842375,41.9145 36.436125,42.402 36.48625,42.953 L36.581375,43.997875 L36.415375,43.997875 C35.938375,43.997875 35.486125,44.10525 35.080875,44.296375 C35.559125,41.352375 36.235875,38.864 37.116875,36.79525 Z M37.164375,50.41125 L36.4155,50.41125 C35.78925,50.41125 35.27975,49.90175 35.27975,49.2755 L35.27975,47.13775 C35.27975,46.5115 35.78925,46.002 36.4155,46.002 L36.7635,46.002 L37.164375,50.41125 Z M34.5665,56.825875 C34.34875,56.72425 34.209125,56.50925 34.210875,56.277875 C34.222875,54.64825 34.266375,53.09975 34.341375,51.629875 C34.895125,52.11825 35.621,52.415375 36.415375,52.415375 L37.3465,52.415375 L37.350375,52.4585 C37.508625,54.199375 38.515375,55.745375 40.043375,56.59425 L41.82675,57.584875 L41.82675,58.942 C39.09875,58.502 36.591875,57.772375 34.5665,56.825875 Z M41.898625,62.506375 C43.0725,62.0175 43.830875,60.879875 43.830875,59.60825 L43.830875,58.6985 L45.610125,59.687 C46.41275,60.132875 47.292875,60.35575 48.17325,60.35575 C49.0535,60.35575 49.934,60.13275 50.736375,59.687 L52.515625,58.6985 L52.515625,59.60825 C52.515625,60.88 53.274,62.0175 54.44775,62.5065 L55.58475,62.98025 C52.286125,66.915375 49.06025,68.231625 48.17025,68.536375 C47.276375,68.235625 44.079625,66.942125 40.761375,62.98025 L41.898625,62.506375 Z M35.413375,73.926875 L32.139875,73.926875 C31.513625,73.926875 31.004125,73.417375 31.004125,72.791125 L31.004125,68.5155 C31.004125,68.23925 31.055375,67.972 31.15025,67.724375 L34.586,70.473 C35.111875,70.893625 35.413375,71.521 35.413375,72.1945 L35.413375,73.926875 Z M58.929,72.194625 L58.929,73.926875 L37.4175,73.926875 L37.4175,72.194625 C37.4175,70.909 36.84175,69.71125 35.838,68.908 L32.652,66.35925 L38.830875,63.784625 C38.834,63.788625 38.8365,63.793 38.83975,63.797 C43.275625,69.34175 47.74225,70.5095 47.930375,70.5565 C48.010125,70.576375 48.09175,70.586375 48.173375,70.586375 C48.255,70.586375 48.336625,70.576375 48.416375,70.5565 C48.604375,70.5095 53.071125,69.34175 57.507,63.797 C57.51025,63.793 57.51275,63.788625 57.515875,63.784625 L63.69475,66.35925 L60.50875,68.908 C59.50475,69.71125 58.929,70.909 58.929,72.194625 Z M65.342375,72.79125 C65.342375,73.4175 64.832875,73.927 64.206625,73.927 L60.933125,73.927 L60.933125,72.19475 C60.933125,71.521375 61.234625,70.893875 61.7605,70.473125 L65.19625,67.724625 C65.291125,67.97225 65.342375,68.239375 65.342375,68.51575 L65.342375,72.79125 L65.342375,72.79125 Z M88.79125,14.068875 L67.413375,14.068875 C65.092625,14.068875 63.204625,15.957 63.204625,18.277625 L63.204625,30.0355 C63.204625,32.011125 64.57275,33.673125 66.41125,34.12375 L66.41125,38.586625 C66.41125,38.991875 66.655375,39.357375 67.029875,39.512375 C67.153875,39.563625 67.284,39.588625 67.41325,39.588625 C67.674,39.588625 67.930375,39.48675 68.122,39.295125 L73.17275,34.24425 L88.79125,34.24425 C91.112,34.24425 93,32.356125 93,30.0355 L93,18.277625 C93,15.957 91.111875,14.068875 88.79125,14.068875 Z M90.995875,30.0355 C90.995875,31.251125 90.006875,32.240125 88.79125,32.240125 L72.757875,32.240125 C72.492125,32.240125 72.23725,32.345625 72.049375,32.533625 L68.4155,36.1675 L68.4155,33.24225 C68.4155,32.688875 67.966875,32.240125 67.413375,32.240125 C66.19775,32.240125 65.20875,31.251125 65.20875,30.0355 L65.20875,18.277625 C65.20875,17.062 66.19775,16.073 67.413375,16.073 L88.79125,16.073 C90.006875,16.073 90.995875,17.062 90.995875,18.277625 L90.995875,30.0355 Z M74.82875,23.087625 C74.82875,21.0615 73.1805,19.41325 71.154375,19.41325 C69.12825,19.41325 67.48,21.0615 67.48,23.087625 L67.48,25.225375 C67.48,27.2515 69.12825,28.89975 71.154375,28.89975 C71.804,28.89975 72.414375,28.729625 72.944375,28.4325 L73.118125,28.60625 C73.31375,28.801875 73.57025,28.89975 73.826625,28.89975 C74.083,28.89975 74.339625,28.802 74.535125,28.60625 C74.9265,28.214875 74.9265,27.5805 74.535125,27.189125 L74.3615,27.015375 C74.6585,26.485375 74.828625,25.875 74.828625,25.225375 L74.828625,23.087625 L74.82875,23.087625 Z M72.824625,25.2255 C72.824625,25.30525 72.817,25.383125 72.806125,25.46 L72.397375,25.05125 C72.006,24.659875 71.3715,24.659875 70.98025,25.05125 C70.588875,25.442625 70.588875,26.077 70.98025,26.468375 L71.389,26.877125 C71.312,26.888125 71.234125,26.89575 71.154375,26.89575 C70.233375,26.89575 69.48425,26.146625 69.48425,25.225625 L69.48425,23.087625 C69.48425,22.166625 70.233375,21.4175 71.154375,21.4175 C72.075375,21.4175 72.8245,22.166625 72.8245,23.087625 L72.8245,25.2255 L72.824625,25.2255 Z M80.557,18.395875 C81.082,18.571 81.36575,19.138375 81.19075,19.66375 L77.984125,29.28375 C77.844125,29.703625 77.453125,29.969125 77.033625,29.969125 C76.9285,29.969125 76.82175,29.952375 76.716625,29.917375 C76.1915,29.74225 75.90775,29.17475 76.08275,28.64975 L79.289375,19.02975 C79.4645,18.504625 80.032,18.22075 80.557,18.395875 Z M88.686,27.622375 L86.548125,20.140125 C86.425375,19.71 86.032125,19.413375 85.584625,19.413375 L84.51575,19.413375 C84.06825,19.413375 83.675125,19.71 83.55225,20.140125 L81.4145,27.622375 C81.2625,28.1545 81.5705,28.709125 82.10275,28.86125 C82.634875,29.01325 83.1895,28.705375 83.341625,28.173 L83.74475,26.762 L86.355875,26.762 L86.759,28.173125 C86.88475,28.61325 87.286,28.900125 87.722125,28.900125 C87.81325,28.900125 87.906,28.887625 87.997875,28.86125 C88.52975,28.709125 88.838,28.1545 88.686,27.622375 Z M84.317125,24.757875 L85.050125,22.1925 L85.783125,24.757875 L84.317125,24.757875 Z" id="Shape" fill="#2D9DD5" fill-rule="nonzero"></path>
                    </g>
                </g>
            </g>
        </g>
    </g>
</svg>
