<?xml version="1.0" encoding="UTF-8"?>
<svg width="96px" height="96px" viewBox="0 0 96 96" version="1.1" xmlns="http://www.w3.org/2000/svg" xmlns:xlink="http://www.w3.org/1999/xlink">
    <!-- Generator: Sketch 46.1 (44463) - http://www.bohemiancoding.com/sketch -->
    <title>sp_2</title>
    <desc>Created with Sketch.</desc>
    <defs></defs>
    <g id="Pages" stroke="none" stroke-width="1" fill="none" fill-rule="evenodd">
        <g id="Trang-chủ" transform="translate(-822.000000, -4263.000000)">
            <g id="Group-14" transform="translate(455.000000, 4263.000000)">
                <g id="Group-12" transform="translate(300.000000, 0.000000)">
                    <g id="sp_2" transform="translate(67.000000, 0.000000)">
                        <circle id="Oval-4" cx="48" cy="48" r="48"></circle>
                        <path d="M69.239875,41.26325 L62.77375,41.26325 C63.129625,39.935375 64.233,39.20525 65.843375,38.2385 C67.810625,37.05775 70.259,35.588 70.259,31.955375 C70.259,29.295625 68.095125,27.131625 65.43525,27.131625 C62.775375,27.131625 60.6115,29.295625 60.6115,31.955375 C60.6115,32.518375 61.06775,32.9745 61.630625,32.9745 C62.1935,32.9745 62.64975,32.518375 62.64975,31.955375 C62.64975,30.419375 63.899375,29.169875 65.435375,29.169875 C66.971375,29.169875 68.220875,30.4195 68.220875,31.955375 C68.220875,34.43425 66.70875,35.342 64.7945,36.491 C63.9645,36.989125 63.088375,37.516125 62.353,38.20625 C60.96125,31.278875 54.83025,26.044625 47.499,26.044625 C39.144875,26.044625 32.34825,32.84125 32.34825,41.195375 L32.34825,64.7935 L30.634,65.50775 C29.033875,66.174375 28,67.725125 28,69.458625 L28,73.806875 C28,75.5675 29.4325,77 31.19325,77 L63.80475,77 C65.5655,77 66.998,75.5675 66.998,73.80675 L66.998,69.4585 C66.998,67.725125 65.964125,66.17425 64.364125,65.5075 L62.649875,64.79325 L62.649875,43.3015 L69.240125,43.3015 C69.803,43.3015 70.25925,42.845375 70.25925,42.282375 C70.259,41.7195 69.80275,41.26325 69.239875,41.26325 Z M34.386375,41.195375 C34.386375,33.965125 40.268625,28.082875 47.498875,28.082875 C54.729125,28.082875 60.611375,33.965125 60.611375,41.195375 L60.611375,44.741625 C60.252875,44.602125 59.863625,44.5245 59.456375,44.5245 L59.183125,44.5245 C59.009,43.75675 58.410625,43.13325 57.591,42.939 C54.300875,42.159375 51.330875,40.459125 49.002125,38.022375 C48.61325,37.6155 48.065375,37.382125 47.498875,37.382125 C46.932375,37.382125 46.3845,37.615625 45.995625,38.022375 C43.66675,40.459125 40.69675,42.159125 37.40675,42.939 C36.587125,43.133125 35.9885,43.75675 35.8145,44.5245 L35.541375,44.5245 C35.134125,44.5245 34.744875,44.602 34.386375,44.741625 L34.386375,41.195375 Z M47.499,56.346125 C51.40075,56.346125 54.07075,55.529125 55.8025,54.66675 C55.528875,55.024 55.1825,55.327875 54.777125,55.553125 L49.11575,58.69825 C48.10325,59.260625 46.894625,59.260625 45.882125,58.69825 L40.22075,55.553125 C39.257125,55.01775 38.622,54.0425 38.52225,52.9445 L37.79975,44.997 C37.796125,44.9565 37.84375,44.93025 37.87675,44.922375 C41.550875,44.05175 44.867875,42.15275 47.469125,39.43075 C47.485375,39.41375 47.512375,39.41375 47.528625,39.43075 C50.130125,42.15275 53.447,44.051625 57.121125,44.922375 C57.154125,44.93025 57.201875,44.9565 57.198125,44.997 L56.585375,51.734625 C55.75325,52.4705 53.1135,54.308 47.498625,54.308 C46.93575,54.308 46.4795,54.76425 46.4795,55.327125 C46.479875,55.889875 46.936125,56.346125 47.499,56.346125 Z M43.08275,60.399875 L43.08275,59.4745 L44.89225,60.479875 C45.708375,60.933125 46.6035,61.16 47.498875,61.16 C48.39425,61.16 49.289375,60.933375 50.1055,60.479875 L51.915,59.474625 L51.915,60.4 C51.915,61.693125 52.68625,62.85025 53.88,63.3475 L55.036375,63.829375 C51.68175,67.831375 48.401,69.169875 47.495875,69.48 C46.586875,69.174 43.33575,67.858625 39.961125,63.8295 L41.117625,63.347625 C42.3115,62.85 43.08275,61.693125 43.08275,60.399875 Z M54.664125,61.466125 C54.23225,61.28625 53.953375,60.86775 53.953375,60.4 L53.953375,58.342375 L55.767,57.334875 C57.320875,56.471625 58.344625,54.899375 58.505625,53.129125 L58.5095,53.085125 L59.4565,53.085125 C59.86375,53.085125 60.253,53.007625 60.6115,52.868125 L60.6115,63.944375 L54.664125,61.466125 Z M59.4565,51.04675 L58.694875,51.04675 L59.1025,46.562625 L59.4565,46.562625 C60.093375,46.562625 60.6115,47.08075 60.6115,47.717625 L60.6115,49.89175 C60.6115,50.52875 60.093375,51.04675 59.4565,51.04675 Z M34.386375,47.717625 C34.386375,47.08075 34.9045,46.562625 35.541375,46.562625 L35.895375,46.562625 L36.303,51.04675 L35.541375,51.04675 C34.9045,51.04675 34.386375,50.528625 34.386375,49.89175 L34.386375,47.717625 Z M34.386375,52.867875 C34.744875,53.007375 35.134125,53.084875 35.541375,53.084875 L36.488375,53.084875 L36.4925,53.128875 C36.6535,54.899125 37.67725,56.471375 39.231125,57.334625 L41.044625,58.342125 L41.044625,60.4 C41.044625,60.86775 40.765625,61.28625 40.333875,61.466125 L34.3865,63.944125 L34.3865,52.867875 L34.386375,52.867875 Z M34.52225,74.96175 L31.19325,74.96175 C30.556375,74.96175 30.03825,74.443625 30.03825,73.80675 L30.03825,69.4585 C30.03825,69.1775 30.090375,68.905875 30.186875,68.654125 L33.680875,71.4495 C34.21575,71.87725 34.52225,72.515375 34.52225,73.200125 L34.52225,74.96175 L34.52225,74.96175 Z M36.5605,74.96175 L36.5605,73.2 C36.5605,71.8925 35.975,70.674375 34.954125,69.85775 L31.714,67.265625 L36.909875,65.100625 C37.291875,66.73875 38.260375,70.4905 40.024625,74.961625 L36.5605,74.961625 L36.5605,74.96175 Z M42.220375,74.96175 C40.76225,71.38525 39.808625,68.173 39.2695,66.127625 C43.3295,70.511 47.078625,71.491125 47.252,71.5345 C47.333125,71.55475 47.416125,71.564875 47.499125,71.564875 C47.582125,71.564875 47.665125,71.554625 47.74625,71.5345 C47.919625,71.491125 51.668625,70.511125 55.72875,66.127625 C55.1895,68.173 54.236,71.38525 52.777875,74.96175 L42.220375,74.96175 Z M64.811,68.65425 C64.9075,68.906 64.959625,69.17775 64.959625,69.458625 L64.959625,73.806875 C64.959625,74.44375 64.4415,74.961875 63.804625,74.961875 L60.4755,74.961875 L60.4755,73.200125 C60.4755,72.51525 60.782125,71.87725 61.316875,71.449375 L64.811,68.65425 Z M63.283875,67.26575 L60.04375,69.857875 C59.022875,70.6745 58.437375,71.89275 58.437375,73.200125 L58.437375,74.961875 L54.97325,74.961875 C56.737625,70.49075 57.70625,66.739 58.088,65.100875 L63.283875,67.26575 Z M92,34.673 C92,46.623625 82.277625,56.346125 70.327125,56.346 C70.055,56.346 69.782125,56.33925 69.50925,56.329 L71.047875,57.867625 C71.445875,58.2655 71.445875,58.91075 71.047875,59.30875 C70.848875,59.507625 70.588,59.607125 70.32725,59.607125 C70.0665,59.607125 69.8055,59.507625 69.606625,59.30875 L66.3455,56.047625 C65.9475,55.649625 65.9475,55.0045 66.3455,54.6065 L69.606625,51.345375 C70.0045,50.94725 70.64975,50.94725 71.04775,51.345375 C71.44575,51.74325 71.44575,52.3885 71.04775,52.7865 L69.543375,54.29075 C69.80475,54.301125 70.066375,54.307875 70.327125,54.307875 C81.153875,54.307875 89.962,45.49975 89.962,34.673 C89.962,23.846375 81.153875,15.038125 70.327125,15.038125 C63.48275,15.038125 57.240125,18.515375 53.628,24.339625 C53.3315,24.818 52.703,24.96525 52.224875,24.668625 C51.746375,24.372125 51.599125,23.74375 51.895875,23.2655 C53.805125,20.186875 56.4775,17.613125 59.624375,15.822875 C62.87025,13.976125 66.571125,13 70.327,13 C82.277625,13 92,22.722625 92,34.673 Z M81.1975,38.002125 C81.76025,38.002125 82.2165,38.458375 82.21675,39.02125 C82.21675,39.58425 81.7605,40.040375 81.197625,40.040375 L80.042625,40.040375 L80.042625,42.282375 C80.042625,42.845375 79.586375,43.3015 79.0235,43.3015 C78.460625,43.3015 78.004375,42.845375 78.004375,42.282375 L78.004375,40.040375 L72.501125,40.040375 C72.19575,40.040375 71.906625,39.9035 71.713,39.667375 C71.5195,39.43125 71.442125,39.12075 71.501875,38.821375 L73.676,27.950875 C73.78625,27.399125 74.322875,27.040875 74.875125,27.1515 C75.427,27.26175 75.785,27.798625 75.6745,28.350625 L73.744125,38.002125 L78.00425,38.002125 L78.00425,28.15075 C78.00425,27.587875 78.4605,27.131625 79.023375,27.131625 C79.58625,27.131625 80.0425,27.587875 80.0425,28.15075 L80.0425,38.002125 L81.1975,38.002125 Z" id="Shape" fill="#2D9DD5" fill-rule="nonzero"></path>
                    </g>
                </g>
            </g>
        </g>
    </g>
</svg>
