<?xml version="1.0" encoding="UTF-8"?>
<svg width="65px" height="65px" viewBox="0 0 65 65" version="1.1" xmlns="http://www.w3.org/2000/svg" xmlns:xlink="http://www.w3.org/1999/xlink">
    <!-- Generator: Sketch 47.1 (45422) - http://www.bohemiancoding.com/sketch -->
    <title>success_check</title>
    <desc>Created with Sketch.</desc>
    <defs></defs>
    <g id="Pages" stroke="none" stroke-width="1" fill="none" fill-rule="evenodd">
        <g id="Hoàn-tất-đặt-hàng" transform="translate(-688.000000, -192.000000)" fill="#2D9DD5">
            <path d="M733.625,212.15625 L736.4375,214.96875 L715.5,236.0625 C715.08333,236.47917 714.61459,236.6875 714.09375,236.6875 C713.57291,236.6875 713.10417,236.47917 712.6875,236.0625 L703.9375,227.3125 L706.75,224.5 L714.09375,231.84375 L733.625,212.15625 Z M697.53125,201.53125 C703.88545,195.17705 711.54162,192 720.5,192 C729.45838,192 737.11455,195.17705 743.46875,201.53125 C749.82295,207.88545 753,215.54162 753,224.5 C753,233.45838 749.82295,241.11455 743.46875,247.46875 C737.11455,253.822948 729.45838,257 720.5,257 C711.54162,257 703.88545,253.822948 697.53125,247.46875 C691.177052,241.11455 688,233.45838 688,224.5 C688,215.54162 691.177052,207.88545 697.53125,201.53125 Z M699.40625,245.59375 C705.23961,251.427112 712.27079,254.34375 720.5,254.34375 C728.72921,254.34375 735.76039,251.427112 741.59375,245.59375 C747.42711,239.76039 750.34375,232.72921 750.34375,224.5 C750.34375,216.27079 747.42711,209.23961 741.59375,203.40625 C735.76039,197.57289 728.72921,194.65625 720.5,194.65625 C712.27079,194.65625 705.23961,197.57289 699.40625,203.40625 C693.572888,209.23961 690.65625,216.27079 690.65625,224.5 C690.65625,232.72921 693.572888,239.76039 699.40625,245.59375 Z" id="success_check"></path>
        </g>
    </g>
</svg>