<?xml version="1.0" encoding="UTF-8"?>
<svg width="7px" height="12px" viewBox="0 0 7 12" version="1.1" xmlns="http://www.w3.org/2000/svg" xmlns:xlink="http://www.w3.org/1999/xlink">
    <!-- Generator: Sketch 47.1 (45422) - http://www.bohemiancoding.com/sketch -->
    <title>fb</title>
    <desc>Created with Sketch.</desc>
    <defs></defs>
    <g id="V1.0" stroke="none" stroke-width="1" fill="none" fill-rule="evenodd">
        <g id="Home" transform="translate(-164.000000, -4723.000000)" fill="#FFFFFF">
            <g id="Group-25" transform="translate(151.000000, 4618.000000)">
                <g id="Group-23" transform="translate(0.000000, 15.000000)">
                    <g id="Group-7" transform="translate(1.000000, 80.000000)">
                        <g id="Group-6">
                            <path d="M18.4870603,10.3640316 L18.4870603,12.0870123 L17.4624089,12.0870123 C17.0882243,12.0870123 16.8358711,12.1653288 16.7053416,12.3219642 C16.5748121,12.4785996 16.5095483,12.7135492 16.5095483,13.02682 L16.5095483,14.2603175 L18.4217958,14.2603175 L18.1672646,16.1921444 L16.5095483,16.1921444 L16.5095483,21.1457139 L14.512457,21.1457139 L14.512457,16.1921444 L12.8482143,16.1921444 L12.8482143,14.2603175 L14.512457,14.2603175 L14.512457,12.8375531 C14.512457,12.0282703 14.7387048,11.4006504 15.191207,10.9546746 C15.6437092,10.5086988 16.2463114,10.2857143 16.9990315,10.2857143 C17.638626,10.2857143 18.1346306,10.3118198 18.4870603,10.3640316 Z" id="fb"></path>
                        </g>
                    </g>
                </g>
            </g>
        </g>
    </g>
</svg>