<?xml version="1.0" encoding="UTF-8"?>
<svg width="52px" height="52px" viewBox="0 0 52 52" version="1.1" xmlns="http://www.w3.org/2000/svg" xmlns:xlink="http://www.w3.org/1999/xlink">
    <!-- Generator: Sketch 47.1 (45422) - http://www.bohemiancoding.com/sketch -->
    <title>feature_ico-4</title>
    <desc>Created with Sketch.</desc>
    <defs></defs>
    <g id="V1.0" stroke="none" stroke-width="1" fill="none" fill-rule="evenodd">
        <g id="Home" transform="translate(-643.000000, -2256.000000)" fill-rule="nonzero" fill="#FFFFFF">
            <g id="Group-18" transform="translate(232.000000, 2055.000000)">
                <g id="feature_ico-4" transform="translate(411.000000, 201.000000)">
                    <path d="M48.953125,33.7792812 L48.953125,4.5703125 C48.953125,2.05024219 46.9028828,0 44.3828125,0 L10.765625,0 C8.24555469,0 6.1953125,2.05024219 6.1953125,4.5703125 L6.1953125,6.1953125 L4.5703125,6.1953125 C2.05024219,6.1953125 0,8.24555469 0,10.765625 C0,13.2856953 2.05024219,15.3359375 4.5703125,15.3359375 L6.1953125,15.3359375 L6.1953125,21.4296875 L4.5703125,21.4296875 C2.05024219,21.4296875 0,23.4799297 0,26 C0,28.5200703 2.05024219,30.5703125 4.5703125,30.5703125 L6.1953125,30.5703125 L6.1953125,36.6640625 L4.5703125,36.6640625 C2.05024219,36.6640625 0,38.7143047 0,41.234375 C0,43.7544453 2.05024219,45.8046875 4.5703125,45.8046875 L6.1953125,45.8046875 L6.1953125,47.328125 C6.1953125,48.5423047 6.66219531,49.6993047 7.5099375,50.5861484 C8.38154687,51.497875 9.53783594,52 10.765625,52 L41.3359375,52 C47.2161016,52 52,47.1706016 52,41.234375 C52,38.3354766 50.8367031,35.7034844 48.953125,33.7792812 Z M4.5703125,12.2890625 C3.73028906,12.2890625 3.046875,11.6056484 3.046875,10.765625 C3.046875,9.92560156 3.73028906,9.2421875 4.5703125,9.2421875 L7.71875,9.2421875 C8.55877344,9.2421875 9.2421875,9.92560156 9.2421875,10.765625 C9.2421875,11.6056484 8.55877344,12.2890625 7.71875,12.2890625 L4.5703125,12.2890625 Z M4.5703125,27.5234375 C3.73028906,27.5234375 3.046875,26.8400234 3.046875,26 C3.046875,25.1599766 3.73028906,24.4765625 4.5703125,24.4765625 L7.71875,24.4765625 C8.55877344,24.4765625 9.2421875,25.1599766 9.2421875,26 C9.2421875,26.8400234 8.55877344,27.5234375 7.71875,27.5234375 L4.5703125,27.5234375 Z M7.71875,42.7578125 L4.5703125,42.7578125 C3.73028906,42.7578125 3.046875,42.0743984 3.046875,41.234375 C3.046875,40.3943516 3.73028906,39.7109375 4.5703125,39.7109375 L7.71875,39.7109375 C8.55877344,39.7109375 9.2421875,40.3943516 9.2421875,41.234375 C9.2421875,42.0743984 8.55877344,42.7578125 7.71875,42.7578125 Z M10.765625,48.953125 C9.95414063,48.953125 9.2421875,48.1937422 9.2421875,47.328125 L9.2421875,45.5426563 C11.0153672,44.9137812 12.2890625,43.2204297 12.2890625,41.234375 C12.2890625,39.2483203 11.0153672,37.5549688 9.2421875,36.9260937 L9.2421875,30.3082812 C11.0153672,29.6794062 12.2890625,27.9860547 12.2890625,26 C12.2890625,24.0139453 11.0153672,22.3205937 9.2421875,21.6917187 L9.2421875,15.0739062 C11.0153672,14.4450312 12.2890625,12.7516797 12.2890625,10.765625 C12.2890625,8.77957031 11.0153672,7.08621875 9.2421875,6.45734375 L9.2421875,4.5703125 C9.2421875,3.73028906 9.92560156,3.046875 10.765625,3.046875 L44.3828125,3.046875 C45.2228359,3.046875 45.90625,3.73028906 45.90625,4.5703125 L45.90625,31.6006641 C44.5203281,30.9405078 42.9705859,30.5703125 41.3359375,30.5703125 C35.4557734,30.5703125 30.671875,35.3542109 30.671875,41.234375 C30.671875,44.2589062 31.9142891,46.9956094 33.9102969,48.953125 L10.765625,48.953125 Z M41.3359375,48.953125 C37.1358203,48.953125 33.71875,45.4905547 33.71875,41.234375 C33.71875,37.0342578 37.1358203,33.6171875 41.3359375,33.6171875 C45.5360547,33.6171875 48.953125,37.0342578 48.953125,41.234375 C48.953125,45.4905547 45.5360547,48.953125 41.3359375,48.953125 Z" id="Shape"></path>
                    <path d="M41.3359375,12.2890625 L32.1953125,12.2890625 C31.3539687,12.2890625 30.671875,12.9711562 30.671875,13.8125 C30.671875,14.6538438 31.3539687,15.3359375 32.1953125,15.3359375 L41.3359375,15.3359375 C42.1772813,15.3359375 42.859375,14.6538438 42.859375,13.8125 C42.859375,12.9711562 42.1772813,12.2890625 41.3359375,12.2890625 Z" id="Shape"></path>
                    <path d="M41.3359375,24.4765625 L32.1953125,24.4765625 C31.3539687,24.4765625 30.671875,25.1586562 30.671875,26 C30.671875,26.8413438 31.3539687,27.5234375 32.1953125,27.5234375 L41.3359375,27.5234375 C42.1772813,27.5234375 42.859375,26.8413438 42.859375,26 C42.859375,25.1586562 42.1772813,24.4765625 41.3359375,24.4765625 Z" id="Shape"></path>
                    <path d="M44.3828125,39.7109375 L42.859375,39.7109375 L42.859375,38.1875 C42.859375,37.3461562 42.1772813,36.6640625 41.3359375,36.6640625 C40.4945937,36.6640625 39.8125,37.3461562 39.8125,38.1875 L39.8125,41.234375 C39.8125,42.0757188 40.4945937,42.7578125 41.3359375,42.7578125 L44.3828125,42.7578125 C45.2241563,42.7578125 45.90625,42.0757188 45.90625,41.234375 C45.90625,40.3930312 45.2241563,39.7109375 44.3828125,39.7109375 Z" id="Shape"></path>
                    <path d="M27.0771719,9.68835156 C26.4823203,9.09339844 25.5176797,9.09339844 24.9228281,9.68845313 L19.90625,14.7049297 L17.5082578,12.3069375 C16.9134062,11.7119844 15.9487656,11.7119844 15.3538125,12.3069375 C14.7588594,12.9018906 14.7588594,13.8664297 15.3538125,14.4613828 L18.8290781,17.9366484 C19.1264531,18.234125 19.5163516,18.3828125 19.90625,18.3828125 C20.2961484,18.3828125 20.6860469,18.234125 20.9834219,17.9365469 L27.0771719,11.8427969 C27.672125,11.2478438 27.672125,10.2833047 27.0771719,9.68835156 Z" id="Shape"></path>
                    <path d="M27.0771719,21.8758516 C26.4823203,21.2808984 25.5176797,21.2808984 24.9228281,21.8759531 L19.90625,26.8924297 L17.5082578,24.4944375 C16.9134062,23.8994844 15.9487656,23.8994844 15.3538125,24.4944375 C14.7588594,25.0893906 14.7588594,26.0539297 15.3538125,26.6488828 L18.8290781,30.1241484 C19.1264531,30.421625 19.5163516,30.5703125 19.90625,30.5703125 C20.2961484,30.5703125 20.6860469,30.421625 20.9834219,30.1240469 L27.0771719,24.0302969 C27.672125,23.4353437 27.672125,22.4708047 27.0771719,21.8758516 Z" id="Shape"></path>
                    <path d="M27.0771719,34.0633516 C26.4823203,33.4683984 25.5176797,33.4683984 24.9228281,34.0634531 L19.90625,39.0799297 L17.5082578,36.6819375 C16.9134062,36.0869844 15.9487656,36.0869844 15.3538125,36.6819375 C14.7588594,37.2768906 14.7588594,38.2414297 15.3538125,38.8363828 L18.8290781,42.3116484 C19.1264531,42.609125 19.5163516,42.7578125 19.90625,42.7578125 C20.2961484,42.7578125 20.6860469,42.609125 20.9834219,42.3115469 L27.0771719,36.2177969 C27.672125,35.6228438 27.672125,34.6583047 27.0771719,34.0633516 Z" id="Shape"></path>
                </g>
            </g>
        </g>
    </g>
</svg>