<?xml version="1.0" encoding="UTF-8"?>
<svg width="33px" height="42px" viewBox="0 0 33 42" version="1.1" xmlns="http://www.w3.org/2000/svg" xmlns:xlink="http://www.w3.org/1999/xlink">
    <!-- Generator: Sketch 47.1 (45422) - http://www.bohemiancoding.com/sketch -->
    <title>feature_ico-3</title>
    <desc>Created with Sketch.</desc>
    <defs></defs>
    <g id="V1.0" stroke="none" stroke-width="1" fill="none" fill-rule="evenodd">
        <g id="Home" transform="translate(-450.000000, -2418.000000)" fill-rule="nonzero" fill="#FFFFFF">
            <g id="Group-18" transform="translate(232.000000, 2055.000000)">
                <g id="feature_ico-3" transform="translate(218.000000, 363.000000)">
                    <path d="M6.04297363,42 L26.415359,42 C29.722284,42 32.4015943,39.3931034 32.4015943,36.0861785 L32.4015943,22.8586491 C32.4015943,20.1793387 30.7119675,17.8862069 28.0567667,17.1379594 L28.0567667,10.7896552 C28.0567667,4.87583367 23.3498702,0 17.4361339,0 L15.0223692,0 C9.10854767,0 4.28093306,4.85172414 4.28093306,10.7655456 C4.28093306,11.5620974 4.9326572,12.2138215 5.72920892,12.2138215 C6.52576065,12.2138215 7.17748479,11.5379878 7.17748479,10.7414361 C7.17748479,6.42071805 10.7016511,2.89655172 15.022284,2.89655172 L17.4360487,2.89655172 C21.7567667,2.89655172 25.160215,6.46893712 25.160215,10.7896552 L25.160215,16.8965233 L6.04297363,16.8965233 C2.73604868,16.8965233 0.0567383367,19.5758337 0.0567383367,22.8827586 L0.0567383367,36.1103732 C0.0568235294,39.3931034 2.73613387,42 6.04297363,42 Z M29.5050426,36.0137647 C29.5050426,37.7275862 28.1291805,39.1034483 26.415359,39.1034483 L6.04297363,39.1034483 C4.32915213,39.1034483 2.95329006,37.7275862 2.95329006,36.0137647 L2.95329006,22.8827586 C2.95329006,21.1689371 4.32915213,19.7930751 6.04297363,19.7930751 L26.415359,19.7930751 C28.1291805,19.7930751 29.5050426,21.1689371 29.5050426,22.8827586 L29.5050426,36.0137647 L29.5050426,36.0137647 Z" id="Shape"></path>
                    <path d="M15.7464219,35.4827586 C16.5429736,35.4827586 17.1946978,34.8310345 17.1946978,34.0344828 L17.1946978,29.4483043 C17.1946978,28.6517525 16.5429736,28.0000284 15.7464219,28.0000284 C14.9498702,28.0000284 14.298146,28.6517525 14.298146,29.4483043 L14.298146,34.0344828 C14.298146,34.8310345 14.9498702,35.4827586 15.7464219,35.4827586 Z" id="Shape"></path>
                </g>
            </g>
        </g>
    </g>
</svg>