<?xml version="1.0" encoding="UTF-8"?>
<svg width="42px" height="42px" viewBox="0 0 42 42" version="1.1" xmlns="http://www.w3.org/2000/svg" xmlns:xlink="http://www.w3.org/1999/xlink">
    <!-- Generator: Sketch 47.1 (45422) - http://www.bohemiancoding.com/sketch -->
    <title>feature_ico-6</title>
    <desc>Created with Sketch.</desc>
    <defs></defs>
    <g id="V1.0" stroke="none" stroke-width="1" fill="none" fill-rule="evenodd">
        <g id="Home" transform="translate(-882.000000, -2409.000000)" fill-rule="nonzero" fill="#FFFFFF">
            <g id="Group-18" transform="translate(232.000000, 2055.000000)">
                <g id="feature_ico-6" transform="translate(650.000000, 354.000000)">
                    <path d="M40.6868438,23.1012305 C39.1769766,21.8258086 36.9419531,21.9724805 35.6066484,23.4060586 L31.9902187,27.2883516 C31.5533203,25.8837305 30.2982422,24.8370117 28.7852578,24.7060898 C29.4269883,24.2573789 30.035332,23.7504258 30.6033164,23.1876094 C33.1913203,20.6229844 34.6166953,17.2241016 34.6166953,13.6171875 C34.6166953,6.15816797 28.4851055,0.00024609375 20.9997539,0.00024609375 C13.5340898,0.00024609375 7.46484375,6.14110547 7.46484375,13.6171875 C7.46484375,16.9939219 8.71352344,20.1965859 10.9433789,22.6675312 C10.3463555,22.9703906 9.77763281,23.3469141 9.25058203,23.7976758 C8.58169922,22.850543 7.47936328,22.2303047 6.234375,22.2303047 L1.23046875,22.2303047 C0.550921875,22.2303047 0,22.7812266 0,23.4607734 L0,40.7691211 C0,41.448668 0.550921875,41.9995898 1.23046875,41.9995898 L6.23429297,41.9995898 C7.84522266,41.9995898 9.21752344,40.9618945 9.72021094,39.5201133 C9.78714844,39.5313516 9.85548047,39.5386523 9.92561719,39.5386523 L28.4643516,39.5386523 C31.1608828,39.5386523 33.7368281,38.2506797 35.3585039,36.088582 L41.2621289,28.1351602 C42.4347656,26.5721367 42.1853086,24.3670547 40.6868438,23.1012305 Z M7.46476172,38.3082656 C7.46476172,38.9867461 6.91277344,39.5387344 6.23429297,39.5387344 L2.4609375,39.5387344 L2.4609375,24.6913242 L6.23429297,24.6913242 C6.91277344,24.6913242 7.46476172,25.2433125 7.46476172,25.921793 L7.46476172,38.3082656 Z M9.92561719,13.6172695 C9.92561719,7.46574609 14.8934297,2.46118359 20.9996719,2.46118359 C27.1511953,2.46118359 32.1557578,7.46574609 32.1557578,13.6172695 C32.1557578,19.4909531 27.5249297,24.3103711 21.6971836,24.6690938 C21.4826719,24.6280781 21.2815313,24.5307891 21.1155,24.3846094 L20.5375898,23.8760156 C18.5777813,22.1513906 16.0165195,21.4705313 13.5803555,21.8297461 C11.2513242,19.7258906 9.92561719,16.763332 9.92561719,13.6172695 Z M39.2898516,26.6634375 L33.3862266,34.6170234 C32.2304883,36.1579805 30.3906094,37.0779609 28.4644336,37.0779609 L9.92561719,37.0779609 L9.92561719,26.4780469 L10.7830898,25.7234414 C13.1001445,23.6843906 16.5948398,23.6843906 18.9117305,25.7234414 C19.3300898,26.0915977 20.464582,27.1521797 20.9996719,27.1521797 C22.0408125,27.1521797 27.8152383,27.1521797 28.4644336,27.1521797 C29.1429141,27.1521797 29.6949023,27.704168 29.6949023,28.3826484 C29.6949023,29.0611289 29.1429141,29.6131172 28.4644336,29.6131172 C27.5898984,29.6131172 20.5197891,29.6131172 19.637543,29.6131172 C18.9579961,29.6131172 18.4070742,30.1640391 18.4070742,30.8435859 C18.4070742,31.5231328 18.9579961,32.0740547 19.637543,32.0740547 C20.2901016,32.0740547 20.0460586,32.0740547 29.2891758,32.0740547 C30.3098906,32.0740547 31.2944297,31.6456875 31.9901367,30.8987109 L37.4073164,25.0834336 C37.8476602,24.6106875 38.5553438,24.5686055 39.0462188,24.9379102 C39.5840977,25.3424883 39.70575,26.1088242 39.2898516,26.6634375 Z" id="Shape"></path>
                    <path d="M20.9996719,12.3867188 C20.3211914,12.3867188 19.7692031,11.8347305 19.7692031,11.15625 C19.7692031,10.6406016 20.094457,10.1756484 20.5785234,9.99936328 C21.2104922,9.76926562 21.9463125,10.0813945 22.5969844,10.8561797 C23.0340469,11.3765039 23.8102266,11.4440977 24.3305508,11.0070352 C24.850875,10.5699727 24.9184688,9.79379297 24.4814063,9.27346875 C23.8162148,8.481375 23.0420039,7.93693359 22.2300586,7.66360547 L22.2300586,6.23453906 C22.2300586,5.55499219 21.6791367,5.00407031 20.9995898,5.00407031 C20.320043,5.00407031 19.7691211,5.55499219 19.7691211,6.23453906 L19.7691211,7.67599219 C19.7581289,7.67984766 19.7471367,7.68321094 19.7362266,7.68723047 C18.2840273,8.21616797 17.3083477,9.61037109 17.3083477,11.156332 C17.3083477,13.1917734 18.9643125,14.8476562 20.9996719,14.8476562 C21.6781523,14.8476562 22.2301406,15.3996445 22.2301406,16.078125 C22.2301406,16.5737578 21.9352383,17.0188594 21.4788164,17.212207 C20.9277305,17.4454219 20.2683633,17.2464141 19.6692891,16.6659609 C19.1812031,16.1931328 18.4022344,16.2054375 17.9294062,16.6934414 C17.4564961,17.1815273 17.4688828,17.9604961 17.9568867,18.4333242 C18.5124023,18.9715313 19.1300156,19.3518281 19.7692031,19.5664219 L19.7692031,20.999918 C19.7692031,21.6794648 20.320125,22.2303867 20.9996719,22.2303867 C21.6792188,22.2303867 22.2301406,21.6794648 22.2301406,20.999918 L22.2301406,19.5585469 C22.2999492,19.5337734 22.3695117,19.5074414 22.4385,19.4781563 C23.8068633,18.8986875 24.6910781,17.5640391 24.6910781,16.078125 C24.6909961,14.0426836 23.0351133,12.3867188 20.9996719,12.3867188 Z" id="Shape"></path>
                </g>
            </g>
        </g>
    </g>
</svg>