<?xml version="1.0" encoding="UTF-8"?>
<svg width="41px" height="44px" viewBox="0 0 41 44" version="1.1" xmlns="http://www.w3.org/2000/svg" xmlns:xlink="http://www.w3.org/1999/xlink">
    <!-- Generator: Sketch 47.1 (45422) - http://www.bohemiancoding.com/sketch -->
    <title>feature_ico-2</title>
    <desc>Created with Sketch.</desc>
    <defs>
        <filter x="-5.1%" y="-2.4%" width="110.3%" height="109.5%" filterUnits="objectBoundingBox" id="filter-1">
            <feOffset dx="0" dy="1" in="SourceAlpha" result="shadowOffsetOuter1"></feOffset>
            <feGaussianBlur stdDeviation="0.5" in="shadowOffsetOuter1" result="shadowBlurOuter1"></feGaussianBlur>
            <feColorMatrix values="0 0 0 0 0   0 0 0 0 0   0 0 0 0 0  0 0 0 0.1 0" type="matrix" in="shadowBlurOuter1" result="shadowMatrixOuter1"></feColorMatrix>
            <feMerge>
                <feMergeNode in="shadowMatrixOuter1"></feMergeNode>
                <feMergeNode in="SourceGraphic"></feMergeNode>
            </feMerge>
        </filter>
    </defs>
    <g id="V1.0" stroke="none" stroke-width="1" fill="none" fill-rule="evenodd">
        <g id="Home" transform="translate(-451.000000, -2116.000000)" fill-rule="nonzero" fill="#FFFFFF">
            <g id="Group-18" transform="translate(232.000000, 2055.000000)">
                <g id="feature_ico-2" filter="url(#filter-1)" transform="translate(220.000000, 61.000000)">
                    <path d="M38.6858182,0.190145455 C38.5208727,0.0458181818 38.3032364,-0.0198545455 38.0833091,0.00610909091 L14.4105818,3.06905455 C14.0302909,3.11869091 13.7454545,3.44170909 13.7454545,3.82581818 L13.7454545,8.42061818 L13.7454545,11.6370545 L13.7454545,31.0212 C12.3510545,29.3450182 10.1357455,28.2545455 7.63636364,28.2545455 C3.42567273,28.2545455 0,31.3373455 0,35.1272727 C0,38.9172 3.42567273,42 7.63636364,42 C11.8470545,42 15.2727273,38.9172 15.2727273,35.1272727 C15.2727273,34.9501091 15.2582182,34.776 15.2429455,34.6026545 C15.2528727,34.5530182 15.2727273,34.5079636 15.2727273,34.4560364 L15.2727273,12.3082909 L37.4181818,9.44236364 L37.4181818,23.3840727 C36.0237818,21.7086545 33.8084727,20.6181818 31.3090909,20.6181818 C27.0984,20.6181818 23.6727273,23.7009818 23.6727273,27.4909091 C23.6727273,31.2808364 27.0984,34.3636364 31.3090909,34.3636364 C35.4816,34.3636364 38.8790182,31.3350545 38.9401091,27.5924727 C38.9401091,27.5825455 38.9454545,27.5741455 38.9454545,27.5642182 L38.9454545,8.57334545 L38.9454545,5.35767273 L38.9454545,0.763636364 C38.9454545,0.543709091 38.8507636,0.334472727 38.6858182,0.190145455 Z" id="Shape"></path>
                </g>
            </g>
        </g>
    </g>
</svg>