<?xml version="1.0" encoding="UTF-8"?>
<svg width="43px" height="32px" viewBox="0 0 43 32" version="1.1" xmlns="http://www.w3.org/2000/svg" xmlns:xlink="http://www.w3.org/1999/xlink">
    <!-- Generator: Sketch 47.1 (45422) - http://www.bohemiancoding.com/sketch -->
    <title>feature_ico-5</title>
    <desc>Created with Sketch.</desc>
    <defs></defs>
    <g id="V1.0" stroke="none" stroke-width="1" fill="none" fill-rule="evenodd">
        <g id="Home" transform="translate(-891.000000, -2125.000000)" fill-rule="nonzero" fill="#FFFFFF">
            <g id="Group-18" transform="translate(232.000000, 2055.000000)">
                <g id="feature_ico-5" transform="translate(659.000000, 70.000000)">
                    <path d="M38.3179487,0 L3.69230769,0 C1.65636923,0 0,1.65636923 0,3.69230769 L0,28.3076923 C0,30.3436308 1.65636923,32 3.69230769,32 L38.3179487,32 C40.3538872,32 42.0102564,30.3436308 42.0102564,28.3076923 L42.0102564,3.69230769 C42.0102564,1.65636923 40.3538872,0 38.3179487,0 Z M39.5487179,28.3076923 C39.5487179,28.9863385 38.9965949,29.5384615 38.3179487,29.5384615 L3.69230769,29.5384615 C3.01366154,29.5384615 2.46153846,28.9863385 2.46153846,28.3076923 L2.46153846,12.3076923 L39.5487179,12.3076923 L39.5487179,28.3076923 Z M39.5487179,9.84615385 L2.46153846,9.84615385 L2.46153846,7.38461538 L39.5487179,7.38461538 L39.5487179,9.84615385 Z M39.5487179,4.92307692 L2.46153846,4.92307692 L2.46153846,3.69230769 C2.46153846,3.01366154 3.01366154,2.46153846 3.69230769,2.46153846 L38.3179487,2.46153846 C38.9965949,2.46153846 39.5487179,3.01366154 39.5487179,3.69230769 L39.5487179,4.92307692 Z" id="Shape"></path>
                    <path d="M25.8461538,22.1538462 L23.3846154,22.1538462 C22.7049026,22.1538462 22.1538462,22.7049026 22.1538462,23.3846154 C22.1538462,24.0643282 22.7049026,24.6153846 23.3846154,24.6153846 L25.8461538,24.6153846 C26.5258667,24.6153846 27.0769231,24.0643282 27.0769231,23.3846154 C27.0769231,22.7049026 26.5258667,22.1538462 25.8461538,22.1538462 Z" id="Shape"></path>
                    <path d="M33.3948718,22.1538462 L30.9333333,22.1538462 C30.2536205,22.1538462 29.7025641,22.7049026 29.7025641,23.3846154 C29.7025641,24.0643282 30.2536205,24.6153846 30.9333333,24.6153846 L33.3948718,24.6153846 C34.0745846,24.6153846 34.625641,24.0643282 34.625641,23.3846154 C34.625641,22.7049026 34.0745846,22.1538462 33.3948718,22.1538462 Z" id="Shape"></path>
                    <path d="M14.7692308,17.2307692 C13.8734769,17.2307692 13.0336821,17.4724103 12.3092513,17.8921846 C11.5658667,17.4621538 10.7186051,17.2307692 9.84615385,17.2307692 C7.13156923,17.2307692 4.92307692,19.4392615 4.92307692,22.1538462 C4.92307692,24.8684308 7.13156923,27.0769231 9.84615385,27.0769231 C10.7186051,27.0769231 11.5658667,26.8455385 12.3092513,26.4155077 C13.0336,26.8352821 13.8734769,27.0769231 14.7692308,27.0769231 C17.4838154,27.0769231 19.6923077,24.8684308 19.6923077,22.1538462 C19.6923077,19.4392615 17.4838154,17.2307692 14.7692308,17.2307692 Z M10.4630154,24.5364513 C10.2632205,24.5880615 10.0562051,24.6153846 9.84615385,24.6153846 C8.48886154,24.6153846 7.38461538,23.5111385 7.38461538,22.1538462 C7.38461538,20.7965538 8.48886154,19.6923077 9.84615385,19.6923077 C10.0562051,19.6923077 10.2632205,19.7196308 10.4630154,19.771241 C10.0705641,20.4777846 9.84615385,21.2899282 9.84615385,22.1538462 C9.84615385,23.0177641 10.0705641,23.8299077 10.4630154,24.5364513 Z M14.7692308,24.6153846 C13.4119385,24.6153846 12.3076923,23.5111385 12.3076923,22.1538462 C12.3076923,20.7965538 13.4119385,19.6923077 14.7692308,19.6923077 C16.1265231,19.6923077 17.2307692,20.7965538 17.2307692,22.1538462 C17.2307692,23.5111385 16.1265231,24.6153846 14.7692308,24.6153846 Z" id="Shape"></path>
                </g>
            </g>
        </g>
    </g>
</svg>