<?xml version="1.0" encoding="UTF-8"?>
<svg width="37px" height="42px" viewBox="0 0 37 42" version="1.1" xmlns="http://www.w3.org/2000/svg" xmlns:xlink="http://www.w3.org/1999/xlink">
    <!-- Generator: Sketch 47.1 (45422) - http://www.bohemiancoding.com/sketch -->
    <title>feature_ico-1</title>
    <desc>Created with Sketch.</desc>
    <defs></defs>
    <g id="V1.0" stroke="none" stroke-width="1" fill="none" fill-rule="evenodd">
        <g id="Home" transform="translate(-307.000000, -2295.000000)" fill-rule="nonzero" fill="#FFFFFF">
            <g id="Group-18" transform="translate(232.000000, 2055.000000)">
                <g id="feature_ico-1" transform="translate(75.000000, 240.000000)">
                    <path d="M33.2226562,7.3828125 L30.0995625,7.3828125 C30.5198086,6.65823047 30.7617188,5.81806641 30.7617188,4.921875 C30.7617188,2.20795312 28.5537656,0 25.8398438,0 C22.7102695,0 19.9654219,1.67794922 18.4570312,4.18121484 C16.9485586,1.67794922 14.203793,0 11.0742188,0 C8.36029687,0 6.15234375,2.20795312 6.15234375,4.921875 C6.15234375,5.81806641 6.39425391,6.65823047 6.8145,7.3828125 L3.69140625,7.3828125 C1.65596484,7.3828125 0,9.03877734 0,11.0742188 L0,15.9960938 C0,16.6756406 0.550921875,17.2265625 1.23046875,17.2265625 L2.4609375,17.2265625 L2.4609375,38.3085938 C2.4609375,40.3440352 4.11690234,42 6.15234375,42 L30.7617188,42 C32.7971602,42 34.453125,40.3440352 34.453125,38.3085938 L34.453125,17.2265625 L35.6835938,17.2265625 C36.3631406,17.2265625 36.9140625,16.6756406 36.9140625,15.9960938 L36.9140625,11.0742188 C36.9140625,9.03877734 35.2580977,7.3828125 33.2226562,7.3828125 Z M25.8398438,2.4609375 C27.1968047,2.4609375 28.3007813,3.56491406 28.3007813,4.921875 C28.3007813,6.27883594 27.1968047,7.3828125 25.8398438,7.3828125 C25.1826914,7.3828125 20.5561289,7.3828125 19.8111211,7.3828125 C20.3828789,4.57808203 22.8687539,2.4609375 25.8398438,2.4609375 Z M17.2265625,9.84375 C18.1170937,9.84375 18.7969688,9.84375 19.6875,9.84375 L19.6875,14.765625 L17.2265625,14.765625 L17.2265625,9.84375 Z M11.0742188,2.4609375 C14.0453086,2.4609375 16.5312656,4.57808203 17.1029414,7.3828125 C16.3577695,7.3828125 11.7314531,7.3828125 11.0742188,7.3828125 C9.71725781,7.3828125 8.61328125,6.27883594 8.61328125,4.921875 C8.61328125,3.56491406 9.71725781,2.4609375 11.0742188,2.4609375 Z M2.4609375,14.765625 L2.4609375,11.0742188 C2.4609375,10.3957383 3.01292578,9.84375 3.69140625,9.84375 C4.16037891,9.84375 14.3212617,9.84375 14.765625,9.84375 L14.765625,14.765625 L2.4609375,14.765625 Z M31.9921875,38.3085938 C31.9921875,38.9870742 31.4401992,39.5390625 30.7617188,39.5390625 L6.15234375,39.5390625 C5.47386328,39.5390625 4.921875,38.9870742 4.921875,38.3085938 L4.921875,17.2265625 C5.47468359,17.2265625 31.6121367,17.2265625 31.9921875,17.2265625 L31.9921875,38.3085938 Z M34.453125,14.765625 L22.1484375,14.765625 L22.1484375,9.84375 C22.5945234,9.84375 32.7579492,9.84375 33.2226562,9.84375 C33.9011367,9.84375 34.453125,10.3957383 34.453125,11.0742188 L34.453125,14.765625 Z" id="Shape"></path>
                    <path d="M13.5351562,19.6875 C11.4997148,19.6875 9.84375,21.3434648 9.84375,23.3789062 C9.84375,25.4143477 11.4997148,27.0703125 13.5351562,27.0703125 C15.5705977,27.0703125 17.2265625,25.4143477 17.2265625,23.3789062 C17.2265625,21.3434648 15.5705977,19.6875 13.5351562,19.6875 Z M13.5351562,24.609375 C12.8566758,24.609375 12.3046875,24.0573867 12.3046875,23.3789062 C12.3046875,22.7004258 12.8566758,22.1484375 13.5351562,22.1484375 C14.2136367,22.1484375 14.765625,22.7004258 14.765625,23.3789062 C14.765625,24.0573867 14.2136367,24.609375 13.5351562,24.609375 Z" id="Shape"></path>
                    <path d="M23.3789062,29.6953125 C21.3434648,29.6953125 19.6875,31.3512773 19.6875,33.3867188 C19.6875,35.4221602 21.3434648,37.078125 23.3789062,37.078125 C25.4143477,37.078125 27.0703125,35.4221602 27.0703125,33.3867188 C27.0703125,31.3512773 25.4143477,29.6953125 23.3789062,29.6953125 Z M23.3789062,34.6171875 C22.7004258,34.6171875 22.1484375,34.0651992 22.1484375,33.3867188 C22.1484375,32.7082383 22.7004258,32.15625 23.3789062,32.15625 C24.0573867,32.15625 24.609375,32.7082383 24.609375,33.3867188 C24.609375,34.0651992 24.0573867,34.6171875 23.3789062,34.6171875 Z" id="Shape"></path>
                    <path d="M24.0562383,19.8906914 C23.4889922,19.5167109 22.7256914,19.6732266 22.3517109,20.2406367 L12.5079609,35.1703242 C12.1338164,35.7376523 12.2904961,36.5008711 12.8578242,36.8749336 C13.4254805,37.2491602 14.1885352,37.0920703 14.5624336,36.5249883 L24.4061836,21.5953008 C24.7803281,21.0279727 24.6235664,20.2647539 24.0562383,19.8906914 Z" id="Shape"></path>
                </g>
            </g>
        </g>
    </g>
</svg>