<?xml version="1.0" encoding="UTF-8"?>
<svg width="1444px" height="511px" viewBox="0 0 1444 511" version="1.1" xmlns="http://www.w3.org/2000/svg" xmlns:xlink="http://www.w3.org/1999/xlink">
    <!-- Generator: Sketch 47.1 (45422) - http://www.bohemiancoding.com/sketch -->
    <title>feature-graph</title>
    <desc>Created with Sketch.</desc>
    <defs></defs>
    <g id="V1.0" stroke="none" stroke-width="1" fill="none" fill-rule="evenodd">
        <g id="feature-graph" transform="translate(0.000000, 1.000000)">
            <g id="below-layer" transform="translate(722.000000, 222.000000) scale(-1, 1) translate(-722.000000, -222.000000) translate(1.000000, 0.000000)">
                <g id="rect-2" transform="translate(0.000000, 5.000000)">
                    <g id="path-1-link" transform="translate(1.000000, 2.000000)" fill="#B9CFEE">
                        <polygon id="path-1" points="0 10 131.109375 10 257.367188 0 397.484375 40 549.476562 40 685.875 140 833.953125 150 1040.89844 249 1191.46875 210 1392.96094 200 1440 200 1440 436 0 436"></polygon>
                    </g>
                    <path d="M687.232089,141.021837 L687.466266,141.193523 L686.942378,141.002273 L687.232089,141.021837 Z M1042.00087,249.940467 L1042.32999,250.09791 L1041.6477,250.031946 L1042.00087,249.940467 Z M398.624317,41 L550.803866,41 L687.232089,141.021837 L835.211755,151.015188 L1042.00087,249.940467 L1192.21801,211.031946 L1192.41918,211.001229 L1393.96094,201 L1442,201 L1442,439 L0,439 L0,11 L1,11 L132.030419,11.0031219 L258.468149,0.9888719 L398.624317,41 Z" id="Shape" stroke="#9FBBE1" stroke-width="2"></path>
                </g>
                <g id="oval-b-9" transform="translate(128.000000, 10.000000)">
                    <g id="path-2-link" transform="translate(1.000000, 1.000000)" fill="#FFFFFF">
                        <circle id="path-2" cx="5" cy="5" r="5"></circle>
                    </g>
                    <circle id="Oval" stroke="#9FBBE1" stroke-width="2" cx="6" cy="6" r="6"></circle>
                </g>
                <g id="oval-b-8" transform="translate(252.000000, 0.000000)">
                    <g id="path-3-link" transform="translate(1.000000, 1.000000)" fill="#FFFFFF">
                        <circle id="path-3" cx="5" cy="5" r="5"></circle>
                    </g>
                    <circle id="Oval" stroke="#9FBBE1" stroke-width="2" cx="6" cy="6" r="6"></circle>
                </g>
                <g id="oval-b-7" transform="translate(392.000000, 40.000000)">
                    <g id="path-4-link" transform="translate(1.000000, 1.000000)" fill="#FFFFFF">
                        <circle id="path-4" cx="5" cy="5" r="5"></circle>
                    </g>
                    <circle id="Oval" stroke="#9FBBE1" stroke-width="2" cx="6" cy="6" r="6"></circle>
                </g>
                <g id="oval-b-6" transform="translate(544.000000, 40.000000)">
                    <g id="path-5-link" transform="translate(1.000000, 1.000000)" fill="#FFFFFF">
                        <circle id="path-5" cx="5" cy="5" r="5"></circle>
                    </g>
                    <circle id="Oval" stroke="#9FBBE1" stroke-width="2" cx="6" cy="6" r="6"></circle>
                </g>
                <g id="oval-b-5" transform="translate(680.000000, 138.000000)">
                    <g id="path-6-link" transform="translate(1.000000, 1.000000)" fill="#FFFFFF">
                        <circle id="path-6" cx="5" cy="5" r="5"></circle>
                    </g>
                    <circle id="Oval" stroke="#9FBBE1" stroke-width="2" cx="6" cy="6" r="6"></circle>
                </g>
                <g id="oval-b-4" transform="translate(829.000000, 150.000000)">
                    <g id="path-7-link" transform="translate(1.000000, 1.000000)" fill="#FFFFFF">
                        <circle id="path-7" cx="5" cy="5" r="5"></circle>
                    </g>
                    <circle id="Oval" stroke="#9FBBE1" stroke-width="2" cx="6" cy="6" r="6"></circle>
                </g>
                <g id="oval-b-3" transform="translate(1036.000000, 247.000000)">
                    <g id="path-8-link" transform="translate(1.000000, 1.000000)" fill="#FFFFFF">
                        <circle id="path-8" cx="5" cy="5" r="5"></circle>
                    </g>
                    <circle id="Oval" stroke="#9FBBE1" stroke-width="2" cx="6" cy="6" r="6"></circle>
                </g>
                <g id="oval-b-2" transform="translate(1186.000000, 210.000000)">
                    <g id="path-9-link" transform="translate(1.000000, 1.000000)" fill="#FFFFFF">
                        <circle id="path-9" cx="5" cy="5" r="5"></circle>
                    </g>
                    <circle id="Oval" stroke="#9FBBE1" stroke-width="2" cx="6" cy="6" r="6"></circle>
                </g>
                <g id="oval-b-1" transform="translate(1388.000000, 200.000000)">
                    <g id="path-10-link" transform="translate(1.000000, 1.000000)" fill="#FFFFFF">
                        <circle id="path-10" cx="5" cy="5" r="5"></circle>
                    </g>
                    <circle id="Oval" stroke="#9FBBE1" stroke-width="2" cx="6" cy="6" r="6"></circle>
                </g>
            </g>
            <g id="above-layer" transform="translate(1.000000, 134.000000)">
                <g id="rect-1" transform="translate(0.000000, 5.000000)">
                    <g id="path-11-link" transform="translate(1.000000, 2.000000)" fill="#F3F8FF">
                        <polyline id="path-11" points="0 366 0 140 131.109375 140 257.367188 120 397.484375 140 549.476562 90 685.875 60 833.953125 0 1040.89844 40 1191.46875 10 1392.96094 40 1440 40 1440 366"></polyline>
                    </g>
                    <path d="M1394.03497,41 L1394.1082,41.010903 L1393.96094,41 L1394.03497,41 Z M132.030663,141 L258.359441,120.988759 L398.394099,140.976979 L550.164072,91.050079 L550.261753,91.023344 L686.577723,61.0414822 L834.852097,0.96196378 L1041.89552,40.9809265 L1192.44395,10.9852849 L1394.03497,41 L1442,41 L1442,369 L0,369 L0,141 L132.030663,141 Z" id="Shape" stroke="#9FBBE1" stroke-width="2"></path>
                </g>
                <g id="oval-w-1" transform="translate(126.000000, 140.000000)">
                    <g id="path-12-link" transform="translate(1.000000, 1.000000)" fill="#FFFFFF">
                        <circle id="path-12" cx="5" cy="5" r="5"></circle>
                    </g>
                    <circle id="Oval" stroke="#9FBBE1" stroke-width="2" cx="6" cy="6" r="6"></circle>
                </g>
                <g id="oval-w-2" transform="translate(252.000000, 120.000000)">
                    <g id="path-13-link" transform="translate(1.000000, 1.000000)" fill="#FFFFFF">
                        <circle id="path-13" cx="5" cy="5" r="5"></circle>
                    </g>
                    <circle id="Oval" stroke="#9FBBE1" stroke-width="2" cx="6" cy="6" r="6"></circle>
                </g>
                <g id="oval-w-3" transform="translate(392.000000, 139.000000)">
                    <g id="path-14-link" transform="translate(1.000000, 1.000000)" fill="#FFFFFF">
                        <circle id="path-14" cx="5" cy="5" r="5"></circle>
                    </g>
                    <circle id="Oval" stroke="#9FBBE1" stroke-width="2" cx="6" cy="6" r="6"></circle>
                </g>
                <g id="oval-w-4" transform="translate(544.000000, 90.000000)">
                    <g id="path-15-link" transform="translate(1.000000, 1.000000)" fill="#FFFFFF">
                        <circle id="path-15" cx="5" cy="5" r="5"></circle>
                    </g>
                    <circle id="Oval" stroke="#9FBBE1" stroke-width="2" cx="6" cy="6" r="6"></circle>
                </g>
                <g id="oval-w-5" transform="translate(680.000000, 60.000000)">
                    <g id="path-16-link" transform="translate(1.000000, 1.000000)" fill="#FFFFFF">
                        <circle id="path-16" cx="5" cy="5" r="5"></circle>
                    </g>
                    <circle id="Oval" stroke="#9FBBE1" stroke-width="2" cx="6" cy="6" r="6"></circle>
                </g>
                <g id="oval-w-6" transform="translate(829.000000, 0.000000)">
                    <g id="path-17-link" transform="translate(1.000000, 1.000000)" fill="#FFFFFF">
                        <circle id="path-17" cx="5" cy="5" r="5"></circle>
                    </g>
                    <circle id="Oval" stroke="#9FBBE1" stroke-width="2" cx="6" cy="6" r="6"></circle>
                </g>
                <g id="oval-w-7" transform="translate(1036.000000, 41.000000)">
                    <g id="path-18-link" transform="translate(1.000000, 1.000000)" fill="#FFFFFF">
                        <circle id="path-18" cx="5" cy="5" r="5"></circle>
                    </g>
                    <circle id="Oval" stroke="#9FBBE1" stroke-width="2" cx="6" cy="6" r="6"></circle>
                </g>
                <g id="oval-w-8" transform="translate(1186.000000, 11.000000)">
                    <g id="path-19-link" transform="translate(1.000000, 1.000000)" fill="#FFFFFF">
                        <circle id="path-19" cx="5" cy="5" r="5"></circle>
                    </g>
                    <circle id="Oval" stroke="#9FBBE1" stroke-width="2" cx="6" cy="6" r="6"></circle>
                </g>
                <g id="oval-w-9" transform="translate(1388.000000, 41.000000)">
                    <g id="path-20-link" transform="translate(1.000000, 1.000000)" fill="#FFFFFF">
                        <circle id="path-20" cx="5" cy="5" r="5"></circle>
                    </g>
                    <circle id="Oval" stroke="#9FBBE1" stroke-width="2" cx="6" cy="6" r="6"></circle>
                </g>
            </g>
            <rect id="Rectangle-4" fill="#F3F8FF" x="0" y="331" width="1444" height="179"></rect>
        </g>
    </g>
</svg>