<?xml version="1.0" encoding="UTF-8"?>
<svg width="42px" height="43px" viewBox="0 0 42 43" version="1.1" xmlns="http://www.w3.org/2000/svg" xmlns:xlink="http://www.w3.org/1999/xlink">
    <!-- Generator: Sketch 47.1 (45422) - http://www.bohemiancoding.com/sketch -->
    <title>feature_ico-7</title>
    <desc>Created with Sketch.</desc>
    <defs></defs>
    <g id="V1.0" stroke="none" stroke-width="1" fill="none" fill-rule="evenodd">
        <g id="Home" transform="translate(-1074.000000, -2267.000000)" fill-rule="nonzero" fill="#FFFFFF">
            <g id="Group-18" transform="translate(232.000000, 2055.000000)">
                <g id="feature_ico-7" transform="translate(842.000000, 212.000000)">
                    <path d="M38.300027,13.3083243 C36.2471351,5.53454054 29.1336216,0 20.986,0 C12.8885135,0 5.78351351,5.53245946 3.69372973,13.303973 C1.65086486,13.6829189 0.0985675676,15.4785135 0.0985675676,17.6297838 L0.0985675676,22.5871081 C0.0985675676,24.5164595 1.34740541,26.1597568 3.07905405,26.7513514 L3.07905405,28.8246757 C3.07905405,35.0493784 8.14383784,40.1135946 14.3692973,40.1135946 L15.7585135,40.1135946 C16.3134054,41.426 17.6137027,42.3492432 19.1257027,42.3492432 L22.8436486,42.3492432 C24.8585135,42.3492432 26.4978378,40.7101081 26.4978378,38.6954324 C26.4978378,36.6801892 24.8585135,35.0408649 22.8436486,35.0408649 L19.1257027,35.0408649 C17.6140811,35.0408649 16.313973,35.9637297 15.7588919,37.2757568 L14.3692973,37.2757568 C9.70862162,37.2757568 5.91689189,33.4845946 5.91689189,28.8246757 L5.91689189,25.567027 C5.91689189,24.7834054 5.28159459,24.1481081 4.49797297,24.1481081 C3.63697297,24.1481081 2.93640541,23.4477297 2.93640541,22.5869189 L2.93640541,17.6297838 C2.93640541,16.7687838 3.63697297,16.0682162 4.49135135,16.0682162 L4.82602703,16.0697297 C4.8282973,16.0697297 4.83056757,16.0697297 4.83283784,16.0697297 C5.50635135,16.0697297 6.08772973,15.5958108 6.22281081,14.9353514 C7.65743243,7.92551351 13.8662432,2.83783784 20.986,2.83783784 C28.1517297,2.83783784 34.3664054,7.92191892 35.7631892,14.9266486 C35.8954324,15.5901351 36.4779459,16.068027 37.1546757,16.068027 L37.4730811,16.068027 C38.3340811,16.068027 39.0346486,16.7685946 39.0346486,17.6295946 L39.0346486,22.5869189 C39.0346486,23.4477297 38.3340811,24.1481081 37.4730811,24.1481081 C36.6894595,24.1481081 36.0541622,24.7834054 36.0541622,25.567027 C36.0541622,26.3506486 36.6894595,26.9859459 37.4730811,26.9859459 C39.8988649,26.9859459 41.8724865,25.0125135 41.8724865,22.5869189 L41.8724865,17.6297838 C41.8722973,15.4864595 40.3317297,13.6963514 38.300027,13.3083243 Z M19.1258919,37.8787027 L22.8438378,37.8787027 C23.2939189,37.8787027 23.6601892,38.244973 23.6601892,38.6954324 C23.6601892,39.1453243 23.2939189,39.5114054 22.8438378,39.5114054 L19.1258919,39.5114054 C18.676,39.5114054 18.3099189,39.1453243 18.3099189,38.6954324 C18.3097297,38.244973 18.6758108,37.8787027 19.1258919,37.8787027 Z" id="Shape"></path>
                    <path d="M20.9850541,6.81856757 C13.6571892,6.81856757 7.69545946,12.7797297 7.69545946,20.1068378 C7.69545946,27.4350811 13.6571892,33.3971892 20.9850541,33.3971892 C28.3129189,33.3971892 34.2744595,27.4350811 34.2744595,20.1068378 C34.2744595,12.7797297 28.3129189,6.81856757 20.9850541,6.81856757 Z M20.9850541,30.5593514 C15.221973,30.5593514 10.5332973,25.8702973 10.5332973,20.1068378 C10.5332973,14.3445135 15.221973,9.65640541 20.9850541,9.65640541 C26.7481351,9.65640541 31.4366216,14.3445135 31.4366216,20.1068378 C31.4366216,25.8704865 26.7481351,30.5593514 20.9850541,30.5593514 Z" id="Shape"></path>
                </g>
            </g>
        </g>
    </g>
</svg>