<?xml version="1.0" encoding="UTF-8"?>
<svg width="116px" height="43px" viewBox="0 0 116 43" version="1.1" xmlns="http://www.w3.org/2000/svg" xmlns:xlink="http://www.w3.org/1999/xlink">
    <!-- Generator: Sketch 47.1 (45422) - http://www.bohemiancoding.com/sketch -->
    <title>logo</title>
    <desc>Created with Sketch.</desc>
    <defs>
        <linearGradient x1="10.6770833%" y1="23.3333333%" x2="91.0373264%" y2="77.7430556%" id="linearGradient-1">
            <stop stop-color="#00D9FF" offset="0%"></stop>
            <stop stop-color="#046FFF" offset="100%"></stop>
        </linearGradient>
        <path d="M27.7547092,29.179631 C27.3910272,24.2196131 25.033244,21.070358 23.1195007,19.301909 C22.8990101,19.098242 22.6798578,18.9086583 22.4637643,18.7309277 C22.4630633,11.6013082 20.1908635,6.910276 18.2846398,4.23042358 C16.2068031,1.30924234 14.1454713,0.0983923176 14.058677,0.0483677261 C13.9469023,-0.0161225754 13.8093188,-0.0161225754 13.6975441,0.0483677261 C13.6108773,0.0983923176 11.5495455,1.30936979 9.47170875,4.23042358 C7.56548504,6.910276 5.29328525,11.6012444 5.29258427,18.7309277 C5.07649078,18.9085946 4.85733846,19.0981783 4.63678418,19.301909 C2.72304086,21.0704217 0.365257591,24.2197406 0.00157562396,29.1796947 C-0.0103410622,29.341494 0.0457374608,29.5011266 0.156237641,29.6199111 C0.266737822,29.7388231 0.421654742,29.8063085 0.58396383,29.8063085 L7.91979935,29.8063085 C8.33752062,30.6028784 8.77117329,31.2447226 9.19329162,31.6725125 C9.26109566,31.7412087 9.35362522,31.7798264 9.45010577,31.7798264 L9.62917469,31.7798264 C9.89898886,35.6186562 12.9608762,38.5604846 13.0971853,38.6892103 C13.3162739,38.8964459 13.5971763,39 13.8780787,39 C14.1589811,39 14.4398835,38.8964459 14.6589721,38.6892103 C14.7952812,38.5603571 17.8570411,35.6186562 18.1269827,31.7798264 L18.3061791,31.7798264 C18.4026596,31.7798264 18.4951892,31.7412087 18.5629932,31.6725125 C18.9851753,31.2447863 19.4188279,30.6029422 19.8364855,29.8063085 L27.172321,29.8063085 C27.3346301,29.8063085 27.489547,29.7386957 27.6000472,29.6199111 C27.7105474,29.5010629 27.7666259,29.3415577 27.7547092,29.179631 Z M13.8782061,9.99332025 C15.6474198,9.99332025 17.0816918,11.4275285 17.0816918,13.1968059 C17.0816918,14.9660833 15.6474835,16.4002915 13.8782061,16.4002915 C12.1089925,16.4002915 10.6747205,14.9659558 10.6747205,13.1968059 C10.6747205,11.4275922 12.1089287,9.99332025 13.8782061,9.99332025 Z M13.8782699,36.1537601 C13.1290481,35.2071164 12.0873895,33.5951137 11.9082568,31.7798902 L15.8481554,31.7798902 C15.6689591,33.5953049 14.6269819,35.2074987 13.8782699,36.1537601 Z" id="path-2"></path>
        <filter x="-12.6%" y="-6.4%" width="125.2%" height="117.9%" filterUnits="objectBoundingBox" id="filter-3">
            <feOffset dx="0" dy="1" in="SourceAlpha" result="shadowOffsetOuter1"></feOffset>
            <feGaussianBlur stdDeviation="1" in="shadowOffsetOuter1" result="shadowBlurOuter1"></feGaussianBlur>
            <feColorMatrix values="0 0 0 0 0   0 0 0 0 0   0 0 0 0 0  0 0 0 0.248499774 0" type="matrix" in="shadowBlurOuter1"></feColorMatrix>
        </filter>
        <filter x="-9.0%" y="-3.8%" width="118.0%" height="112.8%" filterUnits="objectBoundingBox" id="filter-4">
            <feOffset dx="1" dy="1" in="SourceAlpha" result="shadowOffsetInner1"></feOffset>
            <feComposite in="shadowOffsetInner1" in2="SourceAlpha" operator="arithmetic" k2="-1" k3="1" result="shadowInnerInner1"></feComposite>
            <feColorMatrix values="0 0 0 0 0.297210385   0 0 0 0 0.958224123   0 0 0 0 1  0 0 0 0.282269022 0" type="matrix" in="shadowInnerInner1"></feColorMatrix>
        </filter>
    </defs>
    <g id="V1.0" stroke="none" stroke-width="1" fill="none" fill-rule="evenodd">
        <g id="Home" transform="translate(-38.000000, -40.000000)">
            <g id="Intro">
                <g id="logo" transform="translate(40.000000, 41.000000)">
                    <path d="M57.195,8.465 C57.6050021,8.83500185 57.81,9.2999972 57.81,9.86 C57.81,10.0400009 57.7800003,10.2399989 57.72,10.46 L51.81,27.86 C51.6899994,28.2000017 51.4800015,28.469999 51.18,28.67 C50.8799985,28.870001 50.5500018,28.9799999 50.19,29 C49.8299982,29 49.4900016,28.900001 49.17,28.7 C48.8499984,28.499999 48.6000009,28.2100019 48.42,27.83 L44.16,18.14 L39.87,27.83 C39.6899991,28.2100019 39.4400016,28.499999 39.12,28.7 C38.7999984,28.900001 38.4600018,29 38.1,29 C37.7399982,28.9799999 37.4100015,28.870001 37.11,28.67 C36.8099985,28.469999 36.6000006,28.2000017 36.48,27.86 L30.57,10.46 C30.5099997,10.2399989 30.48,10.0400009 30.48,9.86 C30.48,9.2999972 30.684998,8.83500185 31.095,8.465 C31.5050021,8.09499815 31.9599975,7.91 32.46,7.91 C32.860002,7.91 33.2199984,8.01499895 33.54,8.225 C33.8600016,8.43500105 34.0799994,8.7199982 34.2,9.08 L38.67,22.64 L42.57,13.28 C42.7300008,12.9199982 42.9599985,12.635001 43.26,12.425 C43.5600015,12.2149989 43.8999981,12.1199999 44.28,12.14 C44.6600019,12.1199999 44.9949986,12.2149989 45.285,12.425 C45.5750015,12.635001 45.7999992,12.9199982 45.96,13.28 L49.65,22.55 L54.09,9.08 C54.2100006,8.7199982 54.4349984,8.43500105 54.765,8.225 C55.0950017,8.01499895 55.459998,7.91 55.86,7.91 C56.3400024,7.91 56.784998,8.09499815 57.195,8.465 Z M73.725,26.075 C74.0750018,26.4250018 74.25,26.8299977 74.25,27.29 C74.25,27.7900025 74.0750018,28.1999984 73.725,28.52 C73.3749983,28.8400016 72.9400026,29 72.42,29 L62.37,29 C61.8499974,29 61.4150018,28.8250017 61.065,28.475 C60.7149983,28.1249983 60.54,27.6900026 60.54,27.17 L60.54,9.83 C60.54,9.3099974 60.7149983,8.87500175 61.065,8.525 C61.4150018,8.17499825 61.8499974,8 62.37,8 L72.42,8 C72.9400026,8 73.3749983,8.16499835 73.725,8.495 C74.0750018,8.82500165 74.25,9.2499974 74.25,9.77 C74.25,10.2700025 74.0800017,10.6749984 73.74,10.985 C73.3999983,11.2950016 72.9600027,11.45 72.42,11.45 L64.29,11.45 L64.29,16.55 L71.07,16.55 C71.5900026,16.55 72.0249983,16.7149984 72.375,17.045 C72.7250018,17.3750017 72.9,17.7999974 72.9,18.32 C72.9,18.8200025 72.7300017,19.2249985 72.39,19.535 C72.0499983,19.8450015 71.6100027,20 71.07,20 L64.29,20 L64.29,25.55 L72.42,25.55 C72.9400026,25.55 73.3749983,25.7249982 73.725,26.075 Z M93.87,8.48 C94.1900016,8.8200017 94.35,9.2599973 94.35,9.8 L94.35,20.66 C94.35,22.3200083 94.0000035,23.7899936 93.3,25.07 C92.5999965,26.3500064 91.6200063,27.3499964 90.36,28.07 C89.0999937,28.7900036 87.6600081,29.15 86.04,29.15 C84.4199919,29.15 82.9750064,28.7900036 81.705,28.07 C80.4349937,27.3499964 79.4500035,26.3500064 78.75,25.07 C78.0499965,23.7899936 77.7,22.3200083 77.7,20.66 L77.7,9.8 C77.7,9.2799974 77.8799982,8.84500175 78.24,8.495 C78.6000018,8.14499825 79.0599972,7.97 79.62,7.97 C80.1000024,7.97 80.5199982,8.14499825 80.88,8.495 C81.2400018,8.84500175 81.42,9.2799974 81.42,9.8 L81.42,20.66 C81.42,21.6200048 81.6299979,22.4749963 82.05,23.225 C82.4700021,23.9750037 83.0349965,24.549998 83.745,24.95 C84.4550036,25.350002 85.2199959,25.55 86.04,25.55 C86.9000043,25.55 87.7049963,25.350002 88.455,24.95 C89.2050038,24.549998 89.8049978,23.9750037 90.255,23.225 C90.7050023,22.4749963 90.93,21.6200048 90.93,20.66 L90.93,9.8 C90.93,9.2599973 91.0799985,8.8200017 91.38,8.48 C91.6800015,8.1399983 92.0899974,7.97 92.61,7.97 C93.1300026,7.97 93.5499984,8.1399983 93.87,8.48 Z M110.43,8.915 C111.350005,9.52500305 112.089997,10.3449949 112.65,11.375 C113.210003,12.4050052 113.49,13.5299939 113.49,14.75 C113.49,15.950006 113.210003,17.0699948 112.65,18.11 C112.089997,19.1500052 111.350005,19.974997 110.43,20.585 C109.509995,21.195003 108.540005,21.5 107.52,21.5 L102.3,21.5 L102.3,27.17 C102.3,27.7100027 102.140002,28.1499983 101.82,28.49 C101.499998,28.8300017 101.080003,29 100.56,29 C100.059998,29 99.6500016,28.8250017 99.33,28.475 C99.0099984,28.1249983 98.85,27.6900026 98.85,27.17 L98.85,9.83 C98.85,9.3099974 99.0249983,8.87500175 99.375,8.525 C99.7250018,8.17499825 100.159997,8 100.68,8 L107.52,8 C108.540005,8 109.509995,8.30499695 110.43,8.915 Z M108.645,17.6 C109.015002,17.2799984 109.314999,16.8650025 109.545,16.355 C109.775001,15.8449974 109.89,15.3100028 109.89,14.75 C109.89,14.1899972 109.775001,13.6550026 109.545,13.145 C109.314999,12.6349975 109.015002,12.2250016 108.645,11.915 C108.274998,11.6049984 107.900002,11.45 107.52,11.45 L102.3,11.45 L102.3,18.08 L107.52,18.08 C107.900002,18.08 108.274998,17.9200016 108.645,17.6 Z" id="Weup" fill="#FFFFFF"></path>
                    <g id="Shape" fill-rule="nonzero">
                        <use fill="black" fill-opacity="1" filter="url(#filter-3)" xlink:href="#path-2"></use>
                        <use fill="url(#linearGradient-1)" fill-rule="evenodd" xlink:href="#path-2"></use>
                        <use fill="black" fill-opacity="1" filter="url(#filter-4)" xlink:href="#path-2"></use>
                    </g>
                </g>
            </g>
        </g>
    </g>
</svg>