<?xml version="1.0" encoding="UTF-8"?>
<svg width="97px" height="97px" viewBox="0 0 97 97" version="1.1" xmlns="http://www.w3.org/2000/svg" xmlns:xlink="http://www.w3.org/1999/xlink">
    <!-- Generator: Sketch 47.1 (45422) - http://www.bohemiancoding.com/sketch -->
    <title>newsletter</title>
    <desc>Created with Sketch.</desc>
    <defs></defs>
    <g id="V1.0" stroke="none" stroke-width="1" fill="none" fill-rule="evenodd">
        <g id="Home" transform="translate(-150.000000, -4402.000000)">
            <g id="newsletter" transform="translate(150.000000, 4402.000000)">
                <circle id="Oval-7" fill="#5457C1" cx="48.5" cy="48.5" r="48.5"></circle>
                <path d="M64.2000412,32.2949816 C60.3362832,28.7649939 55.530356,27 49.7909035,27 C43.7575633,27 38.6145297,29.004896 34.3704466,33.0232558 C30.1263634,37.0416157 28,42.0367197 28,48.0171359 C28,53.749082 30.0226384,58.6756426 34.0592715,62.8053856 C38.113192,66.9351285 43.5587569,69 50.4132538,69 C54.5449681,69 58.5988887,68.1603427 62.5750154,66.4724602 C63.8715785,65.9241126 64.5025725,64.4504284 63.9753036,63.1566707 L63.9753036,63.1566707 C63.4307471,61.8200734 61.8921589,61.2031824 60.552377,61.7686659 C57.0948755,63.2423501 53.706524,63.9791922 50.40461,63.9791922 C45.1492077,63.9791922 41.0779996,62.3941248 38.1909858,59.2154223 C35.3126158,56.0452876 33.8691089,52.3182375 33.8691089,48.0428397 C33.8691089,43.3990208 35.4163408,39.5263158 38.5021609,36.4161567 C41.5793373,33.3145655 45.3739453,31.755202 49.8686973,31.755202 C54.0090554,31.755202 57.5097757,33.0318237 60.3622144,35.5850673 C63.2146532,38.1383109 64.6408726,41.3512852 64.6408726,45.2239902 C64.6408726,47.871481 63.9839473,50.0820073 62.6787405,51.8384333 C61.3735336,53.6034272 60.0164643,54.4773562 58.6075324,54.4773562 C57.8468821,54.4773562 57.4665569,54.0746634 57.4665569,53.2607099 C57.4665569,52.6009792 57.5184194,51.8298654 57.6135007,50.9388005 L59.2212389,37.9069767 L53.6892365,37.9069767 L53.3348426,39.1835985 C51.9259107,38.0440636 50.3786787,37.4700122 48.7017905,37.4700122 C46.0395143,37.4700122 43.7575633,38.5238678 41.8645812,40.623011 C39.9629553,42.7221542 39.0207862,45.4296206 39.0207862,48.7368421 C39.0207862,51.9669523 39.8592303,54.5801714 41.5447623,56.5593635 C43.2302943,58.5471236 45.2529327,59.5324357 47.6213213,59.5324357 C49.739041,59.5324357 51.5455855,58.6499388 53.0495987,56.8935129 C54.1819304,58.5813953 55.8501749,59.4210526 58.0543322,59.4210526 C61.2957399,59.4210526 64.0963161,58.0244798 66.4560609,55.2227662 C68.8158057,52.4296206 70,49.0538556 70,45.1040392 C70,40.1003672 68.0724429,35.8249694 64.2000412,32.2949816 Z M51.459148,52.0097919 C50.4824038,53.3121175 49.315497,53.9718482 47.9584277,53.9718482 C47.033546,53.9718482 46.2901832,53.4920441 45.7283392,52.5324357 C45.1578514,51.5728274 44.8726075,50.3818849 44.8726075,48.9510404 C44.8726075,47.1860465 45.2702202,45.7637699 46.0654456,44.6842105 C46.8606709,43.6046512 47.8460589,43.0563035 49.0216094,43.0563035 C50.0415723,43.0563035 50.9491665,43.4589963 51.7443919,44.2729498 C52.5396172,45.0869033 52.9372299,46.1664627 52.9372299,47.5201958 C52.9285861,49.2080783 52.4358922,50.6988984 51.459148,52.0097919 Z" id="Shape" fill="#F3F8FF" fill-rule="nonzero"></path>
            </g>
        </g>
    </g>
</svg>