<?xml version="1.0" encoding="UTF-8"?>
<svg width="16px" height="16px" viewBox="0 0 16 16" version="1.1" xmlns="http://www.w3.org/2000/svg" xmlns:xlink="http://www.w3.org/1999/xlink">
    <!-- Generator: Sketch 47.1 (45422) - http://www.bohemiancoding.com/sketch -->
    <title>Page 1</title>
    <desc>Created with Sketch.</desc>
    <defs></defs>
    <g id="V1.0" stroke="none" stroke-width="1" fill="none" fill-rule="evenodd">
        <path d="M8.70175439,0.701754386 L16,8 L8.70175439,15.2982456 L8.70175439,15.2982456 C8.31418614,15.6858139 7.68581386,15.6858139 7.29824561,15.2982456 L7.29824561,15.2982456 L7.29824561,15.2982456 C6.91020332,14.9102033 6.90888798,14.2814693 7.29530329,13.8918068 L12.1637427,8.98245614 L0.98245614,8.98245614 L0.98245614,8.98245614 C0.439860597,8.98245614 6.64487896e-17,8.54259554 0,8 L0,8 L0,8 C-6.64487896e-17,7.45740446 0.439860597,7.01754386 0.98245614,7.01754386 L12.1637427,7.01754386 L7.29530329,2.1081932 L7.29530329,2.1081932 C6.90888798,1.71853071 6.91020332,1.08979668 7.29824561,0.701754386 L7.29824561,0.701754386 L7.29824561,0.701754386 C7.68581386,0.31418614 8.31418614,0.31418614 8.70175439,0.701754386 Z" id="Page-1" fill="#FFFFFF"></path>
    </g>
</svg>