<?xml version="1.0" encoding="UTF-8"?>
<svg width="24px" height="24px" viewBox="0 0 24 24" version="1.1" xmlns="http://www.w3.org/2000/svg" xmlns:xlink="http://www.w3.org/1999/xlink">
    <!-- Generator: Sketch 47.1 (45422) - http://www.bohemiancoding.com/sketch -->
    <title>process_ico-1</title>
    <desc>Created with Sketch.</desc>
    <defs></defs>
    <g id="V1.0" stroke="none" stroke-width="1" fill="none" fill-rule="evenodd">
        <g id="Home" transform="translate(-855.000000, -3027.000000)" fill-rule="nonzero" fill="#6E7DA2">
            <g id="Group-13" transform="translate(833.000000, 3005.000000)">
                <g id="Group-12">
                    <path d="M41.690741,26.3043229 C42.0362715,26.6547895 42.0362715,27.2175106 41.690741,27.5630411 L28.0965837,41.1571984 C27.9238184,41.3299637 27.6967555,41.4188144 27.4696926,41.4188144 C27.2426297,41.4188144 27.0155668,41.3299637 26.8428016,41.1571984 C26.497271,40.8067318 26.497271,40.2440107 26.8428016,39.8984802 L40.4369589,26.3043229 C40.7824894,25.9587924 41.3452105,25.9587924 41.690741,26.3043229 Z M44.5685165,23.5894403 C45.4915765,24.5075642 46,25.7366656 46,27.0398092 C46,28.3429528 45.4915765,29.5671181 44.5685165,30.4901781 L44.0897099,30.9689847 C43.7392433,31.3145152 43.1765222,31.3145152 42.8309917,30.9689847 C42.4854611,30.618518 42.4854611,30.0557969 42.8309917,29.7102664 L43.3097982,29.2314599 C43.8972001,28.644058 44.2180498,27.8641463 44.2180498,27.0348731 C44.2180498,26.2055999 43.8972001,25.4256882 43.3097982,24.8382863 L43.1617137,24.6902018 C42.5743118,24.1027999 41.7944001,23.7819502 40.9651269,23.7819502 C40.1358537,23.7819502 39.355942,24.1027999 38.7685401,24.6902018 L24.4438326,39.0099732 L23.8909838,44.1090162 L28.9900268,43.5512312 L40.0963645,32.4399574 C40.4468312,32.0944269 41.0095523,32.0944269 41.3550828,32.4399574 C41.7006133,32.7904241 41.7006133,33.3531452 41.3550828,33.6986757 L30.0216822,45.0320763 C29.8785338,45.1752246 29.6909601,45.2690115 29.488578,45.2887561 L22.9827322,45.9946255 C22.9531153,45.9995617 22.9185622,45.9995617 22.8889453,45.9995617 C22.6569463,45.9995617 22.4298834,45.9057748 22.2620543,45.7379457 C22.0695444,45.5454359 21.9757576,45.2788838 22.0053745,45.0123317 L22.7112439,38.5064859 C22.7359247,38.3041037 22.8247754,38.11653 22.9679237,37.9733816 L37.514758,23.4314835 C38.4328819,22.5084235 39.6619833,22 40.9651269,22 C42.2682705,22 43.4924358,22.5084235 44.4154958,23.4314835 L44.5685165,23.5894403 Z" id="process_ico-1"></path>
                </g>
            </g>
        </g>
    </g>
</svg>
