<?xml version="1.0" encoding="UTF-8"?>
<svg width="19px" height="28px" viewBox="0 0 19 28" version="1.1" xmlns="http://www.w3.org/2000/svg" xmlns:xlink="http://www.w3.org/1999/xlink">
    <!-- Generator: Sketch 47.1 (45422) - http://www.bohemiancoding.com/sketch -->
    <title>process_ico-3</title>
    <desc>Created with Sketch.</desc>
    <defs></defs>
    <g id="V1.0" stroke="none" stroke-width="1" fill="none" fill-rule="evenodd">
        <g id="Home" transform="translate(-857.000000, -3219.000000)" fill-rule="nonzero" fill="#AAB5CB">
            <g id="Group-15" transform="translate(833.000000, 3199.000000)">
                <g id="Group-10">
                    <g id="process_ico-3" transform="translate(24.000000, 20.000000)">
                        <path d="M15.9697342,3.09775051 C14.2347648,1.12801636 11.7382413,0 9.12147239,0 C6.50470348,0 4.00817996,1.12801636 2.27321063,3.10347648 C0.813087935,4.75255624 0.0114519427,6.8997955 0.0171779141,9.13292434 C0.0229038855,11.3660532 0.830265849,13.5075665 2.29611452,15.1566462 C2.53660532,15.4257669 2.79427403,15.6834356 3.06339468,15.9239264 C4.0196319,16.7770961 4.42617587,17.59591 4.42617587,18.6723926 L4.41472393,19.7431493 C4.40899796,20.3100204 4.86707566,20.7795501 5.43394683,20.7852761 C5.4396728,20.7852761 5.4396728,20.7852761 5.44539877,20.7852761 C6.01226994,20.7852761 6.47034765,20.3329243 6.47607362,19.7660532 L6.48752556,18.6952965 L6.48752556,18.6895706 C6.49325153,17.006135 5.8404908,15.6433538 4.43762781,14.3893661 C4.23149284,14.206135 4.03108384,14 3.84212679,13.793865 C1.48302658,11.1370143 1.47730061,7.12883436 3.82494888,4.46625767 C5.17055215,2.93742331 7.10593047,2.06134969 9.12719836,2.06134969 C11.1541922,2.06134969 13.0838446,2.93742331 14.4294479,4.46625767 C16.7713701,7.12310838 16.7656442,11.1255624 14.4237219,13.7766871 C14.2347648,13.994274 14.0286299,14.194683 13.8167689,14.3893661 C12.4368098,15.6204499 11.7897751,16.9717791 11.7840491,18.6323108 L11.7725971,19.7546012 C11.7668712,20.3214724 12.2249489,20.791002 12.79182,20.796728 C12.797546,20.796728 12.797546,20.796728 12.803272,20.796728 C13.3701431,20.796728 13.8282209,20.3443763 13.8339468,19.7775051 L13.8453988,18.6552147 C13.8396728,18.6380368 13.8396728,18.6380368 13.8453988,18.6323108 C13.8511247,17.5558282 14.2404908,16.7656442 15.191002,15.9182004 C15.4658487,15.6719836 15.7235174,15.408589 15.9697342,15.1337423 C17.4241309,13.4846626 18.2257669,11.3488753 18.2257669,9.11574642 C18.2257669,6.88834356 17.4241309,4.74683027 15.9697342,3.09775051 Z" id="Shape"></path>
                        <path d="M12.797546,22.5087935 L5.44539877,22.5087935 C4.87852761,22.5087935 4.41472393,22.9725971 4.41472393,23.5394683 C4.41472393,24.1063395 4.87852761,24.5701431 5.44539877,24.5701431 L12.803272,24.5701431 C13.3701431,24.5701431 13.8282209,24.1120654 13.8282209,23.5394683 C13.8282209,22.9725971 13.3644172,22.5087935 12.797546,22.5087935 Z" id="Shape"></path>
                        <path d="M11.1026585,25.9157464 L7.13456033,25.9157464 C6.56768916,25.9157464 6.10388548,26.3795501 6.10388548,26.9464213 C6.10388548,27.5132924 6.56768916,27.9770961 7.13456033,27.9770961 L11.1026585,27.9770961 C11.6695297,27.9770961 12.1333333,27.5132924 12.1333333,26.9464213 C12.1333333,26.3795501 11.6695297,25.9157464 11.1026585,25.9157464 Z" id="Shape"></path>
                        <path d="M9.84867076,12.0875256 L7.00286299,9.24171779 C6.60204499,8.8408998 5.94928425,8.8408998 5.54274029,9.24171779 C5.14192229,9.64253579 5.14192229,10.2952965 5.54274029,10.7018405 L8.09079755,13.2441718 C8.09079755,14.7558282 8.09079755,19.7546012 8.09079755,19.7546012 C8.09079755,20.3214724 8.55460123,20.7852761 9.12147239,20.7852761 C9.68834356,20.7852761 10.1521472,20.3214724 10.1521472,19.7546012 L10.1521472,12.8948875 C10.1521472,12.5169734 10.0204499,12.2593047 9.84867076,12.0875256 Z" id="Shape"></path>
                        <path d="M12.7002045,9.23599182 C12.2993865,8.83517382 11.6466258,8.83517382 11.2400818,9.23599182 L10.6961145,9.7799591 C10.2952965,10.1807771 10.2952965,10.8335378 10.6961145,11.2400818 C10.8965235,11.4404908 11.1599182,11.5435583 11.4233129,11.5435583 C11.6867076,11.5435583 11.9501022,11.4462168 12.1562372,11.2400818 L12.7002045,10.6961145 C13.1010225,10.2952965 13.1010225,9.64253579 12.7002045,9.23599182 Z" id="Shape"></path>
                    </g>
                </g>
            </g>
        </g>
    </g>
</svg>