<?xml version="1.0" encoding="UTF-8"?>
<svg width="28px" height="28px" viewBox="0 0 28 28" version="1.1" xmlns="http://www.w3.org/2000/svg" xmlns:xlink="http://www.w3.org/1999/xlink">
    <!-- Generator: Sketch 47.1 (45422) - http://www.bohemiancoding.com/sketch -->
    <title>process_ico-4</title>
    <desc>Created with Sketch.</desc>
    <defs></defs>
    <g id="V1.0" stroke="none" stroke-width="1" fill="none" fill-rule="evenodd">
        <g id="Home" transform="translate(-853.000000, -3316.000000)" fill-rule="nonzero" fill="#AAB5CB">
            <g id="Group-16" transform="translate(833.000000, 3296.000000)">
                <g id="Group-9">
                    <g id="process_ico-4" transform="translate(20.000000, 20.000000)">
                        <path d="M23.896748,4.10325203 C21.2504065,1.46260163 17.7390244,0 14,0 C10.2609756,0 6.74390244,1.45691057 4.10325203,4.10325203 C1.45691057,6.74390244 0,10.2609756 0,14 C0,17.7390244 1.45691057,21.2560976 4.10325203,23.896748 C6.74390244,26.5430894 10.2609756,28 14,28 C17.7390244,28 21.2560976,26.5430894 23.896748,23.896748 C26.5373984,21.2504065 28,17.7390244 28,14 C28,10.2609756 26.5430894,6.74390244 23.896748,4.10325203 Z M14,25.9512195 C7.4097561,25.9512195 2.04878049,20.5902439 2.04878049,14 C2.04878049,7.4097561 7.4097561,2.04878049 14,2.04878049 C20.5902439,2.04878049 25.9512195,7.4097561 25.9512195,14 C25.9512195,20.5902439 20.5902439,25.9512195 14,25.9512195 Z" id="Shape"></path>
                        <path d="M21.2617886,10.4373984 L18.7861789,7.94471545 C18.3878049,7.54634146 17.7390244,7.54065041 17.3349593,7.93902439 L13.8292683,11.4276423 C13.4308943,11.8260163 13.4252033,12.4747967 13.8235772,12.8788618 C14.2219512,13.2772358 14.8707317,13.2829268 15.2747967,12.8845528 L18.0520325,10.1186992 L19.0878049,11.1601626 L12.3325203,17.8813008 L8.90081301,14.4325203 L9.94227642,13.396748 L11.6097561,15.0756098 C12.0081301,15.4739837 12.6569106,15.4796748 13.0609756,15.0813008 C13.4593496,14.6829268 13.4650407,14.0341463 13.0666667,13.6300813 L10.6764228,11.2227642 C10.4829268,11.0292683 10.2268293,10.9211382 9.95365854,10.9211382 C9.95365854,10.9211382 9.95365854,10.9211382 9.94796748,10.9211382 C9.67479675,10.9211382 9.41869919,11.0292683 9.22520325,11.2170732 L6.72682927,13.698374 C6.53333333,13.8918699 6.42520325,14.1479675 6.42520325,14.4211382 C6.42520325,14.6943089 6.53333333,14.9560976 6.72113821,15.1439024 L11.5926829,20.0439024 C11.7861789,20.2373984 12.0422764,20.3455285 12.3154472,20.3455285 C12.3154472,20.3455285 12.3154472,20.3455285 12.3211382,20.3455285 C12.5943089,20.3455285 12.8504065,20.2373984 13.0439024,20.0495935 L21.2560976,11.8829268 C21.4495935,11.6894309 21.5577236,11.4333333 21.5577236,11.1601626 C21.5577236,10.8869919 21.4495935,10.6252033 21.2617886,10.4373984 Z" id="Shape"></path>
                    </g>
                </g>
            </g>
        </g>
    </g>
</svg>