<?xml version="1.0" encoding="UTF-8"?>
<svg width="28px" height="25px" viewBox="0 0 28 25" version="1.1" xmlns="http://www.w3.org/2000/svg" xmlns:xlink="http://www.w3.org/1999/xlink">
    <g id="V1.0" stroke="none" stroke-width="1" fill="none" fill-rule="evenodd" opacity="0.5">
        <g id="Home" transform="translate(-853.000000, -3123.000000)" fill-rule="nonzero" fill="#6E7DA2">
            <g id="Group-14" transform="translate(833.000000, 3102.000000)">
                <g id="Group-11">
                    <g id="process_ico-2" transform="translate(20.000000, 21.000000)">
                        <path d="M23.8516393,3.54291994 C21.2122951,1.25844516 17.7180328,0 14,0 C10.2819672,0 6.78770492,1.25844516 4.14836066,3.54291994 C1.47459016,5.86140676 0,8.95083295 0,12.25 C0,14.8519204 0.958196721,17.4028228 2.70819672,19.4945627 C2.36393443,20.1577973 1.89344262,20.6849838 1.29672131,21.0704535 C0.803278689,21.3878991 0.568032787,21.960435 0.7,22.5273022 C0.826229508,23.0885007 1.2852459,23.4966451 1.85901639,23.5760065 C3.04098361,23.740398 5.34754098,23.8197594 7.48770492,22.5556455 C7.97540984,22.2665433 8.13606557,21.6373207 7.84344262,21.1554836 C7.55081967,20.6736465 6.91393443,20.5149236 6.42622951,20.8040259 C5.53114754,21.3312124 4.58442623,21.5466219 3.76393443,21.6089773 C4.23442623,21.0534475 4.60737705,20.4015502 4.88278689,19.6646229 C5.0204918,19.3018279 4.93442623,18.8993522 4.67622951,18.6159186 C2.96639344,16.7906062 2.06557377,14.5854928 2.06557377,12.25 C2.06557377,6.62100879 7.41885246,2.04072189 14,2.04072189 C20.5811475,2.04072189 25.9344262,6.62100879 25.9344262,12.25 C25.9344262,17.8789912 20.5811475,22.4592781 14,22.4592781 C13.047541,22.4592781 12.095082,22.3629107 11.1770492,22.1701758 C10.6204918,22.0511337 10.0696721,22.4082601 9.95491803,22.9581212 C9.83442623,23.5079824 10.1959016,24.0521749 10.752459,24.1655484 C11.8139344,24.3866266 12.9040984,24.5 14.0057377,24.5 C17.7180328,24.5 21.2180328,23.2415548 23.857377,20.9570801 C26.5254098,18.6385932 28,15.5491671 28,12.25 C28,8.95083295 26.5254098,5.86140676 23.8516393,3.54291994 Z" id="Shape"></path>
                        <path d="M14.4375,14 C13.6748414,14 13.0565844,13.4123737 13.0565844,12.6875 C13.0565844,11.9626263 13.6748414,11.375 14.4375,11.375 C15.2001586,11.375 15.8184156,11.9626263 15.8184156,12.6875 C15.8184156,13.4123737 15.2001586,14 14.4375,14 Z M18.7440844,14 C17.9814257,14 17.3631687,13.4123737 17.3631687,12.6875 C17.3631687,11.9626263 17.9814257,11.375 18.7440844,11.375 C19.506743,11.375 20.125,11.9626263 20.125,12.6875 C20.125,13.4123737 19.506743,14 18.7440844,14 Z M10.1309156,14 C9.36825699,14 8.75,13.4123737 8.75,12.6875 C8.75,11.9626263 9.36825699,11.375 10.1309156,11.375 C10.8935743,11.375 11.5118313,11.9626263 11.5118313,12.6875 C11.5118313,13.4123737 10.8935743,14 10.1309156,14 Z" id="Combined-Shape"></path>
                    </g>
                </g>
            </g>
        </g>
    </g>
</svg>
