<?xml version="1.0" encoding="UTF-8"?>
<svg width="52px" height="32px" viewBox="0 0 52 32" version="1.1" xmlns="http://www.w3.org/2000/svg" xmlns:xlink="http://www.w3.org/1999/xlink">
    <!-- Generator: Sketch 47.1 (45422) - http://www.bohemiancoding.com/sketch -->
    <title>quote</title>
    <desc>Created with Sketch.</desc>
    <defs></defs>
    <g id="V1.0" stroke="none" stroke-width="1" fill="none" fill-rule="evenodd" opacity="0.100000001">
        <g id="Home" transform="translate(-83.000000, -3790.000000)" fill="#484A7A">
            <path d="M85.1560976,3801.09163 C86.5935031,3798.11685 88.4536471,3795.52458 90.7365854,3793.31474 C93.0195236,3791.1049 95.3869796,3790 97.8390244,3790 C99.6991963,3790 101.178856,3790.40371 102.278049,3791.21116 C103.377241,3792.0186 103.926829,3793.31473 103.926829,3795.0996 C103.926829,3796.4595 103.588621,3797.41567 102.912195,3797.96813 C102.235769,3798.52059 101.495939,3798.9243 100.692683,3799.17928 C99.8894269,3799.43426 99.3187009,3799.64675 98.9804878,3799.81673 C96.6129963,3801.09164 95.4292683,3802.79149 95.4292683,3804.91633 C95.4292683,3805.85127 95.8731663,3806.67994 96.7609756,3807.40239 C97.6487849,3808.12484 98.8113749,3808.48606 100.24878,3808.48606 C101.686186,3808.48606 102.869914,3808.18858 103.8,3807.59363 C104.814639,3808.01859 105.596745,3808.57105 106.146341,3809.251 C106.695938,3809.93095 106.970732,3810.95086 106.970732,3812.31076 C106.970732,3814.01063 106.336592,3815.60424 105.068293,3817.09163 C103.799994,3818.57902 102.235782,3819.76892 100.37561,3820.66135 C98.5154379,3821.55379 96.6975699,3822 94.9219512,3822 C91.2016074,3822 88.2845634,3820.83135 86.1707317,3818.49402 C84.0569,3816.15669 83,3812.82074 83,3808.48606 C83,3806.5312 83.718692,3804.06642 85.1560976,3801.09163 Z M113.185366,3801.09163 C114.622771,3798.11685 116.482915,3795.52458 118.765854,3793.31474 C121.048792,3791.1049 123.416248,3790 125.868293,3790 C127.728465,3790 129.208125,3790.40371 130.307317,3791.21116 C131.40651,3792.0186 131.956098,3793.31473 131.956098,3795.0996 C131.956098,3796.4595 131.61789,3797.41567 130.941463,3797.96813 C130.265037,3798.52059 129.525207,3798.9243 128.721951,3799.17928 C127.918695,3799.43426 127.347969,3799.64675 127.009756,3799.81673 C124.642265,3801.09164 123.458537,3802.79149 123.458537,3804.91633 C123.458537,3805.85127 123.902435,3806.67994 124.790244,3807.40239 C125.678053,3808.12484 126.840643,3808.48606 128.278049,3808.48606 C129.715454,3808.48606 130.899182,3808.18858 131.829268,3807.59363 C132.843908,3808.01859 133.626014,3808.57105 134.17561,3809.251 C134.725206,3809.93095 135,3810.95086 135,3812.31076 C135,3814.01063 134.36586,3815.60424 133.097561,3817.09163 C131.829262,3818.57902 130.26505,3819.76892 128.404878,3820.66135 C126.544706,3821.55379 124.726838,3822 122.95122,3822 C119.230876,3822 116.313832,3820.83135 114.2,3818.49402 C112.086168,3816.15669 111.029268,3812.82074 111.029268,3808.48606 C111.029268,3806.5312 111.74796,3804.06642 113.185366,3801.09163 Z" id="quote"></path>
        </g>
    </g>
</svg>