<?xml version="1.0" encoding="UTF-8"?>
<svg width="1140px" height="536px" viewBox="0 0 1140 536" version="1.1" xmlns="http://www.w3.org/2000/svg" xmlns:xlink="http://www.w3.org/1999/xlink">
    <!-- Generator: Sketch 47.1 (45422) - http://www.bohemiancoding.com/sketch -->
    <title>Group 30</title>
    <desc>Created with Sketch.</desc>
    <defs>
        <filter x="-5.1%" y="-2.4%" width="110.3%" height="109.5%" filterUnits="objectBoundingBox" id="filter-1">
            <feOffset dx="0" dy="1" in="SourceAlpha" result="shadowOffsetOuter1"></feOffset>
            <feGaussianBlur stdDeviation="0.5" in="shadowOffsetOuter1" result="shadowBlurOuter1"></feGaussianBlur>
            <feColorMatrix values="0 0 0 0 0   0 0 0 0 0   0 0 0 0 0  0 0 0 0.1 0" type="matrix" in="shadowBlurOuter1" result="shadowMatrixOuter1"></feColorMatrix>
            <feMerge>
                <feMergeNode in="shadowMatrixOuter1"></feMergeNode>
                <feMergeNode in="SourceGraphic"></feMergeNode>
            </feMerge>
        </filter>
    </defs>
    <g id="V1.0" stroke="none" stroke-width="1" fill="none" fill-rule="evenodd">
        <g id="Home" transform="translate(-150.000000, -2049.000000)">
            <g id="Group-30" transform="translate(150.000000, 2049.000000)">
                <rect id="Rectangle-4" fill="#F3F8FF" x="0" y="0" width="1140" height="536"></rect>
                <g id="Group-18" transform="translate(82.000000, 6.000000)">
                    <circle id="Oval-6" fill="#1F8DED" cx="436.5" cy="246.5" r="137.5"></circle>
                    <g id="feature_ico-4" transform="translate(411.000000, 201.000000)" fill-rule="nonzero" fill="#FFFFFF">
                        <path d="M48.953125,33.7792812 L48.953125,4.5703125 C48.953125,2.05024219 46.9028828,0 44.3828125,0 L10.765625,0 C8.24555469,0 6.1953125,2.05024219 6.1953125,4.5703125 L6.1953125,6.1953125 L4.5703125,6.1953125 C2.05024219,6.1953125 0,8.24555469 0,10.765625 C0,13.2856953 2.05024219,15.3359375 4.5703125,15.3359375 L6.1953125,15.3359375 L6.1953125,21.4296875 L4.5703125,21.4296875 C2.05024219,21.4296875 0,23.4799297 0,26 C0,28.5200703 2.05024219,30.5703125 4.5703125,30.5703125 L6.1953125,30.5703125 L6.1953125,36.6640625 L4.5703125,36.6640625 C2.05024219,36.6640625 0,38.7143047 0,41.234375 C0,43.7544453 2.05024219,45.8046875 4.5703125,45.8046875 L6.1953125,45.8046875 L6.1953125,47.328125 C6.1953125,48.5423047 6.66219531,49.6993047 7.5099375,50.5861484 C8.38154687,51.497875 9.53783594,52 10.765625,52 L41.3359375,52 C47.2161016,52 52,47.1706016 52,41.234375 C52,38.3354766 50.8367031,35.7034844 48.953125,33.7792812 Z M4.5703125,12.2890625 C3.73028906,12.2890625 3.046875,11.6056484 3.046875,10.765625 C3.046875,9.92560156 3.73028906,9.2421875 4.5703125,9.2421875 L7.71875,9.2421875 C8.55877344,9.2421875 9.2421875,9.92560156 9.2421875,10.765625 C9.2421875,11.6056484 8.55877344,12.2890625 7.71875,12.2890625 L4.5703125,12.2890625 Z M4.5703125,27.5234375 C3.73028906,27.5234375 3.046875,26.8400234 3.046875,26 C3.046875,25.1599766 3.73028906,24.4765625 4.5703125,24.4765625 L7.71875,24.4765625 C8.55877344,24.4765625 9.2421875,25.1599766 9.2421875,26 C9.2421875,26.8400234 8.55877344,27.5234375 7.71875,27.5234375 L4.5703125,27.5234375 Z M7.71875,42.7578125 L4.5703125,42.7578125 C3.73028906,42.7578125 3.046875,42.0743984 3.046875,41.234375 C3.046875,40.3943516 3.73028906,39.7109375 4.5703125,39.7109375 L7.71875,39.7109375 C8.55877344,39.7109375 9.2421875,40.3943516 9.2421875,41.234375 C9.2421875,42.0743984 8.55877344,42.7578125 7.71875,42.7578125 Z M10.765625,48.953125 C9.95414063,48.953125 9.2421875,48.1937422 9.2421875,47.328125 L9.2421875,45.5426563 C11.0153672,44.9137812 12.2890625,43.2204297 12.2890625,41.234375 C12.2890625,39.2483203 11.0153672,37.5549688 9.2421875,36.9260937 L9.2421875,30.3082812 C11.0153672,29.6794062 12.2890625,27.9860547 12.2890625,26 C12.2890625,24.0139453 11.0153672,22.3205937 9.2421875,21.6917187 L9.2421875,15.0739062 C11.0153672,14.4450312 12.2890625,12.7516797 12.2890625,10.765625 C12.2890625,8.77957031 11.0153672,7.08621875 9.2421875,6.45734375 L9.2421875,4.5703125 C9.2421875,3.73028906 9.92560156,3.046875 10.765625,3.046875 L44.3828125,3.046875 C45.2228359,3.046875 45.90625,3.73028906 45.90625,4.5703125 L45.90625,31.6006641 C44.5203281,30.9405078 42.9705859,30.5703125 41.3359375,30.5703125 C35.4557734,30.5703125 30.671875,35.3542109 30.671875,41.234375 C30.671875,44.2589062 31.9142891,46.9956094 33.9102969,48.953125 L10.765625,48.953125 Z M41.3359375,48.953125 C37.1358203,48.953125 33.71875,45.4905547 33.71875,41.234375 C33.71875,37.0342578 37.1358203,33.6171875 41.3359375,33.6171875 C45.5360547,33.6171875 48.953125,37.0342578 48.953125,41.234375 C48.953125,45.4905547 45.5360547,48.953125 41.3359375,48.953125 Z" id="Shape"></path>
                        <path d="M41.3359375,12.2890625 L32.1953125,12.2890625 C31.3539687,12.2890625 30.671875,12.9711562 30.671875,13.8125 C30.671875,14.6538438 31.3539687,15.3359375 32.1953125,15.3359375 L41.3359375,15.3359375 C42.1772813,15.3359375 42.859375,14.6538438 42.859375,13.8125 C42.859375,12.9711562 42.1772813,12.2890625 41.3359375,12.2890625 Z" id="Shape"></path>
                        <path d="M41.3359375,24.4765625 L32.1953125,24.4765625 C31.3539687,24.4765625 30.671875,25.1586562 30.671875,26 C30.671875,26.8413438 31.3539687,27.5234375 32.1953125,27.5234375 L41.3359375,27.5234375 C42.1772813,27.5234375 42.859375,26.8413438 42.859375,26 C42.859375,25.1586562 42.1772813,24.4765625 41.3359375,24.4765625 Z" id="Shape"></path>
                        <path d="M44.3828125,39.7109375 L42.859375,39.7109375 L42.859375,38.1875 C42.859375,37.3461562 42.1772813,36.6640625 41.3359375,36.6640625 C40.4945937,36.6640625 39.8125,37.3461562 39.8125,38.1875 L39.8125,41.234375 C39.8125,42.0757188 40.4945937,42.7578125 41.3359375,42.7578125 L44.3828125,42.7578125 C45.2241563,42.7578125 45.90625,42.0757188 45.90625,41.234375 C45.90625,40.3930312 45.2241563,39.7109375 44.3828125,39.7109375 Z" id="Shape"></path>
                        <path d="M27.0771719,9.68835156 C26.4823203,9.09339844 25.5176797,9.09339844 24.9228281,9.68845313 L19.90625,14.7049297 L17.5082578,12.3069375 C16.9134062,11.7119844 15.9487656,11.7119844 15.3538125,12.3069375 C14.7588594,12.9018906 14.7588594,13.8664297 15.3538125,14.4613828 L18.8290781,17.9366484 C19.1264531,18.234125 19.5163516,18.3828125 19.90625,18.3828125 C20.2961484,18.3828125 20.6860469,18.234125 20.9834219,17.9365469 L27.0771719,11.8427969 C27.672125,11.2478438 27.672125,10.2833047 27.0771719,9.68835156 Z" id="Shape"></path>
                        <path d="M27.0771719,21.8758516 C26.4823203,21.2808984 25.5176797,21.2808984 24.9228281,21.8759531 L19.90625,26.8924297 L17.5082578,24.4944375 C16.9134062,23.8994844 15.9487656,23.8994844 15.3538125,24.4944375 C14.7588594,25.0893906 14.7588594,26.0539297 15.3538125,26.6488828 L18.8290781,30.1241484 C19.1264531,30.421625 19.5163516,30.5703125 19.90625,30.5703125 C20.2961484,30.5703125 20.6860469,30.421625 20.9834219,30.1240469 L27.0771719,24.0302969 C27.672125,23.4353437 27.672125,22.4708047 27.0771719,21.8758516 Z" id="Shape"></path>
                        <path d="M27.0771719,34.0633516 C26.4823203,33.4683984 25.5176797,33.4683984 24.9228281,34.0634531 L19.90625,39.0799297 L17.5082578,36.6819375 C16.9134062,36.0869844 15.9487656,36.0869844 15.3538125,36.6819375 C14.7588594,37.2768906 14.7588594,38.2414297 15.3538125,38.8363828 L18.8290781,42.3116484 C19.1264531,42.609125 19.5163516,42.7578125 19.90625,42.7578125 C20.2961484,42.7578125 20.6860469,42.609125 20.9834219,42.3115469 L27.0771719,36.2177969 C27.672125,35.6228438 27.672125,34.6583047 27.0771719,34.0633516 Z" id="Shape"></path>
                    </g>
                    <text id="Content-strategy-pla" font-family="Quicksand-Bold, Quicksand" font-size="14" font-weight="bold" line-spacing="22" fill="#FFFFFF">
                        <tspan x="347.453" y="286">Content strategy planning </tspan>
                        <tspan x="379.632" y="308">and optimization</tspan>
                    </text>
                    <circle id="Oval-6-Copy-4" fill="#F67A4A" cx="670.5" cy="374.5" r="98.5"></circle>
                    <text id="High-Revenue/High-Ea" font-family="Quicksand-Bold, Quicksand" font-size="14" font-weight="bold" line-spacing="22" fill="#FFFFFF">
                        <tspan x="605.924" y="420">High Revenue/High </tspan>
                        <tspan x="645.67" y="442">Earning</tspan>
                    </text>
                    <g id="feature_ico-6" transform="translate(650.000000, 354.000000)" fill-rule="nonzero" fill="#FFFFFF">
                        <path d="M40.6868438,23.1012305 C39.1769766,21.8258086 36.9419531,21.9724805 35.6066484,23.4060586 L31.9902187,27.2883516 C31.5533203,25.8837305 30.2982422,24.8370117 28.7852578,24.7060898 C29.4269883,24.2573789 30.035332,23.7504258 30.6033164,23.1876094 C33.1913203,20.6229844 34.6166953,17.2241016 34.6166953,13.6171875 C34.6166953,6.15816797 28.4851055,0.00024609375 20.9997539,0.00024609375 C13.5340898,0.00024609375 7.46484375,6.14110547 7.46484375,13.6171875 C7.46484375,16.9939219 8.71352344,20.1965859 10.9433789,22.6675312 C10.3463555,22.9703906 9.77763281,23.3469141 9.25058203,23.7976758 C8.58169922,22.850543 7.47936328,22.2303047 6.234375,22.2303047 L1.23046875,22.2303047 C0.550921875,22.2303047 0,22.7812266 0,23.4607734 L0,40.7691211 C0,41.448668 0.550921875,41.9995898 1.23046875,41.9995898 L6.23429297,41.9995898 C7.84522266,41.9995898 9.21752344,40.9618945 9.72021094,39.5201133 C9.78714844,39.5313516 9.85548047,39.5386523 9.92561719,39.5386523 L28.4643516,39.5386523 C31.1608828,39.5386523 33.7368281,38.2506797 35.3585039,36.088582 L41.2621289,28.1351602 C42.4347656,26.5721367 42.1853086,24.3670547 40.6868438,23.1012305 Z M7.46476172,38.3082656 C7.46476172,38.9867461 6.91277344,39.5387344 6.23429297,39.5387344 L2.4609375,39.5387344 L2.4609375,24.6913242 L6.23429297,24.6913242 C6.91277344,24.6913242 7.46476172,25.2433125 7.46476172,25.921793 L7.46476172,38.3082656 Z M9.92561719,13.6172695 C9.92561719,7.46574609 14.8934297,2.46118359 20.9996719,2.46118359 C27.1511953,2.46118359 32.1557578,7.46574609 32.1557578,13.6172695 C32.1557578,19.4909531 27.5249297,24.3103711 21.6971836,24.6690938 C21.4826719,24.6280781 21.2815313,24.5307891 21.1155,24.3846094 L20.5375898,23.8760156 C18.5777813,22.1513906 16.0165195,21.4705313 13.5803555,21.8297461 C11.2513242,19.7258906 9.92561719,16.763332 9.92561719,13.6172695 Z M39.2898516,26.6634375 L33.3862266,34.6170234 C32.2304883,36.1579805 30.3906094,37.0779609 28.4644336,37.0779609 L9.92561719,37.0779609 L9.92561719,26.4780469 L10.7830898,25.7234414 C13.1001445,23.6843906 16.5948398,23.6843906 18.9117305,25.7234414 C19.3300898,26.0915977 20.464582,27.1521797 20.9996719,27.1521797 C22.0408125,27.1521797 27.8152383,27.1521797 28.4644336,27.1521797 C29.1429141,27.1521797 29.6949023,27.704168 29.6949023,28.3826484 C29.6949023,29.0611289 29.1429141,29.6131172 28.4644336,29.6131172 C27.5898984,29.6131172 20.5197891,29.6131172 19.637543,29.6131172 C18.9579961,29.6131172 18.4070742,30.1640391 18.4070742,30.8435859 C18.4070742,31.5231328 18.9579961,32.0740547 19.637543,32.0740547 C20.2901016,32.0740547 20.0460586,32.0740547 29.2891758,32.0740547 C30.3098906,32.0740547 31.2944297,31.6456875 31.9901367,30.8987109 L37.4073164,25.0834336 C37.8476602,24.6106875 38.5553438,24.5686055 39.0462188,24.9379102 C39.5840977,25.3424883 39.70575,26.1088242 39.2898516,26.6634375 Z" id="Shape"></path>
                        <path d="M20.9996719,12.3867188 C20.3211914,12.3867188 19.7692031,11.8347305 19.7692031,11.15625 C19.7692031,10.6406016 20.094457,10.1756484 20.5785234,9.99936328 C21.2104922,9.76926562 21.9463125,10.0813945 22.5969844,10.8561797 C23.0340469,11.3765039 23.8102266,11.4440977 24.3305508,11.0070352 C24.850875,10.5699727 24.9184688,9.79379297 24.4814063,9.27346875 C23.8162148,8.481375 23.0420039,7.93693359 22.2300586,7.66360547 L22.2300586,6.23453906 C22.2300586,5.55499219 21.6791367,5.00407031 20.9995898,5.00407031 C20.320043,5.00407031 19.7691211,5.55499219 19.7691211,6.23453906 L19.7691211,7.67599219 C19.7581289,7.67984766 19.7471367,7.68321094 19.7362266,7.68723047 C18.2840273,8.21616797 17.3083477,9.61037109 17.3083477,11.156332 C17.3083477,13.1917734 18.9643125,14.8476562 20.9996719,14.8476562 C21.6781523,14.8476562 22.2301406,15.3996445 22.2301406,16.078125 C22.2301406,16.5737578 21.9352383,17.0188594 21.4788164,17.212207 C20.9277305,17.4454219 20.2683633,17.2464141 19.6692891,16.6659609 C19.1812031,16.1931328 18.4022344,16.2054375 17.9294062,16.6934414 C17.4564961,17.1815273 17.4688828,17.9604961 17.9568867,18.4333242 C18.5124023,18.9715313 19.1300156,19.3518281 19.7692031,19.5664219 L19.7692031,20.999918 C19.7692031,21.6794648 20.320125,22.2303867 20.9996719,22.2303867 C21.6792188,22.2303867 22.2301406,21.6794648 22.2301406,20.999918 L22.2301406,19.5585469 C22.2999492,19.5337734 22.3695117,19.5074414 22.4385,19.4781563 C23.8068633,18.8986875 24.6910781,17.5640391 24.6910781,16.078125 C24.6909961,14.0426836 23.0351133,12.3867188 20.9996719,12.3867188 Z" id="Shape"></path>
                    </g>
                    <circle id="Oval-6-Copy-3" fill="#88C44B" cx="93.5" cy="276.5" r="78.5"></circle>
                    <g id="feature_ico-1" transform="translate(75.000000, 240.000000)" fill-rule="nonzero" fill="#FFFFFF">
                        <path d="M33.2226562,7.3828125 L30.0995625,7.3828125 C30.5198086,6.65823047 30.7617188,5.81806641 30.7617188,4.921875 C30.7617188,2.20795312 28.5537656,0 25.8398438,0 C22.7102695,0 19.9654219,1.67794922 18.4570312,4.18121484 C16.9485586,1.67794922 14.203793,0 11.0742188,0 C8.36029687,0 6.15234375,2.20795312 6.15234375,4.921875 C6.15234375,5.81806641 6.39425391,6.65823047 6.8145,7.3828125 L3.69140625,7.3828125 C1.65596484,7.3828125 0,9.03877734 0,11.0742188 L0,15.9960938 C0,16.6756406 0.550921875,17.2265625 1.23046875,17.2265625 L2.4609375,17.2265625 L2.4609375,38.3085938 C2.4609375,40.3440352 4.11690234,42 6.15234375,42 L30.7617188,42 C32.7971602,42 34.453125,40.3440352 34.453125,38.3085938 L34.453125,17.2265625 L35.6835938,17.2265625 C36.3631406,17.2265625 36.9140625,16.6756406 36.9140625,15.9960938 L36.9140625,11.0742188 C36.9140625,9.03877734 35.2580977,7.3828125 33.2226562,7.3828125 Z M25.8398438,2.4609375 C27.1968047,2.4609375 28.3007813,3.56491406 28.3007813,4.921875 C28.3007813,6.27883594 27.1968047,7.3828125 25.8398438,7.3828125 C25.1826914,7.3828125 20.5561289,7.3828125 19.8111211,7.3828125 C20.3828789,4.57808203 22.8687539,2.4609375 25.8398438,2.4609375 Z M17.2265625,9.84375 C18.1170937,9.84375 18.7969688,9.84375 19.6875,9.84375 L19.6875,14.765625 L17.2265625,14.765625 L17.2265625,9.84375 Z M11.0742188,2.4609375 C14.0453086,2.4609375 16.5312656,4.57808203 17.1029414,7.3828125 C16.3577695,7.3828125 11.7314531,7.3828125 11.0742188,7.3828125 C9.71725781,7.3828125 8.61328125,6.27883594 8.61328125,4.921875 C8.61328125,3.56491406 9.71725781,2.4609375 11.0742188,2.4609375 Z M2.4609375,14.765625 L2.4609375,11.0742188 C2.4609375,10.3957383 3.01292578,9.84375 3.69140625,9.84375 C4.16037891,9.84375 14.3212617,9.84375 14.765625,9.84375 L14.765625,14.765625 L2.4609375,14.765625 Z M31.9921875,38.3085938 C31.9921875,38.9870742 31.4401992,39.5390625 30.7617188,39.5390625 L6.15234375,39.5390625 C5.47386328,39.5390625 4.921875,38.9870742 4.921875,38.3085938 L4.921875,17.2265625 C5.47468359,17.2265625 31.6121367,17.2265625 31.9921875,17.2265625 L31.9921875,38.3085938 Z M34.453125,14.765625 L22.1484375,14.765625 L22.1484375,9.84375 C22.5945234,9.84375 32.7579492,9.84375 33.2226562,9.84375 C33.9011367,9.84375 34.453125,10.3957383 34.453125,11.0742188 L34.453125,14.765625 Z" id="Shape"></path>
                        <path d="M13.5351562,19.6875 C11.4997148,19.6875 9.84375,21.3434648 9.84375,23.3789062 C9.84375,25.4143477 11.4997148,27.0703125 13.5351562,27.0703125 C15.5705977,27.0703125 17.2265625,25.4143477 17.2265625,23.3789062 C17.2265625,21.3434648 15.5705977,19.6875 13.5351562,19.6875 Z M13.5351562,24.609375 C12.8566758,24.609375 12.3046875,24.0573867 12.3046875,23.3789062 C12.3046875,22.7004258 12.8566758,22.1484375 13.5351562,22.1484375 C14.2136367,22.1484375 14.765625,22.7004258 14.765625,23.3789062 C14.765625,24.0573867 14.2136367,24.609375 13.5351562,24.609375 Z" id="Shape"></path>
                        <path d="M23.3789062,29.6953125 C21.3434648,29.6953125 19.6875,31.3512773 19.6875,33.3867188 C19.6875,35.4221602 21.3434648,37.078125 23.3789062,37.078125 C25.4143477,37.078125 27.0703125,35.4221602 27.0703125,33.3867188 C27.0703125,31.3512773 25.4143477,29.6953125 23.3789062,29.6953125 Z M23.3789062,34.6171875 C22.7004258,34.6171875 22.1484375,34.0651992 22.1484375,33.3867188 C22.1484375,32.7082383 22.7004258,32.15625 23.3789062,32.15625 C24.0573867,32.15625 24.609375,32.7082383 24.609375,33.3867188 C24.609375,34.0651992 24.0573867,34.6171875 23.3789062,34.6171875 Z" id="Shape"></path>
                        <path d="M24.0562383,19.8906914 C23.4889922,19.5167109 22.7256914,19.6732266 22.3517109,20.2406367 L12.5079609,35.1703242 C12.1338164,35.7376523 12.2904961,36.5008711 12.8578242,36.8749336 C13.4254805,37.2491602 14.1885352,37.0920703 14.5624336,36.5249883 L24.4061836,21.5953008 C24.7803281,21.0279727 24.6235664,20.2647539 24.0562383,19.8906914 Z" id="Shape"></path>
                    </g>
                    <text id="Referral-Program" font-family="Quicksand-Bold, Quicksand" font-size="14" font-weight="bold" line-spacing="22" fill="#FFFFFF">
                        <tspan x="32.524" y="306">Referral Program</tspan>
                    </text>
                    <circle id="Oval-6-Copy-6" fill="#0DBDCA" cx="863" cy="233" r="92"></circle>
                    <g id="feature_ico-7" transform="translate(842.000000, 212.000000)" fill-rule="nonzero" fill="#FFFFFF">
                        <path d="M38.300027,13.3083243 C36.2471351,5.53454054 29.1336216,0 20.986,0 C12.8885135,0 5.78351351,5.53245946 3.69372973,13.303973 C1.65086486,13.6829189 0.0985675676,15.4785135 0.0985675676,17.6297838 L0.0985675676,22.5871081 C0.0985675676,24.5164595 1.34740541,26.1597568 3.07905405,26.7513514 L3.07905405,28.8246757 C3.07905405,35.0493784 8.14383784,40.1135946 14.3692973,40.1135946 L15.7585135,40.1135946 C16.3134054,41.426 17.6137027,42.3492432 19.1257027,42.3492432 L22.8436486,42.3492432 C24.8585135,42.3492432 26.4978378,40.7101081 26.4978378,38.6954324 C26.4978378,36.6801892 24.8585135,35.0408649 22.8436486,35.0408649 L19.1257027,35.0408649 C17.6140811,35.0408649 16.313973,35.9637297 15.7588919,37.2757568 L14.3692973,37.2757568 C9.70862162,37.2757568 5.91689189,33.4845946 5.91689189,28.8246757 L5.91689189,25.567027 C5.91689189,24.7834054 5.28159459,24.1481081 4.49797297,24.1481081 C3.63697297,24.1481081 2.93640541,23.4477297 2.93640541,22.5869189 L2.93640541,17.6297838 C2.93640541,16.7687838 3.63697297,16.0682162 4.49135135,16.0682162 L4.82602703,16.0697297 C4.8282973,16.0697297 4.83056757,16.0697297 4.83283784,16.0697297 C5.50635135,16.0697297 6.08772973,15.5958108 6.22281081,14.9353514 C7.65743243,7.92551351 13.8662432,2.83783784 20.986,2.83783784 C28.1517297,2.83783784 34.3664054,7.92191892 35.7631892,14.9266486 C35.8954324,15.5901351 36.4779459,16.068027 37.1546757,16.068027 L37.4730811,16.068027 C38.3340811,16.068027 39.0346486,16.7685946 39.0346486,17.6295946 L39.0346486,22.5869189 C39.0346486,23.4477297 38.3340811,24.1481081 37.4730811,24.1481081 C36.6894595,24.1481081 36.0541622,24.7834054 36.0541622,25.567027 C36.0541622,26.3506486 36.6894595,26.9859459 37.4730811,26.9859459 C39.8988649,26.9859459 41.8724865,25.0125135 41.8724865,22.5869189 L41.8724865,17.6297838 C41.8722973,15.4864595 40.3317297,13.6963514 38.300027,13.3083243 Z M19.1258919,37.8787027 L22.8438378,37.8787027 C23.2939189,37.8787027 23.6601892,38.244973 23.6601892,38.6954324 C23.6601892,39.1453243 23.2939189,39.5114054 22.8438378,39.5114054 L19.1258919,39.5114054 C18.676,39.5114054 18.3099189,39.1453243 18.3099189,38.6954324 C18.3097297,38.244973 18.6758108,37.8787027 19.1258919,37.8787027 Z" id="Shape"></path>
                        <path d="M20.9850541,6.81856757 C13.6571892,6.81856757 7.69545946,12.7797297 7.69545946,20.1068378 C7.69545946,27.4350811 13.6571892,33.3971892 20.9850541,33.3971892 C28.3129189,33.3971892 34.2744595,27.4350811 34.2744595,20.1068378 C34.2744595,12.7797297 28.3129189,6.81856757 20.9850541,6.81856757 Z M20.9850541,30.5593514 C15.221973,30.5593514 10.5332973,25.8702973 10.5332973,20.1068378 C10.5332973,14.3445135 15.221973,9.65640541 20.9850541,9.65640541 C26.7481351,9.65640541 31.4366216,14.3445135 31.4366216,20.1068378 C31.4366216,25.8704865 26.7481351,30.5593514 20.9850541,30.5593514 Z" id="Shape"></path>
                    </g>
                    <circle id="Oval-6-Copy-7" fill="#6E7DA2" opacity="0.25" cx="905.5" cy="384.5" r="43.5"></circle>
                    <circle id="Oval-6-Copy-7" fill="#6E7DA2" opacity="0.600000024" cx="523.5" cy="408.5" r="22.5"></circle>
                    <circle id="Oval-6-Copy-10" fill="#6E7DA2" opacity="0.200000003" cx="630" cy="232" r="15"></circle>
                    <circle id="Oval-6-Copy-22" fill="#6E7DA2" opacity="0.600000024" cx="825" cy="91" r="15"></circle>
                    <circle id="Oval-6-Copy-11" fill="#6E7DA2" opacity="0.5" cx="736" cy="255" r="9"></circle>
                    <circle id="Oval-6-Copy-12" fill="#6E7DA2" opacity="0.200000003" cx="366" cy="440" r="9"></circle>
                    <circle id="Oval-6-Copy-16" fill="#6E7DA2" opacity="0.100000001" cx="64" cy="460" r="5"></circle>
                    <circle id="Oval-6-Copy-17" fill="#6E7DA2" opacity="0.5" cx="5" cy="346" r="5"></circle>
                    <circle id="Oval-6-Copy-18" fill="#6E7DA2" opacity="0.200000003" cx="33" cy="160" r="5"></circle>
                    <circle id="Oval-6-Copy-19" fill="#6E7DA2" opacity="0.100000001" cx="90" cy="81" r="5"></circle>
                    <circle id="Oval-6-Copy-20" fill="#6E7DA2" opacity="0.200000003" cx="380" cy="81" r="5"></circle>
                    <circle id="Oval-6-Copy-23" fill="#6E7DA2" cx="911" cy="94" r="5"></circle>
                    <circle id="Oval-6-Copy-23" fill="#6E7DA2" opacity="0.200000003" cx="996" cy="169" r="10"></circle>
                    <circle id="Oval-6-Copy-21" fill="#6E7DA2" opacity="0.200000003" cx="432" cy="15" r="5"></circle>
                    <circle id="Oval-6-Copy-13" fill="#6E7DA2" opacity="0.200000003" cx="474.5" cy="485.5" r="13.5"></circle>
                    <circle id="Oval-6-Copy-14" fill="#6E7DA2" opacity="0.5" cx="107.5" cy="141.5" r="13.5"></circle>
                    <circle id="Oval-6-Copy-15" fill="#6E7DA2" opacity="0.300000012" cx="94.5" cy="388.5" r="13.5"></circle>
                    <circle id="Oval-6-Copy-8" fill="#6E7DA2" opacity="0.300000012" cx="228" cy="253" r="29"></circle>
                    <circle id="Oval-6-Copy-9" fill="#6E7DA2" opacity="0.100000001" cx="527" cy="62" r="29"></circle>
                    <circle id="Oval-6-Copy-5" fill="#5457C1" cx="680" cy="102" r="87"></circle>
                    <g id="feature_ico-5" transform="translate(659.000000, 70.000000)" fill-rule="nonzero" fill="#FFFFFF">
                        <path d="M38.3179487,0 L3.69230769,0 C1.65636923,0 0,1.65636923 0,3.69230769 L0,28.3076923 C0,30.3436308 1.65636923,32 3.69230769,32 L38.3179487,32 C40.3538872,32 42.0102564,30.3436308 42.0102564,28.3076923 L42.0102564,3.69230769 C42.0102564,1.65636923 40.3538872,0 38.3179487,0 Z M39.5487179,28.3076923 C39.5487179,28.9863385 38.9965949,29.5384615 38.3179487,29.5384615 L3.69230769,29.5384615 C3.01366154,29.5384615 2.46153846,28.9863385 2.46153846,28.3076923 L2.46153846,12.3076923 L39.5487179,12.3076923 L39.5487179,28.3076923 Z M39.5487179,9.84615385 L2.46153846,9.84615385 L2.46153846,7.38461538 L39.5487179,7.38461538 L39.5487179,9.84615385 Z M39.5487179,4.92307692 L2.46153846,4.92307692 L2.46153846,3.69230769 C2.46153846,3.01366154 3.01366154,2.46153846 3.69230769,2.46153846 L38.3179487,2.46153846 C38.9965949,2.46153846 39.5487179,3.01366154 39.5487179,3.69230769 L39.5487179,4.92307692 Z" id="Shape"></path>
                        <path d="M25.8461538,22.1538462 L23.3846154,22.1538462 C22.7049026,22.1538462 22.1538462,22.7049026 22.1538462,23.3846154 C22.1538462,24.0643282 22.7049026,24.6153846 23.3846154,24.6153846 L25.8461538,24.6153846 C26.5258667,24.6153846 27.0769231,24.0643282 27.0769231,23.3846154 C27.0769231,22.7049026 26.5258667,22.1538462 25.8461538,22.1538462 Z" id="Shape"></path>
                        <path d="M33.3948718,22.1538462 L30.9333333,22.1538462 C30.2536205,22.1538462 29.7025641,22.7049026 29.7025641,23.3846154 C29.7025641,24.0643282 30.2536205,24.6153846 30.9333333,24.6153846 L33.3948718,24.6153846 C34.0745846,24.6153846 34.625641,24.0643282 34.625641,23.3846154 C34.625641,22.7049026 34.0745846,22.1538462 33.3948718,22.1538462 Z" id="Shape"></path>
                        <path d="M14.7692308,17.2307692 C13.8734769,17.2307692 13.0336821,17.4724103 12.3092513,17.8921846 C11.5658667,17.4621538 10.7186051,17.2307692 9.84615385,17.2307692 C7.13156923,17.2307692 4.92307692,19.4392615 4.92307692,22.1538462 C4.92307692,24.8684308 7.13156923,27.0769231 9.84615385,27.0769231 C10.7186051,27.0769231 11.5658667,26.8455385 12.3092513,26.4155077 C13.0336,26.8352821 13.8734769,27.0769231 14.7692308,27.0769231 C17.4838154,27.0769231 19.6923077,24.8684308 19.6923077,22.1538462 C19.6923077,19.4392615 17.4838154,17.2307692 14.7692308,17.2307692 Z M10.4630154,24.5364513 C10.2632205,24.5880615 10.0562051,24.6153846 9.84615385,24.6153846 C8.48886154,24.6153846 7.38461538,23.5111385 7.38461538,22.1538462 C7.38461538,20.7965538 8.48886154,19.6923077 9.84615385,19.6923077 C10.0562051,19.6923077 10.2632205,19.7196308 10.4630154,19.771241 C10.0705641,20.4777846 9.84615385,21.2899282 9.84615385,22.1538462 C9.84615385,23.0177641 10.0705641,23.8299077 10.4630154,24.5364513 Z M14.7692308,24.6153846 C13.4119385,24.6153846 12.3076923,23.5111385 12.3076923,22.1538462 C12.3076923,20.7965538 13.4119385,19.6923077 14.7692308,19.6923077 C16.1265231,19.6923077 17.2307692,20.7965538 17.2307692,22.1538462 C17.2307692,23.5111385 16.1265231,24.6153846 14.7692308,24.6153846 Z" id="Shape"></path>
                    </g>
                    <text id="Advance-payment-syst" font-family="Quicksand-Bold, Quicksand" font-size="14" font-weight="bold" line-spacing="22" fill="#FFFFFF">
                        <tspan x="618.694" y="124">Advance payment</tspan>
                        <tspan x="655.766" y="146">system</tspan>
                    </text>
                    <circle id="Oval-6-Copy" fill="#F94673" cx="244.5" cy="91.5" r="91.5"></circle>
                    <text id="Music-Distribution" font-family="Quicksand-Bold, Quicksand" font-size="14" font-weight="bold" line-spacing="20" fill="#FFFFFF">
                        <tspan x="226.527" y="127">Music</tspan>
                        <tspan x="205.961" y="147">Distribution</tspan>
                    </text>
                    <g id="feature_ico-2" filter="url(#filter-1)" transform="translate(220.000000, 61.000000)" fill-rule="nonzero" fill="#FFFFFF">
                        <path d="M38.6858182,0.190145455 C38.5208727,0.0458181818 38.3032364,-0.0198545455 38.0833091,0.00610909091 L14.4105818,3.06905455 C14.0302909,3.11869091 13.7454545,3.44170909 13.7454545,3.82581818 L13.7454545,8.42061818 L13.7454545,11.6370545 L13.7454545,31.0212 C12.3510545,29.3450182 10.1357455,28.2545455 7.63636364,28.2545455 C3.42567273,28.2545455 0,31.3373455 0,35.1272727 C0,38.9172 3.42567273,42 7.63636364,42 C11.8470545,42 15.2727273,38.9172 15.2727273,35.1272727 C15.2727273,34.9501091 15.2582182,34.776 15.2429455,34.6026545 C15.2528727,34.5530182 15.2727273,34.5079636 15.2727273,34.4560364 L15.2727273,12.3082909 L37.4181818,9.44236364 L37.4181818,23.3840727 C36.0237818,21.7086545 33.8084727,20.6181818 31.3090909,20.6181818 C27.0984,20.6181818 23.6727273,23.7009818 23.6727273,27.4909091 C23.6727273,31.2808364 27.0984,34.3636364 31.3090909,34.3636364 C35.4816,34.3636364 38.8790182,31.3350545 38.9401091,27.5924727 C38.9401091,27.5825455 38.9454545,27.5741455 38.9454545,27.5642182 L38.9454545,8.57334545 L38.9454545,5.35767273 L38.9454545,0.763636364 C38.9454545,0.543709091 38.8507636,0.334472727 38.6858182,0.190145455 Z" id="Shape"></path>
                    </g>
                    <text id="Customer-Support" font-family="Quicksand-Bold, Quicksand" font-size="14" font-weight="bold" line-spacing="22" fill="#FFFFFF">
                        <tspan x="800.246" y="276">Customer Support</tspan>
                    </text>
                    <circle id="Oval-6-Copy-2" fill="#44D3C5" cx="234.5" cy="403.5" r="86.5"></circle>
                    <g id="feature_ico-3" transform="translate(218.000000, 363.000000)" fill-rule="nonzero" fill="#FFFFFF">
                        <path d="M6.04297363,42 L26.415359,42 C29.722284,42 32.4015943,39.3931034 32.4015943,36.0861785 L32.4015943,22.8586491 C32.4015943,20.1793387 30.7119675,17.8862069 28.0567667,17.1379594 L28.0567667,10.7896552 C28.0567667,4.87583367 23.3498702,0 17.4361339,0 L15.0223692,0 C9.10854767,0 4.28093306,4.85172414 4.28093306,10.7655456 C4.28093306,11.5620974 4.9326572,12.2138215 5.72920892,12.2138215 C6.52576065,12.2138215 7.17748479,11.5379878 7.17748479,10.7414361 C7.17748479,6.42071805 10.7016511,2.89655172 15.022284,2.89655172 L17.4360487,2.89655172 C21.7567667,2.89655172 25.160215,6.46893712 25.160215,10.7896552 L25.160215,16.8965233 L6.04297363,16.8965233 C2.73604868,16.8965233 0.0567383367,19.5758337 0.0567383367,22.8827586 L0.0567383367,36.1103732 C0.0568235294,39.3931034 2.73613387,42 6.04297363,42 Z M29.5050426,36.0137647 C29.5050426,37.7275862 28.1291805,39.1034483 26.415359,39.1034483 L6.04297363,39.1034483 C4.32915213,39.1034483 2.95329006,37.7275862 2.95329006,36.0137647 L2.95329006,22.8827586 C2.95329006,21.1689371 4.32915213,19.7930751 6.04297363,19.7930751 L26.415359,19.7930751 C28.1291805,19.7930751 29.5050426,21.1689371 29.5050426,22.8827586 L29.5050426,36.0137647 L29.5050426,36.0137647 Z" id="Shape"></path>
                        <path d="M15.7464219,35.4827586 C16.5429736,35.4827586 17.1946978,34.8310345 17.1946978,34.0344828 L17.1946978,29.4483043 C17.1946978,28.6517525 16.5429736,28.0000284 15.7464219,28.0000284 C14.9498702,28.0000284 14.298146,28.6517525 14.298146,29.4483043 L14.298146,34.0344828 C14.298146,34.8310345 14.9498702,35.4827586 15.7464219,35.4827586 Z" id="Shape"></path>
                    </g>
                    <text id="No-lock-in-contract" font-family="Quicksand-Bold, Quicksand" font-size="14" font-weight="bold" line-spacing="20" fill="#FFFFFF">
                        <tspan x="225.557" y="428">No</tspan>
                        <tspan x="181.863" y="448">lock-in contract</tspan>
                    </text>
                </g>
            </g>
        </g>
    </g>
</svg>