<?xml version="1.0" encoding="UTF-8"?>
<svg width="15px" height="24px" viewBox="0 0 15 24" version="1.1" xmlns="http://www.w3.org/2000/svg" xmlns:xlink="http://www.w3.org/1999/xlink">
    <!-- Generator: Sketch 47.1 (45422) - http://www.bohemiancoding.com/sketch -->
    <title>Shape</title>
    <desc>Created with Sketch.</desc>
    <defs></defs>
    <g id="V1.0" stroke="none" stroke-width="1" fill="none" fill-rule="evenodd">
        <g id="Home" transform="translate(-713.000000, -741.000000)" fill-rule="nonzero" fill="#FFFFFF">
            <g id="Intro">
                <path d="M730.588121,752.023201 L712.33484,752.023201 L716.690339,747.66742 C717.071909,747.286076 717.071909,746.667464 716.690339,746.286177 C716.30877,745.904608 715.690158,745.904608 715.309153,746.286177 L709.286177,752.309266 C708.904608,752.690609 708.904608,753.309278 709.286177,753.690509 L715.309153,759.713879 C715.499881,759.90472 715.749842,760 715.999746,760 C716.24965,760 716.499611,759.90472 716.690339,759.713879 C717.071909,759.332536 717.071909,758.713924 716.690339,758.332693 L712.33484,753.976686 L730.588121,753.976686 C731.127531,753.976686 731.564948,753.539325 731.564948,752.999915 C731.564948,752.460506 731.127587,752.023201 730.588121,752.023201 Z" id="Shape" transform="translate(720.282474, 753.000000) rotate(-90.000000) translate(-720.282474, -753.000000) "></path>
            </g>
        </g>
    </g>
</svg>