<?xml version="1.0" encoding="UTF-8"?>
<svg width="67px" height="358px" viewBox="0 0 67 358" version="1.1" xmlns="http://www.w3.org/2000/svg" xmlns:xlink="http://www.w3.org/1999/xlink">
    <!-- Generator: Sketch 47.1 (45422) - http://www.bohemiancoding.com/sketch -->
    <title>the_frame</title>
    <desc>Created with Sketch.</desc>
    <defs>
        <path d="M14,297.257172 L14,297.239367 C20.6551848,292.530661 25,284.772723 25,276 C25,267.227277 20.6551848,259.469339 14,254.760633 L14,254.742828 C5.5228763,248.664241 0,238.727089 0,227.5 C0,216.272911 5.5228763,206.335759 14,200.257172 L14,200.239367 C20.6551848,195.530661 25,187.772723 25,179 C25,170.227277 20.6551848,162.469339 14,157.760633 L14,157.742828 C5.5228763,151.664241 0,141.727089 0,130.5 C0,119.272911 5.5228763,109.335759 14,103.257172 L14,103.239367 C20.6551848,98.5306608 25,90.7727234 25,82 C25,73.2272766 20.6551848,65.4693392 14,60.7606333 L14,60.7428277 C5.5228763,54.6642413 0,44.7270891 0,33.5 C0,14.9984609 14.9984609,0 33.5,0 C52.0015391,0 67,14.9984609 67,33.5 C67,45.1627305 61.0402032,55.4334758 52,61.4328455 L52,61.5046311 C45.9129216,66.2633324 42,73.6747103 42,82 C42,90.3252897 45.9129216,97.7366676 52,102.495369 L52,102.567155 C61.0402032,108.566524 67,118.83727 67,130.5 C67,142.16273 61.0402032,152.433476 52,158.432845 L52,158.504631 C45.9129216,163.263332 42,170.67471 42,179 C42,187.32529 45.9129216,194.736668 52,199.495369 L52,199.567155 C61.0402032,205.566524 67,215.83727 67,227.5 C67,239.16273 61.0402032,249.433476 52,255.432845 L52,255.504631 C45.9129216,260.263332 42,267.67471 42,276 C42,284.32529 45.9129216,291.736668 52,296.495369 L52,296.567155 C61.0402032,302.566524 67,312.83727 67,324.5 C67,343.001539 52.0015391,358 33.5,358 C14.9984609,358 0,343.001539 0,324.5 C0,313.272911 5.5228763,303.335759 14,297.257172 Z" id="path-1"></path>
        <linearGradient x1="50%" y1="0%" x2="50%" y2="100%" id="linearGradient-3">
            <stop stop-color="#E8EDF5" offset="0%"></stop>
            <stop stop-color="#13C095" offset="16.9463489%"></stop>
            <stop stop-color="#13C095" offset="81.5788425%"></stop>
            <stop stop-color="#E8EDF5" offset="100%"></stop>
        </linearGradient>
    </defs>
    <g id="V1.0" stroke="none" stroke-width="1" fill="none" fill-rule="evenodd">
        <g id="the_frame">
            <mask id="mask-2" fill="white">
                <use xlink:href="#path-1"></use>
            </mask>
            <use id="frame" fill="#E8EDF5" xlink:href="#path-1"></use>
            <rect id="active_range" fill="url(#linearGradient-3)" mask="url(#mask-2)" x="0" y="-17" width="67" height="110"></rect>
        </g>
    </g>
</svg>