<?xml version="1.0" encoding="UTF-8"?>
<svg width="12px" height="10px" viewBox="0 0 12 10" version="1.1" xmlns="http://www.w3.org/2000/svg" xmlns:xlink="http://www.w3.org/1999/xlink">
    <!-- Generator: Sketch 47.1 (45422) - http://www.bohemiancoding.com/sketch -->
    <title>tt</title>
    <desc>Created with Sketch.</desc>
    <defs></defs>
    <g id="V1.0" stroke="none" stroke-width="1" fill="none" fill-rule="evenodd">
        <g id="Home" transform="translate(-199.000000, -4724.000000)" fill="#FFFFFF">
            <g id="Group-25" transform="translate(151.000000, 4618.000000)">
                <g id="Group-23" transform="translate(0.000000, 15.000000)">
                    <g id="Group-7" transform="translate(1.000000, 80.000000)">
                        <g id="Group-6" transform="translate(37.000000, 0.000000)">
                            <path d="M21.4628568,12.6390935 C21.1491116,13.0980044 20.7698134,13.4890094 20.3249508,13.8121201 C20.3296335,13.8776788 20.3319749,13.9760154 20.3319749,14.1071328 C20.3319749,14.7158922 20.2430037,15.3234718 20.0650587,15.9298897 C19.8871136,16.5363077 19.616688,17.1181325 19.2537738,17.6753814 C18.8908595,18.2326304 18.458881,18.725484 17.9578252,19.1539569 C17.4567694,19.5824299 16.8527019,19.9242665 16.1456044,20.1794772 C15.438507,20.4346879 14.6822519,20.5622913 13.8768164,20.5622913 C12.6077873,20.5622913 11.4464791,20.2227959 10.3928571,19.5437951 C10.5567539,19.5625262 10.739379,19.5718915 10.9407378,19.5718915 C11.9943598,19.5718915 12.93324,19.2487857 13.7574065,18.6025642 C13.2657163,18.5931986 12.825543,18.4421817 12.4368736,18.149509 C12.0482041,17.8568362 11.7812906,17.4833913 11.6361249,17.0291632 C11.7906561,17.052577 11.9334783,17.0642837 12.0645957,17.0642837 C12.2659545,17.0642837 12.464969,17.0385289 12.6616452,16.9870185 C12.1371755,16.8793149 11.7028557,16.6182547 11.3586725,16.2038301 C11.0144893,15.7894054 10.8424003,15.3082586 10.8424003,14.7603752 L10.8424003,14.7322787 C11.1608283,14.9102238 11.5026649,15.006219 11.8679206,15.0202673 C11.5588581,14.8142257 11.3130167,14.5449708 11.1303888,14.2124945 C10.947761,13.8800182 10.8564485,13.5194508 10.8564485,13.1307813 C10.8564485,12.7186981 10.9594678,12.3370585 11.1655094,11.9858511 C11.7321239,12.683583 12.4216506,13.2419943 13.2341102,13.6611017 C14.0465699,14.0802092 14.9163803,14.3131732 15.8435677,14.3600008 C15.8061055,14.1820558 15.7873748,14.0087961 15.7873748,13.8402166 C15.7873748,13.2127262 16.0086321,12.6777283 16.4511533,12.2352071 C16.8936745,11.7926859 17.4286723,11.5714286 18.0561628,11.5714286 C18.7117498,11.5714286 19.2643077,11.810246 19.7138531,12.2878879 C20.2242744,12.1895499 20.7042505,12.0069248 21.1537959,11.7400072 C20.9805336,12.2785252 20.6480624,12.6952849 20.1563721,12.9902991 C20.5918692,12.9434714 21.0273597,12.8264041 21.4628568,12.6390935 Z" id="tt"></path>
                        </g>
                    </g>
                </g>
            </g>
        </g>
    </g>
</svg>