<?xml version="1.0" encoding="UTF-8"?>
<svg width="16px" height="13px" viewBox="0 0 16 13" version="1.1" xmlns="http://www.w3.org/2000/svg" xmlns:xlink="http://www.w3.org/1999/xlink">
    <!-- Generator: Sketch 47.1 (45422) - http://www.bohemiancoding.com/sketch -->
    <title>yt</title>
    <desc>Created with Sketch.</desc>
    <defs></defs>
    <g id="V1.0" stroke="none" stroke-width="1" fill="none" fill-rule="evenodd">
        <g id="yt">
            <path d="M8,0.153125 C6.03124,0.153125 4.507818,0.218229 3.429688,0.348437 C2.351558,0.478647 1.5572942,0.757289 1.046875,1.184375 C0.5364558,1.611461 0.2343754,2.231245 0.140625,3.043749 C0.04687454,3.856255 0,4.944785 0,6.309375 C0,7.673965 0.04687454,8.762495 0.140625,9.575001 C0.2343754,10.387505 0.5364558,11.0098936 1.046875,11.4421874 C1.5572942,11.8744814 2.351558,12.1531244 3.429688,12.278125 C4.507818,12.4031256 6.03124,12.465625 8,12.465625 C9.96876,12.465625 11.492182,12.4031256 12.570312,12.278125 C13.648442,12.1531244 14.442706,11.8744814 14.953124,11.4421874 C15.463544,11.0098936 15.765624,10.387505 15.859376,9.575001 C15.953126,8.762495 16,7.673965 16,6.309375 C16,4.944785 15.953126,3.856255 15.859376,3.043749 C15.765624,2.231245 15.463544,1.611461 14.953124,1.184375 C14.442706,0.757289 13.648442,0.478647 12.570312,0.348437 C11.492182,0.218229 9.96876,0.153125 8,0.153125 Z" id="Combined-Shape" fill="#FC0D1B"></path>
            <path d="M10.5625,6.575001 L6.96875,8.262501 C6.8125,8.335417 6.679688,8.335417 6.570312,8.262501 C6.460936,8.189583 6.40625,8.064585 6.40625,7.887501 L6.40625,4.731249 C6.40625,4.564583 6.460936,4.444793 6.570312,4.371875 C6.679688,4.298957 6.8125,4.298957 6.96875,4.371875 L10.5625,6.043749 C10.71875,6.116667 10.796876,6.205207 10.796876,6.309375 C10.796876,6.413543 10.71875,6.502083 10.5625,6.575001 Z" id="Path" fill="#FFFFFF"></path>
        </g>
    </g>
</svg>