<?xml version="1.0" encoding="UTF-8"?>
<svg width="15px" height="10px" viewBox="0 0 15 10" version="1.1" xmlns="http://www.w3.org/2000/svg" xmlns:xlink="http://www.w3.org/1999/xlink">
    <!-- Generator: Sketch 47.1 (45422) - http://www.bohemiancoding.com/sketch -->
    <title>yt</title>
    <desc>Created with Sketch.</desc>
    <defs></defs>
    <g id="V1.0" stroke="none" stroke-width="1" fill="none" fill-rule="evenodd">
        <g id="Home" transform="translate(-235.000000, -4724.000000)" fill-rule="nonzero" fill="#FFFFFF">
            <g id="Group-25" transform="translate(151.000000, 4618.000000)">
                <g id="Group-23" transform="translate(0.000000, 15.000000)">
                    <g id="Group-7" transform="translate(1.000000, 80.000000)">
                        <g id="Group-6" transform="translate(74.000000, 0.000000)">
                            <path d="M22.7972464,12.5741777 C22.6253623,11.827511 22.0146377,11.2766415 21.2794203,11.1944676 C19.5384058,11.0001197 17.7762319,10.9991053 16.0221739,11.0001197 C14.2678261,10.9991053 12.5053623,11.0001197 10.7643478,11.1944676 C10.0295652,11.2766415 9.41927536,11.827511 9.2473913,12.5741777 C9.00275362,13.637511 9,14.7982357 9,15.8930183 C9,16.9878009 9,18.1483806 9.24463768,19.211569 C9.41623188,19.9580908 10.0266667,20.5089603 10.7618841,20.5912792 C12.5027536,20.7857719 14.2650725,20.7867864 16.0194203,20.7857719 C17.774058,20.7867864 19.535942,20.7857719 21.2766667,20.5912792 C22.0114493,20.5091053 22.6223188,19.9582357 22.7942029,19.211569 C23.0389855,18.1482357 23.0398551,16.987656 23.0398551,15.8930183 C23.0398551,14.7982357 23.0418841,13.637511 22.7972464,12.5741777 Z M14.2081159,18.0721487 C14.2081159,16.5191053 14.2081159,14.9822937 14.2081159,13.4291053 C15.696087,14.2054821 17.1742029,14.9766415 18.6715942,15.7578009 C17.1788406,16.5320038 15.7,17.2985255 14.2081159,18.0721487 Z" id="yt"></path>
                        </g>
                    </g>
                </g>
            </g>
        </g>
    </g>
</svg>