<?xml version="1.0" encoding="UTF-8"?>
<svg width="540px" height="61px" viewBox="0 0 540 61" version="1.1" xmlns="http://www.w3.org/2000/svg" xmlns:xlink="http://www.w3.org/1999/xlink">
    <!-- Generator: Sketch 47 (45396) - http://www.bohemiancoding.com/sketch -->
    <title>3dglass_2</title>
    <desc>Created with Sketch.</desc>
    <defs>
        <path d="M519.674054,3.27945888 C531.184861,5.04777205 540,14.994443 540,27 L540,27 C540,40.254834 529.254834,51 516,51 L24,51 C10.745166,51 1.623249e-15,40.254834 0,27 L0,27 L0,27 C-1.4702567e-15,14.994443 8.81513914,5.04777205 20.3259457,3.27945888 C23.3683341,1.20969781 27.042897,7.26908028e-16 31,0 L31,0 L509,0 C512.957103,-7.26908028e-16 516.631666,1.20969781 519.674054,3.27945888 Z" id="path-1"></path>
    </defs>
    <g id="Page-1" stroke="none" stroke-width="1" fill="none" fill-rule="evenodd">
        <g id="Topaz" transform="translate(-765.000000, -3772.000000)">
            <g id="3dglass_2" transform="translate(765.000000, 3774.000000)">
                <g id="phone" transform="translate(0.000000, 8.000000)">
                    <g id="Combined-Shape">
                        <use fill="#FFFFFF" fill-rule="evenodd" xlink:href="#path-1"></use>
                        <path stroke="#979797" stroke-width="2" d="M519.522214,4.26786385 L519.298613,4.23351394 L519.11157,4.10626695 C516.152046,2.09287921 512.658894,1 509,1 L31,1 C27.3411055,1 23.8479538,2.09287921 20.8884299,4.10626695 L20.7013867,4.23351394 L20.4777865,4.26786385 C9.33451751,5.97971516 1,15.608731 1,27 C1,39.7025492 11.2974508,50 24,50 L516,50 C528.702549,50 539,39.7025492 539,27 C539,15.608731 530.665482,5.97971516 519.522214,4.26786385 Z"></path>
                    </g>
                    <rect id="Rectangle-15" fill="#979797" opacity="0.300000012" x="20" y="4" width="500" height="1"></rect>
                    <rect id="Rectangle-16" stroke="#979797" x="240.5" y="19.5" width="59" height="15" rx="7.5"></rect>
                    <rect id="Rectangle-16" stroke="#979797" x="236.5" y="16.5" width="67" height="21" rx="10.5"></rect>
                    <circle id="Oval-7" stroke="#979797" cx="318" cy="27" r="5.5"></circle>
                    <path d="M386,32.5 C389.037566,32.5 391.5,30.0375661 391.5,27 C391.5,23.9624339 389.037566,21.5 386,21.5 C382.962434,21.5 380.5,23.9624339 380.5,27 C380.5,30.0375661 382.962434,32.5 386,32.5 Z M403,32.5 C406.037566,32.5 408.5,30.0375661 408.5,27 C408.5,23.9624339 406.037566,21.5 403,21.5 C399.962434,21.5 397.5,23.9624339 397.5,27 C397.5,30.0375661 399.962434,32.5 403,32.5 Z M420,32.5 C423.037566,32.5 425.5,30.0375661 425.5,27 C425.5,23.9624339 423.037566,21.5 420,21.5 C416.962434,21.5 414.5,23.9624339 414.5,27 C414.5,30.0375661 416.962434,32.5 420,32.5 Z M437,32.5 C440.037566,32.5 442.5,30.0375661 442.5,27 C442.5,23.9624339 440.037566,21.5 437,21.5 C433.962434,21.5 431.5,23.9624339 431.5,27 C431.5,30.0375661 433.962434,32.5 437,32.5 Z M454,32.5 C457.037566,32.5 459.5,30.0375661 459.5,27 C459.5,23.9624339 457.037566,21.5 454,21.5 C450.962434,21.5 448.5,23.9624339 448.5,27 C448.5,30.0375661 450.962434,32.5 454,32.5 Z M471,32.5 C474.037566,32.5 476.5,30.0375661 476.5,27 C476.5,23.9624339 474.037566,21.5 471,21.5 C467.962434,21.5 465.5,23.9624339 465.5,27 C465.5,30.0375661 467.962434,32.5 471,32.5 Z" id="Combined-Shape" stroke="#979797"></path>
                    <circle id="Oval-7" stroke="#979797" cx="222" cy="27" r="5.5"></circle>
                    <circle id="Oval-7" stroke="#979797" cx="103" cy="27" r="5.5"></circle>
                    <circle id="Oval-7" stroke="#979797" cx="71" cy="27" r="10.5"></circle>
                    <circle id="Oval-7" stroke="#979797" cx="71" cy="27" r="14.5"></circle>
                </g>
                <path d="M16.5,5 L24.8076923,1.53846154 L24.8076923,1.53846154 C27.2450957,0.522876784 29.8594796,-3.06765796e-15 32.5,-3.55271368e-15 L508.5,0 L508.5,-3.55271368e-15 C511.14052,-4.0377694e-15 513.754904,0.522876784 516.192308,1.53846154 L524.5,5" id="Line-5" stroke="#34BC29" stroke-width="4" stroke-linecap="round"></path>
            </g>
        </g>
    </g>
</svg>