<?xml version="1.0" encoding="UTF-8"?>
<svg width="10px" height="10px" viewBox="0 0 10 10" version="1.1" xmlns="http://www.w3.org/2000/svg" xmlns:xlink="http://www.w3.org/1999/xlink">
    <!-- Generator: Sketch 47 (45396) - http://www.bohemiancoding.com/sketch -->
    <title>Page 1</title>
    <desc>Created with Sketch.</desc>
    <defs></defs>
    <g id="Page-1" stroke="none" stroke-width="1" fill="none" fill-rule="evenodd">
        <path d="M0,5 L0,5 L0,5 C-4.93332043e-16,4.66087779 0.274912873,4.38596491 0.614035088,4.38596491 L7.60233918,4.38596491 L4.55956455,1.31762075 L4.55956455,1.31762075 C4.31805499,1.07408169 4.31887707,0.681122927 4.56140351,0.438596491 L4.56140351,0.438596491 L4.56140351,0.438596491 C4.80363366,0.196366338 5.19636634,0.196366338 5.43859649,0.438596491 L10,5 L5.44596635,9.55403365 L5.44596635,9.55403365 C5.19849225,9.80150775 4.79828088,9.80478795 4.54678363,9.56140351 L4.54678363,9.56140351 L4.54678363,9.56140351 C4.30054885,9.32311179 4.29410973,8.93032547 4.53240145,8.6840907 C4.53475898,8.68165458 4.53713645,8.67923782 4.5395336,8.67684067 L7.60233918,5.61403509 L0.614035088,5.61403509 L0.614035088,5.61403509 C0.274912873,5.61403509 4.15304935e-17,5.33912221 0,5 Z" fill="#000000"></path>
    </g>
</svg>