<?xml version="1.0" encoding="UTF-8"?>
<svg width="96px" height="96px" viewBox="0 0 96 96" version="1.1" xmlns="http://www.w3.org/2000/svg" xmlns:xlink="http://www.w3.org/1999/xlink">
    <!-- Generator: Sketch 47 (45396) - http://www.bohemiancoding.com/sketch -->
    <title>ft_3</title>
    <desc>Created with Sketch.</desc>
    <defs>
        <circle id="path-1" cx="48" cy="48" r="48"></circle>
    </defs>
    <g id="Page-1" stroke="none" stroke-width="1" fill="none" fill-rule="evenodd">
        <g id="Topaz" transform="translate(-1006.000000, -2469.000000)">
            <g id="Group-18" transform="translate(251.000000, 2469.000000)">
                <g id="ft_3" transform="translate(755.000000, 0.000000)">
                    <g id="Path-4-+-Path-4-Mask">
                        <mask id="mask-2" fill="white">
                            <use xlink:href="#path-1"></use>
                        </mask>
                        <g id="Mask">
                            <use fill="#FFFFFF" fill-rule="evenodd" xlink:href="#path-1"></use>
                            <circle stroke="#4A4A4A" stroke-width="2" cx="48" cy="48" r="47"></circle>
                        </g>
                        <g id="481189" mask="url(#mask-2)" stroke="#FFFFFF" stroke-width="0.5" fill="#4A4A4A" fill-rule="nonzero">
                            <g transform="translate(18.000000, 17.000000)" id="Shape">
                                <path d="M50.6470215,59.333375 C40.5580917,59.333375 31.705957,51.85675 31.705957,43.333375 C31.705957,42.596375 31.100814,42 30.3529785,42 C29.605143,42 29,42.596375 29,43.333375 C29.0001268,53.277375 39.1154389,62 50.6470215,62 C51.394857,62 52,61.403625 52,60.666625 C52,59.92975 51.394857,59.333375 50.6470215,59.333375 Z" opacity="0.5"></path>
                                <path d="M10.3545053,9 C10.5953284,9 10.8388188,8.93211897 11.0584301,8.79065491 C22.5216583,1.35496727 37.3852421,1.08480079 48.9886964,7.93942684 C49.64499,8.32838512 50.4679291,8.07383127 50.8304339,7.37234875 C51.1929386,6.6723596 50.9547829,5.79126388 50.3012837,5.4051566 C44.302046,1.86298887 37.4942221,-0.0124281264 30.6758559,6.19825157e-05 C23.3498051,0.0136381878 16.0114338,2.1899039 9.65070756,6.31299745 C9.01295832,6.72883662 8.80922405,7.61970721 9.19560788,8.3027261 C9.45218096,8.75250578 9.89673829,9 10.3545053,9 Z" opacity="0.5"></path>
                                <path d="M59.8292513,23.9447597 C54.5479244,14.2591821 42.8399521,8 29.9999564,8 C17.1599607,8 5.45198839,14.2591821 0.170661581,23.9447597 C-0.19419383,24.6140466 0.0455062034,25.4564965 0.703370934,25.8269668 C1.36392031,26.196139 2.18951114,25.9554761 2.55705119,25.2860594 C7.36434721,16.4673354 18.1375533,10.7693107 29.9999564,10.7693107 C41.8623595,10.7693107 52.6356935,16.4673354 57.4428616,25.2860594 C57.6933002,25.7431112 58.1567203,26 58.6361204,26 C58.8598404,26 59.0862451,25.9445722 59.2966697,25.8269668 C59.9545345,25.4564965 60.1942345,24.6140466 59.8292513,23.9447597 Z" opacity="0.200000003"></path>
                                <path d="M13.7142403,43.2001381 C13.7142403,34.1610068 20.5635206,27.6000894 29.9999364,27.6000894 C39.8922245,27.6000894 46.2856325,33.2126944 46.2856325,41.9000934 C46.2856325,42.6186707 46.8926564,43.2001381 47.6428162,43.2001381 C48.3929761,43.2001381 49,42.6186707 49,41.9000934 C49,31.792115 41.3634081,25 29.9999364,25 C19.1693123,25 11,32.8241557 11,43.2000163 C11,50.7968744 13.8255683,57.0849128 20.1660478,63.5874518 C20.4337439,63.8616714 20.7943194,64 21.1574396,64 C21.4887517,64 21.8227357,63.8844621 22.0825434,63.6496083 C22.6312951,63.1595474 22.6604312,62.3368886 22.1488313,61.8125807 C16.3146079,55.8281338 13.7142403,50.0886565 13.7142403,43.2001381 Z" opacity="0.200000003"></path>
                                <path d="M30.4999355,16 C14.5666199,16 3,26.8757314 3,41.861221 C3,45.9020727 4.37233487,49.7328873 5.85475558,53.2712325 C6.14479442,53.9676978 6.95587191,54.2920685 7.65144949,54.007638 C8.35244113,53.7192519 8.68540571,52.9229998 8.39536688,52.2290865 C7.02019608,48.9499061 5.74995488,45.4262355 5.74995488,41.861221 C5.74995488,28.236761 15.9281266,18.7223144 30.4999355,18.7223144 C44.6097448,18.7223144 55.2499162,29.2550449 55.2499162,43.2223782 C55.2499162,46.9747161 52.1668678,50.0279089 48.3749646,50.0279089 C44.5829324,50.0279089 41.5000129,46.9747161 41.5000129,43.2223782 C41.5000129,36.8115282 36.9774695,32.3333759 30.4999355,32.3333759 C24.0224015,32.3333759 19.4999871,36.8115282 19.4999871,43.2222506 C19.4999871,52.1040341 24.5756667,59.5755327 34.1764678,64.8299032 C34.3886474,64.9455129 34.6169401,65 34.8425259,65 C35.325924,65 35.7959158,64.746067 36.045607,64.2968992 C36.4135051,63.6389704 36.1718061,62.8108172 35.5084551,62.44791 C26.7106104,57.6336475 22.249942,51.1657582 22.249942,43.2223782 C22.249942,37.5812385 26.3937591,35.0556902 30.4999355,35.0556902 C34.606112,35.0556902 38.7499291,37.5812385 38.7499291,43.2223782 C38.7499291,48.475345 43.0682851,52.7500957 48.3749646,52.7500957 C53.681644,52.7500957 58,48.475345 58,43.2222506 C58,27.702481 46.178146,16 30.4999355,16 Z" opacity="0.5"></path>
                            </g>
                        </g>
                        <path d="M14.5,81.5 L79.5,13.5" id="Line-4" stroke="#4A4A4A" stroke-width="2" stroke-linecap="square" mask="url(#mask-2)"></path>
                    </g>
                </g>
            </g>
        </g>
    </g>
</svg>