<?xml version="1.0" encoding="UTF-8"?>
<svg width="20px" height="20px" viewBox="0 0 20 20" version="1.1" xmlns="http://www.w3.org/2000/svg" xmlns:xlink="http://www.w3.org/1999/xlink">
    <!-- Generator: Sketch 47 (45396) - http://www.bohemiancoding.com/sketch -->
    <title>ico_cart</title>
    <desc>Created with Sketch.</desc>
    <defs></defs>
    <g id="Page-1" stroke="none" stroke-width="1" fill="none" fill-rule="evenodd">
        <g id="Topaz" transform="translate(-795.000000, -1520.000000)" fill="#FFFFFF">
            <g id="Group-10" transform="translate(775.000000, 1505.000000)">
                <g id="Group-15" transform="translate(20.000000, 15.000000)">
                    <path d="M6.13953488,12.7699531 C6.13953488,12.9264496 6.21705228,13.0046948 6.37209302,13.0046948 L17.8604651,13.0046948 L17.8604651,15.0234742 L5.95348837,15.0234742 C5.4263546,15.0234742 4.96899274,14.8200323 4.58139386,14.4131455 C4.19379795,14.0062588 4,13.5367782 4,13.0046948 C4,12.6917048 4.0775174,12.3787177 4.23255814,12.0657277 L5.58139535,9.57746479 L2,1.97183099 L0,1.97183099 L0,0 L3.25581395,0 C3.87597098,1.31456 4.49612205,2.64475042 5.11627907,3.99061033 C5.27131981,4.27230047 5.627904,5.01564394 6.18604651,6.22065577 C6.74418902,7.42567061 7.17829358,8.35680451 7.48837209,9.01408451 L14.4651163,9.01408451 C16.7907096,4.75741146 18.0620145,2.41001765 18.2790698,1.97183099 L20,2.95774648 L16.1860465,9.95305164 C15.8139505,10.6416315 15.240314,10.9859155 14.4651163,10.9859155 L7.06976744,10.9859155 L6.18604651,12.629108 L6.13953488,12.7699531 Z M15.9069767,16.0093897 C16.4341105,16.0093897 16.8914724,16.2128315 17.2790713,16.6197183 C17.6666672,17.026606 17.8604651,17.496085 17.8604651,18.028169 C17.8604651,18.560253 17.6666672,19.0219072 17.2790713,19.4131455 C16.8914724,19.8043838 16.4341105,20 15.9069767,20 C15.379843,20 14.9147297,19.8043838 14.5116279,19.4131455 C14.1085261,19.0219072 13.9069767,18.560253 13.9069767,18.028169 C13.9069767,17.496085 14.1085261,17.026606 14.5116279,16.6197183 C14.9147297,16.2128315 15.379843,16.0093897 15.9069767,16.0093897 Z M5.95348837,16.0093897 C6.48062214,16.0093897 6.94573544,16.2128315 7.34883721,16.6197183 C7.75193898,17.026606 7.95348837,17.496085 7.95348837,18.028169 C7.95348837,18.560253 7.75193898,19.0219072 7.34883721,19.4131455 C6.94573544,19.8043838 6.48062214,20 5.95348837,20 C5.4263546,20 4.96899274,19.8043838 4.58139386,19.4131455 C4.19379795,19.0219072 4,18.560253 4,18.028169 C4,17.496085 4.19379795,17.026606 4.58139386,16.6197183 C4.96899274,16.2128315 5.4263546,16.0093897 5.95348837,16.0093897 Z" id="ico_cart"></path>
                </g>
            </g>
        </g>
    </g>
</svg>