<?xml version="1.0" encoding="UTF-8"?>
<svg width="30px" height="23px" viewBox="0 0 30 23" version="1.1" xmlns="http://www.w3.org/2000/svg" xmlns:xlink="http://www.w3.org/1999/xlink">
    <!-- Generator: Sketch 47 (45396) - http://www.bohemiancoding.com/sketch -->
    <title>Combined Shape</title>
    <desc>Created with Sketch.</desc>
    <defs></defs>
    <g id="Page-1" stroke="none" stroke-width="1" fill="none" fill-rule="evenodd" opacity="0.100000001">
        <g id="Topaz" transform="translate(-135.000000, -344.000000)" fill="#000000">
            <path d="M143.125,355.04 C144.687508,355.04 145.98958,355.576662 147.03125,356.649995 C148.07292,357.723338 148.59375,359.077775 148.59375,360.713333 C148.59375,362.451118 147.94271,363.933324 146.64062,365.16 C145.33854,366.386673 143.854175,367 142.1875,367 C140.208323,367 138.515632,366.258896 137.109375,364.776672 C135.703118,363.294436 135,361.326676 135,358.873333 C135,352.944412 137.760389,348.037794 143.28125,344.153333 C143.385417,344.153333 143.541666,344.102225 143.75,344 C143.854167,344 144.010416,344.102225 144.21875,344.306667 L147.65625,346.3 C147.86458,346.402225 147.96875,346.657775 147.96875,347.066667 C147.96875,347.475559 147.8125,347.731108 147.5,347.833333 C144.374984,349.571118 142.343755,352.024431 141.40625,355.193333 C141.614584,355.091108 142.187495,355.04 143.125,355.04 Z M159.53125,355.04 C161.09376,355.04 162.39583,355.576662 163.4375,356.649995 C164.47917,357.723338 165,359.077775 165,360.713333 C165,362.451118 164.37501,363.933324 163.125,365.16 C161.87499,366.386673 160.36459,367 158.59375,367 C156.61457,367 154.92188,366.258896 153.51562,364.776672 C152.10937,363.294436 151.40625,361.326676 151.40625,358.873333 C151.40625,352.944412 154.16664,348.037794 159.6875,344.153333 L159.84375,344.153333 C159.94792,344.153333 160,344.127779 160,344.076662 C160,344.025554 160.05208,344 160.15625,344 C160.36458,344 160.57292,344.102225 160.78125,344.306667 L164.0625,346.3 C164.375,346.402225 164.53125,346.657775 164.53125,347.066667 C164.53125,347.373333 164.32292,347.628892 163.90625,347.833333 C160.8854,349.468892 158.90625,351.922206 157.96875,355.193333 C158.17708,355.091108 158.69791,355.04 159.53125,355.04 Z" id="Combined-Shape"></path>
        </g>
    </g>
</svg>