<?xml version="1.0" encoding="UTF-8"?>
<svg width="24px" height="24px" viewBox="0 0 24 24" version="1.1" xmlns="http://www.w3.org/2000/svg" xmlns:xlink="http://www.w3.org/1999/xlink">
    <title>Artboard</title>
    <g id="Artboard" stroke="none" stroke-width="1" fill="none" fill-rule="evenodd">
        <g id="Group" transform="translate(1.000000, 1.000000)">
            <g id="Weak-color" opacity="0.239999995" fill="#999999">
                <path d="M11,22 C4.93469617,22 0,17.0653035 0,11 C0,4.93469617 4.93469617,0 11,0 C17.0653035,0 22,4.93469617 22,11 C22,17.0653035 17.0653035,22 11,22 Z M10.9999998,2.74999996 C6.45068865,2.74999996 2.74999996,6.45068865 2.74999996,10.9999998 C2.74999996,15.549311 6.45068865,19.25 10.9999998,19.25 C15.549311,19.25 19.25,15.549311 19.25,10.9999998 C19.25,6.45068865 15.549311,2.74999996 10.9999998,2.74999996 Z"></path>
            </g>
            <path d="M22,11 L19.25,11 C19.25,6.45068875 15.5493113,2.75 11,2.75 L11,0 C17.0653037,0 22,4.93469625 22,11 Z" id="Icon-color" fill-opacity="0.4" fill="#000000"></path>
        </g>
    </g>
</svg>