<?xml version="1.0" encoding="UTF-8"?>
<svg width="48px" height="48px" viewBox="0 0 48 48" version="1.1" xmlns="http://www.w3.org/2000/svg" xmlns:xlink="http://www.w3.org/1999/xlink">
    <title>m-color_disabled</title>
    <g id="↳-PrintBase" stroke="none" stroke-width="1" fill="none" fill-rule="evenodd">
        <g id="m-color_disabled" fill="#000000">
            <path d="M48,0 L48,48 L0,48 L0,0 L48,0 Z M24,14.015625 C21.15625,14.078125 18.796875,15.046875 16.921875,16.921875 C15.046875,18.796875 14.078125,21.15625 14.015625,24 C14.078125,26.84375 15.046875,29.203125 16.921875,31.078125 C18.796875,32.953125 21.15625,33.921875 24,33.984375 C26.84375,33.921875 29.203125,32.953125 31.078125,31.078125 C32.953125,29.203125 33.921875,26.84375 33.984375,24 C33.921875,21.15625 32.953125,18.796875 31.078125,16.921875 C29.203125,15.046875 26.84375,14.078125 24,14.015625 Z M27.609375,18.984375 L29.015625,20.390625 L25.40625,24 L29.015625,27.609375 L27.609375,29.015625 L24,25.40625 L20.390625,29.015625 L18.984375,27.609375 L22.59375,24 L18.984375,20.390625 L20.390625,18.984375 L24,22.59375 L27.609375,18.984375 Z"></path>
        </g>
    </g>
</svg>