<?xml version="1.0" encoding="UTF-8"?>
<svg width="25px" height="24px" viewBox="0 0 25 24" version="1.1" xmlns="http://www.w3.org/2000/svg" xmlns:xlink="http://www.w3.org/1999/xlink">
    <title>promotion-2</title>
    <g id="----Clothing" stroke="none" stroke-width="1" fill="none" fill-rule="evenodd">
        <g id="HD-Homepage---Store-template--Copy" transform="translate(-576.000000, -3896.000000)">
            <g id="promotion-2" transform="translate(576.276596, 3896.000000)">
                <g id="Background/Sharp" fill="#FFFFFF" fill-opacity="0">
                    <rect id="Background" x="0" y="0" width="24" height="24"></rect>
                </g>
                <path d="M23,11.02 C23.552,11.02 24,11.468 24,12.02 C24,18.6255 18.645,24 12.0625,24 C9.191,24 6.4925,22.991 4.361,21.1765 L4.361,21.1765 L4.361,21.9715 C4.361,22.5235 3.913,22.9715 3.361,22.9715 C2.809,22.9715 2.361,22.5235 2.361,21.9715 L2.361,21.9715 L2.361,18.6755 C2.361,18.6545 2.3655,18.6345 2.367,18.614 C2.3695,18.578 2.372,18.5425 2.378,18.507 C2.383,18.4755 2.3915,18.445 2.3995,18.4145 C2.408,18.3825 2.417,18.3515 2.4285,18.3205 C2.44,18.2905 2.4535,18.2615 2.468,18.233 C2.4825,18.204 2.4975,18.175 2.515,18.147 C2.5325,18.12 2.5515,18.0945 2.571,18.069 C2.5905,18.0435 2.61,18.0185 2.6325,17.9945 C2.6565,17.9685 2.683,17.9455 2.7095,17.9225 C2.7255,17.9085 2.7385,17.8925 2.7555,17.8795 C2.763,17.8735 2.7715,17.8705 2.779,17.865 C2.8085,17.844 2.8395,17.8265 2.871,17.8085 C2.8975,17.7935 2.9235,17.7775 2.951,17.765 C2.98,17.752 3.0105,17.743 3.0405,17.7325 C3.073,17.7215 3.1055,17.7095 3.1385,17.702 C3.166,17.6955 3.194,17.693 3.222,17.689 C3.26,17.6835 3.2975,17.6785 3.3355,17.6775 C3.344,17.6775 3.352,17.675 3.361,17.675 L3.361,17.675 L6.6435,17.675 C7.1955,17.675 7.6435,18.123 7.6435,18.675 C7.6435,19.227 7.1955,19.675 6.6435,19.675 L6.6435,19.675 L5.683,19.675 C7.453,21.17 9.687,22 12.0625,22 C17.542,22 22,17.523 22,12.02 C22,11.468 22.448,11.02 23,11.02 Z M11.9375,1.77635684e-15 C14.857,1.77635684e-15 17.5965,1.044 19.7445,2.917 L19.7445,2.917 L19.7445,2.0835 C19.7445,1.5315 20.1925,1.0835 20.7445,1.0835 C21.2965,1.0835 21.7445,1.5315 21.7445,2.0835 L21.7445,2.0835 L21.7445,5.3795 C21.7445,5.9315 21.2965,6.3795 20.7445,6.3795 L20.7445,6.3795 L17.4625,6.3795 C16.9105,6.3795 16.4625,5.9315 16.4625,5.3795 C16.4625,4.8275 16.9105,4.3795 17.4625,4.3795 L17.4625,4.3795 L18.379,4.3795 C16.599,2.851 14.341,2 11.9375,2 C6.458,2 2,6.477 2,11.98 C2,12.532 1.552,12.98 1,12.98 C0.448,12.98 8.8817842e-15,12.532 8.8817842e-15,11.98 C8.8817842e-15,5.3745 5.355,1.77635684e-15 11.9375,1.77635684e-15 Z" id="Icon" fill-opacity="0.6" fill="#000000"></path>
            </g>
        </g>
    </g>
</svg>