<?xml version="1.0" encoding="UTF-8"?>
<svg width="25px" height="24px" viewBox="0 0 25 24" version="1.1" xmlns="http://www.w3.org/2000/svg" xmlns:xlink="http://www.w3.org/1999/xlink">
    <title>promotion-3</title>
    <g id="----Clothing" stroke="none" stroke-width="1" fill="none" fill-rule="evenodd">
        <g id="HD-Homepage---Store-template--Copy" transform="translate(-959.000000, -3896.000000)">
            <g id="promotion-3" transform="translate(959.553191, 3896.000000)">
                <g id="Background/Sharp" fill="#FFFFFF" fill-opacity="0">
                    <rect id="Background" x="0" y="0" width="24" height="24"></rect>
                </g>
                <path d="M21.9749185,6.17757848 C21.9465012,5.54618834 21.9465012,4.94349776 21.9465012,4.34080717 C21.9465012,3.8529148 21.5770768,3.47982063 21.0939834,3.47982063 C17.5418256,3.47982063 14.8421857,2.44663677 12.597222,0.2367713 C12.2562149,-0.0789237668 11.7447041,-0.0789237668 11.403697,0.2367713 C9.1587333,2.44663677 6.4590934,3.47982063 2.90693564,3.47982063 C2.42384219,3.47982063 2.05441778,3.8529148 2.05441778,4.34080717 C2.05441778,4.94349776 2.05441778,5.54618834 2.02600052,6.17757848 C1.91233147,12.2044843 1.7418279,20.4699552 11.7162869,23.9426009 L12.0004595,24 L12.2846321,23.9426009 C22.2306738,20.4699552 22.0885875,12.2331839 21.9749185,6.17757848 Z M11.3184452,14.529148 C11.1479416,14.6726457 10.9490208,14.7587444 10.7216827,14.7587444 L10.6932654,14.7587444 C10.4659274,14.7587444 10.2385893,14.6439462 10.0965029,14.4717489 L7.45369757,11.5156951 L8.73247436,10.367713 L10.8069345,12.6923767 L15.410531,8.27264574 L16.5756387,9.53542601 L11.3184452,14.529148 Z" id="Icon" fill-opacity="0.6" fill="#000000"></path>
            </g>
        </g>
    </g>
</svg>