<?xml version="1.0" encoding="UTF-8"?>
<svg width="76px" height="12px" viewBox="0 0 76 12" version="1.1" xmlns="http://www.w3.org/2000/svg" xmlns:xlink="http://www.w3.org/1999/xlink">
    <title>rating-unrate</title>
    <g id="rating-unrate" stroke="none" stroke-width="1" fill="none" fill-rule="evenodd" stroke-opacity="0.2">
        <path d="M70,1.71255779 L68.8553474,5 L65.4498599,5 L68.2510965,7.19286984 L67.1769877,10.4990236 L70,8.44796379 L72.8230123,10.4990236 L71.7489035,7.19286984 L74.5501401,5 L71.1446526,5 L70,1.71255779 Z" id="Icon-color" stroke="#000000"></path>
        <path d="M54,1.71255779 L52.8553474,5 L49.4498599,5 L52.2510965,7.19286984 L51.1769877,10.4990236 L54,8.44796379 L56.8230123,10.4990236 L55.7489035,7.19286984 L58.5501401,5 L55.1446526,5 L54,1.71255779 Z" id="Icon-color" stroke="#000000"></path>
        <path d="M38,1.71255779 L36.8553474,5 L33.4498599,5 L36.2510965,7.19286984 L35.1769877,10.4990236 L38,8.44796379 L40.8230123,10.4990236 L39.7489035,7.19286984 L42.5501401,5 L39.1446526,5 L38,1.71255779 Z" id="Icon-color" stroke="#000000"></path>
        <path d="M22,1.71255779 L20.8553474,5 L17.4498599,5 L20.2510965,7.19286984 L19.1769877,10.4990236 L22,8.44796379 L24.8230123,10.4990236 L23.7489035,7.19286984 L26.5501401,5 L23.1446526,5 L22,1.71255779 Z" id="Icon-color" stroke="#000000"></path>
        <path d="M6,1.71255779 L4.85534742,5 L1.44985992,5 L4.25109646,7.19286984 L3.17698768,10.4990236 L6,8.44796379 L8.82301232,10.4990236 L7.74890354,7.19286984 L10.5501401,5 L7.14465258,5 L6,1.71255779 Z" id="Icon-color" stroke="#000000"></path>
    </g>
</svg>