<?xml version="1.0" encoding="UTF-8"?>
<svg width="16px" height="16px" viewBox="0 0 16 16" version="1.1" xmlns="http://www.w3.org/2000/svg" xmlns:xlink="http://www.w3.org/1999/xlink">
    <!-- Generator: Sketch 51.2 (57519) - http://www.bohemiancoding.com/sketch -->
    <title>gift</title>
    <desc>Created with Sketch.</desc>
    <defs></defs>
    <g stroke="none" stroke-width="1" fill="none" fill-rule="evenodd">
        <path d="M13.2705573,7.30590625 L13.2705573,13.529918 L2.87288455,13.529918 L2.87288455,7.30590625 L1.90414545,7.30590625 L1.90414545,14.0099102 C1.90414545,14.2750352 2.12096598,14.4899023 2.38850121,14.4899023 L13.754913,14.4899023 C14.0224483,14.4899023 14.2392688,14.2750352 14.2392688,14.0099102 L14.2392688,7.30590625 L13.2705573,7.30590625 Z" fill="#05CF7A" fill-rule="nonzero"></path>
        <path d="M14.642917,3.70574609 L1.48435575,3.70574609 C1.21682053,3.70574609 1,3.92061328 1,4.18573828 L1,7.32173828 C1,7.58686328 1.21682053,7.80173047 1.48435575,7.80173047 L14.6428894,7.80173047 C14.9104246,7.80173047 15.1272451,7.587 15.1272451,7.32173828 L15.1272451,4.18573828 C15.1272727,3.92061328 14.9104522,3.70574609 14.642917,3.70574609 Z M14.1585612,6.84191016 L1.9687391,6.84191016 L1.9687391,4.66592188 L14.1585612,4.66592188 L14.1585612,6.84191016 Z" fill="#05CF7A" fill-rule="nonzero"></path>
        <path d="M8.54023867,4.06430469 C8.50729343,3.93983594 7.70827475,1.01791016 5.37539847,1.01791016 C4.36049741,1.01791016 3.53482454,1.83614453 3.53482454,2.84190234 C3.53482454,3.84766016 4.35324062,4.66589453 5.35925696,4.66589453 L8.07169332,4.66589453 C8.22168523,4.66589453 8.36345462,4.59693359 8.45514393,4.47916406 C8.54683324,4.36139453 8.57817812,4.20813281 8.54023867,4.06430469 Z M5.35928455,3.70591016 C4.87945394,3.70591016 4.50356364,3.32637891 4.50356364,2.84190234 C4.50356364,2.37358594 4.90285224,1.97789453 5.37542607,1.97789453 C6.4382826,1.97789453 7.07472727,3.01550781 7.38069862,3.70588281 L5.35928455,3.70588281 L5.35928455,3.70591016 Z" fill="#05CF7A" fill-rule="nonzero"></path>
        <path d="M10.7679882,1.01791016 C8.43513949,1.01791016 7.63609322,3.93983594 7.60314798,4.06430469 C7.56504297,4.20813281 7.59652582,4.36142188 7.68824272,4.47919141 C7.77995962,4.59696094 7.92153587,4.66592187 8.07169332,4.66592187 L10.7841297,4.66592187 C11.790146,4.66592187 12.6085621,3.8476875 12.6085621,2.84192969 C12.6085897,1.83614453 11.7829168,1.01791016 10.7679882,1.01791016 Z M10.7841573,3.70591016 L8.76081175,3.70591016 C9.06452053,3.01550781 9.69903374,1.97792188 10.7681813,1.97792188 C11.2407551,1.97792188 11.6400437,2.37361328 11.6400437,2.84192969 C11.6400162,3.32637891 11.2641534,3.70591016 10.7841573,3.70591016 Z" fill="#05CF7A" fill-rule="nonzero"></path>
        <rect fill="#05CF7A" fill-rule="nonzero" x="7.58733757" y="4.18590234" width="1" height="9.82400781"></rect>
    </g>
</svg>