<?xml version="1.0" encoding="UTF-8"?>
<svg width="82px" height="82px" viewBox="0 0 82 82" version="1.1" xmlns="http://www.w3.org/2000/svg" xmlns:xlink="http://www.w3.org/1999/xlink">
    <g stroke="none" stroke-width="1" fill="none" fill-rule="evenodd">
        <g transform="translate(1.000000, 1.000000)" fill="#7B78FF">
            <polygon points="7.42084103 16.7237744 8.38125128 15.6878769 13.2567385 18.4501333 10.2384821 13.6841846 11.0150974 12.8460308 16.0403282 15.4925949 12.921559 10.7890051 13.7970462 9.84418462 17.9804308 16.2569026 17.0413538 17.2702359 12.0764308 14.6655179 15.0216615 19.4491077 14.124841 20.4164923"></polygon>
            <polygon points="15.8553436 8.46933333 19.7109333 5.88348718 20.3185231 6.78933333 17.6100103 8.60594872 18.7435487 10.2966154 20.9174974 8.8385641 21.495959 9.70133333 19.3220103 11.1589744 20.5310359 12.9620513 23.3860103 11.0473846 23.9936 11.9532308 19.9911385 14.6371282"></polygon>
            <path d="M23.6363897,8.91827692 L21.8780308,4.66678974 L23.1641846,4.13509744 L24.8827487,8.29058462 C25.4025436,9.54761026 26.0199795,9.8992 27.0374154,9.47827692 C28.0257231,9.06966154 28.3420308,8.42186667 27.7545436,7.00155897 L26.0720821,2.9326359 L27.3578256,2.40053333 L29.0841846,6.57530256 C29.8263385,8.3697641 29.2659282,9.75889231 27.4521846,10.5092513 C25.734441,11.2194051 24.3666462,10.6840205 23.6363897,8.91827692"></path>
            <path d="M33.0803282,4.75602051 C33.9779692,4.58494359 34.3734564,4.05489231 34.2196103,3.24914872 L34.2118154,3.20853333 C34.0460718,2.34166154 33.4721231,2.10248205 32.6052513,2.26781538 L31.6161231,2.45694359 L32.0912,4.94473846 L33.0803282,4.75602051 Z M30.0592,1.66514872 L32.4050462,1.21755897 C34.0366359,0.906174359 35.2452513,1.42555897 35.5373538,2.95540513 L35.5451487,2.99602051 C35.8393026,4.53571282 34.8579692,5.43130256 33.2977641,5.72914872 L32.2778667,5.92402051 L32.8075077,8.69735385 L31.4512,8.9566359 L30.0592,1.66514872 Z"></path>
            <polygon points="37.5696821 0.41025641 39.4170667 0.479179487 41.1791179 5.61723077 43.2784 0.624 45.1048615 0.692102564 44.8271179 8.11323077 43.4470154 8.06153846 43.6566564 2.45661538 41.2361436 7.97866667 40.7897846 7.96225641 38.7471179 2.27323077 38.5374769 7.87774359 37.2923487 7.83138462"></polygon>
            <path d="M46.8112821,5.68869744 L48.0925128,1.27105641 L49.4287179,1.65833846 L48.1766154,5.97669744 C47.7975385,7.28295385 48.0605128,7.94264615 49.1173333,8.24951795 C50.1446154,8.5473641 50.7961026,8.23885128 51.2244103,6.76315897 L52.4502564,2.53505641 L53.7868718,2.92233846 L52.5286154,7.26038974 C51.9878974,9.12500513 50.6828718,9.86018462 48.7981538,9.31331282 C47.0127179,8.79597949 46.2791795,7.5233641 46.8112821,5.68869744"></path>
            <path d="M53.5656615,8.33415385 L54.7385846,8.95897436 C54.4694564,9.66297436 54.4423795,10.3542564 55.5513026,10.9450256 C56.2749949,11.3310769 57.0036103,11.2010256 57.3256615,10.5963077 C57.6477128,9.99158974 57.4676103,9.60102564 56.4973538,8.86051282 C55.0425846,7.81476923 54.5539692,6.9425641 55.2083282,5.71466667 C55.7794051,4.64225641 57.1258667,4.32430769 58.4912,5.05210256 C59.9024821,5.80369231 60.4038154,6.8945641 59.8635077,8.21846154 L58.7451487,7.62276923 C58.9925333,6.872 58.7541744,6.36861538 58.0029949,5.96820513 C57.260841,5.57271795 56.6852513,5.72533333 56.4165333,6.22912821 C56.1334564,6.76082051 56.2118154,7.14358974 57.2604308,7.91405128 C58.6877128,8.94502564 59.2505846,9.80984615 58.5523282,11.1206154 C57.9472,12.2570256 56.5113026,12.6332308 55.0630974,11.8615385 C53.2760205,10.9093333 52.9978667,9.62030769 53.5656615,8.33415385"></path>
            <polygon points="62.7796103 7.78888205 63.9020718 8.6110359 59.5156103 14.5995487 58.393559 13.7778051"></polygon>
            <path d="M63.0949333,12.5803487 L63.1540103,12.5220923 C64.7408821,10.9512205 66.9291897,10.9479385 68.3827282,12.4166564 C69.5810872,13.6269128 69.9035487,15.1633231 68.7802667,16.5085538 L67.7940103,15.5124513 C68.3856,14.7075282 68.3601641,13.9584 67.6077538,13.1981949 C66.6871385,12.2681436 65.3648821,12.3789128 64.1837538,13.5477333 L64.1250872,13.6064 C62.9365744,14.7826051 62.7979077,16.0449641 63.7624205,17.0189128 C64.4857026,17.7499897 65.3661128,17.9013744 66.2141128,17.2667077 L67.1634462,18.2262974 C65.7402667,19.3278359 64.2071385,19.0628103 62.9652923,17.8082462 C61.3287795,16.1549128 61.4711385,14.1873231 63.0949333,12.5803487"></path>
            <path d="M73.8136615,30.5548718 L78.3256615,29.6588718 L78.5964308,31.0237949 L74.1865846,31.8992821 C72.8524308,32.1643077 72.3872,32.7013333 72.6017641,33.7807179 C72.8101744,34.8297436 73.3833026,35.2662564 74.8909949,34.9671795 L79.2093538,34.1101538 L79.4805333,35.4746667 L75.0497641,36.3542564 C73.1453538,36.7325128 71.8916103,35.912 71.5100718,33.9870769 C71.1478154,32.1638974 71.9400205,30.9269744 73.8136615,30.5548718"></path>
            <polygon points="79.7275487 38.3499487 79.6869333 40 74.2436513 42.9915897 79.6098051 43.1245128 79.5786256 44.3803077 72.1574974 44.1969231 72.1931897 42.7647179 77.9634462 39.5630769 72.2756513 39.422359 72.3064205 38.1665641"></polygon>
            <polygon points="79.1346051 47.1756718 78.8314256 48.5225436 72.6632205 47.1346462 71.9678359 50.2242872 70.8941949 49.9826462 71.892759 45.5461333"></polygon>
            <polygon points="77.4691282 53.4561231 76.9883077 54.7623795 70.0192821 52.1974564 70.5001026 50.8912"></polygon>
            <polygon points="76.046441 57.3892103 75.1044923 58.9789538 69.7506462 58.0772103 73.1369026 62.302441 72.2060308 63.8745436 65.8187487 60.0923897 66.5223385 58.9038769 71.3461333 61.7604923 67.6489026 57.0015179 67.8765949 56.6171077 73.8482872 57.5352615 69.0244923 54.6790564 69.659159 53.6066462"></polygon>
            <polygon points="70.3505231 65.9693538 69.4368821 67.0187897 63.8377026 62.1445333 64.7513436 61.0950974"></polygon>
            <polygon points="65.9038359 69.0238359 67.4558359 67.6609641 68.1750154 68.4802462 64.0252718 72.1233231 63.3065026 71.3044513 64.8585026 69.9415795 60.6812718 65.1838359 61.7261949 64.2656821"></polygon>
            <polygon points="62.2964513 73.3311179 58.3255795 75.7348103 57.7606564 74.8022974 60.5499897 73.1140923 59.4964513 71.3729641 57.2576821 72.7276308 56.7198359 71.8394256 58.9586051 70.484759 57.8345026 68.6279385 54.8941949 70.4076308 54.3296821 69.4751179 58.4515282 66.9803487"></polygon>
            <path d="M51.8313026,71.652841 C50.2686359,72.2165333 49.8407385,73.3865846 50.3978667,74.9291487 L50.4261744,75.0075077 C50.9685333,76.5115077 51.9802256,77.172841 53.620841,76.580841 L54.3724308,76.3096615 L52.5927385,71.3779692 L51.8313026,71.652841 Z M56.0417641,76.8659692 L53.9227897,77.6306872 C51.4907897,78.5086359 49.8087385,77.5482256 49.0756103,75.5170462 L49.0440205,75.4292513 C48.3108923,73.3980718 48.9709949,71.5260718 51.4222769,70.641559 L53.521559,69.8838154 L56.0417641,76.8659692 Z"></path>
            <polygon points="45.0634667 79.9124513 40.4353641 80.2648615 40.3524923 79.1776821 43.6033641 78.9298872 43.4486974 76.900759 40.8398769 77.0997333 40.7606974 76.0638359 43.3703385 75.8652718 43.2054154 73.7011692 39.7781333 73.9625026 39.6952615 72.8753231 44.4993641 72.5089641"></polygon>
            <path d="M35.9979897,76.3900308 C35.0888615,76.2960821 34.5575795,76.6903385 34.4734769,77.5063385 L34.4693744,77.5477744 C34.3791179,78.4257231 34.8603487,78.8199795 35.7382974,78.9102359 L36.7401436,79.0136205 L36.9998359,76.4930051 L35.9979897,76.3900308 Z M38.0041436,80.2189538 L35.628759,79.9740308 C33.9758359,79.8037744 32.9670154,78.9586462 33.1266051,77.4091077 L33.1307077,77.3680821 C33.2915282,75.8082872 34.4886564,75.2322872 36.0689641,75.395159 L37.1019897,75.5014154 L37.3912205,72.6919795 L38.7651692,72.8335179 L38.0041436,80.2189538 Z"></path>
            <polygon points="30.9348923 79.1993026 29.5843282 78.8657641 31.3656615 71.6592 32.7162256 71.9931487"></polygon>
            <path d="M28.8120615,74.8856205 L28.7796513,74.9619282 C27.9045744,77.0156718 25.8803692,77.846441 23.9796513,77.0365949 C22.4128821,76.3695179 21.5332923,75.0694154 22.0641641,73.3992615 L23.3536,73.9485949 C23.1103179,74.9172103 23.4176,75.6006974 24.4013949,76.0203897 C25.6050872,76.5328 26.7870359,75.9301333 27.4381128,74.4015179 L27.4705231,74.3256205 C28.1257026,72.7875692 27.7769846,71.5666462 26.5158564,71.0296205 C25.5702154,70.6263385 24.6980103,70.8195692 24.1531897,71.7274667 L22.9113436,71.1982359 C23.8118564,69.6409026 25.3314462,69.3057231 26.955241,69.9978256 C29.0951385,70.9094154 29.707241,72.7838769 28.8120615,74.8856205"></path>
            <polygon points="16.6570256 72.8219077 15.5755897 71.9636513 19.5058462 67.0114462 17.0258462 65.0430359 17.7097436 64.1810872 21.2715897 67.0077538"></polygon>
            <polygon points="11.7351385 68.6027487 10.7661128 67.6045949 16.0924718 62.4349538 17.0614974 63.4331077"></polygon>
            <path d="M12.6526359,59.7726359 C12.1106872,59.0243282 11.5244308,58.9234051 10.9024821,59.3738667 L10.868841,59.3984821 C10.2468923,59.8493538 10.1853538,60.4192 10.7822769,61.2429949 L11.5133538,62.2518154 L13.4386872,60.8573538 L12.6526359,59.7726359 Z M10.0864821,61.8752 C9.55027692,61.1350974 9.07437949,61.044841 8.4606359,61.4891487 L8.42699487,61.5133538 C7.85550769,61.9277128 7.84935385,62.4319179 8.36668718,63.1469949 L9.02473846,64.0548923 L10.7564308,62.7999179 L10.0864821,61.8752 Z M9.0177641,65.7266872 L7.45837949,63.5744821 C6.5632,62.3383795 6.50412308,61.2659692 7.59704615,60.4737641 L7.63068718,60.449559 C8.22761026,60.0171487 8.89304615,59.9449436 9.5966359,60.4737641 C9.18268718,59.5301744 9.34802051,58.820841 10.1467897,58.2423795 L10.1804308,58.2177641 C11.2983795,57.4075077 12.3974564,57.7394051 13.3537641,59.0596103 L15.028841,61.3709949 L9.0177641,65.7266872 Z"></path>
            <path d="M6.74498462,55.5426872 C6.36057436,54.7024821 5.79893333,54.4230974 5.08139487,54.7508923 L5.04365128,54.7685333 C4.26949744,55.1229949 4.2256,55.724841 4.59236923,56.5273026 L5.05472821,57.5373538 L7.20693333,56.5527385 L6.74498462,55.5426872 Z M4.65718974,59.2378667 L3.62006154,56.9720205 C2.94190769,55.4901744 3.07113846,54.1753026 4.4496,53.5447385 L4.48734359,53.5275077 C5.54457436,53.0438154 6.38518974,53.4581744 6.98621538,54.1995077 L9.03544615,50.9670974 L9.65739487,52.3262769 L7.73657436,55.3400205 L8.1041641,56.1424821 L10.831959,54.8940718 L11.4067282,56.1494564 L4.65718974,59.2378667 Z"></path>
            <path d="M5.69669744,49.2842667 L5.21464615,47.147241 L2.09177436,48.9691897 L5.69669744,49.2842667 Z M1.16828718,50.0186256 L0.770748718,48.2561641 L7.47351795,44.2323692 L7.78859487,45.6301128 L6.1262359,46.6114462 L6.74982564,49.3769846 L8.67064615,49.5394462 L8.95618462,50.8054974 L1.16828718,50.0186256 Z"></path>
            <path d="M3.43827692,41.0162462 C3.42309744,40.0919385 3.0206359,39.6102974 2.23130256,39.6230154 L2.18986667,39.6238359 C1.33817436,39.6377846 1.05591795,40.1719385 1.07068718,41.0548103 L1.08832821,42.1661949 L3.45632821,42.1276308 L3.43827692,41.0162462 Z M0.0413538462,43.564759 L0.000738461538,41.0724513 C-0.0255179487,39.4416821 0.620225641,38.2888615 2.13653333,38.2638359 L2.17796923,38.2630154 C3.34145641,38.2441436 3.94494359,38.9616821 4.19889231,39.8818872 L7.37427692,37.7424 L7.39848205,39.2377846 L4.4286359,41.228759 L4.44299487,42.1116308 L7.44443077,42.0628103 L7.46699487,43.4437333 L0.0413538462,43.564759 Z"></path>
            <polygon points="4.60693333 34.9362872 0.0477538462 36.6548513 0.304574359 35.1500308 3.61534359 34.0193641 0.859651282 31.8954667 1.08693333 30.5650051 4.8510359 33.5668513 8.01370256 34.1063385 7.77985641 35.4778256"></polygon>
            <animateTransform attributeType="xml" attributeName="transform" type="rotate" from="0 40 40" to="-360 40 40" dur="4s" additive="sum" repeatCount="indefinite" />
        </g>
        <polygon fill="#FFFFFF" points="31 52 24.64 31.08 30.72 31.08 34.44 45.16 38.48 31.08 43.24 31.08 46.92 45.16 50.88 31.08 56.44 31.08 49.84 52 44.16 52 40.6 38.88 36.76 52"></polygon>
        <path d="M57.4799999,52.36 C55.4799999,52.36 53.9199999,50.8 53.9199999,48.84 C53.9199999,46.92 55.4799999,45.36 57.4799999,45.36 C59.5199999,45.36 61.0799999,46.92 61.0799999,48.84 C61.0799999,50.8 59.5199999,52.36 57.4799999,52.36 Z" fill="#3633C0"></path>
    </g>
</svg>