<?xml version="1.0" encoding="UTF-8"?>
<svg width="24px" height="24px" viewBox="0 0 24 24" version="1.1" xmlns="http://www.w3.org/2000/svg" xmlns:xlink="http://www.w3.org/1999/xlink">
    <!-- Generator: Sketch 51.2 (57519) - http://www.bohemiancoding.com/sketch -->
    <title>player-next</title>
    <desc>Created with Sketch.</desc>
    <defs></defs>
    <g stroke="none" stroke-width="1" fill="none" fill-rule="evenodd">
        <g transform="translate(-280.000000, -94.000000)">
            <g transform="translate(280.000000, 94.000000)">
                <path d="M22.7384786,3.23893518 C22.5902948,3.0907514 22.414744,3.01663902 22.2119899,3.01663902 L20.7149117,3.01663902 C20.5121985,3.01663902 20.3366886,3.0907514 20.1885868,3.23893518 C20.0402801,3.38720091 19.9662496,3.56266985 19.9662496,3.76542394 L19.9662496,11.6958171 C19.9271245,11.6101515 19.8765282,11.5360801 19.813969,11.4736028 L11.5092449,3.16883774 C11.361102,3.02073589 11.2364753,2.97001664 11.1349548,3.01688483 C11.0335983,3.06363012 10.98292,3.18842078 10.98292,3.3911339 L10.98292,11.6958171 C10.9439997,11.6101515 10.8933214,11.5360801 10.8309671,11.4736028 L2.52632488,3.16883774 C2.3781411,3.02073589 2.25343238,2.97001664 2.15207581,3.01688483 C2.05067828,3.06363012 2,3.18842078 2,3.3911339 L2,20.6087215 C2,20.8114346 2.05084216,20.9363892 2.15219872,20.9832164 C2.25355528,21.0299207 2.378264,20.9791605 2.52644779,20.8308128 L10.83109,12.5261297 C10.8933624,12.4561552 10.9441636,12.3819608 10.9830429,12.3040384 L10.9830429,20.6087215 C10.9830429,20.8114346 11.0337212,20.9362253 11.1350777,20.9829296 C11.2364343,21.0296339 11.3612249,20.9788328 11.5093678,20.830649 L19.8140919,12.5259658 C19.8764872,12.4558684 19.9272474,12.3815921 19.9662496,12.3035877 L19.9662496,20.2339399 C19.9662496,20.436653 20.040403,20.61204 20.1885868,20.7602647 C20.3366476,20.9084485 20.5121576,20.9825199 20.7149117,20.9825199 L22.2121537,20.9825199 C22.414703,20.9825199 22.5903768,20.9084485 22.7386015,20.7602647 C22.8866624,20.612081 22.9608567,20.436694 22.9608567,20.2339399 L22.9608567,3.76542394 C22.9606519,3.56238307 22.8866624,3.387078 22.7384786,3.23893518 Z" fill="#FFFFFF" fill-rule="nonzero"></path>
            </g>
        </g>
    </g>
</svg>