<?xml version="1.0" encoding="UTF-8"?>
<svg width="24px" height="24px" viewBox="0 0 24 24" version="1.1" xmlns="http://www.w3.org/2000/svg" xmlns:xlink="http://www.w3.org/1999/xlink">
    <!-- Generator: Sketch 51.2 (57519) - http://www.bohemiancoding.com/sketch -->
    <title>player-mute</title>
    <desc>Created with Sketch.</desc>
    <defs></defs>
    <g stroke="none" stroke-width="1" fill="none" fill-rule="evenodd">
        <g transform="translate(-208.000000, -172.000000)">
            <g transform="translate(208.000000, 172.000000)">
                <path d="M10.4453361,4.70848739 C10.6534034,4.70848739 10.8331933,4.78462185 10.9852521,4.93647059 C11.1370588,5.08840336 11.2130672,5.26848739 11.2130672,5.47638655 L11.2130672,18.5282353 C11.2130672,18.7360504 11.1370588,18.9161765 10.985084,19.0680252 C10.8331513,19.2197479 10.6532353,19.2959244 10.4451681,19.2959244 C10.2373109,19.2959244 10.0573529,19.2197059 9.90537815,19.0680252 L5.91067227,15.0731513 L2.76789916,15.0731513 C2.56,15.0731513 2.38004202,14.9971008 2.22798319,14.8451261 C2.0760084,14.6932353 2,14.5132353 2,14.3052941 L2,9.6989916 C2,9.49109244 2.0760084,9.31105042 2.22798319,9.15911765 C2.37991597,9.00735294 2.55983193,8.93121849 2.76789916,8.93121849 L5.91084034,8.93121849 L9.90554622,4.93647059 C10.057563,4.78462185 10.237521,4.70848739 10.4453361,4.70848739 Z M15.3096218,13.6994118 C14.9697059,14.2232353 14.520084,14.5972269 13.96,14.8215546 C13.880042,14.8612605 13.779958,14.8813866 13.660042,14.8813866 C13.4522689,14.8813866 13.2721008,14.8071429 13.1202521,14.6592017 C12.9685294,14.5113025 12.8922269,14.3295378 12.8922269,14.1134034 C12.8922269,13.9454622 12.9405462,13.8035294 13.0364286,13.6873529 C13.1323529,13.5715966 13.2482353,13.4713866 13.3844118,13.3876891 C13.5201261,13.3037395 13.6561765,13.2117227 13.7923109,13.1117647 C13.9283613,13.0115546 14.0442437,12.8697899 14.1401261,12.6857143 C14.2360504,12.5016807 14.2840756,12.2737395 14.2840756,12.0018487 C14.2840756,11.7298739 14.2357563,11.5019748 14.1401261,11.3179412 C14.0442437,11.1340336 13.9283613,10.9921008 13.7923109,10.8921008 C13.6561765,10.7921429 13.5201261,10.7001261 13.3844118,10.6161765 C13.2482353,10.5322689 13.1323529,10.4322689 13.0364286,10.3162185 C12.9402521,10.2002101 12.8922269,10.0582353 12.8922269,9.89029412 C12.8922269,9.67441176 12.9685714,9.49243697 13.1202521,9.3444958 C13.2721429,9.19659664 13.4523109,9.12256303 13.660042,9.12256303 C13.78,9.12256303 13.880084,9.14264706 13.96,9.18252101 C14.520084,9.39852941 14.9695378,9.77029412 15.3096218,10.2981092 C15.6496639,10.8260084 15.8194958,11.3943697 15.8194958,12.0021429 C15.8194958,12.609916 15.6496639,13.1755882 15.3096218,13.6994118 Z M17.8709244,15.3909244 C17.1912185,16.4266387 16.2910924,17.1803782 15.1717227,17.652395 C15.0678992,17.6921008 14.9678151,17.712395 14.8717647,17.712395 C14.6557983,17.712395 14.4720168,17.6363025 14.320042,17.4841597 C14.1682353,17.332437 14.0921429,17.1522689 14.0921429,16.9443697 C14.0921429,16.632479 14.2481513,16.3965546 14.5601681,16.2365126 C15.0079412,16.0045798 15.3117227,15.8286975 15.4716387,15.7086555 C16.0633193,15.2768487 16.5253361,14.7352101 16.8571849,14.0832773 C17.1890756,13.4314706 17.355,12.7377311 17.355,12.0019328 C17.355,11.2661765 17.1890336,10.572395 16.8571849,9.92054622 C16.5252941,9.2687395 16.0636134,8.72701681 15.4716387,8.29508403 C15.3117647,8.17516807 15.0079412,7.9992437 14.5601681,7.76739496 C14.2481513,7.60731092 14.0921429,7.37138655 14.0921429,7.05945378 C14.0921429,6.85151261 14.1682353,6.67159664 14.320042,6.51966387 C14.4720588,6.36768908 14.6522269,6.29168067 14.8601261,6.29168067 C14.9638235,6.29168067 15.0678992,6.31172269 15.1717227,6.35163866 C16.2910924,6.82357143 17.1912185,7.57726891 17.8709244,8.61277311 C18.5507143,9.64894958 18.8907983,10.7784034 18.8907983,12.0021008 C18.8907983,13.2257563 18.5507563,14.3553782 17.8709244,15.3909244 Z M20.4379832,6.93403361 C21.4538235,8.47327731 21.9614286,10.162605 21.9614286,12.0019328 C21.9614286,13.8412605 21.4536975,15.5307983 20.4379832,17.0702101 C19.422395,18.6097059 18.0706303,19.7435294 16.3831513,20.4710504 C16.2793277,20.5111765 16.1752521,20.5311765 16.0715546,20.5311765 C15.8636134,20.5311765 15.6834454,20.4551261 15.5317647,20.3031513 C15.3796218,20.1512605 15.3035294,19.9712605 15.3035294,19.7633193 C15.3035294,19.4754622 15.4595798,19.2393697 15.7715966,19.0555882 C15.8276891,19.0233613 15.9172689,18.9813866 16.0413445,18.9296218 C16.1652941,18.877605 16.2551681,18.8357563 16.3113866,18.8039916 C16.6792017,18.6039496 17.0071849,18.400042 17.2953361,18.1921429 C18.2788235,17.4647059 19.0468067,16.5568487 19.5985294,15.4690756 C20.1503782,14.3814286 20.4261345,13.2260924 20.4261345,12.0021849 C20.4261345,10.7784874 20.1503782,9.62289916 19.5985294,8.53529412 C19.0466807,7.44760504 18.2788235,6.53987395 17.2953361,5.81222689 C17.0071849,5.60428571 16.6792017,5.4002521 16.3113866,5.20046218 C16.2551681,5.16844538 16.1652941,5.12647059 16.0413445,5.07470588 C15.9172689,5.02256303 15.8276891,4.98058824 15.7715966,4.94882353 C15.4595798,4.76491597 15.3035294,4.52886555 15.3035294,4.2410084 C15.3035294,4.03310924 15.3796218,3.85298319 15.5317647,3.70109244 C15.6834874,3.54928571 15.8636555,3.47319328 16.0715546,3.47319328 C16.1752521,3.47319328 16.2793277,3.49315126 16.3831513,3.53306723 C18.0706303,4.26084034 19.422395,5.39462185 20.4379832,6.93403361 Z" fill="#FFFFFF" fill-rule="nonzero"></path>
            </g>
        </g>
    </g>
</svg>