<?xml version="1.0" encoding="UTF-8"?>
<svg width="24px" height="24px" viewBox="0 0 24 24" version="1.1" xmlns="http://www.w3.org/2000/svg" xmlns:xlink="http://www.w3.org/1999/xlink">
    <!-- Generator: Sketch 51.2 (57519) - http://www.bohemiancoding.com/sketch -->
    <title>player-unmute</title>
    <desc>Created with Sketch.</desc>
    <defs></defs>
    <g stroke="none" stroke-width="1" fill="none" fill-rule="evenodd">
        <g transform="translate(-242.000000, -172.000000)">
            <g transform="translate(242.000000, 172.000000)">
                <path d="M10.4453361,4.70848739 C10.6534034,4.70848739 10.8331933,4.78462185 10.9852521,4.93647059 C11.1370588,5.08840336 11.2130672,5.26848739 11.2130672,5.47638655 L11.2130672,18.5282353 C11.2130672,18.7360504 11.1370588,18.9161765 10.985084,19.0680252 C10.8331513,19.2197479 10.6532353,19.2959244 10.4451681,19.2959244 C10.2373109,19.2959244 10.0573529,19.2197059 9.90537815,19.0680252 L5.91067227,15.0731513 L2.76789916,15.0731513 C2.56,15.0731513 2.38004202,14.9971008 2.22798319,14.8451261 C2.0760084,14.6932353 2,14.5132353 2,14.3052941 L2,9.6989916 C2,9.49109244 2.0760084,9.31105042 2.22798319,9.15911765 C2.37991597,9.00735294 2.55983193,8.93121849 2.76789916,8.93121849 L5.91084034,8.93121849 L9.90554622,4.93647059 C10.057563,4.78462185 10.237521,4.70848739 10.4453361,4.70848739 Z M17.4646447,11.4246952 L19.7185475,9.1707923 C20.0114407,8.87789908 20.4863145,8.87789908 20.7792077,9.1707923 C21.0721009,9.46368552 21.0721009,9.93855926 20.7792077,10.2314525 L18.5253048,12.4853553 L20.8234019,14.7834524 C21.1162951,15.0763456 21.1162951,15.5512193 20.8234019,15.8441125 C20.5305087,16.1370058 20.0556349,16.1370058 19.7627417,15.8441125 L17.4646447,13.5460155 L15.2107418,15.7999184 C14.9178486,16.0928116 14.4429748,16.0928116 14.1500816,15.7999184 C13.8571884,15.5070252 13.8571884,15.0321514 14.1500816,14.7392582 L16.4039845,12.4853553 L14.1058875,10.1872583 C13.8129942,9.89436508 13.8129942,9.41949135 14.1058875,9.12659813 C14.3987807,8.83370491 14.8736544,8.83370491 15.1665476,9.12659813 L17.4646447,11.4246952 Z" fill="#FFFFFF" fill-rule="nonzero"></path>
            </g>
        </g>
    </g>
</svg>