<?xml version="1.0" encoding="UTF-8"?>
<svg width="1348px" height="1348px" viewBox="0 0 1348 1348" version="1.1" xmlns="http://www.w3.org/2000/svg" xmlns:xlink="http://www.w3.org/1999/xlink">
    <!-- Generator: Sketch 51.2 (57519) - http://www.bohemiancoding.com/sketch -->
    <title>player-oval</title>
    <desc>Created with Sketch.</desc>
    <defs>
        <path d="M673.453635,921.942544 C536.217001,921.942544 424.964727,810.69027 424.964727,673.453635 C424.964727,536.217001 536.217001,424.964727 673.453635,424.964727 C810.69027,424.964727 921.942544,536.217001 921.942544,673.453635 C921.942544,810.69027 810.69027,921.942544 673.453635,921.942544 Z M673.453635,920.753831 C810.033762,920.753831 920.753831,810.033762 920.753831,673.453635 C920.753831,536.873508 810.033762,426.153439 673.453635,426.153439 C536.873508,426.153439 426.153439,536.873508 426.153439,673.453635 C426.153439,810.033762 536.873508,920.753831 673.453635,920.753831 Z M674.32302,1031.85415 C476.864028,1031.85415 316.791887,871.782012 316.791887,674.32302 C316.791887,476.864028 476.864028,316.791887 674.32302,316.791887 C871.782012,316.791887 1031.85415,476.864028 1031.85415,674.32302 C1031.85415,871.782012 871.782012,1031.85415 674.32302,1031.85415 Z M674.32302,1030.66544 C871.125504,1030.66544 1030.66544,871.125504 1030.66544,674.32302 C1030.66544,477.520535 871.125504,317.9806 674.32302,317.9806 C477.520535,317.9806 317.9806,477.520535 317.9806,674.32302 C317.9806,871.125504 477.520535,1030.66544 674.32302,1030.66544 Z M674,1179.79718 C394.655932,1179.79718 168.202822,953.344068 168.202822,674 C168.202822,394.655932 394.655932,168.202822 674,168.202822 C953.344068,168.202822 1179.79718,394.655932 1179.79718,674 C1179.79718,953.344068 953.344068,1179.79718 674,1179.79718 Z M674,1178.60847 C952.68756,1178.60847 1178.60847,952.68756 1178.60847,674 C1178.60847,395.31244 952.68756,169.391534 674,169.391534 C395.31244,169.391534 169.391534,395.31244 169.391534,674 C169.391534,952.68756 395.31244,1178.60847 674,1178.60847 Z M673.67698,1347.24413 C301.676113,1347.24413 0.1098267,1045.67785 0.1098267,673.67698 C0.1098267,301.676113 301.676113,0.1098267 673.67698,0.1098267 C1045.67785,0.1098267 1347.24413,301.676113 1347.24413,673.67698 C1347.24413,1045.67785 1045.67785,1347.24413 673.67698,1347.24413 Z M673.67698,1346.05542 C1045.02134,1346.05542 1346.05542,1045.02134 1346.05542,673.67698 C1346.05542,302.332621 1045.02134,1.29853922 673.67698,1.29853922 C302.332621,1.29853922 1.29853922,302.332621 1.29853922,673.67698 C1.29853922,1045.02134 302.332621,1346.05542 673.67698,1346.05542 Z" id="path-1"></path>
        <filter id="pictureFilter">
            <feGaussianBlur stdDeviation="40"/>
        </filter> 
    </defs>
    <g stroke="none" stroke-width="1" fill="none" fill-rule="evenodd">
        <mask id="mask-2" fill="white">
            <use xlink:href="#path-1"></use>
        </mask>
        <use fill-opacity="0.1" fill="#FFFFFF" fill-rule="nonzero" xlink:href="#path-1"></use>
        <path d="M398.695312,-1.16529009e-12 L674,674 L-2.46132004e-11,378.210938 L-2.46132004e-11,-1.67688086e-12 L398.695312,-1.16529009e-12 Z M1348,930.09375 L1348,1348 L939.304687,1348 L674,674 L1348,930.09375 Z" fill="#3633C0" mask="url(#mask-2)" filter="url(#pictureFilter)"></path>
    </g>
</svg>