<?xml version="1.0" encoding="UTF-8"?>
<svg width="24px" height="24px" viewBox="0 0 24 24" version="1.1" xmlns="http://www.w3.org/2000/svg" xmlns:xlink="http://www.w3.org/1999/xlink">
    <!-- Generator: Sketch 51.2 (57519) - http://www.bohemiancoding.com/sketch -->
    <title>player-prev</title>
    <desc>Created with Sketch.</desc>
    <defs></defs>
    <g stroke="none" stroke-width="1" fill="none" fill-rule="evenodd">
        <g transform="translate(-135.000000, -94.000000)">
            <g transform="translate(135.000000, 94.000000)">
                <path d="M21.7384786,3.23893518 C21.5902948,3.0907514 21.414744,3.01663902 21.2119899,3.01663902 L19.7149117,3.01663902 C19.5121985,3.01663902 19.3366886,3.0907514 19.1885868,3.23893518 C19.0402801,3.38720091 18.9662496,3.56266985 18.9662496,3.76542394 L18.9662496,11.6958171 C18.9271245,11.6101515 18.8765282,11.5360801 18.813969,11.4736028 L10.5092449,3.16883774 C10.361102,3.02073589 10.2364753,2.97001664 10.1349548,3.01688483 C10.0335983,3.06363012 9.98291998,3.18842078 9.98291998,3.3911339 L9.98291998,11.6958171 C9.94399971,11.6101515 9.89332143,11.5360801 9.83096707,11.4736028 L1.52632488,3.16883774 C1.3781411,3.02073589 1.25343238,2.97001664 1.15207581,3.01688483 C1.05067828,3.06363012 1,3.18842078 1,3.3911339 L1,20.6087215 C1,20.8114346 1.05084216,20.9363892 1.15219872,20.9832164 C1.25355528,21.0299207 1.378264,20.9791605 1.52644779,20.8308128 L9.83108997,12.5261297 C9.8933624,12.4561552 9.94416359,12.3819608 9.98304288,12.3040384 L9.98304288,20.6087215 C9.98304288,20.8114346 10.0337212,20.9362253 10.1350777,20.9829296 C10.2364343,21.0296339 10.3612249,20.9788328 10.5093678,20.830649 L18.8140919,12.5259658 C18.8764872,12.4558684 18.9272474,12.3815921 18.9662496,12.3035877 L18.9662496,20.2339399 C18.9662496,20.436653 19.040403,20.61204 19.1885868,20.7602647 C19.3366476,20.9084485 19.5121576,20.9825199 19.7149117,20.9825199 L21.2121537,20.9825199 C21.414703,20.9825199 21.5903768,20.9084485 21.7386015,20.7602647 C21.8866624,20.612081 21.9608567,20.436694 21.9608567,20.2339399 L21.9608567,3.76542394 C21.9606519,3.56238307 21.8866624,3.387078 21.7384786,3.23893518 Z" fill="#FFFFFF" fill-rule="nonzero" transform="translate(11.480428, 12.000000) scale(-1, 1) translate(-11.480428, -12.000000) "></path>
            </g>
        </g>
    </g>
</svg>