<?xml version="1.0" encoding="UTF-8"?>
<svg width="50px" height="50px" viewBox="0 0 50 50" version="1.1" xmlns="http://www.w3.org/2000/svg" xmlns:xlink="http://www.w3.org/1999/xlink">
    <!-- Generator: Sketch 51.2 (57519) - http://www.bohemiancoding.com/sketch -->
    <title>refferal</title>
    <desc>Created with Sketch.</desc>
    <defs>
        <linearGradient x1="0.25781251%" y1="49.7500002%" x2="101.257813%" y2="49.7500002%" id="linearGradient-1">
            <stop stop-color="#3023AE" offset="0%"></stop>
            <stop stop-color="#53A0FD" offset="47.5247532%"></stop>
            <stop stop-color="#B4EC51" offset="100%"></stop>
        </linearGradient>
    </defs>
    <g stroke="none" stroke-width="1" fill="none" fill-rule="evenodd">
        <circle stroke="url(#linearGradient-1)" stroke-width="2" cx="25" cy="25" r="24"></circle>
        <path d="M25.2132135,14.1612903 C22.903636,14.1612903 21.0310055,15.9822533 21.0310055,18.2281077 C21.0310055,19.3700986 21.5190814,20.3995374 22.2991872,21.1382933 L19.0062435,26.741186 L20.8236674,27.7471384 L24.1206889,22.1372303 C24.4710621,22.229651 24.8324139,22.2952301 25.2132135,22.2952301 C27.522791,22.2952301 29.3954214,20.4739621 29.3954214,18.2281077 C29.3954214,15.9822533 27.522791,14.1612903 25.2132135,14.1612903 Z M25.2132135,20.2616689 C24.0582679,20.2616689 23.1219527,19.3511874 23.1219527,18.2281077 C23.1219527,17.105028 24.0582679,16.1948515 25.2132135,16.1948515 C26.3681591,16.1948515 27.3044743,17.105028 27.3044743,18.2281077 C27.3044743,19.3511874 26.3681591,20.2616689 25.2132135,20.2616689 Z M20.6359225,31.5431467 L26.9979188,31.5431467 L26.9979188,33.5411405 L20.6359225,33.5411405 C20.1804659,35.2607277 18.5972412,36.5379813 16.6966978,36.5379813 C14.441468,36.5379813 12.6129032,34.7485676 12.6129032,32.5419938 C12.6129032,30.3354199 14.441468,28.5463059 16.6966978,28.5463059 C18.5972412,28.5463059 20.1804659,29.8232598 20.6359225,31.5431467 Z M16.6966978,34.5399875 C17.8244659,34.5399875 18.7387483,33.6454305 18.7387483,32.5419938 C18.7387483,31.438557 17.8244659,30.5442997 16.6966978,30.5442997 C15.5689297,30.5442997 14.6549537,31.438557 14.6549537,32.5419938 C14.6549537,33.6454305 15.5689297,34.5399875 16.6966978,34.5399875 Z M33.2050151,28.4042241 C35.5145229,28.4042241 37.3870968,30.2251462 37.3870968,32.4709502 C37.3870968,34.7167541 35.5145229,36.5379813 33.2050151,36.5379813 C30.8955073,36.5379813 29.0226197,34.7167541 29.0226197,32.4709502 C29.0226197,31.3283749 29.5109945,30.2995692 30.2907632,29.5608299 L26.9979188,23.958063 L28.8156015,22.9521332 L32.1125235,28.5622204 C32.4625725,28.4698017 32.8239134,28.4042241 33.2050151,28.4042241 Z M33.2050151,34.5044657 C34.3599258,34.5044657 35.2958991,33.5940047 35.2958991,32.4709502 C35.2958991,31.3478957 34.3599258,30.4377397 33.2050151,30.4377397 C32.0501044,30.4377397 31.1138174,31.3478957 31.1138174,32.4709502 C31.1138174,33.5940047 32.0501044,34.5044657 33.2050151,34.5044657 Z" fill="#FFFFFF" fill-rule="nonzero"></path>
    </g>
</svg>