<?xml version="1.0" encoding="UTF-8"?>
<svg width="16px" height="16px" viewBox="0 0 16 16" version="1.1" xmlns="http://www.w3.org/2000/svg" xmlns:xlink="http://www.w3.org/1999/xlink">
    <!-- Generator: Sketch 51.2 (57519) - http://www.bohemiancoding.com/sketch -->
    <title>request-support</title>
    <desc>Created with Sketch.</desc>
    <defs></defs>
    <g stroke="none" stroke-width="1" fill="none" fill-rule="evenodd">
        <path d="M7.96664706,1 C6.10629412,1 4.35711765,1.72470588 3.04173529,3.04008824 C1.72614706,4.35567647 1.00185294,6.10444118 1.00185294,7.96479412 C1.00185294,9.82514706 1.72635294,11.5739118 3.04173529,12.8895 C4.35711765,14.2050882 6.10608824,14.9293824 7.96644118,14.9293824 C9.82658824,14.9293824 11.5757647,14.2048824 12.8911471,12.8895 C15.6065294,10.1739118 15.6065294,5.75547059 12.8911471,3.03967647 C11.5759706,1.72429412 9.82679412,1 7.96664706,1 Z M10.9015,2.568 L9.35820588,4.11170588 C8.93017647,3.95770588 8.47579412,3.87288235 8.00741176,3.87288235 C7.54644118,3.87288235 7.09926471,3.95502941 6.67720588,4.1045 L5.10261765,2.52970588 C5.97494118,2.06873529 6.95185294,1.82352941 7.96685294,1.82352941 C9.00923529,1.82352941 10.0112647,2.08232353 10.9015,2.568 Z M5.77338235,10.0890882 C4.54179412,8.8575 4.54179412,6.85323529 5.77338235,5.62164706 C6.37023529,5.025 7.16370588,4.69641176 8.00741176,4.69641176 C8.85111765,4.69641176 9.64458824,5.025 10.2412353,5.62164706 C11.4728235,6.85323529 11.4728235,8.85770588 10.2412353,10.0895 C9.64458824,10.6859412 8.85132353,11.0147353 8.00761765,11.0147353 C7.16370588,11.0147353 6.37023529,10.6859412 5.77338235,10.0890882 Z M2.70614706,4.79194118 L4.30544118,6.39123529 C3.95070588,7.29197059 3.93917647,8.29523529 4.26529412,9.20420588 L2.57005882,10.8996471 C2.08438235,10.0094118 1.82538235,9.00717647 1.82538235,7.96458824 C1.82538235,6.82832353 2.13235294,5.73961765 2.70614706,4.79194118 Z M4.86255882,13.2654412 L6.56273529,11.5656765 C7.01752941,11.7425294 7.50485294,11.8382647 8.00761765,11.8382647 C8.51779412,11.8382647 9.01232353,11.7404706 9.47288235,11.5584706 L11.1392941,13.2250882 C10.1918235,13.7988824 9.10291176,14.1058529 7.96664706,14.1058529 C6.85755882,14.1058529 5.79417647,13.8128824 4.86255882,13.2654412 Z M13.4000882,10.8271765 L11.7567353,9.18382353 C12.0727647,8.287 12.0610294,7.30061765 11.7165882,6.41182353 L13.2664706,4.86194118 C14.3372647,6.69161765 14.3817353,8.96085294 13.4000882,10.8271765 Z" fill="#FFFFFF" fill-rule="nonzero"></path>
    </g>
</svg>