<?xml version="1.0" encoding="UTF-8"?>
<svg width="16px" height="16px" viewBox="0 0 16 16" version="1.1" xmlns="http://www.w3.org/2000/svg" xmlns:xlink="http://www.w3.org/1999/xlink">
    <g stroke="none" stroke-width="1" fill="none" fill-rule="evenodd">
        <path d="M14.9812154,1.07648232 C14.9141865,1.01769132 14.8187974,1.00405145 14.7379486,1.04154984 L0.130231511,7.82871383 C0.0515884244,7.86526688 0.000945337621,7.9437299 -6.70013226e-16,8.03043087 C-0.000945337621,8.11713183 0.0480321543,8.19667524 0.125909968,8.23489389 L4.25987138,10.2636785 C4.33567846,10.3009068 4.42607074,10.2924887 4.49377492,10.2418907 L8.5131254,7.23778778 L5.35776849,10.4834469 C5.31275241,10.5297685 5.28979421,10.5931961 5.29474598,10.6575691 L5.60891318,14.7490354 C5.61589068,14.8396977 5.67666238,14.9172154 5.76304823,14.9456206 C5.78614148,14.9531833 5.80986495,14.9568746 5.83331833,14.9568746 C5.8976463,14.9568746 5.96021865,14.9292797 6.0037492,14.8788617 L8.19792283,12.3362637 L10.9103666,13.6322765 C10.9692476,13.6604116 11.0374019,13.661582 11.0972283,13.6355627 C11.1570547,13.6094984 11.2026109,13.5588103 11.2221479,13.4965981 L15.0475241,1.31313183 C15.0742637,1.22805145 15.0481994,1.13527331 14.9812154,1.07648232 Z" fill="#FFFFFF" fill-rule="nonzero"></path>
    </g>
</svg>