<?xml version="1.0" encoding="UTF-8"?>
<svg width="85px" height="80px" viewBox="0 0 85 80" version="1.1" xmlns="http://www.w3.org/2000/svg" xmlns:xlink="http://www.w3.org/1999/xlink">
    <!-- Generator: Sketch 46.1 (44463) - http://www.bohemiancoding.com/sketch -->
    <title>hguarantee_2</title>
    <desc>Created with Sketch.</desc>
    <defs>
        <polygon id="path-1" points="0 79.3939394 0 0.0927272727 84.08 0.0927272727 84.08 79.3939394"></polygon>
    </defs>
    <g id="Montar-2" stroke="none" stroke-width="1" fill="none" fill-rule="evenodd">
        <g id="Montar-Design-New-Hero" transform="translate(-588.000000, -498.000000)">
            <g id="Group-16" transform="translate(0.000000, 72.000000)">
                <g id="Group-18" transform="translate(235.000000, 426.000000)">
                    <g id="Group-23" transform="translate(353.000000, 0.000000)">
                        <g id="hguarantee_2">
                            <g id="Group-3" transform="translate(0.000000, 0.513333)">
                                <mask id="mask-2" fill="white">
                                    <use xlink:href="#path-1"></use>
                                </mask>
                                <g id="Clip-2"></g>
                                <path d="M81.5258182,48.0718788 C83.4585455,47.0173333 84.0627879,44.3888485 84.0627879,44.3888485 C84.0627879,44.3888485 81.0761212,44.0852121 79.2767273,45.4833939 C78.7130909,45.9227879 78.1924848,46.6888485 77.7876364,47.4094545 C78.094303,45.9385455 78.3003636,44.434303 78.4009697,42.9064242 C79.1015758,42.7852121 80.6852121,42.3852121 82.2585455,41.1282424 C83.9464242,39.7809697 84.0803636,37.1409697 84.0803636,37.1409697 C84.0803636,37.1409697 81.1470303,37.3573333 79.6494545,39.0130909 C79.1652121,39.5488485 78.7864242,40.4112727 78.5167273,41.194303 C78.5924848,39.5785455 78.5427879,37.9773333 78.384,36.4027879 C79.0494545,36.1609697 80.4949091,35.504 81.7888485,34.0355152 C83.1864242,32.4500606 82.8682424,29.8785455 82.8682424,29.8785455 C82.8682424,29.8785455 80.0724848,30.5864242 78.9100606,32.4379394 C78.5264242,33.0494545 78.3070303,33.9682424 78.1803636,34.7803636 C77.9379394,33.1476364 77.5827879,31.5476364 77.1282424,29.9961212 C77.6906667,29.6815758 79.0397576,28.7991515 80.0803636,27.0930909 C81.1621818,25.3233939 80.4167273,22.8973333 80.4167273,22.8973333 C80.4167273,22.8973333 77.8385455,24.0555152 77.0300606,26.0403636 C76.7306667,26.7803636 76.6973333,27.8633939 76.7355152,28.7306667 C76.184,27.0670303 75.5197576,25.4646061 74.7706667,23.9361212 C75.2306667,23.5694545 76.4361212,22.4785455 77.1730909,20.593697 C77.914303,18.7027879 76.7827879,16.4870303 76.7827879,16.4870303 C76.7827879,16.4870303 74.4930909,18.0433939 74.0506667,20.0979394 C73.8730909,20.9258182 74.0682424,22.093697 74.2694545,22.9494545 C73.4100606,21.3167273 72.453697,19.7803636 71.4276364,18.3627879 C71.8149091,17.9227879 72.7803636,16.6682424 73.1688485,14.7385455 C73.5615758,12.7864242 72.093697,10.8409697 72.093697,10.8409697 C72.093697,10.8409697 70.1470303,12.7330909 70.0700606,14.7912727 C70.0403636,15.6003636 70.4058182,16.6585455 70.7409697,17.4458182 C69.6167273,15.9924848 68.4233939,14.6779394 67.193697,13.5355152 C67.4906667,13.0476364 68.2124848,11.6700606 68.2597576,9.73490909 C68.3070303,7.784 66.5579394,6.15733333 66.5579394,6.15733333 C66.5579394,6.15733333 65.0021818,8.31430303 65.2791515,10.3130909 C65.3930909,11.1397576 65.9767273,12.1579394 66.4476364,12.8676364 C66.0082424,12.4882424 65.5670303,12.1282424 65.1233939,11.794303 C64.124,10.9876364 63.1391515,10.2767273 62.1815758,9.64460606 C62.3567273,9.22521212 62.9058182,7.70521212 62.6027879,5.70642424 C62.3167273,3.81551515 60.3512727,2.54278788 60.3512727,2.54278788 C60.3512727,2.54278788 59.2149091,4.88884848 59.8233939,6.77127273 C60.1112727,7.664 61.0367273,8.69248485 61.6252121,9.28339394 C59.8355152,8.1470303 58.1615758,7.3009697 56.6961212,6.66763636 C56.7864242,6.27975758 57.0858182,4.68763636 56.4379394,2.76218182 C55.8403636,0.987030303 53.7264242,0.0924848485 53.7264242,0.0924848485 C53.7264242,0.0924848485 53.0324848,2.55066667 53.9379394,4.264 C54.3961212,5.13187879 55.5870303,6.0270303 56.2355152,6.47248485 C55.2294545,6.05612121 54.3361212,5.744 53.5876364,5.50884848 C53.3615758,5.224 52.2609697,3.91430303 50.9149091,3.68339394 C49.8379394,3.5009697 48.0282424,4.19430303 48.0282424,4.19430303 C48.0282424,4.19430303 48.8955152,5.37612121 50.6488485,5.97793939 C51.824,6.38157576 53.1215758,5.8209697 53.5118788,5.62884848 C54.4209697,5.94218182 55.5530909,6.37490909 56.8385455,6.97309091 C56.084,6.844 54.5464242,6.64460606 53.584,6.95854545 C51.7446061,7.56157576 50.5373333,9.81369697 50.5373333,9.81369697 C50.5373333,9.81369697 52.6785455,10.6367273 54.3415758,9.77248485 C56.1209697,8.85066667 57.0088485,7.52339394 57.2288485,7.15793939 C58.6706667,7.85066667 60.2912727,8.75127273 61.9991515,9.91915152 C61.2076364,9.65127273 59.9052121,9.28642424 58.9900606,9.41733333 C57.0349091,9.69733333 55.4227879,11.7458182 55.4227879,11.7458182 C55.4227879,11.7458182 57.4300606,12.9530909 59.254303,12.3791515 C61.1058182,11.7991515 62.2185455,10.7088485 62.5724848,10.3173333 C63.3288485,10.8555152 64.0991515,11.4427879 64.8791515,12.0918788 C65.574303,12.6324848 66.264,13.2312727 66.9427879,13.8821818 C66.1991515,13.4718788 64.9300606,12.8567273 63.9724848,12.8258182 C61.9567273,12.7591515 59.9749091,14.534303 59.9749091,14.534303 C59.9749091,14.534303 61.7779394,16.1021818 63.7130909,15.8488485 C65.6949091,15.5906667 67.0112727,14.6773333 67.4221818,14.3555152 C68.6458182,15.5852121 69.8233939,16.9833939 70.9185455,18.5203636 C70.2294545,17.9833939 69.1846061,17.2670303 68.314303,17.0846061 C66.2997576,16.6603636 63.9949091,18.0918788 63.9949091,18.0918788 C63.9949091,18.0918788 65.5282424,19.9876364 67.5167273,20.0767273 C69.4664242,20.1646061 70.9076364,19.5415758 71.4391515,19.2688485 C72.3924848,20.6791515 73.274303,22.1949091 74.0591515,23.7973333 C73.4658182,23.1627879 72.6397576,22.3955152 71.8797576,22.0912727 C69.9312727,21.3082424 67.3603636,22.3391515 67.3603636,22.3391515 C67.3603636,22.3391515 68.5652121,24.5149091 70.5482424,24.9561212 C72.4124848,25.373697 73.9252121,25.0482424 74.5597576,24.8615758 C75.2652121,26.4221818 75.8785455,28.0567273 76.374303,29.7458182 C75.8900606,29.0058182 75.1997576,28.0973333 74.494303,27.6585455 C72.6761212,26.5264242 69.9100606,27.1064242 69.9100606,27.1064242 C69.9100606,27.1064242 70.7349091,29.5070303 72.6494545,30.3027879 C74.4494545,31.0518788 76.0276364,30.9930909 76.6985455,30.9185455 C77.1355152,32.6106667 77.4500606,34.3530909 77.6288485,36.1264242 C77.273697,35.2852121 76.7270303,34.1991515 76.0749091,33.6149091 C74.4470303,32.1555152 71.564,32.2488485 71.564,32.2488485 C71.564,32.2488485 71.9682424,34.8058182 73.7512727,35.9446061 C75.4391515,37.024 77.0452121,37.2403636 77.7252121,37.2815758 C77.8312727,38.9300606 77.8161212,40.6021818 77.6597576,42.284 C77.4470303,41.4088485 77.1033939,40.3427879 76.5930909,39.693697 C75.2155152,37.9367273 72.3021818,37.5203636 72.3021818,37.5203636 C72.3021818,37.5203636 72.2549091,40.1615758 73.8458182,41.6221818 C75.3100606,42.9688485 76.8409697,43.4803636 77.544,43.6555152 C77.3791515,45.2706667 77.0906667,46.8524848 76.6973333,48.3906667 C76.6373333,47.4785455 76.4797576,46.3609697 76.0852121,45.6252121 C75.0130909,43.6167273 72.1591515,42.6809697 72.1591515,42.6809697 C72.1591515,42.6809697 71.6427879,45.3288485 72.9815758,47.0761212 C74.1997576,48.6682424 75.6252121,49.4530909 76.3112727,49.7633939 C75.864,51.2476364 75.3209697,52.6888485 74.6949091,54.0779394 C74.7821818,53.184 74.8033939,52.1233939 74.553697,51.3627879 C73.8306667,49.154303 71.1294545,47.7088485 71.1294545,47.7088485 C71.1294545,47.7088485 70.1421818,50.2773333 71.1779394,52.2712727 C72.0985455,54.0464242 73.3549091,55.0809697 74.0033939,55.5318788 C73.3227879,56.8815758 72.5676364,58.1755152 71.7518788,59.4033939 C71.9815758,58.5470303 72.164,57.5512727 72.053697,56.7827879 C71.7185455,54.4361212 69.2615758,52.5046061 69.2615758,52.5046061 C69.2615758,52.5046061 67.8124848,54.9106667 68.5003636,57.0985455 C69.1015758,59.0185455 70.1597576,60.2730909 70.7397576,60.8506667 C69.8033939,62.1270303 68.8094545,63.3227879 67.7712727,64.4227879 C68.1749091,63.5773333 68.573697,62.5464242 68.6009697,61.7124848 C68.6791515,59.2955152 66.5494545,56.9191515 66.5494545,56.9191515 C66.5494545,56.9191515 64.6706667,59.0803636 64.973697,61.3991515 C65.2452121,63.4821818 66.1173333,64.9494545 66.5894545,65.6130909 C65.4252121,66.7355152 64.2221818,67.7409697 63.004,68.6124848 C63.5700606,67.8276364 64.1724848,66.8403636 64.3488485,65.9918788 C64.8555152,63.5767273 63.1379394,60.8112727 63.1379394,60.8112727 C63.1379394,60.8112727 60.8664242,62.6494545 60.7585455,65.0349091 C60.6627879,67.1597576 61.2724848,68.7803636 61.6300606,69.5385455 C61.1621818,69.8324848 60.6949091,70.1082424 60.2270303,70.3609697 C59.3797576,70.8573333 58.5512727,71.2955152 57.7427879,71.6894545 C58.4088485,71.0246061 59.1064242,70.2046061 59.4130909,69.4409697 C60.3494545,67.1015758 59.114303,64.0185455 59.114303,64.0185455 C59.114303,64.0185455 56.5046061,65.4633939 55.974303,67.8415758 C55.5112727,69.913697 55.8130909,71.6233939 56.0379394,72.4700606 C54.5561212,73.1027879 53.173697,73.5773333 51.9306667,73.9349091 C52.7082424,73.3876364 53.5367273,72.6979394 53.973697,71.993697 C55.3300606,69.8088485 54.634303,66.4924848 54.634303,66.4924848 C54.634303,66.4924848 51.7567273,67.4809697 50.8027879,69.7773333 C49.9773333,71.7633939 49.9706667,73.5227879 50.044,74.4197576 C47.2906667,75.0427879 45.6512727,75.1549091 45.6512727,75.1549091 L45.7124848,75.7658182 L45.7755152,76.3773333 C45.7755152,76.3773333 47.874303,76.2446061 51.2821818,75.3409697 C51.7355152,76.0973333 52.7791515,77.5494545 54.6518788,78.6906667 C56.774303,79.9870303 59.6852121,79.094303 59.6852121,79.094303 C59.6852121,79.094303 58.2955152,76.0015758 55.913697,75.0330909 C55.2530909,74.7646061 54.3646061,74.6755152 53.5227879,74.6652121 C54.7173333,74.2627879 56.0106667,73.7549091 57.374303,73.1167273 C57.9355152,73.7664242 59.193697,75.0009697 61.2064242,75.7894545 C63.4755152,76.6785455 66.1330909,75.3203636 66.1330909,75.3203636 C66.1330909,75.3203636 64.2652121,72.573697 61.8027879,72.0446061 C61.1070303,71.8949091 60.2155152,71.9658182 59.3882424,72.1027879 C59.8518788,71.853697 60.3197576,71.5894545 60.7930909,71.3070303 C61.5397576,70.894303 62.2906667,70.4270303 63.0349091,69.9118788 C63.7003636,70.4476364 65.113697,71.4021818 67.1603636,71.8149091 C69.5015758,72.2870303 71.8349091,70.5246061 71.8349091,70.5246061 C71.8349091,70.5246061 69.5658182,68.1900606 67.0973333,68.0991515 C66.4300606,68.074303 65.6191515,68.2749091 64.8712727,68.534303 C65.9258182,67.6803636 66.9615758,66.7312727 67.9627879,65.6973333 C68.6791515,66.0991515 70.2227879,66.8033939 72.3058182,66.854303 C74.6446061,66.9106667 76.5967273,64.8130909 76.5967273,64.8130909 C76.5967273,64.8130909 74.0094545,62.9470303 71.6124848,63.2779394 C70.9021818,63.3761212 70.074303,63.7652121 69.3476364,64.1846061 C70.2900606,63.0991515 71.1882424,61.9373333 72.0312727,60.7082424 C72.7518788,60.9694545 74.4082424,61.4318788 76.5058182,61.1149091 C78.773697,60.7712727 80.3009697,58.4149091 80.3009697,58.4149091 C80.3009697,58.4149091 77.4858182,57.053697 75.2282424,57.7815758 C74.4955152,58.0173333 73.6882424,58.6130909 73.0233939,59.1912727 C73.8185455,57.9058182 74.5500606,56.5573333 75.2021818,55.1555152 C75.9446061,55.284 77.6197576,55.4470303 79.5858182,54.7852121 C81.7161212,54.0682424 82.7876364,51.533697 82.7876364,51.533697 C82.7876364,51.533697 79.8403636,50.6985455 77.7852121,51.7846061 C77.1306667,52.1318788 76.4627879,52.8270303 75.9246061,53.4870303 C76.4900606,52.0930909 76.9767273,50.6524848 77.3676364,49.173697 C78.1118788,49.1718788 79.7488485,49.0409697 81.5258182,48.0718788 M34.0367273,74.4197576 C34.1100606,73.5227879 34.104,71.7633939 33.2779394,69.7773333 C32.3233939,67.4809697 29.4458182,66.4924848 29.4458182,66.4924848 C29.4458182,66.4924848 28.7500606,69.8088485 30.1052121,71.993697 C30.5421818,72.6979394 31.3718788,73.3876364 32.1494545,73.9349091 C30.9070303,73.5773333 29.524,73.1027879 28.0421818,72.4700606 C28.2670303,71.6233939 28.5688485,69.913697 28.1058182,67.8415758 C27.5755152,65.4633939 24.9658182,64.0185455 24.9658182,64.0185455 C24.9658182,64.0185455 23.7312727,67.1015758 24.6676364,69.4409697 C24.973697,70.2046061 25.6712727,71.0246061 26.3373333,71.6894545 C25.5288485,71.2955152 24.6991515,70.8573333 23.8518788,70.3609697 C23.3852121,70.1082424 22.9179394,69.8324848 22.4500606,69.5385455 C22.8088485,68.7803636 23.4173333,67.1597576 23.3215758,65.0349091 C23.2149091,62.6494545 20.9421818,60.8112727 20.9421818,60.8112727 C20.9421818,60.8112727 19.2246061,63.5767273 19.7312727,65.9918788 C19.9088485,66.8403636 20.5100606,67.8276364 21.0761212,68.6130909 C19.8591515,67.7409697 18.6555152,66.7355152 17.4906667,65.6130909 C17.9627879,64.9494545 18.8361212,63.4821818 19.1064242,61.3991515 C19.4106667,59.0803636 17.5294545,56.9191515 17.5294545,56.9191515 C17.5294545,56.9191515 15.4021818,59.2955152 15.4791515,61.7124848 C15.5064242,62.5464242 15.9058182,63.5785455 16.3094545,64.4233939 C15.2712727,63.324 14.2767273,62.1270303 13.3415758,60.8518788 C13.9203636,60.2730909 14.9785455,59.0185455 15.5797576,57.0985455 C16.2676364,54.9106667 14.8203636,52.5046061 14.8203636,52.5046061 C14.8203636,52.5046061 12.3615758,54.4361212 12.0264242,56.7827879 C11.9167273,57.5512727 12.0985455,58.5470303 12.3282424,59.4033939 C11.513697,58.1755152 10.7585455,56.8815758 10.0767273,55.5318788 C10.7258182,55.0809697 11.9827879,54.0464242 12.9021818,52.2712727 C13.9379394,50.2773333 12.9512727,47.7088485 12.9512727,47.7088485 C12.9512727,47.7088485 10.2500606,49.154303 9.52642424,51.3627879 C9.27793939,52.1233939 9.29793939,53.184 9.38581818,54.0779394 C8.75975758,52.6888485 8.21612121,51.2476364 7.76884848,49.7633939 C8.45551515,49.4530909 9.88036364,48.6682424 11.0985455,47.0761212 C12.4373333,45.3288485 11.9221818,42.6809697 11.9221818,42.6809697 C11.9221818,42.6809697 9.06824242,43.6167273 7.99612121,45.6252121 C7.60036364,46.3609697 7.44460606,47.4785455 7.384,48.3906667 C6.99006061,46.8524848 6.7009697,45.2706667 6.53672727,43.6555152 C7.23975758,43.4803636 8.77006061,42.9688485 10.234303,41.6221818 C11.8252121,40.1615758 11.7779394,37.5203636 11.7779394,37.5203636 C11.7779394,37.5203636 8.86460606,37.9367273 7.48824242,39.693697 C6.97672727,40.3427879 6.63369697,41.4088485 6.42036364,42.2827879 C6.264,40.6021818 6.24884848,38.9300606 6.35672727,37.2815758 C7.03612121,37.2403636 8.6409697,37.024 10.3288485,35.9446061 C12.1118788,34.8058182 12.5167273,32.2488485 12.5167273,32.2488485 C12.5167273,32.2488485 9.63309091,32.1555152 8.00521212,33.6149091 C7.35309091,34.1991515 6.80642424,35.2846061 6.45127273,36.1264242 C6.63006061,34.3530909 6.94460606,32.6106667 7.38157576,30.9185455 C8.05309091,30.9930909 9.63066667,31.0518788 11.4312727,30.3027879 C13.3452121,29.5070303 14.1712727,27.1064242 14.1712727,27.1064242 C14.1712727,27.1064242 11.404,26.5264242 9.58460606,27.6585455 C8.88036364,28.0967273 8.19006061,29.0046061 7.70581818,29.7446061 C8.20339394,28.0561212 8.81490909,26.4221818 9.52036364,24.8615758 C10.1561212,25.0482424 11.6676364,25.373697 13.5324848,24.9561212 C15.5161212,24.5149091 16.7197576,22.3391515 16.7197576,22.3391515 C16.7197576,22.3391515 14.1500606,21.3082424 12.1991515,22.0912727 C11.4403636,22.3955152 10.614303,23.1627879 10.0215758,23.7961212 C10.8058182,22.194303 11.6882424,20.6791515 12.6409697,19.2688485 C13.173697,19.5415758 14.614303,20.1646061 16.5633939,20.0767273 C18.5524848,19.9876364 20.0852121,18.0918788 20.0852121,18.0918788 C20.0852121,18.0918788 17.7803636,16.6603636 15.7658182,17.0846061 C14.8967273,17.2670303 13.8518788,17.9833939 13.1615758,18.5203636 C14.2567273,16.9827879 15.434303,15.5852121 16.6585455,14.3561212 C17.0688485,14.6773333 18.3852121,15.5906667 20.3670303,15.8488485 C22.3021818,16.1021818 24.1064242,14.534303 24.1064242,14.534303 C24.1064242,14.534303 22.1233939,12.7591515 20.1064242,12.8258182 C19.1512727,12.8567273 17.8821818,13.4712727 17.1391515,13.8821818 C17.8161212,13.2312727 18.5064242,12.6324848 19.2021818,12.0918788 C19.9809697,11.4427879 20.7518788,10.8555152 21.5094545,10.3173333 C21.8633939,10.7088485 22.9761212,11.7991515 24.8270303,12.3791515 C26.6500606,12.9530909 28.6579394,11.7458182 28.6579394,11.7458182 C28.6579394,11.7458182 27.0452121,9.69733333 25.0888485,9.41733333 C24.1761212,9.28642424 22.8730909,9.65066667 22.0809697,9.91854545 C23.7900606,8.75127273 25.4094545,7.85066667 26.8512727,7.15793939 C27.0712727,7.52339394 27.9591515,8.85066667 29.7385455,9.77248485 C31.4015758,10.6367273 33.5427879,9.81369697 33.5427879,9.81369697 C33.5427879,9.81369697 32.3355152,7.56157576 30.4961212,6.95854545 C29.5349091,6.64460606 27.9973333,6.844 27.2433939,6.97309091 C28.5288485,6.37490909 29.6591515,5.94218182 30.5682424,5.62884848 C30.9597576,5.8209697 32.2573333,6.38157576 33.4318788,5.97793939 C35.1846061,5.37612121 36.0524848,4.19430303 36.0524848,4.19430303 C36.0524848,4.19430303 34.2421818,3.5009697 33.1664242,3.68339394 C31.8191515,3.91430303 30.7185455,5.224 30.4924848,5.50884848 C29.7446061,5.744 28.8506667,6.05612121 27.8446061,6.47248485 C28.4930909,6.02763636 29.6827879,5.13248485 30.1421818,4.264 C31.0488485,2.55066667 30.353697,0.0924848485 30.353697,0.0924848485 C30.353697,0.0924848485 28.2397576,0.987030303 27.6421818,2.76218182 C26.994303,4.68763636 27.294303,6.27975758 27.384,6.66763636 C25.9197576,7.3009697 24.2446061,8.1470303 22.4561212,9.28218182 C23.0433939,8.69248485 23.9700606,7.664 24.2567273,6.77127273 C24.8652121,4.88884848 23.7300606,2.54278788 23.7300606,2.54278788 C23.7300606,2.54278788 21.7652121,3.81551515 21.4785455,5.70642424 C21.1755152,7.70521212 21.7233939,9.22460606 21.8985455,9.64460606 C20.9409697,10.2767273 19.9561212,10.9876364 18.9573333,11.794303 C18.5130909,12.1282424 18.0718788,12.4882424 17.6324848,12.8676364 C18.104,12.1579394 18.6870303,11.1397576 18.8021818,10.3130909 C19.0791515,8.31430303 17.5233939,6.15733333 17.5233939,6.15733333 C17.5233939,6.15733333 15.7730909,7.784 15.8203636,9.73490909 C15.8676364,11.6700606 16.5894545,13.0476364 16.8870303,13.5355152 C15.6567273,14.6779394 14.4627879,15.9924848 13.3403636,17.4458182 C13.674303,16.6585455 14.0397576,15.6003636 14.0106667,14.7912727 C13.933697,12.7330909 11.9864242,10.8409697 11.9864242,10.8409697 C11.9864242,10.8409697 10.5173333,12.7864242 10.9112727,14.7385455 C11.2997576,16.6682424 12.2658182,17.9227879 12.6524848,18.3627879 C11.6264242,19.7803636 10.6700606,21.3161212 9.81066667,22.9488485 C10.0130909,22.0924848 10.2082424,20.9258182 10.0294545,20.0979394 C9.58824242,18.0433939 7.29733333,16.4870303 7.29733333,16.4870303 C7.29733333,16.4870303 6.16581818,18.7027879 6.9070303,20.593697 C7.64460606,22.4785455 8.84945455,23.5694545 9.31006061,23.9361212 C8.56036364,25.4646061 7.89672727,27.0670303 7.34521212,28.7306667 C7.38278788,27.8633939 7.34945455,26.7803636 7.04884848,26.0403636 C6.24157576,24.0555152 3.66339394,22.8973333 3.66339394,22.8973333 C3.66339394,22.8973333 2.91915152,25.3233939 3.99975758,27.0930909 C5.04036364,28.7991515 6.38945455,29.6815758 6.95309091,29.9961212 C6.49733333,31.5476364 6.14218182,33.1470303 5.89975758,34.7791515 C5.77309091,33.9676364 5.55369697,33.0488485 5.17066667,32.4379394 C4.00824242,30.5864242 1.21187879,29.8785455 1.21187879,29.8785455 C1.21187879,29.8785455 0.89369697,32.4500606 2.29187879,34.0355152 C3.58521212,35.504 5.03066667,36.1609697 5.69490909,36.4027879 C5.53733333,37.9773333 5.48884848,39.5779394 5.56339394,41.194303 C5.29369697,40.4112727 4.91490909,39.5482424 4.43066667,39.0130909 C2.93309091,37.3573333 -0.000242424242,37.1409697 -0.000242424242,37.1409697 C-0.000242424242,37.1409697 0.13369697,39.7809697 1.82036364,41.1282424 C3.39369697,42.3852121 4.97854545,42.7846061 5.67975758,42.9064242 C5.78036364,44.434303 5.9870303,45.9385455 6.29248485,47.4094545 C5.88763636,46.6888485 5.3670303,45.9227879 4.80339394,45.4833939 C3.004,44.0852121 0.0179393939,44.3888485 0.0179393939,44.3888485 C0.0179393939,44.3888485 0.621575758,47.0173333 2.55551515,48.0718788 C4.33127273,49.0409697 5.96824242,49.1718788 6.71309091,49.173697 C7.10339394,50.6524848 7.58884848,52.0930909 8.15551515,53.4870303 C7.61733333,52.8270303 6.94945455,52.1318788 6.29490909,51.7846061 C4.23915152,50.6985455 1.29248485,51.533697 1.29248485,51.533697 C1.29248485,51.533697 2.364,54.0682424 4.49309091,54.7852121 C6.4609697,55.4470303 8.13551515,55.284 8.87793939,55.1555152 C9.52884848,56.5573333 10.2615758,57.9058182 11.0573333,59.1912727 C10.3918788,58.6124848 9.58339394,58.0173333 8.85187879,57.7815758 C6.59551515,57.053697 3.7809697,58.4149091 3.7809697,58.4149091 C3.7809697,58.4149091 5.30763636,60.7712727 7.57430303,61.1149091 C9.67066667,61.4318788 11.3282424,60.9694545 12.0488485,60.7082424 C12.8918788,61.9373333 13.7900606,63.0991515 14.7324848,64.1846061 C14.0058182,63.7652121 13.1785455,63.3761212 12.4682424,63.2779394 C10.0712727,62.9470303 7.48339394,64.8130909 7.48339394,64.8130909 C7.48339394,64.8130909 9.43551515,66.9106667 11.774303,66.854303 C13.8579394,66.8033939 15.4015758,66.0991515 16.1185455,65.6973333 C17.1191515,66.7312727 18.154303,67.6803636 19.2094545,68.534303 C18.4609697,68.2749091 17.6500606,68.074303 16.9827879,68.0991515 C14.5161212,68.1900606 12.2452121,70.5246061 12.2452121,70.5246061 C12.2452121,70.5246061 14.5785455,72.2870303 16.9197576,71.8149091 C18.9664242,71.4021818 20.3785455,70.4488485 21.044,69.9118788 C21.7906667,70.4270303 22.5391515,70.894303 23.2870303,71.3070303 C23.7603636,71.5894545 24.2282424,71.853697 24.6912727,72.1027879 C23.8658182,71.9658182 22.973697,71.8949091 22.2773333,72.0446061 C19.8155152,72.573697 17.9476364,75.3203636 17.9476364,75.3203636 C17.9476364,75.3203636 20.6046061,76.6785455 22.874303,75.7894545 C24.8864242,75.0009697 26.1446061,73.7664242 26.7058182,73.1167273 C28.0694545,73.7549091 29.3633939,74.2627879 30.5573333,74.6652121 C29.7161212,74.6755152 28.8270303,74.7646061 28.1664242,75.0330909 C25.7846061,76.0015758 24.3949091,79.094303 24.3949091,79.094303 C24.3949091,79.094303 27.3058182,79.9870303 29.4282424,78.6906667 C31.3009697,77.5494545 32.3452121,76.0973333 32.7985455,75.3409697 C36.2064242,76.2446061 38.3058182,76.3773333 38.3058182,76.3773333 L38.3676364,75.7658182 L38.4306667,75.1549091 C38.4306667,75.1549091 36.7906667,75.0427879 34.0367273,74.4197576" id="Fill-1" fill-opacity="0.398211051" fill="#111111" mask="url(#mask-2)"></path>
                            </g>
                            <path d="M29.1325454,30.3263146 C29.1325454,30.779648 29.0614344,31.1752036 28.9192121,31.5129813 C28.7769898,31.850759 28.5969898,32.1618702 28.3792121,32.4463146 C28.1614344,32.730759 27.9281011,32.999648 27.6792121,33.2529813 C27.4303232,33.5063146 27.1969898,33.7774257 26.9792121,34.0663146 C26.7614344,34.3552036 26.5814344,34.6729813 26.4392121,35.019648 C26.2969898,35.3663146 26.2258788,35.7663146 26.2258788,36.219648 L26.2258788,37.3663146 L30.4658788,37.3663146 L30.4658788,36.0329813 L27.6925454,36.0329813 C27.6836565,35.9885369 27.6792121,35.9218702 27.6792121,35.8329813 C27.6792121,35.5752036 27.7503232,35.3285369 27.8925454,35.0929813 C28.0347677,34.8574257 28.2147677,34.6152036 28.4325454,34.3663146 C28.6503232,34.1174257 28.8858788,33.8552036 29.1392121,33.579648 C29.3925454,33.3040923 29.6281011,33.0040923 29.8458788,32.679648 C30.0636565,32.3552036 30.2436565,31.9952036 30.3858788,31.599648 C30.5281011,31.2040923 30.5992121,30.7618702 30.5992121,30.2729813 C30.5992121,29.5174257 30.4147677,28.9374257 30.0458788,28.5329813 C29.6769898,28.1285369 29.1325454,27.9263146 28.4125454,27.9263146 C27.6925454,27.9263146 27.1481011,28.1285369 26.7792121,28.5329813 C26.4103232,28.9374257 26.2258788,29.5174257 26.2258788,30.2729813 L26.2258788,31.179648 L27.6125454,31.179648 L27.6125454,30.179648 C27.6125454,29.8418702 27.6814344,29.6040923 27.8192121,29.4663146 C27.9569898,29.3285369 28.1414344,29.259648 28.3725454,29.259648 C28.6036565,29.259648 28.7881011,29.3329813 28.9258788,29.479648 C29.0636565,29.6263146 29.1325454,29.9085369 29.1325454,30.3263146 Z M35.188303,34.2729813 L35.188303,37.3663146 L36.6549697,37.3663146 L36.6549697,34.2729813 L38.508303,28.0329813 L37.108303,28.0329813 L35.988303,32.2863146 L34.868303,28.0329813 L33.3349697,28.0329813 L35.188303,34.2729813 Z M40.6828485,31.9663146 L40.6828485,29.3663146 L43.2161818,29.3663146 L43.2161818,28.0329813 L39.2161818,28.0329813 L39.2161818,37.3663146 L43.2161818,37.3663146 L43.2161818,36.0329813 L40.6828485,36.0329813 L40.6828485,33.299648 L42.6961818,33.299648 L42.6961818,31.9663146 L40.6828485,31.9663146 Z M48.9907273,37.3663146 L47.5107273,37.3663146 L47.2573939,35.6729813 L45.4573939,35.6729813 L45.2040606,37.3663146 L43.8573939,37.3663146 L45.3507273,28.0329813 L47.4973939,28.0329813 L48.9907273,37.3663146 Z M45.6440606,34.4063146 L47.0573939,34.4063146 L46.3507273,29.6863146 L45.6440606,34.4063146 Z M52.8586061,37.3663146 C52.8408284,37.3040923 52.8230504,37.2463146 52.8052727,37.1929813 C52.787495,37.139648 52.7719394,37.0729813 52.7586061,36.9929813 C52.7452727,36.9129813 52.7363838,36.810759 52.7319394,36.6863146 C52.727495,36.5618702 52.7252727,36.4063146 52.7252727,36.219648 L52.7252727,34.7529813 C52.7252727,34.3174257 52.6497171,34.010759 52.4986061,33.8329813 C52.347495,33.6552036 52.1030504,33.5663146 51.7652727,33.5663146 L51.2586061,33.5663146 L51.2586061,37.3663146 L49.7919394,37.3663146 L49.7919394,28.0329813 L52.0052727,28.0329813 C52.7697171,28.0329813 53.3230504,28.210759 53.6652727,28.5663146 C54.007495,28.9218702 54.1786061,29.459648 54.1786061,30.179648 L54.1786061,30.9129813 C54.1786061,31.8729813 53.8586061,32.5040923 53.2186061,32.8063146 C53.5919394,32.9574257 53.847495,33.2040923 53.9852727,33.5463146 C54.1230504,33.8885369 54.1919394,34.3040923 54.1919394,34.7929813 L54.1919394,36.2329813 C54.1919394,36.4640923 54.2008284,36.6663146 54.2186061,36.839648 C54.2363838,37.0129813 54.2808284,37.1885369 54.3519394,37.3663146 L52.8586061,37.3663146 Z M51.2586061,29.3663146 L51.2586061,32.2329813 L51.8319394,32.2329813 C52.107495,32.2329813 52.3230504,32.1618702 52.4786061,32.019648 C52.6341617,31.8774257 52.7119394,31.619648 52.7119394,31.2463146 L52.7119394,30.3263146 C52.7119394,29.9885369 52.6519394,29.7440923 52.5319394,29.5929813 C52.4119394,29.4418702 52.2230504,29.3663146 51.9652727,29.3663146 L51.2586061,29.3663146 Z M55.0864849,30.2729813 C55.0864849,30.7174257 55.1575959,31.1040923 55.2998182,31.4329813 C55.4420405,31.7618702 55.6198182,32.0552036 55.8331515,32.3129813 C56.0464849,32.570759 56.2753738,32.8085369 56.5198182,33.0263146 C56.7642626,33.2440923 56.9931515,33.4618702 57.2064849,33.679648 C57.4198182,33.8974257 57.5975959,34.1285369 57.7398182,34.3729813 C57.8820405,34.6174257 57.9531515,34.899648 57.9531515,35.219648 C57.9531515,35.5574257 57.8842626,35.7929813 57.7464849,35.9263146 C57.6087071,36.059648 57.4242626,36.1263146 57.1931515,36.1263146 C56.9620405,36.1263146 56.7775959,36.059648 56.6398182,35.9263146 C56.5020405,35.7929813 56.4331515,35.5574257 56.4331515,35.219648 L56.4331515,34.5529813 L55.0464849,34.5529813 L55.0464849,35.1263146 C55.0464849,35.8818702 55.2309292,36.4618702 55.5998182,36.8663146 C55.9687071,37.270759 56.5131515,37.4729813 57.2331515,37.4729813 C57.9531515,37.4729813 58.4975959,37.270759 58.8664849,36.8663146 C59.2353738,36.4618702 59.4198182,35.8818702 59.4198182,35.1263146 C59.4198182,34.6818702 59.3487071,34.2952036 59.2064849,33.9663146 C59.0642626,33.6374257 58.8864849,33.3440923 58.6731515,33.0863146 C58.4598182,32.8285369 58.2309292,32.590759 57.9864849,32.3729813 C57.7420405,32.1552036 57.5131515,31.9374257 57.2998182,31.719648 C57.0864849,31.5018702 56.9087071,31.270759 56.7664849,31.0263146 C56.6242626,30.7818702 56.5531515,30.499648 56.5531515,30.179648 C56.5531515,29.8418702 56.6175959,29.6040923 56.7464849,29.4663146 C56.8753738,29.3285369 57.0553738,29.259648 57.2864849,29.259648 C57.5175959,29.259648 57.6975959,29.3285369 57.8264849,29.4663146 C57.9553738,29.6040923 58.0198182,29.8418702 58.0198182,30.179648 L58.0198182,30.5663146 L59.4064849,30.5663146 L59.4064849,30.2729813 C59.4064849,29.5174257 59.2264849,28.9374257 58.8664849,28.5329813 C58.5064849,28.1285369 57.9664849,27.9263146 57.2464849,27.9263146 C56.5264849,27.9263146 55.9864849,28.1285369 55.6264849,28.5329813 C55.2664849,28.9374257 55.0864849,29.5174257 55.0864849,30.2729813 Z" id="2-Years" fill="#DA0000"></path>
                            <path d="M23.7451294,45.7206746 L24.2784628,50.694008 L26.2251294,50.694008 L27.2651294,41.3606746 L25.9851294,41.3606746 L25.2251294,48.774008 L24.4917961,41.3606746 L23.0784628,41.3606746 L22.3717961,48.7206746 L21.5851294,41.3606746 L20.1584628,41.3606746 L21.1984628,50.694008 L23.2117961,50.694008 L23.7451294,45.7206746 Z M32.8663416,50.694008 L31.3863416,50.694008 L31.1330082,49.0006746 L29.3330082,49.0006746 L29.0796749,50.694008 L27.7330082,50.694008 L29.2263416,41.3606746 L31.3730082,41.3606746 L32.8663416,50.694008 Z M29.5196749,47.734008 L30.9330082,47.734008 L30.2263416,43.014008 L29.5196749,47.734008 Z M36.7342204,50.694008 C36.7164427,50.6317857 36.6986647,50.574008 36.680887,50.5206746 C36.6631093,50.4673413 36.6475537,50.4006746 36.6342204,50.3206746 C36.620887,50.2406746 36.6119981,50.1384523 36.6075537,50.014008 C36.6031093,49.8895636 36.600887,49.734008 36.600887,49.5473413 L36.600887,48.0806746 C36.600887,47.645119 36.5253314,47.3384523 36.3742204,47.1606746 C36.2231093,46.9828969 35.9786647,46.894008 35.640887,46.894008 L35.1342204,46.894008 L35.1342204,50.694008 L33.6675537,50.694008 L33.6675537,41.3606746 L35.880887,41.3606746 C36.6453314,41.3606746 37.1986647,41.5384523 37.540887,41.894008 C37.8831093,42.2495636 38.0542204,42.7873413 38.0542204,43.5073413 L38.0542204,44.2406746 C38.0542204,45.2006746 37.7342204,45.8317857 37.0942204,46.134008 C37.4675537,46.285119 37.7231093,46.5317857 37.860887,46.874008 C37.9986647,47.2162302 38.0675537,47.6317857 38.0675537,48.1206746 L38.0675537,49.5606746 C38.0675537,49.7917857 38.0764427,49.994008 38.0942204,50.1673413 C38.1119981,50.3406746 38.1564427,50.5162302 38.2275537,50.694008 L36.7342204,50.694008 Z M35.1342204,42.694008 L35.1342204,45.5606746 L35.7075537,45.5606746 C35.9831093,45.5606746 36.1986647,45.4895636 36.3542204,45.3473413 C36.509776,45.205119 36.5875537,44.9473413 36.5875537,44.574008 L36.5875537,43.654008 C36.5875537,43.3162302 36.5275537,43.0717857 36.4075537,42.9206746 C36.2875537,42.7695636 36.0986647,42.694008 35.840887,42.694008 L35.1342204,42.694008 Z M42.2154325,50.694008 C42.1976548,50.6317857 42.1798769,50.574008 42.1620992,50.5206746 C42.1443214,50.4673413 42.1287658,50.4006746 42.1154325,50.3206746 C42.1020992,50.2406746 42.0932102,50.1384523 42.0887658,50.014008 C42.0843214,49.8895636 42.0820992,49.734008 42.0820992,49.5473413 L42.0820992,48.0806746 C42.0820992,47.645119 42.0065435,47.3384523 41.8554325,47.1606746 C41.7043214,46.9828969 41.4598769,46.894008 41.1220992,46.894008 L40.6154325,46.894008 L40.6154325,50.694008 L39.1487658,50.694008 L39.1487658,41.3606746 L41.3620992,41.3606746 C42.1265435,41.3606746 42.6798769,41.5384523 43.0220992,41.894008 C43.3643214,42.2495636 43.5354325,42.7873413 43.5354325,43.5073413 L43.5354325,44.2406746 C43.5354325,45.2006746 43.2154325,45.8317857 42.5754325,46.134008 C42.9487658,46.285119 43.2043214,46.5317857 43.3420992,46.874008 C43.4798769,47.2162302 43.5487658,47.6317857 43.5487658,48.1206746 L43.5487658,49.5606746 C43.5487658,49.7917857 43.5576548,49.994008 43.5754325,50.1673413 C43.5932102,50.3406746 43.6376548,50.5162302 43.7087658,50.694008 L42.2154325,50.694008 Z M40.6154325,42.694008 L40.6154325,45.5606746 L41.1887658,45.5606746 C41.4643214,45.5606746 41.6798769,45.4895636 41.8354325,45.3473413 C41.9909881,45.205119 42.0687658,44.9473413 42.0687658,44.574008 L42.0687658,43.654008 C42.0687658,43.3162302 42.0087658,43.0717857 41.8887658,42.9206746 C41.7687658,42.7695636 41.5798769,42.694008 41.3220992,42.694008 L40.6154325,42.694008 Z M49.3766446,50.694008 L47.8966446,50.694008 L47.6433113,49.0006746 L45.8433113,49.0006746 L45.5899779,50.694008 L44.2433113,50.694008 L45.7366446,41.3606746 L47.8833113,41.3606746 L49.3766446,50.694008 Z M46.0299779,47.734008 L47.4433113,47.734008 L46.7366446,43.014008 L46.0299779,47.734008 Z M51.4845234,43.934008 L53.3111901,50.694008 L54.8178567,50.694008 L54.8178567,41.3606746 L53.5111901,41.3606746 L53.5111901,46.9473413 L52.0045234,41.3606746 L50.1645234,41.3606746 L50.1645234,50.694008 L51.4845234,50.694008 L51.4845234,43.934008 Z M55.5657355,41.3606746 L55.5657355,42.694008 L57.0990689,42.694008 L57.0990689,50.694008 L58.5657355,50.694008 L58.5657355,42.694008 L60.0990689,42.694008 L60.0990689,41.3606746 L55.5657355,41.3606746 Z M62.2336143,47.6006746 L62.2336143,50.694008 L63.700281,50.694008 L63.700281,47.6006746 L65.5536143,41.3606746 L64.1536143,41.3606746 L63.0336143,45.614008 L61.9136143,41.3606746 L60.380281,41.3606746 L62.2336143,47.6006746 Z" id="Warranty" fill="#353535"></path>
                        </g>
                    </g>
                </g>
            </g>
        </g>
    </g>
</svg>