<?xml version="1.0" encoding="UTF-8"?>
<svg width="138px" height="52px" viewBox="0 0 138 52" version="1.1" xmlns="http://www.w3.org/2000/svg" xmlns:xlink="http://www.w3.org/1999/xlink">
    <!-- Generator: Sketch 47.1 (45422) - http://www.bohemiancoding.com/sketch -->
    <title>red-arrow</title>
    <desc>Created with Sketch.</desc>
    <defs>
        <polygon id="path-1" points="0.9708 1 1.9708 1 1.9708 0.567 0.9708 0.567"></polygon>
    </defs>
    <g id="Montar-2" stroke="none" stroke-width="1" fill="none" fill-rule="evenodd">
        <g id="Montar-Design-New-Hero" transform="translate(-651.000000, -321.000000)">
            <g id="red-arrow" transform="translate(651.000000, 321.000000)">
                <path d="M11.5651,17.1324 C11.4201,17.0584 11.0701,16.9714 11.1151,17.0704 L11.6841,17.3004 L11.5651,17.1324 Z" id="Fill-1" fill="#DC2833"></path>
                <path d="M10.321,17.335 C10.578,17.512 11.046,17.768 11.601,17.869 C11.066,17.609 11.307,17.658 10.666,17.359 C10.621,17.26 10.895,17.278 11.107,17.356 C10.965,17.283 11.272,17.273 10.917,17.12 C10.432,17.086 10.376,17.21 10.71,17.458 C10.572,17.448 10.427,17.374 10.321,17.335" id="Fill-3" fill="#DC2833"></path>
                <path d="M7.1139,24.7242 L7.1979,24.6962 C7.1559,24.6982 7.1299,24.7082 7.1139,24.7242" id="Fill-5" fill="#DC2833"></path>
                <path d="M5.3708,29.3755 C5.3678,29.3355 5.3138,29.3035 5.2618,29.2845 C5.2898,29.3305 5.3168,29.3685 5.3708,29.3755" id="Fill-7" fill="#DC2833"></path>
                <path d="M4.4821,29.9927 C4.5061,29.9807 4.5191,29.9697 4.5371,29.9577 C4.4771,29.9597 4.4421,29.9687 4.4821,29.9927" id="Fill-9" fill="#DC2833"></path>
                <path d="M7.1139,24.7242 L6.8909,24.7962 C7.0799,24.8622 7.0529,24.7732 7.1139,24.7242" id="Fill-11" fill="#DC2833"></path>
                <path d="M11.4186,18.815 C11.3976,18.78 11.3506,18.741 11.2846,18.7 C11.3036,18.729 11.3186,18.756 11.3276,18.783 C11.3586,18.794 11.3866,18.803 11.4186,18.815" id="Fill-13" fill="#DC2833"></path>
                <path d="M7.2653,22.4893 L7.2763,22.4503 C7.2103,22.4213 7.1333,22.3853 7.0473,22.3463 L7.2653,22.4893 Z" id="Fill-15" fill="#DC2833"></path>
                <path d="M7.6559,20.856 C7.6239,20.886 8.1169,21.047 8.3309,21.127 C8.1319,21.044 8.0419,20.988 8.0129,20.945 C7.9189,20.916 7.8039,20.887 7.6559,20.856" id="Fill-17" fill="#DC2833"></path>
                <path d="M9.2946,18.5713 L9.2386,18.5053 C9.2566,18.5233 9.2706,18.5493 9.2946,18.5713" id="Fill-19" fill="#DC2833"></path>
                <path d="M6.8132,23.6065 C6.7392,23.5865 6.6722,23.5735 6.6312,23.5675 C6.6942,23.5865 6.7542,23.5985 6.8132,23.6065" id="Fill-21" fill="#DC2833"></path>
                <path d="M25.4147,28.6304 C25.4317,28.6634 25.4417,28.6844 25.4567,28.7124 C25.4407,28.6614 25.4277,28.6274 25.4147,28.6304" id="Fill-23" fill="#DC2833"></path>
                <polygon id="Fill-25" fill="#DC2833" points="28.3171 30.0347 28.3051 30.0717 28.4331 30.3337"></polygon>
                <path d="M3.401,31.2857 L3.413,31.2817 C3.367,31.2257 3.371,31.2517 3.401,31.2857" id="Fill-27" fill="#DC2833"></path>
                <path d="M3.0446,45.2408 C3.2186,44.6298 3.8976,44.1338 4.0066,43.4988 C3.8816,43.7908 3.0096,44.9198 3.0446,45.2408" id="Fill-29" fill="#DC2833"></path>
                <path d="M11.3405,18.8369 C11.3395,18.8599 11.3375,18.8829 11.3255,18.9039 C11.3515,18.8789 11.3555,18.8579 11.3405,18.8369" id="Fill-31" fill="#DC2833"></path>
                <path d="M4.0065,43.4986 L4.0095,43.4916 L4.0215,43.4316 C4.0155,43.4586 4.0115,43.4756 4.0065,43.4986" id="Fill-33" fill="#DC2833"></path>
                <path d="M2.6764,34.7935 C2.7664,34.8135 2.8374,34.8185 2.9054,34.8235 C2.8534,34.8105 2.7884,34.7985 2.6764,34.7935" id="Fill-35" fill="#DC2833"></path>
                <path d="M4.1471,32.4585 L4.0611,32.5025 C4.1141,32.4905 4.1361,32.4755 4.1471,32.4585" id="Fill-37" fill="#DC2833"></path>
                <path d="M2.9294,36.5064 C2.8744,36.5514 2.7974,36.5594 2.8454,36.6394 C2.8744,36.6364 2.8954,36.6324 2.9154,36.6264 C2.8524,36.5924 2.8294,36.5514 2.9294,36.5064" id="Fill-39" fill="#DC2833"></path>
                <path d="M2.3161,38.5659 C2.3631,38.5419 2.4021,38.5209 2.4451,38.4989 L2.4331,38.4419 L2.3161,38.5659 Z" id="Fill-41" fill="#DC2833"></path>
                <path d="M21.6423,30.8423 C21.7373,30.9583 21.8283,31.0933 21.9143,31.2283 C21.7263,30.9093 21.8543,30.6963 21.6423,30.8423" id="Fill-43" fill="#DC2833"></path>
                <path d="M11.1384,18.732 C11.2624,18.777 11.3204,18.808 11.3404,18.837 C11.3394,18.819 11.3344,18.801 11.3274,18.783 C11.2544,18.757 11.1854,18.735 11.1384,18.732" id="Fill-45" fill="#DC2833"></path>
                <path d="M7.0026,37.1909 L6.9156,37.2129 C6.9706,37.2079 6.9996,37.2009 7.0026,37.1909" id="Fill-47" fill="#DC2833"></path>
                <path d="M12.5036,35.606 L12.5226,35.527 C12.4986,35.525 12.4886,35.547 12.5036,35.606" id="Fill-49" fill="#DC2833"></path>
                <path d="M6.9694,37.3003 C6.7694,37.3313 6.6504,37.3593 6.5704,37.3823 C6.6154,37.3763 6.6534,37.3713 6.7154,37.3623 L6.9694,37.3003 Z" id="Fill-51" fill="#DC2833"></path>
                <path d="M21.9167,31.232 L21.9147,31.228 L21.9167,31.232 Z" id="Fill-53" fill="#DC2833"></path>
                <path d="M20.9538,36.1529 C20.9278,36.2489 20.8608,36.1689 20.8048,36.0779 C20.8278,36.0549 20.8528,36.0229 20.8808,35.9679 C20.8738,35.9509 20.8658,35.9289 20.8588,35.9089 C20.8978,35.9999 20.9338,36.0859 20.9538,36.1529 M18.5098,33.3599 C18.5648,33.3539 18.6238,33.3279 18.6828,33.2939 C18.7778,33.4459 18.8488,33.6179 18.8058,33.6299 C18.7718,33.5109 18.6358,33.4649 18.5098,33.3599 M18.8858,33.1579 L18.8808,33.1489 C18.9138,33.1179 18.9428,33.0909 18.9608,33.0749 C18.9448,33.0919 18.9238,33.1159 18.8858,33.1579 M22.6928,29.4489 C22.4928,29.5349 22.9068,30.0909 23.0438,30.4609 C22.9008,30.7519 22.7078,30.0679 22.4708,29.7979 C22.4088,30.0319 22.5838,30.6459 22.4638,30.6779 C22.4048,30.5819 22.3648,30.5559 22.3248,30.4189 C22.4208,30.9789 21.8848,30.6739 22.0168,31.3719 C21.9768,31.3249 21.9438,31.2769 21.9168,31.2319 C22.1018,31.5229 22.2648,31.8299 22.3718,32.0519 C22.2898,32.1069 22.4068,32.5189 22.1718,32.1379 C22.2298,32.1229 22.1528,31.9609 22.1138,31.8239 L22.1108,32.0429 C21.7368,31.5129 22.1348,31.7819 21.9178,31.3589 C21.8358,31.6349 21.8708,32.2149 21.6528,32.1229 C21.3388,31.5779 21.8738,31.7709 21.4378,31.3679 L21.7588,31.4729 C21.1458,30.6739 21.9168,31.4689 21.2868,30.6019 C20.9278,30.5819 21.1228,31.0459 20.7638,31.0239 C20.8598,31.3659 21.0188,31.4719 21.1158,31.8149 C21.0098,32.5739 20.0888,30.5679 20.1818,31.4599 C20.2968,31.8709 20.6298,32.5919 20.2328,32.3239 L19.9788,31.6559 C19.6798,31.7299 20.2918,32.6419 19.7938,32.3609 C19.7168,32.0879 19.8968,32.0439 19.8178,31.9899 C19.3808,31.5839 19.8728,32.4139 19.7328,32.4849 L19.4178,31.9399 C19.1778,32.1739 19.0708,32.7399 18.8078,33.0039 C18.7388,32.8279 18.7038,32.6259 18.5428,32.4919 C18.2868,32.9749 17.6568,32.8589 17.1028,32.7239 L17.2038,33.2819 C17.1668,33.2939 17.0278,33.0959 17.0168,32.9839 C16.7738,32.8779 17.1668,33.2939 17.1918,33.5199 C17.1238,33.5979 16.9368,33.2999 16.9168,33.1289 C16.8618,33.6729 16.6158,34.3949 16.0718,34.0209 L16.0538,33.8489 C15.7358,33.7639 16.3148,34.9649 15.8838,34.6169 L15.8788,34.5119 C15.3008,34.5439 15.0078,35.2519 14.2748,34.7069 C14.5628,35.4369 13.6508,34.6349 14.1168,35.6209 C13.6018,35.2779 13.5908,35.0649 13.0468,34.9349 C12.9228,34.9429 13.2058,35.6189 13.1328,35.7839 L12.8698,35.2779 L12.9738,35.8969 L12.5718,35.3369 L12.5218,35.5269 C12.5838,35.5329 12.7368,35.7039 12.8058,35.8529 C12.7398,36.1759 12.1788,35.7279 12.0408,35.4709 L11.8268,36.1219 C11.7318,35.9129 11.7688,35.8049 11.7598,35.6459 C11.7938,36.2819 11.4438,35.1329 11.4748,35.7159 C11.5618,35.8169 11.6148,36.0259 11.6618,36.1319 C11.3998,35.8789 11.1578,35.9989 11.0468,36.2189 L10.9008,35.8519 C10.5348,35.9279 10.3098,36.3669 9.9458,36.5449 C10.1588,36.6409 10.4388,37.2619 10.3638,37.3749 L10.0468,36.8609 C10.1478,37.2269 10.2608,37.0069 10.3288,37.4839 C10.1618,37.4909 9.9258,36.9209 9.9138,36.7069 L9.8458,36.9759 C9.7538,36.8219 9.7488,36.7169 9.6548,36.5079 C9.7578,36.8759 9.0968,36.1149 9.2958,36.7429 L9.2048,36.5889 C8.8428,36.7679 8.7728,37.0369 8.4928,37.2139 C8.7248,37.6789 8.5578,37.6349 8.6608,38.0539 C8.3788,38.0109 7.9238,37.7869 7.7248,37.9369 C7.7838,38.1979 7.8978,38.3429 7.9908,38.6419 C7.7868,38.2159 7.7248,38.2969 7.6468,37.9549 C7.5838,38.0739 7.5998,38.0849 7.4908,38.5729 C7.5248,38.7729 7.5618,38.8479 7.5668,39.0279 C7.5318,39.1329 7.4618,38.8589 7.4558,38.6059 L7.4608,38.5489 C7.3848,38.9859 7.2298,38.6769 7.2248,38.3319 C7.1948,37.9979 7.2998,37.6349 7.0648,38.3089 L7.0898,38.2419 C6.9928,38.4839 6.8748,38.7369 6.7358,39.0009 C6.7158,38.9199 6.9508,38.4909 7.0608,38.1049 C6.8088,38.6769 6.7468,38.6779 6.7488,38.6069 C6.7408,38.5429 6.7918,38.4099 6.5208,38.8439 C7.0608,37.7829 7.0538,37.8149 6.9238,37.9799 C6.8078,38.1379 6.5498,38.4389 7.0848,37.6649 L6.6788,38.2419 C6.2568,38.8199 6.8928,37.9219 6.9878,37.7879 C6.6808,38.2169 6.6388,38.2749 6.3838,38.6299 C6.0598,38.9989 6.0348,38.9179 6.2378,38.6199 C6.6088,38.0989 7.1418,37.4789 7.3808,37.2469 C7.5048,37.1419 4.8788,39.6719 6.0618,38.4579 L6.9368,37.6619 C6.4178,38.1199 6.4598,38.0039 6.5048,37.9239 C6.5538,37.8289 6.6068,37.7689 6.2378,37.9199 C6.4138,37.8249 6.6458,37.6849 6.6408,37.6969 C7.2098,37.3429 6.6858,37.6199 6.2488,37.8189 C6.3078,37.7669 6.6528,37.6109 6.8808,37.4899 C7.1988,37.3409 6.2168,37.7339 6.7488,37.4969 C6.8188,37.4699 6.9048,37.4389 6.9578,37.4199 C6.7068,37.5089 7.0358,37.3479 6.4378,37.5599 C6.7328,37.4279 6.2188,37.5039 6.5698,37.3819 C5.9588,37.4299 6.8928,37.2629 6.0368,37.3039 C6.9248,37.2529 6.7648,37.2229 6.3868,37.1159 C6.6378,37.1599 6.6588,37.1209 7.0038,37.1879 C6.9968,37.1709 6.8518,37.1089 6.4348,37.0049 C6.5458,37.0199 6.6248,37.0319 6.6908,37.0419 C6.7468,37.0249 6.7748,36.9889 6.7808,36.9529 C6.7948,36.8789 6.7268,36.7819 6.6678,36.6919 C6.5488,36.5109 6.4578,36.3579 7.0978,36.4589 C6.8088,35.8529 6.6498,35.3249 6.5908,34.8399 C7.3848,35.0939 6.5288,35.3379 7.3728,35.5699 C7.1648,35.0649 6.5498,34.6249 6.8628,34.2789 C7.0038,34.2079 7.1918,34.4419 7.3178,34.5179 C7.1098,34.0129 7.6258,33.7549 7.2998,33.2619 C7.3728,33.2859 7.4428,33.3489 7.4928,33.4039 C7.4878,33.3249 7.6598,33.2739 7.2948,33.1739 L7.3718,33.2719 C6.8098,33.2279 6.3558,32.6599 6.0818,32.5629 C7.0858,32.9959 6.4498,32.2849 7.7068,32.8709 C7.6518,32.8019 7.4978,32.6929 7.2528,32.6309 C7.3438,32.5829 7.4918,32.6019 7.7468,32.7559 C7.6258,32.4409 7.2128,32.4169 7.2898,32.1879 C7.4658,32.2409 7.5198,32.3079 7.7198,32.3939 C7.4118,32.1739 7.1038,31.9539 7.3108,31.8029 C7.4138,31.8459 7.5578,31.8649 7.5378,31.9229 C7.5858,31.5709 6.7968,31.0779 7.2378,30.8079 C7.9698,31.1449 7.5268,30.7579 8.1938,30.9359 L8.0558,30.6789 L7.7118,30.6629 C7.7738,30.4929 7.3388,30.1959 7.5998,30.1109 L7.8338,30.3219 L7.8058,29.9589 L7.4998,30.0679 C7.2118,29.7909 6.6578,29.8369 6.9108,29.6609 C6.9648,29.7279 6.9708,29.4899 7.3878,29.5159 L7.3898,29.5169 C7.2048,29.3679 7.0098,29.2139 7.2118,29.1339 C7.4328,29.1649 7.9348,29.3809 8.0818,29.3999 C7.5558,29.1499 8.0508,28.9489 7.4938,28.6649 C7.6218,28.7419 7.9678,28.8479 8.0428,28.8569 L7.6138,28.6519 C7.7818,28.6149 7.8548,28.6239 8.1278,28.7189 C8.2818,28.5029 7.2658,28.5459 7.7138,28.3669 C7.7428,28.3999 7.8128,28.4099 7.8678,28.4759 C8.1418,28.2449 7.7488,27.8349 8.0498,27.6359 C8.7378,27.7569 8.1428,27.9159 8.7308,27.9949 C8.7248,27.5769 8.1708,26.9659 8.4368,26.6429 L8.3438,26.6899 C7.4198,26.3579 8.8908,26.5539 8.5038,26.2349 C8.5588,26.3009 9.0068,26.4509 8.9048,26.4069 C9.1318,26.1989 8.8288,25.8199 8.6488,25.3489 L8.8758,25.4689 C9.1358,25.3839 9.1168,25.1129 9.2748,24.9849 C9.0488,24.8649 9.1148,24.7849 8.7478,24.7359 C10.2698,24.6509 8.2948,23.5689 9.5708,23.4699 C9.5578,23.5239 9.7448,23.6589 9.7588,23.6169 L9.6478,23.1759 C9.2298,23.0829 9.3858,23.1509 9.0438,23.1339 C8.8148,23.0139 8.6588,22.8519 8.6868,22.7589 C8.9068,23.0089 9.3448,22.9539 9.5948,22.9499 C9.4658,22.9239 9.3348,22.8579 9.2058,22.8259 C9.9918,22.8479 8.3918,22.5469 8.9628,22.4259 L9.1728,22.5049 C9.0938,22.3709 8.8368,22.1939 8.9308,22.1049 C9.4168,22.2009 9.1198,22.2769 9.5068,22.4009 C9.5248,22.2409 8.6998,21.8329 9.2128,21.8369 C9.3248,21.9409 9.2998,22.0339 9.4108,22.1379 C10.0118,22.1539 9.8758,22.0949 9.9968,22.0099 L9.9808,22.0169 L10.3098,21.8359 L10.1398,21.8559 C8.9628,21.2969 10.0298,21.4019 9.2988,20.9039 C9.9888,21.3819 9.7278,21.0779 10.2598,21.2569 C10.4278,21.2369 10.6238,21.1879 10.7658,21.2609 C10.3698,21.0099 11.1678,21.1609 10.5868,20.8009 C10.7608,20.8449 10.6408,20.6769 11.0668,20.8339 C10.9778,20.6359 10.7558,20.7809 10.5428,20.7029 C10.0258,20.2849 11.4288,20.3479 10.7238,19.7569 C10.4798,19.3569 9.9148,19.1279 9.7088,18.7619 C10.0128,18.7499 10.3138,19.0269 10.3138,19.0269 C10.6138,18.9509 10.6008,18.8229 10.4458,18.6209 C10.5888,18.6949 10.7248,18.7029 10.9318,18.7179 C10.9208,18.5899 10.3258,18.4529 10.6258,18.3779 C10.8108,18.4609 11.1078,18.5869 11.2848,18.6999 C11.1668,18.5169 10.8848,18.2869 10.7698,18.0999 C11.0828,18.1529 11.2018,18.3209 11.3838,18.4299 C11.2948,18.2319 11.2328,17.9399 10.7708,17.7489 L10.5708,17.7989 C10.5648,17.7349 10.9888,17.8919 11.0628,17.9609 C11.3958,18.2069 10.8398,18.1059 10.6638,18.0609 L10.5828,17.9279 C9.5398,17.7279 10.6258,18.3779 10.5068,18.5609 L9.7958,18.2569 L10.3458,18.6459 C10.1408,18.6319 9.7198,18.5389 9.6398,18.4059 C9.2328,18.4419 9.8628,18.6119 9.4208,18.6139 C9.3528,18.6099 9.3188,18.5919 9.2948,18.5709 L9.4718,18.7779 C9.3248,18.7039 8.9438,18.6449 9.0768,18.5909 C8.5758,18.7159 9.5078,19.1629 8.9208,19.0909 L8.8818,19.0559 C9.0258,19.4809 9.4128,19.2519 9.9688,19.7049 L8.5818,19.4829 L9.1118,19.6779 C9.0818,19.7089 9.0188,19.7679 8.8078,19.6899 C9.1378,19.9359 9.0498,19.7379 9.3748,19.9209 C8.8308,19.9469 9.4618,20.4689 8.5898,20.2499 C8.9808,20.4359 8.9558,20.1789 9.1858,20.4499 C8.2438,20.2259 9.2798,20.7119 8.8078,20.7439 C8.3448,20.5519 8.6418,20.4769 8.1688,20.5079 C8.9478,20.8459 7.8988,20.7649 8.0138,20.9449 C8.6548,21.1439 8.1938,21.3169 8.3418,21.6059 C8.1298,21.5269 7.8608,21.9239 7.5658,22.0629 L7.4598,22.0239 C8.0988,22.2589 7.9108,22.4389 7.9988,22.6359 C7.6108,22.5129 7.4658,22.4389 7.3168,22.3019 L7.2758,22.4499 C7.4738,22.5479 7.5698,22.6269 7.6158,22.7449 L7.1408,22.5619 C7.1088,22.7669 7.5948,23.1289 7.1938,23.2849 C7.6428,23.4349 8.5168,23.4619 8.7398,23.8199 C8.4918,23.7569 8.0688,23.6409 7.9898,23.5409 C8.0158,23.5729 8.1688,23.6829 8.0508,23.6979 L7.6708,23.4679 C7.4548,23.5289 7.9968,23.6319 7.9308,23.7119 C7.5818,23.6059 7.6608,23.7059 7.3878,23.6089 C7.3598,23.5759 7.5568,23.5719 7.4298,23.4959 C7.3358,23.5809 7.0908,23.6449 6.8128,23.6069 C7.0158,23.6569 7.2838,23.7479 7.3068,23.8369 C7.2728,24.0409 6.8658,23.7779 6.6518,23.8399 C6.8808,23.9599 6.5918,24.0099 7.1128,24.1699 C7.0938,24.2259 6.8468,24.1639 6.6978,24.1439 C6.8978,24.3149 6.6218,24.6389 7.2118,24.6909 L7.2568,24.6749 C7.2658,24.6839 7.2648,24.6899 7.2738,24.6989 L7.2738,24.6979 L7.2738,24.6989 C7.6938,25.1879 6.7708,25.3029 6.8958,25.7009 L6.7218,25.6479 C6.8608,25.9049 6.7078,26.1229 7.0418,26.3769 C7.0228,26.4349 6.6818,26.4189 6.4798,26.3319 C6.5658,26.5219 6.7578,26.5979 6.4038,26.7299 C6.1438,26.4859 6.1178,26.7009 6.2268,26.5069 C6.0168,26.6579 5.7248,26.6189 6.1398,26.9719 C5.7128,26.7669 5.5308,26.9509 5.6368,27.0849 L5.9978,27.0429 C6.0318,27.1679 5.9648,27.2469 5.8988,27.3289 L5.3248,27.1019 C4.4878,27.2889 6.3278,28.1909 5.0368,28.1369 C5.4168,28.3679 5.3908,28.0069 5.8458,28.2459 C5.7108,28.4069 4.8078,28.3459 4.7888,28.4029 C4.3868,28.5579 5.5788,28.8969 5.2758,29.0949 C5.4958,29.1239 6.0658,29.2589 6.2048,29.5169 C6.0718,29.6779 5.2558,29.4799 5.1218,29.3129 C5.1178,29.2629 5.1908,29.2619 5.2618,29.2849 C5.2028,29.2029 5.1368,29.0969 4.8868,29.1019 L5.0898,29.1889 C4.8478,29.2159 4.7938,29.4779 4.4678,29.3149 C4.6258,29.5139 4.7938,29.4779 4.9338,29.4069 C4.5578,29.5519 4.8138,29.7739 4.5368,29.9579 C4.6638,29.9529 4.9218,29.9909 4.9078,30.0289 C4.5408,30.3089 5.2598,30.3059 5.2788,30.5759 C4.9168,30.6179 4.5288,30.2979 4.7248,30.6229 C4.4628,30.7069 4.1568,30.4869 4.0038,30.3769 C4.3428,30.7199 3.6128,30.7129 3.5008,30.8169 L3.3658,30.6489 C3.4458,30.7499 3.4258,30.8059 3.4068,30.8639 L3.8478,30.9229 C3.7538,30.9689 3.7348,31.0279 3.5598,30.9739 C3.8138,31.1279 4.2748,31.1289 4.6098,31.3819 C4.3688,31.4099 4.7558,31.7299 4.1878,31.5939 C4.4638,31.3629 3.6188,31.4589 3.6008,31.1879 C3.6538,31.2549 3.6348,31.3109 3.5398,31.3579 C3.4748,31.3499 3.4278,31.3139 3.4008,31.2859 C2.8198,31.4129 3.9938,31.6009 3.8948,31.8829 C3.5918,31.7539 3.2788,31.7709 3.3318,31.8389 C3.3728,31.7249 3.8728,31.9399 4.0818,32.1179 C3.7818,32.2279 4.2048,32.3719 4.1468,32.4589 L4.2958,32.3829 C4.5988,32.5149 4.5298,32.5939 4.5908,32.7519 C4.3428,32.6889 4.4568,32.5859 4.3348,32.5979 C4.8458,32.9059 3.6668,32.7489 3.9798,33.0569 C3.7398,33.0859 3.3878,32.8889 3.2188,32.9269 C3.5588,33.2709 2.7168,33.0389 2.9828,33.3729 C3.4258,33.4309 3.3258,33.3889 3.6878,33.6759 L3.5058,33.2039 L4.0468,33.6329 C4.0868,33.5199 3.8538,33.3099 3.9468,33.2619 C4.2558,33.4829 4.1548,33.4389 4.5218,33.4889 C3.8408,33.4579 4.7968,33.9139 4.3138,33.9679 L3.2698,33.6489 C2.7218,33.7849 3.6608,34.2989 3.2898,34.5769 L3.5068,34.5169 C3.9078,34.6889 3.4988,34.7549 3.6328,34.9209 C3.2858,34.8049 3.1378,34.8399 2.9048,34.8239 C3.1668,34.8949 2.8038,35.0779 3.4918,35.3199 L2.9828,35.3409 C2.7058,35.5819 3.8868,35.9499 3.6738,36.2289 C3.3198,36.0249 3.0338,36.0799 2.8218,35.7979 C2.7988,35.8659 2.6808,36.0269 2.9288,36.0809 C2.6768,36.1239 3.2958,36.5659 2.9158,36.6269 C3.0588,36.7089 3.4388,36.7719 3.3678,36.9039 C3.2878,36.9129 3.1838,36.8869 3.1838,36.8869 C3.3658,36.9089 3.3718,37.1169 3.8198,37.0269 C3.1858,37.1609 3.1178,37.4619 3.0858,37.7099 C3.0508,37.9689 3.0518,38.1799 2.4448,38.4989 C2.4948,38.7599 2.5308,39.0479 2.4878,39.2849 C2.3628,39.3229 2.2708,39.3739 2.3318,39.3059 C1.8128,39.8549 3.5288,38.9579 2.9678,39.5119 C2.1828,40.0789 2.6348,39.5129 2.3238,39.7709 C1.5798,40.1649 1.5868,40.2859 1.6668,40.3769 C1.7458,40.4729 1.9048,40.5179 1.4118,40.9439 L1.3448,40.9249 C0.7448,41.5049 1.7628,41.1159 1.5528,41.5179 C1.5528,41.5179 1.4148,41.6039 1.3098,41.6929 C2.0538,41.3469 2.2178,41.5039 2.3738,41.5749 C1.7398,42.0559 2.0658,41.7369 1.3778,42.3709 C1.4308,42.4289 2.4628,41.4199 2.5798,41.4939 C2.1928,41.8899 1.8138,42.3729 1.0678,43.0869 L1.1148,42.8349 C0.1268,43.8379 1.0308,43.1939 0.8228,43.4889 L0.4088,43.8679 C0.3988,44.2289 1.4808,43.1439 1.2758,43.6489 L1.6208,43.2569 C2.6538,42.3119 0.9428,44.1099 1.6988,43.4499 L0.5448,44.7629 C0.7628,44.6489 1.4828,44.0879 1.6358,44.0559 C0.8018,44.9559 0.4658,45.1119 0.0348,45.4319 C-0.0272,45.6229 -0.0672,45.9599 0.4888,45.3579 C0.3948,45.4259 0.1358,45.6719 0.3358,45.3939 C0.8888,44.8429 1.2488,44.5099 1.4058,44.4239 C1.5948,44.2519 1.7268,44.1469 1.8098,44.1099 C0.6768,45.4849 0.7388,45.5529 0.9108,45.5209 C1.0828,45.4879 1.3348,45.3709 0.7398,46.2929 C1.3998,45.6609 1.6088,45.6169 1.8098,45.6379 C2.0038,45.6629 2.1908,45.7529 2.6158,45.4889 C3.3818,43.8599 2.8588,45.3289 3.8228,43.5649 C4.0238,43.3819 4.0578,43.3839 4.0098,43.4919 C3.9608,43.7699 3.9348,44.0359 3.9328,44.2899 C3.8128,44.7199 3.5908,44.7449 3.4108,45.1219 C3.7418,45.0489 3.2208,45.7569 3.3028,46.0529 C3.5238,45.4849 3.8378,45.1289 3.9748,45.2309 C3.9708,45.0389 3.9748,44.8409 3.9908,44.6369 C4.8678,43.5129 3.9008,45.7499 4.8138,44.6129 L4.4518,45.1979 C4.8498,44.7579 5.6408,44.5959 6.1408,43.3209 C6.1528,43.4619 6.1478,43.8109 5.9998,43.9789 C6.3358,43.8829 6.7758,43.3859 7.1238,42.9969 C7.4808,42.6009 7.7548,42.3079 8.0398,42.4769 L8.0238,42.7949 C8.1468,42.6419 8.1578,42.1429 8.3568,42.3529 C8.3718,42.4739 8.3588,42.6619 8.4218,42.6479 C8.4788,42.5119 8.6388,41.9939 8.8378,42.0729 L8.7838,42.4499 C9.1718,42.4549 9.3878,42.1319 9.5048,41.7809 C9.5808,41.5969 9.5868,41.4289 9.5908,41.2859 C9.6018,41.1379 9.6268,41.0069 9.6838,40.9239 C10.0548,41.6489 10.4738,41.7319 10.6828,41.7729 L10.7298,41.8779 C11.2178,41.7409 11.1728,40.8929 11.4358,40.3999 C12.0928,41.0559 12.4638,40.2889 13.0978,40.5209 C12.9678,40.4209 12.8188,39.9509 12.8538,39.8409 C13.0248,39.9389 12.8618,39.2039 13.1858,39.8759 L13.1458,39.8809 C13.5518,40.4949 13.6598,40.2199 13.8218,40.1599 L13.4028,39.2779 C14.4518,40.3359 14.2178,38.2749 15.0168,39.2949 C15.0028,39.0269 15.1238,38.9679 15.1088,38.7019 L15.3428,39.1709 C15.6718,39.1519 15.8358,39.1409 16.1108,38.8609 L16.2138,39.2279 C16.4168,39.1629 15.7628,37.7639 15.9218,37.6479 L16.3288,38.3169 C16.6498,38.1379 17.2938,38.5799 17.2938,37.7839 C17.3408,37.8879 17.4338,38.0939 17.3948,38.1499 C17.5578,38.0899 18.2308,38.3149 17.6868,37.3899 C18.0088,38.0089 18.0558,37.2779 18.0918,36.9139 L18.2988,37.3859 C18.1478,36.7239 18.0698,36.5609 18.1958,36.2929 C18.2748,36.3269 18.4268,36.6369 18.3008,36.5529 C18.5888,36.7099 18.2068,36.0539 18.5308,36.1959 L18.6058,36.5269 C18.7938,36.4759 18.6998,36.3259 18.6178,35.9369 C18.6298,35.6989 18.9978,35.8879 19.2348,36.2899 C19.1288,36.0259 19.0478,35.6399 19.2088,35.7089 C19.3028,35.8579 19.3158,35.9739 19.3218,36.0309 C19.7648,36.1979 19.4698,35.2829 19.8938,35.6329 C19.9758,35.7829 20.0278,35.8529 20.0668,35.8899 C19.8368,35.9939 19.6428,36.0619 19.6428,36.0189 C19.8588,36.4419 20.0788,36.4239 20.2328,37.0809 C20.2158,36.6879 20.1098,35.8679 20.3888,35.9759 C20.4188,36.0129 20.4468,36.0489 20.4868,36.1109 L20.4928,36.1679 C20.5558,36.1889 20.5718,36.1309 20.5698,36.0419 C20.6618,36.0829 20.7238,36.1159 20.7808,36.0939 C20.9808,36.4329 21.0858,36.1759 21.1848,36.1469 C20.9398,35.6879 21.0978,35.7019 20.7908,35.3769 C20.8218,35.4019 20.8018,35.4409 20.7518,35.4909 C20.7448,35.5109 20.7318,35.5269 20.7368,35.5579 L20.7238,35.5149 C20.6708,35.5579 20.5988,35.6089 20.5148,35.6609 C20.4658,35.3889 20.4378,35.1539 20.6698,35.3589 C20.5688,35.0379 20.4648,34.7069 20.4138,34.5489 C20.8678,35.1299 21.2848,35.3559 21.5218,35.7369 C21.6648,35.3359 22.0848,35.2329 21.8128,34.2749 C21.8348,34.1229 22.0308,34.4779 22.1308,34.5989 C22.1298,34.7109 22.0688,34.7239 22.1078,34.8609 C22.1508,34.5579 22.5288,34.5369 22.2558,33.9109 C22.5948,34.0839 22.4308,34.5259 22.6518,34.2879 L22.7098,34.4919 C23.7418,35.1879 22.7858,32.4979 24.0168,33.4389 C23.9358,33.3839 23.8978,33.3589 23.8378,33.2609 C24.7948,33.4649 24.9668,32.0329 26.0798,32.5619 C26.3588,32.6409 26.1818,32.2429 26.1448,31.8879 L26.4408,32.3649 L26.3458,31.6899 C26.4108,31.1269 27.4558,32.6599 27.4038,31.6849 L27.1868,31.3739 C27.3478,31.3719 27.4898,30.9689 27.6658,31.3649 C27.6468,31.2979 27.5288,30.9959 27.6688,31.1449 L27.8058,31.4029 L27.8908,30.7969 C28.2298,30.8599 28.3818,31.8479 28.7618,31.7169 C28.8428,31.5489 28.7498,30.7679 28.6108,30.6199 C28.5518,30.6339 28.3918,30.5269 28.2548,30.2689 L28.3058,30.0719 C27.9348,29.2949 27.6268,28.4629 27.0568,28.0799 L27.0908,28.6529 L26.8338,28.3159 L26.9948,28.2039 C26.7178,27.9039 26.8138,28.2459 26.8518,28.4939 C26.7348,28.3039 26.6358,28.1809 26.5568,28.1289 L26.7288,28.9639 C26.5508,28.6759 26.5158,28.3229 26.2948,28.2269 C26.3738,28.6149 26.7288,28.8519 26.6868,29.1559 C26.4098,28.8579 26.2938,28.5589 26.3298,28.9169 C26.2128,28.7269 26.1738,28.5899 26.1748,28.4789 C26.1928,28.7679 25.9528,28.7179 26.1078,29.1529 C25.7858,28.7759 25.8178,29.4429 25.4568,28.7129 C25.5138,28.9029 25.5668,29.3749 25.4868,29.4539 C25.2158,28.4969 25.1068,29.5839 24.6768,28.6299 C24.9478,29.4759 24.3918,29.2139 24.3868,29.7619 C24.3678,29.6939 24.3278,29.5549 24.3688,29.5859 C24.2078,29.5859 24.0508,29.3689 23.8928,29.2629 C24.2068,29.9169 24.0838,30.1659 24.1808,30.6179 C23.7048,30.0759 23.8878,29.8119 23.5318,29.2409 C23.8078,29.7589 23.5278,29.9009 23.8038,30.3089 C23.4868,29.9859 23.6048,30.1749 23.2688,29.6719 C23.6618,30.4889 23.2278,29.8659 23.3828,30.4119 C23.0068,30.1029 22.9518,29.6789 22.8868,30.0219 C22.6708,29.8209 22.6928,29.4489 22.6928,29.4489" id="Fill-55" fill="#DC2833"></path>
                <path d="M20.7516,35.4908 C20.7546,35.4758 20.7496,35.4548 20.7596,35.4448 C20.7256,35.4118 20.6956,35.3848 20.6696,35.3588 L20.7236,35.5148 L20.7516,35.4908 Z" id="Fill-57" fill="#DC2833"></path>
                <path d="M7.2116,24.6905 L7.1976,24.6955 C7.2206,24.6945 7.2406,24.6935 7.2736,24.6985 C7.2476,24.6955 7.2326,24.6935 7.2116,24.6905" id="Fill-59" fill="#DC2833"></path>
                <polygon id="Fill-61" fill="#DC2833" points="12.8092 35.1617 12.8702 35.2777 12.8512 35.1587"></polygon>
                <path d="M9.5944,22.9497 C9.6394,22.9587 9.6874,22.9637 9.7314,22.9577 C9.6984,22.9497 9.6494,22.9487 9.5944,22.9497" id="Fill-63" fill="#DC2833"></path>
                <path d="M9.9967,22.0103 L10.2157,21.9253 C10.0977,21.9553 10.0357,21.9843 9.9967,22.0103" id="Fill-65" fill="#DC2833"></path>
                <path d="M10.4675,21.336 C10.3815,21.303 10.3185,21.28 10.2595,21.257 L10.2555,21.258 L10.4675,21.336 Z" id="Fill-67" fill="#DC2833"></path>
                <path d="M7.4928,33.4038 C7.4918,33.4148 7.4958,33.4268 7.5068,33.4398 C7.5828,33.5368 7.5578,33.4788 7.4928,33.4038" id="Fill-69" fill="#DC2833"></path>
                <path d="M7.3893,29.5171 C7.4683,29.5811 7.5453,29.6451 7.5903,29.7011 C7.6473,29.6491 7.6713,29.6031 7.3893,29.5171" id="Fill-71" fill="#DC2833"></path>
                <polygon id="Fill-73" fill="#DC2833" points="7.0124 37.189 7.0034 37.188 7.0024 37.191"></polygon>
                <path d="M7.5329,29.8628 C7.6509,29.8298 7.6449,29.7708 7.5909,29.7008 C7.5419,29.7428 7.4719,29.7888 7.5329,29.8628" id="Fill-75" fill="#DC2833"></path>
                <path d="M11.6647,18.1617 L11.6957,18.1317 C11.6627,18.1227 11.6367,18.1127 11.6167,18.1037 L11.6647,18.1617 Z" id="Fill-77" fill="#DC2833"></path>
                <path d="M11.6169,18.1035 L11.5699,18.0455 C11.5639,18.0645 11.5629,18.0815 11.6169,18.1035" id="Fill-79" fill="#DC2833"></path>
                <path d="M11.4694,17.9243 L11.5704,18.0463 C11.5794,18.0173 11.6064,17.9863 11.4694,17.9243" id="Fill-81" fill="#DC2833"></path>
                <path d="M11.1374,19.083 L11.3154,19.148 C11.2804,19.131 11.2224,19.109 11.1374,19.083" id="Fill-83" fill="#DC2833"></path>
                <path d="M11.1003,19.3994 C11.1623,19.3394 11.5383,19.3344 11.4553,19.2004 L11.3153,19.1484 C11.5693,19.2754 10.8163,19.2404 11.1003,19.3994" id="Fill-85" fill="#DC2833"></path>
                <path d="M8.4928,19.9878 L8.7128,19.7788 C8.5078,19.7648 8.2308,19.7458 8.2198,19.6168 C7.5508,19.7628 8.6698,19.6808 8.4928,19.9878" id="Fill-87" fill="#DC2833"></path>
                <path d="M7.9801,20.6861 C7.9311,20.5241 7.7001,20.6041 7.5941,20.5641 C7.7441,20.7031 7.7821,20.7371 7.9801,20.6861" id="Fill-89" fill="#DC2833"></path>
                <path d="M6.2868,26.3355 L5.8388,26.1865 C5.8718,26.3105 6.0138,26.2395 6.2868,26.3355" id="Fill-91" fill="#DC2833"></path>
                <polygon id="Fill-93" fill="#DC2833" points="8.3044 28.1167 8.6164 28.0987 8.2154 27.9267"></polygon>
                <polygon id="Fill-95" fill="#DC2833" points="4.8874 27.7886 4.8364 27.7246 4.9484 27.9466"></polygon>
                <path d="M1.9167,38.2974 L2.5757,38.1274 C2.4907,38.0474 1.7817,38.1354 1.9167,38.2974" id="Fill-97" fill="#DC2833"></path>
                <path d="M0.7936,44.1177 C0.3336,44.6387 -0.0114,45.1377 0.3976,44.7717 C0.5016,44.5627 0.8876,44.0647 0.7936,44.1177" id="Fill-99" fill="#DC2833"></path>
                <polygon id="Fill-101" fill="#DC2833" points="13.9284 39.8345 13.9414 40.0475 14.0114 39.8285"></polygon>
                <g id="Group-105" transform="translate(136.000000, 50.219300)">
                    <mask id="mask-2" fill="white">
                        <use xlink:href="#path-1"></use>
                    </mask>
                    <g id="Clip-104"></g>
                    <path d="M1.3298,1 C1.5088,0.972 1.7648,0.71 1.5588,0.567 L0.9708,0.811 L1.3298,1 Z" id="Fill-103" fill="#DC2833" mask="url(#mask-2)"></path>
                </g>
                <path d="M137.2184,49.2613 C136.8094,49.2243 136.1984,49.2943 135.8714,49.7853 C136.5064,49.6383 136.3554,49.8433 137.0924,49.6453 C137.2984,49.7883 137.1984,50.0933 136.9964,50.1993 C137.1724,50.1693 137.1224,50.5733 137.5054,50.4383 C137.6844,49.9033 137.4514,49.5803 136.8874,49.5003 C136.9384,49.3473 137.1164,49.3163 137.2184,49.2613" id="Fill-106" fill="#DC2833"></path>
                <path d="M122.3893,31.0044 L122.4463,31.1634 C122.4453,31.1064 122.4233,31.0534 122.3893,31.0044" id="Fill-108" fill="#DC2833"></path>
                <path d="M111.7721,20.9219 C111.8681,20.9819 111.9421,20.9639 111.9821,20.9249 C111.8761,20.8899 111.7871,20.8649 111.7721,20.9219" id="Fill-110" fill="#DC2833"></path>
                <path d="M110.2301,18.8242 C110.2601,18.8722 110.2921,18.9072 110.3221,18.9472 C110.3121,18.8682 110.2861,18.8092 110.2301,18.8242" id="Fill-112" fill="#DC2833"></path>
                <path d="M122.3893,31.0044 L122.2493,30.5924 C122.0893,30.7144 122.2863,30.8384 122.3893,31.0044" id="Fill-114" fill="#DC2833"></path>
                <path d="M134.0553,47.6617 C134.1283,47.7067 134.2153,47.7237 134.3113,47.7237 C134.2493,47.6887 134.1923,47.6527 134.1383,47.6107 C134.1103,47.6287 134.0853,47.6427 134.0553,47.6617" id="Fill-116" fill="#DC2833"></path>
                <path d="M127.2223,35.3052 L127.3043,35.3912 C127.3793,35.3692 127.4633,35.3362 127.5543,35.2942 L127.2223,35.3052 Z" id="Fill-118" fill="#DC2833"></path>
                <path d="M130.6139,38.9185 C130.5559,38.8185 130.1409,39.1345 129.9429,39.2525 C130.1449,39.1575 130.2759,39.1515 130.3719,39.1985 C130.4469,39.1355 130.5259,39.0455 130.6139,38.9185" id="Fill-120" fill="#DC2833"></path>
                <path d="M135.0016,45.4722 L135.1446,45.5342 C135.1046,45.5212 135.0516,45.4862 135.0016,45.4722" id="Fill-122" fill="#DC2833"></path>
                <path d="M124.8747,32.6411 C124.9247,32.5811 124.9607,32.5221 124.9777,32.4801 C124.9307,32.5251 124.8977,32.5801 124.8747,32.6411" id="Fill-124" fill="#DC2833"></path>
                <path d="M9.8219,39.0572 C9.7949,39.0332 9.7719,39.0242 9.7469,39.0042 C9.7729,39.0572 9.7989,39.0852 9.8219,39.0572" id="Fill-126" fill="#DC2833"></path>
                <path d="M4.5798,42.3345 L4.5968,42.2515 C4.5158,42.1935 4.4368,42.1375 4.3538,42.0885 L4.5798,42.3345 Z" id="Fill-128" fill="#DC2833"></path>
                <path d="M106.9186,15.5186 C106.9236,15.5276 106.9246,15.5306 106.9296,15.5386 C107.0646,15.5606 107.0006,15.5296 106.9186,15.5186" id="Fill-130" fill="#DC2833"></path>
                <path d="M67.0856,0.8643 C67.5556,1.3533 66.2756,1.4203 66.9886,1.9733 C66.9246,1.7663 67.6836,1.1973 67.0856,0.8643" id="Fill-132" fill="#DC2833"></path>
                <path d="M134.03,47.5201 C133.984,47.4721 133.939,47.4221 133.901,47.3671 C133.944,47.4491 133.984,47.4961 134.03,47.5201" id="Fill-134" fill="#DC2833"></path>
                <path d="M66.9889,1.9732 L66.9889,1.9772 L67.0619,2.0302 C67.0319,2.0062 67.0139,1.9932 66.9889,1.9732" id="Fill-136" fill="#DC2833"></path>
                <path d="M97.7292,9.9893 C97.7032,10.0803 97.7062,10.1623 97.7112,10.2423 C97.7342,10.1953 97.7462,10.1253 97.7292,9.9893" id="Fill-138" fill="#DC2833"></path>
                <path d="M104.0934,14.8135 L103.9724,14.6435 C104.0084,14.7275 104.0514,14.7765 104.0934,14.8135" id="Fill-140" fill="#DC2833"></path>
                <path d="M93.7292,8.6958 C93.6502,8.6138 93.6492,8.5338 93.4872,8.5338 C93.4872,8.5628 93.4912,8.5858 93.4992,8.6098 C93.5782,8.5688 93.6562,8.5698 93.7292,8.6958" id="Fill-142" fill="#DC2833"></path>
                <path d="M89.8317,6.8897 C89.8367,6.9347 89.8527,6.9737 89.8627,7.0157 C89.9057,7.0247 89.9557,7.0347 89.9987,7.0437 L89.8317,6.8897 Z" id="Fill-144" fill="#DC2833"></path>
                <path d="M17.5075,29.1783 C17.3375,29.1463 17.1805,29.0783 17.0325,29.0033 C17.3485,29.2053 17.0335,29.7393 17.5075,29.1783" id="Fill-146" fill="#DC2833"></path>
                <path d="M134.2809,47.4761 C134.1639,47.5391 134.0919,47.5521 134.0299,47.5201 C134.0639,47.5531 134.1009,47.5831 134.1379,47.6111 C134.2059,47.5721 134.2639,47.5281 134.2809,47.4761" id="Fill-148" fill="#DC2833"></path>
                <path d="M91.7448,12.2896 L91.1938,11.9416 C91.3358,12.0646 91.5358,12.1896 91.7448,12.2896" id="Fill-150" fill="#DC2833"></path>
                <path d="M40.5807,11.1299 L40.4767,11.2539 C40.5327,11.2379 40.5717,11.1989 40.5807,11.1299" id="Fill-152" fill="#DC2833"></path>
                <path d="M89.4284,11.1826 C89.4004,10.9656 89.3334,10.8156 89.2464,10.6976 C89.2054,10.7246 89.1634,10.7436 89.1224,10.7906 L89.4284,11.1826 Z" id="Fill-154" fill="#DC2833"></path>
                <path d="M17.028,29.0005 L17.033,29.0035 L17.028,29.0005 Z" id="Fill-156" fill="#DC2833"></path>
                <path d="M20.6979,19.7735 C20.7989,19.5825 20.9179,19.6115 21.0099,19.6715 C20.9439,19.7435 20.8739,19.8325 20.7899,19.9575 C20.7969,19.9755 20.8059,20.0005 20.8149,20.0205 C20.7619,19.9345 20.7159,19.8505 20.6979,19.7735 M25.0739,20.7085 C24.9479,20.7915 24.8039,20.9115 24.6579,21.0445 C24.5079,20.9375 24.4219,20.7675 24.5209,20.6925 C24.5499,20.8275 24.8369,20.7135 25.0739,20.7085 M24.1499,21.5255 L24.1569,21.5325 C24.0699,21.6255 23.9959,21.7045 23.9479,21.7535 C23.9899,21.7065 24.0489,21.6405 24.1499,21.5255 M15.1179,33.0585 C15.5259,32.5925 14.7939,32.4035 14.5799,32.0495 C14.9159,31.3535 15.1869,32.1115 15.6169,32.1475 C15.7809,31.6795 15.5419,30.9975 15.7899,30.7515 C15.8909,30.8065 15.9669,30.7815 16.0199,30.9355 C15.9379,30.2055 16.9709,29.8275 16.8509,28.9405 C16.9259,28.9505 16.9819,28.9735 17.0279,29.0005 C16.7119,28.8385 16.4449,28.6145 16.2749,28.4345 C16.4599,28.2185 16.3169,27.7555 16.7179,27.9805 C16.5899,28.0985 16.7119,28.2315 16.7599,28.3845 L16.8189,28.0355 C17.4709,28.2755 16.7069,28.4825 17.0559,28.8045 C17.2939,28.2425 17.3619,27.3825 17.8009,27.1855 C18.3149,27.5465 17.2499,28.0855 18.0559,28.0365 L17.4179,28.3725 C18.4969,28.6655 17.0869,28.6275 18.1869,28.9985 C18.9229,28.4705 18.6319,28.0495 19.3819,27.5375 C19.2689,27.1515 18.9639,27.2275 18.8519,26.8395 C19.2889,25.4805 20.6759,27.2345 20.7359,25.9875 C20.6119,25.5225 20.1189,24.8865 20.8889,24.7195 L21.2219,25.3855 C21.8919,24.8385 20.8699,24.3105 21.8559,24.0255 C21.9309,24.3395 21.5269,24.6665 21.6799,24.6365 C22.4909,24.6375 21.7019,24.0595 22.0289,23.7455 L22.5279,24.1385 C23.1319,23.4435 23.5669,22.4155 24.2629,21.6565 C24.3439,21.8345 24.3439,22.0955 24.6499,22.0835 C25.4029,20.9955 26.7799,20.3545 27.9679,19.8755 L27.9989,19.1595 C28.0889,19.0965 28.3099,19.2265 28.2829,19.3815 C28.7869,19.2465 28.0889,19.0965 28.1379,18.7865 C28.3309,18.5865 28.6149,18.8075 28.5789,19.0425 C28.9489,18.1485 29.9139,16.7825 30.9789,16.7245 L30.9299,16.9555 C31.6259,16.7365 30.9309,15.5955 31.7559,15.6355 L31.7089,15.7855 C33.0799,15.1105 34.2269,13.7755 35.6449,13.8785 C35.4259,13.0895 37.0939,13.4015 36.6349,12.4235 C37.6569,12.4635 37.5369,12.7515 38.7619,12.4775 C39.0699,12.3735 38.8629,11.6565 39.1669,11.3695 L39.4409,11.8685 L39.6449,11.0865 L40.2129,11.5585 L40.4759,11.2535 C40.3299,11.2935 40.0809,11.1735 40.0259,11.0175 C40.4279,10.5035 41.4889,10.7465 41.6219,10.9985 L42.6619,9.9685 C42.7269,10.1865 42.5519,10.3595 42.4499,10.5705 C42.8709,9.7265 42.8169,11.0545 43.2099,10.2995 C43.0739,10.2165 43.1159,9.9705 43.0829,9.8585 C43.5329,10.0395 44.2299,9.7405 44.6929,9.3815 L44.7449,9.7875 C45.7199,9.5045 46.6569,8.8105 47.7399,8.4495 C47.2929,8.4085 47.1499,7.7375 47.4509,7.5665 L47.7769,8.0915 C47.8619,7.6695 47.3679,7.9905 47.6429,7.4165 C48.0759,7.3425 48.1369,7.9705 47.9709,8.2345 L48.3949,7.8695 C48.4809,8.0305 48.3959,8.1595 48.4399,8.3865 C48.5249,7.9655 49.4659,8.6685 49.5589,7.9635 L49.6399,8.1275 C50.7279,7.8215 51.1579,7.4555 52.0469,7.1965 C51.9329,6.6895 52.3139,6.7145 52.4839,6.2405 C53.1959,6.2405 54.0189,6.4405 54.8179,6.2545 C55.3349,5.8895 54.8969,5.7905 55.0939,5.4375 C55.2289,5.8935 56.0279,5.6905 55.6719,6.1075 C56.6259,5.8275 56.8919,5.8055 58.0789,5.2315 C57.9179,5.0595 57.7529,4.9985 57.8089,4.8265 C58.0269,4.7155 58.3539,4.9465 58.3499,5.1775 L58.2979,5.2345 C59.6399,4.3445 61.6449,6.2505 62.6769,5.2365 L62.6169,5.2885 L63.7569,4.7175 C64.2939,4.7745 63.4469,5.0875 63.8489,5.3625 C65.0869,4.5735 65.8139,5.4615 66.8489,4.9655 C67.5799,6.3975 69.6809,5.0015 70.6699,6.0355 L70.6429,5.7025 C70.9529,5.4105 70.9559,5.9235 71.1479,6.0195 C71.1489,5.7625 70.8839,5.6945 71.0749,5.5345 C72.2709,5.4305 73.4589,5.8025 74.6289,6.1715 C75.7699,6.6425 76.9209,7.1165 78.0459,7.5805 C78.8659,7.8855 78.9539,6.0595 79.8359,7.0995 L79.3689,7.6085 C80.3289,7.4595 81.1979,7.7655 82.0579,8.0515 C82.9249,8.3265 83.7609,8.6615 84.6899,8.6825 C84.5439,8.7785 84.4779,8.9495 84.3179,8.8885 C84.5129,9.4325 85.5909,9.3795 85.7289,9.0445 C85.9709,9.1775 85.6719,9.3725 85.7619,9.6015 C86.0149,9.9615 86.8359,9.4245 86.8539,9.9085 C86.8579,9.9875 86.7039,10.0005 86.6289,10.0055 C86.9319,9.9015 87.6439,10.4955 87.6289,9.9325 C88.1389,10.4145 88.8839,10.2165 89.2469,10.6975 C89.7959,10.3255 90.1519,11.4365 90.5939,10.7505 C90.1979,11.4875 91.3479,11.8575 91.9019,11.6865 C91.6639,11.8535 92.1139,12.0785 91.8099,12.3205 C92.2469,12.5055 92.6959,12.5895 92.8199,12.1645 C93.1319,13.4645 94.7669,12.2915 94.5959,13.6525 C96.0669,13.9155 97.3389,14.3745 98.5589,14.8485 C98.0869,15.5365 97.2899,14.1955 96.8919,14.9765 C98.1079,15.2945 99.0999,15.0365 100.0069,15.8795 C100.2089,16.1475 99.6619,16.0875 99.4979,16.1505 C100.7009,16.5335 101.4429,17.4715 102.5839,17.7255 C102.5379,17.7885 102.3929,17.7905 102.2669,17.7785 C102.4579,17.8805 102.6049,18.1675 102.7999,17.8405 L102.5709,17.8045 C102.5989,17.1515 103.9219,17.3515 104.1219,17.1375 C103.2009,17.8165 104.8509,17.9855 103.5859,18.7725 C103.7419,18.7945 103.9899,18.7505 104.1099,18.5245 C104.2389,18.7065 104.2079,18.8645 103.8669,18.9775 C104.6129,19.2515 104.6259,18.7675 105.1919,19.1765 C105.0819,19.3235 104.9259,19.2995 104.7399,19.4335 C105.2369,19.3455 105.7439,19.2585 106.1179,19.7475 C106.0239,19.8155 105.9929,19.9725 105.8539,19.8625 C106.6899,20.4315 107.8049,20.1535 108.4839,21.1065 C107.7329,21.5365 108.6249,21.5445 108.2449,22.1225 C108.4439,22.1905 108.6489,22.2515 108.8439,22.3275 L108.8639,21.9145 C109.2649,22.2525 109.9369,22.1595 110.1449,22.6215 L109.6659,22.5945 L110.5089,23.1185 L110.2429,22.5615 C110.8789,22.6245 110.7489,21.8475 111.1719,22.4435 C111.0159,22.4065 111.5759,22.7865 111.5289,23.2745 L111.5259,23.2745 C111.8679,23.2715 112.2249,23.2665 112.4179,23.6455 C112.3529,23.8785 111.8619,24.1765 111.8189,24.3315 C112.3949,24.0455 112.8639,25.0025 113.5059,24.7565 C113.3299,24.7945 113.0899,25.0645 113.0669,25.1445 L113.5359,24.9325 C113.6219,25.2075 113.5999,25.2855 113.3819,25.4775 C113.8759,26.0275 113.7809,24.6635 114.1879,25.5245 C114.1109,25.5075 114.0899,25.5825 113.9359,25.5415 C114.4629,26.2675 115.4039,26.4395 115.8539,27.1445 C115.5649,27.8155 115.2139,26.8055 115.0239,27.4195 C115.9809,28.0785 117.3429,28.4415 118.0569,29.3235 L117.9579,29.1245 C118.7449,28.5205 118.2329,30.0505 118.9659,30.1055 C118.8129,30.0625 118.4559,30.3725 118.5579,30.3185 C119.0149,30.9515 119.8569,31.2325 120.8969,31.8445 L120.6179,31.9205 C120.7789,32.4005 121.3689,32.8575 121.6339,33.2845 C121.9149,33.2115 122.0839,33.4395 122.2239,33.0615 C122.2749,35.1155 124.7819,34.6085 124.8419,36.4075 C124.7289,36.2925 124.4189,36.2795 124.5059,36.3735 L125.4569,37.0475 C125.7079,36.6905 125.5439,36.7625 125.6219,36.3595 C125.9059,36.2935 126.2719,36.3965 126.4679,36.6035 C125.9059,36.4195 125.9679,37.0725 125.9429,37.3965 C126.0139,37.2795 126.1729,37.2375 126.2579,37.1335 C126.1069,38.0835 126.9589,36.6255 127.1409,37.5675 L126.9469,37.6885 C127.2359,37.8375 127.6409,37.8515 127.8139,38.1415 C127.5379,38.5745 127.4269,38.0515 127.1119,38.3095 C127.4389,38.6355 128.4139,38.3665 128.3259,39.0095 C128.0929,38.9545 127.9029,38.7435 127.6709,38.6885 C127.5429,39.4175 127.6859,39.3575 127.8429,39.6725 L127.8309,39.6395 L128.1529,40.3985 L128.1379,40.1455 C129.4869,39.7245 129.0959,40.8695 130.2499,40.8985 C129.1429,40.8565 129.8179,41.1085 129.3569,41.4335 C129.3729,41.6845 129.4409,42.0235 129.2649,42.0635 C129.8499,42.0425 129.4059,42.7505 130.2369,42.7195 C130.1159,42.8545 130.4769,43.0315 130.0799,43.2625 C130.4949,43.5355 130.2459,42.9725 130.4429,42.8565 C131.3859,43.0235 130.9869,44.6645 132.3149,44.9325 C133.1709,45.4105 133.7489,45.1525 134.5319,45.6145 C134.4939,46.0185 133.8729,45.8515 133.8729,45.8515 C133.9689,46.3715 134.2189,46.6165 134.6529,46.8275 C134.4749,46.8565 134.4289,47.0125 134.3549,47.2435 C134.6099,47.4875 135.0109,47.0145 135.0929,47.5425 C134.8859,47.6065 134.5729,47.7295 134.3109,47.7245 C134.6969,47.9415 135.2129,48.0495 135.6059,48.2825 C135.4319,48.5665 135.0739,48.3785 134.8199,48.3895 C135.2289,48.6755 135.8169,49.1835 136.2989,48.9895 L136.2459,48.6385 C136.3739,48.7605 135.9679,48.9745 135.8159,48.9305 C135.2549,48.8525 135.5809,48.3585 135.7079,48.2275 L135.9879,48.3935 C136.6179,47.4875 135.0919,47.5405 134.7579,47.0245 L135.5149,46.7405 L134.6269,46.6495 C134.6979,46.4195 134.9739,46.0755 135.2529,46.2405 C135.2709,45.6565 134.7989,46.1075 134.8879,45.5445 C134.9129,45.4715 134.9529,45.4625 135.0019,45.4725 L134.5479,45.2865 C134.7259,45.2495 134.9209,44.8875 135.0059,45.1615 C134.8479,44.2845 133.7569,44.5715 134.0169,43.9765 L134.0949,43.9955 C133.2039,43.3385 133.5939,44.2765 132.5689,44.0855 L133.2859,42.7745 L132.7869,43.0575 C132.7309,42.9595 132.6219,42.7645 132.8209,42.6495 C132.2609,42.5835 132.6779,42.8615 132.2459,42.9145 C132.2949,42.1735 131.1189,41.9455 131.7229,41.2685 C131.2749,41.4005 131.8009,41.8745 131.2089,41.6335 C131.8399,40.8745 130.6529,41.2435 130.6649,40.5895 C131.1399,40.3735 131.2489,40.8935 131.2599,40.2355 C130.4279,40.5685 130.7669,39.4015 130.3719,39.1985 C129.8549,39.6285 129.5669,38.7145 128.9409,38.3465 C129.1369,38.2305 128.3559,37.1235 128.1009,36.4825 L128.1969,36.4215 C127.6099,36.7875 127.2509,36.2185 126.8169,35.9615 C127.1289,35.6985 127.3049,35.6525 127.6189,35.7215 L127.3039,35.3915 C127.0709,35.4605 126.8899,35.4355 126.6319,35.2735 L127.0809,35.0115 C126.6439,34.5865 125.8099,34.5295 125.5219,33.7295 C125.1509,34.0245 124.9889,35.0865 124.2009,34.7085 C124.3649,34.5095 124.6609,34.1855 124.8839,34.2695 C124.8109,34.2405 124.5579,34.2335 124.5399,34.0545 L125.0759,33.9965 C124.9699,33.6075 124.6889,34.1095 124.5249,33.8765 C124.7919,33.6275 124.5689,33.5435 124.8059,33.3725 C124.8809,33.4005 124.8659,33.6565 125.0439,33.6375 C124.8729,33.3585 124.7629,32.9275 124.8749,32.6415 C124.7439,32.8075 124.5239,32.9805 124.3239,32.8475 C123.8779,32.4375 124.4929,32.3955 124.3779,32.0135 C124.0929,32.0855 124.0069,31.6275 123.6099,32.0025 C123.4869,31.8755 123.6449,31.6735 123.7019,31.5215 C123.3079,31.4675 122.6169,30.5305 122.4559,31.1905 L122.4849,31.2745 C122.4679,31.2725 122.4539,31.2605 122.4319,31.2555 L122.4339,31.2575 L122.4319,31.2555 C121.3199,30.9215 121.1609,29.5115 120.2469,28.9865 L120.3749,28.8565 C119.7879,28.5895 119.3029,28.0165 118.7189,28.0045 C118.5889,27.8815 118.6379,27.4705 118.8429,27.3645 C118.4099,27.1455 118.2329,27.2605 117.9489,26.5785 C118.5059,26.6665 118.0219,26.2605 118.4559,26.7365 C118.1219,26.2075 118.2199,25.8935 117.4069,25.8195 C117.8879,25.6215 117.4609,25.0815 117.1499,24.9945 L117.2449,25.5235 C116.9559,25.3595 116.7709,25.1415 116.5819,24.9215 L117.1089,24.5665 C116.6659,23.1785 114.5889,24.0405 114.6979,22.4685 C114.1719,22.5775 115.0079,23.1445 114.4589,23.3315 C114.0919,22.8875 114.2019,21.8355 114.0609,21.7205 C113.6719,20.9585 112.9189,21.9435 112.4349,21.2445 C112.3779,21.4805 112.0799,21.9935 111.4789,21.7675 C111.0929,21.3455 111.5179,20.6085 111.9089,20.7015 C112.0259,20.7745 112.0339,20.8705 111.9819,20.9245 C112.1749,20.9805 112.4229,21.0625 112.3969,20.7335 L112.2009,20.8565 C112.1239,20.5025 111.4989,20.0195 111.8669,19.8565 C111.4009,19.7435 111.4989,20.0195 111.6759,20.3115 C111.3049,19.5965 110.7979,19.5695 110.3219,18.9475 C110.3439,19.1155 110.2729,19.3855 110.1789,19.3115 C109.4639,18.4235 109.5349,19.3435 108.8819,18.9645 C108.7459,18.4405 109.4879,18.4235 108.7169,18.1875 C108.4849,17.7265 108.9889,17.6635 109.2449,17.6335 C108.4389,17.5505 108.3809,16.6255 108.1089,16.3195 L108.5069,16.4005 C108.2679,16.3525 108.1289,16.2395 107.9819,16.1285 L107.8889,16.6085 C107.7659,16.4145 107.6149,16.3125 107.7259,16.1665 C107.3769,16.2705 107.4329,16.8525 106.8449,16.9185 C106.7429,16.5735 105.9989,16.6135 106.2569,16.0835 C106.8749,16.7615 106.5149,15.5495 107.1929,15.9135 C107.0319,15.8845 106.8869,15.7795 106.7559,15.5925 C106.7659,15.5205 106.8499,15.5115 106.9189,15.5185 C106.5119,14.5955 106.2109,15.8255 105.4909,15.3015 C105.7719,15.0975 105.6769,14.6715 105.5169,14.6445 C105.8089,14.8575 105.3449,15.1925 104.9339,15.2105 C104.6119,14.6705 104.3199,15.0095 104.0939,14.8135 L104.3029,15.1085 C104.0219,15.3165 103.8219,15.1065 103.4299,14.9805 C103.5449,14.7505 103.8309,15.0305 103.7749,14.8595 C103.0859,15.1005 103.2699,13.8225 102.5379,13.8115 C102.4199,13.4695 102.8509,13.2795 102.7209,13.0165 C101.9089,12.9975 102.3319,12.2285 101.5289,12.1275 C101.4709,12.6155 101.5569,12.5435 100.9009,12.6295 L102.0689,13.0165 L101.0839,13.1425 C101.3809,13.3415 101.8679,13.3195 102.0089,13.5005 C101.5089,13.6055 101.5999,13.5335 101.5469,13.9345 C101.4899,13.1105 100.5269,13.7335 100.2909,13.0485 L100.8799,12.1305 C100.3919,11.2725 99.2739,11.8315 98.4579,11.0295 L98.6709,11.3755 C98.3229,11.6745 98.0499,11.0795 97.6519,11.0485 C97.8609,10.7485 97.7329,10.5195 97.7119,10.2425 C97.5999,10.4805 97.0059,9.8255 96.5639,10.4175 L96.3559,9.7615 C95.6509,9.1625 94.9609,10.1955 94.2629,9.6825 C94.6749,9.4525 94.4459,9.0375 95.0889,9.0595 C94.8349,8.9195 94.6359,8.7375 94.5159,8.9605 C94.4729,8.6705 93.5859,9.0265 93.4989,8.6095 C93.3169,8.7005 93.1119,9.0255 92.8349,8.8595 C92.8359,8.7785 92.9159,8.6985 92.9159,8.6985 C92.8349,8.8595 92.3529,8.7025 92.4299,9.1865 C92.1219,7.7815 90.1859,8.1855 89.8629,7.0165 C89.2329,6.8825 88.4909,6.6965 87.9559,6.4995 C88.0299,6.4125 88.0249,6.3315 88.1109,6.4085 C87.5099,5.7865 87.2809,7.1885 86.5859,6.5285 C86.3679,5.8195 87.1449,6.3945 86.9579,6.0875 C87.2689,4.9225 85.8849,5.8665 85.5579,5.0005 L85.7199,4.9845 C85.4169,4.4455 84.5109,5.0025 83.8159,4.7105 C83.8159,4.7105 83.8849,4.6205 83.8769,4.5395 C83.1899,4.9655 82.2059,4.8695 81.4709,4.8165 C81.8169,4.4335 81.8549,4.6765 81.8589,4.1775 C81.5299,4.1455 81.7309,4.9405 81.0809,4.8775 C80.9509,4.5775 80.5599,4.2435 80.6339,3.7365 L81.2369,3.8655 C81.1099,3.1505 80.4579,3.6855 80.1759,3.4935 L80.2899,3.2255 C79.3459,3.0775 79.1599,3.7765 78.1979,3.4765 L78.2489,3.7135 C77.5529,4.2955 77.8879,3.2235 77.2359,3.6315 L77.2269,2.8855 C76.8299,2.9815 75.8349,3.3165 75.1789,3.3205 C75.6349,2.8625 76.4379,2.7465 76.9709,2.5295 C76.6149,2.4495 75.7469,2.3305 75.4979,2.6465 C75.6529,2.6065 75.8669,2.4685 75.9869,2.6085 C75.4449,3.0705 74.8289,3.2535 74.1259,3.1375 C74.4719,1.7725 72.3389,2.4745 71.9479,1.3555 C70.6089,1.7415 69.4219,0.8495 67.8929,0.8805 C68.3729,2.0075 67.4529,0.8895 67.4969,2.0235 C67.1489,2.0775 67.0189,2.0525 66.9909,1.9775 C66.6499,1.7265 66.3039,1.5095 65.9539,1.2825 C65.7069,0.9535 66.2909,1.0345 66.2639,0.7805 C65.4929,0.6925 65.9469,0.3015 65.4319,0.0005 C65.5359,0.4045 65.1609,0.5785 64.7179,0.4235 L65.3399,0.9455 C64.2729,1.5565 64.3949,-0.0285 63.3139,0.6165 L63.6489,0.2445 C63.0959,0.4805 61.5649,0.3385 61.0869,1.2715 C60.9799,1.1495 60.8259,0.8535 61.0649,0.7515 C59.7079,0.7465 58.2169,1.9815 57.1329,1.6065 L57.1929,1.3175 C56.9569,1.4335 56.8429,1.8945 56.4929,1.6655 C56.4909,1.5495 56.5499,1.3775 56.4329,1.3785 C56.3169,1.4965 55.8569,1.9455 55.5099,1.8515 L55.7329,1.4955 C54.3849,1.3875 53.9109,2.6075 52.9139,3.0245 C52.7399,2.2305 51.6829,2.2155 51.1509,2.2115 L51.1399,2.0955 C49.6319,2.3695 48.8259,3.4295 47.6109,4.1525 C47.0659,3.8715 46.3389,4.0215 45.5649,4.2385 C44.8019,4.4835 43.9969,4.8015 43.2519,4.8245 C43.5069,4.8855 43.4559,5.4215 43.2599,5.5915 C42.8969,5.5685 42.6579,6.4675 42.4129,5.7605 L42.5239,5.7275 C42.0119,5.1515 41.4679,5.6005 40.9769,5.7915 L41.3009,6.7145 C40.3879,6.3495 39.6309,6.8675 38.9619,7.3505 C38.2949,7.8465 37.7319,8.3465 37.0999,7.9545 C36.9259,8.3275 36.5559,8.5035 36.3939,8.8835 L36.1569,8.4165 C35.2999,8.7555 34.8579,8.9155 33.9479,9.6005 L33.9539,9.1575 C33.3869,9.4655 34.0459,10.8725 33.5699,11.2005 L33.0099,10.6285 C32.0709,11.2055 30.7639,11.2775 30.2459,12.4665 C30.1969,12.3615 30.0939,12.1545 30.2259,12.0285 C29.7869,12.3065 28.2639,12.7585 29.0419,13.5215 C28.6209,12.9545 28.0709,14.1295 27.7869,14.7345 L27.5529,14.2665 C27.5439,15.0945 27.6409,15.2465 27.1939,15.8075 C27.0229,15.8555 26.8269,15.5665 27.0829,15.5405 C26.4819,15.6625 27.0439,16.1905 26.3519,16.3835 L26.3439,15.9715 C25.8749,16.2915 26.0189,16.4025 26.0139,16.8945 C25.8619,17.2715 25.0969,17.4585 24.7399,17.1555 C24.8599,17.4245 24.8639,17.9145 24.5229,18.0235 C24.3769,17.9175 24.3999,17.7555 24.4129,17.6755 C23.4549,18.0105 23.7199,19.0305 22.9059,19.0765 C22.7839,18.9565 22.6949,18.9195 22.6209,18.9175 C23.1939,18.4285 23.6759,18.0585 23.6579,18.1265 C23.3519,17.7625 22.8259,18.0915 22.7769,17.2795 C22.6279,17.8725 22.5119,19.0145 21.9179,19.2345 C21.8649,19.2195 21.8139,19.2045 21.7499,19.1635 L21.7599,19.0835 C21.6259,19.1385 21.5619,19.2525 21.5279,19.3885 C21.3339,19.4555 21.2079,19.4965 21.0669,19.6135 C20.7529,19.3695 20.4069,19.9305 20.1689,20.1225 C20.5399,20.4875 20.1899,20.6945 20.7559,20.7585 C20.6949,20.7635 20.7559,20.6745 20.8889,20.5225 C20.9129,20.4805 20.9469,20.4385 20.9479,20.3955 L20.9639,20.4425 C21.1039,20.3015 21.2879,20.1175 21.4969,19.9085 C21.4959,20.2675 21.4629,20.5985 21.0209,20.6115 C21.1329,20.9625 21.2399,21.3295 21.2779,21.5125 C20.4809,21.2525 19.6339,21.5205 19.2459,21.2755 C18.7689,22.1215 17.8019,22.9375 18.0889,24.0385 C17.9919,24.3115 17.6769,24.0535 17.4979,24.0155 C17.5359,23.8385 17.6749,23.7225 17.6329,23.5655 C17.4329,24.1075 16.6119,24.7465 17.0159,25.3085 C16.3379,25.5695 16.8219,24.6065 16.2719,25.3365 L16.2069,25.1045 C14.1669,25.6675 15.5069,28.3945 13.1689,28.9425 C13.3229,28.8965 13.3969,28.8705 13.5019,28.9245 C11.5439,30.2245 10.9639,32.8225 8.8459,33.9825 C8.3049,34.3675 8.6079,34.6845 8.6429,35.1905 L8.1149,34.9665 L8.2399,35.8795 C8.0719,36.9005 6.1749,36.3885 6.2199,37.8765 L6.6169,37.9665 C6.3159,38.2745 6.0399,39.1985 5.7219,38.8985 C5.7549,38.9735 5.9689,39.2325 5.7149,39.2615 L5.4649,39.1095 L5.3069,40.2575 C4.6889,40.8235 4.4019,39.5155 3.7089,40.4975 C3.5629,40.9355 3.7649,42.0385 4.0209,41.9915 C4.1299,41.8355 4.4149,41.6895 4.6729,41.8295 L4.5959,42.2515 C5.3049,42.7475 5.9139,43.4345 6.9019,42.9665 L6.8029,42.1315 L7.2699,42.1765 L6.9969,42.6565 C7.4929,42.6025 7.3079,42.2505 7.2269,41.9335 C7.4419,42.0085 7.6229,42.0145 7.7629,41.9505 L7.4309,40.9565 C7.7559,41.0775 7.8269,41.5665 8.2229,41.3085 C8.0749,40.8435 7.4319,41.1345 7.5049,40.5735 C8.0089,40.5255 8.2179,40.7815 8.1509,40.2855 C8.3639,40.3665 8.4359,40.5115 8.4339,40.6885 C8.4009,40.2655 8.8359,39.9015 8.5569,39.4995 C9.1439,39.5035 9.1009,38.5055 9.7469,39.0045 C9.6479,38.8075 9.5689,38.1575 9.7209,37.8885 C10.1799,38.9115 10.4419,36.9955 11.1989,37.7385 C10.7369,36.8835 11.7789,36.3165 11.8419,35.4415 C11.8709,35.5165 11.9319,35.6665 11.8569,35.6905 C12.1699,35.4095 12.4519,35.4795 12.7449,35.3735 C12.2099,34.8865 12.4709,34.2735 12.3459,33.7265 C13.2099,33.7695 12.8149,34.4975 13.4399,34.7925 C12.9659,34.4455 13.5339,33.7445 13.0469,33.5695 C13.6259,33.5415 13.4199,33.4425 14.0099,33.6685 C13.3509,33.0405 14.1189,33.2945 13.8959,32.6935 C14.5979,32.5495 14.6389,33.1265 14.8219,32.4805 C15.2189,32.4355 15.1179,33.0585 15.1179,33.0585" id="Fill-158" fill="#DC2833"></path>
                <path d="M20.8893,20.5225 C20.8753,20.5505 20.8783,20.5775 20.8543,20.6065 C20.9143,20.6125 20.9703,20.6145 21.0213,20.6115 C21.0013,20.5545 20.9823,20.4965 20.9633,20.4425 L20.8893,20.5225 Z" id="Fill-160" fill="#DC2833"></path>
                <path d="M122.4557,31.1909 L122.4457,31.1639 C122.4457,31.1939 122.4467,31.2219 122.4327,31.2549 C122.4377,31.2249 122.4487,31.2129 122.4557,31.1909" id="Fill-162" fill="#DC2833"></path>
                <polygon id="Fill-164" fill="#DC2833" points="39.5036 11.9839 39.4416 11.8679 39.4006 12.0189"></polygon>
                <path d="M125.943,37.396 C125.919,37.436 125.902,37.487 125.907,37.551 C125.929,37.526 125.937,37.465 125.943,37.396" id="Fill-166" fill="#DC2833"></path>
                <path d="M127.8425,39.6724 L127.9835,40.1094 C127.9415,39.9034 127.8905,39.7724 127.8425,39.6724" id="Fill-168" fill="#DC2833"></path>
                <path d="M129.1598,41.5464 C129.2478,41.5074 129.3058,41.4684 129.3568,41.4334 L129.3568,41.4274 L129.1598,41.5464 Z" id="Fill-170" fill="#DC2833"></path>
                <path d="M102.2673,17.7788 C102.2413,17.7638 102.2123,17.7528 102.1833,17.7488 C101.9603,17.7148 102.0963,17.7608 102.2673,17.7788" id="Fill-172" fill="#DC2833"></path>
                <path d="M111.526,23.2749 C111.378,23.2749 111.231,23.2749 111.102,23.2439 C111.225,23.3969 111.333,23.4989 111.526,23.2749" id="Fill-174" fill="#DC2833"></path>
                <path d="M91.8044,12.3282 C91.8044,12.3282 91.8074,12.3252 91.8104,12.3202 L91.7444,12.2892 L91.8044,12.3282 Z" id="Fill-176" fill="#DC2833"></path>
                <path d="M110.7223,22.92 C110.8043,23.122 110.9423,23.206 111.1023,23.244 C111.0033,23.118 110.8943,22.959 110.7223,22.92" id="Fill-178" fill="#DC2833"></path>
                <path d="M135.2829,49.2779 L135.3349,49.3779 C135.3599,49.3539 135.3869,49.3419 135.4079,49.3359 L135.2829,49.2779 Z" id="Fill-180" fill="#DC2833"></path>
                <path d="M135.4079,49.3355 L135.5319,49.3925 C135.4969,49.3485 135.4639,49.3135 135.4079,49.3355" id="Fill-182" fill="#DC2833"></path>
                <path d="M135.7946,49.5113 L135.5316,49.3923 C135.5866,49.4623 135.6416,49.5583 135.7946,49.5113" id="Fill-184" fill="#DC2833"></path>
                <path d="M133.5915,46.771 L133.4245,46.864 C133.4655,46.853 133.5205,46.825 133.5915,46.771" id="Fill-186" fill="#DC2833"></path>
                <path d="M132.9616,46.1031 C133.0686,46.2981 133.0046,46.7771 133.2906,46.9361 L133.4246,46.8641 C133.1176,46.9301 133.3406,46.0611 132.9616,46.1031" id="Fill-188" fill="#DC2833"></path>
                <path d="M132.2741,41.6646 L132.6591,42.3546 C132.7241,42.1216 132.8151,41.8106 133.0791,42.0496 C132.9051,40.9116 132.8671,42.4946 132.2741,41.6646" id="Fill-190" fill="#DC2833"></path>
                <path d="M130.9186,39.6558 C131.2656,39.9068 131.1346,39.4608 131.2336,39.4018 C130.9206,39.3238 130.8436,39.3068 130.9186,39.6558" id="Fill-192" fill="#DC2833"></path>
                <path d="M118.8405,27.1104 L119.1945,26.7944 C118.9125,26.6214 119.0675,26.9254 118.8405,27.1104" id="Fill-194" fill="#DC2833"></path>
                <polygon id="Fill-196" fill="#DC2833" points="114.7536 26.6826 114.7886 27.1056 115.1886 26.8796"></polygon>
                <polygon id="Fill-198" fill="#DC2833" points="115.5075 22.8575 115.6575 22.9005 115.1395 22.6715"></polygon>
                <path d="M90.7223,6.7681 L90.5763,7.3381 C90.8223,7.3291 91.1343,6.7501 90.7223,6.7681" id="Fill-200" fill="#DC2833"></path>
                <path d="M78.3835,3.1841 C78.3165,2.8651 77.9985,2.6141 77.7185,2.8461 C77.9925,2.9461 78.2255,3.2201 78.3835,3.1841" id="Fill-202" fill="#DC2833"></path>
                <polygon id="Fill-204" fill="#DC2833" points="40.4059 6.3203 40.5599 6.0303 40.1839 6.3903"></polygon>
            </g>
        </g>
    </g>
</svg>