<?xml version="1.0" encoding="UTF-8"?>
<svg width="130px" height="83px" viewBox="0 0 130 83" version="1.1" xmlns="http://www.w3.org/2000/svg" xmlns:xlink="http://www.w3.org/1999/xlink">
    <!-- Generator: Sketch 45.2 (43514) - http://www.bohemiancoding.com/sketch -->
    <title>shipping</title>
    <desc>Created with Sketch.</desc>
    <defs></defs>
    <g id="Montar-2" stroke="none" stroke-width="1" fill="none" fill-rule="evenodd">
        <g id="Montar-Design" transform="translate(-234.000000, -6791.000000)" stroke="#FFFFFF" fill-rule="nonzero" fill="#ffffff">
            <g id="shipping" transform="translate(235.000000, 6792.000000)">
                <path d="M119.0395,34.34075 L115.72475,21.082 C116.631,20.8895 117.311,20.0855 117.311,19.12225 L117.311,16.9845 C117.311,12.343 113.53475,8.567 108.8935,8.567 L93.7955,8.567 L93.7955,4.1575 C93.7955,1.8735 91.9375,0.0155 89.6535,0.0155 L12.693,0.0155 C10.409,0.0155 8.551,1.8735 8.551,4.1575 L8.551,40.5 C8.551,41.60675 9.44825,42.50425 10.55525,42.50425 C11.662,42.50425 12.5595,41.607 12.5595,40.5 L12.5595,4.1575 C12.5595,4.084 12.61925,4.024 12.693,4.024 L89.65325,4.024 C89.727,4.024 89.78675,4.08425 89.78675,4.1575 L89.78675,40.5005 C89.78675,41.60725 90.684,42.50475 91.791,42.50475 C92.89775,42.50475 93.79525,41.6075 93.79525,40.5005 L93.79525,38.2285 L117.4375,38.2285 C117.4395,38.2285 117.441,38.229 117.44275,38.229 C117.44475,38.229 117.4465,38.22875 117.44825,38.22875 C120.3575,38.23075 122.82775,40.14025 123.67625,42.7715 L117.44425,42.7715 C116.3375,42.7715 115.44,43.66875 115.44,44.77575 L115.44,49.05125 C115.44,52.514 118.257,55.331 121.71975,55.331 L123.99125,55.331 L123.99125,64.14925 L118.75075,64.14925 C117.02925,59.17825 112.304,55.598 106.75525,55.598 C101.2065,55.598 96.481,59.17825 94.75975,64.14925 L93.79475,64.14925 L93.79475,49.051 C93.79475,47.94425 92.8975,47.04675 91.7905,47.04675 C90.68375,47.04675 89.78625,47.944 89.78625,49.051 L89.78625,64.14875 L48.20425,64.14875 C46.48275,59.17775 41.7575,55.5975 36.20875,55.5975 C30.66,55.5975 25.9345,59.17775 24.21325,64.14875 L12.693,64.14875 C12.61925,64.14875 12.5595,64.0885 12.5595,64.01525 L12.5595,59.606 L21.24425,59.606 C22.351,59.606 23.2485,58.70875 23.2485,57.60175 C23.2485,56.49475 22.35125,55.5975 21.24425,55.5975 L10.55675,55.5975 C10.55625,55.5975 10.556,55.5975 10.5555,55.5975 C10.555,55.5975 10.55475,55.5975 10.55425,55.5975 L2.00425,55.5975 C0.8975,55.5975 0,56.49475 0,57.60175 C0,58.70875 0.89725,59.606 2.00425,59.606 L8.55125,59.606 L8.55125,64.01525 C8.55125,66.29925 10.40925,68.15725 12.69325,68.15725 L23.51925,68.15725 C23.51875,68.20175 23.51575,68.24625 23.51575,68.29075 C23.51575,75.2895 29.21,80.98375 36.20875,80.98375 C43.2075,80.98375 48.90175,75.2895 48.90175,68.29075 C48.90175,68.24625 48.89875,68.20175 48.89825,68.15725 L94.06575,68.15725 C94.06525,68.20175 94.06225,68.24625 94.06225,68.29075 C94.06225,75.2895 99.7565,80.98375 106.75525,80.98375 C113.754,80.98375 119.44825,75.2895 119.44825,68.29075 C119.44825,68.24625 119.44525,68.20175 119.44475,68.15725 L125.9955,68.15725 C127.10225,68.15725 127.99975,67.26 127.99975,66.153 L127.99975,44.77525 C128,39.49725 124.10575,35.112 119.0395,34.34075 Z M93.7955,12.57525 L108.8935,12.57525 C111.32475,12.57525 113.30275,14.55325 113.30275,16.9845 L113.30275,17.118 L93.7955,17.118 L93.7955,12.57525 Z M93.7955,34.22025 L93.7955,21.12625 L111.60425,21.12625 L114.87775,34.22025 L93.7955,34.22025 Z M36.20875,76.976 C31.42,76.976 27.524,73.08025 27.524,68.29125 C27.524,63.50225 31.42,59.6065 36.20875,59.6065 C40.9975,59.6065 44.8935,63.50225 44.8935,68.29125 C44.8935,73.08025 40.9975,76.976 36.20875,76.976 Z M106.75575,76.976 C101.967,76.976 98.071,73.08025 98.071,68.29125 C98.071,63.50225 101.967,59.6065 106.75575,59.6065 C111.5445,59.6065 115.4405,63.50225 115.4405,68.29125 C115.4405,73.08025 111.5445,76.976 106.75575,76.976 Z M123.99175,51.3225 L121.72025,51.3225 C120.46775,51.3225 119.44875,50.3035 119.44875,49.051 L119.44875,46.7795 L123.9915,46.7795 L123.9915,51.3225 L123.99175,51.3225 Z" id="Shape"></path>
                <path d="M36.20875,64.14925 C33.92475,64.14925 32.06675,66.00725 32.06675,68.29125 C32.06675,70.57525 33.92475,72.43325 36.20875,72.43325 C38.49275,72.43325 40.35075,70.57525 40.35075,68.29125 C40.35075,66.00725 38.49275,64.14925 36.20875,64.14925 Z" id="Shape"></path>
                <path d="M106.75575,64.14925 C104.47175,64.14925 102.61375,66.00725 102.61375,68.29125 C102.61375,70.57525 104.47175,72.43325 106.75575,72.43325 C109.03975,72.43325 110.89775,70.57525 110.89775,68.29125 C110.89775,66.00725 109.03975,64.14925 106.75575,64.14925 Z" id="Shape"></path>
                <path d="M83.24,55.59825 L53.311,55.59825 C52.20425,55.59825 51.30675,56.4955 51.30675,57.6025 C51.30675,58.7095 52.204,59.60675 53.311,59.60675 L83.24,59.60675 C84.34675,59.60675 85.24425,58.7095 85.24425,57.6025 C85.24425,56.4955 84.347,55.59825 83.24,55.59825 Z" id="Shape"></path>
                <path d="M31.93325,47.047 L6.27975,47.047 C5.173,47.047 4.2755,47.94425 4.2755,49.05125 C4.2755,50.15825 5.17275,51.0555 6.27975,51.0555 L31.93325,51.0555 C33.04,51.0555 33.9375,50.15825 33.9375,49.05125 C33.9375,47.94425 33.04,47.047 31.93325,47.047 Z" id="Shape"></path>
                <path d="M51.17325,10.7045 C40.638,10.7045 32.06675,19.27575 32.06675,29.811 C32.06675,40.34625 40.638,48.9175 51.17325,48.9175 C61.7085,48.9175 70.27975,40.34625 70.27975,29.811 C70.27975,19.27575 61.7085,10.7045 51.17325,10.7045 Z M51.17325,44.90925 C42.84825,44.90925 36.07525,38.13625 36.07525,29.81125 C36.07525,21.48625 42.84825,14.71325 51.17325,14.71325 C59.49825,14.71325 66.27125,21.48625 66.27125,29.81125 C66.27125,38.13625 59.49825,44.90925 51.17325,44.90925 Z" id="Shape"></path>
                <path d="M59.00375,34.80725 L53.1775,28.981 L53.1775,21.26 C53.1775,20.15325 52.28025,19.25575 51.17325,19.25575 C50.06625,19.25575 49.169,20.153 49.169,21.26 L49.169,29.81125 C49.169,30.34275 49.38,30.85225 49.756,31.22825 L56.16925,37.6415 C56.5605,38.03275 57.0735,38.2285 57.58625,38.2285 C58.099,38.2285 58.61225,38.033 59.00325,37.6415 C59.7865,36.85875 59.7865,35.59 59.00375,34.80725 Z" id="Shape"></path>
            </g>
        </g>
    </g>
</svg>
