<?xml version="1.0" encoding="UTF-8"?>
<svg width="40px" height="26px" viewBox="0 0 40 26" version="1.1" xmlns="http://www.w3.org/2000/svg" xmlns:xlink="http://www.w3.org/1999/xlink">
    <!-- Generator: Sketch 46.1 (44463) - http://www.bohemiancoding.com/sketch -->
    <title>shipping</title>
    <desc>Created with Sketch.</desc>
    <defs></defs>
    <g id="Montar-2" stroke="none" stroke-width="1" fill="none" fill-rule="evenodd">
        <g id="Montar-Design-New-Hero" transform="translate(-1266.000000, -23.000000)" stroke="#DA0000" stroke-width="0.5" fill="#DA0000" fill-rule="nonzero">
            <g id="shipping" transform="translate(1267.000000, 24.000000)">
                <path d="M35.2847937,10.1744326 L34.3022605,6.24437357 C34.5708843,6.18731416 34.7724448,5.94899853 34.7724448,5.6634792 L34.7724448,5.02982342 C34.7724448,3.65402488 33.6531171,2.53477135 32.2773927,2.53477135 L27.802157,2.53477135 L27.802157,1.2277405 C27.802157,0.550734393 27.2514226,0 26.5744165,0 L3.76236364,0 C3.08535753,0 2.53462314,0.550734393 2.53462314,1.2277405 L2.53462314,12.0001112 C2.53462314,12.3281657 2.80057924,12.5941959 3.12870786,12.5941959 C3.45676237,12.5941959 3.72279258,12.3282398 3.72279258,12.0001112 L3.72279258,1.2277405 C3.72279258,1.20595419 3.74050322,1.18816944 3.76236364,1.18816944 L26.5743424,1.18816944 C26.5962028,1.18816944 26.6139135,1.20602829 26.6139135,1.2277405 L26.6139135,12.0002594 C26.6139135,12.3283139 26.8798696,12.5943441 27.2079982,12.5943441 C27.5360527,12.5943441 27.8020829,12.328388 27.8020829,12.0002594 L27.8020829,11.3268102 L34.8099409,11.3268102 C34.8105338,11.3268102 34.8109784,11.3269584 34.8114971,11.3269584 C34.8120899,11.3269584 34.8126086,11.3268843 34.8131274,11.3268843 C35.6754654,11.3274771 36.4076783,11.8934768 36.6591843,12.6734121 L34.8119417,12.6734121 C34.4838872,12.6734121 34.217857,12.9393682 34.217857,13.2674968 L34.217857,14.5348084 C34.217857,15.5612107 35.052851,16.3962047 36.0792533,16.3962047 L36.7525542,16.3962047 L36.7525542,19.0100441 L35.1992046,19.0100441 C34.6889305,17.5365776 33.2883075,16.4753468 31.6435887,16.4753468 C29.9988699,16.4753468 28.5981727,17.5365776 28.0879728,19.0100441 L27.8019347,19.0100441 L27.8019347,14.5347343 C27.8019347,14.2066798 27.5359786,13.9406496 27.20785,13.9406496 C26.8797955,13.9406496 26.6137653,14.2066057 26.6137653,14.5347343 L26.6137653,19.0098959 L14.2883414,19.0098959 C13.7780673,17.5364294 12.3774442,16.4751986 10.7327255,16.4751986 C9.08800672,16.4751986 7.68730953,17.5364294 7.17710955,19.0098959 L3.76236364,19.0098959 C3.74050322,19.0098959 3.72279258,18.992037 3.72279258,18.9703248 L3.72279258,17.663368 L6.29706088,17.663368 C6.6251154,17.663368 6.8911456,17.3974119 6.8911456,17.0692833 C6.8911456,16.7411547 6.6251895,16.4751986 6.29706088,16.4751986 L3.12915248,16.4751986 C3.12900427,16.4751986 3.12893017,16.4751986 3.12878196,16.4751986 C3.12863375,16.4751986 3.12855965,16.4751986 3.12841145,16.4751986 L0.594084718,16.4751986 C0.266030203,16.4751986 0,16.7411547 0,17.0692833 C0,17.3974119 0.2659561,17.663368 0.594084718,17.663368 L2.53469724,17.663368 L2.53469724,18.9703248 C2.53469724,19.6473309 3.08543164,20.1980653 3.76243775,20.1980653 L6.97139928,20.1980653 C6.97125108,20.2112556 6.97036184,20.224446 6.97036184,20.2376364 C6.97036184,22.3121532 8.65820862,24 10.7327255,24 C12.8072423,24 14.4950891,22.3121532 14.4950891,20.2376364 C14.4950891,20.224446 14.4941999,20.2112556 14.4940517,20.1980653 L27.8822625,20.1980653 C27.8821143,20.2112556 27.881225,20.224446 27.881225,20.2376364 C27.881225,22.3121532 29.5690718,24 31.6435887,24 C33.7181056,24 35.4059523,22.3121532 35.4059523,20.2376364 C35.4059523,20.224446 35.4050631,20.2112556 35.4049149,20.1980653 L37.346639,20.1980653 C37.6746935,20.1980653 37.9407237,19.9321092 37.9407237,19.6039806 L37.9407237,13.2673486 C37.9407978,11.7028835 36.7864935,10.4030407 35.2847937,10.1744326 Z M27.802157,3.72286668 L32.2773927,3.72286668 C32.9980455,3.72286668 33.5843494,4.30917057 33.5843494,5.02982342 L33.5843494,5.06939448 L27.802157,5.06939448 L27.802157,3.72286668 Z M27.802157,10.1387149 L27.802157,6.25748982 L33.0808928,6.25748982 L34.0511991,10.1387149 L27.802157,10.1387149 Z M10.7327255,22.8120529 C9.31328021,22.8120529 8.15845717,21.6573039 8.15845717,20.2377846 C8.15845717,18.8182652 9.31328021,17.6635163 10.7327255,17.6635163 C12.1521708,17.6635163 13.3069938,18.8182652 13.3069938,20.2377846 C13.3069938,21.6573039 12.1521708,22.8120529 10.7327255,22.8120529 Z M31.6437369,22.8120529 C30.2242916,22.8120529 29.0694686,21.6573039 29.0694686,20.2377846 C29.0694686,18.8182652 30.2242916,17.6635163 31.6437369,17.6635163 C33.0631822,17.6635163 34.2180052,18.8182652 34.2180052,20.2377846 C34.2180052,21.6573039 33.0631822,22.8120529 31.6437369,22.8120529 Z M36.7527024,15.2080352 L36.0794015,15.2080352 C35.7081449,15.2080352 35.4061005,14.9059909 35.4061005,14.5347343 L35.4061005,13.8614333 L36.7526283,13.8614333 L36.7526283,15.2080352 L36.7527024,15.2080352 Z M10.7327255,19.0100441 C11.4097316,19.0100441 11.960466,19.5607785 11.960466,20.2377846 C11.960466,20.9147907 11.4097316,21.4655251 10.7327255,21.4655251 C10.0557194,21.4655251 9.50498498,20.9147907 9.50498498,20.2377846 C9.50498498,19.5607785 10.0557194,19.0100441 10.7327255,19.0100441 Z M31.6437369,19.0100441 C32.320743,19.0100441 32.8714774,19.5607785 32.8714774,20.2377846 C32.8714774,20.9147907 32.320743,21.4655251 31.6437369,21.4655251 C30.9667308,21.4655251 30.4159964,20.9147907 30.4159964,20.2377846 C30.4159964,19.5607785 30.9667308,19.0100441 31.6437369,19.0100441 Z M24.6733751,16.4754209 C25.0015037,16.4754209 25.2674598,16.741377 25.2674598,17.0695056 C25.2674598,17.3976343 25.0014296,17.6635904 24.6733751,17.6635904 L15.8020459,17.6635904 C15.4739172,17.6635904 15.2079611,17.3976343 15.2079611,17.0695056 C15.2079611,16.741377 15.4739913,16.4754209 15.8020459,16.4754209 L24.6733751,16.4754209 Z M9.46541391,13.9407237 C9.79346843,13.9407237 10.0594986,14.2066798 10.0594986,14.5348084 C10.0594986,14.862937 9.79346843,15.1288931 9.46541391,15.1288931 L1.86139629,15.1288931 C1.53326767,15.1288931 1.26731157,14.862937 1.26731157,14.5348084 C1.26731157,14.2066798 1.53334177,13.9407237 1.86139629,13.9407237 L9.46541391,13.9407237 Z M15.1683901,3.16835303 C12.0456105,3.16835303 9.50498498,5.70897852 9.50498498,8.83175813 C9.50498498,11.9545377 12.0456105,14.4951632 15.1683901,14.4951632 C18.2911697,14.4951632 20.8317952,11.9545377 20.8317952,8.83175813 C20.8317952,5.70897852 18.2911697,3.16835303 15.1683901,3.16835303 Z M15.1683901,13.3070679 C12.7007562,13.3070679 10.6931544,11.2994661 10.6931544,8.83183223 C10.6931544,6.36419831 12.7007562,4.35659657 15.1683901,4.35659657 C17.636024,4.35659657 19.6436257,6.36419831 19.6436257,8.83183223 C19.6436257,11.2994661 17.636024,13.3070679 15.1683901,13.3070679 Z M17.489448,10.312709 L15.7624748,8.58573577 L15.7624748,6.29713499 C15.7624748,5.96908047 15.4965187,5.70305027 15.1683901,5.70305027 C14.8402615,5.70305027 14.5743054,5.96900637 14.5743054,6.29713499 L14.5743054,8.83183223 C14.5743054,8.98937547 14.6368484,9.14039762 14.7482995,9.25184872 L16.6492668,11.1528161 C16.7652382,11.2687875 16.9172978,11.3268102 17.0692833,11.3268102 C17.2212688,11.3268102 17.3734025,11.2688616 17.4892998,11.1528161 C17.7214649,10.9207992 17.7214649,10.5447259 17.489448,10.312709 Z" id="Shape"></path>
            </g>
        </g>
    </g>
</svg>