<?xml version="1.0" encoding="UTF-8"?>
<svg width="184px" height="165px" viewBox="0 0 184 165" version="1.1" xmlns="http://www.w3.org/2000/svg" xmlns:xlink="http://www.w3.org/1999/xlink">
    <!-- Generator: Sketch 48.2 (47327) - http://www.bohemiancoding.com/sketch -->
    <title>feature-1</title>
    <desc>Created with Sketch.</desc>
    <defs>
        <linearGradient x1="50%" y1="0%" x2="50%" y2="93.0651042%" id="linearGradient-1">
            <stop stop-color="#0067B1" offset="0%"></stop>
            <stop stop-color="#282D7E" offset="100%"></stop>
        </linearGradient>
    </defs>
    <g id="Home-omnix" stroke="none" stroke-width="1" fill="none" fill-rule="evenodd" transform="translate(-335.000000, -830.000000)">
        <g id="feature-1" transform="translate(335.000000, 830.000000)">
            <path d="M49.0909091,0 L153.107237,-3.55271368e-15 C169.675779,-6.59630556e-15 183.107237,13.4314575 183.107237,30 C183.107237,31.799748 182.945283,33.5958452 182.623334,35.3665631 L163.532425,140.366563 C160.93884,154.631284 148.514912,165 134.016328,165 L30,165 C13.4314575,165 5.58177493e-15,151.568542 3.55271368e-15,135 C3.33230811e-15,133.200252 0.161953985,131.404155 0.483902697,129.633437 L19.5748118,24.6334369 C22.1683974,10.368716 34.5923247,-8.89366941e-16 49.0909091,-3.55271368e-15 Z" id="Rectangle-3" fill="url(#linearGradient-1)"></path>
            <g id="003-brain" transform="translate(57.000000, 50.000000)" fill="#00D2FF" fill-rule="nonzero">
                <path d="M51.8132308,26.3630769 L51.8132308,26.0430769 C51.4978462,21.8781538 48.0270769,18.6593846 43.8501538,18.6584615 C43.2401538,18.668 42.6332308,18.7464615 42.0409231,18.8923077 C39.4455385,14.1136923 33.4676923,12.344 28.6892308,14.9393846 C27.0173846,15.8473846 25.6443077,17.2204615 24.7363077,18.8923077 C24.132,18.7436923 23.5124615,18.6652308 22.8901538,18.6584615 C18.4746154,18.6652308 14.8969231,22.2429231 14.8901538,26.6584615 C14.8901538,26.8676923 14.8901538,27.0646154 14.8901538,27.2738462 C12.1712308,29.3130769 11.6201538,33.1703077 13.6593846,35.8892308 C14.8215385,37.4387692 16.6455385,38.3507692 18.5824615,38.3507692 L27.5793846,38.3507692 L30.964,47.3969231 C31.1443077,47.8793846 31.6058462,48.1986154 32.1209231,48.1969231 L39.5055385,48.1969231 C45.7407692,48.2032308 50.9810769,43.5146154 51.6655385,37.3169231 L51.6655385,36.8738462 C53.2973846,35.6004615 54.2583077,33.6513846 54.2747692,31.5815385 C54.2738462,29.562 53.3712308,27.6483077 51.8132308,26.3630769 Z M32.9701538,45.7353846 L30.2009231,38.3507692 L33.7332308,38.3507692 L36.5024615,45.7353846 L32.9701538,45.7353846 Z M39.5055385,45.7353846 L39.124,45.7353846 L38.2009231,43.2738462 L45.9916923,43.2738462 C44.2047692,44.862 41.8963077,45.738 39.5055385,45.7353846 Z M47.9855385,40.8123077 L37.2778462,40.8123077 L36.3547692,38.3507692 L47.5055385,38.3507692 C48.0149231,38.3495385 48.5227692,38.2916923 49.0193846,38.1784615 C48.7986154,39.1001538 48.4507692,39.9866154 47.9855385,40.8123077 Z M51.0813846,33.9750769 C50.2832308,35.1693846 48.9421538,35.8873846 47.5056923,35.8892308 L35.8133846,35.8892308 C33.4343077,35.8892308 31.5056923,33.9606154 31.5056923,31.5815385 C31.5056923,29.2024615 33.4343077,27.2738462 35.8133846,27.2738462 L35.8133846,24.8123077 C32.0776923,24.8190769 29.0509231,27.8458462 29.0441538,31.5815385 C29.0398462,33.1549231 29.5887692,34.6796923 30.5949231,35.8892308 L27.198,35.8892308 C27.198,32.4906154 24.4427692,29.7353846 21.0441538,29.7353846 L21.0441538,32.1969231 C23.0833846,32.1969231 24.7364615,33.85 24.7364615,35.8892308 L18.5826154,35.8892308 C16.5433846,35.8892308 14.8903077,34.2361538 14.8903077,32.1969231 C14.8903077,30.1576923 16.5433846,28.5046154 18.5826154,28.5046154 L18.5826154,26.0430769 C18.1692308,26.0426154 17.7569231,26.0838462 17.3518462,26.1661538 C17.6075385,23.3010769 20.0138462,21.1086154 22.8903077,21.12 C23.5721538,21.1175385 24.2484615,21.2427692 24.8841538,21.4892308 C25.6447692,21.7924615 26.3295385,22.2587692 26.8903077,22.8553846 C26.2887692,23.8098462 25.9687692,24.9147692 25.9672308,26.0430769 L28.4287692,26.0430769 C28.4287692,24.0038462 30.0818462,22.3507692 32.1210769,22.3507692 L32.1210769,19.8892308 C30.8398462,19.894 29.5921538,20.2983077 28.5518462,21.0461538 C28.0950769,20.5753846 27.5826154,20.162 27.0256923,19.8153846 C29.1295385,16.3215385 33.6673846,15.1946154 37.1612308,17.2984615 C39.3667692,18.6264615 40.7213846,21.0072308 40.7364615,23.5815385 L43.198,23.5815385 C43.1966154,22.7758462 43.0932308,21.9735385 42.8903077,21.1938462 C43.1955385,21.1447692 43.5041538,21.1201538 43.8133846,21.12 C46.8673846,21.12 49.3450769,23.5921538 49.3518462,26.6461538 L49.3518462,26.9784615 C49.3512308,27.3878462 49.5541538,27.7707692 49.8933846,28 C51.8713846,29.3218462 52.4032308,31.9969231 51.0813846,33.9750769 Z" id="Shape"></path>
                <path d="M40.7363077,26.0430769 L40.7363077,28.5046154 C42.7755385,28.5046154 44.4286154,30.1576923 44.4286154,32.1969231 L46.8901538,32.1969231 C46.8901538,28.7983077 44.1350769,26.0430769 40.7363077,26.0430769 Z" id="Shape"></path>
                <path d="M69.2409231,5.12 C67.2513846,4.77876923 65.6929231,3.22030769 65.3516923,1.23076923 C65.3516923,0.551076923 64.8006154,0 64.1209231,0 C63.4412308,0 62.8901538,0.551076923 62.8901538,1.23076923 C62.5489231,3.22030769 60.9904615,4.77876923 59.0009231,5.12 C58.3212308,5.12 57.7701538,5.67107692 57.7701538,6.35076923 C57.7701538,7.03046154 58.3212308,7.58153846 59.0009231,7.58153846 C60.9904615,7.92276923 62.5489231,9.48123077 62.8901538,11.4707692 C62.8901538,12.1504615 63.4412308,12.7015385 64.1209231,12.7015385 C64.8006154,12.7015385 65.3516923,12.1504615 65.3516923,11.4707692 C65.6929231,9.48123077 67.2513846,7.92276923 69.2409231,7.58153846 C69.9206154,7.58153846 70.4716923,7.03046154 70.4716923,6.35076923 C70.4716923,5.67107692 69.9207692,5.12 69.2409231,5.12 Z M64.1209231,8.11076923 C63.6433846,7.42415385 63.0475385,6.82830769 62.3609231,6.35076923 C63.0475385,5.87323077 63.6433846,5.27738462 64.1209231,4.59076923 C64.5984615,5.27738462 65.1943077,5.87323077 65.8809231,6.35076923 C65.1944615,6.82830769 64.5984615,7.42415385 64.1209231,8.11076923 Z" id="Shape"></path>
                <path d="M11.3947692,61.7353846 C9.40523077,61.3941538 7.84676923,59.8356923 7.50553846,57.8461538 C7.50553846,57.1664615 6.95446154,56.6153846 6.27476923,56.6153846 C5.59507692,56.6153846 5.044,57.1664615 5.044,57.8461538 C4.70276923,59.8356923 3.14430769,61.3941538 1.15476923,61.7353846 C0.552923077,61.8329231 0.113076923,62.3564615 0.120923077,62.9661538 C0.113076923,63.5758462 0.552923077,64.0993846 1.15476923,64.1969231 C3.14430769,64.5381538 4.70276923,66.0966154 5.044,68.0861538 C5.044,68.7658462 5.59507692,69.3169231 6.27476923,69.3169231 C6.95446154,69.3169231 7.50553846,68.7658462 7.50553846,68.0861538 C7.84676923,66.0966154 9.40523077,64.5381538 11.3947692,64.1969231 C12.0744615,64.1969231 12.6255385,63.6458462 12.6255385,62.9661538 C12.6255385,62.2864615 12.0746154,61.7353846 11.3947692,61.7353846 Z M6.27476923,64.7261538 C5.79723077,64.0395385 5.20138462,63.4436923 4.51476923,62.9661538 C5.20138462,62.4886154 5.79723077,61.8927692 6.27476923,61.2061538 C6.75230769,61.8927692 7.34815385,62.4886154 8.03476923,62.9661538 C7.34830769,63.4436923 6.75230769,64.0395385 6.27476923,64.7261538 Z" id="Shape"></path>
                <path d="M57.5116923,45.7353846 C57.0932308,46.4 56.6624615,47.0523077 56.1947692,47.6923077 L58.1763077,49.1446154 C58.6809231,48.4553846 59.1978462,47.7415385 59.604,46.9661538 L57.5116923,45.7353846 Z" id="Shape"></path>
                <path d="M54.7178462,49.5384615 C54.2132308,50.1169231 53.6593846,50.6953846 53.0932308,51.2492308 L54.8163077,53.0092308 C55.4316923,52.4184615 56.0224615,51.7907692 56.5763077,51.1507692 L54.7178462,49.5384615 Z" id="Shape"></path>
                <path d="M62.9393846,22.3630769 L60.5270769,23.0153846 C60.7486154,23.7784615 60.9332308,24.5415385 61.0932308,25.3046154 L63.5547692,24.8246154 C63.3824615,23.9876923 63.1855385,23.1507692 62.9393846,22.3630769 Z" id="Shape"></path>
                <path d="M59.6286154,41.5261538 C59.3332308,42.24 59.0132308,42.9661538 58.6563077,43.68 L60.8593846,44.7753846 C61.2409231,44.0123077 61.6593846,43.2738462 61.9055385,42.4369231 L59.6286154,41.5261538 Z" id="Shape"></path>
                <path d="M51.2347692,5.92 L49.8070769,7.92615385 C50.4470769,8.38153846 51.0378462,8.87384615 51.6655385,9.37846154 L53.2532308,7.49538462 C52.6132308,6.95384615 51.9363077,6.42461538 51.2347692,5.92 Z" id="Shape"></path>
                <path d="M58.3732308,13.1692308 L56.4286154,14.5723077 C56.884,15.2123077 57.3270769,15.8769231 57.6593846,16.5538462 L59.7763077,15.3230769 C59.3455385,14.5846154 58.8778462,13.8707692 58.3732308,13.1692308 Z" id="Shape"></path>
                <path d="M55.1363077,9.24307692 L53.3886154,10.9784615 C53.9547692,11.5323077 54.484,12.1107692 54.9886154,12.7138462 L56.8716923,11.1261538 C56.3301538,10.4738462 55.7393846,9.89538462 55.1363077,9.24307692 Z" id="Shape"></path>
                <path d="M61.0563077,17.5384615 L58.8409231,18.6584615 C59.1732308,19.3723077 59.4932308,20.0984615 59.7763077,20.8246154 L62.0655385,19.8892308 C61.7701538,19.1015385 61.4255385,18.3015385 61.0563077,17.5384615 Z" id="Shape"></path>
                <path d="M60.9578462,37.0215385 C60.7978462,37.7846154 60.5886154,38.56 60.3670769,39.2984615 L62.7178462,40.0246154 C63.0132308,39.2123077 63.2347692,38.3507692 63.4193846,37.5384615 L60.9578462,37.0215385 Z" id="Shape"></path>
                <path d="M63.9116923,27.3476923 L61.4501538,27.6307692 C61.5486154,28.4061538 61.5978462,29.2061538 61.6347692,29.9938462 L64.0963077,29.9076923 C64.1209231,29.0461538 64.0101538,28.1969231 63.9116923,27.3476923 Z" id="Shape"></path>
                <path d="M61.6593846,32.3446154 C61.6593846,33.1323077 61.5486154,33.92 61.4501538,34.6953846 L63.9116923,35.0153846 C63.9609231,34.1784615 64.0470769,33.3169231 64.1209231,32.4676923 L61.6593846,32.3446154 Z" id="Shape"></path>
                <path d="M5.044,32.6153846 L2.58246154,32.7630769 C2.58246154,33.6123077 2.71784615,34.4738462 2.84092308,35.3107692 L5.30246154,34.9661538 C5.21630769,34.1907692 5.14246154,33.4276923 5.044,32.6153846 Z" id="Shape"></path>
                <path d="M46.8901538,3.29846154 L45.8193846,5.51384615 C46.5209231,5.85846154 47.2224615,6.24 47.8870769,6.63384615 L49.1178462,4.51692308 C48.3670769,4.08615385 47.604,3.68 46.8901538,3.29846154 Z" id="Shape"></path>
                <path d="M5.74553846,37.3046154 L3.34553846,37.8584615 C3.54246154,38.6830769 3.764,39.52 4.02246154,40.32 L6.37323077,39.5815385 C6.12707692,38.8307692 5.93015385,38.0676923 5.74553846,37.3046154 Z" id="Shape"></path>
                <path d="M2.73015385,27.5938462 C2.66861538,28.5046154 2.58246154,29.3415385 2.58246154,30.2030769 L5.044,30.2030769 C5.044,29.4276923 5.10553846,28.6276923 5.19169231,27.8523077 L2.73015385,27.5938462 Z" id="Shape"></path>
                <path d="M9.33938462,45.9569231 L7.24707692,47.2615385 C7.69015385,47.9753846 8.18246154,48.6892308 8.69938462,49.3784615 L10.6686154,47.9015385 C10.2009231,47.2738462 9.74553846,46.6707692 9.33938462,45.9569231 Z" id="Shape"></path>
                <path d="M3.764,22.6092308 C3.50553846,23.4338462 3.29630769,24.2707692 3.13630769,25.1076923 L5.59784615,25.5753846 C5.74553846,24.8 5.93015385,24.0369231 6.13938462,23.2738462 L3.764,22.6092308 Z" id="Shape"></path>
                <path d="M12.1578462,49.7353846 L10.3116923,51.36 C10.8778462,52 11.5424615,52.5907692 12.0963077,53.2061538 L13.7947692,51.4338462 C13.2286154,50.8923077 12.6747692,50.3138462 12.1578462,49.7353846 Z" id="Shape"></path>
                <path d="M5.524,17.8215385 C5.15476923,18.6584615 4.82246154,19.3846154 4.52707692,20.1723077 L6.82861538,21.0461538 C7.11584615,20.3076923 7.42353846,19.5815385 7.75169231,18.8676923 L5.524,17.8215385 Z" id="Shape"></path>
                <path d="M15.5670769,52.9353846 L14.0163077,54.9046154 C14.6686154,55.4338462 15.3701538,55.9507692 16.0716923,56.4307692 L17.4501538,54.3507692 C16.8101538,53.9076923 16.2193846,53.4276923 15.5670769,52.9353846 Z" id="Shape"></path>
                <path d="M19.4563077,55.6307692 L18.2501538,57.7846154 C18.9886154,58.1907692 19.7516923,58.5846154 20.5393846,58.9415385 L21.5609231,56.7138462 C20.8470769,56.3815385 20.1455385,56.0246154 19.4563077,55.6307692 Z" id="Shape"></path>
                <path d="M47.4686154,55.4707692 C46.7916923,55.8523077 46.0901538,56.2215385 45.3763077,56.5661538 L46.4347692,58.8307692 C47.2101538,58.4615385 47.9732308,58.0553846 48.6993846,57.6 L47.4686154,55.4707692 Z" id="Shape"></path>
                <path d="M7.17323077,41.7723077 L4.90861538,42.7076923 C5.22861538,43.4953846 5.58553846,44.2830769 5.97938462,45.0338462 L8.17015385,43.9138462 C7.81738462,43.2164615 7.48507692,42.5026154 7.17323077,41.7723077 Z" id="Shape"></path>
                <path d="M8.05938462,13.3784615 C7.604,14.08 7.14861538,14.8184615 6.71784615,15.5446154 L8.84707692,16.7753846 C9.24092308,16.1107692 9.67169231,15.4338462 10.0778462,14.7938462 L8.05938462,13.3784615 Z" id="Shape"></path>
                <path d="M11.3701538,9.44 C10.7670769,10.0553846 10.1393846,10.6707692 9.64707692,11.3476923 L11.5424615,12.9107692 C12.0470769,12.32 12.5763077,11.7292308 13.1301538,11.1630769 L11.3701538,9.44 Z" id="Shape"></path>
                <path d="M15.2347692,6.09230769 C14.5455385,6.59692308 13.8809231,7.12615385 13.2286154,7.68 L14.8901538,9.55076923 C15.4809231,9.03384615 16.1209231,8.54153846 16.7363077,8.07384615 L15.2347692,6.09230769 Z" id="Shape"></path>
                <path d="M29.3763077,0.455384615 C28.5244615,0.556 27.6781538,0.699846154 26.8409231,0.886153846 L27.3701538,3.28615385 C28.1332308,3.12615385 28.9086154,2.99076923 29.684,2.89230769 L29.3763077,0.455384615 Z" id="Shape"></path>
                <path d="M24.3670769,1.52615385 C23.5547692,1.77230769 22.7424615,2.06769231 21.9055385,2.37538462 L22.8286154,4.66461538 C23.5547692,4.38153846 24.3055385,4.11076923 25.044,3.88923077 L24.3670769,1.52615385 Z" id="Shape"></path>
                <path d="M31.924,0.196923077 L32.0347692,2.65846154 C32.8224615,2.65846154 33.6101538,2.65846154 34.3978462,2.65846154 L34.484,0.196923077 C33.6347692,0.196923077 32.7732308,0.196923077 31.924,0.196923077 Z" id="Shape"></path>
                <path d="M42.0532308,1.42769231 L41.364,3.77846154 C42.1147692,4.01230769 42.8655385,4.25846154 43.5916923,4.54153846 L44.4286154,2.27692308 C43.6901538,1.96923077 42.8778462,1.68615385 42.0532308,1.42769231 Z" id="Shape"></path>
                <path d="M37.044,0.418461538 L36.7486154,2.88 C37.524,2.97846154 38.2993846,3.10153846 39.0747692,3.26153846 L39.5670769,0.8 C38.7301538,0.652307692 37.8809231,0.516923077 37.044,0.418461538 Z" id="Shape"></path>
                <path d="M19.604,3.42153846 C18.8532308,3.80307692 18.1024615,4.22153846 17.364,4.65230769 L18.5947692,6.75692308 C19.2675385,6.34661538 19.9567692,5.96507692 20.6624615,5.61230769 L19.604,3.42153846 Z" id="Shape"></path>
                <path d="M51.3455385,52.8246154 C50.7424615,53.3169231 50.1147692,53.7969231 49.4624615,54.24 L50.8655385,56.2707692 C51.5670769,55.7784615 52.2563077,55.2615385 52.9086154,54.72 L51.3455385,52.8246154 Z" id="Shape"></path>
                <path d="M54.0767692,17.6916923 C52.8738462,15.8116923 51.4209231,14.1038462 49.7578462,12.6153846 C39.6630769,3.50984615 24.0981538,4.31184615 14.9926154,14.4066154 C5.88707692,24.5013846 6.68907692,40.0663077 16.7838462,49.1718462 C17.8006154,50.0889231 18.8921538,50.9196923 20.0472308,51.6553846 C22.2166154,53.0530769 23.5212308,55.4624615 23.5056923,58.0430769 L23.5056923,64.1969231 C23.5086154,66.482 25.0835385,68.4647692 27.3087692,68.9846154 C27.9507692,72.3221538 31.1766154,74.5072308 34.5141538,73.8653846 C36.9861538,73.3898462 38.9193846,71.4567692 39.3949231,68.9846154 C41.6201538,68.4647692 43.1950769,66.482 43.198,64.1969231 L43.198,58.0430769 C43.1750769,55.4827692 44.4607692,53.088 46.6072308,51.6923077 C58.0587692,44.366 61.4030769,29.1433846 54.0767692,17.6916923 Z M33.3516923,71.5815385 C31.7863077,71.5823077 30.3904615,70.5958462 29.8686154,69.12 L36.8347692,69.12 C36.3130769,70.5958462 34.9172308,71.5823077 33.3516923,71.5815385 Z M38.2747692,66.6584615 L28.4286154,66.6584615 C27.0690769,66.6584615 25.9670769,65.5564615 25.9670769,64.1969231 L40.7363077,64.1969231 C40.7363077,65.5564615 39.6343077,66.6584615 38.2747692,66.6584615 Z M40.7363077,61.7353846 L25.9670769,61.7353846 L25.9670769,59.2738462 L40.7363077,59.2738462 L40.7363077,61.7353846 Z M49.8503077,45.7316923 C48.5129231,47.2256923 46.9789231,48.5310769 45.2901538,49.6123077 L45.2778462,49.6123077 C42.7792308,51.216 41.1376923,53.8615385 40.8101538,56.8123077 L38.2747692,56.8123077 L38.2747692,50.6584615 L35.8132308,50.6584615 L35.8132308,56.8123077 L30.8901538,56.8123077 L30.8901538,49.4276923 L28.4286154,49.4276923 L28.4286154,56.8123077 L25.8932308,56.8123077 C25.546,53.8489231 23.8883077,51.1975385 21.3763077,49.5876923 C11.0958462,42.9533846 8.14015385,29.2412308 14.7744615,18.9609231 C18.3569231,13.4095385 24.2303077,9.74692308 30.7916923,8.97230769 C31.6413846,8.87123077 32.496,8.81784615 33.3516923,8.81230769 C38.8052308,8.78523077 44.0723077,10.7955385 48.1209231,14.4492308 C57.2369231,22.6101538 58.0112308,36.6158462 49.8503077,45.7316923 Z" id="Shape"></path>
            </g>
        </g>
    </g>
</svg>