<?xml version="1.0" encoding="UTF-8"?>
<svg width="185px" height="165px" viewBox="0 0 185 165" version="1.1" xmlns="http://www.w3.org/2000/svg" xmlns:xlink="http://www.w3.org/1999/xlink">
    <!-- Generator: Sketch 48.2 (47327) - http://www.bohemiancoding.com/sketch -->
    <title>feature-2</title>
    <desc>Created with Sketch.</desc>
    <defs>
        <linearGradient x1="50%" y1="0%" x2="50%" y2="93.0651042%" id="linearGradient-1">
            <stop stop-color="#0067B1" offset="0%"></stop>
            <stop stop-color="#282D7E" offset="100%"></stop>
        </linearGradient>
    </defs>
    <g id="Home-omnix" stroke="none" stroke-width="1" fill="none" fill-rule="evenodd" transform="translate(-628.000000, -830.000000)">
        <g id="feature-2" transform="translate(628.000000, 830.000000)">
            <path d="M50.0372906,0 L154.053618,-3.55271368e-15 C170.622161,-6.59630556e-15 184.053618,13.4314575 184.053618,30 C184.053618,31.799748 183.891665,33.5958452 183.569716,35.3665631 L164.478807,140.366563 C161.885221,154.631284 149.461294,165 134.962709,165 L30.9463815,165 C14.377839,165 0.946381511,151.568542 0.946381511,135 C0.946381511,133.200252 1.1083355,131.404155 1.43028421,129.633437 L20.5211933,24.6334369 C23.1147789,10.368716 35.5387063,-8.89366941e-16 50.0372906,-3.55271368e-15 Z" id="Rectangle-3" fill="url(#linearGradient-1)"></path>
            <g id="001-open-book" transform="translate(56.000000, 42.000000)" fill="#00D2FF" fill-rule="nonzero">
                <path d="M41.9848304,35.0253684 C42.2026472,35.4513372 42.6359727,35.6974269 43.0840117,35.6974269 C43.2711033,35.6974269 43.4630994,35.6542963 43.6416803,35.5632749 C43.7142378,35.526347 50.9596023,31.8458207 54.5329513,30.7170682 C55.1804873,30.5115127 55.5398129,29.819692 55.3342573,29.1723002 C55.1298558,28.5247641 54.4430838,28.1641404 53.7894893,28.3685419 C50.0252982,29.5588889 42.8292671,33.2147485 42.5240351,33.3698168 C41.9183314,33.677501 41.6771462,34.418655 41.9848304,35.0253684 Z" id="Shape"></path>
                <path d="M43.0840117,20.9264211 C43.2711033,20.9264211 43.4630994,20.8832904 43.6416803,20.792269 C43.7142378,20.7553411 50.9596023,17.0748148 54.5329513,15.9460624 C55.1804873,15.7405068 55.5398129,15.0486862 55.3342573,14.4012943 C55.1298558,13.7537583 54.4430838,13.3931345 53.7894893,13.5975361 C50.0252982,14.787883 42.8292671,18.4437427 42.5240351,18.5988109 C41.9184756,18.9064951 41.6771462,19.6475049 41.9848304,20.2543626 C42.2026472,20.6801871 42.6359727,20.9264211 43.0840117,20.9264211 Z" id="Shape"></path>
                <path d="M72.6251579,18.4645146 C71.9444444,18.4645146 71.3942768,19.0159805 71.3942768,19.6953957 L71.3942768,67.7016335 C71.3942768,69.7375712 69.7374269,71.3944211 67.7014893,71.3944211 L38.1591891,71.3944211 L38.1591891,68.5620819 C39.9539415,67.934308 44.628924,66.4707524 49.2375517,66.4707524 C59.9601949,66.4707524 67.2411891,68.8452437 67.3137466,68.8697661 C67.6841793,68.9928109 68.0978869,68.9313606 68.4215828,68.6998402 C68.7428265,68.4684639 68.9323704,68.0967329 68.9323704,67.7014893 L68.9323704,13.540846 C68.9323704,12.9635595 68.5323665,12.4637349 67.9684951,12.3393918 C67.9684951,12.3393918 67.0034659,12.1240273 65.3539727,11.8211033 C64.6879727,11.6980585 64.0443314,12.141193 63.9211423,12.808347 C63.7980975,13.4779532 64.2399337,14.1192865 64.908386,14.2423314 C65.5374581,14.3580195 66.0642573,14.4601481 66.4704639,14.5415049 L66.4704639,66.0656998 C63.6811111,65.334499 57.4871813,64.008846 49.2374074,64.008846 C43.8742105,64.008846 38.6059298,65.7702768 36.9760546,66.3673255 C35.5272125,65.7272904 31.147653,64.008846 25.8496569,64.008846 C17.3709591,64.008846 10.3866862,65.4072008 7.3857193,66.1174854 L7.3857193,14.4934698 C9.84387524,13.8890643 17.1039532,12.3098207 25.8496569,12.3098207 C30.337692,12.3098207 34.1867018,13.7068772 35.6971384,14.3384016 L35.6971384,62.7779649 C35.6971384,63.2210994 35.9358713,63.6310565 36.3211618,63.8488733 C36.7064522,64.0679883 37.1816101,64.0617856 37.5619961,63.8328616 C37.6838869,63.7603041 49.8798947,56.4755595 60.7046667,52.8677349 C61.2080975,52.6991072 61.5466511,52.230152 61.5466511,51.6996023 L61.5466511,1.23145809 C61.5466511,0.827703704 61.3484522,0.449769981 61.0161014,0.219692008 C60.6862027,-0.0105302144 60.2628304,-0.0634697856 59.8824444,0.0781832359 C50.033809,3.77212476 40.0683314,9.97355556 39.9685107,10.0351501 C39.3923782,10.3957739 39.2163938,11.1552476 39.5770175,11.7313801 C39.9364873,12.3075127 40.695961,12.4834971 41.2732476,12.1228733 C41.364269,12.0650292 50.033809,6.67110721 59.0847446,3.03125926 L59.0847446,50.8183821 C50.6823548,53.7381365 41.9095322,58.5055828 38.1589006,60.6398986 L38.1589006,13.540846 C38.1589006,13.0743431 37.895501,12.6483743 37.4781871,12.4392125 C37.2664288,12.3346316 32.2221676,9.84805848 25.8496569,9.84805848 C14.7270097,9.84805848 6.17575439,12.2545731 5.8162846,12.3578558 C5.28818713,12.5080195 4.92381287,12.9918324 4.92381287,13.540846 L4.92381287,67.7017778 C4.92381287,68.0870682 5.106,68.4514425 5.41253021,68.684117 C5.62919298,68.8478402 5.89014035,68.9328031 6.15483821,68.9328031 C6.26807407,68.9328031 6.38130994,68.9167914 6.49209357,68.884768 C6.57705653,68.8613996 15.0889318,66.4708967 25.8496569,66.4708967 C30.3499532,66.4708967 34.1953567,67.8717037 35.6971384,68.5006316 L35.6971384,71.3945653 L6.15483821,71.3945653 C4.11890058,71.3945653 2.46205068,69.7377154 2.46205068,67.7017778 L2.46205068,19.69554 C2.46205068,19.0161248 1.9105848,18.4646589 1.23116959,18.4646589 C0.551754386,18.4646589 0.000288499025,19.0161248 0.000288499025,19.69554 L0.000288499025,67.7017778 C0.000288499025,71.0953918 2.76122417,73.8564717 6.15498246,73.8564717 L67.7014893,73.8564717 C71.0951033,73.8564717 73.8561832,71.0955361 73.8561832,67.7017778 L73.8561832,19.69554 C73.856039,19.0159805 73.3058713,18.4645146 72.6251579,18.4645146 Z" id="Shape"></path>
                <path d="M41.9848304,27.6397934 C42.2026472,28.0657622 42.6359727,28.3118519 43.0840117,28.3118519 C43.2711033,28.3118519 43.4630994,28.2687212 43.6416803,28.1776998 C43.7142378,28.1407719 50.9596023,24.4602456 54.5329513,23.3314932 C55.1804873,23.1259376 55.5398129,22.434117 55.3342573,21.7867251 C55.1298558,21.1391891 54.4430838,20.7785653 53.7894893,20.9829669 C50.0252982,22.1733138 42.8292671,25.8291735 42.5240351,25.9842417 C41.9183314,26.2919259 41.6771462,27.0330799 41.9848304,27.6397934 Z" id="Shape"></path>
                <path d="M41.9848304,42.4109435 C42.2026472,42.8369123 42.6359727,43.0830019 43.0840117,43.0830019 C43.2711033,43.0830019 43.4630994,43.0398713 43.6416803,42.9488499 C43.7142378,42.911922 50.9596023,39.2313957 54.5329513,38.1026433 C55.1804873,37.8970877 55.5398129,37.2052671 55.3342573,36.5578752 C55.1298558,35.9103392 54.4430838,35.5497154 53.7894893,35.754117 C50.0252982,36.9444639 42.8292671,40.6003236 42.5240351,40.7553918 C41.9183314,41.063076 41.6771462,41.80423 41.9848304,42.4109435 Z" id="Shape"></path>
                <path d="M29.8232982,22.8442183 C22.2223587,21.0605731 13.5848421,23.3329357 13.2217661,23.4301598 C12.5657193,23.6061442 12.1755244,24.280655 12.3515088,24.938 C12.4992203,25.4881676 12.9964483,25.8500897 13.5394035,25.8500897 C13.6452827,25.8500897 13.7523158,25.8365302 13.8594932,25.8082573 C13.9420039,25.7848889 22.2581326,23.5974893 29.2621676,25.2407797 C29.9206667,25.394694 30.5866667,24.9847368 30.7417349,24.3224873 C30.8966589,23.6615361 30.4855478,22.9992865 29.8232982,22.8442183 Z" id="Shape"></path>
                <path d="M29.8232982,30.2297934 C22.2223587,28.4474464 13.5848421,30.7185107 13.2217661,30.8157349 C12.5657193,30.9917193 12.1755244,31.6663743 12.3515088,32.323575 C12.4992203,32.8737427 12.9964483,33.2356647 13.5394035,33.2356647 C13.6452827,33.2356647 13.7523158,33.2221053 13.8594932,33.1938324 C13.9420039,33.1704639 22.2581326,30.9830643 29.2621676,32.6263548 C29.9206667,32.780269 30.5866667,32.3703119 30.7417349,31.7080624 C30.8966589,31.0471111 30.4855478,30.3848616 29.8232982,30.2297934 Z" id="Shape"></path>
                <path d="M41.9848304,49.7965185 C42.2026472,50.2224873 42.6359727,50.468577 43.0840117,50.468577 C43.2711033,50.468577 43.4630994,50.4254464 43.6416803,50.334425 C43.7142378,50.2974971 50.9596023,46.6169708 54.5329513,45.4882183 C55.1804873,45.2826628 55.5398129,44.5908421 55.3342573,43.9434503 C55.1298558,43.2960585 54.4430838,42.9352904 53.7894893,43.139692 C50.0252982,44.330039 42.8292671,47.9858986 42.5240351,48.1409669 C41.9183314,48.4486511 41.6771462,49.1898051 41.9848304,49.7965185 Z" id="Shape"></path>
                <path d="M29.8232982,37.6153684 C22.2223587,35.8330214 13.5848421,38.1027875 13.2217661,38.2013099 C12.5657193,38.3772943 12.1755244,39.0519493 12.3515088,39.7091501 C12.4992203,40.2593177 12.9964483,40.622538 13.5394035,40.622538 C13.6452827,40.622538 13.7523158,40.6078246 13.8594932,40.5794074 C13.9420039,40.556039 22.2581326,38.3686394 29.2621676,40.0119298 C29.9206667,40.1658441 30.5866667,39.7558869 30.7417349,39.0936374 C30.8966589,38.4326862 30.4855478,37.7704366 29.8232982,37.6153684 Z" id="Shape"></path>
                <path d="M29.8232982,52.3865185 C22.2223587,50.6028733 13.5848421,52.8752359 13.2217661,52.97246 C12.5657193,53.1484444 12.1755244,53.8230994 12.3515088,54.4803002 C12.4992203,55.0304678 12.9964483,55.3936881 13.5394035,55.3936881 C13.6452827,55.3936881 13.7523158,55.3789747 13.8594932,55.3505575 C13.9420039,55.3271891 22.2581326,53.1397895 29.2621676,54.7830799 C29.9206667,54.9356959 30.5866667,54.527037 30.7417349,53.8647875 C30.8966589,53.2038363 30.4855478,52.5415867 29.8232982,52.3865185 Z" id="Shape"></path>
                <path d="M29.8232982,45.0009435 C22.2223587,43.2172982 13.5848421,45.4883626 13.2217661,45.586885 C12.5657193,45.7628694 12.1755244,46.4375244 12.3515088,47.0947251 C12.4992203,47.6448928 12.9964483,48.0081131 13.5394035,48.0081131 C13.6452827,48.0081131 13.7523158,47.9933996 13.8594932,47.9649825 C13.9420039,47.941614 22.2581326,45.7542144 29.2621676,47.3975049 C29.9206667,47.5514191 30.5866667,47.141462 30.7417349,46.4792125 C30.8966589,45.8182612 30.4855478,45.1560117 29.8232982,45.0009435 Z" id="Shape"></path>
            </g>
        </g>
    </g>
</svg>