<?xml version="1.0" encoding="UTF-8"?>
<svg width="184px" height="165px" viewBox="0 0 184 165" version="1.1" xmlns="http://www.w3.org/2000/svg" xmlns:xlink="http://www.w3.org/1999/xlink">
    <!-- Generator: Sketch 48.2 (47327) - http://www.bohemiancoding.com/sketch -->
    <title>feature-3</title>
    <desc>Created with Sketch.</desc>
    <defs>
        <linearGradient x1="50%" y1="0%" x2="50%" y2="93.0651042%" id="linearGradient-1">
            <stop stop-color="#0067B1" offset="0%"></stop>
            <stop stop-color="#282D7E" offset="100%"></stop>
        </linearGradient>
    </defs>
    <g id="Home-omnix" stroke="none" stroke-width="1" fill="none" fill-rule="evenodd" transform="translate(-923.000000, -830.000000)">
        <g id="feature-3" transform="translate(923.000000, 830.000000)">
            <path d="M49.0909091,0 L153.107237,-3.55271368e-15 C169.675779,-6.59630556e-15 183.107237,13.4314575 183.107237,30 C183.107237,31.799748 182.945283,33.5958452 182.623334,35.3665631 L163.532425,140.366563 C160.93884,154.631284 148.514912,165 134.016328,165 L30,165 C13.4314575,165 5.58177493e-15,151.568542 3.55271368e-15,135 C3.33230811e-15,133.200252 0.161953985,131.404155 0.483902697,129.633437 L19.5748118,24.6334369 C22.1683974,10.368716 34.5923247,-8.89366941e-16 49.0909091,-3.55271368e-15 Z" id="Rectangle-3" fill="url(#linearGradient-1)"></path>
            <g id="002-target" transform="translate(53.000000, 44.000000)" fill="#00D2FF" fill-rule="nonzero">
                <path d="M67.7330912,16.5614805 L73.5667579,10.7401471 C73.9167162,10.3855638 74.0189287,9.85507629 73.8257579,9.39581379 C73.6332037,8.92683879 73.1733246,8.62359295 72.6664246,8.63114712 L67.0054246,8.63114712 L69.8420912,5.80681379 C70.3257121,5.32319295 70.3257121,4.53910129 69.8420912,4.05548045 C69.3584704,3.57185962 68.5743787,3.57185962 68.0907579,4.05548045 L65.2664246,6.89214712 L65.2664246,1.23114712 C65.2639579,0.733188786 64.9622537,0.285642953 64.5017579,0.0964804526 C64.0424954,-0.0966903807 63.5120079,0.00552211929 63.1574246,0.355480453 L57.3360912,6.16448045 C40.2647537,-5.06671538 17.3210537,-0.332411214 6.0898579,16.7389263 C-3.0426671,30.6202471 -1.8013171,48.8873013 9.12509123,61.4054805 L3.73542457,72.2094805 C3.42894123,72.8178221 3.67360373,73.5593638 4.28179123,73.8658471 C4.45276207,73.9520263 4.64161623,73.9971971 4.83309123,73.9978138 L10.9997579,73.9978138 C11.4641079,73.9964263 11.8883746,73.7341888 12.0974246,73.3194805 L15.2670912,66.9924805 C28.1762371,76.3337471 45.6232787,76.3337471 58.5324246,66.9924805 L61.7020912,73.3194805 C61.9111412,73.7341888 62.3354079,73.9964263 62.7997579,73.9978138 L68.9664246,73.9978138 C69.6475329,73.9958096 70.1980621,73.4418888 70.1960579,72.7607805 C70.1954412,72.5693055 70.1502704,72.3806055 70.0640912,72.2094805 L64.6744246,61.4054805 C75.7429746,48.879593 76.9983537,30.4740971 67.7330912,16.5614805 Z M64.5387579,11.0978138 L69.6940912,11.0978138 L65.2664246,15.5254805 L64.7730912,16.0311471 L59.6054246,16.0311471 L64.5387579,11.0978138 Z M57.8664246,9.13681379 L58.3720912,8.64348045 L62.7997579,4.20348045 L62.7997579,9.37114712 L57.8664246,14.3044805 L57.8664246,9.13681379 Z M55.1900912,57.0157388 C44.1244704,67.1209013 26.9623287,66.3423596 16.8571662,55.2767388 C6.75200373,44.211118 7.5305454,27.0489763 18.5961662,16.9438138 C28.9587871,7.48060129 44.8274704,7.48060129 55.1900912,16.9438138 L51.6997579,20.4711471 C42.5374787,12.262543 28.4555871,13.0355346 20.2469829,22.1978138 C12.0383787,31.360093 12.8113704,45.4419846 21.9736496,53.6505888 C31.1359287,61.859193 45.2178204,61.0862013 53.4264246,51.9239221 C61.0054121,43.4644888 61.0054121,30.6572471 53.4264246,22.1978138 L56.9290912,18.6828138 C67.0342537,29.7482805 66.2557121,46.9105763 55.1900912,57.0157388 Z M35.9923329,37.8662346 C35.9946454,37.8687013 35.9971121,37.8710138 35.9994246,37.8733263 C36.4790371,38.3569471 37.2600454,38.3601846 37.7436662,37.880418 C37.7461329,37.8781055 37.7484454,37.8756388 37.7507579,37.8733263 L41.1300912,34.530993 C41.5777912,35.2768513 41.8202954,36.1278513 41.8330912,36.9976596 C41.8761037,39.7560096 39.6749121,42.0268846 36.9165621,42.0698971 C34.1582121,42.1129096 31.8873371,39.911718 31.8443246,37.153368 C31.8013121,34.395018 34.0025037,32.124143 36.7608537,32.0811305 C37.6758329,32.066793 38.5772454,32.3042096 39.3664246,32.7673263 L35.9994246,36.121993 C35.5158037,36.6017596 35.5125662,37.3826138 35.9923329,37.8662346 Z M41.1794246,30.9668138 C37.8466496,28.6012805 33.2273537,29.3853721 30.8618204,32.7181471 C28.4962871,36.0509221 29.2803787,40.670218 32.6131537,43.0357513 C35.9459287,45.4012846 40.5652246,44.617193 42.9307579,41.284418 C44.7514662,38.7192388 44.7514662,35.2833263 42.9307579,32.7181471 L46.4457579,29.2031471 C50.7542537,34.4788846 49.9701621,42.2484221 44.6944246,46.556918 C39.4186871,50.8654138 31.6491496,50.0813221 27.3406537,44.8055846 C23.0321579,39.5298471 23.8162496,31.7603096 29.0919871,27.4518138 C33.6320412,23.7441055 40.1545246,23.7441055 44.6944246,27.4518138 L41.1794246,30.9668138 Z M25.5877787,27.4518138 C20.3081871,33.6918638 21.0867287,43.0302013 27.3267787,48.309793 C33.5668287,53.5893846 42.9051662,52.810843 48.1847579,46.570793 C52.8533871,41.0528596 52.8533871,32.9697471 48.1847579,27.4518138 L51.6997579,23.9614805 C58.9326412,32.1683888 58.1429996,44.6848721 49.9360912,51.9177555 C41.7291829,59.1506388 29.2126996,58.3609971 21.9798162,50.1540888 C14.7469329,41.9471805 15.5365746,29.4306971 23.7434829,22.1978138 C31.2282746,15.6013305 42.4511454,15.6013305 49.9360912,22.1978138 L46.4457579,25.7128138 C40.2057079,20.4332221 30.8673704,21.2117638 25.5877787,27.4518138 Z M10.2350912,71.5311471 L6.83109123,71.5311471 L10.9997579,63.3294805 C11.7397579,64.0694805 12.5290912,64.7724805 13.3430912,65.4508138 L10.2350912,71.5311471 Z M66.9684246,71.5311471 L63.5644246,71.5311471 L60.5180912,65.4508138 C61.3320912,64.7724805 62.1214246,64.0694805 62.8614246,63.3294805 L66.9684246,71.5311471 Z M61.7267579,61.0231471 C48.5342537,74.7211638 26.7353954,75.1309388 13.0373787,61.9384346 C12.7265787,61.639043 12.4214829,61.3339471 12.1220912,61.0231471 L12.0974246,60.9861471 C-1.15350877,47.2688596 -0.775492099,25.406793 12.9417954,12.1560138 C24.4692996,1.02024712 42.1435829,-0.720294547 55.6217579,7.95281379 L55.6217579,8.08848045 C55.6171329,8.12532629 55.6171329,8.16263462 55.6217579,8.19948045 C55.5198537,8.32728462 55.4444662,8.47389712 55.3997579,8.63114712 L55.3997579,13.9221471 C42.6460121,3.69534712 24.0165121,5.74391379 13.7898662,18.4978138 C3.5632204,31.2517138 5.61178707,49.8810596 18.3655329,60.1077055 C31.1192787,70.3343513 49.7487787,68.2857846 59.9754246,55.5320388 C68.6517704,44.7118513 68.6517704,29.3180013 59.9754246,18.4978138 L65.2664246,18.4978138 C65.4101079,18.4936513 65.5520954,18.4645138 65.6857579,18.4114805 L65.7967579,18.4114805 L65.9324246,18.3498138 C74.6012162,31.8270638 72.8597496,49.4973388 61.7267579,61.0231471 Z" id="Shape"></path>
            </g>
        </g>
    </g>
</svg>