<?xml version="1.0" encoding="UTF-8"?>
<svg width="94px" height="94px" viewBox="0 0 94 94" version="1.1" xmlns="http://www.w3.org/2000/svg" xmlns:xlink="http://www.w3.org/1999/xlink">
    <!-- Generator: Sketch 48.2 (47327) - http://www.bohemiancoding.com/sketch -->
    <title>if_1</title>
    <desc>Created with Sketch.</desc>
    <defs>
        <circle id="path-1" cx="47" cy="47" r="47"></circle>
    </defs>
    <g id="Home-omnix" stroke="none" stroke-width="1" fill="none" fill-rule="evenodd" transform="translate(-285.000000, -4304.000000)">
        <g id="if_1" transform="translate(285.000000, 4304.000000)">
            <g id="Oval-4">
                <use fill="#FFFFFF" fill-rule="evenodd" xlink:href="#path-1"></use>
                <circle stroke="#7ED321" stroke-width="2" cx="47" cy="47" r="46"></circle>
            </g>
            <path d="M74.12875,55.18075 C74.017375,54.943875 73.812375,54.764375 73.562875,54.6855 C73.13825,54.55125 63.08725,51.435 56.36325,54.594375 C52.25825,56.52325 50.582,61.97825 51.073375,64.906125 C49.993,65.664125 49.06925,66.369125 48.32375,66.967125 C48.664625,65.30325 48.989625,63.48475 49.272625,61.527625 C49.7925,57.933125 50.101625,54.32425 50.20175,50.73725 C50.2865,50.333375 50.9225,47.650875 53.250625,45.1455 C53.856375,45.655 54.662625,46.114125 55.5595,46.437625 C56.445625,46.75725 57.329875,46.91675 58.174125,46.91675 C59.065625,46.91675 59.912375,46.73875 60.669,46.38325 C65.285,44.21425 68.022375,37.586125 68.13675,37.305 C68.23525,37.062625 68.227875,36.790125 68.11675,36.55325 C68.005375,36.316375 67.800375,36.136875 67.550875,36.058 C67.261625,35.966625 60.4115,33.843125 55.795875,36.011875 C52.663625,37.48375 51.6275,41.61025 52.14725,43.576 C51.3515,44.38275 50.71675,45.212625 50.211875,46.005 C50.193,45.224375 50.1645,44.445375 50.12525,43.66875 C49.917375,39.557 49.4215,35.50125 48.644875,31.535875 C50.4135,30.380375 52.469,27.2215 51.661125,24.140875 C50.36725,19.20775 44.34675,15.311125 44.091125,15.147625 C43.8705,15.00675 43.60075,14.96425 43.348375,15.030625 C43.09525,15.097 42.881375,15.266125 42.7585,15.497125 C42.615875,15.765 39.282875,22.11475 40.57675,27.047875 C41.38375,30.124625 44.71775,31.86775 46.826375,32.0105 C47.536875,35.665875 48.002,39.400625 48.219,43.185625 C47.49275,42.162375 46.720625,41.252625 45.942625,40.449125 C46.54825,38.451625 45.946,34.534 43.157,32.77375 C38.844,30.05175 31.784625,31.31375 31.48625,31.36875 C31.228875,31.41625 31.003125,31.569125 30.8635,31.790375 C30.723875,32.01175 30.683125,32.28125 30.751,32.533875 C30.82975,32.827 32.72825,39.742375 37.041125,42.46425 C38.05425,43.10375 39.2,43.360125 40.323,43.360125 C42.066,43.36 43.752125,42.7415 44.7975,41.978125 C46.08925,43.344875 47.350875,45.027125 48.356375,47.059875 C48.405125,50.880375 48.20525,54.742 47.761125,58.598125 C47.304625,57.93475 46.752875,57.307125 46.107875,56.715875 C46.5685,53.694375 43.866625,47.48475 38.871625,46.005875 C35.625,45.044625 31.547875,45.2445 26.753125,46.59975 C23.228875,47.595875 20.663,48.850875 20.5555,48.903875 C20.32075,49.0195 20.145,49.227875 20.07075,49.47875 C19.996375,49.729625 20.0305,50.000125 20.164375,50.225 C20.22575,50.327875 21.69475,52.7775 24.10875,55.531875 C27.39275,59.279125 30.70425,61.666375 33.950625,62.627625 C34.768875,62.869875 35.5745,62.96925 36.346625,62.969125 C38.592,62.969 40.549125,62.128125 41.674125,61.517125 C43.181125,60.698625 44.48125,59.604625 45.277375,58.5345 C46.240875,59.527875 46.96225,60.689375 47.2995,62.044875 C46.89275,64.690125 46.395375,67.137375 45.882875,69.293375 C45.879625,69.30675 45.87625,69.32 45.8735,69.333375 C44.92225,73.327 43.921,76.3165 43.354125,77.707625 C43.158375,78.187 43.38825,78.73425 43.867625,78.93 C43.983625,78.977375 44.103625,78.999875 44.221625,78.999875 C44.59125,78.999875 44.941625,78.779875 45.089875,78.4165 C45.165,78.232625 46.4015,75.16875 47.64675,70.005875 C48.166875,69.533875 49.650375,68.233125 51.8705,66.656625 C53.258,68.318875 56.489125,69.9715 59.748375,69.9715 C60.938375,69.9715 62.13225,69.751 63.240625,69.23025 C69.964625,66.070875 73.98125,56.344625 74.149,55.932125 C74.247375,55.690125 74.24,55.417625 74.12875,55.18075 Z M56.593125,37.709 C57.8545,37.116375 59.363375,36.91425 60.835625,36.91425 C62.856875,36.91425 64.8085,37.295375 65.95275,37.570125 C65.056,39.39575 62.864625,43.280125 59.871625,44.686375 C58.4955,45.332875 56.978,44.956125 56.195625,44.673875 C55.54975,44.440875 55.022,44.139 54.641125,43.855875 C54.981125,43.583875 55.343875,43.31925 55.735625,43.06725 C56.171,42.787125 56.296875,42.207 56.01675,41.771625 C55.736625,41.336125 55.156375,41.2105 54.721,41.4905 C54.43725,41.673 54.166625,41.860875 53.907,42.052625 C54.057375,40.645625 54.8735,38.517 56.593125,37.709 Z M38.10225,37.094875 C38.143625,37.112 40.671625,38.181 43.432125,40.65025 C42.242375,41.35225 39.776625,41.974 38.041625,40.879 C35.245125,39.114125 33.54975,34.98875 32.885125,33.066625 C34.9065,32.839375 39.359625,32.594625 42.156125,34.3595 C43.721375,35.347375 44.281875,37.47425 44.287125,38.891375 C41.483875,36.4875 38.994375,35.434625 38.818125,35.361875 C38.339625,35.16425 37.791375,35.392 37.59375,35.8705 C37.396,36.349 37.62375,36.89725 38.10225,37.094875 Z M48.214,29.4845 C47.675625,27.061125 47.0335,24.673625 46.28375,22.33175 C46.12575,21.838625 45.597875,21.56675 45.105125,21.72475 C44.612,21.882625 44.34025,22.410375 44.498125,22.9035 C45.248875,25.248875 45.88975,27.6415 46.42375,30.071125 C45.06975,29.7485 42.902875,28.5265 42.390375,26.57225 C41.551375,23.373625 43.128375,19.201625 43.95475,17.34325 C45.587125,18.556875 49.0085,21.417875 49.847375,24.6165 C50.332875,26.467625 49.202625,28.474125 48.214,29.4845 Z M33.829625,53.377 C36.691,53.94625 40.872375,55.100125 43.8585,57.305 C43.3125,58.088 42.226625,59.08375 40.779125,59.869875 C39.52225,60.5525 37.033125,61.585375 34.48275,60.830125 C28.79075,59.145 23.956375,52.55975 22.3455,50.152375 C25.006,49.008875 32.638875,46.1165 38.33925,47.80425 C40.88925,48.55925 42.41525,50.780625 43.097875,52.0375 C43.733375,53.207625 44.095375,54.363 44.228,55.267375 C43.841375,55.014625 43.4335,54.770625 43.00425,54.535375 C40.636875,53.238375 37.673125,52.229875 34.19525,51.538 C33.687375,51.436875 33.19375,51.76675 33.093,52.274625 C32.991875,52.7825 33.32175,53.276 33.829625,53.377 Z M62.443125,67.533625 C61.591,67.934125 60.669625,68.10025 59.747125,68.10025 C57.101375,68.100125 54.45075,66.732125 53.4185,65.59675 C56.68375,63.440625 61.092625,61.02675 66.153375,59.548375 C66.650375,59.403125 66.9355,58.882625 66.790375,58.385625 C66.64525,57.888625 66.124625,57.6035 65.6275,57.748625 C60.565125,59.2275 56.17775,61.56075 52.8535,63.707625 C52.906875,61.446375 54.22975,57.66875 57.16075,56.2915 C59.1075,55.37675 61.428625,55.06575 63.685875,55.06575 C67.106,55.06575 70.379875,55.78025 71.97975,56.19125 C70.8115,58.67075 67.3475,65.22925 62.443125,67.533625 Z M30.1195,50.918 C30.634375,50.97175 31.008375,51.43275 30.95475,51.9475 C30.9045,52.4295 30.4975,52.787875 30.023375,52.787875 C29.990875,52.787875 29.958125,52.78625 29.925,52.78275 C29.30125,52.71775 28.931375,52.6955 28.92775,52.695375 C28.411,52.664875 28.01675,52.22125 28.047,51.7045 C28.077375,51.18775 28.520875,50.793125 29.0375,50.823625 C29.054,50.824625 29.44875,50.848 30.1195,50.918 Z M60.742375,40.03625 C60.875875,40.5365 60.578625,41.050375 60.078375,41.183875 C59.72825,41.277375 59.381125,41.381625 59.0465,41.493875 C58.947625,41.527 58.847,41.54275 58.74825,41.54275 C58.3565,41.54275 57.991125,41.295125 57.859625,40.903 C57.695,40.412 57.9595,39.880625 58.450375,39.716 C58.821875,39.591375 59.206875,39.47575 59.59475,39.37225 C60.095125,39.238625 60.608875,39.536 60.742375,40.03625 Z" id="Shape" fill="#2A2A2A" fill-rule="nonzero"></path>
        </g>
    </g>
</svg>