<?xml version="1.0" encoding="UTF-8"?>
<svg width="94px" height="94px" viewBox="0 0 94 94" version="1.1" xmlns="http://www.w3.org/2000/svg" xmlns:xlink="http://www.w3.org/1999/xlink">
    <!-- Generator: Sketch 48.2 (47327) - http://www.bohemiancoding.com/sketch -->
    <title>if_2</title>
    <desc>Created with Sketch.</desc>
    <defs>
        <circle id="path-1" cx="47" cy="47" r="47"></circle>
    </defs>
    <g id="Home-omnix" stroke="none" stroke-width="1" fill="none" fill-rule="evenodd" transform="translate(-673.000000, -4304.000000)">
        <g id="if_2" transform="translate(673.000000, 4304.000000)">
            <g id="Oval-4">
                <use fill="#FFFFFF" fill-rule="evenodd" xlink:href="#path-1"></use>
                <circle stroke="#7ED321" stroke-width="2" cx="47" cy="47" r="46"></circle>
            </g>
            <path d="M75.4453222,43.7990644 L61.8677755,35.587422 L61.8677755,30.4506237 C61.8677755,30.1371102 61.6989605,29.8356549 61.4336798,29.6788981 L47.4099792,21.2019751 C47.1205821,21.0331601 46.7588358,21.0331601 46.4694387,21.2019751 L32.445738,29.6788981 C32.1804574,29.8477131 32.0116424,30.1371102 32.0116424,30.4506237 L32.0116424,35.587422 L18.4340956,43.7990644 C18.168815,43.9678794 18,44.2572765 18,44.57079 L18,59.5350312 C18,59.8364865 18.1446985,60.1138254 18.397921,60.2826403 L32.4216216,69.7483368 C32.7110187,69.9412682 33.0968815,69.9533264 33.3983368,69.7724532 L46.9517672,61.5849272 L60.5051975,69.7724532 C60.649896,69.8568607 60.8066528,69.9050936 60.9754678,69.9050936 C61.1322245,69.9050936 61.3010395,69.8568607 61.445738,69.7724532 L75.4694387,61.2955301 C75.7347193,61.1267152 75.9035343,60.8373181 75.9035343,60.5238046 L75.9035343,44.57079 C75.8794179,44.2572765 75.7106029,43.9558212 75.4453222,43.7990644 Z M32.0237006,67.3005198 L19.8087318,59.0527027 L19.8087318,46.331289 L32.0237006,53.554158 L32.0237006,67.3005198 Z M32.9401247,51.9986486 L20.5322245,44.6551975 L32.0357588,37.7096674 L32.0357588,45.4269231 C32.0237006,45.7163202 32.1683992,45.993659 32.4216216,46.162474 L37.3654886,49.5025988 L32.9401247,51.9986486 Z M46.0474012,60.0053015 L33.8324324,67.3849272 L33.8324324,53.5662162 L39.0536383,50.6360707 L46.0474012,55.3508316 L46.0474012,60.0053015 Z M46.0474012,53.1803534 L33.8324324,44.9445946 L33.8324324,32.0543659 L46.0474012,39.4339917 L46.0474012,53.1803534 Z M46.9397089,37.8664241 L34.6644491,30.4506237 L46.9397089,23.0348233 L59.2149688,30.4506237 L46.9397089,37.8664241 Z M60.0590437,32.0543659 L60.0590437,45.8971933 L47.8440748,53.2768191 L47.8440748,39.4339917 L60.0590437,32.0543659 Z M60.0469854,67.3969854 L47.8320166,60.0173597 L47.8320166,55.3870062 L47.8440748,55.3870062 L55.0066528,51.0581081 L60.0469854,53.6023909 L60.0469854,67.3969854 Z M60.9272349,52.0107069 L56.839501,49.9487526 L61.4336798,47.1753638 C61.6989605,47.0065489 61.8677755,46.7171518 61.8677755,46.4036383 L61.8677755,37.6976091 L73.2989605,44.6069647 L60.9272349,52.0107069 Z M74.0827443,60.0173597 L61.8677755,67.3969854 L61.8677755,53.554158 L74.0827443,46.2468815 L74.0827443,60.0173597 Z" id="Shape" fill="#2A2A2A" fill-rule="nonzero"></path>
        </g>
    </g>
</svg>