<?xml version="1.0" encoding="UTF-8"?>
<svg width="94px" height="94px" viewBox="0 0 94 94" version="1.1" xmlns="http://www.w3.org/2000/svg" xmlns:xlink="http://www.w3.org/1999/xlink">
    <!-- Generator: Sketch 48.2 (47327) - http://www.bohemiancoding.com/sketch -->
    <title>if_3</title>
    <desc>Created with Sketch.</desc>
    <defs>
        <circle id="path-1" cx="47" cy="47" r="47"></circle>
    </defs>
    <g id="Home-omnix" stroke="none" stroke-width="1" fill="none" fill-rule="evenodd" transform="translate(-1062.000000, -4304.000000)">
        <g id="if_3" transform="translate(1062.000000, 4304.000000)">
            <g id="Oval-4">
                <use fill="#FFFFFF" fill-rule="evenodd" xlink:href="#path-1"></use>
                <circle stroke="#7ED321" stroke-width="2" cx="47" cy="47" r="46"></circle>
            </g>
            <path d="M59.0840102,43.6050204 C57.2309694,42.0916939 54.8204184,41.2918265 52.1118776,41.2918265 C51.4960714,41.2918265 50.8613265,41.333551 50.2162245,41.4146327 C49.7892143,39.4109694 48.9896429,37.5753878 48.1495306,35.6486633 C46.4231429,31.6931224 43.9134592,28.3098878 40.8921327,25.8653061 C37.8690306,23.4192449 34.6127449,22.1263776 31.4754184,22.1263776 C30.0162449,22.1263776 28.6192143,22.4131224 27.3227959,22.9792143 C23.8265204,24.5067449 21.4133061,27.8793265 20.5285102,32.4755306 C19.670051,36.9350204 20.3559898,42.0458265 22.4611531,46.8669286 C24.4455816,51.400102 27.6184184,55.3216122 31.2454898,57.7534694 C28.6641939,64.5817857 29.6481224,71.0683163 33.8765,74.5181327 C35.7816224,76.0722959 38.2285714,76.8940612 40.9522041,76.8940612 C46.5489082,76.8940612 52.8294796,73.454602 57.3422347,67.9188571 C60.6671735,63.8431735 62.7030918,59.1055204 63.0747653,54.5782653 C63.4567959,49.9145918 62.0396429,46.0173469 59.0840102,43.6050204 Z M38.4889796,47.2152245 C37.9876939,46.5011735 37.4482347,45.8409796 36.812898,45.1627347 C36.7995816,45.1485306 36.7856735,45.1346224 36.7714694,45.1207143 C29.9789592,38.6788673 28.9716531,34.6821939 29.3232041,32.4636939 C29.3998469,31.9789796 29.5448469,31.5567041 29.7253571,31.1921327 C29.693398,32.0973469 29.8011122,32.9324286 30.1153776,33.7243061 C30.6770306,35.1408673 31.8003367,36.2801531 33.5000918,38.0053571 C34.6432245,39.1653571 36.0662959,40.608551 37.8009694,42.6151735 C38.7958469,43.7648163 39.5341633,44.7795204 40.1251122,45.8161224 C39.5853571,46.2404694 39.0423469,46.7047653 38.4889796,47.2152245 Z M24.2908163,46.0667653 C20.3311327,36.9983469 22.0501224,27.4623776 28.1217755,24.8097653 C29.1642959,24.3546429 30.2923367,24.1238265 31.4748265,24.1238265 C37.0475612,24.1238265 43.1514694,29.1914286 46.3183878,36.4473469 C47.1410408,38.3338265 47.8681122,40.0001429 48.253102,41.7792041 C46.0198061,42.3248776 43.801898,43.3028878 41.7553265,44.6445816 C41.1188061,43.5576735 40.3381735,42.4941429 39.3122245,41.308398 C37.5349388,39.252949 36.0867143,37.7837143 34.9231633,36.603 C31.6618469,33.2943367 31.1608571,32.7856531 32.1507041,28.5850918 C32.2382959,28.2137143 32.1063163,27.8248776 31.8112857,27.5831122 C31.5162551,27.3413469 31.1090714,27.2892653 30.7619592,27.4481735 C30.6456633,27.5017347 27.9069388,28.7937143 27.3580102,32.1032653 C26.7084694,36.0221122 29.4057653,40.8825714 35.3756224,46.5494082 C36.0130306,47.2320918 36.5433163,47.8934694 37.0380918,48.6276429 C36.5572245,49.1194592 36.0757653,49.6429388 35.6218265,50.2031122 C34.1931327,51.9519898 32.992,53.8585918 32.0409184,55.8776429 C28.8556531,53.6413878 26.0678061,50.1264694 24.2908163,46.0667653 Z M55.793398,66.6564694 C51.6496531,71.7394592 45.9626939,74.8969082 40.9513163,74.8969082 C38.6931633,74.8969082 36.6829898,74.2305 35.1377041,72.9704796 C31.4357653,69.9503367 30.7791224,63.9633163 33.4323265,57.6602551 C34.4375612,55.3662959 35.5854286,53.4463776 36.9445816,51.7895306 C37.6216429,50.9529694 38.2031224,50.2915918 38.7508673,49.736449 C38.8180408,49.6698673 38.8852143,49.602398 38.9544592,49.5346327 C38.9657041,49.5236837 38.976949,49.5121429 38.9881939,49.5011939 C39.0822959,49.4079796 39.1790612,49.3138776 39.277602,49.2174082 C40.2192143,48.3042041 41.1158469,47.5428061 42.0112959,46.8935612 C44.4274694,45.208898 47.1880918,43.9840918 49.5912449,43.5322245 L49.5924286,43.5319286 C50.4576939,43.3712449 51.3055,43.2895714 52.1118776,43.2895714 C54.3863061,43.2895714 56.3071122,43.9163265 57.8207347,45.1526735 C62.9566939,49.3440612 62.0476327,58.9907041 55.793398,66.6564694 Z M48.4410102,49.5799082 C46.4968265,51.2453367 44.7926327,53.796449 43.3781429,57.1595612 C42.7478367,58.646551 42.2477347,60.0388469 41.804449,61.5409286 C39.3388571,68.4597959 35.4552245,68.8006939 35.3037143,68.8113469 C34.8607245,68.8181531 34.4881633,69.1152551 34.3697959,69.5425612 C34.2514286,69.9698673 34.4414082,70.4229184 34.8175204,70.6569898 C34.880551,70.6963469 36.3876633,71.6187245 38.5182755,71.6187245 C41.3188469,71.6187245 45.2835612,70.061602 48.2699694,62.6458878 L48.7200612,61.5273163 C52.1547857,52.9776429 52.8697245,51.1988776 58.4995714,49.7982959 C58.8993571,49.6988673 59.1973469,49.3635918 59.2491327,48.9549286 C59.3009184,48.5459694 59.0961429,48.1473673 58.7345306,47.9508776 C58.6685408,47.9150714 57.094551,47.0758469 54.8396531,47.0758469 C52.5291224,47.0758469 50.3760204,47.9186224 48.4410102,49.5799082 Z M46.8661327,60.7821939 L46.4169286,61.8989898 C44.3827857,66.9506122 41.6514592,69.6209796 38.5182755,69.6209796 C38.5111735,69.6209796 38.5031837,69.6209796 38.4960816,69.6209796 C40.1816327,68.5083265 42.2151837,66.3543367 43.6959592,62.1836633 C43.7021735,62.1662041 43.7077959,62.1490408 43.7131224,62.1315816 C44.1359898,60.694898 44.6141939,59.3626735 45.2184592,57.9366429 C46.5128061,54.8596837 48.0344184,52.5580306 49.7415714,51.0961939 C51.204,49.8400204 52.8004796,49.163551 54.4901735,49.0815816 C50.8441633,50.8816531 49.6104796,53.9518061 46.8661327,60.7821939 Z M64.8786837,29.7486429 C64.0083878,29.1434898 63.2739184,28.6564082 62.626449,28.2264388 C59.4698878,26.1316327 59.4095204,26.0916837 59.5829286,23.1845816 C59.6063061,22.7963367 59.4018265,22.4299898 59.0591531,22.2456327 C58.7170714,22.0612755 58.2989388,22.0923469 57.9870408,22.3255306 C57.8947143,22.3947755 55.7259286,24.0513265 55.9185714,26.7643061 C56.1026327,29.3609898 58.3687755,31.8706735 62.6545612,34.2238163 C65.8179286,36.226 65.9398469,37.5395816 65.7833061,37.8798878 C65.6267653,38.2201939 65.7398061,38.7075714 66.0780408,39.0049694 C66.5009082,39.3769388 67.1397959,39.1289592 67.3345102,38.9842551 C67.4043469,38.9321735 69.0505408,37.6839898 69.0159184,35.537102 C68.9848469,33.5813776 67.5931429,31.6339388 64.8786837,29.7486429 Z M63.6947143,32.5178469 C63.6772551,32.506898 63.6600918,32.4965408 63.6420408,32.4867755 C59.0878571,29.9921837 58.0130816,27.9311122 57.9127653,26.6415 C57.9109898,26.6178265 57.9095102,26.5941531 57.9083265,26.5707755 C58.4093163,27.7751633 59.4935612,28.5439592 61.5220816,29.8903878 C62.1615612,30.3147347 62.8859694,30.795602 63.739102,31.3886224 C65.8433776,32.8504592 66.9767449,34.2827041 67.0181735,35.5317755 C66.4301837,34.6366224 65.4160714,33.6029796 63.6947143,32.5178469 Z M70.025,24.9000204 C67.3555204,21.2605204 63.3552959,19 59.585,19 C57.7630306,19 56.072449,19.5332449 54.6955408,20.5426224 C50.3452449,23.7367653 50.1437245,30.8831939 54.2466327,36.4736837 C56.9167041,40.112 60.9175204,42.3722245 64.6881122,42.3725204 L64.689,42.3725204 C66.5106735,42.3725204 68.2018469,41.8389796 69.5793469,40.829602 C71.7303776,39.2514694 72.9415714,36.6944388 72.990398,33.6299082 C73.037449,30.6680612 71.9842755,27.5674286 70.025,24.9000204 Z M68.3983367,39.2186224 C67.3510816,39.9859388 66.1031939,40.3747755 64.689,40.3747755 L64.6884082,40.3747755 C61.5419082,40.3744796 58.1577857,38.4267449 55.8570204,35.2917857 C52.4057245,30.5893469 52.414602,24.694949 55.8768469,22.1530102 C56.9084184,21.3969388 58.1906327,20.997449 59.585,20.997449 C62.7312041,20.997449 66.1144388,22.9454796 68.4146122,26.0822143 C70.1179184,28.4007347 71.0337857,31.0699184 70.9932449,33.5982449 C70.9544796,36.023 70.032398,38.0192653 68.3983367,39.2186224 Z" id="Shape" fill="#2A2A2A" fill-rule="nonzero"></path>
        </g>
    </g>
</svg>