<?xml version="1.0" encoding="UTF-8"?>
<svg width="24px" height="24px" viewBox="0 0 24 24" version="1.1" xmlns="http://www.w3.org/2000/svg" xmlns:xlink="http://www.w3.org/1999/xlink">
    <!-- Generator: Sketch 48.2 (47327) - http://www.bohemiancoding.com/sketch -->
    <title>play-button</title>
    <desc>Created with Sketch.</desc>
    <defs></defs>
    <g id="Home-omnix" stroke="none" stroke-width="1" fill="none" fill-rule="evenodd" transform="translate(-576.000000, -381.000000)">
        <g id="Group" transform="translate(340.000000, 262.000000)" fill="#19A7E6" fill-rule="nonzero">
            <g id="btn-outline" transform="translate(215.000000, 103.000000)">
                <g id="play-button" transform="translate(21.000000, 16.000000)">
                    <path d="M22.3722342,6.00257813 C20.7713935,3.22795312 18.1866272,1.243125 15.0939951,0.41390625 C12.0014099,-0.41540625 8.77124837,0.010171875 5.99840967,1.61221875 C3.22561781,3.21421875 1.24226172,5.80078125 0.413618815,8.8955625 C-0.415024089,11.9902969 0.0102584961,15.2227969 1.61109915,17.9974219 C3.21189297,20.7720469 5.79675293,22.756875 8.88933818,23.5860938 C9.92202679,23.8630313 10.9699392,24 12.0112,24 C14.0881473,24 16.1380665,23.4548906 17.9849705,22.3878281 C20.7576687,20.785875 22.7411185,18.1993125 23.5697614,15.1045312 C24.3984511,12.0097031 23.9730748,8.77729688 22.3722342,6.00257813 Z M22.3639431,14.7812344 C21.621584,17.5537031 19.8447562,19.8709687 17.3607012,21.3060937 C14.8767399,22.7412656 11.9829071,23.1224531 9.2123637,22.3796719 C6.44177344,21.6367969 4.12616387,19.8587344 2.69198864,17.3729531 C1.25786025,14.8872656 0.876890625,11.991375 1.61929658,9.21885937 C2.36170254,6.44639062 4.13853027,4.12921875 6.62253844,2.694 C8.27724792,1.73798437 10.113425,1.2496875 11.9742413,1.2496875 C12.9068744,1.2496875 13.8460187,1.37240625 14.7708291,1.62042187 C17.5413725,2.36329687 19.8570289,4.14135937 21.2911573,6.62714062 C22.7253326,9.112875 23.106349,12.0087187 22.3639431,14.7812344 Z" id="Shape"></path>
                    <path d="M17.7428887,10.8680625 L10.0360882,6.41540625 C9.62710674,6.17910938 9.13882106,6.17920313 8.72983965,6.41535938 C8.32085824,6.65160938 8.07666855,7.07484375 8.07666855,7.54739063 L8.07666855,16.4527031 C8.07666855,16.92525 8.32081139,17.3484375 8.72983965,17.5847344 C8.93430693,17.7029063 9.15854173,17.7619219 9.38287021,17.7619219 C9.60724554,17.7619219 9.83157402,17.7027656 10.0360413,17.5846875 L17.7429356,13.1320781 C18.1518701,12.8957344 18.3959661,12.4725469 18.3959661,12 C18.3959661,11.5275 18.1518233,11.1043125 17.7428887,10.8680625 Z M17.1186663,12.0503438 L9.41181885,16.5029531 C9.40240352,16.5084375 9.38277653,16.5197344 9.35392158,16.5029531 C9.32497295,16.4862188 9.32497295,16.463625 9.32497295,16.45275 L9.32497295,7.5474375 C9.32497295,7.5365625 9.32497295,7.51396875 9.35392158,7.49723438 C9.36525745,7.49067188 9.37514121,7.48842188 9.38357285,7.48842188 C9.39668874,7.48842188 9.40615091,7.49390625 9.41191253,7.49723438 L17.1187131,11.9498906 C17.1281285,11.9553281 17.1476618,11.966625 17.1476618,12.0000938 C17.1476618,12.0335625 17.1280348,12.0449063 17.1186663,12.0503438 Z" id="Shape"></path>
                </g>
            </g>
        </g>
    </g>
</svg>