<?xml version="1.0" encoding="UTF-8"?>
<svg width="24px" height="19px" viewBox="0 0 24 19" version="1.1" xmlns="http://www.w3.org/2000/svg" xmlns:xlink="http://www.w3.org/1999/xlink">
    <!-- Generator: Sketch 47.1 (45422) - http://www.bohemiancoding.com/sketch -->
    <title>“</title>
    <desc>Created with Sketch.</desc>
    <defs></defs>
    <g id="Page-1" stroke="none" stroke-width="1" fill="none" fill-rule="evenodd">
        <g id="Omnix-Mainsite" transform="translate(-708.000000, -11292.000000)" fill="#19A7E6">
            <g id="Group-66" transform="translate(257.000000, 11182.000000)">
                <path d="M461.757625,124.669516 C461.757625,125.824317 461.297099,126.834754 460.376035,127.700855 C459.45497,128.566956 458.368487,129 457.116555,129 C455.149232,129 453.637993,128.341412 452.582793,127.024217 C451.527592,125.707021 451,123.884627 451,121.55698 C451,119.391727 451.907638,117.208463 453.72294,115.007123 C455.538242,112.805782 457.724621,111.136758 460.28214,110 L461.462528,111.921652 C459.441551,112.91406 457.858774,114.068844 456.71415,115.38604 C455.569526,116.703235 454.9078,118.300086 454.728952,120.176638 L456.231264,120.176638 C457.340119,120.176638 458.243285,120.302943 458.94079,120.555556 C459.638296,120.808168 460.201657,121.160017 460.630891,121.611111 C461.04224,122.044162 461.332863,122.522315 461.502768,123.045584 C461.672674,123.568854 461.757625,124.110159 461.757625,124.669516 Z M474.983333,124.669516 C474.983333,125.824317 474.522808,126.834754 473.601743,127.700855 C472.680678,128.566956 471.594196,129 470.342263,129 C468.37494,129 466.863702,128.341412 465.808501,127.024217 C464.753301,125.707021 464.225708,123.884627 464.225708,121.55698 C464.225708,119.391727 465.133346,117.208463 466.948648,115.007123 C468.763951,112.805782 470.950329,111.136758 473.507849,110 L474.688236,111.921652 C472.667259,112.91406 471.084482,114.068844 469.939858,115.38604 C468.795234,116.703235 468.133508,118.300086 467.954661,120.176638 L469.456972,120.176638 C470.565827,120.176638 471.468994,120.302943 472.166499,120.555556 C472.864004,120.808168 473.427365,121.160017 473.8566,121.611111 C474.267949,122.044162 474.558572,122.522315 474.728477,123.045584 C474.898382,123.568854 474.983333,124.110159 474.983333,124.669516 Z" id="“"></path>
            </g>
        </g>
    </g>
</svg>