<?xml version="1.0" encoding="UTF-8"?>
<svg width="48px" height="48px" viewBox="0 0 48 48" version="1.1" xmlns="http://www.w3.org/2000/svg" xmlns:xlink="http://www.w3.org/1999/xlink">
    <!-- Generator: Sketch 47.1 (45422) - http://www.bohemiancoding.com/sketch -->
    <title>ts-arrow</title>
    <desc>Created with Sketch.</desc>
    <defs></defs>
    <g id="Page-1" stroke="none" stroke-width="1" fill="none" fill-rule="evenodd">
        <g id="Omnix-Mainsite" transform="translate(-1135.000000, -11373.000000)" fill="#19A7E6">
            <path d="M1166.43096,11395.795 L1155.98745,11385.3515 C1155.25104,11384.6151 1154.49791,11384.6151 1153.72803,11385.3515 C1152.95815,11386.0879 1152.97489,11386.8243 1153.77824,11387.5607 L1163.01674,11396.8996 L1153.77824,11406.2385 C1152.97489,11406.9749 1152.95815,11407.7113 1153.72803,11408.4477 C1154.49791,11409.1841 1155.25104,11409.1841 1155.98745,11408.4477 L1166.43096,11398.0042 C1166.76569,11397.7364 1166.93305,11397.3682 1166.93305,11396.8996 C1166.93305,11396.431 1166.76569,11396.0628 1166.43096,11395.795 Z M1175.97071,11380.0293 C1171.2845,11375.3431 1165.62765,11373 1159,11373 C1152.37235,11373 1146.7155,11375.3431 1142.02929,11380.0293 C1137.34307,11384.7155 1135,11390.3724 1135,11397 C1135,11403.6276 1137.34307,11409.2845 1142.02929,11413.9707 C1146.7155,11418.6569 1152.37235,11421 1159,11421 C1165.62765,11421 1171.2845,11418.6569 1175.97071,11413.9707 C1180.65693,11409.2845 1183,11403.6276 1183,11397 C1183,11390.3724 1180.65693,11384.7155 1175.97071,11380.0293 Z M1173.66109,11411.7615 C1169.64433,11415.7783 1164.77409,11417.7866 1159.05021,11417.7866 C1153.32633,11417.7866 1148.42262,11415.7615 1144.33891,11411.7113 C1140.25521,11407.6611 1138.21339,11402.7741 1138.21339,11397.0502 C1138.21339,11391.3263 1140.25521,11386.4226 1144.33891,11382.3389 C1148.42262,11378.2552 1153.32633,11376.2134 1159.05021,11376.2134 C1164.77409,11376.2134 1169.66107,11378.2552 1173.7113,11382.3389 C1177.76153,11386.4226 1179.78661,11391.3263 1179.78661,11397.0502 C1179.78661,11402.7741 1177.74479,11407.6778 1173.66109,11411.7615 Z" id="ts-arrow"></path>
        </g>
    </g>
</svg>