<?xml version="1.0" encoding="UTF-8"?>
<svg width="80px" height="57px" viewBox="0 0 80 57" version="1.1" xmlns="http://www.w3.org/2000/svg" xmlns:xlink="http://www.w3.org/1999/xlink">
    <!-- Generator: Sketch 48.2 (47327) - http://www.bohemiancoding.com/sketch -->
    <title></title>
    <desc>Created with Sketch.</desc>
    <defs></defs>
    <g id="Page-1" stroke="none" stroke-width="1" fill="none" fill-rule="evenodd">
        <path d="M31.7411093,38.7856926 L53.3482779,27.624965 L31.7411093,16.3303087 L31.7411093,38.7856926 Z M40.0000477,0.303503841 C56.8304249,0.303503841 67.9911525,1.10707623 67.9911525,1.10707623 C69.5536543,1.28564787 72.9911584,1.28564787 76.0268763,4.49993742 C76.0268763,4.49993742 78.4822364,6.91065457 79.196523,12.4463755 C80.0447383,18.9195975 80.0000954,25.3928195 80.0000954,25.3928195 L80.0000954,31.4642553 C80.0000954,31.4642553 80.0447383,37.9374773 79.196523,44.4106993 C78.4822364,49.9017773 76.0268763,52.3571373 76.0268763,52.3571373 C72.9911584,55.526784 69.5536543,55.526784 67.9911525,55.7053556 C67.9911525,55.7053556 56.8304249,56.5535709 40.0000477,56.5535709 C19.1964515,56.3749993 12.8125153,55.7499985 12.8125153,55.7499985 C11.0267989,55.4374981 7.00893693,55.526784 3.97321902,52.3571373 C3.97321902,52.3571373 1.51785895,49.9017773 0.803572387,44.4106993 C-0.0446429104,37.9374773 -2.35366739e-14,31.4642553 -2.35366739e-14,31.4642553 L-2.35366739e-14,25.3928195 C-2.35366739e-14,25.3928195 -0.0446429104,18.9195975 0.803572387,12.4463755 C1.51785895,6.91065457 3.97321902,4.49993742 3.97321902,4.49993742 C7.00893693,1.28564787 10.446441,1.28564787 12.0089429,1.10707623 C12.0089429,1.10707623 23.1696705,0.303503841 40.0000477,0.303503841 Z" id="" fill="#FD1B20"></path>
    </g>
</svg>