<?xml version="1.0" encoding="UTF-8"?>
<svg width="254px" height="229px" viewBox="0 0 254 229" version="1.1" xmlns="http://www.w3.org/2000/svg" xmlns:xlink="http://www.w3.org/1999/xlink">
    <!-- Generator: Sketch 48.2 (47327) - http://www.bohemiancoding.com/sketch -->
    <title>Group 5</title>
    <desc>Created with Sketch.</desc>
    <defs></defs>
    <g id="New-AxumGear" stroke="none" stroke-width="1" fill="none" fill-rule="evenodd" transform="translate(-716.000000, -11670.000000)">
        <g id="Group-6" transform="translate(716.000000, 11657.000000)">
            <g id="Group-5" transform="translate(127.000000, 127.500000) scale(-1, 1) translate(-127.000000, -127.500000) translate(0.000000, 13.000000)">
                <polyline id="Path-2" stroke="#FFFFFF" points="250 225 82 3 5 3"></polyline>
                <path d="M251,229 C252.656854,229 254,227.656854 254,226 C254,224.343146 252.656854,223 251,223 C249.343146,223 248,224.343146 248,226 C248,227.656854 249.343146,229 251,229 Z" id="Oval-2" fill="#FFFFFF"></path>
                <path d="M3,6 C4.65685425,6 6,4.65685425 6,3 C6,1.34314575 4.65685425,0 3,0 C1.34314575,0 0,1.34314575 0,3 C0,4.65685425 1.34314575,6 3,6 Z" id="Oval-2" fill="#FFFFFF"></path>
            </g>
        </g>
    </g>
</svg>