<?xml version="1.0" encoding="UTF-8"?>
<svg width="504px" height="224px" viewBox="0 0 504 224" version="1.1" xmlns="http://www.w3.org/2000/svg" xmlns:xlink="http://www.w3.org/1999/xlink">
    <!-- Generator: Sketch 48.2 (47327) - http://www.bohemiancoding.com/sketch -->
    <title>axum_runner</title>
    <desc>Created with Sketch.</desc>
    <defs></defs>
    <g id="New-AxumGear" stroke="none" stroke-width="1" fill="none" fill-rule="evenodd" transform="translate(-52.000000, -3942.000000)">
        <g id="axum_runner" transform="translate(52.000000, 3942.000000)" fill="#F1F2F2">
            <path d="M365.70985,27.9536975 C364.581885,27.9043959 361.342672,29.5278275 360.999225,29.4792302 C360.655076,29.4299286 355.600302,29.2327222 352.336507,29.7003832 C349.073414,30.1680442 347.429225,30.537102 346.717048,30.413848 C346.005573,30.2905939 342.815524,31.6689262 340.754845,32.3098471 C338.692761,32.9493595 335.944487,32.2598412 334.128926,33.0972643 C332.312663,33.9332788 331.773262,35.1637062 331.379949,35.5088175 C330.987339,35.8525202 324.362122,41.5123453 321.564684,47.6151807 C318.767245,53.7180161 314.890303,62.3803095 314.497693,63.0684191 C314.10438,63.7579374 310.76754,66.0215858 309.834827,68.1380336 C308.902113,70.2544814 308.313549,70.8200413 308.141474,71.9525698 C307.970102,73.084394 307.602776,73.5513507 307.479866,74.1669165 C307.356955,74.7817781 306.056213,76.800327 305.860259,77.3905377 C305.664305,77.9814527 305.442364,78.0053992 304.976709,79.2611818 C304.510353,80.51626 304.142324,81.6973857 304.068578,82.3368981 C303.994832,82.9764104 304.657845,83.3208174 304.657845,83.3208174 C304.657845,83.3208174 304.154264,85.2034347 304.142324,86.114106 C304.129682,87.0247772 304.853799,87.2212793 304.853799,87.2212793 C304.853799,87.2212793 304.534935,87.9974276 304.940187,88.5629875 C305.344738,89.1285474 306.400362,88.9320453 306.706584,88.5629875 C307.013509,88.1932254 307.479866,87.5910414 307.479866,87.5910414 C307.479866,87.5910414 307.246687,88.4024051 308.043848,88.6122891 C308.841712,88.8214688 311.540822,84.9456577 312.988354,83.3715277 C314.436589,81.795989 315.295556,81.0578734 315.295556,81.1811274 C315.295556,81.3043815 315.982449,82.6820094 317.038073,82.9531683 C318.092994,83.2236228 319.124036,82.7806126 318.92738,82.26365 C318.731426,81.7466874 317.701086,81.451582 317.62734,79.8528011 C317.553594,78.2526116 319.442901,75.7178044 319.639557,73.7492614 C319.836214,71.7814228 319.369857,69.614969 319.639557,68.4091924 C319.909258,67.2041202 321.726223,66.4413538 324.131051,62.2091625 C326.535879,57.9762668 328.204649,56.204226 330.314493,54.5807943 C332.425038,52.955954 341.063174,45.7459453 341.651739,44.9338773 C342.241006,44.1218093 342.461542,44.0978628 342.461542,44.0978628 C342.461542,44.0978628 343.958941,44.7373751 346.437515,45.1310837 C348.916089,45.524088 349.357161,45.3282902 349.357161,45.3282902 C349.357161,45.3282902 345.652294,53.5468691 342.806393,62.8979764 C339.959791,72.2490838 337.653291,82.6341164 336.573788,85.2914733 C335.493582,87.9488303 333.333872,89.5729663 333.333872,89.5729663 C333.333872,89.5729663 332.499487,89.7701727 332.106876,90.0159765 C331.714968,90.2624845 323.17516,96.7576199 321.359599,100.794013 C319.544038,104.828998 319.44571,113.983603 317.187672,116.93677 C314.930337,119.889232 310.709246,121.759172 306.684811,129.437546 C302.660377,137.114512 300.599698,142.627136 295.593386,145.581007 C290.587776,148.533469 283.324128,151.781037 279.49635,157.68737 C275.66787,163.592999 270.957245,170.483252 268.159104,173.437123 C265.361666,176.388881 261.435559,179.096244 261.215023,179.366698 C260.993082,179.637153 260.895456,179.859714 260.895456,179.859714 C260.895456,179.859714 260.183981,180.228068 259.865117,180.080163 C259.546252,179.932962 254.368568,180.030861 253.853047,180.129465 C253.338229,180.228068 251.423637,179.73646 249.926239,180.449925 C248.430245,181.162686 247.154085,184.165858 247.006592,186.379501 C246.859802,188.594552 249.216168,194.254377 248.921184,201.046026 C248.626901,207.837675 249.853897,210.249229 251.227683,211.676158 C252.602172,213.103792 256.283159,216.548566 259.080598,216.893677 C261.878036,217.238084 264.478818,216.745773 265.019624,215.416742 C265.558322,214.087711 265.362368,213.841908 264.527983,212.90729 C263.693597,211.971968 262.515765,208.970204 262.368975,207.936279 C262.221483,206.903058 262.565632,201.932046 263.105032,201.046026 C263.645838,200.16071 264.872834,199.175382 265.461398,197.994961 C266.049963,196.81313 266.590066,196.37012 266.24662,195.632005 C265.902471,194.893889 265.854009,194.697387 265.854009,194.697387 C265.854009,194.697387 266.63923,192.04003 267.031841,191.350512 C267.424452,190.661698 268.602283,190.070783 269.681787,188.594552 C270.761291,187.117616 272.824077,181.605696 276.946839,178.849736 C281.0689,176.093775 285.584273,172.747605 290.688914,168.121 C295.792149,163.494396 302.56556,162.510477 307.17856,158.277581 C311.791559,154.04539 310.614429,154.439098 314.048894,151.781037 C317.484764,149.12368 327.644881,142.036926 333.436414,135.835487 C339.227245,129.634048 347.668725,122.941002 348.160366,122.743796 C348.650603,122.547294 352.822529,124.76164 359.055838,124.712339 C365.288443,124.663037 370.294756,124.958142 374.515144,125.008148 C378.736235,125.056746 379.668949,125.696962 379.668949,125.696962 C379.668949,125.696962 371.768275,132.440014 369.558698,136.327799 C367.350527,140.215583 367.154573,140.707895 365.927577,142.086227 C364.700581,143.463855 359.05654,149.738542 357.413054,151.116874 C355.768865,152.495206 355.056688,152.913566 355.056688,153.158665 C355.056688,153.405173 354.984346,153.601675 354.984346,153.601675 C354.984346,153.601675 352.823934,155.177918 352.677144,155.202569 C352.529652,155.226516 352.137041,155.079315 351.842759,155.34977 C351.548476,155.620224 350.983791,155.940685 350.763255,155.964631 C350.542017,155.989282 350.173988,155.570923 349.511677,155.842081 C348.848664,156.112536 345.242124,159.336157 344.456903,159.927072 C343.671682,160.517283 341.904583,161.1575 340.874243,162.633731 C339.843202,164.109962 340.284976,166.225705 341.0709,167.308932 C341.855419,168.391455 349.904288,173.411768 353.094337,176.217734 C356.284386,179.022291 359.89233,183.451689 363.524154,184.952571 C367.155978,186.454157 370.885427,186.725316 372.333662,185.986496 C373.781194,185.248381 374.763072,184.042604 374.394341,183.328435 C374.027015,182.615675 373.904104,182.787526 373.756612,182.221262 C373.60912,181.655702 372.971391,180.818983 372.775437,180.695729 C372.57878,180.572475 369.585388,176.53749 367.425678,174.815455 C365.266671,173.092012 364.383121,170.828363 364.333957,170.040946 C364.284793,169.253529 363.745392,166.694071 364.088839,165.21784 C364.432988,163.741608 364.72727,162.954191 364.187869,162.461879 C363.647064,161.969568 363.30432,161.673758 363.30432,161.673758 L363.844423,160.788442 C363.844423,160.788442 364.383824,161.132849 364.72727,160.493336 C365.070717,159.85312 369.880372,153.159369 376.358799,148.927882 C382.837928,144.694987 386.469751,142.135529 389.904919,139.084463 C393.340086,136.032693 396.530837,133.868353 399.180784,130.620081 C401.83073,127.371104 402.910936,123.188215 402.910936,122.104988 C402.910936,121.022465 399.524932,114.477324 391.721884,109.85072 C383.918133,105.224115 376.801978,101.828643 370.716865,100.253104 C364.631049,98.6789742 361.784446,97.3013462 361.784446,97.3013462 C361.784446,97.3013462 364.090946,92.8712442 365.464732,89.3278668 C366.83922,85.7837852 369.342376,83.1757298 369.342376,83.1757298 C369.342376,83.1757298 371.796368,86.8177104 374.053704,89.5736706 C376.311742,92.3296307 376.655188,92.7726409 377.97981,92.2317318 C379.305134,91.6901184 398.691952,81.5522981 403.304951,76.9249896 C407.918653,72.299794 408.998156,71.6602817 410.568599,71.2172715 C412.139041,70.7742612 416.016686,68.8543156 418.028903,66.3448635 C420.040418,63.8340028 420.532059,63.1451888 421.022295,62.6535813 C421.513234,62.1612695 423.918765,60.3892286 425.267968,58.7897434 C426.617875,57.1902583 427.035067,56.6246983 426.617875,55.9844817 C426.200682,55.3449693 425.980146,55.2224196 425.121178,55.8126303 C424.262211,56.4035454 421.857383,58.6178921 421.145908,59.2574045 C420.433731,59.8969168 419.943494,59.9469227 420.16403,59.5032082 C420.385269,59.0609023 424.826896,55.0252131 425.857236,53.7701349 C426.887575,52.5150567 427.280888,51.801592 426.789949,51.2846293 C426.299713,50.768371 426.103056,50.7190694 425.341715,51.2846293 C424.581075,51.8508936 420.482895,55.1977688 420.482895,55.1977688 C420.482895,55.1977688 424.164585,51.0634764 424.679404,50.0302554 C425.194925,48.9963302 424.605658,47.9138076 423.795854,47.9631092 C422.986753,48.0117065 420.263061,51.0141748 419.183557,52.3432054 C418.103351,53.672236 416.729565,55.4435725 416.238626,55.1977688 C415.747688,54.951965 415.89518,54.4096473 416.04197,54.1645478 C416.189462,53.9180398 418.790947,48.799828 419.625332,46.9791899 C420.459717,45.1578475 420.214599,44.3211287 419.527004,44.1732238 C418.839408,44.025319 418.398336,45.3057523 417.122176,46.7326818 C415.846718,48.1596114 413.637142,52.5897135 413.637142,52.2446022 C413.637142,51.9001952 413.932127,49.9802495 412.950951,49.7351501 C411.969074,49.488642 411.723956,50.3253608 411.723956,51.1613753 C411.723956,51.9987984 411.772417,52.5897135 411.085524,53.8687382 C410.398631,55.1484672 408.631532,56.329593 407.698819,58.3967392 C406.766105,60.4638854 406.275869,64.1058659 405.686601,64.6474794 C405.097334,65.1883885 395.674679,70.8982196 393.319718,72.0293394 C390.963352,73.1618679 388.510062,72.5709529 385.95704,72.6202545 C383.40472,72.6695561 382.080098,73.3583701 382.080098,73.3583701 C382.080098,73.3583701 383.454586,68.1908567 382.423544,64.4995745 C381.393205,60.8082923 378.987675,58.0030306 378.987675,57.7079252 C378.987675,57.4128198 380.06788,53.7701349 378.988377,49.4393404 C377.908873,45.1085459 377.12295,42.9427964 377.22198,41.8602739 C377.319606,40.7777513 378.448976,38.3168965 380.657148,36.1518514 C382.866021,33.986102 383.50375,33.7895998 384.730746,34.23261 C385.957742,34.6749159 389.049463,35.2165294 390.227295,34.6263186 C391.405127,34.0354036 391.209173,32.361966 391.846901,31.6238504 C392.485333,30.8857348 393.294434,30.9596872 393.515672,30.2948198 C393.736208,29.6306566 393.319718,29.4087994 393.49109,29.2122972 C393.663165,29.0150908 393.834537,29.0397416 393.883701,28.5727849 C393.932865,28.1051239 393.638583,27.3670083 393.76079,26.9725954 C393.883701,26.5788868 394.472266,26.6528392 394.815712,26.3084322 C395.159861,25.9640252 395.79759,26.1605274 396.386857,25.5456658 C396.976124,24.9301 396.362275,23.8722282 395.527889,22.3220447 C394.693504,20.7718611 394.49755,19.1230743 394.595176,18.7533122 C394.693504,18.3842544 395.479428,18.089149 395.577054,16.6622195 C395.675382,15.2345856 394.694206,14.2506663 394.252432,12.3307206 C393.810657,10.4121836 394.104939,9.03385135 393.073897,6.96670515 C388.840867,-1.52373691 377.270442,-1.87659559 371.186031,3.86633801 C367.848489,7.01530246 368.38789,12.4779212 368.38789,15.4317921 C368.38789,18.3842544 369.27144,20.7472103 368.289562,23.1094618 C367.307684,25.4717134 365.70985,27.9536975 365.70985,27.9536975" id="Fill-375" opacity="0.150000006"></path>
            <path d="M462.145675,22.6754413 C461.977064,23.2952785 460.457443,26.7862748 458.881383,28.1946747 C458.881383,28.1946747 458.49407,27.9165245 457.762479,27.8882859 C457.030888,27.8600473 454.413529,30.056304 453.118958,30.6761412 C451.824388,31.2952724 450.361206,30.900638 448.109289,32.6471951 C445.858783,34.3937522 443.213204,37.8847484 441.468532,39.1801939 C439.723861,40.4749335 439.273759,39.2359652 434.714897,40.4191623 C430.156035,41.6023594 423.401694,46.6704812 419.743739,49.7117778 C416.085785,52.7523685 415.241316,52.8095517 414.115357,53.3722057 C412.990104,53.9355656 412.540003,54.1614744 411.639095,55.9623907 C410.738893,57.764719 409.837985,60.5808129 407.812529,67.5649233 C405.785663,74.5483278 406.74301,89.0213135 406.74301,90.880119 C406.74301,92.7389245 406.236469,93.0206045 404.829726,95.9489467 C403.422984,98.877289 403.816646,102.143788 403.928819,102.650671 C404.042402,103.157554 403.422984,104.340751 402.972177,105.748445 C402.522076,107.156139 403.479423,107.550773 404.154575,107.719499 C404.829726,107.888225 405.561317,105.973648 405.674195,105.635491 C405.786368,105.298039 406.124297,105.410288 406.068563,106.255328 C406.012124,107.099662 405.167655,108.451585 405.054777,109.802801 C404.942605,111.154724 407.136672,111.943287 407.024499,112.055535 C406.911621,112.16849 405.111216,118.363331 400.495915,124.558173 C395.881319,130.753721 395.317634,145.847249 395.317634,145.847249 C395.317634,145.847249 394.417431,146.972557 392.39127,147.987029 C390.365109,149.000089 380.572233,144.832778 376.182687,144.269418 C371.793142,143.706764 371.680264,144.269418 367.96587,145.170935 C364.250771,146.071746 348.605873,145.170935 347.254864,144.044215 C345.903854,142.917495 342.977491,139.651702 341.17638,137.850079 C339.375975,136.047045 338.475067,135.145528 335.660876,135.484391 C332.847391,135.821842 332.172239,136.385202 329.695977,141.341076 C327.219009,146.296949 321.929261,151.253528 318.439918,156.434605 C314.94987,161.616387 314.781964,166.966188 315.119892,169.274694 C315.457116,171.583905 316.300879,172.485422 319.002898,172.090081 C321.70421,171.696153 327.275448,164.824997 331.32777,161.672158 C335.380092,158.517907 339.882516,158.17975 339.882516,158.17975 C339.882516,158.17975 342.471656,157.278939 343.934838,156.490376 C345.39802,155.701813 344.947918,156.03997 345.62307,156.378127 C346.298222,156.715579 350.238372,155.927016 357.779331,156.715579 C365.320996,157.504141 375.451802,159.418718 382.767711,161.446249 C390.084325,163.47378 397.063011,164.937951 399.539273,164.599794 C402.015535,164.263049 408.54412,155.47661 417.323916,145.677112 C426.103007,135.87832 429.705933,124.839853 429.705933,124.839853 C429.705933,124.839853 435.670833,131.146943 446.139567,138.35555 C456.60689,145.564158 459.308203,147.592395 460.771385,150.408488 C462.234567,153.223876 461.784466,158.292704 462.009516,163.811937 C462.234567,169.330465 463.473403,175.187855 465.611737,180.144435 C467.750071,185.099602 467.918682,198.869447 467.918682,199.319852 C467.918682,199.770258 467.834024,199.798496 467.52502,200.192425 C467.215311,200.587059 467.440362,202.952041 467.440362,202.952041 C467.440362,202.952041 467.384628,203.290905 466.709476,204.135239 C466.034324,204.979573 465.921446,207.28949 465.808568,207.965098 C465.69569,208.640706 465.583518,210.387263 465.302028,211.006395 C465.020538,211.62482 463.951724,213.3149 464.120336,215.511156 C464.288947,217.708119 465.639957,217.201236 469.522962,217.820368 C473.406672,218.440205 484.549853,217.257008 488.264246,217.257008 C491.97864,217.257008 500.307629,213.821783 501.771516,213.089697 C503.234698,212.357611 503.741238,210.161355 503.965584,209.259838 C504.19134,208.359026 503.234698,208.415504 503.178259,207.964392 C503.12182,207.513986 500.420507,205.937567 499.013764,206.218541 C497.606316,206.500221 495.355105,206.894149 491.69715,206.613175 C488.03849,206.330789 486.519575,203.402447 485.505789,202.726839 C484.493414,202.05123 484.380536,201.713073 483.14311,200.92451 C481.904273,200.136654 481.116949,202.501636 480.778315,202.05123 C480.441092,201.600119 479.878112,199.460339 479.878112,199.460339 C479.878112,199.460339 479.934551,198.897685 480.103163,198.446574 C480.271774,197.996168 479.76594,196.925925 478.977204,195.18078 C478.189174,193.434223 477.514728,176.370346 476.951749,164.318114 C476.388769,152.265882 478.189174,148.097865 478.302052,146.971145 C478.41493,145.845838 478.077002,141.90373 475.600739,139.425087 C473.124477,136.94715 469.747307,128.612529 463.3316,121.065059 C456.915894,113.519 446.166376,104.282156 446.166376,104.282156 C446.166376,104.282156 445.659835,102.761508 447.291629,99.720211 C448.924128,96.6789144 450.218698,94.8208149 452.18842,91.2726355 C454.158142,87.725162 455.789935,83.5006682 455.789935,83.5006682 C455.789935,83.5006682 456.521526,83.2754655 459.785818,82.5433799 C463.050111,81.8112943 477.767293,76.4614926 477.767293,76.4614926 C477.767293,76.4614926 479.146521,75.9539038 480.693656,76.0386196 C482.240791,76.1233354 490.542266,75.5599754 491.611786,74.8271839 C492.6806,74.0958043 492.032962,73.8981341 492.061887,73.6446927 C492.090107,73.3912514 492.511988,72.9408458 492.821698,72.29277 C493.131407,71.6454002 492.878137,70.3781933 492.878137,70.3781933 C492.878137,70.3781933 493.243579,69.5049148 493.355752,68.8293064 C493.467925,68.153698 492.96209,67.4780896 492.906356,67.1674651 C492.849212,66.8582525 493.467925,66.2108827 493.525069,65.6475227 C493.581508,65.0841628 493.328238,64.4085544 492.089401,63.9863874 C490.85127,63.5635145 490.006801,62.8314289 488.431447,62.8879061 C486.854681,62.9436773 486.17953,63.1124029 484.997837,64.4078484 C483.816145,65.703294 480.522928,68.0689822 480.016388,68.6605808 C479.509848,69.2521794 478.046666,69.1667576 474.866327,69.7865948 C471.686693,70.4057259 463.836024,70.1522846 463.836024,70.1522846 C463.836024,70.1522846 465.07345,67.1674651 466.199408,65.2528884 C467.325367,63.3376057 468.844988,62.0428661 469.407262,58.1565296 C469.970241,54.2708989 467.549712,46.9775759 467.493273,46.7806117 C467.436834,46.5829415 467.40932,45.4004504 467.887641,43.8233249 C468.365256,42.2469053 473.374925,38.2200817 474.134736,38.0231175 C474.894546,37.8261533 478.04596,38.4170459 479.537362,38.7269645 C481.029468,39.0368831 481.591742,38.3605687 481.95789,37.3750418 C482.324039,36.3895148 483.336414,35.2910335 483.336414,35.2910335 C483.336414,35.2910335 483.814734,35.2635009 484.039785,35.0100595 C484.265541,34.7559121 484.235911,34.3062125 484.180177,34.0527711 C484.123738,33.7993297 483.730076,33.4604666 483.730076,33.4604666 C483.730076,33.4604666 484.602764,33.3764568 485.334355,32.9825284 C486.065241,32.5886 485.446528,31.2924485 485.502967,31.0114745 C485.559406,30.7297945 485.953068,30.5045917 486.796831,30.3916373 C487.642006,30.2793889 488.260719,29.6595518 487.867057,28.1389034 C487.472689,26.6182551 487.359811,23.8021613 487.6413,23.1823241 C487.922085,22.5631929 488.99231,21.8311074 488.935871,20.873113 C488.879432,19.9158247 490.623398,15.3545857 488.372891,11.3002295 C484.114567,3.62921522 473.910391,-0.0714526083 466.648804,6.11844734 C463.609563,8.70863243 462.483604,11.1300919 462.596482,15.0729057 C462.70936,19.0150135 462.314992,22.0563102 462.145675,22.6754413 M424.938246,81.7992929 C424.037338,84.8412955 421.89971,84.5024324 418.747591,89.0086061 C415.596176,93.5140739 415.146075,95.0904935 414.921025,95.6538534 C414.695974,96.2172134 415.13126,90.1197948 415.469189,87.9793094 C415.806412,85.8402358 417.663256,77.1949901 418.817434,75.026266 C419.970907,72.8582479 425.23314,61.9037911 425.23314,61.9037911 C425.23314,61.9037911 427.09069,62.1296998 428.835361,61.7915426 C428.835361,61.7915426 429.328497,63.3277222 428.93413,66.3125416 C428.540467,69.2966551 425.839154,78.7579963 424.938246,81.7992929" id="Fill-377" opacity="0.300000012"></path>
            <path d="M256.093375,35.793955 C255.008826,35.7467347 251.895415,37.3035952 251.56561,37.2563749 C251.235101,37.2091546 246.376827,37.0202734 243.24016,37.4685138 C240.103494,37.9167543 238.523533,38.2705542 237.839259,38.1528559 C237.154985,38.0344527 234.089494,39.3559164 232.107849,39.9690756 C230.126907,40.5822348 227.485652,39.9211505 225.740085,40.7238957 C223.995221,41.525936 223.476554,42.7050341 223.09883,43.0348714 C222.721809,43.3654135 216.353341,48.7901102 213.66487,54.6397896 C210.9764,60.489469 207.249891,68.7924898 206.872166,69.4528693 C206.495146,70.1132488 203.287303,72.2825636 202.391616,74.3109223 C201.495225,76.3399858 200.929342,76.8833717 200.763735,77.9680291 C200.598833,79.0526865 200.245068,79.500927 200.127382,80.0908284 C200.009695,80.680025 198.760243,82.6146479 198.571381,83.1805868 C198.382518,83.7465256 198.1704,83.7697834 197.7215,84.972844 C197.274009,86.1759045 196.920244,87.3084871 196.849068,87.9216462 C196.778597,88.5348054 197.415656,88.8653475 197.415656,88.8653475 C197.415656,88.8653475 196.932224,90.669586 196.920244,91.5428092 C196.908264,92.4153276 197.604518,92.6035041 197.604518,92.6035041 C197.604518,92.6035041 197.297264,93.3470477 197.686264,93.8897288 C198.075969,94.4317051 199.090048,94.2435286 199.384617,93.8897288 C199.67989,93.5359289 200.127382,92.957304 200.127382,92.957304 C200.127382,92.957304 199.903988,93.7360866 200.670713,93.9362443 C201.436734,94.1371068 204.031478,90.4229127 205.422576,88.9125678 C206.814379,87.4036324 207.639595,86.6960327 207.639595,86.813731 C207.639595,86.9321342 208.300614,88.2528931 209.314692,88.5122524 C210.328066,88.7716117 211.318889,88.3466289 211.130027,87.8511682 C210.941869,87.3557074 209.951046,87.0730903 209.880575,85.5401924 C209.809399,84.0065897 211.625438,81.5772108 211.8143,79.690513 C212.003868,77.8031104 211.554967,75.7275314 211.8143,74.5716912 C212.074339,73.4165557 213.819906,72.6856981 216.131357,68.6282759 C218.442807,64.5715585 220.046728,62.8730371 222.074885,61.3161767 C224.103042,59.7593162 232.405236,52.8482372 232.971119,52.0701593 C233.537001,51.2913767 233.749119,51.268119 233.749119,51.268119 C233.749119,51.268119 235.188138,51.8812781 237.57006,52.2583358 C239.951981,52.6353934 240.376217,52.4479218 240.376217,52.4479218 C240.376217,52.4479218 236.816019,60.3259599 234.080333,69.2886554 C231.343942,78.2520557 229.127628,88.2063776 228.089589,90.7534549 C227.052255,93.3005321 224.976883,94.8580974 224.976883,94.8580974 C224.976883,94.8580974 224.174923,95.0462738 223.797198,95.2823753 C223.420178,95.5184768 215.212414,101.744509 213.467551,105.61305 C211.722688,109.481591 211.628257,118.25611 209.458453,121.086509 C207.28865,123.916908 203.231631,125.709166 199.36418,133.068485 C195.496024,140.427805 193.515083,145.711545 188.704024,148.542649 C183.892261,151.373048 176.911399,154.486064 173.232105,160.146862 C169.553517,165.808365 165.025047,172.412865 162.336576,175.242559 C159.647401,178.072958 155.874381,180.667961 155.661559,180.92732 C155.449441,181.186679 155.35501,181.399523 155.35501,181.399523 C155.35501,181.399523 154.67144,181.753323 154.364891,181.610957 C154.057637,181.470001 149.081677,181.563737 148.586265,181.658177 C148.091558,181.752618 146.251559,181.28112 144.81254,181.964757 C143.374226,182.648394 142.14803,185.526718 142.006383,187.649518 C141.864736,189.773022 144.130381,195.197014 143.847087,201.707073 C143.563793,208.217131 144.742774,210.528812 146.063402,211.896791 C147.384734,213.265475 150.92238,216.567373 153.610851,216.897915 C156.299322,217.228457 158.799634,216.756254 159.318301,215.48201 C159.836968,214.208472 159.648811,213.97237 158.84685,213.076594 C158.044889,212.180113 156.91242,209.302494 156.771478,208.311572 C156.629831,207.321355 156.96034,202.556333 157.479007,201.707073 C157.998379,200.858517 159.177359,199.914111 159.743242,198.782233 C160.309829,197.650355 160.827791,197.226077 160.497987,196.518477 C160.167477,195.810878 160.120967,195.621996 160.120967,195.621996 C160.120967,195.621996 160.875712,193.074214 161.252732,192.413835 C161.630456,191.753455 162.762926,191.186812 163.80026,189.772317 C164.837594,188.357117 166.819945,183.074082 170.781827,180.431859 C174.744414,177.790341 179.084021,174.58218 183.989511,170.1477 C188.895001,165.71322 195.404412,164.770223 199.83845,160.712801 C204.272489,156.656084 203.140019,157.033142 206.441588,154.486064 C209.743861,151.938987 219.50833,145.144902 225.074838,139.201486 C230.640641,133.257366 238.753973,126.841748 239.226129,126.652867 C239.697581,126.463986 243.707383,128.586785 249.698127,128.539565 C255.688871,128.492344 260.49993,128.775666 264.556948,128.822886 C268.613262,128.869402 269.509653,129.483971 269.509653,129.483971 C269.509653,129.483971 261.915693,135.946104 259.793105,139.672985 C257.669812,143.399865 257.481655,143.872068 256.302674,145.192827 C255.122989,146.513586 249.698832,152.528184 248.119576,153.848943 C246.53891,155.169701 245.854636,155.570722 245.854636,155.806118 C245.854636,156.04222 245.784165,156.231806 245.784165,156.231806 C245.784165,156.231806 243.708793,157.741446 243.567146,157.764704 C243.425499,157.787962 243.048479,157.647005 242.765185,157.906365 C242.482597,158.165724 241.939969,158.472304 241.727852,158.496266 C241.515029,158.519524 241.161264,158.117799 240.524911,158.378568 C239.887852,158.637927 236.421382,161.727685 235.666637,162.292919 C234.911892,162.859563 233.214244,163.472722 232.223421,164.887922 C231.232598,166.303826 231.657539,168.332185 232.412284,169.368917 C233.167028,170.407059 240.901931,175.219301 243.968126,177.908744 C247.035026,180.597483 250.501497,184.842376 253.992633,186.281538 C257.483064,187.719996 261.067926,187.980765 262.459025,187.273165 C263.850828,186.56486 264.794436,185.40902 264.439966,184.724678 C264.086906,184.041041 263.96922,184.205959 263.827573,183.663983 C263.685221,183.121302 263.072123,182.318557 262.883965,182.200859 C262.695103,182.08316 259.81777,178.215324 257.743102,176.564023 C255.66773,174.913427 254.817849,172.742702 254.770633,171.987882 C254.724123,171.233767 254.205456,168.780425 254.535965,167.365226 C254.866474,165.950026 255.148358,165.194501 254.630396,164.723708 C254.111024,164.251505 253.78122,163.968183 253.78122,163.968183 L254.299887,163.118922 C254.299887,163.118922 254.818554,163.449465 255.148358,162.836305 C255.478868,162.223146 260.101768,155.807528 266.327886,151.750106 C272.554708,147.693388 276.045139,145.240752 279.347412,142.315912 C282.648981,139.390367 285.715176,137.315493 288.262,134.201772 C290.809528,131.088051 291.847567,127.07785 291.847567,126.040412 C291.847567,125.002975 288.593214,118.728313 281.093685,114.294538 C273.593451,109.860058 266.754235,106.605381 260.905138,105.095036 C255.056041,103.585396 252.320355,102.264637 252.320355,102.264637 C252.320355,102.264637 254.537374,98.0190386 255.858002,94.6227006 C257.178629,91.2256579 259.584511,88.7258009 259.584511,88.7258009 C259.584511,88.7258009 261.943177,92.2172843 264.112981,94.8588022 C266.282784,97.5010248 266.612589,97.924598 267.886001,97.4058794 C269.160117,96.8871609 287.791958,87.1696453 292.225996,82.7351654 C296.660035,78.3006856 297.698073,77.6868216 299.207563,77.2625437 C300.717053,76.8382657 304.442858,74.9987882 306.377288,72.5926671 C308.311718,70.1865459 308.783874,69.5261665 309.254621,69.0539634 C309.726072,68.5824652 312.038227,66.8839438 313.335599,65.3510459 C314.632267,63.818148 315.033952,63.2754669 314.632267,62.6623077 C314.231286,62.0491486 314.019168,61.9314502 313.193248,62.4973891 C312.368032,63.0633279 310.057286,65.1861272 309.373012,65.7992864 C308.689443,66.4124456 308.217287,66.4603707 308.43011,66.0353879 C308.641523,65.61111 312.911364,61.742569 313.901482,60.5395084 C314.892305,59.3364478 315.27003,58.6535154 314.797874,58.1573498 C314.326422,57.661889 314.13756,57.6153735 313.40607,58.1573498 C312.675286,58.7000309 308.735954,61.9081924 308.735954,61.9081924 C308.735954,61.9081924 312.27501,57.9452108 312.769717,56.9542893 C313.265128,55.9640724 312.698541,54.9259305 311.920541,54.9731508 C311.14254,55.0203711 308.524541,57.8979905 307.487207,59.172234 C306.449168,60.4457726 305.128541,62.144294 304.65709,61.9081924 C304.184934,61.6727957 304.32658,61.1526676 304.468227,60.9172708 C304.609874,60.6818741 307.110187,55.7751912 307.911443,54.0301543 C308.713403,52.2837079 308.47803,51.4823723 307.817011,51.3414162 C307.156698,51.1990505 306.732462,52.4260736 305.506266,53.7940528 C304.280069,55.1620321 302.156777,59.4083355 302.156777,59.0777933 C302.156777,58.7472512 302.44007,56.9070689 301.497168,56.6716722 C300.55356,56.4355707 300.317482,57.2376111 300.317482,58.0389467 C300.317482,58.8416918 300.363993,59.4083355 299.704384,60.6346538 C299.043366,61.8609721 297.345718,62.9935546 296.450031,64.9739883 C295.552935,66.9558315 295.081483,70.44661 294.514896,70.9653286 C293.949718,71.4847519 284.892779,76.9566689 282.628544,78.0413263 C280.364309,79.1266885 278.006348,78.5607496 275.553251,78.6079699 C273.100858,78.6544855 271.826742,79.3155697 271.826742,79.3155697 C271.826742,79.3155697 273.147369,74.3623713 272.157251,70.8243724 C271.167133,67.2863736 268.854977,64.5969306 268.854977,64.3143136 C268.854977,64.0309918 269.893016,60.5402132 268.854977,56.3890552 C267.817644,52.2378971 267.062194,50.1616134 267.15733,49.1241762 C267.251761,48.0860343 268.337015,45.7278383 270.459603,43.6515545 C272.581487,41.5766803 273.195289,41.387799 274.37427,41.812077 C275.553251,42.2370597 278.52572,42.7550735 279.657485,42.1891346 C280.78925,41.6231958 280.600387,40.0198198 281.213485,39.3115152 C281.827288,38.6039155 282.605289,38.6750983 282.817407,38.0386814 C283.030229,37.4008549 282.628544,37.1887159 282.794151,37.0005395 C282.959053,36.8109535 283.123956,36.8356208 283.171876,36.3873803 C283.218387,35.9391398 282.935798,35.2315401 283.053485,34.8537776 C283.171876,34.47672 283.737758,34.5464933 284.067563,34.2173607 C284.398072,33.8868186 285.01117,34.0756998 285.577053,33.4865032 C286.14364,32.8966018 285.553797,31.8817176 284.751837,30.39604 C283.949172,28.9096576 283.761719,27.3295394 283.855445,26.9757395 C283.949172,26.6212349 284.705326,26.3386178 284.799052,24.9706386 C284.893484,23.6026593 283.949876,22.6589581 283.525641,20.8194806 C283.1007,18.9800031 283.383994,17.6592441 282.393171,15.6774009 C278.324877,7.53929878 267.204545,7.20170885 261.356153,12.7053409 C258.148311,15.7246212 258.666978,20.9604367 258.666978,23.7915406 C258.666978,26.6212349 259.516154,28.8856951 258.573251,31.1501553 C257.629644,33.4146156 256.093375,35.793955 256.093375,35.793955" id="Fill-379" opacity="0.100000001"></path>
            <path d="M142.910557,64.3686191 C142.910557,64.3686191 139.020999,66.7823543 131.518755,72.0291453 C124.016511,77.2752315 116.611945,86.8780218 111.28181,91.9267808 C105.950972,96.9769493 103.358636,96.8536197 103.358636,96.8536197 C103.358636,96.8536197 102.914516,96.6055512 101.927194,97.0016152 C100.939872,97.3976792 95.4361647,99.8973928 91.4875781,103.164568 C87.5396942,106.431744 85.1701206,119.301005 83.0970951,122.370854 C81.0240696,125.439293 79.7409019,125.340629 73.8176707,129.993324 C67.8951422,134.646724 60.0956472,147.912049 56.3452278,151.377257 C52.5941056,154.842464 50.1261512,156.624048 43.0188359,159.395791 C35.9108179,162.167534 29.6917413,172.365125 24.0650581,179.592236 C18.4383749,186.819347 14.6872528,188.750336 14.2424307,189.195731 C13.7983114,189.641127 13.9465854,189.343727 12.7617986,189.245063 C11.5770118,189.1464 6.7886742,190.829319 6.14709037,191.028056 C5.50620926,191.225383 3.77892223,190.531919 2.54424228,191.076683 C1.31096777,191.621447 0.12618098,195.036618 0.0270973873,196.07611 C-0.071283485,197.115602 0.12618098,197.560998 0.175371416,198.996554 C0.225264573,200.43211 0.446621536,205.332873 0.668681219,206.224369 C0.890740902,207.115161 0.816955248,207.683886 0.866145684,208.426683 C0.916038841,209.169479 1.18728896,209.540172 1.26107461,210.110307 C1.33556299,210.679032 1.40934864,211.149094 1.16269374,212.188586 C0.916038841,213.228783 1.31096777,213.698844 1.31096777,214.639672 C1.31096777,215.579796 1.65600355,215.431801 1.85417073,216.173892 C2.05093248,216.915983 2.24839694,217.559411 2.84079034,218.351539 C3.43318373,219.143667 3.5315646,219.441068 3.77821951,220.133827 C4.02557713,220.827292 4.76554183,221.173319 5.25955436,221.421388 C5.75286416,221.668047 6.14709037,222.509507 6.7886742,223.054271 C7.43096075,223.59833 7.72680609,223.450335 8.46747351,223.59833 C9.20814094,223.74703 9.1589505,224.044431 10.2938441,223.994394 C11.4287378,223.945767 11.1820829,223.895731 12.119512,223.895731 C13.0576439,223.895731 17.9443624,223.44963 18.5360531,223.153639 C19.1284465,222.856239 20.4615073,221.322019 20.6589718,220.480559 C20.8564362,219.638395 20.0665784,219.143667 20.0665784,219.143667 C20.0665784,219.143667 19.7208399,218.698271 19.0300656,218.202839 C18.3385886,217.708111 15.9205273,216.915983 15.5747888,216.519919 C15.229753,216.123855 15.2789435,215.480428 15.8706342,214.094908 C16.4637303,212.708684 16.3646467,210.333005 16.7103852,209.788946 C17.0554209,209.244181 18.6351367,207.759294 19.1284465,207.016497 C19.622459,206.273701 18.6843271,205.284246 18.6843271,205.284246 C18.6843271,205.284246 18.9808752,203.799358 21.053198,200.186155 C21.4158018,199.553298 21.6701866,199.100151 21.8423531,198.782313 C22.0482502,198.740733 22.3897724,198.609651 22.7312946,198.205835 C23.2744975,197.562407 28.7037162,190.087933 30.8751226,188.107613 C33.0472318,186.127292 38.4764505,179.98971 50.7171391,172.565272 C62.9578278,165.140129 55.6523453,169.198728 61.2790285,167.218407 C66.9064144,165.238792 68.8803563,162.813781 68.8803563,162.813781 C68.8803563,162.813781 69.2260948,162.615749 71.0517627,161.724957 C72.8781334,160.834166 81.1702355,155.339306 89.4623376,148.804955 C97.7544397,142.271308 111.969773,133.560014 111.969773,133.560014 C111.969773,133.560014 114.23956,133.85671 119.077088,135.53963 C123.913914,137.222549 130.823764,137.915309 133.982493,138.51011 C137.141925,139.104206 145.136776,142.470045 145.136776,142.470045 C145.136776,142.470045 141.386357,145.044461 136.352067,148.905028 C131.317074,152.7663 131.909468,154.449219 128.947501,158.112459 C125.986939,161.774994 116.583836,166.725089 116.460157,166.775831 C116.337181,166.824458 116.361776,167.393888 116.114419,167.517217 C115.867764,167.641252 112.856606,169.720235 112.856606,169.720235 C112.856606,169.720235 112.510868,169.720235 112.165832,169.670903 C111.820094,169.621572 111.030236,170.116299 110.339461,170.264999 C109.648687,170.4137 109.352139,170.017636 108.118162,170.611732 C106.884185,171.205828 103.626372,175.215095 103.626372,175.215095 C103.626372,175.215095 102.58986,175.413127 101.454966,176.056555 C100.320072,176.699982 99.8260597,179.17503 99.9743338,180.115154 C100.121905,181.055982 101.010847,182.244174 101.849895,183.282961 C102.688943,184.323157 102.738134,184.125125 103.577182,184.966585 C104.41623,185.80734 105.057814,186.154777 106.834994,187.490965 C108.611472,188.827857 109.055591,188.431088 110.586116,189.668612 C112.115939,190.906841 115.817871,194.322012 115.867764,194.569376 C115.916251,194.817444 116.558538,195.262135 117.595051,196.153632 C118.631563,197.044423 118.829028,196.94576 120.013815,197.737183 C121.198602,198.529311 121.790292,198.875338 122.826805,199.569508 C123.863318,200.261562 124.405818,200.310894 124.800747,200.558963 C125.195676,200.807031 126.084617,200.706958 126.874475,201.103022 C127.664333,201.499086 128.503381,201.599159 129.341727,201.599159 C130.180775,201.599159 130.37824,201.796487 131.563026,201.796487 C132.747813,201.796487 133.98179,200.855658 134.228445,200.212935 C134.4751,199.569508 134.4751,199.123407 134.327529,198.727343 C134.179255,198.331984 134.179255,198.331984 133.833516,197.341824 C133.487778,196.351664 129.933418,193.728621 129.933418,193.728621 C129.933418,193.728621 129.637572,193.183152 128.748631,192.440355 C127.860392,191.698264 127.268701,191.748301 125.985534,190.46074 C124.701663,189.173884 124.504199,186.996237 124.010186,185.065954 C123.516877,183.134965 124.10927,180.957318 123.665151,179.818458 C123.221031,178.680303 123.960996,177.145378 123.960996,177.145378 C123.960996,177.145378 124.257544,176.848683 124.553389,176.799351 C124.849937,176.750019 125.688986,174.027608 128.156237,172.344688 C130.624192,170.661063 135.955732,166.404433 142.075725,164.325449 C148.195718,162.24717 158.461762,153.435803 160.040775,152.445643 C161.620491,151.455483 163.200207,150.564691 166.951329,147.495548 C170.702451,144.427109 171.294844,141.259301 171.294844,140.219809 C171.294844,139.180318 170.159248,138.041457 168.678616,135.468451 C167.197984,132.894035 161.077991,125.567555 158.215107,123.687309 C155.352224,121.806357 142.518439,114.13385 140.247949,113.83645 C137.977459,113.539754 133.584753,110.916711 133.584753,110.916711 C133.584753,110.916711 136.792673,107.946231 139.014675,106.857407 C141.235272,105.768584 143.654036,105.768584 145.776252,105.323188 C147.898468,104.877792 149.083254,103.244204 149.083254,103.244204 C149.083254,103.244204 149.132445,103.095504 151.254661,102.501408 C153.376877,101.908017 156.141379,99.0862368 156.141379,99.0862368 C156.141379,99.0862368 156.141379,99.0362002 157.424547,98.6408409 C158.707715,98.2440722 162.754682,96.5118207 162.754682,96.5118207 C162.754682,96.5118207 162.853766,96.5118207 163.100421,97.3539853 C163.347075,98.1954451 166.604888,105.620588 168.282984,110.025919 C169.961081,114.43125 173.859774,118.837286 176.081074,119.579378 C178.302373,120.322174 177.414135,119.480714 179.536351,118.589922 C181.658567,117.698426 185.360498,116.807634 191.037075,115.124715 C196.712948,113.441795 210.137721,104.185032 211.125043,103.344277 C212.112366,102.502113 213.592295,102.750181 216.455881,100.819898 C219.318062,98.8882048 221.045349,96.4631936 221.538659,95.968466 C222.031968,95.4737384 223.783851,93.5180842 224.450733,93.1220202 C225.116912,92.7259562 228.251045,91.0176659 228.596784,90.523643 C228.942522,90.0282107 228.941117,89.4594853 228.941117,89.4594853 C228.941117,89.4594853 229.113986,89.0634213 228.867331,88.8153527 C228.620676,88.5679889 227.683247,88.939387 227.337508,89.0140895 C226.99177,89.0880872 225.807686,89.4594853 225.264483,89.5581489 C224.72128,89.6575173 222.67285,90.7463409 222.129647,91.0684072 C221.587146,91.3897688 223.092374,89.8308834 223.413517,89.4094487 C223.73466,88.9894236 225.190697,87.9005999 226.251805,87.3065039 C227.312913,86.7124079 228.619973,86.0196483 228.780194,85.6848966 C228.941117,85.3508498 228.977658,84.9547858 228.953063,84.8927686 C228.928468,84.8307515 229.014902,84.5467412 228.916521,84.2493408 C228.817438,83.9519404 228.619973,83.9646258 227.768276,84.2366555 C226.917282,84.50939 225.842822,84.6707755 224.90469,85.0168029 C223.967261,85.3628304 221.893533,86.847718 221.893533,86.847718 C221.893533,86.847718 222.362247,86.3283245 222.757176,85.9322605 C223.152808,85.5361965 224.188618,84.6454048 225.028369,84.0273476 C225.867417,83.4085857 227.445727,82.0956547 227.544811,81.625593 C227.643192,81.1555312 227.421132,80.760172 227.421132,80.760172 C227.421132,80.760172 227.371942,80.3641079 227.002311,80.0920782 C226.631274,79.8193438 226.507595,80.1160394 225.249023,80.6114718 C223.991153,81.1061994 221.991913,82.2690208 221.078377,82.7397872 C220.166246,83.209849 218.11641,85.7342285 217.918945,85.6848966 C217.721481,85.6355648 218.980756,83.3338833 219.498661,82.3930551 C220.017269,81.4529316 221.127567,80.2894055 221.719961,79.7946778 C222.312354,79.2999502 223.225188,77.7770066 223.225188,77.4189985 C223.225188,77.059581 223.101509,76.9115856 223.101509,76.9115856 C223.101509,76.9115856 223.015074,76.6014999 222.891396,76.378802 C222.76842,76.1568088 222.3243,75.982738 222.05305,76.1814747 C221.781097,76.378802 220.065756,78.0250751 218.955458,78.7925372 C217.84516,79.5599994 217.450231,80.0300611 217.055302,80.5741205 C216.660373,81.1188847 214.5494,84.3853557 214.5494,84.3853557 C214.5494,84.3853557 214.462966,82.0716935 214.068037,81.4895781 C213.673108,80.9081674 213.462995,80.9455186 213.328072,80.8708162 C213.192447,80.7975232 212.56281,80.4500863 212.254315,80.8221891 C211.945118,81.1928825 212.019607,83.3959004 211.427213,84.9794517 C210.835522,86.5637077 210.045665,86.7617397 209.009152,88.2466274 C207.971936,89.731515 208.317675,94.5336149 208.219294,94.8796424 C208.12021,95.2263746 208.02183,95.3250382 205.997994,96.3151982 C203.974159,97.3046535 194.250616,101.265294 192.22678,101.067262 C190.202945,100.86923 183.045737,100.720529 183.045737,100.720529 C183.045737,100.720529 183.539047,95.4244066 182.552427,92.2558945 C181.565105,89.0880872 178.603138,87.0091035 178.454864,86.5637077 C178.30659,86.1183119 179.491377,83.296532 179.145638,79.8813609 C178.800602,76.4661898 177.07191,73.7931101 177.07191,73.7931101 C177.07191,73.7931101 178.7999,72.0115268 179.738031,71.3180624 C180.676163,70.6253028 184.179928,69.7338064 185.364715,69.5858109 C186.549501,69.4371108 188.720908,70.3279024 190.843124,71.8127901 C192.96534,73.2983825 193.410162,72.2588906 194.594246,70.8726666 C195.779033,69.4871473 195.679949,68.6203168 195.679949,68.6203168 C195.679949,68.6203168 195.72914,68.5956509 196.321533,68.4469507 C196.913926,68.2989553 196.839438,67.9522231 196.913926,67.5314932 C196.987712,67.111468 196.592783,66.9627678 196.641973,66.715404 C196.691867,66.4680402 197.728379,66.4180036 198.074118,66.0959374 C198.419154,65.7745758 198.172499,65.32918 198.246284,64.8090817 C198.320773,64.2896882 198.738892,63.8936242 199.35588,63.942956 C199.972869,63.9922878 201.775347,64.2396516 201.997407,63.4228577 C202.218764,62.6060638 201.428906,58.8695311 201.280632,58.2754351 C201.132358,57.6813391 201.576477,56.2457832 202.564502,55.4536552 C203.551122,54.6615272 203.946051,53.0779759 203.89686,51.6917519 C203.84767,50.3055279 203.599609,43.1284534 200.046654,40.1579734 C192.59079,33.9280698 179.288993,34.0464661 176.057884,45.0101098 C174.775419,49.3661092 174.774014,50.5049694 173.738204,52.5832483 C172.701691,54.6629367 171.220356,56.6925885 171.220356,56.6925885 C171.220356,56.6925885 169.838105,56.4945565 166.876841,55.7024285 C163.915576,54.9103005 160.953609,54.9110052 160.4603,54.9110052 C159.966287,54.9110052 157.104106,52.7326532 151.970733,50.4563423 C146.83736,48.1786219 138.890293,47.3871986 137.903674,46.9918393 C136.916351,46.5950706 136.02741,46.0016793 134.941707,46.0016793 C133.855301,46.0016793 132.818788,46.7938073 130.894037,47.1405395 C128.969285,47.486567 122.158518,48.3280268 115.0505,51.6938661 C107.943184,55.0597054 101.575131,59.1697504 100.884357,59.3177459 C100.19288,59.4664461 98.2189379,58.674318 96.3925673,58.476286 C94.5661967,58.278254 94.0721841,59.1197139 93.3322194,58.9710137 C92.5922547,58.8230182 91.704016,57.7835264 91.012539,57.1393938 C90.3217648,56.495966 89.6801809,57.1894304 89.136978,58.1795904 C88.593775,59.1697504 89.6794782,61.1500705 89.6794782,61.1500705 C89.6794782,61.1500705 89.3836329,61.1986975 88.593775,61.0507021 C87.8039171,60.9020019 87.2607142,60.6046015 85.9283561,60.1592057 C84.5952953,59.7145146 81.5595426,59.6151462 81.0662328,59.5911851 C80.572923,59.5665192 79.881446,59.7398853 79.881446,59.7398853 C79.881446,59.7398853 79.7092795,59.8131782 79.4865171,59.8131782 C79.2644574,59.8131782 77.6847417,59.9379173 77.2652175,60.1352445 C76.8456934,60.3332765 77.2160271,60.7046746 77.2160271,60.7046746 C77.2160271,60.7046746 76.7473125,61.1007386 76.5498481,61.398139 C76.3523836,61.6948346 76.1303239,62.0908987 77.3888964,62.4376308 C78.6474688,62.7836583 80.6467087,62.5616651 80.6467087,62.5616651 C80.6467087,62.5616651 80.572923,63.0070609 80.79428,63.378459 C81.0163397,63.7498571 81.1646137,63.7745231 82.1765312,63.997221 C83.1884488,64.2199189 86.544642,65.1107105 87.8278096,66.2981978 C89.1109773,67.4870946 89.6541803,68.5258816 91.6288249,68.8225773 C93.6027668,69.1199777 99.7227598,64.9126785 99.7227598,64.9126785 C99.7227598,64.9126785 100.414237,64.6660194 102.733917,64.4679874 C105.052895,64.2692507 112.012639,61.7949078 115.66538,61.1014434 C119.318121,60.4086837 125.536495,60.1112834 129.386701,60.0619515 C133.236204,60.0126197 136.148981,58.9230913 136.148981,58.9230913 C136.148981,58.9230913 136.494016,59.3191553 137.481339,60.6067157 C138.468661,61.8935714 142.318164,64.1205505 142.910557,64.3686191 M21.8423531,198.782313 C21.7207825,198.806979 21.6455914,198.799931 21.6455914,198.799931 C21.6455914,198.799931 22.6532926,197.28333 21.8423531,198.782313" id="Fill-381" opacity="0.049999997"></path>
        </g>
    </g>
</svg>