<?xml version="1.0" encoding="UTF-8"?>
<svg width="64px" height="46px" viewBox="0 0 64 46" version="1.1" xmlns="http://www.w3.org/2000/svg" xmlns:xlink="http://www.w3.org/1999/xlink">
    <!-- Generator: Sketch 48.2 (47327) - http://www.bohemiancoding.com/sketch -->
    <title>axum_heart</title>
    <desc>Created with Sketch.</desc>
    <defs></defs>
    <g id="New-AxumGear" stroke="none" stroke-width="1" fill="none" fill-rule="evenodd" transform="translate(-232.000000, -3798.000000)">
        <path d="M283.902336,3844 L262.846356,3844 C257.53677,3844 252.553653,3841.40657 249.463036,3837.03512 L234.02462,3815.19722 C228.939481,3808.00379 234.018243,3798 242.755117,3798 L268.792301,3798 C275.071092,3798 280.876121,3801.38366 284.029225,3806.88171 L294.525334,3823.94787 C296.326652,3826.87767 296.488612,3830.54734 294.951274,3833.62821 L292.423689,3838.69241 C290.799633,3841.94759 287.504336,3844 283.902336,3844 Z M264.453926,3839.61231 L284.445029,3839.61231 C286.26843,3839.61231 287.908215,3838.58684 288.724283,3836.93667 L291.436432,3831.45632 C292.175355,3829.96232 292.094386,3828.1521 291.224127,3826.73362 L280.415696,3809.09027 C279.542248,3807.66468 278.031249,3806.80765 276.372974,3806.79797 L272.075231,3806.77538 C270.324511,3806.77538 268.715328,3807.74148 267.875671,3809.29678 L257.797876,3827.96302 C257.006035,3829.42991 257.011773,3831.17688 257.811902,3832.63732 L260.26903,3837.11801 C261.111875,3838.65718 262.71532,3839.61231 264.453926,3839.61231 Z M290.150358,3827.41831 C290.794204,3828.46885 290.85291,3829.78169 290.306055,3830.88715 L287.591564,3836.37371 C286.996213,3837.57866 285.779988,3838.33846 284.449543,3838.33846 L264.441175,3838.33846 C263.16433,3838.33846 261.987668,3837.63746 261.368708,3836.50681 L258.909457,3832.02103 C258.324955,3830.95434 258.321126,3829.65894 258.89861,3828.58837 L268.985747,3809.90097 C269.605345,3808.75287 270.796684,3808.04218 272.087567,3808.04928 L276.364136,3808.0719 C277.573342,3808.07836 278.694489,3808.71411 279.331954,3809.75495 L290.150358,3827.41831 Z M239.561658,3809.99792 L245.240428,3818.76721 C245.78314,3819.60688 246.75608,3820.05278 247.737282,3819.91316 L250.667543,3819.49621 C251.462545,3819.38297 252.158411,3818.89911 252.549239,3818.18877 L256.46515,3811.05893 C256.89665,3810.27266 256.895379,3809.31524 256.460702,3808.5309 L255.045458,3805.97713 C254.592351,3805.15869 253.738883,3804.65231 252.812969,3804.65231 L242.563094,3804.65231 C241.698823,3804.65231 240.893017,3805.0937 240.42021,3805.82592 L239.559752,3807.15782 C239.002424,3808.02066 239.003059,3809.13572 239.561658,3809.99792 Z M288.212017,3828.87554 C288.02975,3828.87554 287.864288,3828.97579 287.780264,3829.13813 L284.872391,3834.77996 C284.812928,3834.89509 284.802587,3835.02638 284.841367,3835.14992 C284.880794,3835.27345 284.96611,3835.37435 285.081158,3835.43385 C285.150963,3835.46878 285.225292,3835.48754 285.302206,3835.48754 C285.484473,3835.48754 285.649935,3835.38664 285.733959,3835.2243 L288.641832,3829.58311 C288.701295,3829.46799 288.711636,3829.33669 288.672856,3829.21251 C288.63343,3829.08962 288.548759,3828.98873 288.433065,3828.92922 C288.36326,3828.89365 288.288932,3828.87554 288.212017,3828.87554 Z M268.225859,3831.82629 L268.771719,3829.76516 L270.256995,3830.38904 L268.225859,3831.82629 Z M281.410965,3817.10769 L278.076933,3819.46723 L277.152235,3821.36079 L276.052836,3820.89933 L272.20558,3823.62237 L275.394349,3824.96165 L274.133688,3827.54419 L269.444925,3825.57522 L268.956019,3825.92132 L267.160377,3827.19229 L265.478643,3828.38205 L266.708587,3828.8983 L264.770241,3836.21538 L267.592329,3834.2187 L267.903975,3833.0399 L271.131779,3830.75577 L271.980965,3831.11282 L272.608736,3830.66876 L275.943408,3828.30922 L275.947248,3828.306 L275.945328,3828.30471 L277.205989,3825.72153 L278.707903,3826.3525 L282.555799,3823.62946 L278.963235,3822.12131 L281.410965,3817.10769 Z" id="axum_heart" fill="#E61C20"></path>
    </g>
</svg>