<?xml version="1.0" encoding="UTF-8"?>
<svg width="158px" height="32px" viewBox="0 0 158 32" version="1.1" xmlns="http://www.w3.org/2000/svg" xmlns:xlink="http://www.w3.org/1999/xlink">
    <!-- Generator: Sketch 48.2 (47327) - http://www.bohemiancoding.com/sketch -->
    <title>brand-5</title>
    <desc>Created with Sketch.</desc>
    <defs>
        <polygon id="path-1" points="0.0016 0.537866667 16.7989333 0.537866667 16.7989333 24.6666667 0.0016 24.6666667"></polygon>
        <polygon id="path-3" points="0.462666667 0.537866667 17.26 0.537866667 17.26 24.6666667 0.462666667 24.6666667"></polygon>
        <polygon id="path-5" points="0 32.1381333 157.053333 32.1381333 157.053333 0.999466667 0 0.999466667"></polygon>
    </defs>
    <g id="New-AxumGear" stroke="none" stroke-width="1" fill="none" fill-rule="evenodd" transform="translate(-371.000000, -2771.000000)" opacity="0.600000024">
        <g id="Group-7" transform="translate(288.000000, 2707.000000)">
            <g id="brand-5" transform="translate(83.000000, 63.000000)">
                <g id="Group-3" transform="translate(0.000000, 7.471467)">
                    <mask id="mask-2" fill="white">
                        <use xlink:href="#path-1"></use>
                    </mask>
                    <g id="Clip-2"></g>
                    <path d="M3.5216,8.6472 C3.5216,10.0472 3.95093333,11.2525333 4.81493333,12.2658667 C5.6816,13.2765333 6.8416,13.7885333 8.3056,13.7885333 C9.76693333,13.7885333 10.9482667,13.2925333 11.8576,12.3138667 C12.7642667,11.3352 13.2176,10.1112 13.2176,8.6472 C13.2176,7.18853333 12.7589333,5.94853333 11.8389333,4.93786667 C10.9216,3.92453333 9.7376,3.41786667 8.28693333,3.41786667 C6.83626667,3.41786667 5.6816,3.93786667 4.81493333,4.98586667 C3.95093333,6.03386667 3.5216,7.25253333 3.5216,8.6472 Z M16.7989333,0.793866667 L16.7989333,15.6418667 C16.7989333,18.6472 15.9856,20.9085333 14.3536,22.4072 C12.7189333,23.9138667 10.6229333,24.6685333 8.06293333,24.6685333 C5.50293333,24.6685333 3.18826667,23.8658667 1.1216,22.2658667 L2.81493333,19.5485333 C4.47893333,20.8045333 6.15893333,21.4338667 7.8576,21.4338667 C9.5536,21.4338667 10.8976,20.9965333 11.8896,20.1218667 C12.8816,19.2472 13.3749333,17.8498667 13.3749333,15.9272 L13.3749333,13.7512 C12.8416,14.7565333 12.0816,15.5592 11.0896,16.1512 C10.0976,16.7512 8.98293333,17.0472 7.7456,17.0472 C5.4816,17.0472 3.6256,16.2605333 2.17493333,14.6845333 C0.724266667,13.1058667 0.0016,11.1432 0.0016,8.79386667 C0.0016,6.44986667 0.724266667,4.48453333 2.17493333,2.90853333 C3.6256,1.32986667 5.47626667,0.537866667 7.72693333,0.537866667 C9.98026667,0.537866667 11.8069333,1.46586667 13.2176,3.32453333 L13.2176,0.793866667 L16.7989333,0.793866667 Z" id="Fill-1" fill="#FFFFFF" mask="url(#mask-2)"></path>
                </g>
                <path d="M32.0165333,21.3997333 C33.0512,20.4104 33.6432,19.1144 33.7925333,17.5144 L33.7925333,16.2344 C33.6432,14.6344 33.0512,13.3330667 32.0165333,12.3277333 C30.9818667,11.3277333 29.6752,10.8264 28.0965333,10.8264 C26.9872,10.8264 26.0005333,11.0877333 25.1365333,11.6077333 C24.2725333,12.1330667 23.5952,12.8530667 23.1045333,13.7704 C22.6138667,14.6850667 22.3685333,15.7224 22.3685333,16.8744 C22.3685333,18.0237333 22.6138667,19.0610667 23.1045333,19.9784 C23.5952,20.8957333 24.2725333,21.6077333 25.1365333,22.1197333 C26.0005333,22.6344 26.9872,22.8904 28.0965333,22.8904 C29.6752,22.8904 30.9818667,22.3944 32.0165333,21.3997333 Z M36.7685333,8.3624 L36.7685333,25.2904 L33.7925333,25.2904 L33.7925333,21.9944 C33.1525333,23.1037333 32.2992,23.9570667 31.2325333,24.5517333 C30.1658667,25.1490667 28.9178667,25.4477333 27.4885333,25.4477333 C25.8885333,25.4477333 24.4752,25.0824 23.2485333,24.3464 C22.0218667,23.6077333 21.0698667,22.5864 20.3845333,21.2744 C19.7018667,19.9624 19.3605333,18.4610667 19.3605333,16.7757333 C19.3605333,15.1144 19.7018667,13.6344 20.3845333,12.3464 C21.0698667,11.0557333 22.0272,10.0450667 23.2645333,9.3224 C24.5018667,8.59706667 25.9098667,8.2344 27.4885333,8.2344 C28.9178667,8.2344 30.1658667,8.52506667 31.2325333,9.1144 C32.2992,9.70106667 33.1525333,10.5464 33.7925333,11.6557333 L33.7925333,8.3624 L36.7685333,8.3624 Z" id="Fill-4" fill="#FFFFFF"></path>
                <path d="M43.4565333,16.8581333 C43.4565333,18.4874667 43.9765333,19.8154667 45.0245333,20.8421333 C46.0672,21.8634667 47.2938667,22.3781333 48.7045333,22.3781333 C50.1125333,22.3781333 51.3045333,21.8581333 52.2885333,20.8261333 C53.2698667,19.7914667 53.7605333,18.4634667 53.7605333,16.8421333 C53.7605333,15.2234667 53.2698667,13.8634667 52.2885333,12.7754667 C51.3045333,11.6928 50.0992,11.1434667 48.6725333,11.1434667 C47.2432,11.1434667 46.0165333,11.6928 44.9925333,12.7754667 C43.9658667,13.8634667 43.4565333,15.2234667 43.4565333,16.8581333 M42.2725333,23.1141333 C40.6725333,21.4928 39.8725333,19.3568 39.8725333,16.7114667 C39.8725333,14.0661333 40.6938667,11.9568 42.3365333,10.3781333 C43.9765333,8.80213333 45.9365333,8.01013333 48.2085333,8.01013333 C50.4805333,8.01013333 52.3072,8.96746667 53.6965333,10.8901333 L53.6965333,1.54613333 L57.2805333,1.54613333 L57.2805333,25.2901333 L53.6965333,25.2901333 L53.6965333,22.7274667 C52.3738667,24.6074667 50.4432,25.5461333 47.9045333,25.5461333 C45.7472,25.5461333 43.8725333,24.7328 42.2725333,23.1141333" id="Fill-6" fill="#FFFFFF"></path>
                <g id="Group-10" transform="translate(59.666667, 7.471467)">
                    <mask id="mask-4" fill="white">
                        <use xlink:href="#path-3"></use>
                    </mask>
                    <g id="Clip-9"></g>
                    <path d="M3.98266667,8.6472 C3.98266667,10.0472 4.412,11.2525333 5.276,12.2658667 C6.14266667,13.2765333 7.30266667,13.7885333 8.76666667,13.7885333 C10.228,13.7885333 11.4093333,13.2925333 12.3186667,12.3138667 C13.2253333,11.3352 13.6786667,10.1112 13.6786667,8.6472 C13.6786667,7.18853333 13.22,5.94853333 12.3,4.93786667 C11.3826667,3.92453333 10.1986667,3.41786667 8.748,3.41786667 C7.29733333,3.41786667 6.14266667,3.93786667 5.276,4.98586667 C4.412,6.03386667 3.98266667,7.25253333 3.98266667,8.6472 Z M17.26,0.793866667 L17.26,15.6418667 C17.26,18.6472 16.4466667,20.9085333 14.8146667,22.4072 C13.18,23.9138667 11.084,24.6685333 8.524,24.6685333 C5.964,24.6685333 3.64933333,23.8658667 1.58266667,22.2658667 L3.276,19.5485333 C4.94,20.8045333 6.62,21.4338667 8.31866667,21.4338667 C10.0146667,21.4338667 11.3586667,20.9965333 12.3506667,20.1218667 C13.3426667,19.2472 13.836,17.8498667 13.836,15.9272 L13.836,13.7512 C13.3026667,14.7565333 12.5426667,15.5592 11.5506667,16.1512 C10.5586667,16.7512 9.444,17.0472 8.20666667,17.0472 C5.94266667,17.0472 4.08666667,16.2605333 2.636,14.6845333 C1.18533333,13.1058667 0.462666667,11.1432 0.462666667,8.79386667 C0.462666667,6.44986667 1.18533333,4.48453333 2.636,2.90853333 C4.08666667,1.32986667 5.93733333,0.537866667 8.188,0.537866667 C10.4413333,0.537866667 12.268,1.46586667 13.6786667,3.32453333 L13.6786667,0.793866667 L17.26,0.793866667 Z" id="Fill-8" fill="#FFFFFF" mask="url(#mask-4)"></path>
                </g>
                <path d="M83.3290667,15.5301333 L93.0890667,15.5301333 C93.0890667,14.0981333 92.6410667,12.9994667 91.7450667,12.2341333 C90.8464,11.4688 89.7450667,11.0821333 88.4330667,11.0821333 C87.1210667,11.0821333 85.9397333,11.4821333 84.8970667,12.2794667 C83.8490667,13.0821333 83.3290667,14.1648 83.3290667,15.5301333 Z M96.6730667,18.3488 L83.3290667,18.3488 C83.4117333,19.5834667 83.9797333,20.5834667 85.0250667,21.3381333 C86.0677333,22.0928 87.2650667,22.4741333 88.6064,22.4741333 C90.7397333,22.4741333 92.3637333,21.8021333 93.4730667,20.4581333 L95.5210667,22.6981333 C93.6864,24.5968 91.2970667,25.5461333 88.3530667,25.5461333 C85.9610667,25.5461333 83.9317333,24.7488 82.2570667,23.1594667 C80.5824,21.5728 79.7450667,19.4368 79.7450667,16.7594667 C79.7450667,14.0821333 80.5984,11.9568 82.3050667,10.3781333 C84.0117333,8.80213333 86.0224,8.01013333 88.3370667,8.01013333 C90.6517333,8.01013333 92.6170667,8.70613333 94.2410667,10.1034667 C95.8597333,11.5034667 96.6730667,13.4261333 96.6730667,15.8794667 L96.6730667,18.3488 Z" id="Fill-11" fill="#FFFFFF"></path>
                <path d="M103.615467,11.1445333 L103.615467,19.7845333 C103.615467,20.5978667 103.8288,21.2432 104.255467,21.7232 C104.682133,22.2005333 105.279467,22.4405333 106.047467,22.4405333 C106.815467,22.4405333 107.551467,22.0672 108.255467,21.3205333 L109.727467,23.8485333 C108.4688,24.9765333 107.0768,25.5445333 105.551467,25.5445333 C104.026133,25.5445333 102.7248,25.0192 101.647467,23.9632 C100.570133,22.9045333 100.031467,21.4832 100.031467,19.6912 L100.031467,11.1445333 L97.8901333,11.1445333 L97.8901333,8.26453333 L100.031467,8.26453333 L100.031467,2.92053333 L103.615467,2.92053333 L103.615467,8.26453333 L108.095467,8.26453333 L108.095467,11.1445333 L103.615467,11.1445333 Z" id="Fill-13" fill="#FFFFFF"></path>
                <path d="M123.422667,20.2018667 C123.422667,21.8205333 122.836,23.1192 121.665333,24.0872 C120.489333,25.0605333 118.985333,25.5458667 117.150667,25.5458667 C115.916,25.5458667 114.628,25.3218667 113.294667,24.8738667 C111.961333,24.4258667 110.785333,23.7965333 109.761333,22.9832 L111.486667,20.2018667 C113.473333,21.6978667 115.390667,22.4418667 117.249333,22.4418667 C118.057333,22.4418667 118.7,22.2552 119.166667,21.8792 C119.636,21.5085333 119.873333,21.0338667 119.873333,20.4578667 C119.873333,19.6018667 118.74,18.8365333 116.478667,18.1538667 C116.308,18.0872 116.18,18.0445333 116.097333,18.0258667 C112.556,17.0658667 110.785333,15.4685333 110.785333,13.2232 C110.785333,11.6445333 111.396,10.3832 112.622667,9.4312 C113.849333,8.48186667 115.446667,8.00986667 117.406667,8.00986667 C119.369333,8.00986667 121.228,8.58853333 122.974667,9.73786667 L121.630667,12.3938667 C120.246667,11.4792 118.74,11.0205333 117.121333,11.0205333 C116.265333,11.0205333 115.574667,11.1698667 115.038667,11.4818667 C114.505333,11.7912 114.241333,12.2552 114.241333,12.8738667 C114.241333,13.4258667 114.516,13.8312 115.070667,14.0872 C115.457333,14.2792 115.996,14.4632 116.689333,14.6338667 C117.38,14.8072 117.996,14.9725333 118.526667,15.1458667 C119.06,15.3165333 119.58,15.5085333 120.078667,15.7218667 C120.582667,15.9352 121.121333,16.2338667 121.697333,16.6178667 C122.846667,17.3832 123.422667,18.5832 123.422667,20.2018667" id="Fill-15" fill="#FFFFFF"></path>
                <path d="M126.414933,24.8426667 C125.956267,24.3733333 125.726933,23.8053333 125.726933,23.144 C125.726933,22.4826667 125.956267,21.9253333 126.414933,21.4666667 C126.8736,21.0106667 127.4336,20.776 128.094933,20.776 C128.756267,20.776 129.3216,21.0106667 129.7936,21.4666667 C130.260267,21.9253333 130.494933,22.4826667 130.494933,23.144 C130.494933,23.8053333 130.260267,24.3733333 129.7936,24.8426667 C129.3216,25.312 128.756267,25.5466667 128.094933,25.5466667 C127.4336,25.5466667 126.8736,25.312 126.414933,24.8426667" id="Fill-17" fill="#FFFFFF"></path>
                <mask id="mask-6" fill="white">
                    <use xlink:href="#path-5"></use>
                </mask>
                <g id="Clip-20"></g>
                <path d="M133.885333,25.2901333 L137.472,25.2901333 L137.472,8.26346667 L133.885333,8.26346667 L133.885333,25.2901333 Z M134.109333,4.87413333 C133.661333,4.42613333 133.437333,3.89546667 133.437333,3.27413333 C133.437333,2.65546667 133.661333,2.11946667 134.109333,1.67146667 C134.557333,1.22346667 135.093333,0.999466667 135.712,0.999466667 C136.328,0.999466667 136.864,1.22346667 137.312,1.67146667 C137.76,2.11946667 137.981333,2.65546667 137.981333,3.27413333 C137.981333,3.89546667 137.76,4.42613333 137.312,4.87413333 C136.864,5.32213333 136.328,5.54613333 135.712,5.54613333 C135.093333,5.54613333 134.557333,5.32213333 134.109333,4.87413333 Z" id="Fill-19" fill="#FFFFFF" mask="url(#mask-6)"></path>
                <path d="M144.9592,16.0717333 L144.9592,25.2904 L141.372533,25.2904 L141.372533,8.26373333 L144.9592,8.26373333 L144.9592,11.3677333 C145.5352,10.3224 146.329867,9.50373333 147.3432,8.90373333 C148.353867,8.3064 149.449867,8.0104 150.6232,8.0104 C152.5432,8.0104 154.0952,8.59706667 155.276533,9.7704 C156.460533,10.9410667 157.052533,12.6397333 157.052533,14.8584 L157.052533,25.2904 L153.468533,25.2904 L153.468533,15.9464 C153.468533,12.8104 152.1672,11.2424 149.5672,11.2424 C148.329867,11.2424 147.249867,11.6504 146.3352,12.4717333 C145.417867,13.2957333 144.9592,14.4930667 144.9592,16.0717333" id="Fill-21" fill="#FFFFFF" mask="url(#mask-6)"></path>
            </g>
        </g>
    </g>
</svg>