<?xml version="1.0" encoding="UTF-8"?>
<svg width="130px" height="24px" viewBox="0 0 130 24" version="1.1" xmlns="http://www.w3.org/2000/svg" xmlns:xlink="http://www.w3.org/1999/xlink">
    <!-- Generator: Sketch 48.2 (47327) - http://www.bohemiancoding.com/sketch -->
    <title>brand-1</title>
    <desc>Created with Sketch.</desc>
    <defs></defs>
    <g id="New-AxumGear" stroke="none" stroke-width="1" fill="none" fill-rule="evenodd" transform="translate(-288.000000, -2708.000000)" opacity="0.600000024">
        <g id="Group-7" transform="translate(288.000000, 2707.000000)" fill="#FFFFFF">
            <g id="brand-1" transform="translate(0.000000, 1.000000)">
                <path d="M55.1838059,0.22901117 C54.010519,0.248537965 52.8361144,0.259919298 51.6636099,0.224659484 C51.1881253,0.210377027 51.0830582,0.362128127 51.0850701,0.815596118 C51.1025068,4.75788884 51.0952415,8.70029313 51.0952415,12.6426974 L51.0952415,14.3015824 L50.9803383,14.3378465 C50.8929314,14.1781731 50.8015006,14.0205082 50.7190117,13.8582684 C48.4932651,9.48527033 46.2646125,5.11372285 44.0507139,0.734810974 C43.8717644,0.381097014 43.687897,0.213947641 43.2581277,0.223655248 C41.7872996,0.256460266 40.3151303,0.24552526 38.8436316,0.229234333 C38.5051813,0.225552137 38.4008966,0.319838666 38.4013437,0.666188234 C38.4107326,8.17898347 38.4114033,15.6918903 38.4000024,23.2046855 C38.3993317,23.5942172 38.54039,23.6629515 38.8859937,23.6577072 C40.0593924,23.6398541 41.2340206,23.62334 42.4061897,23.6637326 C42.9054822,23.6810278 43.0209442,23.5395422 43.0187088,23.049587 C42.9982542,18.6050651 43.006749,14.1606548 43.006749,9.71624443 L43.006749,9.13601964 C43.2688579,9.29524671 43.3149086,9.52521657 43.4115928,9.71111167 C45.7425182,14.1970304 48.0710965,18.6841765 50.3882738,23.177348 C50.5600697,23.5103078 50.7382368,23.6721012 51.1462102,23.6627284 C52.5053765,23.6313739 53.8658841,23.6391846 55.2253857,23.6585999 C55.5896557,23.6637326 55.7012057,23.5606311 55.7006468,23.1904031 C55.6908107,15.696242 55.6898048,8.2019693 55.7023234,0.707808205 C55.702994,0.29172008 55.5493054,0.222874177 55.1838059,0.22901117" id="Fill-1"></path>
                <path d="M74.7896924,0.659204169 C74.7902494,0.305790661 74.6794086,0.222989012 74.3451036,0.228457045 C73.1757603,0.247539366 72.0051916,0.258921803 70.8366281,0.224439715 C70.3615163,0.21049065 70.2116862,0.314383285 70.2145825,0.82670454 C70.2383103,5.12268175 70.228173,9.41899373 70.228173,13.7153057 L70.228173,14.3318544 C70.0006986,14.1260778 69.8882982,13.9169534 69.7805765,13.7052624 C67.5733393,9.36710321 65.3664364,5.02872085 63.1602019,0.690003704 C63.0352135,0.444276977 62.9514423,0.217297793 62.5724668,0.224328122 C61.0505493,0.252337844 59.527852,0.244414775 58.0056003,0.228791823 C57.6866682,0.225444047 57.6014489,0.321413614 57.6017831,0.636327702 C57.6099151,8.16859955 57.6106949,15.700983 57.6000007,23.2332548 C57.5996665,23.5919132 57.7161887,23.6646715 58.0458149,23.6596499 C59.2337617,23.6415719 60.4228224,23.6298547 61.6099893,23.6641136 C62.0671661,23.6773931 62.1973902,23.5625644 62.1951623,23.0919787 C62.1762246,18.8516862 62.1841339,14.6111705 62.1841339,10.3707663 C62.1841339,9.96814052 62.1840225,9.56551471 62.1840225,9.16277731 C62.2191128,9.15730927 62.2542031,9.15184124 62.2892935,9.14659639 C62.37429,9.3105258 62.4597322,9.47445521 62.5442831,9.63883099 C64.8643663,14.1482847 67.1873458,18.6562877 69.4982943,23.1704283 C69.6673962,23.5005189 69.8370552,23.6741569 70.2484475,23.6645599 C71.6030454,23.6327561 72.9588687,23.6422414 74.3139122,23.6596499 C74.6655952,23.6642252 74.7913634,23.5820931 74.790695,23.2003351 C74.7793324,15.6865876 74.779778,8.17284007 74.7896924,0.659204169" id="Fill-3"></path>
                <path d="M35.8294394,0.247634368 C34.7630471,0.349150215 33.6895017,0.336655957 32.6224388,0.242279686 C31.9314801,0.181258621 31.7513078,0.248415259 31.7533197,0.803517299 C31.7713145,5.87808256 31.7649437,10.9525363 31.7636024,16.02699 C31.7636024,16.305545 31.7618141,16.5852156 31.7394602,16.8625435 C31.6276908,18.2510795 30.8907949,19.1726426 29.5915869,19.6370497 C28.4905462,20.0306188 27.3607807,20.0201326 26.2351506,19.7512829 C24.7157569,19.3885032 23.8739094,18.4073693 23.7330799,16.8609817 C23.70782,16.5839885 23.7099437,16.3039832 23.7099437,16.0254282 C23.7087142,10.9508629 23.7025669,5.87640922 23.7197794,0.802067073 C23.7215677,0.273738443 23.5626315,0.184493742 22.9292341,0.235921001 C21.8049453,0.327062152 20.6743974,0.343572421 19.5511146,0.24027168 C19.0041149,0.189736868 18.8614971,0.269499319 18.8651855,0.69664677 C18.8815038,2.59253889 18.8724505,4.48854256 18.8728976,6.38454624 C18.8737918,9.934812 18.850879,13.4851893 18.8836275,17.0351204 C18.9140288,20.3269112 20.5746991,22.4835094 23.7236913,23.4646433 C24.5989578,23.7372859 25.5016078,23.8383555 26.4000105,23.9717764 C26.5133448,23.9886213 26.6277967,23.9975458 26.7424721,23.9976573 L28.8062948,24 C28.9062167,23.993976 29.0061386,23.987952 29.1059487,23.9819279 C29.3088102,24 29.6546249,23.9693221 30.036094,23.8736072 C30.5050785,23.7639478 30.9781986,23.6685675 31.4427124,23.5422862 C34.7104037,22.6539668 36.5744945,20.4460529 36.59316,17.3079861 C36.6260202,11.7689022 36.6015427,6.22970668 36.6139491,0.690511197 C36.614955,0.230231651 36.4445066,0.189179088 35.8294394,0.247634368" id="Fill-5"></path>
                <path d="M91.3853858,19.3832973 C88.2719919,19.4024912 85.1581503,19.3856408 82.0447563,19.402826 C81.6333675,19.4050579 81.4992968,19.3106505 81.5074664,18.8823581 C81.534773,17.4699304 81.5382423,16.0563868 81.5062354,14.6440707 C81.4957157,14.1821889 81.6131114,14.0572052 82.0850447,14.0612225 C84.9933038,14.0847686 87.9018986,14.0626732 90.8102696,14.0834295 C91.2748167,14.0866657 91.4604788,14.0150232 91.4352986,13.4905379 C91.3853858,12.4518339 91.3963532,11.4082198 91.4317174,10.3683999 C91.4473851,9.90941947 91.324058,9.77617789 90.8536915,9.77963726 C87.9080538,9.80150941 84.9620803,9.78398937 82.0163306,9.79883119 C81.6306816,9.80072827 81.5029899,9.70018332 81.5093689,9.30414115 C81.5316394,7.91012626 81.5440617,6.51488385 81.5048925,5.12153852 C81.4905677,4.61312259 81.6481399,4.51313561 82.1284665,4.51670657 C85.1860164,4.53913669 88.24379,4.5192732 91.3013398,4.53835554 C91.742833,4.54114535 91.8727629,4.42274559 91.8593334,3.98117363 C91.8271028,2.92238295 91.8231858,1.86113722 91.8605645,0.802792905 C91.8773513,0.327408385 91.7222412,0.226082295 91.2692211,0.227644591 C86.6080831,0.243937113 81.9470571,0.248066039 77.2861429,0.22329248 C76.7597085,0.220391072 76.6861823,0.389342284 76.6884205,0.851893654 C76.7062146,4.53277591 76.6983807,8.21388135 76.6983807,11.8948752 C76.6983807,15.6316653 76.699276,19.3684555 76.6964782,23.1052456 C76.6962544,23.4117905 76.6477964,23.6670028 77.1301375,23.6651058 C81.9403423,23.6476973 86.7505472,23.6519378 91.5606401,23.6604189 C91.8783585,23.6609768 91.9789675,23.5640029 91.9743791,23.2479726 C91.9583756,22.151352 91.9420365,21.0533923 91.9801985,19.9578877 C91.9970972,19.4767003 91.8368391,19.3805075 91.3853858,19.3832973" id="Fill-7"></path>
                <path d="M124.250506,14.3440146 C123.131294,14.6129353 122.001383,14.5758582 120.884067,14.3296081 C119.832842,14.0978762 119.55042,13.7679792 119.479201,12.7041341 C119.458025,12.38641 119.353148,12.28791 119.045649,12.2977377 C118.452161,12.3167229 117.85756,12.3033216 117.263403,12.3033216 C116.669247,12.3034332 116.074868,12.3141543 115.480935,12.2987428 C115.199516,12.291372 115.095196,12.372562 115.089735,12.6747628 C115.043705,15.201367 116.162916,16.7474379 118.580555,17.4701066 C119.674578,17.7970999 120.8007,17.9068794 121.93362,17.951774 C123.593156,18.0174407 125.240989,17.9502105 126.819052,17.353403 C128.132192,16.8567707 129.172495,16.0296831 129.595682,14.6503475 C130.36103,12.1557949 130.046509,9.08051638 126.381822,7.94497396 C126.116118,7.86277891 125.850971,7.77567003 125.580586,7.71279529 C124.441425,7.44834167 123.299588,7.19516753 122.160204,6.93149565 C121.563262,6.7933499 120.96331,6.65676765 120.415964,6.36718646 C119.804421,6.04365515 119.555881,5.59303422 119.62175,4.96462183 C119.688621,4.32492995 120.074806,3.96912368 120.66339,3.80350513 C121.518123,3.56306229 122.385005,3.56551921 123.258016,3.68233445 C124.536494,3.85331354 124.927249,4.21637889 125.130539,5.47331535 C125.164866,5.68639707 125.209002,5.80790278 125.460551,5.80600426 C126.667365,5.79628827 127.87429,5.79718169 129.081103,5.80555755 C129.323625,5.80723272 129.390162,5.71386987 129.408887,5.47968099 C129.584537,3.28598905 128.43735,1.43425529 126.371791,0.654072431 C124.578066,-0.0233666235 122.711005,-0.0901500977 120.827783,0.0775903342 C119.651062,0.182456024 118.524606,0.478961248 117.512724,1.11630788 C115.870129,2.15100502 115.236518,3.68847674 115.310077,5.57974453 C115.383525,7.46777365 116.243831,8.82711888 117.966449,9.62706876 C118.591701,9.91732001 119.244035,10.1184522 119.908072,10.2953502 C121.396082,10.6918073 122.929341,10.9044423 124.394726,11.3863331 C125.304629,11.6852952 125.601205,12.10822 125.564537,12.9175508 C125.529875,13.6850024 125.143802,14.1292577 124.250506,14.3440146" id="Fill-9"></path>
                <path d="M114.849495,0.225147719 C113.954334,0.246462922 113.057718,0.249043183 112.162781,0.223801495 C111.800707,0.21370482 111.728584,0.342942263 111.740791,0.676469101 C111.766885,1.38581663 111.748743,2.09673475 111.748743,2.80697976 L111.786036,2.80697976 C111.786036,3.53595971 111.801827,4.2653884 111.779429,4.99369524 C111.768005,5.36480414 111.901501,5.48652517 112.264807,5.46779023 C112.76732,5.4420998 113.273304,5.44131451 113.775593,5.46812679 C114.102949,5.48562769 114.24014,5.36424322 114.300281,5.04978788 C114.580823,3.58229223 114.871109,2.11647936 115.173715,0.653471118 C115.236431,0.350009935 115.208321,0.216509452 114.849495,0.225147719" id="Fill-11"></path>
                <path d="M106.112921,8.57047025 C105.901722,9.8632179 105.374616,10.3492258 104.070288,10.381924 C103.216013,10.4035739 102.361069,10.3861647 101.506236,10.3861647 L101.506236,10.3911866 C100.633004,10.3911866 99.7595492,10.3786876 98.8866519,10.3977708 C98.5614899,10.4048015 98.4312466,10.3346065 98.435261,9.97236044 C98.4541061,8.26179103 98.4503148,6.55088683 98.4371567,4.84031742 C98.435038,4.5462575 98.5205658,4.46122006 98.8126095,4.46356362 C100.521829,4.47807132 102.231606,4.45351982 103.940491,4.48331641 C105.280502,4.50652873 105.903952,5.08984986 106.101659,6.40447066 C106.210157,7.12594973 106.231233,7.84620123 106.112921,8.57047025 M110.569068,19.8139376 C109.658481,17.7810741 108.743098,15.7504425 107.835633,13.7161282 C107.748544,13.5208322 107.537122,13.3157157 107.962085,13.1737634 C109.417955,12.6871975 110.212684,11.5726713 110.589586,10.1550459 C111.130408,8.12073155 111.128847,6.06655285 110.558586,4.03748363 C110.026128,2.14277803 108.785918,0.94176368 106.858028,0.483766756 C106.09586,0.302866898 105.320422,0.233229939 104.537179,0.233787928 C101.100564,0.235685088 97.663726,0.244278111 94.2271111,0.223297745 C93.7514111,0.220396205 93.6537287,0.367593559 93.6558474,0.816885864 C93.6739119,4.51657252 93.6661062,8.21625917 93.6662178,11.9160574 C93.6662178,15.6529061 93.6725738,19.3897548 93.657297,23.1266035 C93.6556243,23.5331539 93.7452781,23.6735438 94.1761512,23.662942 C95.4014189,23.6329222 96.6286937,23.6285699 97.8538499,23.6642812 C98.3342333,23.6782309 98.4316927,23.518981 98.4283474,23.0689075 C98.4080526,20.3361032 98.4273438,17.6029642 98.4084987,14.8701599 C98.4055994,14.4553513 98.5093034,14.3283531 98.9318133,14.3382853 C100.138682,14.3664079 101.347112,14.3688631 102.553757,14.3371693 C102.990429,14.3255632 103.197391,14.4485438 103.366551,14.8704947 C104.478971,17.6449249 105.631311,20.4033966 106.75622,23.1730281 C106.890143,23.5025761 107.032429,23.670977 107.430519,23.6635 C108.897651,23.635489 110.365675,23.6389485 111.832918,23.6608216 C112.256989,23.6670711 112.237029,23.5369482 112.093516,23.2240283 C111.574774,22.0920929 111.077998,20.9502253 110.569068,19.8139376" id="Fill-13"></path>
                <path d="M12.4761506,8.5877281 C12.3047196,9.78386324 11.7521077,10.2987544 10.5278068,10.3638684 C10.4722226,10.3666558 10.416527,10.3694432 10.3608314,10.3694432 C9.54411099,10.3698892 8.72739057,10.3696662 7.91067016,10.3696662 L7.91067016,10.3725651 C7.03825414,10.3725651 6.16550394,10.3578476 5.29364487,10.3797009 C4.94521314,10.3883976 4.80341212,10.311465 4.80786777,9.92546388 C4.82747262,8.23495297 4.82390811,6.54410756 4.80965003,4.85348515 C4.80697664,4.53337852 4.9076743,4.44663419 5.22012667,4.4496446 C6.89054938,4.46503112 8.56141766,4.44262031 10.231729,4.46625758 C11.6748022,4.48677295 12.2983703,5.09387175 12.487067,6.53529934 C12.5770711,7.22356763 12.5745091,7.90168974 12.4761506,8.5877281 M16.9813685,19.9040719 C16.0563758,17.8388211 15.12793,15.7750197 14.2086183,13.7070929 C14.125409,13.5200016 13.8861407,13.3039213 14.3151083,13.1565228 C15.7553967,12.6614781 16.581474,11.5894386 16.9534093,10.1562618 C17.481515,8.12189545 17.4916516,6.07481852 16.9235564,4.04758798 C16.3870963,2.13330346 15.142745,0.91275057 13.1897228,0.47200465 C12.6494754,0.350138905 12.0904028,0.24934601 11.5394619,0.246781589 C7.73534038,0.228942139 3.93110749,0.239645809 0.126874598,0.241318257 L0,0.223255814 L0,23.6375344 C1.49052589,23.6462311 2.98116318,23.6560428 4.47180046,23.6610602 C4.58920681,23.6613947 4.74236973,23.7024254 4.77890605,23.5160031 C4.78258196,20.6182074 4.79294135,17.7204117 4.78157944,14.822616 C4.78013136,14.4388448 4.88016067,14.3096203 5.2755995,14.3172021 C6.50001177,14.3406163 7.72564935,14.3439612 8.94983884,14.3156411 C9.36432556,14.3060524 9.56460697,14.4288101 9.72400781,14.8246229 C10.8467199,17.6115911 12.0044088,20.3843991 13.1321335,23.1693603 C13.2731548,23.5177871 13.4470365,23.6380919 13.8250983,23.6315136 C15.2351997,23.6066499 16.6460809,23.6086568 18.0562937,23.6290607 C18.5023042,23.635639 18.6550215,23.5850195 18.4218797,23.1023509 C17.9134902,22.0499348 17.4593482,20.9712056 16.9813685,19.9040719" id="Fill-15"></path>
                <path d="M123.199915,20.7681298 C122.928634,20.742151 122.786102,20.8030353 122.790811,21.1281715 C122.796324,21.5121319 123.047965,21.417601 123.258834,21.4317921 C123.503929,21.4254976 123.803119,21.4664687 123.795195,21.1004759 C123.786121,20.6955722 123.451442,20.7922776 123.199915,20.7681298" id="Fill-17"></path>
                <path d="M120.607727,20.7629175 C120.026027,20.7713409 119.997485,21.1715049 120.000142,21.5702467 C120.0028,21.9587055 120.078257,22.3317398 120.610731,22.3255043 C121.184112,22.3191594 121.195205,21.9005078 121.227907,21.52452 C121.200521,21.1253405 121.153952,20.7549317 120.607727,20.7629175" id="Fill-19"></path>
                <path d="M128.786622,22.3999729 C128.537906,22.8514967 128.046823,22.7111341 127.63482,22.7664319 C127.098738,22.8383412 126.900924,22.6464715 126.96675,22.1059806 C127.008964,21.7591434 126.974547,21.4029412 126.974547,21.0508641 C126.97477,20.318392 126.97477,20.318392 127.711117,20.3196184 C128.133701,20.3286489 128.615874,20.2542868 128.829616,20.7355778 C129.071983,21.2813085 129.078443,21.8699619 128.786622,22.3999729 M126.286317,22.7572899 C125.880775,22.7595197 125.474899,22.7668778 125.069913,22.751827 C124.825207,22.7426851 124.864191,22.5366564 124.862074,22.3765605 C124.857953,22.0813419 124.860849,21.7859004 124.861406,21.4906818 C124.861852,21.1953517 124.863745,20.9001332 124.861072,20.6048031 C124.859513,20.4381295 124.897494,20.3256387 125.100655,20.3170542 C125.335003,20.3073548 125.375769,20.4315517 125.372984,20.6250938 C125.367192,21.0311308 125.396486,21.4391746 125.364296,21.8426475 C125.334112,22.2247147 125.489824,22.3398812 125.8409,22.2989653 C125.986254,22.2819077 126.135506,22.2991883 126.282976,22.2980734 C126.41875,22.29707 126.48558,22.3670841 126.492708,22.4977473 C126.50095,22.6440187 126.455952,22.756398 126.286317,22.7572899 M124.173956,22.739229 C123.986166,22.8152633 123.767077,22.7924084 123.668281,22.5381057 C123.601118,22.3654118 123.507445,22.2028632 123.442732,22.0295003 C123.357636,21.8006167 123.175081,21.8067485 122.985063,21.8133263 C122.70839,21.8230257 122.799723,22.0349632 122.785578,22.1835759 C122.775108,22.2939484 122.781457,22.4062162 122.783128,22.517592 C122.785355,22.6681 122.740023,22.7646481 122.563371,22.7603001 C122.3973,22.756398 122.264978,22.7270768 122.264755,22.5229434 C122.26431,22.1885928 122.264644,21.8542421 122.264644,21.5198915 C122.262639,20.2470401 122.262639,20.2470401 123.54086,20.3211792 C124.152682,20.3564092 124.517904,20.9173022 124.147558,21.4031642 C123.8495,21.7939275 124.025038,22.0221421 124.15257,22.3367595 C124.201578,22.4577233 124.449738,22.6274071 124.173956,22.739229 M120.641918,22.7832665 C119.856452,22.7828205 119.530102,22.4136858 119.533109,21.5295909 C119.536228,20.6501785 119.860239,20.2979898 120.662301,20.3024493 C121.440416,20.3065744 121.760974,20.6820639 121.745715,21.5718446 C121.731235,22.4148007 121.395084,22.7838239 120.641918,22.7832665 M119.103731,20.7382535 C118.976422,21.3160926 118.811799,21.8859046 118.685158,22.4639666 C118.634924,22.6927387 118.524322,22.7557291 118.306124,22.7660974 C118.067098,22.7775806 117.98746,22.6711102 117.939343,22.4592841 C117.855138,22.0885886 117.838876,21.6951497 117.600185,21.3489814 C117.368064,21.6641562 117.424201,22.0487876 117.321952,22.3878207 C117.260915,22.5902818 117.230842,22.7773576 116.943364,22.7659859 C116.711021,22.7567325 116.619131,22.6480323 116.568229,22.4426725 C116.421316,21.8495597 116.259144,21.2600144 116.11535,20.6662327 C116.086947,20.5488364 115.954403,20.362764 116.219158,20.327311 C116.388459,20.3047906 116.554752,20.2987703 116.608438,20.5252011 C116.698324,20.9031433 116.79634,21.2794132 116.890903,21.6563521 C117.102307,21.8937087 116.999612,21.537395 117.092059,21.5497701 C117.150758,21.2407271 117.215248,20.932576 117.26615,20.6221951 C117.301346,20.4082509 117.391343,20.3036757 117.630146,20.3135981 C117.846228,20.3226286 117.964627,20.367335 118.002051,20.610489 C118.064982,21.0194247 118.169681,21.4221171 118.355467,21.8366271 C118.451367,21.4322624 118.568095,21.0314653 118.636038,20.6223066 C118.681593,20.3476017 118.824831,20.2686687 119.054835,20.3340003 C119.341866,20.4154975 119.131243,20.6129417 119.103731,20.7382535 M129.930962,19.8092292 C129.934415,19.527835 129.865024,19.4234829 129.563624,19.4240403 C124.873324,19.4325133 120.183024,19.4330708 115.492724,19.4232599 C115.165595,19.4224795 115.090857,19.5339668 115.095313,19.8392193 C115.11124,20.9339138 115.127168,22.0298348 115.089409,23.123303 C115.073259,23.5919959 115.244899,23.6682533 115.660688,23.6650201 C117.922302,23.6469592 120.184249,23.6564356 122.445863,23.6564356 C124.781768,23.6564356 127.117784,23.6503038 129.453467,23.6629019 C129.801647,23.6649087 129.942991,23.5895432 129.934526,23.2048002 C129.909243,22.0733148 129.917373,20.941049 129.930962,19.8092292" id="Fill-21"></path>
                <path d="M127.816813,20.7627971 C127.310263,20.7610064 127.537222,21.1326995 127.496322,21.3604609 C127.470509,21.5045045 127.476543,21.658845 127.49554,21.8050152 C127.517107,21.9722268 127.384575,22.2114042 127.637012,22.2853846 C127.84922,22.3475014 128.088583,22.3473895 128.282352,22.2149857 C128.514563,22.0562802 128.474446,21.7919203 128.483721,21.6249327 L128.483721,21.3863149 C128.483497,20.9399697 128.249722,20.7643641 127.816813,20.7627971" id="Fill-23"></path>
            </g>
        </g>
    </g>
</svg>