<?xml version="1.0" encoding="UTF-8"?>
<svg width="167px" height="28px" viewBox="0 0 167 28" version="1.1" xmlns="http://www.w3.org/2000/svg" xmlns:xlink="http://www.w3.org/1999/xlink">
    <!-- Generator: Sketch 48.2 (47327) - http://www.bohemiancoding.com/sketch -->
    <title>brand-8</title>
    <desc>Created with Sketch.</desc>
    <defs>
        <polygon id="path-1" points="3.40462759e-06 0.0357 25.3756747 0.0357 25.3756747 27.9222222 3.40462759e-06 27.9222222"></polygon>
        <polygon id="path-3" points="0.0673955315 0.019693095 17.8415222 0.019693095 17.8415222 11.8808906 0.0673955315 11.8808906"></polygon>
    </defs>
    <g id="New-AxumGear" stroke="none" stroke-width="1" fill="none" fill-rule="evenodd" transform="translate(-903.000000, -2773.000000)" opacity="0.600000024">
        <g id="Group-7" transform="translate(288.000000, 2707.000000)">
            <g id="brand-8" transform="translate(615.000000, 66.000000)">
                <g id="Group-3" transform="translate(0.000000, 0.042078)">
                    <mask id="mask-2" fill="white">
                        <use xlink:href="#path-1"></use>
                    </mask>
                    <g id="Clip-2"></g>
                    <path d="M16.9212011,20.2922533 C16.2261011,20.6995756 15.4512789,20.85272 14.6708567,20.9715644 C13.7351122,21.1142089 12.7964122,21.1753422 11.8284678,20.9315089 L11.8284678,18.0465756 C12.5060678,18.0465756 13.1745678,18.0572311 13.8426789,18.0440089 C14.7680011,18.0255756 15.3723344,17.0982311 15.00639,16.2559756 C14.7983344,15.7771756 14.4182344,15.5107867 13.8914456,15.4790533 C13.6333789,15.4634978 13.3706456,15.4931311 13.1158456,15.45852 C12.3313789,15.3517311 11.7838233,14.66052 11.8333678,13.8674978 C11.8815122,13.0964089 12.4996122,12.5122978 13.3021233,12.5035089 C14.2341344,12.4933978 15.1664567,12.4929311 16.0985456,12.5035089 C16.9953233,12.5138533 17.5915678,13.1273644 17.5940567,14.0351867 C17.5986456,15.7311311 17.5834789,17.4273867 17.6023011,19.1231756 C17.6083678,19.6716644 17.36679,20.0311533 16.9212011,20.2922533 M9.03017889,14.1200422 C9.02885667,15.9308644 9.02994556,17.7416089 9.02994556,19.64802 C7.72856778,18.6154422 6.89385667,17.3810311 6.48179,15.8774311 C5.35634556,11.7708422 8.03967889,7.60708667 12.2366456,6.93998667 C13.6562456,6.71443111 15.0223344,6.93026444 16.3227789,7.53700889 C17.10569,7.90217556 17.4097233,8.67614222 17.07769,9.40398667 C16.7469789,10.1290311 15.9153789,10.4216311 15.1377567,10.0866422 C12.1189678,8.78643111 9.03235667,10.8243644 9.03017889,14.1200422 M25.3592344,9.50128667 C25.3459344,7.69637556 24.5731344,6.24877556 23.0250456,5.32080889 C20.3708789,3.72994222 17.6913567,2.17952 14.9913789,0.667831111 C13.4850567,-0.175591111 11.8882011,-0.174813333 10.3819567,0.668842222 C7.68221222,2.18115333 5.00253444,3.73110889 2.34852333,5.32213111 C0.800123333,6.25033111 0.0289566667,7.69863111 0.0159677778,9.50362 C-0.00565444444,12.4974422 -0.00487666667,15.4917311 0.0156566667,18.4856311 C0.0281011111,20.3074978 0.791101111,21.8016089 2.37885667,22.6842311 C5.54713444,24.4454311 8.49685667,26.6078867 11.9099789,27.9222533 L13.3877567,27.9222533 C13.9675122,27.7222867 14.5724678,27.5966756 15.1125567,27.2825311 C17.7204456,25.7653978 20.3446678,24.2759533 22.9382456,22.7347867 C24.5303567,21.7888533 25.3464011,20.3374422 25.3596233,18.4832978 C25.3809344,15.4894756 25.3812456,12.4951867 25.3592344,9.50128667" id="Fill-1" fill="#FFFFFF" mask="url(#mask-2)"></path>
                </g>
                <g id="Group-6" transform="translate(149.100000, 9.608744)">
                    <mask id="mask-4" fill="white">
                        <use xlink:href="#path-3"></use>
                    </mask>
                    <g id="Clip-5"></g>
                    <path d="M17.8415533,0.871274444 C17.6584644,0.984285556 17.6534867,1.19117444 17.5885422,1.36360778 C16.3586422,4.62980778 15.1175422,7.89196333 13.9160311,11.1686633 C13.6851867,11.7982744 13.2743644,11.8706856 12.7127311,11.8764411 C12.1458867,11.8822744 11.8443422,11.67383 11.6640533,11.1230856 C10.8592089,8.66289667 10.0194422,6.21406333 9.19095333,3.76165222 C9.13114222,3.58439667 9.06083111,3.41071889 8.95163111,3.11804111 C8.84927556,3.38793 8.78137556,3.54994111 8.72576444,3.71607444 C7.91080889,6.15293 7.09103111,8.58823 6.28906444,11.0293633 C6.11639778,11.5549078 5.88524222,11.8913744 5.24684222,11.8806411 C4.63162,11.8703744 4.22414222,11.7663078 3.97999778,11.0953189 C2.77382,7.77949667 1.51327556,4.48350778 0.278631111,1.17803 C0.139797778,0.806174444 -0.189668889,0.366652222 0.437297778,0.11893 C1.07134222,-0.131592222 1.72786444,0.108585556 1.93732,0.65513 C2.32846444,1.67573 2.70242,2.70294111 3.08197556,3.72797444 C3.73460889,5.49034111 4.38560889,7.25325222 5.03878667,9.01538556 C5.07775333,9.12054111 5.12963111,9.22095222 5.21503111,9.41228556 C5.90538667,7.33624111 6.56789778,5.34590778 7.22893111,3.35510778 C7.47058667,2.62710778 7.72134222,1.90183 7.94409778,1.16807444 C8.09747556,0.663141111 8.41434222,0.491252222 8.93063111,0.488141111 C9.46488667,0.484952222 9.78960889,0.650541111 9.96406444,1.18254111 C10.8542311,3.89644111 11.7657867,6.60334111 12.6861311,9.36173 C12.8985422,9.13283 12.9348644,8.86893 13.0219756,8.63481889 C13.9653422,6.10081889 14.9033422,3.56487444 15.8436756,1.02970778 C16.22782,-0.00567 16.8488756,-0.233403333 17.8415533,0.294707778 L17.8415533,0.871274444 Z" id="Fill-4" fill="#FFFFFF" mask="url(#mask-4)"></path>
                </g>
                <path d="M44.6126722,14.96873 C43.2685167,14.96873 41.9866611,14.9726967 40.7048833,14.9670967 C40.0310944,14.9641411 39.8525944,14.7588856 39.8628611,14.1037633 C39.8699389,13.6507856 40.0967389,13.4020522 40.5224167,13.3981633 C42.2316611,13.3822967 43.9411389,13.38463 45.6505389,13.3953633 C46.0842278,13.3981633 46.3210611,13.6496967 46.3216056,14.0921744 C46.3234722,15.7440189 46.3258056,17.3958633 46.3194278,19.04763 C46.3175611,19.5490633 45.9681833,19.8357522 45.6068278,20.1009744 C43.9965167,21.2833522 42.1580056,21.7838522 40.19575,21.7424744 C36.9392722,21.6736411 34.3040833,20.3672078 32.6208167,17.5038967 C29.3110611,11.8737967 33.4195944,4.72827444 39.9501278,4.69389667 C41.8010833,4.68417444 43.5849167,4.94527444 45.2145944,5.89050778 C45.7919389,6.22534111 45.8662944,6.45906333 45.6043389,7.01074111 C45.2957944,7.66026333 45.1072611,7.69946333 44.43985,7.37707444 C41.6102167,6.01013 38.7924833,5.76909667 36.1076722,7.69013 C33.7322611,9.38980778 32.8011056,12.5828189 33.7360722,15.4772411 C34.6276389,18.2371856 37.0651167,19.9962856 40.0520167,20.0581967 C41.52225,20.0886856 42.9102722,19.8219078 44.1943056,19.0730633 C44.4904833,18.9002411 44.6299389,18.7105411 44.6216167,18.34903 C44.5968056,17.2552411 44.6126722,16.1605967 44.6126722,14.96873" id="Fill-7" fill="#FFFFFF"></path>
                <path d="M119.365097,6.46277333 L119.365097,12.4997289 C119.584819,12.6401956 119.800963,12.5838844 120.005286,12.5843511 C121.944908,12.5890956 123.884452,12.58404 125.823997,12.5890178 C126.476397,12.5906511 126.678774,12.7675178 126.698997,13.3111844 C126.722563,13.9466289 126.514974,14.1624622 125.842041,14.1641733 C123.902497,14.1689178 121.962952,14.1658844 120.023408,14.1659622 L119.426541,14.1659622 C119.284519,14.4143067 119.339274,14.6295956 119.338808,14.83454 C119.334063,16.7740844 119.33943,18.7137067 119.333986,20.6531733 C119.331963,21.3639844 119.197797,21.47404 118.407652,21.4735733 C117.638974,21.4731844 117.480774,21.3423622 117.480386,20.6451622 C117.476886,15.69064 117.477274,10.73604 117.480152,5.78159556 C117.480541,5.11084 117.654841,4.94361778 118.344186,4.94284 C121.205474,4.93972889 124.066841,4.93972889 126.92813,4.94291778 C127.604252,4.94369556 127.758252,5.10251778 127.748297,5.74659556 C127.739274,6.33677333 127.599197,6.46106222 126.906352,6.46176222 C124.621163,6.46432889 122.335897,6.46277333 120.05063,6.46277333 L119.365097,6.46277333 Z" id="Fill-9" fill="#FFFFFF"></path>
                <path d="M111.439432,9.68636667 C111.988854,9.68636667 112.447199,9.69258889 112.905232,9.68473333 C113.410399,9.67602222 113.437621,10.0051778 113.430854,10.3831778 C113.424166,10.7562778 113.475499,11.1510778 112.915577,11.1470333 C112.456766,11.1436889 111.997954,11.1463333 111.566132,11.1463333 C111.37371,11.3638 111.444021,11.5846889 111.442854,11.7862111 C111.425977,14.6857667 111.415632,17.5854778 111.403343,20.4851111 C111.39961,21.3689 110.615377,21.8312111 109.845766,21.3934 C109.503388,21.1986444 109.532554,20.8477889 109.546321,20.5210444 C109.668199,17.6222667 109.602166,14.7220889 109.615232,11.8226111 C109.616243,11.6172778 109.668821,11.4014444 109.521043,11.1469556 C109.113177,11.1469556 108.674666,11.1259556 108.239188,11.1523222 C107.675377,11.1863111 107.630032,10.8588667 107.640532,10.4210556 C107.650332,10.0089111 107.629021,9.63604444 108.22091,9.67532222 C108.658877,9.70448889 109.100343,9.68115556 109.597266,9.68115556 C109.719921,8.71196667 109.860388,7.77007778 109.95061,6.82344444 C110.004043,6.26352222 110.319121,6.11247778 110.805232,6.13277778 C111.303788,6.15362222 111.446821,6.45742222 111.442154,6.9055 C111.432899,7.80507778 111.439432,8.70473333 111.439432,9.68636667" id="Fill-11" fill="#FFFFFF"></path>
                <path d="M132.457819,13.1951789 C132.457897,15.6331233 132.458908,18.0709122 132.457274,20.5088567 C132.45673,21.3738233 131.773297,21.7904011 130.980508,21.4134122 C130.809786,21.3322122 130.714274,21.1898789 130.688452,21.0113011 C130.66123,20.8226122 130.647697,20.6304233 130.647619,20.4397122 C130.645441,15.6214567 130.656952,10.8032789 130.637819,5.98510111 C130.633308,4.84923444 131.059219,4.86432333 131.993097,4.96100111 C132.427797,5.00603444 132.459297,5.40137889 132.458986,5.76631222 C132.45673,8.24260111 132.457819,10.71889 132.457819,13.1951789" id="Fill-13" fill="#FFFFFF"></path>
                <path d="M85.2025767,20.1471044 C82.67651,20.13816 80.91741,18.25936 80.9230878,15.5763378 C80.92861,12.8881822 82.6854544,11.0397156 85.2265322,11.0485044 C87.7838656,11.0572156 89.6697433,12.9861044 89.6542656,15.5771933 C89.6384767,18.2431822 87.7749211,20.1562044 85.2025767,20.1471044 M91.4109544,10.5403822 C91.41041,9.87024889 91.2222656,9.68902667 90.5567989,9.68117111 C89.8269322,9.67246 89.6295322,9.83804889 89.6067433,10.5125378 C89.5923544,10.9375933 89.6040989,11.36366 89.6040989,11.94046 C89.4260656,11.7107044 89.35521,11.6250711 89.2905767,11.5348489 C87.16561,8.57011556 82.4849433,8.88970444 80.4757878,11.5336044 C79.3823878,12.9723378 79.0394656,14.5863822 79.1754989,16.3564489 C79.4552656,19.9985489 82.8889211,22.4715711 86.4279656,21.5783711 C87.7395322,21.2473489 88.7258322,20.4875378 89.5678544,19.2873489 C89.5678544,20.2836822 89.6261878,21.1311489 89.5553322,21.9678044 C89.4198433,23.5691711 88.3657211,24.8242711 86.8149878,25.2414711 C85.0418878,25.71856 83.3545767,25.4358378 81.7707878,24.5183711 C81.1196322,24.1412267 80.9481322,24.1976156 80.61291,24.84356 C80.35601,25.33846 80.5635211,25.6326156 80.9733322,25.8884267 C82.6090767,26.90996 84.3972656,27.1467156 86.2827544,26.9815156 C89.2871544,26.71816 91.3883989,24.5065489 91.4064433,21.4904822 C91.4281433,17.8406044 91.4134433,14.1904933 91.4109544,10.5403822" id="Fill-15" fill="#FFFFFF"></path>
                <path d="M70.0396278,20.1470267 C67.5304389,20.15216 65.7389833,18.2603711 65.7288722,15.59516 C65.7186833,12.9247378 67.49295,11.04866 70.0285833,11.0485044 C72.6220833,11.0482711 74.4689167,12.9494711 74.4630833,15.6135156 C74.4574056,18.2261489 72.5881722,20.1418933 70.0396278,20.1470267 M76.21355,5.64411556 C76.2130833,4.99459333 76.0288278,4.84160444 75.3156833,4.84300444 C74.6020722,4.84448222 74.4371833,4.98751556 74.4352389,5.65803778 C74.4296389,7.52112667 74.4354722,9.38421556 74.4295611,11.2473822 C74.4290944,11.4281378 74.4918611,11.6232044 74.37955,11.7914378 C74.24375,11.7961822 74.2132611,11.68986 74.1644944,11.61776 C72.2705278,8.81846 68.1311944,8.87710444 66.0023389,10.7965822 C64.0849611,12.5255044 63.59535,14.7322933 64.1156056,17.1508711 C64.6226389,19.5072267 66.0856389,21.0935822 68.4926278,21.5933822 C70.8021611,22.07296 72.7949833,21.4988044 74.2210389,19.4839711 C74.2635833,19.4239267 74.29065,19.3431933 74.3909056,19.3693267 C74.4031167,19.3802156 74.4259833,19.39126 74.4261389,19.4025378 C74.4297944,19.8249489 74.4275389,20.2475156 74.43415,20.6700044 C74.4450389,21.3558489 74.5765611,21.4732156 75.3177833,21.4736044 C76.0675611,21.4739933 76.2132389,21.3563156 76.2137056,20.6835378 C76.2172056,15.6704489 76.2172056,10.6572822 76.21355,5.64411556" id="Fill-17" fill="#FFFFFF"></path>
                <path d="M54.8125744,20.1470267 C52.3030744,20.1510711 50.4992522,18.2452044 50.5025967,15.5933711 C50.5060967,12.9062267 52.2679967,11.0436822 54.8020744,11.0485044 C57.3934744,11.0533267 59.2512744,12.9672044 59.2378967,15.6180267 C59.2247522,18.2447378 57.3699078,20.14306 54.8125744,20.1470267 M60.9908522,16.72636 C60.9907744,14.6317267 60.9949744,12.5371711 60.9875856,10.4426156 C60.9854078,9.84022667 60.7852856,9.68156 60.1048856,9.68109333 C59.4232411,9.68070444 59.2400744,9.83454889 59.2271633,10.4454156 C59.2173633,10.9061711 59.2251411,11.3673156 59.2251411,11.97616 C59.0860744,11.8040378 59.0243189,11.7386267 58.9748522,11.6648156 C56.9471856,8.64416 52.3932967,8.85719333 50.2775856,11.2801267 C48.6194411,13.1790711 48.2487522,16.2007378 49.3935633,18.5805822 C51.2585967,22.4577267 56.8554856,22.7976156 58.9971744,19.5101822 C59.0457856,19.4355156 59.0791522,19.3294267 59.2247522,19.3776489 L59.2247522,20.0025156 C59.22483,20.2329711 59.2210967,20.46366 59.2256856,20.6941933 C59.2389078,21.35826 59.3605522,21.4691711 60.0703522,21.4736044 C60.8296967,21.4781933 60.9845522,21.3577933 60.9882856,20.7039933 C60.9959856,19.3781933 60.9908522,18.05216 60.9908522,16.72636" id="Fill-19" fill="#FFFFFF"></path>
                <path d="M96.3437844,14.1592033 C96.6824289,12.2618922 98.70714,10.9360922 101.054707,11.0575033 C102.883107,11.1520033 104.424507,12.49927 104.552296,14.1592033 L96.3437844,14.1592033 Z M106.432029,14.8623922 C106.303151,13.3115033 105.77784,11.9405144 104.599662,10.8853811 C102.654051,9.14308111 99.5280067,8.93821444 97.1833956,10.3736033 C94.9213067,11.7584367 93.8044956,14.5858922 94.4759511,17.1799367 C95.7834733,22.2305922 102.325673,22.8848589 105.368807,20.18037 C105.771462,19.8225144 105.733118,19.4321478 105.323773,19.0478478 C104.943129,18.6906144 104.610396,18.8240811 104.244684,19.0777144 C102.732762,20.12647 101.07454,20.3908367 99.3057178,19.9247922 C97.2430511,19.3814367 95.8846622,17.5115033 96.1767956,15.5665922 C98.0538844,15.5665922 99.8959733,15.56667 101.737984,15.5665144 C103.083073,15.5663589 104.428162,15.5620811 105.773251,15.56737 C106.258351,15.5693922 106.473796,15.3653811 106.432029,14.8623922 Z" id="Fill-21" fill="#FFFFFF"></path>
                <path d="M141.524701,20.1467233 C139.154268,20.1354456 137.179646,18.0502233 137.204301,15.5844344 C137.229268,13.0901789 139.197668,11.0381678 141.554723,11.0489789 C143.969957,11.0602567 145.938046,13.10659 145.942479,15.6112678 C145.946834,18.09269 143.934879,20.1581567 141.524701,20.1467233 M147.734557,15.3652567 C147.655301,12.0759567 144.70309,9.12950111 141.004057,9.45819 C137.813223,9.74176778 135.277512,12.4755789 135.404523,15.8005011 C135.548412,19.5668122 138.704323,21.9443233 141.870268,21.7315233 C145.356346,21.4971789 147.994957,18.5705567 147.734557,15.3652567" id="Fill-23" fill="#FFFFFF"></path>
            </g>
        </g>
    </g>
</svg>