<?xml version="1.0" encoding="UTF-8"?>
<svg width="205px" height="24px" viewBox="0 0 205 24" version="1.1" xmlns="http://www.w3.org/2000/svg" xmlns:xlink="http://www.w3.org/1999/xlink">
    <!-- Generator: Sketch 48.2 (47327) - http://www.bohemiancoding.com/sketch -->
    <title>brand-2</title>
    <desc>Created with Sketch.</desc>
    <defs></defs>
    <g id="New-AxumGear" stroke="none" stroke-width="1" fill="none" fill-rule="evenodd" transform="translate(-476.000000, -2707.000000)" opacity="0.600000024">
        <g id="Group-7" transform="translate(288.000000, 2707.000000)" fill="#FFFFFF">
            <g id="brand-2" transform="translate(188.000000, 0.000000)">
                <path d="M23.8940364,0.549018182 C23.4544727,2.99556364 23.0306182,5.37534545 22.5977455,7.75309091 C22.4217455,8.71978182 22.4127273,8.71818182 23.3706909,8.71832727 C24.9944,8.71832727 26.6185455,8.6984 28.2416727,8.73025455 C28.7391273,8.74 28.8866182,8.57069091 28.9658909,8.09607273 C29.3562909,5.75876364 29.8093818,3.43207273 30.1936727,1.09403636 C30.2723636,0.615490909 30.4584,0.536218182 30.8845818,0.540145455 C32.9443636,0.559636364 35.0048727,0.569818182 37.0642182,0.535490909 C37.6335273,0.526181818 37.7852364,0.642254545 37.6781818,1.23163636 C37.0118545,4.89592727 36.3807273,8.56647273 35.7385455,12.2352727 C35.1213818,15.7609455 34.4981091,19.2856 33.8969455,22.8141818 C33.8243636,23.2402182 33.7136727,23.4307636 33.2230545,23.4233455 C31.1149818,23.3914909 29.0061818,23.3962909 26.8979636,23.4197091 C26.4074909,23.4250909 26.2989818,23.3272 26.3945455,22.8160727 C26.8572364,20.3437818 27.2531636,17.8592727 27.7164364,15.3871273 C27.8072,14.9030545 27.6517091,14.8684364 27.2620364,14.8714909 C25.5414545,14.8845818 23.82,14.9068364 22.1004364,14.8611636 C21.5026182,14.8451636 21.3357818,15.0604364 21.2460364,15.6074909 C20.8473455,18.0416727 20.3859636,20.4655273 19.9913455,22.9001455 C19.9173091,23.3576 19.7369455,23.4204364 19.3418909,23.4173818 C17.2576727,23.4010909 15.1728727,23.3839273 13.0895273,23.4258182 C12.4879273,23.4380364 12.4301818,23.2533091 12.5225455,22.7340364 C13.3746182,17.9485818 14.2058909,13.1593455 15.0438545,8.37127273 C15.4607273,5.9896 15.8969455,3.61127273 16.2821091,1.22465455 C16.3690909,0.685309091 16.5546909,0.526763636 17.1017455,0.534909091 C19.3504727,0.5688 21.5999273,0.549018182 23.8940364,0.549018182" id="Fill-1"></path>
                <path d="M49.4201745,0.549163636 C48.6262836,4.95352727 47.8517382,9.26101818 47.0721018,13.5674909 C46.9590836,14.1922182 46.9598109,14.8208727 46.9654836,15.4505455 C46.9774109,16.7928 47.5062836,17.6645091 48.4974109,17.9896 C49.8133382,18.4211636 51.3487564,18.0501091 52.0757382,17.0962182 C52.9294109,15.9762182 53.1283927,14.6159273 53.3721745,13.2908364 C54.1202473,9.22436364 54.8302109,5.15076364 55.5537018,1.07963636 C55.59792,0.831345455 55.5301382,0.541163636 55.9564655,0.543345455 C58.3283927,0.555854545 60.70032,0.549454545 63.1123927,0.549454545 C62.4095564,4.58203636 61.7241745,8.55818182 61.02032,12.5309818 C60.7506473,14.0527273 60.5254836,15.5824727 60.0936291,17.0744 C59.03472,20.7334545 56.6834473,22.9315636 52.8990109,23.5546909 C50.2003927,23.9989091 47.5049745,24.1096 44.83792,23.3795636 C41.3043927,22.4125818 39.4465018,19.9192 39.4165382,16.2611636 C39.3986473,14.0837091 39.9353745,11.9920727 40.2972655,9.87338182 C40.8019927,6.91774545 41.35472,3.97025455 41.8735564,1.0168 C41.9249018,0.724872727 41.9535564,0.537818182 42.3326109,0.540436364 C44.6809745,0.5576 47.0294836,0.549163636 49.4201745,0.549163636" id="Fill-3"></path>
                <path d="M158.5728,23.8991564 C156.497164,23.8659927 154.512582,23.6469382 152.689164,22.6689018 C151.194473,21.8674473 150.153018,20.6920291 149.654545,19.0457745 C149.536291,18.6549382 149.571782,18.5141382 150.000727,18.4034473 C151.872,17.9206836 153.733236,17.3993745 155.593164,16.87472 C155.939782,16.7769745 156.0848,16.8899927 156.272582,17.1813382 C157.000291,18.3107927 158.0768,18.7390109 159.392582,18.5854109 C160.194327,18.4915927 160.747491,17.9934109 160.861382,17.2975564 C160.971345,16.6264291 160.641309,16.02832 159.904727,15.6753018 C159.516073,15.48912 159.0912,15.3775564 158.680727,15.2380655 C158.018182,15.0127564 157.3376,14.83152 156.693091,14.5630109 C153.595491,13.27312 152.116945,11.0899927 152.152436,7.91021091 C152.188509,4.67472 153.859636,2.06933818 156.798691,0.939592727 C159.954327,-0.273498182 163.194909,-0.284989091 166.397527,0.749483636 C168.216582,1.33697455 169.497018,2.57566545 170.084945,4.45944727 C170.204655,4.84315636 170.190109,4.98817455 169.748655,5.10032 C167.876364,5.57508364 166.013818,6.08955636 164.155055,6.61581091 C163.760436,6.72737455 163.570036,6.62395636 163.339636,6.29566545 C162.698036,5.38104727 161.772218,5.12446545 160.712582,5.35966545 C160.037818,5.50948364 159.617745,5.94119273 159.516364,6.64868364 C159.419927,7.32228364 159.748364,7.76228364 160.306182,8.06061091 C161.206691,8.54250182 162.209309,8.75108364 163.157818,9.10482909 C163.632436,9.28184727 164.115636,9.44272 164.573382,9.65726545 C167.5376,11.0473745 168.880436,13.29872 168.709673,16.5606836 C168.543273,19.7395927 166.801018,22.03952 163.728291,23.0879564 C163.044509,23.32112 162.337164,23.50192 161.627636,23.63952 C160.6048,23.8380655 159.561891,23.8725382 158.5728,23.8991564" id="Fill-6"></path>
                <path d="M75.4862982,0.549018182 C77.9585891,0.549018182 80.4310255,0.561963636 82.9031709,0.538254545 C83.4033891,0.533454545 83.5783709,0.614036364 83.46928,1.16530909 C83.1500073,2.77854545 82.8643345,4.39934545 82.6108073,6.02421818 C82.5267345,6.564 82.3068073,6.70290909 81.7745891,6.69607273 C79.32688,6.66523636 76.8784436,6.69941818 74.4307345,6.66916364 C73.8942982,6.66247273 73.6659345,6.79818182 73.6016436,7.35105455 C73.4816436,8.38349091 73.3209164,9.41418182 73.1110255,10.4320727 C73.0179345,10.8834182 73.1821527,10.9066909 73.5338618,10.9046545 C75.27888,10.8944727 77.0241891,10.9101818 78.7692073,10.8925818 C79.1820073,10.8883636 79.3020073,10.9554182 79.2094982,11.4144727 C78.8988073,12.9557091 78.6343709,14.5065455 78.3805527,16.0584 C78.3030255,16.5322909 78.15568,16.7283636 77.6115345,16.7123636 C75.9406982,16.6630545 74.2666618,16.7187636 72.5952436,16.6796364 C72.0924073,16.6678545 71.9388073,16.8400727 71.8647709,17.2995636 C71.5645527,19.1616727 71.2205527,21.0168 70.9184436,22.8786182 C70.8528436,23.2829818 70.7219345,23.428 70.2825164,23.4221818 C68.1498618,23.3944 66.01648,23.3890182 63.8839709,23.4242182 C63.3527709,23.4328 63.3622255,23.2226182 63.43088,22.8345455 C64.1345891,18.8566545 64.8310255,14.8774545 65.5276073,10.8982545 C66.0908073,7.68181818 66.6634618,4.46683636 67.2010618,1.24589091 C67.2865891,0.732872727 67.4192436,0.523709091 67.9969891,0.532727273 C70.4928436,0.570836364 72.9897164,0.549018182 75.4862982,0.549018182" id="Fill-8"></path>
                <path d="M92.5603055,10.90016 C94.3987055,10.90016 96.2132509,10.9314327 98.02576,10.8840145 C98.7008145,10.8664145 98.8213964,11.0123055 98.6733236,11.6784873 C98.3539055,13.1173236 98.1213236,14.5768145 97.8971782,16.0348509 C97.8154327,16.5670691 97.6026327,16.7221236 97.0647418,16.7090327 C95.4419055,16.6688873 93.8165964,16.7202327 92.1936145,16.6799418 C91.6563055,16.6667055 91.4475782,16.8223418 91.36496,17.3522327 C91.0864145,19.1440873 90.7534691,20.92736 90.46256,22.7171782 C90.3838691,23.2015418 90.2494691,23.4421236 89.6615418,23.4283055 C87.6024873,23.3803055 85.5412509,23.3894691 83.4814691,23.4230691 C82.9227782,23.4322327 82.8586327,23.25856 82.9460509,22.7637236 C84.21616,15.5701236 85.4744873,8.37463273 86.7176873,1.17623273 C86.8039418,0.677032727 86.9790691,0.531723636 87.49936,0.534196364 C92.4679418,0.558923636 97.43696,0.561396364 102.405687,0.532741818 C102.995942,0.529250909 103.068524,0.695650909 102.970778,1.20765091 C102.662415,2.82292364 102.373251,4.44226909 102.112596,6.06568727 C102.038124,6.52954182 101.889178,6.70234182 101.384015,6.69623273 C98.8878691,6.66583273 96.3908509,6.70176 93.8948509,6.66670545 C93.3642327,6.65914182 93.1805236,6.82292364 93.11376,7.32066909 C92.9565236,8.49361455 92.7549236,9.66059636 92.5603055,10.90016" id="Fill-10"></path>
                <path d="M182.688567,0.549018182 L191.263404,0.549018182 C192.182822,0.549018182 192.182822,0.549018182 192.029804,1.43949091 C191.763476,2.98814545 191.486385,4.53490909 191.237513,6.08632727 C191.165222,6.53694545 191.003331,6.71221818 190.50544,6.69752727 C189.077658,6.65505455 187.645949,6.72370909 186.219331,6.66305455 C185.60784,6.63701818 185.453513,6.87498182 185.362458,7.40065455 C184.483331,12.4732364 183.573076,17.5401455 182.70864,22.6150545 C182.603622,23.2310545 182.421513,23.4437091 181.768713,23.4277091 C179.759258,23.3782545 177.747913,23.3954182 175.737731,23.42 C175.24624,23.4259636 175.057149,23.3539636 175.157804,22.7944 C176.075913,17.6793455 176.963622,12.5589091 177.877367,7.44327273 C177.97904,6.87410909 177.907476,6.64298182 177.240422,6.66567273 C175.691913,6.71832727 174.140058,6.66174545 172.590531,6.69447273 C172.096567,6.7048 172.038967,6.55090909 172.121585,6.11498182 C172.431549,4.47643636 172.722749,2.83396364 172.98864,1.18785455 C173.065876,0.710618182 173.208567,0.525309091 173.750676,0.531854545 C176.729585,0.567781818 179.709222,0.549018182 182.688567,0.549018182" id="Fill-12"></path>
                <path d="M11.8692509,0.402996364 C8.14052364,0.399214545 4.41165091,0.399650909 0.682923636,0.405469091 C0.456305455,0.405905455 0.188669091,0.30656 0.0211054545,0.57056 L0.0212509091,0.57056 C0.0157236364,7.97885091 0.0100509091,15.3871418 0.00466909091,22.7952873 C0.00452363636,22.8435782 0.0103418182,22.8925964 0.00525090909,22.9404509 C-0.0327127273,23.29376 0.139069091,23.3941236 0.473469091,23.3920873 C3.11201455,23.3750691 5.75070545,23.3707055 8.38939636,23.36256 C8.75143273,23.0021236 8.84292364,22.5314327 8.87230545,22.0573964 C8.92263273,21.2392145 9.15085091,20.4520145 9.25746909,19.6421236 C9.43230545,18.31456 9.82110545,17.0163782 10.0260509,15.6912873 C10.4474327,12.9663418 10.93296,10.2543418 11.4400145,7.54437818 C11.5626327,6.88910545 11.6932509,6.22612364 11.7960873,5.56241455 C12.0163055,4.14074182 12.2469964,2.71921455 12.5389236,1.31121455 C12.7018327,0.525469091 12.6712873,0.403869091 11.8692509,0.402996364" id="Fill-14"></path>
                <path d="M204.077062,1.20114909 C204.077062,0.933949091 204.103535,0.649003636 203.741789,0.572785455 L203.741789,0.572930909 C200.953135,0.570312727 198.164625,0.567694545 195.375825,0.565076364 C195.375971,0.565076364 195.375971,0.565076364 195.375971,0.564930909 C195.113571,0.633730909 195.093062,0.838967273 195.056262,1.06645818 C194.769571,2.83824 194.41888,4.59824 194.14528,6.37365818 C193.843025,8.33569455 193.362735,10.2703855 193.067462,12.2331491 C192.946735,13.0351855 192.626444,13.81744 192.728989,14.6516218 L192.728844,14.6516218 C192.341498,15.1298764 192.52768,15.7205673 192.41088,16.2498764 C191.935825,18.4037673 191.549498,20.5717673 191.259462,22.7578036 C191.154735,23.5479127 191.245498,23.6735855 192.067753,23.6743127 C195.699462,23.6776582 199.331462,23.6772218 202.963462,23.6748945 C203.841862,23.6743127 204.070953,23.4847855 204.071971,22.6293673 C204.081425,15.4866764 204.077644,8.34384 204.077062,1.20114909" id="Fill-16"></path>
                <path d="M141.514851,9.90228364 C141.44096,11.8004655 141.116015,13.6553018 140.351215,15.4020655 C139.681542,16.9310836 138.589324,17.9305018 136.803578,17.9307927 C135.347724,17.9310836 134.379287,17.2221382 133.944815,15.8330473 C133.633396,14.8375564 133.667433,13.8269382 133.808815,12.8135564 C134.03616,11.1806836 134.34816,9.56832 135.129978,8.09224727 C135.676015,7.06082909 136.475724,6.31653818 137.651869,6.08599273 C139.816669,5.66155636 141.303069,6.83101091 141.511651,9.10330182 C141.535942,9.36744727 141.514851,9.63595636 141.514851,9.90228364 M149.181033,8.46155636 C148.73536,4.17806545 146.36736,1.47537455 142.416233,0.454283636 C140.756305,0.0251927273 139.060887,-0.0325527273 137.367651,0.125265455 C133.023942,0.52992 129.598342,2.43901091 127.603724,6.43959273 C126.069615,9.51668364 125.651142,12.8311564 126.168669,16.20352 C126.760233,20.0603927 129.064669,22.4816291 132.836451,23.4900655 C133.989615,23.7982836 135.172596,23.8785745 136.361105,23.8951564 C136.482269,23.8951564 136.603869,23.9006836 136.724596,23.8941382 C137.135796,23.8720291 137.54816,23.8612655 137.957178,23.8186473 C142.418269,23.3547927 145.850705,21.3453382 147.807069,17.1796655 C149.106124,14.4135564 149.492887,11.4586473 149.181033,8.46155636" id="Fill-19"></path>
                <path d="M116.27408,11.2005818 C115.77808,11.5765818 115.20848,11.7992727 114.604553,11.8338909 C113.719607,11.8843636 112.82928,11.8466909 111.897207,11.8466909 C112.205571,10.1671273 112.50448,8.53250909 112.80688,6.89861818 C112.846298,6.68625455 112.876553,6.48916364 113.195825,6.50530909 C113.91888,6.54138182 114.649207,6.48669091 115.36688,6.56145455 C116.436116,6.67287273 117.039898,7.21629091 117.278444,8.15243636 C117.573135,9.30792727 117.169644,10.5217455 116.27408,11.2005818 M124.009789,4.84843636 C122.961498,2.17483636 120.732698,1.10807273 118.081207,0.697890909 C116.057062,0.384727273 114.015462,0.6304 112.336771,0.549090909 C110.286735,0.549090909 108.589862,0.560436364 106.89328,0.540654545 C106.501571,0.536145455 106.37488,0.6464 106.305644,1.04785455 C105.047316,8.34094545 103.771389,15.6308364 102.481789,22.9185455 C102.41328,23.3056 102.445862,23.4215273 102.865644,23.4180364 C105.047025,23.4 107.228698,23.4033455 109.410371,23.4161455 C109.763389,23.4183273 109.911316,23.3259636 109.973135,22.9498182 C110.236116,21.3504 110.567898,19.7618909 110.81168,18.1598545 C110.88688,17.6663273 111.045862,17.5313455 111.53168,17.5309091 C113.104916,17.5297455 114.67728,17.5854545 116.251825,17.4382545 C122.387825,16.8645818 126.268407,10.6088727 124.009789,4.84843636" id="Fill-21"></path>
            </g>
        </g>
    </g>
</svg>