<?xml version="1.0" encoding="UTF-8"?>
<svg width="177px" height="30px" viewBox="0 0 177 30" version="1.1" xmlns="http://www.w3.org/2000/svg" xmlns:xlink="http://www.w3.org/1999/xlink">
    <!-- Generator: Sketch 48.2 (47327) - http://www.bohemiancoding.com/sketch -->
    <title>brand-7</title>
    <desc>Created with Sketch.</desc>
    <defs>
        <polygon id="path-1" points="0.599506875 0.2934 5.89482 0.2934 5.89482 5.9762031 0.599506875 5.9762031"></polygon>
    </defs>
    <g id="New-AxumGear" stroke="none" stroke-width="1" fill="none" fill-rule="evenodd" transform="translate(-684.000000, -2772.000000)" opacity="0.600000024">
        <g id="Group-7" transform="translate(288.000000, 2707.000000)">
            <g id="brand-7" transform="translate(396.000000, 65.000000)">
                <path d="M0,14.43162 C0,12.37962 0.5556,10.36662 1.6068,8.60442 L1.6266,8.57082 C3.3408,5.73222 5.2092,4.90302 8.3964,5.66142 C10.5558,6.17502 12.4296,7.34202 14.3802,8.21982 C16.4184,8.10462 18.009,7.10802 19.6584,6.15102 C22.6284,4.42902 24.7494,4.99122 26.7516,7.88982 C25.6896,8.59842 24.8088,8.02722 23.8632,7.64022 C23.3754,7.44042 22.836,7.40922 22.3206,7.52322 C19.7982,8.08122 17.6166,9.69822 15.1194,10.58082 C13.4124,10.30422 12.0654,9.17382 10.4988,8.55702 C5.886,6.74142 3.4488,8.41482 2.6526,13.81902 C2.3538,15.85062 2.4354,17.93022 2.907,19.92882 C4.47,26.54742 8.5332,28.58442 15.1434,25.94382 C17.4372,27.48342 19.8336,28.42062 22.5768,26.68782 C23.2536,26.26002 24.084,26.90262 24.894,27.29442 C23.8464,28.52322 22.5174,29.12022 21.054,29.49162 C20.1558,29.87322 19.2114,29.61402 18.2916,29.69082 C15.9306,29.16702 13.5672,29.26962 11.2032,29.69082 C10.1292,29.69082 9.0558,29.69202 7.9818,29.69082 C3.8754,29.11422 1.4868,26.92002 0.657,22.97142 L0.6504,22.94022 C0.2178,20.85222 0,18.72642 0,16.59462 L0,14.43162 Z" id="Fill-1" fill="#FFFFFF"></path>
                <path d="M176.4,25.2 C174.4602,25.002 172.476,25.4034 170.298,24.9126 C172.7094,22.1418 171.654,19.272 171.5256,16.5882 C170.0484,15.8418 169.1058,16.158 168.1554,17.2428 L168.1554,22.7166 C168.0624,23.6634 169.2378,23.6814 169.5342,24.6504 C167.6712,25.5822 165.8286,25.1814 163.9992,24.9306 C163.8234,23.6634 165.2268,23.8002 165.3348,22.32 C165.1314,20.7276 166.0662,18.3828 164.6514,16.377 C163.2864,15.8586 162.4026,16.356 161.5674,17.4174 L161.5674,23.1 C161.9778,23.4696 162.4806,23.922 163.1442,24.5202 C161.187,25.656 159.2988,25.1106 157.455,24.9666 C157.1136,23.6616 158.5902,23.8944 158.802,22.5342 L158.802,17.5656 C158.7372,16.1124 157.3752,16.0548 157.2498,15.081 C157.3512,14.913 157.4574,14.613 157.5402,14.6196 C160.9098,14.8704 164.4066,13.5726 167.9232,15.3954 C169.2366,14.556 170.8584,13.8462 172.7622,14.4936 C174.3048,15.9666 174.3048,15.9666 174.6666,23.0418 C175.0182,23.7546 175.7136,23.8686 176.4,24 L176.4,25.2 Z" id="Fill-3" fill="#FFFFFF"></path>
                <path d="M32.32968,10.07634 C32.42628,12.11994 32.63088,13.78134 32.27868,15.42834 C30.84288,15.85554 30.78408,14.73714 30.45348,13.96434 C29.66868,12.13254 28.42548,11.05074 26.29788,11.23014 C24.19068,11.40774 23.09868,12.75654 22.49508,14.55774 C21.87888,16.39674 21.89028,18.32694 22.42368,20.17554 C23.37528,23.47134 25.72248,24.54174 29.17848,23.36514 C29.80428,22.36794 29.62308,21.29274 29.50368,20.63814 C29.06868,19.11774 27.42468,19.82934 27.10008,18.36534 C29.53248,17.73474 31.91028,17.98854 34.29708,18.19374 C34.59588,19.80594 32.69928,19.33014 32.44548,20.37654 L32.44548,23.98734 C30.57168,25.27554 28.47468,25.56234 26.40948,25.53054 C21.63528,25.45734 18.13968,21.32454 18.76068,16.70754 C19.40988,11.87994 23.72688,8.76234 28.50828,9.79494 C29.68188,10.04874 30.81168,10.34814 32.32968,10.07634" id="Fill-5" fill="#FFFFFF"></path>
                <path d="M62.25936,18.98436 C63.59316,17.78976 64.32276,17.13576 64.91676,16.60476 C65.27076,15.65856 63.74496,15.55596 64.49016,14.51856 C65.99676,14.35896 67.62336,14.17956 69.59076,14.73216 C68.32116,16.56516 65.94516,16.73676 64.97976,18.78516 C66.61476,20.65476 67.76916,23.09736 70.41216,24.45996 C69.15096,25.54956 67.94256,25.03296 66.87156,25.12176 C65.13816,23.91336 64.54296,21.81096 62.91036,20.60316 C62.13036,22.80096 62.13036,22.80096 64.04196,24.51456 C62.16096,25.74516 60.22956,24.99576 58.23156,25.04916 C60.70416,20.55636 58.92216,15.87516 59.51316,11.39076 C59.37756,10.25436 57.88536,10.54596 57.59676,9.32556 C59.03556,8.59176 60.51156,8.77176 62.25936,9.07356 L62.25936,18.98436 Z" id="Fill-7" fill="#FFFFFF"></path>
                <path d="M76.92888,23.10588 C76.39548,21.07068 74.86848,21.16368 73.74828,20.68008 C71.44188,19.68468 70.37928,18.35748 70.91568,16.75788 C71.58588,14.75748 73.17588,14.12928 75.16908,14.27088 C76.15008,14.34108 77.13348,14.36928 78.17748,14.41908 C78.88548,15.52008 78.46308,16.68588 78.60288,18.03228 C76.62288,17.66868 75.66708,13.89288 73.12248,16.66668 C73.73928,18.18828 75.15048,18.22668 76.29708,18.68688 C78.65628,19.63368 79.52568,20.83548 79.16508,22.60188 C78.80808,24.34548 77.12988,25.39248 74.78268,25.37568 C73.50528,25.36668 72.30048,24.78528 70.92108,25.29768 C70.63968,23.70348 70.48308,22.47228 70.99428,20.97588 C72.81468,22.13568 73.88508,25.57608 76.92888,23.10588" id="Fill-9" fill="#FFFFFF"></path>
                <path d="M97.20702,11.59338 C96.83442,10.29198 95.59782,10.51278 95.38782,9.34518 C96.78162,8.47698 98.28762,8.98278 99.93822,8.82978 L99.93822,22.52898 C99.94482,23.57118 101.54742,23.65098 101.28822,24.93858 C99.52482,25.31838 97.73382,25.29738 95.97222,24.94638 C95.53662,23.64138 97.06482,23.85558 97.20702,22.38858 L97.20702,11.59338 Z" id="Fill-11" fill="#FFFFFF"></path>
                <path d="M143.67834,22.05234 C142.73454,24.61674 141.60774,25.37094 139.06554,25.38054 C136.80534,25.38954 135.22434,24.38574 134.41674,22.29294 C133.51794,19.96314 133.81374,17.78154 135.50454,15.86994 C137.01414,14.16474 138.97254,13.96434 141.00654,14.45094 C142.36134,14.77494 143.38794,15.70374 143.25474,17.22294 C143.12694,18.68274 142.10574,18.92274 141.06414,18.56094 C139.74714,17.85234 140.74494,16.51734 139.86174,15.70974 C137.76594,15.53934 137.24454,17.09514 136.93494,18.68694 C136.46814,21.07974 137.23854,22.43994 139.57254,23.74734 C140.38554,23.73594 141.10254,23.45514 141.74154,22.91874 C142.22454,22.51494 142.49694,21.68934 143.67834,22.05234" id="Fill-13" fill="#FFFFFF"></path>
                <path d="M13.3752,24.94104 C15.1584,22.81464 13.9782,20.53104 14.289,18.84744 C14.1894,17.56224 13.0212,17.58144 12.6498,16.63284 C13.9896,16.07304 15.189,16.21224 16.3368,16.41924 C17.4924,19.20444 15.423,22.33584 17.946,24.81504 C16.3026,25.45104 14.853,24.92304 13.3752,24.94104" id="Fill-15" fill="#FFFFFF"></path>
                <path d="M132.01698,23.66718 C131.30898,25.26018 130.26858,25.79358 128.90538,24.86238 C128.03838,24.26958 128.00238,23.22318 128.83578,22.55658 C130.17378,21.48678 131.19978,22.04358 132.01698,23.66718" id="Fill-17" fill="#FFFFFF"></path>
                <path d="M13.71504,13.23048 C15.28524,11.81928 15.28524,11.81928 16.83324,13.04028 C16.02444,14.77008 15.08244,14.89008 13.71504,13.23048" id="Fill-19" fill="#FFFFFF"></path>
                <path d="M19.40448,2.55588 C18.48468,2.20308 17.96568,2.64948 17.43048,3.04548 C16.49988,3.74868 15.97428,4.59288 16.37028,5.74608 C17.06988,6.09348 17.59968,6.09228 18.00468,5.48028 C19.24428,4.83168 19.65168,3.84108 19.40448,2.55588" id="Fill-21" fill="#FFFFFF"></path>
                <g id="Group-25" transform="translate(9.600000, 0.306660)">
                    <mask id="mask-2" fill="white">
                        <use xlink:href="#path-1"></use>
                    </mask>
                    <g id="Clip-24"></g>
                    <path d="M1.78182,2.02656 C3.97482,2.40876 4.60002,3.87936 5.53122,5.66616 C3.27162,5.25096 2.22642,4.21416 1.78182,2.02656 M1.79982,0.29316 L0.59982,0.29316 C0.57162,4.62216 2.44902,6.57936 5.89482,5.81376 C5.60802,2.89836 5.28942,2.46816 1.79982,0.29316" id="Fill-23" fill="#FFFFFF" mask="url(#mask-2)"></path>
                </g>
                <path d="M89.7867,23.17968 C88.7253,23.61348 87.6921,23.75928 86.5263,23.20068 C85.9149,21.63888 86.2695,19.99908 86.2953,18.24228 C87.9975,17.74428 89.5095,17.70948 90.5547,19.25028 C91.5735,20.75208 90.8931,22.04388 89.7867,23.17968 M86.4177,11.64048 C87.6987,11.32608 88.8393,11.28408 89.6685,12.42288 C90.3141,13.31088 90.2721,14.34048 89.7267,15.24228 C88.9863,16.46928 87.8061,16.43688 86.3445,16.15728 C86.1837,14.49528 86.0745,13.13268 86.4177,11.64048 M91.3845,17.06928 C91.4535,16.49388 91.9941,16.31688 92.3073,15.94728 C94.1775,13.74348 93.5787,10.99548 90.8295,10.38528 C87.6789,9.68568 84.4323,9.96588 80.9715,10.26348 C81.4695,11.60688 82.7451,11.41848 83.1771,12.46428 L83.1771,22.68348 C82.7595,23.84988 81.3051,23.44548 81.1941,24.84948 C83.8017,25.49988 86.4603,25.11948 89.0757,25.12428 C91.2993,25.12848 93.2217,24.27288 94.0803,22.03968 C94.8009,20.16588 93.9849,18.80988 91.3845,17.06928" id="Fill-26" fill="#FFFFFF"></path>
                <path d="M122.3619,28.01364 C120.7431,28.39584 118.9989,28.70664 117.7947,26.74344 C119.1267,23.90724 121.4433,25.55844 123.3141,25.14264 C124.0005,26.92644 123.4113,27.76584 122.3619,28.01364 M120.1491,15.65184 C122.3175,17.20764 122.3751,17.81244 120.4077,20.02044 C118.0287,18.37164 118.0017,17.33184 120.1491,15.65184 M126.1233,25.31244 C125.6499,22.87824 123.7725,22.69344 121.7661,22.65804 C120.8139,22.64064 119.6619,22.99344 118.8669,21.82404 C123.8811,20.76984 124.5645,20.08224 124.4325,16.38144 C124.9563,15.94464 126.2235,16.40844 125.9679,14.81124 C124.4319,14.04144 122.6013,14.61024 120.9003,14.32644 C119.0475,14.01564 117.3255,14.41524 116.2725,16.27344 C115.2105,18.14664 116.3019,19.45224 117.5415,20.78424 C116.1285,21.80964 116.2485,22.99824 117.0741,24.13464 C116.3679,24.91644 115.4781,25.32444 115.2813,26.29764 C115.7769,28.54944 115.7769,28.54944 118.1205,29.50524 C119.5761,29.51124 121.0323,29.51724 122.4879,29.52264 C125.5101,28.54464 126.5307,27.41124 126.1233,25.31244" id="Fill-28" fill="#FFFFFF"></path>
                <path d="M109.0494,24.0369 C106.443,23.2221 105.9534,22.5141 106.0176,19.6281 C106.062,17.6427 106.2984,15.7467 108.8958,15.6303 C111.9096,17.8809 112.0032,21.2823 109.0494,24.0369 M108.8292,14.2719 C105.372,14.1771 103.1526,16.2435 103.077,19.6257 C102.9996,23.1081 105.0684,25.3275 108.4326,25.3695 C111.8298,25.4121 113.9748,23.2947 114.0378,19.8363 C114.099,16.5237 112.074,14.3601 108.8292,14.2719" id="Fill-30" fill="#FFFFFF"></path>
                <path d="M152.8125,20.9742 C152.4195,23.037 151.7733,23.6052 149.4819,23.9004 C146.4327,20.94 146.8167,17.1222 150.3135,15.6318 C152.3541,16.7604 153.2499,18.6744 152.8125,20.9742 M150.1623,14.271 C146.9673,14.2926 144.7323,16.4682 144.6495,19.638 C144.5601,23.0262 146.7507,25.3392 150.0747,25.368 C153.5661,25.398 155.7303,23.1624 155.7291,19.5294 C155.7279,16.4268 153.4233,14.2494 150.1623,14.271" id="Fill-32" fill="#FFFFFF"></path>
                <path d="M51.6381,15.58416 C53.1483,15.83736 53.5827,16.70256 53.6019,18.14736 C52.1997,18.50616 51.0561,18.61176 49.8111,18.07356 C49.6671,16.55976 50.6571,16.02756 51.6381,15.58416 M49.8657,20.08596 C50.7939,19.58316 51.8049,19.85736 52.7781,19.81656 C53.8593,19.77156 54.9435,19.80576 56.2545,19.80576 C56.5005,16.07136 55.3557,14.48796 52.5255,14.27436 C49.1655,14.02176 46.8387,16.15836 46.7361,19.59276 C46.6323,23.06256 48.5253,25.25676 51.7221,25.37436 C54.6441,25.48116 56.2107,24.32136 56.2767,22.00116 C51.6315,24.47016 50.1189,24.02196 49.8657,20.08596" id="Fill-34" fill="#FFFFFF"></path>
                <path d="M40.23342,15.58944 C41.79042,15.68664 42.19302,16.62444 42.36162,17.92644 C41.13762,18.81804 39.84222,18.53244 38.37342,18.21204 C38.44542,16.53144 39.31182,15.97044 40.23342,15.58944 M44.60862,21.80424 C43.67202,22.42944 42.86922,23.77164 41.13582,23.73744 C39.38562,23.33544 38.19402,22.28964 38.46402,20.02944 C40.55262,19.47864 42.67062,20.09904 44.95662,19.59864 C45.45102,17.21724 44.77302,15.47664 42.64602,14.54844 C40.13202,13.45164 37.30962,14.58504 36.05202,17.05704 C34.71282,19.68984 35.43402,23.07564 37.65222,24.56484 C39.89682,26.07204 43.21782,25.57404 44.92482,23.45184 C45.29202,22.99644 45.74382,22.47744 44.60862,21.80424" id="Fill-36" fill="#FFFFFF"></path>
            </g>
        </g>
    </g>
</svg>