<?xml version="1.0" encoding="UTF-8"?>
<svg width="74px" height="28px" viewBox="0 0 74 28" version="1.1" xmlns="http://www.w3.org/2000/svg" xmlns:xlink="http://www.w3.org/1999/xlink">
    <!-- Generator: Sketch 48.2 (47327) - http://www.bohemiancoding.com/sketch -->
    <title>brand-6</title>
    <desc>Created with Sketch.</desc>
    <defs>
        <polygon id="path-1" points="0.131841379 0.0452344828 5.43811494 0.0452344828 5.43811494 5.16701715 0.131841379 5.16701715"></polygon>
        <polygon id="path-3" points="0.129524138 0.0805402299 5.42184598 0.0805402299 5.42184598 5.14942529 0.129524138 5.14942529"></polygon>
        <polygon id="path-5" points="0 27.9061839 73.5070805 27.9061839 73.5070805 0 0 0"></polygon>
    </defs>
    <g id="New-AxumGear" stroke="none" stroke-width="1" fill="none" fill-rule="evenodd" transform="translate(-570.000000, -2773.000000)" opacity="0.600000024">
        <g id="Group-7" transform="translate(288.000000, 2707.000000)">
            <g id="brand-6" transform="translate(282.000000, 66.000000)">
                <path d="M21.7284345,10.0240483 C18.6262276,6.71618621 15.5491241,3.43551954 12.3960667,0.0735885057 L17.9159287,0.0735885057 C19.8851011,2.27770345 21.9511471,4.59011724 24.0711011,6.96271494 C26.1582276,4.63855402 28.2279747,2.33402529 30.2945034,0.0328758621 L35.1486414,0.0328758621 C32.0054,3.36294483 28.945354,6.60515172 25.8688943,9.86441609 L25.8688943,18.0236805 L21.7284345,18.0236805 L21.7284345,10.0240483 Z" id="Fill-1" fill="#FFFFFF"></path>
                <path d="M65.6487839,27.7519103 C64.2988299,27.7480483 62.9490368,27.7441862 61.5992437,27.7403241 C61.162669,27.6560023 60.9644161,27.3714966 60.9616805,26.9471517 C60.9549218,25.876554 60.9537954,24.8057954 60.9591057,23.7351977 C60.9620023,23.1854966 61.2500483,22.8881172 61.8011977,22.8842552 C63.0323931,22.8752437 64.2637494,22.8784621 65.4949448,22.8776575 C66.1922092,22.8771747 66.4139563,23.3044161 66.4287609,23.9313586 C66.2469218,24.096623 66.0100483,24.1168989 65.764646,24.164692 C65.5197264,24.0135885 65.7535425,23.6989908 65.5190828,23.5047609 L61.756623,23.5047609 L61.756623,27.0689678 L65.586669,27.0689678 C65.7034966,26.6303011 65.6291517,26.1650828 65.6249678,25.6420943 L63.8051287,25.6420943 C63.602531,25.4190598 63.6668989,25.258623 63.7397954,25.0864391 L66.4240943,25.0864391 C66.4240943,25.6871517 66.4432437,26.2460253 66.4183011,26.8028069 C66.3964161,27.2911977 66.230669,27.6999333 65.6487839,27.7519103" id="Fill-3" fill="#FFFFFF"></path>
                <path d="M55.8264161,27.7349494 C54.5329448,27.7355931 53.2394736,27.7360759 51.9458414,27.7365586 C51.3396575,27.5749954 51.2912207,27.1162138 51.3253356,26.6170414 C51.488508,26.3973862 51.7010828,26.4255471 51.9479333,26.4390644 C51.9759333,26.6394092 52.0042552,26.8412023 52.0378874,27.0820989 L55.7515885,27.0820989 L55.7515885,25.6566736 C54.4343011,25.4529494 53.0832207,25.7971563 51.8019793,25.4434552 C51.3853586,24.823754 51.4418414,24.185708 51.5408069,23.5483057 C51.5942322,23.2036161 51.7907149,22.9126736 52.1543931,22.9055931 C53.3590368,22.8820989 54.5648069,22.8923977 55.7697724,22.9107425 C55.912669,22.9129954 56.0536345,23.0463977 56.150669,23.0961218 C56.3778874,23.357777 56.3534276,23.6331103 56.4163471,23.9218 C56.230646,23.9996851 56.0647379,24.0693632 55.912508,24.1330874 C55.6542322,23.9872943 55.8621402,23.7069724 55.6452207,23.5151563 L52.2335655,23.5151563 C52.0827839,23.9568805 52.150531,24.3947425 52.1951057,24.9380069 C53.2061632,24.9380069 54.1890598,24.9363977 55.1719563,24.9388115 C55.7155425,24.9400989 56.2687839,24.9119379 56.4353356,25.627708 C56.6580483,26.5851793 56.4383931,27.3759379 55.8264161,27.7349494" id="Fill-5" fill="#FFFFFF"></path>
                <g id="Group-9" transform="translate(68.068966, 22.595839)">
                    <mask id="mask-2" fill="white">
                        <use xlink:href="#path-1"></use>
                    </mask>
                    <g id="Clip-8"></g>
                    <path d="M5.43816322,0.303349425 L5.43816322,4.99833793 C5.29607126,5.18323448 5.12662299,5.08732644 4.97938161,5.10583218 C3.62009425,3.86015402 2.26096782,2.61415402 0.82122069,1.29445287 L0.82122069,5.01764828 C0.565358621,5.2270046 0.368714943,5.17711954 0.131841379,5.10277471 L0.131841379,0.0452344828 C1.89294483,1.29847586 3.23614023,2.7539931 4.79014023,4.05213103 L4.79014023,0.392981609 C5.0246,0.214521839 5.23476092,0.289671264 5.43816322,0.303349425" id="Fill-7" fill="#FFFFFF" mask="url(#mask-2)"></path>
                </g>
                <g id="Group-12" transform="translate(12.873563, 22.756759)">
                    <mask id="mask-4" fill="white">
                        <use xlink:href="#path-3"></use>
                    </mask>
                    <g id="Clip-11"></g>
                    <path d="M0.760650575,4.93387356 C0.554673563,4.9481954 0.343868966,5.02141379 0.129524138,4.87964368 L0.129524138,0.127367816 C0.503822989,0.0279195402 0.719937931,0.280563218 0.960190805,0.492494253 C1.98025977,1.3921954 3.00386897,2.28803448 4.02635172,3.185 C4.24069655,3.41929885 4.45504138,3.6535977 4.74871954,3.97463218 L4.74871954,0.330931034 C4.95373103,-0.00136781609 5.18465057,0.183528736 5.42184598,0.0805402299 L5.42184598,5.14950575 C3.67538621,3.98782759 2.39285747,2.47437931 0.760650575,1.16352874 L0.760650575,4.93387356 Z" id="Fill-10" fill="#FFFFFF" mask="url(#mask-4)"></path>
                </g>
                <path d="M21.036046,27.6915655 C20.7803448,27.6943011 20.5246437,27.6970368 20.2689425,27.6997724 L20.2689425,22.9582782 C20.5071034,22.8097494 20.7343218,22.8752437 21.0165747,22.9236805 L21.0165747,24.8996115 C22.4807816,24.3809678 23.3605287,22.8491747 25.0669195,22.9827379 C23.9937471,23.7001172 22.9207356,24.4176575 21.7241379,25.2175885 C22.9957241,26.0342552 24.1907126,26.8018414 25.3857011,27.5694276 C25.0550115,27.9078414 24.6445057,27.6395885 24.2790575,27.714577 C23.2457931,27.0118414 22.2126897,26.3094276 21.036046,25.5093356 L21.036046,27.6915655 Z" id="Fill-13" fill="#FFFFFF"></path>
                <path d="M50.1730069,27.7027333 L45.5213057,27.7027333 L45.5213057,22.8920437 L50.0539264,22.8920437 C50.2325471,23.0582736 50.1295586,23.2150092 50.1736506,23.463469 L46.2169609,23.463469 L46.2169609,24.8562276 C46.9811678,25.0243885 47.7577655,24.8620207 48.4772368,24.9490782 C48.6630989,25.1182046 48.5539954,25.269469 48.6164322,25.469492 L46.3017655,25.469492 C46.0919264,26.0275609 46.1963632,26.5481356 46.2119724,27.1285724 L49.9892368,27.1285724 C50.2584552,27.3298828 50.1786391,27.5239517 50.1730069,27.7027333" id="Fill-15" fill="#FFFFFF"></path>
                <path d="M3.18498391,27.7027333 C2.93089195,27.6962966 2.67696092,27.6896989 2.42286897,27.6832621 L2.42286897,25.6151241 C1.65238621,24.7511471 0.859535632,23.8623885 6.43678161e-05,22.8988023 L0.92696092,22.8988023 C1.54457011,23.5944575 2.16523678,24.2936529 2.86201839,25.0784575 C3.4970069,24.3300207 4.10866207,23.609423 4.70374253,22.9079747 L5.61181149,22.9079747 C4.76955862,23.8551471 3.99263908,24.7284575 3.18498391,25.6362046 L3.18498391,27.7027333 Z" id="Fill-17" fill="#FFFFFF"></path>
                <path d="M59.0215379,27.6929816 C58.7975379,27.8073954 58.5955839,27.7851885 58.347446,27.6965218 L58.347446,22.9804529 C58.527354,22.7847747 58.7597218,22.8731195 59.0215379,22.9104529 L59.0215379,27.6929816 Z" id="Fill-19" fill="#FFFFFF"></path>
                <path d="M55.900423,10.8828598 C55.2528828,13.3314115 53.3871816,14.186377 51.1341471,14.5141701 C50.4209517,14.6181241 49.6972966,14.692469 48.9775034,14.7009977 C46.8892506,14.7252966 44.800354,14.7093655 42.6453195,14.7093655 L42.6453195,3.24449195 C42.7188598,3.19862989 42.7631126,3.14649195 42.8070437,3.14697471 C45.6995724,3.17352644 48.5969287,2.9681931 51.4839862,3.25945747 C54.2767448,3.54106667 55.944354,5.29637701 56.122492,8.09315862 C56.1821931,9.03083678 56.1430897,9.96513563 55.900423,10.8828598 M59.4466069,4.48888276 C57.8309747,1.44525057 55.0255034,0.222583908 51.8215954,0.0930436782 C47.4051586,-0.085737931 42.9761701,0.0481471264 38.5045379,0.0481471264 L38.5045379,17.9712046 C38.5418713,18.0117563 38.5597333,18.0476414 38.5774345,18.0474805 C43.266308,18.0148138 47.9612966,18.2915954 52.642446,17.8667678 C54.2794805,17.7184 55.838308,17.2395034 57.1699172,16.1925609 C60.3892736,13.6616184 61.4569747,8.2758023 59.4466069,4.48888276" id="Fill-21" fill="#FFFFFF"></path>
                <mask id="mask-6" fill="white">
                    <use xlink:href="#path-5"></use>
                </mask>
                <g id="Clip-24"></g>
                <path d="M27.3144828,27.0708506 L31.4126207,27.0708506 L31.4126207,23.5307816 L27.3144828,23.5307816 L27.3144828,27.0708506 Z M32.1708736,23.7298391 C32.1689425,23.1727356 31.8701149,22.8871034 31.3225057,22.8838851 C30.0085977,22.8761609 28.6943678,22.8755172 27.3804598,22.884046 C26.838,22.8877471 26.5272644,23.1664598 26.524046,23.7251724 C26.518092,24.7977011 26.5177701,25.8705517 26.5253333,26.9432414 C26.5285517,27.3656552 26.7227816,27.6564368 27.1627356,27.7396322 C28.6185747,27.7402759 30.0744138,27.7409195 31.5302529,27.7414023 C31.9711724,27.6604598 32.1655632,27.3728966 32.1682989,26.947908 C32.1747356,25.8752184 32.1745747,24.8025287 32.1708736,23.7298391 Z" id="Fill-23" fill="#FFFFFF" mask="url(#mask-6)"></path>
                <path d="M43.2242437,25.4875632 C43.1313931,26.4223448 42.671646,26.9982759 41.8170023,27.0647356 C40.9691172,27.1305517 40.1122207,27.0792184 39.1668184,27.0792184 L39.1668184,23.4908736 C40.1548644,23.4755862 41.1351862,23.3597241 42.0944276,23.5986897 C42.9014391,23.7995172 43.3158069,24.5651724 43.2242437,25.4875632 M42.1592782,22.964023 C40.9271172,22.7446897 39.6753241,22.9081839 38.4418759,22.863931 L38.4418759,27.7127586 C39.5708874,27.721931 40.6997379,27.7312644 41.8287494,27.7405977 C43.2644736,27.5103218 43.9308414,26.7858621 43.9709103,25.4104828 C44.009531,24.082092 43.3988414,23.1849655 42.1592782,22.964023" id="Fill-25" fill="#FFFFFF" mask="url(#mask-6)"></path>
                <path d="M7.41932414,25.9349678 C7.86957701,25.0717954 8.29070345,24.2643011 8.77330115,23.3388529 C9.25573793,24.2556115 9.67976092,25.0616575 10.1391862,25.9349678 L7.41932414,25.9349678 Z M9.26764598,22.9207839 C8.9219908,22.8651057 8.63668046,22.8239103 8.36488736,22.928669 C7.66134713,24.1617954 5.7044046,27.6656575 5.7044046,27.6656575 L6.48261149,27.6656575 C6.67346207,27.3158184 6.87493333,26.9468299 7.05628966,26.614692 L10.4928874,26.614692 C10.7083586,27.0131287 10.8974391,27.3623241 11.0865195,27.7113586 C11.3488184,27.7084621 11.6111172,27.7052437 11.8734161,27.7020253 C11.0002667,26.0997494 10.1269563,24.4973126 9.26764598,22.9207839 Z" id="Fill-26" fill="#FFFFFF" mask="url(#mask-6)"></path>
            </g>
        </g>
    </g>
</svg>