<?xml version="1.0" encoding="UTF-8"?>
<svg width="162px" height="24px" viewBox="0 0 162 24" version="1.1" xmlns="http://www.w3.org/2000/svg" xmlns:xlink="http://www.w3.org/1999/xlink">
    <!-- Generator: Sketch 48.2 (47327) - http://www.bohemiancoding.com/sketch -->
    <title>brand-4</title>
    <desc>Created with Sketch.</desc>
    <defs>
        <polygon id="path-1" points="0 0.0743980547 6.1833658 0.0743980547 6.1833658 23.3801099 0 23.3801099"></polygon>
        <polygon id="path-3" points="0.0346705059 0.0460717949 20.0857436 0.0460717949 20.0857436 23.8974343 0.0346705059 23.8974343"></polygon>
    </defs>
    <g id="New-AxumGear" stroke="none" stroke-width="1" fill="none" fill-rule="evenodd" transform="translate(-990.000000, -2707.000000)" opacity="0.600000024">
        <g id="Group-7" transform="translate(288.000000, 2707.000000)">
            <g id="brand-4" transform="translate(702.000000, 0.000000)">
                <path d="M21.9133333,11.0437744 L21.9133333,10.5555692 C21.9133333,7.32490256 21.9219487,4.0942359 21.9030769,0.863671795 C21.9005128,0.432082051 22.0210256,0.328594872 22.4419487,0.335466667 C24.0483077,0.361415385 25.6554872,0.3568 27.2619487,0.337928205 C27.6425641,0.333415385 27.7872821,0.402748718 27.7864615,0.832287179 C27.772,8.26787692 27.7723077,15.7034667 27.7860513,23.1390564 C27.7868718,23.5576205 27.658359,23.6418256 27.2701538,23.6365949 C25.6978462,23.6156718 24.1249231,23.6169026 22.5526154,23.6366974 C22.2115897,23.6410051 22.0421538,23.5206974 21.8763077,23.2336205 C19.7333333,19.5243897 17.5763077,15.8232615 15.4222564,12.1203897 C15.3294359,11.9609026 15.2299487,11.8053128 15.0415385,11.6525949 L15.0415385,12.1748513 C15.0415385,15.8157744 15.0345641,19.4565949 15.0512821,23.0974154 C15.0531282,23.5098256 14.9728205,23.6474667 14.5300513,23.6395692 C12.9067692,23.6102359 11.2825641,23.6196718 9.65876923,23.6347487 C9.32820513,23.6378256 9.18574359,23.5906462 9.18635897,23.2034667 C9.1985641,15.7337231 9.19784615,8.26387692 9.18779487,0.794133333 C9.18728205,0.438441026 9.27682051,0.333723077 9.63969231,0.337415385 C11.4855385,0.355876923 13.3317949,0.357005128 15.177641,0.336492308 C15.5384615,0.332389744 15.7166154,0.459569231 15.8891282,0.762133333 C17.7578462,4.03854359 19.6419487,7.3062359 21.5221538,10.5759795 C21.6153846,10.7382359 21.7123077,10.8982359 21.8074872,11.059159 C21.8427692,11.0541333 21.8780513,11.0490051 21.9133333,11.0437744" id="Fill-1" fill="#FFFFFF"></path>
                <path d="M131.355128,0.111384615 C131.526,0.109333333 131.696872,0.107487179 131.867744,0.105435897 C133.88241,0.251794872 135.804667,0.718051282 137.587846,1.70441026 C137.948154,1.90389744 137.967231,2.05333333 137.746821,2.39087179 C136.804462,3.83405128 135.883436,5.29169231 134.97841,6.75866667 C134.780359,7.07938462 134.643231,7.156 134.278,6.96523077 C132.747436,6.16594872 131.107026,5.94512821 129.406513,6.18502564 C128.314103,6.33917949 127.573077,6.96676923 127.164769,7.9825641 C126.751128,9.01138462 126.632872,10.096 126.604051,11.1927179 C126.563128,12.7466667 126.550513,14.2997949 126.836667,15.8377436 C127.224154,17.9197949 128.247128,18.7803077 130.362513,18.7683077 C130.837795,18.765641 131.317179,18.7332308 131.783949,18.6124103 C132.661897,18.3849231 133.100769,17.9118974 133.186513,17.0110769 C133.247949,16.366359 133.240359,15.7153846 133.286205,15.0687179 C133.308769,14.7504615 133.195128,14.6603077 132.883128,14.6652308 C131.823949,14.6822564 130.764154,14.6635897 129.704769,14.6769231 C129.400667,14.6807179 129.295744,14.6379487 129.349692,14.2811282 C129.563949,12.8641026 129.74559,11.441641 129.913385,10.0181538 C129.954,9.67425641 130.072564,9.56717949 130.421282,9.56902564 C133.104051,9.58297436 135.787026,9.58358974 138.469795,9.56841026 C138.820359,9.56646154 138.899538,9.68338462 138.898923,10.0066667 C138.890923,14.4154872 138.89041,18.8244103 138.899949,23.2331282 C138.900564,23.5524103 138.803949,23.665641 138.490718,23.632 C138.288051,23.6101538 138.080359,23.6393846 137.876154,23.6262564 C134.985487,23.4393846 132.117897,23.9475897 129.233795,23.9122051 C127.343436,23.8888205 125.53441,23.5061538 123.959641,22.3821538 C122.285692,21.1873846 121.391128,19.4810256 120.965077,17.5284103 C120.138308,13.7386667 120.095846,9.93641026 121.078923,6.16841026 C121.963949,2.77610256 124.274718,0.921128205 127.670513,0.338974359 C128.308359,0.229641026 128.957179,0.184820513 129.600974,0.110051282 C129.839231,0.108512821 130.077487,0.106871795 130.315744,0.105230769 C130.662205,0.107282051 131.008667,0.109230769 131.355128,0.111384615" id="Fill-3" fill="#FFFFFF"></path>
                <path d="M86.7276308,0.102564103 C86.9325538,0.104717949 87.1374769,0.106871795 87.3422974,0.109025641 C87.6890667,0.108820513 88.0357333,0.108615385 88.3825026,0.108307692 L88.9942974,0.111282051 C90.9896821,0.266666667 92.8956308,0.727897436 94.6578872,1.71651282 C94.9855795,1.90030769 95.040759,2.02533333 94.8231179,2.35846154 C93.8619897,3.83005128 92.9234256,5.31661538 91.9998359,6.812 C91.8136821,7.11333333 91.6736821,7.13938462 91.3683487,6.98020513 C89.8372718,6.18153846 88.2013744,5.94830769 86.5006564,6.18051282 C85.5250667,6.31374359 84.7874256,6.80676923 84.3485538,7.71712821 C83.8318359,8.78882051 83.6951179,9.93794872 83.6613744,11.1013333 C83.6134769,12.7572308 83.5797333,14.4149744 83.9413744,16.0492308 C84.4827077,18.4962051 85.8119385,18.7362051 87.5314256,18.7629744 C88.0033231,18.770359 88.484041,18.7178462 88.9508103,18.5907692 C89.6722462,18.394359 90.0849641,17.9252308 90.2135795,17.2031795 C90.3460923,16.4595897 90.3131692,15.7060513 90.328759,14.9550769 C90.3348103,14.6686154 90.1798359,14.6691282 89.9754256,14.6698462 C88.9159385,14.6740513 87.8562462,14.6594872 86.7970667,14.6788718 C86.4557333,14.6851282 86.3594256,14.6035897 86.4110154,14.2488205 C86.6170667,12.830359 86.7986051,11.4081026 86.9750154,9.98553846 C87.0132718,9.67682051 87.1238359,9.56646154 87.4546051,9.56830769 C90.1373744,9.58328205 92.8203487,9.58369231 95.5032205,9.56841026 C95.8704,9.56625641 95.9562462,9.67979487 95.9553231,10.0315897 C95.9441436,14.4062564 95.9428103,18.7809231 95.9570667,23.1555897 C95.9584,23.5437949 95.8545026,23.6818462 95.4709128,23.6330256 C95.2523487,23.6050256 95.0265026,23.6403077 94.8052718,23.6260513 C91.9488615,23.4411282 89.1154256,23.9590769 86.2657846,23.9102564 C84.1019897,23.8732308 82.0641436,23.3909744 80.3992205,21.8824615 C79.0831179,20.6900513 78.3564513,19.1567179 77.9989128,17.4568205 C77.2119385,13.7158974 77.1590154,9.96348718 78.1084513,6.244 C78.9853744,2.80871795 81.3043487,0.917538462 84.7464,0.334461538 C85.4010667,0.223589744 86.0669128,0.178153846 86.7276308,0.102564103" id="Fill-5" fill="#FFFFFF"></path>
                <path d="M60.5966256,11.9879795 C60.5966256,8.29710769 60.6068821,4.60592821 60.5841128,0.915158974 C60.5811385,0.426851282 60.7312923,0.334646154 61.1833949,0.336184615 C65.8996,0.351979487 70.6159077,0.351569231 75.3321128,0.336082051 C75.749959,0.334646154 75.8802154,0.427569231 75.8727282,0.862030769 C75.8457538,2.45074872 75.8506769,4.04038974 75.8707795,5.62921026 C75.8752923,5.98705641 75.7838051,6.08377436 75.4215487,6.08162051 C72.6534462,6.06572308 69.8851385,6.08305641 67.1169333,6.06213333 C66.6989846,6.05895385 66.6062667,6.18644103 66.6227795,6.5742359 C66.6528308,7.27351795 66.6494462,7.97577436 66.6236,8.6753641 C66.6108821,9.01854359 66.725959,9.10203077 67.0558051,9.09967179 C69.0037026,9.08531282 70.9520103,9.10644103 72.8996,9.0822359 C73.3494462,9.07659487 73.4408308,9.19864615 73.3760103,9.63115897 C73.153241,11.1158769 72.9608308,12.6055179 72.7768308,14.0958769 C72.7278051,14.4920821 72.6197026,14.6675692 72.1557026,14.6574154 C70.4649333,14.6206974 68.7726256,14.6526974 67.0811385,14.6350564 C66.7274974,14.6312615 66.6116,14.7220308 66.6228821,15.0862359 C66.649241,15.9397744 66.6500615,16.7953641 66.6224718,17.6488 C66.6107795,18.0141333 66.7246256,18.0994667 67.0785744,18.0975179 C69.8295487,18.0829538 72.5809333,18.0989538 75.3319077,18.0793641 C75.7497538,18.0763897 75.8807282,18.1706462 75.8727282,18.6055179 C75.8451385,20.1258256 75.8526256,21.6470564 75.869241,23.1676718 C75.8729333,23.5033641 75.8181641,23.6381333 75.4346769,23.6370051 C70.6329333,23.6230564 65.8312923,23.6233641 61.0296513,23.6363897 C60.6484205,23.6375179 60.5888308,23.5016205 60.5898564,23.1634667 C60.6006256,19.4383385 60.5966256,15.7131077 60.5966256,11.9879795" id="Fill-7" fill="#FFFFFF"></path>
                <g id="Group-11" transform="translate(0.000000, 0.261641)">
                    <mask id="mask-2" fill="white">
                        <use xlink:href="#path-1"></use>
                    </mask>
                    <g id="Clip-10"></g>
                    <path d="M0.00992820513,11.7282462 C0.00992820513,8.02188718 0.0173128205,4.31552821 -2.05128205e-05,0.609271795 C-0.00196923077,0.176861538 0.123158974,0.0689641026 0.543466667,0.0746051282 C2.26818462,0.0976820513 3.99351795,0.0935794872 5.71844103,0.0765538462 C6.07238974,0.0730666667 6.18326154,0.169579487 6.18274872,0.531630769 C6.17331282,7.99563077 6.17300513,15.4596308 6.1833641,22.9235282 C6.18387692,23.2906051 6.06859487,23.3771692 5.71915897,23.3738872 C3.9942359,23.3573744 2.26859487,23.3453744 0.544184615,23.3797333 C0.0575179487,23.3893744 -0.000430769231,23.2144 0.00131282051,22.796041 C0.0161846154,19.1068103 0.00992820513,15.4175795 0.00992820513,11.7282462" id="Fill-9" fill="#FFFFFF" mask="url(#mask-2)"></path>
                </g>
                <path d="M51.4352103,11.9960923 C51.4352103,8.2898359 51.4419795,4.58357949 51.4258769,0.877323077 C51.4240308,0.460912821 51.5189026,0.3284 51.9549026,0.335169231 C53.6795179,0.361425641 55.4049538,0.354451282 57.1297744,0.33865641 C57.4749026,0.335476923 57.5976718,0.412912821 57.5972615,0.785938462 C57.5862872,8.24973333 57.5865949,15.7135282 57.5965436,23.1773231 C57.5970564,23.5331179 57.5035179,23.6396821 57.1424923,23.6359897 C55.3835179,23.618041 53.6240308,23.6161949 51.8650564,23.6371179 C51.4830051,23.6417333 51.4275179,23.5018359 51.428441,23.1661436 C51.4392103,19.442759 51.4352103,15.7194769 51.4352103,11.9960923" id="Fill-12" fill="#FFFFFF"></path>
                <path d="M42.6426974,15.7095385 C42.1847487,17.5342564 41.337159,18.2052308 39.4539795,18.2581538 C38.7543897,18.2777436 38.0532615,18.2432821 37.3541846,18.2692308 C37.0126462,18.2818462 36.9670051,18.1374359 36.9685436,17.8471795 C36.9785949,15.9518974 36.9737744,14.0567179 36.9737744,12.1613333 C36.9736718,10.2830769 36.985159,8.40471795 36.9642359,6.52687179 C36.9599282,6.1414359 37.0619795,6.02615385 37.4461846,6.04902564 C38.4664923,6.10953846 39.492441,5.97630769 40.5118256,6.14892308 C41.4585949,6.30933333 42.0791077,6.85097436 42.4320308,7.72235897 C42.8287487,8.70215385 42.9235179,9.73641026 42.9672103,10.7789744 C43.0363385,12.4342564 43.0495692,14.0883077 42.6426974,15.7095385 M48.6777744,6.45415385 C48.1650564,4.37158974 47.1671077,2.61517949 45.1945949,1.56728205 C43.7624923,0.806564103 42.2016718,0.534871795 40.6093641,0.437948718 C37.5200308,0.250051282 34.4259795,0.389846154 31.3345949,0.335794872 C30.8913128,0.328102564 30.8090564,0.472820513 30.8108,0.882769231 C30.8262872,4.59117949 30.8199282,8.29969231 30.8199282,12.0081026 C30.8199282,15.7165128 30.8266974,19.4251282 30.8100821,23.1334359 C30.8082359,23.5422564 30.9223897,23.6403077 31.3200308,23.6371282 C33.6440308,23.618359 35.9683385,23.6221538 38.292441,23.6301538 C39.6429026,23.6347692 40.9895692,23.6114872 42.328441,23.4021538 C45.0577744,22.9755897 47.1816718,21.7373333 48.2343897,19.0433846 C48.7608513,17.6958974 49.0225949,16.2890256 49.1303897,14.854359 C49.3421846,12.0358974 49.3593128,9.22276923 48.6777744,6.45415385" id="Fill-14" fill="#FFFFFF"></path>
                <path d="M111.757272,15.3551692 C111.305169,18.0946564 108.416349,19.3768103 106.036144,17.9042974 C105.275426,17.4338359 104.901785,16.7005026 104.684964,15.8699385 C104.375836,14.686041 104.362605,13.4737333 104.358297,12.2615282 C104.357785,11.1687077 104.373785,10.0759897 104.5944,9.0004 C105.01881,6.93250256 106.175426,5.92952821 108.592554,6.1284 C110.667118,6.29927179 111.540759,7.25137436 111.829169,9.59034872 C112.065682,11.5076821 112.073477,13.4390667 111.757272,15.3551692 M117.764349,7.11916923 C117.310297,4.80173333 116.257272,2.80255385 114.1704,1.50501538 C112.68281,0.579887179 111.024964,0.226451282 109.3024,0.109733333 C109.098195,0.109425641 108.894092,0.109015385 108.689887,0.108707692 C108.343015,0.108605128 107.996144,0.1084 107.649272,0.108194872 C107.445374,0.109323077 107.241477,0.110246154 107.037477,0.111271795 C106.664246,0.150246154 106.289272,0.177835897 105.917682,0.229938462 C102.335221,0.732502564 99.820759,2.57988718 98.8425026,6.13824615 C97.7715282,10.0336308 97.7791179,13.9795795 98.8395282,17.8777333 C99.6784,20.9616308 101.746708,22.8661436 104.867015,23.586759 C106.648862,23.9982462 108.454605,24.0004 110.266503,23.8106564 C114.061067,23.4132205 116.689477,21.1826564 117.612759,17.4812205 C118.469682,14.0457333 118.441374,10.5739385 117.764349,7.11916923" id="Fill-16" fill="#FFFFFF"></path>
                <g id="Group-20" transform="translate(141.025641, 0.056513)">
                    <mask id="mask-4" fill="white">
                        <use xlink:href="#path-3"></use>
                    </mask>
                    <g id="Clip-19"></g>
                    <path d="M13.6456,15.4342769 C13.2130872,17.8722256 11.6534974,18.6284308 9.16918974,18.2657641 C7.52139487,18.0252513 6.68139487,16.9279179 6.42744615,14.9759179 C6.30601026,14.0426872 6.29842051,13.1053538 6.27226667,12.1676103 C6.30601026,11.0939692 6.30221538,10.0199179 6.51524103,8.95766154 C6.96385641,6.71950769 8.27954872,5.92043077 10.4509333,6.05981538 C12.3654974,6.18258462 13.243241,6.9697641 13.6202667,8.87027692 C14.0521641,11.0478154 14.0324718,13.2529436 13.6456,15.4342769 M20.0782154,11.1360205 C20.0806769,10.8969436 20.083241,10.6578667 20.0858051,10.4186872 C20.0841641,10.248841 20.0827282,10.0789949 20.0811897,9.90925128 C19.9932923,8.61335385 19.8169846,7.33130256 19.4412923,6.0846359 C18.7087795,3.6537641 17.2892923,1.81171282 14.8849846,0.831097436 C13.6890872,0.343302564 12.4327795,0.129251282 11.1503179,0.0460717949 C10.979241,0.0489435897 10.8082667,0.0518153846 10.6371897,0.0548923077 C10.2907282,0.0528410256 9.94426667,0.0507897436 9.59780513,0.0487384615 C9.39370256,0.0504820513 9.18970256,0.0520205128 8.9856,0.0536615385 C8.59513846,0.0929435897 8.20262564,0.117558974 7.81442051,0.173764103 C4.39708718,0.668020513 1.96826667,2.39889231 0.844164103,5.75858462 C0.429805128,6.9966359 0.198317949,8.27243077 0.123446154,9.57007179 C-0.0251692308,12.1494564 -0.0545025641,14.7258667 0.582215385,17.2599179 C1.40611282,20.5387897 3.36036923,22.7307897 6.71308718,23.5058667 C9.00724103,24.0363282 11.3201641,24.0320205 13.6150359,23.4673026 C16.4204718,22.7771487 18.2917538,21.0486359 19.2613949,18.3310974 C19.7591385,16.9359179 19.9698051,15.4881231 20.0801641,14.0203282 C20.0812923,13.8507897 20.0823179,13.6810462 20.0834462,13.5114051 C20.0806769,13.2717128 20.0781128,13.0320205 20.0753436,12.7924308 C20.0762667,12.2402256 20.0772923,11.6881231 20.0782154,11.1360205" id="Fill-18" fill="#FFFFFF" mask="url(#mask-4)"></path>
                </g>
            </g>
        </g>
    </g>
</svg>