<?xml version="1.0" encoding="UTF-8"?>
<svg width="195px" height="32px" viewBox="0 0 195 32" version="1.1" xmlns="http://www.w3.org/2000/svg" xmlns:xlink="http://www.w3.org/1999/xlink">
    <!-- Generator: Sketch 48.2 (47327) - http://www.bohemiancoding.com/sketch -->
    <title>brand-3</title>
    <desc>Created with Sketch.</desc>
    <defs>
        <polygon id="path-1" points="0.04097406 0.0402505176 3.21562301 0.0402505176 3.21562301 26.8571429 0.04097406 26.8571429"></polygon>
        <polygon id="path-3" points="0 0.0030080994 26.5359938 0.0030080994 26.5359938 24.3487493 0 24.3487493"></polygon>
        <polygon id="path-5" points="0.0331121541 0.0268571429 20.8145775 0.0268571429 20.8145775 25.111887 0.0331121541 25.111887"></polygon>
    </defs>
    <g id="New-AxumGear" stroke="none" stroke-width="1" fill="none" fill-rule="evenodd" transform="translate(-738.000000, -2707.000000)" opacity="0.600000024">
        <g id="Group-7" transform="translate(288.000000, 2707.000000)">
            <g id="brand-3" transform="translate(450.000000, 0.000000)">
                <path d="M51.3997714,20.089381 C51.8567238,20.144619 52.2252952,20.183381 52.5921524,20.2347143 C53.2856762,20.3319524 53.9832952,20.3623333 54.6802476,20.3217619 C56.1420571,20.2368095 57.0172952,19.377381 57.1274857,17.9254762 C57.1610095,17.4834762 57.1572,17.0380476 57.1573905,16.5942381 C57.1592,11.6144286 57.1585333,6.63461905 57.1585333,1.65480952 C57.1585333,1.46442857 57.180819,1.271 57.1545333,1.08442857 C57.0806286,0.56052381 57.3347238,0.440047619 57.8086286,0.446809524 C59.2673905,0.467571429 60.7267238,0.448619048 62.1856762,0.456714286 C62.855581,0.460333333 62.868819,0.472428571 62.8703429,1.13280952 C62.8763429,3.60680952 62.872819,6.08080952 62.872819,8.55490476 C62.8729143,11.504619 62.8772,14.4545238 62.8703429,17.4043333 C62.8685333,18.1957619 62.8626286,18.985 62.7250095,19.7737619 C62.1697714,22.9549048 60.5412,24.5935714 57.3605333,25.0416667 C55.526819,25.2999524 53.6912,25.1861429 51.8647238,24.8944286 C51.5738667,24.8480476 51.395581,24.7645238 51.3971048,24.4334762 C51.4034857,23.0132857 51.3997714,21.5930952 51.3997714,20.089381" id="Fill-1" fill="#FFFFFF"></path>
                <path d="M135.01761,12.7956667 C135.01761,16.5092857 135.017705,20.223 135.017514,23.936619 C135.017514,24.1588095 135.012467,24.381 135.015419,24.6031905 C135.018848,24.8682381 134.90799,25.0256667 134.62799,25.0258571 C133.612371,25.0265238 132.596752,25.0283333 131.581133,25.022619 C131.352752,25.021381 131.243514,24.8823333 131.242562,24.6561429 C131.2418,24.4339524 131.238562,24.2117619 131.238562,23.9895714 C131.238181,20.9742381 131.241038,17.9589048 131.236371,14.9434762 C131.235133,14.1558571 131.224657,14.1432857 130.4638,14.1425238 C126.527895,14.1379524 122.59199,14.1376667 118.656181,14.1428095 C117.938657,14.1436667 117.924848,14.1583333 117.923419,14.8881429 C117.917514,17.8717619 117.920848,20.855381 117.920657,23.839 C117.920657,24.0611905 117.90999,24.2839524 117.9218,24.505381 C117.940181,24.8475714 117.831133,25.0398571 117.446086,25.0348095 C116.494086,25.0220476 115.541705,25.0280476 114.589514,25.0303333 C114.266276,25.0311905 114.137895,24.8658571 114.147324,24.5569048 C114.154086,24.3349048 114.146562,24.1125238 114.146562,23.8904286 C114.146467,16.4630952 114.146086,9.0357619 114.146752,1.60833333 C114.146848,0.379095238 114.051895,0.460809524 115.26161,0.460333333 C115.864752,0.460142857 116.4678,0.456333333 117.070848,0.461190476 C117.909038,0.468047619 117.917705,0.470809524 117.919324,1.2857619 C117.92399,3.60290476 117.920752,5.91995238 117.920657,8.237 C117.920657,8.87185714 117.915514,9.50671429 117.922181,10.1414762 C117.930371,10.9205238 117.934657,10.932619 118.70599,10.9340476 C121.594371,10.9395714 124.482752,10.9363333 127.371133,10.9363333 C128.418657,10.9363333 129.466181,10.9436667 130.513514,10.9335714 C131.222657,10.9268095 131.234752,10.9158571 131.236181,10.1790952 C131.241514,7.32252381 131.238371,4.46585714 131.238467,1.60919048 C131.238467,1.387 131.244752,1.16461905 131.23799,0.942619048 C131.229038,0.641 131.336943,0.461 131.669705,0.462428571 C132.621895,0.46652381 133.574181,0.468714286 134.526276,0.461 C134.896752,0.457952381 135.036848,0.635666667 135.018848,0.988142857 C135.007514,1.20985714 135.01761,1.43252381 135.01761,1.65471429 C135.017705,5.36833333 135.01761,9.08204762 135.01761,12.7956667" id="Fill-3" fill="#FFFFFF"></path>
                <path d="M151.157219,12.691781 C151.157219,8.91673333 151.159219,5.14178095 151.155505,1.36673333 C151.154838,0.557019048 151.002648,0.453590476 152.006171,0.456352381 C155.52741,0.466066667 159.048552,0.458161905 162.569886,0.461685714 C163.402362,0.462542857 163.405219,0.471209524 163.412648,1.2914 C163.4176,1.86235238 163.42141,2.43349524 163.411124,3.00435238 C163.399219,3.6586381 163.392171,3.67330476 162.7056,3.67559048 C160.484933,3.68292381 158.264362,3.67425714 156.043886,3.67997143 C154.736076,3.6834 154.878838,3.54101905 154.874648,4.84673333 C154.868838,6.6866381 154.867505,8.5266381 154.876457,10.3664476 C154.879695,11.0378762 154.895505,11.0548286 155.566362,11.0571143 C157.91379,11.0651143 160.26141,11.057781 162.608838,11.0618762 C163.434552,11.0632095 163.436838,11.0706381 163.443886,11.8895905 C163.448362,12.3971143 163.448838,12.9047333 163.443695,13.4122571 C163.435505,14.2113048 163.432933,14.2114952 162.680076,14.2109238 C160.554648,14.2093048 158.429219,14.2007333 156.303886,14.2076857 C154.610076,14.2133048 154.885695,14.0499714 154.877505,15.6027333 C154.862362,18.4260667 154.874457,21.2494 154.872552,24.0727333 C154.871886,25.0986381 154.960362,25.0308286 153.879981,25.033019 C153.213886,25.0343524 152.5476,25.0395905 151.88141,25.0315905 C151.157219,25.0228286 151.155505,25.0169238 151.155314,24.3022571 C151.154838,20.4320667 151.155124,16.5619714 151.155124,12.691781 L151.157219,12.691781 Z" id="Fill-5" fill="#FFFFFF"></path>
                <g id="Group-9" transform="translate(180.761905, 5.116000)">
                    <mask id="mask-2" fill="white">
                        <use xlink:href="#path-1"></use>
                    </mask>
                    <g id="Clip-8"></g>
                    <path d="M0.0435619048,13.388 C0.0435619048,9.67571429 0.0426095238,5.96361905 0.0450857143,2.25142857 C0.0452761905,1.90419048 0.0145142857,1.55552381 0.118419048,1.21219048 C0.339561905,0.481142857 0.927085714,0.0286666667 1.6608,0.0404761905 C2.39099048,0.0522857143 2.99594286,0.526190476 3.16260952,1.26247619 C3.22451429,1.53619048 3.21375238,1.82942857 3.21394286,2.11371429 C3.21622857,9.66495238 3.21622857,17.2161905 3.21365714,24.7674286 C3.2135619,25.0515238 3.22127619,25.3440952 3.15984762,25.6180952 C3.00070476,26.3285714 2.35175238,26.8439048 1.65422857,26.8569524 C0.957561905,26.8699048 0.332514286,26.373619 0.120228571,25.6587619 C0.0181333333,25.3149524 0.0451809524,24.9669524 0.0448952381,24.6197143 C0.0426095238,20.8757143 0.0434666667,17.1319048 0.0435619048,13.388" id="Fill-7" fill="#FFFFFF" mask="url(#mask-2)"></path>
                </g>
                <path d="M185.687905,18.498981 C185.68781,16.248981 185.687048,13.998981 185.688667,11.748981 C185.688857,11.4640286 185.676476,11.1757429 185.712476,10.8945048 C185.812476,10.1134571 186.440857,9.51212381 187.228286,9.41517143 C187.882381,9.33469524 188.623524,9.76726667 188.930857,10.4023143 C189.117143,10.7871714 189.118476,11.196219 189.118286,11.6104095 C189.115619,16.2370762 189.116095,20.8638381 189.117619,25.4906 C189.117714,25.8717429 189.119143,26.2486952 188.966667,26.6112667 C188.657905,27.3457429 187.934381,27.7593619 187.128381,27.6495524 C186.392857,27.5492667 185.804476,26.9586952 185.711619,26.1986 C185.677333,25.916981 185.688952,25.6290762 185.688762,25.3440286 C185.687238,23.0624095 185.687905,20.7806952 185.687905,18.498981" id="Fill-10" fill="#FFFFFF"></path>
                <path d="M141.303419,17.2158667 C141.303324,14.9003429 141.300467,12.5846286 141.304943,10.2690095 C141.306467,9.45481905 141.314562,9.45129524 142.150657,9.44424762 C142.816848,9.43881905 143.483133,9.4359619 144.149133,9.4452 C144.938562,9.45624762 144.948562,9.46253333 144.950848,10.2292 C144.956467,12.227581 144.952276,14.2259619 144.952181,16.2244381 C144.952086,18.8890095 144.954848,21.553581 144.950371,24.2181524 C144.949038,25.0223429 144.939895,25.025581 144.096181,25.0321524 C143.430086,25.0373905 142.763895,25.0384381 142.0978,25.0317714 C141.318086,25.0241524 141.308086,25.0196762 141.305419,24.2579619 C141.299324,22.4181524 141.303514,20.5783429 141.303419,18.7385333 L141.303419,17.2158667 Z" id="Fill-12" fill="#FFFFFF"></path>
                <path d="M168.206133,17.1713143 C168.205943,14.8876 168.203657,12.6037905 168.207086,10.3200762 C168.208419,9.45464762 168.214514,9.45093333 169.10899,9.44426667 C169.838514,9.43893333 170.568324,9.4543619 171.297467,9.44017143 C171.69099,9.43255238 171.888133,9.56817143 171.865086,9.98874286 C171.844324,10.3681714 171.861467,10.7497905 171.861467,11.1303619 C171.861562,15.3807429 171.861562,19.6310286 171.861371,23.8814095 C171.861371,24.1034095 171.848229,24.3260762 171.861181,24.547219 C171.883181,24.9255048 171.691181,25.0397905 171.34299,25.035219 C170.518419,25.0245524 169.693467,25.0428381 168.869086,25.0296 C168.224895,25.0191238 168.210895,25.005981 168.208895,24.3080762 C168.202133,21.9291238 168.206324,19.5502667 168.206133,17.1713143" id="Fill-14" fill="#FFFFFF"></path>
                <path d="M175.412143,18.1601524 C175.411857,17.0192952 175.454048,15.8764381 175.399,14.7381524 C175.352048,13.769581 176.033381,12.8809143 177.102619,12.835581 C178.065286,12.7947238 178.82281,13.6092 178.831857,14.7106286 C178.850619,16.9922476 178.851952,19.2742476 178.831095,21.5557714 C178.82119,22.6494857 178.043952,23.4412952 177.081381,23.4176762 C176.143,23.3946286 175.434905,22.6345333 175.416905,21.5827238 C175.397286,20.4421524 175.412429,19.3010095 175.412143,18.1601524" id="Fill-16" fill="#FFFFFF"></path>
                <path d="M194.259705,18.279019 C194.259705,19.3226381 194.261229,20.3662571 194.258371,21.409781 C194.2578,21.6307333 194.26799,21.8566381 194.227133,22.0715905 C194.0838,22.8273048 193.434752,23.3887333 192.707229,23.4105429 C191.983895,23.4321619 191.324276,22.9078762 191.144562,22.1383524 C191.0878,21.8959714 191.081324,21.6378762 191.080752,21.3867333 C191.07599,19.2995905 191.077895,17.2124476 191.078562,15.1253048 C191.078562,14.9673048 191.071419,14.8076857 191.08999,14.6514 C191.200181,13.7228286 191.860562,13.1221619 192.731229,13.1505429 C193.558657,13.1775905 194.192181,13.7769238 194.244181,14.6746381 C194.29161,15.4941619 194.25799,16.3184476 194.259705,17.1406381 C194.260467,17.5200667 194.2598,17.8995905 194.259705,18.279019" id="Fill-18" fill="#FFFFFF"></path>
                <path d="M170.132286,3.07681905 C171.483714,3.09586667 172.441238,3.95872381 172.393143,5.11405714 C172.343429,6.30900952 171.206286,7.11053333 169.775429,6.95967619 C168.400762,6.81453333 167.628381,5.89662857 167.84419,4.66453333 C168.013048,3.70053333 168.93619,3.05986667 170.132286,3.07681905" id="Fill-20" fill="#FFFFFF"></path>
                <path d="M143.179905,3.07710476 C144.479524,3.08739048 145.458571,3.91005714 145.470476,5.00158095 C145.482476,6.10024762 144.535619,6.94139048 143.233619,6.98862857 C141.777524,7.04158095 140.832095,6.17891429 140.910571,4.8692 C140.976476,3.7684381 141.865143,3.06672381 143.179905,3.07710476" id="Fill-22" fill="#FFFFFF"></path>
                <g id="Group-26" transform="translate(0.000000, 0.449333)">
                    <mask id="mask-4" fill="white">
                        <use xlink:href="#path-3"></use>
                    </mask>
                    <g id="Clip-25"></g>
                    <path d="M4.85202857,4.9378381 C4.85162857,4.92077143 4.85109524,4.90370476 4.85069524,4.88677143 C4.8525619,4.90397143 4.85402857,4.92117143 4.85522857,4.93837143 C4.85402857,4.93837143 4.85322857,4.9378381 4.85202857,4.9378381 M26.5350762,23.8330571 C26.5188857,23.3893429 26.5321238,22.9444857 26.5321238,22.5001048 C26.5321238,15.2951524 26.5323143,8.09029524 26.5318381,0.885342857 C26.5317429,-0.0443714286 26.6058381,0.00477142857 25.6654571,0.00477142857 C23.2532667,0.00477142857 20.840981,0.00267619048 18.4287905,0.00600952381 C17.6291714,0.00705714286 17.6218381,0.011152381 17.3890762,0.766580952 C16.4746952,3.73429524 15.5674571,6.70400952 14.6531714,9.67153333 C14.190981,11.1717238 13.7193619,12.6690571 13.2143143,14.2883905 C12.9078381,13.9115333 12.8703143,13.5617238 12.7778381,13.2468667 C11.5535524,9.08229524 10.3433619,4.91334286 9.1146,0.750104762 C8.86593333,-0.0925619048 8.95155238,0.00877142857 8.16431429,0.00696190476 C5.72031429,0.00124761905 3.27631429,0.00239047619 0.832409524,0.0062 C0.00945714286,0.00753333333 0.00936190476,0.0147714286 0.000980952381,0.830104762 C2.85714286e-05,0.925247619 0.000885714286,1.02048571 0.000885714286,1.11572381 C0.000885714286,8.4794381 0.00079047619,15.8430571 0.00079047619,23.2067714 C0.00079047619,23.3337238 -0.00120952381,23.4606762 0.00107619048,23.5876286 C0.0144095238,24.3240095 0.0146952381,24.3340095 0.718980952,24.3413429 C1.67107619,24.3512476 2.62345714,24.3508667 3.57555238,24.3422952 C4.98250476,24.3295333 4.77126667,24.5022952 4.77440952,23.1256286 C4.78802857,17.1587714 4.7898381,11.191819 4.79602857,5.2249619 L4.86669524,5.2334381 L4.93593333,5.2162 C5.00440952,5.3929619 5.08479048,5.56600952 5.13964762,5.74686667 C6.03202857,8.68800952 6.92164762,11.6299143 7.81069524,14.5721048 C8.71812381,17.5750571 9.62221905,20.5789619 10.532219,23.5810571 C10.7612667,24.3369619 10.7690762,24.337819 11.5763143,24.3428667 C12.3063143,24.3475333 13.0363143,24.3453429 13.7663143,24.3436286 C14.7086952,24.3414381 14.7117429,24.3412476 14.9927905,23.4282 C16.5405048,18.4013429 18.0854571,13.3735333 19.6340286,8.34686667 C19.9561238,7.3014381 20.2898381,6.2594381 20.618219,5.21591429 C20.6713619,5.22362857 20.7245048,5.2314381 20.7776476,5.23915238 L20.7776476,6.04562857 C20.7776476,11.7587714 20.7776476,17.4720095 20.7776476,23.1851524 C20.7776476,23.4073429 20.7917429,23.6304857 20.7759333,23.8514381 C20.7486952,24.231819 20.9398381,24.3471524 21.288981,24.3455333 C22.8758381,24.3382 24.4628857,24.3351524 26.0498381,24.346581 C26.4276476,24.3493429 26.5479333,24.1859143 26.5350762,23.8330571" id="Fill-24" fill="#FFFFFF" mask="url(#mask-4)"></path>
                </g>
                <path d="M104.351876,8.82644762 C103.954352,9.89473333 103.257495,10.6586381 102.053114,10.8454 C100.3514,11.1093048 98.6405429,10.9345429 96.9345429,10.9828286 C96.6367333,10.9912095 96.5713048,10.8056857 96.5716857,10.5511143 C96.5746381,8.77825714 96.5773048,7.00549524 96.5695905,5.23273333 C96.5681619,4.89654286 96.7339714,4.79349524 97.0346381,4.79501905 C97.857781,4.79892381 98.6808286,4.79635238 99.5038762,4.79635238 C100.127114,4.81301905 101.032924,4.81597143 101.685495,4.79635238 C103.627019,4.73787619 105.052638,6.94349524 104.351876,8.82644762 M110.269971,23.747781 C109.01121,20.7360667 107.756638,17.7226381 106.484829,14.7165429 C106.302162,14.2848286 106.248162,14.0191143 106.769781,13.7569238 C109.728829,12.2693048 110.929781,9.42482857 110.277019,6.26768571 C109.699114,3.47225714 108.126924,1.5074 105.225495,0.819209524 C104.326733,0.605971429 103.416638,0.486828571 102.4934,0.483590476 C98.8438762,0.471209524 95.1943524,0.461114286 91.5447333,0.456257143 C90.8383524,0.4554 90.8285429,0.468066667 90.8275905,1.19159048 C90.8234952,4.2066381 90.8258762,7.22168571 90.8258762,10.2367333 C90.8258762,14.8386381 90.8240667,19.4404476 90.8276857,24.0424476 C90.8282571,24.7769238 90.8391143,24.7874952 91.5365429,24.7909238 C92.9965429,24.7981619 94.4565429,24.7807333 95.9162571,24.8000667 C96.385781,24.8062571 96.6501619,24.6927333 96.5752095,24.1636857 C96.5487333,23.9769238 96.5711143,23.7834 96.5711143,23.593019 C96.5711143,21.0540667 96.5688286,18.515019 96.5722571,15.9760667 C96.5734,15.1705429 96.5803524,15.1673048 97.4118762,15.1631143 C98.237019,15.1588286 99.0642571,15.1980667 99.8866381,15.149781 C100.45121,15.1166381 100.725971,15.3039714 100.926543,15.8442571 C101.81959,18.2503524 102.751495,20.6422571 103.689495,23.0314 C103.908257,23.5885429 103.95959,24.3055905 104.418733,24.6527333 C104.920733,25.0321619 105.645495,24.7747333 106.271019,24.7854952 C107.694067,24.8100667 109.117781,24.7932095 110.687305,24.7932095 C110.502543,24.3294952 110.390733,24.0367333 110.269971,23.747781" id="Fill-27" fill="#FFFFFF"></path>
                <g id="Group-31" transform="translate(66.285714, 0.068381)">
                    <mask id="mask-6" fill="white">
                        <use xlink:href="#path-5"></use>
                    </mask>
                    <g id="Clip-30"></g>
                    <path d="M14.4778952,16.4007429 C14.3051333,17.2430286 14.030181,18.0500762 13.5566571,18.7765524 C12.1532286,20.9297905 9.02760952,21.0324571 7.48941905,18.9697905 C6.79046667,18.0324571 6.49227619,16.9360762 6.27951429,15.8066476 C6.07894286,14.7416952 6.07027619,13.6650286 6.04999048,12.7880762 C6.04694286,11.1606476 6.11570476,9.7388381 6.48732381,8.3496 C6.67637143,7.64302857 6.93122857,6.96217143 7.34208571,6.35112381 C8.90675238,4.02521905 12.2566571,4.12245714 13.6770381,6.5336 C14.2002762,7.42198095 14.4663714,8.40293333 14.6126571,9.4063619 C14.9529429,11.7417905 14.9545619,14.0783619 14.4778952,16.4007429 M18.2686571,3.85607619 C17.0708476,2.07245714 15.4387524,0.894361905 13.3589429,0.339314286 C12.3380857,0.0669333333 11.2978,0.018647619 10.2480857,0.0278857143 C6.49741905,0.060647619 3.6958,1.69388571 1.84246667,4.96207619 C0.773895238,6.84626667 0.244561905,8.88474286 0.0896095238,11.0258857 C-0.151152381,14.3544571 0.352752381,17.5303619 2.08132381,20.4488381 C3.85760952,23.4476 6.47275238,25.0024571 9.96160952,25.1055048 C14.3460857,25.235219 17.5257048,23.3896 19.4075143,19.3916952 C20.4110381,17.2597905 20.829419,15.0044571 20.812181,12.7822667 C20.8646571,9.46540952 20.0565619,6.51845714 18.2686571,3.85607619" id="Fill-29" fill="#FFFFFF" mask="url(#mask-6)"></path>
                </g>
                <path d="M36.8845238,15.220981 C37.7238571,12.4659333 38.5378571,9.79431429 39.3518571,7.1226 C39.4140476,7.1238381 39.4761429,7.12517143 39.5382381,7.1266 C40.337,9.79555238 41.1358571,12.4646 41.9607143,15.220981 L36.8845238,15.220981 Z M50.8630952,24.4717429 C50.8292857,24.2859333 50.763381,24.1056476 50.7068095,23.9246 C48.3355714,16.3341238 45.964619,8.74364762 43.591,1.15412381 C43.3745238,0.461742857 43.366619,0.457552381 42.598619,0.455552381 C40.9800476,0.450980952 39.3615714,0.453742857 37.7430952,0.454219048 C36.5003333,0.4546 36.7601429,0.398409524 36.4403333,1.38964762 C34.5628095,7.20907619 32.7079524,13.0357429 30.8445238,18.8595524 C30.2275714,20.7875524 29.6077619,22.7147905 28.9415714,24.7912667 C30.591381,24.7912667 32.0785238,24.7881238 33.5656667,24.7937429 C33.9262381,24.794981 34.0360476,24.5855524 34.1260476,24.2779333 C34.5084286,22.9705048 34.930619,21.6746952 35.3037619,20.3648857 C35.4281429,19.9284095 35.6284286,19.7648857 36.0954762,19.7700286 C38.285,19.7940286 40.475,19.7930762 42.6645238,19.770981 C43.1538571,19.766219 43.3928095,19.9061238 43.5240476,20.4040286 C43.8468095,21.6287905 44.2319524,22.8373619 44.5991905,24.050219 C44.8203333,24.7807905 44.8264286,24.7881238 45.5642381,24.7912667 C47.0874762,24.7977429 48.6108095,24.7935524 50.1341429,24.7927905 C50.2927143,24.7926952 50.451381,24.7886952 50.6097619,24.7816476 C50.8071905,24.7728857 50.8964286,24.6541238 50.8630952,24.4717429 Z" id="Fill-32" fill="#FFFFFF"></path>
            </g>
        </g>
    </g>
</svg>