<?xml version="1.0" encoding="UTF-8"?>
<svg width="10px" height="9px" viewBox="0 0 10 9" version="1.1" xmlns="http://www.w3.org/2000/svg" xmlns:xlink="http://www.w3.org/1999/xlink">
    <!-- Generator: Sketch 48.2 (47327) - http://www.bohemiancoding.com/sketch -->
    <title>checkbox_check</title>
    <desc>Created with Sketch.</desc>
    <defs></defs>
    <g id="New-AxumGear" stroke="none" stroke-width="1" fill="none" fill-rule="evenodd" transform="translate(-731.000000, -18764.000000)">
        <path d="M740.628906,18764.7871 C740.374999,18764.5332 740.072267,18764.4063 739.720704,18764.4063 C739.369139,18764.4063 739.069663,18764.5332 738.822266,18764.7871 L734.310546,18769.3867 L733.177734,18768.2344 C732.930337,18767.9805 732.630861,18767.8535 732.279297,18767.8535 C731.927733,18767.8535 731.625001,18767.9805 731.371094,18768.2344 C731.123697,18768.4883 731,18768.7959 731,18769.1572 C731,18769.5186 731.123697,18769.8262 731.371094,18770.0801 L733.402344,18772.1504 C733.656251,18772.4043 733.958983,18772.5313 734.310546,18772.5313 C734.662111,18772.5313 734.961587,18772.4043 735.208984,18772.1504 L740.628906,18766.6328 C740.876304,18766.3724 741,18766.0632 741,18765.7051 C741,18765.347 740.876304,18765.041 740.628906,18764.7871 Z" id="checkbox_check" fill="#FFFFFF"></path>
    </g>
</svg>