<?xml version="1.0" encoding="UTF-8"?>
<svg width="440px" height="440px" viewBox="0 0 440 440" version="1.1" xmlns="http://www.w3.org/2000/svg" xmlns:xlink="http://www.w3.org/1999/xlink">
    <!-- Generator: Sketch 48.2 (47327) - http://www.bohemiancoding.com/sketch -->
    <title>commit_product</title>
    <desc>Created with Sketch.</desc>
    <defs></defs>
    <g id="New-AxumGear" stroke="none" stroke-width="1" fill="none" fill-rule="evenodd" transform="translate(-500.000000, -15491.000000)">
        <g id="commit_product" transform="translate(500.000000, 15491.000000)">
            <circle id="Oval-5" stroke-opacity="0.302706069" stroke="#FFFFFF" cx="220" cy="220" r="139.5"></circle>
            <circle id="Oval-5" stroke="#E61C20" stroke-width="2" cx="220" cy="220" r="97"></circle>
            <circle id="Oval-5" stroke-opacity="0.198228034" stroke="#FFFFFF" cx="220" cy="220" r="179.5"></circle>
            <circle id="Oval-5" stroke-opacity="0.103572237" stroke="#FFFFFF" cx="220" cy="220" r="219.5"></circle>
            <g id="right" transform="translate(120.000000, 149.000000)" stroke-width="2">
                <path d="M162.194799,142.231947 L96.3948613,142.231947 C79.802405,142.231947 64.2301644,134.21306 54.5719882,120.696534 L6.326936,53.1737879 C-9.56412175,30.9317056 6.30700994,0 33.6097402,0 L114.975941,0 C134.597163,0 152.737877,10.4622826 162.591329,27.4622442 L195.391668,80.2307956 C201.020789,89.2897231 201.526911,100.636339 196.722731,110.162386 L188.824028,125.820876 C183.748853,135.885907 173.451049,142.231947 162.194799,142.231947 Z" id="Stroke-1" stroke="#FFFFFF" fill="#000000"></path>
                <path d="M101.418519,128.665208 C95.9853744,128.665208 90.9746088,125.711964 88.3407188,120.952851 L80.6621938,107.098546 C78.1617919,102.582876 78.1438606,97.1812331 80.6183619,92.6456088 L112.111473,34.9296441 C114.735401,30.1206456 119.764098,27.1334792 125.235097,27.1334792 L138.665544,27.2033194 C143.847652,27.2332509 148.569526,29.8831887 151.299049,34.2911049 L185.075396,88.844305 C187.794957,93.2302713 188.047986,98.8274669 185.738849,103.446899 L177.263383,120.392134 C174.713172,125.494461 169.588842,128.665208 163.890715,128.665208 L101.418519,128.665208 Z" id="Stroke-3" stroke="#E61C20"></path>
                <path d="M181.719869,90.9613769 L147.912358,36.3462974 C145.920278,33.1280051 142.416693,31.1622698 138.637924,31.1422928 L125.273648,31.0723734 C121.239638,31.0503987 117.516704,33.247867 115.580459,36.7977772 L84.058155,94.5792087 C82.2535194,97.889395 82.2654838,101.894781 84.0920544,105.192981 L91.7772112,119.063002 C93.7114619,122.558974 97.3885325,124.726477 101.378672,124.726477 L163.904822,124.726477 C168.062464,124.726477 171.863167,122.377184 173.723637,118.651476 L182.206423,101.68702 C183.915343,98.2689581 183.731889,94.2096344 181.719869,90.9613769 Z" id="Stroke-5" stroke="#FFFFFF"></path>
                <path d="M23.6301819,37.0975406 L41.3763383,64.212185 C43.0723116,66.8084581 46.1127509,68.1871687 49.1790071,67.7554512 L58.3360716,66.4662675 C60.820454,66.1161187 62.9950331,64.6200287 64.2163725,62.4236409 L76.4535944,40.3781957 C77.8020325,37.9470492 77.7980606,34.9867007 76.4396931,32.5615226 L72.0170556,24.6652703 C70.6010962,22.1346497 67.9340094,20.5689278 65.0405281,20.5689278 L33.009669,20.5689278 C30.3088216,20.5689278 27.7906785,21.9337121 26.3131561,24.1977422 L23.6242242,28.315969 C21.8825747,30.9838637 21.8845607,34.4316353 23.6301819,37.0975406 Z" id="Stroke-7" stroke="#E61C20"></path>
                <path d="M16.8787891,45.7300348 L34.8697624,70.6558975 C45.3741437,85.214895 67.4287538,84.1658669 76.5000844,68.675285 L88.4734425,48.2281946 C98.1515244,31.7045093 86.2001213,10.9409191 67.0136081,10.9409191 L34.748013,10.9409191 C16.8029453,10.9409191 6.39436681,31.2048773 16.8787891,45.7300348 Z" id="Stroke-9" stroke="#FFFFFF"></path>
                <path d="M175.662554,95.467135 C175.902911,95.467135 176.135189,95.5231306 176.353328,95.6331213 C176.714873,95.8171063 176.979468,96.12908 177.102676,96.5090481 C177.223864,96.8930156 177.191547,97.2989819 177.005725,97.6549519 L167.918623,115.097489 C167.656048,115.599447 167.138978,115.911421 166.569393,115.911421 C166.329036,115.911421 166.096759,115.853426 165.878619,115.745434 C165.519094,115.56145 165.25248,115.249476 165.129272,114.867508 C165.008084,114.48554 165.040401,114.079574 165.226223,113.723604 L174.313325,96.2790675 C174.575899,95.7771094 175.092969,95.467135 175.662554,95.467135" id="Fill-11" stroke="#E61C20"></path>
                <path d="M113.205811,104.590861 L114.911623,98.2178412 L119.553111,100.146885 L113.205811,104.590861 Z M154.409266,59.0809628 L143.990415,66.3766556 L141.100734,72.2315437 L137.665113,70.8046887 L125.642439,79.2243287 L135.60734,83.3653969 L131.667774,91.3506031 L117.015391,85.2625556 L115.487559,86.3326969 L109.876178,90.2625269 L104.620758,93.9412619 L108.464334,95.5375056 L102.407003,118.161926 L111.226029,111.988187 L112.199922,108.34333 L122.286809,101.280796 L124.940516,102.384816 L126.9023,101.011766 L137.323151,93.7160737 L137.335149,93.7061094 L137.32915,93.7021237 L141.268715,85.7149244 L145.962198,87.66589 L157.986871,79.24625 L146.760109,74.5830644 L154.409266,59.0809628 Z" id="Stroke-13" stroke="#E61C20"></path>
            </g>
        </g>
    </g>
</svg>