<?xml version="1.0" encoding="UTF-8"?>
<svg width="32px" height="32px" viewBox="0 0 32 32" version="1.1" xmlns="http://www.w3.org/2000/svg" xmlns:xlink="http://www.w3.org/1999/xlink">
    <!-- Generator: Sketch 48.2 (47327) - http://www.bohemiancoding.com/sketch -->
    <title>desc-quote</title>
    <desc>Created with Sketch.</desc>
    <defs></defs>
    <g id="New-AxumGear" stroke="none" stroke-width="1" fill="none" fill-rule="evenodd" transform="translate(-728.000000, -1508.000000)">
        <path d="M738.666667,1508 C735.222203,1508 732.583342,1508.91666 730.75,1510.75 C728.916658,1512.58334 728,1515.2222 728,1518.66667 L728,1540 L741.333333,1540 L741.333333,1518.66667 L733.333333,1518.66667 C733.333333,1516.77777 733.749995,1515.41667 734.583333,1514.58333 C735.416672,1513.74999 736.777771,1513.33333 738.666667,1513.33333 L738.666667,1508 Z M757.333333,1508 C753.888869,1508 751.250011,1508.91666 749.416667,1510.75 C747.583323,1512.58334 746.666667,1515.2222 746.666667,1518.66667 L746.666667,1540 L760,1540 L760,1518.66667 L752,1518.66667 C752,1516.77777 752.416661,1515.41667 753.25,1514.58333 C754.083339,1513.74999 755.444437,1513.33333 757.333333,1513.33333 L757.333333,1508 Z" id="desc-quote" fill="#E61C20"></path>
    </g>
</svg>