<?xml version="1.0" encoding="UTF-8"?>
<svg width="14px" height="24px" viewBox="0 0 14 24" version="1.1" xmlns="http://www.w3.org/2000/svg" xmlns:xlink="http://www.w3.org/1999/xlink">
    <!-- Generator: Sketch 46.1 (44463) - http://www.bohemiancoding.com/sketch -->
    <title>ft_2</title>
    <desc>Created with Sketch.</desc>
    <defs></defs>
    <g id="Page-1" stroke="none" stroke-width="1" fill="none" fill-rule="evenodd">
        <g id="Axum-2.0" transform="translate(-631.000000, -5833.000000)" fill-rule="nonzero" fill="#FFFFFF">
            <g id="Group-16" transform="translate(627.000000, 5833.000000)">
                <g id="ft_2" transform="translate(4.714286, 0.000000)">
                    <path d="M11.2105714,1.6 L8.64285714,1.6 L8.64285714,0 L3.92857143,0 L3.92857143,1.6 L1.36085714,1.6 C0.6105,1.6 0,2.2216 0,2.9856 L0,22.6144 C0,23.3784 0.6105,24 1.36085714,24 L11.2101786,24 C11.9609286,24 12.5714286,23.3784 12.5714286,22.6144 L12.5714286,2.9856 C12.5714286,2.2216 11.9609286,1.6 11.2105714,1.6 Z M4.71428571,0.8 L7.85714286,0.8 L7.85714286,1.6 L4.71428571,1.6 L4.71428571,0.8 Z M11.7857143,22.6144 C11.7857143,22.9376 11.5276071,23.2 11.2105714,23.2 L1.36085714,23.2 C1.04382143,23.2 0.785714286,22.9376 0.785714286,22.6144 L0.785714286,2.9856 C0.785714286,2.6624 1.04382143,2.4 1.36085714,2.4 L3.92857143,2.4 L8.64285714,2.4 L11.2105714,2.4 C11.5276071,2.4 11.7857143,2.6624 11.7857143,2.9856 L11.7857143,22.6144 Z" id="Shape"></path>
                    <path d="M7.85714286,6.8432 C7.86539286,6.674 7.77385714,6.5144 7.61946429,6.4404 L7.31303571,6.3128 L7.11896429,6.5568 L2.83014286,13.6 L5.10714286,13.6 L5.10792857,18.7536 C5.09928571,18.9184 5.18689286,19.0788 5.33578571,19.1548 L5.64810714,19.2952 L5.84689286,19.0408 L9.68510714,11.6 L7.85714286,11.6 L7.85714286,6.8432 Z M8.38632143,12.4 L5.89364286,17.242 L5.89285714,12.8 L4.24128571,12.8 L7.07142857,8.1488 L7.07142857,12.4 L8.38632143,12.4 Z" id="Shape"></path>
                </g>
            </g>
        </g>
    </g>
</svg>