<?xml version="1.0" encoding="UTF-8"?>
<svg width="22px" height="20px" viewBox="0 0 22 20" version="1.1" xmlns="http://www.w3.org/2000/svg" xmlns:xlink="http://www.w3.org/1999/xlink">
    <!-- Generator: Sketch 46.1 (44463) - http://www.bohemiancoding.com/sketch -->
    <title>ft_3</title>
    <desc>Created with Sketch.</desc>
    <defs></defs>
    <g id="Page-1" stroke="none" stroke-width="1" fill="none" fill-rule="evenodd">
        <g id="Axum-2.0" transform="translate(-927.000000, -5835.000000)" fill-rule="nonzero" fill="#FFFFFF">
            <g id="Group-16" transform="translate(927.000000, 5833.000000)">
                <g id="ft_3" transform="translate(0.785714, 2.800000)">
                    <path d="M11.1587143,0.1652 C10.7752857,-0.0556 10.3215357,-0.0484 9.94478571,0.1828 C9.92671429,0.1936 9.90942857,0.2064 9.89371429,0.22 L4.5705,4.8052 L0.392857143,4.8052 C0.175607143,4.8052 0,4.984 0,5.2052 L0,12.8052 C0,12.9116 0.04125,13.0132 0.115107143,13.088 C0.188964286,13.1628 0.288357143,13.2052 0.392857143,13.2052 L4.56107143,13.2032 L9.88153571,18.1792 C9.90117857,18.1976 9.92239286,18.2136 9.94478571,18.2272 C10.1380714,18.346 10.3521786,18.4056 10.5662857,18.4056 C10.7693929,18.4052 10.9721071,18.352 11.1587143,18.2448 C11.5511786,18.0192 11.7857143,17.6072 11.7857143,17.1428 L11.7857143,1.2676 C11.7857143,0.8032 11.5511786,0.3912 11.1587143,0.1652 Z M11,17.1428 C11,17.3152 10.91475,17.4668 10.7725357,17.5488 C10.7116429,17.5836 10.55725,17.6508 10.3796786,17.5592 L5.10714286,12.6276 L5.10714286,10.8052 C5.10714286,10.584 4.93153571,10.4052 4.71428571,10.4052 C4.49703571,10.4052 4.32142857,10.584 4.32142857,10.8052 L4.32142857,12.4036 L0.785714286,12.4052 L0.785714286,5.6052 L4.32142857,5.6052 L4.32142857,7.2052 C4.32142857,7.4264 4.49703571,7.6052 4.71428571,7.6052 C4.93153571,7.6052 5.10714286,7.4264 5.10714286,7.2052 L5.10714286,5.3908 L10.3733929,0.8548 C10.5545,0.758 10.71125,0.8268 10.7725357,0.862 C10.91475,0.944 11,1.0956 11,1.2676 L11,17.1428 Z" id="Shape"></path>
                    <path d="M15.2416786,1.6264 C15.0362143,1.5556 14.8130714,1.6676 14.7431429,1.8768 C14.6736071,2.0856 14.7836071,2.3132 14.9890714,2.3844 C17.77875,3.3488 19.6530714,6.0096 19.6530714,9.0056 C19.6530714,11.9988 17.7822857,14.66 14.9981071,15.6272 C14.7930357,15.6984 14.6830357,15.9256 14.7533571,16.1352 C14.8091429,16.3012 14.9615714,16.406 15.125,16.406 C15.1670357,16.406 15.2098571,16.3992 15.2518929,16.3844 C18.3538929,15.3072 20.4383929,12.342 20.4383929,9.006 C20.4387857,5.6664 18.3503571,2.7012 15.2416786,1.6264 Z" id="Shape"></path>
                    <path d="M16.9030714,9.0052 C16.9030714,6.6164 15.3281071,4.4844 13.0731071,3.8204 C12.8637143,3.76 12.64725,3.8812 12.58675,4.094 C12.5266429,4.306 12.6464643,4.528 12.8554643,4.5892 C14.7761429,5.1544 16.11775,6.9704 16.11775,9.0052 C16.11775,11.04 14.7761429,12.856 12.8554643,13.4212 C12.6468571,13.4824 12.5266429,13.7044 12.58675,13.9164 C12.6366429,14.0916 12.7933929,14.2056 12.9642857,14.2056 C13.0004286,14.2056 13.0369643,14.2004 13.0731071,14.19 C15.3285,13.526 16.9030714,11.394 16.9030714,9.0052 Z" id="Shape"></path>
                </g>
            </g>
        </g>
    </g>
</svg>