<?xml version="1.0" encoding="UTF-8"?>
<svg width="140px" height="131px" viewBox="0 0 140 131" version="1.1" xmlns="http://www.w3.org/2000/svg" xmlns:xlink="http://www.w3.org/1999/xlink">
    <!-- Generator: Sketch 48.2 (47327) - http://www.bohemiancoding.com/sketch -->
    <title>guarantee_1</title>
    <desc>Created with Sketch.</desc>
    <defs>
        <polygon id="path-1" points="0 131 0 0.153 139.730072 0.153 139.730072 131"></polygon>
    </defs>
    <g id="New-AxumGear" stroke="none" stroke-width="1" fill="none" fill-rule="evenodd" transform="translate(-468.000000, -17037.000000)">
        <g id="guarantee_1" transform="translate(468.000000, 17036.000000)">
            <g id="Group-3" transform="translate(0.000000, 0.847000)">
                <mask id="mask-2" fill="white">
                    <use xlink:href="#path-1"></use>
                </mask>
                <g id="Clip-2"></g>
                <path d="M135.485353,79.3186 C138.697295,77.5786 139.701468,73.2416 139.701468,73.2416 C139.701468,73.2416 134.738014,72.7406 131.747655,75.0476 C130.810964,75.7726 129.945784,77.0366 129.272978,78.2256 C129.782619,75.7986 130.125065,73.3166 130.292259,70.7956 C131.456576,70.5956 134.088374,69.9356 136.70305,67.8616 C139.508086,65.6386 139.730676,61.2826 139.730676,61.2826 C139.730676,61.2826 134.855856,61.6396 132.367079,64.3716 C131.562331,65.2556 130.932835,66.6786 130.484633,67.9706 C130.610532,65.3046 130.527942,62.6626 130.264058,60.0646 C131.369957,59.6656 133.772115,58.5816 135.922475,56.1586 C138.245065,53.5426 137.716288,49.2996 137.716288,49.2996 C137.716288,49.2996 133.070101,50.4676 131.138302,53.5226 C130.500748,54.5316 130.136144,56.0476 129.92564,57.3876 C129.522763,54.6936 128.932547,52.0536 128.177151,49.4936 C129.111827,48.9746 131.353842,47.5186 133.083194,44.7036 C134.881036,41.7836 133.642187,37.7806 133.642187,37.7806 C133.642187,37.7806 129.357583,39.6916 128.013986,42.9666 C127.516432,44.1876 127.461036,45.9746 127.524489,47.4056 C126.607942,44.6606 125.504058,42.0166 124.259165,39.4946 C125.023626,38.8896 127.026935,37.0896 128.251683,33.9796 C129.483482,30.8596 127.60305,27.2036 127.60305,27.2036 C127.60305,27.2036 123.797871,29.7716 123.062619,33.1616 C122.767511,34.5276 123.091827,36.4546 123.426216,37.8666 C121.998014,35.1726 120.408662,32.6376 118.703482,30.2986 C119.347079,29.5726 120.95154,27.5026 121.597151,24.3186 C122.249813,21.0976 119.810388,17.8876 119.810388,17.8876 C119.810388,17.8876 116.575281,21.0096 116.447367,24.4056 C116.398014,25.7406 117.005353,27.4866 117.562331,28.7856 C115.693986,26.3876 113.71082,24.2186 111.667223,22.3336 C112.160748,21.5286 113.360317,19.2556 113.438878,16.0626 C113.517439,12.8436 110.610676,10.1596 110.610676,10.1596 C110.610676,10.1596 108.025209,13.7186 108.485496,17.0166 C108.674849,18.3806 109.644777,20.0606 110.427367,21.2316 C109.697151,20.6056 108.963914,20.0116 108.226647,19.4606 C106.565784,18.1296 104.929094,16.9566 103.337727,15.9136 C103.628806,15.2216 104.541324,12.7136 104.037727,9.4156 C103.562331,6.2956 100.296,4.1956 100.296,4.1956 C100.296,4.1956 98.4075108,8.0666 99.4187338,11.1726 C99.8971511,12.6456 101.435137,14.3426 102.413122,15.3176 C99.4388777,13.4426 96.6570072,12.0466 94.2216115,11.0016 C94.3716835,10.3616 94.8692374,7.7346 93.7925468,4.5576 C92.7994532,1.6286 89.2863597,0.1526 89.2863597,0.1526 C89.2863597,0.1526 88.1331223,4.2086 89.6378705,7.0356 C90.3993094,8.4676 92.378446,9.9446 93.4561439,10.6796 C91.7842014,9.9926 90.2995971,9.4776 89.0557122,9.0896 C88.6800288,8.6196 86.850964,6.4586 84.6139856,6.0776 C82.8242014,5.7766 79.8167194,6.9206 79.8167194,6.9206 C79.8167194,6.9206 81.2580144,8.8706 84.1718273,9.8636 C86.124777,10.5296 88.2811799,9.6046 88.9298129,9.2876 C90.4406043,9.8046 92.3220432,10.5186 94.4583022,11.5056 C93.2043453,11.2926 90.6490935,10.9636 89.0496691,11.4816 C85.9928345,12.4766 83.9865036,16.1926 83.9865036,16.1926 C83.9865036,16.1926 87.5449209,17.5506 90.3086619,16.1246 C93.2657842,14.6036 94.7413237,12.4136 95.1069353,11.8106 C97.5030504,12.9536 100.196288,14.4396 103.034561,16.3666 C101.719165,15.9246 99.554705,15.3226 98.0338417,15.5386 C94.7846331,16.0006 92.1054964,19.3806 92.1054964,19.3806 C92.1054964,19.3806 95.4413237,21.3726 98.4729784,20.4256 C101.549957,19.4686 103.399165,17.6696 103.987367,17.0236 C105.244345,17.9116 106.524489,18.8806 107.820748,19.9516 C108.976,20.8436 110.122187,21.8316 111.250245,22.9056 C110.014417,22.2286 107.905353,21.2136 106.313986,21.1626 C102.964058,21.0526 99.6705324,23.9816 99.6705324,23.9816 C99.6705324,23.9816 102.666935,26.5686 105.882906,26.1506 C109.176432,25.7246 111.364058,24.2176 112.046935,23.6866 C114.08046,25.7156 116.037439,28.0226 117.857439,30.5586 C116.712259,29.6726 114.975856,28.4906 113.529525,28.1896 C110.181612,27.4896 106.351252,29.8516 106.351252,29.8516 C106.351252,29.8516 108.899453,32.9796 112.204058,33.1266 C115.444201,33.2716 117.839309,32.2436 118.722619,31.7936 C120.306935,34.1206 121.772403,36.6216 123.076719,39.2656 C122.090676,38.2186 120.717871,36.9526 119.454849,36.4506 C116.216719,35.1586 111.944201,36.8596 111.944201,36.8596 C111.944201,36.8596 113.946504,40.4496 117.242043,41.1776 C120.340173,41.8666 122.854129,41.3296 123.908662,41.0216 C125.081036,43.5966 126.100317,46.2936 126.924201,49.0806 C126.119453,47.8596 124.972259,46.3606 123.799885,45.6366 C120.778302,43.7686 116.181468,44.7256 116.181468,44.7256 C116.181468,44.7256 117.552259,48.6866 120.733986,49.9996 C123.725353,51.2356 126.348086,51.1386 127.46305,51.0156 C128.189237,53.8076 128.711971,56.6826 129.009094,59.6086 C128.418878,58.2206 127.510388,56.4286 126.426647,55.4646 C123.721324,53.0566 118.930101,53.2106 118.930101,53.2106 C118.930101,53.2106 119.601899,57.4296 122.565065,59.3086 C125.370101,61.0896 128.039165,61.4466 129.169237,61.5146 C129.345496,64.2346 129.320317,66.9936 129.06046,69.7686 C128.706935,68.3246 128.135856,66.5656 127.287799,65.4946 C124.998446,62.5956 120.156863,61.9086 120.156863,61.9086 C120.156863,61.9086 120.078302,66.2666 122.722187,68.6766 C125.155568,70.8986 127.699741,71.7426 128.868086,72.0316 C128.594129,74.6966 128.114705,77.3066 127.461036,79.8446 C127.361324,78.3396 127.099453,76.4956 126.44377,75.2816 C124.662043,71.9676 119.919165,70.4236 119.919165,70.4236 C119.919165,70.4236 119.061036,74.7926 121.285928,77.6756 C123.310388,80.3026 125.679309,81.5976 126.819453,82.1096 C126.076144,84.5586 125.173698,86.9366 124.133266,89.2286 C124.278302,87.7536 124.313554,86.0036 123.89859,84.7486 C122.697007,81.1046 118.207942,78.7196 118.207942,78.7196 C118.207942,78.7196 116.567223,82.9576 118.288518,86.2476 C119.818446,89.1766 121.90636,90.8836 122.984058,91.6276 C121.852978,93.8546 120.598014,95.9896 119.242331,98.0156 C119.624058,96.6026 119.927223,94.9596 119.743914,93.6916 C119.186935,89.8196 115.10377,86.6326 115.10377,86.6326 C115.10377,86.6326 112.695568,90.6026 113.838734,94.2126 C114.837871,97.3806 116.596432,99.4506 117.560317,100.4036 C116.004201,102.5096 114.352403,104.4826 112.627079,106.2976 C113.297871,104.9026 113.960604,103.2016 114.005928,101.8256 C114.135856,97.8376 110.596576,93.9166 110.596576,93.9166 C110.596576,93.9166 107.474273,97.4826 107.977871,101.3086 C108.429094,104.7456 109.878446,107.1666 110.66305,108.2616 C108.72823,110.1136 106.72895,111.7726 104.704489,113.2106 C105.645209,111.9156 106.64636,110.2866 106.939453,108.8866 C107.781468,104.9016 104.927079,100.3386 104.927079,100.3386 C104.927079,100.3386 101.152115,103.3716 100.972835,107.3076 C100.813698,110.8136 101.826935,113.4876 102.42118,114.7386 C101.643626,115.2236 100.867079,115.6786 100.089525,116.0956 C98.6814676,116.9146 97.3046331,117.6376 95.961036,118.2876 C97.0679424,117.1906 98.227223,115.8376 98.7368633,114.5776 C100.292978,110.7176 98.2403165,105.6306 98.2403165,105.6306 C98.2403165,105.6306 93.9033381,108.0146 93.0220432,111.9386 C92.2525468,115.3576 92.7541295,118.1786 93.1277986,119.5756 C90.6652086,120.6196 88.3677986,121.4026 86.3020432,121.9926 C87.5942734,121.0896 88.9711079,119.9516 89.697295,118.7896 C91.9513957,115.1846 90.7951367,109.7126 90.7951367,109.7126 C90.7951367,109.7126 86.0129784,111.3436 84.4276547,115.1326 C83.0558561,118.4096 83.044777,121.3126 83.1666475,122.7926 C78.590964,123.8206 75.8665036,124.0056 75.8665036,124.0056 L75.9682302,125.0136 L76.0729784,126.0226 C76.0729784,126.0226 79.5608921,125.8036 85.2243453,124.3126 C85.9777266,125.5606 87.7121151,127.9566 90.8243453,129.8396 C94.3515396,131.9786 99.1890935,130.5056 99.1890935,130.5056 C99.1890935,130.5056 96.8795971,125.4026 92.9213237,123.8046 C91.823482,123.3616 90.3469353,123.2146 88.9479424,123.1976 C90.9331223,122.5336 93.0824748,121.6956 95.3486619,120.6426 C96.2813237,121.7146 98.372259,123.7516 101.717151,125.0526 C105.488086,126.5196 109.904633,124.2786 109.904633,124.2786 C109.904633,124.2786 106.80046,119.7466 102.70823,118.8736 C101.551971,118.6266 100.070388,118.7436 98.6955683,118.9696 C99.4660719,118.5586 100.243626,118.1226 101.030245,117.6566 C102.271108,116.9756 103.519022,116.2046 104.755856,115.3546 C105.861755,116.2386 108.210532,117.8136 111.611827,118.4946 C115.502619,119.2736 119.380317,116.3656 119.380317,116.3656 C119.380317,116.3656 115.609381,112.5136 111.507079,112.3636 C110.398158,112.3226 109.050532,112.6536 107.807655,113.0816 C109.560173,111.6726 111.281468,110.1066 112.945353,108.4006 C114.135856,109.0636 116.70118,110.2256 120.162906,110.3096 C124.049669,110.4026 127.293842,106.9416 127.293842,106.9416 C127.293842,106.9416 122.994129,103.8626 119.010676,104.4086 C117.830245,104.5706 116.454417,105.2126 115.246791,105.9046 C116.812978,104.1136 118.30564,102.1966 119.706647,100.1686 C120.904201,100.5996 123.656863,101.3626 127.142763,100.8396 C130.911683,100.2726 133.449813,96.3846 133.449813,96.3846 C133.449813,96.3846 128.771396,94.1386 125.019597,95.3396 C123.801899,95.7286 122.460317,96.7116 121.355424,97.6656 C122.676863,95.5446 123.892547,93.3196 124.976288,91.0066 C126.210101,91.2186 128.993986,91.4876 132.261324,90.3956 C135.801612,89.2126 137.582331,85.0306 137.582331,85.0306 C137.582331,85.0306 132.684345,83.6526 129.26895,85.4446 C128.18118,86.0176 127.071252,87.1646 126.176863,88.2536 C127.116576,85.9536 127.925353,83.5766 128.574993,81.1366 C129.811827,81.1336 132.532259,80.9176 135.485353,79.3186 M56.5646331,122.7926 C56.6865036,121.3126 56.6764317,118.4096 55.3036259,115.1326 C53.717295,111.3436 48.9351367,109.7126 48.9351367,109.7126 C48.9351367,109.7126 47.7788777,115.1846 50.030964,118.7896 C50.7571511,119.9516 52.136,121.0896 53.4282302,121.9926 C51.363482,121.4026 49.0650647,120.6196 46.6024748,119.5756 C46.9761439,118.1786 47.4777266,115.3576 46.7082302,111.9386 C45.8269353,108.0146 41.4899568,105.6306 41.4899568,105.6306 C41.4899568,105.6306 39.4383022,110.7176 40.9944173,114.5776 C41.5030504,115.8376 42.6623309,117.1906 43.7692374,118.2876 C42.4256403,117.6376 41.0467914,116.9146 39.6387338,116.0956 C38.8631942,115.6786 38.0866475,115.2236 37.3090935,114.7386 C37.9053525,113.4876 38.9165755,110.8136 38.7574388,107.3076 C38.5801727,103.3716 34.8031942,100.3386 34.8031942,100.3386 C34.8031942,100.3386 31.9488058,104.9016 32.7908201,108.8866 C33.0859281,110.2866 34.0850647,111.9156 35.0257842,113.2116 C33.0033381,111.7726 31.0030504,110.1136 29.067223,108.2616 C29.8518273,107.1666 31.3031942,104.7456 31.7524029,101.3086 C32.2580144,97.4826 29.1316835,93.9166 29.1316835,93.9166 C29.1316835,93.9166 25.5964317,97.8376 25.7243453,101.8256 C25.7696691,103.2016 26.4334101,104.9046 27.1042014,106.2986 C25.3788777,104.4846 23.7260719,102.5096 22.1719712,100.4056 C23.1338417,99.4506 24.8924029,97.3806 25.8915396,94.2126 C27.034705,90.6026 24.6295252,86.6326 24.6295252,86.6326 C24.6295252,86.6326 20.5433381,89.8196 19.9863597,93.6916 C19.8040576,94.9596 20.1062158,96.6026 20.4879424,98.0156 C19.1342734,95.9896 17.8793094,93.8546 16.7462158,91.6276 C17.8249209,90.8836 19.9138417,89.1766 21.4417554,86.2476 C23.1630504,82.9576 21.5233381,78.7196 21.5233381,78.7196 C21.5233381,78.7196 17.0342734,81.1046 15.8316835,84.7486 C15.4187338,86.0036 15.4519712,87.7536 15.5980144,89.2286 C14.5575827,86.9366 13.6541295,84.5586 12.9108201,82.1096 C14.0519712,81.5976 16.4198849,80.3026 18.4443453,77.6756 C20.6692374,74.7926 19.8131223,70.4236 19.8131223,70.4236 C19.8131223,70.4236 15.0702446,71.9676 13.288518,75.2816 C12.6308201,76.4956 12.3719712,78.3396 12.2712518,79.8446 C11.6165755,77.3066 11.1361439,74.6966 10.8631942,72.0316 C12.0315396,71.7426 14.574705,70.8986 17.0080863,68.6766 C19.6519712,66.2666 19.5734101,61.9086 19.5734101,61.9086 C19.5734101,61.9086 14.7318273,62.5956 12.4444892,65.4946 C11.5944173,66.5656 11.0243453,68.3246 10.6698129,69.7666 C10.4099568,66.9936 10.384777,64.2346 10.5640576,61.5146 C11.6931223,61.4466 14.3601727,61.0896 17.1652086,59.3086 C20.1283741,57.4296 20.8011799,53.2106 20.8011799,53.2106 C20.8011799,53.2106 16.0089496,53.0566 13.3036259,55.4646 C12.2198849,56.4286 11.3113957,58.2196 10.7211799,59.6086 C11.0183022,56.6826 11.541036,53.8076 12.267223,51.0156 C13.3831942,51.1386 16.0049209,51.2356 18.997295,49.9996 C22.1780144,48.6866 23.5508201,44.7256 23.5508201,44.7256 C23.5508201,44.7256 18.9519712,43.7686 15.9283741,45.6366 C14.7580144,46.3596 13.6108201,47.8576 12.8060719,49.0786 C13.6329784,46.2926 14.6492374,43.5966 15.8216115,41.0216 C16.8781583,41.3296 19.3901007,41.8666 22.4892374,41.1776 C25.7857842,40.4496 27.7860719,36.8596 27.7860719,36.8596 C27.7860719,36.8596 23.5155683,35.1586 20.2734101,36.4506 C19.0124029,36.9526 17.6395971,38.2186 16.6545612,39.2636 C17.9578705,36.6206 19.4243453,34.1206 21.0076547,31.7936 C21.8929784,32.2436 24.2870791,33.2716 27.5262158,33.1266 C30.8318273,32.9796 33.3790216,29.8516 33.3790216,29.8516 C33.3790216,29.8516 29.5486619,27.4896 26.2007482,28.1896 C24.7564317,28.4906 23.0200288,29.6726 21.8728345,30.5586 C23.6928345,28.0216 25.6498129,25.7156 27.6843453,23.6876 C28.3662158,24.2176 30.5538417,25.7246 33.8473669,26.1506 C37.0633381,26.5686 40.0617554,23.9816 40.0617554,23.9816 C40.0617554,23.9816 36.7662158,21.0526 33.4142734,21.1626 C31.8269353,21.2136 29.7178705,22.2276 28.4830504,22.9056 C29.6080863,21.8316 30.7552806,20.8436 31.9115396,19.9516 C33.2057842,18.8806 34.4869353,17.9116 35.7459281,17.0236 C36.3341295,17.6696 38.1833381,19.4686 41.2593094,20.4256 C44.2889496,21.3726 47.6257842,19.3806 47.6257842,19.3806 C47.6257842,19.3806 44.9456403,16.0006 41.6944173,15.5386 C40.1775827,15.3226 38.0121151,15.9236 36.6957122,16.3656 C39.536,14.4396 42.227223,12.9536 44.6233381,11.8106 C44.9889496,12.4136 46.4644892,14.6036 49.4216115,16.1246 C52.1853525,17.5506 55.7437698,16.1926 55.7437698,16.1926 C55.7437698,16.1926 53.7374388,12.4766 50.6806043,11.4816 C49.0831942,10.9636 46.5279424,11.2926 45.2749928,11.5056 C47.4112518,10.5186 49.2896691,9.8046 50.8004604,9.2876 C51.4511079,9.6046 53.6075108,10.5296 55.5594532,9.8636 C58.472259,8.8706 59.9145612,6.9206 59.9145612,6.9206 C59.9145612,6.9206 56.9060719,5.7766 55.1183022,6.0776 C52.8793094,6.4586 51.0502446,8.6196 50.6745612,9.0896 C49.4316835,9.4776 47.9460719,9.9926 46.2741295,10.6796 C47.3518273,9.9456 49.3289496,8.4686 50.0924029,7.0356 C51.5991655,4.2086 50.4439137,0.1526 50.4439137,0.1526 C50.4439137,0.1526 46.9308201,1.6286 45.9377266,4.5576 C44.861036,7.7346 45.3595971,10.3616 45.5086619,11.0016 C43.0752806,12.0466 40.2913957,13.4426 37.3191655,15.3156 C38.2951367,14.3426 39.8351367,12.6456 40.3115396,11.1726 C41.3227626,8.0666 39.4362878,4.1956 39.4362878,4.1956 C39.4362878,4.1956 36.170964,6.2956 35.6945612,9.4156 C35.190964,12.7136 36.1014676,15.2206 36.3925468,15.9136 C34.8011799,16.9566 33.1644892,18.1296 31.5046331,19.4606 C30.7663597,20.0116 30.0331223,20.6056 29.3029065,21.2316 C30.0865036,20.0606 31.0554245,18.3806 31.2467914,17.0166 C31.7070791,13.7186 29.1216115,10.1596 29.1216115,10.1596 C29.1216115,10.1596 26.2128345,12.8436 26.2913957,16.0626 C26.3699568,19.2556 27.5695252,21.5286 28.0640576,22.3336 C26.0194532,24.2186 24.0352806,26.3876 22.1699568,28.7856 C22.7249209,27.4866 23.332259,25.7406 23.2839137,24.4056 C23.156,21.0096 19.9198849,17.8876 19.9198849,17.8876 C19.9198849,17.8876 17.478446,21.0976 18.1331223,24.3186 C18.7787338,27.5026 20.3842014,29.5726 21.0267914,30.2986 C19.3216115,32.6376 17.732259,35.1716 16.3040576,37.8656 C16.6404604,36.4526 16.964777,34.5276 16.6676547,33.1616 C15.9344173,29.7716 12.127223,27.2036 12.127223,27.2036 C12.127223,27.2036 10.2467914,30.8596 11.4785899,33.9796 C12.7043453,37.0896 14.7066475,38.8896 15.4721151,39.4946 C14.2262158,42.0166 13.1233381,44.6606 12.2067914,47.4056 C12.2692374,45.9746 12.2138417,44.1876 11.7142734,42.9666 C10.3726906,39.6916 6.08808633,37.7806 6.08808633,37.7806 C6.08808633,37.7806 4.8512518,41.7836 6.64707914,44.7036 C8.37643165,47.5186 10.618446,48.9746 11.5551367,49.4936 C10.7977266,52.0536 10.2075108,54.6926 9.80463309,57.3856 C9.5941295,56.0466 9.22952518,54.5306 8.59297842,53.5226 C6.66117986,50.4676 2.01398561,49.2996 2.01398561,49.2996 C2.01398561,49.2996 1.48520863,53.5426 3.80880576,56.1586 C5.95815827,58.5816 8.36031655,59.6656 9.46420144,60.0646 C9.20233094,62.6626 9.1217554,65.3036 9.24564029,67.9706 C8.79743885,66.6786 8.16794245,65.2546 7.36319424,64.3716 C4.87441727,61.6396 -0.000402877698,61.2826 -0.000402877698,61.2826 C-0.000402877698,61.2826 0.22218705,65.6386 3.02520863,67.8616 C5.63988489,69.9356 8.27369784,70.5946 9.43902158,70.7956 C9.60621583,73.3166 9.94966906,75.7986 10.457295,78.2256 C9.78448921,77.0366 8.91930935,75.7726 7.98261871,75.0476 C4.99225899,72.7406 0.0298129496,73.2416 0.0298129496,73.2416 C0.0298129496,73.2416 1.03297842,77.5786 4.24693525,79.3186 C7.19801439,80.9176 9.91844604,81.1336 11.1562878,81.1366 C11.8049209,83.5766 12.6116835,85.9536 13.5534101,88.2536 C12.6590216,87.1646 11.5490935,86.0176 10.4613237,85.4446 C7.04492086,83.6526 2.14794245,85.0306 2.14794245,85.0306 C2.14794245,85.0306 3.92866187,89.2126 7.46693525,90.3956 C10.737295,91.4876 13.5201727,91.2186 14.7539856,91.0066 C15.8357122,93.3196 17.0534101,95.5446 18.3758561,97.6656 C17.2699568,96.7106 15.9263597,95.7286 14.7106763,95.3396 C10.9608921,94.1386 6.28348201,96.3846 6.28348201,96.3846 C6.28348201,96.3846 8.82060432,100.2726 12.5875108,100.8396 C16.0713957,101.3626 18.8260719,100.5996 20.0236259,100.1686 C21.4246331,102.1966 22.917295,104.1136 24.483482,105.9046 C23.2758561,105.2126 21.901036,104.5706 20.7206043,104.4086 C16.7371511,103.8626 12.4364317,106.9416 12.4364317,106.9416 C12.4364317,106.9416 15.6806043,110.4026 19.5673669,110.3096 C23.0301007,110.2256 25.5954245,109.0636 26.7869353,108.4006 C28.4498129,110.1066 30.1701007,111.6726 31.9236259,113.0816 C30.679741,112.6536 29.3321151,112.3226 28.2231942,112.3636 C24.1239137,112.5136 20.3499568,116.3656 20.3499568,116.3656 C20.3499568,116.3656 24.2276547,119.2736 28.118446,118.4946 C31.519741,117.8136 33.8665036,116.2406 34.9724029,115.3546 C36.2132662,116.2046 37.4571511,116.9756 38.7000288,117.6566 C39.4866475,118.1226 40.2642014,118.5586 41.0336978,118.9696 C39.6618993,118.7436 38.1793094,118.6266 37.0220432,118.8736 C32.9308201,119.7466 29.8266475,124.2786 29.8266475,124.2786 C29.8266475,124.2786 34.2421871,126.5196 38.0141295,125.0526 C41.3580144,123.7516 43.4489496,121.7146 44.3816115,120.6426 C46.6477986,121.6956 48.7981583,122.5336 50.7823309,123.1976 C49.3843453,123.2146 47.9067914,123.3616 46.8089496,123.8046 C42.8506763,125.4026 40.5411799,130.5056 40.5411799,130.5056 C40.5411799,130.5056 45.3787338,131.9786 48.9059281,129.8396 C52.0181583,127.9566 53.753554,125.5606 54.5069353,124.3126 C60.1703885,125.8036 63.6593094,126.0226 63.6593094,126.0226 L63.7620432,125.0136 L63.8667914,124.0056 C63.8667914,124.0056 61.1413237,123.8206 56.5646331,122.7926" id="Fill-1" fill="#D9D9D9" mask="url(#mask-2)"></path>
            </g>
            <path d="M34.8520569,61.6323179 L33.1944669,61.6323179 L30.6307277,49.3219495 L30.6307277,61.6544191 L29.1278461,61.6544191 L29.1278461,46.1835791 L31.5368769,46.1835791 L34.0785149,58.5381499 L36.5317481,46.1835791 L38.9407789,46.1835791 L38.9407789,61.6544191 L37.3052901,61.6544191 L37.3052901,49.2114435 L34.8520569,61.6323179 Z M40.5762677,49.9186819 C40.5762677,48.7252171 40.8672669,47.7785492 41.4492651,47.0786777 C42.0312632,46.3788063 42.9189949,46.0288707 44.1124597,46.0288707 C45.3059245,46.0288707 46.1973394,46.3788063 46.7867049,47.0786777 C47.3760703,47.7785492 47.6707529,48.7252171 47.6707529,49.9186819 L47.6707529,57.9193163 C47.6707529,59.0980469 47.3760703,60.0410315 46.7867049,60.7482699 C46.1973394,61.4555083 45.3059245,61.8091275 44.1124597,61.8091275 C42.9189949,61.8091275 42.0312632,61.4555083 41.4492651,60.7482699 C40.8672669,60.0410315 40.5762677,59.0980469 40.5762677,57.9193163 L40.5762677,49.9186819 Z M42.2780601,58.0077211 C42.2780601,58.7149595 42.4290848,59.2638059 42.7311347,59.6542605 C43.0331845,60.0447152 43.4936261,60.2399423 44.1124597,60.2399423 C44.7460275,60.2399423 45.2101527,60.0447152 45.5048353,59.6542605 C45.7995178,59.2638059 45.9468593,58.7149595 45.9468593,58.0077211 L45.9468593,49.8302771 C45.9468593,49.1230387 45.7995178,48.5741924 45.5048353,48.1837377 C45.2101527,47.7932831 44.7460275,47.5980559 44.1124597,47.5980559 C43.4936261,47.5980559 43.0331845,47.7932831 42.7311347,48.1837377 C42.4290848,48.5741924 42.2780601,49.1230387 42.2780601,49.8302771 L42.2780601,58.0077211 Z M50.8312245,61.6544191 L49.2841405,61.6544191 L49.2841405,46.1835791 L51.4721593,46.1835791 L55.0525537,57.3667863 L55.0525537,46.1835791 L56.5775365,46.1835791 L56.5775365,61.6544191 L54.7873393,61.6544191 L50.8312245,49.1451399 L50.8312245,61.6544191 Z M63.8488313,53.0349511 L63.8488313,54.5820351 L60.0695261,54.5820351 L60.0695261,60.0852339 L64.7107781,60.0852339 L64.7107781,61.6544191 L58.3456325,61.6544191 L58.3456325,46.1835791 L64.7107781,46.1835791 L64.7107781,47.7527643 L60.0695261,47.7527643 L60.0695261,53.0349511 L63.8488313,53.0349511 Z M69.0426133,56.1070179 L65.7716357,46.1835791 L67.5618329,46.1835791 L69.9708637,53.7863919 L72.4019957,46.1835791 L74.0374845,46.1835791 L70.7444057,56.1070179 L70.7444057,61.6544191 L69.0426133,61.6544191 L69.0426133,56.1070179 Z M82.1707261,46.1835791 C83.3789251,46.1835791 84.2408719,46.4672111 84.7565665,47.0344753 C85.272261,47.6017396 85.5301085,48.4600027 85.5301085,49.6092651 L85.5301085,50.3386047 C85.5301085,51.1637161 85.3975013,51.8304357 85.1322869,52.3387633 C84.8670725,52.8470909 84.3955803,53.2043938 83.7178101,53.4106715 C84.4692509,53.6169493 85.0033633,54.0074039 85.3201471,54.5820351 C85.6369308,55.1566663 85.7953229,55.8712717 85.7953229,56.7258515 L85.7953229,58.0298223 C85.7953229,59.193819 85.5080073,60.0889176 84.9333761,60.7151181 C84.3587449,61.3413187 83.4673299,61.6544191 82.2591309,61.6544191 L78.7008377,61.6544191 L78.7008377,46.1835791 L82.1707261,46.1835791 Z M81.7508033,52.7476355 C82.4433074,52.7476355 82.9626856,52.6076614 83.3089379,52.3277127 C83.6551901,52.0477641 83.8283161,51.5026014 83.8283161,50.6922239 L83.8283161,49.7860747 C83.8283161,49.0935706 83.6993925,48.5815593 83.4415451,48.2500413 C83.1836976,47.9185233 82.7453573,47.7527643 82.1265237,47.7527643 L80.4247313,47.7527643 L80.4247313,52.7476355 L81.7508033,52.7476355 Z M82.2591309,60.0852339 C83.4820638,60.0852339 84.0935305,59.3853625 84.0935305,57.9856199 L84.0935305,56.6153455 C84.0935305,55.7460318 83.9204045,55.1456157 83.5741523,54.8140977 C83.2279,54.4825797 82.6790537,54.3168207 81.9276129,54.3168207 L80.4247313,54.3168207 L80.4247313,60.0852339 L82.2591309,60.0852339 Z M89.1105029,58.5381499 L88.5137705,61.6544191 L86.9224841,61.6544191 L89.8840449,46.1835791 L92.3814805,46.1835791 L95.3430413,61.6544191 L93.6191477,61.6544191 L93.0224153,58.5381499 L89.1105029,58.5381499 Z M89.3315149,57.0573695 L92.7793021,57.0573695 L91.0333073,48.1284847 L89.3315149,57.0573695 Z M100.028496,46.0288707 C101.22196,46.0288707 102.102325,46.3824899 102.669589,47.0897283 C103.236853,47.7969667 103.520485,48.7399514 103.520485,49.9186819 L103.520485,51.3110575 L101.884996,51.3110575 L101.884996,49.8302771 C101.884996,49.1230387 101.741339,48.5741924 101.454023,48.1837377 C101.166707,47.7932831 100.706266,47.5980559 100.072698,47.5980559 C99.4538645,47.5980559 98.9971062,47.7932831 98.7024237,48.1837377 C98.4077411,48.5741924 98.2603997,49.1230387 98.2603997,49.8302771 L98.2603997,58.0077211 C98.2603997,58.7149595 98.4077411,59.2638059 98.7024237,59.6542605 C98.9971062,60.0447152 99.4538645,60.2399423 100.072698,60.2399423 C100.706266,60.2399423 101.166707,60.0447152 101.454023,59.6542605 C101.741339,59.2638059 101.884996,58.7149595 101.884996,58.0077211 L101.884996,55.9965119 L103.520485,55.9965119 L103.520485,57.9193163 C103.520485,59.0980469 103.236853,60.0410315 102.669589,60.7482699 C102.102325,61.4555083 101.22196,61.8091275 100.028496,61.8091275 C98.8497651,61.8091275 97.9767677,61.4555083 97.4095035,60.7482699 C96.8422392,60.0410315 96.5586073,59.0980469 96.5586073,57.9193163 L96.5586073,49.9186819 C96.5586073,49.3293165 96.6285945,48.7952044 96.7685687,48.3163449 C96.9085428,47.8374855 97.1221879,47.4286133 97.4095035,47.0897283 C97.6968191,46.7508434 98.0578052,46.4893123 98.4924623,46.3051357 C98.9271193,46.1209592 99.4391302,46.0288707 100.028496,46.0288707 Z M107.719713,54.9356543 L106.813564,56.4606371 L106.813564,61.6544191 L105.08967,61.6544191 L105.08967,46.1835791 L106.813564,46.1835791 L106.813564,53.6537847 L110.924387,46.1835791 L112.670382,46.1835791 L108.75847,53.2338619 L112.802989,61.6544191 L111.034893,61.6544191 L107.719713,54.9356543 Z" id="money-back" fill="#DA0000"></path>
            <path d="M31.9529836,68.0195647 C33.1464484,68.0195647 34.0268128,68.3731839 34.594077,69.0804223 C35.1613413,69.7876607 35.4449732,70.7306454 35.4449732,71.9093759 L35.4449732,73.2354479 L33.8094844,73.2354479 L33.8094844,71.8209711 C33.8094844,71.1137327 33.6658266,70.5648864 33.378511,70.1744317 C33.0911954,69.7839771 32.6307539,69.5887499 31.997186,69.5887499 C31.3783524,69.5887499 30.9215942,69.7839771 30.6269116,70.1744317 C30.3322291,70.5648864 30.1848876,71.1137327 30.1848876,71.8209711 L30.1848876,79.9984151 C30.1848876,80.7056535 30.3322291,81.2544999 30.6269116,81.6449545 C30.9215942,82.0354092 31.3783524,82.2306363 31.997186,82.2306363 C32.6307539,82.2306363 33.0911954,82.0354092 33.378511,81.6449545 C33.6658266,81.2544999 33.8094844,80.7056535 33.8094844,79.9984151 L33.8094844,76.9042471 L32.218198,76.9042471 L32.218198,75.3571631 L35.4449732,75.3571631 L35.4449732,79.9100103 C35.4449732,81.0887409 35.1613413,82.0317255 34.594077,82.7389639 C34.0268128,83.4462023 33.1464484,83.7998215 31.9529836,83.7998215 C30.7742531,83.7998215 29.9012557,83.4462023 29.3339914,82.7389639 C28.7667272,82.0317255 28.4830952,81.0887409 28.4830952,79.9100103 L28.4830952,71.9093759 C28.4830952,71.3200105 28.5530825,70.7858984 28.6930566,70.3070389 C28.8330308,69.8281795 29.0466758,69.4193073 29.3339914,69.0804223 C29.621307,68.7415374 29.9822932,68.4800063 30.4169502,68.2958297 C30.8516073,68.1116532 31.3636182,68.0195647 31.9529836,68.0195647 Z M38.7159508,79.9984151 C38.7159508,80.7056535 38.8596086,81.2544999 39.1469242,81.6449545 C39.4342398,82.0354092 39.8946814,82.2306363 40.5282492,82.2306363 C41.1470828,82.2306363 41.6001574,82.0354092 41.887473,81.6449545 C42.1747886,81.2544999 42.3184464,80.7056535 42.3184464,79.9984151 L42.3184464,68.1742731 L43.931834,68.1742731 L43.931834,79.9100103 C43.931834,81.0887409 43.6518854,82.0354092 43.0919884,82.7500145 C42.5320915,83.4646199 41.6554104,83.8219227 40.4619456,83.8219227 C39.2832151,83.8219227 38.413901,83.4646199 37.854004,82.7500145 C37.2941071,82.0354092 37.0141584,81.0887409 37.0141584,79.9100103 L37.0141584,68.1742731 L38.7159508,68.1742731 L38.7159508,79.9984151 Z M47.3796212,80.5288439 L46.7828888,83.6451131 L45.1916024,83.6451131 L48.1531632,68.1742731 L50.6505988,68.1742731 L53.6121596,83.6451131 L51.888266,83.6451131 L51.2915336,80.5288439 L47.3796212,80.5288439 Z M47.6006332,79.0480635 L51.0484204,79.0480635 L49.3024256,70.1191787 L47.6006332,79.0480635 Z M58.40812,68.1742731 C59.631053,68.1742731 60.5114177,68.476323 61.0492134,69.0804223 C61.5870092,69.6845217 61.8559072,70.5612027 61.8559072,71.7104651 L61.8559072,72.9702335 C61.8559072,73.8248134 61.7011988,74.5173175 61.391782,75.0477463 C61.0823652,75.5781751 60.5961388,75.9465286 59.9331028,76.1528063 C60.6403412,76.3590841 61.1413019,76.7384881 61.4359844,77.2910181 C61.730667,77.8435481 61.8780084,78.5397359 61.8780084,79.3795815 L61.8780084,81.7886123 C61.8780084,82.1274973 61.8927427,82.455332 61.9222108,82.7721157 C61.951679,83.0888995 62.0400838,83.3798987 62.1874252,83.6451131 L60.4414304,83.6451131 C60.3382914,83.4241011 60.2646208,83.1846716 60.2204184,82.9268241 C60.176216,82.6689767 60.1541148,82.2822057 60.1541148,81.7665111 L60.1541148,79.3353791 C60.1541148,78.4660654 59.9588877,77.8656493 59.568433,77.5341313 C59.1779784,77.2026133 58.6217651,77.0368543 57.8997924,77.0368543 L56.6842264,77.0368543 L56.6842264,83.6451131 L54.9603328,83.6451131 L54.9603328,68.1742731 L58.40812,68.1742731 Z M57.966096,75.4676691 C58.6586002,75.4676691 59.1963963,75.3240113 59.5794836,75.0366957 C59.962571,74.7493801 60.1541148,74.1857995 60.1541148,73.3459539 L60.1541148,71.8651735 C60.1541148,71.1579351 60.017824,70.6275063 59.7452426,70.2738871 C59.4726613,69.9202679 59.0122194,69.7434583 58.3639176,69.7434583 L56.6842264,69.7434583 L56.6842264,75.4676691 L57.966096,75.4676691 Z M65.4142004,80.5288439 L64.817468,83.6451131 L63.2261816,83.6451131 L66.1877424,68.1742731 L68.685178,68.1742731 L71.6467388,83.6451131 L69.9228452,83.6451131 L69.3261128,80.5288439 L65.4142004,80.5288439 Z M65.6352124,79.0480635 L69.0829996,79.0480635 L67.3370048,70.1191787 L65.6352124,79.0480635 Z M74.5198948,83.6451131 L72.9728108,83.6451131 L72.9728108,68.1742731 L75.1608296,68.1742731 L78.741224,79.3574803 L78.741224,68.1742731 L80.2662068,68.1742731 L80.2662068,83.6451131 L78.4760096,83.6451131 L74.5198948,71.1358339 L74.5198948,83.6451131 Z M84.266524,83.6451131 L84.266524,69.7434583 L81.4154692,69.7434583 L81.4154692,68.1742731 L88.8193712,68.1742731 L88.8193712,69.7434583 L85.9683164,69.7434583 L85.9683164,83.6451131 L84.266524,83.6451131 Z M95.4939336,75.0256451 L95.4939336,76.5727291 L91.7146284,76.5727291 L91.7146284,82.0759279 L96.3558804,82.0759279 L96.3558804,83.6451131 L89.9907348,83.6451131 L89.9907348,68.1742731 L96.3558804,68.1742731 L96.3558804,69.7434583 L91.7146284,69.7434583 L91.7146284,75.0256451 L95.4939336,75.0256451 Z M103.450366,75.0256451 L103.450366,76.5727291 L99.6710604,76.5727291 L99.6710604,82.0759279 L104.312312,82.0759279 L104.312312,83.6451131 L97.9471668,83.6451131 L97.9471668,68.1742731 L104.312312,68.1742731 L104.312312,69.7434583 L99.6710604,69.7434583 L99.6710604,75.0256451 L103.450366,75.0256451 Z M109.528196,68.1742731 C110.736395,68.1742731 111.624126,68.5168417 112.19139,69.2019789 C112.758654,69.8871161 113.042286,70.8264171 113.042286,72.0198819 L113.042286,79.8216055 C113.042286,81.0150703 112.758654,81.9506877 112.19139,82.6284579 C111.624126,83.3062282 110.736395,83.6451131 109.528196,83.6451131 L105.903599,83.6451131 L105.903599,68.1742731 L109.528196,68.1742731 Z M109.506094,82.0759279 C110.124928,82.0759279 110.58537,81.8880677 110.887419,81.5123473 C111.189469,81.1366269 111.340494,80.5951475 111.340494,79.8879091 L111.340494,71.9314771 C111.340494,71.2242387 111.189469,70.6827593 110.887419,70.3070389 C110.58537,69.9313185 110.117561,69.7434583 109.483993,69.7434583 L107.627492,69.7434583 L107.627492,82.0759279 L109.506094,82.0759279 Z" id="guaranteed" fill="#ACACAC"></path>
        </g>
    </g>
</svg>