<?xml version="1.0" encoding="UTF-8"?>
<svg width="140px" height="131px" viewBox="0 0 140 131" version="1.1" xmlns="http://www.w3.org/2000/svg" xmlns:xlink="http://www.w3.org/1999/xlink">
    <!-- Generator: Sketch 48.2 (47327) - http://www.bohemiancoding.com/sketch -->
    <title>guarantee_2</title>
    <desc>Created with Sketch.</desc>
    <defs>
        <polygon id="path-1" points="0 131 0 0.153 139.730072 0.153 139.730072 131"></polygon>
    </defs>
    <g id="New-AxumGear" stroke="none" stroke-width="1" fill="none" fill-rule="evenodd" transform="translate(-838.000000, -17037.000000)">
        <g id="guarantee_2" transform="translate(838.000000, 17036.000000)">
            <g id="Group-3" transform="translate(0.000000, 0.847000)">
                <mask id="mask-2" fill="white">
                    <use xlink:href="#path-1"></use>
                </mask>
                <g id="Clip-2"></g>
                <path d="M135.485353,79.3186 C138.697295,77.5786 139.701468,73.2416 139.701468,73.2416 C139.701468,73.2416 134.738014,72.7406 131.747655,75.0476 C130.810964,75.7726 129.945784,77.0366 129.272978,78.2256 C129.782619,75.7986 130.125065,73.3166 130.292259,70.7956 C131.456576,70.5956 134.088374,69.9356 136.70305,67.8616 C139.508086,65.6386 139.730676,61.2826 139.730676,61.2826 C139.730676,61.2826 134.855856,61.6396 132.367079,64.3716 C131.562331,65.2556 130.932835,66.6786 130.484633,67.9706 C130.610532,65.3046 130.527942,62.6626 130.264058,60.0646 C131.369957,59.6656 133.772115,58.5816 135.922475,56.1586 C138.245065,53.5426 137.716288,49.2996 137.716288,49.2996 C137.716288,49.2996 133.070101,50.4676 131.138302,53.5226 C130.500748,54.5316 130.136144,56.0476 129.92564,57.3876 C129.522763,54.6936 128.932547,52.0536 128.177151,49.4936 C129.111827,48.9746 131.353842,47.5186 133.083194,44.7036 C134.881036,41.7836 133.642187,37.7806 133.642187,37.7806 C133.642187,37.7806 129.357583,39.6916 128.013986,42.9666 C127.516432,44.1876 127.461036,45.9746 127.524489,47.4056 C126.607942,44.6606 125.504058,42.0166 124.259165,39.4946 C125.023626,38.8896 127.026935,37.0896 128.251683,33.9796 C129.483482,30.8596 127.60305,27.2036 127.60305,27.2036 C127.60305,27.2036 123.797871,29.7716 123.062619,33.1616 C122.767511,34.5276 123.091827,36.4546 123.426216,37.8666 C121.998014,35.1726 120.408662,32.6376 118.703482,30.2986 C119.347079,29.5726 120.95154,27.5026 121.597151,24.3186 C122.249813,21.0976 119.810388,17.8876 119.810388,17.8876 C119.810388,17.8876 116.575281,21.0096 116.447367,24.4056 C116.398014,25.7406 117.005353,27.4866 117.562331,28.7856 C115.693986,26.3876 113.71082,24.2186 111.667223,22.3336 C112.160748,21.5286 113.360317,19.2556 113.438878,16.0626 C113.517439,12.8436 110.610676,10.1596 110.610676,10.1596 C110.610676,10.1596 108.025209,13.7186 108.485496,17.0166 C108.674849,18.3806 109.644777,20.0606 110.427367,21.2316 C109.697151,20.6056 108.963914,20.0116 108.226647,19.4606 C106.565784,18.1296 104.929094,16.9566 103.337727,15.9136 C103.628806,15.2216 104.541324,12.7136 104.037727,9.4156 C103.562331,6.2956 100.296,4.1956 100.296,4.1956 C100.296,4.1956 98.4075108,8.0666 99.4187338,11.1726 C99.8971511,12.6456 101.435137,14.3426 102.413122,15.3176 C99.4388777,13.4426 96.6570072,12.0466 94.2216115,11.0016 C94.3716835,10.3616 94.8692374,7.7346 93.7925468,4.5576 C92.7994532,1.6286 89.2863597,0.1526 89.2863597,0.1526 C89.2863597,0.1526 88.1331223,4.2086 89.6378705,7.0356 C90.3993094,8.4676 92.378446,9.9446 93.4561439,10.6796 C91.7842014,9.9926 90.2995971,9.4776 89.0557122,9.0896 C88.6800288,8.6196 86.850964,6.4586 84.6139856,6.0776 C82.8242014,5.7766 79.8167194,6.9206 79.8167194,6.9206 C79.8167194,6.9206 81.2580144,8.8706 84.1718273,9.8636 C86.124777,10.5296 88.2811799,9.6046 88.9298129,9.2876 C90.4406043,9.8046 92.3220432,10.5186 94.4583022,11.5056 C93.2043453,11.2926 90.6490935,10.9636 89.0496691,11.4816 C85.9928345,12.4766 83.9865036,16.1926 83.9865036,16.1926 C83.9865036,16.1926 87.5449209,17.5506 90.3086619,16.1246 C93.2657842,14.6036 94.7413237,12.4136 95.1069353,11.8106 C97.5030504,12.9536 100.196288,14.4396 103.034561,16.3666 C101.719165,15.9246 99.554705,15.3226 98.0338417,15.5386 C94.7846331,16.0006 92.1054964,19.3806 92.1054964,19.3806 C92.1054964,19.3806 95.4413237,21.3726 98.4729784,20.4256 C101.549957,19.4686 103.399165,17.6696 103.987367,17.0236 C105.244345,17.9116 106.524489,18.8806 107.820748,19.9516 C108.976,20.8436 110.122187,21.8316 111.250245,22.9056 C110.014417,22.2286 107.905353,21.2136 106.313986,21.1626 C102.964058,21.0526 99.6705324,23.9816 99.6705324,23.9816 C99.6705324,23.9816 102.666935,26.5686 105.882906,26.1506 C109.176432,25.7246 111.364058,24.2176 112.046935,23.6866 C114.08046,25.7156 116.037439,28.0226 117.857439,30.5586 C116.712259,29.6726 114.975856,28.4906 113.529525,28.1896 C110.181612,27.4896 106.351252,29.8516 106.351252,29.8516 C106.351252,29.8516 108.899453,32.9796 112.204058,33.1266 C115.444201,33.2716 117.839309,32.2436 118.722619,31.7936 C120.306935,34.1206 121.772403,36.6216 123.076719,39.2656 C122.090676,38.2186 120.717871,36.9526 119.454849,36.4506 C116.216719,35.1586 111.944201,36.8596 111.944201,36.8596 C111.944201,36.8596 113.946504,40.4496 117.242043,41.1776 C120.340173,41.8666 122.854129,41.3296 123.908662,41.0216 C125.081036,43.5966 126.100317,46.2936 126.924201,49.0806 C126.119453,47.8596 124.972259,46.3606 123.799885,45.6366 C120.778302,43.7686 116.181468,44.7256 116.181468,44.7256 C116.181468,44.7256 117.552259,48.6866 120.733986,49.9996 C123.725353,51.2356 126.348086,51.1386 127.46305,51.0156 C128.189237,53.8076 128.711971,56.6826 129.009094,59.6086 C128.418878,58.2206 127.510388,56.4286 126.426647,55.4646 C123.721324,53.0566 118.930101,53.2106 118.930101,53.2106 C118.930101,53.2106 119.601899,57.4296 122.565065,59.3086 C125.370101,61.0896 128.039165,61.4466 129.169237,61.5146 C129.345496,64.2346 129.320317,66.9936 129.06046,69.7686 C128.706935,68.3246 128.135856,66.5656 127.287799,65.4946 C124.998446,62.5956 120.156863,61.9086 120.156863,61.9086 C120.156863,61.9086 120.078302,66.2666 122.722187,68.6766 C125.155568,70.8986 127.699741,71.7426 128.868086,72.0316 C128.594129,74.6966 128.114705,77.3066 127.461036,79.8446 C127.361324,78.3396 127.099453,76.4956 126.44377,75.2816 C124.662043,71.9676 119.919165,70.4236 119.919165,70.4236 C119.919165,70.4236 119.061036,74.7926 121.285928,77.6756 C123.310388,80.3026 125.679309,81.5976 126.819453,82.1096 C126.076144,84.5586 125.173698,86.9366 124.133266,89.2286 C124.278302,87.7536 124.313554,86.0036 123.89859,84.7486 C122.697007,81.1046 118.207942,78.7196 118.207942,78.7196 C118.207942,78.7196 116.567223,82.9576 118.288518,86.2476 C119.818446,89.1766 121.90636,90.8836 122.984058,91.6276 C121.852978,93.8546 120.598014,95.9896 119.242331,98.0156 C119.624058,96.6026 119.927223,94.9596 119.743914,93.6916 C119.186935,89.8196 115.10377,86.6326 115.10377,86.6326 C115.10377,86.6326 112.695568,90.6026 113.838734,94.2126 C114.837871,97.3806 116.596432,99.4506 117.560317,100.4036 C116.004201,102.5096 114.352403,104.4826 112.627079,106.2976 C113.297871,104.9026 113.960604,103.2016 114.005928,101.8256 C114.135856,97.8376 110.596576,93.9166 110.596576,93.9166 C110.596576,93.9166 107.474273,97.4826 107.977871,101.3086 C108.429094,104.7456 109.878446,107.1666 110.66305,108.2616 C108.72823,110.1136 106.72895,111.7726 104.704489,113.2106 C105.645209,111.9156 106.64636,110.2866 106.939453,108.8866 C107.781468,104.9016 104.927079,100.3386 104.927079,100.3386 C104.927079,100.3386 101.152115,103.3716 100.972835,107.3076 C100.813698,110.8136 101.826935,113.4876 102.42118,114.7386 C101.643626,115.2236 100.867079,115.6786 100.089525,116.0956 C98.6814676,116.9146 97.3046331,117.6376 95.961036,118.2876 C97.0679424,117.1906 98.227223,115.8376 98.7368633,114.5776 C100.292978,110.7176 98.2403165,105.6306 98.2403165,105.6306 C98.2403165,105.6306 93.9033381,108.0146 93.0220432,111.9386 C92.2525468,115.3576 92.7541295,118.1786 93.1277986,119.5756 C90.6652086,120.6196 88.3677986,121.4026 86.3020432,121.9926 C87.5942734,121.0896 88.9711079,119.9516 89.697295,118.7896 C91.9513957,115.1846 90.7951367,109.7126 90.7951367,109.7126 C90.7951367,109.7126 86.0129784,111.3436 84.4276547,115.1326 C83.0558561,118.4096 83.044777,121.3126 83.1666475,122.7926 C78.590964,123.8206 75.8665036,124.0056 75.8665036,124.0056 L75.9682302,125.0136 L76.0729784,126.0226 C76.0729784,126.0226 79.5608921,125.8036 85.2243453,124.3126 C85.9777266,125.5606 87.7121151,127.9566 90.8243453,129.8396 C94.3515396,131.9786 99.1890935,130.5056 99.1890935,130.5056 C99.1890935,130.5056 96.8795971,125.4026 92.9213237,123.8046 C91.823482,123.3616 90.3469353,123.2146 88.9479424,123.1976 C90.9331223,122.5336 93.0824748,121.6956 95.3486619,120.6426 C96.2813237,121.7146 98.372259,123.7516 101.717151,125.0526 C105.488086,126.5196 109.904633,124.2786 109.904633,124.2786 C109.904633,124.2786 106.80046,119.7466 102.70823,118.8736 C101.551971,118.6266 100.070388,118.7436 98.6955683,118.9696 C99.4660719,118.5586 100.243626,118.1226 101.030245,117.6566 C102.271108,116.9756 103.519022,116.2046 104.755856,115.3546 C105.861755,116.2386 108.210532,117.8136 111.611827,118.4946 C115.502619,119.2736 119.380317,116.3656 119.380317,116.3656 C119.380317,116.3656 115.609381,112.5136 111.507079,112.3636 C110.398158,112.3226 109.050532,112.6536 107.807655,113.0816 C109.560173,111.6726 111.281468,110.1066 112.945353,108.4006 C114.135856,109.0636 116.70118,110.2256 120.162906,110.3096 C124.049669,110.4026 127.293842,106.9416 127.293842,106.9416 C127.293842,106.9416 122.994129,103.8626 119.010676,104.4086 C117.830245,104.5706 116.454417,105.2126 115.246791,105.9046 C116.812978,104.1136 118.30564,102.1966 119.706647,100.1686 C120.904201,100.5996 123.656863,101.3626 127.142763,100.8396 C130.911683,100.2726 133.449813,96.3846 133.449813,96.3846 C133.449813,96.3846 128.771396,94.1386 125.019597,95.3396 C123.801899,95.7286 122.460317,96.7116 121.355424,97.6656 C122.676863,95.5446 123.892547,93.3196 124.976288,91.0066 C126.210101,91.2186 128.993986,91.4876 132.261324,90.3956 C135.801612,89.2126 137.582331,85.0306 137.582331,85.0306 C137.582331,85.0306 132.684345,83.6526 129.26895,85.4446 C128.18118,86.0176 127.071252,87.1646 126.176863,88.2536 C127.116576,85.9536 127.925353,83.5766 128.574993,81.1366 C129.811827,81.1336 132.532259,80.9176 135.485353,79.3186 M56.5646331,122.7926 C56.6865036,121.3126 56.6764317,118.4096 55.3036259,115.1326 C53.717295,111.3436 48.9351367,109.7126 48.9351367,109.7126 C48.9351367,109.7126 47.7788777,115.1846 50.030964,118.7896 C50.7571511,119.9516 52.136,121.0896 53.4282302,121.9926 C51.363482,121.4026 49.0650647,120.6196 46.6024748,119.5756 C46.9761439,118.1786 47.4777266,115.3576 46.7082302,111.9386 C45.8269353,108.0146 41.4899568,105.6306 41.4899568,105.6306 C41.4899568,105.6306 39.4383022,110.7176 40.9944173,114.5776 C41.5030504,115.8376 42.6623309,117.1906 43.7692374,118.2876 C42.4256403,117.6376 41.0467914,116.9146 39.6387338,116.0956 C38.8631942,115.6786 38.0866475,115.2236 37.3090935,114.7386 C37.9053525,113.4876 38.9165755,110.8136 38.7574388,107.3076 C38.5801727,103.3716 34.8031942,100.3386 34.8031942,100.3386 C34.8031942,100.3386 31.9488058,104.9016 32.7908201,108.8866 C33.0859281,110.2866 34.0850647,111.9156 35.0257842,113.2116 C33.0033381,111.7726 31.0030504,110.1136 29.067223,108.2616 C29.8518273,107.1666 31.3031942,104.7456 31.7524029,101.3086 C32.2580144,97.4826 29.1316835,93.9166 29.1316835,93.9166 C29.1316835,93.9166 25.5964317,97.8376 25.7243453,101.8256 C25.7696691,103.2016 26.4334101,104.9046 27.1042014,106.2986 C25.3788777,104.4846 23.7260719,102.5096 22.1719712,100.4056 C23.1338417,99.4506 24.8924029,97.3806 25.8915396,94.2126 C27.034705,90.6026 24.6295252,86.6326 24.6295252,86.6326 C24.6295252,86.6326 20.5433381,89.8196 19.9863597,93.6916 C19.8040576,94.9596 20.1062158,96.6026 20.4879424,98.0156 C19.1342734,95.9896 17.8793094,93.8546 16.7462158,91.6276 C17.8249209,90.8836 19.9138417,89.1766 21.4417554,86.2476 C23.1630504,82.9576 21.5233381,78.7196 21.5233381,78.7196 C21.5233381,78.7196 17.0342734,81.1046 15.8316835,84.7486 C15.4187338,86.0036 15.4519712,87.7536 15.5980144,89.2286 C14.5575827,86.9366 13.6541295,84.5586 12.9108201,82.1096 C14.0519712,81.5976 16.4198849,80.3026 18.4443453,77.6756 C20.6692374,74.7926 19.8131223,70.4236 19.8131223,70.4236 C19.8131223,70.4236 15.0702446,71.9676 13.288518,75.2816 C12.6308201,76.4956 12.3719712,78.3396 12.2712518,79.8446 C11.6165755,77.3066 11.1361439,74.6966 10.8631942,72.0316 C12.0315396,71.7426 14.574705,70.8986 17.0080863,68.6766 C19.6519712,66.2666 19.5734101,61.9086 19.5734101,61.9086 C19.5734101,61.9086 14.7318273,62.5956 12.4444892,65.4946 C11.5944173,66.5656 11.0243453,68.3246 10.6698129,69.7666 C10.4099568,66.9936 10.384777,64.2346 10.5640576,61.5146 C11.6931223,61.4466 14.3601727,61.0896 17.1652086,59.3086 C20.1283741,57.4296 20.8011799,53.2106 20.8011799,53.2106 C20.8011799,53.2106 16.0089496,53.0566 13.3036259,55.4646 C12.2198849,56.4286 11.3113957,58.2196 10.7211799,59.6086 C11.0183022,56.6826 11.541036,53.8076 12.267223,51.0156 C13.3831942,51.1386 16.0049209,51.2356 18.997295,49.9996 C22.1780144,48.6866 23.5508201,44.7256 23.5508201,44.7256 C23.5508201,44.7256 18.9519712,43.7686 15.9283741,45.6366 C14.7580144,46.3596 13.6108201,47.8576 12.8060719,49.0786 C13.6329784,46.2926 14.6492374,43.5966 15.8216115,41.0216 C16.8781583,41.3296 19.3901007,41.8666 22.4892374,41.1776 C25.7857842,40.4496 27.7860719,36.8596 27.7860719,36.8596 C27.7860719,36.8596 23.5155683,35.1586 20.2734101,36.4506 C19.0124029,36.9526 17.6395971,38.2186 16.6545612,39.2636 C17.9578705,36.6206 19.4243453,34.1206 21.0076547,31.7936 C21.8929784,32.2436 24.2870791,33.2716 27.5262158,33.1266 C30.8318273,32.9796 33.3790216,29.8516 33.3790216,29.8516 C33.3790216,29.8516 29.5486619,27.4896 26.2007482,28.1896 C24.7564317,28.4906 23.0200288,29.6726 21.8728345,30.5586 C23.6928345,28.0216 25.6498129,25.7156 27.6843453,23.6876 C28.3662158,24.2176 30.5538417,25.7246 33.8473669,26.1506 C37.0633381,26.5686 40.0617554,23.9816 40.0617554,23.9816 C40.0617554,23.9816 36.7662158,21.0526 33.4142734,21.1626 C31.8269353,21.2136 29.7178705,22.2276 28.4830504,22.9056 C29.6080863,21.8316 30.7552806,20.8436 31.9115396,19.9516 C33.2057842,18.8806 34.4869353,17.9116 35.7459281,17.0236 C36.3341295,17.6696 38.1833381,19.4686 41.2593094,20.4256 C44.2889496,21.3726 47.6257842,19.3806 47.6257842,19.3806 C47.6257842,19.3806 44.9456403,16.0006 41.6944173,15.5386 C40.1775827,15.3226 38.0121151,15.9236 36.6957122,16.3656 C39.536,14.4396 42.227223,12.9536 44.6233381,11.8106 C44.9889496,12.4136 46.4644892,14.6036 49.4216115,16.1246 C52.1853525,17.5506 55.7437698,16.1926 55.7437698,16.1926 C55.7437698,16.1926 53.7374388,12.4766 50.6806043,11.4816 C49.0831942,10.9636 46.5279424,11.2926 45.2749928,11.5056 C47.4112518,10.5186 49.2896691,9.8046 50.8004604,9.2876 C51.4511079,9.6046 53.6075108,10.5296 55.5594532,9.8636 C58.472259,8.8706 59.9145612,6.9206 59.9145612,6.9206 C59.9145612,6.9206 56.9060719,5.7766 55.1183022,6.0776 C52.8793094,6.4586 51.0502446,8.6196 50.6745612,9.0896 C49.4316835,9.4776 47.9460719,9.9926 46.2741295,10.6796 C47.3518273,9.9456 49.3289496,8.4686 50.0924029,7.0356 C51.5991655,4.2086 50.4439137,0.1526 50.4439137,0.1526 C50.4439137,0.1526 46.9308201,1.6286 45.9377266,4.5576 C44.861036,7.7346 45.3595971,10.3616 45.5086619,11.0016 C43.0752806,12.0466 40.2913957,13.4426 37.3191655,15.3156 C38.2951367,14.3426 39.8351367,12.6456 40.3115396,11.1726 C41.3227626,8.0666 39.4362878,4.1956 39.4362878,4.1956 C39.4362878,4.1956 36.170964,6.2956 35.6945612,9.4156 C35.190964,12.7136 36.1014676,15.2206 36.3925468,15.9136 C34.8011799,16.9566 33.1644892,18.1296 31.5046331,19.4606 C30.7663597,20.0116 30.0331223,20.6056 29.3029065,21.2316 C30.0865036,20.0606 31.0554245,18.3806 31.2467914,17.0166 C31.7070791,13.7186 29.1216115,10.1596 29.1216115,10.1596 C29.1216115,10.1596 26.2128345,12.8436 26.2913957,16.0626 C26.3699568,19.2556 27.5695252,21.5286 28.0640576,22.3336 C26.0194532,24.2186 24.0352806,26.3876 22.1699568,28.7856 C22.7249209,27.4866 23.332259,25.7406 23.2839137,24.4056 C23.156,21.0096 19.9198849,17.8876 19.9198849,17.8876 C19.9198849,17.8876 17.478446,21.0976 18.1331223,24.3186 C18.7787338,27.5026 20.3842014,29.5726 21.0267914,30.2986 C19.3216115,32.6376 17.732259,35.1716 16.3040576,37.8656 C16.6404604,36.4526 16.964777,34.5276 16.6676547,33.1616 C15.9344173,29.7716 12.127223,27.2036 12.127223,27.2036 C12.127223,27.2036 10.2467914,30.8596 11.4785899,33.9796 C12.7043453,37.0896 14.7066475,38.8896 15.4721151,39.4946 C14.2262158,42.0166 13.1233381,44.6606 12.2067914,47.4056 C12.2692374,45.9746 12.2138417,44.1876 11.7142734,42.9666 C10.3726906,39.6916 6.08808633,37.7806 6.08808633,37.7806 C6.08808633,37.7806 4.8512518,41.7836 6.64707914,44.7036 C8.37643165,47.5186 10.618446,48.9746 11.5551367,49.4936 C10.7977266,52.0536 10.2075108,54.6926 9.80463309,57.3856 C9.5941295,56.0466 9.22952518,54.5306 8.59297842,53.5226 C6.66117986,50.4676 2.01398561,49.2996 2.01398561,49.2996 C2.01398561,49.2996 1.48520863,53.5426 3.80880576,56.1586 C5.95815827,58.5816 8.36031655,59.6656 9.46420144,60.0646 C9.20233094,62.6626 9.1217554,65.3036 9.24564029,67.9706 C8.79743885,66.6786 8.16794245,65.2546 7.36319424,64.3716 C4.87441727,61.6396 -0.000402877698,61.2826 -0.000402877698,61.2826 C-0.000402877698,61.2826 0.22218705,65.6386 3.02520863,67.8616 C5.63988489,69.9356 8.27369784,70.5946 9.43902158,70.7956 C9.60621583,73.3166 9.94966906,75.7986 10.457295,78.2256 C9.78448921,77.0366 8.91930935,75.7726 7.98261871,75.0476 C4.99225899,72.7406 0.0298129496,73.2416 0.0298129496,73.2416 C0.0298129496,73.2416 1.03297842,77.5786 4.24693525,79.3186 C7.19801439,80.9176 9.91844604,81.1336 11.1562878,81.1366 C11.8049209,83.5766 12.6116835,85.9536 13.5534101,88.2536 C12.6590216,87.1646 11.5490935,86.0176 10.4613237,85.4446 C7.04492086,83.6526 2.14794245,85.0306 2.14794245,85.0306 C2.14794245,85.0306 3.92866187,89.2126 7.46693525,90.3956 C10.737295,91.4876 13.5201727,91.2186 14.7539856,91.0066 C15.8357122,93.3196 17.0534101,95.5446 18.3758561,97.6656 C17.2699568,96.7106 15.9263597,95.7286 14.7106763,95.3396 C10.9608921,94.1386 6.28348201,96.3846 6.28348201,96.3846 C6.28348201,96.3846 8.82060432,100.2726 12.5875108,100.8396 C16.0713957,101.3626 18.8260719,100.5996 20.0236259,100.1686 C21.4246331,102.1966 22.917295,104.1136 24.483482,105.9046 C23.2758561,105.2126 21.901036,104.5706 20.7206043,104.4086 C16.7371511,103.8626 12.4364317,106.9416 12.4364317,106.9416 C12.4364317,106.9416 15.6806043,110.4026 19.5673669,110.3096 C23.0301007,110.2256 25.5954245,109.0636 26.7869353,108.4006 C28.4498129,110.1066 30.1701007,111.6726 31.9236259,113.0816 C30.679741,112.6536 29.3321151,112.3226 28.2231942,112.3636 C24.1239137,112.5136 20.3499568,116.3656 20.3499568,116.3656 C20.3499568,116.3656 24.2276547,119.2736 28.118446,118.4946 C31.519741,117.8136 33.8665036,116.2406 34.9724029,115.3546 C36.2132662,116.2046 37.4571511,116.9756 38.7000288,117.6566 C39.4866475,118.1226 40.2642014,118.5586 41.0336978,118.9696 C39.6618993,118.7436 38.1793094,118.6266 37.0220432,118.8736 C32.9308201,119.7466 29.8266475,124.2786 29.8266475,124.2786 C29.8266475,124.2786 34.2421871,126.5196 38.0141295,125.0526 C41.3580144,123.7516 43.4489496,121.7146 44.3816115,120.6426 C46.6477986,121.6956 48.7981583,122.5336 50.7823309,123.1976 C49.3843453,123.2146 47.9067914,123.3616 46.8089496,123.8046 C42.8506763,125.4026 40.5411799,130.5056 40.5411799,130.5056 C40.5411799,130.5056 45.3787338,131.9786 48.9059281,129.8396 C52.0181583,127.9566 53.753554,125.5606 54.5069353,124.3126 C60.1703885,125.8036 63.6593094,126.0226 63.6593094,126.0226 L63.7620432,125.0136 L63.8667914,124.0056 C63.8667914,124.0056 61.1413237,123.8206 56.5646331,122.7926" id="Fill-1" fill="#D9D9D9" mask="url(#mask-2)"></path>
            </g>
            <path d="M47.6337781,46.0288707 C48.8419772,46.0288707 49.7260252,46.3824899 50.2859221,47.0897283 C50.8458191,47.7969667 51.1257677,48.7473183 51.1257677,49.9407831 C51.1257677,50.7216921 50.9968442,51.4252472 50.7389967,52.0514477 C50.4811493,52.6776483 50.1569986,53.2596468 49.7665439,53.7974425 C49.3760893,54.3352383 48.9561665,54.8398826 48.5067755,55.3113747 C48.0573846,55.7828669 47.6374618,56.2543594 47.2470071,56.7258515 C46.8565525,57.1973437 46.5287181,57.6872537 46.2635037,58.1955813 C45.9982893,58.7039089 45.8656821,59.2527553 45.8656821,59.8421207 L45.8656821,60.0852339 L50.9489581,60.0852339 L50.9489581,61.6544191 L44.1638897,61.6544191 L44.1638897,60.3283471 C44.1638897,59.5032358 44.2928133,58.7738962 44.5506607,58.1403283 C44.8085082,57.5067605 45.1326589,56.928446 45.5231135,56.4053841 C45.9135682,55.8823223 46.333491,55.3887289 46.7828819,54.9246037 C47.2322729,54.4604785 47.6521957,53.9853027 48.0426503,53.4990763 C48.433105,53.0128499 48.7572557,52.4897881 49.0151031,51.9298911 C49.2729506,51.3699942 49.4018741,50.7290594 49.4018741,50.0070867 C49.4018741,49.2114435 49.2619,48.6073442 48.9819513,48.1947883 C48.7020027,47.7822325 48.2378775,47.5759547 47.5895757,47.5759547 C46.9560079,47.5759547 46.4955663,47.7822325 46.2082507,48.1947883 C45.9209351,48.6073442 45.7772773,49.1598742 45.7772773,49.8523783 L45.7772773,51.2226527 L44.1638897,51.2226527 L44.1638897,49.9628843 C44.1638897,48.7694195 44.4438384,47.8153843 45.0037353,47.1007789 C45.5636323,46.3861736 46.4403133,46.0288707 47.6337781,46.0288707 Z M58.8832889,56.1070179 L55.6123113,46.1835791 L57.4025085,46.1835791 L59.8115393,53.7863919 L62.2426713,46.1835791 L63.8781601,46.1835791 L60.5850813,56.1070179 L60.5850813,61.6544191 L58.8832889,61.6544191 L58.8832889,56.1070179 Z M70.6190261,53.0349511 L70.6190261,54.5820351 L66.8397209,54.5820351 L66.8397209,60.0852339 L71.4809729,60.0852339 L71.4809729,61.6544191 L65.1158273,61.6544191 L65.1158273,46.1835791 L71.4809729,46.1835791 L71.4809729,47.7527643 L66.8397209,47.7527643 L66.8397209,53.0349511 L70.6190261,53.0349511 Z M74.8182541,58.5381499 L74.2215217,61.6544191 L72.6302353,61.6544191 L75.5917961,46.1835791 L78.0892317,46.1835791 L81.0507925,61.6544191 L79.3268989,61.6544191 L78.7301665,58.5381499 L74.8182541,58.5381499 Z M75.0392661,57.0573695 L78.4870533,57.0573695 L76.7410585,48.1284847 L75.0392661,57.0573695 Z M85.8467529,46.1835791 C87.0696859,46.1835791 87.9500506,46.485629 88.4878463,47.0897283 C89.0256421,47.6938277 89.2945401,48.5705087 89.2945401,49.7197711 L89.2945401,50.9795395 C89.2945401,51.8341194 89.1398317,52.5266235 88.8304149,53.0570523 C88.5209981,53.5874811 88.0347717,53.9558346 87.3717357,54.1621123 C88.0789741,54.3683901 88.5799348,54.7477941 88.8746173,55.3003241 C89.1692999,55.8528541 89.3166413,56.5490419 89.3166413,57.3888875 L89.3166413,59.7979183 C89.3166413,60.1368033 89.3313756,60.464638 89.3608437,60.7814217 C89.3903119,61.0982055 89.4787167,61.3892047 89.6260581,61.6544191 L87.8800633,61.6544191 C87.7769243,61.4334071 87.7032537,61.1939776 87.6590513,60.9361301 C87.6148489,60.6782827 87.5927477,60.2915117 87.5927477,59.7758171 L87.5927477,57.3446851 C87.5927477,56.4753714 87.3975206,55.8749553 87.0070659,55.5434373 C86.6166113,55.2119193 86.060398,55.0461603 85.3384253,55.0461603 L84.1228593,55.0461603 L84.1228593,61.6544191 L82.3989657,61.6544191 L82.3989657,46.1835791 L85.8467529,46.1835791 Z M85.4047289,53.4769751 C86.0972331,53.4769751 86.6350292,53.3333173 87.0181165,53.0460017 C87.4012039,52.7586861 87.5927477,52.1951055 87.5927477,51.3552599 L87.5927477,49.8744795 C87.5927477,49.1672411 87.4564569,48.6368123 87.1838755,48.2831931 C86.9112942,47.9295739 86.4508523,47.7527643 85.8025505,47.7527643 L84.1228593,47.7527643 L84.1228593,53.4769751 L85.4047289,53.4769751 Z M94.3557149,46.0288707 C95.5344455,46.0288707 96.4037596,46.3788063 96.9636565,47.0786777 C97.5235535,47.7785492 97.8035021,48.7178502 97.8035021,49.8965807 L97.8035021,50.3165035 L96.1680133,50.3165035 L96.1680133,49.8081759 C96.1680133,49.1009375 96.0280392,48.5557745 95.7480905,48.1726871 C95.4681419,47.7895998 95.0187509,47.5980559 94.3999173,47.5980559 C93.7810837,47.5980559 93.3316928,47.7895998 93.0517441,48.1726871 C92.7717955,48.5557745 92.6318213,49.0935706 92.6318213,49.7860747 C92.6318213,50.3607059 92.7607449,50.8616666 93.0185923,51.2889563 C93.2764398,51.7162461 93.5969072,52.1103844 93.9799945,52.4713705 C94.3630819,52.8323567 94.7793214,53.1859759 95.2287123,53.5322281 C95.6781033,53.8784804 96.0943428,54.2578841 96.4774301,54.6704399 C96.8605175,55.0829958 97.1809849,55.5508043 97.4388323,56.0738661 C97.6966798,56.596928 97.8256033,57.2194449 97.8256033,57.9414175 C97.8256033,59.1201481 97.5419714,60.0594491 96.9747071,60.7593205 C96.4074429,61.459192 95.5270785,61.8091275 94.3336137,61.8091275 C93.1401489,61.8091275 92.2634679,61.459192 91.7035709,60.7593205 C91.143674,60.0594491 90.8637253,59.1201481 90.8637253,57.9414175 L90.8637253,57.0573695 L92.4771129,57.0573695 L92.4771129,58.0298223 C92.4771129,58.7370607 92.6244544,59.2822238 92.9191369,59.6653111 C93.2138195,60.0483985 93.6705777,60.2399423 94.2894113,60.2399423 C94.9082449,60.2399423 95.3650032,60.0483985 95.6596857,59.6653111 C95.9543683,59.2822238 96.1017097,58.7370607 96.1017097,58.0298223 C96.1017097,57.4551911 95.9727862,56.9579141 95.7149387,56.5379913 C95.4570913,56.1180685 95.1366239,55.7276139 94.7535365,55.3666277 C94.3704492,55.0056416 93.9578933,54.6520224 93.5158693,54.3057701 C93.0738453,53.9595179 92.6612895,53.5801142 92.2782021,53.1675583 C91.8951148,52.7550025 91.5746474,52.287194 91.3167999,51.7641321 C91.0589525,51.2410703 90.9300289,50.6185534 90.9300289,49.8965807 C90.9300289,48.7031159 91.2099776,47.7601313 91.7698745,47.0676271 C92.3297715,46.375123 93.1917183,46.0288707 94.3557149,46.0288707 Z" id="2-Years" fill="#DA0000"></path>
            <path d="M38.3244029,83.6451131 L35.9595745,83.6451131 L33.8378593,68.1742731 L35.5175505,68.1742731 L37.3298489,81.3465883 L39.0537425,68.1963743 L40.7555349,68.1963743 L42.4573273,81.3686895 L44.2033221,68.1742731 L45.7062037,68.1742731 L43.6065897,83.6451131 L41.3301661,83.6451131 L39.8493857,73.1470431 L38.3244029,83.6451131 Z M48.8445741,80.5288439 L48.2478417,83.6451131 L46.6565553,83.6451131 L49.6181161,68.1742731 L52.1155517,68.1742731 L55.0771125,83.6451131 L53.3532189,83.6451131 L52.7564865,80.5288439 L48.8445741,80.5288439 Z M49.0655861,79.0480635 L52.5133733,79.0480635 L50.7673785,70.1191787 L49.0655861,79.0480635 Z M59.8730729,68.1742731 C61.0960058,68.1742731 61.9763705,68.476323 62.5141663,69.0804223 C63.051962,69.6845217 63.3208601,70.5612027 63.3208601,71.7104651 L63.3208601,72.9702335 C63.3208601,73.8248134 63.1661517,74.5173175 62.8567349,75.0477463 C62.5473181,75.5781751 62.0610917,75.9465286 61.3980557,76.1528063 C62.1052941,76.3590841 62.6062547,76.7384881 62.9009373,77.2910181 C63.1956198,77.8435481 63.3429613,78.5397359 63.3429613,79.3795815 L63.3429613,81.7886123 C63.3429613,82.1274973 63.3576955,82.455332 63.3871637,82.7721157 C63.4166318,83.0888995 63.5050366,83.3798987 63.6523781,83.6451131 L61.9063833,83.6451131 C61.8032442,83.4241011 61.7295737,83.1846716 61.6853713,82.9268241 C61.6411689,82.6689767 61.6190677,82.2822057 61.6190677,81.7665111 L61.6190677,79.3353791 C61.6190677,78.4660654 61.4238405,77.8656493 61.0333859,77.5341313 C60.6429312,77.2026133 60.0867179,77.0368543 59.3647453,77.0368543 L58.1491793,77.0368543 L58.1491793,83.6451131 L56.4252857,83.6451131 L56.4252857,68.1742731 L59.8730729,68.1742731 Z M59.4310489,75.4676691 C60.123553,75.4676691 60.6613491,75.3240113 61.0444365,75.0366957 C61.4275238,74.7493801 61.6190677,74.1857995 61.6190677,73.3459539 L61.6190677,71.8651735 C61.6190677,71.1579351 61.4827768,70.6275063 61.2101955,70.2738871 C60.9376141,69.9202679 60.4771722,69.7434583 59.8288705,69.7434583 L58.1491793,69.7434583 L58.1491793,75.4676691 L59.4310489,75.4676691 Z M68.5809457,68.1742731 C69.8038786,68.1742731 70.6842433,68.476323 71.2220391,69.0804223 C71.7598348,69.6845217 72.0287329,70.5612027 72.0287329,71.7104651 L72.0287329,72.9702335 C72.0287329,73.8248134 71.8740245,74.5173175 71.5646077,75.0477463 C71.2551909,75.5781751 70.7689645,75.9465286 70.1059285,76.1528063 C70.8131669,76.3590841 71.3141275,76.7384881 71.6088101,77.2910181 C71.9034926,77.8435481 72.0508341,78.5397359 72.0508341,79.3795815 L72.0508341,81.7886123 C72.0508341,82.1274973 72.0655683,82.455332 72.0950365,82.7721157 C72.1245046,83.0888995 72.2129094,83.3798987 72.3602509,83.6451131 L70.6142561,83.6451131 C70.511117,83.4241011 70.4374465,83.1846716 70.3932441,82.9268241 C70.3490417,82.6689767 70.3269405,82.2822057 70.3269405,81.7665111 L70.3269405,79.3353791 C70.3269405,78.4660654 70.1317133,77.8656493 69.7412587,77.5341313 C69.350804,77.2026133 68.7945907,77.0368543 68.0726181,77.0368543 L66.8570521,77.0368543 L66.8570521,83.6451131 L65.1331585,83.6451131 L65.1331585,68.1742731 L68.5809457,68.1742731 Z M68.1389217,75.4676691 C68.8314258,75.4676691 69.3692219,75.3240113 69.7523093,75.0366957 C70.1353966,74.7493801 70.3269405,74.1857995 70.3269405,73.3459539 L70.3269405,71.8651735 C70.3269405,71.1579351 70.1906496,70.6275063 69.9180683,70.2738871 C69.6454869,69.9202679 69.185045,69.7434583 68.5367433,69.7434583 L66.8570521,69.7434583 L66.8570521,75.4676691 L68.1389217,75.4676691 Z M75.5870261,80.5288439 L74.9902937,83.6451131 L73.3990073,83.6451131 L76.3605681,68.1742731 L78.8580037,68.1742731 L81.8195645,83.6451131 L80.0956709,83.6451131 L79.4989385,80.5288439 L75.5870261,80.5288439 Z M75.8080381,79.0480635 L79.2558253,79.0480635 L77.5098305,70.1191787 L75.8080381,79.0480635 Z M84.6927205,83.6451131 L83.1456365,83.6451131 L83.1456365,68.1742731 L85.3336553,68.1742731 L88.9140497,79.3574803 L88.9140497,68.1742731 L90.4390325,68.1742731 L90.4390325,83.6451131 L88.6488353,83.6451131 L84.6927205,71.1358339 L84.6927205,83.6451131 Z M94.4393497,83.6451131 L94.4393497,69.7434583 L91.5882949,69.7434583 L91.5882949,68.1742731 L98.9921969,68.1742731 L98.9921969,69.7434583 L96.1411421,69.7434583 L96.1411421,83.6451131 L94.4393497,83.6451131 Z M102.904109,78.0977119 L99.6331317,68.1742731 L101.423329,68.1742731 L103.83236,75.7770859 L106.263492,68.1742731 L107.89898,68.1742731 L104.605902,78.0977119 L104.605902,83.6451131 L102.904109,83.6451131 L102.904109,78.0977119 Z" id="Warranty" fill="#ACACAC"></path>
        </g>
    </g>
</svg>