<?xml version="1.0" encoding="UTF-8"?>
<svg width="224px" height="90px" viewBox="0 0 223 89" version="1.1" xmlns="http://www.w3.org/2000/svg" xmlns:xlink="http://www.w3.org/1999/xlink">
    <!-- Generator: Sketch 48.2 (47327) - http://www.bohemiancoding.com/sketch -->
    <title>Group 5</title>
    <desc>Created with Sketch.</desc>
    <defs></defs>
    <g id="New-AxumGear" stroke="none" stroke-width="1" fill="none" fill-rule="evenodd" transform="translate(-492.000000, -14264.000000)">
        <g id="Group-5" transform="translate(603.500000, 14308.500000) scale(-1, 1) translate(-603.500000, -14308.500000) translate(492.000000, 14264.000000)">
            <polyline id="Path-2" stroke="#FFFFFF" points="219 85 132 3 5 3"></polyline>
            <path d="M220,89 C221.656854,89 223,87.6568542 223,86 C223,84.3431458 221.656854,83 220,83 C218.343146,83 217,84.3431458 217,86 C217,87.6568542 218.343146,89 220,89 Z" id="Oval-2" fill="#FFFFFF"></path>
            <path d="M3,6 C4.65685425,6 6,4.65685425 6,3 C6,1.34314575 4.65685425,0 3,0 C1.34314575,0 0,1.34314575 0,3 C0,4.65685425 1.34314575,6 3,6 Z" id="Oval-2" fill="#FFFFFF"></path>
        </g>
    </g>
</svg>
