<?xml version="1.0" encoding="UTF-8"?>
<svg width="94px" height="53px" viewBox="0 0 94 53" version="1.1" xmlns="http://www.w3.org/2000/svg" xmlns:xlink="http://www.w3.org/1999/xlink">
    <!-- Generator: Sketch 48.2 (47327) - http://www.bohemiancoding.com/sketch -->
    <title>mf_i-2</title>
    <desc>Created with Sketch.</desc>
    <defs></defs>
    <g id="New-AxumGear" stroke="none" stroke-width="1" fill="none" fill-rule="evenodd" transform="translate(-673.000000, -1067.000000)">
        <g id="mf_i-2" transform="translate(674.000000, 1068.000000)" stroke-width="2">
            <path d="M46,50.4423 C59.807,50.4423 71,39.2493 71,25.4423 C71,11.6353 59.807,0.4423 46,0.4423 C32.193,0.4423 21,11.6353 21,25.4423 C21,39.2493 32.193,50.4423 46,50.4423 Z" id="Stroke-1" stroke-opacity="0.804885643" stroke="#FFFFFF"></path>
            <path d="M46,45.4423 C57.0456,45.4423 66,36.4879 66,25.4423 C66,14.3967 57.0456,5.4423 46,5.4423 C34.9544,5.4423 26,14.3967 26,25.4423 C26,36.4879 34.9544,45.4423 46,45.4423 Z" id="Stroke-1" stroke="#FFFFFF" opacity="0.400000006"></path>
            <path d="M46,34.4423 C50.97052,34.4423 55,30.41282 55,25.4423 C55,20.47178 50.97052,16.4423 46,16.4423 C41.02948,16.4423 37,20.47178 37,25.4423 C37,30.41282 41.02948,34.4423 46,34.4423 Z" id="Stroke-1" stroke-opacity="0.804885643" stroke="#FFFFFF"></path>
            <path d="M73.7158,41.4472 C76.4408,36.7392 77.9998,31.2732 77.9998,25.4422 C77.9998,19.6112 76.4408,14.1442 73.7148,9.4352" id="Stroke-3" stroke="#E61C20" opacity="0.200000003" stroke-linecap="round"></path>
            <path d="M18.2832,9.4384 C15.5592,14.1464 14.0002,19.6124 14.0002,25.4424 C14.0002,31.2714 15.5582,36.7364 18.2822,41.4434" id="Stroke-5" stroke="#E61C20" opacity="0.200000003" stroke-linecap="round"></path>
            <path d="M12.5122,5.4413 C9.0122,11.2893 7.0002,18.1303 7.0002,25.4423 C7.0002,32.7543 9.0122,39.5963 12.5132,45.4443" id="Stroke-7" stroke="#E61C20" opacity="0.400000006" stroke-linecap="round"></path>
            <path d="M79.4863,45.4447 C82.9873,39.5967 85.0003,32.7547 85.0003,25.4427 C85.0003,18.1277 82.9863,11.2827 79.4833,5.4337" id="Stroke-9" stroke="#E61C20" opacity="0.400000006" stroke-linecap="round"></path>
            <path d="M7.3843,0.4354 C2.7133,7.6344 0.0003,16.2214 0.0003,25.4424 C0.0003,34.6624 2.7123,43.2484 7.3833,50.4464" id="Stroke-11" stroke="#E61C20" opacity="0.600000024" stroke-linecap="round"></path>
            <path d="M84.6162,50.4481 C89.2872,43.2491 92.0002,34.6631 92.0002,25.4421 C92.0002,16.2971 89.3312,7.7751 84.7292,0.6121" id="Stroke-13" stroke="#E61C20" opacity="0.600000024" stroke-linecap="round"></path>
        </g>
    </g>
</svg>