<?xml version="1.0" encoding="UTF-8"?>
<svg width="86px" height="62px" viewBox="0 0 86 62" version="1.1" xmlns="http://www.w3.org/2000/svg" xmlns:xlink="http://www.w3.org/1999/xlink">
    <!-- Generator: Sketch 48.2 (47327) - http://www.bohemiancoding.com/sketch -->
    <title>mf_i-1</title>
    <desc>Created with Sketch.</desc>
    <defs></defs>
    <g id="New-AxumGear" stroke="none" stroke-width="1" fill="none" fill-rule="evenodd" transform="translate(-317.000000, -1062.000000)">
        <g id="mf_i-1" transform="translate(318.000000, 1063.000000)">
            <path d="M67.6986988,60 L40.2343768,60 C33.3088299,60 26.8091121,56.6172632 22.7778733,50.9153685 L2.64080807,22.4311579 C-3.99198125,13.048421 2.63249111,0 14.0284133,0 L47.9899581,0 C56.1796854,0 63.7514616,4.41347369 67.8642067,11.5848421 L81.5547829,33.8450526 C83.9043292,37.6665263 84.1155803,42.4530527 82.1103571,46.4715789 L78.8135073,53.0770527 C76.6951732,57.3229474 72.3969594,60 67.6986988,60 Z M9.86303246,15.6494548 L17.2701238,27.0876633 C17.9780083,28.1828911 19.2470613,28.7644949 20.5268899,28.5823765 L24.348969,28.0385393 C25.3859286,27.8908304 26.293579,27.2597106 26.8033555,26.3331728 L31.9110655,17.0333865 C32.4738918,16.0078168 32.472234,14.7590051 31.9052632,13.7359531 L30.0592928,10.4049494 C29.4682836,9.33741686 28.3550648,8.67692309 27.1473509,8.67692309 L13.7779488,8.67692309 C12.6506386,8.67692309 11.5995875,9.2526521 10.9828826,10.2077245 L9.86054574,11.9449826 C9.13359641,13.0704238 9.13442533,14.5248529 9.86303246,15.6494548 Z M73.3200226,40.2724437 C73.0822828,40.2724437 72.8664623,40.4032052 72.756866,40.6149543 L68.9639885,47.9738648 C68.886428,48.1240297 68.8729393,48.2952847 68.9235221,48.4564165 C68.9749481,48.6175483 69.0862307,48.7491532 69.2362933,48.8267663 C69.3273427,48.872322 69.4242933,48.896787 69.5246162,48.896787 C69.762356,48.896787 69.9781766,48.765182 70.0877728,48.5534329 L73.8806504,41.1953658 C73.9582108,41.0452013 73.9716996,40.873946 73.9211167,40.7119708 C73.8696907,40.5516827 73.7592513,40.4200777 73.6083456,40.3424644 C73.5172961,40.2960653 73.4203455,40.2724437 73.3200226,40.2724437 Z" id="Combined-Shape" stroke-opacity="0.8" stroke="#FFFFFF" stroke-width="2"></path>
            <path d="M42.3312078,54.2769232 C40.0634606,54.2769232 37.9720106,53.0311084 36.8726478,51.0234951 L33.6676982,45.1791095 C32.6240522,43.2741915 32.6165679,40.9955294 33.6494032,39.0821937 L46.794354,14.734936 C47.8895588,12.7062785 49.9884931,11.4461538 52.2720407,11.4461538 L57.8777921,11.4756157 C60.040759,11.4882422 62.0116283,12.6061082 63.1509073,14.4655707 L77.248861,37.4786284 C78.3839819,39.3288313 78.4895939,41.6899868 77.5257806,43.6386766 L73.9881946,50.7869586 C72.9237586,52.9393558 70.7849081,54.2769232 68.4065593,54.2769232 L42.3312078,54.2769232 Z" id="Stroke-3-path" stroke="#FFFFFF" stroke-width="2" opacity="0.400000006"></path>
            <path d="M64.9537663,25.3630935 L61.6016361,31.6716858 L66.5215991,33.5693728 L61.2519629,36.9957519 L59.1951132,36.2018049 L57.4686568,39.4522019 L57.4712859,39.4538238 L57.4660277,39.4578788 L52.8992431,42.4268666 L52.0395202,42.9856301 L50.8765722,42.5363486 L46.4561421,45.4104522 L46.029348,46.8937298 L42.1645392,49.4061373 L44.8190755,40.199112 L43.134685,39.5495193 L45.4377955,38.0524553 L47.8969009,36.4532079 L48.5664505,36.0177131 L54.9876422,38.4952487 L56.7140989,35.2456628 L52.3471274,33.5604519 L57.6158874,30.1340729 L59.1214979,30.7147326 L60.3878582,28.3320813 L64.9537663,25.3630935 Z M46.896958,43.8833818 L49.6785689,42.0749025 L47.644505,41.2898766 L46.896958,43.8833818 Z" id="Combined-Shape" fill="#E61C20"></path>
        </g>
    </g>
</svg>