<?xml version="1.0" encoding="UTF-8"?>
<svg width="98px" height="58px" viewBox="0 0 98 58" version="1.1" xmlns="http://www.w3.org/2000/svg" xmlns:xlink="http://www.w3.org/1999/xlink">
    <!-- Generator: Sketch 48.2 (47327) - http://www.bohemiancoding.com/sketch -->
    <title>mf_i-3</title>
    <desc>Created with Sketch.</desc>
    <defs></defs>
    <g id="New-AxumGear" stroke="none" stroke-width="1" fill="none" fill-rule="evenodd" transform="translate(-1031.000000, -1064.000000)">
        <g id="mf_i-3" transform="translate(1032.000000, 1065.000000)" stroke-width="2">
            <path d="M21.9280012,6.27426457e-15 L74.0719988,3.64153152e-14 C75.3257634,3.61850024e-14 76.5480311,0.392755593 77.5671124,1.12309723 L93.4951136,12.5381648 C95.0674048,13.6649734 96,15.480695 96,17.4150675 L96,38.5849325 C96,40.519305 95.0674048,42.3350266 93.4951136,43.4618352 L77.5671124,54.8769028 C76.5480311,55.6072444 75.3257634,56 74.0719988,56 L21.9280012,56 C20.6742366,56 19.4519689,55.6072444 18.4328876,54.8769028 L2.50488635,43.4618352 C0.932595208,42.3350266 5.56596283e-15,40.519305 5.32907052e-15,38.5849325 L2.66453526e-15,17.4150675 C3.28667692e-15,15.480695 0.932595208,13.6649734 2.50488635,12.5381648 L18.4328876,1.12309723 C19.4519689,0.392755593 20.6742366,1.02256637e-14 21.9280012,8.8817842e-15 Z" id="Combined-Shape" stroke-opacity="0.799054574" stroke="#FFFFFF"></path>
            <polygon id="Page-1" stroke="#E61C20" points="51.4001544 12.7057522 49.0104282 25.4509587 56.6575521 25.4509587 43.9123456 43.2942478 46.3020718 30.5490413 38.6549479 30.5490413"></polygon>
            <path d="M22.9097232,5 L73.0902768,5 C74.3327177,5 75.5445187,5.38570076 76.5583809,6.10385311 L88.468104,14.539907 C90.0561509,15.6647736 91,17.4899764 91,19.4360539 L91,36.5639461 C91,38.5100236 90.0561509,40.3352264 88.468104,41.460093 L76.5583809,49.8961469 C75.5445187,50.6142992 74.3327177,51 73.0902768,51 L22.9097232,51 C21.6672823,51 20.4554813,50.6142992 19.4416191,49.8961469 L7.53189596,41.460093 C5.94384908,40.3352264 5,38.5100236 5,36.5639461 L5,19.4360539 C5,17.4899764 5.94384908,15.6647736 7.53189596,14.539907 L19.4416191,6.10385311 C20.4554813,5.38570076 21.6672823,5 22.9097232,5 Z" id="Combined-Shape" stroke-opacity="0.799054574" stroke="#FFFFFF" opacity="0.400000006"></path>
        </g>
    </g>
</svg>