<?xml version="1.0" encoding="UTF-8"?>
<svg width="182px" height="48px" viewBox="0 0 182 48" version="1.1" xmlns="http://www.w3.org/2000/svg" xmlns:xlink="http://www.w3.org/1999/xlink">
    <!-- Generator: Sketch 48.2 (47327) - http://www.bohemiancoding.com/sketch -->
    <title>Group 40</title>
    <desc>Created with Sketch.</desc>
    <defs></defs>
    <g id="New-AxumGear" stroke="none" stroke-width="1" fill="none" fill-rule="evenodd" transform="translate(-728.000000, -14348.000000)">
        <g id="Group-40" transform="translate(728.000000, 14348.000000)">
            <g id="Group-39">
                <circle id="Oval-6" stroke="#E61C20" cx="24" cy="24" r="23.5"></circle>
                <g id="Group-42" transform="translate(18.000000, 15.000000)" fill="#FFFFFF">
                    <path d="M13,8.41324201 L1.46131401,0.805936073 C1.11970643,0.624808913 0.790755951,0.579527744 0.474452599,0.670090082 C0.158149295,0.760654904 0,1.14230941 0,1.81506849 L0,16.7968037 C0,17.4178112 0.16763825,17.7929978 0.502919634,17.9223744 C0.838201333,18.051751 1.15766288,18.0129386 1.46131401,17.8059361 L13,10.1986301 C13.2403909,9.95281417 13.3605852,9.65525363 13.3605852,9.30593607 C13.3605852,8.95661852 13.2403909,8.65905797 13,8.41324201 Z" id="Page-1"></path>
                </g>
            </g>
            <g id="Group-38" transform="translate(66.727273, 0.000000)">
                <circle id="Oval-6" stroke="#E61C20" cx="24" cy="24" r="23.5"></circle>
                <g id="Group-41" transform="translate(16.000000, 16.000000)" fill="#FFFFFF">
                    <path d="M13.3125,0 L16,0 L16,16 L13.3125,16 L13.3125,0 Z M7.10542736e-15,16 L7.10542736e-15,0 L11.3125,8 L7.10542736e-15,16 Z" id="Page-1"></path>
                </g>
            </g>
            <g id="Group-37" transform="translate(133.454545, 0.000000)">
                <circle id="Oval-6" stroke="#E61C20" cx="24" cy="24" r="23.5"></circle>
                <path d="M32.9545455,28.5523108 C33.0212449,28.8191151 32.9378714,29.0692388 32.7044185,29.3026917 L30.2031488,31.8039614 C29.9363446,32.0707648 29.6028473,32.2375145 29.2026409,32.3042153 L28.8524632,32.3042153 C26.1177278,32.3042153 23.1329103,30.6867437 19.8979177,27.4517522 C16.6629262,24.2167596 15.0454545,21.1152172 15.0454545,18.1470289 C15.1121554,17.7468226 15.278905,17.4133253 15.5457085,17.1465211 L18.0970036,14.6452514 C18.263757,14.478498 18.4638554,14.3951244 18.6973083,14.3951244 C19.030812,14.3951244 19.2809357,14.5618747 19.4476892,14.8953784 L21.4987303,18.6973083 C21.7321832,19.1642141 21.6488097,19.5977622 21.2486034,19.9979685 L20.3481463,20.948451 C20.2814468,21.0151504 20.2480955,21.0985272 20.2480955,21.198578 C20.2814468,22.0323388 21.0651694,23.2162614 22.599289,24.7503809 C23.2662964,25.4173883 23.899946,25.9509871 24.5002539,26.3511935 C25.1005619,26.7513998 25.5341099,26.9848496 25.8009142,27.051549 L26.2011173,27.1515998 C26.2344686,27.1515998 26.3011681,27.1015744 26.4012189,27.0015236 L27.5017776,25.9509904 C27.7352305,25.7175374 28.0020315,25.6008126 28.3021838,25.6008126 C28.4689373,25.6008126 28.6356843,25.650838 28.8024378,25.7508888 L28.8524632,25.7508888 L32.5043169,27.9019807 C32.7377698,28.0353828 32.887846,28.2521585 32.9545455,28.5523108 Z" id="Page-1" fill="#FFFFFF"></path>
            </g>
        </g>
    </g>
</svg>