<?xml version="1.0" encoding="UTF-8"?>
<svg width="300px" height="66px" viewBox="0 0 300 66" version="1.1" xmlns="http://www.w3.org/2000/svg" xmlns:xlink="http://www.w3.org/1999/xlink">
    <!-- Generator: Sketch 48.2 (47327) - http://www.bohemiancoding.com/sketch -->
    <title>qualcomm</title>
    <desc>Created with Sketch.</desc>
    <defs></defs>
    <g id="New-AxumGear" stroke="none" stroke-width="1" fill="none" fill-rule="evenodd" transform="translate(-570.000000, -6515.000000)">
        <g id="Group-15" transform="translate(570.000000, 6457.000000)" fill="#0968CD" fill-rule="nonzero">
            <g id="qualcomm" transform="translate(0.000000, 58.000000)">
                <path d="M295.087193,11.7098093 L295.087193,10.3896458 L295.986376,10.3896458 C296.423706,10.3896458 296.918256,10.4877384 296.918256,11.0190736 C296.918256,11.6730245 296.423706,11.7098093 295.871935,11.7098093 L295.087193,11.7098093 Z M297.584469,11.0558583 C297.584469,10.2138965 297.089918,9.84196185 296.076294,9.84196185 L294.445504,9.84196185 L294.445504,14.1049046 L295.087193,14.1049046 L295.087193,12.2574932 L295.843324,12.2574932 L296.975477,14.1049046 L297.702997,14.1049046 L296.480926,12.2288828 C297.089918,12.147139 297.584469,11.8160763 297.584469,11.0558583 Z M295.871935,15.0531335 C294.183924,15.0531335 292.876022,13.7452316 292.876022,11.9673025 C292.876022,10.2138965 294.183924,8.89782016 295.871935,8.89782016 C297.555858,8.89782016 298.86376,10.2138965 298.86376,11.9673025 C298.86376,13.7452316 297.555858,15.0531335 295.871935,15.0531335 Z M295.871935,8.28065395 C293.836512,8.28065395 292.119891,9.84196185 292.119891,11.9673025 C292.119891,14.1049046 293.836512,15.6702997 295.871935,15.6702997 C297.907357,15.6702997 299.619891,14.1049046 299.619891,11.9673025 C299.619891,9.84196185 297.907357,8.28065395 295.871935,8.28065395 Z M296.247956,35.9509537 L284.799728,9.54359673 C284.100817,8.27247956 282.935967,7.68392371 281.280654,7.68392371 C279.625341,7.68392371 278.43188,8.27247956 277.765668,9.54359673 L269.333787,28.9087193 L260.934605,9.54359673 C260.239782,8.27247956 259.074932,7.68392371 257.419619,7.68392371 C255.735695,7.68392371 254.570845,8.27247956 253.904632,9.54359673 L245.472752,28.9536785 L237.073569,9.54359673 C236.378747,8.27247956 235.213896,7.68392371 233.558583,7.68392371 C231.870572,7.68392371 230.709809,8.27247956 230.010899,9.54359673 L221.611717,28.9087193 L213.212534,9.54359673 C212.513624,8.27247956 211.352861,7.68392371 209.668937,7.68392371 C208.009537,7.68392371 206.848774,8.27247956 206.149864,9.54359673 L194.697548,35.9509537 C193.128065,40.0831063 198.825613,42.2084469 200.685286,38.8855586 L209.668937,17.8569482 L218.677112,38.8855586 C219.837875,41.0395095 223.47139,40.9414169 224.546322,38.8855586 L233.558583,17.8569482 L242.538147,38.8855586 C243.147139,39.9441417 244.107629,40.3978202 245.125341,40.4632153 C245.239782,40.4632153 245.358311,40.5040872 245.472752,40.5040872 C245.591281,40.5040872 245.705722,40.5040872 245.852861,40.4632153 C246.841962,40.3978202 247.826975,39.9441417 248.411444,38.8855586 L257.419619,17.8569482 L266.399183,38.8855586 C267.474114,40.9414169 271.107629,41.0395095 272.27248,38.8855586 L281.280654,17.8569482 L290.260218,38.8855586 C292.119891,42.2084469 297.817439,40.0831063 296.247956,35.9509537 Z M97.479564,27.5395095 L102.506812,16.1117166 L107.53406,27.5395095 L97.479564,27.5395095 Z M105.617166,8.0640327 L99.4250681,8.0640327 L85.4754768,39.6989101 L92.1049046,39.6989101 L95.386921,32.7302452 L109.831063,32.7302452 L110.121253,33.400545 L112.912807,39.6989101 L119.538147,39.6989101 L105.617166,8.0640327 Z M178.831063,34.4959128 C172.957766,34.4959128 168.220708,29.7752044 168.220708,23.9019074 C168.220708,18.0286104 172.957766,13.2220708 178.831063,13.2220708 C184.700272,13.2220708 189.46594,17.9836512 189.46594,23.8569482 C189.46594,29.7343324 184.700272,34.4959128 178.831063,34.4959128 Z M178.831063,6.96457766 C169.5,6.96457766 161.942779,14.5708447 161.942779,23.9019074 C161.942779,33.23297 169.5,40.7493188 178.831063,40.7493188 C188.158038,40.7493188 195.715259,33.1880109 195.715259,23.8569482 C195.715259,14.5299728 188.158038,6.96457766 178.831063,6.96457766 Z M164.354223,9.18392371 C161.773034,7.66878736 158.833619,6.87149068 155.840599,6.8746594 C146.509537,6.8746594 138.923706,14.4400545 138.923706,23.76703 C138.923706,33.1021798 146.509537,40.6675749 155.840599,40.6675749 C158.746594,40.6675749 161.538147,39.9032698 163.920981,38.6076294 L160.867847,33.1226158 C159.327519,33.9689401 157.598119,34.4118351 155.840599,34.4100817 C149.938692,34.4100817 145.201635,29.640327 145.201635,23.76703 C145.201635,17.893733 149.938692,13.1321526 155.840599,13.1321526 C157.818801,13.1321526 159.678474,13.6961853 161.276567,14.640327 L164.354223,9.18392371 Z M80.4482289,39.866485 L62.4564033,39.866485 C61.2384196,39.866485 59.7833787,38.4400545 59.7833787,37.2057221 L59.7425068,8.01089918 L65.9918256,8.01089918 L65.9918256,33.2820163 L76.8310627,33.2820163 L76.8310627,8.01089918 L83.0803815,8.01089918 L83.0803815,37.2057221 C83.0803815,38.4400545 81.6580381,39.866485 80.4359673,39.866485 L80.4482289,39.866485 Z M39.9049046,40.3773842 L39.9049046,31.5122616 L32.1743869,33.7275204 L32.1743869,44.7098093 C30.6919619,45.1144414 29.1224796,45.3637602 27.5239782,45.3637602 C17.6709809,45.3637602 9.67847411,37.3773842 9.67847411,27.5313351 C9.67847411,17.6811989 17.6709809,9.69891008 27.5239782,9.69891008 C37.3765668,9.69891008 45.3678474,17.6811989 45.3678474,27.5313351 C45.3678474,32.5708447 43.2752044,37.1280654 39.9049046,40.3773842 Z M55.0463215,27.5313351 C55.0463215,12.3269755 42.7234332,0 27.5239782,0 C12.3237057,0 0,12.3269755 0,27.5313351 C0,42.7356948 12.3228883,55.0626703 27.5239782,55.0626703 C29.1514986,55.0626703 30.6629428,54.9114441 32.2029973,54.6416894 L32.1743869,65.3583106 L39.9053134,65.3583106 L39.9053134,52.0258856 C48.8583106,47.4809264 55.0463215,38.2479564 55.0463215,27.5313351 Z M121.920981,37.1975477 C121.920981,38.4318801 123.347411,39.8623978 124.598093,39.8623978 L142.818801,39.8623978 L138.752044,33.2901907 L128.1703,33.2901907 L128.1703,8.01089918 L121.920981,8.01089918 L121.920981,37.1975477 Z"></path>
            </g>
        </g>
    </g>
</svg>