<?xml version="1.0" encoding="UTF-8"?>
<svg width="96px" height="96px" viewBox="0 0 96 96" version="1.1" xmlns="http://www.w3.org/2000/svg" xmlns:xlink="http://www.w3.org/1999/xlink">
    <!-- Generator: Sketch 46.1 (44463) - http://www.bohemiancoding.com/sketch -->
    <title>cons-2</title>
    <desc>Created with Sketch.</desc>
    <defs></defs>
    <g id="Page-1" stroke="none" stroke-width="1" fill="none" fill-rule="evenodd">
        <g id="Axum-2.0" transform="translate(-672.000000, -1907.000000)">
            <g id="Group" transform="translate(527.000000, 1867.000000)">
                <g id="cons-2" transform="translate(145.000000, 40.000000)">
                    <circle id="Oval" fill="#F8F8F8" cx="48" cy="48" r="48"></circle>
                    <path d="M64.5438815,23.2637808 C60.3903411,19.0664753 54.4855508,16.75 47.906493,16.75 C35.3452926,16.75 25.125,26.9706979 25.125,39.532169 L25.125,63.4618592 C25.125,73.2647929 29.7574239,79.2186761 37.2180423,79.2186761 C40.6637178,79.2186761 43.5339653,78.4391864 45.9337632,76.9869224 C47.9389452,75.7734646 49.572696,74.1230039 50.969358,72.0599107 C51.9038242,70.6795547 52.5097223,69.5289333 53.5468599,67.3344806 C54.5519036,65.2082961 55.670443,63.6079321 57.030326,62.2281367 C58.088128,61.1548457 59.0936575,60.3652242 60.9232802,59.083679 C61.0167643,59.0181988 61.0911243,58.9662117 61.260388,58.8479484 C63.0141821,57.6226514 63.7824949,57.0523421 64.6912797,56.2521492 C65.8782886,55.2069775 66.840758,54.108227 67.648775,52.821074 C69.5860659,49.7350131 70.6253287,45.5391635 70.6878012,39.5581668 C70.755865,33.0181293 68.629668,27.3924336 64.5438815,23.2637808 Z M60.183499,57.3068491 C58.0254064,58.8145203 57.0374438,59.5763565 55.8553344,60.7486263 C54.2808147,62.3100401 52.9824115,64.1288803 51.8955737,66.4275039 C51.0730922,68.1678503 50.6700659,68.9678561 50.0816394,69.958901 C49.2750198,71.3174329 48.3997061,72.4803426 47.3789757,73.4841969 C44.840749,75.9804583 41.5414624,77.3383944 37.2180423,77.3383944 C30.7272766,77.3383944 27.0052817,72.1753737 27.0052817,63.4618592 L27.0052817,39.532169 C27.0052817,28.0061002 36.3808107,18.6302817 47.906493,18.6302817 C53.9644383,18.6302817 59.4023415,20.7415144 63.2073615,24.5861383 C66.9361552,28.3541035 68.8700754,33.5336023 68.807438,39.5388702 C68.752674,44.7855757 67.9411173,48.5005755 66.3625016,51.2783768 C65.0994778,53.5008488 63.6281458,54.8835158 60.7802548,56.888812 C60.6152492,57.0049981 60.4829746,57.0975988 60.183499,57.3068491 Z M59.0033134,34.3789117 C59.2371491,34.8423224 59.802559,35.0283115 60.2662398,34.7943395 C60.729627,34.5604524 60.9157164,33.9949732 60.6817346,33.5315212 C60.0265123,32.2339116 59.1788679,31.0551418 58.1621482,30.0277377 C55.350266,27.1864959 51.3588112,25.6171549 46.9115634,25.6171549 C42.8386238,25.6171549 39.3003504,26.1927151 35.1643375,30.7457716 C31.0283246,35.2988281 31.7054411,43.7276598 32.3694808,47.6111631 C32.5071679,48.4163556 32.8990845,49.0298244 33.5607581,49.5611987 C34.0913611,49.9873133 34.6166612,50.2667944 35.820753,50.8164778 C35.9100916,50.8572765 35.9497118,50.875382 35.9993052,50.8980903 C37.0937839,51.3992393 37.6780998,51.7081003 38.2751834,52.1494678 C39.0724014,52.7387757 39.6626036,53.4475567 40.057346,54.3558645 C41.1431072,56.8545909 40.6657821,58.9396798 37.9015795,62.8006185 C37.5993677,63.2227874 37.6966302,63.810357 38.1182762,64.1122843 C38.2808952,64.2285637 38.4701344,64.2883099 38.6643521,64.2883099 C38.9668679,64.2883099 39.2511821,64.1454426 39.4302848,63.8952617 C42.480911,59.633853 43.2123772,56.898949 41.7815737,53.6063184 C41.1217431,52.0880652 40.0849819,51.0103683 38.6319957,50.1346547 C38.0600762,49.7899593 37.5870184,49.5561387 36.6014253,49.1060311 C35.8789902,48.776197 35.5706164,48.6274338 35.2382411,48.4339474 C34.6474581,48.0900335 34.3057177,47.7797845 34.2225395,47.2942558 C33.6570608,43.9861081 32.9262738,36.1650391 36.6014253,31.9580078 C40.2765768,27.7509766 43.378699,27.4974366 46.911338,27.4974366 C50.8373263,27.4974366 54.3622623,28.8615591 56.8252884,31.3499797 C57.7043625,32.2379479 58.4371583,33.2571794 59.0033134,34.3789117 Z M61.3852535,39.2671831 C61.9046738,39.2671831 62.3253944,39.6879037 62.3253944,40.2073239 C62.3253944,42.5546408 62.1207087,44.3082541 61.5779955,45.8857244 C60.926607,47.7790746 59.7938885,49.3168052 58.0215781,50.5552505 C57.8609035,50.6676489 57.6752676,50.7251549 57.4846338,50.7251549 C57.1784507,50.7251549 56.8909845,50.57866 56.7126419,50.3233782 C56.4151133,49.8977103 56.5190311,49.3116854 56.9446337,49.0144152 C59.493592,47.2333409 60.4451127,44.7819879 60.4451127,40.2073239 C60.4451127,39.6879037 60.8658333,39.2671831 61.3852535,39.2671831 Z M42.9059592,51.3235921 C42.4481354,51.1689081 42.2023922,50.6723724 42.3570762,50.2145486 C42.5117603,49.7567249 43.008296,49.5109816 43.4661197,49.6656657 C47.5904701,51.0591522 52.0980281,48.9200584 54.2355029,44.8597367 C55.2866306,42.863027 55.6191227,40.6205142 55.1250641,38.4497674 C54.5737841,36.0276068 53.0216015,33.7579173 50.4340665,31.8261544 C50.0468297,31.5370569 49.967272,30.9887796 50.2563694,30.6015427 C50.5454669,30.2143058 51.0937442,30.1347481 51.4809811,30.4238456 C54.3911082,32.5964445 56.1844469,35.2187661 56.8314264,38.061402 C57.4205719,40.6499321 57.0250572,43.317504 55.7840369,45.6749313 C53.2659953,50.4581734 47.8922767,53.0083099 42.9059592,51.3235921 Z M44.80871,42.1230143 L46.3945355,39.8071289 L44.608891,37.0510254 C44.4406773,36.7836087 44.3145189,36.5539357 44.230412,36.3619995 C44.1463051,36.1700633 44.1042523,35.985678 44.1042523,35.8088379 C44.1042523,35.6276846 44.1851231,35.4648648 44.3468671,35.3203735 C44.5086111,35.1758823 44.7059357,35.1036377 44.9388471,35.1036377 C45.2062638,35.1036377 45.4143712,35.1823519 45.5631757,35.3397827 C45.7119801,35.4972135 45.917931,35.7894266 46.1810346,36.2164307 L47.6043744,38.5196533 L49.1247602,36.2164307 C49.2498422,36.0223379 49.3565916,35.8562832 49.4450116,35.7182617 C49.5334317,35.5802402 49.6186155,35.4659428 49.7005658,35.3753662 C49.7825161,35.2847896 49.8741696,35.2168581 49.9755292,35.1715698 C50.0768887,35.1262815 50.1944209,35.1036377 50.3281293,35.1036377 C50.569667,35.1036377 50.7669916,35.1758823 50.9201093,35.3203735 C51.0732269,35.4648648 51.1497846,35.6363109 51.1497846,35.8347168 C51.1497846,36.1236994 50.9837299,36.5161922 50.6516156,37.012207 L48.7818646,39.8071289 L50.7939496,42.9061279 C50.9751029,43.1778578 51.1066526,43.4032177 51.1886029,43.5822144 C51.2705532,43.761211 51.3115277,43.9305005 51.3115277,44.0900879 C51.3115277,44.2410489 51.2748663,44.3790684 51.2015424,44.5041504 C51.1282184,44.6292324 51.0247039,44.7284339 50.8909955,44.8017578 C50.7572872,44.8750817 50.6063284,44.9117432 50.4381146,44.9117432 C50.2569614,44.9117432 50.1038461,44.8740035 49.9787641,44.7985229 C49.8536821,44.7230424 49.752324,44.6292323 49.6746869,44.5170898 C49.5970498,44.4049474 49.4525607,44.1871354 49.2412152,43.8636475 L47.5720258,41.2369385 L45.7993207,43.9412842 C45.6612992,44.1569428 45.563176,44.3079016 45.5049481,44.394165 C45.4467203,44.4804285 45.3766323,44.5645341 45.294682,44.6464844 C45.2127317,44.7284347 45.1156868,44.7931313 45.0035443,44.8405762 C44.8914018,44.8880211 44.7598521,44.9117432 44.608891,44.9117432 C44.594342,44.9117432 44.5799486,44.9114655 44.5657109,44.9109101 C44.5516949,44.9114655 44.5375645,44.9117432 44.5233197,44.9117432 C44.3723587,44.9117432 44.2429654,44.8847862 44.1351361,44.8308716 C44.0273068,44.7769569 43.9367315,44.7036341 43.8634076,44.6109009 C43.7900837,44.5181677 43.7113695,44.3758351 43.6272626,44.1838989 C43.5431557,43.9919627 43.4709112,43.8226733 43.4105268,43.6760254 L42.9576459,42.4855957 L39.1016889,42.4855957 L38.648808,43.7019043 C38.4719679,44.1763533 38.3210091,44.4966015 38.1959271,44.6626587 C38.0708451,44.8287158 37.8659725,44.9117432 37.5813031,44.9117432 C37.3397655,44.9117432 37.1262666,44.8233245 36.9408002,44.6464844 C36.7553338,44.4696443 36.6626019,44.2690848 36.6626019,44.0447998 C36.6626019,43.9154046 36.6841675,43.7816983 36.7272992,43.6436768 C36.7704309,43.5056552 36.8415972,43.3137219 36.9408002,43.0678711 L39.3669477,36.9086914 C39.4359584,36.7318513 39.5189857,36.5194308 39.6160321,36.2714233 C39.7130785,36.0234159 39.8165931,35.817465 39.926579,35.6535645 C40.0365649,35.4896639 40.181054,35.3570358 40.3600507,35.2556763 C40.5390473,35.1543167 40.7600941,35.1036377 41.0231977,35.1036377 C41.2906144,35.1036377 41.5138177,35.1543167 41.6928143,35.2556763 C41.871811,35.3570358 42.0163001,35.4875073 42.126286,35.6470947 C42.2362719,35.8066821 42.3290038,35.9781282 42.4044843,36.161438 C42.4799648,36.3447478 42.5759314,36.5895167 42.6923871,36.895752 L44.80871,42.1230143 Z M39.6063275,41.0428467 L42.4400678,41.0428467 L41.0102582,37.1286621 L39.6063275,41.0428467 Z" id="Shape" fill="#E90000" fill-rule="nonzero"></path>
                </g>
            </g>
        </g>
    </g>
</svg>