<?xml version="1.0" encoding="UTF-8"?>
<svg width="96px" height="96px" viewBox="0 0 96 96" version="1.1" xmlns="http://www.w3.org/2000/svg" xmlns:xlink="http://www.w3.org/1999/xlink">
    <!-- Generator: Sketch 46.1 (44463) - http://www.bohemiancoding.com/sketch -->
    <title>cons-3</title>
    <desc>Created with Sketch.</desc>
    <defs></defs>
    <g id="Page-1" stroke="none" stroke-width="1" fill="none" fill-rule="evenodd">
        <g id="Axum-2.0" transform="translate(-1064.000000, -1907.000000)">
            <g id="Group" transform="translate(919.000000, 1867.000000)">
                <g id="cons-3" transform="translate(145.000000, 40.000000)">
                    <circle id="Oval" fill="#F8F8F8" cx="48" cy="48" r="48"></circle>
                    <path d="M47.9138657,48.062625 C39.1086157,48.062625 31.9451157,55.226125 31.9451157,64.031375 C31.9451157,72.836625 39.1086157,80 47.9138657,80 C56.7191157,80 63.8826157,72.8365 63.8826157,64.03125 C63.8826157,55.226 56.7189907,48.062625 47.9138657,48.062625 Z M47.9138657,78.121375 C40.1447407,78.121375 33.8238657,71.800625 33.8238657,64.031375 C33.8238657,56.262125 40.1446157,49.94125 47.9138657,49.94125 C55.6831157,49.94125 62.0038657,56.262 62.0038657,64.03125 C62.0038657,71.8005 55.6829907,78.121375 47.9138657,78.121375 Z M53.1888657,56.665375 C51.7093657,56.278875 50.4314907,55.945 49.7558657,54.593625 C49.5609907,54.204 49.1237407,53.999375 48.6998657,54.0995 C48.2758657,54.199625 47.9763657,54.578 47.9763657,55.013625 L47.9763657,65.949875 C47.1323657,65.416 46.0663657,65.095875 44.9078657,65.095875 C42.1799907,65.095875 39.9607407,66.86575 39.9607407,69.041125 C39.9607407,71.2165 42.1801157,72.986375 44.9078657,72.986375 C47.6357407,72.986375 49.8549907,71.2165 49.8549907,69.041125 L49.8549907,57.398 C50.7722407,57.97575 51.8061157,58.245875 52.7138657,58.483125 C54.7581157,59.017125 55.9919907,59.339625 55.9919907,62.027375 C55.9919907,62.546125 56.4124907,62.96675 56.9313657,62.96675 C57.4502407,62.96675 57.8707407,62.546125 57.8707407,62.027375 C57.8707407,57.888625 55.2748657,57.2105 53.1888657,56.665375 Z M44.9079907,71.107625 C43.2447407,71.107625 41.8394907,70.16125 41.8394907,69.041125 C41.8394907,67.921 43.2447407,66.974625 44.9079907,66.974625 C46.5712407,66.974625 47.9764907,67.921 47.9764907,69.041125 C47.9764907,70.16125 46.5712407,71.107625 44.9079907,71.107625 Z M72.7109907,24.609 C69.2539907,21.876 65.4037407,19.747875 61.2669907,18.2835 C56.9862407,16.76825 52.4936157,16 47.9138657,16 C43.3341157,16 38.8413657,16.76825 34.5606157,18.283625 C30.4237407,19.748 26.5734907,21.876125 23.1166157,24.609125 C21.8436157,25.615625 21.6267407,27.470125 22.6331157,28.743375 C23.6398657,30.0165 25.4944907,30.23325 26.7673657,29.226875 C32.8413657,24.42475 40.1537407,21.8865 47.9138657,21.8865 C55.6739907,21.8865 62.9862407,24.42475 69.0603657,29.22675 C70.3202407,30.222625 72.2003657,30.0005 73.1947407,28.743125 C74.2009907,27.47 73.9839907,25.615375 72.7109907,24.609 Z M71.7209907,27.578 C71.3608657,28.03325 70.6809907,28.113 70.2256157,27.753 C63.8162407,22.686 56.1008657,20.007875 47.9138657,20.007875 C39.7268657,20.007875 32.0113657,22.686 25.6021157,27.753 C25.1416157,28.116875 24.4707407,28.0385 24.1068657,27.578125 C23.7428657,27.117625 23.8213657,26.44675 24.2817407,26.08275 C27.5763657,23.478 31.2457407,21.45 35.1874907,20.054625 C39.2662407,18.61075 43.5479907,17.878625 47.9138657,17.878625 C52.2797407,17.878625 56.5613657,18.610625 60.6401157,20.054625 C64.5821157,21.45 68.2513657,23.478 71.5458657,26.08275 C72.0063657,26.44675 72.0847407,27.117625 71.7209907,27.578 Z M59.6729907,41.124125 C56.2943657,38.453 52.2282407,37.041125 47.9137407,37.041125 C43.5992407,37.041125 39.5331157,38.452875 36.1544907,41.124125 C34.8814907,42.130625 34.6646157,43.985125 35.6708657,45.258375 C36.6773657,46.53125 38.5319907,46.74825 39.8052407,45.741875 C42.1338657,43.900875 44.9378657,42.92775 47.9137407,42.92775 C50.8896157,42.92775 53.6933657,43.900875 56.0222407,45.741875 C57.2822407,46.73775 59.1619907,46.515875 60.1566157,45.25825 C61.1629907,43.984875 60.9459907,42.130375 59.6729907,41.124125 Z M58.7447407,44.006125 C58.4098657,44.5295 57.6749907,44.653375 57.1874907,44.268 C54.5234907,42.162125 51.3168657,41.049 47.9138657,41.049 C44.5108657,41.049 41.3042407,42.162125 38.6402407,44.268 C38.1794907,44.632125 37.5086157,44.553375 37.1449907,44.093125 C36.7808657,43.632625 36.8593657,42.96175 37.3198657,42.59775 C40.3634907,40.191625 44.0267407,38.919875 47.9139907,38.919875 C51.8012407,38.919875 55.4644907,40.19175 58.5081157,42.59775 C58.9304907,42.931875 59.0353657,43.552125 58.7447407,44.006125 Z M65.8814907,33.259625 C67.1544907,34.266 67.3714907,36.1205 66.3653657,37.393875 C65.3587407,38.667 63.5041157,38.883875 62.2309907,37.8775 C58.1186157,34.6265 53.1678657,32.908125 47.9139907,32.908125 C42.6601157,32.908125 37.7091157,34.6265 33.5968657,37.877625 C33.0791157,38.28675 32.4313657,38.512 31.7727407,38.512 C30.8663657,38.512 30.0242407,38.104625 29.4624907,37.394 C28.4562407,36.12075 28.6731157,34.26625 29.9461157,33.25975 C35.1086157,29.178875 41.3217407,27.02175 47.9139907,27.02175 C51.2247407,27.02175 54.4559907,27.56625 57.5184907,28.640375 C58.0079907,28.812125 58.2657407,29.348125 58.0939907,29.83775 C57.9222407,30.32725 57.3863657,30.584875 56.8966157,30.41325 C54.0346157,29.409375 51.0122407,28.900375 47.9139907,28.900375 C41.7487407,28.900375 35.9384907,30.917375 31.1112407,34.733625 C30.6507407,35.0975 30.5722407,35.768375 30.9363657,36.228875 C31.1394907,36.485875 31.4444907,36.63325 31.7727407,36.63325 C32.0138657,36.63325 32.2417407,36.55375 32.4318657,36.403625 C36.8791157,32.88775 42.2327407,31.029375 47.9138657,31.029375 C53.5949907,31.029375 58.9486157,32.88775 63.3959907,36.403625 C63.8566157,36.767625 64.5271157,36.68925 64.8913657,36.22875 C65.2551157,35.76825 65.1767407,35.0975 64.7163657,34.7335 C63.3908657,33.68575 61.9728657,32.761125 60.5014907,31.985625 C60.0426157,31.74375 59.8666157,31.1755 60.1084907,30.716625 C60.3503657,30.25775 60.9183657,30.081625 61.3774907,30.323625 C62.9504907,31.15275 64.4658657,32.140625 65.8814907,33.259625 Z" id="Shape" fill="#E90000" fill-rule="nonzero"></path>
                </g>
            </g>
        </g>
    </g>
</svg>