<?xml version="1.0" encoding="UTF-8"?>
<svg width="96px" height="96px" viewBox="0 0 96 96" version="1.1" xmlns="http://www.w3.org/2000/svg" xmlns:xlink="http://www.w3.org/1999/xlink">
    <!-- Generator: Sketch 46.1 (44463) - http://www.bohemiancoding.com/sketch -->
    <title>cons-1</title>
    <desc>Created with Sketch.</desc>
    <defs></defs>
    <g id="Page-1" stroke="none" stroke-width="1" fill="none" fill-rule="evenodd">
        <g id="Axum-2.0" transform="translate(-280.000000, -1907.000000)">
            <g id="Group" transform="translate(135.000000, 1867.000000)">
                <g id="cons-1" transform="translate(145.000000, 40.000000)">
                    <circle id="Oval" fill="#F8F8F8" cx="48" cy="48" r="48"></circle>
                    <path d="M70.627375,25.372625 C64.583375,19.3285 56.5475,16 48,16 C39.4525,16 31.4165,19.3285 25.372625,25.372625 C19.3285,31.416625 16,39.4525 16,48 C16,56.5475 19.3285,64.5835 25.372625,70.627375 C31.4165,76.6715 39.4525,80 48,80 C56.5475,80 64.583375,76.6715 70.627375,70.627375 C76.6715,64.5835 80,56.5475 80,48 C80,39.4525 76.6715,31.416625 70.627375,25.372625 Z M48,77.9575 C31.481375,77.9575 18.0425,64.51875 18.0425,48 C18.0425,31.4815 31.48125,18.0425 48,18.0425 C64.51875,18.0425 77.9575,31.4815 77.9575,48 C77.9575,64.518625 64.518625,77.9575 48,77.9575 Z M67.501875,36.85175 C67.4885,36.82275 67.47425,36.794125 67.457875,36.766 C67.439,36.733375 67.418375,36.70225 67.396625,36.672625 C65.44375,33.341625 62.658125,30.556 59.327125,28.60325 C59.2975,28.581625 59.2665,28.561 59.234,28.54225 C59.2065,28.526375 59.178375,28.51225 59.15,28.49925 C55.86225,26.612125 52.055,25.532 48,25.532 C43.945375,25.532 40.138375,26.611875 36.850875,28.498625 C36.82225,28.511875 36.793875,28.526 36.765875,28.542125 C36.73325,28.560875 36.70225,28.581625 36.6725,28.60325 C33.3415,30.556125 30.555875,33.341625 28.603125,36.67275 C28.581375,36.702375 28.56075,36.7335 28.542,36.766 C28.526125,36.793625 28.511875,36.822 28.498875,36.850375 C26.611875,40.138 25.531875,43.945125 25.531875,48 C25.531875,52.054875 26.611875,55.862 28.498875,59.149625 C28.512,59.178125 28.526125,59.206375 28.542,59.234 C28.55725,59.260375 28.575,59.28425 28.59225,59.30875 C30.5455,62.648 33.3355,65.440375 36.67275,67.39675 C36.702375,67.4185 36.733375,67.439 36.765875,67.457875 C36.785375,67.469125 36.805625,67.477375 36.8255,67.48725 C40.118625,69.382875 43.935,70.468 47.999875,70.468 C52.06475,70.468 55.881,69.382875 59.174125,67.48725 C59.194,67.4775 59.21425,67.469125 59.233875,67.457875 C59.266375,67.439125 59.297375,67.4185 59.327,67.396875 C62.6645,65.440375 65.454625,62.64775 67.407875,59.308125 C67.424875,59.283875 67.4425,59.26025 67.457625,59.234 C67.47325,59.20675 67.487125,59.179 67.500125,59.151 C69.38775,55.863125 70.468,52.0555 70.468,48 C70.468125,43.945625 69.388375,40.139 67.501875,36.85175 Z M66.175125,57.314375 L65.315125,56.81775 C64.82625,56.53575 64.20175,56.703125 63.92,57.1915 C63.638,57.68 63.805375,58.3045 64.29375,58.586625 L65.150375,59.08125 C63.578125,61.50625 61.506,63.578375 59.081,65.150625 L58.586375,64.294 C58.30425,63.8055 57.679625,63.63825 57.19125,63.92025 C56.70275,64.20225 56.5355,64.826875 56.8175,65.315375 L57.314,66.175375 C54.804875,67.466375 51.99575,68.252875 49.021125,68.400125 L49.021125,67.4045 C49.021125,66.8405 48.564,66.38325 47.999875,66.38325 C47.435875,66.38325 46.978625,66.8405 46.978625,67.4045 L46.978625,68.400125 C44.004,68.252875 41.194625,67.466375 38.68575,66.175375 L39.18225,65.315375 C39.46425,64.826875 39.296875,64.202375 38.8085,63.92025 C38.32,63.638125 37.6955,63.805625 37.4135,64.294 L36.918875,65.150625 C34.493875,63.578375 32.42175,61.50625 30.8495,59.08125 L31.706125,58.586625 C32.194625,58.304625 32.361875,57.68 32.079875,57.1915 C31.797875,56.703 31.17325,56.53575 30.68475,56.81775 L29.82475,57.31425 C28.53375,54.805125 27.74725,51.996 27.6,49.021375 L28.595625,49.021375 C29.159625,49.021375 29.616875,48.564125 29.616875,48.000125 C29.616875,47.436125 29.159625,46.978875 28.595625,46.978875 L27.6,46.978875 C27.74725,44.00425 28.53375,41.194875 29.82475,38.686 L30.68475,39.1825 C30.845625,39.275375 31.02125,39.3195 31.1945,39.3195 C31.5475,39.3195 31.89075,39.136375 32.079875,38.80875 C32.361875,38.32025 32.1945,37.69575 31.706125,37.413625 L30.8495,36.919 C32.42175,34.494 34.493875,32.421875 36.918875,30.849625 L37.4135,31.70625 C37.602625,32.033875 37.945875,32.217 38.298875,32.217 C38.472125,32.217 38.64775,32.172875 38.8085,32.08 C39.297,31.798 39.46425,31.173375 39.18225,30.684875 L38.68575,29.824875 C41.194875,28.533875 44.004,27.747375 46.978625,27.600125 L46.978625,28.59575 C46.978625,29.15975 47.435875,29.617 47.999875,29.617 C48.564,29.617 49.021125,29.15975 49.021125,28.59575 L49.021125,27.600125 C51.99575,27.747375 54.805125,28.533875 57.314,29.824875 L56.8175,30.684875 C56.5355,31.173375 56.702875,31.797875 57.19125,32.08 C57.35225,32.172875 57.52775,32.217 57.701,32.217 C58.054,32.217 58.39725,32.033875 58.586375,31.70625 L59.081,30.849625 C61.506,32.422 63.578125,34.494 65.150375,36.919 L64.293875,37.413625 C63.805375,37.695625 63.638125,38.32025 63.920125,38.808625 C64.109375,39.13625 64.4525,39.319375 64.8055,39.319375 C64.97875,39.319375 65.154375,39.27525 65.315125,39.182375 L66.175125,38.685875 C67.466125,41.195 68.252625,44.004125 68.399875,46.97875 L67.404,46.97875 C66.839875,46.97875 66.38275,47.436 66.38275,48 C66.38275,48.564 66.839875,49.02125 67.404,49.02125 L68.399625,49.02125 C68.25275,51.995875 67.46625,54.80525 66.175125,57.314375 Z M56.510625,46.97875 L49.02125,46.97875 L49.02125,35.40425 C49.02125,34.84025 48.564125,34.383 48,34.383 C47.436,34.383 46.97875,34.84025 46.97875,35.40425 L46.97875,46.97875 L45.276625,46.97875 C44.712625,46.97875 44.255375,47.436 44.255375,48 C44.255375,48.564 44.712625,49.02125 45.276625,49.02125 L46.97875,49.02125 L46.97875,50.723375 C46.97875,51.287375 47.436,51.744625 48,51.744625 C48.564125,51.744625 49.02125,51.287375 49.02125,50.723375 L49.02125,49.02125 L56.510625,49.02125 C57.07475,49.02125 57.531875,48.564 57.531875,48 C57.531875,47.436 57.07475,46.97875 56.510625,46.97875 Z" id="Shape" fill="#E90000" fill-rule="nonzero"></path>
                </g>
            </g>
        </g>
    </g>
</svg>