<?xml version="1.0" encoding="UTF-8"?>
<svg width="672px" height="230px" viewBox="0 0 672 230" version="1.1" xmlns="http://www.w3.org/2000/svg" xmlns:xlink="http://www.w3.org/1999/xlink">
    <!-- Generator: Sketch 46.1 (44463) - http://www.bohemiancoding.com/sketch -->
    <title>earbuds_outline</title>
    <desc>Created with Sketch.</desc>
    <defs></defs>
    <g id="Page-1" stroke="none" stroke-width="1" fill="none" fill-rule="evenodd" opacity="0.800000012">
        <g id="Axum-2.0" transform="translate(-384.000000, -6585.000000)">
            <g id="Group-29" transform="translate(-138.000000, 5654.000000)">
                <g id="Group-36" transform="translate(355.000000, 804.000000)">
                    <g id="earbuds_outline" transform="translate(168.000000, 128.000000)">
                        <g id="right" transform="translate(350.000000, 0.000000)">
                            <path d="M259.511679,227.571116 L154.231778,227.571116 C127.683848,227.571116 102.768263,214.740896 87.3151811,193.114454 L10.1230976,85.0780606 C-15.3025948,49.490729 10.0912159,0 53.7755843,0 L183.961506,0 C215.355461,0 244.380603,16.7396522 260.146126,43.9395908 L312.626668,128.369273 C321.633262,142.863557 322.443058,161.018143 314.756369,176.259818 L302.118445,201.313402 C293.998164,217.417452 277.521678,227.571116 259.511679,227.571116 Z" id="Stroke-1" stroke="#FFFFFF"></path>
                            <path d="M162.26963,205.864333 C153.576599,205.864333 145.559374,201.139142 141.34515,193.524562 L129.05951,171.357673 C125.058867,164.132601 125.030177,155.489973 128.989379,148.232974 L179.378357,55.8874306 C183.576642,48.1930329 191.622557,43.4135667 200.376156,43.4135667 L221.86487,43.5253111 C230.156243,43.5732015 237.711242,47.813102 242.078478,54.8657679 L296.120634,142.150888 C300.471931,149.168434 300.876777,158.123947 297.182159,165.515039 L283.621413,192.627414 C279.541075,200.791138 271.342148,205.864333 262.225144,205.864333 L162.26963,205.864333 Z" id="Stroke-3" stroke="#FFFFFF"></path>
                            <path d="M290.75179,145.538203 L236.659772,58.1540758 C233.472445,53.0048082 227.866708,49.8596317 221.820679,49.8276685 L200.437836,49.7157974 C193.983421,49.6806379 188.026727,53.1965872 184.928735,58.8764436 L134.493048,151.326734 C131.605631,156.623032 131.624774,163.031649 134.547287,168.30877 L146.843538,190.500803 C149.938339,196.094359 155.821652,199.562363 162.205876,199.562363 L262.247715,199.562363 C268.899942,199.562363 274.981067,195.803494 277.957819,189.842361 L291.530277,162.699232 C294.264549,157.230333 293.971022,150.735415 290.75179,145.538203 Z" id="Stroke-5" stroke="#FFFFFF"></path>
                            <path d="M37.8082911,59.356065 L66.2021413,102.739496 C68.9156986,106.893533 73.7804015,109.09947 78.6864114,108.408722 L93.3377145,106.346028 C97.3127264,105.78579 100.792053,103.392046 102.746196,99.8778254 L122.325751,64.6051131 C124.483252,60.7152788 124.476897,55.9787211 122.303509,52.0984362 L115.227289,39.4644325 C112.961754,35.4154396 108.694415,32.9102845 104.064845,32.9102845 L52.8154704,32.9102845 C48.4941145,32.9102845 44.4650856,35.0939394 42.1010498,38.7163875 L37.7987587,45.3055504 C35.0121196,49.574182 35.0152971,55.0906165 37.8082911,59.356065 Z" id="Stroke-7" stroke="#FFFFFF"></path>
                            <path d="M27.0060626,73.1680556 L55.7916199,113.049436 C72.5986299,136.343832 107.886006,134.665387 122.400135,109.880456 L141.557508,77.1651114 C157.042439,50.7272148 137.920194,17.5054705 107.221773,17.5054705 L55.5968208,17.5054705 C26.8847124,17.5054705 10.2309869,49.9278036 27.0060626,73.1680556 Z" id="Stroke-9" stroke="#FFFFFF"></path>
                            <path d="M281.060087,152.747416 L281.060087,152.747416 C281.444658,152.747416 281.816302,152.837009 282.165325,153.012994 C282.743797,153.30737 283.167148,153.806528 283.364281,154.414477 C283.558182,155.028825 283.506475,155.678371 283.20916,156.247923 L268.669796,184.155982 C268.249677,184.959115 267.422365,185.458273 266.511029,185.458273 C266.126458,185.458273 265.754814,185.365481 265.405791,185.192695 C264.830551,184.89832 264.403968,184.399162 264.206835,183.788013 C264.012934,183.176864 264.064641,182.527319 264.361956,181.957766 L278.90132,154.046508 C279.321439,153.243375 280.148751,152.747416 281.060087,152.747416" id="Fill-11" stroke="#FFFFFF"></path>
                            <path d="M181.129297,167.345377 L183.858596,157.148546 L191.284977,160.235016 L181.129297,167.345377 Z M247.054825,94.5295405 L230.384664,106.202649 L225.761174,115.57047 L220.26418,113.287502 L201.027902,126.758926 L216.971744,133.384635 L210.668439,146.160965 L187.224625,136.420089 L184.780095,138.132315 L175.801885,144.420043 L167.393213,150.306019 L173.542934,152.860009 L163.851204,189.059081 L177.961647,179.1811 L179.519875,173.349328 L195.658895,162.049274 L199.904826,163.815705 L203.04368,161.618826 L219.717041,149.945718 L219.736239,149.929775 L219.72664,149.923398 L226.029944,137.143879 L233.539516,140.265424 L252.778993,126.794 L234.816175,119.332903 L247.054825,94.5295405 Z" id="Stroke-13" stroke="#E90000" stroke-width="2"></path>
                        </g>
                        <g id="left">
                            <path d="M60.4891981,0 L165.768744,0 C192.316584,0 217.232084,12.83022 232.685114,34.4566624 L309.876937,142.493055 C335.302543,178.080387 309.908818,227.571116 266.224598,227.571116 L136.039116,227.571116 C104.645267,227.571116 75.6202236,210.831464 59.8547535,183.631525 L7.37438882,99.2018427 C-1.63536214,84.7075588 -2.44196759,66.5529732 5.24469538,51.3112979 L17.8793886,26.2577143 C26.00283,10.1536642 42.4792606,0 60.4891981,0 Z" id="Stroke-15" stroke="#FFFFFF"></path>
                            <path d="M167.125406,21.0065646 C175.808487,21.0065646 183.816535,25.7317549 188.025934,33.3463352 L209.849855,77.8620977 C213.845919,85.0871691 213.874576,93.7297976 209.919906,100.986796 L172.325065,170.983467 C168.131586,178.677864 160.094881,183.45733 151.351303,183.45733 L98.046041,183.345586 C89.764159,183.297696 82.2178075,179.057795 77.8555706,172.005129 L23.8752765,84.7200091 C19.5289601,77.7024629 19.1245776,68.7469502 22.8149664,61.3558586 L36.3601897,34.2434828 C40.4358563,26.0797587 48.6253989,21.0065646 57.7319666,21.0065646 L167.125406,21.0065646 Z" id="Stroke-17" stroke="#FFFFFF"></path>
                            <path d="M29.243672,81.3326942 L83.2679987,168.716821 C86.447962,173.866089 92.0463543,177.011266 98.084461,177.043229 L151.302645,177.1551 C157.748602,177.190259 163.697492,173.67431 166.791424,167.994454 L204.415679,97.9183862 C207.299313,92.622088 207.280195,86.2134712 204.361512,80.9363508 L182.522365,36.3700943 C179.431619,30.7765385 173.556015,27.3085339 167.180157,27.3085339 L57.7103977,27.3085339 C51.0668872,27.3085339 44.9937308,31.0674034 42.0208793,37.0285358 L28.466206,64.1716649 C25.7355161,69.6405643 26.0318453,76.1354817 29.243672,81.3326942 Z" id="Stroke-19" stroke="#FFFFFF"></path>
                            <path d="M282.275274,167.328361 L262.028927,137.480492 C259.846533,134.264141 256.211343,132.341357 252.326553,132.341357 L239.180988,132.341357 C235.062599,132.341357 231.245009,134.50369 229.129814,138.029859 L213.129857,164.715674 C210.845063,168.526109 210.918662,173.297935 213.318656,177.034907 L220.281838,187.878515 C222.438632,191.229014 226.153822,193.260394 230.147412,193.260394 L267.539313,193.260394 C271.494502,193.260394 275.180893,191.270536 277.347287,187.967947 L282.377674,180.289586 C284.963267,176.341811 284.921667,171.231421 282.275274,167.328361 Z" id="Stroke-21" stroke="#FFFFFF"></path>
                            <path d="M304.074569,168.194811 L270.474792,119.777327 C256.768403,100.022688 227.098853,101.346666 215.209357,122.243872 L193.371574,160.626496 C180.997573,182.373467 196.728045,209.365427 221.782049,209.365427 L282.482226,209.365427 C303.676128,209.365427 316.145754,185.591115 304.074569,168.194811 Z" id="Stroke-23" stroke="#FFFFFF"></path>
                            <path d="M154.748359,99.4294748 C154.748359,126.116598 133.115591,147.746171 106.434858,147.746171 C79.7509298,147.746171 58.1181619,126.116598 58.1181619,99.4294748 C58.1181619,72.7455467 79.7509298,51.1159737 106.434858,51.1159737 C133.115591,51.1159737 154.748359,72.7455467 154.748359,99.4294748 Z" id="Stroke-25" stroke="#FFFFFF"></path>
                            <path d="M150.547046,131.72238 C150.547046,163.065927 120.831481,205.164114 89.5120774,205.164114 C58.1894916,205.164114 32.2321278,188.521015 30.1095874,151.02468 C30.0332141,119.709795 54.5076637,73.2772694 93.8367136,74.9683305 C125.127477,76.3090777 150.547046,100.375648 150.547046,131.72238" id="Fill-27" fill="#051321"></path>
                            <path d="M150.547046,131.72238 C150.547046,163.065927 120.831481,205.164114 89.5120774,205.164114 C58.1894916,205.164114 32.2321278,188.521015 30.1095874,151.02468 C30.0332141,119.709795 54.5076637,73.2772694 93.8367136,74.9683305 C125.127477,76.3090777 150.547046,100.375648 150.547046,131.72238 Z" id="Stroke-29" stroke="#FFFFFF"></path>
                            <path d="M116.101047,174.940998 C114.31681,194.014484 98.5836634,207.69174 76.9784648,205.665361 C55.3732662,203.638983 36.7853398,183.748564 37.855882,167.607742 C39.1239647,148.495963 58.5976373,134.71659 80.2060221,136.739778 C101.811221,138.766156 117.885285,155.867513 116.101047,174.940998" id="Fill-31" fill="#051321"></path>
                            <path d="M116.101047,174.940998 C114.31681,194.014484 98.5836634,207.69174 76.9784648,205.665361 C55.3732662,203.638983 36.7853398,183.748564 37.855882,167.607742 C39.1239647,148.495963 58.5976373,134.71659 80.2060221,136.739778 C101.811221,138.766156 117.885285,155.867513 116.101047,174.940998 Z" id="Stroke-33" stroke="#FFFFFF"></path>
                            <path d="M95.1660215,172.940707 C94.3241638,181.977247 85.3614199,188.523276 75.150294,187.565634 C64.935967,186.604779 57.3400416,178.500172 58.1818993,169.466845 C59.023757,160.430305 67.9865009,153.881063 78.2008278,154.841918 C88.4119538,155.802774 96.0078792,163.904167 95.1660215,172.940707 Z" id="Stroke-35" stroke="#FFFFFF"></path>
                            <path d="M189.7593,109.232533 C189.7593,113.87377 185.998796,117.636761 181.356674,117.636761 C176.714552,117.636761 172.954048,113.87377 172.954048,109.232533 C172.954048,104.594502 176.714552,100.83151 181.356674,100.83151 C185.998796,100.83151 189.7593,104.594502 189.7593,109.232533 Z" id="Stroke-37" stroke="#FFAF00" stroke-width="2"></path>
                            <path d="M171.553611,144.245077 C171.553611,148.887199 167.790619,152.647702 163.152587,152.647702 C158.511351,152.647702 154.748359,148.887199 154.748359,144.245077 C154.748359,139.602954 158.511351,135.842451 163.152587,135.842451 C167.790619,135.842451 171.553611,139.602954 171.553611,144.245077 Z" id="Stroke-39" stroke="#FFAF00" stroke-width="2"></path>
                            <polyline id="Stroke-41" stroke="#FFFFFF" points="189.7593 72.2153778 184.265321 63.0196937 167.352298 73.5229759"></polyline>
                        </g>
                    </g>
                </g>
            </g>
        </g>
    </g>
</svg>