<?xml version="1.0" encoding="UTF-8"?>
<svg width="22px" height="22px" viewBox="0 0 22 22" version="1.1" xmlns="http://www.w3.org/2000/svg" xmlns:xlink="http://www.w3.org/1999/xlink">
    <!-- Generator: Sketch 46.1 (44463) - http://www.bohemiancoding.com/sketch -->
    <title>ft_1</title>
    <desc>Created with Sketch.</desc>
    <defs></defs>
    <g id="Page-1" stroke="none" stroke-width="1" fill="none" fill-rule="evenodd">
        <g id="Axum-2.0" transform="translate(-327.000000, -5834.000000)" fill-rule="nonzero" fill="#FFFFFF">
            <g id="Group-16" transform="translate(327.000000, 5833.000000)">
                <g id="ft_1" transform="translate(0.000000, 1.200000)">
                    <path d="M3.14285714,16.032 L3.14285714,0.4 C3.14285714,0.1788 2.96685714,0 2.75,0 C2.53314286,0 2.35714286,0.1788 2.35714286,0.4 L2.35714286,16.032 C1.02653571,16.2272 0,17.3924 0,18.8 C0,20.3436 1.23357143,21.6 2.75,21.6 C4.26642857,21.6 5.5,20.3436 5.5,18.8 C5.5,17.3924 4.47346429,16.2272 3.14285714,16.032 Z M2.75,20.8 C1.66689286,20.8 0.785714286,19.9028 0.785714286,18.8 C0.785714286,17.6972 1.66689286,16.8 2.75,16.8 C3.83310714,16.8 4.71428571,17.6972 4.71428571,18.8 C4.71428571,19.9028 3.83310714,20.8 2.75,20.8 Z" id="Shape"></path>
                    <path d="M11.3928571,7.878 L11.3928571,0.4 C11.3928571,0.1788 11.2168571,0 11,0 C10.7831429,0 10.6071429,0.1788 10.6071429,0.4 L10.6071429,7.8528 C9.19207143,8.0112 8.08735714,9.2352 8.08735714,10.7172 C8.08735714,12.1992 9.19207143,13.4232 10.6071429,13.5816 L10.6071429,21.2 C10.6071429,21.4212 10.7831429,21.6 11,21.6 C11.2168571,21.6 11.3928571,21.4212 11.3928571,21.2 L11.3928571,13.5564 C12.7285714,13.3256 13.75,12.142 13.75,10.7172 C13.75,9.2924 12.7285714,8.1088 11.3928571,7.878 Z M10.9186786,12.8 C9.79078571,12.8 8.87307143,11.8656 8.87307143,10.7172 C8.87307143,9.5688 9.79039286,8.6344 10.9186786,8.6344 C12.0469643,8.6344 12.9642857,9.5688 12.9642857,10.7172 C12.9642857,11.8656 12.0465714,12.8 10.9186786,12.8 Z" id="Shape"></path>
                    <path d="M22,2.8 C22,1.2564 20.7664286,0 19.25,0 C17.7335714,0 16.5,1.2564 16.5,2.8 C16.5,4.2076 17.5265357,5.3728 18.8571429,5.568 L18.8571429,21.2 C18.8571429,21.4212 19.0331429,21.6 19.25,21.6 C19.4668571,21.6 19.6428571,21.4212 19.6428571,21.2 L19.6428571,5.568 C20.9734643,5.3728 22,4.2076 22,2.8 Z M19.25,4.8 C18.1668929,4.8 17.2857143,3.9028 17.2857143,2.8 C17.2857143,1.6972 18.1668929,0.8 19.25,0.8 C20.3331071,0.8 21.2142857,1.6972 21.2142857,2.8 C21.2142857,3.9028 20.3331071,4.8 19.25,4.8 Z" id="Shape"></path>
                </g>
            </g>
        </g>
    </g>
</svg>