<?xml version="1.0" encoding="UTF-8"?>
<svg width="14px" height="15px" viewBox="0 0 14 15" version="1.1" xmlns="http://www.w3.org/2000/svg" xmlns:xlink="http://www.w3.org/1999/xlink">
    <!-- Generator: Sketch 46.1 (44463) - http://www.bohemiancoding.com/sketch -->
    <title>Q</title>
    <desc>Created with Sketch.</desc>
    <defs></defs>
    <g id="Page-1" stroke="none" stroke-width="1" fill="none" fill-rule="evenodd">
        <g id="Axum-2.0" transform="translate(-335.000000, -10822.000000)" fill="#E90000">
            <g id="Group-7" transform="translate(0.000000, 5361.000000)">
                <g id="Group-14" transform="translate(335.000000, 5452.000000)">
                    <g id="Group-13">
                        <path d="M13.8,21.7 L12.32,23.48 L10.94,22.34 C9.8333278,23.1533374 8.4866746,23.56 6.9,23.56 C5.899995,23.56 4.9766709,23.3866684 4.13,23.04 C3.2833291,22.6933316 2.5533364,22.2000032 1.94,21.56 C1.3266636,20.9199968 0.8500017,20.1533378 0.51,19.26 C0.1699983,18.3666622 0,17.3733388 0,16.28 C0,15.1866612 0.1733316,14.1933378 0.52,13.3 C0.8666684,12.4066622 1.3433303,11.6400032 1.95,11 C2.5566697,10.3599968 3.2833291,9.8666684 4.13,9.52 C4.9766709,9.1733316 5.899995,9 6.9,9 C7.900005,9 8.8233291,9.1766649 9.67,9.53 C10.5166709,9.8833351 11.2466636,10.3799968 11.86,11.02 C12.4733364,11.6600032 12.9499983,12.4266622 13.29,13.32 C13.6300017,14.2133378 13.8,15.1999946 13.8,16.28 C13.8,17.946675 13.3866708,19.413327 12.56,20.68 L13.8,21.7 Z M6.9,21.1 C7.6466704,21.1 8.3133304,20.9466682 8.9,20.64 L7.22,19.22 L8.7,17.44 L10.46,18.92 C10.8200018,18.186663 11,17.3066718 11,16.28 C11,15.5599964 10.9100009,14.9033363 10.73,14.31 C10.5499991,13.7166637 10.2866684,13.2100021 9.94,12.79 C9.5933316,12.3699979 9.1666692,12.0433345 8.66,11.81 C8.1533308,11.5766655 7.56667,11.46 6.9,11.46 C6.23333,11.46 5.6466692,11.5766655 5.14,11.81 C4.6333308,12.0433345 4.2066684,12.3699979 3.86,12.79 C3.5133316,13.2100021 3.2500009,13.7166637 3.07,14.31 C2.8899991,14.9033363 2.8,15.5599964 2.8,16.28 C2.8,17.0000036 2.8899991,17.6566637 3.07,18.25 C3.2500009,18.8433363 3.5133316,19.3499979 3.86,19.77 C4.2066684,20.1900021 4.6333308,20.5166655 5.14,20.75 C5.6466692,20.9833345 6.23333,21.1 6.9,21.1 Z" id="Q"></path>
                    </g>
                </g>
            </g>
        </g>
    </g>
</svg>