<?xml version="1.0" encoding="UTF-8"?>
<svg width="128px" height="81px" viewBox="0 0 128 81" version="1.1" xmlns="http://www.w3.org/2000/svg" xmlns:xlink="http://www.w3.org/1999/xlink">
    <!-- Generator: Sketch 46.1 (44463) - http://www.bohemiancoding.com/sketch -->
    <title>shipping_truck</title>
    <desc>Created with Sketch.</desc>
    <defs></defs>
    <g id="Page-1" stroke="none" stroke-width="1" fill="none" fill-rule="evenodd">
        <g id="Axum-2.0" transform="translate(-656.000000, -12275.000000)">
            <g id="Group-15" transform="translate(335.000000, 12211.000000)">
                <g id="shipping_truck" transform="translate(321.000000, 64.000000)">
                    <path d="M119.0395,34.34075 L115.72475,21.082 C116.631,20.8895 117.311,20.0855 117.311,19.12225 L117.311,16.9845 C117.311,12.343 113.53475,8.567 108.8935,8.567 L93.7955,8.567 L93.7955,4.1575 C93.7955,1.8735 91.9375,0.0155 89.6535,0.0155 L12.693,0.0155 C10.409,0.0155 8.551,1.8735 8.551,4.1575 L8.551,40.5 C8.551,41.60675 9.44825,42.50425 10.55525,42.50425 C11.662,42.50425 12.5595,41.607 12.5595,40.5 L12.5595,4.1575 C12.5595,4.08375 12.61925,4.024 12.693,4.024 L89.65325,4.024 C89.727,4.024 89.78675,4.08375 89.78675,4.1575 L89.78675,40.5005 C89.78675,41.60725 90.684,42.50475 91.791,42.50475 C92.89775,42.50475 93.79525,41.6075 93.79525,40.5005 L93.79525,38.2285 L117.4375,38.2285 C117.4395,38.2285 117.441,38.229 117.44275,38.229 C117.44475,38.229 117.4465,38.22875 117.44825,38.22875 C120.3575,38.23075 122.82775,40.14025 123.67625,42.7715 L117.44425,42.7715 C116.3375,42.7715 115.44,43.66875 115.44,44.77575 L115.44,49.05125 C115.44,52.514 118.257,55.331 121.71975,55.331 L123.99125,55.331 L123.99125,64.14925 L118.75075,64.14925 C117.02925,59.1785 112.304,55.598 106.75525,55.598 C101.2065,55.598 96.481,59.1785 94.75975,64.14925 L93.79475,64.14925 L93.79475,49.051 C93.79475,47.94425 92.8975,47.04675 91.7905,47.04675 C90.68375,47.04675 89.78625,47.944 89.78625,49.051 L89.78625,64.14875 L48.20425,64.14875 C46.48275,59.178 41.7575,55.5975 36.20875,55.5975 C30.66,55.5975 25.9345,59.178 24.21325,64.14875 L12.693,64.14875 C12.61925,64.14875 12.5595,64.089 12.5595,64.01525 L12.5595,59.606 L21.24425,59.606 C22.351,59.606 23.2485,58.70875 23.2485,57.60175 C23.2485,56.49475 22.35125,55.5975 21.24425,55.5975 L2.00425,55.5975 C0.8975,55.5975 0,56.49475 0,57.60175 C0,58.70875 0.89725,59.606 2.00425,59.606 L8.55125,59.606 L8.55125,64.01525 C8.55125,66.29925 10.40925,68.15725 12.69325,68.15725 L23.51925,68.15725 C23.51875,68.20175 23.51575,68.246 23.51575,68.29075 C23.51575,75.28975 29.21,80.98375 36.20875,80.98375 C43.2075,80.98375 48.90175,75.28975 48.90175,68.29075 C48.90175,68.24575 48.89875,68.20175 48.89825,68.15725 L94.06575,68.15725 C94.06525,68.20175 94.06225,68.246 94.06225,68.29075 C94.06225,75.28975 99.7565,80.98375 106.75525,80.98375 C113.754,80.98375 119.44825,75.28975 119.44825,68.29075 C119.44825,68.24575 119.44525,68.20175 119.44475,68.15725 L125.9955,68.15725 C127.10225,68.15725 127.99975,67.26 127.99975,66.153 L127.99975,44.77525 C128,39.49725 124.10575,35.112 119.0395,34.34075 Z M93.7955,12.57525 L108.8935,12.57525 C111.32475,12.57525 113.30275,14.55325 113.30275,16.9845 L113.30275,17.118 L93.7955,17.118 L93.7955,12.57525 Z M93.7955,34.22025 L93.7955,21.12625 L111.60425,21.12625 L114.87775,34.22025 L93.7955,34.22025 Z M36.20875,76.976 C31.42,76.976 27.524,73.08025 27.524,68.29125 C27.524,63.50225 31.42,59.6065 36.20875,59.6065 C40.9975,59.6065 44.8935,63.50225 44.8935,68.29125 C44.8935,73.08025 40.9975,76.976 36.20875,76.976 Z M106.75575,76.976 C101.967,76.976 98.071,73.08025 98.071,68.29125 C98.071,63.50225 101.967,59.6065 106.75575,59.6065 C111.5445,59.6065 115.4405,63.50225 115.4405,68.29125 C115.4405,73.08025 111.5445,76.976 106.75575,76.976 Z M123.99175,51.3225 L121.72025,51.3225 C120.46775,51.3225 119.44875,50.3035 119.44875,49.051 L119.44875,46.7795 L123.9915,46.7795 L123.9915,51.3225 L123.99175,51.3225 Z M36.20875,64.14925 C38.49275,64.14925 40.35075,66.00725 40.35075,68.29125 C40.35075,70.57525 38.49275,72.43325 36.20875,72.43325 C33.92475,72.43325 32.06675,70.57525 32.06675,68.29125 C32.06675,66.00725 33.92475,64.14925 36.20875,64.14925 Z M106.75575,64.14925 C109.03975,64.14925 110.89775,66.00725 110.89775,68.29125 C110.89775,70.57525 109.03975,72.43325 106.75575,72.43325 C104.47175,72.43325 102.61375,70.57525 102.61375,68.29125 C102.61375,66.00725 104.47175,64.14925 106.75575,64.14925 Z M83.24,55.59825 C84.347,55.59825 85.24425,56.4955 85.24425,57.6025 C85.24425,58.7095 84.34675,59.60675 83.24,59.60675 L53.311,59.60675 C52.204,59.60675 51.30675,58.7095 51.30675,57.6025 C51.30675,56.4955 52.20425,55.59825 53.311,55.59825 L83.24,55.59825 Z M31.93325,47.047 C33.04,47.047 33.9375,47.94425 33.9375,49.05125 C33.9375,50.15825 33.04,51.0555 31.93325,51.0555 L6.27975,51.0555 C5.17275,51.0555 4.2755,50.15825 4.2755,49.05125 C4.2755,47.94425 5.173,47.047 6.27975,47.047 L31.93325,47.047 Z" id="Shape" fill="#000000" fill-rule="nonzero"></path>
                    <path d="M69.69275,19.8425 C68.91025,19.06 67.641,19.06 66.8585,19.84275 L49.0355,37.6655 L39.76375,28.39375 C38.981,27.611 37.712,27.611 36.9295,28.39375 C36.14675,29.1765 36.14675,30.44525 36.9295,31.228 L47.6185,41.917 C48.00975,42.3085 48.52275,42.504 49.0355,42.504 C49.54825,42.504 50.0615,42.3085 50.4525,41.917 L69.6925,22.677 C70.47525,21.894 70.47525,20.62525 69.69275,19.8425 Z" id="Path" fill="#E90000"></path>
                </g>
            </g>
        </g>
    </g>
</svg>