<?xml version="1.0" encoding="UTF-8"?>
<svg width="299px" height="168px" viewBox="0 0 299 168" version="1.1" xmlns="http://www.w3.org/2000/svg" xmlns:xlink="http://www.w3.org/1999/xlink">
    <!-- Generator: Sketch 46.1 (44463) - http://www.bohemiancoding.com/sketch -->
    <title>spec_mobile</title>
    <desc>Created with Sketch.</desc>
    <defs></defs>
    <g id="Page-1" stroke="none" stroke-width="1" fill="none" fill-rule="evenodd">
        <g id="Artboard" transform="translate(-11.000000, -324.000000)">
            <g id="spec_mobile" transform="translate(11.000000, 324.000000)">
                <g id="earbuds_outline" opacity="0.800000012" transform="translate(19.289694, 45.214485)">
                    <g id="right" transform="translate(135.364903, 0.000000)">
                        <path d="M104.816695,91.9159104 L62.2941721,91.9159104 C51.5714706,91.9159104 41.5080729,86.7337881 35.2665773,77.998874 L4.08871632,34.363005 C-6.18071378,19.9892917 4.07583929,0 21.7199435,0 L74.302001,0 C86.9820108,0 98.7052574,6.76114086 105.072948,17.7471885 L126.269824,51.8483137 C129.907585,57.7025509 130.234661,65.035183 127.13001,71.1912914 L122.025556,81.3104269 C118.745777,87.8148482 112.090928,91.9159104 104.816695,91.9159104 Z" id="Stroke-1" stroke="#FFFFFF"></path>
                        <path d="M65.5406585,83.1485466 C62.0295456,83.1485466 58.7913906,81.2400435 57.0892669,78.1645167 L52.1271001,69.2113162 C50.5112414,66.2931119 50.4996535,62.8023566 52.0987743,59.871257 L72.4508685,22.5729177 C74.1465545,19.4651526 77.3962974,17.5347275 80.9318735,17.5347275 L89.6111591,17.579861 C92.9600423,17.599204 96.0115045,19.3116986 97.7754299,22.1602684 L119.603041,57.4147041 C121.360529,60.249089 121.524046,63.8662181 120.031791,66.851478 L114.55461,77.802159 C112.906562,81.0994849 109.595018,83.1485466 105.912663,83.1485466 L65.5406585,83.1485466 Z" id="Stroke-3" stroke="#FFFFFF"></path>
                        <path d="M117.434567,58.7828396 L95.5868158,23.488415 C94.2994557,21.4086273 92.0352998,20.1382913 89.5933104,20.1253814 L80.9567863,20.0801967 C78.3498498,20.0659958 75.9439425,21.4860868 74.6926646,23.7801792 L54.3217047,61.1208258 C53.1554776,63.2599992 53.1632095,65.8484377 54.3436117,67.9798652 L59.3100641,76.9432212 C60.5600534,79.2024568 62.9363218,80.6031829 65.514908,80.6031829 L105.921779,80.6031829 C108.608612,80.6031829 111.064776,79.0849766 112.267086,76.6772769 L117.748997,65.7141746 C118.853369,63.5052876 118.734814,60.8819923 117.434567,58.7828396 Z" id="Stroke-5" stroke="#FFFFFF"></path>
                        <path d="M15.2707582,23.9738981 L26.7390264,41.4964537 C27.8350315,43.1742683 29.7998836,44.0652457 31.7814197,43.7862528 L37.6990769,42.953131 C39.3045831,42.7268511 40.7098823,41.7600184 41.4991599,40.3406259 L49.4073368,26.0939872 C50.2787507,24.5228842 50.2761839,22.6097899 49.3983532,21.0425439 L46.5402698,15.9396733 C45.6252211,14.3042862 43.901644,13.2924547 42.0317619,13.2924547 L21.3321538,13.2924547 C19.5867593,13.2924547 17.9594357,14.1744324 17.0046023,15.6375381 L15.2669081,18.2988992 C14.1413853,20.0229983 14.1426687,22.2510847 15.2707582,23.9738981 Z" id="Stroke-7" stroke="#FFFFFF"></path>
                        <path d="M10.9077412,29.5525573 L22.5342198,45.6606358 C29.3225664,55.0692356 43.5751278,54.3913122 49.4373804,44.3806855 L57.1750379,31.166967 C63.4293972,20.4887079 55.7059278,7.07045464 43.3068443,7.07045464 L22.4555405,7.07045464 C10.8587278,7.07045464 4.13229277,20.165826 10.9077412,29.5525573 Z" id="Stroke-9" stroke="#FFFFFF"></path>
                        <path d="M113.520091,61.694639 L113.520091,61.694639 C113.675419,61.694639 113.825526,61.7308254 113.966496,61.8019057 C114.200141,61.9208038 114.371132,62.1224137 114.450754,62.3679641 C114.529071,62.6160993 114.508186,62.8784505 114.388101,63.1084925 L108.515656,74.3805498 C108.34597,74.7049349 108.011819,74.9065447 107.64373,74.9065447 C107.488402,74.9065447 107.338295,74.869066 107.197325,74.7992779 C106.964986,74.6803798 106.792689,74.47877 106.713067,74.2319272 C106.63475,73.9850844 106.655635,73.7227332 106.77572,73.4926912 L112.648165,62.2193415 C112.817852,61.8949564 113.152003,61.694639 113.520091,61.694639" id="Fill-11" stroke="#FFFFFF"></path>
                        <path d="M73.1580728,67.5907513 L74.2604359,63.4722538 L77.259949,64.7188784 L73.1580728,67.5907513 Z M99.785375,38.1804551 L93.0523016,42.8952203 L91.1848753,46.6788806 L88.9646411,45.7567905 L81.1951138,51.1978949 L87.6348268,53.8740168 L85.0889238,59.0343731 L75.6199739,55.1000361 L74.6326288,55.7916037 L71.0063324,58.331215 L67.610072,60.7085591 L70.0939428,61.7401152 L66.1794555,76.3609101 L71.8786596,72.3711962 L72.5080275,70.0157453 L79.026573,65.4516568 L80.7415036,66.1651176 L82.0092858,65.277799 L88.7436515,60.5630337 L88.7514055,60.5565945 L88.7475285,60.5540189 L91.2934315,55.3923747 L94.3265454,56.6531655 L102.097365,51.2120611 L94.8421877,48.1985264 L99.785375,38.1804551 Z" id="Stroke-13" stroke="#E90000"></path>
                    </g>
                    <g id="left">
                        <path d="M24.4315702,0 L66.9539494,0 C77.6766147,0 87.7399783,5.18212227 93.9814528,13.9170364 L125.159208,57.5529054 C135.428604,71.9266187 125.172085,91.9159104 107.528041,91.9159104 L54.9461611,91.9159104 C42.2661942,91.9159104 30.5429872,85.1547695 24.1753183,74.1687219 L2.97851359,40.0675966 C-0.660522313,34.2133594 -0.986310028,26.8807274 2.118331,20.7246189 L7.22148008,10.6054835 C10.5025358,4.10106216 17.1573615,0 24.4315702,0 Z" id="Stroke-15" stroke="#FFFFFF"></path>
                        <path d="M67.501905,8.48454557 C71.0089988,8.48454557 74.2434472,10.3930486 75.9436225,13.4685755 L84.7582981,31.4484796 C86.3723072,34.3666839 86.3838817,37.8574391 84.7865915,40.7885388 L69.6020459,69.0601745 C67.9083009,72.1679396 64.662278,74.0983647 61.130749,74.0983647 L39.6007686,74.0532311 C36.2557188,74.0338882 33.2077496,72.3213936 31.4458433,69.4728238 L9.64321753,34.2183881 C7.88774156,31.3840031 7.72441156,27.766874 9.21495855,24.7816142 L14.6858705,13.8309332 C16.3320311,10.5336073 19.6397851,8.48454557 23.3179252,8.48454557 L67.501905,8.48454557 Z" id="Stroke-17" stroke="#FFFFFF"></path>
                        <path d="M11.811511,32.8502525 L33.6319215,68.1446771 C34.9163078,70.2244649 37.1774969,71.4948008 39.6162865,71.5077107 L61.1110961,71.5528955 C63.7146166,71.5670964 66.1173713,70.1470054 67.3670097,67.852913 L82.5634359,39.5492089 C83.7281349,37.4100355 83.7204132,34.821597 82.5415576,32.6901695 L73.7207323,14.689871 C72.4723809,12.4306353 70.0992262,11.0299092 67.5240188,11.0299092 L23.3092136,11.0299092 C20.6259015,11.0299092 18.1729553,12.5481156 16.9722215,14.9558153 L11.4974927,25.9189176 C10.3945678,28.1278045 10.5142551,30.7510999 11.811511,32.8502525 Z" id="Stroke-19" stroke="#FFFFFF"></path>
                        <path d="M114.010905,67.5838784 L105.833411,55.5283325 C104.951942,54.229249 103.48369,53.4526371 101.914625,53.4526371 L96.6051343,53.4526371 C94.9417181,53.4526371 93.3997946,54.326003 92.5454682,55.7502216 L86.0830897,66.528615 C85.160262,68.0676483 85.189989,69.9949876 86.1593458,71.5043497 L88.9717729,75.8840798 C89.8429015,77.2373455 91.3434658,78.0578193 92.9564754,78.0578193 L108.059054,78.0578193 C109.656554,78.0578193 111.145486,77.2541162 112.020492,75.9202013 L114.052264,72.8189137 C115.096584,71.2244082 115.079782,69.1603232 114.010905,67.5838784 Z" id="Stroke-21" stroke="#FFFFFF"></path>
                        <path d="M122.815634,67.9338374 L109.244693,48.3780291 C103.708686,40.3991359 91.7251633,40.9338901 86.9229994,49.374266 L78.1027247,64.8769971 C73.1048695,73.6605925 79.4584026,84.5626375 89.5777077,84.5626375 L114.094492,84.5626375 C122.654703,84.5626375 127.691182,74.9601996 122.815634,67.9338374 Z" id="Stroke-23" stroke="#FFFFFF"></path>
                        <path d="M62.502819,40.1595372 C62.502819,50.9384587 53.7653501,59.6746372 42.9890094,59.6746372 C32.2113783,59.6746372 23.4739094,50.9384587 23.4739094,40.1595372 C23.4739094,29.381906 32.2113783,20.6457276 42.9890094,20.6457276 C53.7653501,20.6457276 62.502819,29.381906 62.502819,40.1595372 Z" id="Stroke-25" stroke="#FFFFFF"></path>
                        <path d="M60.8059099,53.2026326 C60.8059099,65.8622826 48.8038015,82.8657284 36.1539031,82.8657284 C23.5027195,82.8657284 13.0185474,76.1435855 12.161254,60.9988263 C12.1304068,48.3507529 22.0156302,29.5966687 37.9006225,30.2796878 C50.5389532,30.8212152 60.8059099,40.5416963 60.8059099,53.2026326" id="Fill-27" fill="#051321"></path>
                        <path d="M60.8059099,53.2026326 C60.8059099,65.8622826 48.8038015,82.8657284 36.1539031,82.8657284 C23.5027195,82.8657284 13.0185474,76.1435855 12.161254,60.9988263 C12.1304068,48.3507529 22.0156302,29.5966687 37.9006225,30.2796878 C50.5389532,30.8212152 60.8059099,40.5416963 60.8059099,53.2026326 Z" id="Stroke-29" stroke="#FFFFFF"></path>
                        <path d="M46.8931807,70.6586204 C46.1725279,78.3623959 39.8179142,83.8866358 31.0915805,83.0681821 C22.3652468,82.2497285 14.8575885,74.2159937 15.2899802,67.6967204 C15.8021585,59.9774781 23.6675694,54.4119933 32.39519,55.229158 C41.1215237,56.0476117 47.6138336,62.9548449 46.8931807,70.6586204" id="Fill-31" fill="#051321"></path>
                        <path d="M46.8931807,70.6586204 C46.1725279,78.3623959 39.8179142,83.8866358 31.0915805,83.0681821 C22.3652468,82.2497285 14.8575885,74.2159937 15.2899802,67.6967204 C15.8021585,59.9774781 23.6675694,54.4119933 32.39519,55.229158 C41.1215237,56.0476117 47.6138336,62.9548449 46.8931807,70.6586204 Z" id="Stroke-33" stroke="#FFFFFF"></path>
                        <path d="M38.4375296,69.8507035 C38.0975035,73.5005596 34.4774537,76.1444987 30.3531828,75.7577074 C26.227619,75.3696182 23.1596268,72.0961697 23.4996529,68.4476115 C23.839679,64.7977554 27.4597288,62.1525183 31.5852926,62.5406076 C35.7095635,62.9286968 38.7775557,66.2008473 38.4375296,69.8507035 Z" id="Stroke-35" stroke="#FFFFFF"></path>
                        <path d="M76.6437283,44.1189897 C76.6437283,45.9935839 75.1248619,47.5134552 73.2499101,47.5134552 C71.3749582,47.5134552 69.8560919,45.9935839 69.8560919,44.1189897 C69.8560919,42.24569 71.3749582,40.7258187 73.2499101,40.7258187 C75.1248619,40.7258187 76.6437283,42.24569 76.6437283,44.1189897 Z" id="Stroke-37" stroke="#FFAF00" stroke-width="2"></path>
                        <path d="M69.2904555,58.2605463 C69.2904555,60.1354981 67.7705842,61.6543645 65.8972846,61.6543645 C64.0226903,61.6543645 62.502819,60.1354981 62.502819,58.2605463 C62.502819,56.3855944 64.0226903,54.866728 65.8972846,54.866728 C67.7705842,54.866728 69.2904555,56.3855944 69.2904555,58.2605463 Z" id="Stroke-39" stroke="#FFAF00" stroke-width="2"></path>
                        <polyline id="Stroke-41" stroke="#FFFFFF" points="76.6437283 29.167771 74.4247117 25.4536367 67.5935464 29.6959095"></polyline>
                    </g>
                </g>
                <g id="Group-37" transform="translate(14.000000, 31.885794)">
                    <circle id="Oval-4" fill="#4A90E2" cx="39.8231198" cy="76.9428969" r="1.41364903"></circle>
                    <polyline id="Path-3" stroke="#4A90E2" points="40.0511103 76.841922 31.5037322 84.9199164 0 84.9199164"></polyline>
                    <circle id="Oval-4" fill="#4A90E2" cx="76.1740947" cy="54.7284123" r="1.41364903"></circle>
                    <polyline id="Path-3" stroke="#4A90E2" points="76.1030967 54.694491 61.9926391 31.1002786 0 31.1002786"></polyline>
                    <circle id="Oval-4" fill="#4A90E2" cx="247.889972" cy="85.0208914" r="1.41364903"></circle>
                    <polyline id="Path-3" stroke="#4A90E2" points="226.535352 121.359647 226.535352 101.075905 247.688022 84.9199164"></polyline>
                    <circle id="Oval-4" fill="#4A90E2" cx="194.575209" cy="24.4359331" r="1.41364903"></circle>
                    <polyline id="Path-3" stroke="#4A90E2" points="255.622141 0.10097493 213.293437 0.10097493 194.777159 24.3349582"></polyline>
                    <path d="M110.5,121.359647 L110.5,108.312304" id="Path-4" stroke="#4A90E2"></path>
                    <rect id="Rectangle-14" fill="#4A90E2" x="108.5" y="107.841226" width="4" height="1"></rect>
                    <path d="M34.5,121.359647 L34.5,98.2148112" id="Path-4" stroke="#4A90E2"></path>
                    <rect id="Rectangle-14" fill="#4A90E2" x="32.5" y="97.7437326" width="4" height="1"></rect>
                    <path d="M5.34649199,7.5 L133.751683,7.5" id="Path-5" stroke="#4A90E2"></path>
                    <rect id="Rectangle-15" fill="#4A90E2" x="5.28969359" y="5.6545961" width="1.21169916" height="3.63509749"></rect>
                    <rect id="Rectangle-15" fill="#4A90E2" x="132.922006" y="5.6545961" width="1.21169916" height="3.63509749"></rect>
                    <rect id="Rectangle-15" fill="#4A90E2" x="90.5125348" y="5.6545961" width="1.21169916" height="3.63509749"></rect>
                    <rect id="Rectangle-15" fill="#4A90E2" x="111.91922" y="5.6545961" width="1.21169916" height="3.63509749"></rect>
                    <path d="M230,59.5 L321.650316,59.5" id="Path-5" stroke="#4A90E2" transform="translate(275.825158, 59.500000) rotate(90.000000) translate(-275.825158, -59.500000) "></path>
                    <rect id="Rectangle-15" fill="#4A90E2" transform="translate(275.961003, 14.136490) rotate(90.000000) translate(-275.961003, -14.136490) " x="275.355153" y="12.3189415" width="1.21169916" height="3.63509749"></rect>
                    <rect id="Rectangle-15" fill="#4A90E2" transform="translate(275.961003, 105.013928) rotate(90.000000) translate(-275.961003, -105.013928) " x="275.355153" y="103.196379" width="1.21169916" height="3.63509749"></rect>
                </g>
                <path d="M287.140219,45.6183844 L237.050139,45.6183844" id="Line-6" stroke="#4A90E2" stroke-width="0.5" opacity="0.5" stroke-linecap="square" stroke-dasharray="1,3"></path>
                <path d="M287.140219,137.303621 L264.111421,137.303621" id="Line-6" stroke="#4A90E2" stroke-width="0.5" opacity="0.5" stroke-linecap="square" stroke-dasharray="1,3"></path>
                <polyline id="Path-6" stroke="#4A90E2" opacity="0.5" points="19.6935933 36.6111051 19.6935933 33.5208914 105.504929 33.5208914 105.504929 36.6111051"></polyline>
                <polyline id="Path-6" stroke="#4A90E2" opacity="0.5" points="19.6935933 31.783807 19.6935933 27.8857939 126.911614 27.8857939 126.911614 36.2072053"></polyline>
                <polyline id="Path-6" stroke="#4A90E2" opacity="0.5" points="19.6935933 26.1487095 19.6935933 22.2506964 147.9144 22.2506964 147.9144 36.2072053"></polyline>
                <path d="M19.75,42.1852368 L19.75,72.3454867" id="Line-5" stroke="#4A90E2" stroke-width="0.5" opacity="0.5" stroke-linecap="square" stroke-dasharray="1,3"></path>
                <path d="M105.421309,42.1852368 L105.421309,50.131002" id="Line-5" stroke="#4A90E2" stroke-width="0.5" opacity="0.5" stroke-linecap="square" stroke-dasharray="1,3"></path>
                <path d="M126.827994,42.1852368 L126.827994,76.3844839" id="Line-5" stroke="#4A90E2" stroke-width="0.5" opacity="0.5" stroke-linecap="square" stroke-dasharray="1,3"></path>
                <path d="M147.83078,42.1852368 L147.83078,107.888662" id="Line-5" stroke="#4A90E2" stroke-width="0.5" opacity="0.5" stroke-linecap="square" stroke-dasharray="1,3"></path>
                <path d="M121.5,22.0487465 L121.5,15.2019499" id="Line-4" stroke="#4A90E2" opacity="0.5"></path>
                <path d="M83.5,27.8857939 L83.5,15.2019499" id="Line-4" stroke="#4A90E2" opacity="0.5"></path>
                <path d="M45.5,33.5208914 L45.5,15.2019499" id="Line-4" stroke="#4A90E2" opacity="0.5"></path>
                <g id="Group" transform="translate(116.000000, 150.000000)">
                    <circle id="Oval-3" fill="#4A90E2" cx="9" cy="9" r="9"></circle>
                    <path d="M9.64,8.385 C9.90333465,8.385 10.1633321,8.4283329 10.42,8.515 C10.676668,8.6016671 10.9066657,8.7349991 11.11,8.915 C11.3133344,9.0950009 11.4774994,9.32249863 11.6025,9.5975 C11.7275006,9.87250137 11.79,10.1966648 11.79,10.57 C11.79,10.9100017 11.7266673,11.2324985 11.6,11.5375 C11.4733327,11.8425015 11.2941678,12.1091655 11.0625,12.3375 C10.8308322,12.5658345 10.5516683,12.746666 10.225,12.88 C9.8983317,13.013334 9.53666865,13.08 9.14,13.08 C8.7333313,13.08 8.36833495,13.015834 8.045,12.8875 C7.72166505,12.759166 7.44750113,12.5800012 7.2225,12.35 C6.99749888,12.1199988 6.82583393,11.8450016 6.7075,11.525 C6.58916608,11.2049984 6.53,10.8533353 6.53,10.47 C6.53,10.1066648 6.5999993,9.7450018 6.74,9.385 C6.8800007,9.0249982 7.0866653,8.6583352 7.36,8.285 L9,6.07 C9.0733337,5.9699995 9.1833326,5.88583368 9.33,5.8175 C9.4766674,5.74916633 9.6433324,5.715 9.83,5.715 L11.21,5.715 L9.05,8.295 C9.0166665,8.33166685 8.98416683,8.36916648 8.9525,8.4075 C8.92083318,8.44583352 8.89000015,8.48333315 8.86,8.52 C8.97666725,8.47666645 9.09916603,8.44333345 9.2275,8.42 C9.35583398,8.39666655 9.4933326,8.385 9.64,8.385 Z M8.02,10.68 C8.02,10.8600009 8.04166645,11.0216659 8.085,11.165 C8.12833355,11.308334 8.19499955,11.4316661 8.285,11.535 C8.37500045,11.6383338 8.48833265,11.7174997 8.625,11.7725 C8.76166735,11.8275003 8.9233324,11.855 9.11,11.855 C9.2700008,11.855 9.41916598,11.8250003 9.5575,11.765 C9.69583403,11.7049997 9.8149995,11.6225005 9.915,11.5175 C10.0150005,11.4124995 10.0941664,11.2891674 10.1525,11.1475 C10.2108336,11.0058326 10.24,10.8516675 10.24,10.685 C10.24,10.4983324 10.2125003,10.3316674 10.1575,10.185 C10.1024997,10.0383326 10.0250005,9.9150005 9.925,9.815 C9.8249995,9.7149995 9.70416738,9.6383336 9.5625,9.585 C9.42083263,9.5316664 9.2633342,9.505 9.09,9.505 C8.93333255,9.505 8.79000065,9.53249973 8.66,9.5875 C8.52999935,9.64250027 8.41750048,9.72166615 8.3225,9.825 C8.22749953,9.92833385 8.1533336,10.051666 8.1,10.195 C8.0466664,10.3383341 8.02,10.4999991 8.02,10.68 Z" id="6" fill="#000F1C"></path>
                </g>
                <g id="Group" transform="translate(40.000000, 150.000000)">
                    <circle id="Oval-3" fill="#4A90E2" cx="9" cy="9" r="9"></circle>
                    <path d="M11.19,6.355 C11.19,6.4616672 11.1733335,6.5583329 11.14,6.645 C11.1066665,6.7316671 11.054167,6.80749967 10.9825,6.8725 C10.910833,6.93750032 10.8166673,6.98749982 10.7,7.0225 C10.5833328,7.05750017 10.4433342,7.075 10.28,7.075 L8.54,7.075 L8.335,8.28 C8.47166735,8.25666655 8.6033327,8.23916673 8.73,8.2275 C8.8566673,8.21583327 8.9799994,8.21 9.1,8.21 C9.48333525,8.21 9.8216652,8.26833275 10.115,8.385 C10.4083348,8.50166725 10.654999,8.66083232 10.855,8.8625 C11.055001,9.06416768 11.2058328,9.30083197 11.3075,9.5725 C11.4091672,9.84416803 11.46,10.1349985 11.46,10.445 C11.46,10.835002 11.390834,11.1908317 11.2525,11.5125 C11.114166,11.8341683 10.9216679,12.1116655 10.675,12.345 C10.4283321,12.5783345 10.1341684,12.759166 9.7925,12.8875 C9.45083163,13.015834 9.0766687,13.08 8.67,13.08 C8.43333215,13.08 8.20750108,13.0550002 7.9925,13.005 C7.77749893,12.9549997 7.57583428,12.8875004 7.3875,12.8025 C7.19916573,12.7174996 7.0250008,12.6191672 6.865,12.5075 C6.7049992,12.3958328 6.56000065,12.2766673 6.43,12.15 L6.91,11.51 C6.96000025,11.443333 7.018333,11.3925002 7.085,11.3575 C7.151667,11.3224998 7.22333295,11.305 7.3,11.305 C7.4000005,11.305 7.49416623,11.3324997 7.5825,11.3875 C7.67083378,11.4425003 7.76749948,11.5024997 7.8725,11.5675 C7.97750053,11.6325003 8.0999993,11.6916664 8.24,11.745 C8.3800007,11.7983336 8.5533323,11.825 8.76,11.825 C8.9666677,11.825 9.1433326,11.7908337 9.29,11.7225 C9.4366674,11.6541663 9.55583288,11.5608339 9.6475,11.4425 C9.73916713,11.3241661 9.80583313,11.1858341 9.8475,11.0275 C9.88916688,10.8691659 9.91,10.7000009 9.91,10.52 C9.91,10.1666649 9.810001,9.89750092 9.61,9.7125 C9.409999,9.52749908 9.1266685,9.435 8.76,9.435 C8.4333317,9.435 8.1133349,9.49666605 7.8,9.62 L6.84,9.36 L7.46,5.715 L11.19,5.715 L11.19,6.355 Z" id="5" fill="#000F1C"></path>
                </g>
                <g id="Group" transform="translate(0.000000, 108.000000)">
                    <circle id="Oval-3" fill="#4A90E2" cx="9" cy="9" r="9"></circle>
                    <path d="M4.66,11.88 L6.06,11.88 L6.06,8.205 C6.06,8.0249991 6.06499995,7.83666765 6.075,7.64 L5.25,8.325 C5.1966664,8.36833355 5.1433336,8.39916657 5.09,8.4175 C5.0366664,8.43583343 4.98500025,8.445 4.935,8.445 C4.8483329,8.445 4.77083368,8.42583352 4.7025,8.3875 C4.63416633,8.34916648 4.5833335,8.30833355 4.55,8.265 L4.06,7.615 L6.33,5.71 L7.61,5.71 L7.61,11.88 L8.81,11.88 L8.81,13 L4.66,13 L4.66,11.88 Z M14.6,9.355 C14.6,9.99166985 14.5316673,10.543331 14.395,11.01 C14.2583326,11.476669 14.0691679,11.8633318 13.8275,12.17 C13.5858321,12.4766682 13.2991683,12.7049993 12.9675,12.855 C12.6358317,13.0050008 12.2766686,13.08 11.89,13.08 C11.5033314,13.08 11.145835,13.0050008 10.8175,12.855 C10.489165,12.7049993 10.2050012,12.4766682 9.965,12.17 C9.7249988,11.8633318 9.53750068,11.476669 9.4025,11.01 C9.26749932,10.543331 9.2,9.99166985 9.2,9.355 C9.2,8.71833015 9.26749932,8.166669 9.4025,7.7 C9.53750068,7.233331 9.7249988,6.8466682 9.965,6.54 C10.2050012,6.2333318 10.489165,6.00583407 10.8175,5.8575 C11.145835,5.70916593 11.5033314,5.635 11.89,5.635 C12.2766686,5.635 12.6358317,5.70916593 12.9675,5.8575 C13.2991683,6.00583407 13.5858321,6.2333318 13.8275,6.54 C14.0691679,6.8466682 14.2583326,7.233331 14.395,7.7 C14.5316673,8.166669 14.6,8.71833015 14.6,9.355 Z M13,9.355 C13,8.85166415 12.9683336,8.43916828 12.905,8.1175 C12.8416664,7.79583172 12.7575005,7.54333425 12.6525,7.36 C12.5474995,7.17666575 12.428334,7.05083367 12.295,6.9825 C12.161666,6.91416633 12.0266674,6.88 11.89,6.88 C11.7533327,6.88 11.6191673,6.91416633 11.4875,6.9825 C11.3558327,7.05083367 11.2391672,7.17666575 11.1375,7.36 C11.0358328,7.54333425 10.954167,7.79583172 10.8925,8.1175 C10.830833,8.43916828 10.8,8.85166415 10.8,9.355 C10.8,9.8616692 10.830833,10.2749984 10.8925,10.595 C10.954167,10.9150016 11.0358328,11.1674991 11.1375,11.3525 C11.2391672,11.5375009 11.3558327,11.6641663 11.4875,11.7325 C11.6191673,11.8008337 11.7533327,11.835 11.89,11.835 C12.0266674,11.835 12.161666,11.8008337 12.295,11.7325 C12.428334,11.6641663 12.5474995,11.5375009 12.6525,11.3525 C12.7575005,11.1674991 12.8416664,10.9150016 12.905,10.595 C12.9683336,10.2749984 13,9.8616692 13,9.355 Z" id="10" fill="#000F1C"></path>
                </g>
                <g id="Group" transform="translate(0.000000, 54.000000)">
                    <circle id="Oval-3" fill="#4A90E2" cx="9" cy="9" r="9"></circle>
                    <path d="M8.76,10.16 C8.52333215,10.16 8.28666785,10.1175004 8.05,10.0325 C7.81333215,9.94749957 7.59916763,9.8183342 7.4075,9.645 C7.21583238,9.4716658 7.0600006,9.25333465 6.94,8.99 C6.8199994,8.72666535 6.76,8.4150018 6.76,8.055 C6.76,7.72499835 6.82083273,7.4133348 6.9425,7.12 C7.06416728,6.8266652 7.23749888,6.5700011 7.4625,6.35 C7.68750113,6.1299989 7.9566651,5.95583398 8.27,5.8275 C8.5833349,5.69916603 8.9333314,5.635 9.32,5.635 C9.7133353,5.635 10.0649985,5.6949994 10.375,5.815 C10.6850016,5.9350006 10.9474989,6.10333225 11.1625,6.32 C11.3775011,6.53666775 11.5424994,6.79416517 11.6575,7.0925 C11.7725006,7.39083483 11.83,7.7199982 11.83,8.08 C11.83,8.3200012 11.8108335,8.54499895 11.7725,8.755 C11.7341665,8.96500105 11.6808337,9.16583238 11.6125,9.3575 C11.5441663,9.54916762 11.4616672,9.73249913 11.365,9.9075 C11.2683329,10.0825009 11.1600006,10.2549991 11.04,10.425 L9.47,12.655 C9.403333,12.7516671 9.29833405,12.833333 9.155,12.9 C9.01166595,12.966667 8.8500009,13 8.67,13 L7.24,13 L9.55,10.24 C9.5966669,10.183333 9.64083313,10.1291669 9.6825,10.0775 C9.72416688,10.0258331 9.7649998,9.9733336 9.805,9.92 C9.65499925,10.0000004 9.49166755,10.0599998 9.315,10.1 C9.13833245,10.1400002 8.9533343,10.16 8.76,10.16 Z M10.35,7.94 C10.35,7.76333245 10.3241669,7.60750067 10.2725,7.4725 C10.2208331,7.33749932 10.1491671,7.22500045 10.0575,7.135 C9.96583288,7.04499955 9.85500065,6.9766669 9.725,6.93 C9.59499935,6.8833331 9.4533341,6.86 9.3,6.86 C9.14333255,6.86 9.00416728,6.88749972 8.8825,6.9425 C8.76083273,6.99750028 8.65750043,7.07333285 8.5725,7.17 C8.48749958,7.26666715 8.42250023,7.38083267 8.3775,7.5125 C8.33249978,7.64416732 8.31,7.7866659 8.31,7.94 C8.31,8.6666703 8.6466633,9.03 9.32,9.03 C9.65000165,9.03 9.90416578,8.93083432 10.0825,8.7325 C10.2608342,8.53416568 10.35,8.27000165 10.35,7.94 Z" id="9" fill="#000F1C"></path>
                </g>
                <g id="Group" transform="translate(36.000000, 0.000000)">
                    <circle id="Oval-3" fill="#4A90E2" cx="9" cy="9" r="9"></circle>
                    <path d="M7.46,11.88 L8.86,11.88 L8.86,8.205 C8.86,8.0249991 8.86499995,7.83666765 8.875,7.64 L8.05,8.325 C7.9966664,8.36833355 7.9433336,8.39916657 7.89,8.4175 C7.8366664,8.43583343 7.78500025,8.445 7.735,8.445 C7.6483329,8.445 7.57083368,8.42583352 7.5025,8.3875 C7.43416633,8.34916648 7.3833335,8.30833355 7.35,8.265 L6.86,7.615 L9.13,5.71 L10.41,5.71 L10.41,11.88 L11.61,11.88 L11.61,13 L7.46,13 L7.46,11.88 Z" id="1" fill="#000F1C"></path>
                </g>
                <g id="Group" transform="translate(74.000000, 0.000000)">
                    <circle id="Oval-3" fill="#4A90E2" cx="9" cy="9" r="9"></circle>
                    <path d="M9.21,5.635 C9.5700018,5.635 9.89416523,5.68749947 10.1825,5.7925 C10.4708348,5.89750052 10.7166657,6.0433324 10.92,6.23 C11.1233344,6.4166676 11.2791661,6.63916537 11.3875,6.8975 C11.4958339,7.15583463 11.55,7.43999845 11.55,7.75 C11.55,8.016668 11.5125004,8.2633322 11.4375,8.49 C11.3624996,8.7166678 11.2600007,8.93249897 11.13,9.1375 C10.9999994,9.34250103 10.8491675,9.54083238 10.6775,9.7325 C10.5058325,9.92416762 10.3233343,10.1183323 10.13,10.315 L8.705,11.775 C8.88833425,11.7216664 9.06916578,11.6791668 9.2475,11.6475 C9.42583423,11.6158332 9.59333255,11.6 9.75,11.6 L11.11,11.6 C11.2766675,11.6 11.4083329,11.6458329 11.505,11.7375 C11.6016672,11.8291671 11.65,11.9499992 11.65,12.1 L11.65,13 L6.53,13 L6.53,12.5 C6.53,12.4033328 6.5499998,12.3000006 6.59,12.19 C6.6300002,12.0799994 6.6999995,11.9800004 6.8,11.89 L8.9,9.775 C9.0800009,9.5949991 9.236666,9.42333415 9.37,9.26 C9.503334,9.09666585 9.6133329,8.93583412 9.7,8.7775 C9.7866671,8.61916588 9.85166645,8.46083412 9.895,8.3025 C9.93833355,8.14416587 9.96,7.97666755 9.96,7.8 C9.96,7.50999855 9.89083403,7.28750077 9.7525,7.1325 C9.61416598,6.97749922 9.40333475,6.9 9.12,6.9 C9.00333275,6.9 8.89666715,6.9166665 8.8,6.95 C8.70333285,6.9833335 8.61666705,7.02833305 8.54,7.085 C8.46333295,7.14166695 8.39750028,7.20833295 8.3425,7.285 C8.28749973,7.36166705 8.2433335,7.44499955 8.21,7.535 C8.1566664,7.68500075 8.08916708,7.793333 8.0075,7.86 C7.92583293,7.926667 7.8150007,7.96 7.675,7.96 C7.6416665,7.96 7.60583353,7.95833335 7.5675,7.955 C7.52916648,7.95166665 7.4900002,7.9466667 7.45,7.94 L6.63,7.795 C6.6833336,7.43166485 6.78583258,7.11500135 6.9375,6.845 C7.08916743,6.57499865 7.27749888,6.3500009 7.5025,6.17 C7.72750113,5.9899991 7.98499855,5.85583377 8.275,5.7675 C8.56500145,5.67916622 8.876665,5.635 9.21,5.635 Z" id="2" fill="#000F1C"></path>
                </g>
                <g id="Group" transform="translate(112.000000, 0.000000)">
                    <circle id="Oval-3" fill="#4A90E2" cx="9" cy="9" r="9"></circle>
                    <path d="M9.35,5.635 C9.7100018,5.635 10.0299986,5.68583283 10.31,5.7875 C10.5900014,5.88916717 10.8266657,6.0266658 11.02,6.2 C11.2133343,6.3733342 11.3599995,6.57416553 11.46,6.8025 C11.5600005,7.03083448 11.61,7.2716654 11.61,7.525 C11.61,7.75500115 11.5866669,7.95749913 11.54,8.1325 C11.4933331,8.30750088 11.4241671,8.45916603 11.3325,8.5875 C11.2408329,8.71583398 11.1275007,8.82499955 10.9925,8.915 C10.8574993,9.00500045 10.7033342,9.0799997 10.53,9.14 C11.3366707,9.4200014 11.74,9.96832925 11.74,10.785 C11.74,11.1716686 11.6700007,11.5083319 11.53,11.795 C11.3899993,12.0816681 11.2025012,12.319999 10.9675,12.51 C10.7324988,12.7000009 10.4600016,12.8424995 10.15,12.9375 C9.83999845,13.0325005 9.51666835,13.08 9.18,13.08 C8.8333316,13.08 8.52500135,13.0425004 8.255,12.9675 C7.98499865,12.8924996 7.74500105,12.7758341 7.535,12.6175 C7.32499895,12.4591659 7.14083413,12.2566679 6.9825,12.01 C6.82416588,11.7633321 6.68666725,11.4700017 6.57,11.13 L7.26,10.85 C7.3200003,10.8233332 7.37916638,10.8050001 7.4375,10.795 C7.49583363,10.7849999 7.55333305,10.78 7.61,10.78 C7.7166672,10.78 7.81249958,10.8008331 7.8975,10.8425 C7.98250043,10.8841669 8.04666645,10.9449996 8.09,11.025 C8.24000075,11.301668 8.39916583,11.5024994 8.5675,11.6275 C8.73583418,11.7525006 8.9333322,11.815 9.16,11.815 C9.3333342,11.815 9.48416603,11.7858336 9.6125,11.7275 C9.74083398,11.6691664 9.84749958,11.5941671 9.9325,11.5025 C10.0175004,11.4108329 10.0816665,11.3066673 10.125,11.19 C10.1683336,11.0733327 10.19,10.9550006 10.19,10.835 C10.19,10.6783326 10.1791668,10.5375006 10.1575,10.4125 C10.1358332,10.2874994 10.0750005,10.1800004 9.975,10.09 C9.8749995,9.99999955 9.72416768,9.93083358 9.5225,9.8825 C9.32083233,9.83416642 9.0400018,9.81 8.68,9.81 L8.68,8.74 C8.98333485,8.74 9.2283324,8.7166669 9.415,8.67 C9.6016676,8.6233331 9.74583283,8.55916707 9.8475,8.4775 C9.94916718,8.39583293 10.0166665,8.29666725 10.05,8.18 C10.0833335,8.06333275 10.1,7.9350007 10.1,7.795 C10.1,7.5083319 10.030834,7.28750077 9.8925,7.1325 C9.75416598,6.97749922 9.54333475,6.9 9.26,6.9 C9.14333275,6.9 9.03666715,6.9166665 8.94,6.95 C8.84333285,6.9833335 8.75666705,7.02833305 8.68,7.085 C8.60333295,7.14166695 8.53750028,7.20833295 8.4825,7.285 C8.42749973,7.36166705 8.3833335,7.44499955 8.35,7.535 C8.2966664,7.68500075 8.22916708,7.793333 8.1475,7.86 C8.06583293,7.926667 7.9550007,7.96 7.815,7.96 C7.7816665,7.96 7.74583353,7.95833335 7.7075,7.955 C7.66916648,7.95166665 7.6300002,7.9466667 7.59,7.94 L6.77,7.795 C6.8233336,7.43166485 6.92583258,7.11500135 7.0775,6.845 C7.22916743,6.57499865 7.41749888,6.3500009 7.6425,6.17 C7.86750113,5.9899991 8.12499855,5.85583377 8.415,5.7675 C8.70500145,5.67916622 9.016665,5.635 9.35,5.635 Z" id="3" fill="#000F1C"></path>
                </g>
                <g id="Group" transform="translate(267.000000, 23.000000)">
                    <circle id="Oval-3" fill="#4A90E2" cx="9" cy="9" r="9"></circle>
                    <path d="M9.1,13.08 C8.7133314,13.08 8.3600016,13.0283338 8.04,12.925 C7.7199984,12.8216662 7.44583448,12.6758343 7.2175,12.4875 C6.98916553,12.2991657 6.81250063,12.071668 6.6875,11.805 C6.56249938,11.538332 6.5,11.2416683 6.5,10.915 C6.5,10.7183324 6.52249978,10.5325009 6.5675,10.3575 C6.61250023,10.1824991 6.68416618,10.0225007 6.7825,9.8775 C6.88083383,9.73249928 7.00749923,9.6033339 7.1625,9.49 C7.31750078,9.3766661 7.5049989,9.28166705 7.725,9.205 C7.391665,9.05499925 7.14416748,8.846668 6.9825,8.58 C6.82083253,8.313332 6.74,7.9933352 6.74,7.62 C6.74,7.33666525 6.79833275,7.07416788 6.915,6.8325 C7.03166725,6.59083212 7.19499895,6.38166755 7.405,6.205 C7.61500105,6.02833245 7.86416523,5.88916717 8.1525,5.7875 C8.44083478,5.68583283 8.75666495,5.635 9.1,5.635 C9.44333505,5.635 9.75916523,5.68583283 10.0475,5.7875 C10.3358348,5.88916717 10.584999,6.02833245 10.795,6.205 C11.0050011,6.38166755 11.1683328,6.59083212 11.285,6.8325 C11.4016673,7.07416788 11.46,7.33666525 11.46,7.62 C11.46,7.9933352 11.3783342,8.313332 11.215,8.58 C11.0516659,8.846668 10.8050017,9.05499925 10.475,9.205 C10.6916678,9.28166705 10.8774992,9.3766661 11.0325,9.49 C11.1875008,9.6033339 11.3141662,9.73249928 11.4125,9.8775 C11.5108338,10.0225007 11.5833331,10.1824991 11.63,10.3575 C11.6766669,10.5325009 11.7,10.7183324 11.7,10.915 C11.7,11.2416683 11.6375006,11.538332 11.5125,11.805 C11.3874994,12.071668 11.2108345,12.2991657 10.9825,12.4875 C10.7541655,12.6758343 10.4800016,12.8216662 10.16,12.925 C9.8399984,13.0283338 9.4866686,13.08 9.1,13.08 Z M9.1,11.91 C9.2733342,11.91 9.4233327,11.8833336 9.55,11.83 C9.6766673,11.7766664 9.78083293,11.7041671 9.8625,11.6125 C9.94416708,11.5208329 10.0041665,11.4125006 10.0425,11.2875 C10.0808335,11.1624994 10.1,11.028334 10.1,10.885 C10.1,10.7283326 10.0833335,10.5850007 10.05,10.455 C10.0166665,10.3249993 9.96166705,10.2141671 9.885,10.1225 C9.80833295,10.0308329 9.70583398,9.95916692 9.5775,9.9075 C9.44916603,9.85583307 9.29000095,9.83 9.1,9.83 C8.90999905,9.83 8.75083398,9.85583307 8.6225,9.9075 C8.49416603,9.95916692 8.39166705,10.0308329 8.315,10.1225 C8.23833295,10.2141671 8.1833335,10.3249993 8.15,10.455 C8.1166665,10.5850007 8.1,10.7283326 8.1,10.885 C8.1,11.028334 8.11916648,11.1624994 8.1575,11.2875 C8.19583353,11.4125006 8.25583293,11.5208329 8.3375,11.6125 C8.41916708,11.7041671 8.52249938,11.7766664 8.6475,11.83 C8.77250063,11.8833336 8.92333245,11.91 9.1,11.91 Z M9.1,8.65 C9.2733342,8.65 9.41499945,8.62166695 9.525,8.565 C9.63500055,8.50833305 9.72166635,8.4333338 9.785,8.34 C9.84833365,8.2466662 9.89166655,8.1400006 9.915,8.02 C9.93833345,7.8999994 9.95,7.7766673 9.95,7.65 C9.95,7.5366661 9.93500015,7.4266672 9.905,7.32 C9.87499985,7.2133328 9.82583368,7.11916708 9.7575,7.0375 C9.68916633,6.95583292 9.60083388,6.89000025 9.4925,6.84 C9.38416613,6.78999975 9.2533341,6.765 9.1,6.765 C8.94333255,6.765 8.8116672,6.78999975 8.705,6.84 C8.5983328,6.89000025 8.51083368,6.95583292 8.4425,7.0375 C8.37416633,7.11916708 8.32500015,7.2133328 8.295,7.32 C8.26499985,7.4266672 8.25,7.5366661 8.25,7.65 C8.25,7.7766673 8.26166655,7.8999994 8.285,8.02 C8.30833345,8.1400006 8.35166635,8.2466662 8.415,8.34 C8.47833365,8.4333338 8.56499945,8.50833305 8.675,8.565 C8.78500055,8.62166695 8.9266658,8.65 9.1,8.65 Z" id="8" fill="#000F1C"></path>
                </g>
                <g id="Group" transform="translate(281.000000, 82.000000)">
                    <circle id="Oval-3" fill="#4A90E2" cx="9" cy="9" r="9"></circle>
                    <path d="M11.08,10.17 L11.83,10.17 L11.83,11.04 C11.83,11.1166671 11.8041669,11.183333 11.7525,11.24 C11.7008331,11.296667 11.6266672,11.325 11.53,11.325 L11.08,11.325 L11.08,13 L9.73,13 L9.73,11.325 L6.8,11.325 C6.70333285,11.325 6.61583373,11.2950003 6.5375,11.235 C6.45916628,11.1749997 6.4100001,11.1000004 6.39,11.01 L6.23,10.245 L9.6,5.715 L11.08,5.715 L11.08,10.17 Z M9.73,8.27 C9.73,8.15333275 9.73416663,8.02750067 9.7425,7.8925 C9.75083338,7.75749932 9.76333325,7.61833405 9.78,7.475 L7.855,10.17 L9.73,10.17 L9.73,8.27 Z" id="4" fill="#000F1C"></path>
                </g>
                <g id="Group" transform="translate(232.000000, 150.000000)">
                    <circle id="Oval-3" fill="#4A90E2" cx="9" cy="9" r="9"></circle>
                    <path d="M11.73,5.715 L11.73,6.365 C11.73,6.54833425 11.7100002,6.6966661 11.67,6.81 C11.6299998,6.9233339 11.5916669,7.0199996 11.555,7.1 L9.01,12.49 C8.943333,12.6333341 8.84500065,12.7541662 8.715,12.8525 C8.58499935,12.9508338 8.4133344,13 8.2,13 L7.07,13 L9.67,7.785 C9.74000035,7.64166595 9.81583293,7.5133339 9.8975,7.4 C9.97916708,7.2866661 10.0683329,7.17833385 10.165,7.075 L6.96,7.075 C6.9133331,7.075 6.86916688,7.06583343 6.8275,7.0475 C6.78583313,7.02916657 6.74916683,7.00416682 6.7175,6.9725 C6.68583318,6.94083318 6.6600001,6.90416688 6.64,6.8625 C6.6199999,6.82083313 6.61,6.77833355 6.61,6.735 L6.61,5.715 L11.73,5.715 Z" id="7" fill="#000F1C"></path>
                </g>
            </g>
        </g>
    </g>
</svg>