<?xml version="1.0" encoding="UTF-8"?>
<svg width="37px" height="38px" viewBox="0 0 37 38" version="1.1" xmlns="http://www.w3.org/2000/svg" xmlns:xlink="http://www.w3.org/1999/xlink">
    <!-- Generator: Sketch 48.2 (47327) - http://www.bohemiancoding.com/sketch -->
    <title>arown</title>
    <desc>Created with Sketch.</desc>
    <defs></defs>
    <g id="03.-Lợi-ích-đầu-tư-op2" stroke="none" stroke-width="1" fill="none" fill-rule="evenodd" transform="translate(-1750.000000, -1279.000000)">
        <g id="arown" transform="translate(1767.500000, 1298.000000) rotate(-90.000000) translate(-1767.500000, -1298.000000) translate(1748.000000, 1279.000000)">
            <rect id="Rectangle-3-Copy" fill="#A86428" transform="translate(19.931097, 21.863961) rotate(-315.000000) translate(-19.931097, -21.863961) " x="18.4310973" y="20.363961" width="3" height="3"></rect>
            <rect id="Rectangle-3-Copy-3" fill="#A86428" transform="translate(19.929075, 9.905359) rotate(-315.000000) translate(-19.929075, -9.905359) " x="18.4290752" y="8.40535859" width="3" height="3"></rect>
            <rect id="Rectangle-3-Copy-2" fill="#A86428" transform="translate(19.935142, 15.859917) rotate(-315.000000) translate(-19.935142, -15.859917) " x="18.4351415" y="14.3599168" width="3" height="3"></rect>
            <rect id="Rectangle-3-Copy-4" fill="#A86428" transform="translate(19.683119, 3.651314) rotate(-315.000000) translate(-19.683119, -3.651314) " x="18.4331194" y="2.40131435" width="2.5" height="2.5"></rect>
            <polyline id="Path-3" stroke="#A86428" transform="translate(19.642136, 19.071068) rotate(-315.000000) translate(-19.642136, -19.071068) " points="32.8743687 5.83883476 32.8743687 32.3033009 6.40990258 32.3033009"></polyline>
            <polyline id="Path-3-Copy" stroke="#A86428" stroke-width="2" transform="translate(19.642136, 24.263129) rotate(-315.000000) translate(-19.642136, -24.263129) " points="23.616778 20.2884864 23.616778 28.2377713 15.6674932 28.2377713"></polyline>
        </g>
    </g>
</svg>
