<?xml version="1.0" encoding="UTF-8"?>
<svg width="306px" height="209px" viewBox="0 0 306 209" version="1.1" xmlns="http://www.w3.org/2000/svg" xmlns:xlink="http://www.w3.org/1999/xlink">
    <!-- Generator: Sketch 48.2 (47327) - http://www.bohemiancoding.com/sketch -->
    <title>Combined Shape</title>
    <desc>Created with Sketch.</desc>
    <defs></defs>
    <g id="Slider" stroke="none" stroke-width="1" fill="none" fill-rule="evenodd" transform="translate(-10674.000000, -530.000000)">
        <path d="M10828.8677,563.481219 C10828.8295,560.858912 10827.3489,559.970669 10826.4602,559.549922 C10837.2948,559.679782 10847.3492,562.979094 10855.844,568.456591 C10859.7391,570.963756 10862.9442,576.445581 10860.1123,582.795738 C10866.3385,580.365624 10871.6855,583.755837 10873.8214,587.565931 C10878.2892,595.509903 10880.8503,604.679755 10880.8503,614.431379 C10880.8503,644.740717 10856.1773,669.306777 10825.785,669.306777 C10798.4015,669.306777 10775.7542,649.326508 10771.5285,623.203859 C10771.2438,621.401402 10771.0876,619.581629 10771.0936,617.717705 C10771.1605,607.178262 10776.386,597.642206 10784.6595,591.785517 C10793.1066,585.804163 10802.6056,584.899471 10810.6612,586.769456 C10813.9965,587.545153 10820.6801,590.698155 10822.6033,588.429933 C10822.1286,590.33195 10820.8207,591.90066 10819.0927,592.743019 C10819.0927,592.743019 10819.0814,592.743019 10819.0762,592.743884 C10818.0174,593.263324 10816.8032,593.758524 10816.1654,594.072786 C10808.4516,597.690687 10803.102,605.514322 10803.102,614.581151 C10803.102,627.074555 10813.2484,637.210565 10825.785,637.210565 C10838.3068,637.210565 10848.4636,627.074555 10848.4636,614.581151 C10848.4636,605.508262 10843.1226,597.690687 10835.3941,594.072786 C10834.7589,593.758524 10833.5586,593.263324 10832.4841,592.743884 L10832.4746,592.743019 C10830.2632,591.663449 10828.7522,589.404749 10828.7522,586.791099 C10828.7522,584.138491 10830.3005,581.854686 10832.5666,580.793296 C10828.4815,578.238516 10828.0675,574.463051 10827.9729,573.048442 C10827.8245,570.96895 10828.931,567.262744 10828.8677,563.481219 Z M10790.6195,539.836867 C10787.5369,536.877669 10786.5976,532.497744 10788.3445,530 C10789.1872,530.099563 10790.5492,530.494354 10791.1098,531.914215 C10791.6625,533.335808 10792.0492,536.962514 10798.2126,539.369352 C10797.1159,537.247352 10798.188,534.161752 10800.434,534.663032 C10800.7319,536.366865 10801.5886,540.529483 10807.4146,539.38407 C10813.266,538.241255 10816.6719,539.44554 10817.2062,542.694771 C10817.7229,545.956123 10814.9839,547.944794 10813.1491,547.714499 C10811.3266,547.485936 10809.8319,545.827123 10811.5173,543.486084 C10809.5007,544.890361 10808.6641,548.022713 10812.0419,549.598413 C10814.6192,550.800966 10816.932,548.749093 10818.2,547.768177 C10819.8028,546.54398 10823.33,545.060917 10823.9205,548.11535 C10824.4126,550.606168 10822.3054,551.410467 10821.3634,550.711792 C10822.1112,551.438172 10823.4258,551.426917 10824.33,549.665077 C10825.4354,550.776724 10826.3036,551.438172 10828.1858,550.364618 C10826.6771,550.831268 10824.9258,550.010519 10824.6314,548.150847 C10824.3528,546.282517 10825.1674,543.860962 10827.9293,543.369205 C10830.3879,542.951904 10832.8651,546.092048 10832.1919,549.541272 C10831.518,553.150663 10829.7245,555.299502 10825.1964,555.620702 C10820.6692,555.95056 10815.9092,554.599094 10814.4505,561.483689 C10812.9356,568.697277 10818.1341,568.380405 10818.5638,568.131064 C10816.7246,569.978615 10810.1105,572.836518 10809.4541,566.422036 C10805.9963,567.093873 10804.2476,567.259234 10802.0253,564.579679 C10799.68,561.758138 10802.0956,556.539283 10803.9577,556.981691 C10804.4041,554.388713 10805.9682,551.797466 10808.868,552.220827 C10811.6685,552.627738 10812.3846,555.122885 10812.0384,556.762651 C10811.6983,558.417136 10810.4075,559.310609 10808.8188,559.462985 C10809.8715,559.904527 10811.244,560.156466 10812.4892,558.366921 C10814.6957,555.17916 10811.8548,549.224401 10806.8838,551.484923 C10805.0438,551.504836 10803.0069,552.027761 10802.1211,555.878701 C10798.8918,556.270894 10796.3259,561.98497 10798.2697,566.078326 C10800.2248,570.161292 10805.9875,569.672133 10808.5929,569.037524 C10809.2168,570.943947 10811.8187,573.212262 10815.7194,572.117064 C10819.6315,571.026195 10820.7422,567.942326 10821.0893,565.79089 C10821.7879,566.383942 10822.2738,567.952715 10821.9328,569.439241 C10828.8739,579.634536 10811.6983,579.275242 10808.7212,580.65701 C10808.4453,578.67613 10809.8231,578.366185 10811.353,577.749757 C10812.8864,577.144585 10813.1887,575.8442 10812.6685,574.861552 C10812.0876,573.762025 10809.5868,576.385305 10807.7678,576.884854 C10805.9357,577.380074 10801.8373,578.357527 10797.1159,578.010354 C10792.5457,577.681362 10788.8541,575.349846 10788.3726,570.317996 C10787.9517,565.978762 10790.6195,566.309486 10790.8568,565.113859 C10791.1098,563.918232 10789.9385,564.256748 10789.2065,564.467995 C10788.4438,564.679243 10785.1081,565.287878 10784.5581,561.726105 C10784.3234,560.146076 10783.9052,559.410173 10783.9052,559.410173 C10783.9052,559.410173 10785.1697,559.563414 10786.9043,558.550464 C10788.6415,557.533186 10792.5896,553.665795 10794.7504,552.990496 C10796.8997,552.318659 10798.3786,553.348058 10798.4788,553.859728 C10799.2741,552.334243 10801.6361,549.778493 10806.1114,551.069354 C10806.1114,551.069354 10803.3294,547.113656 10798.3927,551.535138 C10797.3497,550.869362 10795.6871,550.802697 10792.2917,552.892664 C10785.4649,557.074328 10778.552,557.074328 10770.8464,552.546356 C10765.3896,549.337816 10758.17,547.911029 10754.2078,548.104095 C10755.4477,546.398531 10758.46,544.39341 10762.2587,543.792566 C10765.1576,543.340634 10768.5934,544.124155 10772.2779,545.75007 C10777.0371,547.846096 10779.0309,550.565477 10783.4254,549.039992 C10781.0871,548.396725 10778.0116,547.458232 10774.5476,543.666164 C10770.5582,539.319137 10765.894,539.246413 10762.4731,539.194467 C10764.9827,537.032642 10769.4053,534.780776 10773.5433,536.514046 C10775.5292,537.330466 10778.1214,539.340782 10779.9474,541.537238 C10781.1082,542.9242 10786.0616,546.227108 10789.1011,545.865217 C10786.9183,545.726694 10784.6934,543.601231 10782.7233,540.636838 C10779.5985,535.932249 10778.2928,535.367768 10775.1223,533.794666 C10779.9395,531.735001 10784.6609,535.703686 10786.667,538.384107 C10787.3788,539.33905 10794.1186,549.726547 10803.3056,544.868717 C10796.8813,543.552748 10793.6906,542.803858 10790.6195,539.836867 Z M10762.7224,570.858763 C10765.5519,563.733256 10775.0637,561.660631 10778.7673,561.660631 C10779.0063,561.660631 10779.22,561.673499 10779.4093,561.689799 C10779.7172,563.2151 10779.6203,563.765855 10780.4612,565.361502 C10781.473,567.271131 10783.3928,567.546509 10785.235,567.366356 C10784.8084,567.981452 10784.6872,571.096395 10785.0928,572.689468 C10785.8743,575.828431 10787.2324,577.259366 10790.0899,577.897625 C10779.4345,581.176422 10766.2637,597.682789 10768.3431,620.760476 C10764.3997,611.775954 10762.1432,600.705081 10763.1821,591.735144 C10763.2841,589.249881 10763.5318,586.964503 10763.8807,584.884156 C10761.5771,585.537857 10759.9216,587.036564 10758.4292,588.852685 C10758.5417,587.197844 10759.1183,585.319099 10759.9687,583.963657 C10761.2117,581.979393 10762.9849,580.178714 10765.2214,579.253925 C10765.4761,578.414066 10765.7639,577.623963 10766.0369,576.880186 C10763.0137,576.856165 10760.2548,579.218752 10758.4859,581.480968 C10758.3795,581.420059 10759.4907,578.311979 10760.0202,577.323707 C10761.4777,574.548482 10763.6191,572.230505 10766.7879,571.662592 C10767.9916,571.449839 10768.7138,571.003744 10769.354,570.284845 C10769.5669,569.953706 10769.7692,569.654307 10769.9568,569.384077 C10767.3209,568.667751 10765.0504,569.288853 10762.7224,570.858763 Z M10696.6634,687.202185 C10698.6829,688.090078 10699.7022,687.890346 10699.7379,686.626537 L10700.5758,686.626537 L10701.2507,695.212412 L10700.4546,695.297887 C10699.8626,692.882783 10699.0055,691.013671 10697.8772,689.69317 C10696.4001,687.941805 10694.4687,687.135026 10692.0543,687.23184 C10690.3514,687.2676 10688.9624,687.735968 10687.8838,688.636944 C10687.2185,689.145433 10686.7738,689.842315 10686.5532,690.710148 C10686.3082,691.543965 10686.2786,692.423136 10686.4817,693.324985 C10686.6378,694.089899 10687.0293,694.767593 10687.6466,695.359813 C10688.407,696.127343 10690.2415,697.023958 10693.1303,698.067102 C10695.951,699.073613 10697.8772,699.87952 10698.9113,700.480462 C10700.4442,701.37446 10701.589,702.417604 10702.3738,703.619487 C10703.1524,704.89289 10703.4986,706.49947 10703.4149,708.442718 C10703.2649,711.123841 10702.1706,713.415094 10700.1277,715.299905 C10697.994,717.233558 10695.209,718.121451 10691.7526,717.951374 C10689.7681,717.874621 10687.7574,717.25798 10685.717,716.122383 C10684.9384,715.682798 10684.3158,715.39323 10683.8441,715.244084 C10683.3811,715.094067 10682.9538,715.203091 10682.5562,715.566796 C10682.1734,715.940095 10681.9467,716.579413 10681.8953,717.498705 L10681.1236,717.498705 L10681.1236,708.032787 L10681.8953,708.032787 C10682.5309,710.619713 10683.5729,712.624015 10685.05,714.062262 C10686.7738,715.735129 10688.9912,716.62215 10691.6619,716.72943 C10693.7991,716.80095 10695.5369,716.368342 10696.8858,715.422884 C10697.7377,714.827176 10698.3297,714.062262 10698.6488,713.138609 C10698.9723,712.338807 10699.09,711.400327 10699.0055,710.313573 C10698.9113,709.444869 10698.6,708.652044 10698.0472,707.915041 C10697.5537,707.294039 10696.7689,706.688736 10695.672,706.060757 C10694.5838,705.463304 10693.2803,704.880679 10691.7526,704.319858 C10690.2232,703.742466 10689.088,703.258399 10688.3416,702.881611 C10683.9627,700.704616 10681.7479,697.935401 10681.7165,694.594027 C10681.7165,692.217299 10682.571,690.247885 10684.2652,688.677937 C10686.221,687.012047 10688.7531,686.169508 10691.8372,686.169508 C10693.4416,686.169508 10695.0547,686.52013 10696.6634,687.202185 Z M10723.5272,698.905803 C10724.1262,700.063204 10724.4192,701.597393 10724.3939,703.496159 L10724.3939,714.154366 C10724.3939,715.458295 10724.7715,716.23542 10725.4899,716.449107 C10726.3061,716.614824 10727.2975,716.333105 10728.4572,715.598718 L10728.792,716.258097 C10727.1833,717.308218 10725.6059,717.84985 10724.0582,717.84985 C10721.1459,717.84985 10719.5956,716.791007 10719.4273,714.679426 C10718.8693,715.566447 10717.972,716.35491 10716.7408,717.033477 C10715.5655,717.689367 10714.1407,718.006845 10712.4666,717.997251 C10710.6015,717.923987 10709.0424,717.355316 10707.7947,716.289496 C10706.5652,715.216698 10705.9557,713.776706 10705.9557,711.940738 C10705.9557,709.000573 10707.6334,706.957895 10710.9773,705.821427 C10716.5534,703.908706 10719.3192,701.739561 10719.2765,699.311373 C10719.2398,697.471045 10717.8037,696.556113 10714.9315,696.556113 C10713.764,696.556113 10712.9243,696.782012 10712.4099,697.253868 C10712.259,697.39778 10711.939,698.047565 10711.4612,699.201477 C10711.2284,699.799802 10710.9328,700.275147 10710.5936,700.629258 C10710.2701,700.979008 10709.8882,701.19444 10709.4313,701.276426 C10708.9596,701.395044 10708.4844,701.301719 10708.017,700.994707 C10707.6063,700.696417 10707.357,700.264681 10707.2811,699.715199 C10707.2,698.918014 10707.6334,698.150484 10708.5786,697.39778 C10710.1175,696.170604 10712.2329,695.538263 10714.9315,695.50512 C10719.4971,695.50512 10722.3614,696.643333 10723.5272,698.905803 Z M10714.2131,706.40318 C10713.1458,706.894225 10712.3619,707.618146 10711.8527,708.534822 C10711.3531,709.467197 10711.1011,710.512957 10711.1168,711.685185 C10711.1656,712.850436 10711.4882,713.882241 10712.0742,714.771879 C10712.6924,715.660644 10713.5992,716.099358 10714.7755,716.074936 C10716.2273,716.074936 10717.3172,715.385903 10718.095,713.997371 C10718.8823,712.60535 10719.2765,710.831308 10719.2765,708.678734 L10719.2765,703.166469 C10718.4734,704.071807 10716.7792,705.135883 10714.2131,706.40318 Z M10737.3235,698.1415 C10739.4013,696.473866 10741.5838,695.641793 10743.8822,695.641793 C10746.7038,695.641793 10748.9665,696.602078 10750.6485,698.527882 C10752.3506,700.438858 10753.1998,703.11126 10753.1998,706.533748 C10753.1998,709.93007 10752.273,712.686202 10750.4314,714.819588 C10748.6413,716.903258 10746.3777,717.958613 10743.6424,717.971696 C10741.2725,717.915875 10739.1615,717.202421 10737.3235,715.841799 L10737.3235,723.851153 C10737.3235,726.840161 10738.314,728.340334 10740.3107,728.378711 L10740.3107,729.096526 L10729.1551,729.096526 L10729.1551,728.378711 C10731.171,728.335101 10732.1851,726.821845 10732.1851,723.851153 L10732.1851,700.675223 C10732.1851,698.225231 10731.1396,697.176854 10729.0469,697.546664 L10729.0469,696.827976 L10736.5265,695.641793 C10736.9773,696.037769 10737.2546,696.867225 10737.3235,698.1415 Z M10746.4963,713.88198 C10747.506,712.146314 10748.0039,709.865528 10748.0039,707.013454 C10748.0039,704.127365 10747.4302,701.734066 10746.3019,699.864083 C10745.1352,697.958339 10743.6799,697.04428 10741.9334,697.121033 C10740.84,697.197786 10739.7788,697.721975 10738.7691,698.695343 C10737.8283,699.714937 10737.354,701.030205 10737.3235,702.638531 L10737.3235,714.031125 C10737.8109,714.632938 10738.4997,715.192887 10739.3847,715.696142 C10740.2854,716.211609 10741.187,716.461928 10742.1322,716.461928 C10743.9677,716.461928 10745.4317,715.598457 10746.4963,713.88198 Z M10774.0241,698.905803 C10774.6502,700.063204 10774.944,701.597393 10774.9257,703.496159 L10774.9257,714.154366 C10774.9257,715.458295 10775.2902,716.23542 10776.007,716.449107 C10776.8336,716.614824 10777.8189,716.333105 10778.9637,715.598718 L10779.3151,716.258097 C10777.7038,717.308218 10776.1212,717.84985 10774.5848,717.84985 C10771.6725,717.84985 10770.1309,716.791007 10769.9469,714.679426 C10769.3854,715.566447 10768.4821,716.35491 10767.2648,717.033477 C10766.0973,717.689367 10764.6621,718.006845 10762.9731,717.997251 C10761.1298,717.923987 10759.5708,717.355316 10758.3056,716.289496 C10757.0814,715.216698 10756.4806,713.776706 10756.4806,711.940738 C10756.4806,709.000573 10758.1513,706.957895 10761.4917,705.821427 C10767.0747,703.908706 10769.8327,701.739561 10769.8057,699.311373 C10769.7664,697.471045 10768.3181,696.556113 10765.4486,696.556113 C10764.2845,696.556113 10763.4492,696.782012 10762.9435,697.253868 C10762.7839,697.39778 10762.4639,698.047565 10761.9922,699.201477 C10761.7594,699.799802 10761.4551,700.275147 10761.1019,700.629258 C10760.7898,700.979008 10760.4096,701.19444 10759.9571,701.276426 C10759.4888,701.395044 10758.9979,701.301719 10758.5279,700.994707 C10758.1207,700.696417 10757.8862,700.264681 10757.792,699.715199 C10757.717,698.918014 10758.1556,698.150484 10759.0895,697.39778 C10760.6415,696.170604 10762.756,695.538263 10765.4486,695.50512 C10770.028,695.50512 10772.8845,696.643333 10774.0241,698.905803 Z M10764.7475,706.40318 C10763.6707,706.894225 10762.8833,707.618146 10762.3784,708.534822 C10761.864,709.467197 10761.6277,710.512957 10761.6425,711.685185 C10761.6887,712.850436 10762,713.882241 10762.6008,714.771879 C10763.219,715.660644 10764.1206,716.099358 10765.3003,716.074936 C10766.7408,716.074936 10767.8455,715.385903 10768.6111,713.997371 C10769.4037,712.60535 10769.8057,710.831308 10769.8057,708.678734 L10769.8057,703.166469 C10768.9983,704.071807 10767.2997,705.135883 10764.7475,706.40318 Z M10828.0854,698.905803 C10828.6861,700.063204 10828.9774,701.597393 10828.966,703.496159 L10828.966,714.154366 C10828.966,715.458295 10829.327,716.23542 10830.0499,716.449107 C10830.873,716.614824 10831.8574,716.333105 10833.0232,715.598718 L10833.3528,716.258097 C10831.7397,717.308218 10830.1693,717.84985 10828.6207,717.84985 C10825.7154,717.84985 10824.1642,716.791007 10823.9951,714.679426 C10823.4283,715.566447 10822.5311,716.35491 10821.3069,717.033477 C10820.1271,717.689367 10818.6997,718.006845 10817.0265,717.997251 C10815.178,717.923987 10813.6207,717.355316 10812.3563,716.289496 C10811.1295,715.216698 10810.5253,713.776706 10810.5253,711.940738 C10810.5253,709.000573 10812.1898,706.957895 10815.5389,705.821427 C10821.1133,703.908706 10823.8939,701.739561 10823.846,699.311373 C10823.805,697.471045 10822.3593,696.556113 10819.4941,696.556113 C10818.3327,696.556113 10817.4965,696.782012 10816.9855,697.253868 C10816.8259,697.39778 10816.5059,698.047565 10816.0394,699.201477 C10815.7831,699.799802 10815.4892,700.275147 10815.1448,700.629258 C10814.8266,700.979008 10814.4464,701.19444 10814.0043,701.276426 C10813.5265,701.395044 10813.0495,701.301719 10812.5674,700.994707 C10812.161,700.696417 10811.9239,700.264681 10811.8375,699.715199 C10811.7739,698.918014 10812.2038,698.150484 10813.1428,697.39778 C10814.6757,696.170604 10816.8033,695.538263 10819.4941,695.50512 C10824.0709,695.50512 10826.93,696.643333 10828.0854,698.905803 Z M10818.7834,706.40318 C10817.7118,706.894225 10816.9332,707.618146 10816.4318,708.534822 C10815.9156,709.467197 10815.6776,710.512957 10815.695,711.685185 C10815.7308,712.850436 10816.0482,713.882241 10816.6463,714.771879 C10817.2636,715.660644 10818.1644,716.099358 10819.3476,716.074936 C10820.7933,716.074936 10821.8928,715.385903 10822.6523,713.997371 C10823.4536,712.60535 10823.846,710.831308 10823.846,708.678734 L10823.846,703.166469 C10823.0342,704.071807 10821.3452,705.135883 10818.7834,706.40318 Z M10850.998,715.458382 C10848.928,717.136483 10846.7507,717.977278 10844.4392,717.977278 C10841.6211,717.977278 10839.361,717.007398 10837.6511,715.090317 C10835.9718,713.15928 10835.1251,710.499961 10835.1251,707.080962 C10835.1251,703.660218 10836.0485,700.896237 10837.8874,698.80646 C10839.6897,696.700113 10841.9585,695.642142 10844.6773,695.642142 C10847.069,695.697962 10849.1591,696.399206 10850.998,697.767678 L10850.998,690.476138 C10850.998,688.028763 10850.0118,686.990852 10848.0081,687.381595 L10848.0081,686.627148 L10856.1486,685.345023 L10856.1486,712.390877 C10856.1599,714.819937 10857.1966,715.842148 10859.2867,715.510714 L10859.2867,716.235507 L10851.8037,718.022632 C10851.3677,717.59264 10851.0904,716.750101 10850.998,715.458382 Z M10841.8304,699.73273 C10840.8137,701.451824 10840.3167,703.742205 10840.3167,706.593406 C10840.2949,709.486472 10840.8608,711.869305 10842.0204,713.749755 C10843.2124,715.654626 10844.6651,716.568685 10846.3967,716.485827 C10847.4858,716.40384 10848.5374,715.882269 10849.5235,714.926344 C10850.5045,713.866629 10850.998,712.557466 10850.998,710.965713 L10850.998,699.58969 C10850.5045,698.962583 10849.8165,698.410485 10848.9236,697.906357 C10848.0081,697.403973 10847.1004,697.154526 10846.1709,697.154526 C10844.3311,697.130976 10842.8784,697.999681 10841.8304,699.73273 Z M10879.8794,698.328149 C10881.6922,700.223426 10882.6923,702.7336 10882.8222,705.879602 L10867.19,705.879602 C10866.9999,708.596486 10867.6164,710.924371 10869.0377,712.87634 C10870.4764,714.819588 10872.263,715.757196 10874.3897,715.696142 C10876.2321,715.654277 10877.7841,715.010598 10879.0319,713.769467 C10880.2945,712.527463 10881.2336,710.886866 10881.8509,708.843317 L10882.5441,708.843317 C10881.9599,711.684924 10880.7121,713.913379 10878.8104,715.531298 C10876.9157,717.12654 10874.6669,717.930703 10872.0633,717.930703 C10869.1719,717.930703 10866.7122,716.872732 10864.684,714.744579 C10862.6855,712.650442 10861.6845,710.046072 10861.6845,706.929724 C10861.6845,703.69999 10862.6855,701.014506 10864.684,698.849721 C10866.6921,696.628244 10869.3053,695.507475 10872.4749,695.507475 C10875.6339,695.507475 10878.0972,696.456422 10879.8794,698.328149 Z M10870.0247,697.403624 C10869.3463,697.973167 10868.8389,698.724998 10868.4631,699.632079 C10868.0777,700.508634 10867.8065,701.390421 10867.6164,702.283548 C10867.4359,703.13917 10867.3225,703.994792 10867.251,704.824248 L10877.2601,704.824248 C10877.3116,703.768894 10877.1991,702.632425 10876.9061,701.420076 C10876.6436,700.182433 10876.0943,699.037243 10875.2729,697.999332 C10874.4716,696.936128 10873.4907,696.427639 10872.3397,696.463399 C10871.4939,696.494798 10870.7127,696.80966 10870.0247,697.403624 Z M10943.4248,689.042339 C10943.4248,689.900578 10943.1222,690.625371 10942.5415,691.20538 C10941.9608,691.778411 10941.2528,692.069724 10940.4052,692.069724 C10939.5577,692.069724 10938.8384,691.778411 10938.228,691.20538 C10937.6272,690.625371 10937.3133,689.900578 10937.3133,689.042339 C10937.3133,688.170146 10937.6272,687.458436 10938.228,686.881043 C10938.8384,686.302779 10939.5577,686.019316 10940.4052,686.019316 C10941.2528,686.019316 10941.9512,686.328073 10942.5206,686.931631 C10943.1222,687.468902 10943.4248,688.170146 10943.4248,689.042339 Z M10934.8536,696.828412 L10943.137,695.641357 L10943.137,712.42498 C10943.1527,715.202917 10944.1651,716.649014 10946.1514,716.760655 L10946.1514,717.498531 L10934.8536,717.498531 L10934.8536,716.760655 C10936.8817,716.66733 10937.8679,715.216872 10937.8531,712.42498 L10937.8531,700.547446 C10937.8679,698.204734 10936.8817,697.2209 10934.8536,697.573266 L10934.8536,696.828412 Z M10791.215,737.814974 C10790.071,737.15734 10789.5077,736.434292 10789.5077,735.63449 C10789.5077,735.081519 10789.7301,734.646295 10790.1608,734.286079 C10790.5776,733.977322 10791.0519,733.818583 10791.5986,733.818583 C10792.1358,733.859576 10792.5813,734.018315 10792.9676,734.286079 C10793.3408,734.548609 10793.7131,734.989939 10794.0968,735.63449 C10794.79,736.770959 10795.1605,737.391088 10795.28,737.476563 C10795.7133,737.826313 10796.4658,737.921382 10797.5357,737.759154 C10799.3241,737.378878 10800.2091,736.105475 10800.2091,733.906675 L10800.2091,691.372405 C10800.2091,688.77414 10798.9134,687.472827 10796.3176,687.472827 L10796.3176,686.626799 L10809.6191,686.626799 L10809.6191,687.472827 C10807.0408,687.472827 10805.746,688.77414 10805.746,691.372405 L10805.746,730.25916 C10805.7834,732.842598 10804.9316,734.919291 10803.2016,736.478774 C10801.3522,738.134197 10799.0808,738.960165 10796.3891,738.960165 C10794.2633,738.960165 10792.5403,738.580761 10791.215,737.814974 Z M10911.4983,686.626799 L10911.4983,687.472827 C10908.8729,687.407412 10907.5746,688.713958 10907.5746,691.372405 L10907.5746,700.922053 L10923.0167,700.922053 L10923.0167,691.372405 C10923.0167,688.783734 10921.7175,687.481549 10919.1043,687.472827 L10919.1043,686.626799 L10932.4407,686.626799 L10932.4407,687.472827 C10929.8415,687.407412 10928.5632,688.713958 10928.5632,691.372405 L10928.5632,712.773421 C10928.5632,715.408318 10929.8415,716.697421 10932.4407,716.653811 L10932.4407,717.498967 L10919.1043,717.498967 L10919.1043,716.653811 C10921.7175,716.733181 10923.0167,715.428379 10923.0167,712.773421 L10923.0167,701.857045 L10907.5746,701.857045 L10907.5746,712.773421 C10907.5746,715.408318 10908.8729,716.697421 10911.4983,716.653811 L10911.4983,717.498967 L10898.1149,717.498967 L10898.1149,716.653811 C10900.7281,716.733181 10902.0342,715.428379 10902.0342,712.773421 L10902.0342,691.372405 C10902.0342,688.783734 10900.7281,687.481549 10898.1149,687.472827 L10898.1149,686.626799 L10911.4983,686.626799 Z M10955.7964,712.260223 C10955.7964,715.234403 10956.8026,716.749404 10958.8159,716.779058 L10958.8159,717.498618 L10947.4362,717.498618 L10947.4362,716.779058 C10949.5158,716.749404 10950.5638,715.234403 10950.5638,712.260223 L10950.5638,690.481546 C10950.5944,688.028065 10949.5672,686.991027 10947.4362,687.38177 L10947.4362,686.62645 L10955.7964,685.391424 L10955.7964,695.557713 L10955.7964,712.260223 Z M10969.5746,712.260223 C10969.5746,715.234403 10970.5904,716.749404 10972.6046,716.779058 L10972.6046,717.498618 L10961.2388,717.498618 L10961.2388,716.779058 C10963.3132,716.749404 10964.3473,715.234403 10964.3473,712.260223 L10964.3473,690.481546 C10964.3883,688.028065 10963.3541,686.991027 10961.2388,687.38177 L10961.2388,686.62645 L10969.5746,685.391424 L10969.5746,695.557713 L10969.5746,712.260223 Z M10674,670.529592 L10674,668.738106 L10776.7561,668.738106 L10776.7561,670.529592 L10674,670.529592 Z M10877.1981,670.540931 L10877.1981,668.739851 L10979.9525,668.739851 L10979.9525,670.540931 L10877.1981,670.540931 Z" id="Combined-Shape" fill="#37302A"></path>
    </g>
</svg>