<?xml version="1.0" encoding="UTF-8"?>
<svg width="950px" height="156px" viewBox="0 0 950 156" version="1.1" xmlns="http://www.w3.org/2000/svg" xmlns:xlink="http://www.w3.org/1999/xlink">
    <!-- Generator: Sketch 48.2 (47327) - http://www.bohemiancoding.com/sketch -->
    <title>Group 8</title>
    <desc>Created with Sketch.</desc>
    <defs></defs>
    <g id="Page-Design" stroke="none" stroke-width="1" fill="none" fill-rule="evenodd">
        <g id="Group-8" transform="translate(0.000000, 1.000000)">
            <polyline id="Path-2" stroke="#9A7554" opacity="0.300000012" stroke-dasharray="4,2" points="0 137 118.75 19 237.5 137 356.25 19 475 137 593.75 19 712.5 137 831.25 19 950 137"></polyline>
            <g id="Group-3" transform="translate(814.875659, 0.000000)">
                <rect id="Rectangle-11" fill="#D49156" transform="translate(17.000000, 17.000000) rotate(45.000000) translate(-17.000000, -17.000000) " x="9" y="9" width="16" height="16"></rect>
                <rect id="Rectangle-11" stroke="#9A7554" transform="translate(17.000000, 17.000000) rotate(45.000000) translate(-17.000000, -17.000000) " x="5" y="5" width="24" height="24"></rect>
            </g>
            <g id="Group-3" transform="translate(695.750263, 120.000000)">
                <rect id="Rectangle-11" fill="#D49156" transform="translate(17.000000, 17.000000) rotate(45.000000) translate(-17.000000, -17.000000) " x="9" y="9" width="16" height="16"></rect>
                <rect id="Rectangle-11" stroke="#9A7554" transform="translate(17.000000, 17.000000) rotate(45.000000) translate(-17.000000, -17.000000) " x="5" y="5" width="24" height="24"></rect>
            </g>
            <g id="Group-3" transform="translate(577.625922, 0.000000)">
                <rect id="Rectangle-11" fill="#D49156" transform="translate(17.000000, 17.000000) rotate(45.000000) translate(-17.000000, -17.000000) " x="9" y="9" width="16" height="16"></rect>
                <rect id="Rectangle-11" stroke="#9A7554" transform="translate(17.000000, 17.000000) rotate(45.000000) translate(-17.000000, -17.000000) " x="5" y="5" width="24" height="24"></rect>
            </g>
            <g id="Group-3" transform="translate(458.500527, 120.000000)">
                <rect id="Rectangle-11" fill="#D49156" transform="translate(17.000000, 17.000000) rotate(45.000000) translate(-17.000000, -17.000000) " x="9" y="9" width="16" height="16"></rect>
                <rect id="Rectangle-11" stroke="#9A7554" transform="translate(17.000000, 17.000000) rotate(45.000000) translate(-17.000000, -17.000000) " x="5" y="5" width="24" height="24"></rect>
            </g>
            <g id="Group-3" transform="translate(339.375132, 0.000000)">
                <rect id="Rectangle-11" fill="#D49156" transform="translate(17.000000, 17.000000) rotate(45.000000) translate(-17.000000, -17.000000) " x="9" y="9" width="16" height="16"></rect>
                <rect id="Rectangle-11" stroke="#9A7554" transform="translate(17.000000, 17.000000) rotate(45.000000) translate(-17.000000, -17.000000) " x="5" y="5" width="24" height="24"></rect>
            </g>
            <g id="Group-3" transform="translate(220.249737, 120.000000)">
                <rect id="Rectangle-11" fill="#D49156" transform="translate(17.000000, 17.000000) rotate(45.000000) translate(-17.000000, -17.000000) " x="9" y="9" width="16" height="16"></rect>
                <rect id="Rectangle-11" stroke="#9A7554" transform="translate(17.000000, 17.000000) rotate(45.000000) translate(-17.000000, -17.000000) " x="5" y="5" width="24" height="24"></rect>
            </g>
            <g id="Group-3" transform="translate(102.125395, 0.000000)">
                <rect id="Rectangle-11" fill="#D49156" transform="translate(17.000000, 17.000000) rotate(45.000000) translate(-17.000000, -17.000000) " x="9" y="9" width="16" height="16"></rect>
                <rect id="Rectangle-11" stroke="#9A7554" transform="translate(17.000000, 17.000000) rotate(45.000000) translate(-17.000000, -17.000000) " x="5" y="5" width="24" height="24"></rect>
            </g>
        </g>
    </g>
</svg>