<?xml version="1.0" encoding="UTF-8"?>
<svg width="1176px" height="188px" viewBox="0 0 1175 187" version="1.1" xmlns="http://www.w3.org/2000/svg" xmlns:xlink="http://www.w3.org/1999/xlink">
    <!-- Generator: Sketch 48.2 (47327) - http://www.bohemiancoding.com/sketch -->
    <title>Group 8</title>
    <desc>Created with Sketch.</desc>
    <defs></defs>
    <g id="01.-Trang-chủ" stroke="none" stroke-width="1" fill="none" fill-rule="evenodd" transform="translate(-372.000000, -1857.000000)">
        <g id="Group-8" transform="translate(373.000000, 1858.000000)">
            <polyline id="Path-2" stroke="#9A7554" opacity="0.300000012" stroke-dasharray="4,2" points="0 167.6875 146.660645 19 293.321289 167.6875 439.981934 19 586.642578 167.6875 733.303223 19 879.963867 167.6875 1026.62451 19 1173.28516 167.6875"></polyline>
            <g id="Group-3" transform="translate(1010.000000, 0.000000)">
                <rect id="Rectangle-11" fill="#D49156" transform="translate(17.000000, 17.000000) rotate(45.000000) translate(-17.000000, -17.000000) " x="9" y="9" width="16" height="16"></rect>
                <rect id="Rectangle-11" stroke="#9A7554" transform="translate(17.000000, 17.000000) rotate(45.000000) translate(-17.000000, -17.000000) " x="5" y="5" width="24" height="24"></rect>
            </g>
            <g id="Group-3" transform="translate(863.000000, 151.000000)">
                <rect id="Rectangle-11" fill="#D49156" transform="translate(17.000000, 17.000000) rotate(45.000000) translate(-17.000000, -17.000000) " x="9" y="9" width="16" height="16"></rect>
                <rect id="Rectangle-11" stroke="#9A7554" transform="translate(17.000000, 17.000000) rotate(45.000000) translate(-17.000000, -17.000000) " x="5" y="5" width="24" height="24"></rect>
            </g>
            <g id="Group-3" transform="translate(717.000000, 0.000000)">
                <rect id="Rectangle-11" fill="#D49156" transform="translate(17.000000, 17.000000) rotate(45.000000) translate(-17.000000, -17.000000) " x="9" y="9" width="16" height="16"></rect>
                <rect id="Rectangle-11" stroke="#9A7554" transform="translate(17.000000, 17.000000) rotate(45.000000) translate(-17.000000, -17.000000) " x="5" y="5" width="24" height="24"></rect>
            </g>
            <g id="Group-3" transform="translate(570.000000, 151.000000)">
                <rect id="Rectangle-11" fill="#D49156" transform="translate(17.000000, 17.000000) rotate(45.000000) translate(-17.000000, -17.000000) " x="9" y="9" width="16" height="16"></rect>
                <rect id="Rectangle-11" stroke="#9A7554" transform="translate(17.000000, 17.000000) rotate(45.000000) translate(-17.000000, -17.000000) " x="5" y="5" width="24" height="24"></rect>
            </g>
            <g id="Group-3" transform="translate(423.000000, 0.000000)">
                <rect id="Rectangle-11" fill="#D49156" transform="translate(17.000000, 17.000000) rotate(45.000000) translate(-17.000000, -17.000000) " x="9" y="9" width="16" height="16"></rect>
                <rect id="Rectangle-11" stroke="#9A7554" transform="translate(17.000000, 17.000000) rotate(45.000000) translate(-17.000000, -17.000000) " x="5" y="5" width="24" height="24"></rect>
            </g>
            <g id="Group-3" transform="translate(276.000000, 151.000000)">
                <rect id="Rectangle-11" fill="#D49156" transform="translate(17.000000, 17.000000) rotate(45.000000) translate(-17.000000, -17.000000) " x="9" y="9" width="16" height="16"></rect>
                <rect id="Rectangle-11" stroke="#9A7554" transform="translate(17.000000, 17.000000) rotate(45.000000) translate(-17.000000, -17.000000) " x="5" y="5" width="24" height="24"></rect>
            </g>
            <g id="Group-3" transform="translate(130.000000, 0.000000)">
                <rect id="Rectangle-11" fill="#D49156" transform="translate(17.000000, 17.000000) rotate(45.000000) translate(-17.000000, -17.000000) " x="9" y="9" width="16" height="16"></rect>
                <rect id="Rectangle-11" stroke="#9A7554" transform="translate(17.000000, 17.000000) rotate(45.000000) translate(-17.000000, -17.000000) " x="5" y="5" width="24" height="24"></rect>
            </g>
        </g>
    </g>
</svg>
