<?xml version="1.0" encoding="UTF-8"?>
<svg width="504px" height="157px" viewBox="0 0 504 157" version="1.1" xmlns="http://www.w3.org/2000/svg" xmlns:xlink="http://www.w3.org/1999/xlink">
    <!-- Generator: Sketch 48.2 (47327) - http://www.bohemiancoding.com/sketch -->
    <title>Group 8</title>
    <desc>Created with Sketch.</desc>
    <defs></defs>
    <g id="Page-Design" stroke="none" stroke-width="1" fill="none" fill-rule="evenodd">
        <g id="Group-8" transform="translate(1.000000, 0.000000)">
            <path d="M9.5,12 C9.5,80 90,80 90,148 C90,80 170.5,80 170.5,12 C170.5,80 251,80 251,148 C251,80 331.5,80 331.5,12 C331.5,80 412,80 412,148 C412,80 492.5,80 492.5,12" id="Path-2" stroke="#9A7554" opacity="0.300000012" stroke-dasharray="4,2"></path>
            <g id="Group-3" transform="translate(483.000000, 0.000000)">
                <rect id="Rectangle-11" fill="#D49156" transform="translate(9.500000, 9.500000) rotate(45.000000) translate(-9.500000, -9.500000) " x="5.02941176" y="5.02941176" width="8.94117647" height="8.94117647"></rect>
                <rect id="Rectangle-11" stroke="#9A7554" transform="translate(9.500000, 9.500000) rotate(45.000000) translate(-9.500000, -9.500000) " x="2.79411765" y="2.79411765" width="13.4117647" height="13.4117647"></rect>
            </g>
            <g id="Group-3" transform="translate(403.000000, 138.000000)">
                <rect id="Rectangle-11" fill="#D49156" transform="translate(9.500000, 9.500000) rotate(45.000000) translate(-9.500000, -9.500000) " x="5.02941176" y="5.02941176" width="8.94117647" height="8.94117647"></rect>
                <rect id="Rectangle-11" stroke="#9A7554" transform="translate(9.500000, 9.500000) rotate(45.000000) translate(-9.500000, -9.500000) " x="2.79411765" y="2.79411765" width="13.4117647" height="13.4117647"></rect>
            </g>
            <g id="Group-3" transform="translate(322.000000, 0.000000)">
                <rect id="Rectangle-11" fill="#D49156" transform="translate(9.500000, 9.500000) rotate(45.000000) translate(-9.500000, -9.500000) " x="5.02941176" y="5.02941176" width="8.94117647" height="8.94117647"></rect>
                <rect id="Rectangle-11" stroke="#9A7554" transform="translate(9.500000, 9.500000) rotate(45.000000) translate(-9.500000, -9.500000) " x="2.79411765" y="2.79411765" width="13.4117647" height="13.4117647"></rect>
            </g>
            <g id="Group-3" transform="translate(241.000000, 138.000000)">
                <rect id="Rectangle-11" fill="#D49156" transform="translate(9.500000, 9.500000) rotate(45.000000) translate(-9.500000, -9.500000) " x="5.02941176" y="5.02941176" width="8.94117647" height="8.94117647"></rect>
                <rect id="Rectangle-11" stroke="#9A7554" transform="translate(9.500000, 9.500000) rotate(45.000000) translate(-9.500000, -9.500000) " x="2.79411765" y="2.79411765" width="13.4117647" height="13.4117647"></rect>
            </g>
            <g id="Group-3" transform="translate(161.000000, 0.000000)">
                <rect id="Rectangle-11" fill="#D49156" transform="translate(9.500000, 9.500000) rotate(45.000000) translate(-9.500000, -9.500000) " x="5.02941176" y="5.02941176" width="8.94117647" height="8.94117647"></rect>
                <rect id="Rectangle-11" stroke="#9A7554" transform="translate(9.500000, 9.500000) rotate(45.000000) translate(-9.500000, -9.500000) " x="2.79411765" y="2.79411765" width="13.4117647" height="13.4117647"></rect>
            </g>
            <g id="Group-3" transform="translate(81.000000, 138.000000)">
                <rect id="Rectangle-11" fill="#D49156" transform="translate(9.500000, 9.500000) rotate(45.000000) translate(-9.500000, -9.500000) " x="5.02941176" y="5.02941176" width="8.94117647" height="8.94117647"></rect>
                <rect id="Rectangle-11" stroke="#9A7554" transform="translate(9.500000, 9.500000) rotate(45.000000) translate(-9.500000, -9.500000) " x="2.79411765" y="2.79411765" width="13.4117647" height="13.4117647"></rect>
            </g>
            <g id="Group-3">
                <rect id="Rectangle-11" fill="#D49156" transform="translate(9.500000, 9.500000) rotate(45.000000) translate(-9.500000, -9.500000) " x="5.02941176" y="5.02941176" width="8.94117647" height="8.94117647"></rect>
                <rect id="Rectangle-11" stroke="#9A7554" transform="translate(9.500000, 9.500000) rotate(45.000000) translate(-9.500000, -9.500000) " x="2.79411765" y="2.79411765" width="13.4117647" height="13.4117647"></rect>
            </g>
        </g>
    </g>
</svg>