<?xml version="1.0" encoding="UTF-8"?>
<svg width="14px" height="15px" viewBox="0 0 14 15" version="1.1" xmlns="http://www.w3.org/2000/svg" xmlns:xlink="http://www.w3.org/1999/xlink">
    <!-- Generator: Sketch 48.2 (47327) - http://www.bohemiancoding.com/sketch -->
    <title>float_share</title>
    <desc>Created with Sketch.</desc>
    <defs></defs>
    <g id="share" stroke="none" stroke-width="1" fill="none" fill-rule="evenodd" transform="translate(-23.000000, -18.000000)">
        <g fill="#9A7554" id="float_share">
            <path d="M34.0000129,26.428566 C35.580372,26.428566 36.8571592,27.7053532 36.8571592,29.2857122 C36.8571592,30.8660713 35.580372,32.1428585 34.0000129,32.1428585 C32.4196539,32.1428585 31.1428667,30.8660713 31.1428667,29.2857122 C31.1428667,29.1874978 31.1517953,29.0803549 31.1607238,28.9821405 L27.9464343,27.3749957 C27.4375051,27.8482105 26.7500043,28.1428537 26.0000034,28.1428537 C24.4196444,28.1428537 23.1428571,26.8660665 23.1428571,25.2857075 C23.1428571,23.7053484 24.4196444,22.4285612 26.0000034,22.4285612 C26.7500043,22.4285612 27.4375051,22.7232044 27.9464343,23.1964193 L31.1607238,21.5892745 C31.1517953,21.4910601 31.1428667,21.3839171 31.1428667,21.2857027 C31.1428667,19.7053437 32.4196539,18.4285564 34.0000129,18.4285564 C35.580372,18.4285564 36.8571592,19.7053437 36.8571592,21.2857027 C36.8571592,22.8660617 35.580372,24.142849 34.0000129,24.142849 C33.250012,24.142849 32.5625112,23.8482058 32.0535821,23.3749909 L28.8392925,24.9821357 C28.8482211,25.0803501 28.8571497,25.1874931 28.8571497,25.2857075 C28.8571497,25.3839219 28.8482211,25.4910649 28.8392925,25.5892793 L32.0535821,27.196424 C32.5625112,26.7232092 33.250012,26.428566 34.0000129,26.428566 Z"></path>
        </g>
    </g>
</svg>