<?xml version="1.0" encoding="UTF-8"?>
<svg width="21px" height="14px" viewBox="0 0 21 14" version="1.1" xmlns="http://www.w3.org/2000/svg" xmlns:xlink="http://www.w3.org/1999/xlink">
    <g id="footer" stroke="none" stroke-width="1" fill="none" fill-rule="evenodd" transform="translate(-1484.000000, -111.000000)">
        <path d="M1496.83037,117.696437 C1496.83037,121.437512 1494.32144,124.089301 1490.54465,124.089301 C1486.92857,124.089301 1484,121.160726 1484,117.544651 C1484,113.928575 1486.92857,111 1490.54465,111 C1492.31251,111 1493.78573,111.642858 1494.92858,112.714288 L1493.1518,114.419647 C1492.66965,113.955361 1491.82144,113.410717 1490.54465,113.410717 C1488.31251,113.410717 1486.49107,115.258934 1486.49107,117.544651 C1486.49107,119.830368 1488.31251,121.678584 1490.54465,121.678584 C1493.13394,121.678584 1494.10715,119.812511 1494.25894,118.857152 L1490.54465,118.857152 L1490.54465,116.60715 L1496.72323,116.60715 C1496.78573,116.937507 1496.83037,117.267865 1496.83037,117.696437 Z M1504.57145,116.60715 L1504.57145,118.482152 L1502.70538,118.482152 L1502.70538,120.348225 L1500.83038,120.348225 L1500.83038,118.482152 L1498.9643,118.482152 L1498.9643,116.60715 L1500.83038,116.60715 L1500.83038,114.741076 L1502.70538,114.741076 L1502.70538,116.60715 L1504.57145,116.60715 Z" id="fsocial_google" fill="#5D5D5D"></path>
    </g>
</svg>
