<?xml version="1.0" encoding="UTF-8"?>
<svg width="16px" height="12px" viewBox="0 0 16 12" version="1.1" xmlns="http://www.w3.org/2000/svg" xmlns:xlink="http://www.w3.org/1999/xlink">
    <g id="footer" stroke="none" stroke-width="1" fill="none" fill-rule="evenodd" transform="translate(-1529.000000, -112.000000)">
        <path d="M1535.3483,119.696438 L1539.66974,117.464292 L1535.3483,115.205361 L1535.3483,119.696438 Z M1537.00009,112 C1540.36617,112 1542.59831,112.160714 1542.59831,112.160714 C1542.91081,112.196429 1543.59831,112.196429 1544.20546,112.839287 C1544.20546,112.839287 1544.69653,113.32143 1544.83939,114.428574 C1545.00903,115.723219 1545.0001,117.017863 1545.0001,117.017863 L1545.0001,118.23215 C1545.0001,118.23215 1545.00903,119.526795 1544.83939,120.821439 C1544.69653,121.919655 1544.20546,122.410727 1544.20546,122.410727 C1543.59831,123.044656 1542.91081,123.044656 1542.59831,123.08037 C1542.59831,123.08037 1540.36617,123.250013 1537.00009,123.250013 C1532.83937,123.214299 1531.56258,123.089299 1531.56258,123.089299 C1531.20544,123.026799 1530.40187,123.044656 1529.79472,122.410727 C1529.79472,122.410727 1529.30365,121.919655 1529.1608,120.821439 C1528.99115,119.526795 1529.00008,118.23215 1529.00008,118.23215 L1529.00008,117.017863 C1529.00008,117.017863 1528.99115,115.723219 1529.1608,114.428574 C1529.30365,113.32143 1529.79472,112.839287 1529.79472,112.839287 C1530.40187,112.196429 1531.08937,112.196429 1531.40187,112.160714 C1531.40187,112.160714 1533.63402,112 1537.00009,112 Z" id="fsocial_youtube" fill="#5D5D5D"></path>
    </g>
</svg>
