<?xml version="1.0" encoding="UTF-8"?>
<svg width="266px" height="34px" viewBox="0 0 266 34" version="1.1" xmlns="http://www.w3.org/2000/svg" xmlns:xlink="http://www.w3.org/1999/xlink">
    <!-- Generator: Sketch 48.2 (47327) - http://www.bohemiancoding.com/sketch -->
    <title>Group 4</title>
    <desc>Created with Sketch.</desc>
    <defs></defs>
    <g id="Artboard" stroke="none" stroke-width="1" fill="none" fill-rule="evenodd" transform="translate(-55.000000, -751.000000)">
        <g id="Group-4" transform="translate(55.000000, 751.000000)">
            <g id="Group-3" transform="translate(116.000000, 0.000000)">
                <rect id="Rectangle-11" fill="#D49156" opacity="0.600000024" transform="translate(17.000000, 17.000000) rotate(45.000000) translate(-17.000000, -17.000000) " x="9" y="9" width="16" height="16"></rect>
                <rect id="Rectangle-11" stroke="#9A7554" opacity="0.200000003" transform="translate(17.000000, 17.000000) rotate(45.000000) translate(-17.000000, -17.000000) " x="5" y="5" width="24" height="24"></rect>
            </g>
            <g id="Group-3" transform="translate(156.000000, 5.000000)">
                <rect id="Rectangle-11" fill="#D49156" opacity="0.400000006" transform="translate(12.000000, 12.000000) rotate(45.000000) translate(-12.000000, -12.000000) " x="8" y="8" width="8" height="8"></rect>
                <rect id="Rectangle-11" stroke="#9A7554" opacity="0.200000003" transform="translate(12.000000, 12.000000) rotate(45.000000) translate(-12.000000, -12.000000) " x="4" y="4" width="16" height="16"></rect>
            </g>
            <g id="Group-3" transform="translate(86.000000, 5.000000)">
                <rect id="Rectangle-11" fill="#D49156" opacity="0.400000006" transform="translate(12.000000, 12.000000) rotate(45.000000) translate(-12.000000, -12.000000) " x="8" y="8" width="8" height="8"></rect>
                <rect id="Rectangle-11" stroke="#9A7554" opacity="0.200000003" transform="translate(12.000000, 12.000000) rotate(45.000000) translate(-12.000000, -12.000000) " x="4" y="4" width="16" height="16"></rect>
            </g>
            <path d="M186,17 L266,17" id="Line" stroke="#9A7554" opacity="0.300000012" stroke-dasharray="4,2"></path>
            <path d="M0,17 L80,17" id="Line" stroke="#9A7554" opacity="0.300000012" stroke-dasharray="4,2"></path>
        </g>
    </g>
</svg>