<?xml version="1.0" encoding="UTF-8"?>
<svg width="146px" height="101px" viewBox="0 0 146 101" version="1.1" xmlns="http://www.w3.org/2000/svg" xmlns:xlink="http://www.w3.org/1999/xlink">
    <!-- Generator: Sketch 48.2 (47327) - http://www.bohemiancoding.com/sketch -->
    <title>logo</title>
    <desc>Created with Sketch.</desc>
    <defs>
        <linearGradient x1="50%" y1="0%" x2="50%" y2="100%" id="linearGradient-1">
            <stop stop-color="#0AEA9A" offset="0%"></stop>
            <stop stop-color="#04D061" offset="100%"></stop>
        </linearGradient>
    </defs>
    <g id="Page-1" stroke="none" stroke-width="1" fill="none" fill-rule="evenodd">
        <g id="logo" transform="translate(0.000000, 1.000000)">
            <path d="M10.810988,74.9920325 C11.7743385,75.4155948 12.2605892,75.320314 12.2776433,74.7174243 L12.6773755,74.7174243 L12.9993242,78.8132465 L12.6195578,78.8540217 C12.3371248,77.7019156 11.9282416,76.8102713 11.3899966,76.1803368 C10.6853698,75.3448624 9.76403077,74.9599949 8.61225299,75.006179 C7.79989402,75.023238 7.13727863,75.2466691 6.62274302,75.6764725 C6.3053698,75.919043 6.09323305,76.2514853 5.98799658,76.6654779 C5.87111339,77.0632437 5.85697094,77.4826452 5.95388832,77.9128646 C6.02834416,78.2777606 6.21510769,78.6010493 6.50960342,78.8835628 C6.87231567,79.249707 7.74748376,79.67743 9.12554074,80.1750533 C10.4711533,80.6552015 11.3899966,81.0396529 11.8833185,81.3263272 C12.6145664,81.7528019 13.1607145,82.2504252 13.5350735,82.8237737 C13.9065208,83.4312402 14.0716547,84.1976466 14.0317231,85.1246572 C13.9601789,86.4036654 13.4381561,87.4966891 12.4635749,88.3958227 C11.4457345,89.3182565 10.1171761,89.7418188 8.46833276,89.6606845 C7.52162051,89.6240701 6.56242963,89.3299065 5.5890963,88.7881795 C5.217649,88.5784788 4.92065755,88.4403425 4.69562621,88.3691941 C4.47475442,88.2976295 4.27093675,88.3496386 4.08126154,88.5231411 C3.89865755,88.7012203 3.7905094,89.0062018 3.76596809,89.4447427 L3.39784843,89.4447427 L3.39784843,84.9291029 L3.76596809,84.9291029 C4.06919886,86.1631753 4.56626439,87.1193109 5.27089117,87.8054152 C6.09323305,88.6034431 7.15100513,89.0265893 8.4250735,89.0777663 C9.44457778,89.1118843 10.2735749,88.9055121 10.9170564,88.454489 C11.3234439,88.1703112 11.6058769,87.8054152 11.7581162,87.364794 C11.9124353,86.9832551 11.9685892,86.5355606 11.9282416,86.0171337 C11.8833185,85.602725 11.7348228,85.2245147 11.4711077,84.872933 C11.2356775,84.5766891 10.8613185,84.2879345 10.3380479,83.9883619 C9.81893675,83.703352 9.1970849,83.4254152 8.46833276,83.1578803 C7.73874872,82.88244 7.19717607,82.6515195 6.84111909,82.471776 C4.75219601,81.4332579 3.69567179,80.1122263 3.68069744,78.5182508 C3.68069744,77.384452 4.08833276,76.4449592 4.89653219,75.6960279 C5.82951795,74.9013286 7.03744957,74.4994021 8.50868034,74.4994021 C9.27403647,74.4994021 10.0435521,74.6666634 10.810988,74.9920325 Z M23.6261276,80.575149 C23.9118883,81.1272779 24.051649,81.8591502 24.0395863,82.764941 L24.0395863,87.8493525 C24.0395863,88.4713816 24.2196946,88.8421026 24.562441,88.9440405 C24.9517744,89.0230943 25.4247145,88.8887028 25.9779339,88.5383693 L26.1376604,88.8529205 C25.3702245,89.3538723 24.617763,89.6122536 23.8794439,89.6122536 C22.4901561,89.6122536 21.7505892,89.1071411 21.67031,88.0998284 C21.4040991,88.5229746 20.9760821,88.8991046 20.3887544,89.2228093 C19.8280479,89.5356962 19.1483783,89.6871468 18.3497459,89.68257 C17.4600194,89.6476198 16.7162929,89.3763403 16.1210621,88.8678991 C15.5345664,88.3561294 15.2438142,87.6691929 15.2438142,86.7933594 C15.2438142,85.3907774 16.0441105,84.4163346 17.6392957,83.8741915 C20.2993242,82.9617435 21.6187316,81.9269701 21.5983499,80.768623 C21.5808798,79.890709 20.8958028,79.4542485 19.525649,79.4542485 C18.968686,79.4542485 18.5681219,79.5620114 18.3227088,79.7871069 C18.2507487,79.8557589 18.0980934,80.1657333 17.8701504,80.7161978 C17.7590906,81.0016238 17.6180821,81.2283836 17.4562758,81.3973092 C17.3019567,81.5641545 17.1197687,81.6669245 16.9018085,81.7060353 C16.6767772,81.7626213 16.4500821,81.7181015 16.2271305,81.5716438 C16.031216,81.4293468 15.912253,81.2233907 15.876065,80.9612647 C15.8373812,80.5809741 16.0441105,80.2148299 16.4950051,79.8557589 C17.2291647,79.2703443 18.2382701,78.9686914 19.525649,78.9528806 C21.7035863,78.9528806 23.0699966,79.4958558 23.6261276,80.575149 Z M19.1829026,84.1517122 C18.6737744,84.3859612 18.2998313,84.7313018 18.056914,85.1685945 C17.8185721,85.6133765 17.6983613,86.1122479 17.7058484,86.67145 C17.7291419,87.2273235 17.883045,87.7195378 18.1625664,88.1439322 C18.4574781,88.5679105 18.8900707,88.7771952 19.4511932,88.7655452 C20.1437573,88.7655452 20.6637003,88.4368475 21.0347316,87.7744594 C21.4103385,87.110407 21.5983499,86.2641146 21.5983499,85.2372465 L21.5983499,82.6076654 C21.2152558,83.0395492 20.4070564,83.5471582 19.1829026,84.1517122 Z M30.2075248,80.2105443 C31.1987442,79.4150128 32.2398781,79.0180792 33.3363339,79.0180792 C34.6823624,79.0180792 35.7617641,79.4761755 36.5641402,80.3948646 C37.3760832,81.3064805 37.7812228,82.581328 37.7812228,84.2139983 C37.7812228,85.8341864 37.3390632,87.1489769 36.4605675,88.1666914 C35.6066131,89.1606897 34.5267954,89.6641379 33.2219464,89.670379 C32.0913823,89.6437504 31.0843567,89.3034027 30.2075248,88.6543289 L30.2075248,92.4751268 C30.2075248,93.9010088 30.680049,94.6166543 31.6325846,94.6349615 L31.6325846,94.9773896 L26.3108638,94.9773896 L26.3108638,94.6349615 C27.2725504,94.6141579 27.7563054,93.8922713 27.7563054,92.4751268 L27.7563054,81.4192362 C27.7563054,80.2504873 27.2575761,79.7503676 26.2592855,79.9267826 L26.2592855,79.5839384 L29.8273425,79.0180792 C30.0423909,79.2069763 30.1746644,79.6026617 30.2075248,80.2105443 Z M34.5833652,87.7194129 C35.0650405,86.8914278 35.3025504,85.803397 35.3025504,84.4428384 C35.3025504,83.066053 35.0288524,81.9243488 34.4906074,81.0322884 C33.9340604,80.123169 33.2398325,79.6871245 32.4066758,79.723739 C31.8850689,79.7603534 31.3788524,80.0104132 30.8971772,80.4747506 C30.4483624,80.9611399 30.2220832,81.5885779 30.2075248,82.3558165 L30.2075248,87.7905614 C30.4400433,88.0776518 30.7686473,88.3447706 31.190841,88.5848447 C31.6205219,88.8307438 32.0506188,88.9501567 32.5015134,88.9501567 C33.3770974,88.9501567 34.0754849,88.5382445 34.5833652,87.7194129 Z M47.7152957,80.575149 C48.013951,81.1272779 48.1541276,81.8591502 48.1453926,82.764941 L48.1453926,87.8493525 C48.1453926,88.4713816 48.3192615,88.8421026 48.6611761,88.9440405 C49.0555009,89.0230943 49.5255293,88.8887028 50.0716775,88.5383693 L50.2393071,88.8529205 C49.4706234,89.3538723 48.7156661,89.6122536 47.9827544,89.6122536 C46.5934667,89.6122536 45.8580593,89.1071411 45.7702929,88.0998284 C45.5024182,88.5229746 45.0714895,88.8991046 44.4908171,89.2228093 C43.9338541,89.5356962 43.2491932,89.6871468 42.4434895,89.68257 C41.5641618,89.6476198 40.8204353,89.3763403 40.2168855,88.8678991 C39.6328855,88.3561294 39.3462929,87.6691929 39.3462929,86.7933594 C39.3462929,85.3907774 40.1432615,84.4163346 41.7367829,83.8741915 C44.400139,82.9617435 45.7158028,81.9269701 45.7029083,80.768623 C45.6841903,79.890709 44.99329,79.4542485 43.624384,79.4542485 C43.0690849,79.4542485 42.6706006,79.5620114 42.429347,79.7871069 C42.3532274,79.8557589 42.2005721,80.1657333 41.9755407,80.7161978 C41.8644809,81.0016238 41.7193128,81.2283836 41.5508513,81.3973092 C41.4019396,81.5641545 41.2205835,81.6669245 41.0047031,81.7060353 C40.7813356,81.7626213 40.5471533,81.7181015 40.3229538,81.5716438 C40.1287031,81.4293468 40.0168114,81.2233907 39.9718883,80.9612647 C39.9361162,80.5809741 40.1453413,80.2148299 40.5908285,79.8557589 C41.3312274,79.2703443 42.3399168,78.9686914 43.624384,78.9528806 C45.8089766,78.9528806 47.1716433,79.4958558 47.7152957,80.575149 Z M43.2899567,84.1517122 C42.776253,84.3859612 42.4006462,84.7313018 42.1598085,85.1685945 C41.9143954,85.6133765 41.8016718,86.1122479 41.808743,86.67145 C41.8307886,87.2273235 41.9792843,87.7195378 42.2658769,88.1439322 C42.5607886,88.5679105 42.9908855,88.7771952 43.5536718,88.7655452 C44.2408285,88.7655452 44.7678427,88.4368475 45.1330507,87.7744594 C45.5111533,87.110407 45.7029083,86.2641146 45.7029083,85.2372465 L45.7029083,82.6076654 C45.3177345,83.0395492 44.5074553,83.5471582 43.2899567,84.1517122 Z M73.5047607,80.575149 C73.7913533,81.1272779 73.9302821,81.8591502 73.9248746,82.764941 L73.9248746,87.8493525 C73.9248746,88.4713816 74.0970798,88.8421026 74.441906,88.9440405 C74.834567,89.0230943 75.3041795,88.8887028 75.8603105,88.5383693 L76.0175413,88.8529205 C75.2480256,89.3538723 74.4988917,89.6122536 73.7601567,89.6122536 C72.3741966,89.6122536 71.6342137,89.1071411 71.5535185,88.0998284 C71.2831481,88.5229746 70.8551311,88.8991046 70.2711311,89.2228093 C69.7083447,89.5356962 69.0274274,89.6871468 68.2292108,89.68257 C67.3473875,89.6476198 66.6044929,89.3763403 66.001359,88.8678991 C65.4161111,88.3561294 65.1278547,87.6691929 65.1278547,86.7933594 C65.1278547,85.3907774 65.9219117,84.4163346 67.5195926,83.8741915 C70.1787892,82.9617435 71.5052678,81.9269701 71.4823903,80.768623 C71.4628405,79.890709 70.773188,79.4542485 69.4063618,79.4542485 C68.8523105,79.4542485 68.4534103,79.5620114 68.209661,79.7871069 C68.1335413,79.8557589 67.980886,80.1657333 67.7583504,80.7161978 C67.6360598,81.0016238 67.4958832,81.2283836 67.3315812,81.3973092 C67.1797578,81.5641545 66.9984017,81.6669245 66.7875128,81.7060353 C66.5595698,81.7626213 66.3320427,81.7181015 66.1020199,81.5716438 C65.9081852,81.4293468 65.7950456,81.2233907 65.7538661,80.9612647 C65.7235014,80.5809741 65.928567,80.2148299 66.3765499,79.8557589 C67.1077977,79.2703443 68.1227265,78.9686914 69.4063618,78.9528806 C71.5897066,78.9528806 72.9536211,79.4958558 73.5047607,80.575149 Z M69.067359,84.1517122 C68.556151,84.3859612 68.1847037,84.7313018 67.9455299,85.1685945 C67.6992849,85.6133765 67.5857293,86.1122479 67.5940484,86.67145 C67.6111026,87.2273235 67.76251,87.7195378 68.0478547,88.1439322 C68.3423504,88.5679105 68.7720313,88.7771952 69.3364815,88.7655452 C70.0261339,88.7655452 70.5506524,88.4368475 70.9129487,87.7744594 C71.2952108,87.110407 71.4823903,86.2641146 71.4823903,85.2372465 L71.4823903,82.6076654 C71.0951368,83.0395492 70.289433,83.5471582 69.067359,84.1517122 Z M84.4350444,88.4714232 C83.4475687,89.2719476 82.4089305,89.6730419 81.3062353,89.6730419 C79.9618707,89.6730419 78.8837168,89.2103688 78.0680302,88.2958404 C77.266902,87.3746549 76.8630103,86.1060484 76.8630103,84.4750425 C76.8630103,82.8432043 77.303506,81.5246691 78.1807538,80.5277583 C79.0405316,79.5229421 80.122845,79.0182457 81.4197909,79.0182457 C82.5607538,79.0448743 83.5577966,79.379397 84.4350444,80.0322154 L84.4350444,76.5538455 C84.4350444,75.3863448 83.9646,74.891218 83.0087368,75.0776187 L83.0087368,74.7177156 L86.8920872,74.1060883 L86.8920872,87.0080946 C86.8974946,88.1668578 87.3920644,88.6544953 88.3891071,88.4963876 L88.3891071,88.8421442 L84.8193863,89.6946777 C84.6114091,89.4895537 84.4791356,89.0876272 84.4350444,88.4714232 Z M80.0616997,80.9696278 C79.5766969,81.7897076 79.3396028,82.8823152 79.3396028,84.2424577 C79.329204,85.6225717 79.5991584,86.759283 80.1523778,87.6563363 C80.7209875,88.5650396 81.4139675,89.0010841 82.240053,88.9615571 C82.7595801,88.9224463 83.2612211,88.6736347 83.7316655,88.2176187 C84.1996142,87.7120901 84.4350444,87.0875645 84.4350444,86.3282314 L84.4350444,80.9013918 C84.1996142,80.6022354 83.8714262,80.3388612 83.4454889,80.098371 C83.0087368,79.858713 82.5757282,79.7397162 82.1323208,79.7397162 C81.254657,79.7284822 80.5616769,80.1428909 80.0616997,80.9696278 Z M98.2127026,80.2995839 C99.0774718,81.2037105 99.5545715,82.4011684 99.6165487,83.9019436 L92.1593179,83.9019436 C92.0686399,85.1980108 92.3627197,86.3085095 93.0407254,87.2396808 C93.7270501,88.1666914 94.5793407,88.6139698 95.5938536,88.5848447 C96.4727652,88.5648732 97.2131641,88.2578113 97.8083949,87.6657395 C98.4106969,87.0732516 98.8586798,86.2906184 99.1531755,85.3157595 L99.4838593,85.3157595 C99.2051698,86.6713252 98.609939,87.7343916 97.7027425,88.5062069 C96.7988735,89.2672043 95.7261271,89.6508236 94.4840872,89.6508236 C93.1047823,89.6508236 91.9313749,89.1461271 90.963865,88.1309091 C90.0104974,87.1319179 89.5329818,85.8895241 89.5329818,84.4028954 C89.5329818,82.8621773 90.0104974,81.5810886 90.963865,80.5483956 C91.921808,79.4886577 93.1684234,78.954004 94.6804177,78.954004 C96.1874205,78.954004 97.3624917,79.4066914 98.2127026,80.2995839 Z M93.5115858,79.8585466 C93.1879732,80.1302422 92.9458877,80.4888971 92.7666114,80.921613 C92.5827595,81.3397663 92.4533977,81.7604161 92.3627197,82.1864748 C92.2766171,82.5946423 92.222543,83.0028099 92.1884348,83.3984953 L96.9631755,83.3984953 C96.9877168,82.895047 96.9340587,82.352904 96.794298,81.7745626 C96.6690957,81.184155 96.4070444,80.6378512 96.0152154,80.1427244 C95.6329533,79.6355315 95.1650046,79.392961 94.6159447,79.4100199 C94.2124689,79.4249986 93.8397738,79.5752009 93.5115858,79.8585466 Z M128.526504,75.8698632 C128.526504,76.279279 128.382168,76.6250356 128.105142,76.9017241 C127.828116,77.1750841 127.490361,77.3140524 127.086054,77.3140524 C126.681746,77.3140524 126.338583,77.1750841 126.047415,76.9017241 C125.760823,76.6250356 125.611079,76.279279 125.611079,75.8698632 C125.611079,75.4537903 125.760823,75.1142747 126.047415,74.8388344 C126.338583,74.5629781 126.681746,74.4277543 127.086054,74.4277543 C127.490361,74.4277543 127.823541,74.5750442 128.095159,74.8629667 C128.382168,75.1192676 128.526504,75.4537903 128.526504,75.8698632 Z M124.437672,79.5841465 L128.389239,79.0178712 L128.389239,87.0243631 C128.396726,88.3495554 128.879649,89.0394044 129.827193,89.0926617 L129.827193,89.4446594 L124.437672,89.4446594 L124.437672,89.0926617 C125.405182,89.0481419 125.875626,88.3562126 125.868555,87.0243631 L125.868555,81.3582816 C125.875626,80.2407096 125.405182,79.7713793 124.437672,79.9394728 L124.437672,79.5841465 Z M55.916045,99.1364548 C55.3703128,98.8227358 55.1016063,98.4778113 55.1016063,98.0962724 C55.1016063,97.8324822 55.2076746,97.6248618 55.4131561,97.4530237 C55.6119823,97.3057338 55.8382615,97.2300085 56.099065,97.2300085 C56.3552929,97.249564 56.5678456,97.3252893 56.7521134,97.4530237 C56.9301419,97.5782616 57.1077544,97.7887945 57.2907744,98.0962724 C57.6214581,98.6384155 57.7982387,98.9342434 57.8552245,98.9750185 C58.0619538,99.1418638 58.4209225,99.1872157 58.9312986,99.1098262 C59.7844211,98.9284184 60.2066148,98.3209518 60.2066148,97.2720319 L60.2066148,76.9814021 C60.2066148,75.7419208 59.5885066,75.1211399 58.3502103,75.1211399 L58.3502103,74.7175492 L64.6955949,74.7175492 L64.6955949,75.1211399 C63.4656177,75.1211399 62.8479254,75.7419208 62.8479254,76.9814021 L62.8479254,95.5320148 C62.8658114,96.7644229 62.4594239,97.7550926 61.6341704,98.4990311 C60.7519311,99.2887375 59.6683698,99.6827586 58.3843185,99.6827586 C57.3702217,99.6827586 56.5482957,99.5017669 55.916045,99.1364548 Z M113.29625,74.7175492 L113.29625,75.1211399 C112.043811,75.0899345 111.424455,75.7132117 111.424455,76.9814021 L111.424455,81.5369849 L118.791007,81.5369849 L118.791007,76.9814021 C118.791007,75.7464976 118.171235,75.1253007 116.92462,75.1211399 L116.92462,74.7175492 L123.286643,74.7175492 L123.286643,75.1211399 C122.046683,75.0899345 121.436893,75.7132117 121.436893,76.9814021 L121.436893,87.1905842 C121.436893,88.4475406 122.046683,89.0624964 123.286643,89.0416928 L123.286643,89.4448675 L116.92462,89.4448675 L116.92462,89.0416928 C118.171235,89.0795554 118.791007,88.4571103 118.791007,87.1905842 L118.791007,81.9830151 L111.424455,81.9830151 L111.424455,87.1905842 C111.424455,88.4475406 112.043811,89.0624964 113.29625,89.0416928 L113.29625,89.4448675 L106.911765,89.4448675 L106.911765,89.0416928 C108.158381,89.0795554 108.78148,88.4571103 108.78148,87.1905842 L108.78148,76.9814021 C108.78148,75.7464976 108.158381,75.1253007 106.911765,75.1211399 L106.911765,74.7175492 L113.29625,74.7175492 Z M134.428273,86.9457669 C134.428273,88.3645757 134.908284,89.0872944 135.868723,89.1014409 L135.868723,89.4447011 L130.440102,89.4447011 L130.440102,89.1014409 C131.432153,89.0872944 131.93213,88.3645757 131.93213,86.9457669 L131.93213,76.5564252 C131.946689,75.386012 131.456695,74.8913012 130.440102,75.0777019 L130.440102,74.7173827 L134.428273,74.1282234 L134.428273,78.9779698 L134.428273,86.9457669 Z M141.00106,86.9457669 C141.00106,88.3645757 141.485647,89.0872944 142.446501,89.1014409 L142.446501,89.4447011 L137.024536,89.4447011 L137.024536,89.1014409 C138.014091,89.0872944 138.507413,88.3645757 138.507413,86.9457669 L138.507413,76.5564252 C138.526963,75.386012 138.033641,74.8913012 137.024536,75.0777019 L137.024536,74.7173827 L141.00106,74.1282234 L141.00106,78.9779698 L141.00106,86.9457669 Z" id="Combined-Shape" fill="#653811" fill-rule="nonzero"></path>
            <path d="M-0.000415954416,67.0385067 L-0.000415954416,66.1838928 L49.0185641,66.1838928 L49.0185641,67.0385067 L-0.000415954416,67.0385067 Z M96.9336011,67.0439156 L96.9336011,66.184725 L145.951749,66.184725 L145.951749,67.0439156 L96.9336011,67.0439156 Z" id="Combined-Shape" fill-opacity="0.49889606" fill="#37302A"></path>
            <path d="M42.323886,19.491343 C43.673701,16.0921774 48.2112266,15.1034483 49.9779697,15.1034483 C50.09198,15.1034483 50.1939235,15.1095869 50.2842163,15.1173625 C50.4310981,15.8449951 50.3849115,16.1077286 50.7860279,16.8689191 C51.2686991,17.7798922 52.1845262,17.9112589 53.0633207,17.8253181 C52.8598498,18.1187447 52.8020125,19.6047031 52.995497,20.3646658 C53.368319,21.862083 54.0161802,22.5446989 55.3793103,22.8491751 C50.2962831,24.4132988 44.0132353,32.2875277 45.0052078,43.2965517 C43.1240384,39.0105583 42.0475983,33.7292879 42.5431685,29.4502516 C42.5918517,28.264677 42.710023,27.1744558 42.8764613,26.1820435 C41.7775521,26.493886 40.9878021,27.2088321 40.2758621,28.0751979 C40.3295384,27.2857697 40.6045778,26.3895293 41.0102713,25.7429266 C41.6032079,24.7963495 42.4491309,23.9373501 43.5160007,23.496187 C43.6375007,23.0955389 43.7748123,22.7186269 43.9050503,22.3638139 C42.462862,22.3523551 41.1467507,23.4794081 40.3029083,24.5585797 C40.2521446,24.5295236 40.7822508,23.0468391 41.034821,22.5753921 C41.7301172,21.2514936 42.7516326,20.1457213 44.2633089,19.8748029 C44.8375212,19.7733109 45.1820486,19.5605049 45.487463,19.21756 C45.5889904,19.0595925 45.6855246,18.916767 45.7749852,18.7878557 C44.5175435,18.4461385 43.4344459,18.7424298 42.323886,19.491343 Z" id="Combined-Shape-path" stroke-opacity="0.485450634" stroke="#653811" fill="#653811"></path>
            <path d="M55.6319755,4.69259809 C54.1614629,3.28093639 53.7133505,1.19152838 54.5466969,0 C54.9486985,0.0474959321 55.5984404,0.235827628 55.8658826,0.913160921 C56.129552,1.59132023 56.3139949,3.32141118 59.2541818,4.46957371 C58.7310348,3.45729085 59.2424445,1.98532996 60.3138899,2.22446165 C60.4559947,3.03726161 60.8647033,5.02300458 63.6439219,4.47659485 C66.435297,3.93142415 68.0600709,4.50591843 68.3149374,6.05593785 C68.5614201,7.61173938 67.2548101,8.560419 66.3795449,8.45055884 C65.5101483,8.3415247 64.797109,7.55020117 65.6011122,6.43342725 C64.639075,7.1033264 64.2400077,8.59758973 65.8513676,9.34926448 C67.080847,9.92293273 68.1841506,8.94410353 68.7890394,8.47616534 C69.5536389,7.89217188 71.2362608,7.184689 71.5179554,8.64178159 C71.7527008,9.83000591 70.7474872,10.2136904 70.2981173,9.8803929 C70.6548466,10.2269067 71.2819523,10.2215376 71.7132971,9.3810661 C72.240636,9.91136851 72.6547941,10.2269067 73.5526955,9.71477665 C72.8329491,9.93738802 71.9975068,9.54585633 71.8570787,8.65871492 C71.724196,7.76744343 72.1127836,6.61225976 73.4302925,6.37767116 C74.6031814,6.17860125 75.7848733,7.67658165 75.463775,9.32200594 C75.1422576,11.0438367 74.2866942,12.0689228 72.1266168,12.2221489 C69.9669586,12.3795049 67.6962154,11.7347993 67.0003628,15.0190397 C66.2776821,18.4602233 68.7576003,18.3090623 68.9625833,18.190116 C68.0852222,19.0714753 64.9299917,20.434815 64.616858,17.374838 C62.967352,17.6953323 62.1331672,17.7742168 61.0730399,16.4959567 C59.9542263,15.1499633 61.106575,12.6603505 61.994835,12.8713976 C62.2077827,11.6344383 62.9539379,10.3983051 64.3372594,10.600266 C65.6732126,10.7943798 66.0148511,11.9846692 65.8496909,12.7669065 C65.687465,13.556165 65.0716773,13.9823894 64.3137848,14.0550788 C64.8159725,14.265713 65.4707446,14.3858983 66.0647345,13.5322106 C67.1173164,12.0115147 65.7620805,9.17084498 63.3907322,10.2492091 C62.5129518,10.2587083 61.5412733,10.5081652 61.1187315,12.3452253 C59.5782144,12.5323179 58.3541845,15.2581714 59.281429,17.2108738 C60.2141231,19.15862 62.9631601,18.9252704 64.2060534,18.6225355 C64.5036772,19.5319793 65.7448938,20.6140605 67.6056707,20.0916053 C69.4718972,19.5712151 70.0017512,18.1000802 70.1673306,17.0737551 C70.5005853,17.3566656 70.7323964,18.1050363 70.5697514,18.8141712 C73.8809199,23.6777547 65.687465,23.5063563 64.2672549,24.1655172 C64.1356298,23.2205547 64.7929171,23.0726978 65.522724,22.778636 C66.2542076,22.4899434 66.3984084,21.8696052 66.1502489,21.400841 C65.8731654,20.8763207 64.6801554,22.1277353 63.8124356,22.3660409 C62.938428,22.6022816 60.9833336,23.0685677 58.7310348,22.9029515 C56.5508363,22.7460084 54.7898262,21.6337776 54.560111,19.2333744 C54.3593197,17.1633778 55.6319755,17.3211469 55.7451563,16.7507827 C55.8658826,16.1804185 55.3071045,16.3419047 54.9579207,16.4426787 C54.5940652,16.5434527 53.0028263,16.8337974 52.7404144,15.134682 C52.6284912,14.3809422 52.4289575,14.0298853 52.4289575,14.0298853 C52.4289575,14.0298853 53.0321695,14.1029878 53.8596473,13.6197683 C54.6883826,13.1344838 56.5717957,11.2895766 57.6025798,10.9674302 C58.6279144,10.6469359 59.3334084,11.1380026 59.3811959,11.3820904 C59.7605613,10.6543701 60.8873395,9.43517016 63.0222656,10.0509652 C63.0222656,10.0509652 61.6951154,8.16393121 59.3401154,10.2731636 C58.8425389,9.95556038 58.0494346,9.92375875 56.4296909,10.9207603 C53.1730168,12.9155895 49.8752623,12.9155895 46.1993999,10.7555571 C43.5962404,9.22494904 40.1521891,8.54431168 38.262069,8.63641249 C38.8535437,7.82278652 40.2905213,6.86625975 42.1026724,6.57963212 C43.4855747,6.36404189 45.124601,6.73781423 46.8822576,7.51344345 C49.1525816,8.51333607 50.1037199,9.81059453 52.2000807,9.08287425 C51.0846206,8.77600923 49.6174614,8.32830844 47.9650211,6.51933294 C46.0619061,4.44561924 43.8368545,4.41092656 42.2049543,4.38614608 C43.4021562,3.35486484 45.511931,2.28063076 47.4858888,3.10747298 C48.4332544,3.49693963 49.66986,4.45594445 50.5409333,5.50374601 C51.0946811,6.16538499 53.4576457,7.74101092 54.9076181,7.56837353 C53.8663543,7.50229223 52.8049694,6.48835733 51.8651492,5.07421758 C50.3745156,2.82993154 49.7516017,2.56065025 48.2391702,1.81021452 C50.5371606,0.827668243 52.7894595,2.7208974 53.7464664,3.99957049 C54.086009,4.45511843 57.3011834,9.41038968 61.6837973,7.0930012 C58.6191115,6.46522888 57.0970387,6.10797687 55.6319755,4.69259809 Z" id="Combined-Shape-path" stroke-opacity="0.485450634" stroke="#653811" fill="#FDA505"></path>
            <path d="M73.877957,15.9719451 C73.8597403,14.7209945 73.1534289,14.2972655 72.7294765,14.0965517 C77.8980528,14.1585004 82.6944287,15.7324102 86.7468177,18.3454059 C88.6049218,19.5414287 90.133883,22.1564894 88.7829487,25.1857804 C91.7530998,24.0265139 94.3038526,25.6437877 95.3227461,27.4613623 C97.4541007,31.2509703 98.6758621,35.6253738 98.6758621,40.2773075 C98.6758621,54.736132 86.9057999,66.4551724 72.407372,66.4551724 C59.3443377,66.4551724 48.540589,56.9237468 46.5247449,44.4621481 C46.3889476,43.6023003 46.3144247,42.7341926 46.3173228,41.8450224 C46.3492021,36.8172666 48.8419927,32.2681678 52.7888077,29.4742818 C56.8184258,26.6209251 61.3498315,26.1893492 65.1927284,27.0814104 C66.7837921,27.4514505 69.9721296,28.9555648 70.8895892,27.8735276 C70.6631224,28.7808695 70.0392002,29.5292096 69.2148943,29.9310501 C69.2148943,29.9310501 69.2095121,29.9310501 69.207028,29.9314631 C68.7019284,30.1792579 68.1227199,30.4154889 67.8184182,30.5654047 C64.1386435,32.2912953 61.5866486,36.0234974 61.5866486,40.348755 C61.5866486,46.3086321 66.4269102,51.1439339 72.407372,51.1439339 C78.3807955,51.1439339 83.2260253,46.3086321 83.2260253,40.348755 C83.2260253,36.0206065 80.6781705,32.2912953 76.9913577,30.5654047 C76.6882979,30.4154889 76.1157137,30.1792579 75.6031619,29.9314631 L75.5986077,29.9310501 C74.5436948,29.41605 73.8228929,28.3385558 73.8228929,27.0917351 C73.8228929,25.8263299 74.5614975,24.7368589 75.6424934,24.2305316 C73.6937199,23.0117943 73.4962342,21.2107394 73.4511065,20.5359117 C73.3803097,19.5439066 73.9081802,17.775891 73.877957,15.9719451 Z" id="Combined-Shape-path" stroke-opacity="0.485450634" stroke="#653811" fill="url(#linearGradient-1)"></path>
        </g>
    </g>
</svg>