<?xml version="1.0" encoding="UTF-8"?>
<svg width="14px" height="14px" viewBox="0 0 14 14" version="1.1" xmlns="http://www.w3.org/2000/svg" xmlns:xlink="http://www.w3.org/1999/xlink">
    <!-- Generator: Sketch 48.2 (47327) - http://www.bohemiancoding.com/sketch -->
    <title></title>
    <desc>Created with Sketch.</desc>
    <defs></defs>
    <g id="side-bar" stroke="none" stroke-width="1" fill="none" fill-rule="evenodd" transform="translate(-293.000000, -809.000000)">
        <g fill="#9A7554" id="newsletter">
            <g transform="translate(0.000000, 700.000000)">
                <g id="Group-3" transform="translate(0.000000, 92.000000)">
                    <path d="M306.781266,17.0859233 C306.945329,17.2031109 307.023454,17.3906112 306.992204,17.5859239 L304.992202,29.5859382 C304.968764,29.7343759 304.875014,29.859376 304.742201,29.9375011 C304.671889,29.9765637 304.585951,30.0000012 304.500014,30.0000012 C304.437514,30.0000012 304.375014,29.9843762 304.312513,29.9609386 L300.773447,28.5156244 L298.88282,30.8203147 C298.789069,30.9375023 298.648444,31.0000024 298.500007,31.0000024 C298.445319,31.0000024 298.382819,30.9921899 298.328131,30.9687523 C298.132819,30.8984398 298.000006,30.7109395 298.000006,30.5000018 L298.000006,27.773436 L304.750014,19.4999887 L296.398442,26.7265598 L293.3125,25.4609333 C293.132813,25.3906207 293.015625,25.226558 293,25.0312453 C292.992187,24.843745 293.085938,24.6640573 293.25,24.5703072 L306.250016,17.0702983 C306.328141,17.0234232 306.414078,16.9999857 306.500016,16.9999857 C306.601579,16.9999857 306.703141,17.0312357 306.781266,17.0859233 Z" id=""></path>
                </g>
            </g>
        </g>
    </g>
</svg>