<?xml version="1.0" encoding="UTF-8"?>
<svg width="796px" height="679px" viewBox="0 0 796 679" version="1.1" xmlns="http://www.w3.org/2000/svg" xmlns:xlink="http://www.w3.org/1999/xlink">
    <!-- Generator: Sketch 48.2 (47327) - http://www.bohemiancoding.com/sketch -->
    <title>overall_border_bg</title>
    <desc>Created with Sketch.</desc>
    <defs></defs>
    <g id="Page-Design" stroke="none" stroke-width="1" fill="none" fill-rule="evenodd">
        <path d="M258.188749,4.76567982 L255.191798,90.0931966 L235.262366,169.286165 L258.188749,230.207504 L281.124358,254.271183 L295.12846,275.66678 L341.677553,275.66678 L345.341812,272.517447 L347.590829,252.323004 L347.590829,225.357161 L354.474594,204.199109 L341.677553,194.952752 L343.436021,190.657509 L352.655064,183.321545 L354.474594,160.773114 L380.774237,119.458109 L450.51344,158.002715 L476.421985,179.057413 L483.372068,198.770899 L472.65329,284.295394 L463.688595,303.059044 L456.958616,326.775706 L469.228285,363.785568 L508.463923,418.236532 L505.866901,426.826216 L483.372068,421.10919 L456.958616,449.070644 L447.247989,462.042349 L409.744309,473.514705 L295.12846,502.277209 L283.831033,509.483484 L263.675113,512.140608 L269.835493,502.277209 L279.385588,492.006367 L339.493631,471.477239 L389.452321,412.376302 L385.628554,381.670905 L374.610069,356.071492 L354.474594,339.514778 L339.493631,342.864458 L328.456535,345.660649 L312.234277,326.417411 L266.658142,312.973717 L214.814479,312.973717 L175.963477,336.342406 L112.131012,329.935365 L94.0376006,336.342406 L2.52595335,431.149364 C-0.216131822,440.574844 -0.216131822,446.548604 2.52595335,449.070644 C3.51833024,449.983386 13.5492607,460.426481 22.938542,467.497462 C27.6457347,471.042406 45.9441294,469.307806 56.820564,477.064895 C66.5701746,484.018332 83.2692054,500.718011 106.917657,527.163932 L144.537195,595.391493 L179.792035,595.391493 L214.814479,622.028396 L241.370011,639.671331 L258.188749,636.31605 L325.818711,628.358763 L345.341812,648.924072 L374.610069,667.67914 L409.744309,656.155585 L423.049386,678.79136 L456.958616,678.79136 L472.65329,656.155585 L494.445321,656.155585 L512.483718,667.67914 L536.070013,667.67914 L561.734451,645.686656 L633.563331,611.954126 L699.865962,611.954126 L727.886864,622.028396 L775.749076,595.391493 L782.914337,546.440585 C788.521859,529.922933 790.793796,516.514868 789.730148,506.21639 C788.666501,495.917913 784.006143,486.200748 775.749076,477.064895 L762.080343,452.377948 L762.080343,395.391096 L789.730148,391.874649 L789.730148,326.417411 L795.39556,297.573871 L772.369002,275.66678 L741.267997,275.66678 L722.202898,284.295394 L699.865962,289.77707 L690.319497,308.055172 L690.319497,336.342406 L681.604906,349.02781 L657.774306,421.10919 L667.224905,442.140974 L643.650155,442.140974 L617.229108,412.376302 L576.940142,412.376302 L572.799321,381.670905 L557.602906,360.532807 L521.090072,356.071492 L512.483718,336.342406 L536.070013,297.573871 L548.804819,284.295394 L557.602906,326.417411 L597.86006,321.848798 L605.653758,303.059044 L652.730482,289.77707 L674.679028,208.781266 L674.679028,183.321545 L643.650155,125.888131 L617.229108,127.262932 L597.86006,111.533802 L568.597505,111.533802 L544.459844,119.458109 L516.588241,79.139935 L434.578253,49.2444124 L409.744309,41.3709323 L368.443235,72.7563278 L325.818711,72.7563278 L325.818711,41.3709323 L312.234277,31.1311082 L300.248575,0.0874279102 L258.188749,4.76567982 Z" id="overall_border_bg" fill="#FFFFFF"></path>
    </g>
</svg>