<?xml version="1.0" encoding="UTF-8"?>
<svg width="70px" height="70px" viewBox="0 0 70 70" version="1.1" xmlns="http://www.w3.org/2000/svg" xmlns:xlink="http://www.w3.org/1999/xlink">
    <!-- Generator: Sketch 48.2 (47327) - http://www.bohemiancoding.com/sketch -->
    <title>overall_ico-5</title>
    <desc>Created with Sketch.</desc>
    <defs></defs>
    <g id="01.-Trang-chủ-op1" stroke="none" stroke-width="1" fill="none" fill-rule="evenodd" transform="translate(-976.000000, -1320.000000)" opacity="0.5">
        <g id="overall_ico-5" transform="translate(976.000000, 1320.000000)" fill="#D49156" fill-rule="nonzero">
            <path d="M38.1818182,19.0909091 C38.1818182,8.56395722 29.617861,0 19.0909091,0 C8.56395722,0 0,8.56395722 0,19.0909091 C0,29.617861 8.56395722,38.1818182 19.0909091,38.1818182 C29.617861,38.1818182 38.1818182,29.617861 38.1818182,19.0909091 Z M2.2459893,19.0909091 C2.2459893,9.80262032 9.80262032,2.2459893 19.0909091,2.2459893 C28.3791979,2.2459893 35.9358289,9.80262032 35.9358289,19.0909091 C35.9358289,28.3791979 28.3791979,35.9358289 19.0909091,35.9358289 C9.80262032,35.9358289 2.2459893,28.3791979 2.2459893,19.0909091 Z" id="Shape"></path>
            <path d="M15.8544087,22.4279655 L25.4545455,27.1900826 L22.3274094,16.3323651 L12.7272727,11.5702479 L15.8544087,22.4279655 Z M20.4112554,17.9076834 L21.8409661,22.8709531 L17.7705628,20.8526472 L16.3408521,15.8893775 L20.4112554,17.9076834 Z" id="Shape"></path>
            <path d="M61.0108074,54.2355372 L61.0108074,56.4876033 L67.7527018,56.4876033 L67.7527018,63.2438017 C67.7527018,65.7278306 65.7368754,67.7479339 63.2581055,67.7479339 C60.7793357,67.7479339 58.7635092,65.7278306 58.7635092,63.2438017 L58.7635092,6.94214876 L38.5378258,6.94214876 L38.5378258,9.19421488 L56.5162111,9.19421488 L56.5162111,14.8243802 L51.4597902,14.8243802 C49.4068833,14.8243802 47.3708312,15.5045041 45.7280563,16.7386364 C44.0403353,18.0076756 43.0324221,20.028905 43.0324221,22.143595 C43.0324221,24.2582851 44.0403353,26.2795145 45.7291799,27.5485537 L47.6157867,28.9673554 L48.0753592,31.7283884 C48.5079641,34.3295248 50.7327893,36.2190083 53.365499,36.2190083 L56.5162111,36.2190083 L56.5162111,58.2734917 L55.0633328,56.817531 L53.474493,58.4097417 L56.5162111,61.4579132 L56.5162111,63.2438017 C56.5162111,64.9756405 57.1746694,66.5509607 58.2466306,67.7479339 L52.0216147,67.7479339 L52.0216147,66.3831818 C52.0216147,65.5803202 51.7867721,64.8022314 51.3429307,64.1333678 L50.4541243,62.7967665 C49.7024031,61.6673554 48.4416688,60.9917355 47.0854243,60.9917355 L46.8438398,60.9917355 C46.2404402,60.9917355 45.680863,60.6910847 45.3460156,60.19 L44.8347552,59.4186674 C44.0841577,58.2892562 42.8234234,57.6136364 41.467179,57.6136364 C39.9244088,57.6136364 38.5378258,58.4727996 37.8479053,59.8555682 L36.948986,61.656095 C36.73774,62.0806095 36.3590702,62.4094112 35.908487,62.5602996 L34.8365257,62.9172521 C33.8241179,63.255062 32.9712683,63.9971178 32.4959647,64.9519938 L31.1015162,67.7479339 L18.3121424,67.7479339 C16.6794803,67.7479339 15.3816656,66.9045351 14.6063477,65.4958678 L16.7233026,65.4958678 C18.0480849,65.4958678 19.293088,64.9790186 20.2302114,64.039907 C21.1673347,63.1007955 21.6830896,61.8531508 21.6830896,60.5255579 L21.6830896,59.9895661 C21.6830896,58.9524897 22.258398,58.0212603 23.1831612,57.5584607 L25.6832804,56.305186 C27.3732486,55.4584091 28.4249841,53.7547211 28.4249841,51.8596074 L28.4249841,50.4531921 C28.4249841,48.9352996 27.7463001,47.5210021 26.5642212,46.5717562 L23.4371058,44.0640806 C22.5595359,43.362562 21.4606071,42.9752066 20.3380817,42.9752066 L13.8175461,42.9752066 L13.8175461,39.5971074 L11.5702479,39.5971074 L11.5702479,62.1177686 C11.5702479,66.7581508 14.3434139,70 18.3121424,70 L63.2581055,70 C66.9762603,70 70,66.969845 70,63.2438017 L70,54.2355372 L61.0108074,54.2355372 Z M56.5162111,33.9669421 L53.365499,33.9669421 C51.8362127,33.9669421 50.5428926,32.8690599 50.2923188,31.3590496 L49.6855483,27.7073244 L47.0786825,25.7480269 C45.9527861,24.900124 45.2797203,23.5533884 45.2797203,22.143595 C45.2797203,20.7338017 45.9527861,19.3870661 47.0786825,18.5402893 C48.3337985,17.5966736 49.8900524,17.0764463 51.4597902,17.0764463 L56.5162111,17.0764463 L56.5162111,33.9669421 Z M13.8175461,62.1177686 L13.8175461,45.2272727 L20.3380817,45.2272727 C20.9515941,45.2272727 21.55387,45.4389669 22.0325445,45.8229442 L25.1596599,48.3294938 C25.8068818,48.8497211 26.177686,49.6221798 26.177686,50.4531921 L26.177686,51.8596074 C26.177686,52.8966839 25.6023776,53.8279132 24.6776144,54.2907128 L22.1774952,55.5439876 C20.487527,56.3907645 19.4357915,58.0944525 19.4357915,59.9895661 L19.4357915,60.5255579 C19.4357915,61.2518492 19.1537556,61.9342252 18.6413716,62.4476963 C18.1289876,62.9611674 17.4469326,63.2438017 16.7233026,63.2438017 L13.8950779,63.2438017 C13.846761,62.8834711 13.8175461,62.5096281 13.8175461,62.1177686 Z M49.7743166,67.7479339 L33.6139955,67.7479339 L34.5072966,65.9575413 C34.7185426,65.5330269 35.0972123,65.2042252 35.5477956,65.0533368 L36.6197568,64.6963843 C37.6321647,64.3585744 38.4850143,63.6165186 38.9603179,62.6616426 L39.8592371,60.8622417 C40.1648697,60.2474277 40.781753,59.8657025 41.467179,59.8657025 C42.0705785,59.8657025 42.6301558,60.1663533 42.9650032,60.667438 L43.4762635,61.4387707 C44.2279847,62.5681818 45.488719,63.2438017 46.8449634,63.2438017 L47.086548,63.2438017 C47.6899476,63.2438017 48.2495248,63.5444525 48.5843722,64.0466632 L49.4731786,65.3832645 C49.6698172,65.6794112 49.7743166,66.0262293 49.7743166,66.3831818 L49.7743166,67.7479339 Z" id="Shape"></path>
            <rect id="Rectangle-path" transform="translate(39.917355, 32.396694) rotate(-135.000000) translate(-39.917355, -32.396694) " x="37.6033058" y="31.2396694" width="4.62809917" height="2.31404959"></rect>
            <rect id="Rectangle-path" transform="translate(46.570248, 40.495868) rotate(63.434949) translate(-46.570248, -40.495868) " x="43.9669421" y="39.338843" width="5.20661157" height="2.31404959"></rect>
            <rect id="Rectangle-path" transform="translate(50.619835, 50.909091) rotate(63.434949) translate(-50.619835, -50.909091) " x="48.0165289" y="49.7520661" width="5.20661157" height="2.31404959"></rect>
            <rect id="Rectangle-path" transform="translate(21.983471, 51.776860) rotate(56.311522) translate(-21.983471, -51.776860) " x="20.8264463" y="49.7520661" width="2.31404959" height="4.04958678"></rect>
            <rect id="Rectangle-path" x="30.661157" y="49.7520661" width="4.62809917" height="2.31404959"></rect>
            <rect id="Rectangle-path" transform="translate(39.917355, 46.859504) rotate(135.000000) translate(-39.917355, -46.859504) " x="37.6033058" y="45.7024793" width="4.62809917" height="2.31404959"></rect>
            <path d="M19.1917232,8.01944362 C21.7993067,8.01944362 24.3365056,8.93886616 26.3374406,10.6067858 L27.768595,8.89194545 C25.3665793,6.88776072 22.3210469,5.78512397 19.1917232,5.78512397 C11.7991009,5.78512397 5.78512397,11.7987953 5.78512397,19.1910419 C5.78512397,22.3202066 6.88781675,25.3655843 8.89210334,27.768595 L10.6070308,26.3375133 C8.93902643,24.3355629 8.01955717,21.7984929 8.01955717,19.1910419 C8.01955717,13.0310226 13.0313908,8.01944362 19.1917232,8.01944362 Z" id="Shape"></path>
            <path d="M32.3966942,18.9907763 C32.3966942,15.8616116 31.2940014,12.8162339 29.2897148,10.4132231 L27.5747874,11.8443049 C29.2427917,13.8462553 30.162261,16.3833253 30.162261,18.9907763 C30.162261,25.1507956 25.1504273,30.1623746 18.990095,30.1623746 C16.3825114,30.1623746 13.8453125,29.242952 11.8443776,27.5750324 L10.4132231,29.2898727 C12.8152388,31.2940575 15.8607713,32.3966942 18.990095,32.3966942 C26.3827172,32.3966942 32.3966942,26.3830229 32.3966942,18.9907763 Z" id="Shape"></path>
        </g>
    </g>
</svg>