<?xml version="1.0" encoding="UTF-8"?>
<svg width="61px" height="70px" viewBox="0 0 61 70" version="1.1" xmlns="http://www.w3.org/2000/svg" xmlns:xlink="http://www.w3.org/1999/xlink">
    <!-- Generator: Sketch 48.2 (47327) - http://www.bohemiancoding.com/sketch -->
    <title>overall_ico-4</title>
    <desc>Created with Sketch.</desc>
    <defs></defs>
    <g id="01.-Trang-chủ-op1" stroke="none" stroke-width="1" fill="none" fill-rule="evenodd" transform="translate(-495.000000, -1320.000000)" opacity="0.5">
        <g id="overall_ico-4" transform="translate(495.000000, 1320.000000)" fill="#D49156" fill-rule="nonzero">
            <path d="M35.9459766,7.01371972 C35.9459766,6.16860517 36.6290412,5.48363907 37.4718098,5.48363907 L37.8351276,5.48363907 C38.6778961,5.48363907 39.3609608,6.16860517 39.3609608,7.01371972 C39.3609608,7.85883427 38.6778961,8.54380038 37.8351276,8.54380038 L37.4718098,8.54380038 C36.6292108,8.54380038 35.9459766,7.85883427 35.9459766,7.01371972 Z M38.0514568,42.5823147 C38.0514568,43.4274292 38.7345215,44.1123954 39.57729,44.1123954 L39.9406078,44.1123954 C40.7833763,44.1123954 41.466441,43.4274292 41.466441,42.5823147 C41.466441,41.7372001 40.7833763,41.052234 39.9406078,41.052234 L39.57729,41.052234 C38.734691,41.052234 38.0514568,41.7372001 38.0514568,42.5823147 Z M39.7590337,35.568595 C43.6154922,35.568595 46.7531138,38.7149508 46.7531138,42.5823147 C46.7531138,45.9241809 44.4101122,48.7277987 41.2848668,49.4278956 L41.2848668,54.0740705 C41.2848668,54.919185 40.6018022,55.6041511 39.7590337,55.6041511 C38.9162652,55.6041511 38.2332005,54.919185 38.2332005,54.0740705 L38.2332005,49.4278956 C35.1077856,48.7279687 32.7646145,45.9243509 32.7646145,42.5823147 C32.7646145,38.7149508 35.902236,35.568595 39.7590337,35.568595 Z M39.7590337,38.6287563 C37.5850605,38.6287563 35.8162808,40.4024598 35.8162808,42.5823147 C35.8162808,44.7621696 37.5850605,46.5358731 39.7590337,46.5358731 C41.9328373,46.5358731 43.7014475,44.7621696 43.7014475,42.5823147 C43.7014475,40.4024598 41.9328373,38.6287563 39.7590337,38.6287563 Z M15.1846429,22.2262916 C15.1846429,18.3589278 18.322434,15.2125719 22.1792317,15.2125719 C26.0360293,15.2125719 29.1736509,18.3589278 29.1736509,22.2262916 C29.1736509,25.5681578 26.8304798,28.3717756 23.7050648,29.0720425 L23.7050648,33.7180474 C23.7050648,34.563162 23.0220002,35.2481281 22.1792317,35.2481281 C21.3364632,35.2481281 20.6533985,34.563162 20.6533985,33.7180474 L20.6533985,29.0720425 C17.5281531,28.3719456 15.1846429,25.5683278 15.1846429,22.2262916 Z M18.2363092,22.2262916 C18.2363092,24.4063166 20.0050889,26.1798501 22.1792317,26.1798501 C24.3532048,26.1798501 26.1219846,24.4063166 26.1219846,22.2262916 C26.1219846,20.0462667 24.3532048,18.2727332 22.1792317,18.2727332 C20.0050889,18.2727332 18.2363092,20.0462667 18.2363092,22.2262916 Z M30.6591342,7.01371972 C30.6591342,3.14635586 33.7967558,0 37.6533839,0 C41.5101815,0 44.6478031,3.14635586 44.6478031,7.01371972 C44.6478031,10.3555859 42.304632,13.1592037 39.1792171,13.8594706 L39.1792171,18.5054755 C39.1792171,19.3505901 38.4961524,20.0355562 37.6533839,20.0355562 C36.8106154,20.0355562 36.1275507,19.3505901 36.1275507,18.5054755 L36.1275507,13.8593006 C33.0023054,13.1592037 30.6591342,10.3555859 30.6591342,7.01371972 Z M33.7108006,7.01371972 C33.7108006,9.19374464 35.4794107,10.9672781 37.6533839,10.9672781 C39.8273571,10.9672781 41.5961368,9.19374464 41.5961368,7.01371972 C41.5961368,4.8336948 39.8273571,3.06016131 37.6533839,3.06016131 C35.4794107,3.06016131 33.7108006,4.8336948 33.7108006,7.01371972 Z M56.4643637,26.4482942 L53.9097799,25.5210653 L51.8051474,11.0694535 C51.5547412,9.34862281 50.6041472,7.92326767 49.1281579,7.05605195 C48.4008441,6.62847942 47.4661865,6.87397236 47.0404791,7.60280078 C46.614263,8.3317992 46.8583963,9.26922862 47.5855406,9.69629113 C48.2741999,10.1010825 48.6666781,10.6945838 48.7855236,11.5114768 L51.0222255,26.8694064 C51.1034337,27.4272058 51.4840443,27.8950705 52.0126607,28.0870106 L55.42578,29.3258659 C57.7653908,30.1750607 57.9957916,30.7605715 57.9354364,31.1759034 L54.2636037,56.3875524 C54.091015,57.5728549 53.312162,58.3249746 51.9482366,58.6233403 L28.8049079,63.6860372 C28.5990899,63.7309195 28.439047,63.6969177 28.2505218,63.568901 C27.747675,63.227523 27.2892469,62.3434764 27.1354768,61.4196477 L27.0122234,60.6785786 C26.9377967,60.230435 26.6685719,59.8387344 26.27745,59.6093923 C25.885989,59.3795402 25.4138284,59.3368679 24.9877819,59.491406 L4.53941356,66.9129773 C4.2483185,67.0190629 3.88160993,66.7393981 3.77598837,66.6513335 C3.29009527,66.2453521 2.98391142,65.5760268 3.06410243,65.0942214 L10.153971,22.5130968 C10.3265597,21.4757021 10.8906093,20.4915202 11.4380444,20.2723786 C12.2207968,19.9592221 12.601916,19.0690552 12.2894593,18.2842938 C11.9770025,17.4993625 11.0891372,17.1163323 10.3068934,17.4305088 C8.41011322,18.1895989 7.42917203,20.2937998 7.14401077,22.0095302 L0.0541422125,64.5903148 C-0.206436184,66.1559274 0.488156978,67.8878087 1.82343053,69.0028974 C2.60991276,69.6596421 3.50439006,70 4.39242496,70 C4.79236279,70 5.19128339,69.9309764 5.57816687,69.790549 L24.3745665,62.9682593 C24.7972223,64.3123502 25.5687853,65.4439298 26.5390456,66.1028846 C27.4216553,66.7021662 28.4300615,66.9000566 29.4549128,66.6759848 L52.5982416,61.6132879 C55.2162322,61.0406977 56.9239786,59.2970858 57.2828885,56.8297457 L60.9547212,31.6182667 C61.4446832,28.2561695 57.8264241,26.9428503 56.4643637,26.4482942 Z M21.9981661,23.7563723 L22.3611449,23.7563723 C23.2039134,23.7563723 23.886978,23.0714062 23.886978,22.2262916 C23.886978,21.3811771 23.2039134,20.696211 22.3611449,20.696211 L21.9981661,20.696211 C21.1553976,20.696211 20.472333,21.3811771 20.472333,22.2262916 C20.472333,23.0714062 21.1553976,23.7563723 21.9981661,23.7563723 Z M19.1263786,12.3892331 C19.2114862,12.4035138 19.2960851,12.4103142 19.3794974,12.4103142 C20.1117277,12.4103142 20.7581724,11.8802263 20.8826126,11.1320168 L21.6572272,6.47972157 C21.8111668,5.55538285 22.2695949,4.67150626 22.7724417,4.32995825 C22.9611364,4.20211151 23.1218575,4.16810972 23.3269973,4.21299208 L27.106486,5.03974567 C27.9300969,5.22046519 28.7428573,4.69649757 28.922397,3.87093405 C29.1021063,3.04537053 28.5801018,2.23017756 27.75683,2.04996806 L23.9775108,1.22321448 C22.95249,0.999142669 21.9439143,1.1970331 21.0614741,1.79631469 C19.8484367,2.62000811 18.9458217,4.18239047 18.6474365,5.975645 L17.8728219,10.6279402 C17.7339711,11.4614942 18.2951386,12.2501658 19.1263786,12.3892331 Z" id="XMLID_45_"></path>
        </g>
    </g>
</svg>