<?xml version="1.0" encoding="UTF-8"?>
<svg width="51px" height="70px" viewBox="0 0 51 70" version="1.1" xmlns="http://www.w3.org/2000/svg" xmlns:xlink="http://www.w3.org/1999/xlink">
    <!-- Generator: Sketch 48.2 (47327) - http://www.bohemiancoding.com/sketch -->
    <title>overall_ico-3</title>
    <desc>Created with Sketch.</desc>
    <defs></defs>
    <g id="01.-Trang-chủ-op1" stroke="none" stroke-width="1" fill="none" fill-rule="evenodd" transform="translate(-1215.000000, -1135.000000)" opacity="0.5">
        <g id="overall_ico-3" transform="translate(1215.000000, 1135.000000)" fill="#D49156" fill-rule="nonzero">
            <path d="M49.5976811,0 L1.40218138,0 C0.627881399,0 0,0.624257813 0,1.39439453 L0,68.6056055 C0,69.3757422 0.627881399,70 1.40218138,70 L38.0497227,70 C38.4216122,70 38.7781037,69.8530273 39.0412447,69.5916211 L50.5893405,58.1075195 C50.8522066,57.8461133 51,57.4914648 51,57.1215039 L51,1.39439453 C51,0.624257813 50.3721186,0 49.5976811,0 Z M39.449292,65.2416406 L39.4432427,58.5072852 L46.2152055,58.5134375 L39.449292,65.2416406 Z M48.1956372,55.7264258 L38.0409239,55.7172656 C38.0405114,55.7172656 38.040099,55.7172656 38.0396865,55.7172656 C37.6677971,55.7172656 37.3111681,55.8642383 37.0481646,56.1256445 C36.7850236,56.3874609 36.6372302,56.7426562 36.6375052,57.1128906 L36.646579,67.2112109 L2.80436277,67.2112109 L2.80436277,2.78878906 L48.1956372,2.78878906 L48.1956372,55.7264258 Z" id="Shape"></path>
            <path d="M14.4999301,50 C10.9159061,50 8,52.6914767 8,55.9999355 C8,59.3085233 10.9160459,62 14.4999301,62 C18.0840939,62 21,59.3085233 21,55.9999355 C21.0002795,52.6916057 18.0842336,50 14.4999301,50 Z M14.4999301,59.3688929 C12.4876111,59.3688929 10.8505058,57.8575897 10.8505058,56.0000645 C10.8505058,54.1425393 12.4876111,52.6313651 14.4999301,52.6313651 C16.5122491,52.6313651 18.1494942,54.1425393 18.1494942,56.0000645 C18.1494942,57.8575897 16.5125286,59.3688929 14.4999301,59.3688929 Z" id="Shape"></path>
            <path d="M31.6666928,55 L24.3333072,55 C23.5970403,55 23,55.447691 23,56 C23,56.552309 23.5970403,57 24.3333072,57 L31.6666928,57 C32.4029597,57 33,56.552309 33,56 C33,55.447691 32.4029597,55 31.6666928,55 Z" id="Shape"></path>
            <path d="M13.5714543,8 L9.4285457,8 C8.63968705,8 8,8.44769095 8,9 C8,9.55230905 8.63968705,10 9.4285457,10 L13.5714543,10 C14.360313,10 15,9.55230905 15,9 C15,8.44769095 14.360313,8 13.5714543,8 Z" id="Shape"></path>
            <path d="M41.5981527,8 L29.4018473,8 C28.6277318,8 28,8.44769095 28,9 C28,9.55230905 28.6277318,10 29.4018473,10 L41.5981527,10 C42.3722682,10 43,9.55230905 43,9 C43,8.44769095 42.3722682,8 41.5981527,8 Z" id="Shape"></path>
            <path d="M41.6309748,15 L21.3690252,15 C20.6130344,15 20,15.447691 20,16 C20,16.552309 20.6130344,17 21.3690252,17 L41.6309748,17 C42.3869656,17 43,16.552309 43,16 C43,15.447691 42.3869656,15 41.6309748,15 Z" id="Shape"></path>
            <path d="M41.6167595,26 L9.38337616,26 C8.61946062,26 8,26.447691 8,27 C8,27.552309 8.61946062,28 9.38337616,28 L41.6166238,28 C42.3805394,28 43,27.552309 43,27 C43,26.447691 42.380675,26 41.6167595,26 Z" id="Shape"></path>
            <path d="M41.6167595,30 L9.38337616,30 C8.61946062,30 8,30.447691 8,31 C8,31.552309 8.61946062,32 9.38337616,32 L41.6166238,32 C42.3805394,32 43,31.552309 43,31 C43.0001356,30.447691 42.380675,30 41.6167595,30 Z" id="Shape"></path>
            <path d="M41.6167595,35 L9.38337616,35 C8.61946062,35 8,35.447691 8,36 C8,36.552309 8.61946062,37 9.38337616,37 L41.6166238,37 C42.3805394,37 43,36.552309 43,36 C43.0001356,35.447691 42.380675,35 41.6167595,35 Z" id="Shape"></path>
            <path d="M41.4314057,40 L40.5685943,40 C39.7023993,40 39,40.447691 39,41 C39,41.552309 39.7023993,42 40.5685943,42 L41.4314057,42 C42.2976007,42 43,41.552309 43,41 C43,40.447691 42.2976007,40 41.4314057,40 Z" id="Shape"></path>
            <path d="M36.588263,40 L9.41173702,40 C8.63216031,40 8,40.447691 8,41 C8,41.552309 8.63216031,42 9.41173702,42 L36.588263,42 C37.3678397,42 38,41.552309 38,41 C38,40.447691 37.3678397,40 36.588263,40 Z" id="Shape"></path>
        </g>
    </g>
</svg>