<?xml version="1.0" encoding="UTF-8"?>
<svg width="70px" height="70px" viewBox="0 0 70 70" version="1.1" xmlns="http://www.w3.org/2000/svg" xmlns:xlink="http://www.w3.org/1999/xlink">
    <!-- Generator: Sketch 48.2 (47327) - http://www.bohemiancoding.com/sketch -->
    <title>overall_ico-2</title>
    <desc>Created with Sketch.</desc>
    <defs></defs>
    <g id="01.-Trang-chủ-op1" stroke="none" stroke-width="1" fill="none" fill-rule="evenodd" transform="translate(-735.000000, -1135.000000)" opacity="0.5">
        <g id="overall_ico-2" transform="translate(735.000000, 1135.000000)" fill="#D49156" fill-rule="nonzero">
            <path d="M60.9677419,6.77419355 L60.9677419,31.6129032 L70,31.6129032 L70,6.77419355 L60.9677419,6.77419355 Z M67.7419355,29.3548387 L63.2258065,29.3548387 L63.2258065,9.03225806 L67.7419355,9.03225806 L67.7419355,29.3548387 Z" id="Shape"></path>
            <path d="M49.6774194,18.1954839 C48.9548387,17.5496774 48.2017742,16.9445161 47.4193548,16.3833871 L47.4193548,15.8064516 L46.5691935,15.8064516 C42.1693548,12.8958065 36.9679032,11.2903226 31.6129032,11.2903226 L30.483871,11.2903226 L30.483871,39.516129 L58.7096774,39.516129 L58.7096774,38.3870968 C58.7096774,36.0929032 58.4059677,33.8235484 57.8358065,31.6129032 L58.7096774,31.6129032 L58.7096774,11.2903226 L49.6774194,11.2903226 L49.6774194,18.1954839 Z M32.7419355,37.2580645 L32.7419355,13.5732258 C35.9370968,13.72 39.0498387,14.4956452 41.9198387,15.8064516 L38.3870968,15.8064516 L38.3870968,31.6129032 L47.4193548,31.6129032 L47.4193548,19.2691935 C48.2096774,19.9217742 48.9683871,20.613871 49.6774194,21.3658065 L49.6774194,31.6129032 L55.4987097,31.6129032 C56.0203226,33.4543548 56.3398387,35.3443548 56.4267742,37.2580645 L32.7419355,37.2580645 Z M45.1612903,18.0645161 L45.1612903,29.3548387 L40.6451613,29.3548387 L40.6451613,18.0645161 L45.1612903,18.0645161 Z M51.9354839,13.5483871 L56.4516129,13.5483871 L56.4516129,29.3548387 L51.9354839,29.3548387 L51.9354839,13.5483871 Z" id="Shape"></path>
            <rect id="Rectangle-path" transform="translate(14.394742, 39.797983) rotate(-45.000000) translate(-14.394742, -39.797983) " x="7.60939422" y="38.6689619" width="13.5706965" height="2.25804286"></rect>
            <path d="M13.5483871,35 C13.5483871,33.1325806 12.0287097,31.6129032 10.1612903,31.6129032 C8.29387097,31.6129032 6.77419355,33.1325806 6.77419355,35 C6.77419355,36.8674194 8.29387097,38.3870968 10.1612903,38.3870968 C12.0287097,38.3870968 13.5483871,36.8674194 13.5483871,35 Z M9.03225806,35 C9.03225806,34.3767742 9.53806452,33.8709677 10.1612903,33.8709677 C10.7845161,33.8709677 11.2903226,34.3767742 11.2903226,35 C11.2903226,35.6232258 10.7845161,36.1290323 10.1612903,36.1290323 C9.53806452,36.1290323 9.03225806,35.6232258 9.03225806,35 Z" id="Shape"></path>
            <path d="M19.1935484,40.6451613 C17.326129,40.6451613 15.8064516,42.1648387 15.8064516,44.0322581 C15.8064516,45.8996774 17.326129,47.4193548 19.1935484,47.4193548 C21.0609677,47.4193548 22.5806452,45.8996774 22.5806452,44.0322581 C22.5806452,42.1648387 21.0609677,40.6451613 19.1935484,40.6451613 Z M19.1935484,45.1612903 C18.5703226,45.1612903 18.0645161,44.6554839 18.0645161,44.0322581 C18.0645161,43.4090323 18.5703226,42.9032258 19.1935484,42.9032258 C19.8167742,42.9032258 20.3225806,43.4090323 20.3225806,44.0322581 C20.3225806,44.6554839 19.8167742,45.1612903 19.1935484,45.1612903 Z" id="Shape"></path>
            <path d="M49.5159677,58.0808065 C52.5666129,53.586129 54.1935484,48.3666129 54.1935484,42.9032258 L54.1935484,41.7741935 L28.2258065,41.7741935 L28.2258065,15.8064516 L27.0967742,15.8064516 C25.9812903,15.8064516 24.8466129,15.9046774 23.7096774,16.0480645 L23.7096774,0 L0,0 L0,15.8064516 L14.21,15.8064516 L16.415,18.0114516 C6.53145161,22.2554839 0,32.0396774 0,42.9032258 C0,57.8437097 12.1562903,70 27.0967742,70 C33.6485484,70 39.8898387,67.6312903 44.8214516,63.3533871 L48.3146774,66.8466129 C49.001129,67.5330645 49.9043548,67.8774194 50.8064516,67.8774194 C51.7085484,67.8774194 52.6117742,67.5330645 53.2982258,66.8466129 C54.6722581,65.4725806 54.6722581,63.2370968 53.2982258,61.8630645 L49.5159677,58.0808065 Z M15.1448387,13.5483871 L2.25806452,13.5483871 L2.25806452,2.25806452 L21.4516129,2.25806452 L21.4516129,19.8551613 L15.1448387,13.5483871 Z M27.0967742,67.7419355 C13.4004839,67.7419355 2.25806452,56.5995161 2.25806452,42.9032258 C2.25806452,32.6391935 8.62129032,23.4308065 18.1514516,19.7479032 L23.7096774,25.306129 L23.7096774,18.3129032 C24.465,18.2090323 25.2203226,18.1254839 25.9677419,18.0904839 L25.9677419,44.0322581 L51.9106452,44.0322581 C51.7130645,48.4862903 50.33,52.7348387 47.8935484,56.4583871 L46.0927419,54.6575806 C46.2169355,54.146129 46.2903226,53.6143548 46.2903226,53.0645161 C46.2903226,49.3285484 43.2520968,46.2903226 39.516129,46.2903226 C35.7801613,46.2903226 32.7419355,49.3285484 32.7419355,53.0645161 C32.7419355,56.8004839 35.7801613,59.8387097 39.516129,59.8387097 C40.0659677,59.8387097 40.5977419,59.7653226 41.1091935,59.641129 L43.2204839,61.7524194 C38.7201613,65.6091935 33.0490323,67.7419355 27.0967742,67.7419355 Z M44.0322581,53.0645161 C44.0322581,55.5551613 42.0067742,57.5806452 39.516129,57.5806452 C37.0254839,57.5806452 35,55.5551613 35,53.0645161 C35,50.573871 37.0254839,48.5483871 39.516129,48.5483871 C42.0067742,48.5483871 44.0322581,50.573871 44.0322581,53.0645161 Z M51.7017742,65.2501613 C51.2072581,65.7446774 50.4056452,65.7446774 49.911129,65.2501613 L43.3243548,58.6633871 C44.0277419,58.1835484 44.6351613,57.576129 45.115,56.8727419 L51.7017742,63.4595161 C52.1951613,63.9540323 52.1951613,64.7556452 51.7017742,65.2501613 Z" id="Shape"></path>
            <rect id="Rectangle-path" x="4.51612903" y="4.51612903" width="14.6774194" height="2.25806452"></rect>
            <rect id="Rectangle-path" x="4.51612903" y="9.03225806" width="14.6774194" height="2.25806452"></rect>
            <rect id="Rectangle-path" x="38.3870968" y="51.9354839" width="2.25806452" height="2.25806452"></rect>
            <rect id="Rectangle-path" x="28.2258065" y="51.9354839" width="2.25806452" height="2.25806452"></rect>
            <rect id="Rectangle-path" x="23.7096774" y="51.9354839" width="2.25806452" height="2.25806452"></rect>
            <rect id="Rectangle-path" x="19.1935484" y="51.9354839" width="2.25806452" height="2.25806452"></rect>
        </g>
    </g>
</svg>