<?xml version="1.0" encoding="UTF-8"?>
<svg width="70px" height="70px" viewBox="0 0 70 70" version="1.1" xmlns="http://www.w3.org/2000/svg" xmlns:xlink="http://www.w3.org/1999/xlink">
    <!-- Generator: Sketch 48.2 (47327) - http://www.bohemiancoding.com/sketch -->
    <title>overall_ico-1</title>
    <desc>Created with Sketch.</desc>
    <defs></defs>
    <g id="01.-Trang-chủ-op1" stroke="none" stroke-width="1" fill="none" fill-rule="evenodd" transform="translate(-255.000000, -1135.000000)" opacity="0.5">
        <g id="overall_ico-1" transform="translate(255.000000, 1135.000000)" fill="#D49156" fill-rule="nonzero">
            <path d="M33.4233956,52.2683094 C32.7949252,51.8165975 31.9105624,51.9484667 31.4487158,52.5643358 L31.2742585,52.7969051 C30.8129015,53.4122948 30.9472124,54.2771969 31.5748668,54.7300278 C31.8270057,54.9120872 32.1207597,55 32.4117394,55 C32.8447002,55 33.2721123,54.8056328 33.5488939,54.4383171 L33.7259623,54.202551 C34.1876457,53.5866818 34.0521925,52.7206608 33.4233956,52.2683094 Z" id="Shape"></path>
            <path d="M31.8729648,63.251973 L29.2377549,57.7356317 L31.6981364,53.8779264 C32.033234,53.3528915 31.9348709,52.6145994 31.4786835,52.2289652 C31.0226145,51.8431947 30.3813008,51.9564321 30.0464399,52.4817396 L27.1987609,56.9465122 C26.9626182,57.3166121 26.9346836,57.8107145 27.1267936,58.2131095 L30.0774521,64.3888446 L30.0774521,64.3887084 C30.2641173,64.779112 30.6146027,65 30.9762146,65 C31.1432308,64.9998637 31.3124959,64.9528518 31.4690958,64.853786 C31.9648178,64.5399642 32.1456829,63.8227935 31.8729648,63.251973 Z" id="Shape"></path>
            <path d="M40.8005445,56.9490354 L37.9544047,52.4834542 C37.7183747,52.1132839 37.3184184,51.9333305 36.9271336,52.0225545 C36.5359675,52.1110943 36.2246265,52.45239 36.1279337,52.897826 C36.0536918,53.2399427 36.1155799,53.602039 36.2967303,53.8862696 L38.7537233,57.7415146 L36.127221,63.2437096 C36.0438325,63.4184628 36,63.615522 36,63.8151813 C36,64.3558626 36.3178744,64.8279837 36.7724727,64.962504 C36.8576431,64.9878206 36.9435262,65 37.0283402,65 C37.3964616,65 37.7453394,64.7711923 37.9293406,64.3862426 L40.8726482,58.2212991 C41.0656773,57.8169171 41.037406,57.320711 40.8005445,56.9490354 Z" id="Shape"></path>
            <path d="M43.374769,38.1443037 C42.9903127,37.9271098 42.5255082,37.956747 42.1677896,38.2220285 C41.4724733,38.7373373 40.8272566,39.2833001 40.2500995,39.8445174 C37.1042289,42.9041176 34.1154087,42.4900692 33.9983298,42.4720544 C33.9278394,42.4601415 33.8561336,42.4546208 33.7852381,42.4570906 C32.5419332,42.4913767 30.3002843,41.2691347 27.9288628,39.2654307 C27.5661478,38.9590348 27.1942502,38.6670217 26.8228927,38.3973817 C26.464769,38.1370396 26.00199,38.1107439 25.6203696,38.3291 C25.2386141,38.5473108 25,38.9744345 25,39.4396216 L25,43.7538613 C25,44.135367 25.1613717,44.4959524 25.4379318,44.734793 C25.4706112,44.7631226 25.5046411,44.789273 25.5397512,44.8133895 L33.8285856,50.7722007 C33.829936,50.7730724 33.8311514,50.7742346 33.8325018,50.7752516 L33.8543781,50.7909418 C34.0495096,50.9298297 34.2743497,51 34.5,51 C34.689865,51 34.8797299,50.9504595 35.0532552,50.850652 C35.0898507,50.8295864 35.1249609,50.8064868 35.1587207,50.7817892 C35.1626368,50.7790289 35.1665529,50.7762685 35.1706041,50.7733629 C35.1751955,50.7701668 35.1797868,50.7668253 35.1843781,50.7634839 L43.4536318,44.8187649 C43.4868515,44.7961012 43.5192608,44.7716941 43.5504549,44.7455437 C43.834172,44.5072842 44,44.1416141 44,43.7542972 L44,39.2577308 C44,38.7902193 43.7593603,38.3617881 43.374769,38.1443037 Z M41.6619332,43.0812142 L34.499865,48.2299431 L27.3379318,43.0810689 L27.3379318,41.9372782 C29.0818266,43.3007325 31.6471642,44.9730524 33.7382445,44.9729072 C33.7425657,44.9729072 33.7474271,44.9729072 33.7518834,44.9729072 C34.4539517,45.0564433 38.0342431,45.2835161 41.6622033,41.8595533 L41.6622033,43.0812142 L41.6619332,43.0812142 Z" id="Shape"></path>
            <path d="M35.9840105,48.9770794 C35.9072876,48.513315 35.5615643,48.1408716 35.1066016,48.0317188 C34.6513702,47.9232414 34.1759839,48.0981831 33.8991903,48.477246 L31.2257135,52.1383231 C30.8454582,52.6589604 30.9569818,53.3908787 31.4749621,53.7730486 C31.6822885,53.9262408 31.9233408,54 32.1623776,54 C32.5200595,54 32.8729041,53.8345146 33.1010573,53.5223214 L35.7605601,49.8805621 C35.911856,49.6817094 36,49.4342243 36,49.1697179 C35.9998656,49.105415 35.994491,49.0405718 35.9840105,48.9770794 Z" id="Shape"></path>
            <path d="M52.9905736,10.7318578 C52.967076,10.5434334 52.4131058,6.47674402 48.6496607,4.8724958 C48.758952,4.15826142 48.7474764,3.24031739 48.3017046,2.34724651 C47.7025152,1.14694368 46.5201202,0.364759774 44.7871704,0.0220940206 C44.7128524,0.00736467353 44.6374414,0 44.5616205,0 L28.6888386,0 C22.2436588,0 17,5.33341319 17,11.8893622 L17,18.2245099 C17,19.8750305 17.5531505,21.4845591 18.5572641,22.7562854 C19.0550858,23.3868682 19.6682099,24.4880953 19.7606976,26.1530673 C19.7967638,26.803104 20.3317446,27.3054303 20.9747871,27.287366 C21.6146875,27.2690238 22.1239849,26.7359882 22.1239849,26.0849788 L22.1239849,17.825428 C22.9270025,14.4475441 25.6676179,13.7901427 26.1387999,13.7013498 L31.2730309,13.7013498 C31.8770018,13.7013498 32.4708632,13.6075544 33.0384948,13.4224649 C34.0147391,13.1039775 35.5635331,12.5178607 36.6911459,12.0822333 C37.4455289,11.7905644 38.2807875,11.7798648 39.0426843,12.0522187 L44.5392158,14.0148348 C47.2870718,15.0458891 47.7775164,17.4995759 47.8383096,17.8850402 L47.8383096,27.7977518 C47.8383096,28.4273619 48.3155027,28.9496979 48.9327251,28.9965261 C48.9627802,28.9987494 48.9922889,29 49.0217975,29 C49.601861,28.999861 50.1026883,28.5675686 50.1905311,27.9751987 C50.195176,27.9442115 50.6673143,24.8417386 52.190015,22.3577593 C52.7198045,21.4930354 53,20.5071419 53,19.5066579 L53,10.8837369 C53,10.8330179 52.9968579,10.7822989 52.9905736,10.7318578 Z M50.6346635,19.5061021 C50.6346635,20.0434453 50.4856176,20.576481 50.2033729,21.0504602 L50.2033729,17.8027782 C50.2033729,17.7592849 50.2010504,17.7160696 50.1964055,17.6728542 C50.177826,17.4981864 49.6891574,13.3759146 45.3468784,11.7534631 C45.3415504,11.7515177 45.3362225,11.7495724 45.3308945,11.747627 L39.8260295,9.78195391 C39.2053917,9.56031893 38.5560649,9.44970987 37.907148,9.44970987 C37.2093232,9.44970987 36.5119082,9.57768844 35.8511058,9.83336767 C34.2723933,10.443385 33.0498338,10.8923521 32.3160795,11.1316346 C31.9823312,11.2404372 31.6313696,11.2957417 31.2728942,11.2957417 L26.0431701,11.2957417 C25.9924862,11.2957417 25.9416658,11.2990767 25.8912552,11.3056076 C25.6911155,11.3320093 20.9742407,12.0142837 19.7872008,17.4259292 C19.768348,17.511943 19.758785,17.5997633 19.758785,17.6878615 L19.758785,20.1635034 C19.5012675,19.5582106 19.3649266,18.8970575 19.3649266,18.2246489 L19.3649266,11.8896401 C19.3649266,6.66044399 23.5476404,2.40602495 28.6885654,2.40602495 L44.4422198,2.40602495 C45.0944155,2.5473433 45.8870505,2.83734469 46.1877381,3.42735231 C46.5559131,4.14950718 46.1365078,5.14387707 46.136098,5.1447108 C45.9848662,5.47195243 45.9866422,5.85088573 46.140333,6.17673779 C46.2941605,6.50258985 46.5840556,6.74076062 46.9296893,6.82538488 C49.9403907,7.56254702 50.5544711,10.4996622 50.6345269,10.9747531 L50.6345269,19.5061021 L50.6346635,19.5061021 Z" id="Shape"></path>
            <path d="M50.9927665,17.0546239 C50.9738482,16.883534 50.4762691,12.845702 46.0548119,11.2564845 C46.0493868,11.2545789 46.0439617,11.2526734 46.0385366,11.2507679 L40.4332946,9.32535926 C39.121533,8.87483597 37.6842986,8.89280246 36.385752,9.37544765 C34.7782529,9.97296948 33.5334009,10.4127401 32.7862672,10.6472572 C32.4464333,10.7538311 32.0890722,10.8078667 31.7240603,10.8078667 L26.398976,10.8078667 C26.347368,10.8078667 26.2956209,10.8111333 26.2442911,10.8175305 C26.040502,10.8433914 21.2376185,11.5116903 20.0289339,16.8124847 C20.0097374,16.8967366 20,16.982758 20,17.0690516 L20,27.1977951 C20,27.2065062 20.0001391,27.2152172 20.0002782,27.2239282 C20.0082072,27.5757719 20.2626305,35.8848642 26.1300858,39.6849124 L26.1604107,39.7058733 C26.1855887,39.7232954 26.2107667,39.7407174 26.2370576,39.7580034 C26.5716055,39.9790456 26.9075444,40.2190071 27.2361108,40.4713546 C28.9454349,41.7846776 32.1666928,43.965292 34.7078657,43.965292 C34.7125953,43.965292 34.7170467,43.965292 34.7219153,43.965292 C34.8599077,43.980128 35.1062629,44 35.4403934,44 C36.8805491,44 39.9531036,43.6307342 43.030666,40.9085391 C43.5471634,40.4518909 44.1279274,40.0051787 44.7575173,39.5807885 L44.8475183,39.5191307 C44.8768695,39.4988504 44.9062207,39.4784339 44.9365456,39.4585619 C46.8937551,38.1723247 50.2834694,34.8534244 50.9951313,27.0769297 C50.9983307,27.0420856 51,27.0068331 51,26.9717168 L51,17.1818866 C50.9998609,17.1394203 50.997357,17.0970902 50.9927665,17.0546239 Z M48.5913943,26.9184979 C47.9352353,33.9365891 44.8792343,36.657287 43.5936245,37.5021203 C43.547998,37.5322005 43.5029279,37.5632336 43.4578579,37.5942666 L43.3910874,37.6402717 C42.674835,38.123053 42.0101906,38.6345534 41.4156552,39.1603454 C38.1871637,42.0162003 35.118365,41.6416263 34.9678532,41.6209376 C34.8978834,41.6107294 34.8269397,41.6063738 34.7561352,41.6082794 C33.4753941,41.6404013 31.1662486,40.4953099 28.7234231,38.6180842 C28.3497866,38.3308926 27.966691,38.057312 27.5847083,37.8051006 L27.5550789,37.7846841 C27.526145,37.7645399 27.4973503,37.7445318 27.4634086,37.722482 C22.7285475,34.6560653 22.4187603,27.4802229 22.4083275,27.1807814 L22.4083275,17.2039363 C23.2289087,13.8831305 26.0367462,13.2465452 26.4944021,13.1643349 L31.7241994,13.1643349 C32.3391832,13.1643349 32.9438733,13.0724608 33.5218552,12.8911626 C34.5159006,12.5791991 36.0930748,12.0050881 37.2411096,11.578384 C38.0092482,11.2926897 38.8597371,11.2822092 39.6355266,11.5489843 L45.2322832,13.4713985 C48.0302442,14.4813329 48.5296316,16.884759 48.5915334,17.2623274 L48.5915334,26.9184979 L48.5913943,26.9184979 Z" id="Shape"></path>
            <path d="M35.8798955,48.6301602 C35.7026301,48.2748225 35.3536183,48.0376234 34.9587461,48.0039071 C34.564531,47.9712445 34.1800398,48.1449622 33.9454818,48.4652666 L31.2206667,52.184854 C30.8491846,52.6921782 30.9577252,53.4052243 31.4635032,53.7780786 C31.6663926,53.9276944 31.9025275,54 32.1365599,54 C32.4855717,54 32.8301157,53.8394527 33.0531101,53.5361381 L35.7780566,49.830248 C35.9222079,49.6342723 35.9999997,49.3837711 35.9999997,49.1403819 C36.0001311,48.9635033 35.9587385,48.7886002 35.8798955,48.6301602 Z" id="Shape"></path>
            <path d="M36.6266244,67.4171581 C36.1209189,66.8866124 35.285385,66.858377 34.7454682,67.3539794 L34.4377218,67.6363339 C33.9769574,68.0589297 33.8663927,68.7440684 34.1708734,69.2909938 L34.1803593,69.3079974 C34.3859383,69.6775543 34.7526214,69.9290214 35.1704661,69.9872082 C35.2323575,69.9957881 35.2942489,70 35.3558293,70 C35.7102275,70 36.0534293,69.8594467 36.3076816,69.6043917 L36.6057866,69.3050335 C37.1231551,68.7860316 37.1324855,67.9473918 36.6266244,67.4171581 Z" id="Shape"></path>
            <path d="M36.5622754,67.6361757 L36.2545458,67.3538396 C35.7146584,66.8584254 34.8790146,66.886659 34.3733366,67.4170142 C33.8675031,67.9476814 33.876833,68.7864225 34.3943288,69.3052347 L34.6928841,69.6045734 C34.9471225,69.8596119 35.2901501,70 35.644529,70 C35.7078165,70 35.771415,69.9956324 35.8350135,69.9864291 C36.2542348,69.9263742 36.620898,69.6716477 36.8247553,69.2991512 L36.8342406,69.2821487 C37.1324849,68.7361948 37.0202157,68.0562482 36.5622754,67.6361757 Z" id="Shape"></path>
            <path d="M36.5163291,67.4021798 L36.5144427,67.4004643 C36.2851556,67.1860236 35.9886429,67.0446643 35.6619473,67.0088099 C35.2244668,66.9611183 34.7983049,67.1093396 34.4884157,67.3980626 L34.4839568,67.4021798 C34.1838428,67.6759777 34.0090907,68.0611132 34.0003445,68.4673496 C33.9915983,68.8739291 34.1497155,69.2659267 34.4376535,69.5524194 L34.4532595,69.5680307 C34.7429124,69.8560674 35.1213991,70 35.5000572,70 C35.8800873,70 36.259946,69.8548665 36.5495989,69.5652859 L36.5652048,69.5496746 C36.8519424,69.2626672 37.0090306,68.8710127 36.9995985,68.4654625 C36.9906808,68.0597407 36.8159287,67.6756346 36.5163291,67.4021798 Z" id="Shape"></path>
            <path d="M35.9549095,48.0707528 C35.3345005,47.8718779 34.6536947,48.102455 34.2759116,48.6342895 C33.8533067,49.2298748 33.9230486,50.0414853 34.4378928,50.5592877 C34.72759,50.8506706 35.1121224,51 35.4995968,51 C35.8005427,51 36.1030462,50.9099173 36.3640159,50.7259407 C36.762739,50.4451252 37,49.9877822 37,49.4996032 L37,49.4959652 C37,48.8433853 36.5760106,48.269108 35.9549095,48.0707528 Z" id="Shape"></path>
            <path d="M36.7075117,48.6216154 L36.6947429,48.6043982 C36.3115051,48.086849 35.6385528,47.8737001 35.0261661,48.0749692 C34.4137794,48.2762383 34,48.8471608 34,49.4903955 L34,49.515877 C34,50.0645893 34.3086953,50.5647491 34.793221,50.8243845 C35.012707,50.941978 35.2549699,51 35.4968877,51 C35.7886729,51 36.080113,50.9156357 36.3306584,50.7500062 C36.6721386,50.5244608 36.9059464,50.1687534 36.9772103,49.7663873 C37.0484743,49.3641934 36.9509824,48.9501197 36.7075117,48.6216154 Z" id="Shape"></path>
            <path d="M48.9250047,44.3346997 C48.8050805,44.0182027 48.5522636,43.7701845 48.2332679,43.6561868 L43.7958045,42.0679621 C43.7598406,42.0551474 43.7225398,42.0436675 43.6853727,42.0345904 C43.3686497,41.9554328 43.0330758,42.0134995 42.7616754,42.1947744 L34.539714,47.6802768 C34.5375749,47.6817452 34.5351684,47.6832135 34.5328956,47.6848154 L35.1785076,48.6432499 L34.5184565,47.6945599 C34.2772711,47.8538095 34.1045375,48.0979567 34.0344814,48.3780118 C33.9959773,48.5317885 33.9896937,48.692373 34.0157642,48.8486859 C34.0455781,49.0272911 34.1169711,49.1965522 34.2244617,49.3427202 L40.2440691,57.528258 C40.4627937,57.8259333 40.8098654,58 41.1767238,58 C41.2018585,58 41.2271268,57.9990656 41.2523951,57.9973303 C41.646661,57.9714338 42.0005511,57.7469092 42.1909324,57.4010452 L48.856553,45.3007429 C49.0200617,45.0041355 49.0450626,44.6509297 48.9250047,44.3346997 Z M41.0366117,54.7011432 L36.8058405,48.9478665 L43.5630419,44.4396202 L46.174502,45.3744276 L41.0366117,54.7011432 Z" id="Shape"></path>
            <path d="M35.9827253,48.4589432 C35.928312,48.1487127 35.7495636,47.874124 35.487524,47.6985848 L27.2382248,42.1946629 C26.9756505,42.0192572 26.6519782,41.9591867 26.3435469,42.0275336 C26.2962194,42.0379458 26.249694,42.0515618 26.2041045,42.0678475 L21.7666786,43.6561103 C21.4476855,43.7702442 21.1948708,44.0182684 21.0749476,44.3346394 C20.9550244,44.651144 20.9798915,45.0040913 21.1432651,45.3007058 L27.8088293,57.4012978 C27.9992091,57.7470366 28.3530962,57.9717001 28.7473587,57.9975972 C28.7724931,57.9991991 28.7977612,58 28.8228957,58 C29.189751,58 29.536686,57.8259292 29.7558099,57.5281132 L32.9722117,53.1543168 C32.9747519,53.1509796 32.9772921,53.1473753 32.9798323,53.1437711 L35.7755002,49.3418454 C35.9621365,49.0879476 36.0370049,48.7691738 35.9827253,48.4589432 Z M31.1066506,51.7860454 C31.103843,51.7897831 31.1011691,51.7935208 31.0983616,51.7972585 L28.9628729,54.7013312 L23.825026,45.3742587 L26.4365977,44.4395625 L33.1936084,48.9479167 L31.1066506,51.7860454 Z" id="Shape"></path>
            <path d="M69.9417868,64.9683158 L68.4220818,55.7489163 C67.9431849,52.8434923 65.9332877,50.4160393 63.1766705,49.414433 L48.4744402,44.0706184 C48.021128,43.9060082 47.514469,44.0350713 47.1941157,44.396284 C46.8737624,44.7576334 46.8044931,45.2785343 47.0195136,45.7117981 L50.0891353,51.8961636 L47.0770792,51.9427849 C46.668132,51.9492107 46.291574,52.1679617 46.0826775,52.5212447 C45.8736449,52.8745276 45.8619413,53.3112094 46.0516492,53.6752932 L47.2870644,56.0450506 L34.6439956,67.6644224 C34.6310671,67.676317 34.6184109,67.6883483 34.6060268,67.7007898 L34.3450082,67.9630176 C33.9752546,68.334621 33.8934652,68.9066549 34.1445492,69.3676728 L34.1538033,69.3844892 C34.3605223,69.7638856 34.7568133,70 35.1873986,70 L65.6945877,70 C66.9619838,70 68.1587497,69.4431419 68.9781411,68.4721607 C69.7976686,67.5011795 70.1489141,66.2239468 69.9417868,64.9683158 Z M67.1814952,66.9413135 C66.8102446,67.3810031 66.2683386,67.6331137 65.6947238,67.6331137 L38.1685625,67.6331137 L49.5470931,57.1762669 C49.941751,56.8138238 50.0438176,56.2298952 49.7955915,55.7539749 L49.0269612,54.2797296 L51.997238,54.2337919 C52.4021025,54.2276395 52.7751223,54.0128534 52.9856518,53.6654494 C53.1959092,53.3177719 53.214009,52.8862855 53.033419,52.5222017 L50.4426943,47.3028018 L62.3757872,51.6399514 C64.3320654,52.3508923 65.7584134,54.0735568 66.0982274,56.1354221 L67.6179324,65.3548216 C67.6179324,65.3549583 67.6179324,65.3549583 67.6179324,65.3549583 C67.7115616,65.9235743 67.5526097,66.5016239 67.1814952,66.9413135 Z" id="Shape"></path>
            <path d="M36.5120889,67.4015574 L36.4947778,67.3858709 C35.9075719,66.8511509 35.0056813,66.8749392 34.4469274,67.4399979 L34.4315016,67.4556844 C34.0090082,67.8831846 33.8837171,68.5244349 34.1137317,69.0808746 C34.3439178,69.6374867 34.8845037,70 35.4837073,70 L35.5162728,70 C36.1297023,70 36.6800579,69.6200765 36.9004743,69.0445026 C37.1214049,68.468584 36.9669763,67.815612 36.5120889,67.4015574 Z" id="Shape"></path>
            <path d="M36.4985941,67.3819397 C36.1601754,67.0778858 35.7012003,66.9446797 35.2516975,67.0211658 C34.8027114,67.0969644 34.4131423,67.3738614 34.1940743,67.7722768 L34.1837409,67.7910116 C33.8694334,68.3628529 33.9650173,69.0723693 34.4195146,69.5412551 L34.4248535,69.5467552 C34.7169442,69.848059 35.1061688,70 35.4964268,70 C35.8555124,70 36.2156313,69.8710908 36.500833,69.6110379 L36.5165053,69.5969438 C36.6518728,69.4738785 36.7634735,69.3264064 36.8454518,69.1627776 C37.145637,68.5641232 36.9971805,67.8295125 36.4985941,67.3819397 Z" id="Shape"></path>
            <path d="M35.6526685,67.9773844 L35.6477716,67.9723258 C35.644643,67.9691813 35.6413784,67.9659 35.6383858,67.9628922 L35.3772163,67.7006658 C35.3649739,67.6882244 35.3523235,67.6760565 35.3395371,67.6644354 L22.7023297,56.045128 L23.9373082,53.6753837 C24.1270642,53.3114387 24.11523,52.8746226 23.9064303,52.5213416 C23.6974947,52.1681974 23.3212472,51.9493108 22.9124896,51.942885 L19.9015579,51.896264 L22.9697565,45.7119328 C23.1846773,45.2788082 23.1153041,44.7577734 22.7952353,44.396426 C22.4751666,44.0350786 21.9680623,43.9058795 21.5155044,44.0707622 L6.82022623,49.4145471 C4.06488708,50.4160112 2.05578562,52.8434507 1.57711073,55.7489954 L0.0581103243,64.9683437 C-0.148784958,66.2245146 0.202433727,67.5014668 1.02158126,68.4723059 C1.84086481,69.443145 3.03721196,70 4.3036124,70 L34.822639,70 C35.2995455,70 35.7292511,69.7108401 35.9109816,69.2678717 C36.0928481,68.8249033 35.9908288,68.3152161 35.6526685,67.9773844 Z M4.30374843,67.6331268 C3.73026354,67.6331268 3.1886087,67.3810176 2.8178023,66.9413305 C2.44699589,66.50178 2.28811773,65.9235969 2.3817035,65.3548473 L3.90070391,56.135499 C4.24036039,54.0733717 5.66604709,52.3509902 7.62141835,51.6400532 L19.548843,47.3029277 L16.9594553,52.5220252 C16.778813,52.886107 16.7967684,53.317591 17.0072004,53.6652665 C17.2173603,54.0128053 17.5904791,54.2274536 17.995156,54.2336059 L20.9640557,54.2796801 L20.1957818,55.7539173 C19.9478067,56.2296981 20.0498261,56.8137602 20.4440289,57.1762013 L31.8172843,67.6331268 L4.30374843,67.6331268 Z" id="Shape"></path>
            <path d="M38.9651403,53.4023841 C39.0493915,53.0596083 38.9791597,52.6966772 38.7735868,52.4118991 L35.93385,48.478341 C35.6353986,48.0648163 35.109132,47.900421 34.630046,48.0602917 C34.3713612,48.1465341 34.1582394,48.3206642 34.0164278,48.5431942 L31.2285897,52.390647 C31.1886883,52.4454911 31.1532354,52.5044486 31.1231746,52.5655998 C30.9321603,52.9543075 30.9651868,53.4180147 31.2091782,53.7746386 L32.3963786,55.5086729 L31.1316671,63.616966 C31.0910918,63.8773385 31.1369244,64.143881 31.261751,64.3749119 L33.9709995,69.3850602 C34.1760332,69.7644445 34.5680371,70 34.9934719,70 C35.4190415,70 35.8109107,69.7644445 36.0159443,69.3850602 L38.7454132,64.337755 C38.8400441,64.162528 38.889786,63.9657747 38.889786,63.7658678 L38.889786,63.7651823 C38.889786,63.7029342 38.8847984,63.6406861 38.8753622,63.5791236 L37.6164473,55.50881 L38.7908414,53.793834 C38.871453,53.6750965 38.9309006,53.5422366 38.9651403,53.4023841 Z M34.9934719,66.3503974 L33.4991929,63.5872131 L34.7749581,55.4087194 C34.8222735,55.1057056 34.7523113,54.7961105 34.5800345,54.5445131 L33.6021815,53.1160977 L34.996842,51.191343 L36.3987817,53.1333736 L35.4326565,54.5445131 C35.2603797,54.7959734 35.1905523,55.1057056 35.237733,55.4087194 L36.5077017,63.5499191 L34.9934719,66.3503974 Z" id="Shape"></path>
        </g>
    </g>
</svg>