<?xml version="1.0" encoding="UTF-8"?>
<svg width="56px" height="48px" viewBox="0 0 56 48" version="1.1" xmlns="http://www.w3.org/2000/svg" xmlns:xlink="http://www.w3.org/1999/xlink">
    <!-- Generator: Sketch 48.2 (47327) - http://www.bohemiancoding.com/sketch -->
    <title>“</title>
    <desc>Created with Sketch.</desc>
    <defs></defs>
    <g id="10.-Chi-tiết-tin-tức" stroke="none" stroke-width="1" fill="none" fill-rule="evenodd" transform="translate(-690.000000, -2665.000000)" opacity="0.200000003">
        <g id="qoute" transform="translate(375.000000, 2630.000000)" fill="#D49156">
            <path d="M349.4,77.5 C347.133322,74.233317 346,70.333356 346,65.8 C346,61.13331 347.66665,56.100027 351,50.7 C354.33335,45.299973 358.99997,40.066692 365,35 L369.2,37.2 L369.6,39.2 C366.533318,42.133348 364.066676,45.366649 362.2,48.9 C360.333324,52.433351 359.4,55.733318 359.4,58.8 C359.4,61.733348 360.366657,64.399988 362.3,66.8 C364.233343,69.200012 366.799984,70.933328 370,72 L370.2,74.8 C365.933312,79.866692 361.733354,82.4 357.6,82.4 C354.399984,82.4 351.666678,80.766683 349.4,77.5 Z M318.4,77.5 C316.133322,74.233317 315,70.333356 315,65.8 C315,61.13331 316.66665,56.100027 320,50.7 C323.33335,45.299973 327.99997,40.066692 334,35 L338.2,37.2 L338.6,39.2 C335.533318,42.133348 333.066676,45.366649 331.2,48.9 C329.333324,52.433351 328.4,55.733318 328.4,58.8 C328.4,61.733348 329.366657,64.399988 331.3,66.8 C333.233343,69.200012 335.799984,70.933328 339,72 L339.2,74.8 C334.933312,79.866692 330.733354,82.4 326.6,82.4 C323.399984,82.4 320.666678,80.766683 318.4,77.5 Z" id="“"></path>
        </g>
    </g>
</svg>