<?xml version="1.0" encoding="UTF-8"?>
<svg width="15px" height="15px" viewBox="0 0 15 15" version="1.1" xmlns="http://www.w3.org/2000/svg" xmlns:xlink="http://www.w3.org/1999/xlink">
    <!-- Generator: Sketch 48.2 (47327) - http://www.bohemiancoding.com/sketch -->
    <title>Shape</title>
    <desc>Created with Sketch.</desc>
    <defs></defs>
    <g id="side-bar" stroke="none" stroke-width="1" fill="none" fill-rule="evenodd" transform="translate(-295.000000, -18.000000)">
        <g fill="#5D5D5D" id="search">
            <g>
                <path d="M305.418628,27.7917956 C306.406981,26.7536821 307.023586,25.3636414 307.023586,23.8328486 C307.023586,20.6216923 304.330521,18 301.011793,18 C297.693066,18 295,20.6216923 295,23.8328486 C295,27.0440049 297.693066,29.6656972 301.011793,29.6656972 C302.36287,29.6656972 303.605105,29.2346222 304.611604,28.5044061 L309.081901,32.8416421 C309.190712,32.947214 309.326726,33 309.462739,33 C309.598752,33 309.743823,32.947214 309.843577,32.8416421 C310.052141,32.6392856 310.052141,32.3049952 309.843577,32.0938514 L305.418628,27.7917956 L305.418628,27.7917956 Z M296.200012,23.8499999 C296.200012,21.1793633 298.370454,19 301.050012,19 C303.720649,19 305.900012,21.1704419 305.900012,23.8499999 C305.900012,26.5295579 303.72957,28.6999998 301.050012,28.6999998 C298.370454,28.6999998 296.200012,26.5206365 296.200012,23.8499999 L296.200012,23.8499999 Z" id="Shape"></path>
            </g>
        </g>
    </g>
</svg>