<?xml version="1.0" encoding="UTF-8"?>
<svg width="391px" height="285px" viewBox="0 0 391 285" version="1.1" xmlns="http://www.w3.org/2000/svg" xmlns:xlink="http://www.w3.org/1999/xlink">
    <!-- Generator: Sketch 48.2 (47327) - http://www.bohemiancoding.com/sketch -->
    <title>the_rosa_border</title>
    <desc>Created with Sketch.</desc>
    <defs></defs>
    <g id="Page-Design" stroke="none" stroke-width="1" fill="none" fill-rule="evenodd" stroke-dasharray="2.6">
        <g id="Group-3" transform="translate(1.000000, -312.000000)" stroke="#D0021B" stroke-width="1.3">
            <path d="M300.832031,533.667969 L295.12846,502.277209 L283.831033,509.483484 L263.675113,512.140608 L269.835493,502.277209 L279.385588,492.006367 L339.493631,471.477239 L389.452321,412.376302 L385.628554,381.670905 L374.610069,356.071492 L354.474594,339.514778 L339.493631,342.864458 L328.456535,345.660649 L312.234277,326.417411 L266.658142,312.973717 L214.814479,312.973717 L175.963477,336.342406 L112.131012,329.935365 L94.0376006,336.342406 L2.52595335,431.149364 C-0.216131822,440.574844 -0.216131822,446.548604 2.52595335,449.070644 C3.51833024,449.983386 13.5492607,460.426481 22.938542,467.497462 C27.6457347,471.042406 45.9441294,469.307806 56.820564,477.064895 C66.5701746,484.018332 83.2692054,500.718011 106.917657,527.163932 L144.537195,595.391493 L179.792035,595.391493 L249.613281,572.386719 L274.667969,561.175781 L300.832031,533.667969 Z" id="the_rosa_border"></path>
        </g>
    </g>
</svg>