<?xml version="1.0" encoding="UTF-8"?>
<svg width="521px" height="236px" viewBox="0 0 521 236" version="1.1" xmlns="http://www.w3.org/2000/svg" xmlns:xlink="http://www.w3.org/1999/xlink">
    <!-- Generator: Sketch 48.2 (47327) - http://www.bohemiancoding.com/sketch -->
    <title>the_central_border</title>
    <desc>Created with Sketch.</desc>
    <defs></defs>
    <g id="Page-Design" stroke="none" stroke-width="1" fill="none" fill-rule="evenodd" stroke-dasharray="2.6">
        <g id="Group-3" transform="translate(-178.000000, -411.000000)" stroke="#D0021B" stroke-width="1.3">
            <polygon id="the_central_border" points="508.463923 418.236532 505.866901 426.826216 483.372068 421.10919 456.958616 449.070644 447.247989 462.042349 409.744309 473.514705 295.12846 502.277209 283.831033 509.483484 258.188749 536.535156 196.898438 569.152344 179.792035 595.391493 214.814479 622.028396 241.370011 639.671331 258.188749 636.31605 325.818711 628.358763 361.824219 645.686656 393.292969 645.686656 483.372068 586.265625 519.882812 616.695312 551.121094 628.358763 590.4375 606.195312 638.308594 586.265625 681.867187 557.683594 697.746094 529.031479 697.746094 502.277209 697.746094 462.042349 667.224905 442.140974 643.650155 442.140974 617.229108 412.376302 576.940142 412.376302"></polygon>
        </g>
    </g>
</svg>