<?xml version="1.0" encoding="UTF-8"?>
<svg width="466px" height="405px" viewBox="0 0 466 405" version="1.1" xmlns="http://www.w3.org/2000/svg" xmlns:xlink="http://www.w3.org/1999/xlink">
    <!-- Generator: Sketch 48.2 (47327) - http://www.bohemiancoding.com/sketch -->
    <title>the_valley_border</title>
    <desc>Created with Sketch.</desc>
    <defs></defs>
    <g id="Page-Design" stroke="none" stroke-width="1" fill="none" fill-rule="evenodd" stroke-dasharray="2.6">
        <g id="Group-3" transform="translate(-331.000000, -275.000000)" stroke="#D0021B" stroke-width="1.3">
            <path d="M622.234375,552.785156 L614.890625,568.152344 L565.867187,592.996094 L535.070013,582.175781 L501.3125,553.440585 L469.65329,549.867188 L433.410156,583.175781 L397.932475,611.954126 L374.610069,622.028396 L349.253906,613.675781 L331.818711,635.358763 L345.341812,648.924072 L374.610069,667.67914 L409.744309,656.155585 L423.049386,678.79136 L456.958616,678.79136 L472.65329,656.155585 L494.445321,656.155585 L512.483718,667.67914 L536.070013,667.67914 L561.734451,645.686656 L633.563331,611.954126 L699.865962,611.954126 L727.886864,622.028396 L775.749076,595.391493 L782.914337,546.440585 C788.521859,529.922933 790.793796,516.514868 789.730148,506.21639 C788.666501,495.917913 784.006143,486.200748 775.749076,477.064895 L762.080343,452.377948 L762.080343,395.391096 L789.730148,391.874649 L789.730148,326.417411 L795.39556,297.573871 L772.369002,275.66678 L741.267997,275.66678 L722.202898,284.295394 L699.865962,289.77707 L690.319497,308.055172 L690.319497,336.342406 L681.604906,349.02781 L657.774306,421.10919 L667.224905,442.140974 L690.319497,467.497462 L670.224905,501.277209 L671.28125,533.226562 L622.234375,552.785156 Z" id="the_valley_border"></path>
        </g>
    </g>
</svg>