<?xml version="1.0" encoding="UTF-8"?>
<svg width="148px" height="130px" viewBox="0 0 148 130" version="1.1" xmlns="http://www.w3.org/2000/svg" xmlns:xlink="http://www.w3.org/1999/xlink">
    <!-- Generator: Sketch 48.2 (47327) - http://www.bohemiancoding.com/sketch -->
    <title>bank-icon</title>
    <desc>Created with Sketch.</desc>
    <defs></defs>
    <g id="Home-Slide3" stroke="none" stroke-width="1" fill="none" fill-rule="evenodd" transform="translate(-1194.000000, -359.000000)">
        <g id="Bank" transform="translate(1195.000000, 361.000000)">
            <g id="bank-icon">
                <path d="M73.3009671,0 L136.575338,35.252864 C137.540255,35.7904604 137.886666,37.0084878 137.34907,37.9734043 C136.995984,38.6071484 136.3274,39 135.601934,39 L11,39 C9.8954305,39 9,38.1045695 9,37 C9,36.2745337 9.39285156,35.6059501 10.0265957,35.252864 L73.3009671,0 Z" id="Triangle-2" stroke="#20C565" stroke-width="2"></path>
                <path d="M72.642,20.98 L72.642,15.964 C71.8646628,15.964 71.2303358,16.1949977 70.739,16.657 C70.2476642,17.1190023 70.002,17.7386628 70.002,18.516 C70.002,19.8506733 70.8819912,20.6719985 72.642,20.98 Z M73.654,23.224 L73.654,28.812 C74.5193377,28.812 75.219664,28.5626692 75.755,28.064 C76.290336,27.5653308 76.558,26.8906709 76.558,26.04 C76.558,25.4826639 76.4040015,24.9730023 76.096,24.511 C75.7879985,24.0489977 75.3700026,23.7373341 74.842,23.576 L73.654,23.224 Z M78.142,18.516 L76.25,18.516 C76.1619996,17.723996 75.9126687,17.1373352 75.502,16.756 C75.0913313,16.3746648 74.4753374,16.1106674 73.654,15.964 L73.654,21.2 C75.0766738,21.6253355 76.0299976,21.9553322 76.514,22.19 C77.8340066,22.8500033 78.494,24.0159916 78.494,25.688 C78.494,27.3600084 77.9146725,28.6213291 76.756,29.472 C75.8759956,30.1173366 74.8420059,30.44 73.654,30.44 L73.654,32.552 L72.642,32.552 L72.642,30.44 C69.3859837,30.44 67.758,28.7240172 67.758,25.292 L69.694,25.292 C69.694,26.4360057 69.9029979,27.2646641 70.321,27.778 C70.7390021,28.2913359 71.512661,28.6359991 72.642,28.812 L72.642,22.96 C71.1459925,22.6079982 70.0680033,22.1753359 69.408,21.662 C68.5133289,20.9726632 68.066,19.9680066 68.066,18.648 C68.066,17.4013271 68.5133289,16.3710041 69.408,15.557 C70.3026711,14.7429959 71.3806604,14.336 72.642,14.336 L72.642,12.928 L73.654,12.928 L73.654,14.336 C76.646015,14.6000013 78.142,15.9933207 78.142,18.516 Z" id="$" fill="#FFFFFF"></path>
                <g id="Group-5" transform="translate(29.000000, 49.000000)" stroke="#FFFFFF" stroke-width="2">
                    <g id="Group-4">
                        <rect id="Rectangle-5" x="3" y="1" width="12" height="51"></rect>
                        <path d="M0,1 L18,1" id="Line-2" stroke-linecap="round"></path>
                        <path d="M0,52 L18,52" id="Line-2" stroke-linecap="round"></path>
                    </g>
                    <g id="Group-4" transform="translate(35.000000, 0.000000)">
                        <rect id="Rectangle-5" x="3" y="1" width="12" height="51"></rect>
                        <path d="M0,1 L18,1" id="Line-2" stroke-linecap="round"></path>
                        <path d="M0,52 L18,52" id="Line-2" stroke-linecap="round"></path>
                    </g>
                    <g id="Group-4" transform="translate(70.000000, 0.000000)">
                        <rect id="Rectangle-5" x="3" y="1" width="12" height="51"></rect>
                        <path d="M0,1 L18,1" id="Line-2" stroke-linecap="round"></path>
                        <path d="M0,52 L18,52" id="Line-2" stroke-linecap="round"></path>
                    </g>
                </g>
                <path d="M20.5,110.5 L126.5,110.5" id="Line-3" stroke="#20C565" stroke-width="2" stroke-linecap="round"></path>
                <path d="M10,119 L136,119" id="Line-3" stroke="#20C565" stroke-width="2" stroke-linecap="round"></path>
                <path d="M0,127 L146,127" id="Line-3" stroke="#20C565" stroke-width="2" stroke-linecap="round"></path>
            </g>
        </g>
    </g>
</svg>