<?xml version="1.0" encoding="UTF-8"?>
<svg width="175px" height="175px" viewBox="0 0 150 175" version="1.1" xmlns="http://www.w3.org/2000/svg" xmlns:xlink="http://www.w3.org/1999/xlink">
    <!-- Generator: Sketch 48.2 (47327) - http://www.bohemiancoding.com/sketch -->
    <title>Fill 1</title>
    <desc>Created with Sketch.</desc>
    <defs></defs>
    <g id="Home-Slide2" stroke="none" stroke-width="1" fill="none" fill-rule="evenodd" transform="translate(-320.000000, -353.000000)">
        <g id="Graphic" transform="translate(78.000000, 189.000000)" fill="#20C565" stroke="#00FF66">
            <path d="M263.16,252.812 C263.16,225.466 284.238,203.002 311.238,201.003 L311.238,208.379 C301.238,209.335 291.049,214.081 283.855,221.275 L297.913,235.41 C301.477,231.846 306.238,229.372 311.238,228.52 L311.238,277.105 C306.238,276.253 301.554,273.779 297.99,270.215 L283.777,284.351 C290.971,291.545 301.238,296.291 311.238,297.247 L311.238,304.621 C284.238,302.622 263.16,280.158 263.16,252.812 M339.861,252.813 C339.861,264.321 332.238,274.007 321.238,276.693 L321.238,228.933 C332.238,231.618 339.861,241.305 339.861,252.813 M366.264,303.791 L351.938,289.543 C343.885,297.595 333.238,303.011 321.238,304.41 L321.238,297.021 C343.238,294.08 359.861,275.382 359.861,252.813 C359.861,230.243 343.238,211.546 321.238,208.605 L321.238,201.213 C333.238,202.612 343.962,208.028 352.015,216.081 L366.186,201.832 C354.478,190.124 339.238,182.431 321.238,180.959 L321.238,165 L311.238,165 L311.238,180.79 C273.238,182.819 243,214.345 243,252.812 C243,291.279 273.238,322.804 311.238,324.833 L311.238,338 L321.238,338 L321.238,324.664 C339.238,323.192 354.555,315.5 366.264,303.791" id="Fill-1"></path>
        </g>
    </g>
</svg>
