<?xml version="1.0" encoding="UTF-8"?>
<svg width="16px" height="16px" viewBox="0 0 16 16" version="1.1" xmlns="http://www.w3.org/2000/svg" xmlns:xlink="http://www.w3.org/1999/xlink">
    <!-- Generator: Sketch 48.2 (47327) - http://www.bohemiancoding.com/sketch -->
    <title>btc_ico</title>
    <desc>Created with Sketch.</desc>
    <defs></defs>
    <g id="header" stroke="none" stroke-width="1" fill="none" fill-rule="evenodd" transform="translate(-223.000000, -7.000000)">
        <g fill="#F7931A" fill-rule="nonzero" id="Group-2">
            <g transform="translate(223.000000, 7.000000)">
                <g id="bitcoin">
                    <path d="M15.5175385,10.0285538 C14.4654769,14.2483692 10.1912615,16.8162462 5.97095385,15.7641846 C1.75261538,14.7121231 -0.815507692,10.4379077 0.2368,6.21833846 C1.28836923,1.99803077 5.56233846,-0.570338462 9.78141538,0.481723077 C14.0014769,1.53378462 16.5693538,5.80849231 15.5172923,10.0285538 L15.5175385,10.0285538 Z M11.3501538,7.00086154 C11.5067077,5.95273846 10.7086769,5.38929231 9.61747692,5.01341538 L9.97144615,3.5936 L9.10695385,3.37821538 L8.76233846,4.76061538 C8.53538462,4.704 8.30203077,4.65058462 8.07015385,4.59766154 L8.41723077,3.20615385 L7.55347692,2.99076923 L7.19926154,4.41009231 C7.0112,4.36726154 6.82658462,4.32492308 6.64738462,4.28036923 L6.64836923,4.27593846 L5.45649231,3.97833846 L5.22658462,4.90141538 C5.22658462,4.90141538 5.86781538,5.04836923 5.85427692,5.05747692 C6.20430769,5.14486154 6.26781538,5.37649231 6.25698462,5.56012308 L5.85378462,7.1776 C5.87790769,7.18375385 5.90916923,7.19261538 5.94363077,7.2064 L5.85255385,7.18375385 L5.28713846,9.4496 C5.24430769,9.55593846 5.13575385,9.71544615 4.89107692,9.65489231 C4.89969231,9.66744615 4.26289231,9.49809231 4.26289231,9.49809231 L3.83384615,10.4876308 L4.95876923,10.768 C5.168,10.8204308 5.37304615,10.8753231 5.57464615,10.9270154 L5.21698462,12.3633231 L6.08024615,12.5787077 L6.43470769,11.1579077 C6.67027692,11.2219077 6.8992,11.2809846 7.1232,11.3366154 L6.77021538,12.7507692 L7.63446154,12.9661538 L7.99212308,11.5328 C9.46584615,11.8116923 10.5742769,11.6992 11.0402462,10.3665231 C11.4161231,9.29329231 11.0217846,8.67421538 10.2464,8.27027692 C10.8110769,8.13956923 11.2364308,7.76812308 11.3499077,7.00086154 L11.3501538,7.00086154 Z M9.37526154,9.76984615 C9.10793846,10.8430769 7.30116923,10.2631385 6.71507692,10.1174154 L7.18966154,8.21489231 C7.77550769,8.36110769 9.65390769,8.65058462 9.37550769,9.76984615 L9.37526154,9.76984615 Z M9.64233846,6.98535385 C9.39864615,7.9616 7.89464615,7.4656 7.40652308,7.344 L7.8368,5.61846154 C8.32492308,5.74006154 9.89636923,5.96701538 9.64233846,6.98535385 Z" id="btc_ico"></path>
                </g>
            </g>
        </g>
    </g>
</svg>