<?xml version="1.0" encoding="UTF-8"?>
<svg width="8px" height="8px" viewBox="0 0 8 8" version="1.1" xmlns="http://www.w3.org/2000/svg" xmlns:xlink="http://www.w3.org/1999/xlink">
    <!-- Generator: Sketch 48.2 (47327) - http://www.bohemiancoding.com/sketch -->
    <title>Page 1</title>
    <desc>Created with Sketch.</desc>
    <defs></defs>
    <g id="SignUp" stroke="none" stroke-width="1" fill="none" fill-rule="evenodd" transform="translate(-616.000000, -630.000000)">
        <g id="Group-7" transform="translate(515.000000, 188.000000)" fill="#1E254F">
            <g id="Group-12" transform="translate(98.000000, 434.000000)">
                <path d="M10.8554839,9.77419254 C10.9518287,9.8705374 11,9.98752609 11,10.1251609 C11,10.2627958 10.9518287,10.3797845 10.8554839,10.4761282 L7.11870959,14.2129026 L6.41677396,14.9148381 C6.3204291,15.0111827 6.20344156,15.0593542 6.06580672,15.0593542 C5.92817072,15.0593542 5.81118318,15.0111827 5.71483832,14.9148381 L5.01290269,14.2129026 L3.14451613,12.3445159 C3.04817156,12.248171 3,12.1311835 3,11.9935475 C3,11.8559127 3.04817156,11.7389251 3.14451613,11.6425803 L3.84645164,10.9406446 C3.94279615,10.8442998 4.05978427,10.7961285 4.197419,10.7961285 C4.33505385,10.7961285 4.45204254,10.8442998 4.5483874,10.9406446 L6.06580672,12.4632249 L9.4516126,9.07225806 C9.54795746,8.97591321 9.664945,8.92774194 9.802581,8.92774194 C9.94021585,8.92774194 10.0572034,8.97591321 10.1535482,9.07225806 L10.8554839,9.77419254 Z" id="Page-1"></path>
            </g>
        </g>
    </g>
</svg>