<?xml version="1.0" encoding="UTF-8"?>
<svg width="39px" height="39px" viewBox="0 0 39 39" version="1.1" xmlns="http://www.w3.org/2000/svg" xmlns:xlink="http://www.w3.org/1999/xlink">
    <!-- Generator: Sketch 48.2 (47327) - http://www.bohemiancoding.com/sketch -->
    <title>coin</title>
    <desc>Created with Sketch.</desc>
    <defs></defs>
    <g id="Symbols" stroke="none" stroke-width="1" fill="none" fill-rule="evenodd">
        <g id="coin" transform="translate(1.000000, 1.000000)">
            <circle id="Oval-9" stroke="#20C565" stroke-width="2" cx="18.5" cy="18.5" r="18.5"></circle>
            <circle id="Oval-9" stroke="#20C565" cx="18.5" cy="18.5" r="13.5"></circle>
            <path d="M12.2897196,18.5699637 C12.2897196,15.4640771 14.6837033,12.9126752 17.7502921,12.6856341 L17.7502921,13.5233807 C16.6145184,13.6319607 15.4572787,14.1709988 14.6402031,14.9880744 L16.2368737,16.5934904 C16.6416634,16.1887007 17.1824052,15.9077103 17.7502921,15.8109424 L17.7502921,21.3290985 C17.1824052,21.2323306 16.6504089,20.9513402 16.2456192,20.5465505 L14.6313441,22.1520801 C15.4484197,22.9691556 16.6145184,23.5081938 17.7502921,23.6167738 L17.7502921,24.4542932 C14.6837033,24.2272521 12.2897196,21.6758502 12.2897196,18.5699637 M21.0012169,18.5700772 C21.0012169,19.8771255 20.1354167,20.9772359 18.8860657,21.2823046 L18.8860657,15.8578498 C20.1354167,16.162805 21.0012169,17.2630289 21.0012169,18.5700772 M24,24.360024 L22.3728907,22.7417738 C21.4582522,23.6562987 20.248994,24.2714337 18.8860657,24.4303284 L18.8860657,23.5911053 C21.3847677,23.2570742 23.2727641,21.1334047 23.2727641,18.5700772 C23.2727641,16.0066362 21.3847677,13.8830802 18.8860657,13.5490492 L18.8860657,12.7094853 C20.248994,12.8683801 21.4669977,13.4835151 22.3816362,14.3981536 L23.991141,12.7797897 C22.6613772,11.450026 20.9304582,10.5762753 18.8860657,10.4090894 L18.8860657,8.59650831 L17.7502921,8.59650831 L17.7502921,10.3898949 C13.4343523,10.6203433 10,14.2009833 10,18.5699637 C10,22.9389441 13.4343523,26.5194704 17.7502921,26.7499189 L17.7502921,28.245392 L18.8860657,28.245392 L18.8860657,26.7307243 C20.9304582,26.5635384 22.6701227,25.6899013 24,24.360024" id="Fill-1" fill="#20C565"></path>
            <path d="M18.5,0.5 L18.5,4.5 M29.0801345,3.9376941 L26.7289935,7.17376208 M35.6190173,12.9376941 L31.8147912,14.1737621 M35.6190173,24.0623059 L31.8147912,22.8262379 M29.0801345,33.0623059 L26.7289935,29.8262379 M18.5,36.5 L18.5,32.5 M7.91986546,33.0623059 L10.2710065,29.8262379 M1.38098271,24.0623059 L5.18520877,22.8262379 M1.38098271,12.9376941 L5.18520877,14.1737621 M7.91986546,3.9376941 L10.2710065,7.17376208" id="Line-3" stroke="#20C565" stroke-linecap="square"></path>
        </g>
    </g>
</svg>