<?xml version="1.0" encoding="UTF-8"?>
<svg width="15px" height="20px" viewBox="0 0 15 20" version="1.1" xmlns="http://www.w3.org/2000/svg" xmlns:xlink="http://www.w3.org/1999/xlink">
    <!-- Generator: Sketch 48.2 (47327) - http://www.bohemiancoding.com/sketch -->
    <title>Page 1</title>
    <desc>Created with Sketch.</desc>
    <defs></defs>
    <g id="header" stroke="none" stroke-width="1" fill="none" fill-rule="evenodd" transform="translate(-670.000000, -5.000000)">
        <g id="Page-1" transform="translate(670.000000, 5.000000)" fill="#20C565">
            <path d="M9.67741935,18.5973294 L9.67741935,20 L7.74193548,20 L7.74193548,18.689909 C3.42316057,18.3915211 0,14.7526269 0,10.3225806 C0,5.89253438 3.42316057,2.25364016 7.74193548,1.9552523 L7.74193548,0 L9.67741935,0 L9.67741935,2.04783127 C11.4259254,2.33945396 12.9921559,3.18314553 14.1935484,4.39474355 L12.5508132,6.05159679 C11.7733057,5.26744422 10.7837367,4.69720573 9.67741935,4.43698043 L9.67741935,5.99846462 C11.5418635,6.55948422 12.9032258,8.28570975 12.9032258,10.3226199 C12.9032258,12.3594658 11.5418635,14.0856797 9.67741935,14.6466971 L9.67741935,16.2081809 C10.7837367,15.9479556 11.7733057,15.3777171 12.5508132,14.5935645 L14.1935484,16.2503396 C12.9921559,17.462 11.4259254,18.3057041 9.67741935,18.5973294 Z M7.74193548,4.30715401 C4.70631819,4.59950534 2.3242964,7.18577893 2.3242964,10.3225806 C2.3242964,13.4593824 4.70631819,16.0456559 7.74193548,16.3380073 L7.74193548,14.7959648 C6.74094848,14.6579821 5.84331951,14.1935846 5.16129032,13.5144776 L6.83237438,11.8507128 C7.08289268,12.1001338 7.39416511,12.2890668 7.74193548,12.3933415 L7.74193548,8.25181975 C7.39416511,8.35609445 7.08289268,8.54502744 6.83237438,8.79444848 L5.16129032,7.13068374 C5.84331951,6.45164183 6.74094848,5.98720128 7.74193548,5.84920212 L7.74193548,4.30715401 Z M9.67741935,12.0457966 C10.2004539,11.6506457 10.5388188,11.0252408 10.5388188,10.3226199 C10.5388188,9.61995275 10.2004539,8.99452882 9.67741935,8.59937011 L9.67741935,12.0457966 Z" id="Combined-Shape"></path>
        </g>
    </g>
</svg>