<?xml version="1.0" encoding="UTF-8"?>
<svg width="8px" height="16px" viewBox="0 0 8 16" version="1.1" xmlns="http://www.w3.org/2000/svg" xmlns:xlink="http://www.w3.org/1999/xlink">
    <!-- Generator: Sketch 48.2 (47327) - http://www.bohemiancoding.com/sketch -->
    <title>facebook</title>
    <desc>Created with Sketch.</desc>
    <defs></defs>
    <g id="Socials" stroke="none" stroke-width="1" fill="none" fill-rule="evenodd" transform="translate(-3.000000, -87.000000)">
        <path d="M10.5179113,87 L7.96081645,87 C6.44335104,87 4.7555015,87.6382252 4.7555015,89.8378543 C4.7629095,90.604289 4.7555015,91.3383088 4.7555015,92.1643994 L3,92.1643994 L3,94.9579233 L4.80982688,94.9579233 L4.80982688,103 L8.13547293,103 L8.13547293,94.9048522 L10.3305161,94.9048522 L10.5291213,92.1565603 L8.07816867,92.1565603 C8.07816867,92.1565603 8.08365609,90.9340041 8.07816867,90.5789685 C8.07816867,89.7097233 8.98265096,89.7595019 9.03705473,89.7595019 C9.46746381,89.7595019 10.3043333,89.7607562 10.5191655,89.7595019 L10.5191655,87 L10.5179113,87 Z" id="facebook" fill="#747D87" fill-rule="nonzero"></path>
    </g>
</svg>