<?xml version="1.0" encoding="UTF-8"?>
<svg width="179px" height="179px" viewBox="0 0 179 179" version="1.1" xmlns="http://www.w3.org/2000/svg" xmlns:xlink="http://www.w3.org/1999/xlink">
    <!-- Generator: Sketch 48.2 (47327) - http://www.bohemiancoding.com/sketch -->
    <title>gear</title>
    <desc>Created with Sketch.</desc>
    <defs>
        <circle id="path-1" cx="89" cy="89" r="69"></circle>
    </defs>
    <g id="Coming-soon" stroke="none" stroke-width="1" fill="none" fill-rule="evenodd" transform="translate(-631.000000, -241.000000)">
        <g id="gear" transform="translate(632.000000, 242.000000)">
            <circle id="border-inner" stroke="#20C565" cx="88.5" cy="88.5" r="77.5"></circle>
            <circle id="border-outer" stroke="#20C565" cx="88.5" cy="88.5" r="88.5"></circle>
            <path d="M88.5,0.5 L88.5,10.5 M106.247336,2.30827687 L104.168219,12.0897529 M123.185192,7.62397737 L119.27788,16.8290259 M138.783144,16.2808742 L133.04738,24.4723946 M152.2545,27.8424539 L145.061102,34.7890376 M163.177714,41.9463908 L154.697233,47.2455835 M171.03189,57.9635633 L161.634964,61.3837647 M175.481313,75.1493221 L165.604429,76.7136668 M176.386618,92.9655608 L166.400322,92.4422012 M173.68003,110.598255 L164.020772,108.010065 M167.511747,127.24457 L158.523807,122.860859 M158.07444,142.383104 L150.194332,136.226489 M145.844211,155.250472 L139.283621,147.703376 M131.204111,165.443868 L126.356015,156.697671 M114.808998,172.475082 L111.885281,162.912035 M97.419613,176.046763 L96.3743284,166.101544 M79.580387,176.046763 L80.6256716,166.101544 M62.1910023,172.475082 L65.1147193,162.912035 M45.795889,165.443868 L50.6439852,156.697671 M31.1557888,155.250472 L37.7163791,147.703376 M18.9255601,142.383104 L26.8056676,136.226489 M9.48825298,127.24457 L18.4761934,122.860859 M3.31997,110.598255 L12.9792283,108.010065 M0.613382231,92.9655608 L10.5996776,92.4422012 M1.51868738,75.1493221 L11.3955708,76.7136668 M5.96810993,57.9635633 L15.3650361,61.3837647 M13.8222861,41.9463908 L22.3027671,47.2455835 M24.7454997,27.8424539 L31.9388977,34.7890376 M38.216856,16.2808742 L43.9526203,24.4723946 M53.8148084,7.62397737 L57.7221197,16.8290259 M70.7526644,2.30827687 L72.8317813,12.0897529" id="border-stripe" stroke="#20C565" stroke-linecap="square"></path>
            <mask id="mask-2" fill="white">
                <use xlink:href="#path-1"></use>
            </mask>
            <use id="border-center" stroke="#20C565" xlink:href="#path-1"></use>
            <g id="gear_box" mask="url(#mask-2)" stroke="#20C565">
                <g transform="translate(-12.000000, 3.000000)">
                    <path d="M18.5098667,95.6688855 L13.7449975,98.419884 C12.7884123,98.9721687 11.5652315,98.6444184 11.0129467,97.6878332 L5.59990323,88.3121668 C5.04761848,87.3555816 5.37536879,86.1324008 6.33195403,85.580116 L11.2252193,82.754988 C9.55670185,78.5396681 8.39793044,74.0670119 7.82492941,69.4130435 L2,69.4130435 C0.8954305,69.4130435 0,68.517613 0,67.4130435 L0,56.5869565 C0,55.482387 0.8954305,54.5869565 2,54.5869565 L8.00794607,54.5869565 C8.68676811,50.0159472 9.93225411,45.6297879 11.6706824,41.5022002 L6.33195403,38.419884 C5.37536879,37.8675992 5.04761848,36.6444184 5.59990323,35.6878332 L11.0129467,26.3121668 C11.5652315,25.3555816 12.7884123,25.0278313 13.7449975,25.580116 L19.2327772,28.7484871 C22.0256704,25.232412 25.243013,22.0686615 28.8073353,19.3347052 L25.580116,13.7449975 C25.0278313,12.7884123 25.3555816,11.5652315 26.3121668,11.0129467 L35.6878332,5.59990323 C36.6444184,5.04761848 37.8675992,5.37536879 38.419884,6.33195403 L41.6873688,11.9914037 C45.766933,10.3548867 50.089922,9.19665043 54.5869565,8.58607411 L54.5869565,2 C54.5869565,0.8954305 55.482387,-1.91384796e-17 56.5869565,-2.22044605e-16 L67.4130435,-2.22044605e-16 C68.517613,-4.2495073e-16 69.4130435,0.8954305 69.4130435,2 L69.4130435,8.58607411 C73.910078,9.19665043 78.233067,10.3548867 82.3126312,11.9914037 L85.580116,6.33195403 C86.1324008,5.37536879 87.3555816,5.04761848 88.3121668,5.59990323 L97.6878332,11.0129467 C98.6444184,11.5652315 98.9721687,12.7884123 98.419884,13.7449975 L95.1926647,19.3347052 C98.756987,22.0686615 101.97433,25.232412 104.767223,28.7484871 L110.255002,25.580116 C111.211588,25.0278313 112.434769,25.3555816 112.987053,26.3121668 L118.400097,35.6878332 C118.952382,36.6444184 118.624631,37.8675992 117.668046,38.419884 L112.329318,41.5022002 C114.067746,45.6297879 115.313232,50.0159472 115.992054,54.5869565 L122,54.5869565 C123.104569,54.5869565 124,55.482387 124,56.5869565 L124,67.4130435 C124,68.517613 123.104569,69.4130435 122,69.4130435 L116.175071,69.4130435 C115.60207,74.0670119 114.443298,78.5396681 112.774781,82.754988 L117.668046,85.580116 C118.624631,86.1324008 118.952382,87.3555816 118.400097,88.3121668 L112.987053,97.6878332 C112.434769,98.6444184 111.211588,98.9721687 110.255002,98.419884 L105.490133,95.6688855 C102.671606,99.3781998 99.3893893,102.715949 95.729864,105.595751 L98.419884,110.255002 C98.9721687,111.211588 98.6444184,112.434769 97.6878332,112.987053 L88.3121668,118.400097 C87.3555816,118.952382 86.1324008,118.624631 85.580116,117.668046 L82.9423093,113.099231 C78.678818,114.871929 74.1421677,116.119664 69.4130435,116.761752 L69.4130435,122 C69.4130435,123.104569 68.517613,124 67.4130435,124 L56.5869565,124 C55.482387,124 54.5869565,123.104569 54.5869565,122 L54.5869565,116.761752 C49.8578323,116.119664 45.321182,114.871929 41.0576907,113.099231 L38.419884,117.668046 C37.8675992,118.624631 36.6444184,118.952382 35.6878332,118.400097 L26.3121668,112.987053 C25.3555816,112.434769 25.0278313,111.211588 25.580116,110.255002 L28.270136,105.595751 C24.6106107,102.715949 21.3283939,99.3781998 18.5098667,95.6688855 Z M61,111 C87.509668,111 109,89.509668 109,63 C109,36.490332 87.509668,15 61,15 C34.490332,15 13,36.490332 13,63 C13,89.509668 34.490332,111 61,111 Z" id="upper-gear">
                        <animateTransform
                           attributeName="transform"
                           attributeType="XML"
                           type="rotate"
                           from="0 61 63"
                           to="360 61 63"
                           dur="3.2s"
                           begin="0s"
                           fill="freeze"
                           repeatCount="indefinite"
                           />
                    </path>
                    <path d="M113.733127,156.980141 L110.644882,158.76314 C109.688297,159.315424 108.465116,158.987674 107.912831,158.031089 L104.412831,151.968911 C103.860547,151.012326 104.188297,149.789145 105.144882,149.23686 L108.328389,147.398862 C107.090456,144.271367 106.230723,140.952944 105.805593,137.5 L102,137.5 C100.895431,137.5 100,136.604569 100,135.5 L100,128.5 C100,127.395431 100.895431,126.5 102,126.5 L105.941379,126.5 C106.445022,123.108606 107.369092,119.854359 108.658893,116.791955 L105.144882,114.76314 C104.188297,114.210855 103.860547,112.987674 104.412831,112.031089 L107.912831,105.968911 C108.465116,105.012326 109.688297,104.684576 110.644882,105.23686 L114.26948,107.329523 C116.341626,104.720822 118.728687,102.373523 121.373184,100.345104 L119.23686,96.6448822 C118.684576,95.688297 119.012326,94.4651162 119.968911,93.9128314 L126.031089,90.4128314 C126.987674,89.8605467 128.210855,90.188297 128.76314,91.1448822 L130.929338,94.8968479 C133.956112,93.6826579 137.16349,92.8233213 140.5,92.370313 L140.5,88 C140.5,86.8954305 141.395431,86 142.5,86 L149.5,86 C150.604569,86 151.5,86.8954305 151.5,88 L151.5,92.370313 C154.83651,92.8233213 158.043888,93.6826579 161.070662,94.8968479 L163.23686,91.1448822 C163.789145,90.188297 165.012326,89.8605467 165.968911,90.4128314 L172.031089,93.9128314 C172.987674,94.4651162 173.315424,95.688297 172.76314,96.6448822 L170.626816,100.345104 C173.271313,102.373523 175.658374,104.720822 177.73052,107.329523 L181.355118,105.23686 C182.311703,104.684576 183.534884,105.012326 184.087169,105.968911 L187.587169,112.031089 C188.139453,112.987674 187.811703,114.210855 186.855118,114.76314 L183.341107,116.791955 C184.630908,119.854359 185.554978,123.108606 186.058621,126.5 L190,126.5 C191.104569,126.5 192,127.395431 192,128.5 L192,135.5 C192,136.604569 191.104569,137.5 190,137.5 L186.194407,137.5 C185.769277,140.952944 184.909544,144.271367 183.671611,147.398862 L186.855118,149.23686 C187.811703,149.789145 188.139453,151.012326 187.587169,151.968911 L184.087169,158.031089 C183.534884,158.987674 182.311703,159.315424 181.355118,158.76314 L178.266873,156.980141 C176.175708,159.732213 173.740515,162.208607 171.025383,164.345235 L172.76314,167.355118 C173.315424,168.311703 172.987674,169.534884 172.031089,170.087169 L165.968911,173.587169 C165.012326,174.139453 163.789145,173.811703 163.23686,172.855118 L161.537842,169.912332 C158.374607,171.22756 155.008705,172.153299 151.5,172.629687 L151.5,176 C151.5,177.104569 150.604569,178 149.5,178 L142.5,178 C141.395431,178 140.5,177.104569 140.5,176 L140.5,172.629687 C136.991295,172.153299 133.625393,171.22756 130.462158,169.912332 L128.76314,172.855118 C128.210855,173.811703 126.987674,174.139453 126.031089,173.587169 L119.968911,170.087169 C119.012326,169.534884 118.684576,168.311703 119.23686,167.355118 L120.974617,164.345235 C118.259485,162.208607 115.824292,159.732213 113.733127,156.980141 Z M145.5,168 C165.106109,168 181,152.106109 181,132.5 C181,112.893891 165.106109,97 145.5,97 C125.893891,97 110,112.893891 110,132.5 C110,152.106109 125.893891,168 145.5,168 Z" id="lower-gear">
                        <animateTransform
                           attributeName="transform"
                           attributeType="XML"
                           type="rotate"
                           from="0 145.5 132.5"
                           to="-360 145.5 132.5"
                           dur="2.4s"
                           begin="0s"
                           fill="freeze"
                           repeatCount="indefinite"
                           />
                    </path>
                </g>
            </g>
        </g>
    </g>
</svg>
