<?xml version="1.0" encoding="UTF-8"?>
<svg width="35px" height="21px" viewBox="0 0 35 21" version="1.1" xmlns="http://www.w3.org/2000/svg" xmlns:xlink="http://www.w3.org/1999/xlink">
    <!-- Generator: Sketch 48.2 (47327) - http://www.bohemiancoding.com/sketch -->
    <title>black-car</title>
    <desc>Created with Sketch.</desc>
    <defs></defs>
    <g id="ICO-TIming" stroke="none" stroke-width="1" fill="none" fill-rule="evenodd" transform="translate(-975.000000, -430.000000)">
        <g id="Group-6" transform="translate(939.500000, 422.902062) rotate(-270.000000) translate(-939.500000, -422.902062) translate(783.000000, 203.402062)" fill="#20C565" fill-rule="nonzero">
            <g id="black-car" transform="translate(174.222895, 167.016367) scale(-1, 1) rotate(-270.000000) translate(-174.222895, -167.016367) translate(156.722895, 157.016367)">
                <path d="M33.4163577,11.1157983 C32.3741609,1.37271087 26.9296487,0.078536415 20.3652681,0.078536415 C15.2510657,0.078536415 10.8162844,0.863189369 8.6129177,5.81626669 L8.6129177,5.81128831 C8.6129177,5.81128831 3.99156009,7.93055233 2.37658665,8.37423735 C1.70826155,8.55772605 1.28630749,9.68395653 1.02031307,10.9405392 C0.401816981,11.4506703 0,12.2088058 0,13.0675247 C0,13.7007944 0.222432565,14.277778 0.582845239,14.7452373 C0.582331538,14.7568197 0.582331538,14.7629156 0.582331538,14.7629156 L0.59743435,14.7629156 C1.11154639,15.418842 1.90726935,15.8482015 2.81199968,15.8482015 L2.91535634,15.8482015 C2.91535634,15.4741122 2.96282232,15.1121131 3.04439805,14.7629156 C3.50929752,12.7768486 5.21704538,11.2632192 7.31592523,11.0703833 C7.46572046,11.0565658 7.6165431,11.0477266 7.76972876,11.0477266 C8.05812054,11.0477266 8.33860133,11.0769873 8.61302044,11.1250439 C10.5313857,11.4576806 12.0592355,12.9017144 12.4950595,14.7634236 C12.5766352,15.1126211 12.6241012,15.4751281 12.6241012,15.8487095 L21.9142824,15.8487095 C21.9142824,15.4746201 21.9617483,15.1126211 22.0433241,14.7634236 C22.5412032,12.6359301 24.4657329,11.0482346 26.7686548,11.0482346 C29.0715767,11.0482346 30.9961064,12.6358285 31.4939855,14.7634236 C31.5744311,15.1060172 31.6208697,15.4619202 31.6219998,15.828288 C33.0759793,15.7216085 34.2260533,14.5341136 34.2260533,13.0685407 C34.2276971,12.3060365 33.9170107,11.6174967 33.4163577,11.1157983 Z" id="Shape"></path>
                <path d="M30.5065493,15.8476935 C30.5065493,15.4702514 30.4483983,15.1055092 30.3416512,14.7624076 C29.8717175,13.252639 28.4483546,12.152418 26.7696822,12.152418 C25.0910098,12.152418 23.6677496,13.252639 23.1978159,14.7624076 C23.0910688,15.1056108 23.0329178,15.4702514 23.0329178,15.8476935 C23.0329178,17.8856779 24.7093299,19.543477 26.7701959,19.543477 C28.8310619,19.543477 30.5065493,17.8851699 30.5065493,15.8476935 Z M24.7279259,15.8476935 C24.7279259,15.4470867 24.8491594,15.0762485 25.052585,14.7624076 C25.4152579,14.2020864 26.0466993,13.828505 26.7697849,13.828505 C27.4923569,13.828505 28.1237982,14.2020864 28.4869849,14.7624076 C28.6904105,15.0762485 28.811644,15.4475947 28.811644,15.8476935 C28.811644,16.9628497 27.8974615,17.866882 26.7697849,17.866882 C25.6421083,17.8669836 24.7279259,16.9628497 24.7279259,15.8476935 Z" id="Shape"></path>
                <path d="M7.77024246,19.542969 C9.83110843,19.542969 11.5075205,17.8851699 11.5075205,15.8471855 C11.5075205,15.4697434 11.4493696,15.1050012 11.3426225,14.7618996 C10.953648,13.5135466 9.91206772,12.5476401 8.6139451,12.2502584 C8.34240271,12.1877747 8.06130549,12.15191 7.77065342,12.15191 C7.58284431,12.15191 7.4001722,12.1700963 7.21965765,12.1967154 C5.78684261,12.4078392 4.61611786,13.4212942 4.19868436,14.7618996 C4.09193728,15.1051028 4.03378632,15.4697434 4.03378632,15.8471855 C4.0329644,17.8851699 5.70937649,19.542969 7.77024246,19.542969 Z M6.0530425,14.7624076 C6.30506425,14.3733831 6.68900444,14.082199 7.14157508,13.9363021 C7.34048014,13.8721928 7.54894003,13.828505 7.76972876,13.828505 C8.07147677,13.828505 8.35534798,13.8969831 8.61302044,14.0131113 C8.97291941,14.1750609 9.27518113,14.4358668 9.48703145,14.7624076 C9.69045707,15.0762485 9.81169053,15.4475947 9.81169053,15.8476935 C9.81169053,16.9628497 8.8975081,17.866882 7.7698315,17.866882 C6.6421549,17.866882 5.72797246,16.9628497 5.72797246,15.8476935 C5.72838343,15.4470867 5.84961688,15.0762485 6.0530425,14.7624076 Z" id="Shape"></path>
            </g>
        </g>
    </g>
</svg>