<?xml version="1.0" encoding="UTF-8"?>
<svg width="53px" height="53px" viewBox="0 0 53 53" version="1.1" xmlns="http://www.w3.org/2000/svg" xmlns:xlink="http://www.w3.org/1999/xlink">
    <!-- Generator: Sketch 48.2 (47327) - http://www.bohemiancoding.com/sketch -->
    <title>lending_1</title>
    <desc>Created with Sketch.</desc>
    <defs></defs>
    <g id="Home-Slide5" stroke="none" stroke-width="1" fill="none" fill-rule="evenodd" transform="translate(-508.000000, -445.000000)">
        <g id="lending_1" transform="translate(509.000000, 446.000000)">
            <circle id="Oval-5" stroke="#20C565" stroke-width="2" fill="#070E3A" cx="25.5" cy="25.5" r="25.5"></circle>
            <path d="M33.3704,27.3392 C33.0048,26.708 32.5064,26.2128 31.8752,25.8624 C31.4408,25.6128 30.8096,25.3792 29.9864,25.1704 C30.7536,24.9096 31.372,24.5848 31.8376,24.1848 C32.308,23.7816 32.6624,23.3208 32.908,22.8032 C33.1592,22.2832 33.2896,21.7344 33.2896,21.1536 C33.2896,20.3592 33.0536,19.6264 32.5832,18.9576 C32.1096,18.2888 31.4408,17.7784 30.5672,17.4248 C30.2312,17.2864 29.8296,17.1816 29.3856,17.0968 L29.3856,14 L26.4168,14 L26.4168,16.8888 L24.5048,16.8888 L24.5048,14 L21.5344,14 L21.5344,16.8888 L17,16.8888 L17,19.3144 L17.6848,19.3144 C18.1472,19.3144 18.4648,19.3576 18.6256,19.4424 C18.7872,19.5256 18.9064,19.6384 18.9744,19.7832 C19.0432,19.9248 19.0752,20.2576 19.0752,20.7784 L19.0752,30.568 C19.0752,31.0824 19.0432,31.4056 18.9744,31.5512 C18.9064,31.7 18.7888,31.8104 18.6256,31.8968 C18.4648,31.9752 18.1472,32.0136 17.6848,32.0136 L17,32.0136 L17,34.4368 L21.5344,34.4368 L21.5344,37.3272 L24.5048,37.3272 L24.5048,34.4368 L26.1952,34.4368 C26.2696,34.4368 26.3432,34.4368 26.4152,34.4368 L26.4152,37.3272 L29.384,37.3272 L29.384,34.1912 C29.8872,34.096 30.3264,33.9712 30.7,33.8208 C31.7248,33.4112 32.5184,32.8144 33.08,32.0304 C33.6472,31.2448 33.9256,30.3848 33.9256,29.4536 C33.9248,28.6784 33.7408,27.9736 33.3704,27.3392 Z M23.4184,19.7168 L25.3416,19.7168 C26.4648,19.7168 27.2496,19.7872 27.6856,19.9296 C28.1184,20.0656 28.4544,20.2984 28.6824,20.624 C28.9152,20.9544 29.0296,21.3512 29.0296,21.8104 C29.0296,22.2528 28.9064,22.6432 28.6672,22.984 C28.42,23.3264 28.0576,23.5792 27.5768,23.7432 C27.0936,23.9136 26.3504,23.9992 25.344,23.9992 L23.4208,23.9992 L23.4184,19.7168 Z M28.8528,30.5704 C28.5072,31.0032 28.0984,31.2936 27.6032,31.4296 C27.1176,31.5672 26.5,31.6376 25.7536,31.6376 L24.472,31.6376 C24.0464,31.6376 23.7848,31.6128 23.6864,31.5672 C23.588,31.5264 23.5224,31.4424 23.4784,31.3264 C23.4488,31.2312 23.424,30.9184 23.4192,30.376 L23.4192,26.576 L25.6896,26.576 C26.6928,26.576 27.4256,26.668 27.9136,26.8544 C28.3976,27.0384 28.7664,27.3104 29.0024,27.6744 C29.248,28.032 29.3728,28.468 29.3728,28.9928 C29.3736,29.608 29.2,30.1296 28.8528,30.5704 Z" id="Shape" fill="#20C565" fill-rule="nonzero"></path>
        </g>
    </g>
</svg>