<?xml version="1.0" encoding="UTF-8"?>
<svg width="53px" height="53px" viewBox="0 0 53 53" version="1.1" xmlns="http://www.w3.org/2000/svg" xmlns:xlink="http://www.w3.org/1999/xlink">
    <!-- Generator: Sketch 48.2 (47327) - http://www.bohemiancoding.com/sketch -->
    <title>lending_3</title>
    <desc>Created with Sketch.</desc>
    <defs></defs>
    <g id="Home-Slide5" stroke="none" stroke-width="1" fill="none" fill-rule="evenodd" transform="translate(-771.000000, -558.000000)">
        <g id="lending_3" transform="translate(772.000000, 559.000000)">
            <circle id="Oval-5-Copy-2" stroke="#20C565" stroke-width="2" fill="#070E3A" cx="25.5" cy="25.5" r="25.5"></circle>
            <path d="M38,25.5 C38,18.5964406 32.4035594,13 25.5,13 C18.5964406,13 13,18.5964406 13,25.5 C13,29.0657624 14.493037,32.2828074 16.8880578,34.5600815" id="Oval-6" stroke="#20C565" stroke-width="2" stroke-linecap="round"></path>
            <g id="point-at" transform="translate(19.786805, 20.846701)" fill="#20C565" fill-rule="nonzero">
                <path d="M13.1968116,13.7803711 L12.5130373,13.7803711 L13.142387,12.1957969 C13.2234576,11.9916873 13.2645414,11.7768909 13.2645414,11.5573174 L13.2646122,7.12409065 C13.2646122,6.2618974 12.6202939,5.52493715 11.7657796,5.40982471 C11.7638333,5.409577 11.7619224,5.40929391 11.7599762,5.4090462 L7.16591755,4.8355718 L7.16591755,1.83850811 C7.16591755,0.824754278 6.34119865,0 5.32744482,0 C4.31369099,0 3.48893671,0.824754278 3.48893671,1.83850811 L3.48893671,8.08345535 L2.6187815,7.52583413 C1.79763665,6.9997777 0.700193628,7.27317417 0.222085976,8.12326522 C-0.171412439,8.82285728 -0.0286277174,9.68551055 0.569298787,10.2210152 L4.07292092,13.3590235 L4.2402639,13.7804065 L3.92458051,13.7804065 C3.59180541,13.7804065 3.32198298,14.0501936 3.32198298,14.383004 L3.32198298,17.5153505 C3.32198298,17.8481256 3.59177002,18.117948 3.92458051,18.117948 L13.1967762,18.117948 C13.5295513,18.117948 13.7993737,17.848161 13.7993737,17.5153505 L13.7993737,14.383004 C13.7994091,14.0501936 13.5295867,13.7803711 13.1968116,13.7803711 Z M1.37331655,9.32322307 C1.19967476,9.16769919 1.15823711,8.9172332 1.27253566,8.71404364 C1.41146325,8.46701015 1.72912829,8.38703655 1.96855367,8.54057878 L3.76640264,9.69265863 C4.16683682,9.94931726 4.69409638,9.66098767 4.69409638,9.18532169 L4.69409638,1.83850811 C4.69409638,1.48931365 4.97821498,1.20519506 5.32740944,1.20519506 C5.67660389,1.20519506 5.96072249,1.48931365 5.96072249,1.83850811 L5.96072249,5.36764394 C5.96072249,5.67154362 6.18705485,5.92791916 6.48868979,5.96560583 L11.6072832,6.60461612 C11.8652158,6.64053346 12.0594171,6.86339795 12.0594171,7.12412603 L12.0593464,11.5573528 C12.0593464,11.6239149 12.0468549,11.6890261 12.0222966,11.7509172 L11.2162618,13.7804065 L5.53711012,13.7804065 L5.14067462,12.7823289 C5.10624351,12.6956673 5.05213748,12.6181353 4.9826383,12.5558904 L1.37331655,9.32322307 Z M12.594214,16.9127176 L4.52721342,16.9127176 L4.52721342,14.9855662 C4.67576615,14.9855662 12.3500822,14.9855662 12.594214,14.9855662 L12.594214,16.9127176 Z" id="Shape"></path>
            </g>
        </g>
    </g>
</svg>