<?xml version="1.0" encoding="UTF-8"?>
<svg width="53px" height="53px" viewBox="0 0 53 53" version="1.1" xmlns="http://www.w3.org/2000/svg" xmlns:xlink="http://www.w3.org/1999/xlink">
    <!-- Generator: Sketch 48.2 (47327) - http://www.bohemiancoding.com/sketch -->
    <title>lending_4</title>
    <desc>Created with Sketch.</desc>
    <defs></defs>
    <g id="Home-Slide5" stroke="none" stroke-width="1" fill="none" fill-rule="evenodd" transform="translate(-880.000000, -445.000000)">
        <g id="lending_4" transform="translate(881.000000, 446.000000)">
            <circle id="Oval-5-Copy" stroke="#20C565" stroke-width="2" fill="#070E3A" cx="25.5" cy="25.5" r="25.5"></circle>
            <g id="coins" transform="translate(13.000000, 14.000000)" fill="#20C565" fill-rule="nonzero">
                <path d="M15,0 C11.1221818,0 7,1.28823529 7,3.67647059 L7,6.61764706 C7,7.02352941 7.32581818,7.35294118 7.72727273,7.35294118 C8.12872727,7.35294118 8.45454545,7.02352941 8.45454545,6.61764706 L8.45454545,5.85147059 C9.99781818,6.83529412 12.5461818,7.35294118 15,7.35294118 C17.4538182,7.35294118 20.0021818,6.83529412 21.5454545,5.85147059 L21.5454545,6.61764706 C21.5454545,7.33676471 19.7563636,8.48382353 16.3934545,8.76764706 C15.9949091,8.8 15.6967273,9.15735294 15.7301818,9.56176471 C15.7607273,9.94558824 16.0792727,10.2352941 16.4530909,10.2352941 C16.4749091,10.2352941 16.4938182,10.2338235 16.5156364,10.2323529 C18.4094545,10.0720588 20.296,9.57647059 21.5454545,8.77205882 L21.5454545,9.55882353 C21.5454545,10.1867647 20.2276364,11.0897059 17.7825455,11.5264706 C17.3883636,11.5970588 17.1236364,11.9794118 17.1934545,12.3779412 C17.256,12.7338235 17.5629091,12.9852941 17.9076364,12.9852941 C17.9498182,12.9852941 17.9934545,12.9823529 18.0356364,12.9735294 C19.5149091,12.7102941 20.6989091,12.2794118 21.5454545,11.7323529 L21.5454545,12.5 C21.5454545,13.1279412 20.2276364,14.0308824 17.7825455,14.4676471 C17.3883636,14.5382353 17.1236364,14.9205882 17.1934545,15.3191176 C17.256,15.675 17.5629091,15.9264706 17.9076364,15.9264706 C17.9498182,15.9264706 17.9934545,15.9235294 18.0356364,15.9147059 C19.5149091,15.6514706 20.6989091,15.2191176 21.5454545,14.6735294 L21.5454545,15.4411765 C21.5454545,16.0691176 20.2276364,16.9720588 17.7825455,17.4088235 C17.3883636,17.4794118 17.1236364,17.8617647 17.1934545,18.2602941 C17.256,18.6161765 17.5629091,18.8676471 17.9076364,18.8676471 C17.9498182,18.8676471 17.9934545,18.8647059 18.0356364,18.8558824 C19.5149091,18.5926471 20.6989091,18.1602941 21.5454545,17.6147059 L21.5454545,18.3823529 C21.5454545,19.1014706 19.7563636,20.2485294 16.3934545,20.5323529 C15.9949091,20.5647059 15.6967273,20.9220588 15.7301818,21.3264706 C15.7607273,21.7102941 16.0792727,22 16.4530909,22 C16.4749091,22 16.4938182,21.9985294 16.5156364,21.9970588 C19.7432727,21.7235294 23,20.5014706 23,18.3823529 L23,3.67647059 C23,1.28823529 18.8778182,0 15,0 Z M15,5.88235294 C11.0043636,5.88235294 8.45454545,4.575 8.45454545,3.67647059 C8.45454545,2.77794118 11.0043636,1.47058824 15,1.47058824 C18.9956364,1.47058824 21.5454545,2.77794118 21.5454545,3.67647059 C21.5454545,4.575 18.9956364,5.88235294 15,5.88235294 Z" id="Shape"></path>
                <path d="M8,9 C4.12218182,9 0,10.2653333 0,12.6111111 L0,18.3888889 C0,20.7346667 4.12218182,22 8,22 C11.8778182,22 16,20.7346667 16,18.3888889 L16,12.6111111 C16,10.2653333 11.8778182,9 8,9 Z M14.5454545,18.3888889 C14.5454545,19.2714444 11.9956364,20.5555556 8,20.5555556 C4.00436364,20.5555556 1.45454545,19.2714444 1.45454545,18.3888889 L1.45454545,17.6363333 C2.99781818,18.6026667 5.54618182,19.1111111 8,19.1111111 C10.4538182,19.1111111 13.0021818,18.6026667 14.5454545,17.6363333 L14.5454545,18.3888889 Z M14.5454545,15.5 C14.5454545,16.3825556 11.9956364,17.6666667 8,17.6666667 C4.00436364,17.6666667 1.45454545,16.3825556 1.45454545,15.5 L1.45454545,14.7474444 C2.99781818,15.7137778 5.54618182,16.2222222 8,16.2222222 C10.4538182,16.2222222 13.0021818,15.7137778 14.5454545,14.7474444 L14.5454545,15.5 Z M8,14.7777778 C4.00436364,14.7777778 1.45454545,13.4936667 1.45454545,12.6111111 C1.45454545,11.7285556 4.00436364,10.4444444 8,10.4444444 C11.9956364,10.4444444 14.5454545,11.7285556 14.5454545,12.6111111 C14.5454545,13.4936667 11.9956364,14.7777778 8,14.7777778 Z" id="Shape"></path>
            </g>
        </g>
    </g>
</svg>