<?xml version="1.0" encoding="UTF-8"?>
<svg width="53px" height="53px" viewBox="0 0 53 53" version="1.1" xmlns="http://www.w3.org/2000/svg" xmlns:xlink="http://www.w3.org/1999/xlink">
    <!-- Generator: Sketch 48.2 (47327) - http://www.bohemiancoding.com/sketch -->
    <title>lending_2</title>
    <desc>Created with Sketch.</desc>
    <defs></defs>
    <g id="Home-Slide5" stroke="none" stroke-width="1" fill="none" fill-rule="evenodd" transform="translate(-618.000000, -558.000000)">
        <g id="lending_2" transform="translate(619.000000, 559.000000)">
            <circle id="Oval-5-Copy-3" stroke="#20C565" stroke-width="2" fill="#070E3A" cx="25.5" cy="25.5" r="25.5"></circle>
            <g id="Page-1" transform="translate(14.000000, 12.000000)" fill="#20C565">
                <path d="M12.5806452,24.1765282 L12.5806452,26 L10.0645161,26 L10.0645161,24.2968817 C4.45010873,23.9089775 0,19.178415 0,13.4193548 C0,7.6602947 4.45010873,2.92973221 10.0645161,2.54182799 L10.0645161,0 L12.5806452,0 L12.5806452,2.66218066 C14.853703,3.04129014 16.8898027,4.13808919 18.4516129,5.71316661 L16.3160571,7.86707583 C15.3052974,6.84767749 14.0188577,6.10636745 12.5806452,5.76807456 L12.5806452,7.798004 C15.0044225,8.52732948 16.7741935,10.7714227 16.7741935,13.4194058 C16.7741935,16.0673056 15.0044225,18.3113836 12.5806452,19.0407063 L12.5806452,21.0706351 C14.0188577,20.7323422 15.3052974,19.9910322 16.3160571,18.9716338 L18.4516129,21.1254415 C16.8898027,22.7005999 14.853703,23.7974154 12.5806452,24.1765282 Z M10.0645161,5.59930022 C6.11821365,5.97935694 3.02158532,9.34151261 3.02158532,13.4193548 C3.02158532,17.4971971 6.11821365,20.8593527 10.0645161,21.2394095 L10.0645161,19.2347542 C8.76323303,19.0553767 7.59631536,18.45166 6.70967742,17.5688208 L8.88208669,15.4059267 C9.20776048,15.730174 9.61241465,15.9757869 10.0645161,16.111344 L10.0645161,10.7273657 C9.61241465,10.8629228 9.20776048,11.1085357 8.88208669,11.432783 L6.70967742,9.26988886 C7.59631536,8.38713438 8.76323303,7.78336167 10.0645161,7.60396275 L10.0645161,5.59930022 Z M12.5806452,15.6595356 C13.2605901,15.1458394 13.7004644,14.332813 13.7004644,13.4194058 C13.7004644,12.5059386 13.2605901,11.6928875 12.5806452,11.1791811 L12.5806452,15.6595356 Z" id="Combined-Shape"></path>
            </g>
        </g>
    </g>
</svg>