<?xml version="1.0" encoding="UTF-8"?>
<svg width="130px" height="32px" viewBox="0 0 130 32" version="1.1" xmlns="http://www.w3.org/2000/svg" xmlns:xlink="http://www.w3.org/1999/xlink">
    <!-- Generator: Sketch 48.2 (47327) - http://www.bohemiancoding.com/sketch -->
    <title>logo</title>
    <desc>Created with Sketch.</desc>
    <defs></defs>
    <g id="header" stroke="none" stroke-width="1" fill="none" fill-rule="evenodd">
        <g id="logo">
            <g>
                <path d="M33.32,25.18 C31.719992,25.18 30.5933366,24.7033381 29.94,23.75 C29.2866634,22.7966619 28.96,21.4800084 28.96,19.8 L28.96,14.08 C28.96,12.3066578 29.2799968,10.9600046 29.92,10.04 C30.5600032,9.1199954 31.6933252,8.66 33.32,8.66 C34.7733406,8.66 35.8166635,9.0533294 36.45,9.84 C37.0833365,10.6266706 37.4,11.786659 37.4,13.32 L37.4,14.6 L35.26,14.6 L35.26,13.46 C35.26,12.7133296 35.226667,12.140002 35.16,11.74 C35.093333,11.339998 34.9233347,11.0200012 34.65,10.78 C34.3766653,10.5399988 33.940003,10.42 33.34,10.42 C32.7266636,10.42 32.2700015,10.5499987 31.97,10.81 C31.6699985,11.0700013 31.4733338,11.4299977 31.38,11.89 C31.2866662,12.3500023 31.24,12.9666628 31.24,13.74 L31.24,20.16 C31.24,20.9866708 31.306666,21.633331 31.44,22.1 C31.573334,22.566669 31.7899985,22.899999 32.09,23.1 C32.3900015,23.300001 32.806664,23.4 33.34,23.4 C33.9133362,23.4 34.3399986,23.2733346 34.62,23.02 C34.9000014,22.7666654 35.0766663,22.4200022 35.15,21.98 C35.2233337,21.5399978 35.26,20.9400038 35.26,20.18 L35.26,18.98 L37.4,18.98 L37.4,20.18 C37.4,21.7933414 37.0966697,23.0299957 36.49,23.89 C35.8833303,24.7500043 34.8266742,25.18 33.32,25.18 Z M42.04,19.28 L38.54,8.8 L40.64,8.8 L43.12,16.62 L45.56,8.8 L47.68,8.8 L44.2,19.28 L44.2,25 L42.04,25 L42.04,19.28 Z M49.18,8.8 L52.9,8.8 C54.366674,8.8 55.4533298,9.1299967 56.16,9.79 C56.8666702,10.4500033 57.22,11.4733264 57.22,12.86 C57.22,14.926677 56.4466744,16.0666656 54.9,16.28 C55.8600048,16.5066678 56.5599978,16.9566633 57,17.63 C57.4400022,18.3033367 57.66,19.2199942 57.66,20.38 C57.66,21.8333406 57.3166701,22.9666626 56.63,23.78 C55.9433299,24.5933374 54.900007,25 53.5,25 L49.18,25 L49.18,8.8 Z M52.78,15.56 C53.713338,15.56 54.3599982,15.3566687 54.72,14.95 C55.0800018,14.5433313 55.26,13.8466716 55.26,12.86 C55.26,12.1399964 55.1500011,11.6100017 54.93,11.27 C54.7099989,10.9299983 54.3800022,10.7133338 53.94,10.62 C53.4999978,10.5266662 52.846671,10.48 51.98,10.48 L51.44,10.48 L51.44,15.56 L52.78,15.56 Z M52.96,23.38 C53.62667,23.38 54.1433315,23.2766677 54.51,23.07 C54.8766685,22.8633323 55.1333326,22.5466688 55.28,22.12 C55.4266674,21.6933312 55.5,21.113337 55.5,20.38 C55.5,19.3399948 55.2866688,18.5633359 54.86,18.05 C54.4333312,17.5366641 53.7400048,17.28 52.78,17.28 L51.44,17.28 L51.44,23.38 L52.96,23.38 Z M59.66,8.8 L65.94,8.8 L65.94,10.48 L61.92,10.48 L61.92,15.84 L65.18,15.84 L65.18,17.44 L61.92,17.44 L61.92,23.38 L65.98,23.38 L65.98,25 L59.66,25 L59.66,8.8 Z M67.8,8.8 L71.06,8.8 C72.7000082,8.8 73.9033295,9.1366633 74.67,9.81 C75.4366705,10.4833367 75.82,11.5799924 75.82,13.1 C75.82,15.1800104 75.15334,16.4399978 73.82,16.88 L76.12,25 L73.94,25 L71.82,17.4 L70.06,17.4 L70.06,25 L67.8,25 L67.8,8.8 Z M70.92,15.78 C71.8933382,15.78 72.5899979,15.5866686 73.01,15.2 C73.4300021,14.8133314 73.64,14.1133384 73.64,13.1 C73.64,12.43333 73.5666674,11.9100019 73.42,11.53 C73.2733326,11.1499981 73.0133352,10.8700009 72.64,10.69 C72.2666648,10.5099991 71.7400034,10.42 71.06,10.42 L70.06,10.42 L70.06,15.78 L70.92,15.78 Z" id="Cyber" fill="#20C565"></path>
                <path d="M82.32,25.18 C80.719992,25.18 79.5933366,24.7033381 78.94,23.75 C78.2866634,22.7966619 77.96,21.4800084 77.96,19.8 L77.96,14.08 C77.96,12.3066578 78.2799968,10.9600046 78.92,10.04 C79.5600032,9.1199954 80.6933252,8.66 82.32,8.66 C83.7733406,8.66 84.8166635,9.0533294 85.45,9.84 C86.0833365,10.6266706 86.4,11.786659 86.4,13.32 L86.4,14.6 L84.26,14.6 L84.26,13.46 C84.26,12.7133296 84.226667,12.140002 84.16,11.74 C84.093333,11.339998 83.9233347,11.0200012 83.65,10.78 C83.3766653,10.5399988 82.940003,10.42 82.34,10.42 C81.7266636,10.42 81.2700015,10.5499987 80.97,10.81 C80.6699985,11.0700013 80.4733338,11.4299977 80.38,11.89 C80.2866662,12.3500023 80.24,12.9666628 80.24,13.74 L80.24,20.16 C80.24,20.9866708 80.306666,21.633331 80.44,22.1 C80.573334,22.566669 80.7899985,22.899999 81.09,23.1 C81.3900015,23.300001 81.806664,23.4 82.34,23.4 C82.9133362,23.4 83.3399986,23.2733346 83.62,23.02 C83.9000014,22.7666654 84.0766663,22.4200022 84.15,21.98 C84.2233337,21.5399978 84.26,20.9400038 84.26,20.18 L84.26,18.98 L86.4,18.98 L86.4,20.18 C86.4,21.7933414 86.0966697,23.0299957 85.49,23.89 C84.8833303,24.7500043 83.8266742,25.18 82.32,25.18 Z M88.56,8.8 L91.82,8.8 C93.4600082,8.8 94.6633295,9.1366633 95.43,9.81 C96.1966705,10.4833367 96.58,11.5799924 96.58,13.1 C96.58,15.1800104 95.91334,16.4399978 94.58,16.88 L96.88,25 L94.7,25 L92.58,17.4 L90.82,17.4 L90.82,25 L88.56,25 L88.56,8.8 Z M91.68,15.78 C92.6533382,15.78 93.3499979,15.5866686 93.77,15.2 C94.1900021,14.8133314 94.4,14.1133384 94.4,13.1 C94.4,12.43333 94.3266674,11.9100019 94.18,11.53 C94.0333326,11.1499981 93.7733352,10.8700009 93.4,10.69 C93.0266648,10.5099991 92.5000034,10.42 91.82,10.42 L90.82,10.42 L90.82,15.78 L91.68,15.78 Z M98.94,8.8 L105.22,8.8 L105.22,10.48 L101.2,10.48 L101.2,15.84 L104.46,15.84 L104.46,17.44 L101.2,17.44 L101.2,23.38 L105.26,23.38 L105.26,25 L98.94,25 L98.94,8.8 Z M107.08,8.8 L110.6,8.8 C112.346675,8.8 113.58333,9.199996 114.31,10 C115.03667,10.800004 115.4,12.0466582 115.4,13.74 L115.4,19.7 C115.4,21.4866756 115.043337,22.8166623 114.33,23.69 C113.616663,24.5633377 112.433342,25 110.78,25 L107.08,25 L107.08,8.8 Z M110.62,23.38 C111.406671,23.38 111.976665,23.2266682 112.33,22.92 C112.683335,22.6133318 112.903333,22.1966693 112.99,21.67 C113.076667,21.1433307 113.12,20.346672 113.12,19.28 L113.12,14.02 C113.12,13.0999954 113.063334,12.3966691 112.95,11.91 C112.836666,11.4233309 112.600002,11.0633345 112.24,10.83 C111.879998,10.5966655 111.320004,10.48 110.56,10.48 L109.34,10.48 L109.34,23.38 L110.62,23.38 Z M117.74,8.8 L119.96,8.8 L119.96,25 L117.74,25 L117.74,8.8 Z M124.24,10.48 L121.3,10.48 L121.3,8.8 L129.36,8.8 L129.36,10.48 L126.5,10.48 L126.5,25 L124.24,25 L124.24,10.48 Z" id="Credit" fill="#747D87"></path>
                <path d="M15,28.8258605 L15,32 L12,32 L12,28.9693589 C5.30589888,28.5068578 0,22.8665717 0,16 C0,9.13342829 5.30589888,3.49314225 12,3.03064107 L12,0 L15,0 L15,3.17413847 C17.7101844,3.62615363 20.1378417,4.93387558 22,6.8118525 L19.4537604,9.37997503 C18.2486238,8.16453855 16.7147918,7.28066888 15,6.87731967 L15,9.29762016 C17.8898884,10.1672005 20,12.8428501 20,16.0000608 C20,19.157172 17.8898884,21.8328035 15,22.7023806 L15,25.1226803 C16.7147918,24.7193311 18.2486238,23.8354615 19.4537604,22.620025 L22,25.1880264 C20.1378417,27.0660999 17.7101844,28.3738414 15,28.8258605 Z M12,6.67608872 C7.2947932,7.12923328 3.60265942,11.1379573 3.60265942,16 C3.60265942,20.8620427 7.2947932,24.8707667 12,25.3239113 L12,22.9337454 C10.4484701,22.7198723 9.05714523,22.0000562 8,20.9474402 L10.5901803,18.3686049 C10.9784836,18.7552075 11.4609559,19.0480536 12,19.2096794 L12,12.7903206 C11.4609559,12.9519464 10.9784836,13.2447925 10.5901803,13.6313951 L8,11.0525598 C9.05714523,10.0000448 10.4484701,9.28016199 12,9.06626328 L12,6.67608872 Z M15,18.6709847 C15.8107036,18.0585008 16.3351691,17.0891232 16.3351691,16.0000608 C16.3351691,14.9109268 15.8107036,13.9415197 15,13.3290237 L15,18.6709847 Z" id="symbol" fill="#20C565"></path>
            </g>
        </g>
    </g>
</svg>