<?xml version="1.0" encoding="UTF-8"?>
<svg width="64px" height="74px" viewBox="0 0 65 74" version="1.1" xmlns="http://www.w3.org/2000/svg" xmlns:xlink="http://www.w3.org/1999/xlink">
    <!-- Generator: Sketch 48.2 (47327) - http://www.bohemiancoding.com/sketch -->
    <title>Fill 1</title>
    <desc>Created with Sketch.</desc>
    <g id="Home" stroke="none" stroke-width="1" fill="none" fill-rule="evenodd" transform="translate(-688.000000, -219.000000)">
        <g id="Group" transform="translate(461.000000, 222.000000)" fill="#20C565" stroke="#00FF66">
            <path d="M239.458035,32.4853642 C239.458035,22.3689249 247.255676,14.0585434 257.244116,13.3190289 L257.244116,16.0477225 C253.544694,16.4013873 249.775353,18.1571329 247.113988,20.8184971 L252.314636,26.0476301 C253.63311,24.7291561 255.394405,23.8139191 257.244116,23.4987283 L257.244116,41.4723699 C255.394405,41.1571792 253.661595,40.2419422 252.343121,38.9234682 L247.085133,44.1529711 C249.746497,46.8143353 253.544694,48.5700809 257.244116,48.9237457 L257.244116,51.6516994 C247.255676,50.912185 239.458035,42.6018035 239.458035,32.4853642 M267.832971,32.4857341 C267.832971,36.7430289 265.012902,40.326289 260.943538,41.3199538 L260.943538,23.6515145 C265.012902,24.6448092 267.832971,28.2284393 267.832971,32.4857341 M277.600555,51.3446474 L272.300763,46.073711 C269.321618,49.0524855 265.382844,51.0560925 260.943538,51.5736416 L260.943538,48.8401387 C269.082266,47.7521387 275.231815,40.8349595 275.231815,32.4857341 C275.231815,24.1361387 269.082266,17.2193295 260.943538,16.1313295 L260.943538,13.3967168 C265.382844,13.9142659 269.350104,15.9178728 272.329249,18.8970173 L277.571699,13.625711 C273.240416,9.29442775 267.602497,6.44846243 260.943538,5.90390751 L260.943538,0 L257.244116,0 L257.244116,5.84138728 C243.186312,6.592 232,18.2547977 232,32.4853642 C232,46.7159306 243.186312,58.3783584 257.244116,59.1289711 L257.244116,64 L260.943538,64 L260.943538,59.0664509 C267.602497,58.521896 273.268902,55.6763006 277.600555,51.3446474" id="Fill-1"></path>
        </g>
    </g>
</svg>
