<?xml version="1.0" encoding="UTF-8"?>
<svg width="78px" height="12px" viewBox="0 0 78 12" version="1.1" xmlns="http://www.w3.org/2000/svg" xmlns:xlink="http://www.w3.org/1999/xlink">
    <!-- Generator: Sketch 48.2 (47327) - http://www.bohemiancoding.com/sketch -->
    <title>Group 19</title>
    <desc>Created with Sketch.</desc>
    <defs></defs>
    <g id="Lending" stroke="none" stroke-width="1" fill="none" fill-rule="evenodd" transform="translate(-733.000000, -1228.000000)">
        <g id="Group-7" transform="translate(720.000000, 899.000000)">
            <g id="Group-8" transform="translate(13.000000, 308.000000)">
                <g id="Group-19" transform="translate(0.000000, 21.000000)">
                    <polygon id="Star" fill="#20C565" points="72 10 68.4732885 11.854102 69.1468305 7.92705098 66.2936609 5.14589803 70.2366442 4.57294902 72 1 73.7633558 4.57294902 77.7063391 5.14589803 74.8531695 7.92705098 75.5267115 11.854102"></polygon>
                    <polygon id="Star" fill="#20C565" points="59 10 55.4732885 11.854102 56.1468305 7.92705098 53.2936609 5.14589803 57.2366442 4.57294902 59 1 60.7633558 4.57294902 64.7063391 5.14589803 61.8531695 7.92705098 62.5267115 11.854102"></polygon>
                    <polygon id="Star" fill="#20C565" points="46 10 42.4732885 11.854102 43.1468305 7.92705098 40.2936609 5.14589803 44.2366442 4.57294902 46 1 47.7633558 4.57294902 51.7063391 5.14589803 48.8531695 7.92705098 49.5267115 11.854102"></polygon>
                    <polygon id="Star" fill="#20C565" points="33 10 29.4732885 11.854102 30.1468305 7.92705098 27.2936609 5.14589803 31.2366442 4.57294902 33 1 34.7633558 4.57294902 38.7063391 5.14589803 35.8531695 7.92705098 36.5267115 11.854102"></polygon>
                    <polygon id="Star" fill="#20C565" points="20 10 16.4732885 11.854102 17.1468305 7.92705098 14.2936609 5.14589803 18.2366442 4.57294902 20 1 21.7633558 4.57294902 25.7063391 5.14589803 22.8531695 7.92705098 23.5267115 11.854102"></polygon>
                    <polygon id="Star" fill="#20C565" points="7 10 3.47328849 11.854102 4.14683045 7.92705098 1.2936609 5.14589803 5.23664424 4.57294902 7 1 8.76335576 4.57294902 12.7063391 5.14589803 9.85316955 7.92705098 10.5267115 11.854102"></polygon>
                </g>
            </g>
        </g>
    </g>
</svg>
