<?xml version="1.0" encoding="UTF-8"?>
<svg width="25px" height="26px" viewBox="0 0 25 26" version="1.1" xmlns="http://www.w3.org/2000/svg" xmlns:xlink="http://www.w3.org/1999/xlink">
    <!-- Generator: Sketch 48.2 (47327) - http://www.bohemiancoding.com/sketch -->
    <title>mark_4_active</title>
    <desc>Created with Sketch.</desc>
    <defs></defs>
    <g id="Page-1" stroke="none" stroke-width="1" fill="none" fill-rule="evenodd">
        <g id="mark_4_active" transform="translate(1.000000, 0.000000)" stroke="#20C565">
            <g id="Gray">
                <g id="Group-4" transform="translate(0.000000, 11.000000)">
                    <path d="M3,10 C4.65685425,10 6,8.66751414 6,7.02380952 C6,5.92800645 5,3.58673661 3,0 C1,3.58673661 0,5.92800645 0,7.02380952 C0,8.66751414 1.34314575,10 3,10 Z" id="Oval-9" stroke-linejoin="round"></path>
                    <path d="M3,7.69869402 L3,14.0740797" id="Line-3" stroke-linecap="round"></path>
                </g>
                <g id="Group-5" transform="translate(7.000000, 0.000000)">
                    <path d="M5.5,20 C8.53756612,20 11,17.3350283 11,14.047619 C11,11.8560129 9.16666667,7.17347322 5.5,0 C1.83333333,7.17347322 0,11.8560129 0,14.047619 C0,17.3350283 2.46243388,20 5.5,20 Z" id="Oval-9" stroke-linejoin="round"></path>
                    <path d="M5.5,7 L5.5,25" id="Line-3" stroke-linecap="round"></path>
                    <path d="M2,11 L5,14" id="Line-4" stroke-linecap="round"></path>
                    <path d="M9,15 L6,18" id="Line-5" stroke-linecap="round"></path>
                </g>
            </g>
            <path d="M21,18.5118204 L21,25.0740797" id="Line-3" stroke-linecap="round"></path>
            <path d="M21,22 C22.1045695,22 23,21.1045695 23,20 C23,18.8954305 22.1045695,15 21,15 C19.8954305,15 19,18.8954305 19,20 C19,21.1045695 19.8954305,22 21,22 Z" id="Oval-13"></path>
        </g>
    </g>
</svg>