<?xml version="1.0" encoding="UTF-8"?>
<svg width="38px" height="24px" viewBox="0 0 38 24" version="1.1" xmlns="http://www.w3.org/2000/svg" xmlns:xlink="http://www.w3.org/1999/xlink">
    <!-- Generator: Sketch 48.2 (47327) - http://www.bohemiancoding.com/sketch -->
    <title>mark_5</title>
    <desc>Created with Sketch.</desc>
    <defs></defs>
    <g id="Page-1" stroke="none" stroke-width="1" fill="none" fill-rule="evenodd">
        <g id="mark_5" transform="translate(1.000000, -1.000000)" stroke="#505B9E">
            <g id="Group" transform="translate(5.000000, 0.500000)" stroke-linecap="round">
                <path d="M0.5,23.5 L15.5,0.5" id="Line-10"></path>
                <path d="M8.5,23.5 L23.5,0.5" id="Line-10" transform="translate(16.000000, 12.000000) scale(-1, 1) translate(-16.000000, -12.000000) "></path>
            </g>
            <g id="Group-5" transform="translate(27.000000, 4.000000)">
                <path d="M4.5,16 C6.98528137,16 9,13.8680226 9,11.2380952 C9,9.48481032 7.5,5.73877857 4.5,0 C1.5,5.73877857 0,9.48481032 0,11.2380952 C0,13.8680226 2.01471863,16 4.5,16 Z" id="Oval-9" stroke-linejoin="round"></path>
                <path d="M4.5,7.5 L4.5,20" id="Line-3" stroke-linecap="round"></path>
                <path d="M1,9 L4,12" id="Line-4" stroke-linecap="round"></path>
                <path d="M8,10 L5,13" id="Line-5" stroke-linecap="round"></path>
            </g>
            <path d="M17,17 C18.9329966,17 20.5,18.5670034 20.5,20.5 L20.5,24 L13.5,24 L13.5,20.5 C13.5,18.5670034 15.0670034,17 17,17 Z" id="Rectangle-8"></path>
            <g id="Group-4" transform="translate(0.000000, 10.000000)">
                <path d="M3,10 C4.65685425,10 6,8.66751414 6,7.02380952 C6,5.92800645 5,3.58673661 3,0 C1,3.58673661 0,5.92800645 0,7.02380952 C0,8.66751414 1.34314575,10 3,10 Z" id="Oval-9" stroke-linejoin="round"></path>
                <path d="M3,7.69869402 L3,14.0740797" id="Line-3" stroke-linecap="round"></path>
            </g>
            <path d="M3.5,24 L30.5185122,24" id="Line-11" stroke-linecap="round"></path>
        </g>
    </g>
</svg>