<?xml version="1.0" encoding="UTF-8"?>
<svg width="13px" height="30px" viewBox="0 0 13 30" version="1.1" xmlns="http://www.w3.org/2000/svg" xmlns:xlink="http://www.w3.org/1999/xlink">
    <!-- Generator: Sketch 48.2 (47327) - http://www.bohemiancoding.com/sketch -->
    <title>mark_7</title>
    <desc>Created with Sketch.</desc>
    <defs></defs>
    <g id="Page-1" stroke="none" stroke-width="1" fill="none" fill-rule="evenodd">
        <g id="mark_7" transform="translate(1.000000, 0.000000)" stroke="#505B9E">
            <polygon id="Rectangle-11" points="2.3 13.1 8.7 13.1 9.7 29 1.3 29"></polygon>
            <path d="M7.5,17.5 L6.5,17.5" id="Line-8" stroke-linecap="round"></path>
            <path d="M4.5,15.5 L3.5,15.5" id="Line-8" stroke-linecap="round"></path>
            <path d="M8.5,23.5 L7.5,23.5" id="Line-8" stroke-linecap="round"></path>
            <path d="M3.5,23.5 L2.5,23.5" id="Line-8" stroke-linecap="round"></path>
            <path d="M4.5,19.5 L2.5,19.5" id="Line-8" stroke-linecap="round"></path>
            <path d="M6.5,21.5 L4.5,21.5" id="Line-8" stroke-linecap="round"></path>
            <path d="M6.5,26.5 L4.5,26.5" id="Line-8" stroke-linecap="round"></path>
            <path d="M3.25,6.6 L7.75,6.6 C8.30228475,6.6 8.75,7.04771525 8.75,7.6 L8.75,9.85 L2.25,9.85 L2.25,7.6 C2.25,7.04771525 2.69771525,6.6 3.25,6.6 Z" id="Rectangle-11"></path>
            <rect id="Rectangle-11" transform="translate(5.500000, 11.475000) scale(1, -1) translate(-5.500000, -11.475000) " x="0" y="9.85" width="11" height="3.25" rx="1"></rect>
            <path d="M5.5,6.5 L5.5,3" id="Path-5" stroke-linecap="round"></path>
            <polygon id="Triangle" stroke-linecap="round" stroke-linejoin="round" points="9.5 2 5.5 3.5 5.5 0.5"></polygon>
        </g>
    </g>
</svg>