<?xml version="1.0" encoding="UTF-8"?>
<svg width="34px" height="41px" viewBox="0 0 34 41" version="1.1" xmlns="http://www.w3.org/2000/svg" xmlns:xlink="http://www.w3.org/1999/xlink">
    <!-- Generator: Sketch 48.2 (47327) - http://www.bohemiancoding.com/sketch -->
    <title>mark_9</title>
    <desc>Created with Sketch.</desc>
    <defs></defs>
    <g id="Page-1" stroke="none" stroke-width="1" fill="none" fill-rule="evenodd">
        <g id="mark_9" transform="translate(1.000000, 1.000000)">
            <rect id="Rectangle-9" stroke="#505B9E" x="10" y="13" width="16" height="26"></rect>
            <rect id="Rectangle-9" stroke="#505B9E" transform="translate(18.000000, 11.500000) scale(1, -1) translate(-18.000000, -11.500000) " x="12" y="10" width="12" height="3"></rect>
            <rect id="Rectangle-9" stroke="#505B9E" transform="translate(18.000000, 8.500000) scale(1, -1) translate(-18.000000, -8.500000) " x="14" y="7" width="8" height="3"></rect>
            <path d="M19.5,6.61111111 L19.5,0.388888889" id="Line-6" stroke="#505B9E" stroke-linecap="round"></path>
            <path d="M16.5,6.61111111 L16.5,0.388888889" id="Line-6" stroke="#505B9E" stroke-linecap="round"></path>
            <path d="M13,15 L15,15 L15,17 L13,17 L13,15 Z M17,15 L19,15 L19,17 L17,17 L17,15 Z M21,15 L23,15 L23,17 L21,17 L21,15 Z M13,19 L15,19 L15,21 L13,21 L13,19 Z M17,19 L19,19 L19,21 L17,21 L17,19 Z M21,19 L23,19 L23,21 L21,21 L21,19 Z M13,23 L15,23 L15,25 L13,25 L13,23 Z M17,23 L19,23 L19,25 L17,25 L17,23 Z M21,23 L23,23 L23,25 L21,25 L21,23 Z M13,27 L15,27 L15,29 L13,29 L13,27 Z M17,27 L19,27 L19,29 L17,29 L17,27 Z M21,27 L23,27 L23,29 L21,29 L21,27 Z M13,31 L15,31 L15,33 L13,33 L13,31 Z M17,31 L19,31 L19,33 L17,33 L17,31 Z M21,31 L23,31 L23,33 L21,33 L21,31 Z M13,35 L15,35 L15,37 L13,37 L13,35 Z M17,35 L19,35 L19,37 L17,37 L17,35 Z M21,35 L23,35 L23,37 L21,37 L21,35 Z" id="Combined-Shape" fill="#505B9E"></path>
            <g id="Group-3" transform="translate(0.000000, 16.000000)">
                <rect id="Rectangle" stroke="#505B9E" x="0" y="5" width="10" height="18"></rect>
                <rect id="Rectangle-10" fill="#505B9E" x="2" y="7" width="2" height="2"></rect>
                <rect id="Rectangle-10-Copy" fill="#505B9E" x="6" y="7" width="2" height="2"></rect>
                <rect id="Rectangle-10" fill="#505B9E" x="2" y="11" width="2" height="2"></rect>
                <rect id="Rectangle-10-Copy" fill="#505B9E" x="6" y="11" width="2" height="2"></rect>
                <rect id="Rectangle-10" fill="#505B9E" x="2" y="15" width="2" height="2"></rect>
                <rect id="Rectangle-10-Copy" fill="#505B9E" x="6" y="15" width="2" height="2"></rect>
                <rect id="Rectangle-10" fill="#505B9E" x="2" y="19" width="2" height="2"></rect>
                <rect id="Rectangle-10-Copy" fill="#505B9E" x="6" y="19" width="2" height="2"></rect>
                <path d="M3.5,4.5 L3.5,0.5" id="Line-7" stroke="#505B9E" stroke-linecap="round"></path>
                <path d="M6.5,4.5 L6.5,0.5" id="Line-7" stroke="#505B9E" stroke-linecap="round"></path>
            </g>
            <g id="Group-3" transform="translate(26.000000, 17.000000)">
                <rect id="Rectangle" stroke="#505B9E" x="0" y="0" width="6" height="22"></rect>
                <rect id="Rectangle-10" fill="#505B9E" x="2" y="2" width="2" height="2"></rect>
                <rect id="Rectangle-10" fill="#505B9E" x="2" y="6" width="2" height="2"></rect>
                <rect id="Rectangle-10" fill="#505B9E" x="2" y="10" width="2" height="2"></rect>
                <rect id="Rectangle-10" fill="#505B9E" x="2" y="14" width="2" height="2"></rect>
                <rect id="Rectangle-10" fill="#505B9E" x="2" y="18" width="2" height="2"></rect>
            </g>
        </g>
    </g>
</svg>