<?xml version="1.0" encoding="UTF-8"?>
<svg width="42px" height="27px" viewBox="0 0 42 27" version="1.1" xmlns="http://www.w3.org/2000/svg" xmlns:xlink="http://www.w3.org/1999/xlink">
    <!-- Generator: Sketch 48.2 (47327) - http://www.bohemiancoding.com/sketch -->
    <title>mark_10_active</title>
    <desc>Created with Sketch.</desc>
    <defs></defs>
    <g id="Page-1" stroke="none" stroke-width="1" fill="none" fill-rule="evenodd">
        <g id="mark_10_active" transform="translate(-1.000000, 0.000000)">
            <g id="globe" transform="translate(10.000000, 1.000000)" fill="#20C565" fill-rule="nonzero">
                <path d="M12,0 C5.3833125,0 0,5.3833125 0,12 C0,18.6166875 5.3833125,24 12,24 C18.6166875,24 24,18.6166875 24,12 C24,5.3833125 18.6166875,0 12,0 Z M22.0247344,7.4955 C21.3580313,8.2888125 20.5981406,8.98565625 20.2861406,9.0815625 C19.8755156,8.69775 18.8827969,7.975125 18.2475469,8.37698437 C17.9946094,8.53715625 17.7514688,8.89115625 18.0292969,9.66801562 C18.3877031,10.6719375 19.2724688,11.5815937 19.7934375,12.0542344 C19.2988125,12.6557812 18.4999688,13.7431875 18.4999688,14.5000312 C18.4999688,14.6289375 18.4755469,14.6650781 18.2607188,14.851125 C17.958,15.1143281 17.4999844,15.5117812 17.4999844,16.5000469 C17.4999844,17.1362812 16.4135625,17.67825 15.6752812,17.9258437 C15.3950156,17.5600781 15,16.9462969 15,16.5 C15,16.2148594 15.05175,16.1484375 15.1543125,16.015125 C15.3364219,15.7792969 15.5000156,15.5239219 15.5000156,15 C15.5000156,14.499 15.3496406,14.1538125 15.2167969,13.849125 C15.0957187,13.5712969 15,13.3515469 15,12.9999844 C15,11.6947969 12.4936406,11.4999844 11.0000156,11.4999844 C10.5967031,11.4999844 10.0000313,11.3413125 10.0000313,10.9999687 C10.0000313,10.8442031 9.985875,10.6742812 9.96975,10.4946094 C9.91748438,9.900375 9.86770313,9.33932812 10.3535625,8.85351562 C11.1240938,8.08298437 12.4609688,8.00001562 13.0000313,8.00001562 C13.5381094,8.00001562 13.7153438,8.08401562 13.9404844,8.18995312 C14.3125781,8.36573437 14.663625,8.50003125 15.5000625,8.50003125 L16.0772344,8.506875 C17.1460781,8.52201562 18.0689531,8.54057812 18.6128906,8.00540625 C18.8697188,7.75298437 19.0000781,7.41459375 19.0000781,7.00003125 C19.0000781,5.194875 15.853125,5.00001562 14.5000781,5.00001562 C13.559625,5.00001562 12.9004687,5.31496875 12.3189375,5.59279687 C11.9595469,5.7646875 11.6387813,5.91801562 11.2911094,5.975625 C11.2915781,5.96146875 11.2930781,5.94585937 11.2959844,5.92875 C11.3672812,5.48198437 12.0220781,4.80276562 12.7261406,4.44585937 C13.2237188,4.1934375 13.8047344,3.82917187 13.8804375,3.24665625 C13.9107188,3.01425 13.8496875,2.80720312 13.7569219,2.63385937 C14.4195938,2.3859375 15.6741563,2.18489062 16.77675,2.10665625 C19.0965,3.23132812 20.9623594,5.140875 22.0247344,7.4955 Z M3.99998437,17.4999844 L3.99998437,19.5264844 C2.15671875,17.568375 1.01601563,14.9432813 1.00260938,12.0513281 C1.86032812,12.2227031 2.20579687,12.8362031 2.56246875,13.4848594 C2.74120312,13.8100781 2.91014062,14.1172031 3.1464375,14.3535 C3.5731875,14.78025 4.14642187,14.8447031 4.564875,14.8915781 C4.721625,14.9091562 4.95890625,14.9360156 4.99992188,15 C4.99992188,15.2592656 4.86904687,15.4604531 4.637625,15.7934531 C4.35351562,16.2021562 3.99998437,16.7114062 3.99998437,17.4999844 Z M12,23.0000156 C9.3429375,23.0000156 6.90328125,22.0526719 5.00001562,20.4786094 L5.00001562,17.5000312 C5.00001562,17.0244375 5.21292187,16.7182969 5.45901562,16.3637813 C5.71242187,15.9990469 6,15.5854688 6,15 C6,14.046375 5.13914062,13.9497188 4.67625,13.8979688 C4.34517187,13.8608438 4.03270312,13.8256875 3.8535,13.6464844 C3.71775,13.5107344 3.582,13.2641719 3.43846875,13.0034063 C3.04729687,12.2915625 2.47125,11.2612031 1.0483125,11.046 C1.5343125,5.4264375 6.25659375,0.999984375 12,0.999984375 C12.9445781,0.999984375 13.8566719,1.13235938 14.7320625,1.35735938 C13.8842344,1.5163125 13.0305937,1.76240625 12.6465,2.1465 C12.5493281,2.24367188 12.496125,2.37698438 12.5000156,2.51465625 C12.5044219,2.65185938 12.5649375,2.78175 12.6675,2.87353125 C12.8471719,3.0331875 12.8818594,3.11376563 12.8887031,3.11376563 C12.8774531,3.13767188 12.7856719,3.29442188 12.2739375,3.55420313 C11.4292031,3.98240625 10.4536406,4.858875 10.3086094,5.77101563 C10.2421875,6.1850625 10.3623281,6.56934375 10.6464844,6.85354688 C10.7402344,6.94729688 10.8671719,7.00003125 11.0000156,7.00003125 C11.694375,7.00003125 12.2309531,6.74320313 12.75,6.49514063 C13.2827344,6.24070313 13.786125,6 14.4999844,6 C16.4624063,6 18,6.43945313 18,6.99998438 C18,7.20553125 17.9360156,7.26853125 17.9116406,7.29196875 C17.6660156,7.53365625 16.829625,7.51804688 16.09425,7.50679688 C15.8994375,7.503375 15.7002187,7.49995313 15.5000156,7.49995313 C14.8213125,7.49995313 14.6108437,7.4008125 14.3671875,7.28559375 C14.0835,7.1518125 13.7622187,6.9999375 12.9999844,6.9999375 C12.1757812,6.9999375 10.6440469,7.14885938 9.64645312,8.14640625 C8.83054687,8.96184375 8.9169375,9.93740625 8.97360937,10.5824531 C8.98678125,10.7309063 9,10.8715313 9,10.9999219 C9,11.9847656 10.0063594,12.4999219 11.0000156,12.4999219 C12.5283281,12.4999219 13.8496406,12.7850625 14.0000156,12.9999375 C14.0000156,13.5595313 14.1665156,13.9418438 14.3002969,14.2484531 C14.411625,14.5048125 14.4999844,14.7069375 14.4999844,14.9999063 C14.4999844,15.2264531 14.4628594,15.2748281 14.3627812,15.4037344 C14.1718594,15.6517969 13.9999687,15.9217969 13.9999687,16.4999063 C13.9999687,17.5521562 15.0131719,18.7064531 15.1283906,18.8348906 C15.2245781,18.9413438 15.3603281,18.9999375 15.4999687,18.9999375 C15.5414531,18.9999375 15.5829844,18.9950625 15.624,18.9843281 C15.9184219,18.908625 18.4999687,18.1981875 18.4999687,16.4999531 C18.4999687,15.9677344 18.6654844,15.8241563 18.9164531,15.606375 C19.1625469,15.3924844 19.4999531,15.1000312 19.4999531,14.4999375 C19.4999531,14.0990625 20.211375,13.0643906 20.8705781,12.3353906 C20.9638594,12.2323594 21.0102187,12.0946875 20.9980312,11.9559844 C20.9858437,11.8173281 20.9164687,11.689875 20.8066406,11.6048906 C20.4179531,11.303625 19.3447031,10.3226719 18.9853594,9.37101563 C19.1889844,9.47746875 19.4438437,9.6508125 19.6464844,9.85345312 C19.8129844,10.0209375 20.0361562,10.101 20.2900312,10.0907812 C20.9511094,10.053 21.8162344,9.2386875 22.4372344,8.54873437 C22.7976562,9.63557813 22.9999687,10.7937188 22.9999687,11.9999531 C23.0000156,18.0654375 18.0654375,23.0000156 12,23.0000156 Z" id="Shape"></path>
            </g>
            <path d="M12.0156576,9.28183944 C5.05845506,10.121678 0.309194124,11.8057624 0.309194124,13.7463766 C0.309194124,16.5259793 10.0526517,18.7792925 22.0718157,18.7792925 C34.0909797,18.7792925 43.8344372,16.5259793 43.8344372,13.7463766 C43.8344372,11.9282484 39.6657757,10.335289 33.4183028,9.45080609" id="Oval-14" stroke="#20C565" transform="translate(22.071816, 14.030566) rotate(-26.000000) translate(-22.071816, -14.030566) "></path>
            <circle id="Oval-11" stroke="#20C565" fill="#070E38" cx="35.5" cy="3.5" r="2.5"></circle>
            <circle id="Oval-11-Copy" stroke="#20C565" fill="#070E38" cx="7" cy="24" r="2"></circle>
        </g>
    </g>
</svg>