<?xml version="1.0" encoding="UTF-8"?>
<svg width="40px" height="40px" viewBox="0 0 40 40" version="1.1" xmlns="http://www.w3.org/2000/svg" xmlns:xlink="http://www.w3.org/1999/xlink">
    <!-- Generator: Sketch 47.1 (45422) - http://www.bohemiancoding.com/sketch -->
    <title>Group 6 Copy</title>
    <desc>Created with Sketch.</desc>
    <defs>
        <linearGradient x1="64.6541667%" y1="15.8041667%" x2="39.6541667%" y2="74.1366667%" id="linearGradient-1">
            <stop stop-color="#2DAAE1" offset="0%"></stop>
            <stop stop-color="#1E96C8" offset="100%"></stop>
        </linearGradient>
    </defs>
    <g id="Page-1" stroke="none" stroke-width="1" fill="none" fill-rule="evenodd">
        <g id="Contact" transform="translate(-445.000000, -524.000000)">
            <g id="Group-7" transform="translate(240.000000, 287.000000)">
                <g id="Group-6-Copy" transform="translate(205.000000, 237.000000)">
                    <circle id="Oval-7-Copy-2" fill="url(#linearGradient-1)" cx="20" cy="20" r="20"></circle>
                    <path d="M22.6907124,13.3362188 L22.6907124,13.3333333 L23.4409378,13.3333333 L23.7150586,13.3881575 C23.8978106,13.4237499 24.0637259,13.4703937 24.2128043,13.5281034 C24.3618972,13.585813 24.5061713,13.6531458 24.6456267,13.7300872 C24.7850965,13.8070286 24.9115816,13.8854271 25.0250821,13.965254 C25.1376159,14.0441286 25.2386078,14.1278076 25.3280577,14.216291 C25.4165266,14.3057409 25.5545537,14.3288248 25.74211,14.2855425 C25.9296664,14.2422603 26.1316501,14.1821413 26.3480613,14.1051999 C26.5644725,14.0282585 26.7784887,13.941694 26.9900812,13.8455065 C27.201688,13.7493189 27.3305825,13.6882477 27.3767502,13.6622783 C27.4219513,13.6353568 27.4460018,13.6209294 27.4488873,13.6189961 L27.4517583,13.6146679 L27.4661858,13.6074542 L27.4806132,13.6002405 L27.4950406,13.5930268 L27.509468,13.585813 L27.5123535,13.5814848 L27.5166817,13.5785993 L27.5210243,13.5757139 L27.5238954,13.5713856 L27.5383228,13.5670574 L27.5527502,13.5641719 L27.5498792,13.585813 L27.5455365,13.6074542 L27.5383228,13.6290953 L27.5311091,13.6507364 L27.5238954,13.6651638 L27.5166817,13.6795912 L27.509468,13.7012323 C27.5046637,13.7156598 27.4998593,13.7348915 27.4950406,13.758942 C27.4902362,13.7829925 27.4445446,13.8791656 27.3579802,14.0474902 C27.2714157,14.2158148 27.1632101,14.3865344 27.0333634,14.5596634 C26.9035167,14.7327923 26.7871452,14.8635912 26.6842344,14.952089 C26.5803571,15.0415389 26.5115816,15.1040529 26.477908,15.1396453 C26.4442489,15.17619 26.403376,15.2098491 26.355275,15.2406372 L26.283138,15.2882477 L26.2687106,15.2954614 L26.2542831,15.3026751 L26.2514121,15.3070033 L26.2470694,15.3098888 L26.2427412,15.3127743 L26.2398557,15.3171025 L26.2254283,15.3243162 L26.2110009,15.3315299 L26.2081298,15.3358581 L26.2037872,15.3387436 L26.199459,15.3416291 L26.1965735,15.3459573 L26.1937024,15.3502855 L26.1893598,15.353171 L26.1850316,15.3560565 L26.1821461,15.3603847 L26.2542831,15.3603847 L26.6582507,15.2738203 C26.9275672,15.2161106 27.1848512,15.1463829 27.4301172,15.0646228 L27.8196573,14.9347761 L27.8629396,14.9203487 L27.8845807,14.913135 L27.8990081,14.9059213 L27.9134355,14.8987075 L27.9278629,14.8914938 L27.9422904,14.8842801 L27.9711452,14.8799519 L28,14.8770664 L28,14.9059213 L27.9927863,14.9088067 L27.9855726,14.913135 L27.9827015,14.9174632 L27.9783589,14.9203487 L27.9740307,14.9232341 L27.9711452,14.9275624 L27.9682741,14.9318906 L27.9639315,14.9347761 L27.9596032,14.9376616 L27.9567178,14.9419898 L27.9538467,14.946318 L27.9495041,14.9492035 L27.9422904,14.9636309 L27.9350766,14.9780583 L27.9307484,14.9809438 C27.9288296,14.9838293 27.8677583,15.065575 27.7475203,15.2262098 C27.6272967,15.3877968 27.5623733,15.4695425 27.5527502,15.4714758 C27.5431416,15.4743613 27.5296664,15.4887887 27.5123535,15.514758 C27.4960072,15.5416796 27.3940487,15.648933 27.2064923,15.8364893 C27.018936,16.0240457 26.8352462,16.1909131 26.6553796,16.3371205 C26.4745609,16.4842801 26.3831776,16.6650989 26.3812588,16.8795912 C26.3783733,17.0931169 26.3673075,17.3345452 26.3480613,17.6038473 C26.3288296,17.8731638 26.292761,18.164107 26.2398557,18.4767057 C26.1869648,18.7893045 26.1052047,19.1427761 25.9945897,19.5371205 C25.8839892,19.931465 25.7493237,20.3162008 25.5906222,20.6913135 C25.4319206,21.0664262 25.2660054,21.403061 25.0928765,21.7012323 C24.9197475,21.9994037 24.761046,22.2518834 24.6167719,22.4586715 C24.4724977,22.6654596 24.3258287,22.8602296 24.1767358,23.0429817 C24.0276573,23.2257337 23.8391488,23.4315696 23.6111957,23.6604749 C23.3822759,23.888428 23.257248,24.0134704 23.236083,24.0355876 C23.2139657,24.0567526 23.1197115,24.1356273 22.9532913,24.2721972 C22.7878665,24.4097337 22.6099188,24.5472702 22.419477,24.6848212 C22.2300018,24.8214055 22.0559062,24.935382 21.8972047,25.0267508 C21.7385032,25.1181196 21.5471091,25.2224731 21.3229937,25.3398257 C21.0998593,25.4581304 20.858431,25.5677788 20.5987376,25.6687707 C20.3390442,25.7697625 20.0649234,25.8635407 19.7763751,25.9501052 C19.4878269,26.0366697 19.2089017,26.1040024 18.9395852,26.152089 C18.6702831,26.2001755 18.3648981,26.2410628 18.0234445,26.274722 L17.5112714,26.3252179 L17.5112714,26.3324316 L16.5734896,26.3324316 L16.5734896,26.3252179 L16.4508566,26.3180042 C16.3691109,26.3131999 16.3017782,26.3083811 16.2488729,26.3035768 C16.195982,26.2987725 15.9963931,26.2723126 15.6501353,26.224226 C15.3038774,26.1761395 15.0321659,26.1280385 14.8349865,26.0799519 C14.6378215,26.0318653 14.3444545,25.9404821 13.9549143,25.8058311 C13.5653742,25.67118 13.232101,25.5350718 12.9550947,25.3975353 C12.679055,25.260951 12.5059261,25.1743865 12.4357078,25.1378419 C12.3664563,25.1022495 12.2885482,25.058015 12.2019838,25.0051097 L12.0721371,24.9257589 L12.069266,24.9214307 L12.0649234,24.9185452 L12.0605951,24.9156598 L12.0577096,24.9113315 L12.0432822,24.9041178 L12.0288548,24.8969041 L12.0259838,24.8925759 L12.0216411,24.8896904 L12.0173129,24.8868049 L12.0144274,24.8824767 L12.0115564,24.8781485 L12.0072137,24.875263 L12,24.875263 L12,24.8464082 L12.0144274,24.8492937 L12.0288548,24.8536219 L12.0937782,24.8608356 C12.1370604,24.8656399 12.2548891,24.8728536 12.4472498,24.8824767 C12.6396249,24.8920998 12.8440036,24.8920998 13.0604148,24.8824767 C13.276826,24.8728536 13.4980559,24.8512125 13.7240757,24.8175534 C13.95011,24.7838942 14.2170171,24.7261846 14.5247971,24.6444244 C14.8325915,24.5626643 15.1153688,24.4655245 15.3731434,24.3529907 C15.6299513,24.2395047 15.8126889,24.154859 15.921385,24.0990682 C16.0291001,24.0442441 16.1935726,23.9422855 16.4147881,23.7932071 L16.7466186,23.5695822 L16.7495041,23.565254 L16.7538323,23.5623685 L16.7581749,23.559483 L16.761046,23.5551548 L16.7639315,23.5508266 L16.7682597,23.5479411 L16.7726023,23.5450556 L16.7754734,23.5407274 L16.7899008,23.5363992 L16.8043282,23.5335137 L16.8072137,23.5190863 L16.8115419,23.5046589 L16.8158846,23.5017734 L16.8187556,23.4974451 L16.7033363,23.4902314 C16.626395,23.4854271 16.5518485,23.4806084 16.4797115,23.475804 C16.4075744,23.4709997 16.2945645,23.4493586 16.1406673,23.4108807 C15.9867845,23.3724028 15.8208693,23.3146931 15.6429216,23.2377517 C15.4649883,23.1608103 15.2918593,23.0694271 15.1235347,22.9636309 C14.9552245,22.8578347 14.8335437,22.769813 14.7585212,22.6996093 C14.6844653,22.6303433 14.5882777,22.5322513 14.4699729,22.4052901 C14.3526348,22.2773766 14.2506763,22.1460727 14.1641118,22.0114217 C14.0775473,21.8767707 13.994835,21.7214163 13.9159748,21.5454163 L13.7962128,21.2828374 L13.7889991,21.2611963 L13.7817854,21.2395552 L13.7774572,21.2251277 L13.7745717,21.2107003 L13.7962128,21.2135858 L13.8178539,21.217914 L13.9765555,21.2395552 C14.0823661,21.2539826 14.2482813,21.2587869 14.4743012,21.2539826 C14.7003354,21.2491782 14.8566276,21.2395552 14.9431921,21.2251277 C15.0297565,21.2107003 15.0826619,21.2010772 15.1018936,21.1962729 L15.1307484,21.1890592 L15.166817,21.1818455 L15.2028855,21.1746318 L15.205771,21.1703036 L15.2100992,21.1674181 L15.2144418,21.1645326 L15.2173129,21.1602044 L15.1884581,21.1529907 L15.1596032,21.145777 L15.1307484,21.1385633 L15.1018936,21.1313496 L15.0730388,21.1241359 C15.053807,21.1193315 15.0201479,21.1097084 14.9720469,21.095281 C14.9239603,21.0808536 14.7941136,21.0279483 14.5825068,20.9365795 C14.3709143,20.8452107 14.2025897,20.7562369 14.0775473,20.6696724 C13.952195,20.582857 13.8326718,20.4879132 13.7197475,20.3854524 C13.6072137,20.281575 13.4836285,20.1478762 13.348963,19.9843703 C13.214312,19.8208644 13.0940884,19.6308987 12.9882777,19.4144875 C12.8824815,19.1980763 12.8031307,18.9912882 12.7502254,18.7941088 C12.6975329,18.5980892 12.6627688,18.3976854 12.6463625,18.1953712 L12.6203787,17.8923956 L12.6348061,17.895281 L12.6492335,17.8996093 L12.663661,17.906823 L12.6780884,17.9140367 L12.6925158,17.9212504 L12.7069432,17.9284641 L12.9305681,18.029456 C13.079661,18.0967887 13.2648079,18.1544983 13.4860234,18.2025849 C13.7072534,18.2506715 13.839495,18.2771313 13.8827773,18.2819357 L13.9477006,18.2891494 L14.0775473,18.2891494 L14.0746763,18.2848212 L14.0703336,18.2819357 L14.0660054,18.2790502 L14.0631199,18.274722 L14.0602489,18.2703937 L14.0559062,18.2675083 L14.051578,18.2646228 L14.0486925,18.2602946 L14.0342651,18.2530809 L14.0198377,18.2458671 L14.0169666,18.2415389 L14.012624,18.2386534 L14.0082958,18.235768 L14.0054103,18.2314397 L13.9909829,18.224226 L13.9765555,18.2170123 L13.9736844,18.2126841 C13.9707989,18.2107508 13.9294355,18.1799772 13.8495942,18.1203487 C13.7707196,18.0597535 13.6880072,17.9813694 13.6014427,17.8851818 C13.5148783,17.7889943 13.4283138,17.6880024 13.3417493,17.5822062 C13.2550255,17.4761676 13.1777825,17.3627169 13.1109107,17.243162 C13.0435924,17.1229384 12.9724076,16.9699934 12.897385,16.7843703 C12.8233291,16.5996994 12.7670622,16.4135858 12.7285843,16.2260295 C12.6901208,16.0384731 12.6684797,15.8533261 12.663661,15.6705741 C12.6588566,15.4878221 12.663661,15.3315299 12.6780884,15.2016832 C12.6925158,15.0718365 12.7213706,14.925153 12.7646528,14.7616471 C12.8079351,14.5981413 12.8704635,14.4250123 12.9522092,14.2422603 L13.0748422,13.9681395 L13.0820559,13.9464983 L13.0892696,13.9248572 L13.0936123,13.9219717 L13.0964833,13.9176435 L13.0993688,13.9133153 L13.103697,13.9104298 L13.1080397,13.9133153 L13.1109107,13.9176435 L13.1137962,13.9219717 L13.1181244,13.9248572 L13.1224671,13.9277427 L13.1253381,13.9320709 L13.1282236,13.9363992 L13.1325518,13.9392846 L13.1397656,13.9537121 L13.1469793,13.9681395 L13.1513219,13.9710249 L13.154193,13.9753532 L13.348963,14.1917644 C13.4788097,14.3360385 13.6327069,14.4971494 13.8106402,14.6750827 C13.9885879,14.8530159 14.0871704,14.9453514 14.1064022,14.952089 C14.1256483,14.9597788 14.1496844,14.981896 14.1785392,15.0184551 C14.207394,15.0540475 14.3035816,15.1391692 14.4670875,15.2738203 C14.6306078,15.4084713 14.8446096,15.5647779 15.1091073,15.7427112 C15.3736195,15.9206444 15.666972,16.0961827 15.9891794,16.2693117 C16.3114013,16.4424406 16.6576592,16.5987328 17.0279531,16.7382026 C17.3982615,16.8776724 17.6579549,16.9690412 17.8070334,17.0123234 C17.9561262,17.0556057 18.2110009,17.1109059 18.5716862,17.1782387 C18.9323715,17.2455714 19.2040974,17.2888536 19.386835,17.3080854 C19.569587,17.3273171 19.6946294,17.3383829 19.7619477,17.3412684 L19.8629396,17.3441539 L19.8600685,17.3225128 L19.8557259,17.3008717 L19.8268711,17.120529 C19.8076393,17.0003054 19.7980162,16.8319808 19.7980162,16.6155696 C19.7980162,16.3991584 19.814853,16.199584 19.8485122,16.016832 C19.8821858,15.83408 19.9326817,15.648933 20,15.4613766 C20.0673327,15.2738203 20.1332227,15.1232846 20.1976555,15.0097986 C20.2630694,14.8972648 20.3486673,14.7688608 20.4544635,14.6245867 C20.5602741,14.4803126 20.6973345,14.3312341 20.8656447,14.1773369 C21.0339693,14.0234397 21.22633,13.8863793 21.4427412,13.7661557 C21.6591524,13.6459321 21.8587412,13.5545488 22.0414788,13.4920349 C22.2242308,13.4295209 22.378128,13.3886336 22.503156,13.3694019 C22.6281984,13.3501701 22.6907124,13.3391043 22.6907124,13.3362188 Z" id="Shape" fill="#FFFFFF" fill-rule="nonzero"></path>
                </g>
            </g>
        </g>
    </g>
</svg>