<?xml version="1.0" encoding="UTF-8"?>
<svg width="40px" height="40px" viewBox="0 0 40 40" version="1.1" xmlns="http://www.w3.org/2000/svg" xmlns:xlink="http://www.w3.org/1999/xlink">
    <!-- Generator: Sketch 47.1 (45422) - http://www.bohemiancoding.com/sketch -->
    <title>Group 6 Copy</title>
    <desc>Created with Sketch.</desc>
    <defs>
        <linearGradient x1="64.6541667%" y1="15.8041667%" x2="39.6541667%" y2="74.1366667%" id="linearGradient-1">
            <stop stop-color="#E2B837" offset="0%"></stop>
            <stop stop-color="#FF5B04" offset="100%"></stop>
        </linearGradient>
    </defs>
    <g id="Page-1" stroke="none" stroke-width="1" fill="none" fill-rule="evenodd">
        <g id="Contact" transform="translate(-491.000000, -378.000000)">
            <g id="Group-7" transform="translate(240.000000, 287.000000)">
                <g id="Group-6-Copy" transform="translate(251.000000, 91.000000)">
                    <circle id="Oval-7-Copy-2" fill="url(#linearGradient-1)" cx="20" cy="20" r="20"></circle>
                    <path d="M25.764271,14.0303901 C24.2956879,12.6767967 22.4689938,12 20.2874743,12 C17.9942505,12 16.0394251,12.7687885 14.4262834,14.3096509 C12.8131417,15.8505133 12.0049281,17.7659138 12.0049281,20.0591376 C12.0049281,22.2570842 12.7737166,24.1462012 14.3080082,25.7297741 C15.8488706,27.313347 17.9186858,28.1051335 20.5240246,28.1051335 C22.0944559,28.1051335 23.6353183,27.7831622 25.1466119,27.1359343 C25.6394251,26.9256674 25.8792608,26.3605749 25.6788501,25.8644764 L25.6788501,25.8644764 C25.4718686,25.3519507 24.8870637,25.1154004 24.3778234,25.3322382 C23.063655,25.8973306 21.77577,26.1798768 20.5207392,26.1798768 C18.5232033,26.1798768 16.97577,25.5720739 15.8784394,24.3531828 C14.7843943,23.137577 14.235729,21.7084189 14.235729,20.0689938 C14.235729,18.2882957 14.8238193,16.8032854 15.9967146,15.6106776 C17.1663244,14.4213552 18.6086242,13.8234086 20.3170431,13.8234086 C21.8907598,13.8234086 23.2213552,14.3129363 24.3055441,15.2919918 C25.3897331,16.2710472 25.9318275,17.5030801 25.9318275,18.9880903 C25.9318275,20.0032854 25.6821355,20.850924 25.186037,21.5244353 C24.6899384,22.201232 24.1741273,22.536345 23.6386037,22.536345 C23.3494867,22.536345 23.2049281,22.3819302 23.2049281,22.0698152 C23.2049281,21.8168378 23.2246407,21.5211499 23.2607803,21.1794661 L23.8718686,16.1823409 L21.7691992,16.1823409 L21.6344969,16.6718686 C21.0989733,16.2349076 20.510883,16.0147844 19.8735113,16.0147844 C18.8616016,16.0147844 17.9942505,16.4188912 17.2747433,17.2238193 C16.5519507,18.0287474 16.1938398,19.0669405 16.1938398,20.3351129 C16.1938398,21.5737166 16.5125257,22.57577 17.1531828,23.3347023 C17.7938398,24.0969199 18.5626283,24.4747433 19.4628337,24.4747433 C20.2677618,24.4747433 20.9544148,24.136345 21.526078,23.4628337 C21.9564682,24.1100616 22.5905544,24.4320329 23.4283368,24.4320329 C24.6603696,24.4320329 25.724846,23.8965092 26.6217659,22.8221766 C27.5186858,21.7511294 27.9687885,20.4566735 27.9687885,18.9420945 C27.9687885,17.0234086 27.2361396,15.3839836 25.764271,14.0303901 Z M20.9215606,21.5901437 C20.550308,22.0895277 20.1067762,22.3425051 19.5909651,22.3425051 C19.2394251,22.3425051 18.9568789,22.1585216 18.7433265,21.7905544 C18.5264887,21.4225873 18.4180698,20.9659138 18.4180698,20.4172485 C18.4180698,19.7404517 18.5691992,19.1950719 18.8714579,18.7811088 C19.1737166,18.3671458 19.5482546,18.1568789 19.9950719,18.1568789 C20.3827515,18.1568789 20.7277207,18.3112936 21.0299795,18.6234086 C21.3322382,18.9355236 21.4833676,19.3494867 21.4833676,19.8685832 C21.4800821,20.5158111 21.2928131,21.0874743 20.9215606,21.5901437 Z" id="Shape" fill="#FFFFFF" fill-rule="nonzero"></path>
                </g>
            </g>
        </g>
    </g>
</svg>