<?xml version="1.0" encoding="UTF-8"?>
<svg width="40px" height="40px" viewBox="0 0 40 40" version="1.1" xmlns="http://www.w3.org/2000/svg" xmlns:xlink="http://www.w3.org/1999/xlink">
    <!-- Generator: Sketch 47.1 (45422) - http://www.bohemiancoding.com/sketch -->
    <title>Group 6</title>
    <desc>Created with Sketch.</desc>
    <defs>
        <linearGradient x1="64.6541667%" y1="15.8041667%" x2="39.6541667%" y2="74.1366667%" id="linearGradient-1">
            <stop stop-color="#37AEE2" offset="0%"></stop>
            <stop stop-color="#1E96C8" offset="100%"></stop>
        </linearGradient>
        <linearGradient x1="61.3438559%" y1="47.150188%" x2="80.4983437%" y2="83.7095963%" id="linearGradient-2">
            <stop stop-color="#EFF7FC" offset="0%"></stop>
            <stop stop-color="#FFFFFF" offset="100%"></stop>
        </linearGradient>
    </defs>
    <g id="Page-1" stroke="none" stroke-width="1" fill="none" fill-rule="evenodd">
        <g id="Contact" transform="translate(-365.000000, -287.000000)">
            <g id="Group-7" transform="translate(240.000000, 287.000000)">
                <g id="Group-6" transform="translate(125.000000, 0.000000)">
                    <circle id="Oval-7-Copy-2" fill="url(#linearGradient-1)" cx="20" cy="20" r="20"></circle>
                    <g id="Group" transform="translate(9.500000, 11.500000)" fill-rule="nonzero">
                        <path d="M8.02844501,16.5 C7.41213654,16.5 7.52275601,16.2586207 7.30151707,15.6632184 L5.5,9.61264368 L16.6883692,2.5 L18,2.85402299 L16.9096081,5.87931034 L8.02844501,16.5 Z" id="path2993" fill="#C8DAEA"></path>
                        <path d="M8,16.5 C8.46428571,16.5 8.66547619,16.272093 8.92857143,16.0116279 C9.33095238,15.6046512 14.5,10.3139535 14.5,10.3139535 L11.327381,9.5 L8.38690476,11.4534884 L8,16.3372093 L8,16.5 Z" id="path2989" fill="#A9C9DD"></path>
                        <path d="M8.21762458,11.5533972 L16.0050731,17.2635198 C16.8900105,17.743362 17.5336013,17.5034409 17.7588581,16.447788 L20.9285427,1.60466823 C21.2503381,0.309094198 20.4297598,-0.266716482 19.577002,0.117157305 L0.977228189,7.25081185 C-0.293863622,7.76264357 -0.277773852,8.46641218 0.751971413,8.77031226 L5.53063303,10.2578232 L16.5843049,3.33210027 C17.0991775,3.01220545 17.5818706,3.1881476 17.1957161,3.54003191 L8.21762458,11.5533972 Z" id="path2991" fill="url(#linearGradient-2)"></path>
                    </g>
                </g>
            </g>
        </g>
    </g>
</svg>