<?xml version="1.0" encoding="UTF-8"?>
<svg width="40px" height="40px" viewBox="0 0 40 40" version="1.1" xmlns="http://www.w3.org/2000/svg" xmlns:xlink="http://www.w3.org/1999/xlink">
    <!-- Generator: Sketch 47.1 (45422) - http://www.bohemiancoding.com/sketch -->
    <title>Group 5</title>
    <desc>Created with Sketch.</desc>
    <defs>
        <linearGradient x1="64.6541667%" y1="15.8041667%" x2="39.6541667%" y2="74.1366667%" id="linearGradient-1">
            <stop stop-color="#485A96" offset="0%"></stop>
            <stop stop-color="#2F417F" offset="100%"></stop>
        </linearGradient>
    </defs>
    <g id="Page-1" stroke="none" stroke-width="1" fill="none" fill-rule="evenodd">
        <g id="Contact" transform="translate(-286.000000, -526.000000)">
            <g id="Group-7" transform="translate(240.000000, 287.000000)">
                <g id="Group-5" transform="translate(46.000000, 239.000000)">
                    <circle id="Oval-7-Copy-2" fill="url(#linearGradient-1)" transform="translate(20.000000, 20.000000) rotate(-360.000000) translate(-20.000000, -20.000000) " cx="20" cy="20" r="20"></circle>
                    <path d="M23.5179113,12 L20.9608164,12 C19.443351,12 17.7555015,12.6382252 17.7555015,14.8378543 C17.7629095,15.604289 17.7555015,16.3383088 17.7555015,17.1643994 L16,17.1643994 L16,19.9579233 L17.8098269,19.9579233 L17.8098269,28 L21.1354729,28 L21.1354729,19.9048522 L23.3305161,19.9048522 L23.5291213,17.1565603 L21.0781687,17.1565603 C21.0781687,17.1565603 21.0836561,15.9340041 21.0781687,15.5789685 C21.0781687,14.7097233 21.982651,14.7595019 22.0370547,14.7595019 C22.4674638,14.7595019 23.3043333,14.7607562 23.5191655,14.7595019 L23.5191655,12 L23.5179113,12 L23.5179113,12 Z" id="Shape" fill="#FFFFFF" fill-rule="nonzero"></path>
                </g>
            </g>
        </g>
    </g>
</svg>