<?xml version="1.0" encoding="UTF-8"?>
<svg width="40px" height="40px" viewBox="0 0 40 40" version="1.1" xmlns="http://www.w3.org/2000/svg" xmlns:xlink="http://www.w3.org/1999/xlink">
    <!-- Generator: Sketch 47.1 (45422) - http://www.bohemiancoding.com/sketch -->
    <title>Group 6</title>
    <desc>Created with Sketch.</desc>
    <defs>
        <linearGradient x1="64.6541667%" y1="15.8041667%" x2="39.6541667%" y2="74.1366667%" id="linearGradient-1">
            <stop stop-color="#CD201F" offset="0%"></stop>
            <stop stop-color="#A90807" offset="100%"></stop>
        </linearGradient>
    </defs>
    <g id="Page-1" stroke="none" stroke-width="1" fill="none" fill-rule="evenodd">
        <g id="Contact" transform="translate(-240.000000, -378.000000)">
            <g id="Group-7" transform="translate(240.000000, 287.000000)">
                <g id="Group-6" transform="translate(20.000000, 111.000000) rotate(-360.000000) translate(-20.000000, -111.000000) translate(0.000000, 91.000000)">
                    <circle id="Oval-7-Copy-2" fill="url(#linearGradient-1)" cx="20" cy="20" r="20"></circle>
                    <g id="youtube-icon-(1)" transform="translate(9.333333, 12.666667)">
                        <path d="M13.9922929,7.6751731 C12.1785485,6.63026706 10.4418754,5.66963403 8.66666667,4.66666667 L8.66666667,10.6666667 C10.534728,9.571909 12.5037159,8.56933729 14,7.6751731 L13.9922929,7.6751731 L13.9922929,7.6751731 Z" id="Shape" fill="#FFFFFF" fill-rule="nonzero"></path>
                        <path d="M14,7.5015456 C12.1836308,6.51694338 8.66666667,4.66666667 8.66666667,4.66666667 L13.3557072,7.86354815 C13.3560747,7.86354815 12.5015505,8.34410561 14,7.5015456 Z" id="Shape" fill="#E8E0E0" fill-rule="nonzero"></path>
                        <path d="M8.55919596,14.6484913 C4.62331899,14.5752643 3.27902434,14.5093988 2.45273941,14.3373736 C1.89370301,14.2230775 1.40790115,13.9693016 1.05169757,13.6012295 C0.77639707,13.3226571 0.557460319,12.8976308 0.38760221,12.3079407 C0.241899994,11.8166614 0.185152815,11.4079078 0.104249742,10.409464 C-0.0195971411,8.1560884 -0.0491210111,6.3137911 0.104249742,4.25529993 C0.230780614,3.11853857 0.292128915,1.76907033 1.13260064,0.981783668 C1.52944747,0.613324209 1.99109344,0.376208343 2.50948658,0.278184954 C3.31928416,0.12281982 6.76935926,0 10.3409807,0 C13.9045501,0 17.3622938,0.12281982 18.1728582,0.278184954 C18.8204662,0.401004774 19.4278144,0.769076788 19.7844014,1.24369596 C20.5512552,2.4625955 20.5646751,3.97827731 20.6425108,5.16385664 C20.6747186,5.72875032 20.6747186,8.93640107 20.6425108,9.50129475 C20.5213479,11.374975 20.4239574,12.0378921 20.1486569,12.7252181 C19.9784154,13.1591557 19.8330966,13.3881352 19.5815686,13.6419112 C19.1870849,14.0324387 18.6841807,14.2922018 18.1398835,14.386579 C14.7339025,14.6453917 11.8417135,14.7015711 8.55919596,14.6484913 L8.55919596,14.6484913 Z" id="Shape" stroke="#FF4A4A" fill="#CD201F" fill-rule="nonzero"></path>
                        <path d="M8.66666667,4.66666667 L8.66666667,10.6666667 C10.534728,9.57198119 12.5040829,8.56907996 14,7.67497472 C12.1785485,6.63844565 10.4418754,5.66956789 8.66666667,4.66666667 Z" id="Path" fill="#FFFFFF"></path>
                    </g>
                </g>
            </g>
        </g>
    </g>
</svg>