<?xml version="1.0" encoding="UTF-8"?>
<svg width="270px" height="272px" viewBox="0 0 270 272" version="1.1" xmlns="http://www.w3.org/2000/svg" xmlns:xlink="http://www.w3.org/1999/xlink">
    <!-- Generator: Sketch 48.2 (47327) - http://www.bohemiancoding.com/sketch -->
    <title>Group 20</title>
    <desc>Created with Sketch.</desc>
    <defs></defs>
    <g id="Lending" stroke="none" stroke-width="1" fill="none" fill-rule="evenodd" transform="translate(-280.000000, -2218.000000)">
        <g id="Group-15" transform="translate(280.000000, 2159.000000)">
            <g id="Group-20" transform="translate(0.000000, 59.000000)">
                <path d="M129.25377,14.4996721 L129.25377,19.0111475 C127.931803,19.682623 124.542951,21.5291803 121.384918,24.1206557 C120.503607,24.8445902 120,25.9147541 120,27.0583607 L120,30.9613115 C120,31.5383607 120.461639,32 121.038689,32 C121.615738,32 122.077377,31.5383607 122.077377,30.9613115 L122.077377,27.0583607 C122.077377,26.5442623 122.308197,26.0511475 122.706885,25.7259016 C126.158689,22.8931148 129.89377,21.0045902 130.607213,20.6583607 C131.058361,20.4380328 131.331148,19.997377 131.331148,19.4937705 L131.331148,14.0065574 C131.331148,13.6603279 131.152787,13.335082 130.869508,13.1462295 C130.439344,12.8629508 130.187541,12.3803279 130.187541,11.8767213 L130.187541,6.17967213 C130.187541,3.92393443 132.023607,2.08786885 134.279344,2.08786885 L135.506885,2.08786885 C137.762623,2.08786885 139.598689,3.92393443 139.598689,6.17967213 L139.598689,11.8767213 C139.598689,12.3908197 139.346885,12.8629508 138.916721,13.1462295 C138.622951,13.335082 138.455082,13.6603279 138.455082,14.0065574 L138.455082,19.4937705 C138.455082,19.9868852 138.738361,20.4380328 139.179016,20.6583607 C139.892459,21.0045902 143.627541,22.8931148 147.079344,25.7259016 C147.478033,26.0511475 147.708852,26.5337705 147.708852,27.0583607 L147.708852,30.9613115 C147.708852,31.5383607 148.170492,32 148.747541,32 C149.32459,32 149.78623,31.5383607 149.78623,30.9613115 L149.78623,27.0583607 C149.78623,25.9147541 149.282623,24.8445902 148.401311,24.1206557 C145.243279,21.5186885 141.854426,19.682623 140.532459,19.0111475 L140.532459,14.4996721 C141.256393,13.8281967 141.676066,12.8734426 141.676066,11.8662295 L141.676066,6.16918033 C141.676066,2.76983607 138.90623,0 135.506885,0 L134.279344,0 C130.88,0 128.110164,2.76983607 128.110164,6.16918033 L128.110164,11.8662295 C128.110164,12.8734426 128.529836,13.8281967 129.25377,14.4996721 Z" id="Shape" fill="#20C565" fill-rule="nonzero"></path>
                <g id="Group-12" transform="translate(80.000000, 80.000000)" fill="#20C565" fill-rule="nonzero">
                    <path d="M9.25377049,14.4996721 L9.25377049,19.0111475 C7.93180328,19.682623 4.54295082,21.5291803 1.38491803,24.1206557 C0.503606557,24.8445902 0,25.9147541 0,27.0583607 L0,30.9613115 C0,31.5383607 0.461639344,32 1.03868852,32 C1.6157377,32 2.07737705,31.5383607 2.07737705,30.9613115 L2.07737705,27.0583607 C2.07737705,26.5442623 2.30819672,26.0511475 2.70688525,25.7259016 C6.15868852,22.8931148 9.89377049,21.0045902 10.6072131,20.6583607 C11.0583607,20.4380328 11.3311475,19.997377 11.3311475,19.4937705 L11.3311475,14.0065574 C11.3311475,13.6603279 11.1527869,13.335082 10.8695082,13.1462295 C10.4393443,12.8629508 10.187541,12.3803279 10.187541,11.8767213 L10.187541,6.17967213 C10.187541,3.92393443 12.0236066,2.08786885 14.2793443,2.08786885 L15.5068852,2.08786885 C17.762623,2.08786885 19.5986885,3.92393443 19.5986885,6.17967213 L19.5986885,11.8767213 C19.5986885,12.3908197 19.3468852,12.8629508 18.9167213,13.1462295 C18.6229508,13.335082 18.455082,13.6603279 18.455082,14.0065574 L18.455082,19.4937705 C18.455082,19.9868852 18.7383607,20.4380328 19.1790164,20.6583607 C19.892459,21.0045902 23.627541,22.8931148 27.0793443,25.7259016 C27.4780328,26.0511475 27.7088525,26.5337705 27.7088525,27.0583607 L27.7088525,30.9613115 C27.7088525,31.5383607 28.1704918,32 28.747541,32 C29.3245902,32 29.7862295,31.5383607 29.7862295,30.9613115 L29.7862295,27.0583607 C29.7862295,25.9147541 29.282623,24.8445902 28.4013115,24.1206557 C25.2432787,21.5186885 21.8544262,19.682623 20.532459,19.0111475 L20.532459,14.4996721 C21.2563934,13.8281967 21.6760656,12.8734426 21.6760656,11.8662295 L21.6760656,6.16918033 C21.6760656,2.76983607 18.9062295,0 15.5068852,0 L14.2793443,0 C10.88,0 8.11016393,2.76983607 8.11016393,6.16918033 L8.11016393,11.8662295 C8.11016393,12.8734426 8.52983607,13.8281967 9.25377049,14.4996721 Z" id="Shape"></path>
                    <path d="M89.2537705,14.4996721 L89.2537705,19.0111475 C87.9318033,19.682623 84.5429508,21.5291803 81.384918,24.1206557 C80.5036066,24.8445902 80,25.9147541 80,27.0583607 L80,30.9613115 C80,31.5383607 80.4616393,32 81.0386885,32 C81.6157377,32 82.077377,31.5383607 82.077377,30.9613115 L82.077377,27.0583607 C82.077377,26.5442623 82.3081967,26.0511475 82.7068852,25.7259016 C86.1586885,22.8931148 89.8937705,21.0045902 90.6072131,20.6583607 C91.0583607,20.4380328 91.3311475,19.997377 91.3311475,19.4937705 L91.3311475,14.0065574 C91.3311475,13.6603279 91.1527869,13.335082 90.8695082,13.1462295 C90.4393443,12.8629508 90.187541,12.3803279 90.187541,11.8767213 L90.187541,6.17967213 C90.187541,3.92393443 92.0236066,2.08786885 94.2793443,2.08786885 L95.5068852,2.08786885 C97.762623,2.08786885 99.5986885,3.92393443 99.5986885,6.17967213 L99.5986885,11.8767213 C99.5986885,12.3908197 99.3468852,12.8629508 98.9167213,13.1462295 C98.6229508,13.335082 98.455082,13.6603279 98.455082,14.0065574 L98.455082,19.4937705 C98.455082,19.9868852 98.7383607,20.4380328 99.1790164,20.6583607 C99.892459,21.0045902 103.627541,22.8931148 107.079344,25.7259016 C107.478033,26.0511475 107.708852,26.5337705 107.708852,27.0583607 L107.708852,30.9613115 C107.708852,31.5383607 108.170492,32 108.747541,32 C109.32459,32 109.78623,31.5383607 109.78623,30.9613115 L109.78623,27.0583607 C109.78623,25.9147541 109.282623,24.8445902 108.401311,24.1206557 C105.243279,21.5186885 101.854426,19.682623 100.532459,19.0111475 L100.532459,14.4996721 C101.256393,13.8281967 101.676066,12.8734426 101.676066,11.8662295 L101.676066,6.16918033 C101.676066,2.76983607 98.9062295,0 95.5068852,0 L94.2793443,0 C90.88,0 88.1101639,2.76983607 88.1101639,6.16918033 L88.1101639,11.8662295 C88.1101639,12.8734426 88.5298361,13.8281967 89.2537705,14.4996721 Z" id="Shape"></path>
                </g>
                <g id="Group-11" transform="translate(40.000000, 160.000000)" fill="#20C565" fill-rule="nonzero">
                    <path d="M9.25377049,14.4996721 L9.25377049,19.0111475 C7.93180328,19.682623 4.54295082,21.5291803 1.38491803,24.1206557 C0.503606557,24.8445902 0,25.9147541 0,27.0583607 L0,30.9613115 C0,31.5383607 0.461639344,32 1.03868852,32 C1.6157377,32 2.07737705,31.5383607 2.07737705,30.9613115 L2.07737705,27.0583607 C2.07737705,26.5442623 2.30819672,26.0511475 2.70688525,25.7259016 C6.15868852,22.8931148 9.89377049,21.0045902 10.6072131,20.6583607 C11.0583607,20.4380328 11.3311475,19.997377 11.3311475,19.4937705 L11.3311475,14.0065574 C11.3311475,13.6603279 11.1527869,13.335082 10.8695082,13.1462295 C10.4393443,12.8629508 10.187541,12.3803279 10.187541,11.8767213 L10.187541,6.17967213 C10.187541,3.92393443 12.0236066,2.08786885 14.2793443,2.08786885 L15.5068852,2.08786885 C17.762623,2.08786885 19.5986885,3.92393443 19.5986885,6.17967213 L19.5986885,11.8767213 C19.5986885,12.3908197 19.3468852,12.8629508 18.9167213,13.1462295 C18.6229508,13.335082 18.455082,13.6603279 18.455082,14.0065574 L18.455082,19.4937705 C18.455082,19.9868852 18.7383607,20.4380328 19.1790164,20.6583607 C19.892459,21.0045902 23.627541,22.8931148 27.0793443,25.7259016 C27.4780328,26.0511475 27.7088525,26.5337705 27.7088525,27.0583607 L27.7088525,30.9613115 C27.7088525,31.5383607 28.1704918,32 28.747541,32 C29.3245902,32 29.7862295,31.5383607 29.7862295,30.9613115 L29.7862295,27.0583607 C29.7862295,25.9147541 29.282623,24.8445902 28.4013115,24.1206557 C25.2432787,21.5186885 21.8544262,19.682623 20.532459,19.0111475 L20.532459,14.4996721 C21.2563934,13.8281967 21.6760656,12.8734426 21.6760656,11.8662295 L21.6760656,6.16918033 C21.6760656,2.76983607 18.9062295,0 15.5068852,0 L14.2793443,0 C10.88,0 8.11016393,2.76983607 8.11016393,6.16918033 L8.11016393,11.8662295 C8.11016393,12.8734426 8.52983607,13.8281967 9.25377049,14.4996721 Z" id="Shape"></path>
                    <path d="M89.2537705,14.4996721 L89.2537705,19.0111475 C87.9318033,19.682623 84.5429508,21.5291803 81.384918,24.1206557 C80.5036066,24.8445902 80,25.9147541 80,27.0583607 L80,30.9613115 C80,31.5383607 80.4616393,32 81.0386885,32 C81.6157377,32 82.077377,31.5383607 82.077377,30.9613115 L82.077377,27.0583607 C82.077377,26.5442623 82.3081967,26.0511475 82.7068852,25.7259016 C86.1586885,22.8931148 89.8937705,21.0045902 90.6072131,20.6583607 C91.0583607,20.4380328 91.3311475,19.997377 91.3311475,19.4937705 L91.3311475,14.0065574 C91.3311475,13.6603279 91.1527869,13.335082 90.8695082,13.1462295 C90.4393443,12.8629508 90.187541,12.3803279 90.187541,11.8767213 L90.187541,6.17967213 C90.187541,3.92393443 92.0236066,2.08786885 94.2793443,2.08786885 L95.5068852,2.08786885 C97.762623,2.08786885 99.5986885,3.92393443 99.5986885,6.17967213 L99.5986885,11.8767213 C99.5986885,12.3908197 99.3468852,12.8629508 98.9167213,13.1462295 C98.6229508,13.335082 98.455082,13.6603279 98.455082,14.0065574 L98.455082,19.4937705 C98.455082,19.9868852 98.7383607,20.4380328 99.1790164,20.6583607 C99.892459,21.0045902 103.627541,22.8931148 107.079344,25.7259016 C107.478033,26.0511475 107.708852,26.5337705 107.708852,27.0583607 L107.708852,30.9613115 C107.708852,31.5383607 108.170492,32 108.747541,32 C109.32459,32 109.78623,31.5383607 109.78623,30.9613115 L109.78623,27.0583607 C109.78623,25.9147541 109.282623,24.8445902 108.401311,24.1206557 C105.243279,21.5186885 101.854426,19.682623 100.532459,19.0111475 L100.532459,14.4996721 C101.256393,13.8281967 101.676066,12.8734426 101.676066,11.8662295 L101.676066,6.16918033 C101.676066,2.76983607 98.9062295,0 95.5068852,0 L94.2793443,0 C90.88,0 88.1101639,2.76983607 88.1101639,6.16918033 L88.1101639,11.8662295 C88.1101639,12.8734426 88.5298361,13.8281967 89.2537705,14.4996721 Z" id="Shape"></path>
                    <path d="M169.25377,14.4996721 L169.25377,19.0111475 C167.931803,19.682623 164.542951,21.5291803 161.384918,24.1206557 C160.503607,24.8445902 160,25.9147541 160,27.0583607 L160,30.9613115 C160,31.5383607 160.461639,32 161.038689,32 C161.615738,32 162.077377,31.5383607 162.077377,30.9613115 L162.077377,27.0583607 C162.077377,26.5442623 162.308197,26.0511475 162.706885,25.7259016 C166.158689,22.8931148 169.89377,21.0045902 170.607213,20.6583607 C171.058361,20.4380328 171.331148,19.997377 171.331148,19.4937705 L171.331148,14.0065574 C171.331148,13.6603279 171.152787,13.335082 170.869508,13.1462295 C170.439344,12.8629508 170.187541,12.3803279 170.187541,11.8767213 L170.187541,6.17967213 C170.187541,3.92393443 172.023607,2.08786885 174.279344,2.08786885 L175.506885,2.08786885 C177.762623,2.08786885 179.598689,3.92393443 179.598689,6.17967213 L179.598689,11.8767213 C179.598689,12.3908197 179.346885,12.8629508 178.916721,13.1462295 C178.622951,13.335082 178.455082,13.6603279 178.455082,14.0065574 L178.455082,19.4937705 C178.455082,19.9868852 178.738361,20.4380328 179.179016,20.6583607 C179.892459,21.0045902 183.627541,22.8931148 187.079344,25.7259016 C187.478033,26.0511475 187.708852,26.5337705 187.708852,27.0583607 L187.708852,30.9613115 C187.708852,31.5383607 188.170492,32 188.747541,32 C189.32459,32 189.78623,31.5383607 189.78623,30.9613115 L189.78623,27.0583607 C189.78623,25.9147541 189.282623,24.8445902 188.401311,24.1206557 C185.243279,21.5186885 181.854426,19.682623 180.532459,19.0111475 L180.532459,14.4996721 C181.256393,13.8281967 181.676066,12.8734426 181.676066,11.8662295 L181.676066,6.16918033 C181.676066,2.76983607 178.90623,0 175.506885,0 L174.279344,0 C170.88,0 168.110164,2.76983607 168.110164,6.16918033 L168.110164,11.8662295 C168.110164,12.8734426 168.529836,13.8281967 169.25377,14.4996721 Z" id="Shape"></path>
                </g>
                <g id="Group-10" transform="translate(0.000000, 240.000000)" fill="#20C565" fill-rule="nonzero">
                    <path d="M9.25377049,14.4996721 L9.25377049,19.0111475 C7.93180328,19.682623 4.54295082,21.5291803 1.38491803,24.1206557 C0.503606557,24.8445902 0,25.9147541 0,27.0583607 L0,30.9613115 C0,31.5383607 0.461639344,32 1.03868852,32 C1.6157377,32 2.07737705,31.5383607 2.07737705,30.9613115 L2.07737705,27.0583607 C2.07737705,26.5442623 2.30819672,26.0511475 2.70688525,25.7259016 C6.15868852,22.8931148 9.89377049,21.0045902 10.6072131,20.6583607 C11.0583607,20.4380328 11.3311475,19.997377 11.3311475,19.4937705 L11.3311475,14.0065574 C11.3311475,13.6603279 11.1527869,13.335082 10.8695082,13.1462295 C10.4393443,12.8629508 10.187541,12.3803279 10.187541,11.8767213 L10.187541,6.17967213 C10.187541,3.92393443 12.0236066,2.08786885 14.2793443,2.08786885 L15.5068852,2.08786885 C17.762623,2.08786885 19.5986885,3.92393443 19.5986885,6.17967213 L19.5986885,11.8767213 C19.5986885,12.3908197 19.3468852,12.8629508 18.9167213,13.1462295 C18.6229508,13.335082 18.455082,13.6603279 18.455082,14.0065574 L18.455082,19.4937705 C18.455082,19.9868852 18.7383607,20.4380328 19.1790164,20.6583607 C19.892459,21.0045902 23.627541,22.8931148 27.0793443,25.7259016 C27.4780328,26.0511475 27.7088525,26.5337705 27.7088525,27.0583607 L27.7088525,30.9613115 C27.7088525,31.5383607 28.1704918,32 28.747541,32 C29.3245902,32 29.7862295,31.5383607 29.7862295,30.9613115 L29.7862295,27.0583607 C29.7862295,25.9147541 29.282623,24.8445902 28.4013115,24.1206557 C25.2432787,21.5186885 21.8544262,19.682623 20.532459,19.0111475 L20.532459,14.4996721 C21.2563934,13.8281967 21.6760656,12.8734426 21.6760656,11.8662295 L21.6760656,6.16918033 C21.6760656,2.76983607 18.9062295,0 15.5068852,0 L14.2793443,0 C10.88,0 8.11016393,2.76983607 8.11016393,6.16918033 L8.11016393,11.8662295 C8.11016393,12.8734426 8.52983607,13.8281967 9.25377049,14.4996721 Z" id="Shape"></path>
                    <path d="M89.2537705,14.4996721 L89.2537705,19.0111475 C87.9318033,19.682623 84.5429508,21.5291803 81.384918,24.1206557 C80.5036066,24.8445902 80,25.9147541 80,27.0583607 L80,30.9613115 C80,31.5383607 80.4616393,32 81.0386885,32 C81.6157377,32 82.077377,31.5383607 82.077377,30.9613115 L82.077377,27.0583607 C82.077377,26.5442623 82.3081967,26.0511475 82.7068852,25.7259016 C86.1586885,22.8931148 89.8937705,21.0045902 90.6072131,20.6583607 C91.0583607,20.4380328 91.3311475,19.997377 91.3311475,19.4937705 L91.3311475,14.0065574 C91.3311475,13.6603279 91.1527869,13.335082 90.8695082,13.1462295 C90.4393443,12.8629508 90.187541,12.3803279 90.187541,11.8767213 L90.187541,6.17967213 C90.187541,3.92393443 92.0236066,2.08786885 94.2793443,2.08786885 L95.5068852,2.08786885 C97.762623,2.08786885 99.5986885,3.92393443 99.5986885,6.17967213 L99.5986885,11.8767213 C99.5986885,12.3908197 99.3468852,12.8629508 98.9167213,13.1462295 C98.6229508,13.335082 98.455082,13.6603279 98.455082,14.0065574 L98.455082,19.4937705 C98.455082,19.9868852 98.7383607,20.4380328 99.1790164,20.6583607 C99.892459,21.0045902 103.627541,22.8931148 107.079344,25.7259016 C107.478033,26.0511475 107.708852,26.5337705 107.708852,27.0583607 L107.708852,30.9613115 C107.708852,31.5383607 108.170492,32 108.747541,32 C109.32459,32 109.78623,31.5383607 109.78623,30.9613115 L109.78623,27.0583607 C109.78623,25.9147541 109.282623,24.8445902 108.401311,24.1206557 C105.243279,21.5186885 101.854426,19.682623 100.532459,19.0111475 L100.532459,14.4996721 C101.256393,13.8281967 101.676066,12.8734426 101.676066,11.8662295 L101.676066,6.16918033 C101.676066,2.76983607 98.9062295,0 95.5068852,0 L94.2793443,0 C90.88,0 88.1101639,2.76983607 88.1101639,6.16918033 L88.1101639,11.8662295 C88.1101639,12.8734426 88.5298361,13.8281967 89.2537705,14.4996721 Z" id="Shape"></path>
                    <path d="M169.25377,14.4996721 L169.25377,19.0111475 C167.931803,19.682623 164.542951,21.5291803 161.384918,24.1206557 C160.503607,24.8445902 160,25.9147541 160,27.0583607 L160,30.9613115 C160,31.5383607 160.461639,32 161.038689,32 C161.615738,32 162.077377,31.5383607 162.077377,30.9613115 L162.077377,27.0583607 C162.077377,26.5442623 162.308197,26.0511475 162.706885,25.7259016 C166.158689,22.8931148 169.89377,21.0045902 170.607213,20.6583607 C171.058361,20.4380328 171.331148,19.997377 171.331148,19.4937705 L171.331148,14.0065574 C171.331148,13.6603279 171.152787,13.335082 170.869508,13.1462295 C170.439344,12.8629508 170.187541,12.3803279 170.187541,11.8767213 L170.187541,6.17967213 C170.187541,3.92393443 172.023607,2.08786885 174.279344,2.08786885 L175.506885,2.08786885 C177.762623,2.08786885 179.598689,3.92393443 179.598689,6.17967213 L179.598689,11.8767213 C179.598689,12.3908197 179.346885,12.8629508 178.916721,13.1462295 C178.622951,13.335082 178.455082,13.6603279 178.455082,14.0065574 L178.455082,19.4937705 C178.455082,19.9868852 178.738361,20.4380328 179.179016,20.6583607 C179.892459,21.0045902 183.627541,22.8931148 187.079344,25.7259016 C187.478033,26.0511475 187.708852,26.5337705 187.708852,27.0583607 L187.708852,30.9613115 C187.708852,31.5383607 188.170492,32 188.747541,32 C189.32459,32 189.78623,31.5383607 189.78623,30.9613115 L189.78623,27.0583607 C189.78623,25.9147541 189.282623,24.8445902 188.401311,24.1206557 C185.243279,21.5186885 181.854426,19.682623 180.532459,19.0111475 L180.532459,14.4996721 C181.256393,13.8281967 181.676066,12.8734426 181.676066,11.8662295 L181.676066,6.16918033 C181.676066,2.76983607 178.90623,0 175.506885,0 L174.279344,0 C170.88,0 168.110164,2.76983607 168.110164,6.16918033 L168.110164,11.8662295 C168.110164,12.8734426 168.529836,13.8281967 169.25377,14.4996721 Z" id="Shape"></path>
                    <path d="M249.25377,14.4996721 L249.25377,19.0111475 C247.931803,19.682623 244.542951,21.5291803 241.384918,24.1206557 C240.503607,24.8445902 240,25.9147541 240,27.0583607 L240,30.9613115 C240,31.5383607 240.461639,32 241.038689,32 C241.615738,32 242.077377,31.5383607 242.077377,30.9613115 L242.077377,27.0583607 C242.077377,26.5442623 242.308197,26.0511475 242.706885,25.7259016 C246.158689,22.8931148 249.89377,21.0045902 250.607213,20.6583607 C251.058361,20.4380328 251.331148,19.997377 251.331148,19.4937705 L251.331148,14.0065574 C251.331148,13.6603279 251.152787,13.335082 250.869508,13.1462295 C250.439344,12.8629508 250.187541,12.3803279 250.187541,11.8767213 L250.187541,6.17967213 C250.187541,3.92393443 252.023607,2.08786885 254.279344,2.08786885 L255.506885,2.08786885 C257.762623,2.08786885 259.598689,3.92393443 259.598689,6.17967213 L259.598689,11.8767213 C259.598689,12.3908197 259.346885,12.8629508 258.916721,13.1462295 C258.622951,13.335082 258.455082,13.6603279 258.455082,14.0065574 L258.455082,19.4937705 C258.455082,19.9868852 258.738361,20.4380328 259.179016,20.6583607 C259.892459,21.0045902 263.627541,22.8931148 267.079344,25.7259016 C267.478033,26.0511475 267.708852,26.5337705 267.708852,27.0583607 L267.708852,30.9613115 C267.708852,31.5383607 268.170492,32 268.747541,32 C269.32459,32 269.78623,31.5383607 269.78623,30.9613115 L269.78623,27.0583607 C269.78623,25.9147541 269.282623,24.8445902 268.401311,24.1206557 C265.243279,21.5186885 261.854426,19.682623 260.532459,19.0111475 L260.532459,14.4996721 C261.256393,13.8281967 261.676066,12.8734426 261.676066,11.8662295 L261.676066,6.16918033 C261.676066,2.76983607 258.90623,0 255.506885,0 L254.279344,0 C250.88,0 248.110164,2.76983607 248.110164,6.16918033 L248.110164,11.8662295 C248.110164,12.8734426 248.529836,13.8281967 249.25377,14.4996721 Z" id="Shape"></path>
                </g>
                <g id="Group-13" transform="translate(93.000000, 28.000000)" stroke="#182CA2">
                    <path d="M2,39 L2,31 C2,25.4771525 6.4771525,21 12,21 L72,21 C77.5228475,21 82,25.4771525 82,31 L82,39" id="Path-8" stroke-linecap="round"></path>
                    <path d="M42.5,20.5 L42.5,5.5" id="Line-3" stroke-linecap="round"></path>
                    <circle id="Oval-15" cx="2.5" cy="42.5" r="2.5"></circle>
                    <circle id="Oval-15" cx="42.5" cy="2.5" r="2.5"></circle>
                    <circle id="Oval-15" cx="82.5" cy="42.5" r="2.5"></circle>
                </g>
                <g id="Group-13" transform="translate(52.000000, 108.000000)" stroke="#182CA2">
                    <path d="M3,39.2048517 L3,31 C3,25.4771525 7.4771525,21 13,21 L153.061796,21 C158.584644,21 163.061796,25.4771525 163.061796,31 L163.061796,39.2048517" id="Path-8" stroke-linecap="round"></path>
                    <path d="M43.5,20.5 L43.5,5.5" id="Line-3" stroke-linecap="round"></path>
                    <circle id="Oval-15" cx="3" cy="42" r="2.5"></circle>
                    <circle id="Oval-15" cx="83.5" cy="42" r="2.5"></circle>
                    <circle id="Oval-15" cx="43.5" cy="2.5" r="2.5"></circle>
                    <path d="M83.5,39.5 L83.5,21.5" id="Line-3" stroke-linecap="round"></path>
                    <path d="M123.5,20.5 L123.5,5.5" id="Line-3" stroke-linecap="round"></path>
                    <circle id="Oval-15" cx="123.5" cy="2.5" r="2.5"></circle>
                    <circle id="Oval-15" cx="163" cy="42" r="2.5"></circle>
                </g>
                <g id="Group-13" transform="translate(12.000000, 188.000000)" stroke="#182CA2">
                    <path d="M3,39.2048517 L3,31 C3,25.4771525 7.4771525,21 13,21 L233.061796,21 C238.584644,21 243.061796,25.4771525 243.061796,31 L243.061796,39.2048517" id="Path-8" stroke-linecap="round"></path>
                    <path d="M43.5,20.5 L43.5,5.5" id="Line-3" stroke-linecap="round"></path>
                    <circle id="Oval-15" cx="3" cy="42" r="2.5"></circle>
                    <circle id="Oval-15" cx="83.5" cy="42" r="2.5"></circle>
                    <circle id="Oval-15" cx="43.5" cy="2.5" r="2.5"></circle>
                    <path d="M83.5,39.5 L83.5,21.5" id="Line-3" stroke-linecap="round"></path>
                    <circle id="Oval-15" cx="162.5" cy="42" r="2.5"></circle>
                    <path d="M162.5,39.5 L162.5,21.5" id="Line-3" stroke-linecap="round"></path>
                    <path d="M123.5,20.5 L123.5,5.5" id="Line-3" stroke-linecap="round"></path>
                    <circle id="Oval-15" cx="123.5" cy="2.5" r="2.5"></circle>
                    <path d="M202.5,20.5 L202.5,5.5" id="Line-3" stroke-linecap="round"></path>
                    <circle id="Oval-15" cx="202.5" cy="2.5" r="2.5"></circle>
                    <circle id="Oval-15" cx="243" cy="42" r="2.5"></circle>
                </g>
            </g>
        </g>
    </g>
</svg>