<?xml version="1.0" encoding="UTF-8"?>
<svg width="122px" height="46px" viewBox="0 0 122 46" version="1.1" xmlns="http://www.w3.org/2000/svg" xmlns:xlink="http://www.w3.org/1999/xlink">
    <!-- Generator: Sketch 48.2 (47327) - http://www.bohemiancoding.com/sketch -->
    <title>Group 16</title>
    <desc>Created with Sketch.</desc>
    <defs></defs>
    <g id="Roadmap-content" stroke="none" stroke-width="1" fill="none" fill-rule="evenodd" transform="translate(-419.000000, -1116.000000)">
        <g id="Group-16" transform="translate(420.000000, 1117.000000)">
            <g id="Group-17">
                <circle id="Oval" stroke="#20C565" stroke-width="2" cx="22" cy="22" r="22"></circle>
                <path d="M30.4758216,19.1341986 C30.8643853,16.5327772 28.8836882,15.1343147 26.1753508,14.2013954 L27.0538956,10.6774408 L24.9082423,10.1428604 L24.0529135,13.5739506 C23.4896185,13.4334323 22.9104387,13.3008564 22.3349246,13.1695023 L23.1963629,9.71580693 L21.0525424,9.18122645 L20.1733866,12.7039591 C19.7066215,12.5976539 19.2484097,12.4925707 18.8036387,12.3819889 L18.8060825,12.3709918 L15.8478669,11.6323543 L15.2772404,13.9234135 C15.2772404,13.9234135 16.8687628,14.2881502 16.8351606,14.3107553 C17.7039303,14.5276422 17.8615552,15.1025453 17.8346734,15.5583134 L16.8339387,19.57286 C16.8938117,19.5881338 16.9714023,19.6101279 17.0569352,19.6443411 L16.830884,19.5881338 L15.4275339,25.2119204 C15.3212287,25.4758504 15.0518002,25.8717455 14.4445167,25.721452 C14.4658999,25.7526104 12.8853746,25.3322774 12.8853746,25.3322774 L11.8204903,27.7882929 L14.6125277,28.4841639 C15.1318345,28.6142961 15.6407551,28.7505377 16.1411224,28.878837 L15.2534134,32.4437252 L17.3960119,32.9783056 L18.2757787,29.4519073 C18.860457,29.6107541 19.4286397,29.7573819 19.9846034,29.8954564 L19.1085023,33.4053591 L21.2535447,33.9399396 L22.1412537,30.3823828 C25.7990061,31.0745882 28.55011,30.7953844 29.7066367,27.4877059 C30.639556,24.8239677 29.6608155,23.2874307 27.7363258,22.2848632 C29.1378431,21.9604492 30.1935632,21.038527 30.4752107,19.1341986 L30.4758216,19.1341986 Z M25.5741769,26.0067652 C24.9106861,28.6705034 20.4263196,27.2311073 18.9716497,26.8694254 L20.1495596,22.1473996 C21.6036185,22.5103034 26.2657713,23.2287796 25.5747878,26.0067652 L25.5741769,26.0067652 Z M26.2370567,19.0957088 C25.632217,21.518733 21.8993179,20.2876705 20.6878058,19.9858616 L21.7557449,15.7031083 C22.967257,16.0049172 26.8675561,16.5682123 26.2370567,19.0957088 Z" id="Shape" fill="#20C565" fill-rule="nonzero" transform="translate(21.172526, 21.560583) rotate(-14.000000) translate(-21.172526, -21.560583) "></path>
            </g>
            <path d="M69.0344828,35.6551724 L69.0344828,33.3793103 L73.5862069,36.4137931 L69.0344828,39.4482759 L69.0344828,37.1724138 L48.5517241,37.1724138 L48.5517241,35.6551724 L69.0344828,35.6551724 Z" id="Combined-Shape" fill="#20C565" fill-rule="nonzero" transform="translate(61.068966, 36.413793) scale(-1, 1) translate(-61.068966, -36.413793) "></path>
            <path d="M69.0344828,5.31034483 L69.0344828,3.03448276 L73.5862069,6.06896552 L69.0344828,9.10344828 L69.0344828,6.82758621 L48.5517241,6.82758621 L48.5517241,5.31034483 L69.0344828,5.31034483 Z" id="Combined-Shape" fill="#F7931A" fill-rule="nonzero"></path>
            <g id="Group-18" transform="translate(75.862069, 0.000000)">
                <circle id="Oval" stroke="#20C565" stroke-width="2" cx="22" cy="22" r="22"></circle>
                <path d="M13.8466001,21.637479 C13.8466001,17.2616979 17.2194046,13.667112 21.5398203,13.3472412 L21.5398203,14.5275148 C19.9396664,14.6804895 18.3092695,15.4399226 17.1581187,16.5910734 L19.4076152,18.852891 C19.97791,18.2825961 20.7397433,17.8867181 21.5398203,17.7503849 L21.5398203,25.524733 C20.7397433,25.3883999 19.9902312,24.9925218 19.4199364,24.4222269 L17.1456375,26.6842046 C18.2967883,27.8353553 19.9396664,28.5947884 21.5398203,28.7477631 L21.5398203,29.9277167 C17.2194046,29.6078459 13.8466001,26.01326 13.8466001,21.637479 M26.1199411,21.637639 C26.1199411,23.4790962 24.9001437,25.0290053 23.1399743,25.4588067 L23.1399743,17.8164713 C24.9001437,18.2461126 26.1199411,19.7961818 26.1199411,21.637639 M30.3448276,29.7949039 L28.052447,27.5150045 C26.763843,28.8034485 25.0601591,29.6700919 23.1399743,29.8939534 L23.1399743,28.7115997 C26.660313,28.2409944 29.320249,25.2490265 29.320249,21.637639 C29.320249,18.0260915 26.660313,15.0342836 23.1399743,14.5636783 L23.1399743,13.3808445 C25.0601591,13.604706 26.7761642,14.4713494 28.0647682,15.7599534 L30.3323464,13.479894 C28.4588861,11.6064337 26.0202515,10.3754353 23.1399743,10.1398926 L23.1399743,7.5862069 L21.5398203,7.5862069 L21.5398203,10.11285 C15.4592352,10.4375213 10.6206897,15.4821667 10.6206897,21.637479 C10.6206897,27.7927913 15.4592352,32.8372766 21.5398203,33.1619479 L21.5398203,35.2688706 L23.1399743,35.2688706 L23.1399743,33.1349053 C26.0202515,32.8993626 28.4712073,31.6685242 30.3448276,29.7949039" id="Fill-1" fill="#20C565"></path>
            </g>
        </g>
    </g>
</svg>