<?xml version="1.0" encoding="UTF-8"?>
<svg width="110px" height="96px" viewBox="0 0 110 96" version="1.1" xmlns="http://www.w3.org/2000/svg" xmlns:xlink="http://www.w3.org/1999/xlink">
    <!-- Generator: Sketch 48.2 (47327) - http://www.bohemiancoding.com/sketch -->
    <title>Bank icon</title>
    <desc>Created with Sketch.</desc>
    <defs></defs>
    <g id="Roadmap-content" stroke="none" stroke-width="1" fill="none" fill-rule="evenodd" transform="translate(-345.000000, -3235.000000)">
        <g id="Bank-icon" transform="translate(346.000000, 3236.000000)">
            <path d="M54.4998662,0 L99.5330455,25.2555996 C100.496451,25.7958988 100.839447,27.0148925 100.299148,27.9782982 C99.9452681,28.6092997 99.2782068,29 98.5547473,29 L10.4449852,29 C9.34041567,29 8.44498517,28.1045695 8.44498517,27 C8.44498517,26.2765405 8.83568547,25.6094792 9.46668699,25.2555996 L54.4998662,0 Z" id="Triangle-2" stroke="#20C565"></path>
            <path d="M53.6393443,16.1547085 L53.6393443,12.3206278 C53.0601064,12.3206278 52.5874335,12.4971955 52.2213115,12.8503363 C51.8551894,13.2034771 51.6721311,13.6771271 51.6721311,14.2713004 C51.6721311,15.2914849 52.3278623,15.9192813 53.6393443,16.1547085 Z M54.3934426,17.8699552 L54.3934426,22.1412556 C55.0382546,22.1412556 55.5601073,21.9506746 55.9590164,21.5695067 C56.3579255,21.1883389 56.557377,20.672649 56.557377,20.0224215 C56.557377,19.5964104 56.4426241,19.2068403 56.2131148,18.8536996 C55.9836054,18.5005588 55.6721331,18.2623325 55.2786885,18.1390135 L54.3934426,17.8699552 Z M57.7377049,14.2713004 L56.3278689,14.2713004 C56.2622948,13.6659163 56.0765043,13.2174902 55.7704918,12.926009 C55.4644793,12.6345277 55.0054675,12.432736 54.3934426,12.3206278 L54.3934426,16.32287 C55.4535572,16.6479837 56.1639326,16.9002233 56.5245902,17.0795964 C57.5082016,17.5840832 58,18.4753299 58,19.7533632 C58,21.0313965 57.5683103,21.9955124 56.704918,22.6457399 C56.049177,23.1390159 55.278693,23.3856502 54.3934426,23.3856502 L54.3934426,25 L53.6393443,25 L53.6393443,23.3856502 C51.2131026,23.3856502 50,22.0740041 50,19.4506726 L51.442623,19.4506726 C51.442623,20.3251165 51.5983591,20.9585182 51.9098361,21.3508969 C52.221313,21.7432755 52.79781,22.0067258 53.6393443,22.1412556 L53.6393443,17.6681614 C52.5245846,17.3991018 51.7213139,17.0683876 51.2295082,16.676009 C50.5628382,16.1491005 50.2295082,15.381171 50.2295082,14.3721973 C50.2295082,13.4192777 50.5628382,12.6317296 51.2295082,12.0095291 C51.8961782,11.3873287 52.6994489,11.0762332 53.6393443,11.0762332 L53.6393443,10 L54.3934426,10 L54.3934426,11.0762332 C56.622962,11.2780279 57.7377049,12.3430397 57.7377049,14.2713004 Z" id="$" fill="#FFFFFF"></path>
            <g id="Group-5" transform="translate(21.000000, 36.000000)" stroke="#FFFFFF">
                <g id="Group-4">
                    <rect id="Rectangle-5" x="2.21590909" y="0.735849057" width="8.86363636" height="37.5283019"></rect>
                    <path d="M0,0.735849057 L13.2954545,0.735849057" id="Line-2" stroke-linecap="round"></path>
                    <path d="M0,38.2641509 L13.2954545,38.2641509" id="Line-2" stroke-linecap="round"></path>
                </g>
                <g id="Group-4" transform="translate(25.852273, 0.000000)">
                    <rect id="Rectangle-5" x="2.21590909" y="0.735849057" width="8.86363636" height="37.5283019"></rect>
                    <path d="M0,0.735849057 L13.2954545,0.735849057" id="Line-2" stroke-linecap="round"></path>
                    <path d="M0,38.2641509 L13.2954545,38.2641509" id="Line-2" stroke-linecap="round"></path>
                </g>
                <g id="Group-4" transform="translate(51.704545, 0.000000)">
                    <rect id="Rectangle-5" x="2.21590909" y="0.735849057" width="8.86363636" height="37.5283019"></rect>
                    <path d="M0,0.735849057 L13.2954545,0.735849057" id="Line-2" stroke-linecap="round"></path>
                    <path d="M0,38.2641509 L13.2954545,38.2641509" id="Line-2" stroke-linecap="round"></path>
                </g>
            </g>
            <path d="M15.3691589,82 L93.6308411,82" id="Line-3" stroke="#20C565" stroke-linecap="round"></path>
            <path d="M7,88.5 L100,88.5" id="Line-3" stroke="#20C565" stroke-linecap="round"></path>
            <path d="M0,94.5 L108,94.5" id="Line-3" stroke="#20C565" stroke-linecap="round"></path>
        </g>
    </g>
</svg>