<?xml version="1.0" encoding="UTF-8"?>
<svg width="64px" height="64px" viewBox="0 0 64 64" version="1.1" xmlns="http://www.w3.org/2000/svg" xmlns:xlink="http://www.w3.org/1999/xlink">
    <!-- Generator: Sketch 48.2 (47327) - http://www.bohemiancoding.com/sketch -->
    <title>rocket-ship</title>
    <desc>Created with Sketch.</desc>
    <defs></defs>
    <g id="Roadmap-content" stroke="none" stroke-width="1" fill="none" fill-rule="evenodd" transform="translate(-368.000000, -4338.000000)">
        <g id="rocket-ship" transform="translate(368.000000, 4338.000000)" fill="#20C565" fill-rule="nonzero">
            <path d="M63.6103577,1.29837783 C63.5423275,0.748171285 63.1089975,0.31484131 62.5589521,0.246811083 C57.6020957,-0.366267003 52.4870932,0.168141058 47.7652796,1.79167758 C43.0429824,3.41537531 38.6803426,6.13996977 35.1493804,9.67093199 L27.0916675,17.7286448 L15.4605945,19.2286952 C15.1954055,19.2628715 14.9492393,19.3839395 14.7601411,19.5728766 L3.54595466,30.787063 C3.22853401,31.1044836 3.11310831,31.5718287 3.24642821,32.0006448 C3.37942569,32.429461 3.73940554,32.7491385 4.18079597,32.8308715 L12.6599093,34.4013703 L14.326005,36.067466 L10.7789219,37.988272 C10.4432846,38.1699547 10.2130781,38.4996272 10.1581058,38.8773401 C10.1031335,39.2550529 10.2296826,39.6364736 10.4995466,39.9063375 L23.9505088,53.3572997 C24.1789421,53.585733 24.4871738,53.7114761 24.8055617,53.7114761 C24.8632746,53.7114761 24.9216322,53.7072846 24.9796675,53.6989018 C25.3573804,53.6439295 25.6870529,53.4137229 25.8687355,53.0780856 L27.7897028,49.5310025 L29.4557985,51.1970982 L31.0262972,59.6762116 C31.1081914,60.1177632 31.4277078,60.4775819 31.8565239,60.6107406 C31.9743678,60.647335 32.0951134,60.665068 32.2150529,60.665068 C32.5310227,60.665068 32.8398992,60.5410982 33.070267,60.3108917 L44.2844534,49.0967053 C44.4733904,48.9077683 44.5944584,48.6614408 44.6286348,48.3964131 L46.1288463,36.7651788 L54.1865592,28.7073048 C57.7175214,25.1763426 60.4421159,20.813864 62.0658136,16.0915668 C63.6891889,11.3697531 64.2232746,6.25410579 63.6103577,1.29837783 Z M12.8441713,31.9766247 L6.88120907,30.8721814 L16.1786196,21.5744484 L24.2925945,20.5280403 L12.8441713,31.9766247 Z M24.5142569,50.5016423 L13.3555264,39.343073 L16.1097834,37.8515668 L26.005602,47.7475466 L24.5142569,50.5016423 Z M42.2827204,47.6785491 L32.9851486,56.9761209 L31.8805441,51.0133199 L43.3291285,39.5647355 L42.2827204,47.6785491 Z M52.4762922,26.9978438 L30.5760403,48.8980957 L14.959073,33.2811285 L36.8593249,11.3807154 C40.0412695,8.19860957 43.9528463,5.7261461 48.1902267,4.20852393 C48.7375315,7.02839295 50.1163526,9.64433249 52.1646751,11.6924937 C54.2128363,13.7408161 56.8286146,15.1196373 59.6486448,15.6671033 C58.1308615,19.9041612 55.6582368,23.815738 52.4762922,26.9978438 Z M60.3765038,13.3439194 C57.9256423,12.9259043 55.6458237,11.7539144 53.8744584,9.98271033 C52.1030932,8.2115063 50.9312645,5.93152645 50.5132494,3.48066499 C54.0180957,2.53614106 57.6997884,2.21404534 61.3126448,2.54452393 C61.6432846,6.15738035 61.3210277,9.83907305 60.3765038,13.3439194 Z" id="Shape"></path>
            <path d="M35.679597,17.8044131 C32.8197481,20.6644232 32.8197481,25.3177229 35.679597,28.177733 C37.1096826,29.6078186 38.9877683,30.3226196 40.8663375,30.3226196 C42.744262,30.3226196 44.6231537,29.6074962 46.0529169,28.177733 L46.0530781,28.177733 C48.912927,25.3178841 48.912927,20.6644232 46.0529169,17.8044131 C43.1929068,14.9445642 38.5394458,14.9447254 35.679597,17.8044131 Z M44.3431335,26.4677884 C42.4257128,28.3850479 39.3063174,28.3847254 37.3895416,26.4677884 C35.4722821,24.5506902 35.4722821,21.4312947 37.3895416,19.5141965 C38.3479295,18.5556474 39.6071335,18.076534 40.8661763,18.076534 C42.1253804,18.076534 43.3844232,18.5558086 44.3428111,19.5141965 C46.2600705,21.4312947 46.2600705,24.5506902 44.3431335,26.4677884 Z" id="Shape"></path>
            <path d="M15.85733,48.2281108 C15.3849874,47.7559295 14.6195668,47.7559295 14.1473854,48.2281108 L3.77390428,58.6014307 C3.30172292,59.0736121 3.30172292,59.839194 3.77390428,60.3112141 C4.01007557,60.5472242 4.31959698,60.6653904 4.62895718,60.6653904 C4.93831738,60.6653904 5.24783879,60.5473854 5.48401008,60.3112141 L15.85733,49.9378942 C16.3293501,49.4658741 16.3293501,48.7002922 15.85733,48.2281108 Z" id="Shape"></path>
            <path d="M17.4529773,51.533864 L12.7793652,56.2074761 C12.3071839,56.6796574 12.3071839,57.4452393 12.7793652,57.9172594 C13.0155365,58.1532695 13.3250579,58.2714358 13.6344181,58.2714358 C13.9437783,58.2714358 14.2532997,58.1534307 14.489471,57.9172594 L19.1630831,53.2436474 C19.6352645,52.771466 19.6352645,52.0058841 19.1630831,51.533864 C18.6907406,51.0616826 17.9253199,51.0616826 17.4529773,51.533864 Z" id="Shape"></path>
            <path d="M11.1432544,58.3446247 C10.6373804,58.3446247 10.1756776,58.6709118 10.004796,59.1463174 C9.83101259,59.6296222 9.99270529,60.184665 10.3942771,60.5030529 C10.8048766,60.8286952 11.4044131,60.8464282 11.8335516,60.5457733 C12.2913854,60.2249673 12.4770982,59.6091486 12.2589824,59.0910227 C12.0795567,58.6436675 11.6230126,58.3446247 11.1432544,58.3446247 Z" id="Shape"></path>
            <path d="M7.72352645,61.2634761 L7.07997985,61.9070227 C6.60763728,62.379204 6.60763728,63.1447859 7.07981864,63.6169673 C7.31598992,63.8529773 7.62535013,63.9711436 7.93487154,63.9711436 C8.24423174,63.9711436 8.55375315,63.8531385 8.78976322,63.6171285 L9.43330982,62.9735819 C9.90565239,62.5014005 9.90565239,61.7358186 9.43347103,61.2637985 C8.96128967,60.7917783 8.1955466,60.7912947 7.72352645,61.2634761 Z" id="Shape"></path>
            <path d="M6.85170781,50.6219043 C6.37936524,50.1497229 5.61394458,50.1497229 5.14176322,50.6219043 L0.468151134,55.2955164 C-0.0040302267,55.7676977 -0.0040302267,56.5332796 0.468151134,57.0052997 C0.704322418,57.2413098 1.01384383,57.3594761 1.32320403,57.3594761 C1.63256423,57.3594761 1.94208564,57.241471 2.17825693,57.0052997 L6.85186902,52.3316877 C7.32388917,51.8596675 7.32388917,51.0940856 6.85170781,50.6219043 Z" id="Shape"></path>
            <path d="M8.78138035,50.1579446 C9.27193955,50.0346196 9.64014106,49.6070932 9.69124433,49.1041209 C9.74138035,48.6116272 9.47054912,48.1289673 9.03093199,47.9068212 C8.56423174,47.6708111 7.97936524,47.7693098 7.61728967,48.1476675 C7.22958186,48.5527859 7.17364232,49.183597 7.47993955,49.6525542 C7.470267,49.6380453 7.46285139,49.6274055 7.48235768,49.6572292 C7.50267003,49.6870529 7.49573804,49.6762519 7.48606549,49.6619043 C7.77092191,50.075728 8.29082116,50.2812695 8.78138035,50.1579446 Z" id="Shape"></path>
            <path d="M11.9080302,47.2756877 L12.5514156,46.6321411 C13.023597,46.1599597 13.023597,45.3943778 12.5512544,44.9223577 C12.0785894,44.4500151 11.3130076,44.4501763 10.841471,44.9225189 L10.1980856,45.5660655 C9.72590428,46.0382469 9.72590428,46.8038287 10.1982469,47.2758489 C10.4344181,47.5118589 10.7437783,47.629864 11.0531385,47.629864 C11.3624987,47.629864 11.6720202,47.5118589 11.9080302,47.2756877 Z" id="Shape"></path>
        </g>
    </g>
</svg>