<?xml version="1.0" encoding="UTF-8"?>
<svg width="132px" height="65px" viewBox="0 0 132 65" version="1.1" xmlns="http://www.w3.org/2000/svg" xmlns:xlink="http://www.w3.org/1999/xlink">
    <!-- Generator: Sketch 48.2 (47327) - http://www.bohemiancoding.com/sketch -->
    <title>icon</title>
    <desc>Created with Sketch.</desc>
    <defs></defs>
    <g id="Roadmap-content" stroke="none" stroke-width="1" fill="none" fill-rule="evenodd" transform="translate(-239.000000, -1994.000000)">
        <g id="icon" transform="translate(239.000000, 1995.000000)">
            <path d="M132,32 C132,23.1778909 124.822109,16 116,16 C107.177891,16 100,23.1778909 100,32 C100,36.6597818 102.003782,40.8599273 105.193309,43.7864727 L105.178182,43.7998545 L105.697164,44.2373818 C105.730909,44.2658909 105.767564,44.2891636 105.801309,44.3170909 C106.077091,44.5457455 106.362764,44.7627636 106.653673,44.9728 C106.747927,45.0408727 106.842182,45.1089455 106.938182,45.1752727 C107.248873,45.3893818 107.567709,45.5924364 107.893527,45.7850182 C107.964509,45.8269091 108.036073,45.8676364 108.107636,45.9083636 C108.464291,46.1114182 108.828509,46.3028364 109.201455,46.4785455 C109.2288,46.4913455 109.256727,46.5029818 109.284073,46.5157818 C110.499491,47.0807273 111.796945,47.4955636 113.153745,47.7405091 C113.189236,47.7469091 113.224727,47.7533091 113.2608,47.7597091 C113.682036,47.8324364 114.107927,47.8906182 114.539055,47.9296 C114.591418,47.9342545 114.643782,47.9371636 114.696727,47.9418182 C115.126109,47.9773091 115.560145,48 116,48 C116.435782,48 116.865745,47.9773091 117.2928,47.9429818 C117.346909,47.9383273 117.401018,47.9354182 117.455127,47.9307636 C117.882764,47.8917818 118.305164,47.8353455 118.722327,47.7637818 C118.7584,47.7573818 118.795055,47.7509818 118.831127,47.744 C120.167564,47.5042909 121.4464,47.0987636 122.646109,46.5483636 C122.690327,46.528 122.735127,46.5088 122.779345,46.4878545 C123.138327,46.3191273 123.489164,46.1370182 123.833018,45.9432727 C123.918545,45.8949818 124.003491,45.8461091 124.088436,45.7960727 C124.401455,45.6116364 124.709236,45.4190545 125.008291,45.2142545 C125.115927,45.1409455 125.221236,45.0635636 125.327709,44.9867636 C125.583127,44.8029091 125.833891,44.6132364 126.077673,44.4148364 C126.131782,44.3712 126.189964,44.3333818 126.242909,44.2885818 L126.775273,43.8440727 L126.759564,43.8306909 C129.977018,40.9029818 132,36.6836364 132,32 Z M101.163636,32 C101.163636,23.8190545 107.819055,17.1636364 116,17.1636364 C124.180945,17.1636364 130.836364,23.8190545 130.836364,32 C130.836364,36.4084364 128.901818,40.3717818 125.839127,43.0912 C125.668073,42.9730909 125.495855,42.8672 125.319564,42.7787636 L120.393309,40.3159273 C119.951127,40.0948364 119.676509,39.6503273 119.676509,39.1563636 L119.676509,37.4359273 C119.790545,37.2951273 119.910982,37.1357091 120.035491,36.9605818 C120.673164,36.0599273 121.184582,35.0580364 121.557527,33.9799273 C122.294691,33.6296727 122.770618,32.8954182 122.770618,32.0663273 L122.770618,30.0037818 C122.770618,29.4993455 122.5856,29.0100364 122.254545,28.6254545 L122.254545,25.9101091 C122.2848,25.6081455 122.391855,23.904 121.158982,22.4983273 C120.086691,21.2741818 118.351127,20.6545455 116,20.6545455 C113.648873,20.6545455 111.913309,21.2741818 110.841018,22.4977455 C109.608145,23.9034182 109.7152,25.6075636 109.745455,25.9095273 L109.745455,28.6248727 C109.414982,29.0094545 109.229382,29.4987636 109.229382,30.0032 L109.229382,32.0657455 C109.229382,32.7063273 109.5168,33.3038545 110.009018,33.7070545 C110.480291,35.5531636 111.450182,36.9506909 111.808582,37.4242909 L111.808582,39.1080727 C111.808582,39.5828364 111.549673,40.0192 111.132509,40.2472727 L106.532073,42.7566545 C106.385455,42.8363636 106.24,42.9294545 106.094545,43.0336 C103.069673,40.3153455 101.163636,36.3764364 101.163636,32 Z M124.703418,44.0040727 C124.499782,44.1518545 124.292655,44.2949818 124.082618,44.4317091 C123.986036,44.4945455 123.890036,44.5573818 123.791709,44.6184727 C123.517091,44.7883636 123.237818,44.9501091 122.952727,45.1013818 C122.889891,45.1345455 122.826473,45.1659636 122.763055,45.1985455 C122.107927,45.5342545 121.430109,45.8228364 120.733673,46.0573091 C120.709236,46.0654545 120.6848,46.0741818 120.659782,46.0823273 C120.294982,46.2033455 119.925527,46.3109818 119.552,46.4034909 C119.550836,46.4034909 119.549673,46.4040727 119.548509,46.4040727 C119.171491,46.4971636 118.789818,46.5745455 118.405818,46.6379636 C118.395345,46.6397091 118.384873,46.6420364 118.3744,46.6437818 C118.013091,46.7025455 117.648873,46.7450182 117.283491,46.7770182 C117.218909,46.7828364 117.154327,46.7869091 117.089164,46.7915636 C116.727855,46.8189091 116.3648,46.8363636 116,46.8363636 C115.631127,46.8363636 115.263418,46.8183273 114.897455,46.7909818 C114.834036,46.7863273 114.770618,46.7822545 114.707782,46.7764364 C114.338909,46.7438545 113.971782,46.7002182 113.608145,46.6408727 C113.591855,46.6379636 113.575564,46.6350545 113.559273,46.6321455 C112.790109,46.5035636 112.033164,46.3144727 111.296,46.0672 C111.273309,46.0596364 111.250036,46.0514909 111.227345,46.0439273 C110.861382,45.9194182 110.499491,45.7815273 110.144,45.6290909 C110.141673,45.6279273 110.138764,45.6267636 110.136436,45.6256 C109.800145,45.4807273 109.470255,45.3201455 109.144436,45.1508364 C109.101964,45.1287273 109.058909,45.1077818 109.017018,45.0850909 C108.719709,44.9262545 108.4288,44.7546182 108.141964,44.5754182 C108.057018,44.5218909 107.972655,44.4677818 107.888873,44.4130909 C107.624727,44.2402909 107.364073,44.0605091 107.1104,43.8702545 C107.084218,43.8504727 107.0592,43.8295273 107.033018,43.8097455 C107.051636,43.7992727 107.070255,43.7888 107.088873,43.7783273 L111.689309,41.2689455 C112.480582,40.8372364 112.972218,40.0093091 112.972218,39.1080727 L112.971636,37.0123636 L112.837818,36.8506182 C112.825018,36.8360727 111.567127,35.3058909 111.091782,33.2340364 L111.038836,33.0036364 L110.840436,32.8750545 C110.560582,32.6941091 110.393018,32.3915636 110.393018,32.0651636 L110.393018,30.0026182 C110.393018,29.7320727 110.507636,29.4801455 110.717091,29.2910545 L110.909091,29.1176727 L110.909091,25.8769455 L110.903855,25.8007273 C110.902109,25.7867636 110.730473,24.3874909 111.716073,23.264 C112.557382,22.3051636 113.999127,21.8181818 116,21.8181818 C117.993309,21.8181818 119.4304,22.3010909 120.274036,23.2529455 C121.258473,24.3648 121.097309,25.7902545 121.096145,25.8018909 L121.090909,29.1188364 L121.282909,29.2922182 C121.491782,29.4807273 121.606982,29.7332364 121.606982,30.0037818 L121.606982,32.0663273 C121.606982,32.4811636 121.3248,32.8576 120.919855,32.9826909 L120.630691,33.0717091 L120.5376,33.3597091 C120.194327,34.4261818 119.7056,35.4112 119.085382,36.2874182 C118.932945,36.5026909 118.784582,36.6935273 118.657164,36.8395636 L118.512873,37.0042182 L118.512873,39.1563636 C118.512873,40.0942545 119.034182,40.9378909 119.873164,41.3568 L124.799418,43.8196364 C124.830836,43.8353455 124.861673,43.8516364 124.892509,43.8679273 C124.830255,43.9150545 124.766255,43.9586909 124.703418,44.0040727 Z" id="Shape" fill="#20C565" fill-rule="nonzero"></path>
            <path d="M32,32 C32,23.1778909 24.8221091,16 16,16 C7.17789091,16 0,23.1778909 0,32 C0,36.6597818 2.00378182,40.8599273 5.19330909,43.7864727 L5.17818182,43.7998545 L5.69716364,44.2373818 C5.73090909,44.2658909 5.76756364,44.2891636 5.80130909,44.3170909 C6.07709091,44.5457455 6.36276364,44.7627636 6.65367273,44.9728 C6.74792727,45.0408727 6.84218182,45.1089455 6.93818182,45.1752727 C7.24887273,45.3893818 7.56770909,45.5924364 7.89352727,45.7850182 C7.96450909,45.8269091 8.03607273,45.8676364 8.10763636,45.9083636 C8.46429091,46.1114182 8.82850909,46.3028364 9.20145455,46.4785455 C9.2288,46.4913455 9.25672727,46.5029818 9.28407273,46.5157818 C10.4994909,47.0807273 11.7969455,47.4955636 13.1537455,47.7405091 C13.1892364,47.7469091 13.2247273,47.7533091 13.2608,47.7597091 C13.6820364,47.8324364 14.1079273,47.8906182 14.5390545,47.9296 C14.5914182,47.9342545 14.6437818,47.9371636 14.6967273,47.9418182 C15.1261091,47.9773091 15.5601455,48 16,48 C16.4357818,48 16.8657455,47.9773091 17.2928,47.9429818 C17.3469091,47.9383273 17.4010182,47.9354182 17.4551273,47.9307636 C17.8827636,47.8917818 18.3051636,47.8353455 18.7223273,47.7637818 C18.7584,47.7573818 18.7950545,47.7509818 18.8311273,47.744 C20.1675636,47.5042909 21.4464,47.0987636 22.6461091,46.5483636 C22.6903273,46.528 22.7351273,46.5088 22.7793455,46.4878545 C23.1383273,46.3191273 23.4891636,46.1370182 23.8330182,45.9432727 C23.9185455,45.8949818 24.0034909,45.8461091 24.0884364,45.7960727 C24.4014545,45.6116364 24.7092364,45.4190545 25.0082909,45.2142545 C25.1159273,45.1409455 25.2212364,45.0635636 25.3277091,44.9867636 C25.5831273,44.8029091 25.8338909,44.6132364 26.0776727,44.4148364 C26.1317818,44.3712 26.1899636,44.3333818 26.2429091,44.2885818 L26.7752727,43.8440727 L26.7595636,43.8306909 C29.9770182,40.9029818 32,36.6836364 32,32 Z M1.16363636,32 C1.16363636,23.8190545 7.81905455,17.1636364 16,17.1636364 C24.1809455,17.1636364 30.8363636,23.8190545 30.8363636,32 C30.8363636,36.4084364 28.9018182,40.3717818 25.8391273,43.0912 C25.6680727,42.9730909 25.4958545,42.8672 25.3195636,42.7787636 L20.3933091,40.3159273 C19.9511273,40.0948364 19.6765091,39.6503273 19.6765091,39.1563636 L19.6765091,37.4359273 C19.7905455,37.2951273 19.9109818,37.1357091 20.0354909,36.9605818 C20.6731636,36.0599273 21.1845818,35.0580364 21.5575273,33.9799273 C22.2946909,33.6296727 22.7706182,32.8954182 22.7706182,32.0663273 L22.7706182,30.0037818 C22.7706182,29.4993455 22.5856,29.0100364 22.2545455,28.6254545 L22.2545455,25.9101091 C22.2848,25.6081455 22.3918545,23.904 21.1589818,22.4983273 C20.0866909,21.2741818 18.3511273,20.6545455 16,20.6545455 C13.6488727,20.6545455 11.9133091,21.2741818 10.8410182,22.4977455 C9.60814545,23.9034182 9.7152,25.6075636 9.74545455,25.9095273 L9.74545455,28.6248727 C9.41498182,29.0094545 9.22938182,29.4987636 9.22938182,30.0032 L9.22938182,32.0657455 C9.22938182,32.7063273 9.5168,33.3038545 10.0090182,33.7070545 C10.4802909,35.5531636 11.4501818,36.9506909 11.8085818,37.4242909 L11.8085818,39.1080727 C11.8085818,39.5828364 11.5496727,40.0192 11.1325091,40.2472727 L6.53207273,42.7566545 C6.38545455,42.8363636 6.24,42.9294545 6.09454545,43.0336 C3.06967273,40.3153455 1.16363636,36.3764364 1.16363636,32 Z M24.7034182,44.0040727 C24.4997818,44.1518545 24.2926545,44.2949818 24.0826182,44.4317091 C23.9860364,44.4945455 23.8900364,44.5573818 23.7917091,44.6184727 C23.5170909,44.7883636 23.2378182,44.9501091 22.9527273,45.1013818 C22.8898909,45.1345455 22.8264727,45.1659636 22.7630545,45.1985455 C22.1079273,45.5342545 21.4301091,45.8228364 20.7336727,46.0573091 C20.7092364,46.0654545 20.6848,46.0741818 20.6597818,46.0823273 C20.2949818,46.2033455 19.9255273,46.3109818 19.552,46.4034909 C19.5508364,46.4034909 19.5496727,46.4040727 19.5485091,46.4040727 C19.1714909,46.4971636 18.7898182,46.5745455 18.4058182,46.6379636 C18.3953455,46.6397091 18.3848727,46.6420364 18.3744,46.6437818 C18.0130909,46.7025455 17.6488727,46.7450182 17.2834909,46.7770182 C17.2189091,46.7828364 17.1543273,46.7869091 17.0891636,46.7915636 C16.7278545,46.8189091 16.3648,46.8363636 16,46.8363636 C15.6311273,46.8363636 15.2634182,46.8183273 14.8974545,46.7909818 C14.8340364,46.7863273 14.7706182,46.7822545 14.7077818,46.7764364 C14.3389091,46.7438545 13.9717818,46.7002182 13.6081455,46.6408727 C13.5918545,46.6379636 13.5755636,46.6350545 13.5592727,46.6321455 C12.7901091,46.5035636 12.0331636,46.3144727 11.296,46.0672 C11.2733091,46.0596364 11.2500364,46.0514909 11.2273455,46.0439273 C10.8613818,45.9194182 10.4994909,45.7815273 10.144,45.6290909 C10.1416727,45.6279273 10.1387636,45.6267636 10.1364364,45.6256 C9.80014545,45.4807273 9.47025455,45.3201455 9.14443636,45.1508364 C9.10196364,45.1287273 9.05890909,45.1077818 9.01701818,45.0850909 C8.71970909,44.9262545 8.4288,44.7546182 8.14196364,44.5754182 C8.05701818,44.5218909 7.97265455,44.4677818 7.88887273,44.4130909 C7.62472727,44.2402909 7.36407273,44.0605091 7.1104,43.8702545 C7.08421818,43.8504727 7.0592,43.8295273 7.03301818,43.8097455 C7.05163636,43.7992727 7.07025455,43.7888 7.08887273,43.7783273 L11.6893091,41.2689455 C12.4805818,40.8372364 12.9722182,40.0093091 12.9722182,39.1080727 L12.9716364,37.0123636 L12.8378182,36.8506182 C12.8250182,36.8360727 11.5671273,35.3058909 11.0917818,33.2340364 L11.0388364,33.0036364 L10.8404364,32.8750545 C10.5605818,32.6941091 10.3930182,32.3915636 10.3930182,32.0651636 L10.3930182,30.0026182 C10.3930182,29.7320727 10.5076364,29.4801455 10.7170909,29.2910545 L10.9090909,29.1176727 L10.9090909,25.8769455 L10.9038545,25.8007273 C10.9021091,25.7867636 10.7304727,24.3874909 11.7160727,23.264 C12.5573818,22.3051636 13.9991273,21.8181818 16,21.8181818 C17.9933091,21.8181818 19.4304,22.3010909 20.2740364,23.2529455 C21.2584727,24.3648 21.0973091,25.7902545 21.0961455,25.8018909 L21.0909091,29.1188364 L21.2829091,29.2922182 C21.4917818,29.4807273 21.6069818,29.7332364 21.6069818,30.0037818 L21.6069818,32.0663273 C21.6069818,32.4811636 21.3248,32.8576 20.9198545,32.9826909 L20.6306909,33.0717091 L20.5376,33.3597091 C20.1943273,34.4261818 19.7056,35.4112 19.0853818,36.2874182 C18.9329455,36.5026909 18.7845818,36.6935273 18.6571636,36.8395636 L18.5128727,37.0042182 L18.5128727,39.1563636 C18.5128727,40.0942545 19.0341818,40.9378909 19.8731636,41.3568 L24.7994182,43.8196364 C24.8308364,43.8353455 24.8616727,43.8516364 24.8925091,43.8679273 C24.8302545,43.9150545 24.7662545,43.9586909 24.7034182,44.0040727 Z" id="Shape" fill="#20C565" fill-rule="nonzero"></path>
            <g id="Group-15" transform="translate(32.000000, 0.000000)" stroke="#20C565">
                <g id="Group-14">
                    <polyline id="Path-10" points="67.3030661 6.67714896 68.090971 11.4976642 63.6276541 12.404512"></polyline>
                    <path d="M0.88671875,11.421875 C22.6315104,-3.39453125 45.0598958,-3.39453125 68.171875,11.421875" id="Path-9"></path>
                </g>
                <g id="Group-14" transform="translate(34.500000, 56.500000) scale(-1, -1) translate(-34.500000, -56.500000) translate(0.000000, 50.000000)">
                    <polyline id="Path-10" points="67.3030661 6.67714896 68.090971 11.4976642 63.6276541 12.404512"></polyline>
                    <path d="M0.88671875,11.421875 C22.6315104,-3.39453125 45.0598958,-3.39453125 68.171875,11.421875" id="Path-9"></path>
                </g>
            </g>
            <path d="M31.5,32.5 L49.5,32.5" id="Line-4" stroke="#20C565" stroke-linecap="square"></path>
            <path d="M82.5,32.5 L100.5,32.5" id="Line-4" stroke="#20C565" stroke-linecap="square"></path>
            <path d="M59.5350467,32.0420398 C59.5350467,28.6033797 62.1855286,25.7786134 65.5806805,25.5272464 L65.5806805,26.4547516 C64.3232168,26.5749651 63.0419871,27.1717574 62.1373678,28.0763767 L63.9051102,29.8538016 C64.3532702,29.4056415 64.9519487,29.094545 65.5806805,28.9874091 L65.5806805,35.0967963 C64.9519487,34.9896604 64.3629527,34.6785639 63.9147926,34.2304038 L62.1275595,36.0079545 C63.0321789,36.9125738 64.3232168,37.5093661 65.5806805,37.6295796 L65.5806805,38.5568333 C62.1855286,38.3054663 59.5350467,35.4807 59.5350467,32.0420398 M69.1799187,32.0421656 C69.1799187,33.4892548 68.2213542,34.7072341 66.8381441,35.0449888 L66.8381441,29.0393424 C68.2213542,29.3769714 69.1799187,30.5950764 69.1799187,32.0421656 M72.5,38.4524638 L70.6985576,36.6608296 C69.6859221,37.6733393 68.3471005,38.3543817 66.8381441,38.5303008 L66.8381441,37.6011609 C69.6045642,37.2313409 71.694846,34.8801353 71.694846,32.0421656 C71.694846,29.2040701 69.6045642,26.8529903 66.8381441,26.4831703 L66.8381441,25.5536531 C68.3471005,25.7295723 69.6956046,26.4106146 70.70824,27.4232501 L72.4901918,25.6314901 C71.0179533,24.1592517 69.1015787,23.1918849 66.8381441,23.0067862 L66.8381441,21 L65.5806805,21 L65.5806805,22.9855351 C60.8023186,23.2406745 57,27.2049544 57,32.0420398 C57,36.8791253 60.8023186,40.8432795 65.5806805,41.0984188 L65.5806805,42.7541212 L66.8381441,42.7541212 L66.8381441,41.0771677 C69.1015787,40.8920691 71.0276358,39.924828 72.5,38.4524638" id="Fill-1" fill="#20C565"></path>
        </g>
    </g>
</svg>