<?xml version="1.0" encoding="UTF-8"?>
<svg width="64px" height="60px" viewBox="0 0 64 60" version="1.1" xmlns="http://www.w3.org/2000/svg" xmlns:xlink="http://www.w3.org/1999/xlink">
    <!-- Generator: Sketch 48.2 (47327) - http://www.bohemiancoding.com/sketch -->
    <title>shopping-cart</title>
    <desc>Created with Sketch.</desc>
    <defs></defs>
    <g id="Roadmap-content" stroke="none" stroke-width="1" fill="none" fill-rule="evenodd" transform="translate(-358.000000, -3582.000000)">
        <g id="shopping-cart" transform="translate(358.000000, 3582.000000)" fill="#20C565" fill-rule="nonzero">
            <path d="M26.835625,47.9785 C23.732,47.9785 21.207,50.5035 21.207,53.607125 C21.207,56.71075 23.732,59.23575 26.835625,59.23575 C29.93925,59.23575 32.46425,56.71075 32.46425,53.607125 C32.464125,50.5035 29.939125,47.9785 26.835625,47.9785 Z M26.835625,56.09275 C25.464875,56.09275 24.34975,54.9775 24.34975,53.606875 C24.34975,52.236125 25.465,51.121 26.835625,51.121 C28.20625,51.121 29.3215,52.23625 29.3215,53.606875 C29.3215,54.97775 28.20625,56.09275 26.835625,56.09275 Z" id="Shape"></path>
            <path d="M46.57875,47.9785 C43.475125,47.9785 40.950125,50.5035 40.950125,53.607125 C40.950125,56.71075 43.475125,59.23575 46.57875,59.23575 C49.682375,59.23575 52.207375,56.71075 52.207375,53.607125 C52.20725,50.5035 49.68225,47.9785 46.57875,47.9785 Z M46.57875,56.09275 C45.208,56.09275 44.092875,54.9775 44.092875,53.606875 C44.092875,52.236125 45.208125,51.121 46.57875,51.121 C47.9495,51.121 49.064625,52.23625 49.064625,53.606875 C49.064625,54.97775 47.949375,56.09275 46.57875,56.09275 Z" id="Shape"></path>
            <path d="M47.9645,18.344375 L25.445875,18.344375 C24.578,18.344375 23.8745,19.047875 23.8745,19.91575 C23.8745,20.783625 24.578125,21.487125 25.445875,21.487125 L47.9645,21.487125 C48.832375,21.487125 49.535875,20.783625 49.535875,19.91575 C49.535875,19.04775 48.832375,18.344375 47.9645,18.344375 Z" id="Shape"></path>
            <path d="M46.738875,26.504375 L26.671625,26.504375 C25.80375,26.504375 25.10025,27.207875 25.10025,28.07575 C25.10025,28.943625 25.80375,29.647125 26.671625,29.647125 L46.73875,29.647125 C47.606625,29.647125 48.310125,28.943625 48.310125,28.07575 C48.310125,27.208 47.606625,26.504375 46.738875,26.504375 Z" id="Shape"></path>
            <path d="M63.292625,11.343 C62.693375,10.6075 61.805375,10.18575 60.8565,10.18575 L11.90975,10.18575 L10.92125,5.387125 C10.714875,4.386125 10.032125,3.545625 9.0945,3.1385 L2.197375,0.14475 C1.401125,-0.201125 0.47575,0.16425 0.130375,0.96025 C-0.215375,1.7565 0.15,2.682 0.945875,3.027375 L7.843125,6.02125 L15.446375,42.928875 C15.745875,44.382375 17.040375,45.437375 18.5245,45.437375 L56.17025,45.437375 C57.038125,45.437375 57.741625,44.733875 57.741625,43.866 C57.741625,42.998125 57.038125,42.294625 56.17025,42.294625 L18.524625,42.294625 L17.59975,37.805125 L56.46125,37.805125 C57.94525,37.805125 59.239875,36.750125 59.53925,35.296625 L63.934625,13.96225 C64.126,13.03325 63.892,12.078375 63.292625,11.343 Z M56.46125,34.662625 L16.952375,34.662625 L12.55725,13.328375 L60.856375,13.328375 L56.46125,34.662625 Z" id="Shape"></path>
        </g>
    </g>
</svg>