<?xml version="1.0" encoding="UTF-8"?>
<svg width="100px" height="98px" viewBox="0 0 100 98" version="1.1" xmlns="http://www.w3.org/2000/svg" xmlns:xlink="http://www.w3.org/1999/xlink">
    <!-- Generator: Sketch 48.2 (47327) - http://www.bohemiancoding.com/sketch -->
    <title>Group 2</title>
    <desc>Created with Sketch.</desc>
    <defs>
        <path d="M48.4774093,65 C48.8823508,63.1898347 48.8595507,61.7242681 48.2918193,60.4782705 C48.1493068,60.1654987 47.981746,59.8839316 47.7931959,59.6327204 C48.5756039,54.4307887 47.6915056,50.782822 45.383852,48.6282747 C44.7891248,48.0730059 44.1424858,47.6629886 43.4771631,47.3804994 C42.9829386,46.780548 42.3814131,46.1949684 41.6634424,45.6530251 C41.2453766,45.337458 40.7966368,45.0440196 40.3167861,44.7765075 C38.1974808,43.5378256 35.6655595,42.9364402 32.8170352,43.1766957 C31.7663582,43.2343697 30.7366103,43.4390271 29.7495302,43.7731004 C28.6389192,44.1384257 27.5509904,44.6969547 26.5308398,45.3966784 C25.3953917,46.1109387 24.3344338,46.9773567 23.4170493,47.9484071 C21.6633898,49.7179638 20.412723,51.7952121 19.8447121,54.2066753 C19.3936649,55.9132034 19.3851875,57.6426621 19.7159462,59.6521651 C19.5281896,59.9009229 19.360667,60.1800041 19.2171623,60.4905629 C18.6428215,61.7334946 18.6158674,63.1911647 19.0178826,65 L0,65 L0,0 L65,0 L65,65 L48.4774093,65 Z" id="path-1"></path>
    </defs>
    <g id="Roadmap-content" stroke="none" stroke-width="1" fill="none" fill-rule="evenodd" transform="translate(-351.000000, -123.000000)">
        <g id="Group-2" transform="translate(352.000000, 122.000000)">
            <g id="group" transform="translate(0.000000, 47.000000)" fill-rule="nonzero" stroke="#20C565">
                <path d="M98,52 C97.9798768,44.1868871 98.301848,40.0198935 93.2106776,38.1768002 C88.5823409,36.4138414 85.825462,34.630849 85.825462,34.630849 L82.263655,45.8496778 L81.7806982,47.3722331 L80.1909651,42.864668 C83.8533881,37.7761278 79.9092402,37.5357243 79.2250513,37.5357243 C78.4603696,37.5357243 74.5162218,37.7761278 78.1786448,42.864668 L76.5889117,47.3722331 L76.1059548,45.8496778 L72.5441478,34.630849 C72.5441478,34.630849 70.9946612,35.6325301 68.2579055,36.8946484 C67.5737166,36.3737742 66.7486653,35.9330345 65.7425051,35.5523956 C60.2488706,33.4688989 56.9486653,31.3253012 56.9486653,31.3253012 L52.7026694,44.667694 L52.1190965,46.4707201 L50.2275154,41.1217428 C54.5942505,35.0715887 49.9055441,34.7710843 49.0804928,34.7710843 C48.1950719,34.7710843 43.4862423,35.0715887 47.8529774,41.1217428 L45.9613963,46.4707201 L45.3778234,44.667694 L41.1318275,31.3253012 C41.1318275,31.3253012 37.8316222,33.4688989 32.3379877,35.5523956 C31.3318275,35.9130008 30.5067762,36.3537405 29.8225873,36.8946484 C27.0858316,35.6525637 25.536345,34.630849 25.536345,34.630849 L21.974538,45.8496778 L21.4915811,47.3722331 L19.901848,42.864668 C23.564271,37.7761278 19.6201232,37.5357243 18.9359343,37.5357243 C18.1712526,37.5357243 14.2271047,37.7761278 17.8895277,42.864668 L16.2997947,47.3722331 L15.8168378,45.8496778 L12.2550308,34.630849 C12.2550308,34.630849 9.47802875,36.433875 4.8698152,38.1768002 C-0.221355236,40.0198935 0.100616016,44.1868871 0,52" id="Shape" stroke-linecap="round" stroke-linejoin="round"></path>
                <path d="M76.7581914,8.52083197 C75.9898037,8.78100249 75.2820782,9.16125171 74.6350149,9.60154028 C73.8464064,10.1018682 73.1184602,10.7022617 72.4511761,11.3827077 C71.419919,12.4233897 70.4897654,13.7842817 70.1055716,15.4653835 C69.7618192,16.7262099 69.8427021,18.0470756 70.1257923,19.4479937 C70.2066752,19.8682692 70.3077789,20.2685315 70.4695447,20.688807 C69.6809363,20.6087545 68.7710035,21.0690562 69.6404948,24.0910368 C70.2673374,26.3124928 70.8537386,26.9328994 71.2985946,26.9529125 C71.7030092,29.5946439 73.7655235,32.9368344 77.1221645,34.0975952 C78.4971741,34.57791 80.0137287,34.57791 81.408959,34.0975952 C84.7251586,32.9168213 86.8483351,29.5746308 87.2527497,26.9529125 C87.6976057,26.9128863 88.2840068,26.2924797 88.9108494,24.0910368 C89.7803408,21.0690562 88.8501873,20.6087545 88.0817996,20.688807 C88.2233447,20.2685315 88.344669,19.8482561 88.425552,19.4479937 C89.7398993,11.602852 85.8372987,11.3426814 85.8372987,11.3426814 C85.8372987,11.3426814 85.1902353,10.1218813 83.4916941,9.18126482 C82.3593333,8.52083197 80.7618957,8.00049093 78.6589399,8.18060899 C78.0118766,8.18060899 77.3648133,8.30068769 76.7581914,8.52083197 Z" id="Shape"></path>
                <path d="M10.7476097,26.9529125 C11.1520966,29.5946439 13.2149801,32.9368344 16.5722217,34.0975952 C17.9474773,34.57791 19.4643033,34.57791 20.8597833,34.0975952 C24.1765762,32.9168213 26.3001327,29.5746308 26.7046196,26.9529125 C27.1495552,26.9128863 27.7360613,26.2924797 28.3630161,24.0910368 C29.232663,21.0690562 28.302343,20.6087545 27.5338178,20.688807 C27.6753883,20.2685315 27.7967343,19.8482561 27.8776317,19.4479937 C29.1922143,11.602852 25.2889153,11.3426814 25.2889153,11.3426814 C25.2889153,11.3426814 24.6417362,10.1218813 22.942891,9.18126482 C21.8103276,8.52083197 20.2126042,8.00049093 18.1092721,8.18060899 C17.4216443,8.22063522 16.7946895,8.34071392 16.1879591,8.54084509 C15.4194339,8.80101561 14.7115817,9.18126482 14.084627,9.62155339 C13.2958774,10.1218813 12.5678009,10.7222748 11.9003975,11.4027208 C10.8689558,12.4434029 9.93863582,13.8042948 9.55437322,15.4853966 C9.21055932,16.746223 9.29145671,18.0670887 9.57459757,19.4680069 C9.65549496,19.8882823 9.75661669,20.2885446 9.91841147,20.7088201 C9.14988628,20.6287676 8.21956631,21.0890693 9.08921324,24.1110499 C9.716168,26.2924797 10.3026741,26.9128863 10.7476097,26.9529125 Z" id="Shape"></path>
                <path d="M37.8678916,18.9853967 C38.6140184,21.622698 39.319814,22.341962 39.8441194,22.4019006 C40.3280935,25.5386908 42.7681298,29.5146223 46.7609165,30.8932116 C48.3943293,31.4726187 50.2092323,31.4726187 51.8426451,30.873232 C55.774935,29.4746632 58.2956337,25.4987317 58.7796079,22.3819211 C59.3039132,22.341962 60.0097088,21.6027184 60.7558356,18.9654171 C61.7842807,15.3690972 60.6953389,14.8296492 59.7677217,14.929547 C59.9492121,14.4300581 60.0702056,13.9305692 60.1710335,13.4510599 C61.7439495,4.14058717 57.1058639,3.82091429 57.1058639,3.82091429 C57.1058639,3.82091429 56.3395715,2.36240676 54.3230126,1.24355167 C52.9719181,0.444369463 51.0763527,-0.174996748 48.5959852,0.0447783588 C47.7893616,0.0847374692 47.0230692,0.244573911 46.3172736,0.484328573 C45.4098221,0.784021901 44.5628673,1.24355167 43.8167405,1.76302011 C42.8891234,2.34242721 42.0018374,3.06169119 41.235545,3.88085296 C40.0054441,5.11958538 38.9165022,6.71794979 38.4526937,8.73588487 C38.0493819,10.2343515 38.1502099,11.7927568 38.4728593,13.4710394 C38.5535216,13.9705283 38.6946808,14.4500377 38.8761711,14.9495265 C37.9283884,14.8696083 36.8394465,15.3890767 37.8678916,18.9853967 Z" id="Shape"></path>
            </g>
            <g id="coin" transform="translate(16.000000, 0.000000)">
                <mask id="mask-2" fill="white">
                    <use xlink:href="#path-1"></use>
                </mask>
                <g id="Mask"></g>
                <g mask="url(#mask-2)">
                    <g transform="translate(3.125000, 1.875000)">
                        <g>
                            <ellipse id="Oval" stroke="#20C565" cx="29.7902098" cy="30" rx="29.7902098" ry="30"></ellipse>
                            <ellipse id="Oval" stroke="#20C565" cx="29.7902098" cy="30" rx="27.6923077" ry="27.8873239"></ellipse>
                            <path d="M29.7979041,0.211267606 L29.7979041,1.90140845 M33.4328564,0.436944838 L33.2268801,2.11448763 M37.0127325,1.11055708 L36.6038504,2.75049352 M40.4832905,2.22189779 L39.8775981,3.7997802 M43.791945,3.75412796 L42.9984719,5.24643375 M46.8885638,5.6840313 L45.9191388,7.06851363 M49.7262274,7.98236599 L48.5953024,9.23838542 M52.26194,10.6143078 L50.9863746,11.7231399 M54.4572811,13.5399776 L53.0560908,14.4850923 M56.2855681,16.7282452 L54.7664796,17.4691542 M57.7043795,20.105307 L56.10632,20.655563 M58.700358,23.6322931 L57.0471507,23.9836932 M59.2584124,27.2557631 L57.574703,27.4030685 M59.3700871,30.9208143 L57.6809758,30.8618292 M59.0336898,34.5719143 L57.3643574,34.3075181 M58.2543176,38.1537421 L56.62965,37.6878761 M57.0437793,41.6120259 L55.4879964,40.9516352 M55.4204168,44.8943662 L53.9567119,44.0492958 M53.408827,47.9510293 L52.0590205,46.9338771 M51.0394892,50.7357009 L49.8237036,49.5616304 M48.3483035,53.2061879 L47.2846634,51.8927017 M45.3760462,55.3250577 L44.480408,53.891737 M42.1677527,57.0602056 L41.4534683,55.5284178 M38.7720347,58.3853409 L38.2497524,56.7779214 M35.2403436,59.2803852 L34.9178495,57.621297 M31.6261912,59.7317772 L31.5082929,58.0457535 M27.969617,59.7317772 L28.0875153,58.0457535 M24.3554646,59.2803852 L24.6779587,57.621297 M20.8237735,58.3853409 L21.3460558,56.7779214 M17.4280555,57.0602056 L18.1423399,55.5284178 M14.219762,55.3250577 L15.1154002,53.891737 M11.2475047,53.2061879 L12.3111448,51.8927017 M8.55631898,50.7357009 L9.77210456,49.5616304 M6.18698125,47.9510293 L7.53678774,46.9338771 M4.17539144,44.8943662 L5.63909635,44.0492958 M2.55202891,41.6120259 L4.10781176,40.9516352 M1.3414906,38.1537421 L2.96615826,37.6878761 M0.562118388,34.5719143 L2.23145079,34.3075181 M0.225721146,30.9208143 L1.9148324,30.8618292 M0.33739583,27.2557631 L2.02110518,27.4030685 M0.895450245,23.6322931 L2.54865746,23.9836932 M1.89142869,20.105307 L3.48948825,20.655563 M3.31024007,16.7282452 L4.8293286,17.4691542 M5.13852713,13.5399776 L6.53971739,14.4850923 M7.33386816,10.6143078 L8.60943365,11.7231399 M9.86958081,7.98236599 L11.0005058,9.23838542 M12.7072444,5.6840313 L13.6766694,7.06851363 M15.8038632,3.75412796 L16.5973363,5.24643375 M19.1125178,2.22189779 L19.7182101,3.7997802 M22.5830757,1.11055708 L22.9919578,2.75049352 M26.1629518,0.436944838 L26.3689281,2.11448763" id="Line" stroke="#20C565" stroke-linecap="round"></path>
                            <ellipse id="Oval" stroke="#20C565" cx="30.2097902" cy="30" rx="20.979021" ry="21.1267606"></ellipse>
                            <path d="M30,2.53521127 L30,8.49656076 M43.6467856,6.21479525 L40.6661108,11.3774753 M53.636926,16.2676056 L48.4742459,19.2482804 M57.2935712,30 L51.3322217,30 M53.636926,43.7323944 L48.4742459,40.7517196 M43.6467856,53.7852048 L40.6661108,48.6225247 M30,57.4647887 L30,51.5034392 M16.3532144,53.7852048 L19.3338892,48.6225247 M6.36307402,43.7323944 L11.5257541,40.7517196 M2.70642885,30 L8.66777834,30 M6.36307402,16.2676056 L11.5257541,19.2482804 M16.3532144,6.21479525 L19.3338892,11.3774753" id="Line-2" stroke="#20C565" stroke-linecap="square"></path>
                            <ellipse id="Oval" stroke="#20C565" cx="30.2097902" cy="30" rx="19.7202797" ry="19.8591549"></ellipse>
                            <path d="M21.5907838,29.7825482 C21.5907838,25.5079964 24.8625215,21.9965676 29.0534751,21.6840967 L29.0534751,22.8370659 C27.5012701,22.9865017 25.9197284,23.728366 24.8030721,24.8528861 L26.9851619,27.0623789 C27.5383678,26.5052772 28.2773726,26.1185574 29.0534751,25.9853782 L29.0534751,33.5798746 C28.2773726,33.4466954 27.5503197,33.0599756 26.9971139,32.5028739 L24.7909649,34.712523 C25.9076212,35.8370431 27.5012701,36.5789074 29.0534751,36.7283432 L29.0534751,37.8809998 C24.8625215,37.5685289 21.5907838,34.0571001 21.5907838,29.7825482 M33.4963515,29.7827046 C33.4963515,31.5815615 32.3131056,33.0956151 30.6056801,33.5154734 L30.6056801,26.0499357 C32.3131056,26.4696377 33.4963515,27.9838476 33.4963515,29.7827046 M37.5946384,37.7512595 L35.3709495,35.5241032 C34.1209588,36.7827404 32.4683261,37.6293349 30.6056801,37.8480176 L30.6056801,36.6930164 C34.0205311,36.2332981 36.6007616,33.3105463 36.6007616,29.7827046 C36.6007616,26.2547065 34.0205311,23.332111 30.6056801,22.8723927 L30.6056801,21.7169226 C32.4683261,21.9356053 34.1329108,22.7821998 35.3829015,24.0409932 L37.5825312,21.8136807 C35.7652096,19.983561 33.3996491,18.7810405 30.6056801,18.5509468 L30.6056801,16.056338 L29.0534751,16.056338 L29.0534751,18.5245298 C23.155096,18.8416901 18.4615385,23.7696328 18.4615385,29.7825482 C18.4615385,35.7954636 23.155096,40.72325 29.0534751,41.0404103 L29.0534751,43.0985915 L30.6056801,43.0985915 L30.6056801,41.0139933 C33.3996491,40.7838997 35.7771616,39.5815355 37.5946384,37.7512595" id="Fill-1" fill="#20C565"></path>
                        </g>
                    </g>
                </g>
            </g>
        </g>
    </g>
</svg>