<?xml version="1.0" encoding="UTF-8"?>
<svg width="17px" height="3px" viewBox="0 0 17 3" version="1.1" xmlns="http://www.w3.org/2000/svg" xmlns:xlink="http://www.w3.org/1999/xlink">
    <!-- Generator: Sketch 48.2 (47327) - http://www.bohemiancoding.com/sketch -->
    <title>Combined Shape</title>
    <desc>Created with Sketch.</desc>
    <defs></defs>
    <g id="Page-1" stroke="none" stroke-width="1" fill="none" fill-rule="evenodd">
        <path d="M1.5,0 C2.32842712,-1.52179594e-16 3,0.671572875 3,1.5 C3,2.32842712 2.32842712,3 1.5,3 C0.671572875,3 3.23497668e-16,2.32842712 2.22044605e-16,1.5 C-1.01453063e-16,0.671572875 0.671572875,1.52179594e-16 1.5,0 Z M8.5,0 C9.32842712,-1.52179594e-16 10,0.671572875 10,1.5 C10,2.32842712 9.32842712,3 8.5,3 C7.67157288,3 7,2.32842712 7,1.5 C7,0.671572875 7.67157288,1.52179594e-16 8.5,0 Z M15.5,0 C16.3284271,-1.52179594e-16 17,0.671572875 17,1.5 C17,2.32842712 16.3284271,3 15.5,3 C14.6715729,3 14,2.32842712 14,1.5 C14,0.671572875 14.6715729,1.52179594e-16 15.5,0 Z" id="Combined-Shape" fill="#1F264E"></path>
    </g>
</svg>