<?xml version="1.0" encoding="UTF-8"?>
<svg width="62px" height="50px" viewBox="0 0 62 50" version="1.1" xmlns="http://www.w3.org/2000/svg" xmlns:xlink="http://www.w3.org/1999/xlink">
    <!-- Generator: Sketch 48.2 (47327) - http://www.bohemiancoding.com/sketch -->
    <title>coin</title>
    <desc>Created with Sketch.</desc>
    <defs></defs>
    <g id="Roadmap-content" stroke="none" stroke-width="1" fill="none" fill-rule="evenodd" transform="translate(-266.000000, -997.000000)">
        <g id="coin" transform="translate(266.000000, 997.000000)" fill="#20C565" fill-rule="nonzero">
            <path d="M13.5714286,41.4285714 C12.3898432,41.4285714 11.4285714,42.7102384 11.4285714,44.2857785 C11.4285714,45.8611902 12.3898432,47.1428571 13.5714286,47.1428571 C14.7530139,47.1428571 15.7142857,45.8611902 15.7142857,44.2857785 C15.7142857,42.7103668 14.7530139,41.4285714 13.5714286,41.4285714 Z M13.5714286,45.2170829 C13.1862651,45.2170829 12.8729346,44.7993183 12.8729346,44.2857785 C12.8729346,43.7722387 13.1862651,43.3543457 13.5714286,43.3543457 C13.9565921,43.3543457 14.2699226,43.7721103 14.2699226,44.2857785 C14.2699226,44.7993183 13.9565921,45.2170829 13.5714286,45.2170829 Z" id="Shape"></path>
            <path d="M57.2526222,4.16122214 C54.7429255,1.66042737 51.4100607,0.188548781 47.8678345,0.0168634873 C44.4759406,-0.147050536 41.1605925,0.888202221 38.4877259,2.93790464 L37.8138103,2.86090929 C35.7860646,2.62908632 31.5666834,2.14690889 30.5741066,2.02854646 C29.1314929,1.85638294 27.6616442,2.28703087 26.5417709,3.21013822 L17.9417583,10.2999279 C16.5569739,11.4415872 15.5719557,12.9584196 15.0931241,14.6867501 C14.1438593,18.1132825 12.3823444,24.16495 11.1452528,26.6007052 L7.37086947,30.3618805 L7.1220354,30.1139172 C6.72598851,29.7192562 6.19928573,29.5017802 5.63910913,29.5017802 C5.07893252,29.5017802 4.55222974,29.7191367 4.15618285,30.1139172 L0.613236808,33.644465 C-0.204412269,34.4592528 -0.204412269,35.7850316 0.613236808,36.5998194 L1.55302334,37.5363172 C1.89639996,37.8784922 2.45321718,37.8784922 2.7965938,37.5363172 C3.13997042,37.1941422 3.13997042,36.6392735 2.7965938,36.2970985 L1.85680727,35.3606006 C1.77054319,35.2746384 1.75770556,35.1742097 1.75770556,35.1220824 C1.75770556,35.0699551 1.77054319,34.9695264 1.85680727,34.8835642 L5.39975331,31.3530163 C5.48601738,31.2670541 5.58679878,31.2542614 5.63910913,31.2542614 C5.69141947,31.2542614 5.79220087,31.2670541 5.87846494,31.3530163 L6.74854434,32.220051 C6.74866432,32.2202901 6.74890428,32.2204097 6.74902426,32.2206488 L12.2941607,37.7463806 L18.7121361,44.1420165 C18.7984002,44.2279787 18.8112378,44.3284074 18.8112378,44.3805347 C18.8112378,44.432662 18.7984002,44.5330907 18.7121361,44.6190529 L15.16919,48.1496008 C15.082926,48.235563 14.9821446,48.2483557 14.9298342,48.2483557 C14.8775239,48.2483557 14.7767425,48.235563 14.6904784,48.1496008 L6.77409963,40.2609245 C6.43072301,39.9187495 5.87390579,39.9187495 5.53052917,40.2609245 C5.18715255,40.6030996 5.18715255,41.1579683 5.53052917,41.5001433 L13.446908,49.3888195 C13.8557925,49.7962732 14.3928134,50 14.9298342,50 C15.4668551,50 16.003876,49.7962732 16.4127605,49.3888195 L19.9557065,45.8582716 C20.3517534,45.4636107 20.5699932,44.938751 20.5699932,44.3805347 C20.5699932,43.8223184 20.3518734,43.2974587 19.9557065,42.9027978 L19.7026733,42.6506499 L20.2532516,42.1021178 C20.7266842,41.6303419 21.3168553,41.2826673 21.9600566,41.0968741 C21.9720544,41.0934069 21.9839322,41.0897006 21.99581,41.0857552 L28.4412603,38.9230705 C30.6284566,38.1753547 32.5425832,36.824708 33.9767985,35.0172301 L37.2050426,30.9487907 L45.8208923,22.3630913 C46.234576,22.4424779 46.7281649,22.4969963 47.1904395,22.5045285 L47.1904395,23.2016712 C47.1904395,23.4715136 47.4612295,23.7188791 47.8449187,23.7188791 C48.1833762,23.7188791 48.5219538,23.4715136 48.5219538,23.2016712 L48.5219538,22.4370978 C50.9591839,22.0998246 52.6291556,20.5705582 52.6291556,17.8044642 C52.6291556,14.7460509 50.4852714,13.7565889 48.5219538,13.0369692 L48.5219538,8.47188597 C50.1017022,8.5842705 50.6883939,9.30389012 51.2299739,9.30389012 C51.9070089,9.30389012 52.2229106,8.44940907 52.2229106,8.02210876 C52.2229106,6.92014264 50.0564705,6.44788852 48.5218338,6.40293471 L48.5218338,5.79569961 C48.5218338,5.5258572 48.1833762,5.27849169 47.8447987,5.27849169 C47.4611096,5.27849169 47.1903195,5.5258572 47.1903195,5.79569961 L47.1903195,6.44788852 C45.0464353,6.67277713 42.902551,7.79722016 42.902551,10.6307449 C42.902551,13.5092234 45.1593344,14.3188702 47.1903195,15.0384898 L47.1903195,16.7763849 C46.5713538,16.0433748 45.5580208,15.6193026 44.2542215,15.5494807 C41.2728918,15.3879578 37.154172,17.0434775 34.8754326,19.3143622 C33.4222609,20.7624488 31.7719655,22.4072082 30.8622934,23.3142948 C30.5802255,23.5954953 30.2024152,23.7503229 29.7986897,23.7503229 L29.7659358,23.7503229 C29.1594477,23.7503229 28.3211624,23.0965797 28.0911649,22.4674655 L28.090565,13.8468552 L30.9721931,11.4837912 L33.2502126,11.1353992 C32.8029352,13.1559295 32.8007756,15.2588352 33.2523722,17.2913213 C33.3431955,17.6999705 33.7067284,17.9783015 34.1100939,17.9783015 C34.1729623,17.9783015 34.2369105,17.9714867 34.3009787,17.9573789 C34.7751312,17.8527656 35.0743559,17.3849352 34.9693753,16.9124419 C34.4869444,14.7413881 34.5939646,12.4791116 35.2786782,10.3674781 C35.2814377,10.3600655 35.2828774,10.3521747 35.285397,10.3447621 C35.2863568,10.3420123 35.2877965,10.3395016 35.2886364,10.3367517 C35.9013633,8.4641147 36.9256142,6.80345403 38.3329544,5.40103864 C38.6318193,5.10333921 38.9494007,4.81723691 39.2773001,4.55038344 C39.2843788,4.54512289 39.2907377,4.53902543 39.2976964,4.53352576 C39.2991361,4.53244974 39.3005758,4.53149328 39.3020156,4.53041726 C41.6869354,2.59967505 44.6984995,1.61846251 47.7825302,1.76791001 C50.8874371,1.91831398 53.8091378,3.20858396 56.0092917,5.40103864 C58.370096,7.75358149 59.670176,10.8812189 59.670176,14.2081594 C59.670176,17.5351 58.370096,20.662857 56.0092917,23.0153998 C52.8967063,26.1172127 48.3112726,27.3639635 44.0428205,26.2689318 C43.5729872,26.1481782 43.0931958,26.4303351 42.9721381,26.899122 C42.8510805,27.3677894 43.1342282,27.8454236 43.6045414,27.9660576 C44.7719259,28.2655504 45.9717045,28.4152371 47.171603,28.4152371 C48.3965769,28.4152371 49.6216708,28.2592139 50.8118511,27.9471675 C53.2403228,27.3105211 55.4677117,26.0336416 57.2528622,24.2546185 C59.9455252,21.5703022 61.4285714,18.0024523 61.4285714,14.2074421 C61.4285714,10.4125515 59.9455252,6.84470154 57.2526222,4.16122214 Z M48.3862588,15.5328621 C49.4920947,16.0051163 50.3721322,16.6347087 50.3721322,18.051471 C50.3721322,19.333372 49.6048739,20.0529916 48.3862588,20.2778802 L48.3862588,15.5328621 Z M45.1592144,10.4054976 C45.1592144,9.23610074 46.0618078,8.673939 47.3256546,8.51648111 L47.3256546,12.6093103 C46.1295953,12.1596526 45.1592144,11.6873985 45.1592144,10.4054976 Z M41.1287984,24.5600892 L40.3026309,23.7369324 C40.1538583,23.5885609 40.0719135,23.3914097 40.0719135,23.181705 C40.0719135,22.9720003 40.1538583,22.7748491 40.3027509,22.6264776 L41.7415253,21.1926185 C42.2015204,20.7343527 42.8056089,20.50516 43.4098174,20.50516 C43.8863694,20.50516 44.3628015,20.6477927 44.7686865,20.9329385 L41.1287984,24.5600892 Z M33.7957519,9.27854383 L30.4666064,9.78774137 C30.3102753,9.81165297 30.1634224,9.8770512 30.0412849,9.9772408 L26.6523905,12.756247 C26.4493879,12.9226718 26.3318096,13.1708742 26.3318096,13.4328258 L26.3324095,22.599338 C26.3324095,22.675616 26.3423677,22.7516549 26.362164,22.8253026 C26.7441735,24.25151 28.3347199,25.5024454 29.7658158,25.5024454 L29.7985697,25.5024454 C30.6723685,25.5024454 31.4918172,25.1651723 32.1061038,24.5526766 C33.0157759,23.6457096 34.6658313,22.0010697 36.1188831,20.5531027 C38.053886,18.6249908 41.6604203,17.1660245 44.1596789,17.298973 C44.7301736,17.3295798 45.4880737,17.4622892 45.8585654,17.9206746 C45.8783617,17.945184 45.8993578,17.9684978 45.9216737,17.990616 C46.1081193,18.1764092 46.6131061,18.6807048 45.9681051,19.6405165 C44.3530832,18.3624414 41.9907193,18.4660982 40.4980748,19.9535193 L39.0593004,21.3872589 C38.5783092,21.866567 38.3133981,22.5038111 38.3133981,23.181705 C38.3133981,23.8594793 38.5783092,24.4967235 39.0593004,24.9760315 L39.8854679,25.7991884 L35.9253588,29.7454394 C35.9012433,29.7694706 35.8785675,29.7949364 35.8573314,29.8214783 L32.5974131,33.9299696 C31.3726792,35.4733438 29.7382209,36.6266003 27.8753247,37.2634858 L21.4517104,39.4188775 C20.5318402,39.6881222 19.687916,40.1870377 19.0099211,40.86266 L18.4594627,41.4111921 L13.5379711,36.5069228 L8.61431996,31.6009796 L12.4857654,27.743082 C12.5485138,27.6805531 12.601424,27.6089379 12.6426964,27.5306274 C13.9584935,25.0315064 15.8049527,18.7029426 16.7882912,15.1530264 C17.1706606,13.7728488 17.9572354,12.5614871 19.0627114,11.6500964 L27.662724,4.56030676 C28.4130655,3.94171364 29.3977237,3.65298106 30.3648652,3.7684741 C31.2366243,3.87248956 34.5750081,4.25459694 36.7563255,4.50399494 C35.4468872,5.89612834 34.4533506,7.49844471 33.7957519,9.27854383 Z" id="Shape"></path>
        </g>
    </g>
</svg>