<?xml version="1.0" encoding="UTF-8"?>
<svg width="127px" height="128px" viewBox="0 0 127 128" version="1.1" xmlns="http://www.w3.org/2000/svg" xmlns:xlink="http://www.w3.org/1999/xlink">
    <!-- Generator: Sketch 48.2 (47327) - http://www.bohemiancoding.com/sketch -->
    <title>icon</title>
    <desc>Created with Sketch.</desc>
    <defs>
        <path d="M104.801777,95.1588846 C98.8436399,85.6341001 89.9845002,83.7031407 89.9845002,83.7031407 L84.8123827,83.7031407 C79.0999788,83.7031407 74.4683183,79.0714802 74.4683183,73.3589057 L74.4683183,70.0360074 C76.7566908,67.3161561 78.3980156,64.0989957 79.4182157,60.6995227 C79.5241241,60.1264915 80.0756666,59.8433869 80.4435321,59.449428 C82.4237298,57.4695714 82.813084,54.1284247 81.3278078,51.7494929 C81.1255415,51.3884491 80.7612574,51.0753286 80.7818933,50.6279891 C80.7818933,47.5950172 80.7970718,44.5572701 80.7779708,41.5266859 C80.6967914,37.8676434 79.6510096,34.0614206 77.0856721,31.3519726 C75.0145739,29.1628573 72.1707364,27.859382 69.2368512,27.3015294 C65.5293739,26.5942794 61.6506695,26.6300939 57.9786656,27.5641687 C54.7964669,28.367265 51.8068135,30.2309805 49.9582765,32.9936386 C48.3213858,35.3954235 47.6042442,38.3117425 47.4831573,41.185937 C47.4377923,44.2717778 47.472754,47.3652932 47.463374,50.4586379 C47.5338091,51.0778867 47.0085306,51.4969157 46.7713025,52.0095739 C45.3723221,54.5474537 45.98816,58.0050826 48.2361133,59.8508909 C48.8064157,60.2445087 48.9131769,60.9619914 49.1197069,61.580558 C50.0999994,64.6362124 51.7259752,67.4621426 53.7815538,69.924471 L53.7815538,73.3589057 C53.7815538,79.0714802 49.1500639,83.7031407 43.4378304,83.7031407 L38.2655424,83.7031407 C38.2655424,83.7031407 30.2195001,85.9763417 24.3069824,95.1588846" id="path-1"></path>
        <filter x="-9.9%" y="-11.7%" width="119.9%" height="123.4%" filterUnits="objectBoundingBox" id="filter-2">
            <feMorphology radius="0.5" operator="dilate" in="SourceAlpha" result="shadowSpreadOuter1"></feMorphology>
            <feOffset dx="0" dy="0" in="shadowSpreadOuter1" result="shadowOffsetOuter1"></feOffset>
            <feMorphology radius="1" operator="erode" in="SourceAlpha" result="shadowInner"></feMorphology>
            <feOffset dx="0" dy="0" in="shadowInner" result="shadowInner"></feOffset>
            <feComposite in="shadowOffsetOuter1" in2="shadowInner" operator="out" result="shadowOffsetOuter1"></feComposite>
            <feGaussianBlur stdDeviation="2.5" in="shadowOffsetOuter1" result="shadowBlurOuter1"></feGaussianBlur>
            <feColorMatrix values="0 0 0 0 0.125490196   0 0 0 0 0.77254902   0 0 0 0 0.396078431  0 0 0 0.5 0" type="matrix" in="shadowBlurOuter1"></feColorMatrix>
        </filter>
    </defs>
    <g id="Roadmap-content" stroke="none" stroke-width="1" fill="none" fill-rule="evenodd" transform="translate(-336.000000, -1329.000000)">
        <g id="icon" transform="translate(335.000000, 1329.000000)">
            <path d="M64.5,0.5 L64.5,12.8693169 M77.3221351,1.80814277 L74.7504095,13.9071604 M89.5198484,5.63689671 L84.6867713,17.0229129 M100.789381,11.8911899 L93.6946323,22.0235411 M110.491624,20.2164519 L101.593882,28.8089014 M118.385333,30.4050538 L107.895558,36.9597931 M124.058903,41.9778271 L112.435548,46.2083826 M127.263059,54.354296 L115.046029,56.2892835 M127.917976,67.2263429 L115.565611,66.5789829 M125.959989,79.9654349 L114.012147,76.7640201 M121.516525,91.9528906 L110.399057,86.530539 M114.697669,102.890063 L104.950515,95.274751 M105.890272,112.15685 L97.7752699,102.821608 M95.3137206,119.522649 L89.3169567,108.7042 M83.4676098,124.600836 L79.8511715,112.771999 M70.9443493,127.172117 L69.6514036,114.870561 M58.0556507,127.172117 L59.3485964,114.870561 M45.5323902,124.600836 L49.1488285,112.771999 M33.6862794,119.522649 L39.6830433,108.7042 M23.1097281,112.15685 L31.2247301,102.821608 M14.3023306,102.890063 L24.0494853,95.274751 M7.4834747,91.9528906 L18.6009431,86.530539 M3.04001071,79.9654349 L14.9878533,76.7640201 M1.08202363,67.2263429 L13.4343888,66.5789829 M1.73694131,54.354296 L13.9539714,56.2892835 M4.94109668,41.9778271 L16.5644525,46.2083826 M10.6146666,30.4050538 L21.1044422,36.9597931 M18.5083759,20.2164519 L27.4061179,28.8089014 M28.210619,11.8911899 L35.3053677,22.0235411 M39.4801516,5.63689671 L44.3132287,17.0229129 M51.6778649,1.80814277 L54.2495905,13.9071604" id="Line-3" stroke="#20C565" stroke-linecap="round"></path>
            <path d="M64.5,7.98920653 L64.5,18.8976835 M75.8078164,9.14285514 L73.5398165,19.8129557 M86.5649565,12.5194259 L82.302675,22.5607319 M96.5035358,18.0350751 L90.2466905,26.9707763 M105.059925,25.3771078 L97.2130238,32.9547726 M112.021373,34.3624164 L102.770459,40.1430284 M117.024883,44.568423 L106.774268,48.2993419 M119.850622,55.4832073 L109.076446,57.1896691 M120.428192,66.8350409 L109.534665,66.2641353 M118.701447,78.0696218 L108.164668,75.2463002 M114.782765,88.6413361 L104.978291,83.8593745 M108.769229,98.2868074 L100.173232,91.5708784 M101.002002,106.459169 L93.845397,98.2264368 M91.6745613,112.955053 L86.3860268,103.414284 M81.2274989,117.433497 L78.0381689,107.001668 M70.1832593,119.701105 L69.043013,108.852386 M58.8167407,119.701105 L59.956987,108.852386 M47.7725011,117.433497 L50.9618311,107.001668 M37.3254387,112.955053 L42.6139732,103.414284 M27.9979982,106.459169 L35.154603,98.2264368 M20.2307712,98.2868074 L28.8267684,91.5708784 M14.2172352,88.6413361 L24.0217094,83.8593745 M10.2985528,78.0696218 L20.8353324,75.2463002 M8.57180777,66.8350409 L19.465335,66.2641353 M9.14937842,55.4832073 L19.9235539,57.1896691 M11.9751169,44.568423 L22.2257322,48.2993419 M16.9786274,34.3624164 L26.2295405,40.1430284 M23.9400746,25.3771078 L31.7869762,32.9547726 M32.4964642,18.0350751 L38.7533095,26.9707763 M42.4350435,12.5194259 L46.697325,22.5607319 M53.1921836,9.14285514 L55.4601835,19.8129557" id="Line-3" stroke="#20C565" opacity="0.300000012" stroke-linecap="round" transform="translate(64.500000, 63.913086) rotate(6.000000) translate(-64.500000, -63.913086) "></path>
            <g id="Shape" stroke-linecap="round" fill-rule="nonzero">
                <use fill="black" fill-opacity="1" filter="url(#filter-2)" xlink:href="#path-1"></use>
                <use stroke="#20C565" stroke-width="1" xlink:href="#path-1"></use>
            </g>
            <path d="M56.5069364,52.3122914 C56.5069364,48.3605573 59.5528902,45.1143145 63.4546243,44.8254417 L63.4546243,45.8913376 C62.0095376,46.0294879 60.5371387,46.7153261 59.4975434,47.7549214 L61.5290462,49.7975515 C62.0440751,49.2825226 62.7320809,48.9250081 63.4546243,48.8018868 L63.4546243,55.8228405 C62.7320809,55.6997191 62.0552023,55.3422047 61.5401734,54.8271758 L59.4862717,56.8699503 C60.5258671,57.9095457 62.0095376,58.5953839 63.4546243,58.7335342 L63.4546243,59.7991411 C59.5528902,59.5102683 56.5069364,56.2640255 56.5069364,52.3122914 M67.590896,52.3124359 C67.590896,53.9754417 66.4893064,55.3751526 64.899711,55.7633029 L64.899711,48.8615688 C66.4893064,49.2495746 67.590896,50.6494301 67.590896,52.3124359 M71.4063584,59.6791989 L69.3361272,57.6202394 C68.1723988,58.7838232 66.633815,59.5664821 64.899711,59.7686498 L64.899711,58.7008752 C68.0789017,58.2758752 70.4810694,55.5738521 70.4810694,52.3124359 C70.4810694,49.0508752 68.0789017,46.3489966 64.899711,45.9239966 L64.899711,44.8557885 C66.633815,45.0579561 68.183526,45.8406151 69.3472543,47.0043434 L71.3950867,44.9452394 C69.7031792,43.2533318 67.5008671,42.1416266 64.899711,41.9289099 L64.899711,39.622696 L63.4546243,39.622696 L63.4546243,41.9044879 C57.9632948,42.197696 53.5936416,46.7534763 53.5936416,52.3122914 C53.5936416,57.8711064 57.9632948,62.4267422 63.4546243,62.7199503 L63.4546243,64.622696 L64.899711,64.622696 L64.899711,62.6955284 C67.5008671,62.4828116 69.7143064,61.3712509 71.4063584,59.6791989" id="Fill-1" fill="#20C565"></path>
        </g>
    </g>
</svg>