<?xml version="1.0" encoding="UTF-8"?>
<svg width="86px" height="86px" viewBox="0 0 86 86" version="1.1" xmlns="http://www.w3.org/2000/svg" xmlns:xlink="http://www.w3.org/1999/xlink">
    <!-- Generator: Sketch 48.2 (47327) - http://www.bohemiancoding.com/sketch -->
    <title>icon</title>
    <desc>Created with Sketch.</desc>
    <defs>
        <path d="M71,64 C67.0029791,57.5894417 61.0598178,56.2898293 61.0598178,56.2898293 L57.5900984,56.2898293 C53.7579275,56.2898293 50.6507742,53.1725379 50.6507742,49.3277483 L50.6507742,47.0913058 C52.1859308,45.2607378 53.2870149,43.0954611 53.971417,40.8074807 C54.0424657,40.421808 54.4124684,40.2312673 54.6592513,39.9661173 C55.9876686,38.6335952 56.2488672,36.3848708 55.2524684,34.7837551 C55.1167779,34.5407584 54.8723976,34.3300158 54.8862412,34.0289386 C54.8862412,31.987628 54.8964237,29.9431035 54.8836098,27.9034 C54.8291505,25.4407191 54.1275869,22.87898 52.4066281,21.0554138 C51.0172302,19.5820522 49.1094394,18.7047616 47.14124,18.3293047 C44.6540758,17.8532973 42.0520437,17.8774018 39.5886769,18.5060713 C37.4538962,19.046587 35.4482847,20.3009416 34.2081921,22.1603202 C33.1100826,23.7768168 32.6289876,25.7396154 32.5477563,27.6740625 C32.5173232,29.7509559 32.5407773,31.8330146 32.5344847,33.9149585 C32.5817361,34.3317375 32.2293526,34.6137607 32.0702079,34.9588 C31.1317007,36.6668939 31.5448361,38.9940155 33.0528775,40.2363178 C33.4354653,40.5012382 33.5070861,40.9841326 33.6456369,41.4004525 C34.303267,43.4570292 35.3940542,45.3589925 36.7730409,47.0162373 L36.7730409,49.3277483 C36.7730409,53.1725379 33.666002,56.2898293 29.8339454,56.2898293 L26.3641116,56.2898293 C26.3641116,56.2898293 20.9664174,57.8197839 17,64" id="path-1"></path>
        <filter x="-14.8%" y="-17.4%" width="129.6%" height="134.8%" filterUnits="objectBoundingBox" id="filter-2">
            <feMorphology radius="0.5" operator="dilate" in="SourceAlpha" result="shadowSpreadOuter1"></feMorphology>
            <feOffset dx="0" dy="0" in="shadowSpreadOuter1" result="shadowOffsetOuter1"></feOffset>
            <feMorphology radius="1" operator="erode" in="SourceAlpha" result="shadowInner"></feMorphology>
            <feOffset dx="0" dy="0" in="shadowInner" result="shadowInner"></feOffset>
            <feComposite in="shadowOffsetOuter1" in2="shadowInner" operator="out" result="shadowOffsetOuter1"></feComposite>
            <feGaussianBlur stdDeviation="2.5" in="shadowOffsetOuter1" result="shadowBlurOuter1"></feGaussianBlur>
            <feColorMatrix values="0 0 0 0 0.125490196   0 0 0 0 0.77254902   0 0 0 0 0.396078431  0 0 0 0.5 0" type="matrix" in="shadowBlurOuter1"></feColorMatrix>
        </filter>
    </defs>
    <g id="Roadmap-content" stroke="none" stroke-width="1" fill="none" fill-rule="evenodd" transform="translate(-290.000000, -1763.000000)">
        <g id="Group-9" transform="translate(289.000000, 1758.000000)">
            <g id="icon" transform="translate(0.000000, 5.000000)">
                <path d="M44,0.336394336 L44,8.65833062 M52.6165227,1.21649798 L50.8862949,9.35657999 M60.8133537,3.79244026 L57.5617142,11.452823 M68.3865223,8.00025785 L63.6132558,14.817189 M74.9064057,13.6013999 L68.9201057,19.3823026 M80.2110116,20.4561758 L73.1536094,24.8661302 M84.02367,28.2422066 L76.2036079,31.0884764 M86.1768537,36.5689547 L77.9573743,37.8707923 M86.6169626,45.229122 L78.3064312,44.7935855 M85.3011829,53.7998388 L77.2628098,51.6459632 M82.3151842,61.8648632 L74.8354774,58.2167665 M77.7328863,69.2232688 L71.1751111,64.0997732 M71.8143389,75.4578579 L66.3546575,69.1772129 M64.7068581,80.4134842 L60.6723034,73.1349547 M56.7462255,83.8300309 L54.3131268,75.8717237 M48.330627,85.5599601 L47.4607478,77.2836123 M39.669373,85.5599601 L40.5392522,77.2836123 M31.2537745,83.8300309 L33.6868732,75.8717237 M23.2931419,80.4134842 L27.3276966,73.1349547 M16.1856611,75.4578579 L21.6453425,69.1772129 M10.2671137,69.2232688 L16.8248889,64.0997732 M5.68481584,61.8648632 L13.1645226,58.2167665 M2.69881707,53.7998388 L10.7371902,51.6459632 M1.38303744,45.229122 L9.6935688,44.7935855 M1.82314625,36.5689547 L10.0426257,37.8707923 M3.97632999,28.2422066 L11.7963921,31.0884764 M7.78898839,20.4561758 L14.8463906,24.8661302 M13.0935943,13.6013999 L19.0798943,19.3823026 M19.6134777,8.00025785 L24.3867442,14.817189 M27.1866463,3.79244026 L30.4382858,11.452823 M35.3834773,1.21649798 L37.1137051,9.35657999" id="Line-3" stroke="#20C565" stroke-linecap="round"></path>
                <path d="M44.0000063,5.29727905 L44.0000063,12.6515483 M51.6146078,6.07504505 L50.0855692,13.2686059 M58.8583189,8.35145916 L55.9847769,15.1210997 M65.5508865,12.0699956 L61.3326509,18.0942603 M71.3126439,17.0198421 L66.0224253,22.1285468 M76.0004352,23.077551 L69.7636611,26.97472 M79.3697612,29.9582294 L72.4590086,32.4735376 M81.2725747,37.316751 L74.0088487,38.4672121 M81.6615081,44.9699221 L74.3173176,44.5850294 M80.4987261,52.5440439 L73.3950475,50.640619 M77.8599365,59.6712748 L71.249963,56.4473753 M73.810464,66.1740518 L68.0152207,61.6463116 M68.5801198,71.6836887 L63.755285,66.1333513 M62.2990902,76.0630794 L58.7336697,69.6308905 M55.2641126,79.0823532 L53.1139323,72.0494306 M47.827072,80.6111279 L47.0583416,73.2971461 M40.1729406,80.6111279 L40.941671,73.2971461 M32.7359,79.0823532 L34.8860803,72.0494306 M25.7009224,76.0630794 L29.2663428,69.6308905 M19.4198928,71.6836887 L24.2447276,66.1333513 M14.1895486,66.1740518 L19.9847919,61.6463116 M10.1400761,59.6712748 L16.7500495,56.4473753 M7.5012865,52.5440439 L14.6049651,50.640619 M6.3385045,44.9699221 L13.682695,44.5850294 M6.72743787,37.316751 L13.9911639,38.4672121 M8.63025141,29.9582294 L15.541004,32.4735376 M11.9995774,23.077551 L18.2363515,26.97472 M16.6873687,17.0198421 L21.9775873,22.1285468 M22.4491261,12.0699956 L26.6673617,18.0942603 M29.1416937,8.35145916 L32.0152356,15.1210997 M36.3854048,6.07504505 L37.9144434,13.2686059" id="Line-3" stroke="#20C565" opacity="0.300000012" stroke-linecap="round" transform="translate(44.000006, 42.999940) rotate(6.000000) translate(-44.000006, -42.999940) "></path>
                <g id="Shape" stroke-linecap="round" fill-rule="nonzero">
                    <use fill="black" fill-opacity="1" filter="url(#filter-2)" xlink:href="#path-1"></use>
                    <use stroke="#20C565" stroke-width="1" xlink:href="#path-1"></use>
                </g>
                <path d="M38.9626168,35.6289249 C38.9626168,32.9417457 41.0146028,30.7343006 43.6431075,30.5378671 L43.6431075,31.2626763 C42.6695872,31.3566185 41.6776674,31.8229884 40.977317,32.5299133 L42.3458917,33.9189017 C42.6928544,33.5686821 43.1563474,33.3255723 43.6431075,33.2418497 L43.6431075,38.0160983 C43.1563474,37.9323757 42.7003505,37.6892659 42.3533879,37.3390462 L40.9697235,38.7281329 C41.670074,39.4350578 42.6695872,39.9014277 43.6431075,39.9953699 L43.6431075,40.7199827 C41.0146028,40.5235491 38.9626168,38.316104 38.9626168,35.6289249 M46.4296145,35.6290231 C46.4296145,36.7598671 45.6875,37.7116705 44.6166277,37.9756127 L44.6166277,33.2824335 C45.6875,33.5462775 46.4296145,34.4981792 46.4296145,35.6290231 M49,40.638422 L47.6053349,39.2383295 C46.821359,40.0295665 45.784852,40.5617746 44.6166277,40.6992486 L44.6166277,39.9731618 C46.7583723,39.6841618 48.376655,37.8467861 48.376655,35.6290231 C48.376655,33.4111618 46.7583723,31.5738844 44.6166277,31.2848844 L44.6166277,30.5585029 C45.784852,30.6959769 46.8288551,31.228185 47.612831,32.0195202 L48.9924065,30.6193295 C47.852609,29.4688324 46.3689642,28.7128728 44.6166277,28.5682254 L44.6166277,27 L43.6431075,27 L43.6431075,28.5516185 C39.9437305,28.751 37,31.8489306 37,35.6289249 C37,39.4089191 39.9437305,42.5067514 43.6431075,42.7061329 L43.6431075,44 L44.6166277,44 L44.6166277,42.689526 C46.3689642,42.5448786 47.8601051,41.7890173 49,40.638422" id="Fill-1" fill="#20C565"></path>
            </g>
        </g>
    </g>
</svg>