<?xml version="1.0" encoding="UTF-8"?>
<svg width="75px" height="46px" viewBox="0 0 75 46" version="1.1" xmlns="http://www.w3.org/2000/svg" xmlns:xlink="http://www.w3.org/1999/xlink">
    <!-- Generator: Sketch 48.2 (47327) - http://www.bohemiancoding.com/sketch -->
    <title>Group 21</title>
    <desc>Created with Sketch.</desc>
    <defs>
        <filter x="-53.1%" y="-53.1%" width="206.2%" height="206.2%" filterUnits="objectBoundingBox" id="filter-1">
            <feOffset dx="0" dy="0" in="SourceAlpha" result="shadowOffsetOuter1"></feOffset>
            <feGaussianBlur stdDeviation="2.5" in="shadowOffsetOuter1" result="shadowBlurOuter1"></feGaussianBlur>
            <feColorMatrix values="0 0 0 0 0.125490196   0 0 0 0 0.77254902   0 0 0 0 0.396078431  0 0 0 0.2 0" type="matrix" in="shadowBlurOuter1" result="shadowMatrixOuter1"></feColorMatrix>
            <feMerge>
                <feMergeNode in="shadowMatrixOuter1"></feMergeNode>
                <feMergeNode in="SourceGraphic"></feMergeNode>
            </feMerge>
        </filter>
    </defs>
    <g id="Roadmap-content" stroke="none" stroke-width="1" fill="none" fill-rule="evenodd" transform="translate(-363.000000, -3950.000000)">
        <g id="Group-21" transform="translate(363.000000, 3950.000000)">
            <rect id="Rectangle" stroke="#20C565" stroke-width="2" x="1" y="1" width="73" height="44" rx="5"></rect>
            <rect id="Rectangle-2" fill="#20C565" x="1" y="12" width="6" height="8"></rect>
            <rect id="Rectangle-2-Copy" fill="#20C565" x="31" y="12" width="43" height="8"></rect>
            <g id="coin" transform="translate(11.000000, 7.000000)">
                <g filter="url(#filter-1)">
                    <circle id="Oval-9" stroke="#20C565" stroke-width="2" cx="8" cy="8" r="8"></circle>
                    <circle id="Oval-9" stroke="#20C565" cx="8" cy="8" r="5.83783784"></circle>
                    <path d="M5.31447335,8.03025455 C5.31447335,6.68716848 6.34970952,5.58385956 7.67580197,5.4856796 L7.67580197,5.84794842 C7.18465662,5.89490191 6.68422862,6.12799949 6.33089866,6.48132946 L7.02135079,7.17556341 C7.19639499,7.00051921 7.43022929,6.87900985 7.67580197,6.83716427 L7.67580197,9.22339395 C7.43022929,9.18154837 7.20017681,9.06003901 7.02513261,8.88499481 L6.32706772,9.57927788 C6.68039769,9.93260784 7.18465662,10.1657054 7.67580197,10.2126589 L7.67580197,10.5748295 C6.34970952,10.4766495 5.31447335,9.37334063 5.31447335,8.03025455 M9.08160731,8.03030367 C9.08160731,8.59551374 8.70720721,9.07123712 8.16694732,9.20315877 L8.16694732,6.85744857 C8.70720721,6.9893211 9.08160731,7.4650936 9.08160731,8.03030367 M10.3783784,10.5340644 L9.67476355,9.83428054 C9.2792442,10.2297508 8.75632174,10.4957551 8.16694732,10.5644663 L8.16694732,10.201559 C9.24746709,10.0571132 10.063898,9.13876961 10.063898,8.03030367 C10.063898,6.92178861 9.24746709,6.00349415 8.16694732,5.8590483 L8.16694732,5.49599366 C8.75632174,5.56470489 9.28302602,5.83070921 9.67854537,6.22622857 L10.3745474,5.52639555 C9.79951447,4.95136258 9.05100895,4.57352446 8.16694732,4.50122786 L8.16694732,3.717409 L7.67580197,3.717409 L7.67580197,4.49292751 C5.80944964,4.5925809 4.32432432,6.14096573 4.32432432,8.03025455 C4.32432432,9.91954338 5.80944964,11.4678791 7.67580197,11.5675325 L7.67580197,12.2142236 L8.16694732,12.2142236 L8.16694732,11.5592321 C9.05100895,11.4869355 9.80329629,11.1091465 10.3783784,10.5340644" id="Fill-1" fill="#20C565"></path>
                    <path d="M8,0.216216216 L8,1.94594595 M12.5751933,1.70278664 L11.5584837,3.10216739 M15.4028183,5.59467853 L13.7577476,6.12919441 M15.4028183,10.4053215 L13.7577476,9.87080559 M12.5751933,14.2972134 L11.5584837,12.8978326 M8,15.7837838 L8,14.0540541 M3.42480668,14.2972134 L4.44151631,12.8978326 M0.597181711,10.4053215 L2.24225244,9.87080559 M0.597181711,5.59467853 L2.24225244,6.12919441 M3.42480668,1.70278664 L4.44151631,3.10216739" id="Line-3" stroke="#20C565" stroke-linecap="square"></path>
                </g>
            </g>
            <circle id="Oval-4" fill="#20C565" cx="68.5" cy="39.5" r="1.5"></circle>
            <circle id="Oval-4-Copy" fill="#20C565" cx="62.5" cy="39.5" r="1.5"></circle>
            <circle id="Oval-4-Copy-2" fill="#20C565" cx="57.5" cy="39.5" r="1.5"></circle>
        </g>
    </g>
</svg>