<?xml version="1.0" encoding="UTF-8"?>
<svg width="66px" height="71px" viewBox="0 0 66 71" version="1.1" xmlns="http://www.w3.org/2000/svg" xmlns:xlink="http://www.w3.org/1999/xlink">
    <!-- Generator: Sketch 48.2 (47327) - http://www.bohemiancoding.com/sketch -->
    <title>Group 20</title>
    <desc>Created with Sketch.</desc>
    <defs></defs>
    <g id="Roadmap-content" stroke="none" stroke-width="1" fill="none" fill-rule="evenodd" transform="translate(-436.000000, -2708.000000)">
        <g id="Group-20" transform="translate(437.000000, 2708.000000)">
            <path d="M6.86736502,18.1900206 C2.56666694,23.6387794 0,30.5196511 0,38 C0,55.673112 14.326888,70 32,70 C49.673112,70 64,55.673112 64,38 C64,20.326888 49.673112,6 32,6" id="Oval-3" stroke="#20C565" stroke-width="2" stroke-linecap="round"></path>
            <polygon id="Triangle-4" fill="#20C565" points="24.5924507 5.52014741 32.5924507 0.0201474108 32.5924507 11.0201474"></polygon>
            <path d="M33.4873657,48.3297119 C34.7425803,48.0453274 35.3701782,47.1333492 35.3701782,45.59375 C35.3701782,44.8288536 35.2328912,44.1669339 34.958313,43.6079712 C34.6837348,43.0490084 34.2914861,42.5145696 33.7815552,42.0046387 L33.4873657,41.7104492 L33.4873657,48.3297119 Z M31.6045532,35.0470581 L31.6045532,27.7070312 C30.7023677,27.7070312 30.0061263,27.9619929 29.5158081,28.4719238 C29.0254899,28.9818548 28.7803345,29.6829993 28.7803345,30.5753784 C28.7803345,32.0659458 29.4079324,33.3064322 30.663147,34.296875 L31.6045532,35.0470581 Z M31.6045532,53.125 L31.6045532,51.4628296 C29.5648295,51.3157341 27.9884801,50.5434945 26.8754578,49.1460876 C25.7624354,47.7486808 25.1421922,45.9369822 25.0147095,43.7109375 L28.7803345,42.7695312 C28.8783981,45.6427959 29.7168297,47.4471399 31.2956543,48.1826172 L31.6045532,48.300293 L31.6045532,40.1365356 L27.8389282,37.1210938 C26.9759682,36.4248419 26.2870814,35.5594432 25.7722473,34.5248718 C25.2574132,33.4903004 25,32.3061997 25,30.9725342 C25,29.0308741 25.6030823,27.4863949 26.8092651,26.3390503 C28.0154479,25.1917057 29.6138613,24.618042 31.6045532,24.618042 L31.6045532,23 L33.4873657,23 L33.4873657,24.7798462 L34.0904541,24.9122314 C37.1892652,25.7555788 38.8710314,27.9423652 39.1358032,31.4726562 L35.3701782,32.4140625 C35.2819209,30.570466 34.7523852,29.2515299 33.7815552,28.4572144 L33.4873657,28.2365723 L33.4873657,36.5621338 L35.3701782,38.0625 C36.4782974,38.92546 37.3829209,39.9673706 38.0840759,41.1882629 C38.785231,42.4091553 39.1358032,43.7942834 39.1358032,45.343689 C39.1358032,47.1186409 38.6258799,48.5356392 37.6060181,49.5947266 C36.5861562,50.6538139 35.2132858,51.2765087 33.4873657,51.4628296 L33.4873657,53.125 L31.6045532,53.125 Z" id="$" fill="#20C565"></path>
        </g>
    </g>
</svg>