<?xml version="1.0" encoding="UTF-8"?>
<svg width="77px" height="79px" viewBox="0 0 77 79" version="1.1" xmlns="http://www.w3.org/2000/svg" xmlns:xlink="http://www.w3.org/1999/xlink">
    <!-- Generator: Sketch 48.2 (47327) - http://www.bohemiancoding.com/sketch -->
    <title>Group 19</title>
    <desc>Created with Sketch.</desc>
    <defs></defs>
    <g id="Roadmap-content" stroke="none" stroke-width="1" fill="none" fill-rule="evenodd" transform="translate(-475.000000, -2102.000000)">
        <g id="Group-19" transform="translate(476.000000, 2103.000000)">
            <g id="Group-17">
                <circle id="Oval" stroke="#20C565" stroke-width="2" cx="14.5" cy="14.5" r="14.5"></circle>
                <path d="M20.086337,12.6111763 C20.3424358,10.8966032 19.0369763,9.97488922 17.2519357,9.36001059 L17.8309767,7.03740419 L16.4167961,6.68506706 L15.8530567,8.94646746 C15.481794,8.85385313 15.1000619,8.76647352 14.7207458,8.67989925 L15.2885119,6.40360002 L13.8755393,6.05126289 L13.2960957,8.37306394 C12.9884551,8.30299918 12.6864518,8.23373977 12.3933073,8.16085632 L12.394918,8.15360824 L10.445185,7.66677899 L10.0690902,9.17679528 C10.0690902,9.17679528 11.1180482,9.41718987 11.0959013,9.4320887 C11.6684995,9.57503691 11.7723886,9.95395033 11.7546711,10.2543429 L11.095096,12.9002941 C11.1345577,12.9103609 11.185697,12.9248571 11.2420709,12.9474066 L11.0930826,12.9103609 L10.1681473,16.6169476 C10.0980826,16.7909014 9.92050464,17.0518322 9.52024966,16.9527752 C9.53434314,16.9733114 8.49263324,16.6962737 8.49263324,16.6962737 L7.79077767,18.3150112 L9.63098419,18.7736535 C9.97325455,18.8594224 10.3086795,18.9492181 10.6384671,19.033779 L10.0533861,21.3833643 L11.4655533,21.7357014 L12.0453996,19.4114844 C12.4307557,19.5161788 12.8052398,19.6128199 13.1716704,19.7038235 L12.5942402,22.0171685 L14.0080181,22.3695056 L14.5930991,20.0247523 C17.0038904,20.4809786 18.817118,20.2969579 19.5793742,18.1168971 C20.1942528,16.3612515 19.5491739,15.3485339 18.2807602,14.6877507 C19.2044875,14.4739324 19.900303,13.8663019 20.0859343,12.6111763 L20.086337,12.6111763 Z M16.8557075,17.1408225 C16.4184068,18.8964681 13.4628015,17.9477752 12.5040419,17.709394 L13.2803916,14.5971498 C14.2387486,14.8363363 17.3115311,15.3098775 16.8561101,17.1408225 L16.8557075,17.1408225 Z M17.2926055,12.5858081 C16.8939612,14.1828013 14.4336413,13.3714192 13.6351447,13.1724997 L14.3390137,10.3497759 C15.1375103,10.5486954 17.708162,10.9199581 17.2926055,12.5858081 Z" id="Shape" fill="#20C565" fill-rule="nonzero" transform="translate(13.954619, 14.210384) rotate(-14.000000) translate(-13.954619, -14.210384) "></path>
            </g>
            <g id="Group-18" transform="translate(46.000000, 48.000000)">
                <circle id="Oval" stroke="#20C565" stroke-width="2" cx="14.5" cy="14.5" r="14.5"></circle>
                <path d="M9.12616822,14.2610657 C9.12616822,11.3770282 11.349153,9.00786929 14.1966998,8.79704537 L14.1966998,9.57495295 C13.1420528,9.67577719 12.0674731,10.1763126 11.3087601,10.9350256 L12.7913827,12.4257691 C13.1672589,12.0498929 13.6693763,11.7889733 14.1966998,11.6991173 L14.1966998,16.8231195 C13.6693763,16.7332636 13.1753797,16.4723439 12.7995035,16.0964677 L11.3005338,17.5873167 C12.0592468,18.3460297 13.1420528,18.8465651 14.1966998,18.9473893 L14.1966998,19.725086 C11.349153,19.5142621 9.12616822,17.1451032 9.12616822,14.2610657 M17.2154157,14.2611711 C17.2154157,15.4748588 16.4114583,16.4963899 15.2513467,16.779668 L15.2513467,11.7426743 C16.4114583,12.025847 17.2154157,13.0474835 17.2154157,14.2611711 M20,19.6375503 L18.4891128,18.1348893 C17.6398056,18.9840911 16.516923,19.5552878 15.2513467,19.7028329 L15.2513467,18.9235543 C17.57157,18.6133827 19.3247096,16.6414038 19.3247096,14.2611711 C19.3247096,11.880833 17.57157,9.90895963 15.2513467,9.59878797 L15.2513467,8.81919295 C16.516923,8.96673806 17.6479264,9.53793484 18.4972336,10.387242 L19.9917738,8.8844756 C18.7569931,7.64969496 17.1497112,6.83835508 15.2513467,6.68311105 L15.2513467,5 L14.1966998,5 L14.1966998,6.66528751 C10.1890414,6.87927538 7,10.2041553 7,14.2610657 C7,18.3179761 10.1890414,21.6427505 14.1966998,21.8567384 L14.1966998,23.245392 L15.2513467,23.245392 L15.2513467,21.8389148 C17.1497112,21.6836708 18.7651139,20.8724364 20,19.6375503" id="Fill-1" fill="#20C565"></path>
            </g>
        </g>
    </g>
</svg>