<?xml version="1.0" encoding="UTF-8"?>
<svg width="89px" height="80px" viewBox="0 0 89 80" version="1.1" xmlns="http://www.w3.org/2000/svg" xmlns:xlink="http://www.w3.org/1999/xlink">
    <!-- Generator: Sketch 48.2 (47327) - http://www.bohemiancoding.com/sketch -->
    <title>icon</title>
    <desc>Created with Sketch.</desc>
    <defs></defs>
    <g id="Roadmap-content" stroke="none" stroke-width="1" fill="none" fill-rule="evenodd" transform="translate(-270.000000, -2239.000000)">
        <g id="icon" transform="translate(270.000000, 2239.000000)">
            <path d="M41.3375361,30.5524697 L41.3375361,33.0379964 C40.609219,33.4079353 38.7421838,34.4252671 37.0023151,35.8529999 C36.5167704,36.2518402 36.2393162,36.8414303 36.2393162,37.4714824 L36.2393162,39.621752 C36.2393162,39.9396682 36.4936492,40.1940011 36.8115654,40.1940011 C37.1294816,40.1940011 37.3838146,39.9396682 37.3838146,39.621752 L37.3838146,37.4714824 C37.3838146,37.1882479 37.5109811,36.9165741 37.7306322,36.737385 C39.6323492,35.1767054 41.6901341,34.1362524 42.0831941,33.9455027 C42.3317468,33.8241165 42.4820344,33.5813441 42.4820344,33.30389 L42.4820344,30.2807959 C42.4820344,30.0900462 42.3837694,29.910857 42.2277015,29.8068117 C41.9907094,29.6507438 41.8519823,29.3848502 41.8519823,29.1073961 L41.8519823,25.9686961 C41.8519823,24.7259327 42.8635339,23.7143812 44.1062972,23.7143812 L44.7825917,23.7143812 C46.025355,23.7143812 47.0369066,24.7259327 47.0369066,25.9686961 L47.0369066,29.1073961 C47.0369066,29.3906305 46.8981795,29.6507438 46.6611874,29.8068117 C46.4993392,29.910857 46.4068545,30.0900462 46.4068545,30.2807959 L46.4068545,33.30389 C46.4068545,33.5755638 46.5629224,33.8241165 46.8056948,33.9455027 C47.1987548,34.1362524 49.2565397,35.1767054 51.1582566,36.737385 C51.3779078,36.9165741 51.5050743,37.1824676 51.5050743,37.4714824 L51.5050743,39.621752 C51.5050743,39.9396682 51.7594073,40.1940011 52.0773235,40.1940011 C52.3952397,40.1940011 52.6495726,39.9396682 52.6495726,39.621752 L52.6495726,37.4714824 C52.6495726,36.8414303 52.3721185,36.2518402 51.8865738,35.8529999 C50.1467051,34.4194868 48.2796699,33.4079353 47.5513528,33.0379964 L47.5513528,30.5524697 C47.9501931,30.1825309 48.1814049,29.6565241 48.1814049,29.1016158 L48.1814049,25.9629158 C48.1814049,24.0901003 46.6554071,22.5641026 44.7825917,22.5641026 L44.1062972,22.5641026 C42.2334818,22.5641026 40.707484,24.0901003 40.707484,25.9629158 L40.707484,29.1016158 C40.707484,29.6565241 40.9386958,30.1825309 41.3375361,30.5524697 Z" id="Shape" fill="#20C565" fill-rule="nonzero"></path>
            <path d="M42.0212968,70.2105894 L42.0212968,72.6961161 C41.2929797,73.0660549 39.4259445,74.0833868 37.6860758,75.5111195 C37.2005311,75.9099599 36.9230769,76.4995499 36.9230769,77.129602 L36.9230769,79.2798716 C36.9230769,79.5977878 37.1774099,79.8521208 37.4953261,79.8521208 C37.8132423,79.8521208 38.0675753,79.5977878 38.0675753,79.2798716 L38.0675753,77.129602 C38.0675753,76.8463676 38.1947417,76.5746937 38.4143929,76.3955046 C40.3161099,74.8348251 42.3738947,73.794372 42.7669548,73.6036223 C43.0155074,73.4822361 43.1657951,73.2394638 43.1657951,72.9620096 L43.1657951,69.9389155 C43.1657951,69.7481658 43.0675301,69.5689767 42.9114621,69.4649314 C42.6744701,69.3088634 42.535743,69.0429699 42.535743,68.7655157 L42.535743,65.6268158 C42.535743,64.3840524 43.5472946,63.3725009 44.7900579,63.3725009 L45.4663524,63.3725009 C46.7091157,63.3725009 47.7206673,64.3840524 47.7206673,65.6268158 L47.7206673,68.7655157 C47.7206673,69.0487502 47.5819402,69.3088634 47.3449481,69.4649314 C47.1830999,69.5689767 47.0906151,69.7481658 47.0906151,69.9389155 L47.0906151,72.9620096 C47.0906151,73.2336835 47.2466831,73.4822361 47.4894555,73.6036223 C47.8825155,73.794372 49.9403004,74.8348251 51.8420173,76.3955046 C52.0616685,76.5746937 52.188835,76.8405873 52.188835,77.129602 L52.188835,79.2798716 C52.188835,79.5977878 52.443168,79.8521208 52.7610842,79.8521208 C53.0790004,79.8521208 53.3333333,79.5977878 53.3333333,79.2798716 L53.3333333,77.129602 C53.3333333,76.4995499 53.0558792,75.9099599 52.5703344,75.5111195 C50.8304658,74.0776065 48.9634306,73.0660549 48.2351135,72.6961161 L48.2351135,70.2105894 C48.6339538,69.8406505 48.8651656,69.3146437 48.8651656,68.7597354 L48.8651656,65.6210355 C48.8651656,63.74822 47.3391678,62.2222222 45.4663524,62.2222222 L44.7900579,62.2222222 C42.9172424,62.2222222 41.3912447,63.74822 41.3912447,65.6210355 L41.3912447,68.7597354 C41.3912447,69.3146437 41.6224564,69.8406505 42.0212968,70.2105894 Z" id="Shape" fill="#20C565" fill-rule="nonzero"></path>
            <path d="M44.7863248,44.1025641 L44.7863248,57.1119984" id="Line-5" stroke="#182CA2" stroke-width="2" stroke-linecap="round"></path>
            <path d="M18.4615385,18.4615385 L33.5074303,29.490117" id="Path-4" stroke="#182CA2" stroke-width="2" stroke-linecap="round"></path>
            <path d="M54.7008547,18.4615385 L69.7467465,29.490117" id="Path-4" stroke="#182CA2" stroke-width="2" stroke-linecap="round" transform="translate(62.223801, 23.975828) scale(-1, 1) translate(-62.223801, -23.975828) "></path>
            <path d="M76.8930916,7.98836716 L76.8930916,10.4738938 C76.1647745,10.8438327 74.2977394,11.8611645 72.5578707,13.2888973 C72.0723259,13.6877376 71.7948718,14.2773277 71.7948718,14.9073798 L71.7948718,17.0576494 C71.7948718,17.3755656 72.0492048,17.6298986 72.367121,17.6298986 C72.6850372,17.6298986 72.9393701,17.3755656 72.9393701,17.0576494 L72.9393701,14.9073798 C72.9393701,14.6241454 73.0665366,14.3524715 73.2861878,14.1732824 C75.1879047,12.6126028 77.2456896,11.5721498 77.6387497,11.3814001 C77.8873023,11.2600139 78.03759,11.0172415 78.03759,10.7397874 L78.03759,7.71669331 C78.03759,7.52594359 77.939325,7.34675445 77.783257,7.24270915 C77.5462649,7.0866412 77.4075379,6.82074764 77.4075379,6.5432935 L77.4075379,3.40459353 C77.4075379,2.16183019 78.4190894,1.15027863 79.6618528,1.15027863 L80.3381472,1.15027863 C81.5809106,1.15027863 82.5924621,2.16183019 82.5924621,3.40459353 L82.5924621,6.5432935 C82.5924621,6.82652794 82.4537351,7.0866412 82.216743,7.24270915 C82.0548947,7.34675445 81.96241,7.52594359 81.96241,7.71669331 L81.96241,10.7397874 C81.96241,11.0114612 82.118478,11.2600139 82.3612503,11.3814001 C82.7543104,11.5721498 84.8120953,12.6126028 86.7138122,14.1732824 C86.9334634,14.3524715 87.0606299,14.6183651 87.0606299,14.9073798 L87.0606299,17.0576494 C87.0606299,17.3755656 87.3149628,17.6298986 87.632879,17.6298986 C87.9507952,17.6298986 88.2051282,17.3755656 88.2051282,17.0576494 L88.2051282,14.9073798 C88.2051282,14.2773277 87.9276741,13.6877376 87.4421293,13.2888973 C85.7022606,11.8553843 83.8352255,10.8438327 83.1069084,10.4738938 L83.1069084,7.98836716 C83.5057487,7.6184283 83.7369605,7.09242149 83.7369605,6.53751321 L83.7369605,3.39881323 C83.7369605,1.52599778 82.2109627,0 80.3381472,0 L79.6618528,0 C77.7890373,0 76.2630395,1.52599778 76.2630395,3.39881323 L76.2630395,6.53751321 C76.2630395,7.09242149 76.4942513,7.6184283 76.8930916,7.98836716 Z" id="Shape" fill="#20C565" fill-rule="nonzero"></path>
            <path d="M5.09821985,7.98836716 L5.09821985,10.4738938 C4.36990273,10.8438327 2.50286757,11.8611645 0.762998889,13.2888973 C0.277454141,13.6877376 0,14.2773277 0,14.9073798 L0,17.0576494 C0,17.3755656 0.254332963,17.6298986 0.572249167,17.6298986 C0.890165371,17.6298986 1.14449833,17.3755656 1.14449833,17.0576494 L1.14449833,14.9073798 C1.14449833,14.6241454 1.27166482,14.3524715 1.49131601,14.1732824 C3.39303294,12.6126028 5.45081782,11.5721498 5.84387786,11.3814001 C6.09243052,11.2600139 6.24271818,11.0172415 6.24271818,10.7397874 L6.24271818,7.71669331 C6.24271818,7.52594359 6.14445318,7.34675445 5.98838522,7.24270915 C5.75139314,7.0866412 5.61266607,6.82074764 5.61266607,6.5432935 L5.61266607,3.40459353 C5.61266607,2.16183019 6.62421763,1.15027863 7.86698097,1.15027863 L8.54327544,1.15027863 C9.78603878,1.15027863 10.7975903,2.16183019 10.7975903,3.40459353 L10.7975903,6.5432935 C10.7975903,6.82652794 10.6588633,7.0866412 10.4218712,7.24270915 C10.2600229,7.34675445 10.1675382,7.52594359 10.1675382,7.71669331 L10.1675382,10.7397874 C10.1675382,11.0114612 10.3236062,11.2600139 10.5663786,11.3814001 C10.9594386,11.5721498 13.0172235,12.6126028 14.9189404,14.1732824 C15.1385916,14.3524715 15.2657581,14.6183651 15.2657581,14.9073798 L15.2657581,17.0576494 C15.2657581,17.3755656 15.520091,17.6298986 15.8380072,17.6298986 C16.1559234,17.6298986 16.4102564,17.3755656 16.4102564,17.0576494 L16.4102564,14.9073798 C16.4102564,14.2773277 16.1328023,13.6877376 15.6472575,13.2888973 C13.9073888,11.8553843 12.0403537,10.8438327 11.3120366,10.4738938 L11.3120366,7.98836716 C11.7108769,7.6184283 11.9420887,7.09242149 11.9420887,6.53751321 L11.9420887,3.39881323 C11.9420887,1.52599778 10.4160909,0 8.54327544,0 L7.86698097,0 C5.99416552,0 4.46816774,1.52599778 4.46816774,3.39881323 L4.46816774,6.53751321 C4.46816774,7.09242149 4.69937952,7.6184283 5.09821985,7.98836716 Z" id="Shape" fill="#20C565" fill-rule="nonzero"></path>
        </g>
    </g>
</svg>