<?xml version="1.0" encoding="UTF-8"?>
<svg width="71px" height="71px" viewBox="0 0 71 71" version="1.1" xmlns="http://www.w3.org/2000/svg" xmlns:xlink="http://www.w3.org/1999/xlink">
    <!-- Generator: Sketch 48.2 (47327) - http://www.bohemiancoding.com/sketch -->
    <title>coin</title>
    <desc>Created with Sketch.</desc>
    <defs>
        <filter x="-14.4%" y="-14.4%" width="128.8%" height="128.8%" filterUnits="objectBoundingBox" id="filter-1">
            <feOffset dx="0" dy="0" in="SourceAlpha" result="shadowOffsetOuter1"></feOffset>
            <feGaussianBlur stdDeviation="2.5" in="shadowOffsetOuter1" result="shadowBlurOuter1"></feGaussianBlur>
            <feColorMatrix values="0 0 0 0 0.125490196   0 0 0 0 0.77254902   0 0 0 0 0.396078431  0 0 0 0.2 0" type="matrix" in="shadowBlurOuter1" result="shadowMatrixOuter1"></feColorMatrix>
            <feMerge>
                <feMergeNode in="shadowMatrixOuter1"></feMergeNode>
                <feMergeNode in="SourceGraphic"></feMergeNode>
            </feMerge>
        </filter>
    </defs>
    <g id="Roadmap-content" stroke="none" stroke-width="1" fill="none" fill-rule="evenodd" transform="translate(-299.000000, -2577.000000)">
        <g id="coin" transform="translate(305.000000, 2583.000000)">
            <g filter="url(#filter-1)">
                <circle id="Oval-9" stroke="#20C565" stroke-width="2" cx="29.5" cy="29.5" r="29.5"></circle>
                <circle id="Oval-9" stroke="#20C565" cx="29.5" cy="29.5" r="21.527027"></circle>
                <path d="M19.5971205,29.6115637 C19.5971205,24.6589338 23.4145539,20.5904821 28.3045198,20.2284435 L28.3045198,21.5643098 C26.4934213,21.7374508 24.648093,22.5969981 23.3451888,23.8999024 L25.891231,26.4598901 C26.5367065,25.8144146 27.3989705,25.3663488 28.3045198,25.2120432 L28.3045198,34.0112652 C27.3989705,33.8569596 26.550652,33.4088939 25.9051765,32.7634184 L23.3310622,35.3235872 C24.6339665,36.6264914 26.4934213,37.4860388 28.3045198,37.6591798 L28.3045198,38.9946838 C23.4145539,38.6326452 19.5971205,34.5641936 19.5971205,29.6115637 M33.4884269,29.6117448 C33.4884269,31.6959569 32.1078266,33.4501869 30.1156182,33.936648 L30.1156182,25.2868416 C32.1078266,25.7731215 33.4884269,27.5275326 33.4884269,29.6117448 M38.2702703,38.8443626 L35.6756906,36.2639095 C34.217213,37.722206 32.2889364,38.7030969 30.1156182,38.9564696 L30.1156182,37.6182489 C34.1000349,37.0856049 37.1106239,33.6992129 37.1106239,29.6117448 C37.1106239,25.5240955 34.1000349,22.1378847 30.1156182,21.6052406 L30.1156182,20.2664766 C32.2889364,20.5198493 34.2311584,21.5007402 35.689636,22.9592178 L38.2561437,20.3785836 C36.1357096,18.2581495 33.3755955,16.8648714 30.1156182,16.5982777 L30.1156182,13.7079457 L28.3045198,13.7079457 L28.3045198,16.5676702 C21.4223455,16.9351421 15.9459459,22.6448111 15.9459459,29.6115637 C15.9459459,36.5783162 21.4223455,42.2878042 28.3045198,42.655276 L28.3045198,45.0399494 L30.1156182,45.0399494 L30.1156182,42.6246685 C33.3755955,42.3580748 36.1496551,40.9649778 38.2702703,38.8443626" id="Fill-1" fill="#20C565"></path>
                <path d="M29.5,0.797297297 L29.5,7.17567568 M46.3710253,6.27902573 L42.6219086,11.4392422 M56.7978924,20.6303771 L50.7316941,22.6014044 M56.7978924,38.3696229 L50.7316941,36.3985956 M46.3710253,52.7209743 L42.6219086,47.5607578 M29.5,58.2027027 L29.5,51.8243243 M12.6289747,52.7209743 L16.3780914,47.5607578 M2.20210756,38.3696229 L8.26830588,36.3985956 M2.20210756,20.6303771 L8.26830588,22.6014044 M12.6289747,6.27902573 L16.3780914,11.4392422" id="Line-3" stroke="#20C565" stroke-linecap="square"></path>
            </g>
        </g>
    </g>
</svg>