<?xml version="1.0" encoding="UTF-8"?>
<svg width="219px" height="220px" viewBox="0 0 219 220" version="1.1" xmlns="http://www.w3.org/2000/svg" xmlns:xlink="http://www.w3.org/1999/xlink">
    <!-- Generator: Sketch 48.2 (47327) - http://www.bohemiancoding.com/sketch -->
    <title>Group 6</title>
    <desc>Created with Sketch.</desc>
    <defs>
        <path d="M109.5,219 C49.0248199,219 0,169.97518 0,109.5 C0,49.0248199 49.0248199,0 109.5,0 C169.97518,0 219,49.0248199 219,109.5 C219,169.97518 169.97518,219 109.5,219 Z M109.5,194 C156.168061,194 194,156.168061 194,109.5 C194,62.8319386 156.168061,25 109.5,25 C62.8319386,25 25,62.8319386 25,109.5 C25,156.168061 62.8319386,194 109.5,194 Z" id="path-1"></path>
        <filter x="-0.2%" y="-0.2%" width="100.5%" height="100.9%" filterUnits="objectBoundingBox" id="filter-2">
            <feOffset dx="0" dy="1" in="SourceAlpha" result="shadowOffsetOuter1"></feOffset>
            <feColorMatrix values="0 0 0 0 0.117647059   0 0 0 0 0.145098039   0 0 0 0 0.309803922  0 0 0 0.6 0" type="matrix" in="shadowOffsetOuter1"></feColorMatrix>
        </filter>
        <filter x="-0.9%" y="-0.9%" width="101.8%" height="102.3%" filterUnits="objectBoundingBox" id="filter-3">
            <feGaussianBlur stdDeviation="1.5" in="SourceAlpha" result="shadowBlurInner1"></feGaussianBlur>
            <feOffset dx="0" dy="1" in="shadowBlurInner1" result="shadowOffsetInner1"></feOffset>
            <feComposite in="shadowOffsetInner1" in2="SourceAlpha" operator="arithmetic" k2="-1" k3="1" result="shadowInnerInner1"></feComposite>
            <feColorMatrix values="0 0 0 0 0   0 0 0 0 0   0 0 0 0 0  0 0 0 0.5 0" type="matrix" in="shadowInnerInner1"></feColorMatrix>
        </filter>
        <path d="M108.528302,9.5 C108.528302,9.22385763 108.75216,9 109.028302,9 C109.304444,9 109.528302,9.22385763 109.528302,9.5 L109.528302,16.1037736 C109.528302,16.379916 109.304444,16.6037736 109.028302,16.6037736 C108.75216,16.6037736 108.528302,16.379916 108.528302,16.1037736 L108.528302,9.5 Z M114.801954,9.66304584 C114.821217,9.38757614 115.060145,9.17987934 115.335615,9.19914205 C115.611084,9.21840477 115.818781,9.45733261 115.799518,9.73280232 L115.338863,16.3204894 C115.3196,16.5959591 115.080672,16.8036559 114.805202,16.7843932 C114.529733,16.7651305 114.322036,16.5262027 114.341298,16.250733 L114.801954,9.66304584 Z M120.994795,10.2224511 C121.028449,9.94836706 121.277919,9.75345942 121.552003,9.78711271 C121.826087,9.820766 122.020995,10.0702364 121.987341,10.3443205 L121.182544,16.8988705 C121.148891,17.1729546 120.89942,17.3678622 120.625336,17.3342089 C120.351252,17.3005556 120.156345,17.0510852 120.189998,16.7770012 L120.994795,10.2224511 Z M127.19855,11.1696948 C127.251241,10.898626 127.513699,10.7215953 127.784768,10.7742857 C128.055837,10.8269762 128.232868,11.089435 128.180177,11.3605038 L126.920118,17.8429475 C126.867427,18.1140163 126.604969,18.291047 126.3339,18.2383566 C126.062831,18.1856661 125.8858,17.9232074 125.938491,17.6521385 L127.19855,11.1696948 Z M133.272489,12.500249 C133.339294,12.2323092 133.610658,12.0692572 133.878598,12.1360621 C134.146538,12.202867 134.30959,12.4742311 134.242785,12.7421709 L132.645187,19.1497842 C132.578382,19.4177239 132.307018,19.580776 132.039079,19.5139711 C131.771139,19.4471662 131.608087,19.175802 131.674892,18.9078623 L133.272489,12.500249 Z M139.30871,14.2167533 C139.394043,13.9541263 139.67612,13.8104009 139.938747,13.8957336 C140.201374,13.9810663 140.3451,14.2631433 140.259767,14.5257703 L138.219089,20.8063322 C138.133756,21.0689592 137.851679,21.2126847 137.589052,21.127352 C137.326425,21.0420193 137.182699,20.7599422 137.268032,20.4973152 L139.30871,14.2167533 Z M145.224925,16.3104844 C145.328369,16.0544496 145.619785,15.930751 145.87582,16.0341958 C146.131855,16.1376405 146.255553,16.4290562 146.152108,16.685091 L143.678291,22.8080032 C143.574847,23.064038 143.283431,23.1877366 143.027396,23.0842919 C142.771361,22.9808471 142.647663,22.6894314 142.751107,22.4333966 L145.224925,16.3104844 Z M150.9418,18.7562035 C151.058503,18.5059335 151.355994,18.3976559 151.606264,18.5143587 C151.856534,18.6310616 151.964811,18.9285518 151.848108,19.1788218 L149.057233,25.1638732 C148.94053,25.4141432 148.64304,25.5224208 148.39277,25.405718 C148.1425,25.2890151 148.034222,24.9915249 148.150925,24.7412549 L150.9418,18.7562035 Z M156.549208,21.5741515 C156.683084,21.3326319 156.987403,21.24537 157.228922,21.3792464 C157.470442,21.5131229 157.557704,21.8174415 157.423827,22.0589611 L154.222254,27.8347516 C154.088378,28.0762712 153.784059,28.1635331 153.54254,28.0296567 C153.30102,27.8957802 153.213758,27.5914616 153.347635,27.349942 L156.549208,21.5741515 Z M161.914703,24.716534 C162.061036,24.482352 162.369505,24.4111364 162.603687,24.5574696 C162.837869,24.7038028 162.909084,25.0122713 162.762751,25.2464533 L159.263284,30.8467709 C159.116951,31.0809529 158.808482,31.1521685 158.5743,31.0058353 C158.340118,30.8595021 158.268903,30.5510336 158.415236,30.3168516 L161.914703,24.716534 Z M167.125061,28.2143216 C167.287374,27.9909177 167.600059,27.9413933 167.823463,28.1037057 C168.046866,28.2660182 168.096391,28.578703 167.934078,28.8021069 L164.052478,34.1446719 C163.890165,34.3680758 163.57748,34.4176002 163.354077,34.2552878 C163.130673,34.0929754 163.081148,33.7802905 163.243461,33.5568867 L167.125061,28.2143216 Z M172.104717,32.0337889 C172.282218,31.8222516 172.597596,31.7946596 172.809133,31.9721605 C173.02067,32.1496614 173.048262,32.4650392 172.870761,32.6765765 L168.625938,37.7353606 C168.448437,37.9468979 168.133059,37.9744899 167.921522,37.796989 C167.709984,37.6194881 167.682392,37.3041103 167.859893,37.092573 L172.104717,32.0337889 Z M176.78602,36.1264178 C176.974349,35.9244601 177.290739,35.9134115 177.492696,36.1017402 C177.694654,36.2900688 177.705703,36.6064585 177.517374,36.8084162 L173.013611,41.6381105 C172.825283,41.8400682 172.508893,41.8511168 172.306935,41.6627881 C172.104978,41.4744595 172.093929,41.1580698 172.282258,40.9561121 L176.78602,36.1264178 Z M181.248188,40.5392297 C181.450145,40.350901 181.766535,40.3619496 181.954864,40.5639074 C182.143192,40.7658651 182.132144,41.0822547 181.930186,41.2705834 L177.100492,45.7743461 C176.898534,45.9626748 176.582144,45.9516262 176.393816,45.7496685 C176.205487,45.5477107 176.216536,45.2313211 176.418493,45.0429924 L181.248188,40.5392297 Z M185.380027,45.1858423 C185.591565,45.0083414 185.906942,45.0359334 186.084443,45.2474707 C186.261944,45.4590081 186.234352,45.7743859 186.022815,45.9518868 L180.964031,50.1967106 C180.752493,50.3742115 180.437116,50.3466195 180.259615,50.1350822 C180.082114,49.9235448 180.109706,49.6081671 180.321243,49.4306662 L185.380027,45.1858423 Z M189.254497,50.1225254 C189.477901,49.9602129 189.790586,50.0097374 189.952898,50.2331412 C190.11521,50.4565451 190.065686,50.7692299 189.842282,50.9315423 L184.499717,54.8131431 C184.276313,54.9754555 183.963628,54.9259311 183.801316,54.7025272 C183.639004,54.4791233 183.688528,54.1664385 183.911932,54.0041261 L189.254497,50.1225254 Z M192.81015,55.2938528 C193.044333,55.1475197 193.352801,55.2187352 193.499134,55.4529172 C193.645467,55.6870993 193.574252,55.9955678 193.34007,56.1419009 L187.739752,59.6413678 C187.50557,59.7877009 187.197102,59.7164854 187.050768,59.4823033 C186.904435,59.2481213 186.975651,58.9396528 187.209833,58.7933197 L192.81015,55.2938528 Z M195.997643,60.6327765 C196.239162,60.4989001 196.543481,60.586162 196.677357,60.8276816 C196.811234,61.0692011 196.723972,61.3735198 196.482452,61.5073962 L190.706662,64.7089692 C190.465142,64.8428457 190.160824,64.7555837 190.026947,64.5140642 C189.893071,64.2725446 189.980333,63.968226 190.221852,63.8343495 L195.997643,60.6327765 Z M198.877782,66.2084955 C199.128052,66.0917927 199.425542,66.2000703 199.542245,66.4503403 C199.658948,66.7006102 199.55067,66.9981005 199.3004,67.1148033 L193.315349,69.9056786 C193.065079,70.0223814 192.767589,69.9141038 192.650886,69.6638338 C192.534183,69.4135638 192.642461,69.1160736 192.892731,68.9993708 L198.877782,66.2084955 Z M201.371513,71.9044954 C201.627548,71.8010506 201.918963,71.9247493 202.022408,72.180784 C202.125853,72.4368188 202.002154,72.7282345 201.746119,72.8316792 L195.623207,75.3054964 C195.367172,75.4089411 195.075757,75.2852425 194.972312,75.0292077 C194.868867,74.773173 194.992566,74.4817573 195.248601,74.3783125 L201.371513,71.9044954 Z M203.530833,77.7968369 C203.79346,77.7115042 204.075538,77.8552297 204.16087,78.1178567 C204.246203,78.3804837 204.102477,78.6625608 203.83985,78.7478934 L197.559289,80.7885717 C197.296662,80.8739044 197.014584,80.7301789 196.929252,80.4675519 C196.843919,80.2049249 196.987645,79.9228479 197.250272,79.8375152 L203.530833,77.7968369 Z M205.314433,83.813819 C205.582373,83.7470141 205.853737,83.9100661 205.920542,84.1780059 C205.987347,84.4459457 205.824295,84.7173098 205.556355,84.7841147 L199.148742,86.3817121 C198.880802,86.448517 198.609438,86.285465 198.542633,86.0175252 C198.475828,85.7495855 198.63888,85.4782213 198.90682,85.4114164 L205.314433,83.813819 Z M206.6961,89.8764264 C206.967169,89.823736 207.229628,90.0007667 207.282318,90.2718355 C207.335008,90.5429044 207.157978,90.8053632 206.886909,90.8580536 L200.404465,92.118113 C200.133396,92.1708035 199.870938,91.9937728 199.818247,91.7227039 C199.765557,91.4516351 199.942587,91.1891763 200.213656,91.1364858 L206.6961,89.8764264 Z M207.712283,96.0692623 C207.986367,96.035609 208.235838,96.2305166 208.269491,96.5046007 C208.303144,96.7786847 208.108237,97.0281551 207.834153,97.0618084 L201.279603,97.866606 C201.005519,97.9002593 200.756048,97.7053516 200.722395,97.4312676 C200.688742,97.1571835 200.883649,96.9077131 201.157733,96.8740598 L207.712283,96.0692623 Z M208.323801,102.257085 C208.599271,102.237823 208.838199,102.445519 208.857462,102.720989 C208.876724,102.996459 208.669028,103.235387 208.393558,103.254649 L201.805871,103.715305 C201.530401,103.734568 201.291473,103.526871 201.272211,103.251402 C201.252948,102.975932 201.460645,102.737004 201.736114,102.717741 L208.323801,102.257085 Z M208.556604,108.528302 C208.832746,108.528302 209.056604,108.75216 209.056604,109.028302 C209.056604,109.304444 208.832746,109.528302 208.556604,109.528302 L201.95283,109.528302 C201.676688,109.528302 201.45283,109.304444 201.45283,109.028302 C201.45283,108.75216 201.676688,108.528302 201.95283,108.528302 L208.556604,108.528302 Z M208.393558,114.801954 C208.669028,114.821217 208.876724,115.060145 208.857462,115.335615 C208.838199,115.611084 208.599271,115.818781 208.323801,115.799518 L201.736114,115.338863 C201.460645,115.3196 201.252948,115.080672 201.272211,114.805202 C201.291473,114.529733 201.530401,114.322036 201.805871,114.341298 L208.393558,114.801954 Z M207.834153,120.994795 C208.108237,121.028449 208.303144,121.277919 208.269491,121.552003 C208.235838,121.826087 207.986367,122.020995 207.712283,121.987341 L201.157733,121.182544 C200.883649,121.148891 200.688742,120.89942 200.722395,120.625336 C200.756048,120.351252 201.005519,120.156345 201.279603,120.189998 L207.834153,120.994795 Z M206.886909,127.19855 C207.157978,127.251241 207.335008,127.513699 207.282318,127.784768 C207.229628,128.055837 206.967169,128.232868 206.6961,128.180177 L200.213656,126.920118 C199.942587,126.867427 199.765557,126.604969 199.818247,126.3339 C199.870938,126.062831 200.133396,125.8858 200.404465,125.938491 L206.886909,127.19855 Z M205.556355,133.272489 C205.824295,133.339294 205.987347,133.610658 205.920542,133.878598 C205.853737,134.146538 205.582373,134.30959 205.314433,134.242785 L198.90682,132.645187 C198.63888,132.578382 198.475828,132.307018 198.542633,132.039079 C198.609438,131.771139 198.880802,131.608087 199.148742,131.674892 L205.556355,133.272489 Z M203.83985,139.30871 C204.102477,139.394043 204.246203,139.67612 204.16087,139.938747 C204.075538,140.201374 203.79346,140.3451 203.530833,140.259767 L197.250272,138.219089 C196.987645,138.133756 196.843919,137.851679 196.929252,137.589052 C197.014584,137.326425 197.296662,137.182699 197.559289,137.268032 L203.83985,139.30871 Z M201.746119,145.224925 C202.002154,145.328369 202.125853,145.619785 202.022408,145.87582 C201.918963,146.131855 201.627548,146.255553 201.371513,146.152108 L195.248601,143.678291 C194.992566,143.574847 194.868867,143.283431 194.972312,143.027396 C195.075757,142.771361 195.367172,142.647663 195.623207,142.751107 L201.746119,145.224925 Z M199.3004,150.9418 C199.55067,151.058503 199.658948,151.355994 199.542245,151.606264 C199.425542,151.856534 199.128052,151.964811 198.877782,151.848108 L192.892731,149.057233 C192.642461,148.94053 192.534183,148.64304 192.650886,148.39277 C192.767589,148.1425 193.065079,148.034222 193.315349,148.150925 L199.3004,150.9418 Z M196.482452,156.549208 C196.723972,156.683084 196.811234,156.987403 196.677357,157.228922 C196.543481,157.470442 196.239162,157.557704 195.997643,157.423827 L190.221852,154.222254 C189.980333,154.088378 189.893071,153.784059 190.026947,153.54254 C190.160824,153.30102 190.465142,153.213758 190.706662,153.347635 L196.482452,156.549208 Z M193.34007,161.914703 C193.574252,162.061036 193.645467,162.369505 193.499134,162.603687 C193.352801,162.837869 193.044333,162.909084 192.81015,162.762751 L187.209833,159.263284 C186.975651,159.116951 186.904435,158.808482 187.050768,158.5743 C187.197102,158.340118 187.50557,158.268903 187.739752,158.415236 L193.34007,161.914703 Z M189.842282,167.125061 C190.065686,167.287374 190.11521,167.600059 189.952898,167.823463 C189.790586,168.046866 189.477901,168.096391 189.254497,167.934078 L183.911932,164.052478 C183.688528,163.890165 183.639004,163.57748 183.801316,163.354077 C183.963628,163.130673 184.276313,163.081148 184.499717,163.243461 L189.842282,167.125061 Z M186.022815,172.104717 C186.234352,172.282218 186.261944,172.597596 186.084443,172.809133 C185.906942,173.02067 185.591565,173.048262 185.380027,172.870761 L180.321243,168.625938 C180.109706,168.448437 180.082114,168.133059 180.259615,167.921522 C180.437116,167.709984 180.752493,167.682392 180.964031,167.859893 L186.022815,172.104717 Z M181.930186,176.78602 C182.132144,176.974349 182.143192,177.290739 181.954864,177.492696 C181.766535,177.694654 181.450145,177.705703 181.248188,177.517374 L176.418493,173.013611 C176.216536,172.825283 176.205487,172.508893 176.393816,172.306935 C176.582144,172.104978 176.898534,172.093929 177.100492,172.282258 L181.930186,176.78602 Z M177.517374,181.248188 C177.705703,181.450145 177.694654,181.766535 177.492696,181.954864 C177.290739,182.143192 176.974349,182.132144 176.78602,181.930186 L172.282258,177.100492 C172.093929,176.898534 172.104978,176.582144 172.306935,176.393816 C172.508893,176.205487 172.825283,176.216536 173.013611,176.418493 L177.517374,181.248188 Z M172.870761,185.380027 C173.048262,185.591565 173.02067,185.906942 172.809133,186.084443 C172.597596,186.261944 172.282218,186.234352 172.104717,186.022815 L167.859893,180.964031 C167.682392,180.752493 167.709984,180.437116 167.921522,180.259615 C168.133059,180.082114 168.448437,180.109706 168.625938,180.321243 L172.870761,185.380027 Z M167.934078,189.254497 C168.096391,189.477901 168.046866,189.790586 167.823463,189.952898 C167.600059,190.11521 167.287374,190.065686 167.125061,189.842282 L163.243461,184.499717 C163.081148,184.276313 163.130673,183.963628 163.354077,183.801316 C163.57748,183.639004 163.890165,183.688528 164.052478,183.911932 L167.934078,189.254497 Z M162.762751,192.81015 C162.909084,193.044333 162.837869,193.352801 162.603687,193.499134 C162.369505,193.645467 162.061036,193.574252 161.914703,193.34007 L158.415236,187.739752 C158.268903,187.50557 158.340118,187.197102 158.5743,187.050768 C158.808482,186.904435 159.116951,186.975651 159.263284,187.209833 L162.762751,192.81015 Z M157.423827,195.997643 C157.557704,196.239162 157.470442,196.543481 157.228922,196.677357 C156.987403,196.811234 156.683084,196.723972 156.549208,196.482452 L153.347635,190.706662 C153.213758,190.465142 153.30102,190.160824 153.54254,190.026947 C153.784059,189.893071 154.088378,189.980333 154.222254,190.221852 L157.423827,195.997643 Z M151.848108,198.877782 C151.964811,199.128052 151.856534,199.425542 151.606264,199.542245 C151.355994,199.658948 151.058503,199.55067 150.9418,199.3004 L148.150925,193.315349 C148.034222,193.065079 148.1425,192.767589 148.39277,192.650886 C148.64304,192.534183 148.94053,192.642461 149.057233,192.892731 L151.848108,198.877782 Z M146.152108,201.371513 C146.255553,201.627548 146.131855,201.918963 145.87582,202.022408 C145.619785,202.125853 145.328369,202.002154 145.224925,201.746119 L142.751107,195.623207 C142.647663,195.367172 142.771361,195.075757 143.027396,194.972312 C143.283431,194.868867 143.574847,194.992566 143.678291,195.248601 L146.152108,201.371513 Z M140.259767,203.530833 C140.3451,203.79346 140.201374,204.075538 139.938747,204.16087 C139.67612,204.246203 139.394043,204.102477 139.30871,203.83985 L137.268032,197.559289 C137.182699,197.296662 137.326425,197.014584 137.589052,196.929252 C137.851679,196.843919 138.133756,196.987645 138.219089,197.250272 L140.259767,203.530833 Z M134.242785,205.314433 C134.30959,205.582373 134.146538,205.853737 133.878598,205.920542 C133.610658,205.987347 133.339294,205.824295 133.272489,205.556355 L131.674892,199.148742 C131.608087,198.880802 131.771139,198.609438 132.039079,198.542633 C132.307018,198.475828 132.578382,198.63888 132.645187,198.90682 L134.242785,205.314433 Z M128.180177,206.6961 C128.232868,206.967169 128.055837,207.229628 127.784768,207.282318 C127.513699,207.335008 127.251241,207.157978 127.19855,206.886909 L125.938491,200.404465 C125.8858,200.133396 126.062831,199.870938 126.3339,199.818247 C126.604969,199.765557 126.867427,199.942587 126.920118,200.213656 L128.180177,206.6961 Z M121.987341,207.712283 C122.020995,207.986367 121.826087,208.235838 121.552003,208.269491 C121.277919,208.303144 121.028449,208.108237 120.994795,207.834153 L120.189998,201.279603 C120.156345,201.005519 120.351252,200.756048 120.625336,200.722395 C120.89942,200.688742 121.148891,200.883649 121.182544,201.157733 L121.987341,207.712283 Z M115.799518,208.323801 C115.818781,208.599271 115.611084,208.838199 115.335615,208.857462 C115.060145,208.876724 114.821217,208.669028 114.801954,208.393558 L114.341298,201.805871 C114.322036,201.530401 114.529733,201.291473 114.805202,201.272211 C115.080672,201.252948 115.3196,201.460645 115.338863,201.736114 L115.799518,208.323801 Z M109.528302,208.556604 C109.528302,208.832746 109.304444,209.056604 109.028302,209.056604 C108.75216,209.056604 108.528302,208.832746 108.528302,208.556604 L108.528302,201.95283 C108.528302,201.676688 108.75216,201.45283 109.028302,201.45283 C109.304444,201.45283 109.528302,201.676688 109.528302,201.95283 L109.528302,208.556604 Z M103.254649,208.393558 C103.235387,208.669028 102.996459,208.876724 102.720989,208.857462 C102.445519,208.838199 102.237823,208.599271 102.257085,208.323801 L102.717741,201.736114 C102.737004,201.460645 102.975932,201.252948 103.251402,201.272211 C103.526871,201.291473 103.734568,201.530401 103.715305,201.805871 L103.254649,208.393558 Z M97.0618084,207.834153 C97.0281551,208.108237 96.7786847,208.303144 96.5046007,208.269491 C96.2305166,208.235838 96.035609,207.986367 96.0692623,207.712283 L96.8740598,201.157733 C96.9077131,200.883649 97.1571835,200.688742 97.4312676,200.722395 C97.7053516,200.756048 97.9002593,201.005519 97.866606,201.279603 L97.0618084,207.834153 Z M90.8580536,206.886909 C90.8053632,207.157978 90.5429044,207.335008 90.2718355,207.282318 C90.0007667,207.229628 89.823736,206.967169 89.8764264,206.6961 L91.1364858,200.213656 C91.1891763,199.942587 91.4516351,199.765557 91.7227039,199.818247 C91.9937728,199.870938 92.1708035,200.133396 92.118113,200.404465 L90.8580536,206.886909 Z M84.7841147,205.556355 C84.7173098,205.824295 84.4459457,205.987347 84.1780059,205.920542 C83.9100661,205.853737 83.7470141,205.582373 83.813819,205.314433 L85.4114164,198.90682 C85.4782213,198.63888 85.7495855,198.475828 86.0175252,198.542633 C86.285465,198.609438 86.448517,198.880802 86.3817121,199.148742 L84.7841147,205.556355 Z M78.7478934,203.83985 C78.6625608,204.102477 78.3804837,204.246203 78.1178567,204.16087 C77.8552297,204.075538 77.7115042,203.79346 77.7968369,203.530833 L79.8375152,197.250272 C79.9228479,196.987645 80.2049249,196.843919 80.4675519,196.929252 C80.7301789,197.014584 80.8739044,197.296662 80.7885717,197.559289 L78.7478934,203.83985 Z M72.8316792,201.746119 C72.7282345,202.002154 72.4368188,202.125853 72.180784,202.022408 C71.9247493,201.918963 71.8010506,201.627548 71.9044954,201.371513 L74.3783125,195.248601 C74.4817573,194.992566 74.773173,194.868867 75.0292077,194.972312 C75.2852425,195.075757 75.4089411,195.367172 75.3054964,195.623207 L72.8316792,201.746119 Z M67.1148033,199.3004 C66.9981005,199.55067 66.7006102,199.658948 66.4503403,199.542245 C66.2000703,199.425542 66.0917927,199.128052 66.2084955,198.877782 L68.9993708,192.892731 C69.1160736,192.642461 69.4135638,192.534183 69.6638338,192.650886 C69.9141038,192.767589 70.0223814,193.065079 69.9056786,193.315349 L67.1148033,199.3004 Z M61.5073962,196.482452 C61.3735198,196.723972 61.0692011,196.811234 60.8276816,196.677357 C60.586162,196.543481 60.4989001,196.239162 60.6327765,195.997643 L63.8343495,190.221852 C63.968226,189.980333 64.2725446,189.893071 64.5140642,190.026947 C64.7555837,190.160824 64.8428457,190.465142 64.7089692,190.706662 L61.5073962,196.482452 Z M56.1419009,193.34007 C55.9955678,193.574252 55.6870993,193.645467 55.4529172,193.499134 C55.2187352,193.352801 55.1475197,193.044333 55.2938528,192.81015 L58.7933197,187.209833 C58.9396528,186.975651 59.2481213,186.904435 59.4823033,187.050768 C59.7164854,187.197102 59.7877009,187.50557 59.6413678,187.739752 L56.1419009,193.34007 Z M50.9315423,189.842282 C50.7692299,190.065686 50.4565451,190.11521 50.2331412,189.952898 C50.0097374,189.790586 49.9602129,189.477901 50.1225254,189.254497 L54.0041261,183.911932 C54.1664385,183.688528 54.4791233,183.639004 54.7025272,183.801316 C54.9259311,183.963628 54.9754555,184.276313 54.8131431,184.499717 L50.9315423,189.842282 Z M45.9518868,186.022815 C45.7743859,186.234352 45.4590081,186.261944 45.2474707,186.084443 C45.0359334,185.906942 45.0083414,185.591565 45.1858423,185.380027 L49.4306662,180.321243 C49.6081671,180.109706 49.9235448,180.082114 50.1350822,180.259615 C50.3466195,180.437116 50.3742115,180.752493 50.1967106,180.964031 L45.9518868,186.022815 Z M41.2705834,181.930186 C41.0822547,182.132144 40.7658651,182.143192 40.5639074,181.954864 C40.3619496,181.766535 40.350901,181.450145 40.5392297,181.248188 L45.0429924,176.418493 C45.2313211,176.216536 45.5477107,176.205487 45.7496685,176.393816 C45.9516262,176.582144 45.9626748,176.898534 45.7743461,177.100492 L41.2705834,181.930186 Z M36.8084162,177.517374 C36.6064585,177.705703 36.2900688,177.694654 36.1017402,177.492696 C35.9134115,177.290739 35.9244601,176.974349 36.1264178,176.78602 L40.9561121,172.282258 C41.1580698,172.093929 41.4744595,172.104978 41.6627881,172.306935 C41.8511168,172.508893 41.8400682,172.825283 41.6381105,173.013611 L36.8084162,177.517374 Z M32.6765765,172.870761 C32.4650392,173.048262 32.1496614,173.02067 31.9721605,172.809133 C31.7946596,172.597596 31.8222516,172.282218 32.0337889,172.104717 L37.092573,167.859893 C37.3041103,167.682392 37.6194881,167.709984 37.796989,167.921522 C37.9744899,168.133059 37.9468979,168.448437 37.7353606,168.625938 L32.6765765,172.870761 Z M28.8021069,167.934078 C28.578703,168.096391 28.2660182,168.046866 28.1037057,167.823463 C27.9413933,167.600059 27.9909177,167.287374 28.2143216,167.125061 L33.5568867,163.243461 C33.7802905,163.081148 34.0929754,163.130673 34.2552878,163.354077 C34.4176002,163.57748 34.3680758,163.890165 34.1446719,164.052478 L28.8021069,167.934078 Z M25.2464533,162.762751 C25.0122713,162.909084 24.7038028,162.837869 24.5574696,162.603687 C24.4111364,162.369505 24.482352,162.061036 24.716534,161.914703 L30.3168516,158.415236 C30.5510336,158.268903 30.8595021,158.340118 31.0058353,158.5743 C31.1521685,158.808482 31.0809529,159.116951 30.8467709,159.263284 L25.2464533,162.762751 Z M22.0589611,157.423827 C21.8174415,157.557704 21.5131229,157.470442 21.3792464,157.228922 C21.24537,156.987403 21.3326319,156.683084 21.5741515,156.549208 L27.349942,153.347635 C27.5914616,153.213758 27.8957802,153.30102 28.0296567,153.54254 C28.1635331,153.784059 28.0762712,154.088378 27.8347516,154.222254 L22.0589611,157.423827 Z M19.1788218,151.848108 C18.9285518,151.964811 18.6310616,151.856534 18.5143587,151.606264 C18.3976559,151.355994 18.5059335,151.058503 18.7562035,150.9418 L24.7412549,148.150925 C24.9915249,148.034222 25.2890151,148.1425 25.405718,148.39277 C25.5224208,148.64304 25.4141432,148.94053 25.1638732,149.057233 L19.1788218,151.848108 Z M16.685091,146.152108 C16.4290562,146.255553 16.1376405,146.131855 16.0341958,145.87582 C15.930751,145.619785 16.0544496,145.328369 16.3104844,145.224925 L22.4333966,142.751107 C22.6894314,142.647663 22.9808471,142.771361 23.0842919,143.027396 C23.1877366,143.283431 23.064038,143.574847 22.8080032,143.678291 L16.685091,146.152108 Z M14.5257703,140.259767 C14.2631433,140.3451 13.9810663,140.201374 13.8957336,139.938747 C13.8104009,139.67612 13.9541263,139.394043 14.2167533,139.30871 L20.4973152,137.268032 C20.7599422,137.182699 21.0420193,137.326425 21.127352,137.589052 C21.2126847,137.851679 21.0689592,138.133756 20.8063322,138.219089 L14.5257703,140.259767 Z M12.7421709,134.242785 C12.4742311,134.30959 12.202867,134.146538 12.1360621,133.878598 C12.0692572,133.610658 12.2323092,133.339294 12.500249,133.272489 L18.9078623,131.674892 C19.175802,131.608087 19.4471662,131.771139 19.5139711,132.039079 C19.580776,132.307018 19.4177239,132.578382 19.1497842,132.645187 L12.7421709,134.242785 Z M11.3605038,128.180177 C11.089435,128.232868 10.8269762,128.055837 10.7742857,127.784768 C10.7215953,127.513699 10.898626,127.251241 11.1696948,127.19855 L17.6521385,125.938491 C17.9232074,125.8858 18.1856661,126.062831 18.2383566,126.3339 C18.291047,126.604969 18.1140163,126.867427 17.8429475,126.920118 L11.3605038,128.180177 Z M10.3443205,121.987341 C10.0702364,122.020995 9.820766,121.826087 9.78711271,121.552003 C9.75345942,121.277919 9.94836706,121.028449 10.2224511,120.994795 L16.7770012,120.189998 C17.0510852,120.156345 17.3005556,120.351252 17.3342089,120.625336 C17.3678622,120.89942 17.1729546,121.148891 16.8988705,121.182544 L10.3443205,121.987341 Z M9.73280232,115.799518 C9.45733261,115.818781 9.21840477,115.611084 9.19914205,115.335615 C9.17987934,115.060145 9.38757614,114.821217 9.66304584,114.801954 L16.250733,114.341298 C16.5262027,114.322036 16.7651305,114.529733 16.7843932,114.805202 C16.8036559,115.080672 16.5959591,115.3196 16.3204894,115.338863 L9.73280232,115.799518 Z M9.5,109.528302 C9.22385763,109.528302 9,109.304444 9,109.028302 C9,108.75216 9.22385763,108.528302 9.5,108.528302 L16.1037736,108.528302 C16.379916,108.528302 16.6037736,108.75216 16.6037736,109.028302 C16.6037736,109.304444 16.379916,109.528302 16.1037736,109.528302 L9.5,109.528302 Z M9.66304584,103.254649 C9.38757614,103.235387 9.17987934,102.996459 9.19914205,102.720989 C9.21840477,102.445519 9.45733261,102.237823 9.73280232,102.257085 L16.3204894,102.717741 C16.5959591,102.737004 16.8036559,102.975932 16.7843932,103.251402 C16.7651305,103.526871 16.5262027,103.734568 16.250733,103.715305 L9.66304584,103.254649 Z M10.2224511,97.0618084 C9.94836706,97.0281551 9.75345942,96.7786847 9.78711271,96.5046007 C9.820766,96.2305166 10.0702364,96.035609 10.3443205,96.0692623 L16.8988705,96.8740598 C17.1729546,96.9077131 17.3678622,97.1571835 17.3342089,97.4312676 C17.3005556,97.7053516 17.0510852,97.9002593 16.7770012,97.866606 L10.2224511,97.0618084 Z M11.1696948,90.8580536 C10.898626,90.8053632 10.7215953,90.5429044 10.7742857,90.2718355 C10.8269762,90.0007667 11.089435,89.823736 11.3605038,89.8764264 L17.8429475,91.1364858 C18.1140163,91.1891763 18.291047,91.4516351 18.2383566,91.7227039 C18.1856661,91.9937728 17.9232074,92.1708035 17.6521385,92.118113 L11.1696948,90.8580536 Z M12.500249,84.7841147 C12.2323092,84.7173098 12.0692572,84.4459457 12.1360621,84.1780059 C12.202867,83.9100661 12.4742311,83.7470141 12.7421709,83.813819 L19.1497842,85.4114164 C19.4177239,85.4782213 19.580776,85.7495855 19.5139711,86.0175252 C19.4471662,86.285465 19.175802,86.448517 18.9078623,86.3817121 L12.500249,84.7841147 Z M14.2167533,78.7478934 C13.9541263,78.6625608 13.8104009,78.3804837 13.8957336,78.1178567 C13.9810663,77.8552297 14.2631433,77.7115042 14.5257703,77.7968369 L20.8063322,79.8375152 C21.0689592,79.9228479 21.2126847,80.2049249 21.127352,80.4675519 C21.0420193,80.7301789 20.7599422,80.8739044 20.4973152,80.7885717 L14.2167533,78.7478934 Z M16.3104844,72.8316792 C16.0544496,72.7282345 15.930751,72.4368188 16.0341958,72.180784 C16.1376405,71.9247493 16.4290562,71.8010506 16.685091,71.9044954 L22.8080032,74.3783125 C23.064038,74.4817573 23.1877366,74.773173 23.0842919,75.0292077 C22.9808471,75.2852425 22.6894314,75.4089411 22.4333966,75.3054964 L16.3104844,72.8316792 Z M18.7562035,67.1148033 C18.5059335,66.9981005 18.3976559,66.7006102 18.5143587,66.4503403 C18.6310616,66.2000703 18.9285518,66.0917927 19.1788218,66.2084955 L25.1638732,68.9993708 C25.4141432,69.1160736 25.5224208,69.4135638 25.405718,69.6638338 C25.2890151,69.9141038 24.9915249,70.0223814 24.7412549,69.9056786 L18.7562035,67.1148033 Z M21.5741515,61.5073962 C21.3326319,61.3735198 21.24537,61.0692011 21.3792464,60.8276816 C21.5131229,60.586162 21.8174415,60.4989001 22.0589611,60.6327765 L27.8347516,63.8343495 C28.0762712,63.968226 28.1635331,64.2725446 28.0296567,64.5140642 C27.8957802,64.7555837 27.5914616,64.8428457 27.349942,64.7089692 L21.5741515,61.5073962 Z M24.716534,56.1419009 C24.482352,55.9955678 24.4111364,55.6870993 24.5574696,55.4529172 C24.7038028,55.2187352 25.0122713,55.1475197 25.2464533,55.2938528 L30.8467709,58.7933197 C31.0809529,58.9396528 31.1521685,59.2481213 31.0058353,59.4823033 C30.8595021,59.7164854 30.5510336,59.7877009 30.3168516,59.6413678 L24.716534,56.1419009 Z M28.2143216,50.9315423 C27.9909177,50.7692299 27.9413933,50.4565451 28.1037057,50.2331412 C28.2660182,50.0097374 28.578703,49.9602129 28.8021069,50.1225254 L34.1446719,54.0041261 C34.3680758,54.1664385 34.4176002,54.4791233 34.2552878,54.7025272 C34.0929754,54.9259311 33.7802905,54.9754555 33.5568867,54.8131431 L28.2143216,50.9315423 Z M32.0337889,45.9518868 C31.8222516,45.7743859 31.7946596,45.4590081 31.9721605,45.2474707 C32.1496614,45.0359334 32.4650392,45.0083414 32.6765765,45.1858423 L37.7353606,49.4306662 C37.9468979,49.6081671 37.9744899,49.9235448 37.796989,50.1350822 C37.6194881,50.3466195 37.3041103,50.3742115 37.092573,50.1967106 L32.0337889,45.9518868 Z M36.1264178,41.2705834 C35.9244601,41.0822547 35.9134115,40.7658651 36.1017402,40.5639074 C36.2900688,40.3619496 36.6064585,40.350901 36.8084162,40.5392297 L41.6381105,45.0429924 C41.8400682,45.2313211 41.8511168,45.5477107 41.6627881,45.7496685 C41.4744595,45.9516262 41.1580698,45.9626748 40.9561121,45.7743461 L36.1264178,41.2705834 Z M40.5392297,36.8084162 C40.350901,36.6064585 40.3619496,36.2900688 40.5639074,36.1017402 C40.7658651,35.9134115 41.0822547,35.9244601 41.2705834,36.1264178 L45.7743461,40.9561121 C45.9626748,41.1580698 45.9516262,41.4744595 45.7496685,41.6627881 C45.5477107,41.8511168 45.2313211,41.8400682 45.0429924,41.6381105 L40.5392297,36.8084162 Z M45.1858423,32.6765765 C45.0083414,32.4650392 45.0359334,32.1496614 45.2474707,31.9721605 C45.4590081,31.7946596 45.7743859,31.8222516 45.9518868,32.0337889 L50.1967106,37.092573 C50.3742115,37.3041103 50.3466195,37.6194881 50.1350822,37.796989 C49.9235448,37.9744899 49.6081671,37.9468979 49.4306662,37.7353606 L45.1858423,32.6765765 Z M50.1225254,28.8021069 C49.9602129,28.578703 50.0097374,28.2660182 50.2331412,28.1037057 C50.4565451,27.9413933 50.7692299,27.9909177 50.9315423,28.2143216 L54.8131431,33.5568867 C54.9754555,33.7802905 54.9259311,34.0929754 54.7025272,34.2552878 C54.4791233,34.4176002 54.1664385,34.3680758 54.0041261,34.1446719 L50.1225254,28.8021069 Z M55.2938528,25.2464533 C55.1475197,25.0122713 55.2187352,24.7038028 55.4529172,24.5574696 C55.6870993,24.4111364 55.9955678,24.482352 56.1419009,24.716534 L59.6413678,30.3168516 C59.7877009,30.5510336 59.7164854,30.8595021 59.4823033,31.0058353 C59.2481213,31.1521685 58.9396528,31.0809529 58.7933197,30.8467709 L55.2938528,25.2464533 Z M60.6327765,22.0589611 C60.4989001,21.8174415 60.586162,21.5131229 60.8276816,21.3792464 C61.0692011,21.24537 61.3735198,21.3326319 61.5073962,21.5741515 L64.7089692,27.349942 C64.8428457,27.5914616 64.7555837,27.8957802 64.5140642,28.0296567 C64.2725446,28.1635331 63.968226,28.0762712 63.8343495,27.8347516 L60.6327765,22.0589611 Z M66.2084955,19.1788218 C66.0917927,18.9285518 66.2000703,18.6310616 66.4503403,18.5143587 C66.7006102,18.3976559 66.9981005,18.5059335 67.1148033,18.7562035 L69.9056786,24.7412549 C70.0223814,24.9915249 69.9141038,25.2890151 69.6638338,25.405718 C69.4135638,25.5224208 69.1160736,25.4141432 68.9993708,25.1638732 L66.2084955,19.1788218 Z M71.9044954,16.685091 C71.8010506,16.4290562 71.9247493,16.1376405 72.180784,16.0341958 C72.4368188,15.930751 72.7282345,16.0544496 72.8316792,16.3104844 L75.3054964,22.4333966 C75.4089411,22.6894314 75.2852425,22.9808471 75.0292077,23.0842919 C74.773173,23.1877366 74.4817573,23.064038 74.3783125,22.8080032 L71.9044954,16.685091 Z M77.7968369,14.5257703 C77.7115042,14.2631433 77.8552297,13.9810663 78.1178567,13.8957336 C78.3804837,13.8104009 78.6625608,13.9541263 78.7478934,14.2167533 L80.7885717,20.4973152 C80.8739044,20.7599422 80.7301789,21.0420193 80.4675519,21.127352 C80.2049249,21.2126847 79.9228479,21.0689592 79.8375152,20.8063322 L77.7968369,14.5257703 Z M83.813819,12.7421709 C83.7470141,12.4742311 83.9100661,12.202867 84.1780059,12.1360621 C84.4459457,12.0692572 84.7173098,12.2323092 84.7841147,12.500249 L86.3817121,18.9078623 C86.448517,19.175802 86.285465,19.4471662 86.0175252,19.5139711 C85.7495855,19.580776 85.4782213,19.4177239 85.4114164,19.1497842 L83.813819,12.7421709 Z M89.8764264,11.3605038 C89.823736,11.089435 90.0007667,10.8269762 90.2718355,10.7742857 C90.5429044,10.7215953 90.8053632,10.898626 90.8580536,11.1696948 L92.118113,17.6521385 C92.1708035,17.9232074 91.9937728,18.1856661 91.7227039,18.2383566 C91.4516351,18.291047 91.1891763,18.1140163 91.1364858,17.8429475 L89.8764264,11.3605038 Z M96.0692623,10.3443205 C96.035609,10.0702364 96.2305166,9.820766 96.5046007,9.78711271 C96.7786847,9.75345942 97.0281551,9.94836706 97.0618084,10.2224511 L97.866606,16.7770012 C97.9002593,17.0510852 97.7053516,17.3005556 97.4312676,17.3342089 C97.1571835,17.3678622 96.9077131,17.1729546 96.8740598,16.8988705 L96.0692623,10.3443205 Z M102.257085,9.73280232 C102.237823,9.45733261 102.445519,9.21840477 102.720989,9.19914205 C102.996459,9.17987934 103.235387,9.38757614 103.254649,9.66304584 L103.715305,16.250733 C103.734568,16.5262027 103.526871,16.7651305 103.251402,16.7843932 C102.975932,16.8036559 102.737004,16.5959591 102.717741,16.3204894 L102.257085,9.73280232 Z" id="path-4"></path>
        <path d="M208.310805,109 L148,109.696747" id="path-6"></path>
        <filter x="-12.4%" y="-278.1%" width="124.9%" height="656.2%" filterUnits="objectBoundingBox" id="filter-7">
            <feMorphology radius="1.5" operator="dilate" in="SourceAlpha" result="shadowSpreadOuter1"></feMorphology>
            <feOffset dx="0" dy="0" in="shadowSpreadOuter1" result="shadowOffsetOuter1"></feOffset>
            <feMorphology radius="1.5" operator="erode" in="SourceAlpha" result="shadowInner"></feMorphology>
            <feOffset dx="0" dy="0" in="shadowInner" result="shadowInner"></feOffset>
            <feComposite in="shadowOffsetOuter1" in2="shadowInner" operator="out" result="shadowOffsetOuter1"></feComposite>
            <feGaussianBlur stdDeviation="2" in="shadowOffsetOuter1" result="shadowBlurOuter1"></feGaussianBlur>
            <feColorMatrix values="0 0 0 0 0.125490196   0 0 0 0 0.77254902   0 0 0 0 0.396078431  0 0 0 1 0" type="matrix" in="shadowBlurOuter1"></feColorMatrix>
        </filter>
    </defs>
    <g id="Home-Slide6" stroke="none" stroke-width="1" fill="none" fill-rule="evenodd" transform="translate(-1051.000000, -494.000000)">
        <g id="Group-10" transform="translate(720.000000, 187.000000)">
            <g id="Group-8" transform="translate(0.000000, 307.000000)">
                <g id="Group-6" transform="translate(331.000000, 0.000000)">
                    <g id="Oval-3" fill-rule="nonzero">
                        <use fill="black" fill-opacity="1" filter="url(#filter-2)" xlink:href="#path-1"></use>
                        <use fill="#060C2F" fill-rule="evenodd" xlink:href="#path-1"></use>
                        <use fill="black" fill-opacity="1" filter="url(#filter-3)" xlink:href="#path-1"></use>
                    </g>
                    <mask id="mask-5" fill="white">
                        <use xlink:href="#path-4"></use>
                    </mask>
                    <use id="Line-2" fill="#20C565" fill-rule="nonzero" opacity="0" xlink:href="#path-4"></use>
                    <circle id="Oval-3" fill="" mask="url(#mask-5)" transform="translate(109.000000, 110.000000) rotate(-2.000000) translate(-109.000000, -110.000000) " cx="109" cy="110" r="111"></circle>
                    <g id="Group-5" transform="translate(88.000000, 89.000000)">
                        <circle id="Oval-10" stroke="#20C565" stroke-width="2" fill="#070E39" cx="21" cy="21" r="21"></circle>
                        <path d="M9,25 C10.6489786,29.654372 15.2102005,33 20.5788836,33 C25.7849815,33 30.2317839,29.8539418 32,25.4192018" id="Oval-10" stroke="#20C565" stroke-width="2" fill="#070E39" stroke-linecap="round"></path>
                        <g id="Group-4" transform="translate(12.000000, 14.000000)" fill="#20C565">
                            <ellipse id="Oval-2" cx="1.82142857" cy="2" rx="1.82142857" ry="2"></ellipse>
                            <ellipse id="Oval-2" cx="15.1785714" cy="2" rx="1.82142857" ry="2"></ellipse>
                        </g>
                    </g>
                    <g id="Line-3" stroke-linecap="round">
                        <use fill="black" fill-opacity="1" filter="url(#filter-7)" xlink:href="#path-6"></use>
                        <use stroke="#20C565" stroke-width="3" xlink:href="#path-6"></use>
                    </g>
                </g>
            </g>
        </g>
    </g>
</svg>