<?xml version="1.0" encoding="UTF-8"?>
<svg width="14px" height="12px" viewBox="0 0 14 12" version="1.1" xmlns="http://www.w3.org/2000/svg" xmlns:xlink="http://www.w3.org/1999/xlink">
    <!-- Generator: Sketch 48.2 (47327) - http://www.bohemiancoding.com/sketch -->
    <title>twitter</title>
    <desc>Created with Sketch.</desc>
    <defs></defs>
    <g id="Socials" stroke="none" stroke-width="1" fill="none" fill-rule="evenodd" transform="translate(0.000000, -58.000000)">
        <path d="M9.35437331,58.0025248 L9.35437331,58 L10.0108206,58 L10.2506763,58.0479711 C10.4105843,58.0791145 10.5557601,58.1199279 10.6862038,58.1704238 C10.8166601,58.2209197 10.9428999,58.2798359 11.0649234,58.3471596 C11.1869594,58.4144833 11.2976339,58.4830821 11.3969468,58.5529306 C11.4954139,58.6219459 11.5837818,58.695165 11.6620505,58.7725879 C11.7394608,58.8508566 11.8602344,58.871055 12.0243463,58.833183 C12.1884581,58.7953111 12.3651939,58.7427069 12.5545537,58.6753832 C12.7439134,58.6080595 12.9311776,58.5323156 13.116321,58.4481515 C13.301477,58.3639874 13.4142597,58.31055 13.4546564,58.2878269 C13.4942074,58.2642705 13.5152516,58.2516465 13.5177764,58.2499549 L13.5202885,58.2461677 L13.5329125,58.2398557 L13.5455365,58.2335437 L13.5581605,58.2272317 L13.5707845,58.2209197 L13.5733093,58.2171326 L13.5770965,58.2146078 L13.5808963,58.212083 L13.5834085,58.2082958 L13.5960325,58.2045086 L13.6086564,58.2019838 L13.6061443,58.2209197 L13.6023445,58.2398557 L13.5960325,58.2587917 L13.5897205,58.2777277 L13.5834085,58.2903517 L13.5770965,58.3029757 L13.5707845,58.3219116 C13.5665807,58.3345356 13.5623769,58.3513634 13.5581605,58.3724076 C13.5539567,58.3934518 13.5139766,58.4776032 13.4382326,58.6248873 C13.3624887,58.7721713 13.2678088,58.9215509 13.154193,59.0730388 C13.0405771,59.2245266 12.938752,59.3389757 12.8487051,59.4164112 C12.7578124,59.4946799 12.6976339,59.5493796 12.6681695,59.580523 C12.6387178,59.6124995 12.602954,59.6419513 12.5608656,59.6688909 L12.4977457,59.71055 L12.4851217,59.716862 L12.4724977,59.723174 L12.4699856,59.7269612 L12.4661858,59.729486 L12.4623986,59.7320108 L12.4598738,59.735798 L12.4472498,59.74211 L12.4346258,59.748422 L12.4321136,59.7522092 L12.4283138,59.754734 L12.4245266,59.7572588 L12.4220018,59.761046 L12.4194896,59.7648332 L12.4156898,59.767358 L12.4119026,59.7698828 L12.4093778,59.77367 L12.4724977,59.77367 L12.8259693,59.6979261 C13.0616213,59.6474301 13.2867448,59.5864184 13.5013526,59.5148783 L13.8422002,59.4012624 L13.8800721,59.3886384 L13.8990081,59.3823264 L13.9116321,59.3760144 L13.9242561,59.3697024 L13.9368801,59.3633904 L13.9495041,59.3570784 L13.974752,59.3532913 L14,59.3507665 L14,59.3760144 L13.993688,59.3785392 L13.987376,59.3823264 L13.9848638,59.3861136 L13.981064,59.3886384 L13.9772768,59.3911632 L13.974752,59.3949504 L13.9722399,59.3987376 L13.96844,59.4012624 L13.9646528,59.4037872 L13.962128,59.4075744 L13.9596159,59.4113616 L13.9558161,59.4138864 L13.9495041,59.4265104 L13.9431921,59.4391344 L13.9394049,59.4416592 C13.9377259,59.4441839 13.8842885,59.5157115 13.7790803,59.6562669 C13.6738846,59.7976555 13.6170766,59.869183 13.6086564,59.8708747 C13.6002489,59.8733995 13.5884581,59.8860234 13.5733093,59.9087466 C13.5590063,59.932303 13.4697926,60.0261497 13.3056808,60.1902615 C13.141569,60.3543733 12.9808404,60.5003823 12.8234572,60.6283138 C12.6652408,60.7570784 12.5852804,60.9152949 12.5836014,61.1029757 C12.5810766,61.2898106 12.571394,61.5010604 12.5545537,61.7366997 C12.5377259,61.9723517 12.5061659,62.226927 12.4598738,62.5004509 C12.4135942,62.7739748 12.3420541,63.0832624 12.245266,63.4283138 C12.1484905,63.7733652 12.0306583,64.110009 11.8917944,64.4382326 C11.7529306,64.7664563 11.6077547,65.0610117 11.4562669,65.3219116 C11.3047791,65.5828115 11.1659152,65.8037313 11.0396754,65.9846709 C10.9134355,66.1656105 10.7851001,66.3360343 10.6546438,66.4959423 C10.5242002,66.6558503 10.3592552,66.8359567 10.1597962,67.0362489 C9.95949143,67.2357078 9.85009197,67.3451199 9.83157259,67.3644725 C9.81222002,67.3829919 9.72974752,67.4520072 9.58412985,67.5715059 C9.43938323,67.6918503 9.28367899,67.8121948 9.11704238,67.9325518 C8.95125158,68.0520631 8.79891794,68.1517926 8.6600541,68.2317403 C8.52119026,68.311688 8.35372047,68.4029973 8.15761948,68.5056808 C7.96237692,68.6091975 7.75112714,68.7051398 7.5238954,68.7935077 C7.29666366,68.8818756 7.05680794,68.9639315 6.80432822,69.0396754 C6.55184851,69.1154193 6.307789,69.1743354 6.07213706,69.2164112 C5.83649775,69.2584869 5.56928584,69.2942633 5.27051398,69.3237151 L4.82236249,69.367899 L4.82236249,69.374211 L4.00180343,69.374211 L4.00180343,69.367899 L3.89449955,69.361587 C3.82297205,69.3573832 3.76405591,69.3531668 3.71776375,69.348963 C3.67148422,69.3447592 3.496844,69.3216069 3.19386835,69.2795311 C2.8908927,69.2374554 2.65314518,69.195367 2.48061317,69.1532913 C2.30809378,69.1112155 2.05139766,69.0312552 1.71055005,68.9134355 C1.36970243,68.7956159 1.07808837,68.6765212 0.835707845,68.5561767 C0.594173129,68.4366655 0.442685302,68.3609216 0.381244364,68.328945 C0.320649234,68.2978016 0.252479711,68.2590965 0.176735798,68.2128043 L0.0631199279,68.1433724 L0.0606077547,68.1395852 L0.0568079351,68.1370604 L0.0530207394,68.1345356 L0.0504959423,68.1307484 L0.0378719567,68.1244364 L0.0252479711,68.1181244 L0.022735798,68.1143372 L0.0189359784,68.1118124 L0.0151487827,68.1092876 L0.0126239856,68.1055005 L0.0101118124,68.1017133 L0.00631199279,68.0991885 L0,68.0991885 L0,68.0739405 L0.0126239856,68.0764653 L0.0252479711,68.0802525 L0.0820559062,68.0865645 C0.119927863,68.0907683 0.223027953,68.0970803 0.391343553,68.1055005 C0.559671776,68.1139206 0.738503156,68.1139206 0.92786294,68.1055005 C1.11722272,68.0970803 1.31079892,68.0781443 1.50856628,68.0486925 C1.70634626,68.0192408 1.93988999,67.9687448 2.20919748,67.8972047 C2.47851758,67.8256646 2.7259477,67.7406673 2.95150045,67.6422002 C3.17620739,67.5428999 3.3361028,67.468835 3.4312119,67.420018 C3.52546258,67.3720469 3.66937601,67.2828332 3.86293959,67.1523895 L4.15329125,66.9567178 L4.15581605,66.9529306 L4.15960325,66.9504058 L4.16340307,66.947881 L4.16591524,66.9440938 L4.16844004,66.9403066 L4.17222723,66.9377818 L4.17602705,66.935257 L4.17853922,66.9314698 L4.19116321,66.9276826 L4.2037872,66.9251578 L4.20631199,66.9125338 L4.21009919,66.8999098 L4.21389901,66.897385 L4.21641118,66.8935978 L4.1154193,66.8872858 C4.04809558,66.8830821 3.98286745,66.8788656 3.91974752,66.8746619 C3.85662759,66.8704581 3.75774391,66.8515221 3.62308386,66.8178539 C3.48843643,66.7841858 3.3432606,66.7336898 3.18755636,66.6663661 C3.03186474,66.5990424 2.88037692,66.5190821 2.73309288,66.4265104 C2.58582146,66.3339387 2.47935077,66.2569197 2.41370604,66.1954914 C2.34890712,66.1348837 2.26474301,66.0490532 2.16122633,65.9379621 C2.05855546,65.8260379 1.96934175,65.711147 1.89359784,65.5933273 C1.81785392,65.4755077 1.74548061,65.3395726 1.67647791,65.1855726 L1.5716862,64.9558161 L1.56537421,64.9368801 L1.55906222,64.9179441 L1.55527502,64.9053201 L1.55275023,64.8926961 L1.5716862,64.8952209 L1.59062218,64.8990081 L1.72948602,64.9179441 C1.82207033,64.9305681 1.96724617,64.9347719 2.16501353,64.9305681 C2.36279351,64.9263643 2.49954914,64.9179441 2.57529306,64.9053201 C2.65103697,64.8926961 2.69732913,64.8842759 2.7141569,64.8800721 L2.73940487,64.8737601 L2.77096483,64.8674482 L2.8025248,64.8611362 L2.80504959,64.857349 L2.80883679,64.8548242 L2.81263661,64.8522994 L2.81514878,64.8485122 L2.78990081,64.8422002 L2.76465284,64.8358882 L2.73940487,64.8295762 L2.7141569,64.8232642 L2.68890893,64.8169522 C2.67208115,64.8127484 2.6426294,64.8043282 2.60054103,64.7917042 C2.55846528,64.7790803 2.44484941,64.7327881 2.25969342,64.6528404 C2.07455005,64.5728927 1.92726601,64.4950406 1.81785392,64.4192967 C1.70817062,64.3433332 1.60358786,64.2602574 1.50477908,64.1706041 C1.40631199,64.0797115 1.29817493,63.962725 1.18034265,63.8196573 C1.06252299,63.6765897 0.957327322,63.5103697 0.864743012,63.3210099 C0.772171326,63.1316501 0.702739405,62.9507106 0.65644725,62.7781785 C0.610341245,62.6066614 0.579922714,62.431308 0.565567178,62.2542831 L0.54283138,61.9891794 L0.555455365,61.9917042 L0.568079351,61.9954914 L0.580703336,62.0018034 L0.593327322,62.0081154 L0.605951307,62.0144274 L0.618575293,62.0207394 L0.814247069,62.1091073 C0.944703336,62.1680234 1.10670694,62.2185194 1.30027051,62.2605951 C1.49384671,62.3026709 1.60955816,62.3258233 1.64743012,62.3300271 L1.70423805,62.336339 L1.81785392,62.336339 L1.81534175,62.3325518 L1.81154193,62.3300271 L1.80775473,62.3275023 L1.80522994,62.3237151 L1.80271776,62.3199279 L1.79891794,62.3174031 L1.79513075,62.3148783 L1.79260595,62.3110911 L1.77998197,62.3047791 L1.76735798,62.2984671 L1.76484581,62.2946799 L1.76104599,62.2921551 L1.75725879,62.2896303 L1.75473399,62.2858431 L1.74211001,62.2795311 L1.72948602,62.2732191 L1.72697385,62.2694319 C1.72444905,62.2677403 1.68825609,62.2408133 1.61839495,62.1886384 C1.54937962,62.1356177 1.47700631,62.0670316 1.4012624,61.9828674 C1.32551849,61.8987033 1.24977457,61.8103354 1.17403066,61.7177638 C1.09814729,61.62498 1.03055968,61.5257107 0.972046889,61.4211001 C0.913143372,61.3159044 0.850856628,61.1820775 0.785211903,61.0196573 C0.720412985,60.8580703 0.671179441,60.6952209 0.637511271,60.5311091 C0.603855726,60.3669973 0.584919748,60.2049937 0.580703336,60.0450857 C0.576499549,59.8851776 0.580703336,59.748422 0.593327322,59.6348061 C0.605951307,59.5211903 0.631199279,59.3928422 0.669071235,59.2497746 C0.706943192,59.1067069 0.761655546,58.9552191 0.833183048,58.7953111 L0.940486925,58.5554554 L0.946798918,58.5365194 L0.953110911,58.5175834 L0.95691073,58.5150586 L0.959422904,58.5112714 L0.961947701,58.5074842 L0.965734896,58.5049594 L0.969534716,58.5074842 L0.972046889,58.5112714 L0.974571686,58.5150586 L0.978358882,58.5175834 L0.982158702,58.5201082 L0.984670875,58.5238954 L0.987195672,58.5276826 L0.990982867,58.5302074 L0.99729486,58.5428314 L1.00360685,58.5554554 L1.00740667,58.5579802 L1.00991885,58.5617674 L1.18034265,58.7511271 C1.29395852,58.877367 1.42861858,59.018339 1.58431019,59.1740307 C1.74001443,59.3297223 1.82627412,59.4105158 1.84310189,59.4164112 C1.85994229,59.4231398 1.88097385,59.4424923 1.90622182,59.4744815 C1.93146979,59.5056249 2.0156339,59.5801064 2.15870153,59.6979261 C2.30178179,59.8157457 2.48903336,59.952514 2.72046889,60.1082056 C2.95191704,60.2638972 3.20860054,60.4174932 3.49053201,60.5689811 C3.7724761,60.7204689 4.07545176,60.8572245 4.39945897,60.9792606 C4.72347881,61.1012967 4.95071055,61.1812444 5.08115419,61.2191163 C5.21161046,61.2569883 5.43462579,61.305376 5.75022543,61.3642922 C6.06582507,61.4232083 6.30358521,61.4610803 6.46348061,61.477908 C6.62338864,61.4947358 6.73280072,61.5044184 6.79170424,61.5069432 L6.88007214,61.509468 L6.87755996,61.490532 L6.87376014,61.471596 L6.84851217,61.3137962 C6.8316844,61.2086005 6.8232642,61.0613165 6.8232642,60.8719567 C6.8232642,60.6825969 6.83799639,60.5079693 6.86744815,60.3480613 C6.89691253,60.1881533 6.94109648,60.0261497 7,59.8620379 C7.05891614,59.6979261 7.11656988,59.5662074 7.1729486,59.4669071 C7.23018575,59.36844 7.30508386,59.2560866 7.39765555,59.1298467 C7.49023986,59.0036069 7.61016772,58.8731632 7.75743913,58.7385032 C7.90472317,58.6038431 8.07303877,58.4839152 8.26239856,58.3787196 C8.45175834,58.2735239 8.62639856,58.1935636 8.78629396,58.1388638 C8.94620198,58.0841641 9.08086204,58.0483877 9.1902615,58.03156 C9.29967358,58.0147322 9.35437331,58.0050496 9.35437331,58.0025248 Z" id="twitter" fill="#747D87" fill-rule="nonzero"></path>
    </g>
</svg>