<?xml version="1.0" encoding="UTF-8"?>
<svg width="234px" height="184px" viewBox="0 0 234 184" version="1.1" xmlns="http://www.w3.org/2000/svg" xmlns:xlink="http://www.w3.org/1999/xlink">
    <!-- Generator: Sketch 48.2 (47327) - http://www.bohemiancoding.com/sketch -->
    <title>under icon</title>
    <desc>Created with Sketch.</desc>
    <defs>
        <rect id="path-1" x="0" y="0" width="229" height="25" rx="3"></rect>
        <ellipse id="path-3" cx="36.9642857" cy="82.9642857" rx="36.9642857" ry="8.03571429"></ellipse>
        <path d="M36.711057,0 L37.2175144,1.77635684e-15 C39.5464132,-7.19932519e-16 41.5669182,1.60788317 42.0898422,3.87731477 L59.5725308,79.7501599 C59.9445576,81.3647144 58.9372899,82.9751567 57.3227353,83.3471836 C57.2779139,83.3575113 57.2328608,83.366807 57.1876119,83.3750631 C50.5979912,84.577402 43.9175689,85.1785714 37.1463449,85.1785714 C30.3497866,85.1785714 23.5532282,84.572895 16.7566699,83.3615423 L16.7566699,83.3615426 C15.1255205,83.0708223 14.038888,81.5128391 14.3296083,79.8816897 C14.3383978,79.8323746 14.348421,79.7832874 14.3596686,79.7344742 L31.8387292,3.87731477 C32.3616533,1.60788317 34.3821583,2.49628936e-15 36.711057,0 Z" id="path-4"></path>
    </defs>
    <g id="Maintenance" stroke="none" stroke-width="1" fill="none" fill-rule="evenodd" transform="translate(-600.000000, -227.000000)">
        <g id="under-icon" transform="translate(600.000000, 227.000000)">
            <g id="Group-6" transform="translate(5.000000, 28.000000)">
                <g id="Group-7">
                    <mask id="mask-2" fill="white">
                        <use xlink:href="#path-1"></use>
                    </mask>
                    <rect stroke="#20C565" x="0.5" y="0.5" width="228" height="24" rx="3"></rect>
                    <path d="M-11.7852322,32.5439337 C-12.7615429,33.5202444 -12.7615429,35.1031569 -11.7852322,36.0794676 L-2.94243487,44.922265 C-1.96612414,45.8985757 -0.383211695,45.8985757 0.593099034,44.922265 L42.3364263,3.17893771 C43.312737,2.20262699 43.312737,0.619714538 42.3364263,-0.356596191 L33.4936289,-9.19939353 C32.5173182,-10.1757043 30.9344058,-10.1757043 29.958095,-9.19939353 L-11.7852322,32.5439337 Z M35.8006065,32.5439337 C34.8242957,33.5202444 34.8242957,35.1031569 35.8006065,36.0794676 L44.6434038,44.922265 C45.6197145,45.8985757 47.202627,45.8985757 48.1789377,44.922265 L89.922265,3.17893771 C90.8985757,2.20262699 90.8985757,0.619714538 89.922265,-0.356596191 L81.0794676,-9.19939353 C80.1031569,-10.1757043 78.5202444,-10.1757043 77.5439337,-9.19939353 L35.8006065,32.5439337 Z M83.3864451,32.5439337 C82.4101344,33.5202444 82.4101344,35.1031569 83.3864451,36.0794676 L92.2292425,44.922265 C93.2055532,45.8985757 94.7884657,45.8985757 95.7647764,44.922265 L137.508104,3.17893771 C138.484414,2.20262699 138.484414,0.619714538 137.508104,-0.356596191 L128.665306,-9.19939353 C127.688996,-10.1757043 126.106083,-10.1757043 125.129772,-9.19939353 L83.3864451,32.5439337 Z" id="Combined-Shape" stroke="#20C565" mask="url(#mask-2)"></path>
                    <path d="M132.214768,32.5439337 C131.238457,33.5202444 131.238457,35.1031569 132.214768,36.0794676 L141.057565,44.922265 C142.033876,45.8985757 143.616788,45.8985757 144.593099,44.922265 L186.336426,3.17893771 C187.312737,2.20262699 187.312737,0.619714538 186.336426,-0.356596191 L177.493629,-9.19939353 C176.517318,-10.1757043 174.934406,-10.1757043 173.958095,-9.19939353 L132.214768,32.5439337 Z M179.800606,32.5439337 C178.824296,33.5202444 178.824296,35.1031569 179.800606,36.0794676 L188.643404,44.922265 C189.619715,45.8985757 191.202627,45.8985757 192.178938,44.922265 L233.922265,3.17893771 C234.898576,2.20262699 234.898576,0.619714538 233.922265,-0.356596191 L225.079468,-9.19939353 C224.103157,-10.1757043 222.520244,-10.1757043 221.543934,-9.19939353 L179.800606,32.5439337 Z M227.386445,32.5439337 C226.410134,33.5202444 226.410134,35.1031569 227.386445,36.0794676 L236.229242,44.922265 C237.205553,45.8985757 238.788466,45.8985757 239.764776,44.922265 L281.508104,3.17893771 C282.484414,2.20262699 282.484414,0.619714538 281.508104,-0.356596191 L272.665306,-9.19939353 C271.688996,-10.1757043 270.106083,-10.1757043 269.129772,-9.19939353 L227.386445,32.5439337 Z" id="Combined-Shape" stroke="#20C565" mask="url(#mask-2)"></path>
                </g>
                <g id="Group-9" transform="translate(25.000000, 24.000000)" stroke="#20C565">
                    <g id="Group-8">
                        <rect id="Rectangle-4" x="8.39473684" y="0.5" width="13.2105263" height="102"></rect>
                        <path d="M16.5,21.5 L16.5,25.5" id="Line-3" stroke-linecap="round"></path>
                        <path d="M16.5,30.5 L16.5,55.5" id="Line-3" stroke-linecap="round"></path>
                        <path d="M30,110.5 C30,105.253295 23.2842712,101 15,101 C6.71572875,101 0,105.253295 0,110.5 C8.84160352,110.5 21.6820819,110.5 30,110.5 Z" id="Oval" fill="#070E38"></path>
                    </g>
                    <g id="Group-8" transform="translate(150.000000, 0.000000)">
                        <rect id="Rectangle-4" x="8.39473684" y="0.5" width="13.2105263" height="102"></rect>
                        <path d="M17.5,50.5 L17.5,54.5" id="Line-3" stroke-linecap="round"></path>
                        <path d="M17.5,59.5 L17.5,69.5" id="Line-3" stroke-linecap="round"></path>
                        <path d="M30,110.5 C30,105.253295 23.2842712,101 15,101 C6.71572875,101 0,105.253295 0,110.5 C8.84160352,110.5 21.6820819,110.5 30,110.5 Z" id="Oval" fill="#070E38"></path>
                    </g>
                </g>
            </g>
            <g id="Group-10" transform="translate(53.000000, 93.000000)">
                <g id="Oval-2">
                    <use fill="#08103F" fill-rule="evenodd" xlink:href="#path-3"></use>
                    <ellipse stroke="#20C565" stroke-width="1" cx="36.9642857" cy="82.9642857" rx="36.4642857" ry="7.53571429"></ellipse>
                </g>
                <mask id="mask-5" fill="white">
                    <use xlink:href="#path-4"></use>
                </mask>
                <g id="Rectangle-18">
                    <use fill="#08103F" fill-rule="evenodd" xlink:href="#path-4"></use>
                    <path stroke="#20C565" stroke-width="1" d="M36.711057,0.5 C34.6150481,0.5 32.7965936,1.94709485 32.325962,3.98958329 L14.8469013,79.8467427 C14.8375284,79.8874204 14.8291757,79.9283264 14.8218511,79.9694223 C14.5795842,81.3287135 15.4851113,82.6270328 16.8444025,82.8692995 C23.6121147,84.075511 30.3793186,84.6785714 37.1463449,84.6785714 C43.8875508,84.6785714 50.5379347,84.0801051 57.0978639,82.8831837 C57.1355713,82.8763036 57.1731156,82.8685573 57.2104668,82.8599508 C58.5559301,82.5499282 59.3953206,81.2078917 59.085298,79.8624285 L41.6026094,3.98958329 C41.1319778,1.94709485 39.3135233,0.5 37.2175144,0.5 L36.711057,0.5 Z"></path>
                </g>
                <path d="M-4.21754737,28.9333016 C-5.1938581,29.9096124 -5.1938581,31.4925248 -4.21754737,32.4688355 L5.57120563,42.2575885 C6.54751636,43.2338992 8.1304288,43.2338992 9.10673953,42.2575885 L54.1744252,-2.81009715 C55.1507359,-3.78640788 55.1507359,-5.36932033 54.1744252,-6.34563106 L44.3856722,-16.134384 C43.4093615,-17.1106948 41.826449,-17.1106948 40.8501383,-16.134384 L-4.21754737,28.9333016 Z M3.916677,71.8249302 C2.94036627,72.8012409 2.94036627,74.3841533 3.916677,75.3604641 L13.70543,85.1492171 C14.6817407,86.1255278 16.2646532,86.1255278 17.2409639,85.1492171 L62.3086496,40.0815314 C63.2849603,39.1052207 63.2849603,37.5223082 62.3086496,36.5459975 L52.5198966,26.7572445 C51.5435859,25.7809338 49.9606734,25.7809338 48.9843627,26.7572445 L3.916677,71.8249302 Z M22.7738085,106.138233 C21.7974978,107.114544 21.7974978,108.697456 22.7738085,109.673767 L32.5625615,119.46252 C33.5388722,120.438831 35.1217847,120.438831 36.0980954,119.46252 L81.1657811,74.3948342 C82.1420918,73.4185235 82.1420918,71.835611 81.1657811,70.8593003 L71.3770281,61.0705473 C70.4007174,60.0942366 68.8178049,60.0942366 67.8414942,61.0705473 L22.7738085,106.138233 Z" id="Combined-Shape" stroke="#20C565" mask="url(#mask-5)"></path>
            </g>
            <path d="M0.5,162.5 L20.5,162.5" id="Line-2" stroke="#20C565" stroke-linecap="round"></path>
            <path d="M134.5,157.5 L144.5,157.5" id="Line-2" stroke="#20C565" stroke-linecap="round"></path>
            <path d="M134.5,172.5 L139.5,172.5" id="Line-2" stroke="#20C565" stroke-linecap="round"></path>
            <path d="M18.5,172.5 L23.5,172.5" id="Line-2" stroke="#20C565" stroke-linecap="round"></path>
            <path d="M156.5,162.5 L161.5,162.5" id="Line-2" stroke="#20C565" stroke-linecap="round"></path>
            <path d="M196.5,169.5 L201.5,169.5" id="Line-2" stroke="#20C565" stroke-linecap="round"></path>
            <path d="M213.5,179.5 L218.5,179.5" id="Line-2" stroke="#20C565" stroke-linecap="round"></path>
            <path d="M133.5,164.5 L138.5,164.5" id="Line-2" stroke="#20C565" stroke-linecap="round"></path>
            <path d="M117.5,164.5 L122.5,164.5" id="Line-2" stroke="#20C565" stroke-linecap="round"></path>
            <path d="M164.5,162.5 L228.117188,162.5" id="Line-2" stroke="#20C565" stroke-linecap="round"></path>
            <path d="M160.5,169.5 L180.5,169.5" id="Line-2" stroke="#20C565" stroke-linecap="round"></path>
            <path d="M174.5,179.5 L204.5,179.5" id="Line-2" stroke="#20C565" stroke-linecap="round"></path>
            <path d="M4.5,179.5 L24.5,179.5" id="Line-2" stroke="#20C565" stroke-linecap="round"></path>
            <path d="M60.5,12.5029297 C59.9667942,12.5029297 59.4973979,12.4322924 59.0917969,12.2910156 C58.6861959,12.1497389 58.3523776,11.952638 58.090332,11.699707 C57.8282865,11.4467761 57.6152352,11.1289082 57.4511719,10.7460938 C57.2871086,10.3632793 57.1708988,9.94970925 57.1025391,9.50537109 C57.0341793,9.06103293 57,8.55859655 57,7.99804688 L57,0.123046875 L58.75,0.123046875 L58.75,7.99804688 C58.75,8.37630397 58.7579752,8.69303258 58.7739258,8.94824219 C58.7898764,9.2034518 58.8320309,9.47574725 58.9003906,9.76513672 C58.9687503,10.0545262 59.0633132,10.2858064 59.184082,10.4589844 C59.3048509,10.6321623 59.4757476,10.7757156 59.6967773,10.8896484 C59.9178071,11.0035813 60.1855453,11.0605469 60.5,11.0605469 C60.8144547,11.0605469 61.0821929,11.0035813 61.3032227,10.8896484 C61.5242524,10.7757156 61.6951491,10.6321623 61.815918,10.4589844 C61.9366868,10.2858064 62.0312497,10.0545262 62.0996094,9.76513672 C62.1679691,9.47574725 62.2101236,9.2034518 62.2260742,8.94824219 C62.2420248,8.69303258 62.25,8.37630397 62.25,7.99804688 L62.25,0.123046875 L64,0.123046875 L64,7.99804688 C64,8.55859655 63.9658207,9.06103293 63.8974609,9.50537109 C63.8291012,9.94970925 63.7128914,10.3632793 63.5488281,10.7460938 C63.3847648,11.1289082 63.1717135,11.4467761 62.909668,11.699707 C62.6476224,11.952638 62.3138041,12.1497389 61.9082031,12.2910156 C61.5026021,12.4322924 61.0332058,12.5029297 60.5,12.5029297 Z M65.6542969,12.3730469 L65.6542969,0.123046875 L66.9667969,0.123046875 L70.0292969,7.69726562 L70.0292969,0.123046875 L71.7792969,0.123046875 L71.7792969,12.3730469 L70.5351562,12.3730469 L67.4042969,4.22460938 L67.4042969,12.3730469 L65.6542969,12.3730469 Z M73.5292969,12.3730469 L73.5292969,0.123046875 L76.2431641,0.123046875 C77.5237694,0.123046875 78.4272435,0.385088525 78.9536133,0.909179687 C79.4799831,1.43327085 79.7431641,2.3378842 79.7431641,3.62304688 L79.7431641,8.43554688 C79.7431641,9.77995464 79.4754259,10.772295 78.9399414,11.4125977 C78.404457,12.0529003 77.5009829,12.3730469 76.2294922,12.3730469 L73.5292969,12.3730469 Z M75.2792969,11.0605469 L76.2431641,11.0605469 C76.5302749,11.0605469 76.7763662,11.0343427 76.9814453,10.9819336 C77.1865245,10.9295245 77.3528639,10.8338223 77.4804688,10.6948242 C77.6080736,10.5558261 77.708333,10.423666 77.78125,10.2983398 C77.854167,10.1730137 77.905436,9.97819143 77.9350586,9.71386719 C77.9646811,9.44954295 77.9817708,9.23193445 77.9863281,9.06103516 C77.9908854,8.89013586 77.9931641,8.62467628 77.9931641,8.26464844 L77.9931641,4.06054688 C77.9931641,3.83723847 77.9920248,3.65950587 77.9897461,3.52734375 C77.9874674,3.39518163 77.9806316,3.23909595 77.9692383,3.05908203 C77.957845,2.87906811 77.9407553,2.73665417 77.9179688,2.63183594 C77.8951822,2.52701771 77.8632815,2.40966862 77.8222656,2.27978516 C77.7812498,2.14990169 77.7299808,2.04850297 77.668457,1.97558594 C77.6069333,1.90266891 77.5317387,1.82633503 77.4428711,1.74658203 C77.3540035,1.66682903 77.2514654,1.60758483 77.1352539,1.56884766 C77.0190424,1.53011048 76.8834643,1.49820976 76.7285156,1.47314453 C76.5735669,1.4480793 76.4003916,1.43554688 76.2089844,1.43554688 L75.2792969,1.43554688 L75.2792969,11.0605469 Z M81.2744141,12.3730469 L81.2744141,0.123046875 L86.0869141,0.123046875 L86.0869141,1.43554688 L83.0244141,1.43554688 L83.0244141,5.37304688 L85.2119141,5.37304688 L85.2119141,6.68554688 L83.0244141,6.68554688 L83.0244141,11.0605469 L86.0869141,11.0605469 L86.0869141,12.3730469 L81.2744141,12.3730469 Z M88.9101562,5.37304688 L89.3476562,5.37304688 C90.0768266,5.37304688 90.6236961,5.21923982 90.9882812,4.91162109 C91.3528664,4.60400237 91.5351562,4.10156599 91.5351562,3.40429688 C91.5351562,2.70702776 91.3528664,2.20459138 90.9882812,1.89697266 C90.6236961,1.58935393 90.0768266,1.43554688 89.3476562,1.43554688 L88.9101562,1.43554688 L88.9101562,5.37304688 Z M87.1601562,12.3730469 L87.1601562,0.123046875 L89.3476562,0.123046875 C90.6510482,0.123046875 91.6331347,0.375974033 92.2939453,0.881835938 C92.9547559,1.38769784 93.2851562,2.22850975 93.2851562,3.40429688 C93.2851562,4.13346719 93.1552747,4.74413816 92.8955078,5.23632812 C92.6357409,5.72851809 92.2552108,6.0657543 91.7539062,6.24804688 L93.7226562,12.3730469 L91.9863281,12.3730469 L90.2226562,6.68554688 L88.9101562,6.68554688 L88.9101562,12.3730469 L87.1601562,12.3730469 Z M100.722656,12.4960938 C100.20768,12.4960938 99.7542337,12.4231778 99.3623047,12.2773438 C98.9703756,12.1315097 98.6490898,11.9298515 98.3984375,11.6723633 C98.1477852,11.414875 97.9438484,11.0935892 97.7866211,10.7084961 C97.6293937,10.323403 97.5188805,9.91211156 97.4550781,9.47460938 C97.3912757,9.03710719 97.359375,8.54264599 97.359375,7.99121094 L97.359375,4.49804688 C97.359375,3.94661183 97.3912757,3.45215063 97.4550781,3.01464844 C97.5188805,2.57714625 97.6293937,2.16585479 97.7866211,1.78076172 C97.9438484,1.39566865 98.1477852,1.07552211 98.3984375,0.8203125 C98.6490898,0.565102891 98.9703756,0.364584063 99.3623047,0.21875 C99.7542337,0.0729159375 100.20768,0 100.722656,0 C101.292321,0 101.784503,0.0843090527 102.199219,0.252929688 C102.613934,0.421550322 102.945474,0.669920234 103.193848,0.998046875 C103.442221,1.32617352 103.629068,1.70670356 103.754395,2.13964844 C103.879721,2.57259331 103.953776,3.07844763 103.976562,3.65722656 C103.98112,3.74381554 103.983398,3.8782543 103.983398,4.06054688 L102.233398,4.06054688 L102.233398,3.67089844 C102.228841,3.42936077 102.219727,3.22314539 102.206055,3.05224609 C102.192383,2.8813468 102.167318,2.70475352 102.130859,2.52246094 C102.094401,2.34016836 102.040853,2.18863993 101.970215,2.06787109 C101.899576,1.94710226 101.81071,1.83544973 101.703613,1.73291016 C101.596516,1.63037058 101.460938,1.55517602 101.296875,1.50732422 C101.132812,1.45947242 100.941407,1.43554688 100.722656,1.43554688 C100.440103,1.43554688 100.197429,1.48111934 99.9946289,1.57226562 C99.7918284,1.66341191 99.6334641,1.780761 99.5195312,1.92431641 C99.4055984,2.06787181 99.3178714,2.26041546 99.2563477,2.50195312 C99.1948239,2.74349079 99.154948,2.97932828 99.1367188,3.20947266 C99.1184895,3.43961704 99.109375,3.72330561 99.109375,4.06054688 L99.109375,8.43554688 C99.109375,8.727215 99.1219074,8.99153527 99.1469727,9.22851562 C99.1720379,9.46549598 99.2210283,9.70133346 99.2939453,9.93603516 C99.3668623,10.1707369 99.4614252,10.3678377 99.5776367,10.5273438 C99.6938482,10.6868498 99.8487946,10.815592 100.04248,10.9135742 C100.236166,11.0115565 100.462889,11.0605469 100.722656,11.0605469 C100.982423,11.0605469 101.205728,11.0104172 101.392578,10.9101562 C101.579428,10.8098953 101.726399,10.6822924 101.833496,10.5273438 C101.940593,10.3723951 102.024902,10.1741549 102.086426,9.93261719 C102.14795,9.69107952 102.187825,9.45638135 102.206055,9.22851562 C102.224284,9.0006499 102.233398,8.73632963 102.233398,8.43554688 L102.233398,7.99804688 L103.983398,7.99804688 L103.983398,8.43554688 C103.983398,9.06901358 103.927572,9.62499761 103.815918,10.1035156 C103.704264,10.5820336 103.524253,11.0047182 103.275879,11.371582 C103.027505,11.7384458 102.690269,12.0175772 102.26416,12.2089844 C101.838051,12.4003916 101.324222,12.4960938 100.722656,12.4960938 Z M108.303711,12.4960938 C107.688473,12.4960938 107.160972,12.4026702 106.721191,12.2158203 C106.281411,12.0289704 105.931642,11.7555357 105.671875,11.3955078 C105.412108,11.03548 105.222982,10.6127954 105.104492,10.1274414 C104.986002,9.64208742 104.926758,9.07812821 104.926758,8.43554688 L104.926758,3.9921875 C104.926758,3.34960616 104.986002,2.78906489 105.104492,2.31054688 C105.222982,1.83202886 105.412108,1.41618015 105.671875,1.06298828 C105.931642,0.709796411 106.281411,0.444336826 106.721191,0.266601562 C107.160972,0.0888662988 107.688473,0 108.303711,0 C109.497727,0 110.359047,0.341793457 110.887695,1.02539062 C111.416344,1.70898779 111.680664,2.6979102 111.680664,3.9921875 L111.680664,8.43554688 C111.680664,9.06901358 111.620281,9.62841554 111.499512,10.1137695 C111.378743,10.5991235 111.188478,11.0229474 110.928711,11.3852539 C110.668944,11.7475604 110.319175,12.0232738 109.879395,12.2124023 C109.439614,12.4015309 108.914391,12.4960938 108.303711,12.4960938 Z M108.303711,11.0605469 C108.918948,11.0605469 109.343912,10.8759784 109.578613,10.5068359 C109.813315,10.1376935 109.930664,9.59310256 109.930664,8.87304688 L109.930664,3.5546875 C109.930664,2.84374645 109.814454,2.31282728 109.582031,1.96191406 C109.349608,1.61100085 108.923506,1.43554688 108.303711,1.43554688 C107.683916,1.43554688 107.257814,1.61100085 107.025391,1.96191406 C106.792968,2.31282728 106.676758,2.84374645 106.676758,3.5546875 L106.676758,8.87304688 C106.676758,9.59310256 106.794107,10.1376935 107.028809,10.5068359 C107.26351,10.8759784 107.688473,11.0605469 108.303711,11.0605469 Z M113.211914,12.3730469 L113.211914,0.123046875 L114.524414,0.123046875 L117.586914,7.69726562 L117.586914,0.123046875 L119.336914,0.123046875 L119.336914,12.3730469 L118.092773,12.3730469 L114.961914,4.22460938 L114.961914,12.3730469 L113.211914,12.3730469 Z M124.279297,12.4960938 C123.176427,12.4960938 122.334476,12.1725293 121.753418,11.5253906 C121.17236,10.878252 120.847657,9.99414623 120.779297,8.87304688 L122.529297,8.43554688 C122.615886,10.1855556 123.199213,11.0605469 124.279297,11.0605469 C125.154301,11.0605469 125.591797,10.6230513 125.591797,9.74804688 C125.591797,9.48827995 125.556478,9.24788522 125.48584,9.02685547 C125.415201,8.80582572 125.306967,8.60302827 125.161133,8.41845703 C125.015299,8.2338858 124.883139,8.0857753 124.764648,7.97412109 C124.646158,7.86246689 124.484376,7.7246102 124.279297,7.56054688 L122.091797,5.81054688 C121.690753,5.49609218 121.370607,5.09619383 121.131348,4.61083984 C120.892089,4.12548585 120.772461,3.57291977 120.772461,2.953125 C120.772461,2.05077674 121.052732,1.33301048 121.613281,0.799804688 C122.173831,0.266598896 122.916662,0 123.841797,0 C124.835291,0 125.624834,0.242673354 126.210449,0.728027344 C126.796064,1.21338133 127.157226,1.90038618 127.293945,2.7890625 C127.307617,2.8847661 127.323568,3.01692624 127.341797,3.18554687 L125.591797,3.62304688 C125.58724,3.54557253 125.575846,3.42936275 125.557617,3.27441406 C125.480143,2.7184217 125.305828,2.27295089 125.034668,1.93798828 C124.763508,1.60302567 124.365888,1.43554688 123.841797,1.43554688 C123.422524,1.43554688 123.098959,1.55289596 122.871094,1.78759766 C122.643228,2.02229935 122.529297,2.34928176 122.529297,2.76855469 C122.529297,3.45670917 122.820961,4.0332008 123.404297,4.49804688 L125.591797,6.24804688 C126.758469,7.19141097 127.341797,8.31932937 127.341797,9.63183594 C127.341797,10.5296269 127.064944,11.2314428 126.51123,11.7373047 C125.957517,12.2431666 125.213546,12.4960938 124.279297,12.4960938 Z M129.925781,12.3730469 L129.925781,1.68164062 L127.738281,1.68164062 L127.738281,0.123046875 L133.863281,0.123046875 L133.863281,1.68164062 L131.675781,1.68164062 L131.675781,12.3730469 L129.925781,12.3730469 Z M136.481445,5.37304688 L136.918945,5.37304688 C137.648116,5.37304688 138.194985,5.21923982 138.55957,4.91162109 C138.924155,4.60400237 139.106445,4.10156599 139.106445,3.40429688 C139.106445,2.70702776 138.924155,2.20459138 138.55957,1.89697266 C138.194985,1.58935393 137.648116,1.43554688 136.918945,1.43554688 L136.481445,1.43554688 L136.481445,5.37304688 Z M134.731445,12.3730469 L134.731445,0.123046875 L136.918945,0.123046875 C138.222337,0.123046875 139.204424,0.375974033 139.865234,0.881835938 C140.526045,1.38769784 140.856445,2.22850975 140.856445,3.40429688 C140.856445,4.13346719 140.726564,4.74413816 140.466797,5.23632812 C140.20703,5.72851809 139.8265,6.0657543 139.325195,6.24804688 L141.293945,12.3730469 L139.557617,12.3730469 L137.793945,6.68554688 L136.481445,6.68554688 L136.481445,12.3730469 L134.731445,12.3730469 Z M145.709961,12.5029297 C145.176755,12.5029297 144.707359,12.4322924 144.301758,12.2910156 C143.896157,12.1497389 143.562339,11.952638 143.300293,11.699707 C143.038247,11.4467761 142.825196,11.1289082 142.661133,10.7460938 C142.497069,10.3632793 142.38086,9.94970925 142.3125,9.50537109 C142.24414,9.06103293 142.209961,8.55859655 142.209961,7.99804688 L142.209961,0.123046875 L143.959961,0.123046875 L143.959961,7.99804688 C143.959961,8.37630397 143.967936,8.69303258 143.983887,8.94824219 C143.999837,9.2034518 144.041992,9.47574725 144.110352,9.76513672 C144.178711,10.0545262 144.273274,10.2858064 144.394043,10.4589844 C144.514812,10.6321623 144.685709,10.7757156 144.906738,10.8896484 C145.127768,11.0035813 145.395506,11.0605469 145.709961,11.0605469 C146.024416,11.0605469 146.292154,11.0035813 146.513184,10.8896484 C146.734213,10.7757156 146.90511,10.6321623 147.025879,10.4589844 C147.146648,10.2858064 147.241211,10.0545262 147.30957,9.76513672 C147.37793,9.47574725 147.420085,9.2034518 147.436035,8.94824219 C147.451986,8.69303258 147.459961,8.37630397 147.459961,7.99804688 L147.459961,0.123046875 L149.209961,0.123046875 L149.209961,7.99804688 C149.209961,8.55859655 149.175782,9.06103293 149.107422,9.50537109 C149.039062,9.94970925 148.922852,10.3632793 148.758789,10.7460938 C148.594726,11.1289082 148.381674,11.4467761 148.119629,11.699707 C147.857583,11.952638 147.523765,12.1497389 147.118164,12.2910156 C146.712563,12.4322924 146.243167,12.5029297 145.709961,12.5029297 Z M154.008789,12.4960938 C153.493813,12.4960938 153.040367,12.4231778 152.648438,12.2773438 C152.256508,12.1315097 151.935223,11.9298515 151.68457,11.6723633 C151.433918,11.414875 151.229981,11.0935892 151.072754,10.7084961 C150.915527,10.323403 150.805013,9.91211156 150.741211,9.47460938 C150.677409,9.03710719 150.645508,8.54264599 150.645508,7.99121094 L150.645508,4.49804688 C150.645508,3.94661183 150.677409,3.45215063 150.741211,3.01464844 C150.805013,2.57714625 150.915527,2.16585479 151.072754,1.78076172 C151.229981,1.39566865 151.433918,1.07552211 151.68457,0.8203125 C151.935223,0.565102891 152.256508,0.364584063 152.648438,0.21875 C153.040367,0.0729159375 153.493813,0 154.008789,0 C154.578453,0 155.070636,0.0843090527 155.485352,0.252929688 C155.900067,0.421550322 156.231607,0.669920234 156.47998,0.998046875 C156.728354,1.32617352 156.915201,1.70670356 157.040527,2.13964844 C157.165853,2.57259331 157.239909,3.07844763 157.262695,3.65722656 C157.267253,3.74381554 157.269531,3.8782543 157.269531,4.06054688 L155.519531,4.06054688 L155.519531,3.67089844 C155.514974,3.42936077 155.505859,3.22314539 155.492188,3.05224609 C155.478516,2.8813468 155.453451,2.70475352 155.416992,2.52246094 C155.380534,2.34016836 155.326986,2.18863993 155.256348,2.06787109 C155.185709,1.94710226 155.096843,1.83544973 154.989746,1.73291016 C154.882649,1.63037058 154.747071,1.55517602 154.583008,1.50732422 C154.418944,1.45947242 154.22754,1.43554688 154.008789,1.43554688 C153.726236,1.43554688 153.483562,1.48111934 153.280762,1.57226562 C153.077961,1.66341191 152.919597,1.780761 152.805664,1.92431641 C152.691731,2.06787181 152.604004,2.26041546 152.54248,2.50195312 C152.480957,2.74349079 152.441081,2.97932828 152.422852,3.20947266 C152.404622,3.43961704 152.395508,3.72330561 152.395508,4.06054688 L152.395508,8.43554688 C152.395508,8.727215 152.40804,8.99153527 152.433105,9.22851562 C152.458171,9.46549598 152.507161,9.70133346 152.580078,9.93603516 C152.652995,10.1707369 152.747558,10.3678377 152.86377,10.5273438 C152.979981,10.6868498 153.134927,10.815592 153.328613,10.9135742 C153.522299,11.0115565 153.749022,11.0605469 154.008789,11.0605469 C154.268556,11.0605469 154.491861,11.0104172 154.678711,10.9101562 C154.865561,10.8098953 155.012532,10.6822924 155.119629,10.5273438 C155.226726,10.3723951 155.311035,10.1741549 155.372559,9.93261719 C155.434082,9.69107952 155.473958,9.45638135 155.492188,9.22851562 C155.510417,9.0006499 155.519531,8.73632963 155.519531,8.43554688 L155.519531,7.99804688 L157.269531,7.99804688 L157.269531,8.43554688 C157.269531,9.06901358 157.213705,9.62499761 157.102051,10.1035156 C156.990397,10.5820336 156.810385,11.0047182 156.562012,11.371582 C156.313638,11.7384458 155.976402,12.0175772 155.550293,12.2089844 C155.124184,12.4003916 154.610355,12.4960938 154.008789,12.4960938 Z M159.737305,12.3730469 L159.737305,1.68164062 L157.549805,1.68164062 L157.549805,0.123046875 L163.674805,0.123046875 L163.674805,1.68164062 L161.487305,1.68164062 L161.487305,12.3730469 L159.737305,12.3730469 Z M164.625,12.3730469 L164.625,0.123046875 L166.375,0.123046875 L166.375,12.3730469 L164.625,12.3730469 Z M171.40625,12.4960938 C170.791013,12.4960938 170.263511,12.4026702 169.82373,12.2158203 C169.38395,12.0289704 169.034181,11.7555357 168.774414,11.3955078 C168.514647,11.03548 168.325521,10.6127954 168.207031,10.1274414 C168.088541,9.64208742 168.029297,9.07812821 168.029297,8.43554688 L168.029297,3.9921875 C168.029297,3.34960616 168.088541,2.78906489 168.207031,2.31054688 C168.325521,1.83202886 168.514647,1.41618015 168.774414,1.06298828 C169.034181,0.709796411 169.38395,0.444336826 169.82373,0.266601562 C170.263511,0.0888662988 170.791013,0 171.40625,0 C172.600266,0 173.461586,0.341793457 173.990234,1.02539062 C174.518883,1.70898779 174.783203,2.6979102 174.783203,3.9921875 L174.783203,8.43554688 C174.783203,9.06901358 174.72282,9.62841554 174.602051,10.1137695 C174.481282,10.5991235 174.291017,11.0229474 174.03125,11.3852539 C173.771483,11.7475604 173.421714,12.0232738 172.981934,12.2124023 C172.542153,12.4015309 172.01693,12.4960938 171.40625,12.4960938 Z M171.40625,11.0605469 C172.021487,11.0605469 172.446451,10.8759784 172.681152,10.5068359 C172.915854,10.1376935 173.033203,9.59310256 173.033203,8.87304688 L173.033203,3.5546875 C173.033203,2.84374645 172.916993,2.31282728 172.68457,1.96191406 C172.452147,1.61100085 172.026045,1.43554688 171.40625,1.43554688 C170.786455,1.43554688 170.360353,1.61100085 170.12793,1.96191406 C169.895507,2.31282728 169.779297,2.84374645 169.779297,3.5546875 L169.779297,8.87304688 C169.779297,9.59310256 169.896646,10.1376935 170.131348,10.5068359 C170.366049,10.8759784 170.791013,11.0605469 171.40625,11.0605469 Z M176.314453,12.3730469 L176.314453,0.123046875 L177.626953,0.123046875 L180.689453,7.69726562 L180.689453,0.123046875 L182.439453,0.123046875 L182.439453,12.3730469 L181.195312,12.3730469 L178.064453,4.22460938 L178.064453,12.3730469 L176.314453,12.3730469 Z" id="under-construction" fill="#20C565"></path>
        </g>
    </g>
</svg>