<?xml version="1.0" encoding="UTF-8"?>
<svg width="14px" height="11px" viewBox="0 0 14 11" version="1.1" xmlns="http://www.w3.org/2000/svg" xmlns:xlink="http://www.w3.org/1999/xlink">
    <!-- Generator: Sketch 48.2 (47327) - http://www.bohemiancoding.com/sketch -->
    <title>youtube</title>
    <desc>Created with Sketch.</desc>
    <defs></defs>
    <g id="Socials" stroke="none" stroke-width="1" fill="none" fill-rule="evenodd" transform="translate(0.000000, -29.000000)">
        <path d="M5.798165,39.4869881 C3.13192577,39.4345642 2.22127455,39.3874105 1.66153315,39.2642561 C1.28283107,39.1824305 0.953739487,39.00075 0.712440291,38.7372439 C0.525946402,38.5378114 0.37763441,38.2335312 0.262569239,37.8113667 C0.163867738,37.4596553 0.1254261,37.1670249 0.0706207932,36.4522299 C-0.0132754827,34.8390178 -0.0332755237,33.5201004 0.0706207932,32.0464079 C0.156335255,31.2325901 0.197893781,30.2664935 0.767245598,29.7028679 C1.03607732,29.4390844 1.34880523,29.269331 1.69997478,29.1991551 C2.24854734,29.0879278 4.58569498,29 7.00518046,29 C9.41921139,29 11.7615539,29.0879278 12.3106459,29.1991551 C12.7493481,29.287083 13.1607775,29.5505891 13.4023364,29.8903732 C13.921818,30.7629945 13.9309089,31.8480849 13.9836363,32.6968519 C14.0054546,33.1012644 14.0054546,35.3976508 13.9836363,35.8020633 C13.9015582,37.143448 13.8355841,37.6180364 13.6490902,38.1100994 C13.5337653,38.4207592 13.4353235,38.5846877 13.2649336,38.7663682 C12.9977027,39.0459505 12.6570257,39.2319172 12.2883082,39.2994827 C9.98103072,39.4847691 8.02180593,39.5249884 5.798165,39.4869881 Z M9.331419,34.0970401 C8.04778,33.3644932 6.81868658,32.6852022 5.56232036,31.9820569 L5.56232036,36.1887238 C6.884401,35.4212276 8.27817009,34.7180824 9.33687356,34.0912153 L9.331419,34.0970401 Z" id="youtube" fill="#747D87" fill-rule="nonzero"></path>
    </g>
</svg>