<?xml version="1.0" encoding="UTF-8"?>
<svg width="115px" height="40px" viewBox="0 0 115 40" version="1.1" xmlns="http://www.w3.org/2000/svg" xmlns:xlink="http://www.w3.org/1999/xlink">
    <!-- Generator: Sketch 50.2 (55047) - http://www.bohemiancoding.com/sketch -->
    <title>Logo</title>
    <desc>Created with Sketch.</desc>
    <defs></defs>
    <g id="Mainsite-Update" stroke="none" stroke-width="1" fill="none" fill-rule="evenodd">
        <g id="v2-Home" transform="translate(-40.000000, -39.000000)" fill="#2B2B2B">
            <g id="Logo" transform="translate(40.000000, 39.000000)">
                <polygon id="Fill-1" points="76.4572477 16.1845872 80.4884404 16.1845872 80.4884404 0.366605505 76.4572477 0.366605505"></polygon>
                <polygon id="Fill-2" points="93.5177982 39.9111927 97.5489908 39.9111927 97.5489908 24.093211 93.5177982 24.093211"></polygon>
                <polygon id="Fill-3" points="88.2730275 16.1845872 92.3042202 16.1845872 92.3042202 0.366605505 88.2730275 0.366605505"></polygon>
                <polygon id="Fill-4" points="84.3669725 4.39816514 96.2106422 4.39816514 96.2106422 0.366972477 84.3669725 0.366972477"></polygon>
                <g id="Group-14" transform="translate(0.000000, 0.279266)">
                    <path d="M85.1973211,35.8354862 C84.9074128,36.0608073 84.4035596,36.1727339 83.6831927,36.1727339 L80.4857615,36.1727339 L80.4857615,33.0732844 L83.7675963,33.0732844 C84.4450275,33.0732844 84.9037431,33.1433761 85.1441101,33.2842936 C85.4688807,33.4809908 85.6314495,33.9088807 85.6314495,34.5705321 C85.6314495,35.1892477 85.4864954,35.6108991 85.1973211,35.8354862 Z M80.4857615,27.2732844 L84.0435596,27.2732844 C84.6072294,27.2732844 84.9819083,27.3786055 85.1653945,27.5892477 C85.305945,27.772 85.3771376,28.1165872 85.3771376,28.6226422 C85.3771376,29.2556697 85.2571376,29.6666789 85.0175046,29.8567706 C84.7764037,30.0461284 84.2824587,30.1411743 83.5345688,30.1411743 L80.4857615,30.1411743 L80.4857615,27.2732844 Z M87.3195229,31.6809908 L87.3195229,31.5121835 C88.305945,31.3576881 88.9841101,30.9569541 89.3518165,30.3099817 C89.6615413,29.7907156 89.8171376,28.9742018 89.8171376,27.8633761 C89.8171376,26.2468624 89.3727339,25.1356697 88.4835596,24.531633 C87.7631927,24.0534679 86.5353028,23.8142018 84.7995229,23.8142018 L76.4571376,23.8142018 L76.4571376,39.6318165 L84.8839266,39.6318165 C86.7470459,39.6318165 88.0314495,39.3786055 88.7378716,38.8721835 C89.6270459,38.2542018 90.0707156,37.0376881 90.0707156,35.2241101 C90.0707156,34.0989725 89.9088807,33.2769541 89.5841101,32.7565872 C89.1609908,32.1099817 88.4050275,31.7518165 87.3195229,31.6809908 Z" id="Fill-5"></path>
                    <polygon id="Fill-7" points="114.35545 23.8141284 101.91178 23.8141284 101.91178 27.4838532 108.89233 27.4838532 101.427009 36.0677064 101.427009 39.6317431 114.35545 39.6317431 114.35545 35.9623853 106.784073 35.9623853 114.35545 27.3572477"></polygon>
                    <path d="M2.63633028,15.906422 L18.4550459,15.906422 L18.4550459,2.7240367 L2.63633028,2.7240367 L2.63633028,15.906422 Z M0,0.0873394495 L0,22.9255046 L4.38275229,18.5427523 L21.0917431,18.5427523 L21.0917431,0.0873394495 L0,0.0873394495 Z" id="Fill-9"></path>
                    <polygon id="Fill-11" points="0 26.6503486 0 39.632 21.0917431 39.632 21.0917431 21.1765872 5.47266055 21.1776881"></polygon>
                    <path d="M54.3576514,0.0875229358 L23.7282936,0.0875229358 L23.7282936,18.5425688 L53.7371009,18.5425688 C59.0046239,18.5425688 63.2747156,14.2724771 63.2747156,9.00458716 C63.2747156,4.07981651 59.282422,0.0875229358 54.3576514,0.0875229358" id="Fill-12"></path>
                    <path d="M54.3576514,21.1778716 L23.7282936,21.1778716 L23.7282936,39.6329174 L53.7371009,39.6329174 C59.0046239,39.6329174 63.2747156,35.3628257 63.2747156,30.0949358 C63.2747156,25.1701651 59.282422,21.1778716 54.3576514,21.1778716" id="Fill-13"></path>
                </g>
            </g>
        </g>
    </g>
</svg>