<?xml version="1.0" encoding="UTF-8"?>
<svg width="1680px" height="1280px" viewBox="0 0 1680 1280" version="1.1" xmlns="http://www.w3.org/2000/svg" xmlns:xlink="http://www.w3.org/1999/xlink">
    <!-- Generator: Sketch 50.2 (55047) - http://www.bohemiancoding.com/sketch -->
    <title>Star_Loop</title>
    <desc>Created with Sketch.</desc>
    <defs>
        <rect id="path-1" x="0" y="0" width="1680" height="1280"></rect>
    </defs>
    <g id="Mainsite-Update" stroke="none" stroke-width="1" fill="none" fill-rule="evenodd">
        <g id="Star_Loop">
            <mask id="mask-2" fill="white">
                <use xlink:href="#path-1"></use>
            </mask>
            <use id="Mask" fill="#45B97C" xlink:href="#path-1"></use>
            <g opacity="0.400000006" mask="url(#mask-2)" id="Looper_Group" stroke-linecap="round" stroke-linejoin="round">
                <g transform="translate(797.996115, 642.498292) rotate(-3.000000) translate(-797.996115, -642.498292) translate(-5839.003885, -5936.001708)">
                    <g>
                        <g id="original_original_Star_95544372_79122202-Group" stroke="#2B2B2B" stroke-width="2">
                            <polygon id="duplicate_170_original_original_Star_95544372_79122202" transform="translate(6632.968735, 6578.433809) rotate(357.882353) translate(-6632.968735, -6578.433809) " points="6632.96874 9928.64261 3326.11496 11667.1585 3957.66783 7984.92273 1282.36693 5377.14886 4979.54185 4839.9179 6632.96874 1489.7091 8286.39562 4839.9179 11983.5705 5377.14886 9308.26964 7984.92273 9939.82251 11667.1585"></polygon>
                            <polygon id="duplicate_169_original_original_Star_95544372_79122202" transform="translate(6633.366930, 6578.433809) rotate(355.764706) translate(-6633.366930, -6578.433809) " points="6633.36693 9908.99173 3345.90973 11637.3103 3973.75818 7976.67287 1314.14944 5384.19507 4989.63833 4850.11528 6633.36693 1519.55735 8277.09553 4850.11528 11952.5844 5384.19507 9292.97568 7976.67287 9920.82413 11637.3103"></polygon>
                            <polygon id="duplicate_168_original_original_Star_95544372_79122202" transform="translate(6633.649439, 6578.433809) rotate(353.647059) translate(-6633.649439, -6578.433809) " points="6633.64944 9889.16894 3365.7585 11607.2009 3989.87014 7968.35084 1346.09083 5391.30294 4999.70397 4860.40187 6633.64944 1549.66674 8267.59491 4860.40187 11921.208 5391.30294 9277.42874 7968.35084 9901.54038 11607.2009"></polygon>
                            <polygon id="duplicate_167_original_original_Star_95544372_79122202" transform="translate(6634.090832, 6578.433809) rotate(351.529412) translate(-6634.090832, -6578.433809) " points="6634.09083 9869.51705 3385.59747 11577.3511 4006.0045 7960.10056 1377.91817 5398.34952 5009.84415 4870.59978 6634.09083 1579.51655 8258.33751 4870.59978 11890.2635 5398.34952 9262.17716 7960.10056 9882.58419 11577.3511"></polygon>
                            <polygon id="duplicate_166_original_original_Star_95544372_79122202" transform="translate(6634.418168, 6578.433809) rotate(349.411765) translate(-6634.418168, -6578.433809) " points="6634.41817 9849.69527 3405.49007 11547.2432 4022.16047 7951.77896 1409.90276 5405.45702 5019.95412 4880.88585 6634.41817 1609.62439 8248.88222 4880.88585 11858.9336 5405.45702 9246.67587 7951.77896 9863.34626 11547.2432"></polygon>
                            <polygon id="duplicate_165_original_original_Star_95544372_79122202" transform="translate(6634.902763, 6578.433809) rotate(347.294118) translate(-6634.902763, -6578.433809) " points="6634.90276 9830.04236 3425.37325 11517.3919 4038.33885 7943.52824 1441.77493 5412.50397 5030.13801 4891.08429 6634.90276 1639.47574 8239.66752 4891.08429 11828.0306 5412.50397 9231.46668 7943.52824 9844.43227 11517.3919"></polygon>
                            <polygon id="duplicate_164_original_original_Star_95544372_79122202" transform="translate(6635.274929, 6578.433809) rotate(345.176471) translate(-6635.274929, -6578.433809) " points="6635.27493 9810.5508 3444.98474 11487.7856 4054.27595 7935.34527 1473.27696 5419.49306 5040.12983 4901.199 6635.27493 1669.082 8230.42003 4901.199 11797.2729 5419.49306 9216.27391 7935.34527 9825.56512 11487.7856"></polygon>
                            <polygon id="duplicate_163_original_original_Star_95544372_79122202" transform="translate(6635.276961, 6578.433809) rotate(343.058824) translate(-6635.276961, -6578.433809) " points="6635.27696 9790.56968 3464.70932 11457.4357 4070.23386 7926.95677 1505.19075 5426.65769 5049.99314 4911.56776 6635.27696 1699.43189 8220.56078 4911.56776 11765.3632 5426.65769 9200.32007 7926.95677 9805.84461 11457.4357"></polygon>
                            <polygon id="duplicate_162_original_original_Star_95544372_79122202" transform="translate(6635.690750, 6578.433809) rotate(340.941176) translate(-6635.690750, -6578.433809) " points="6635.69075 9771.07513 3484.36537 11427.8249 4086.21497 7918.77255 1536.73918 5433.64786 5060.02806 4921.68401 6635.69075 1729.04269 8211.35344 4921.68401 11734.6423 5433.64786 9185.16653 7918.77255 9787.01613 11427.8249"></polygon>
                            <polygon id="duplicate_161_original_original_Star_95544372_79122202" transform="translate(6635.739180, 6578.433809) rotate(338.823529) translate(-6635.739180, -6578.433809) " points="6635.73918 9751.09699 3504.1334 11397.4796 4102.21689 7910.3853 1568.69459 5440.81142 5069.93629 4932.05122 6635.73918 1759.38804 8201.54207 4932.05122 11702.7838 5440.81142 9169.26147 7910.3853 9767.34496 11397.4796"></polygon>
                            <polygon id="duplicate_160_original_original_Star_95544372_79122202" transform="translate(6636.194595, 6578.433809) rotate(336.705882) translate(-6636.194595, -6578.433809) " points="6636.19459 9731.59946 3523.83404 11367.8642 4118.24201 7902.19982 1600.28943 5447.80265 5080.01432 4942.16903 6636.19459 1789.00338 8192.37487 4942.16903 11672.0998 5447.80265 9154.14718 7902.19982 9748.55515 11367.8642"></polygon>
                            <polygon id="duplicate_159_original_original_Star_95544372_79122202" transform="translate(6636.289428, 6578.433809) rotate(334.588235) translate(-6636.289428, -6578.433809) " points="6636.28943 9711.62431 3543.64552 11337.5234 4134.28795 7893.81383 1632.28647 5454.96515 5089.96747 4952.53469 6636.28943 1819.34419 8182.61138 4952.53469 11640.2924 5454.96515 9138.29091 7893.81383 9728.93333 11337.5234"></polygon>
                            <polygon id="duplicate_158_original_original_Star_95544372_79122202" transform="translate(6636.786472, 6578.433809) rotate(332.470588) translate(-6636.786472, -6578.433809) " points="6636.78647 9692.12378 3563.39074 11307.9035 4150.35709 7885.62709 1663.92771 5461.95746 5100.0886 4962.65405 6636.78647 1848.96408 8173.48434 4962.65405 11609.6452 5461.95746 9123.21585 7885.62709 9710.18221 11307.9035"></polygon>
                            <polygon id="duplicate_157_original_original_Star_95544372_79122202" transform="translate(6636.927712, 6578.433809) rotate(330.352941) translate(-6636.927712, -6578.433809) " points="6636.92771 9672.48081 3582.92075 11278.0673 4166.18418 7877.38055 1695.44064 5469.00084 5109.92423 4972.84733 6636.92771 1878.80033 8163.93119 4972.84733 11578.4148 5469.00084 9107.67125 7877.38055 9690.93467 11278.0673"></polygon>
                            <polygon id="duplicate_156_original_original_Star_95544372_79122202" transform="translate(6636.940644, 6578.433809) rotate(328.235294) translate(-6636.940644, -6578.433809) " points="6636.94064 9652.6502 3602.50766 11247.946 4182.03279 7869.05524 1727.12494 5476.1115 5119.72415 4983.13798 6636.94064 1908.92159 8154.15714 4983.13798 11546.7563 5476.1115 9091.8485 7869.05524 9671.37363 11247.946"></polygon>
                            <polygon id="duplicate_155_original_original_Star_95544372_79122202" transform="translate(6637.124939, 6578.433809) rotate(326.117647) translate(-6637.124939, -6578.433809) " points="6637.12494 9633.00603 3622.08191 11218.108 4197.90389 7860.8082 1758.68284 5483.15532 5129.60342 4993.33188 6637.12494 1938.75966 8144.64645 4993.33188 11515.567 5483.15532 9076.34599 7860.8082 9652.16797 11218.108"></polygon>
                            <polygon id="duplicate_154_original_original_Star_95544372_79122202" transform="translate(6637.182839, 6578.433809) rotate(324.000000) translate(-6637.182839, -6578.433809) " points="6637.18284 9613.17662 3641.71261 11187.9885 4213.79652 7852.4834 1790.41019 5490.26555 5139.44772 5003.62191 6637.18284 1968.8791 8134.91796 5003.62191 11483.9555 5490.26555 9060.56916 7852.4834 9632.65307 11187.9885"></polygon>
                            <polygon id="duplicate_153_original_original_Star_95544372_79122202" transform="translate(6637.410193, 6578.433809) rotate(321.882353) translate(-6637.410193, -6578.433809) " points="6637.41019 9593.53125 3661.3311 11158.1486 4229.71163 7844.23585 1822.01307 5497.30979 5149.37065 5013.81644 6637.41019 1998.71899 8125.44974 5013.81644 11452.8073 5497.30979 9045.10876 7844.23585 9613.48929 11158.1486"></polygon>
                            <polygon id="duplicate_152_original_original_Star_95544372_79122202" transform="translate(6637.513066, 6578.433809) rotate(319.764706) translate(-6637.513066, -6578.433809) " points="6637.51307 9573.70304 3681.00559 11128.031 4245.64827 7835.91155 1853.78348 5504.4196 5159.25933 5024.10585 6637.51307 2028.83662 8115.7668 5024.10585 11421.2426 5504.4196 9029.37786 7835.91155 9594.02054 11128.031"></polygon>
                            <polygon id="duplicate_151_original_original_Star_95544372_79122202" transform="translate(6637.783482, 6578.433809) rotate(317.647059) translate(-6637.783482, -6578.433809) " points="6637.78348 9554.05647 3700.66833 11098.1893 4261.60741 7827.6635 1885.43133 5511.46427 5169.2259 5034.30099 6637.78348 2058.67833 8106.34106 5034.30099 11390.1356 5511.46427 9013.95956 7827.6635 9574.89864 11098.1893"></polygon>
                            <polygon id="duplicate_150_original_original_Star_95544372_79122202" transform="translate(6637.931332, 6578.433809) rotate(315.529412) translate(-6637.931332, -6578.433809) " points="6637.93133 9534.22945 3720.38662 11068.0735 4277.58807 7819.33969 1917.24482 5518.57365 5179.15897 5044.58978 6637.93133 2088.79414 8096.70369 5044.58978 11358.6178 5518.57365 8998.27459 7819.33969 9555.47605 11068.0735"></polygon>
                            <polygon id="duplicate_149_original_original_Star_95544372_79122202" transform="translate(6638.244816, 6578.433809) rotate(313.411765) translate(-6638.244816, -6578.433809) " points="6638.24482 9514.58169 3740.0936 11038.2299 4293.59123 7811.09114 1948.93765 5525.61875 5189.16921 5054.78555 6638.24482 2118.63767 8087.32042 5054.78555 11327.552 5525.61875 8982.8984 7811.09114 9536.39603 11038.2299"></polygon>
                            <polygon id="duplicate_148_original_original_Star_95544372_79122202" transform="translate(6638.437648, 6578.433809) rotate(311.294118) translate(-6638.437648, -6578.433809) " points="6638.43765 9494.75586 3759.85569 11008.116 4309.61593 7802.76784 1980.7942 5532.7277 5199.14667 5065.07372 6638.43765 2148.75166 8077.72863 5065.07372 11296.0811 5532.7277 8967.25937 7802.76784 9517.0196 11008.116"></polygon>
                            <polygon id="duplicate_147_original_original_Star_95544372_79122202" transform="translate(6638.794204, 6578.433809) rotate(309.176471) translate(-6638.794204, -6578.433809) " points="6638.7942 9475.1069 3779.60693 10978.2706 4325.66311 7794.51879 2012.53202 5539.77324 5209.20057 5075.27011 6638.7942 2178.59701 8068.38784 5075.27011 11265.0564 5539.77324 8951.9253 7794.51879 9497.98147 10978.2706"></polygon>
                            <polygon id="duplicate_146_original_original_Star_95544372_79122202" transform="translate(6639.032022, 6578.433809) rotate(307.058824) translate(-6639.032022, -6578.433809) " points="6639.03202 9455.28227 3799.41283 10948.1584 4341.73184 7786.19599 2044.43166 5546.88176 5219.22243 5085.55765 6639.03202 2208.70919 8058.84162 5085.55765 11233.6324 5546.88176 8936.33221 7786.19599 9478.65121 10948.1584"></polygon>
                            <polygon id="duplicate_145_original_original_Star_95544372_79122202" transform="translate(6639.431655, 6578.433809) rotate(304.941176) translate(-6639.431655, -6578.433809) " points="6639.43166 9435.63211 3819.20833 10918.3113 4357.82306 7777.94643 2076.21446 5553.92772 5229.31999 5095.75466 6639.43166 2238.55636 8049.54332 5095.75466 11202.6488 5553.92772 8921.04025 7777.94643 9459.65498 10918.3113"></polygon>
                            <polygon id="duplicate_144_original_original_Star_95544372_79122202" transform="translate(6639.714464, 6578.433809) rotate(302.823529) translate(-6639.714464, -6578.433809) " points="6639.71446 9415.80868 3839.05804 10888.2009 4373.93582 7769.62413 2108.15718 5561.03581 5239.38625 5106.04159 6639.71446 2268.66672 8040.04268 5106.04159 11171.2717 5561.03581 8905.49311 7769.62413 9440.37089 10888.2009"></polygon>
                            <polygon id="duplicate_143_original_original_Star_95544372_79122202" transform="translate(6640.157179, 6578.433809) rotate(300.705882) translate(-6640.157179, -6578.433809) " points="6640.15718 9396.15732 3858.89781 10858.3519 4390.07108 7761.37407 2139.98498 5568.0822 5249.52749 5116.23923 6640.15718 2298.51572 8030.78687 5116.23923 11140.3294 5568.0822 8890.24328 7761.37407 9421.41655 10858.3519"></polygon>
                            <polygon id="duplicate_142_original_original_Star_95544372_79122202" transform="translate(6640.484984, 6578.433809) rotate(298.588235) translate(-6640.484984, -6578.433809) " points="6640.48498 9376.33508 3878.79133 10828.2434 4406.22789 7753.05228 2171.97079 5575.18986 5259.63816 5126.52553 6640.48498 2328.62426 8021.33181 5126.52553 11108.9992 5575.18986 8874.74208 7753.05228 9402.17864 10828.2434"></polygon>
                            <polygon id="duplicate_141_original_original_Star_95544372_79122202" transform="translate(6640.970787, 6578.433809) rotate(296.470588) translate(-6640.970787, -6578.433809) " points="6640.97079 9356.68252 3898.67537 10798.3925 4422.40719 7744.80172 2203.84359 5582.23669 5269.82308 5136.72379 6640.97079 2358.47508 8012.1185 5136.72379 11078.098 5582.23669 8859.53438 7744.80172 9383.2662 10798.3925"></polygon>
                            <polygon id="duplicate_140_original_original_Star_95544372_79122202" transform="translate(6641.343594, 6578.433809) rotate(294.352941) translate(-6641.343594, -6578.433809) " points="6641.34359 9337.19068 3918.28777 10768.7859 4438.34515 7736.61863 2235.34671 5589.22588 5279.81568 5146.83864 6641.34359 2388.08177 8002.87151 5146.83864 11047.3405 5589.22588 8844.34203 7736.61863 9364.39942 10768.7859"></polygon>
                            <polygon id="duplicate_139_original_original_Star_95544372_79122202" transform="translate(6641.346714, 6578.433809) rotate(292.235294) translate(-6641.346714, -6578.433809) " points="6641.34671 9317.21008 3938.01293 10738.4368 4454.30374 7728.23034 2267.26076 5596.39033 5289.67982 5157.20713 6641.34671 2418.43086 7993.01361 5157.20713 11015.4327 5596.39033 8828.38969 7728.23034 9344.6805 10738.4368"></polygon>
                            <polygon id="duplicate_138_original_original_Star_95544372_79122202" transform="translate(6641.760764, 6578.433809) rotate(290.117647) translate(-6641.760764, -6578.433809) " points="6641.76076 9297.71474 3957.67002 10708.8248 4470.28574 7720.04579 2298.81071 5603.38077 5299.71539 5167.3238 6641.76076 2448.04286 7983.80613 5167.3238 10984.7108 5603.38077 8813.23579 7720.04579 9325.85151 10708.8248"></polygon>
                            <polygon id="duplicate_137_original_original_Star_95544372_79122202" transform="translate(6641.810714, 6578.433809) rotate(288.000000) translate(-6641.810714, -6578.433809) " points="6641.81071 9277.73763 3977.43856 10678.481 4486.28836 7711.65897 2330.76601 5610.54397 5309.62464 5177.69047 6641.81071 2478.38665 7973.99679 5177.69047 10952.8554 5610.54397 8797.33307 7711.65897 9306.18287 10678.481"></polygon>
                            <polygon id="duplicate_136_original_original_Star_95544372_79122202" transform="translate(6642.266012, 6578.433809) rotate(285.882353) translate(-6642.266012, -6578.433809) " points="6642.26601 9258.2388 3997.14036 10648.8636 4502.31441 7703.47295 2362.3628 5617.53567 5319.70318 5187.80896 6642.26601 2508.00397 7964.82884 5187.80896 10922.1692 5617.53567 8782.21762 7703.47295 9287.39167 10648.8636"></polygon>
                            <polygon id="duplicate_135_original_original_Star_95544372_79122202" transform="translate(6642.362798, 6578.433809) rotate(283.764706) translate(-6642.362798, -6578.433809) " points="6642.3628 9238.26518 4016.95228 10618.5252 4518.36107 7695.0876 2394.35935 5624.69761 5329.65754 5198.17382 6642.3628 2538.34245 7955.06806 5198.17382 10890.3662 5624.69761 8766.36452 7695.0876 9267.77331 10618.5252"></polygon>
                            <polygon id="duplicate_134_original_original_Star_95544372_79122202" transform="translate(6642.859350, 6578.433809) rotate(281.647059) translate(-6642.859350, -6578.433809) " points="6642.85935 9218.76285 4036.69879 10588.9025 4534.43116 7686.9001 2426.00298 5631.69057 5339.77907 5208.29412 6642.85935 2567.96508 7945.93963 5208.29412 10859.7157 5631.69057 8751.28754 7686.9001 9249.01991 10588.9025"></polygon>
                            <polygon id="duplicate_133_original_original_Star_95544372_79122202" transform="translate(6643.002978, 6578.433809) rotate(279.529412) translate(-6643.002978, -6578.433809) " points="6643.00298 9199.12192 4056.22917 10559.0694 4550.25901 7678.65442 2457.51504 5638.73322 5349.61607 5218.48634 6643.00298 2597.79823 7936.38988 5218.48634 10828.4909 5638.73322 8735.74695 7678.65442 9229.77678 10559.0694"></polygon>
                            <polygon id="duplicate_132_original_original_Star_95544372_79122202" transform="translate(6643.015039, 6578.433809) rotate(277.411765) translate(-6643.015039, -6578.433809) " points="6643.01504 9179.28938 4075.81712 10528.9452 4566.1083 7670.3283 2489.20155 5645.84458 5359.41608 5228.77799 6643.01504 2627.92242 7926.614 5228.77799 10796.8285 5645.84458 8719.92178 7670.3283 9210.21296 10528.9452"></polygon>
                            <polygon id="duplicate_131_original_original_Star_95544372_79122202" transform="translate(6643.201552, 6578.433809) rotate(275.294118) translate(-6643.201552, -6578.433809) " points="6643.20155 9159.647 4095.39182 10499.1098 4581.98018 7662.08201 2520.75881 5652.88775 5369.29669 5238.97096 6643.20155 2657.75777 7917.10642 5238.97096 10765.6443 5652.88775 8704.42292 7662.08201 9191.01129 10499.1098"></polygon>
                            <polygon id="duplicate_130_original_original_Star_95544372_79122202" transform="translate(6643.258806, 6578.433809) rotate(273.176471) translate(-6643.258806, -6578.433809) " points="6643.25881 9139.8159 4115.02354 10468.9878 4597.87351 7653.7565 2552.48821 5659.99859 5379.14117 5249.26187 6643.25881 2687.87978 7907.37644 5249.26187 10734.0294 5659.99859 8688.6441 7653.7565 9171.49407 10468.9878"></polygon>
                            <polygon id="duplicate_129_original_original_Star_95544372_79122202" transform="translate(6643.488209, 6578.433809) rotate(271.058824) translate(-6643.488209, -6578.433809) " points="6643.48821 9120.17208 4134.64255 10439.1503 4613.78944 7645.5096 2584.09066 5667.04228 5389.06538 5259.45559 6643.48821 2717.71732 7897.91104 5259.45559 10702.8858 5667.04228 8673.18698 7645.5096 9152.33387 10439.1503"></polygon>
                            <polygon id="duplicate_128_original_original_Star_95544372_79122202" transform="translate(6643.590661, 6578.433809) rotate(268.941176) translate(-6643.590661, -6578.433809) " points="6643.59066 9100.34242 4154.31805 10409.0305 4629.72681 7637.18469 2615.86296 5674.1526 5398.95435 5269.74575 6643.59066 2747.83713 7888.22697 5269.74575 10671.3184 5674.1526 8657.45451 7637.18469 9132.86328 10409.0305"></polygon>
                            <polygon id="duplicate_127_original_original_Star_95544372_79122202" transform="translate(6643.862961, 6578.433809) rotate(266.823529) translate(-6643.862961, -6578.433809) " points="6643.86296 9080.69716 4173.98138 10379.1907 4645.68679 7628.93719 2647.51062 5681.19681 5408.92217 5279.94022 6643.86296 2777.67687 7878.80375 5279.94022 10640.2153 5681.19681 8642.03913 7628.93719 9113.74454 10379.1907"></polygon>
                            <polygon id="duplicate_126_original_original_Star_95544372_79122202" transform="translate(6644.010618, 6578.433809) rotate(264.705882) translate(-6644.010618, -6578.433809) " points="6644.01062 9060.86894 4193.70066 10349.0731 4661.66822 7620.61288 2679.32582 5688.30661 5418.85564 5290.22963 6644.01062 2807.7945 7869.1656 5290.22963 10608.6954 5688.30661 8626.35302 7620.61288 9094.32058 10349.0731"></polygon>
                            <polygon id="duplicate_125_original_original_Star_95544372_79122202" transform="translate(6644.325820, 6578.433809) rotate(262.588235) translate(-6644.325820, -6578.433809) " points="6644.32582 9041.22223 4213.40832 10319.2312 4677.67225 7612.36478 2711.01869 5695.35134 5428.86707 5300.42485 6644.32582 2837.63643 7859.78457 5300.42485 10577.633 5695.35134 8610.97939 7612.36478 9075.24332 10319.2312"></polygon>
                            <polygon id="duplicate_124_original_original_Star_95544372_79122202" transform="translate(6644.518687, 6578.433809) rotate(260.470588) translate(-6644.518687, -6578.433809) " points="6644.51869 9021.39545 4233.17139 10289.1158 4693.69774 7604.04107 2742.8768 5702.46063 5438.84504 5310.71351 6644.51869 2867.75187 7850.19234 5310.71351 10546.1606 5702.46063 8595.33963 7604.04107 9055.86599 10289.1158"></polygon>
                            <polygon id="duplicate_123_original_original_Star_95544372_79122202" transform="translate(6644.876799, 6578.433809) rotate(258.352941) translate(-6644.876799, -6578.433809) " points="6644.8768 9001.7473 4252.92339 10259.2716 4709.74584 7595.79236 2774.61488 5709.50587 5448.90009 5320.90948 6644.8768 2897.59599 7840.8535 5320.90948 10515.1387 5709.50587 8580.00776 7595.79236 9036.83021 10259.2716"></polygon>
                            <polygon id="duplicate_122_original_original_Star_95544372_79122202" transform="translate(6645.114884, 6578.433809) rotate(256.235294) translate(-6645.114884, -6578.433809) " points="6645.11488 8981.92196 4272.73025 10229.1584 4725.8154 7587.46926 2806.51591 5716.61464 5458.92257 5331.1974 6645.11488 2927.70924 7831.3072 5331.1974 10483.7139 5716.61464 8564.41437 7587.46926 9017.49952 10229.1584"></polygon>
                            <polygon id="duplicate_121_original_original_Star_95544372_79122202" transform="translate(6645.515912, 6578.433809) rotate(254.117647) translate(-6645.515912, -6578.433809) " points="6645.51591 8962.27236 4292.52659 10199.3121 4741.90757 7579.21994 2838.29922 5723.6604 5469.02125 5341.39412 6645.51591 2957.55557 7822.01057 5341.39412 10452.7326 5723.6604 8549.12426 7579.21994 8998.50523 10199.3121"></polygon>
                            <polygon id="duplicate_120_original_original_Star_95544372_79122202" transform="translate(6645.799221, 6578.433809) rotate(252.000000) translate(-6645.799221, -6578.433809) " points="6645.79922 8942.44847 4312.37726 10169.201 4758.0212 7570.89745 2870.24317 5730.76866 5479.08824 5351.68128 6645.79922 2987.66663 7812.5102 5351.68128 10421.3553 5730.76866 8533.57725 7570.89745 8979.22119 10169.201"></polygon>
                            <polygon id="duplicate_119_original_original_Star_95544372_79122202" transform="translate(6646.243173, 6578.433809) rotate(249.882353) translate(-6646.243173, -6578.433809) " points="6646.24317 8922.79742 4332.21795 10139.3525 4774.15744 7562.64752 2902.07171 5737.81494 5489.23056 5361.87876 6646.24317 3017.51514 7803.25578 5361.87876 10390.4146 5737.81494 8518.3289 7562.64752 8960.26839 10139.3525"></polygon>
                            <polygon id="duplicate_118_original_original_Star_95544372_79122202" transform="translate(6646.571714, 6578.433809) rotate(247.764706) translate(-6646.571714, -6578.433809) " points="6646.57171 8902.97497 4352.11242 10109.2436 4790.31516 7554.32563 2934.0586 5744.92268 5499.34207 5372.16517 6646.57171 3047.62402 7793.80136 5372.16517 10359.0848 5744.92268 8502.82827 7554.32563 8941.031 10109.2436"></polygon>
                            <polygon id="duplicate_117_original_original_Star_95544372_79122202" transform="translate(6647.058597, 6578.433809) rotate(245.647059) translate(-6647.058597, -6578.433809) " points="6647.0586 8883.32247 4371.99748 10079.3929 4806.49549 7546.0751 2965.93238 5751.96948 5509.52804 5382.3634 6647.0586 3077.47473 7784.58916 5382.3634 10328.1848 5751.96948 8487.62171 7546.0751 8922.11972 10079.3929"></polygon>
                            <polygon id="duplicate_116_original_original_Star_95544372_79122202" transform="translate(6647.432378, 6578.433809) rotate(243.529412) translate(-6647.432378, -6578.433809) " points="6647.43238 8863.83067 4391.61081 10049.7863 4822.4344 7537.89203 2997.43641 5758.95866 5519.5216 5392.47823 6647.43238 3107.08136 7775.34316 5392.47823 10297.4283 5758.95866 8472.43036 7537.89203 8903.25394 10049.7863"></polygon>
                            <polygon id="duplicate_115_original_original_Star_95544372_79122202" transform="translate(6647.436415, 6578.433809) rotate(241.411765) translate(-6647.436415, -6578.433809) " points="6647.43641 8843.85037 4411.33659 10019.4376 4838.39366 7529.50387 3029.3509 5766.123 5529.3865 5402.84656 6647.43641 3137.43 7765.48633 5402.84656 10265.5219 5766.123 8456.47917 7529.50387 8883.53624 10019.4376"></polygon>
                            <polygon id="duplicate_114_original_original_Star_95544372_79122202" transform="translate(6647.850899, 6578.433809) rotate(239.294118) translate(-6647.850899, -6578.433809) " points="6647.8509 8824.35435 4430.9948 9989.82457 4854.37664 7521.31903 3060.90238 5773.11369 5539.42285 5412.96359 6647.8509 3167.04305 7756.27895 5412.96359 10234.7994 5773.11369 8441.32516 7521.31903 8864.707 9989.82457"></polygon>
                            <polygon id="duplicate_113_original_original_Star_95544372_79122202" transform="translate(6647.902382, 6578.433809) rotate(237.176471) translate(-6647.902382, -6578.433809) " points="6647.90238 8804.37826 4450.76386 9959.48234 4870.37998 7512.93264 3092.85758 5780.27652 5549.33312 5423.32973 6647.90238 3197.38528 7746.47164 5423.32973 10202.9472 5780.27652 8425.42478 7512.93264 8845.0409 9959.48234"></polygon>
                            <polygon id="duplicate_112_original_original_Star_95544372_79122202" transform="translate(6648.357578, 6578.433809) rotate(235.058824) translate(-6648.357578, -6578.433809) " points="6648.35758 8784.87801 4470.46695 9929.86288 4886.40705 7504.74602 3124.45651 5787.26873 5559.41226 5433.44895 6648.35758 3227.00474 7737.30289 5433.44895 10172.2586 5787.26873 8410.30811 7504.74602 8826.24821 9929.86288"></polygon>
                            <polygon id="duplicate_111_original_original_Star_95544372_79122202" transform="translate(6648.456514, 6578.433809) rotate(232.941176) translate(-6648.456514, -6578.433809) " points="6648.45651 8764.90614 4490.2793 9899.52705 4902.45447 7496.3614 3156.45243 5794.43004 5569.36791 5443.8129 6648.45651 3257.34057 7727.54512 5443.8129 10140.4606 5794.43004 8394.45856 7496.3614 8806.63373 9899.52705"></polygon>
                            <polygon id="duplicate_110_original_original_Star_95544372_79122202" transform="translate(6648.952429, 6578.433809) rotate(230.823529) translate(-6648.952429, -6578.433809) " points="6648.95243 8745.40168 4510.02727 9869.90118 4918.52563 7488.17301 3188.09883 5801.42376 5579.48985 5453.93431 6648.95243 3286.96644 7718.41501 5453.93431 10109.806 5801.42376 8379.37923 7488.17301 8787.87759 9869.90118"></polygon>
                            <polygon id="duplicate_109_original_original_Star_95544372_79122202" transform="translate(6649.098828, 6578.433809) rotate(228.705882) translate(-6649.098828, -6578.433809) " points="6649.09883 8725.76321 4529.55799 9840.07177 4934.35427 7479.92837 3219.60972 5808.46553 5589.32841 5464.12525 6649.09883 3316.79584 7708.86924 5464.12525 10078.5879 5808.46553 8363.84338 7479.92837 8768.63966 9840.07177"></polygon>
                            <polygon id="duplicate_108_original_original_Star_95544372_79122202" transform="translate(6649.109718, 6578.433809) rotate(226.588235) translate(-6649.109718, -6578.433809) " points="6649.10972 8705.92836 4549.14705 9809.94407 4950.20423 7471.60128 3251.29875 5815.57772 5599.12839 5474.4181 6649.10972 3346.92355 7699.09105 5474.4181 10046.9207 5815.57772 8348.0152 7471.60128 8749.07238 9809.94407"></polygon>
                            <polygon id="duplicate_107_original_original_Star_95544372_79122202" transform="translate(6649.298751, 6578.433809) rotate(224.470588) translate(-6649.298751, -6578.433809) " points="6649.29875 8686.28809 4568.72219 9780.11192 4966.07696 7463.35587 3282.85516 5822.62013 5609.01047 5484.60998 6649.29875 3376.7557 7689.58703 5484.60998 10015.7423 5822.62013 8332.52054 7463.35587 8729.87531 9780.11192"></polygon>
                            <polygon id="duplicate_106_original_original_Star_95544372_79122202" transform="translate(6649.355162, 6578.433809) rotate(222.352941) translate(-6649.355162, -6578.433809) " points="6649.35516 8666.45504 4588.35499 9749.98695 4981.971 7455.02954 3314.58684 5829.73167 5618.85508 5494.9019 6649.35516 3406.88066 7679.85525 5494.9019 9984.12349 5829.73167 8316.73932 7455.02954 8710.35533 9749.98695"></polygon>
                            <polygon id="duplicate_105_original_original_Star_95544372_79122202" transform="translate(6649.586838, 6578.433809) rotate(220.235294) translate(-6649.586838, -6578.433809) " points="6649.58684 8646.81296 4607.97456 9720.15206 4997.88781 7446.78338 3346.18878 5836.77474 5628.7807 5505.09472 6649.58684 3436.71556 7670.39298 5505.09472 9952.9849 5836.77474 8301.28587 7446.78338 8691.19912 9720.15206"></polygon>
                            <polygon id="duplicate_104_original_original_Star_95544372_79122202" transform="translate(6649.688780, 6578.433809) rotate(218.117647) translate(-6649.688780, -6578.433809) " points="6649.68878 8626.98172 4627.65111 9690.02983 5013.82594 7438.4578 3377.96311 5843.88563 5638.66995 5515.3857 6649.68878 3466.83779 7660.70761 5515.3857 9921.41445 5843.88563 8285.55162 7438.4578 8671.72645 9690.02983"></polygon>
                            <polygon id="duplicate_103_original_original_Star_95544372_79122202" transform="translate(6649.963108, 6578.433809) rotate(216.000000) translate(-6649.963108, -6578.433809) " points="6649.96311 8607.33783 4647.31512 9660.19219 5029.78685 7430.21088 3409.61059 5850.92934 5648.63911 5525.57945 6649.96311 3496.67543 7651.2871 5525.57945 9890.31563 5850.92934 8270.13937 7430.21088 8652.6111 9660.19219"></polygon>
                            <polygon id="duplicate_102_original_original_Star_95544372_79122202" transform="translate(6650.110590, 6578.433809) rotate(213.882353) translate(-6650.110590, -6578.433809) " points="6650.11059 8587.50839 4667.03543 9630.07269 5045.76908 7421.88605 3441.42758 5858.03959 5658.57301 5535.8695 6650.11059 3526.79492 7641.64817 5535.8695 9858.7936 5858.03959 8254.4521 7421.88605 8633.18575 9630.07269"></polygon>
                            <polygon id="duplicate_101_original_original_Star_95544372_79122202" transform="translate(6650.427579, 6578.433809) rotate(211.764706) translate(-6650.427579, -6578.433809) " points="6650.42758 8567.86269 4686.74388 9600.23231 5061.77409 7413.63837 3473.12061 5865.08395 5668.58573 5546.06419 6650.42758 3556.63531 7632.26943 5546.06419 9827.73455 5865.08395 8239.08106 7413.63837 8614.11128 9600.23231"></polygon>
                            <polygon id="duplicate_100_original_original_Star_95544372_79122202" transform="translate(6650.620610, 6578.433809) rotate(209.647059) translate(-6650.620610, -6578.433809) " points="6650.62061 8548.03505 4706.50796 9570.11555 5077.80044 7405.31431 3504.98027 5872.19355 5678.56429 5556.3533 6650.62061 3586.75207 7622.67693 5556.3533 9796.26095 5872.19355 8223.44078 7405.31431 8594.73326 9570.11555"></polygon>
                            <polygon id="duplicate_99_original_original_Star_95544372_79122202" transform="translate(6650.980270, 6578.433809) rotate(207.529412) translate(-6650.980270, -6578.433809) " points="6650.98027 8528.38754 4726.26087 9540.27242 5093.84957 7397.06587 3536.71886 5879.23856 5688.62057 5566.54894 6650.98027 3616.5952 7613.33997 5566.54894 9765.24168 5879.23856 8208.11098 7397.06587 8575.69967 9540.27242"></polygon>
                            <polygon id="duplicate_98_original_original_Star_95544372_79122202" transform="translate(6651.218861, 6578.433809) rotate(205.411765) translate(-6651.218861, -6578.433809) " points="6651.21886 8508.5617 4746.06874 9510.1584 5109.92003 7388.74256 3568.6212 5886.34751 5698.6438 5576.83711 6651.21886 3646.70922 7603.79392 5576.83711 9733.81652 5886.34751 8192.51769 7388.74256 8556.36899 9510.1584"></polygon>
                            <polygon id="duplicate_97_original_original_Star_95544372_79122202" transform="translate(6651.621204, 6578.433809) rotate(203.294118) translate(-6651.621204, -6578.433809) " points="6651.6212 8488.91239 4765.86611 9480.31251 5126.01328 7380.49336 3600.40537 5893.39317 5708.74366 5587.03369 6651.6212 3676.5551 7594.49875 5587.03369 9702.83704 5893.39317 8177.22912 7380.49336 8537.3763 9480.31251"></polygon>
                            <polygon id="duplicate_96_original_original_Star_95544372_79122202" transform="translate(6651.905366, 6578.433809) rotate(201.176471) translate(-6651.905366, -6578.433809) " points="6651.90537 8469.08835 4785.71777 9450.20123 5142.12788 7372.1708 3632.3504 5900.50148 5718.81157 5597.32093 6651.90537 3706.66638 7584.99916 5597.32093 9671.46033 5900.50148 8161.68285 7372.1708 8518.09296 9450.20123"></polygon>
                            <polygon id="duplicate_95_original_original_Star_95544372_79122202" transform="translate(6652.350402, 6578.433809) rotate(199.058824) translate(-6652.350402, -6578.433809) " points="6652.3504 8449.43723 4805.55962 9420.3526 5158.26527 7363.92084 3664.18015 5907.54779 5728.95501 5607.51844 6652.3504 3736.51501 7575.74579 5607.51844 9640.52066 5907.54779 8146.43553 7363.92084 8499.14118 9420.3526"></polygon>
                            <polygon id="duplicate_94_original_original_Star_95544372_79122202" transform="translate(6652.680146, 6578.433809) rotate(196.941176) translate(-6652.680146, -6578.433809) " points="6652.68015 8429.61499 4825.45508 9390.24406 5174.42402 7355.59905 3696.16789 5914.65545 5739.06761 5617.80474 6652.68015 3766.62356 7566.29268 5617.80474 9609.1924 5914.65545 8130.93627 7355.59905 8479.90521 9390.24406"></polygon>
                            <polygon id="duplicate_93_original_original_Star_95544372_79122202" transform="translate(6653.167888, 6578.433809) rotate(194.823529) translate(-6653.167888, -6578.433809) " points="6653.16789 8409.96206 4845.34143 9360.39268 5190.60556 7347.34833 3728.04323 5921.7024 5749.25466 5628.00319 6653.16789 3796.47494 7557.08112 5628.00319 9578.29255 5921.7024 8115.73022 7347.34833 8460.99435 9360.39268"></polygon>
                            <polygon id="duplicate_92_original_original_Star_95544372_79122202" transform="translate(6653.543227, 6578.433809) rotate(192.705882) translate(-6653.543227, -6578.433809) " points="6653.54323 8390.47085 4864.95574 9330.78693 5206.54556 7339.1655 3759.54789 5928.69137 5759.24949 5638.11772 6653.54323 3826.08068 7547.83697 5638.11772 9547.53856 5928.69137 8100.5409 7339.1655 8442.13071 9330.78693"></polygon>
                            <polygon id="duplicate_91_original_original_Star_95544372_79122202" transform="translate(6653.547889, 6578.433809) rotate(190.588235) translate(-6653.547889, -6578.433809) " points="6653.54789 8370.49047 4884.68221 9300.43819 5222.5055 7330.77732 3791.4631 5935.85574 5769.11505 5648.48609 6653.54789 3856.42942 7537.98073 5648.48609 9515.63267 5935.85574 8084.59028 7330.77732 8422.41356 9300.43819"></polygon>
                            <polygon id="duplicate_90_original_original_Star_95544372_79122202" transform="translate(6653.963104, 6578.433809) rotate(188.470588) translate(-6653.963104, -6578.433809) " points="6653.9631 8350.99393 4904.34167 9270.82435 5238.48963 7322.59225 3823.01616 5942.84662 5779.15239 5658.60339 6653.9631 3886.04327 7528.77382 5658.60339 9484.91005 5942.84662 8069.43658 7322.59225 8403.58454 9270.82435"></polygon>
                            <polygon id="duplicate_89_original_original_Star_95544372_79122202" transform="translate(6654.016158, 6578.433809) rotate(186.352941) translate(-6654.016158, -6578.433809) " points="6654.01616 8331.01888 4924.11128 9240.4837 5254.49371 7314.2063 3854.97126 5950.00908 5789.06372 5668.96899 6654.01616 3916.38392 7518.9686 5668.96899 9453.06105 5950.00908 8053.53861 7314.2063 8383.92104 9240.4837"></polygon>
                            <polygon id="duplicate_88_original_original_Star_95544372_79122202" transform="translate(6654.471262, 6578.433809) rotate(184.235294) translate(-6654.471262, -6578.433809) " points="6654.47126 8311.517 4943.81589 9210.86175 5270.52199 7306.019 3886.57272 5957.00187 5799.14357 5679.08906 6654.47126 3946.00587 7509.79895 5679.08906 9422.3698 5957.00187 8038.42053 7306.019 8365.12664 9210.86175"></polygon>
                            <polygon id="duplicate_87_original_original_Star_95544372_79122202" transform="translate(6654.572721, 6578.433809) rotate(182.117647) translate(-6654.572721, -6578.433809) " points="6654.57272 8291.54728 4963.62864 9180.52919 5286.57022 7297.63528 3918.56773 5964.16242 5809.10068 5689.4519 6654.57272 3976.33843 7500.04476 5689.4519 9390.57772 5964.16242 8022.57522 7297.63528 8345.5168 9180.52919"></polygon>
                            <polygon id="duplicate_86_original_original_Star_95544372_79122202" transform="translate(6655.067727, 6578.433809) rotate(180.000000) translate(-6655.067727, -6578.433809) " points="6655.06773 8272.04006 4983.37842 9150.89914 5302.64267 7289.44574 3950.21761 5971.15712 5819.22307 5699.57473 6655.06773 4005.96847 7490.91238 5699.57473 9359.91785 5971.15712 8007.49279 7289.44574 8326.75704 9150.89914"></polygon>
                            <polygon id="duplicate_85_original_original_Star_95544372_79122202" transform="translate(6655.217606, 6578.433809) rotate(177.882353) translate(-6655.217606, -6578.433809) " points="6655.21761 8252.40486 5002.9094 9121.07469 5318.47219 7281.20246 3981.72677 5978.19772 5829.0635 5709.76398 6655.21761 4035.79293 7481.37171 5709.76398 9328.70844 5978.19772 7991.96302 7281.20246 8307.52581 9121.07469"></polygon>
                            <polygon id="duplicate_84_original_original_Star_95544372_79122202" transform="translate(6655.226768, 6578.433809) rotate(175.764706) translate(-6655.226768, -6578.433809) " points="6655.22677 8232.567 5022.4997 9090.94242 5334.32282 7272.87411 4013.41888 5985.31098 5838.86323 5720.05839 6655.22677 4065.9252 7471.5903 5720.05839 9297.03466 5985.31098 7976.13071 7272.87411 8287.95384 9090.94242"></polygon>
                            <polygon id="duplicate_83_original_original_Star_95544372_79122202" transform="translate(6655.418876, 6578.433809) rotate(173.647059) translate(-6655.418876, -6578.433809) " points="6655.41888 8212.92941 5042.07527 9061.11433 5350.19648 7264.62983 4044.97409 5992.35244 5848.74707 5730.24888 6655.41888 4095.75329 7462.09068 5730.24888 9265.86366 5992.35244 7960.64127 7264.62983 8268.76248 9061.11433"></polygon>
                            <polygon id="duplicate_82_original_original_Star_95544372_79122202" transform="translate(6655.474091, 6578.433809) rotate(171.529412) translate(-6655.474091, -6578.433809) " points="6655.47409 8193.09393 5061.70927 9030.98568 5366.09127 7256.30247 4076.70844 5999.46485 5858.59168 5740.54206 6655.47409 4125.88193 7452.3565 5740.54206 9234.23974 5999.46485 7944.85691 7256.30247 8249.23891 9030.98568"></polygon>
                            <polygon id="duplicate_81_original_original_Star_95544372_79122202" transform="translate(6655.708442, 6578.433809) rotate(169.411765) translate(-6655.708442, -6578.433809) " points="6655.70844 8173.45394 5081.32945 9001.15396 5382.00908 7248.05719 4108.30972 6006.50716 5868.51895 5750.73379 6655.70844 4155.71366 7442.89794 5750.73379 9203.10716 6006.50716 7929.4078 7248.05719 8230.08743 9001.15396"></polygon>
                            <polygon id="duplicate_80_original_original_Star_95544372_79122202" transform="translate(6655.809724, 6578.433809) rotate(167.294118) translate(-6655.809724, -6578.433809) " points="6655.80972 8153.62085 5101.00716 8971.02893 5397.94803 7239.73084 4140.08633 6013.61872 5878.40844 5761.02573 6655.80972 4185.83869 7433.211 5761.02573 9171.53311 6013.61872 7913.67142 7239.73084 8210.61229 8971.02893"></polygon>
                            <polygon id="duplicate_79_original_original_Star_95544372_79122202" transform="translate(6656.086334, 6578.433809) rotate(165.176471) translate(-6656.086334, -6578.433809) " points="6656.08633 8133.97847 5120.67197 8941.19357 5413.91002 7231.48455 4171.7337 6020.66189 5888.37915 5771.2187 6656.08633 4215.67405 7423.79352 5771.2187 9140.43897 6020.66189 7898.26265 7231.48455 8191.5007 8941.19357"></polygon>
                            <polygon id="duplicate_78_original_original_Star_95544372_79122202" transform="translate(6656.233699, 6578.433809) rotate(163.058824) translate(-6656.233699, -6578.433809) " points="6656.2337 8114.14776 5140.39341 8911.07217 5429.89314 7223.15919 4203.55258 6027.77259 5898.31355 5781.50941 6656.2337 4245.79545 7414.15384 5781.50941 9108.91481 6027.77259 7882.57426 7223.15919 8172.07399 8911.07217"></polygon>
                            <polygon id="duplicate_77_original_original_Star_95544372_79122202" transform="translate(6656.552583, 6578.433809) rotate(160.941176) translate(-6656.552583, -6578.433809) " points="6656.55258 8094.50298 5160.10285 8881.23317 5445.89932 7214.9119 4235.24605 6034.81662 5908.32772 5791.70362 6656.55258 4275.63445 7404.77745 5791.70362 9077.85912 6034.81662 7867.20585 7214.9119 8153.00232 8881.23317"></polygon>
                            <polygon id="duplicate_76_original_original_Star_95544372_79122202" transform="translate(6656.746047, 6578.433809) rotate(158.823529) translate(-6656.746047, -6578.433809) " points="6656.74605 8074.67466 5179.86803 8851.11538 5461.92664 7206.58755 4267.10722 6041.92647 5918.30704 5801.99309 6656.74605 4305.75223 7395.18505 5801.99309 9046.38487 6041.92647 7851.56546 7206.58755 8133.62406 8851.11538"></polygon>
                            <polygon id="duplicate_75_original_original_Star_95544372_79122202" transform="translate(6657.107224, 6578.433809) rotate(156.705882) translate(-6657.107224, -6578.433809) " points="6657.10722 8055.02749 5199.62213 8821.27275 5477.97702 7198.33924 4298.84681 6048.97136 5928.36468 5812.18855 6657.10722 4335.59487 7385.84977 5812.18855 9015.36764 6048.97136 7836.23743 7198.33924 8114.59232 8821.27275"></polygon>
                            <polygon id="duplicate_74_original_original_Star_95544372_79122202" transform="translate(6657.346806, 6578.433809) rotate(154.588235) translate(-6657.346806, -6578.433809) " points="6657.34681 8035.20155 5219.43108 8791.15858 5494.04855 7190.01589 4330.75029 6056.08035 5938.38894 5822.47678 6657.34681 4365.70903 7376.30467 5822.47678 8983.94332 6056.08035 7820.64506 7190.01589 8095.26253 8791.15858"></polygon>
                            <polygon id="duplicate_73_original_original_Star_95544372_79122202" transform="translate(6657.750294, 6578.433809) rotate(152.470588) translate(-6657.750294, -6578.433809) " points="6657.75029 8015.55198 5239.22986 8761.31231 5510.14315 7181.76659 4362.53601 6063.1261 5948.49008 5832.67348 6657.75029 4395.55531 7367.01051 5832.67348 8952.96457 6063.1261 7805.35743 7181.76659 8076.27073 8761.31231"></polygon>
                            <polygon id="duplicate_72_original_original_Star_95544372_79122202" transform="translate(6658.036013, 6578.433809) rotate(150.352941) translate(-6658.036013, -6578.433809) " points="6658.03601 7995.72843 5259.08259 8731.20176 5526.25892 7173.44424 4394.48183 6070.23423 5958.5593 5842.96047 6658.03601 4425.66586 7357.51272 5842.96047 8921.59019 6070.23423 7789.8131 7173.44424 8056.98943 8731.20176"></polygon>
                            <polygon id="duplicate_71_original_original_Star_95544372_79122202" transform="translate(6658.481832, 6578.433809) rotate(148.235294) translate(-6658.481832, -6578.433809) " points="6658.48183 7976.07646 5278.92606 8701.35185 5542.39777 7165.19392 4426.31371 6077.28084 5968.70395 5853.15842 6658.48183 4455.51577 7348.25972 5853.15842 8890.64995 6077.28084 7774.56589 7165.19392 8038.0376 8701.35185"></polygon>
                            <polygon id="duplicate_70_original_original_Star_95544372_79122202" transform="translate(6658.813710, 6578.433809) rotate(146.117647) translate(-6658.813710, -6578.433809) " points="6658.81371 7956.25529 5298.82261 8671.24492 5558.5578 7156.87257 4458.30188 6084.38812 5978.81816 5863.44417 6658.81371 4485.6227 7338.80926 5863.44417 8859.32554 6084.38812 7759.06962 7156.87257 8018.80481 8671.24492"></polygon>
                            <polygon id="duplicate_69_original_original_Star_95544372_79122202" transform="translate(6659.301884, 6578.433809) rotate(144.000000) translate(-6659.301884, -6578.433809) " points="6659.30188 7936.60092 5318.7108 8641.39136 5574.74091 7148.62125 4490.17994 6091.43559 5989.00634 5873.64337 6659.30188 4515.47625 7329.59743 5873.64337 8828.42382 6091.43559 7743.86285 7148.62125 7999.89297 8641.39136"></polygon>
                            <polygon id="duplicate_68_original_original_Star_95544372_79122202" transform="translate(6659.679943, 6578.433809) rotate(141.882353) translate(-6659.679943, -6578.433809) " points="6659.67994 7917.11137 5338.3262 8611.78814 5590.68231 7140.43912 4521.68467 6098.42396 5999.00307 5883.75703 6659.67994 4545.07947 7320.35682 5883.75703 8797.67521 6098.42396 7728.67758 7140.43912 7981.03369 8611.78814"></polygon>
                            <polygon id="duplicate_67_original_original_Star_95544372_79122202" transform="translate(6659.684672, 6578.433809) rotate(139.764706) translate(-6659.684672, -6578.433809) " points="6659.68467 7897.13023 5358.05349 8581.43824 5606.64293 7132.05062 4553.60118 6105.5886 6008.86908 5894.1258 6659.68467 4575.42938 7310.50026 5894.1258 8765.76816 6105.5886 7712.72642 7132.05062 7961.31585 8581.43824"></polygon>
                            <polygon id="duplicate_66_original_original_Star_95544372_79122202" transform="translate(6660.101179, 6578.433809) rotate(137.647059) translate(-6660.101179, -6578.433809) " points="6660.10118 7877.63342 5377.7145 8551.824 5622.62856 7123.86544 4585.15594 6112.57958 6018.90784 5904.24323 6660.10118 4605.04362 7301.29452 5904.24323 8735.04641 6112.57958 7697.5738 7123.86544 7942.48786 8551.824"></polygon>
                            <polygon id="duplicate_65_original_original_Star_95544372_79122202" transform="translate(6660.155942, 6578.433809) rotate(135.529412) translate(-6660.155942, -6578.433809) " points="6660.15594 7857.65952 5397.48468 8521.48509 5638.63343 7115.47997 4617.11092 6119.74162 6028.82031 5914.60824 6660.15594 4635.38253 7291.49157 5914.60824 8703.20096 6119.74162 7681.67845 7115.47997 7922.82721 8521.48509"></polygon>
                            <polygon id="duplicate_64_original_original_Star_95544372_79122202" transform="translate(6660.610920, 6578.433809) rotate(133.411765) translate(-6660.610920, -6578.433809) " points="6660.61092 7838.15546 5417.19132 8491.85983 5654.66333 7107.29175 4648.71574 6126.7352 6038.90112 5924.72944 6660.61092 4665.00779 7282.32072 5924.72944 8672.5061 6126.7352 7666.55851 7107.29175 7904.03052 8491.85983"></polygon>
                            <polygon id="duplicate_63_original_original_Star_95544372_79122202" transform="translate(6660.715744, 6578.433809) rotate(131.294118) translate(-6660.715744, -6578.433809) " points="6660.71574 7818.1888 5437.00441 8461.53192 5670.71248 7098.90932 4680.70922 6133.89465 6048.86008 5935.09069 6660.71574 4695.3357 7272.57141 5935.09069 8640.72227 6133.89465 7650.71901 7098.90932 7884.42707 8461.53192"></polygon>
                            <polygon id="duplicate_62_original_original_Star_95544372_79122202" transform="translate(6661.209219, 6578.433809) rotate(129.176471) translate(-6661.209219, -6578.433809) " points="6661.20922 7798.67748 5456.75672 8431.89563 5686.78667 7090.71806 4712.36413 6140.89083 6058.98297 5945.21565 6661.20922 4724.97199 7263.43547 5945.21565 8610.05431 6140.89083 7635.63176 7090.71806 7865.66172 8431.89563"></polygon>
                            <polygon id="duplicate_61_original_original_Star_95544372_79122202" transform="translate(6661.364130, 6578.433809) rotate(127.058824) translate(-6661.364130, -6578.433809) " points="6661.36413 7779.04726 5476.28781 8402.07876 5702.61724 7082.47688 4743.87036 6147.92963 6068.82597 5955.40231 6661.36413 4754.78886 7253.90229 5955.40231 8578.8579 6147.92963 7620.11102 7082.47688 7846.44045 8402.07876"></polygon>
                            <polygon id="duplicate_60_original_original_Star_95544372_79122202" transform="translate(6661.870357, 6578.433809) rotate(124.941176) translate(-6661.870357, -6578.433809) " points="6661.87036 7759.51279 5496.07571 8372.4073 5718.72268 7074.27589 4775.575 6154.93411 6078.97304 5965.53929 6661.87036 4784.46032 7244.76768 5965.53929 8548.16572 6154.93411 7605.01804 7074.27589 7827.665 8372.4073"></polygon>
                            <polygon id="duplicate_59_original_original_Star_95544372_79122202" transform="translate(6662.074999, 6578.433809) rotate(122.823529) translate(-6662.074999, -6578.433809) " points="6662.075 7739.90545 5515.63395 8342.62518 5734.58471 7066.04431 4807.09441 6161.96472 6088.85447 5975.71408 6662.075 4814.24243 7235.29552 5975.71408 8517.05558 6161.96472 7589.56529 7066.04431 7808.51605 8342.62518"></polygon>
                            <polygon id="duplicate_58_original_original_Star_95544372_79122202" transform="translate(6662.594413, 6578.433809) rotate(120.705882) translate(-6662.594413, -6578.433809) " points="6662.59441 7720.34834 5535.45738 8312.91935 5750.7214 7057.83382 4838.84839 6168.97732 6099.0259 5985.86281 6662.59441 4843.94827 7226.16293 5985.86281 8486.34043 6168.97732 7574.46742 7057.83382 7789.73144 8312.91935"></polygon>
                            <polygon id="duplicate_57_original_original_Star_95544372_79122202" transform="translate(6662.848391, 6578.433809) rotate(118.588235) translate(-6662.848391, -6578.433809) " points="6662.84839 7700.76336 5555.04289 8283.17118 5766.61492 7049.61163 4870.38144 6175.99991 6108.94564 5996.02599 6662.84839 4873.69644 7216.75114 5996.02599 8455.31534 6175.99991 7559.08187 7049.61163 7770.65389 8283.17118"></polygon>
                            <polygon id="duplicate_56_original_original_Star_95544372_79122202" transform="translate(6663.381442, 6578.433809) rotate(116.470588) translate(-6663.381442, -6578.433809) " points="6663.38144 7681.18415 5574.90178 8253.43178 5782.7829 7041.39186 4902.18435 6183.02043 6119.14161 6006.18618 6663.38144 4903.43584 7207.62127 6006.18618 8424.57853 6183.02043 7543.97999 7041.39186 7751.86111 8253.43178"></polygon>
                            <polygon id="duplicate_55_original_original_Star_95544372_79122202" transform="translate(6663.684351, 6578.433809) rotate(114.352941) translate(-6663.684351, -6578.433809) " points="6663.68435 7661.62098 5594.5147 8223.71673 5798.70793 7033.17882 4933.73151 6190.0352 6129.09952 6016.33806 6663.68435 4933.15088 7198.26918 6016.33806 8393.63719 6190.0352 7528.66077 7033.17882 7732.85401 8223.71673"></polygon>
                            <polygon id="duplicate_54_original_original_Star_95544372_79122202" transform="translate(6663.731508, 6578.433809) rotate(112.235294) translate(-6663.731508, -6578.433809) " points="6663.73151 7641.71292 5614.21228 8193.47783 5814.65262 7024.821 4965.57373 6197.17363 6138.97189 6026.6689 6663.73151 4963.38979 7188.49112 6026.6689 8361.88929 6197.17363 7512.8104 7024.821 7713.25074 8193.47783"></polygon>
                            <polygon id="duplicate_53_original_original_Star_95544372_79122202" transform="translate(6664.073727, 6578.433809) rotate(110.117647) translate(-6664.073727, -6578.433809) " points="6664.07373 7622.14345 5633.87072 8163.75322 5830.62199 7016.60532 4997.17025 6204.19066 6148.97222 6036.82404 6664.07373 4993.11439 7179.17523 6036.82404 8330.97721 6204.19066 7497.52547 7016.60532 7694.27673 8163.75322"></polygon>
                            <polygon id="duplicate_52_original_original_Star_95544372_79122202" transform="translate(6664.170249, 6578.433809) rotate(108.000000) translate(-6664.170249, -6578.433809) " points="6664.17025 7602.24167 5653.61148 8133.52385 5846.61103 7008.25013 5029.05181 6211.32685 6158.89086 6047.15162 6664.17025 5023.34377 7169.44963 6047.15162 8299.28868 6211.32685 7481.72947 7008.25013 7674.72902 8133.52385"></polygon>
                            <polygon id="duplicate_51_original_original_Star_95544372_79122202" transform="translate(6664.551814, 6578.433809) rotate(105.882353) translate(-6664.551814, -6578.433809) " points="6664.55181 7582.6659 5673.31548 8103.78968 5862.62478 7000.0318 5060.69774 6218.34613 6168.93365 6057.31003 6664.55181 5053.07794 7160.16998 6057.31003 8268.40589 6218.34613 7466.47885 7000.0318 7655.78815 8103.78968"></polygon>
                            <polygon id="duplicate_50_original_original_Star_95544372_79122202" transform="translate(6664.697740, 6578.433809) rotate(103.764706) translate(-6664.697740, -6578.433809) " points="6664.69774 7562.77038 5693.09946 8073.56983 5878.65822 6991.67924 5092.61869 6225.48007 6178.8986 6067.63436 6664.69774 5083.29779 7150.49688 6067.63436 8236.77679 6225.48007 7450.73726 6991.67924 7636.29602 8073.56983"></polygon>
                            <polygon id="duplicate_49_original_original_Star_95544372_79122202" transform="translate(6665.118693, 6578.433809) rotate(101.647059) translate(-6665.118693, -6578.433809) " points="6665.11869 7543.18832 5712.84906 8043.82609 5894.71638 6983.45827 5124.31407 6232.50162 6188.98388 6077.79604 6665.11869 5113.04153 7141.25351 6077.79604 8205.92332 6232.50162 7435.52101 6983.45827 7617.38832 8043.82609"></polygon>
                            <polygon id="duplicate_48_original_original_Star_95544372_79122202" transform="translate(6665.314066, 6578.433809) rotate(99.529412) translate(-6665.314066, -6578.433809) " points="6665.31407 7523.29907 5732.6763 8013.61577 5910.79426 6975.10835 5156.27445 6239.63331 6198.99518 6088.11712 6665.31407 5143.25185 7131.63295 6088.11712 8174.35368 6239.63331 7419.83387 6975.10835 7597.95184 8013.61577"></polygon>
                            <polygon id="duplicate_47_original_original_Star_95544372_79122202" transform="translate(6665.774454, 6578.433809) rotate(97.411765) translate(-6665.774454, -6578.433809) " points="6665.77445 7503.71071 5752.47156 7983.86245 5926.89689 6966.88473 5188.01932 6246.65711 6209.123 6098.28206 6665.77445 5173.00516 7122.4259 6098.28206 8143.52958 6246.65711 7404.65202 6966.88473 7579.07735 7983.86245"></polygon>
                            <polygon id="duplicate_46_original_original_Star_95544372_79122202" transform="translate(6666.019323, 6578.433809) rotate(95.294118) translate(-6666.019323, -6578.433809) " points="6666.01932 7483.82773 5772.3421 7953.66165 5943.01926 6958.53744 5220.0192 6253.78655 6219.18071 6108.59989 6666.01932 5203.20597 7112.85794 6108.59989 8112.01945 6253.78655 7389.01939 6958.53744 7559.69655 7953.66165"></polygon>
                            <polygon id="duplicate_45_original_original_Star_95544372_79122202" transform="translate(6666.519197, 6578.433809) rotate(93.176471) translate(-6666.519197, -6578.433809) " points="6666.5192 7464.23306 5792.18307 7923.89877 5959.16641 6950.31118 5251.81362 6260.81262 6229.35113 6118.7681 6666.5192 5232.96885 7103.68726 6118.7681 8081.22477 6260.81262 7373.87199 6950.31118 7540.85533 7923.89877"></polygon>
                            <polygon id="duplicate_44_original_original_Star_95544372_79122202" transform="translate(6666.813619, 6578.433809) rotate(91.058824) translate(-6666.813619, -6578.433809) " points="6666.81362 7444.6856 5811.77199 7894.20758 5975.07041 6942.10474 5283.3272 6267.82175 6239.2928 6128.91182 6666.81362 5262.66003 7094.33443 6128.91182 8050.30004 6267.82175 7358.55683 6942.10474 7521.85525 7894.20758"></polygon>
                            <polygon id="duplicate_43_original_original_Star_95544372_79122202" transform="translate(6667.327198, 6578.433809) rotate(88.941176) translate(-6667.327198, -6578.433809) " points="6667.3272 7425.06875 5831.64855 7864.41101 5991.24897 6933.86917 5315.17075 6274.85577 6249.48788 6139.09155 6667.3272 5292.4566 7085.16652 6139.09155 8019.48365 6274.85577 7343.40542 6933.86917 7503.00584 7864.41101"></polygon>
                            <polygon id="duplicate_42_original_original_Star_95544372_79122202" transform="translate(6667.670746, 6578.433809) rotate(86.823529) translate(-6667.670746, -6578.433809) " points="6667.67075 7405.54307 5851.26509 7834.75293 6007.1847 6925.67187 5346.69865 6281.8571 6259.46792 6149.22396 6667.67075 5322.11469 7075.87357 6149.22396 7988.64284 6281.8571 7328.15679 6925.67187 7484.0764 7834.75293"></polygon>
                            <polygon id="duplicate_41_original_original_Star_95544372_79122202" transform="translate(6667.698653, 6578.433809) rotate(84.705882) translate(-6667.698653, -6578.433809) " points="6667.69865 7385.59926 5870.97873 7804.45971 6023.13869 6917.29903 5378.57873 6289.00835 6269.33869 6159.57336 6667.69865 5352.40791 7066.05862 6159.57336 7956.81857 6289.00835 7312.25861 6917.29903 7464.41858 7804.45971"></polygon>
                            <polygon id="duplicate_40_original_original_Star_95544372_79122202" transform="translate(6668.078733, 6578.433809) rotate(82.588235) translate(-6668.078733, -6578.433809) " points="6668.07873 7366.06358 5890.64167 7774.78643 6039.11894 6909.09754 5410.15914 6296.01326 6279.3602 6169.71096 6668.07873 5382.08118 7056.79726 6169.71096 7925.99833 6296.01326 7297.03853 6909.09754 7445.5158 7774.78643"></polygon>
                            <polygon id="duplicate_39_original_original_Star_95544372_79122202" transform="translate(6668.159141, 6578.433809) rotate(80.470588) translate(-6668.159141, -6578.433809) " points="6668.15914 7346.12972 5910.39798 7744.50834 6055.11748 6900.72888 5442.07582 6303.16095 6289.27856 6180.05519 6668.15914 5412.35928 7047.03972 6180.05519 7894.24246 6303.16095 7281.2008 6900.72888 7425.92031 7744.50834"></polygon>
                            <polygon id="duplicate_38_original_original_Star_95544372_79122202" transform="translate(6668.575820, 6578.433809) rotate(78.352941) translate(-6668.575820, -6578.433809) " points="6668.57582 7326.58404 5930.10739 7714.81987 6071.14231 6892.52319 5473.7088 6310.16945 6299.3416 6190.19798 6668.57582 5442.04774 7037.81003 6190.19798 7863.44284 6310.16945 7266.00933 6892.52319 7407.04425 7714.81987"></polygon>
                            <polygon id="duplicate_37_original_original_Star_95544372_79122202" transform="translate(6668.708801, 6578.433809) rotate(76.235294) translate(-6668.708801, -6578.433809) " points="6668.7088 7306.66014 5949.90644 7684.5569 6087.18548 6884.15871 5505.66216 6317.31357 6309.30762 6200.53705 6668.7088 5472.31072 7028.10998 6200.53705 7831.75545 6317.31357 7250.23212 6884.15871 7387.51116 7684.5569"></polygon>
                            <polygon id="duplicate_36_original_original_Star_95544372_79122202" transform="translate(6669.162155, 6578.433809) rotate(74.117647) translate(-6669.162155, -6578.433809) " points="6669.16216 7287.10445 5969.66241 7654.85323 6103.25497 6875.94882 5537.34779 6324.32565 6319.41228 6210.68503 6669.16216 5502.01438 7018.91203 6210.68503 7800.97652 6324.32565 7235.06934 6875.94882 7368.6619 7654.85323"></polygon>
                            <polygon id="duplicate_35_original_original_Star_95544372_79122202" transform="translate(6669.347794, 6578.433809) rotate(72.000000) translate(-6669.347794, -6578.433809) " points="6669.34779 7267.1905 5989.5043 7624.60537 6119.34285 6867.58852 5569.33791 6331.4662 6329.42605 6221.01893 6669.34779 5532.26225 7009.26954 6221.01893 7769.35767 6331.4662 7219.35273 6867.58852 7349.19129 7624.60537"></polygon>
                            <polygon id="duplicate_34_original_original_Star_95544372_79122202" transform="translate(6669.837915, 6578.433809) rotate(69.882353) translate(-6669.837915, -6578.433809) " points="6669.83791 7247.6248 6009.30692 7594.8865 6135.45711 6859.37442 5601.07631 6338.48188 6339.57242 6231.17211 6669.83791 5561.98112 7000.10341 6231.17211 7738.59952 6338.48188 7204.21872 6859.37442 7330.36891 7594.8865"></polygon>
                            <polygon id="duplicate_33_original_original_Star_95544372_79122202" transform="translate(6670.076309, 6578.433809) rotate(67.764706) translate(-6670.076309, -6578.433809) " points="6670.07631 7228.05004 6028.86675 7565.15385 6151.32688 6851.15652 5632.57746 6345.5008 6349.47153 6241.33 6670.07631 5591.71376 6990.68109 6241.33 7707.57516 6345.5008 7188.82574 6851.15652 7311.28586 7565.15385"></polygon>
                            <polygon id="duplicate_32_original_original_Star_95544372_79122202" transform="translate(6670.077456, 6578.433809) rotate(65.647059) translate(-6670.077456, -6578.433809) " points="6670.07746 7208.15509 6048.50539 7534.93487 6167.21509 6842.8042 5664.35273 6352.63454 6359.29142 6251.65404 6670.07746 5621.93275 6980.86349 6251.65404 7675.80218 6352.63454 7172.93982 6842.8042 7291.64952 7534.93487"></polygon>
                            <polygon id="duplicate_31_original_original_Star_95544372_79122202" transform="translate(6670.352727, 6578.433809) rotate(63.529412) translate(-6670.352727, -6578.433809) " points="6670.35273 7188.57057 6068.11174 7505.1874 6183.12953 6834.5822 5695.90634 6359.65696 6369.23223 6261.81698 6670.35273 5651.68022 6971.47322 6261.81698 7644.79911 6359.65696 7157.57592 6834.5822 7272.59371 7505.1874"></polygon>
                            <polygon id="duplicate_30_original_original_Star_95544372_79122202" transform="translate(6670.406339, 6578.433809) rotate(61.411765) translate(-6670.406339, -6578.433809) " points="6670.40634 7168.68532 6087.79327 7474.98313 6199.06247 6826.23395 5727.71859 6366.78722 6379.0998 6272.13599 6670.40634 5681.88448 6961.71287 6272.13599 7613.09409 6366.78722 7141.75021 6826.23395 7253.01941 7474.98313"></polygon>
                            <polygon id="duplicate_29_original_original_Star_95544372_79122202" transform="translate(6670.718593, 6578.433809) rotate(59.294118) translate(-6670.718593, -6578.433809) " points="6670.71859 7149.09103 6107.44624 7445.22083 6215.02169 6818.00785 5759.32479 6373.81315 6389.08242 6282.30401 6670.71859 5711.64679 6952.35477 6282.30401 7582.1124 6373.81315 7126.4155 6818.00785 7233.99094 7445.22083"></polygon>
                            <polygon id="duplicate_28_original_original_Star_95544372_79122202" transform="translate(6670.824787, 6578.433809) rotate(57.176471) translate(-6670.824787, -6578.433809) " points="6670.82479 7129.21546 6127.1708 7415.03128 6230.99947 6809.66366 5791.17415 6380.93994 6398.99779 6292.61799 6670.82479 5741.83634 6942.65178 6292.61799 7550.47542 6380.93994 7110.6501 6809.66366 7214.47878 7415.03128"></polygon>
                            <polygon id="duplicate_27_original_original_Star_95544372_79122202" transform="translate(6671.174153, 6578.433809) rotate(55.058824) translate(-6671.174153, -6578.433809) " points="6671.17415 7109.6114 6146.87053 7385.25412 6247.00361 6801.43346 5822.83307 6387.96937 6409.02234 6302.79108 6671.17415 5771.6135 6933.32596 6302.79108 7519.51523 6387.96937 7095.34469 6801.43346 7195.47777 7385.25412"></polygon>
                            <polygon id="duplicate_26_original_original_Star_95544372_79122202" transform="translate(6671.333072, 6578.433809) rotate(52.941176) translate(-6671.333072, -6578.433809) " points="6671.33307 7089.7455 6166.63826 7355.07927 6263.02639 6793.09333 5854.71971 6395.09269 6418.98566 6313.10004 6671.33307 5801.78835 6923.68048 6313.10004 7487.94644 6395.09269 7079.63975 6793.09333 7176.02789 7355.07927"></polygon>
                            <polygon id="duplicate_25_original_original_Star_95544372_79122202" transform="translate(6671.719708, 6578.433809) rotate(50.823529) translate(-6671.719708, -6578.433809) " points="6671.71971 7070.13165 6186.38492 7325.28725 6279.07562 6784.85902 5886.43153 6402.12563 6429.05232 6323.27821 6671.71971 5831.58037 6914.3871 6323.27821 7457.00789 6402.12563 7064.3638 6784.85902 7157.05449 7325.28725"></polygon>
                            <polygon id="duplicate_24_original_original_Star_95544372_79122202" transform="translate(6671.931529, 6578.433809) rotate(48.705882) translate(-6671.931529, -6578.433809) " points="6671.93153 7050.27542 6206.19601 7295.12708 6295.14358 6776.52296 5918.35563 6409.24548 6439.06377 6333.58216 6671.93153 5861.74054 6904.79929 6333.58216 7425.50743 6409.24548 7048.71948 6776.52296 7137.66705 7295.12708"></polygon>
                            <polygon id="duplicate_23_original_original_Star_95544372_79122202" transform="translate(6672.355633, 6578.433809) rotate(46.588235) translate(-6672.355633, -6578.433809) " points="6672.35563 7030.65177 6225.98982 7265.32016 6311.23811 6768.28453 5950.12058 6416.28194 6449.17273 6343.76541 6672.35563 5891.54745 6895.53854 6343.76541 7394.59069 6416.28194 7033.47316 6768.28453 7118.72144 7265.32016"></polygon>
                            <polygon id="duplicate_22_original_original_Star_95544372_79122202" transform="translate(6672.620579, 6578.433809) rotate(44.470588) translate(-6672.620579, -6578.433809) " points="6672.62058 7010.80519 6245.84452 7235.17464 6327.35149 6759.95251 5982.0824 6423.39833 6459.23255 6354.06435 6672.62058 5921.69298 6886.00861 6354.06435 7363.15875 6423.39833 7017.88967 6759.95251 7099.39664 7235.17464"></polygon>
                            <polygon id="duplicate_21_original_original_Star_95544372_79122202" transform="translate(6673.082403, 6578.433809) rotate(42.352941) translate(-6673.082403, -6578.433809) " points="6673.0824 6991.17171 6265.68574 7205.3528 6343.49158 6751.70996 6013.90076 6430.43831 6469.38407 6364.25271 6673.0824 5951.51481 6876.78073 6364.25271 7332.26405 6430.43831 7002.67322 6751.70996 7080.47906 7205.3528"></polygon>
                            <polygon id="duplicate_20_original_original_Star_95544372_79122202" transform="translate(6673.400761, 6578.433809) rotate(40.235294) translate(-6673.400761, -6578.433809) " points="6673.40076 6971.33474 6285.58435 7175.22189 6359.6507 6743.38198 6045.90063 6437.55125 6479.49256 6374.54666 6673.40076 5981.64572 6867.30896 6374.54666 7300.90089 6437.55125 6987.15082 6743.38198 7061.21717 7175.22189"></polygon>
                            <polygon id="duplicate_19_original_original_Star_95544372_79122202" transform="translate(6673.900634, 6578.433809) rotate(38.117647) translate(-6673.900634, -6578.433809) " points="6673.90063 6951.69141 6305.47336 7145.38509 6375.83671 6735.13529 6077.77278 6444.59477 6489.687 6384.74013 6673.90063 6011.48253 6858.11427 6384.74013 7270.02849 6444.59477 6971.96456 6735.13529 7042.32791 7145.38509"></polygon>
                            <polygon id="duplicate_18_original_original_Star_95544372_79122202" transform="translate(6674.272780, 6578.433809) rotate(36.000000) translate(-6674.272780, -6578.433809) " points="6674.27278 6932.19341 6325.09118 7115.76904 6391.77893 6726.94961 6109.28508 6451.58617 6499.68198 6394.85818 6674.27278 6041.09857 6848.86358 6394.85818 7239.26048 6451.58617 6956.76663 6726.94961 7023.45438 7115.76904"></polygon>
                            <polygon id="duplicate_17_original_original_Star_95544372_79122202" transform="translate(6674.785079, 6578.433809) rotate(33.882353) translate(-6674.785079, -6578.433809) " points="6674.78508 6912.52459 6345.01776 7085.89353 6407.99772 6718.69223 6141.21035 6458.63882 6509.90142 6405.06487 6674.78508 6070.97409 6839.66874 6405.06487 7208.3598 6458.63882 6941.57244 6718.69223 7004.55239 7085.89353"></polygon>
                            <polygon id="duplicate_16_original_original_Star_95544372_79122202" transform="translate(6675.210355, 6578.433809) rotate(31.764706) translate(-6675.210355, -6578.433809) " points="6675.21035 6893.05089 6364.66473 7056.31439 6423.97366 6710.51675 6172.73697 6465.62151 6519.93754 6415.17031 6675.21035 6100.55323 6830.48317 6415.17031 7177.68373 6465.62151 6926.44704 6710.51675 6985.75598 7056.31439"></polygon>
                            <polygon id="duplicate_15_original_original_Star_95544372_79122202" transform="translate(6675.736975, 6578.433809) rotate(29.647059) translate(-6675.736975, -6578.433809) " points="6675.73697 6873.35833 6384.62907 7026.40281 6440.22573 6702.2494 6204.71449 6472.68267 6530.18302 6425.38933 6675.73697 6130.4648 6821.29093 6425.38933 7146.75946 6472.68267 6911.24822 6702.2494 6966.84488 7026.40281"></polygon>
                            <polygon id="duplicate_14_original_original_Star_95544372_79122202" transform="translate(6676.214488, 6578.433809) rotate(27.529412) translate(-6676.214488, -6578.433809) " points="6676.21449 6853.90695 6404.30625 6996.85757 6456.2361 6694.08329 6236.25771 6479.65736 6540.26037 6435.48319 6676.21449 6160.01005 6812.16861 6435.48319 7116.17127 6479.65736 6896.19288 6694.08329 6948.12273 6996.85757"></polygon>
                            <polygon id="duplicate_13_original_original_Star_95544372_79122202" transform="translate(6676.757711, 6578.433809) rotate(25.411765) translate(-6676.757711, -6578.433809) " points="6676.75771 6834.52217 6423.98339 6967.4135 6472.25899 6685.94515 6267.76026 6486.60816 6550.37055 6445.54248 6676.75771 6189.45412 6803.14487 6445.54248 7085.75516 6486.60816 6881.25643 6685.94515 6929.53203 6967.4135"></polygon>
                            <polygon id="duplicate_12_original_original_Star_95544372_79122202" transform="translate(6676.760263, 6578.433809) rotate(23.294118) translate(-6676.760263, -6578.433809) " points="6676.76026 6814.78624 6443.46647 6937.43605 6488.02162 6677.65959 6299.28297 6493.68488 6560.11336 6455.784 6676.76026 6219.43157 6793.40716 6455.784 7054.23756 6493.68488 6865.49891 6677.65959 6910.05406 6937.43605"></polygon>
                            <polygon id="duplicate_11_original_original_Star_95544372_79122202" transform="translate(6676.782969, 6578.433809) rotate(21.176471) translate(-6676.782969, -6578.433809) " points="6676.78297 6795.04702 6462.97295 6907.4536 6503.80703 6669.37264 6330.83109 6500.76277 6569.87796 6466.02723 6676.78297 6249.41402 6783.68798 6466.02723 7022.73485 6500.76277 6849.75891 6669.37264 6890.59299 6907.4536"></polygon>
                            <polygon id="duplicate_10_original_original_Star_95544372_79122202" transform="translate(6677.331089, 6578.433809) rotate(19.058824) translate(-6677.331089, -6578.433809) " points="6677.33109 6775.5951 6482.72126 6877.90754 6519.88843 6661.20631 6362.44577 6507.73765 6580.02618 6476.12137 6677.33109 6278.96008 6774.636 6476.12137 6992.2164 6507.73765 6834.77375 6661.20631 6871.94092 6877.90754"></polygon>
                            <polygon id="duplicate_9_original_original_Star_95544372_79122202" transform="translate(6677.445774, 6578.433809) rotate(16.941176) translate(-6677.445774, -6578.433809) " points="6677.44577 6755.92624 6502.25027 6848.03196 6535.70964 6652.94891 6393.9735 6514.79032 6589.84802 6486.32808 6677.44577 6308.83565 6765.04353 6486.32808 6960.91805 6514.79032 6819.18191 6652.94891 6852.64128 6848.03196"></polygon>
                            <polygon id="duplicate_8_original_original_Star_95544372_79122202" transform="translate(6677.473498, 6578.433809) rotate(14.823529) translate(-6677.473498, -6578.433809) " points="6677.4735 6736.12626 6521.82174 6817.95723 6551.54858 6644.63645 6425.62367 6521.89 6599.64762 6496.60284 6677.4735 6338.91039 6755.29938 6496.60284 6929.32333 6521.89 6803.39841 6644.63645 6833.12525 6817.95723"></polygon>
                            <polygon id="duplicate_7_original_original_Star_95544372_79122202" transform="translate(6677.623667, 6578.433809) rotate(12.705882) translate(-6677.623667, -6578.433809) " points="6677.62367 6716.4423 6541.40114 6788.05873 6567.41733 6636.37271 6457.21099 6528.94808 6609.5124 6506.81739 6677.62367 6368.80889 6745.73493 6506.81739 6898.03635 6528.94808 6787.83001 6636.37271 6813.8462 6788.05873"></polygon>
                            <polygon id="duplicate_6_original_original_Star_95544372_79122202" transform="translate(6677.710985, 6578.433809) rotate(10.588235) translate(-6677.710985, -6578.433809) " points="6677.71099 6696.6561 6561.0186 6758.00492 6583.30487 6628.06604 6488.89875 6536.04282 6619.36479 6517.08499 6677.71099 6398.8627 6736.05718 6517.08499 6866.52322 6536.04282 6772.1171 6628.06604 6794.40337 6758.00492"></polygon>
                            <polygon id="duplicate_5_original_original_Star_95544372_79122202" transform="translate(6677.898746, 6578.433809) rotate(8.470588) translate(-6677.898746, -6578.433809) " points="6677.89875 6676.95639 6580.65115 6728.08248 6599.22379 6619.79568 6520.54883 6543.10655 6629.27495 6527.30772 6677.89875 6428.78514 6726.52255 6527.30772 6835.24867 6543.10655 6756.57371 6619.79568 6775.14635 6728.08248"></polygon>
                            <polygon id="duplicate_4_original_original_Star_95544372_79122202" transform="translate(6678.548825, 6578.433809) rotate(6.352941) translate(-6678.548825, -6578.433809) " points="6678.54883 6657.43277 6600.57219 6698.42751 6615.4644 6611.59925 6552.37998 6550.10714 6639.56051 6537.43906 6678.54883 6458.4401 6717.53714 6537.43906 6804.71767 6550.10714 6741.63325 6611.59925 6756.52546 6698.42751"></polygon>
                            <polygon id="duplicate_3_original_original_Star_95544372_79122202" transform="translate(6678.879977, 6578.433809) rotate(4.235294) translate(-6678.879977, -6578.433809) " points="6678.87998 6637.84166 6620.24093 6668.67003 6631.43999 6603.37449 6584 6557.13193 6649.56045 6547.60544 6678.87998 6488.19759 6708.1995 6547.60544 6773.75995 6557.13193 6726.31997 6603.37449 6737.51903 6668.67003"></polygon>
                            <polygon id="duplicate_2_original_original_Star_95544372_79122202" transform="translate(6679.500000, 6578.433809) rotate(2.117647) translate(-6679.500000, -6578.433809) " points="6679.5 6617.93536 6640.25484 6638.43381 6647.75 6595.0174 6616 6564.26973 6659.87742 6557.93536 6679.5 6518.43381 6699.12258 6557.93536 6743 6564.26973 6711.25 6595.0174 6718.74516 6638.43381"></polygon>
                            <polygon id="duplicate_1_original_original_Star_95544372_79122202" points="6680 6598.47019 6660.22291 6608.86762 6664 6586.84551 6648 6571.24936 6670.11146 6568.03638 6680 6548 6689.88854 6568.03638 6712 6571.24936 6696 6586.84551 6699.77709 6608.86762"></polygon>
                        </g>
                    </g>
                </g>
            </g>
            <polygon id="duplicate_1_original_original_Star_95544372_79122202" fill="#2B2B2B" mask="url(#mask-2)" points="840 687.551987 793.491577 712.002912 802.373896 660.215022 764.747792 623.538635 816.745789 615.982884 840 568.864705 863.254211 615.982884 915.252208 623.538635 877.626104 660.215022 886.508423 712.002912"></polygon>
        </g>
    </g>
</svg>