<?xml version="1.0" encoding="UTF-8"?>
<svg width="1680px" height="1280px" viewBox="0 0 1680 1280" version="1.1" xmlns="http://www.w3.org/2000/svg" xmlns:xlink="http://www.w3.org/1999/xlink">
    <!-- Generator: Sketch 50.2 (55047) - http://www.bohemiancoding.com/sketch -->
    <title>viral_key</title>
    <desc>Created with Sketch.</desc>
    <defs>
        <rect id="path-1" x="0" y="0" width="1680" height="1280"></rect>
    </defs>
    <g id="Mainsite-Update" stroke="none" stroke-width="1" fill="none" fill-rule="evenodd">
        <g id="viral_key">
            <mask id="mask-2" fill="white">
                <use xlink:href="#path-1"></use>
            </mask>
            <use id="Mask" fill="#F04E45" xlink:href="#path-1"></use>
            <g id="loop-01" mask="url(#mask-2)">
                <g transform="translate(-845.000000, -1050.000000)">
                    <g id="circle-lines" transform="translate(1688.059750, 1691.740808) rotate(9.000000) translate(-1688.059750, -1691.740808) translate(214.059750, 213.240808)">
                        <g id="circle-line-1" transform="translate(1354.865380, 1359.899697)" opacity="0.400000006" stroke="#FFFFFF" stroke-width="2">
                            <path d="M117.571754,202.284861 L117.571754,212.062312 M100.148372,200.44873 L98.1155259,210.012521 M83.4864765,195.020586 L79.5096287,203.952733 M68.3142707,186.237665 L62.5672289,194.147789 M55.2948533,174.483822 L48.0287909,181.026214 M44.9972353,160.272756 L36.529714,165.161482 M37.871472,144.22556 L28.5725631,147.246958 M34.2289934,127.043572 L24.5051039,128.065594 M34.2289934,109.477729 L24.5051039,108.455707 M37.871472,92.2957418 L28.5725631,89.2743431 M44.9972353,76.2485455 L36.529714,71.3598198 M55.2948533,62.0374799 L48.0287909,55.4950879 M68.3142707,50.2836366 L62.5672289,42.3735122 M83.4864765,41.500715 L79.5096287,32.5685686 M100.148372,36.0725709 L98.1155259,26.5087803 M117.571754,34.2364403 L117.571754,24.4589889 M134.995135,36.0725709 L137.027981,26.5087803 M151.657031,41.500715 L155.633879,32.5685686 M166.829237,50.2836366 L172.576278,42.3735122 M179.848654,62.0374799 L187.114717,55.4950879 M190.146272,76.2485455 L198.613793,71.3598198 M197.272035,92.2957418 L206.570944,89.2743431 M200.914514,109.477729 L210.638404,108.455707 M200.914514,127.043572 L210.638404,128.065594 M197.272035,144.22556 L206.570944,147.246958 M190.146272,160.272756 L198.613793,165.161482 M179.848654,174.483822 L187.114717,181.026214 M166.829237,186.237665 L172.576278,194.147789 M151.657031,195.020586 L155.633879,203.952733 M134.995135,200.44873 L137.027981,210.012521" id="Line-3"></path>
                            <path d="M118.031018,202.284861 L118.031018,212.062312 M100.607637,200.44873 L98.5747906,210.012521 M83.9457411,195.020586 L79.9688933,203.952733 M68.7735354,186.237665 L63.0264936,194.147789 M55.754118,174.483822 L48.4880555,181.026214 M45.4565,160.272756 L36.9889786,165.161482 M38.3307366,144.22556 L29.0318277,147.246958 M34.6882581,127.043572 L24.9643686,128.065594 M34.6882581,109.477729 L24.9643686,108.455707 M38.3307366,92.2957418 L29.0318277,89.2743431 M45.4565,76.2485455 L36.9889786,71.3598198 M55.754118,62.0374799 L48.4880555,55.4950879 M68.7735354,50.2836366 L63.0264936,42.3735122 M83.9457411,41.500715 L79.9688933,32.5685686 M100.607637,36.0725709 L98.5747906,26.5087803 M118.031018,34.2364403 L118.031018,24.4589889 M135.4544,36.0725709 L137.487246,26.5087803 M152.116296,41.500715 L156.093143,32.5685686 M167.288501,50.2836366 L173.035543,42.3735122 M180.307919,62.0374799 L187.573981,55.4950879 M190.605537,76.2485455 L199.073058,71.3598198 M197.7313,92.2957418 L207.030209,89.2743431 M201.373779,109.477729 L211.097668,108.455707 M201.373779,127.043572 L211.097668,128.065594 M197.7313,144.22556 L207.030209,147.246958 M190.605537,160.272756 L199.073058,165.161482 M180.307919,174.483822 L187.573981,181.026214 M167.288501,186.237665 L173.035543,194.147789 M152.116296,195.020586 L156.093143,203.952733 M135.4544,200.44873 L137.487246,210.012521" id="Line-3" transform="translate(118.031018, 118.260651) rotate(-18.000000) translate(-118.031018, -118.260651) "></path>
                        </g>
                        <g id="circle-line-2" transform="translate(1315.788848, 1320.825387)" opacity="0.400000006" stroke="#FFFFFF" stroke-width="2">
                            <path d="M156.662736,269.54178 L156.662736,282.570099 M133.446321,267.095162 L130.737582,279.83878 M111.244575,259.862235 L105.945481,271.764196 M91.027821,248.159113 L83.3699674,258.699244 M73.6796274,232.497279 L63.9976997,241.214926 M59.9581938,213.561231 L48.6753387,220.07539 M50.4632127,192.178564 L38.0725452,196.204536 M45.6096604,169.283803 L32.6527121,170.645633 M45.6096604,145.87756 L32.6527121,144.51573 M50.4632127,122.9828 L38.0725452,118.956828 M59.9581938,101.600133 L48.6753387,95.0859731 M73.6796274,82.6640841 L63.9976997,73.9464372 M91.027821,67.0022504 L83.3699674,56.4621191 M111.244575,55.2991288 L105.945481,43.3971674 M133.446321,48.0662019 L130.737582,35.3225831 M156.662736,45.6195833 L156.662736,32.5912645 M179.879151,48.0662019 L182.58789,35.3225831 M202.080897,55.2991288 L207.379991,43.3971674 M222.297651,67.0022504 L229.955505,56.4621191 M239.645845,82.6640841 L249.327772,73.9464372 M253.367278,101.600133 L264.650133,95.0859731 M262.862259,122.9828 L275.252927,118.956828 M267.715812,145.87756 L280.67276,144.51573 M267.715812,169.283803 L280.67276,170.645633 M262.862259,192.178564 L275.252927,196.204536 M253.367278,213.561231 L264.650133,220.07539 M239.645845,232.497279 L249.327772,241.214926 M222.297651,248.159113 L229.955505,258.699244 M202.080897,259.862235 L207.379991,271.764196 M179.879151,267.095162 L182.58789,279.83878" id="Line-3"></path>
                            <path d="M157.2747,269.54178 L157.2747,282.570099 M134.058285,267.095162 L131.349545,279.83878 M111.856539,259.862235 L106.557445,271.764196 M91.6397848,248.159113 L83.9819312,258.699244 M74.2915912,232.497279 L64.6096635,241.214926 M60.5701576,213.561231 L49.2873025,220.07539 M51.0751765,192.178564 L38.684509,196.204536 M46.2216242,169.283803 L33.2646759,170.645633 M46.2216242,145.87756 L33.2646759,144.51573 M51.0751765,122.9828 L38.684509,118.956828 M60.5701576,101.600133 L49.2873025,95.0859731 M74.2915912,82.6640841 L64.6096635,73.9464372 M91.6397848,67.0022504 L83.9819312,56.4621191 M111.856539,55.2991288 L106.557445,43.3971674 M134.058285,48.0662019 L131.349545,35.3225831 M157.2747,45.6195833 L157.2747,32.5912645 M180.491114,48.0662019 L183.199854,35.3225831 M202.69286,55.2991288 L207.991955,43.3971674 M222.909615,67.0022504 L230.567468,56.4621191 M240.257808,82.6640841 L249.939736,73.9464372 M253.979242,101.600133 L265.262097,95.0859731 M263.474223,122.9828 L275.864891,118.956828 M268.327775,145.87756 L281.284724,144.51573 M268.327775,169.283803 L281.284724,170.645633 M263.474223,192.178564 L275.864891,196.204536 M253.979242,213.561231 L265.262097,220.07539 M240.257808,232.497279 L249.939736,241.214926 M222.909615,248.159113 L230.567468,258.699244 M202.69286,259.862235 L207.991955,271.764196 M180.491114,267.095162 L183.199854,279.83878" id="Line-3" transform="translate(157.274700, 157.580682) rotate(-18.000000) translate(-157.274700, -157.580682) "></path>
                        </g>
                        <g id="circle-line-3" transform="translate(1271.899753, 1276.913762)" opacity="0.400000006" stroke="#FFFFFF" stroke-width="2">
                            <path d="M200.354792,344.714951 L200.354792,361.37677 M170.663494,341.585989 L167.199308,357.883707 M142.269849,332.335853 L135.492877,347.557182 M116.414794,317.368819 L106.621223,330.848514 M94.2283201,297.339018 L81.8461757,308.487951 M76.6800821,273.121848 L62.2505238,281.452758 M64.5370224,245.775717 L48.6906911,250.924502 M58.3298509,216.49578 L41.7593074,218.237414 M58.3298509,186.561712 L41.7593074,184.820078 M64.5370224,157.281775 L48.6906911,152.13299 M76.6800821,129.935644 L62.2505238,121.604734 M94.2283201,105.718474 L81.8461757,94.5695411 M116.414794,85.688673 L106.621223,72.2089785 M142.269849,70.721639 L135.492877,55.5003102 M170.663494,61.4715033 L167.199308,45.1737853 M200.354792,58.3425412 L200.354792,41.6807225 M230.04609,61.4715033 L233.510277,45.1737853 M258.439735,70.721639 L265.216708,55.5003102 M284.29479,85.688673 L294.088362,72.2089785 M306.481264,105.718474 L318.863409,94.5695411 M324.029502,129.935644 L338.459061,121.604734 M336.172562,157.281775 L352.018893,152.13299 M342.379733,186.561712 L358.950277,184.820078 M342.379733,216.49578 L358.950277,218.237414 M336.172562,245.775717 L352.018893,250.924502 M324.029502,273.121848 L338.459061,281.452758 M306.481264,297.339018 L318.863409,308.487951 M284.29479,317.368819 L294.088362,330.848514 M258.439735,332.335853 L265.216708,347.557182 M230.04609,341.585989 L233.510277,357.883707" id="Line-3"></path>
                            <path d="M201.137428,344.714951 L201.137428,361.37677 M171.44613,341.585989 L167.981943,357.883707 M143.052485,332.335853 L136.275513,347.557182 M117.19743,317.368819 L107.403859,330.848514 M95.010956,297.339018 L82.6288116,308.487951 M77.462718,273.121848 L63.0331597,281.452758 M65.3196583,245.775717 L49.473327,250.924502 M59.1124868,216.49578 L42.5419433,218.237414 M59.1124868,186.561712 L42.5419433,184.820078 M65.3196583,157.281775 L49.473327,152.13299 M77.462718,129.935644 L63.0331597,121.604734 M95.010956,105.718474 L82.6288116,94.5695411 M117.19743,85.688673 L107.403859,72.2089785 M143.052485,70.721639 L136.275513,55.5003102 M171.44613,61.4715033 L167.981943,45.1737853 M201.137428,58.3425412 L201.137428,41.6807225 M230.828726,61.4715033 L234.292913,45.1737853 M259.222371,70.721639 L265.999344,55.5003102 M285.077426,85.688673 L294.870997,72.2089785 M307.2639,105.718474 L319.646045,94.5695411 M324.812138,129.935644 L339.241696,121.604734 M336.955198,157.281775 L352.801529,152.13299 M343.162369,186.561712 L359.732913,184.820078 M343.162369,216.49578 L359.732913,218.237414 M336.955198,245.775717 L352.801529,250.924502 M324.812138,273.121848 L339.241696,281.452758 M307.2639,297.339018 L319.646045,308.487951 M285.077426,317.368819 L294.870997,330.848514 M259.222371,332.335853 L265.999344,347.557182 M230.828726,341.585989 L234.292913,357.883707" id="Line-3" transform="translate(201.137428, 201.528746) rotate(-18.000000) translate(-201.137428, -201.528746) "></path>
                        </g>
                        <g id="circle-line-4" transform="translate(1216.000000, 1221.000000)" opacity="0.400000006" stroke="#FFFFFF" stroke-width="2">
                            <path d="M256,440.453789 L256,461.743151 M218.062439,436.45581 L213.636132,457.279948 M181.782931,424.636603 L173.123767,444.085403 M148.747065,405.512725 L136.233492,422.73618 M120.398667,379.91998 L104.577588,394.165343 M97.9766982,348.976895 L79.5395703,359.621575 M82.4611059,314.03583 L62.2137199,320.614605 M74.5299959,276.623878 L53.3572597,278.849223 M74.5299959,238.376122 L53.3572597,236.150777 M82.4611059,200.96417 L62.2137199,194.385395 M97.9766982,166.023105 L79.5395703,155.378425 M120.398667,135.08002 L104.577588,120.834657 M148.747065,109.487275 L136.233492,92.26382 M181.782931,90.3633968 L173.123767,70.9145973 M218.062439,78.54419 L213.636132,57.7200521 M256,74.5462107 L256,53.2568492 M293.937561,78.54419 L298.363868,57.7200521 M330.217069,90.3633968 L338.876233,70.9145973 M363.252935,109.487275 L375.766508,92.26382 M391.601333,135.08002 L407.422412,120.834657 M414.023302,166.023105 L432.46043,155.378425 M429.538894,200.96417 L449.78628,194.385395 M437.470004,238.376122 L458.64274,236.150777 M437.470004,276.623878 L458.64274,278.849223 M429.538894,314.03583 L449.78628,320.614605 M414.023302,348.976895 L432.46043,359.621575 M391.601333,379.91998 L407.422412,394.165343 M363.252935,405.512725 L375.766508,422.73618 M330.217069,424.636603 L338.876233,444.085403 M293.937561,436.45581 L298.363868,457.279948" id="Line-3"></path>
                            <path d="M257,440.453789 L257,461.743151 M219.062439,436.45581 L214.636132,457.279948 M182.782931,424.636603 L174.123767,444.085403 M149.747065,405.512725 L137.233492,422.73618 M121.398667,379.91998 L105.577588,394.165343 M98.9766982,348.976895 L80.5395703,359.621575 M83.4611059,314.03583 L63.2137199,320.614605 M75.5299959,276.623878 L54.3572597,278.849223 M75.5299959,238.376122 L54.3572597,236.150777 M83.4611059,200.96417 L63.2137199,194.385395 M98.9766982,166.023105 L80.5395703,155.378425 M121.398667,135.08002 L105.577588,120.834657 M149.747065,109.487275 L137.233492,92.26382 M182.782931,90.3633968 L174.123767,70.9145973 M219.062439,78.54419 L214.636132,57.7200521 M257,74.5462107 L257,53.2568492 M294.937561,78.54419 L299.363868,57.7200521 M331.217069,90.3633968 L339.876233,70.9145973 M364.252935,109.487275 L376.766508,92.26382 M392.601333,135.08002 L408.422412,120.834657 M415.023302,166.023105 L433.46043,155.378425 M430.538894,200.96417 L450.78628,194.385395 M438.470004,238.376122 L459.64274,236.150777 M438.470004,276.623878 L459.64274,278.849223 M430.538894,314.03583 L450.78628,320.614605 M415.023302,348.976895 L433.46043,359.621575 M392.601333,379.91998 L408.422412,394.165343 M364.252935,405.512725 L376.766508,422.73618 M331.217069,424.636603 L339.876233,444.085403 M294.937561,436.45581 L299.363868,457.279948" id="Line-3" transform="translate(257.000000, 257.500000) rotate(-18.000000) translate(-257.000000, -257.500000) "></path>
                        </g>
                        <g id="circle-line-5" transform="translate(1153.000000, 1158.000000)" opacity="0.400000006" stroke="#FFFFFF" stroke-width="2">
                            <path d="M319.5,547.238447 L319.5,573.680979 M272.304298,542.272742 L266.806586,568.137441 M227.171274,527.592651 L216.416127,551.749106 M186.073459,503.839766 L170.530929,525.232224 M150.807024,472.0522 L131.156393,489.745708 M122.913281,433.619224 L100.013377,446.84049 M103.611322,390.220542 L78.4629791,398.391734 M93.7447331,343.752886 L67.447056,346.516883 M93.7447331,296.247114 L67.447056,293.483117 M103.611322,249.779458 L78.4629791,241.608266 M122.913281,206.380776 L100.013377,193.15951 M150.807024,167.9478 L131.156393,150.254292 M186.073459,136.160234 L170.530929,114.767776 M227.171274,112.407349 L216.416127,88.2508935 M272.304298,97.727258 L266.806586,71.8625586 M319.5,92.7615527 L319.5,66.3190205 M366.695702,97.727258 L372.193414,71.8625586 M411.828726,112.407349 L422.583873,88.2508935 M452.926541,136.160234 L468.469071,114.767776 M488.192976,167.9478 L507.843607,150.254292 M516.086719,206.380776 L538.986623,193.15951 M535.388678,249.779458 L560.537021,241.608266 M545.255267,296.247114 L571.552944,293.483117 M545.255267,343.752886 L571.552944,346.516883 M535.388678,390.220542 L560.537021,398.391734 M516.086719,433.619224 L538.986623,446.84049 M488.192976,472.0522 L507.843607,489.745708 M452.926541,503.839766 L468.469071,525.232224 M411.828726,527.592651 L422.583873,551.749106 M366.695702,542.272742 L372.193414,568.137441" id="Line-3"></path>
                            <path d="M319.517299,547.238447 L319.517299,573.680979 M272.321597,542.272742 L266.823885,568.137441 M227.188573,527.592651 L216.433426,551.749106 M186.090758,503.839766 L170.548227,525.232224 M150.824323,472.0522 L131.173692,489.745708 M122.93058,433.619224 L100.030675,446.84049 M103.62862,390.220542 L78.4802779,398.391734 M93.7620319,343.752886 L67.4643548,346.516883 M93.7620319,296.247114 L67.4643548,293.483117 M103.62862,249.779458 L78.4802779,241.608266 M122.93058,206.380776 L100.030675,193.15951 M150.824323,167.9478 L131.173692,150.254292 M186.090758,136.160234 L170.548227,114.767776 M227.188573,112.407349 L216.433426,88.2508935 M272.321597,97.727258 L266.823885,71.8625586 M319.517299,92.7615527 L319.517299,66.3190205 M366.713001,97.727258 L372.210713,71.8625586 M411.846025,112.407349 L422.601171,88.2508935 M452.94384,136.160234 L468.48637,114.767776 M488.210275,167.9478 L507.860906,150.254292 M516.104018,206.380776 L539.003922,193.15951 M535.405977,249.779458 L560.55432,241.608266 M545.272566,296.247114 L571.570243,293.483117 M545.272566,343.752886 L571.570243,346.516883 M535.405977,390.220542 L560.55432,398.391734 M516.104018,433.619224 L539.003922,446.84049 M488.210275,472.0522 L507.860906,489.745708 M452.94384,503.839766 L468.48637,525.232224 M411.846025,527.592651 L422.601171,551.749106 M366.713001,542.272742 L372.210713,568.137441" id="Line-3" transform="translate(319.517299, 320.000000) rotate(-18.000000) translate(-319.517299, -320.000000) "></path>
                        </g>
                        <g id="circle-line-6" transform="translate(1125.000000, 1130.000000)" opacity="0.300000012" stroke="#FFFFFF" stroke-width="2">
                            <path d="M347,629.86414 L347,662.604992 M288.487413,623.715659 L281.680207,655.741045 M232.532107,605.538932 L219.215203,635.449189 M181.579597,576.128371 L162.335007,602.616277 M137.856752,536.769358 L113.525558,558.677264 M103.274471,489.18207 L74.9200619,505.552496 M79.3441654,435.446301 L48.2057649,445.563781 M67.1117038,377.910561 L34.5502098,381.332912 M67.1117038,319.089439 L34.5502098,315.667088 M79.3441654,261.553699 L48.2057649,251.436219 M103.274471,207.81793 L74.9200619,191.447504 M137.856752,160.230642 L113.525558,138.322736 M181.579597,120.871629 L162.335007,94.3837232 M232.532107,91.4610675 L219.215203,61.5508111 M288.487413,73.2843411 L281.680207,41.2589554 M347,67.1358595 L347,34.3950077 M405.512587,73.2843411 L412.319793,41.2589554 M461.467893,91.4610675 L474.784797,61.5508111 M512.420403,120.871629 L531.664993,94.3837232 M556.143248,160.230642 L580.474442,138.322736 M590.725529,207.81793 L619.079938,191.447504 M614.655835,261.553699 L645.794235,251.436219 M626.888296,319.089439 L659.44979,315.667088 M626.888296,377.910561 L659.44979,381.332912 M614.655835,435.446301 L645.794235,445.563781 M590.725529,489.18207 L619.079938,505.552496 M556.143248,536.769358 L580.474442,558.677264 M512.420403,576.128371 L531.664993,602.616277 M461.467893,605.538932 L474.784797,635.449189 M405.512587,623.715659 L412.319793,655.741045" id="Line-3" transform="translate(347.000000, 348.500000) rotate(-6.500000) translate(-347.000000, -348.500000) "></path>
                            <path d="M347,629.86414 L347,662.604992 M288.487413,623.715659 L281.680207,655.741045 M232.532107,605.538932 L219.215203,635.449189 M181.579597,576.128371 L162.335007,602.616277 M137.856752,536.769358 L113.525558,558.677264 M103.274471,489.18207 L74.9200619,505.552496 M79.3441654,435.446301 L48.2057649,445.563781 M67.1117038,377.910561 L34.5502098,381.332912 M67.1117038,319.089439 L34.5502098,315.667088 M79.3441654,261.553699 L48.2057649,251.436219 M103.274471,207.81793 L74.9200619,191.447504 M137.856752,160.230642 L113.525558,138.322736 M181.579597,120.871629 L162.335007,94.3837232 M232.532107,91.4610675 L219.215203,61.5508111 M288.487413,73.2843411 L281.680207,41.2589554 M347,67.1358595 L347,34.3950077 M405.512587,73.2843411 L412.319793,41.2589554 M461.467893,91.4610675 L474.784797,61.5508111 M512.420403,120.871629 L531.664993,94.3837232 M556.143248,160.230642 L580.474442,138.322736 M590.725529,207.81793 L619.079938,191.447504 M614.655835,261.553699 L645.794235,251.436219 M626.888296,319.089439 L659.44979,315.667088 M626.888296,377.910561 L659.44979,381.332912 M614.655835,435.446301 L645.794235,445.563781 M590.725529,489.18207 L619.079938,505.552496 M556.143248,536.769358 L580.474442,558.677264 M512.420403,576.128371 L531.664993,602.616277 M461.467893,605.538932 L474.784797,635.449189 M405.512587,623.715659 L412.319793,655.741045" id="Line-3" transform="translate(347.000000, 348.500000) rotate(-0.500000) translate(-347.000000, -348.500000) "></path>
                        </g>
                        <g id="circle-line-7" transform="translate(1039.338627, 1043.500000)" opacity="0.300000012" stroke="#FFFFFF" stroke-width="2">
                            <path d="M433.268955,780.405548 L433.268955,820.540377 M361.443373,772.868535 L353.098873,812.12632 M292.756914,750.586897 L276.432609,787.251887 M230.211505,714.53445 L206.620845,747.004208 M176.540681,666.286859 L146.714691,693.142301 M134.090115,607.952774 L99.3323339,628.020188 M104.715099,542.081676 L66.5446094,554.48402 M89.6994639,471.552447 L49.7844985,475.747679 M89.6994639,399.447553 L49.7844985,395.252321 M104.715099,328.918324 L66.5446094,316.51598 M134.090115,263.047226 L99.3323339,242.979812 M176.540681,204.713141 L146.714691,177.857699 M230.211505,156.46555 L206.620845,123.995792 M292.756914,120.413103 L276.432609,83.748113 M361.443373,98.1314654 L353.098873,58.8736795 M433.268955,90.5944517 L433.268955,50.4596235 M505.094537,98.1314654 L513.439037,58.8736795 M573.780996,120.413103 L590.105301,83.748113 M636.326405,156.46555 L659.917065,123.995792 M689.997229,204.713141 L719.823219,177.857699 M732.447795,263.047226 L767.205576,242.979812 M761.822811,328.918324 L799.9933,316.51598 M776.838446,399.447553 L816.753411,395.252321 M776.838446,471.552447 L816.753411,475.747679 M761.822811,542.081676 L799.9933,554.48402 M732.447795,607.952774 L767.205576,628.020188 M689.997229,666.286859 L719.823219,693.142301 M636.326405,714.53445 L659.917065,747.004208 M573.780996,750.586897 L590.105301,787.251887 M505.094537,772.868535 L513.439037,812.12632" id="Line-3" transform="translate(433.268955, 435.500000) rotate(-360.000000) translate(-433.268955, -435.500000) "></path>
                            <path d="M434.161373,780.405548 L434.161373,820.540377 M362.335791,772.868535 L353.991291,812.12632 M293.649332,750.586897 L277.325027,787.251887 M231.103923,714.53445 L207.513263,747.004208 M177.433099,666.286859 L147.607109,693.142301 M134.982533,607.952774 L100.224752,628.020188 M105.607517,542.081676 L67.4370274,554.48402 M90.5918819,471.552447 L50.6769165,475.747679 M90.5918819,399.447553 L50.6769165,395.252321 M105.607517,328.918324 L67.4370274,316.51598 M134.982533,263.047226 L100.224752,242.979812 M177.433099,204.713141 L147.607109,177.857699 M231.103923,156.46555 L207.513263,123.995792 M293.649332,120.413103 L277.325027,83.748113 M362.335791,98.1314654 L353.991291,58.8736795 M434.161373,90.5944517 L434.161373,50.4596235 M505.986955,98.1314654 L514.331455,58.8736795 M574.673414,120.413103 L590.997719,83.748113 M637.218823,156.46555 L660.809483,123.995792 M690.889647,204.713141 L720.715637,177.857699 M733.340213,263.047226 L768.097994,242.979812 M762.715229,328.918324 L800.885719,316.51598 M777.730864,399.447553 L817.645829,395.252321 M777.730864,471.552447 L817.645829,475.747679 M762.715229,542.081676 L800.885719,554.48402 M733.340213,607.952774 L768.097994,628.020188 M690.889647,666.286859 L720.715637,693.142301 M637.218823,714.53445 L660.809483,747.004208 M574.673414,750.586897 L590.997719,787.251887 M505.986955,772.868535 L514.331455,812.12632" id="Line-3" transform="translate(434.161373, 435.500000) rotate(-4.000000) translate(-434.161373, -435.500000) "></path>
                            <path d="M434.161373,780.405548 L434.161373,820.540377 M362.335791,772.868535 L353.991291,812.12632 M293.649332,750.586897 L277.325027,787.251887 M231.103923,714.53445 L207.513263,747.004208 M177.433099,666.286859 L147.607109,693.142301 M134.982533,607.952774 L100.224752,628.020188 M105.607517,542.081676 L67.4370274,554.48402 M90.5918819,471.552447 L50.6769165,475.747679 M90.5918819,399.447553 L50.6769165,395.252321 M105.607517,328.918324 L67.4370274,316.51598 M134.982533,263.047226 L100.224752,242.979812 M177.433099,204.713141 L147.607109,177.857699 M231.103923,156.46555 L207.513263,123.995792 M293.649332,120.413103 L277.325027,83.748113 M362.335791,98.1314654 L353.991291,58.8736795 M434.161373,90.5944517 L434.161373,50.4596235 M505.986955,98.1314654 L514.331455,58.8736795 M574.673414,120.413103 L590.997719,83.748113 M637.218823,156.46555 L660.809483,123.995792 M690.889647,204.713141 L720.715637,177.857699 M733.340213,263.047226 L768.097994,242.979812 M762.715229,328.918324 L800.885719,316.51598 M777.730864,399.447553 L817.645829,395.252321 M777.730864,471.552447 L817.645829,475.747679 M762.715229,542.081676 L800.885719,554.48402 M733.340213,607.952774 L768.097994,628.020188 M690.889647,666.286859 L720.715637,693.142301 M637.218823,714.53445 L660.809483,747.004208 M574.673414,750.586897 L590.997719,787.251887 M505.986955,772.868535 L514.331455,812.12632" id="Line-3" transform="translate(434.161373, 435.500000) rotate(-8.000000) translate(-434.161373, -435.500000) "></path>
                        </g>
                        <g id="circle-line-8" transform="translate(947.649784, 950.994395)" opacity="0.300000012" stroke="#FFFFFF" stroke-width="2">
                            <path d="M525.131128,945.868014 L525.131128,994.512274 M438.077005,936.732994 L427.963295,984.31426 M354.827565,909.727178 L335.042162,954.165921 M279.021208,866.030851 L250.42883,905.384884 M213.971036,807.553751 L177.821306,840.103114 M162.520052,736.851608 L120.392887,761.173738 M126.916913,657.014445 L80.6534726,672.046348 M108.717645,571.531529 L60.339864,576.616239 M108.717645,484.138874 L60.339864,479.054165 M126.916913,398.655959 L80.6534726,383.624056 M162.520052,318.818796 L120.392887,294.496666 M213.971036,248.116653 L177.821306,215.56729 M279.021208,189.639553 L250.42883,150.28552 M354.827565,145.943225 L335.042162,101.504482 M438.077005,118.93741 L427.963295,71.3561435 M525.131128,109.80239 L525.131128,61.1581298 M612.185251,118.93741 L622.298961,71.3561435 M695.434691,145.943225 L715.220094,101.504482 M771.241048,189.639553 L799.833426,150.28552 M836.29122,248.116653 L872.44095,215.56729 M887.742204,318.818796 L929.869368,294.496666 M923.345343,398.655959 L969.608783,383.624056 M941.54461,484.138874 L989.922392,479.054165 M941.54461,571.531529 L989.922392,576.616239 M923.345343,657.014445 L969.608783,672.046348 M887.742204,736.851608 L929.869368,761.173738 M836.29122,807.553751 L872.44095,840.103114 M771.241048,866.030851 L799.833426,905.384884 M695.434691,909.727178 L715.220094,954.165921 M612.185251,936.732994 L622.298961,984.31426" id="Line-3" transform="translate(525.131128, 527.835202) rotate(-360.000000) translate(-525.131128, -527.835202) "></path>
                            <path d="M526.212757,945.868014 L526.212757,994.512274 M439.158635,936.732994 L429.044924,984.31426 M355.909195,909.727178 L336.123792,954.165921 M280.102838,866.030851 L251.510459,905.384884 M215.052665,807.553751 L178.902935,840.103114 M163.601682,736.851608 L121.474517,761.173738 M127.998542,657.014445 L81.7351021,672.046348 M109.799275,571.531529 L61.4214935,576.616239 M109.799275,484.138874 L61.4214935,479.054165 M127.998542,398.655959 L81.7351021,383.624056 M163.601682,318.818796 L121.474517,294.496666 M215.052665,248.116653 L178.902935,215.56729 M280.102838,189.639553 L251.510459,150.28552 M355.909195,145.943225 L336.123792,101.504482 M439.158635,118.93741 L429.044924,71.3561435 M526.212757,109.80239 L526.212757,61.1581298 M613.26688,118.93741 L623.380591,71.3561435 M696.51632,145.943225 L716.301723,101.504482 M772.322677,189.639553 L800.915056,150.28552 M837.37285,248.116653 L873.52258,215.56729 M888.823833,318.818796 L930.950998,294.496666 M924.426972,398.655959 L970.690413,383.624056 M942.62624,484.138874 L991.004021,479.054165 M942.62624,571.531529 L991.004021,576.616239 M924.426972,657.014445 L970.690413,672.046348 M888.823833,736.851608 L930.950998,761.173738 M837.37285,807.553751 L873.52258,840.103114 M772.322677,866.030851 L800.915056,905.384884 M696.51632,909.727178 L716.301723,954.165921 M613.26688,936.732994 L623.380591,984.31426" id="Line-3" transform="translate(526.212757, 527.835202) rotate(-4.000000) translate(-526.212757, -527.835202) "></path>
                            <path d="M526.212757,945.868014 L526.212757,994.512274 M439.158635,936.732994 L429.044924,984.31426 M355.909195,909.727178 L336.123792,954.165921 M280.102838,866.030851 L251.510459,905.384884 M215.052665,807.553751 L178.902935,840.103114 M163.601682,736.851608 L121.474517,761.173738 M127.998542,657.014445 L81.7351021,672.046348 M109.799275,571.531529 L61.4214935,576.616239 M109.799275,484.138874 L61.4214935,479.054165 M127.998542,398.655959 L81.7351021,383.624056 M163.601682,318.818796 L121.474517,294.496666 M215.052665,248.116653 L178.902935,215.56729 M280.102838,189.639553 L251.510459,150.28552 M355.909195,145.943225 L336.123792,101.504482 M439.158635,118.93741 L429.044924,71.3561435 M526.212757,109.80239 L526.212757,61.1581298 M613.26688,118.93741 L623.380591,71.3561435 M696.51632,145.943225 L716.301723,101.504482 M772.322677,189.639553 L800.915056,150.28552 M837.37285,248.116653 L873.52258,215.56729 M888.823833,318.818796 L930.950998,294.496666 M924.426972,398.655959 L970.690413,383.624056 M942.62624,484.138874 L991.004021,479.054165 M942.62624,571.531529 L991.004021,576.616239 M924.426972,657.014445 L970.690413,672.046348 M888.823833,736.851608 L930.950998,761.173738 M837.37285,807.553751 L873.52258,840.103114 M772.322677,866.030851 L800.915056,905.384884 M696.51632,909.727178 L716.301723,954.165921 M613.26688,936.732994 L623.380591,984.31426" id="Line-3" transform="translate(526.212757, 527.835202) rotate(-8.000000) translate(-526.212757, -527.835202) "></path>
                        </g>
                        <g id="circle-line-9" transform="translate(836.153042, 838.299469)" opacity="0.300000012" stroke="#FFFFFF" stroke-width="2">
                            <path d="M636.754821,1146.925 L636.754821,1205.90925 M531.196172,1135.84821 L518.932656,1193.54351 M430.250943,1103.10194 L406.259886,1156.98674 M338.330923,1050.11737 L303.66085,1097.83663 M259.453461,979.210175 L215.619619,1018.67834 M197.065878,893.47934 L145.984017,922.971466 M153.894812,796.671713 L97.7974543,814.898849 M131.827045,693.018252 L73.1659147,699.183786 M131.827045,587.049112 L73.1659147,580.883578 M153.894812,483.395651 L97.7974543,465.168515 M197.065878,386.588024 L145.984017,357.095898 M259.453461,300.857188 L215.619619,261.38902 M338.330923,229.949993 L303.66085,182.230731 M430.250943,176.965423 L406.259886,123.080627 M531.196172,144.219158 L518.932656,86.5238528 M636.754821,133.142366 L636.754821,74.1581139 M742.31347,144.219158 L754.576985,86.5238528 M843.258699,176.965423 L867.249756,123.080627 M935.178718,229.949993 L969.848792,182.230731 M1014.05618,300.857188 L1057.89002,261.38902 M1076.44376,386.588024 L1127.52562,357.095898 M1119.61483,483.395651 L1175.71219,465.168515 M1141.6826,587.049112 L1200.34373,580.883578 M1141.6826,693.018252 L1200.34373,699.183786 M1119.61483,796.671713 L1175.71219,814.898849 M1076.44376,893.47934 L1127.52562,922.971466 M1014.05618,979.210175 L1057.89002,1018.67834 M935.178718,1050.11737 L969.848792,1097.83663 M843.258699,1103.10194 L867.249756,1156.98674 M742.31347,1135.84821 L754.576985,1193.54351" id="Line-3" transform="translate(636.754821, 640.033682) rotate(-360.000000) translate(-636.754821, -640.033682) "></path>
                            <path d="M638.066365,1146.925 L638.066365,1205.90925 M532.507716,1135.84821 L520.244201,1193.54351 M431.562487,1103.10194 L407.57143,1156.98674 M339.642468,1050.11737 L304.972394,1097.83663 M260.765005,979.210175 L216.931163,1018.67834 M198.377422,893.47934 L147.295561,922.971466 M155.206356,796.671713 L99.1089987,814.898849 M133.13859,693.018252 L74.4774591,699.183786 M133.13859,587.049112 L74.4774591,580.883578 M155.206356,483.395651 L99.1089987,465.168515 M198.377422,386.588024 L147.295561,357.095898 M260.765005,300.857188 L216.931163,261.38902 M339.642468,229.949993 L304.972394,182.230731 M431.562487,176.965423 L407.57143,123.080627 M532.507716,144.219158 L520.244201,86.5238528 M638.066365,133.142366 L638.066365,74.1581139 M743.625014,144.219158 L755.88853,86.5238528 M844.570244,176.965423 L868.561301,123.080627 M936.490263,229.949993 L971.160336,182.230731 M1015.36773,300.857188 L1059.20157,261.38902 M1077.75531,386.588024 L1128.83717,357.095898 M1120.92637,483.395651 L1177.02373,465.168515 M1142.99414,587.049112 L1201.65527,580.883578 M1142.99414,693.018252 L1201.65527,699.183786 M1120.92637,796.671713 L1177.02373,814.898849 M1077.75531,893.47934 L1128.83717,922.971466 M1015.36773,979.210175 L1059.20157,1018.67834 M936.490263,1050.11737 L971.160336,1097.83663 M844.570244,1103.10194 L868.561301,1156.98674 M743.625014,1135.84821 L755.88853,1193.54351" id="Line-3" transform="translate(638.066365, 640.033682) rotate(-4.000000) translate(-638.066365, -640.033682) "></path>
                            <path d="M638.066365,1146.925 L638.066365,1205.90925 M532.507716,1135.84821 L520.244201,1193.54351 M431.562487,1103.10194 L407.57143,1156.98674 M339.642468,1050.11737 L304.972394,1097.83663 M260.765005,979.210175 L216.931163,1018.67834 M198.377422,893.47934 L147.295561,922.971466 M155.206356,796.671713 L99.1089987,814.898849 M133.13859,693.018252 L74.4774591,699.183786 M133.13859,587.049112 L74.4774591,580.883578 M155.206356,483.395651 L99.1089987,465.168515 M198.377422,386.588024 L147.295561,357.095898 M260.765005,300.857188 L216.931163,261.38902 M339.642468,229.949993 L304.972394,182.230731 M431.562487,176.965423 L407.57143,123.080627 M532.507716,144.219158 L520.244201,86.5238528 M638.066365,133.142366 L638.066365,74.1581139 M743.625014,144.219158 L755.88853,86.5238528 M844.570244,176.965423 L868.561301,123.080627 M936.490263,229.949993 L971.160336,182.230731 M1015.36773,300.857188 L1059.20157,261.38902 M1077.75531,386.588024 L1128.83717,357.095898 M1120.92637,483.395651 L1177.02373,465.168515 M1142.99414,587.049112 L1201.65527,580.883578 M1142.99414,693.018252 L1201.65527,699.183786 M1120.92637,796.671713 L1177.02373,814.898849 M1077.75531,893.47934 L1128.83717,922.971466 M1015.36773,979.210175 L1059.20157,1018.67834 M936.490263,1050.11737 L971.160336,1097.83663 M844.570244,1103.10194 L868.561301,1156.98674 M743.625014,1135.84821 L755.88853,1193.54351" id="Line-3" transform="translate(638.066365, 640.033682) rotate(-8.000000) translate(-638.066365, -640.033682) "></path>
                        </g>
                        <g id="circle-line-10" transform="translate(709.876014, 711.743521)" opacity="0.300000012" stroke="#FFFFFF" stroke-width="2">
                            <path d="M762.683404,1373.748 L762.683404,1444.39734 M636.248822,1360.48059 L621.559997,1429.58608 M515.340037,1321.25822 L486.604361,1385.79961 M405.241345,1257.7951 L363.714703,1314.95162 M310.764586,1172.86485 L258.261892,1220.13849 M236.038848,1070.17936 L174.854722,1105.50403 M184.330004,954.226452 L117.138485,976.0583 M157.897979,830.07384 L87.6356598,837.458708 M157.897979,703.147585 L87.6356598,695.762718 M184.330004,578.994973 L117.138485,557.163125 M236.038848,463.042069 L174.854722,427.717398 M310.764586,360.356572 L258.261892,313.082934 M405.241345,275.42633 L363.714703,218.26981 M515.340037,211.963203 L486.604361,147.421815 M636.248822,172.740833 L621.559997,103.635347 M762.683404,159.473426 L762.683404,88.8240825 M889.117986,172.740833 L903.80681,103.635347 M1010.02677,211.963203 L1038.76245,147.421815 M1120.12546,275.42633 L1161.6521,218.26981 M1214.60222,360.356572 L1267.10492,313.082934 M1289.32796,463.042069 L1350.51209,427.717398 M1341.0368,578.994973 L1408.22832,557.163125 M1367.46883,703.147585 L1437.73115,695.762718 M1367.46883,830.07384 L1437.73115,837.458708 M1341.0368,954.226452 L1408.22832,976.0583 M1289.32796,1070.17936 L1350.51209,1105.50403 M1214.60222,1172.86485 L1267.10492,1220.13849 M1120.12546,1257.7951 L1161.6521,1314.95162 M1010.02677,1321.25822 L1038.76245,1385.79961 M889.117986,1360.48059 L903.80681,1429.58608" id="Line-3" transform="translate(762.683404, 766.610713) rotate(-360.000000) translate(-762.683404, -766.610713) "></path>
                            <path d="M764.254327,1373.748 L764.254327,1444.39734 M637.819745,1360.48059 L623.130921,1429.58608 M516.910961,1321.25822 L488.175284,1385.79961 M406.812269,1257.7951 L365.285627,1314.95162 M312.33551,1172.86485 L259.832816,1220.13849 M237.609772,1070.17936 L176.425645,1105.50403 M185.900928,954.226452 L118.709409,976.0583 M159.468903,830.07384 L89.2065834,837.458708 M159.468903,703.147585 L89.2065834,695.762718 M185.900928,578.994973 L118.709409,557.163125 M237.609772,463.042069 L176.425645,427.717398 M312.33551,360.356572 L259.832816,313.082934 M406.812269,275.42633 L365.285627,218.26981 M516.910961,211.963203 L488.175284,147.421815 M637.819745,172.740833 L623.130921,103.635347 M764.254327,159.473426 L764.254327,88.8240825 M890.688909,172.740833 L905.377734,103.635347 M1011.59769,211.963203 L1040.33337,147.421815 M1121.69639,275.42633 L1163.22303,218.26981 M1216.17314,360.356572 L1268.67584,313.082934 M1290.89888,463.042069 L1352.08301,427.717398 M1342.60773,578.994973 L1409.79925,557.163125 M1369.03975,703.147585 L1439.30207,695.762718 M1369.03975,830.07384 L1439.30207,837.458708 M1342.60773,954.226452 L1409.79925,976.0583 M1290.89888,1070.17936 L1352.08301,1105.50403 M1216.17314,1172.86485 L1268.67584,1220.13849 M1121.69639,1257.7951 L1163.22303,1314.95162 M1011.59769,1321.25822 L1040.33337,1385.79961 M890.688909,1360.48059 L905.377734,1429.58608" id="Line-3" transform="translate(764.254327, 766.610713) rotate(-4.000000) translate(-764.254327, -766.610713) "></path>
                            <path d="M764.254327,1373.748 L764.254327,1444.39734 M637.819745,1360.48059 L623.130921,1429.58608 M516.910961,1321.25822 L488.175284,1385.79961 M406.812269,1257.7951 L365.285627,1314.95162 M312.33551,1172.86485 L259.832816,1220.13849 M237.609772,1070.17936 L176.425645,1105.50403 M185.900928,954.226452 L118.709409,976.0583 M159.468903,830.07384 L89.2065834,837.458708 M159.468903,703.147585 L89.2065834,695.762718 M185.900928,578.994973 L118.709409,557.163125 M237.609772,463.042069 L176.425645,427.717398 M312.33551,360.356572 L259.832816,313.082934 M406.812269,275.42633 L365.285627,218.26981 M516.910961,211.963203 L488.175284,147.421815 M637.819745,172.740833 L623.130921,103.635347 M764.254327,159.473426 L764.254327,88.8240825 M890.688909,172.740833 L905.377734,103.635347 M1011.59769,211.963203 L1040.33337,147.421815 M1121.69639,275.42633 L1163.22303,218.26981 M1216.17314,360.356572 L1268.67584,313.082934 M1290.89888,463.042069 L1352.08301,427.717398 M1342.60773,578.994973 L1409.79925,557.163125 M1369.03975,703.147585 L1439.30207,695.762718 M1369.03975,830.07384 L1439.30207,837.458708 M1342.60773,954.226452 L1409.79925,976.0583 M1290.89888,1070.17936 L1352.08301,1105.50403 M1216.17314,1172.86485 L1268.67584,1220.13849 M1121.69639,1257.7951 L1163.22303,1314.95162 M1011.59769,1321.25822 L1040.33337,1385.79961 M890.688909,1360.48059 L905.377734,1429.58608" id="Line-3" transform="translate(764.254327, 766.610713) rotate(-8.000000) translate(-764.254327, -766.610713) "></path>
                        </g>
                        <g id="circle-line-11" transform="translate(561.334736, 562.818817)" opacity="0.300000012" stroke="#FFFFFF" stroke-width="2">
                            <path d="M910.872103,1640.666 L910.872103,1725.04245 M759.871395,1624.82075 L742.328545,1707.35337 M615.470143,1577.97751 L581.15115,1655.05923 M483.979374,1502.18355 L434.384142,1570.44553 M371.145866,1400.75144 L308.441945,1457.2103 M281.900984,1278.11424 L208.828837,1320.30247 M220.145158,1139.63179 L139.898388,1165.70555 M188.577414,991.35644 L104.66319,1000.17618 M188.577414,839.768528 L104.66319,830.948788 M220.145158,691.493175 L139.898388,665.419419 M281.900984,553.010727 L208.828837,510.822503 M371.145866,430.37353 L308.441945,373.914666 M483.979374,328.941418 L434.384142,260.679438 M615.470143,253.147462 L581.15115,176.065741 M759.871395,206.304221 L742.328545,123.771601 M910.872103,190.45897 L910.872103,106.082522 M1061.87281,206.304221 L1079.41566,123.771601 M1206.27406,253.147462 L1240.59306,176.065741 M1337.76483,328.941418 L1387.36006,260.679438 M1450.59834,430.37353 L1513.30226,373.914666 M1539.84322,553.010727 L1612.91537,510.822503 M1601.59905,691.493175 L1681.84582,665.419419 M1633.16679,839.768528 L1717.08102,830.948788 M1633.16679,991.35644 L1717.08102,1000.17618 M1601.59905,1139.63179 L1681.84582,1165.70555 M1539.84322,1278.11424 L1612.91537,1320.30247 M1450.59834,1400.75144 L1513.30226,1457.2103 M1337.76483,1502.18355 L1387.36006,1570.44553 M1206.27406,1577.97751 L1240.59306,1655.05923 M1061.87281,1624.82075 L1079.41566,1707.35337" id="Line-3" transform="translate(910.872103, 915.562484) rotate(-360.000000) translate(-910.872103, -915.562484) "></path>
                            <path d="M912.748255,1640.666 L912.748255,1725.04245 M761.747548,1624.82075 L744.204698,1707.35337 M617.346296,1577.97751 L583.027302,1655.05923 M485.855527,1502.18355 L436.260295,1570.44553 M373.022018,1400.75144 L310.318098,1457.2103 M283.777137,1278.11424 L210.704989,1320.30247 M222.021311,1139.63179 L141.77454,1165.70555 M190.453567,991.35644 L106.539342,1000.17618 M190.453567,839.768528 L106.539342,830.948788 M222.021311,691.493175 L141.77454,665.419419 M283.777137,553.010727 L210.704989,510.822503 M373.022018,430.37353 L310.318098,373.914666 M485.855527,328.941418 L436.260295,260.679438 M617.346296,253.147462 L583.027302,176.065741 M761.747548,206.304221 L744.204698,123.771601 M912.748255,190.45897 L912.748255,106.082522 M1063.74896,206.304221 L1081.29181,123.771601 M1208.15021,253.147462 L1242.46921,176.065741 M1339.64098,328.941418 L1389.23622,260.679438 M1452.47449,430.37353 L1515.17841,373.914666 M1541.71937,553.010727 L1614.79152,510.822503 M1603.4752,691.493175 L1683.72197,665.419419 M1635.04294,839.768528 L1718.95717,830.948788 M1635.04294,991.35644 L1718.95717,1000.17618 M1603.4752,1139.63179 L1683.72197,1165.70555 M1541.71937,1278.11424 L1614.79152,1320.30247 M1452.47449,1400.75144 L1515.17841,1457.2103 M1339.64098,1502.18355 L1389.23622,1570.44553 M1208.15021,1577.97751 L1242.46921,1655.05923 M1063.74896,1624.82075 L1081.29181,1707.35337" id="Line-3" transform="translate(912.748255, 915.562484) rotate(-4.000000) translate(-912.748255, -915.562484) "></path>
                            <path d="M912.748255,1640.666 L912.748255,1725.04245 M761.747548,1624.82075 L744.204698,1707.35337 M617.346296,1577.97751 L583.027302,1655.05923 M485.855527,1502.18355 L436.260295,1570.44553 M373.022018,1400.75144 L310.318098,1457.2103 M283.777137,1278.11424 L210.704989,1320.30247 M222.021311,1139.63179 L141.77454,1165.70555 M190.453567,991.35644 L106.539342,1000.17618 M190.453567,839.768528 L106.539342,830.948788 M222.021311,691.493175 L141.77454,665.419419 M283.777137,553.010727 L210.704989,510.822503 M373.022018,430.37353 L310.318098,373.914666 M485.855527,328.941418 L436.260295,260.679438 M617.346296,253.147462 L583.027302,176.065741 M761.747548,206.304221 L744.204698,123.771601 M912.748255,190.45897 L912.748255,106.082522 M1063.74896,206.304221 L1081.29181,123.771601 M1208.15021,253.147462 L1242.46921,176.065741 M1339.64098,328.941418 L1389.23622,260.679438 M1452.47449,430.37353 L1515.17841,373.914666 M1541.71937,553.010727 L1614.79152,510.822503 M1603.4752,691.493175 L1683.72197,665.419419 M1635.04294,839.768528 L1718.95717,830.948788 M1635.04294,991.35644 L1718.95717,1000.17618 M1603.4752,1139.63179 L1683.72197,1165.70555 M1541.71937,1278.11424 L1614.79152,1320.30247 M1452.47449,1400.75144 L1515.17841,1457.2103 M1339.64098,1502.18355 L1389.23622,1570.44553 M1208.15021,1577.97751 L1242.46921,1655.05923 M1063.74896,1624.82075 L1081.29181,1707.35337" id="Line-3" transform="translate(912.748255, 915.562484) rotate(-8.000000) translate(-912.748255, -915.562484) "></path>
                        </g>
                        <g id="circle-line-12" transform="translate(390.623578, 391.575803)" opacity="0.300000012" stroke="#FFFFFF" stroke-width="2">
                            <path d="M1081.2208,1947.49867 L1081.2208,2047.65496 M901.980372,1928.69008 L881.156708,2026.65771 M730.57361,1873.08635 L689.836377,1964.58367 M574.491814,1783.11763 L515.621423,1864.14577 M440.556505,1662.71597 L366.125876,1729.73361 M334.6213,1517.14351 L247.883409,1567.22166 M261.316077,1352.76247 L166.061784,1383.71247 M223.844624,1176.75709 L124.237,1187.22627 M223.844624,996.819638 L124.237,986.350455 M261.316077,820.814253 L166.061784,789.864257 M334.6213,656.433213 L247.883409,606.355068 M440.556505,510.860757 L366.125876,443.843118 M574.491814,390.459102 L515.621423,309.430962 M730.57361,300.490377 L689.836377,208.993053 M901.980372,244.886647 L881.156708,146.919012 M1081.2208,226.078062 L1081.2208,125.921772 M1260.46123,244.886647 L1281.28489,146.919012 M1431.86799,300.490377 L1472.60522,208.993053 M1587.94979,390.459102 L1646.82018,309.430962 M1721.8851,510.860757 L1796.31572,443.843118 M1827.8203,656.433213 L1914.55819,606.355068 M1901.12552,820.814253 L1996.37982,789.864257 M1938.59698,996.819638 L2038.2046,986.350455 M1938.59698,1176.75709 L2038.2046,1187.22627 M1901.12552,1352.76247 L1996.37982,1383.71247 M1827.8203,1517.14351 L1914.55819,1567.22166 M1721.8851,1662.71597 L1796.31572,1729.73361 M1587.94979,1783.11763 L1646.82018,1864.14577 M1431.86799,1873.08635 L1472.60522,1964.58367 M1260.46123,1928.69008 L1281.28489,2026.65771" id="Line-3" transform="translate(1081.220800, 1086.788364) rotate(-360.000000) translate(-1081.220800, -1086.788364) "></path>
                            <path d="M1083.44783,1947.49867 L1083.44783,2047.65496 M904.207397,1928.69008 L883.383734,2026.65771 M732.800636,1873.08635 L692.063402,1964.58367 M576.718839,1783.11763 L517.848449,1864.14577 M442.78353,1662.71597 L368.352902,1729.73361 M336.848326,1517.14351 L250.110434,1567.22166 M263.543102,1352.76247 L168.28881,1383.71247 M226.071649,1176.75709 L126.464026,1187.22627 M226.071649,996.819638 L126.464026,986.350455 M263.543102,820.814253 L168.28881,789.864257 M336.848326,656.433213 L250.110434,606.355068 M442.78353,510.860757 L368.352902,443.843118 M576.718839,390.459102 L517.848449,309.430962 M732.800636,300.490377 L692.063402,208.993053 M904.207397,244.886647 L883.383734,146.919012 M1083.44783,226.078062 L1083.44783,125.921772 M1262.68825,244.886647 L1283.51192,146.919012 M1434.09502,300.490377 L1474.83225,208.993053 M1590.17681,390.459102 L1649.0472,309.430962 M1724.11212,510.860757 L1798.54275,443.843118 M1830.04733,656.433213 L1916.78522,606.355068 M1903.35255,820.814253 L1998.60684,789.864257 M1940.824,996.819638 L2040.43163,986.350455 M1940.824,1176.75709 L2040.43163,1187.22627 M1903.35255,1352.76247 L1998.60684,1383.71247 M1830.04733,1517.14351 L1916.78522,1567.22166 M1724.11212,1662.71597 L1798.54275,1729.73361 M1590.17681,1783.11763 L1649.0472,1864.14577 M1434.09502,1873.08635 L1474.83225,1964.58367 M1262.68825,1928.69008 L1283.51192,2026.65771" id="Line-3" transform="translate(1083.447826, 1086.788364) rotate(-4.000000) translate(-1083.447826, -1086.788364) "></path>
                            <path d="M1083.44783,1947.49867 L1083.44783,2047.65496 M904.207397,1928.69008 L883.383734,2026.65771 M732.800636,1873.08635 L692.063402,1964.58367 M576.718839,1783.11763 L517.848449,1864.14577 M442.78353,1662.71597 L368.352902,1729.73361 M336.848326,1517.14351 L250.110434,1567.22166 M263.543102,1352.76247 L168.28881,1383.71247 M226.071649,1176.75709 L126.464026,1187.22627 M226.071649,996.819638 L126.464026,986.350455 M263.543102,820.814253 L168.28881,789.864257 M336.848326,656.433213 L250.110434,606.355068 M442.78353,510.860757 L368.352902,443.843118 M576.718839,390.459102 L517.848449,309.430962 M732.800636,300.490377 L692.063402,208.993053 M904.207397,244.886647 L883.383734,146.919012 M1083.44783,226.078062 L1083.44783,125.921772 M1262.68825,244.886647 L1283.51192,146.919012 M1434.09502,300.490377 L1474.83225,208.993053 M1590.17681,390.459102 L1649.0472,309.430962 M1724.11212,510.860757 L1798.54275,443.843118 M1830.04733,656.433213 L1916.78522,606.355068 M1903.35255,820.814253 L1998.60684,789.864257 M1940.824,996.819638 L2040.43163,986.350455 M1940.824,1176.75709 L2040.43163,1187.22627 M1903.35255,1352.76247 L1998.60684,1383.71247 M1830.04733,1517.14351 L1916.78522,1567.22166 M1724.11212,1662.71597 L1798.54275,1729.73361 M1590.17681,1783.11763 L1649.0472,1864.14577 M1434.09502,1873.08635 L1474.83225,1964.58367 M1262.68825,1928.69008 L1283.51192,2026.65771" id="Line-3" transform="translate(1083.447826, 1086.788364) rotate(-8.000000) translate(-1083.447826, -1086.788364) "></path>
                        </g>
                        <g id="circle-line-13" transform="translate(202.872130, 203.280686)" opacity="0.300000012" stroke="#FFFFFF" stroke-width="2">
                            <path d="M1268.58834,2284.98574 L1268.58834,2402.49837 M1058.28688,2262.91776 L1033.85463,2377.86246 M857.176597,2197.67832 L809.379903,2305.03145 M674.046982,2092.11868 L604.97479,2187.1884 M516.901679,1950.85231 L429.572774,2029.48361 M392.608689,1780.05323 L290.839765,1838.80955 M306.600214,1587.18617 L194.83906,1623.49957 M262.635236,1380.68036 L145.766351,1392.96378 M262.635236,1169.56109 L145.766351,1157.27767 M306.600214,963.055273 L194.83906,926.741873 M392.608689,770.188218 L290.839765,711.431902 M516.901679,599.389136 L429.572774,520.757838 M674.046982,458.122768 L604.97479,363.053051 M857.176597,352.56313 L809.379903,245.209999 M1058.28688,287.323686 L1033.85463,172.378987 M1268.58834,265.255713 L1268.58834,147.743081 M1478.88981,287.323686 L1503.32206,172.378987 M1680.00009,352.56313 L1727.79678,245.209999 M1863.1297,458.122768 L1932.2019,363.053051 M2020.27501,599.389136 L2107.60391,520.757838 M2144.568,770.188218 L2246.33692,711.431902 M2230.57647,963.055273 L2342.33763,926.741873 M2274.54145,1169.56109 L2391.41034,1157.27767 M2274.54145,1380.68036 L2391.41034,1392.96378 M2230.57647,1587.18617 L2342.33763,1623.49957 M2144.568,1780.05323 L2246.33692,1838.80955 M2020.27501,1950.85231 L2107.60391,2029.48361 M1863.1297,2092.11868 L1932.2019,2187.1884 M1680.00009,2197.67832 L1727.79678,2305.03145 M1478.88981,2262.91776 L1503.32206,2377.86246" id="Line-3" transform="translate(1268.588343, 1275.120724) rotate(-360.000000) translate(-1268.588343, -1275.120724) "></path>
                            <path d="M1271.2013,2284.98574 L1271.2013,2402.49837 M1060.89983,2262.91776 L1036.46758,2377.86246 M859.789549,2197.67832 L811.992855,2305.03145 M676.659935,2092.11868 L607.587743,2187.1884 M519.514631,1950.85231 L432.185727,2029.48361 M395.221641,1780.05323 L293.452717,1838.80955 M309.213166,1587.18617 L197.452012,1623.49957 M265.248188,1380.68036 L148.379303,1392.96378 M265.248188,1169.56109 L148.379303,1157.27767 M309.213166,963.055273 L197.452012,926.741873 M395.221641,770.188218 L293.452717,711.431902 M519.514631,599.389136 L432.185727,520.757838 M676.659935,458.122768 L607.587743,363.053051 M859.789549,352.56313 L811.992855,245.209999 M1060.89983,287.323686 L1036.46758,172.378987 M1271.2013,265.255713 L1271.2013,147.743081 M1481.50276,287.323686 L1505.93501,172.378987 M1682.61304,352.56313 L1730.40974,245.209999 M1865.74266,458.122768 L1934.81485,363.053051 M2022.88796,599.389136 L2110.21686,520.757838 M2147.18095,770.188218 L2248.94987,711.431902 M2233.18942,963.055273 L2344.95058,926.741873 M2277.1544,1169.56109 L2394.02329,1157.27767 M2277.1544,1380.68036 L2394.02329,1392.96378 M2233.18942,1587.18617 L2344.95058,1623.49957 M2147.18095,1780.05323 L2248.94987,1838.80955 M2022.88796,1950.85231 L2110.21686,2029.48361 M1865.74266,2092.11868 L1934.81485,2187.1884 M1682.61304,2197.67832 L1730.40974,2305.03145 M1481.50276,2262.91776 L1505.93501,2377.86246" id="Line-3" transform="translate(1271.201295, 1275.120724) rotate(-4.000000) translate(-1271.201295, -1275.120724) "></path>
                            <path d="M1271.2013,2284.98574 L1271.2013,2402.49837 M1060.89983,2262.91776 L1036.46758,2377.86246 M859.789549,2197.67832 L811.992855,2305.03145 M676.659935,2092.11868 L607.587743,2187.1884 M519.514631,1950.85231 L432.185727,2029.48361 M395.221641,1780.05323 L293.452717,1838.80955 M309.213166,1587.18617 L197.452012,1623.49957 M265.248188,1380.68036 L148.379303,1392.96378 M265.248188,1169.56109 L148.379303,1157.27767 M309.213166,963.055273 L197.452012,926.741873 M395.221641,770.188218 L293.452717,711.431902 M519.514631,599.389136 L432.185727,520.757838 M676.659935,458.122768 L607.587743,363.053051 M859.789549,352.56313 L811.992855,245.209999 M1060.89983,287.323686 L1036.46758,172.378987 M1271.2013,265.255713 L1271.2013,147.743081 M1481.50276,287.323686 L1505.93501,172.378987 M1682.61304,352.56313 L1730.40974,245.209999 M1865.74266,458.122768 L1934.81485,363.053051 M2022.88796,599.389136 L2110.21686,520.757838 M2147.18095,770.188218 L2248.94987,711.431902 M2233.18942,963.055273 L2344.95058,926.741873 M2277.1544,1169.56109 L2394.02329,1157.27767 M2277.1544,1380.68036 L2394.02329,1392.96378 M2233.18942,1587.18617 L2344.95058,1623.49957 M2147.18095,1780.05323 L2248.94987,1838.80955 M2022.88796,1950.85231 L2110.21686,2029.48361 M1865.74266,2092.11868 L1934.81485,2187.1884 M1682.61304,2197.67832 L1730.40974,2305.03145 M1481.50276,2262.91776 L1505.93501,2377.86246" id="Line-3" transform="translate(1271.201295, 1275.120724) rotate(-8.000000) translate(-1271.201295, -1275.120724) "></path>
                        </g>
                        <g id="circle-line-14" transform="translate(0.521585, 0.386557)" opacity="0.300000012" stroke="#FFFFFF" stroke-width="2">
                            <path d="M1470.48057,2648.63471 L1470.48057,2784.84914 M1226.71022,2623.05468 L1198.38965,2756.2925 M993.593812,2547.43257 L938.19041,2671.87064 M781.319641,2425.07341 L701.254806,2535.2732 M599.165109,2261.3249 L497.938058,2352.47015 M455.091244,2063.34363 L337.126085,2131.45085 M355.394765,1839.78234 L225.847141,1881.87491 M304.432886,1600.41171 L168.96465,1614.65 M304.432886,1355.6934 L168.96465,1341.45512 M355.394765,1116.32278 L225.847141,1074.2302 M455.091244,892.76148 L337.126085,824.654264 M599.165109,694.780211 L497.938058,603.634965 M781.319641,531.031702 L701.254806,420.831911 M993.593812,408.672548 L938.19041,284.234472 M1226.71022,333.050433 L1198.38965,199.812612 M1470.48057,307.470404 L1470.48057,171.255971 M1714.25091,333.050433 L1742.57148,199.812612 M1947.36732,408.672548 L2002.77072,284.234472 M2159.64149,531.031702 L2239.70633,420.831911 M2341.79602,694.780211 L2443.02307,603.634965 M2485.86989,892.76148 L2603.83505,824.654264 M2585.56637,1116.32278 L2715.11399,1074.2302 M2636.52825,1355.6934 L2771.99648,1341.45512 M2636.52825,1600.41171 L2771.99648,1614.65 M2585.56637,1839.78234 L2715.11399,1881.87491 M2485.86989,2063.34363 L2603.83505,2131.45085 M2341.79602,2261.3249 L2443.02307,2352.47015 M2159.64149,2425.07341 L2239.70633,2535.2732 M1947.36732,2547.43257 L2002.77072,2671.87064 M1714.25091,2623.05468 L1742.57148,2756.2925" id="Line-3" transform="translate(1470.480566, 1478.052557) rotate(-360.000000) translate(-1470.480566, -1478.052557) "></path>
                            <path d="M1473.50936,2648.63471 L1473.50936,2784.84914 M1229.73902,2623.05468 L1201.41845,2756.2925 M996.622608,2547.43257 L941.219207,2671.87064 M784.348437,2425.07341 L704.283602,2535.2732 M602.193905,2261.3249 L500.966855,2352.47015 M458.12004,2063.34363 L340.154881,2131.45085 M358.423561,1839.78234 L228.875937,1881.87491 M307.461682,1600.41171 L171.993447,1614.65 M307.461682,1355.6934 L171.993447,1341.45512 M358.423561,1116.32278 L228.875937,1074.2302 M458.12004,892.76148 L340.154881,824.654264 M602.193905,694.780211 L500.966855,603.634965 M784.348437,531.031702 L704.283602,420.831911 M996.622608,408.672548 L941.219207,284.234472 M1229.73902,333.050433 L1201.41845,199.812612 M1473.50936,307.470404 L1473.50936,171.255971 M1717.27971,333.050433 L1745.60028,199.812612 M1950.39612,408.672548 L2005.79952,284.234472 M2162.67029,531.031702 L2242.73512,420.831911 M2344.82482,694.780211 L2446.05187,603.634965 M2488.89868,892.76148 L2606.86384,824.654264 M2588.59516,1116.32278 L2718.14279,1074.2302 M2639.55704,1355.6934 L2775.02528,1341.45512 M2639.55704,1600.41171 L2775.02528,1614.65 M2588.59516,1839.78234 L2718.14279,1881.87491 M2488.89868,2063.34363 L2606.86384,2131.45085 M2344.82482,2261.3249 L2446.05187,2352.47015 M2162.67029,2425.07341 L2242.73512,2535.2732 M1950.39612,2547.43257 L2005.79952,2671.87064 M1717.27971,2623.05468 L1745.60028,2756.2925" id="Line-3" transform="translate(1473.509362, 1478.052557) rotate(-4.000000) translate(-1473.509362, -1478.052557) "></path>
                            <path d="M1473.50936,2648.63471 L1473.50936,2784.84914 M1229.73902,2623.05468 L1201.41845,2756.2925 M996.622608,2547.43257 L941.219207,2671.87064 M784.348437,2425.07341 L704.283602,2535.2732 M602.193905,2261.3249 L500.966855,2352.47015 M458.12004,2063.34363 L340.154881,2131.45085 M358.423561,1839.78234 L228.875937,1881.87491 M307.461682,1600.41171 L171.993447,1614.65 M307.461682,1355.6934 L171.993447,1341.45512 M358.423561,1116.32278 L228.875937,1074.2302 M458.12004,892.76148 L340.154881,824.654264 M602.193905,694.780211 L500.966855,603.634965 M784.348437,531.031702 L704.283602,420.831911 M996.622608,408.672548 L941.219207,284.234472 M1229.73902,333.050433 L1201.41845,199.812612 M1473.50936,307.470404 L1473.50936,171.255971 M1717.27971,333.050433 L1745.60028,199.812612 M1950.39612,408.672548 L2005.79952,284.234472 M2162.67029,531.031702 L2242.73512,420.831911 M2344.82482,694.780211 L2446.05187,603.634965 M2488.89868,892.76148 L2606.86384,824.654264 M2588.59516,1116.32278 L2718.14279,1074.2302 M2639.55704,1355.6934 L2775.02528,1341.45512 M2639.55704,1600.41171 L2775.02528,1614.65 M2588.59516,1839.78234 L2718.14279,1881.87491 M2488.89868,2063.34363 L2606.86384,2131.45085 M2344.82482,2261.3249 L2446.05187,2352.47015 M2162.67029,2425.07341 L2242.73512,2535.2732 M1950.39612,2547.43257 L2005.79952,2671.87064 M1717.27971,2623.05468 L1745.60028,2756.2925" id="Line-3" transform="translate(1473.509362, 1478.052557) rotate(-8.000000) translate(-1473.509362, -1478.052557) "></path>
                        </g>
                    </g>
                    <g id="Group-9" transform="translate(1563.000000, 1565.000000)">
                        <g id="Group-8" transform="translate(28.000000, 31.000000)" opacity="0.5" stroke="#FFFFFF" stroke-width="2">
                            <path d="M95,154.738562 L95,175 M61.3666828,143.806969 L49.4573084,160.198817 M40.5801496,115.187688 L21.3103771,121.448817 M40.5801496,79.8123116 L21.3103771,73.5511829 M61.3666828,51.1930305 L49.4573084,34.8011829 M95,40.2614379 L95,20 M128.633317,51.1930305 L140.542692,34.8011829 M149.41985,79.8123116 L168.689623,73.5511829 M149.41985,115.187688 L168.689623,121.448817 M128.633317,143.806969 L140.542692,160.198817" id="Line-2" transform="translate(95.000000, 97.500000) rotate(-18.000000) translate(-95.000000, -97.500000) "></path>
                            <path d="M96,153.738562 L96,174 M62.3666828,142.806969 L50.4573084,159.198817 M41.5801496,114.187688 L22.3103771,120.448817 M41.5801496,78.8123116 L22.3103771,72.5511829 M62.3666828,50.1930305 L50.4573084,33.8011829 M96,39.2614379 L96,19 M129.633317,50.1930305 L141.542692,33.8011829 M150.41985,78.8123116 L169.689623,72.5511829 M150.41985,114.187688 L169.689623,120.448817 M129.633317,142.806969 L141.542692,159.198817" id="Line-2"></path>
                        </g>
                        <path d="M114.505937,180.797493 L132.494063,180.797493 L132.494063,252.75 L114.505937,252.75 L114.505937,180.797493 Z M84.3083841,165.141017 L98.8610842,175.714173 L56.568462,233.924973 L42.0157618,223.351818 L84.3083841,165.141017 Z M69.0806967,134.724986 L74.6393335,151.832711 L6.20843323,174.067258 L0.649796402,156.959533 L69.0806967,134.724986 Z M74.6393335,101.167289 L69.0806967,118.275014 L0.649796402,96.040467 L6.20843323,78.9327419 L74.6393335,101.167289 Z M98.8610842,77.2858273 L84.3083841,87.8589829 L42.0157618,29.6481822 L56.568462,19.0750267 L98.8610842,77.2858273 Z M132.494063,72.2025066 L114.505937,72.2025066 L114.505937,0.25 L132.494063,0.25 L132.494063,72.2025066 Z M162.691616,87.8589829 L148.138916,77.2858273 L190.431538,19.0750267 L204.984238,29.6481822 L162.691616,87.8589829 Z M177.919303,118.275014 L172.360667,101.167289 L240.791567,78.9327419 L246.350204,96.040467 L177.919303,118.275014 Z M172.360667,151.832711 L177.919303,134.724986 L246.350204,156.959533 L240.791567,174.067258 L172.360667,151.832711 Z M148.138916,175.714173 L162.691616,165.141017 L204.984238,223.351818 L190.431538,233.924973 L148.138916,175.714173 Z" id="Rectangle-13" fill="#FFFFFF"></path>
                        <path d="M123,159 C105.326888,159 91,144.673112 91,127 C91,109.326888 105.326888,95 123,95 C140.673112,95 155,109.326888 155,127 C155,144.673112 140.673112,159 123,159 Z M123,142 C131.284271,142 138,135.284271 138,127 C138,118.715729 131.284271,112 123,112 C114.715729,112 108,118.715729 108,127 C108,135.284271 114.715729,142 123,142 Z" id="Combined-Shape" fill="#FFDD00"></path>
                    </g>
                </g>
            </g>
        </g>
    </g>
</svg>