<?xml version="1.0" encoding="UTF-8"?>
<svg width="204px" height="133px" viewBox="0 0 204 133" version="1.1" xmlns="http://www.w3.org/2000/svg" xmlns:xlink="http://www.w3.org/1999/xlink">
    <!-- Generator: Sketch 48.2 (47327) - http://www.bohemiancoding.com/sketch -->
    <title>bubble-3</title>
    <desc>Created with Sketch.</desc>
    <defs></defs>
    <g id="Landing-02" stroke="none" stroke-width="1" fill="none" fill-rule="evenodd" transform="translate(-368.000000, -1129.000000)">
        <g id="Group-36" transform="translate(368.000000, 1129.000000)" fill="#E3F4EE">
            <path d="M23.4183686,79.9232136 C21.4891675,74.9355986 20.4455592,69.6066706 20.4455592,64.0706696 C20.4455592,36.0479126 47.1858979,13.3309796 80.1717774,13.3309796 C80.4843789,13.3309796 80.7964196,13.3330198 81.1078819,13.3370854 C93.8362252,5.37431419 109.518132,0.675298455 126.479892,0.675298455 C169.042073,0.675298455 203.545538,30.2631103 203.545538,66.7615259 C203.545538,103.259941 169.042073,132.847753 126.479892,132.847753 C105.780937,132.847753 86.9879474,125.849947 73.1425996,114.462668 C59.4987018,113.10377 47.2606671,107.83812 38.0202328,100.017958 C27.9815449,101.712663 10.8234084,92.6782735 -7.10542736e-15,80.2273663 C7.14063248,86.4659217 14.9467553,86.3645375 23.4183686,79.9232136 Z" id="bubble-3" transform="translate(101.772769, 66.761526) scale(-1, 1) translate(-101.772769, -66.761526) "></path>
        </g>
    </g>
</svg>