<?xml version="1.0" encoding="UTF-8"?>
<svg width="181px" height="138px" viewBox="0 0 181 138" version="1.1" xmlns="http://www.w3.org/2000/svg" xmlns:xlink="http://www.w3.org/1999/xlink">
    <!-- Generator: Sketch 48.2 (47327) - http://www.bohemiancoding.com/sketch -->
    <title>bubble-1b</title>
    <desc>Created with Sketch.</desc>
    <defs>
        <path d="M52.8837012,129.093711 C44.2284209,134.245461 31.4814471,137.731433 19.517554,137.731433 C28.7439116,136.458183 34.0101726,130.939397 35.316337,121.175075 C13.8382056,108.815752 0,89.4127599 0,67.595679 C0,30.2636163 40.5182301,0 90.5,0 C140.48177,0 181,30.2636163 181,67.595679 C181,104.927742 140.48177,135.191358 90.5,135.191358 C77.0783931,135.191358 64.3391867,133.009098 52.8837012,129.093711 Z" id="path-1"></path>
    </defs>
    <g id="New" stroke="none" stroke-width="1" fill="none" fill-rule="evenodd">
        <g id="bubble-1b" transform="translate(90.500000, 68.865717) scale(-1, 1) translate(-90.500000, -68.865717) ">
            <use fill="#E3F4EE" fill-rule="evenodd" xlink:href="#path-1"></use>
            <path stroke-opacity="0.203323143" stroke="#278D3A" stroke-width="2" d="M27.3477445,136.251494 C36.489573,135.157001 45.6146533,132.256619 52.3722322,128.234409 L52.769574,127.997905 L53.207123,128.147456 C64.8047961,132.111441 77.4541239,134.191358 90.5,134.191358 C139.982316,134.191358 180,104.301607 180,67.595679 C180,30.8897513 139.982316,1 90.5,1 C41.0176835,1 1,30.8897513 1,67.595679 C1,88.4543706 13.9988348,107.754438 35.8150931,120.308333 L36.3964382,120.642861 L36.3075082,121.307663 C35.3576358,128.4085 32.3518335,133.414119 27.3477445,136.251494 Z"></path>
        </g>
    </g>
</svg>