<?xml version="1.0" encoding="UTF-8"?>
<svg width="162px" height="115px" viewBox="0 0 162 115" version="1.1" xmlns="http://www.w3.org/2000/svg" xmlns:xlink="http://www.w3.org/1999/xlink">
    <!-- Generator: Sketch 48.2 (47327) - http://www.bohemiancoding.com/sketch -->
    <title>bubble-2b</title>
    <desc>Created with Sketch.</desc>
    <defs>
        <path d="M54.0725695,101.057542 C47.8928836,108.501885 32.0325628,114.273438 17.46875,114.273438 C27.4870123,112.890904 32.2886021,105.915685 31.8735194,93.3477825 C12.4992283,83.8463899 0,68.8602706 0,52 C0,23.281193 36.2649353,0 81,0 C125.735065,0 162,23.281193 162,52 C162,80.718807 125.735065,104 81,104 C71.5599553,104 62.4970848,102.96329 54.0725695,101.057542 Z" id="path-1"></path>
    </defs>
    <g id="New" stroke="none" stroke-width="1" fill="none" fill-rule="evenodd">
        <g id="bubble-2b">
            <use fill="#E3F4EE" fill-rule="evenodd" xlink:href="#path-1"></use>
            <path stroke-opacity="0.203323143" stroke="#278D3A" stroke-width="2" d="M24.9730349,112.781884 C36.8565226,111.260678 48.3611224,106.3722 53.3031331,100.418819 L53.694926,99.9468467 L54.2932091,100.082187 C62.7949637,102.005407 71.7907363,103 81,103 C125.250966,103 161,80.0500025 161,52 C161,23.9499975 125.250966,1 81,1 C36.7490345,1 1,23.9499975 1,52 C1,67.9882253 12.6858624,82.8241383 32.3138332,92.4499385 L32.8531466,92.7144245 L32.8729745,93.3147732 C33.1874856,102.837564 30.5396067,109.377558 24.9730349,112.781884 Z"></path>
        </g>
    </g>
</svg>