<?xml version="1.0" encoding="UTF-8"?>
<svg width="176px" height="121px" viewBox="0 0 176 121" version="1.1" xmlns="http://www.w3.org/2000/svg" xmlns:xlink="http://www.w3.org/1999/xlink">
    <!-- Generator: Sketch 48.2 (47327) - http://www.bohemiancoding.com/sketch -->
    <title>bubble-4b</title>
    <desc>Created with Sketch.</desc>
    <defs>
        <path d="M25.6055064,83.1013466 C17.6799473,83.7592706 8.69003919,83.1339471 0.461323667,81.0822979 C10.8207611,82.3465571 17.4959544,77.7556703 20.4869034,67.3096375 C20.1652092,65.0743184 20,62.8021758 20,60.5 C20,27.0867726 54.8012027,0 97.7306618,0 C140.660121,0 175.461324,27.0867726 175.461324,60.5 C175.461324,93.9132274 140.660121,121 97.7306618,121 C65.0670283,121 37.1090007,105.31894 25.6055064,83.1013466 Z" id="path-1"></path>
    </defs>
    <g id="New" stroke="none" stroke-width="1" fill="none" fill-rule="evenodd">
        <g id="bubble-4b">
            <use fill="#E3F4EE" fill-rule="evenodd" xlink:href="#path-1"></use>
            <path stroke-opacity="0.203323143" stroke="#278D3A" stroke-width="2" d="M8.86698497,81.6537175 C14.4350285,82.3927033 20.1625519,82.5497426 25.522778,82.1047745 L26.1870556,82.0496308 L26.4935342,82.6415568 C38.0702291,105.000528 66.0882003,120 97.7306618,120 C140.154921,120 174.461324,93.2983443 174.461324,60.5 C174.461324,27.7016557 140.154921,1 97.7306618,1 C55.3064028,1 21,27.7016557 21,60.5 C21,62.7401003 21.1597364,64.9647012 21.4767059,67.1671909 L21.5072011,67.3790892 L21.4482724,67.5849005 C19.2335764,75.3198324 15.0067837,80.0353754 8.86698497,81.6537175 Z"></path>
        </g>
    </g>
</svg>