<?xml version="1.0" encoding="UTF-8"?>
<svg width="204px" height="133px" viewBox="0 0 204 133" version="1.1" xmlns="http://www.w3.org/2000/svg" xmlns:xlink="http://www.w3.org/1999/xlink">
    <!-- Generator: Sketch 48.2 (47327) - http://www.bohemiancoding.com/sketch -->
    <title>bubble-3b</title>
    <desc>Created with Sketch.</desc>
    <defs>
        <path d="M23.4183686,79.9232136 C21.4891675,74.9355986 20.4455592,69.6066706 20.4455592,64.0706696 C20.4455592,36.0479126 47.1858979,13.3309796 80.1717774,13.3309796 C80.4843789,13.3309796 80.7964196,13.3330198 81.1078819,13.3370854 C93.8362252,5.37431419 109.518132,0.675298455 126.479892,0.675298455 C169.042073,0.675298455 203.545538,30.2631103 203.545538,66.7615259 C203.545538,103.259941 169.042073,132.847753 126.479892,132.847753 C105.780937,132.847753 86.9879474,125.849947 73.1425996,114.462668 C59.4987018,113.10377 47.2606671,107.83812 38.0202328,100.017958 C27.9815449,101.712663 10.8234084,92.6782735 -7.10542736e-15,80.2273663 C7.14063248,86.4659217 14.9467553,86.3645375 23.4183686,79.9232136 Z" id="path-1"></path>
    </defs>
    <g id="New" stroke="none" stroke-width="1" fill="none" fill-rule="evenodd">
        <g id="bubble-3b" transform="translate(101.772769, 66.761526) scale(-1, 1) translate(-101.772769, -66.761526) ">
            <use fill="#E3F4EE" fill-rule="evenodd" xlink:href="#path-1"></use>
            <path stroke-opacity="0.203323143" stroke="#278D3A" stroke-width="2" d="M6.14275657,85.0314204 C16.5014711,94.3398015 29.7649584,100.397442 37.8537708,99.0319102 L38.3117232,98.9545998 L38.6662392,99.254626 C47.9507717,107.112108 60.0695497,112.155678 73.2417067,113.467591 L73.5435434,113.497653 L73.7778157,113.690333 C87.8511412,125.265115 106.55695,131.847753 126.479892,131.847753 C168.520981,131.847753 202.545538,102.670621 202.545538,66.7615259 C202.545538,30.8524312 168.520981,1.67529846 126.479892,1.67529846 C110.126568,1.67529846 94.5582552,6.10217924 81.6382427,14.1848574 L81.3889091,14.3408389 L81.0948297,14.3370002 C80.7874362,14.3329877 80.4797464,14.3309796 80.1717774,14.3309796 C47.705316,14.3309796 21.4455592,36.63964 21.4455592,64.0706696 C21.4455592,69.394926 22.433488,74.6049883 24.3510303,79.5624616 L24.6223789,80.2639863 L24.0236244,80.7192446 C17.7748175,85.4704753 11.7771189,86.9153547 6.14275657,85.0314204 Z"></path>
        </g>
    </g>
</svg>