<?xml version="1.0" encoding="UTF-8"?>
<svg width="16px" height="16px" viewBox="0 0 16 16" version="1.1" xmlns="http://www.w3.org/2000/svg" xmlns:xlink="http://www.w3.org/1999/xlink">
    <!-- Generator: Sketch 48.2 (47327) - http://www.bohemiancoding.com/sketch -->
    <title>case_2-coin-3</title>
    <desc>Created with Sketch.</desc>
    <defs></defs>
    <g id="New" stroke="none" stroke-width="1" fill="none" fill-rule="evenodd">
        <g id="case_2-coin-3" transform="translate(1.000000, 1.000000)">
            <path d="M12.6614771,2.8841307 C14.9345702,6.0108039 14.242723,10.3886465 11.1160739,12.6617571 C7.98859126,14.9348677 3.61161595,14.2421816 1.33852289,11.1155084 C-0.934570177,7.98883523 -0.242723003,3.61099262 2.88392609,1.33788203 C6.01140874,-0.934395004 10.388384,-0.242542497 12.6614771,2.8841307" id="Fill-13" fill="#40B856"></path>
            <path d="M12.6614771,2.8841307 C14.9345702,6.0108039 14.242723,10.3886465 11.1160739,12.6617571 C7.98859126,14.9348677 3.61161595,14.2421816 1.33852289,11.1155084 C-0.934570177,7.98883523 -0.242723003,3.61099262 2.88392609,1.33788203 C6.01140874,-0.934395004 10.388384,-0.242542497 12.6614771,2.8841307 Z" id="Stroke-15" stroke="#278D3A" stroke-width="2" stroke-linecap="round"></path>
            <path d="M6.82068047,10.3114982 C6.92747306,9.75816233 7.02070469,9.24453151 7.10122291,8.77314007 C7.18004601,8.30259341 7.23344231,7.87513092 7.26056423,7.49244217 C7.2868386,7.10975342 7.28175324,6.77521755 7.24446059,6.48883458 C7.2080155,6.20245161 7.12156435,5.9659111 6.98595472,5.78005784 C6.79779634,5.52324243 6.59014409,5.37455983 6.36045526,5.33738918 C6.131614,5.29768416 5.90192517,5.3627328 5.67138879,5.53000073 C5.47899261,5.66854589 5.34846834,5.84426169 5.27727328,6.05883773 C5.20692578,6.27256897 5.15776728,6.49812724 5.13064536,6.73551254 L4,6.56486546 C4.05848166,6.10445625 4.17120717,5.70740611 4.33817653,5.37371504 C4.5051459,5.03917918 4.77467006,4.73674524 5.14759656,4.46641323 C5.40525487,4.27971519 5.66884611,4.15046269 5.93837026,4.07612139 C6.20704686,4.00262488 6.47063809,3.98234997 6.72999152,4.01529669 C6.98934496,4.04993298 7.23428987,4.13779088 7.46397869,4.28055997 C7.69366751,4.42332907 7.89962465,4.62016456 8.08354522,4.87191125 C8.24288655,5.09071122 8.3590023,5.34668184 8.43104492,5.6406679 C8.50308754,5.93549875 8.54377043,6.25313886 8.55309359,6.59358824 C8.56241676,6.93319282 8.54970335,7.28884837 8.51495338,7.66139968 C8.48020341,8.03310619 8.43528272,8.40650228 8.38103887,8.77905358 C8.50139242,8.66754163 8.63700206,8.54589222 8.78786778,8.41579494 C8.94042862,8.28400809 9.0794285,8.17334092 9.20571498,8.08125908 L10.2583848,7.31926072 L11,8.33638491 L7.32328369,11 L6.82068047,10.3114982 Z" id="Fill-17" fill="#FFFFFF"></path>
        </g>
    </g>
</svg>