<?xml version="1.0" encoding="UTF-8"?>
<svg width="140px" height="42px" viewBox="0 0 139 41" version="1.1" xmlns="http://www.w3.org/2000/svg" xmlns:xlink="http://www.w3.org/1999/xlink">
    <!-- Generator: Sketch 48.2 (47327) - http://www.bohemiancoding.com/sketch -->
    <title>case_3-hand-back</title>
    <desc>Created with Sketch.</desc>
    <defs></defs>
    <g id="New" stroke="none" stroke-width="1" fill="none" fill-rule="evenodd">
        <g id="case_3-hand-back" transform="translate(69.000000, 21.000000) scale(-1, 1) translate(-69.000000, -21.000000) translate(0.000000, 1.000000)">
            <g id="Group-22" transform="translate(0.000000, 0.079100)">
                <g id="Group-25">
                    <path d="M32.0448,9.6647 C28.2358,9.6647 25.1478,6.5767 25.1478,2.7687 C25.1478,1.4717 26.1988,0.4207 27.4958,0.4207 L40.9168,0.4207 L45.1658,0.4207 C46.7788,0.4207 48.3178,1.0967 49.4078,2.2847 L59.3898,13.1537 L69.3898,13.1537 L69.3898,32.5097 L60.3898,32.5097 C59.0448,35.7937 55.8478,37.9397 52.2988,37.9397 L51.3898,37.9397 L36.7508,37.9397 L19.3548,37.9397" id="Fill-7" fill="#E3F4EE"></path>
                    <path d="M32.0448,9.6647 C28.2358,9.6647 25.1478,6.5767 25.1478,2.7687 C25.1478,1.4717 26.1988,0.4207 27.4958,0.4207 L40.9168,0.4207 L45.1658,0.4207 C46.7788,0.4207 48.3178,1.0967 49.4078,2.2847 L59.3898,13.1537 L69.3898,13.1537 L69.3898,32.5097 L60.3898,32.5097 C59.0448,35.7937 55.8478,37.9397 52.2988,37.9397 L51.3898,37.9397 L36.7508,37.9397 L19.3548,37.9397" id="Stroke-8" stroke="#278D3A" stroke-width="2" stroke-linecap="round"></path>
                    <path d="M31.2301,16.8661 L9.0341,16.8661 C7.0821,16.8661 5.5001,15.2841 5.5001,13.3321 L5.5001,13.3311 C5.5001,11.3801 7.0821,9.7971 9.0341,9.7971 L37.2301,9.7971 L38.1461,12.0231 C40.9521,18.8431 46.8291,23.9261 53.9821,25.7201" id="Fill-10" fill="#E3F4EE"></path>
                    <path d="M31.2301,16.8661 L9.0341,16.8661 C7.0821,16.8661 5.5001,15.2841 5.5001,13.3321 L5.5001,13.3311 C5.5001,11.3801 7.0821,9.7971 9.0341,9.7971 L37.2301,9.7971 L38.1461,12.0231 C40.9521,18.8431 46.8291,23.9261 53.9821,25.7201" id="Stroke-11" stroke="#278D3A" stroke-width="2" stroke-linecap="round"></path>
                    <path d="M31.2301,31.0036 L9.0341,31.0036 C7.0821,31.0036 5.5001,29.4216 5.5001,27.4696 C5.5001,25.5176 7.0821,23.9346 9.0341,23.9346 L31.2301,23.9346" id="Fill-13" fill="#E3F4EE"></path>
                    <path d="M31.2301,31.0036 L9.0341,31.0036 C7.0821,31.0036 5.5001,29.4216 5.5001,27.4696 C5.5001,25.5176 7.0821,23.9346 9.0341,23.9346 L31.2301,23.9346" id="Stroke-14" stroke="#278D3A" stroke-width="2" stroke-linecap="round"></path>
                    <path d="M37.2301,38.0724 L18.0341,38.0724 C16.0821,38.0724 14.5001,36.4904 14.5001,34.5384 C14.5001,32.5864 16.0821,31.0034 18.0341,31.0034 L31.2301,31.0034" id="Fill-16" fill="#E3F4EE"></path>
                    <path d="M37.2301,38.0724 L18.0341,38.0724 C16.0821,38.0724 14.5001,36.4904 14.5001,34.5384 C14.5001,32.5864 16.0821,31.0034 18.0341,31.0034 L31.2301,31.0034" id="Stroke-17" stroke="#278D3A" stroke-width="2" stroke-linecap="round"></path>
                    <path d="M31.2301,23.9348 L4.0341,23.9348 C2.0821,23.9348 0.5001,22.3528 0.5001,20.4008 C0.5001,18.4488 2.0821,16.8658 4.0341,16.8658 L31.2301,16.8658" id="Fill-19" fill="#E3F4EE"></path>
                    <path d="M31.2301,23.9348 L4.0341,23.9348 C2.0821,23.9348 0.5001,22.3528 0.5001,20.4008 C0.5001,18.4488 2.0821,16.8658 4.0341,16.8658 L31.2301,16.8658" id="Stroke-20" stroke="#278D3A" stroke-width="2" stroke-linecap="round"></path>
                </g>
                <polygon id="Fill-1" fill="#40B856" points="69.3899 10.9399 69.3899 34.4219 137.2099 34.4219 137.2359 10.9399"></polygon>
                <polyline id="Stroke-2" stroke="#278D3A" stroke-width="2" points="137.2367 10.9399 69.3897 10.9399 69.3897 34.4219 137.2107 34.4219"></polyline>
                <polygon id="Fill-4" fill="#FFFFFF" points="69.39 38.5 83.086 38.5 83.086 10.94 69.39 10.94"></polygon>
                <polygon id="Stroke-5" stroke="#278D3A" stroke-width="2" points="69.39 38.5 83.086 38.5 83.086 10.94 69.39 10.94"></polygon>
            </g>
        </g>
    </g>
</svg>
