<?xml version="1.0" encoding="UTF-8"?>
<svg width="145px" height="140px" viewBox="0 0 145 140" version="1.1" xmlns="http://www.w3.org/2000/svg" xmlns:xlink="http://www.w3.org/1999/xlink">
    <!-- Generator: Sketch 48.2 (47327) - http://www.bohemiancoding.com/sketch -->
    <title>case_2-hand</title>
    <desc>Created with Sketch.</desc>
    <defs></defs>
    <g id="New" stroke="none" stroke-width="1" fill="none" fill-rule="evenodd">
        <g id="case_2-hand" transform="translate(1.000000, 1.000000)">
            <polyline id="Stroke-2" stroke="#278D3A" stroke-width="2" fill="#40B856" points="21.1869554 0 87 64.2822426 65.7888749 85 0 20.7413649"></polyline>
            <g id="Group-28" transform="translate(50.000000, 51.000000)">
                <g id="Group-11" transform="translate(16.066318, 15.357143)">
                    <path d="M54.3780616,30.3296779 C57.8159249,33.7294571 63.388732,33.7294571 66.8265952,30.3296779 C67.9966981,29.1725372 67.9966981,27.296797 66.8265952,26.1396563 L54.7139448,14.1611877 L50.8787296,10.3684582 C49.4232358,8.9290881 47.4244015,8.15947013 45.368489,8.24630996 L26.5502491,9.03763788 L17.5253092,0.112674675 L0.0560902976,17.3883727 L8.1787557,25.4199712 C6.42799201,29.5524615 7.37746573,34.3210535 10.5804303,37.4885361 L11.4003804,38.299403 L24.6117859,51.3655405 L40.311581,66.891416" id="Fill-8" fill="#E3F4EE"></path>
                    <path d="M54.3780616,30.3296779 C57.8159249,33.7294571 63.388732,33.7294571 66.8265952,30.3296779 C67.9966981,29.1725372 67.9966981,27.296797 66.8265952,26.1396563 L54.7139448,14.1611877 L50.8787296,10.3684582 C49.4232358,8.9290881 47.4244015,8.15947013 45.368489,8.24630996 L26.5502491,9.03763788 L17.5253092,0.112674675 L0.0560902976,17.3883727 L8.1787557,25.4199712 C6.42799201,29.5524615 7.37746573,34.3210535 10.5804303,37.4885361 L11.4003804,38.299403 L24.6117859,51.3655405 L40.311581,66.891416" id="Stroke-10" stroke="#278D3A" stroke-width="2" stroke-linecap="round"></path>
                </g>
                <g id="Group-15" transform="translate(35.824153, 40.238095)">
                    <path d="M28.9757428,12.484814 L49.0079919,32.2951495 C50.7697322,34.0373735 53.625837,34.036288 55.3875772,32.2951495 C57.1493175,30.5529254 57.1493175,27.7273746 55.3875772,25.986236 L29.9405837,0.821139719 L27.1053344,1.99022089 C18.4173754,5.57236374 8.52638382,4.86353366 0.452015353,0.0808301948 L0.450917695,0.0808301948" id="Fill-12" fill="#E3F4EE"></path>
                    <path d="M28.9757428,12.484814 L49.0079919,32.2951495 C50.7697322,34.0373735 53.625837,34.036288 55.3875772,32.2951495 C57.1493175,30.5529254 57.1493175,27.7273746 55.3875772,25.986236 L29.9405837,0.821139719 L27.1053344,1.99022089 C18.4173754,5.57236374 8.52638382,4.86353366 0.452015353,0.0808301948 L0.450917695,0.0808301948" id="Stroke-14" stroke="#278D3A" stroke-width="2" stroke-linecap="round"></path>
                </g>
                <g id="Group-19" transform="translate(51.191358, 58.777056)">
                    <path d="M0.849367363,6.56367976 L20.8816165,26.3740153 C22.6433568,28.1162393 25.4994615,28.1162393 27.2612018,26.3740153 C29.0229421,24.6317912 29.0229421,21.8073259 27.2612018,20.0651018 L7.22895267,0.254766342" id="Fill-16" fill="#E3F4EE"></path>
                    <path d="M0.849367363,6.56367976 L20.8816165,26.3740153 C22.6433568,28.1162393 25.4994615,28.1162393 27.2612018,26.3740153 C29.0229421,24.6317912 29.0229421,21.8073259 27.2612018,20.0651018 L7.22895267,0.254766342" id="Stroke-18" stroke="#278D3A" stroke-width="2" stroke-linecap="round"></path>
                </g>
                <g id="Group-23" transform="translate(40.214783, 65.290043)">
                    <path d="M0.0312832384,1.00462825 L17.3556113,18.1370406 C19.1173516,19.8792646 21.9734564,19.8792646 23.7351967,18.1370406 C25.4969369,16.3948166 25.4969369,13.5703512 23.7351967,11.8281272 L11.8256129,0.0504756494" id="Fill-20" fill="#E3F4EE"></path>
                    <path d="M0.0312832384,1.00462825 L17.3556113,18.1370406 C19.1173516,19.8792646 21.9734564,19.8792646 23.7351967,18.1370406 C25.4969369,16.3948166 25.4969369,13.5703512 23.7351967,11.8281272 L11.8256129,0.0504756494" id="Stroke-22" stroke="#278D3A" stroke-width="2" stroke-linecap="round"></path>
                </g>
                <g id="Group-27" transform="translate(57.777303, 52.264069)">
                    <path d="M0.643007756,6.76775335 L25.1877268,31.0405705 C26.9494671,32.7827945 29.8055719,32.7827945 31.5673121,31.0405705 C33.3290524,29.2983464 33.3290524,26.4738811 31.5673121,24.731657 L7.02259307,0.458839935" id="Fill-24" fill="#E3F4EE"></path>
                    <path d="M0.643007756,6.76775335 L25.1877268,31.0405705 C26.9494671,32.7827945 29.8055719,32.7827945 31.5673121,31.0405705 C33.3290524,29.2983464 33.3290524,26.4738811 31.5673121,24.731657 L7.02259307,0.458839935" id="Stroke-26" stroke="#278D3A" stroke-width="2" stroke-linecap="round"></path>
                </g>
                <g id="Group-16">
                    <polygon id="Fill-4" fill="#FFFFFF" points="0 24.3351148 25.2221413 0 37.7564103 12.0934566 12.5342689 36.4285714"></polygon>
                    <polygon id="Stroke-5" stroke="#278D3A" stroke-width="2" points="0 24.3351148 25.2221413 0 37.7564103 12.0934566 12.5342689 36.4285714"></polygon>
                    <path d="M7.30485043,28.2305256 C6.10401314,27.042991 6.10401314,25.1184034 7.30485043,23.9319542 C8.50568772,22.7444196 10.4507368,22.7444196 11.6515741,23.9319542 C12.8524114,25.1194889 12.8524114,27.042991 11.6515741,28.2305256 C10.4507368,29.4169748 8.50568772,29.4180603 7.30485043,28.2305256" id="Fill-6" fill="#278D3A"></path>
                </g>
            </g>
        </g>
    </g>
</svg>