<?xml version="1.0" encoding="UTF-8"?>
<svg width="56px" height="68px" viewBox="0 0 55 68" version="1.1" xmlns="http://www.w3.org/2000/svg" xmlns:xlink="http://www.w3.org/1999/xlink">
    <!-- Generator: Sketch 48.2 (47327) - http://www.bohemiancoding.com/sketch -->
    <title>case_1-tree_2</title>
    <desc>Created with Sketch.</desc>
    <defs></defs>
    <g id="New" stroke="none" stroke-width="1" fill="none" fill-rule="evenodd">
        <g id="case_1-tree_2" transform="translate(1.000000, 2.000000)">
            <path d="M24.5822785,58.2267969 L26.4976286,53.7933849 C30.703613,44.0557264 39.8256628,37.5292701 50.1693322,36.8561342 L52.4303797,36.7088608 C48.9640631,49.4736296 37.6269031,58.2820244 24.7356622,58.2275973 L24.5822785,58.2267969 Z" id="Fill-1" fill="#AFE877"></path>
            <path d="M24.5822785,58.2267969 L26.4976286,53.7933849 C30.703613,44.0557264 39.8256628,37.5292701 50.1693322,36.8561342 L52.4303797,36.7088608 C48.9640631,49.4736296 37.6269031,58.2820244 24.7356622,58.2275973 L24.5822785,58.2267969 Z" id="Stroke-3" stroke="#278D3A" stroke-width="2" stroke-linecap="round"></path>
            <path d="M23.6697931,17.721519 L23.4043554,15.1353204 C22.8218469,9.45668533 25.1664253,3.89285066 29.489787,0.698369276 L30.4344543,0 C32.0874402,6.87367568 29.345069,14.1108861 23.7366979,17.6792661 L23.6697931,17.721519 Z" id="Fill-5" fill="#AFE877"></path>
            <path d="M23.6697931,17.721519 L23.4043554,15.1353204 C22.8218469,9.45668533 25.1664253,3.89285066 29.489787,0.698369276 L30.4344543,0 C32.0874402,6.87367568 29.345069,14.1108861 23.7366979,17.6792661 L23.6697931,17.721519 Z" id="Stroke-7" stroke="#278D3A" stroke-width="2" stroke-linecap="round"></path>
            <path d="M22.0506329,50.6329114 L18.6737779,40.7698931 C16.8026531,35.3065047 12.6333486,30.9998852 7.32294721,29.0474469 L0.61871772,26.5822785 C-0.326740782,37.2190814 6.51984035,46.9398484 16.6542116,49.3495232 L22.0506329,50.6329114 Z" id="Fill-9" fill="#AFE877"></path>
            <path d="M22.0506329,50.6329114 L18.6737779,40.7698931 C16.8026531,35.3065047 12.6333486,30.9998852 7.32294721,29.0474469 L0.61871772,26.5822785 C-0.326740782,37.2190814 6.51984035,46.9398484 16.6542116,49.3495232 L22.0506329,50.6329114 Z" id="Stroke-11" stroke="#278D3A" stroke-width="2" stroke-linecap="round"></path>
            <path d="M43.5696203,17.721519 L36.0392461,21.9767798 C31.8684691,24.3340504 28.9699472,28.4675742 28.1493896,33.2287549 L27.1139241,39.2405063 C35.8977976,38.5243135 42.8107999,31.3600132 43.3062603,22.4605657 L43.5696203,17.721519 Z" id="Fill-13" fill="#AFE877"></path>
            <path d="M43.5696203,17.721519 L36.0392461,21.9767798 C31.8684691,24.3340504 28.9699472,28.4675742 28.1493896,33.2287549 L27.1139241,39.2405063 C35.8977976,38.5243135 42.8107999,31.3600132 43.3062603,22.4605657 L43.5696203,17.721519 Z" id="Stroke-15" stroke="#278D3A" stroke-width="2" stroke-linecap="round"></path>
            <path d="M11.9240506,13.9240506 L13.5706758,19.0002499 C14.4825551,21.8122722 16.6875872,24.0854549 19.5733515,25.1894006 L23.2161027,26.5822785 C23.9699123,21.2051395 20.4073874,16.1274393 14.8717719,14.6895331 L11.9240506,13.9240506 Z" id="Fill-17" fill="#AFE877"></path>
            <path d="M11.9240506,13.9240506 L13.5706758,19.0002499 C14.4825551,21.8122722 16.6875872,24.0854549 19.5733515,25.1894006 L23.2161027,26.5822785 C23.9699123,21.2051395 20.4073874,16.1274393 14.8717719,14.6895331 L11.9240506,13.9240506 Z" id="Stroke-19" stroke="#278D3A" stroke-width="2" stroke-linecap="round"></path>
            <polyline id="Stroke-21" stroke="#278D3A" stroke-width="2" stroke-linecap="round" points="23.7393589 17.721519 22.0506329 26.5066904 25.8481013 38.7586352 23.0941789 57.9912674 23.0941789 64.556962"></polyline>
        </g>
    </g>
</svg>
