<?xml version="1.0" encoding="UTF-8"?>
<svg width="152px" height="46px" viewBox="0 0 151 45" version="1.1" xmlns="http://www.w3.org/2000/svg" xmlns:xlink="http://www.w3.org/1999/xlink">
    <!-- Generator: Sketch 48.2 (47327) - http://www.bohemiancoding.com/sketch -->
    <title>case_3-hand-front</title>
    <desc>Created with Sketch.</desc>
    <defs>
        <polygon id="path-1" points="0 45.3405 150.153 45.3405 150.153 0.0005 0 0.0005"></polygon>
    </defs>
    <g id="New" stroke="none" stroke-width="1" fill="none" fill-rule="evenodd">
        <g id="case_3-hand-front" transform="translate(75.500000, 23.000000) scale(-1, 1) translate(-75.500000, -23.000000) ">
            <path d="M31.6551,28.3103 C33.1011,28.3103 34.2731,27.1383 34.2731,25.6923 C34.2731,24.2463 33.1011,23.0743 31.6551,23.0743 C30.2091,23.0743 29.0371,24.2463 29.0371,25.6923 C29.0371,27.1383 30.2091,28.3103 31.6551,28.3103" id="Fill-1" fill="#D65B43"></path>
            <g id="Group-6" transform="translate(76.000000, 13.340500)">
                <polyline id="Fill-3" fill="#40B856" points="74.1526 0.5381 0.3936 0.5381 0.3936 26.0661 74.1236 26.0661"></polyline>
                <polyline id="Stroke-5" stroke="#278D3A" stroke-width="2" points="74.1526 0.5381 0.3936 0.5381 0.3936 26.0661 74.1236 26.0661"></polyline>
            </g>
            <mask id="mask-2" fill="white">
                <use xlink:href="#path-1"></use>
            </mask>
            <g id="Clip-8"></g>
            <polygon id="Fill-7" fill="#FFFFFF" mask="url(#mask-2)" points="76.394 43.8405 91.283 43.8405 91.283 13.8785 76.394 13.8785"></polygon>
            <polygon id="Stroke-9" stroke="#278D3A" stroke-width="2" mask="url(#mask-2)" points="76.394 43.8405 91.283 43.8405 91.283 13.8785 76.394 13.8785"></polygon>
            <path d="M35.7937,11.5494 C31.6527,11.5494 28.2967,8.1924 28.2967,4.0514 C28.2967,2.6424 29.4387,1.5004 30.8477,1.5004 L45.4387,1.5004 L50.0587,1.5004 C51.8117,1.5004 53.4847,2.2354 54.6707,3.5264 L65.5217,15.3424 L76.3937,15.3424 L76.3937,36.3844 L66.6087,36.3844 C65.1467,39.9554 61.6717,42.2884 57.8127,42.2884 L56.8247,42.2884 L40.9107,42.2884 L21.9987,42.2884" id="Fill-10" fill="#E3F4EE" mask="url(#mask-2)"></path>
            <path d="M35.7937,11.5494 C31.6527,11.5494 28.2967,8.1924 28.2967,4.0514 C28.2967,2.6424 29.4387,1.5004 30.8477,1.5004 L45.4387,1.5004 L50.0587,1.5004 C51.8117,1.5004 53.4847,2.2354 54.6707,3.5264 L65.5217,15.3424 L76.3937,15.3424 L76.3937,36.3844 L66.6087,36.3844 C65.1467,39.9554 61.6717,42.2884 57.8127,42.2884 L56.8247,42.2884 L40.9107,42.2884 L21.9987,42.2884" id="Stroke-11" stroke="#278D3A" stroke-width="2" stroke-linecap="round" mask="url(#mask-2)"></path>
            <path d="M34.9081,19.2341 L10.7781,19.2341 C8.6561,19.2341 6.9361,17.5141 6.9361,15.3921 C6.9361,13.2691 8.6561,11.5491 10.7781,11.5491 L41.4311,11.5491" id="Fill-13" fill="#E3F4EE" mask="url(#mask-2)"></path>
            <path d="M34.9081,19.2341 L10.7781,19.2341 C8.6561,19.2341 6.9361,17.5141 6.9361,15.3921 C6.9361,13.2691 8.6561,11.5491 10.7781,11.5491 L41.4311,11.5491" id="Stroke-14" stroke="#278D3A" stroke-width="2" stroke-linecap="round" mask="url(#mask-2)"></path>
            <path d="M34.9081,34.6037 L10.7781,34.6037 C8.6561,34.6037 6.9361,32.8837 6.9361,30.7617 C6.9361,28.6397 8.6561,26.9187 10.7781,26.9187 L34.9081,26.9187" id="Fill-16" fill="#E3F4EE" mask="url(#mask-2)"></path>
            <path d="M34.9081,34.6037 L10.7781,34.6037 C8.6561,34.6037 6.9361,32.8837 6.9361,30.7617 C6.9361,28.6397 8.6561,26.9187 10.7781,26.9187 L34.9081,26.9187" id="Stroke-17" stroke="#278D3A" stroke-width="2" stroke-linecap="round" mask="url(#mask-2)"></path>
            <path d="M41.431,42.2885 L20.562,42.2885 C18.44,42.2885 16.72,40.5685 16.72,38.4465 C16.72,36.3245 18.44,34.6035 20.562,34.6035 L34.908,34.6035" id="Fill-19" fill="#E3F4EE" mask="url(#mask-2)"></path>
            <path d="M41.431,42.2885 L20.562,42.2885 C18.44,42.2885 16.72,40.5685 16.72,38.4465 C16.72,36.3245 18.44,34.6035 20.562,34.6035 L34.908,34.6035" id="Stroke-20" stroke="#278D3A" stroke-width="2" stroke-linecap="round" mask="url(#mask-2)"></path>
            <path d="M34.9081,26.9189 L5.3421,26.9189 C3.2201,26.9189 1.5001,25.1989 1.5001,23.0769 C1.5001,20.9539 3.2201,19.2339 5.3421,19.2339 L34.9081,19.2339" id="Fill-22" fill="#E3F4EE" mask="url(#mask-2)"></path>
            <path d="M34.9081,26.9189 L5.3421,26.9189 C3.2201,26.9189 1.5001,25.1989 1.5001,23.0769 C1.5001,20.9539 3.2201,19.2339 5.3421,19.2339 L34.9081,19.2339" id="Stroke-23" stroke="#278D3A" stroke-width="2" stroke-linecap="round" mask="url(#mask-2)"></path>
            <path d="M85.9948,37.2217 C85.9948,38.6677 84.8228,39.8397 83.3768,39.8397 C81.9308,39.8397 80.7588,38.6677 80.7588,37.2217 C80.7588,35.7757 81.9308,34.6037 83.3768,34.6037 C84.8228,34.6037 85.9948,35.7757 85.9948,37.2217" id="Fill-25" fill="#278D3A" mask="url(#mask-2)"></path>
        </g>
    </g>
</svg>
