<?xml version="1.0" encoding="UTF-8"?>
<svg width="44px" height="54px" viewBox="0 0 43 54" version="1.1" xmlns="http://www.w3.org/2000/svg" xmlns:xlink="http://www.w3.org/1999/xlink">
    <!-- Generator: Sketch 48.2 (47327) - http://www.bohemiancoding.com/sketch -->
    <title>case_1-tree_3</title>
    <desc>Created with Sketch.</desc>
    <defs></defs>
    <g id="New" stroke="none" stroke-width="1" fill="none" fill-rule="evenodd">
        <g id="case_1-tree_3">
            <path d="M41.9304134,52.2505862 L38.5229112,52.2505862 C34.5361979,48.8442504 28.6759706,46.83334 22.2773546,46.6650352 L22.2773546,41.5038037 L26.3043071,37.4768511 C27.0409761,37.6137811 27.7872092,37.6818961 28.5348418,37.6818961 C31.9796673,37.6818961 35.4411717,36.2574284 38.0161306,33.6824695 C41.2718901,30.4267099 42.6879601,25.7546471 41.7119554,21.4896418 C41.6370755,21.1624796 41.3815274,20.9069315 41.0543652,20.8320516 C36.7893598,19.8560469 32.117297,21.2722335 28.8615375,24.5278764 C25.7276619,27.6616353 24.2993452,32.1075421 25.0671558,36.2398165 L22.2773546,39.0296177 L22.2773546,22.89988 L24.9046828,20.2725517 C25.4123965,20.3592118 25.925942,20.4019004 26.4399541,20.4019004 C29.0061653,20.4019004 31.5832237,19.3421514 33.4994261,17.4258324 C35.9228757,15.0024995 36.976443,11.5223335 36.2489882,8.34355324 C36.1741083,8.01627441 35.9185602,7.76084297 35.591398,7.68596306 C32.4126178,6.95874157 28.9325684,8.01207554 26.5091188,10.4355251 C24.20697,12.737674 23.1422058,15.9930836 23.6648488,19.0380831 L22.2773546,20.4255773 L22.2773546,18.7337814 C22.2773546,16.0330895 21.2341679,13.4934711 19.3403594,11.5721368 C19.8603199,8.52900347 18.795439,5.27650971 16.4949231,2.97599379 C14.0714735,0.55254419 10.5916574,-0.500906419 7.4125273,0.226431712 C7.0853651,0.301311616 6.82981702,0.556859699 6.75493711,0.884021895 C6.02748235,4.06268547 7.08104959,7.54285147 9.50449919,9.96630107 C11.4209349,11.8827367 13.9976433,12.942369 16.5639712,12.942369 C17.0799661,12.942369 17.5957277,12.8992139 18.1055408,12.811854 C19.6672884,14.4024105 20.5277075,16.5017304 20.5277075,18.733898 L20.5277075,31.5648378 L17.7379062,28.7750365 C18.5057168,24.6428788 17.0772835,20.196972 13.9435245,17.0630964 C10.687765,13.8072202 6.01558554,12.3910337 1.75069682,13.3672716 C1.42353462,13.4421516 1.16798654,13.6976996 1.09310663,14.0248618 C0.117101906,18.2898672 1.53317186,22.96193 4.78893142,26.2176895 C7.36412362,28.7928817 10.8251614,30.2171162 14.2702202,30.2171162 C15.0176196,30.2171162 15.7640859,30.1488845 16.5007549,30.0119546 L20.5278241,34.0390238 L20.5278241,46.6649186 C14.129208,46.8332234 8.26898078,48.8441337 4.28226739,52.2504695 L0.874765231,52.2504695 C0.391661553,52.2504695 0,52.6421311 0,53.1252348 C0,53.6083384 0.391661553,54 0.874765231,54 L41.9304134,54 C42.4135171,54 42.8051786,53.6083384 42.8051786,53.1252348 C42.8051786,52.6421311 42.4135171,52.2505862 41.9304134,52.2505862 Z" id="Shape" fill="#278D3A" fill-rule="nonzero"></path>
            <path d="M30.0986888,25.764911 C32.7924992,23.0712173 36.5845481,21.8207696 40.116267,22.42774 C40.7234707,25.9598087 39.4729063,29.7515078 36.7790959,32.4453182 C34.3653271,34.8589704 31.0701447,36.1129172 27.8701369,35.9110214 L36.0368285,27.7443298 C36.3784534,27.4027048 36.3784534,26.8488035 36.0368285,26.5072951 C35.6952035,26.1656702 35.1413021,26.1656702 34.7997938,26.5072951 L26.6331022,34.6739867 C26.4310898,31.4737456 27.6850366,28.1785633 30.0986888,25.764911 Z M27.7462701,11.6727931 C29.6062543,9.81280893 32.2050068,8.92614689 34.6477013,9.28748325 C35.0088044,11.7299444 34.1224922,14.3288136 32.2623914,16.1889144 C30.6956286,17.7556772 28.6048231,18.6314922 26.5243981,18.6528364 L31.555931,13.6213035 C31.897556,13.2796785 31.897556,12.7257771 31.555931,12.3842688 C31.2143061,12.0426438 30.6604047,12.0426438 30.3188964,12.3842688 L25.2819982,17.421167 C25.3006598,15.3374762 26.1768247,13.2422385 27.7462701,11.6727931 Z M8.3564573,1.82783526 C10.7991517,1.46696545 13.3977876,2.35304431 15.2578884,4.21314509 C16.8246513,5.77990794 17.7004662,7.87094675 17.7218105,9.95113847 L12.6902775,4.91960549 C12.3486525,4.57798051 11.7947512,4.57798051 11.4532429,4.91960549 C11.1116179,5.26123048 11.1116179,5.81513182 11.4532429,6.15664017 L16.4901411,11.1935384 C14.4065669,11.1749933 12.3112126,10.2987119 10.7417671,8.72926639 C8.88166634,6.86916561 7.99535421,4.27029642 8.3564573,1.82783526 Z M6.02608272,24.9806549 C3.33227235,22.2868445 2.08182461,18.4951454 2.68891169,14.9630767 C6.22074715,14.355873 10.0126795,15.606554 12.7064898,18.3002477 C15.1201421,20.7139 16.3739722,24.0090823 16.1720764,27.2092068 L8.00538485,19.0425152 C7.66375987,18.7008902 7.10985853,18.7008902 6.76835018,19.0425152 C6.4267252,19.3841402 6.4267252,19.9380415 6.76835018,20.2795499 L14.9350417,28.4462414 C11.7351505,28.6482539 8.43985159,27.3943071 6.02608272,24.9806549 Z" id="Combined-Shape" fill="#AFE877"></path>
            <path d="M21.4025893,48.4016192 C26.7293264,48.4016192 31.8465864,49.8131403 35.5981629,52.2505862 L7.20701579,52.2505862 C10.9585923,49.8130237 16.0758522,48.4016192 21.4025893,48.4016192 Z" id="Path" fill="#40B856"></path>
        </g>
    </g>
</svg>
