<?xml version="1.0" encoding="UTF-8"?>
<svg width="16px" height="16px" viewBox="0 0 16 16" version="1.1" xmlns="http://www.w3.org/2000/svg" xmlns:xlink="http://www.w3.org/1999/xlink">
    <!-- Generator: Sketch 48.2 (47327) - http://www.bohemiancoding.com/sketch -->
    <title>case_2-coin-4</title>
    <desc>Created with Sketch.</desc>
    <defs></defs>
    <g id="New" stroke="none" stroke-width="1" fill="none" fill-rule="evenodd">
        <g id="case_2-coin-4" transform="translate(1.000000, 1.000000)">
            <path d="M12.942371,10.6981571 C10.9002394,13.9797376 6.58342331,14.9849664 3.30184287,12.9420013 C0.0202624283,10.8998697 -0.984966429,6.58388712 1.05799869,3.30147315 C3.10013028,0.0198927132 7.41611288,-0.984502621 10.6985268,1.05762897 C13.9801073,3.09976056 14.9845026,7.41657669 12.942371,10.6981571" id="Fill-25" fill="#40B856"></path>
            <path d="M12.942371,10.6981571 C10.9002394,13.9797376 6.58342331,14.9849664 3.30184287,12.9420013 C0.0202624283,10.8998697 -0.984966429,6.58388712 1.05799869,3.30147315 C3.10013028,0.0198927132 7.41611288,-0.984502621 10.6985268,1.05762897 C13.9801073,3.09976056 14.9845026,7.41657669 12.942371,10.6981571 Z" id="Stroke-27" stroke="#278D3A" stroke-width="2" stroke-linecap="round"></path>
            <path d="M3.65367965,7.82391827 L4.87099567,8.56009615 L6.88571429,5.41514423 L5.83636364,4.77992788 L6.33593074,4 C6.67705628,4.12788462 6.98095238,4.21538462 7.24329004,4.26418269 C7.50649351,4.31213942 7.77489177,4.3390625 8.04761905,4.34579327 L9,4.92127404 L6.16796537,9.34423077 L7.21818182,9.97944712 L6.56450216,11 L3,8.84447115 L3.65367965,7.82391827 Z" id="Fill-29" fill="#FFFFFF"></path>
        </g>
    </g>
</svg>