<?xml version="1.0" encoding="UTF-8"?>
<svg width="16px" height="16px" viewBox="0 0 16 16" version="1.1" xmlns="http://www.w3.org/2000/svg" xmlns:xlink="http://www.w3.org/1999/xlink">
    <!-- Generator: Sketch 48.2 (47327) - http://www.bohemiancoding.com/sketch -->
    <title>case_2-coin-2</title>
    <desc>Created with Sketch.</desc>
    <defs></defs>
    <g id="New" stroke="none" stroke-width="1" fill="none" fill-rule="evenodd">
        <g id="case_2-coin-2" transform="translate(1.000000, 1.000000)">
            <path d="M10.0016281,13.3220464 C6.51035499,14.9797552 2.33566246,13.4929012 0.677953643,10.0016281 C-0.979755171,6.51035499 0.507098787,2.33566246 3.9983719,0.677953643 C7.48964501,-0.979755171 11.6643375,0.507098787 13.3220464,3.9983719 C14.9797552,7.48964501 13.4929012,11.6643375 10.0016281,13.3220464" id="Fill-7" fill="#40B856"></path>
            <path d="M10.0016281,13.3220464 C6.51035499,14.9797552 2.33566246,13.4929012 0.677953643,10.0016281 C-0.979755171,6.51035499 0.507098787,2.33566246 3.9983719,0.677953643 C7.48964501,-0.979755171 11.6643375,0.507098787 13.3220464,3.9983719 C14.9797552,7.48964501 13.4929012,11.6643375 10.0016281,13.3220464 Z" id="Stroke-9" stroke="#278D3A" stroke-width="2" stroke-linecap="round"></path>
            <path d="M5.29220015,5.77489132 C5.21862046,5.99787514 5.17480334,6.22385203 5.15909531,6.45357026 C5.14421403,6.68179195 5.19381831,6.9062723 5.31038839,7.12850785 C5.44928039,7.39339467 5.63446972,7.57223068 5.86678313,7.66501589 C6.0982698,7.7578011 6.36034577,7.74133921 6.65301106,7.61488195 C6.93988918,7.49216602 7.11929135,7.32380576 7.19039083,7.11054942 C7.2614903,6.89804135 7.23338121,6.66981966 7.10606354,6.42663261 C7.06638011,6.35030929 7.02669668,6.28520999 6.98535978,6.22983817 C6.94567635,6.17371808 6.89855228,6.12283587 6.84564104,6.07644326 C6.79190306,6.03005066 6.72989771,5.98290978 6.66210518,5.93576891 C6.59348592,5.8893763 6.51246558,5.83999062 6.41904418,5.78686361 L6.5149458,5.09022625 L9.4680543,4 L11,6.92048939 L9.88803725,7.39788427 L8.89677827,5.5077597 L7.78398878,5.87740402 C7.88319736,5.95372734 7.96587117,6.03154719 8.03366369,6.11310839 C8.10145622,6.19317305 8.16346157,6.28670653 8.21967976,6.39520536 C8.33624984,6.61669265 8.41065627,6.841173 8.44289905,7.06939469 C8.4743151,7.29761638 8.45860708,7.51910366 8.39494824,7.73161173 C8.33046267,7.9441198 8.21058565,8.14166251 8.03531717,8.32349159 C7.85922195,8.50532068 7.6194679,8.66096039 7.31440154,8.79190726 C6.99693411,8.92809201 6.68938754,8.99768092 6.39176182,8.99992572 C6.09248263,9.00217053 5.81221841,8.95353312 5.55179591,8.85401349 C5.28971993,8.75449387 5.05492631,8.60858164 4.8441081,8.41777334 C4.63411662,8.22546851 4.46380857,8.00547776 4.33318395,7.75705284 C4.11244488,7.33502977 4.00083523,6.94518223 4.00000849,6.58825847 C3.99918176,6.23058644 4.0587069,5.90060032 4.17775719,5.59755184 L5.29220015,5.77489132 Z" id="Fill-11" fill="#FFFFFF"></path>
        </g>
    </g>
</svg>