<?xml version="1.0" encoding="UTF-8"?>
<svg width="16px" height="16px" viewBox="0 0 16 16" version="1.1" xmlns="http://www.w3.org/2000/svg" xmlns:xlink="http://www.w3.org/1999/xlink">
    <!-- Generator: Sketch 48.2 (47327) - http://www.bohemiancoding.com/sketch -->
    <title>case_2-coin-1</title>
    <desc>Created with Sketch.</desc>
    <defs></defs>
    <g id="New" stroke="none" stroke-width="1" fill="none" fill-rule="evenodd">
        <g id="case_2-coin-1" transform="translate(1.000000, 1.000000)">
            <path d="M13.3489143,4.05581235 C14.9748965,7.5621669 13.4505903,11.7227854 9.94360271,13.3488604 C6.43744852,14.9749355 2.27706779,13.4505422 0.651085654,9.94418765 C-0.974896479,6.4378331 0.549409683,2.27638118 4.05639729,0.651139587 C7.56255148,-0.974935459 11.7229322,0.549457805 13.3489143,4.05581235" id="Fill-1" fill="#40B856"></path>
            <path d="M13.3489143,4.05581235 C14.9748965,7.5621669 13.4505903,11.7227854 9.94360271,13.3488604 C6.43744852,14.9749355 2.27706779,13.4505422 0.651085654,9.94418765 C-0.974896479,6.4378331 0.549409683,2.27638118 4.05639729,0.651139587 C7.56255148,-0.974935459 11.7229322,0.549457805 13.3489143,4.05581235 Z" id="Stroke-3" stroke="#278D3A" stroke-width="2" stroke-linecap="round"></path>
            <path d="M5.77762139,9.9137931 L7.0468684,9.32962165 L5.48205489,5.98132184 L4.38845883,6.48503352 L4,5.65445402 C4.28965517,5.44743774 4.52610837,5.2496408 4.70682618,5.06357759 C4.88754398,4.87667625 5.0539057,4.6746887 5.20506685,4.45677682 L6.1981703,4 L8.39802956,8.70773467 L9.49247009,8.20402299 L10,9.29022989 L6.2851513,11 L5.77762139,9.9137931 Z" id="Fill-5" fill="#FFFFFF"></path>
        </g>
    </g>
</svg>