<?xml version="1.0" encoding="UTF-8"?>
<svg width="54px" height="40px" viewBox="0 0 53 40" version="1.1" xmlns="http://www.w3.org/2000/svg" xmlns:xlink="http://www.w3.org/1999/xlink">
    <!-- Generator: Sketch 48.2 (47327) - http://www.bohemiancoding.com/sketch -->
    <title>case_1-pot_2</title>
    <desc>Created with Sketch.</desc>
    <defs></defs>
    <g id="New" stroke="none" stroke-width="1" fill="none" fill-rule="evenodd">
        <g id="case_1-pot_2" transform="translate(1.000000, 1.000000)">
            <path d="M43.3900227,35.4683544 L7.24288865,35.4683544 L0.0411489997,2.47954993 C-0.211880939,1.21147679 0.734097251,0.0253164557 1.99770877,0.0253164557 L48.6352026,0.0253164557 C49.8988141,0.0253164557 50.8447923,1.21147679 50.5917624,2.47954993 L43.3900227,35.4683544 Z" id="Fill-23" fill="#40B856"></path>
            <path d="M43.3900227,35.4683544 L7.24288865,35.4683544 L0.0411489997,2.47954993 C-0.211880939,1.21147679 0.734097251,0.0253164557 1.99770877,0.0253164557 L48.6352026,0.0253164557 C49.8988141,0.0253164557 50.8447923,1.21147679 50.5917624,2.47954993 L43.3900227,35.4683544 Z" id="Stroke-25" stroke="#278D3A" stroke-width="2"></path>
            <path d="M45.1674699,38 L6.73126427,38 L2.7661853,32.4040506 C2.16965539,31.5617722 2.78002233,30.4050633 3.82010606,30.4050633 L48.0786281,30.4050633 C49.1187118,30.4050633 49.7290788,31.5617722 49.1325489,32.4040506 L45.1674699,38 Z" id="Fill-27" fill="#40B856"></path>
            <path d="M45.1674699,38 L6.73126427,38 L2.7661853,32.4040506 C2.16965539,31.5617722 2.78002233,30.4050633 3.82010606,30.4050633 L48.0786281,30.4050633 C49.1187118,30.4050633 49.7290788,31.5617722 49.1325489,32.4040506 L45.1674699,38 Z" id="Stroke-29" stroke="#278D3A" stroke-width="2"></path>
            <path d="M50.6329114,5.08860759 L13.9240506,5.08860759" id="Stroke-31" stroke="#278D3A" stroke-width="2" stroke-linecap="round"></path>
            <path d="M48.1012658,11.4177215 L31.6455696,11.4177215" id="Stroke-33" stroke="#278D3A" stroke-width="2" stroke-linecap="round"></path>
            <path d="M48.1012658,15.2151899 L39.2405063,15.2151899" id="Stroke-35" stroke="#278D3A" stroke-width="2" stroke-linecap="round"></path>
            <path d="M46.835443,20.278481 L40.5063291,20.278481" id="Stroke-37" stroke="#278D3A" stroke-width="2" stroke-linecap="round"></path>
        </g>
    </g>
</svg>
