<?xml version="1.0" encoding="UTF-8"?>
<svg width="44px" height="106px" viewBox="0 0 43 105" version="1.1" xmlns="http://www.w3.org/2000/svg" xmlns:xlink="http://www.w3.org/1999/xlink">
    <!-- Generator: Sketch 48.2 (47327) - http://www.bohemiancoding.com/sketch -->
    <title>hand</title>
    <desc>Created with Sketch.</desc>
    <defs></defs>
    <g id="New" stroke="none" stroke-width="1" fill="none" fill-rule="evenodd">
        <g id="hand" transform="translate(1.000000, 0.000000)">
            <g id="Group-24" transform="translate(0.000000, 0.896985)">
                <path d="M15.6885333,0.513271795 C13.7529436,0.513271795 12.1833026,2.08209231 12.1833026,4.01850256 L12.1833026,46.0213744 L19.1937641,46.0213744 L19.1937641,4.01850256 C19.1937641,2.08209231 17.6241231,0.513271795 15.6885333,0.513271795" id="Fill-1" fill="#E3F4EE"></path>
                <path d="M15.6885333,0.513271795 C13.7529436,0.513271795 12.1833026,2.08209231 12.1833026,4.01850256 L12.1833026,46.0213744 L19.1937641,46.0213744 L19.1937641,4.01850256 C19.1937641,2.08209231 17.6241231,0.513271795 15.6885333,0.513271795 Z" id="Stroke-3" stroke="#278D3A" stroke-width="2"></path>
                <path d="M0.41025641,35.6354872 L0.41025641,39.849641 C0.41025641,41.4488205 1.08061538,42.9741538 2.25887179,44.0564103 L13.0371282,53.9550769 L13.0371282,63.8717949 L32.2322051,63.8717949 L32.2322051,54.9462564 C35.489641,53.6129231 37.6172308,50.4424615 37.6172308,46.9224615 L37.6172308,31.5042051 L0.41025641,35.6354872 Z" id="Fill-5" fill="#E3F4EE"></path>
                <path d="M0.41025641,35.6354872 L0.41025641,39.849641 C0.41025641,41.4488205 1.08061538,42.9741538 2.25887179,44.0564103 L13.0371282,53.9550769 L13.0371282,63.8717949 L32.2322051,63.8717949 L32.2322051,54.9462564 C35.489641,53.6129231 37.6172308,50.4424615 37.6172308,46.9224615 L37.6172308,31.5042051 L0.41025641,35.6354872 Z" id="Stroke-7" stroke="#278D3A" stroke-width="2" stroke-linecap="round"></path>
                <path d="M22.4166564,18.8470564 L20.9725538,18.8470564 C19.9904,18.8470564 19.1936821,19.6437744 19.1936821,20.6267487 L19.1936821,35.2646974 C19.1936821,37.2002872 20.7625026,38.7699282 22.6980923,38.7699282 C24.6345026,38.7699282 26.2033231,37.2002872 26.2033231,35.2646974 L26.2033231,22.6337231 C26.2033231,20.5422359 24.5081436,18.8470564 22.4166564,18.8470564" id="Fill-9" fill="#E3F4EE"></path>
                <path d="M22.4166564,18.8470564 L20.9725538,18.8470564 C19.9904,18.8470564 19.1936821,19.6437744 19.1936821,20.6267487 L19.1936821,35.2646974 C19.1936821,37.2002872 20.7625026,38.7699282 22.6980923,38.7699282 C24.6345026,38.7699282 26.2033231,37.2002872 26.2033231,35.2646974 L26.2033231,22.6337231 C26.2033231,20.5422359 24.5081436,18.8470564 22.4166564,18.8470564 Z" id="Stroke-11" stroke="#278D3A" stroke-width="2" stroke-linecap="round"></path>
                <path d="M29.5610256,23.2477949 L27.9831795,23.2477949 C27.0002051,23.2477949 26.2034872,24.0445128 26.2034872,25.0274872 L26.2034872,35.2650256 C26.2034872,37.2006154 27.7723077,38.7694359 29.7087179,38.7694359 C31.6443077,38.7694359 33.2131282,37.2006154 33.2131282,35.2650256 L33.2131282,26.8998974 C33.2131282,25.305641 31.5778462,23.2477949 29.5610256,23.2477949" id="Fill-13" fill="#E3F4EE"></path>
                <path d="M29.5610256,23.2477949 L27.9831795,23.2477949 C27.0002051,23.2477949 26.2034872,24.0445128 26.2034872,25.0274872 L26.2034872,35.2650256 C26.2034872,37.2006154 27.7723077,38.7694359 29.7087179,38.7694359 C31.6443077,38.7694359 33.2131282,37.2006154 33.2131282,35.2650256 L33.2131282,26.8998974 C33.2131282,25.305641 31.5778462,23.2477949 29.5610256,23.2477949 Z" id="Stroke-15" stroke="#278D3A" stroke-width="2" stroke-linecap="round"></path>
                <path d="M35.6177231,26.5698872 L34.9933128,26.5698872 C34.0103385,26.5698872 33.2136205,27.3666051 33.2136205,28.3495795 L33.2136205,35.2648615 C33.2136205,37.2004513 34.782441,38.7700923 36.7180308,38.7700923 C38.654441,38.7700923 40.2232615,37.2004513 40.2232615,35.2648615 L40.2232615,31.1754256 C40.2232615,28.6318359 38.1613128,26.5698872 35.6177231,26.5698872" id="Fill-17" fill="#E3F4EE"></path>
                <path d="M35.6177231,26.5698872 L34.9933128,26.5698872 C34.0103385,26.5698872 33.2136205,27.3666051 33.2136205,28.3495795 L33.2136205,35.2648615 C33.2136205,37.2004513 34.782441,38.7700923 36.7180308,38.7700923 C38.654441,38.7700923 40.2232615,37.2004513 40.2232615,35.2648615 L40.2232615,31.1754256 C40.2232615,28.6318359 38.1613128,26.5698872 35.6177231,26.5698872 Z" id="Stroke-19" stroke="#278D3A" stroke-width="2"></path>
                <path d="M0.41025641,36.6173949 L0.41025641,33.2270359 C0.41025641,31.2873436 1.98317949,29.7144205 3.92287179,29.7144205 L14.6043077,29.7144205 C17.1388718,29.7144205 19.1934359,31.7689846 19.1934359,34.3035487 C19.1934359,36.8381128 17.1388718,38.8926769 14.6043077,38.8926769 L11.6077949,38.8926769" id="Fill-21" fill="#E3F4EE"></path>
                <path d="M0.41025641,36.6173949 L0.41025641,33.2270359 C0.41025641,31.2873436 1.98317949,29.7144205 3.92287179,29.7144205 L14.6043077,29.7144205 C17.1388718,29.7144205 19.1934359,31.7689846 19.1934359,34.3035487 C19.1934359,36.8381128 17.1388718,38.8926769 14.6043077,38.8926769 L11.6077949,38.8926769" id="Stroke-23" stroke="#278D3A" stroke-width="2" stroke-linecap="round"></path>
                <path d="M22.1420553,39.5489124 C25.1537472,42.4699526 25.4956561,45.7996683 23.167782,49.5380595" id="Path-12" stroke="#278D3A" stroke-width="2" stroke-linecap="round"></path>
            </g>
            <g id="Group-20" transform="translate(10.000000, 62.000000)">
                <path d="M3,0 L23,0 L23,32 C23,37.5228475 18.5228475,42 13,42 L13,42 C7.4771525,42 3,37.5228475 3,32 L3,0 Z" id="Rectangle-4" stroke="#278D3A" stroke-width="2" fill="#40B856"></path>
                <circle id="Oval-9" stroke="#278D3A" stroke-width="2" fill="#FFFFFF" cx="13" cy="33" r="4"></circle>
                <rect id="Rectangle-4" stroke="#278D3A" stroke-width="2" fill="#E3F4EE" x="0" y="0" width="25" height="12"></rect>
                <circle id="Oval-8" fill="#278D3A" cx="15.5" cy="6.5" r="1.5"></circle>
            </g>
        </g>
    </g>
</svg>
