<?xml version="1.0" encoding="UTF-8"?>
<svg width="4344px" height="446px" viewBox="0 0 4344 446" version="1.1" xmlns="http://www.w3.org/2000/svg" xmlns:xlink="http://www.w3.org/1999/xlink">
    <!-- Generator: Sketch 48.2 (47327) - http://www.bohemiancoding.com/sketch -->
    <title>cta_graphics</title>
    <desc>Created with Sketch.</desc>
    <defs>
        <path d="M79.6161221,95.6265971 C79.6161221,95.6265971 78.7719485,104.968881 79.3347309,108.931234 C79.0533397,108.931234 71.452087,119.122394 66.3852002,115.159113 C66.6665914,113.460432 66.6665914,105.25184 66.6665914,105.25184 L79.6161221,95.6265971 Z" id="path-1"></path>
        <polygon id="path-2" points="0.220065803 0.34838588 6.74539499 0.34838588 6.74539499 6.28041083 0.220065803 6.28041083"></polygon>
    </defs>
    <g id="New" stroke="none" stroke-width="1" fill="none" fill-rule="evenodd">
        <g id="cta_graphics">
            <g id="man" transform="translate(2098.000000, 89.000000)">
                <ellipse id="Oval-12" fill="#2C394C" opacity="0.400000006" cx="81.4203388" cy="337.99303" rx="81.189748" ry="10.2238942"></ellipse>
                <path d="M160.891785,44.2081431 L161.833865,43.0232652 L163.554869,40.8597551 L163.554869,32.674347 L161.65258,24.1172242 C161.65258,24.1172242 166.217952,24.1172242 167.359447,30.4416944 L168.881036,32.3020413 C168.881036,32.3020413 177.250986,22.2568773 178.77318,23.3726126 C180.294769,24.488939 178.77318,30.8140001 178.77318,30.8140001 C178.77318,30.8140001 178.77318,35.2787144 178.011781,38.2553876 C177.250986,41.2314699 168.120241,42.7201019 168.120241,42.7201019 L166.408302,46.9986634 L160.891785,44.2081431 Z" id="Fill-1" stroke="#278D3A" stroke-width="1.5" fill="#FFFFFF"></path>
                <path d="M28.4745851,26.4409508 L27.974811,24.9963896 L27.0613088,22.3582852 L29.6326701,14.4258699 L34.0811312,6.7311977 C34.0811312,6.7311977 29.8554468,5.29568758 26.8120111,11.0660883 L24.8193975,12.3899677 C24.8193975,12.3899677 20.2271336,0.022495914 18.4679051,0.625904961 C16.7086767,1.2287106 16.1305182,7.83664307 16.1305182,7.83664307 C16.1305182,7.83664307 14.7278503,12.1636894 14.497412,15.287538 C14.2663844,18.4113866 22.250983,22.7251579 22.250983,22.7251579 L22.4914403,27.4100257 L28.4745851,26.4409508 Z" id="Fill-3" stroke="#278D3A" stroke-width="1.5" fill="#FFFFFF"></path>
                <path d="M42.3289786,196.135702 C42.3289786,196.135702 58.2114813,313.881424 58.2114813,328.529394 C57.6511388,328.529394 61.0143806,329.092548 61.0143806,329.092548 C61.0143806,329.092548 58.7724173,332.473262 52.6062762,334.726474 C48.1217559,336.980284 66.0598369,335.290225 68.3018002,333.600166 C67.7414578,331.909511 64.3776224,327.96624 64.3776224,327.96624 C65.4989008,326.839335 63.5881569,220.972346 63.5881569,220.972346 C63.5881569,220.972346 88.482438,298.6703 92.4060222,331.909511 L91.8456798,331.909511 L95.769264,334.16332 L88.482438,339.797247 C88.482438,339.797247 100.534549,339.797247 101.094891,336.980284 C100.534549,334.16332 99.973613,331.909511 99.973613,331.909511 C99.973613,331.909511 83.2500031,207.966709 81.9423395,197.262607 C75.0288773,191.628681 42.3289786,196.135702 42.3289786,196.135702" id="Fill-32" stroke="#278D3A" stroke-width="1.5" fill="#40B856"></path>
                <path d="M53.50724,108.645478 C56.6199412,109.687516 60.1412481,110.101857 64.0711607,109.8885 L77.7401016,109.8885 C77.7401016,109.8885 86.7736736,110.49775 98.4782399,104.008342 C135.226297,61.3319151 161.936862,40.8127778 161.936862,40.8127778 L168.108652,46.4640788 C146.787815,65.6775446 90.2091133,136.694004 90.2091133,136.694004 L90.1879172,136.613781 C87.6590667,142.721005 74.7124383,175.832557 81.9024529,197.253236 C81.9024529,197.253236 63.3623811,205.520114 41.7958004,196.125799 C40.9313272,190.49251 36.5443457,188.258288 41.7136324,129.049906 C21.2158781,64.2451121 20.6783791,25.5377196 20.6783791,25.5377196 L30.8008131,23.286102 C32.2971791,50.7443408 41.8515515,93.8988342 53.50724,108.645478 Z" id="Combined-Shape" stroke="#278D3A" stroke-width="1.5" fill="#E3F4EE" stroke-linecap="round" stroke-linejoin="round"></path>
                <path d="M68.8305984,110.342889 L64.4390799,111.092741 C58.3515993,119.896871 56.5574406,123.883166 59.0566037,123.051626 C61.5557669,122.220086 64.3502297,121.020718 67.4399923,119.453523 L75.3690736,125.226826 C76.4546786,126.447488 77.7784401,125.29071 79.3403579,121.75649 C81.6832346,116.455162 82.5719731,108.071689 81.6832346,107.261793 C81.0907422,106.721862 78.9860219,106.451897 75.3690736,106.451897 L68.8305984,110.342889 Z" id="Path-16" stroke="#278D3A" stroke-width="1.5" fill="#E3F4EE"></path>
                <g id="Fill-20">
                    <use fill="#FFFFFF" fill-rule="evenodd" xlink:href="#path-1"></use>
                    <path stroke="#278D3A" stroke-width="1.5" d="M78.7358983,97.2153464 L67.4159923,105.629307 C67.4159408,105.649789 67.4158854,105.670928 67.415826,105.692713 C67.4148702,106.042657 67.4131502,106.43252 67.4104747,106.852347 C67.4028291,108.052089 67.3890657,109.251938 67.3676425,110.372504 C67.3287592,112.406342 67.270512,113.927994 67.1846702,114.805029 C68.1201178,115.388404 69.1873227,115.470347 70.4153386,115.103784 C71.9321861,114.651004 73.6015753,113.542213 75.3511407,111.948379 C76.1666622,111.205447 76.9162332,110.438002 77.7318965,109.542358 C77.90212,109.355443 78.3876363,108.815286 78.4635306,108.732233 C78.4919381,108.701146 78.5182232,108.672582 78.5426955,108.646235 C78.3904089,107.295673 78.3582037,105.417757 78.4218454,103.129642 C78.4605459,101.738243 78.5333049,100.255013 78.6302358,98.7435083 C78.6642175,98.2136097 78.6997788,97.7020009 78.7358957,97.2153483 Z"></path>
                </g>
                <path d="M61.2952615,46.9986634 C61.2952615,46.9986634 53.9996235,50.9895952 53.6872404,56.3157416 C53.3748573,61.6412994 57.3548705,75.8661293 57.3548705,75.8661293 C57.3548705,75.8661293 69.1174718,54.5527171 61.2952615,46.9986634" id="Fill-8" fill="#278D3A"></path>
                <path d="M96.1724614,93.1159442 C86.9030562,106.215039 71.6268776,107.516252 64.5030569,104.254599 C56.956798,100.799806 50.1038308,89.9665155 53.558953,82.4215721 C57.0140751,74.876032 57.4621492,68.816572 57.9883826,58.6777 C58.514616,48.5382315 68.3197409,43.5418765 68.3197409,43.5418765 C68.3197409,43.5418765 86.3644163,34.6224134 101.422926,49.0333926 C111.090179,58.2845617 106.832569,72.8148681 102.544808,82.0333623 C105.177031,80.6029081 108.039631,80.11464 108.302265,84.5150316 C108.675987,90.7766928 97.9011363,97.2608314 96.1724614,93.1159442 Z" id="Combined-Shape" stroke="#278D3A" stroke-width="1.5" fill="#FFFFFF" stroke-linecap="round" stroke-linejoin="round"></path>
                <path d="M82.9099236,53.2306738 C82.9099236,53.2306738 69.5033809,62.940763 63.7776328,57.136269 C58.0518846,51.3311828 47.3372537,35.7923156 58.6451894,26.370082 C69.953125,16.9484406 101.529923,30.2579083 109.944605,50.7910095 C108.013386,53.8206 105.256544,53.9870349 105.256544,53.9870349 C105.256544,53.9870349 110.569481,58.3599511 110.368138,63.0657373 C109.631273,66.9950243 102.854732,81.3226476 102.854732,81.3226476 C102.854732,81.3226476 98.4120948,83.2091082 94.5496571,89.2688814 L92.1609503,87.4706729 L100.333187,69.3357753 L82.9099236,53.2306738 Z" id="Fill-16" fill="#278D3A"></path>
                <path d="M78.8459137,75.2334544 C78.5410871,76.6881999 77.4850518,77.7332387 76.4869256,77.5670639 C75.4887993,77.4016054 74.9265993,76.0879652 75.2314259,74.6332197 C75.5354483,73.1784742 76.5922878,72.1334354 77.5904141,72.2996102 C78.5885403,72.4650687 79.1507404,73.7787089 78.8459137,75.2334544" id="Fill-26" fill="#278D3A"></path>
                <path d="M63.55303,73.6624359 C63.2482033,75.1171814 62.1921681,76.1622201 61.1940418,75.9960454 C60.1959156,75.8305869 59.6337155,74.5169467 59.9385422,73.0622011 C60.2433688,71.6074556 61.2994041,70.5624169 62.2975303,70.7285917 C63.2956566,70.8940502 63.8578566,72.2076904 63.55303,73.6624359" id="Fill-28" fill="#278D3A"></path>
                <polygon id="Fill-40" fill="#278D3A" points="63.9795781 121.19626 64.7867051 127.415176 70.1654636 124.453727 67.5657968 118.136347"></polygon>
                <path d="M57.7061274,184.330812 L50.4597679,191.335993 L45.4219214,181.266157 C45.4219214,181.266157 59.5369085,135.626035 65.3082859,122.260271 C66.9733524,123.713729 68.1035018,123.925432 68.1035018,123.925432 C68.1035018,123.925432 58.3945742,165.068788 57.7061274,184.330812 Z" id="Fill-42" stroke="#278D3A" stroke-width="1.5" fill="#40B856"></path>
                <path d="M81.5956696,193.965363 C82.2548849,197.324127 82.5372348,200.209851 82.5372348,200.209851 C82.5372348,200.209851 61.2587001,206.453739 42.6164281,199.074435 C42.2395628,199.074435 41.2979977,193.397955 41.2979977,193.397955 C41.2979977,193.397955 62.764965,200.966595 81.5956696,193.965363 Z" id="Fill-46" fill="#278D3A"></path>
                <path d="M58.6136858,84.5392331 C64.1909788,88.2248782 73.0524283,88.7497495 85.1980344,86.1138468 C80.4009554,94.2551241 75.3455646,98.7206534 66.9796252,97.9081092 C61.4023323,97.366413 58.6136858,92.910121 58.6136858,84.5392331 Z" id="Path-19" stroke="#278D3A" stroke-width="1.5" fill="#FFFFFF" stroke-linecap="round" stroke-linejoin="round"></path>
                <path d="M74.8048778,70.1682781 C75.7737893,68.4949724 76.9625819,67.7734546 78.3712558,68.003725 C79.7799297,68.2339953 80.5170945,69.3564501 80.5827501,71.3710892" id="Path-20" stroke="#278D3A" stroke-width="1.5" stroke-linecap="round"></path>
                <path d="M60.3711448,67.762656 C61.3400563,66.0893502 62.5288489,65.3678325 63.9375228,65.5981028 C65.3461967,65.8283732 66.0833615,66.9508279 66.1490171,68.9654671" id="Path-20" stroke="#278D3A" stroke-width="1.5" stroke-linecap="round"></path>
                <path d="M69.969358,78.827179 C67.6780655,78.3166108 66.4105198,79.081158 66.1667209,81.1208208" id="Path-22" stroke="#278D3A" stroke-width="1.5" stroke-linecap="round" stroke-linejoin="round"></path>
            </g>
            <g id="waves" transform="translate(0.000000, 46.000000)">
                <g id="wave" transform="translate(1448.000000, 0.000000)">
                    <path d="M0,0.745442708 C106.044271,3.42122396 205.86849,54.6072049 299.472656,154.303385 C402.219534,263.73731 436.992187,207.000326 543.570312,226.069336 C650.148438,245.138346 629.065194,300.381394 725.635506,300.381394 C725.635506,340.203443 725.635506,373.409645 725.635506,400 L0,400 L0,0.745442708 Z" id="Path-25" fill="#2BA942"></path>
                    <path d="M0,54.078776 C85.6770833,50.7966789 173.708333,88.15779 264.09375,166.162109 C399.671875,283.168588 436.992187,213.666992 543.570312,232.736003 C650.148438,251.805013 629.065194,303.714727 725.635506,303.714727 C725.635506,343.536776 725.635506,375.631867 725.635506,400 L0,400 L0,54.078776 Z" id="Path-25" fill="#40B856"></path>
                    <path d="M722,0.833333333 C828.287267,3.50911458 928.232983,54.6950955 1021.83715,154.391276 C1124.58403,263.8252 1159.35668,207.088216 1265.93481,226.157227 C1372.51293,245.226237 1351.42969,300.469285 1448,300.469285 C1448,340.291333 1448,373.468238 1448,400 L722,400 L722,0.833333333 Z" id="Path-25" fill="#2BA942" transform="translate(1085.000000, 200.416667) scale(-1, 1) translate(-1085.000000, -200.416667) "></path>
                    <path d="M722,54.3654482 C807.920079,51.0833511 896.072827,88.4444622 986.458244,166.448782 C1122.03637,283.455261 1159.35668,213.953664 1265.93481,233.022675 C1372.51293,252.091685 1351.42969,304.0014 1448,304.0014 C1448,343.823448 1448,375.822982 1448,400 L722,400 L722,54.3654482 Z" id="Path-25" fill="#40B856" transform="translate(1085.000000, 227.083333) scale(-1, 1) translate(-1085.000000, -227.083333) "></path>
                    <path d="M723.817734,303.709704 C818.230934,303.184494 791.994459,261.608432 897.898437,242.66004 C1004.47656,223.591029 1034.94531,315.396956 1170.52344,198.390477 C1260.90885,120.386158 1353.40104,85.8262725 1448,94.7108211 L1448,400 L725.635506,400 L0,400 L0,104.710821 C91.2376302,98.0441545 183.60832,129.270707 277.112069,198.390477 C417.367693,302.070133 443.158944,223.591029 549.737069,242.66004 C655.64104,261.60843 629.404576,303.184488 723.817754,303.709704 Z" id="Combined-Shape" fill="#1A324E"></path>
                </g>
                <g id="wave" transform="translate(724.000000, 200.000000) scale(-1, 1) translate(-724.000000, -200.000000) ">
                    <path d="M0,0.745442708 C106.044271,3.42122396 205.86849,54.6072049 299.472656,154.303385 C402.219534,263.73731 436.992187,207.000326 543.570312,226.069336 C650.148438,245.138346 629.065194,300.381394 725.635506,300.381394 C725.635506,340.203443 725.635506,373.409645 725.635506,400 L0,400 L0,0.745442708 Z" id="Path-25" fill="#2BA942"></path>
                    <path d="M0,54.078776 C88.4492188,59.9129774 176.480469,97.2740885 264.09375,166.162109 C395.513672,269.494141 436.992187,213.666992 543.570312,232.736003 C650.148438,251.805013 629.065194,303.714727 725.635506,303.714727 C725.635506,343.536776 725.635506,375.631867 725.635506,400 L0,400 L0,54.078776 Z" id="Path-25" fill="#40B856"></path>
                    <path d="M722,0.833333333 C828.287267,3.50911458 928.232983,54.6950955 1021.83715,154.391276 C1124.58403,263.8252 1159.35668,207.088216 1265.93481,226.157227 C1372.51293,245.226237 1351.42969,300.469285 1448,300.469285 C1448,340.291333 1448,373.468238 1448,400 L722,400 L722,0.833333333 Z" id="Path-25" fill="#2BA942" transform="translate(1085.000000, 200.416667) scale(-1, 1) translate(-1085.000000, -200.416667) "></path>
                    <path d="M722,54.3654482 C807.920079,51.0833511 896.072827,88.4444622 986.458244,166.448782 C1122.03637,283.455261 1159.35668,213.953664 1265.93481,233.022675 C1372.51293,252.091685 1351.42969,304.0014 1448,304.0014 C1448,343.823448 1448,375.822982 1448,400 L722,400 L722,54.3654482 Z" id="Path-25" fill="#40B856" transform="translate(1085.000000, 227.083333) scale(-1, 1) translate(-1085.000000, -227.083333) "></path>
                    <path d="M723.817734,303.709704 C818.230934,303.184494 791.994459,261.608432 897.898437,242.66004 C1004.47656,223.591029 1034.94531,315.396956 1170.52344,198.390477 C1260.90885,120.386158 1353.40104,85.8262725 1448,94.7108211 L1448,400 L725.635506,400 L0,400 L0,104.710821 C104.169922,111.032513 196.540612,142.259065 277.112069,198.390477 C397.969255,282.587595 443.158944,223.591029 549.737069,242.66004 C655.64104,261.60843 629.404576,303.184488 723.817754,303.709704 Z" id="Combined-Shape" fill="#1A324E"></path>
                </g>
                <g id="wave" transform="translate(3620.000000, 200.000000) scale(-1, 1) translate(-3620.000000, -200.000000) translate(2896.000000, 0.000000)">
                    <path d="M0,0.745442708 C106.044271,3.42122396 205.86849,54.6072049 299.472656,154.303385 C402.219534,263.73731 436.992187,207.000326 543.570312,226.069336 C650.148438,245.138346 629.065194,300.381394 725.635506,300.381394 C725.635506,340.203443 725.635506,373.409645 725.635506,400 L0,400 L0,0.745442708 Z" id="Path-25" fill="#2BA942"></path>
                    <path d="M0,54.078776 C85.6770833,50.7966789 173.708333,88.15779 264.09375,166.162109 C399.671875,283.168588 436.992187,213.666992 543.570312,232.736003 C650.148438,251.805013 629.065194,303.714727 725.635506,303.714727 C725.635506,343.536776 725.635506,375.631867 725.635506,400 L0,400 L0,54.078776 Z" id="Path-25" fill="#40B856"></path>
                    <path d="M722,0.833333333 C828.287267,3.50911458 928.232983,54.6950955 1021.83715,154.391276 C1124.58403,263.8252 1159.35668,207.088216 1265.93481,226.157227 C1372.51293,245.226237 1351.42969,300.469285 1448,300.469285 C1448,340.291333 1448,373.468238 1448,400 L722,400 L722,0.833333333 Z" id="Path-25" fill="#2BA942" transform="translate(1085.000000, 200.416667) scale(-1, 1) translate(-1085.000000, -200.416667) "></path>
                    <path d="M722,54.3654482 C807.470052,54.3654482 895.6228,91.7265594 986.458244,166.448782 C1122.71141,278.532115 1159.35668,213.953664 1265.93481,233.022675 C1372.51293,252.091685 1351.42969,304.0014 1448,304.0014 C1448,343.823448 1448,375.822982 1448,400 L722,400 L722,54.3654482 Z" id="Path-25" fill="#40B856" transform="translate(1085.000000, 227.182724) scale(-1, 1) translate(-1085.000000, -227.182724) "></path>
                    <path d="M723.817734,303.709704 C818.230934,303.184494 791.994459,261.608432 897.898437,242.66004 C1004.47656,223.591029 1029.78906,294.275095 1170.52344,198.390477 C1264.34635,134.467399 1356.83854,99.9075133 1448,94.7108211 L1448,400 L725.635506,400 L0,400 L0,104.710821 C94.3559627,89.1596059 186.726652,120.386158 277.112069,198.390477 C412.690194,315.396956 443.158944,223.591029 549.737069,242.66004 C655.64104,261.60843 629.404576,303.184488 723.817754,303.709704 Z" id="Combined-Shape" fill="#1A324E"></path>
                </g>
            </g>
            <g id="money" transform="translate(2002.673593, 0.250000)">
                <path d="M223.83022,47.3790274 C223.83022,47.3790274 228.986799,65.5049746 244.455882,70.0882507 L253.222067,60.1923453 C253.222067,60.1923453 237.133802,52.0668751 236.102486,39.565948 L223.83022,47.3790274 Z" id="Fill-58" fill="#278D3A"></path>
                <path d="M241.917511,55.3923272 C241.917511,57.8893348 239.893356,59.9141498 237.395688,59.9141498 C234.89868,59.9141498 232.873865,57.8893348 232.873865,55.3923272 C232.873865,52.8953195 234.89868,50.8705046 237.395688,50.8705046 C239.893356,50.8705046 241.917511,52.8953195 241.917511,55.3923272" id="Fill-60" fill="#40B856"></path>
                <path d="M228.352043,49.7400489 C228.352043,50.3643964 227.845708,50.8705046 227.221587,50.8705046 C226.597466,50.8705046 226.091131,50.3643964 226.091131,49.7400489 C226.091131,49.1157014 226.597466,48.6095932 227.221587,48.6095932 C227.845708,48.6095932 228.352043,49.1157014 228.352043,49.7400489" id="Fill-62" fill="#94C234"></path>
                <path d="M243.463246,65.75678 C244.043661,66.1032754 244.328383,66.8056672 244.099104,67.3247387 C243.869825,67.8438103 243.213176,67.9834829 242.63276,67.6369875 C242.051767,67.2904921 241.767623,66.5881003 241.996901,66.0690288 C242.22618,65.5499572 242.88283,65.4102846 243.463246,65.75678" id="Fill-64" fill="#94C234"></path>
                <path d="M250.245933,58.9740281 C250.826459,59.3204234 251.111273,60.0225075 250.881678,60.5421005 C250.652083,61.0608486 249.995994,61.2010964 249.415468,60.8538563 C248.834941,60.507461 248.550128,59.8053768 248.779722,59.2866287 C249.009317,58.7670358 249.665406,58.6276328 250.245933,58.9740281" id="Fill-66" fill="#94C234"></path>
                <path d="M235.134777,44.0877706 C235.134777,44.7120418 234.881569,45.2182263 234.569549,45.2182263 C234.25708,45.2182263 234.004321,44.7120418 234.004321,44.0877706 C234.004321,43.4634994 234.25708,42.957315 234.569549,42.957315 C234.881569,42.957315 235.134777,43.4634994 235.134777,44.0877706" id="Fill-68" fill="#94C234"></path>
                <path d="M186.91117,8.19149107 C186.91117,8.19149107 168.704816,5.40752073 158.263792,17.4499771 L163.432277,29.3918471 C163.432277,29.3918471 177.270269,18.2429868 188.786095,22.4351659 L186.91117,8.19149107 Z" id="Fill-70" fill="#5A9E52"></path>
                <path d="M172.201785,21.0641213 C169.93308,20.0208902 168.940027,17.336881 169.982601,15.0681834 C171.025835,12.7994858 173.710513,11.8064354 175.978557,12.8496666 C178.247262,13.8922374 179.240315,16.5769069 178.197741,18.8449442 C177.154507,21.1136418 174.470489,22.1073524 172.201785,21.0641213" id="Fill-72" fill="#94C234"></path>
                <path d="M182.757057,11.1443729 C182.168568,10.8241408 181.860284,10.1300785 182.06829,9.59409683 C182.276868,9.05811517 182.922086,8.88375152 183.510576,9.2039836 C184.099065,9.52421568 184.407349,10.218278 184.199343,10.7542597 C183.990765,11.2895629 183.345547,11.464605 182.757057,11.1443729" id="Fill-74" fill="#94C234"></path>
                <path d="M162.239179,18.8785018 C161.704754,19.324575 161.009821,19.3316048 160.687603,18.8944786 C160.364783,18.4573524 160.536713,17.7415902 161.071139,17.295517 C161.605564,16.8500829 162.300497,16.843053 162.622715,17.2801792 C162.945534,17.7166664 162.773605,18.4324286 162.239179,18.8785018" id="Fill-76" fill="#94C234"></path>
                <path d="M165.630444,26.7919943 C165.09569,27.2375394 164.401342,27.2447775 164.079128,26.8080789 C163.756158,26.3705761 163.927854,25.6548087 164.462608,25.2092636 C164.996605,24.7629142 165.69171,24.7564804 166.013924,25.1931789 C166.336894,25.6306817 166.165198,26.3464491 165.630444,26.7919943" id="Fill-78" fill="#94C234"></path>
                <path d="M185.017883,21.3182008 C184.42969,20.9976941 184.120907,20.304111 184.329389,19.7682374 C184.537155,19.2323639 185.183379,19.0576962 185.771572,19.3782029 C186.359765,19.6987095 186.668549,20.3922927 186.460066,20.9281662 C186.2523,21.4640398 185.606076,21.6387074 185.017883,21.3182008" id="Fill-80" fill="#94C234"></path>
                <path d="M106.648818,59.0619956 C106.648818,59.0619956 88.4424643,56.2780253 78.0014403,68.3204816 L83.1692786,80.2623516 C83.1692786,80.2623516 97.0079172,69.1134914 108.523743,73.3056705 L106.648818,59.0619956 Z" id="Fill-82" fill="#278D3A"></path>
                <path d="M91.9394333,71.9346259 C89.6707288,70.8913947 88.6776753,68.2073855 89.7202494,65.938688 C90.7634837,63.6699904 93.4481614,62.67694 95.7162057,63.7201711 C97.9849102,64.762742 98.9779637,67.4474115 97.9353896,69.7154488 C96.8921553,71.9841463 94.2081378,72.977857 91.9394333,71.9346259" id="Fill-84" fill="#40B856"></path>
                <path d="M102.494705,62.0148774 C101.906216,61.6946454 101.597932,61.000583 101.805938,60.4646014 C102.014516,59.9286197 102.659735,59.7542561 103.248224,60.0744882 C103.836714,60.3947202 104.144997,61.0887826 103.936992,61.6247642 C103.728413,62.1600674 103.083195,62.3351095 102.494705,62.0148774" id="Fill-86" fill="#94C234"></path>
                <path d="M81.9768277,68.6185507 C81.4424024,69.0646239 80.7474693,69.0716537 80.4252511,68.6345275 C80.1024318,68.1974013 80.2743616,67.4816391 80.8087869,67.0355659 C81.3432121,66.5901318 82.0381453,66.5831019 82.3603635,67.0202281 C82.6831828,67.4573543 82.5112529,68.1724775 81.9768277,68.6185507" id="Fill-88" fill="#94C234"></path>
                <path d="M85.3680924,77.6624988 C84.8340947,78.1080439 84.1389901,78.115282 83.8167762,77.6785835 C83.4938059,77.2410807 83.665502,76.5253133 84.2002561,76.0797681 C84.7342538,75.6334188 85.4293584,75.6269849 85.7515723,76.0636835 C86.0745426,76.5011863 85.9028465,77.2169537 85.3680924,77.6624988" id="Fill-90" fill="#94C234"></path>
                <path d="M104.755531,71.0582497 C104.167339,70.737743 103.858555,70.0441599 104.067038,69.5082863 C104.274804,68.9724128 104.921028,68.7977451 105.509221,69.1182518 C106.097414,69.4387584 106.406197,70.1323416 106.197714,70.6682151 C105.989948,71.2040887 105.343724,71.3787563 104.755531,71.0582497" id="Fill-92" fill="#94C234"></path>
                <path d="M240.318468,146.104682 C240.318468,146.104682 258.541583,150.537948 270.178902,139.209375 L265.976756,126.611034 C265.976756,126.611034 250.970878,136.731437 239.656599,131.45497 L240.318468,146.104682 Z" id="Fill-94" fill="#278D3A"></path>
                <path d="M256.586785,133.985333 C258.757324,135.219478 259.516715,137.97897 258.283199,140.150114 C257.049023,142.320597 254.2888,143.079969 252.118261,141.845824 C249.947722,140.61234 249.188331,137.852188 250.421846,135.681704 C251.656023,133.510561 254.416246,132.751188 256.586785,133.985333" id="Fill-96" fill="#40B856"></path>
                <path d="M244.631174,142.658745 C245.202799,143.029475 245.464163,143.737717 245.213859,144.239997 C244.963555,144.741613 244.297629,144.847916 243.725422,144.477185 C243.153797,144.10579 242.893015,143.398213 243.142737,142.895933 C243.393041,142.393652 244.059549,142.288014 244.631174,142.658745" id="Fill-98" fill="#94C234"></path>
                <path d="M266.279649,137.054642 C266.837351,136.64999 267.516497,136.707517 267.797117,137.183425 C268.077736,137.658679 267.853123,138.37254 267.295421,138.776538 C266.738309,139.18119 266.058573,139.123663 265.777953,138.647755 C265.497334,138.172502 265.721947,137.459294 266.279649,137.054642" id="Fill-100" fill="#94C234"></path>
                <path d="M264.018521,128.010994 C264.576395,127.606278 265.255191,127.663859 265.536354,128.140141 C265.816775,128.615601 265.591993,129.32879 265.034861,129.733506 C264.476987,130.1374 263.797449,130.079818 263.517028,129.604359 C263.236607,129.128899 263.460647,128.41571 264.018521,128.010994" id="Fill-102" fill="#94C234"></path>
                <path d="M243.500805,133.61524 C244.072771,133.986463 244.333284,134.694028 244.083686,135.196466 C243.83336,135.698073 243.166795,135.804374 242.59483,135.433152 C242.022864,135.06276 241.762351,134.354364 242.012676,133.852756 C242.262275,133.350319 242.92884,133.244018 243.500805,133.61524" id="Fill-104" fill="#94C234"></path>
                <path d="M285.290871,208.003841 C285.290871,208.003841 303.425642,203.702831 308.614394,188.738915 L299.207203,179.742449 C299.207203,179.742449 290.490754,195.165696 278.092092,195.658434 L285.290871,208.003841 Z" id="Fill-106" fill="#278D3A"></path>
                <path d="M294.111009,191.051184 C296.606085,191.157512 298.542444,193.266253 298.436116,195.761343 C298.329127,198.256433 296.220399,200.192802 293.725323,200.086474 C291.230247,199.980145 289.293888,197.870744 289.400877,195.376314 C289.507205,192.881224 291.615933,190.944855 294.111009,191.051184" id="Fill-108" fill="#40B856"></path>
                <path d="M287.172772,204.614228 C287.796835,204.648681 288.286026,205.181988 288.265574,205.805735 C288.245122,206.428764 287.722766,206.906085 287.098702,206.871631 C286.474638,206.837178 285.985448,206.303871 286.0059,205.680124 C286.026352,205.057095 286.548708,204.579774 287.172772,204.614228" id="Fill-110" fill="#94C234"></path>
                <path d="M304.314215,189.463358 C304.685579,188.891694 305.393097,188.630895 305.895336,188.881216 C306.39691,189.131537 306.503204,189.797507 306.13184,190.369171 C305.760476,190.941416 305.052957,191.202216 304.550719,190.951895 C304.049145,190.701574 303.942851,190.035021 304.314215,189.463358" id="Fill-112" fill="#94C234"></path>
                <path d="M297.531357,183.811287 C297.902501,183.239289 298.610517,182.978558 299.112064,183.229036 C299.614446,183.479514 299.720607,184.145991 299.348626,184.717257 C298.977482,185.289255 298.270302,185.549987 297.76792,185.299508 C297.266373,185.04903 297.160213,184.383286 297.531357,183.811287" id="Fill-114" fill="#94C234"></path>
                <path d="M282.650894,196.700188 C283.274707,196.717683 283.76381,196.984144 283.743776,197.295913 C283.723051,197.607682 283.200789,197.846331 282.576976,197.828836 C281.952472,197.811341 281.463369,197.54488 281.484094,197.233111 C281.504818,196.921342 282.02708,196.682693 282.650894,196.700188" id="Fill-116" fill="#94C234"></path>
                <path d="M243.047966,240.771274 C243.047966,240.771274 232.457189,225.40824 216.482966,226.114775 L211.395208,238.256008 C211.395208,238.256008 229.073365,240.677945 234.007756,252.091611 L243.047966,240.771274 Z" id="Fill-118" fill="#278D3A"></path>
                <path d="M222.943506,238.856444 C222.136683,236.494092 223.398418,233.924423 225.760787,233.117606 C228.123817,232.310788 230.692844,233.572513 231.499668,235.934866 C232.306491,238.297878 231.044756,240.866886 228.682387,241.673704 C226.319357,242.480522 223.75033,241.219457 222.943506,238.856444" id="Fill-120" fill="#40B856"></path>
                <path d="M238.623554,239.943626 C238.370407,239.340221 238.627715,238.722139 239.197815,238.563526 C239.768608,238.404914 240.436498,238.765602 240.689645,239.369572 C240.942791,239.972978 240.685483,240.591059 240.115384,240.749672 C239.544591,240.908285 238.8767,240.547596 238.623554,239.943626" id="Fill-122" fill="#94C234"></path>
                <path d="M218.051164,230.592738 C217.430871,230.475832 216.984792,229.884172 217.0547,229.271127 C217.124608,228.658082 217.684425,228.255325 218.304719,228.372232 C218.925013,228.489138 219.371092,229.080798 219.301184,229.694556 C219.231276,230.307601 218.671458,230.709645 218.051164,230.592738" id="Fill-124" fill="#94C234"></path>
                <path d="M214.660161,237.385621 C214.039574,237.327308 213.593506,237.031255 213.663313,236.724884 C213.733819,236.418065 214.292974,236.216659 214.913561,236.275421 C215.533449,236.333735 215.980215,236.629788 215.90971,236.936159 C215.839903,237.242978 215.280747,237.443935 214.660161,237.385621" id="Fill-126" fill="#94C234"></path>
                <path d="M232.971244,247.856987 C232.718087,247.252953 232.975579,246.635512 233.54605,246.476742 C234.116521,246.317971 234.784094,246.679262 235.037251,247.28259 C235.290409,247.886624 235.033783,248.504066 234.463312,248.662836 C233.891974,248.821607 233.224402,248.460315 232.971244,247.856987" id="Fill-128" fill="#94C234"></path>
                <path d="M102.871465,198.944414 C102.871465,198.944414 92.2806872,183.58138 76.3064647,184.287916 L71.2187064,196.429149 C71.2187064,196.429149 88.8975131,198.851086 93.8312545,210.264752 L102.871465,198.944414 Z" id="Fill-130" fill="#278D3A"></path>
                <path d="M82.7670049,197.029585 C81.9601812,194.667233 83.2219162,192.097564 85.5842856,191.290746 C87.9473152,190.483928 90.5163424,191.745654 91.3231662,194.108006 C92.12999,196.471019 90.8682549,199.040027 88.5058855,199.846845 C86.1428559,200.653663 83.5738287,199.392597 82.7670049,197.029585" id="Fill-132" fill="#40B856"></path>
                <path d="M97.3165966,198.11679 C97.0634501,197.513374 97.3207579,196.895283 97.8908576,196.736668 C98.4616508,196.578052 99.1295412,196.938747 99.3826877,197.542727 C99.6358341,198.146142 99.3785264,198.764233 98.8084267,198.922848 C98.2376335,199.081464 97.569743,198.720205 97.3165966,198.11679" id="Fill-134" fill="#94C234"></path>
                <path d="M77.8746629,187.635424 C77.2543692,187.518518 76.8082903,186.926858 76.8781982,186.313812 C76.9481061,185.700767 77.507924,185.29801 78.1282177,185.414917 C78.7485115,185.531823 79.1945903,186.123483 79.1246824,186.736529 C79.0547746,187.350287 78.4949567,187.752331 77.8746629,187.635424" id="Fill-136" fill="#94C234"></path>
                <path d="M74.4833464,195.558762 C73.8626057,195.500449 73.4164265,195.204395 73.4869494,194.898025 C73.556774,194.591206 74.116069,194.3898 74.7368097,194.448562 C75.3568522,194.506876 75.8037297,194.802929 75.7332068,195.109299 C75.6633822,195.416118 75.1040872,195.617076 74.4833464,195.558762" id="Fill-138" fill="#94C234"></path>
                <path d="M92.7947427,206.030128 C92.5415853,205.426094 92.7990776,204.808653 93.3695487,204.649882 C93.9400198,204.491112 94.6075923,204.852403 94.8607497,205.455731 C95.1139071,206.059765 94.8572818,206.677912 94.2868107,206.835977 C93.7154726,206.994747 93.0479001,206.633456 92.7947427,206.030128" id="Fill-140" fill="#94C234"></path>
                <path d="M94.0668265,293.918471 C94.0668265,293.918471 112.218911,291.271234 118.697844,276.704942 L110.331099,266.787535 C110.331099,266.787535 100.357172,281.490082 88.1755412,280.838654 L94.0668265,293.918471 Z" id="Fill-142" fill="#278D3A"></path>
                <path d="M105.74617,277.003982 C108.219837,277.342741 109.950612,279.622925 109.611853,282.097253 C109.273094,284.57092 106.992909,286.301694 104.518582,285.962935 C102.044915,285.623516 100.31414,283.343331 100.652899,280.869664 C100.992319,278.395997 103.272503,276.665223 105.74617,277.003982" id="Fill-144" fill="#40B856"></path>
                <path d="M97.3375607,289.414288 C97.9585399,289.523466 98.4087499,290.110741 98.3433253,290.725133 C98.2779007,291.339525 97.7212371,291.74912 97.1008123,291.639942 C96.4798331,291.530051 96.0296231,290.943489 96.0950477,290.329097 C96.1604723,289.713991 96.7165814,289.30511 97.3375607,289.414288" id="Fill-146" fill="#94C234"></path>
                <path d="M115.600816,276.425848 C116.020982,275.876109 116.736171,275.670699 117.197834,275.966347 C117.659498,276.262589 117.693215,276.948278 117.273049,277.497424 C116.852884,278.047163 116.137694,278.252573 115.676031,277.956925 C115.214368,277.660683 115.180651,276.975587 115.600816,276.425848" id="Fill-148" fill="#94C234"></path>
                <path d="M109.94869,269.643125 C110.368916,269.093331 111.083708,268.887906 111.545549,269.183719 C112.00739,269.479531 112.040845,270.165279 111.620619,270.715073 C111.200393,271.26412 110.4856,271.470292 110.02376,271.173732 C109.561919,270.877919 109.528464,270.192918 109.94869,269.643125" id="Fill-150" fill="#94C234"></path>
                <path d="M92.8158814,281.492348 C93.4368856,281.547201 93.8866978,281.840645 93.8215478,282.147913 C93.7557047,282.455181 93.1998505,282.659878 92.5788463,282.605025 C91.9578421,282.550171 91.5080299,282.256728 91.5731799,281.94946 C91.639023,281.642191 92.1948772,281.437494 92.8158814,281.492348" id="Fill-152" fill="#94C234"></path>
                <path d="M56.7617898,149.220147 C56.7617898,149.220147 74.9138739,146.57291 81.3928073,132.005969 L73.0260623,122.089211 C73.0260623,122.089211 63.0521351,136.791758 50.8705046,136.14033 L56.7617898,149.220147 Z" id="Fill-154" fill="#278D3A"></path>
                <path d="M67.3106781,132.305658 C69.7843451,132.644417 71.5151196,134.924601 71.1763606,137.398929 C70.8376016,139.872596 68.5574168,141.60337 66.0830894,141.264611 C63.6094224,140.925192 61.8786479,138.645007 62.2174069,136.17134 C62.5568262,133.697673 64.837011,131.966899 67.3106781,132.305658" id="Fill-156" fill="#40B856"></path>
                <path d="M58.9020683,145.846419 C59.5230476,145.955597 59.9732575,146.542873 59.9078329,147.157265 C59.8418539,147.771657 59.2857448,148.181252 58.66532,148.072074 C58.0443407,147.962183 57.5941308,147.37562 57.6595554,146.761228 C57.72498,146.146123 58.2810891,145.737242 58.9020683,145.846419" id="Fill-158" fill="#94C234"></path>
                <path d="M77.1653239,131.727524 C77.5854894,131.177785 78.3006786,130.972375 78.762342,131.268023 C79.2240053,131.564265 79.2577223,132.249361 78.8375568,132.7991 C78.4173912,133.348839 77.702202,133.554249 77.2405387,133.258601 C76.7788753,132.962359 76.7451583,132.277263 77.1653239,131.727524" id="Fill-160" fill="#94C234"></path>
                <path d="M71.5131556,124.944801 C71.9333215,124.395007 72.6480115,124.189582 73.1097862,124.485395 C73.5715608,124.781207 73.6058267,125.466955 73.1848449,126.016749 C72.7654948,126.565795 72.0499889,126.771968 71.5882143,126.475408 C71.1264397,126.179595 71.0929896,125.494594 71.5131556,124.944801" id="Fill-162" fill="#94C234"></path>
                <path d="M55.5108447,136.794024 C56.1318489,136.848877 56.5816611,137.142321 56.5165111,137.449589 C56.4506681,137.756857 55.8948138,137.961554 55.2738096,137.906701 C54.6528054,137.851847 54.2029932,137.558404 54.2681432,137.251136 C54.3339863,136.943867 54.8898405,136.73917 55.5108447,136.794024" id="Fill-164" fill="#94C234"></path>
                <path d="M255.721985,302.962116 C255.721985,302.962116 273.87407,300.314879 280.353003,285.748587 L271.986258,275.83118 C271.986258,275.83118 262.012331,290.533727 249.8307,289.882299 L255.721985,302.962116 Z" id="Fill-178" fill="#278D3A"></path>
                <path d="M267.401329,286.047627 C269.874996,286.386386 271.605771,288.666571 271.267012,291.140898 C270.928253,293.614565 268.648068,295.34534 266.173741,295.006581 C263.700074,294.667161 261.969299,292.386977 262.308058,289.913309 C262.647477,287.439642 264.927662,285.708868 267.401329,286.047627" id="Fill-180" fill="#40B856"></path>
                <path d="M258.99272,299.588389 C259.613699,299.697566 260.063909,300.284842 259.998484,300.899234 C259.93306,301.513626 259.376396,301.923221 258.755971,301.814043 C258.134992,301.704152 257.684782,301.11759 257.750207,300.503198 C257.815631,299.888092 258.37174,299.479211 258.99272,299.588389" id="Fill-182" fill="#94C234"></path>
                <path d="M277.255975,285.469493 C277.676141,284.919754 278.39133,284.714344 278.852993,285.009992 C279.314657,285.306234 279.348374,285.99133 278.928208,286.541069 C278.508042,287.090808 277.792853,287.296218 277.33119,287.00057 C276.869527,286.704328 276.83581,286.019232 277.255975,285.469493" id="Fill-184" fill="#94C234"></path>
                <path d="M271.603807,278.68677 C272.023973,278.136977 272.738663,277.931551 273.200437,278.227364 C273.662212,278.523177 273.696478,279.208925 273.275496,279.758718 C272.856146,280.307765 272.14064,280.513937 271.678866,280.217378 C271.217091,279.921565 271.183641,279.236564 271.603807,278.68677" id="Fill-186" fill="#94C234"></path>
                <path d="M254.47104,290.535993 C255.092045,290.590846 255.541857,290.88429 255.476707,291.191558 C255.410864,291.498827 254.855009,291.703524 254.234005,291.64867 C253.613001,291.593817 253.163189,291.300373 253.228339,290.993105 C253.294182,290.685837 253.850036,290.48114 254.47104,290.535993" id="Fill-188" fill="#94C234"></path>
                <path d="M177.481538,318.183641 C177.481538,318.183641 188.969602,332.795631 204.821575,331.084087 L209.134296,318.686034 C209.134296,318.686034 191.392916,317.393697 185.777825,306.353483 L177.481538,318.183641 Z" id="Fill-190" fill="#278D3A"></path>
                <path d="M197.486012,319.323499 C198.439421,321.631091 197.341416,324.274093 195.033824,325.227501 C192.726232,326.18091 190.082571,325.082906 189.129822,322.775314 C188.176414,320.467722 189.274418,317.82472 191.58201,316.871312 C193.889602,315.917903 196.532604,317.015907 197.486012,319.323499" id="Fill-192" fill="#40B856"></path>
                <path d="M181.868764,318.446181 C182.16381,319.040817 181.957757,319.676462 181.407368,319.865561 C180.857664,320.054659 180.172416,319.725445 179.87737,319.13081 C179.581638,318.535604 179.788377,317.900528 180.338081,317.71143 C180.888469,317.522331 181.573717,317.851545 181.868764,318.446181" id="Fill-194" fill="#94C234"></path>
                <path d="M202.423489,327.838825 C203.046468,327.905456 203.519511,328.462864 203.479676,329.084037 C203.439841,329.704493 202.902618,330.153715 202.279639,330.086368 C201.656107,330.019737 201.183616,329.461612 201.223452,328.841156 C201.263287,328.220699 201.800509,327.771477 202.423489,327.838825" id="Fill-196" fill="#94C234"></path>
                <path d="M205.814982,319.922236 C206.438047,319.955594 206.91074,320.234628 206.871059,320.544767 C206.831378,320.855356 206.293941,321.079846 205.670877,321.046038 C205.047812,321.01268 204.575119,320.733645 204.6148,320.423506 C204.654481,320.113368 205.191918,319.888878 205.814982,319.922236" id="Fill-198" fill="#94C234"></path>
                <path d="M187.520982,311.663511 C187.816154,312.258645 187.609962,312.893645 187.05983,313.083006 C186.509698,313.271655 185.825242,312.942765 185.529215,312.348342 C185.234043,311.753208 185.441091,311.117496 185.990367,310.928847 C186.540499,310.739486 187.225811,311.068376 187.520982,311.663511" id="Fill-200" fill="#94C234"></path>
                <path d="M70.0882507,349.836743 C70.0882507,349.836743 81.5763145,364.448348 97.4282876,362.736849 L101.741009,350.339123 C101.741009,350.339123 83.9996286,349.04682 78.3845378,338.006241 L70.0882507,349.836743 Z" id="Fill-202" fill="#278D3A"></path>
                <path d="M90.0927248,350.976258 C91.0461333,353.28385 89.9481289,355.926851 87.640537,356.88026 C85.3329451,357.833668 82.6899435,356.735664 81.736535,354.428072 C80.7831265,352.12048 81.8811309,349.477478 84.1887228,348.52407 C86.4963147,347.570661 89.1393163,348.668666 90.0927248,350.976258" id="Fill-204" fill="#40B856"></path>
                <path d="M74.4754898,350.098939 C74.7705071,350.693575 74.5644741,351.32922 74.0141403,351.518319 C73.464491,351.707418 72.7793117,351.378204 72.4836099,350.783568 C72.1885927,350.188362 72.3953101,349.553287 72.9449594,349.364188 C73.4946087,349.175089 74.1797881,349.504303 74.4754898,350.098939" id="Fill-206" fill="#94C234"></path>
                <path d="M95.0302012,359.491583 C95.6531802,359.558214 96.1262239,360.116338 96.0863886,360.736795 C96.0465534,361.357251 95.5093307,361.806473 94.8863516,361.739126 C94.2628193,361.672495 93.7903289,361.114371 93.8301642,360.493914 C93.8699994,359.873458 94.4072221,359.424236 95.0302012,359.491583" id="Fill-208" fill="#94C234"></path>
                <path d="M98.4216948,351.574994 C99.0447592,351.608355 99.5174527,351.887409 99.4777715,352.197569 C99.4380903,352.50818 98.9006538,352.732235 98.2775894,352.698874 C97.6545251,352.665514 97.1818316,352.38646 97.2215128,352.0763 C97.261194,351.76614 97.7986305,351.541634 98.4216948,351.574994" id="Fill-210" fill="#94C234"></path>
                <path d="M80.127705,343.316271 C80.4228545,343.910695 80.2166776,344.546408 79.6665872,344.735769 C79.1164969,344.924419 78.4320921,344.595528 78.136087,344.000392 C77.8409374,343.405968 78.0471143,342.770255 78.5972047,342.581605 C79.1472951,342.392244 79.8325554,342.721135 80.127705,343.316271" id="Fill-212" fill="#94C234"></path>
                <path d="M215.91703,382.619613 C215.91703,382.619613 227.405094,397.231604 243.257067,395.52006 L247.569789,383.122007 C247.569789,383.122007 229.828408,381.82967 224.213317,370.789455 L215.91703,382.619613 Z" id="Fill-214" fill="#278D3A"></path>
                <path d="M235.921505,383.759472 C236.874913,386.067064 235.776909,388.710065 233.469317,389.663474 C231.161725,390.616882 228.518723,389.518878 227.565315,387.211286 C226.611906,384.903694 227.709911,382.260693 230.017503,381.307284 C232.325094,380.353876 234.968096,381.45188 235.921505,383.759472" id="Fill-216" fill="#40B856"></path>
                <path d="M220.304256,382.882153 C220.599303,383.476789 220.393249,384.112434 219.842861,384.301533 C219.293156,384.490632 218.607909,384.161418 218.312862,383.566782 C218.017131,382.971577 218.223869,382.336501 218.773573,382.147402 C219.323962,381.958303 220.009209,382.287517 220.304256,382.882153" id="Fill-218" fill="#94C234"></path>
                <path d="M240.858981,392.274797 C241.48196,392.342145 241.955004,392.899552 241.915168,393.520009 C241.875333,394.140465 241.33811,394.589687 240.715131,394.52234 C240.091599,394.455709 239.619109,393.898301 239.658944,393.277128 C239.698226,392.656672 240.236002,392.20745 240.858981,392.274797" id="Fill-220" fill="#94C234"></path>
                <path d="M244.250475,384.358214 C244.873539,384.391574 245.346232,384.670627 245.306551,384.980785 C245.26687,385.291395 244.729434,385.515448 244.106369,385.482088 C243.483305,385.448728 243.010611,385.169676 243.050293,384.859517 C243.089974,384.548907 243.62741,384.324854 244.250475,384.358214" id="Fill-222" fill="#94C234"></path>
                <path d="M225.956475,376.099485 C226.251646,376.694621 226.045454,377.329622 225.495322,377.518983 C224.945191,377.707633 224.260735,377.378742 223.964707,376.783606 C223.669536,376.189182 223.876584,375.553469 224.42586,375.36482 C224.975991,375.175458 225.661303,375.504349 225.956475,376.099485" id="Fill-224" fill="#94C234"></path>
                <path d="M111.91511,137.310736 C111.91511,137.310736 123.403174,151.922726 139.255147,150.211182 L143.567868,137.813129 C143.567868,137.813129 125.826488,136.520792 120.211397,125.480578 L111.91511,137.310736 Z" id="Fill-226" fill="#278D3A"></path>
                <path d="M131.919584,138.450594 C132.872993,140.758186 131.774988,143.401188 129.467396,144.354596 C127.159804,145.308005 124.516803,144.21 123.563394,141.902409 C122.609986,139.594817 123.70799,136.951815 126.015582,135.998407 C128.323174,135.044998 130.966176,136.143002 131.919584,138.450594" id="Fill-228" fill="#40B856"></path>
                <path d="M116.302349,137.573276 C116.597366,138.168481 116.391333,138.803557 115.841,138.992656 C115.29135,139.181754 114.606171,138.85254 114.310469,138.257904 C114.015452,137.662699 114.222169,137.027623 114.771819,136.838525 C115.322153,136.649426 116.006647,136.97864 116.302349,137.573276" id="Fill-230" fill="#94C234"></path>
                <path d="M136.85706,146.96592 C137.48004,147.033267 137.953083,147.590675 137.913248,148.211131 C137.873413,148.831588 137.33619,149.28081 136.713211,149.213462 C136.089679,149.146831 135.617188,148.589424 135.657023,147.968251 C135.696859,147.347794 136.234081,146.898572 136.85706,146.96592" id="Fill-232" fill="#94C234"></path>
                <path d="M140.248554,137.918875 C140.871618,137.952233 141.344312,138.231268 141.304631,138.541406 C141.26495,138.851996 140.727513,139.076486 140.104449,139.042677 C139.481384,139.009319 139.008691,138.730735 139.048372,138.420146 C139.088053,138.110007 139.62549,137.885517 140.248554,137.918875" id="Fill-234" fill="#94C234"></path>
                <path d="M121.954564,129.660152 C122.249714,130.255287 122.043537,130.890289 121.493447,131.07965 C120.943356,131.2683 120.258951,130.939409 119.962946,130.344273 C119.667797,129.749849 119.873974,129.114136 120.424064,128.925486 C120.974154,128.736125 121.659415,129.065016 121.954564,129.660152" id="Fill-236" fill="#94C234"></path>
                <path d="M40.1706188,271.309358 C40.1706188,271.309358 58.3022051,266.621853 63.3055168,251.088686 L53.7474708,241.917511 C53.7474708,241.917511 45.2133369,257.972545 32.783214,258.647784 L40.1706188,271.309358 Z" id="Fill-238" fill="#278D3A"></path>
                <path d="M48.7426921,253.224055 C51.2392085,253.29736 53.2027385,255.380949 53.1294281,257.876632 C53.0561177,260.372976 50.9723851,262.337031 48.4765291,262.263725 C45.9800127,262.18976 44.0158223,260.106831 44.0897932,257.610488 C44.1631036,255.114144 46.2461757,253.150749 48.7426921,253.224055" id="Fill-240" fill="#40B856"></path>
                <path d="M41.8525512,266.788366 C42.4768951,266.812056 42.9708451,267.337564 42.9570322,267.961425 C42.9426667,268.584567 42.4255111,269.071308 41.8011671,269.047617 C41.1773757,269.023208 40.6828732,268.498419 40.6966861,267.874558 C40.7110515,267.250697 41.2282072,266.764675 41.8525512,266.788366" id="Fill-242" fill="#94C234"></path>
                <path d="M58.9955408,251.65021 C59.3594433,251.075386 60.0652541,250.807716 60.573118,251.051 C61.0803154,251.294864 61.1962843,251.958525 60.8330483,252.532768 C60.4691458,253.107592 59.7626685,253.375843 59.2554711,253.131978 C58.7482737,252.888113 58.6316383,252.225034 58.9955408,251.65021" id="Fill-244" fill="#94C234"></path>
                <path d="M52.2128698,244.867354 C52.5768388,244.293056 53.2829722,244.024904 53.7903483,244.268213 C54.2977245,244.512253 54.4134566,245.175692 54.0503262,245.74999 C53.6863572,246.325018 52.9802238,246.59317 52.4728476,246.34913 C51.9654715,246.10509 51.8489008,245.441652 52.2128698,244.867354" id="Fill-246" fill="#94C234"></path>
                <path d="M37.3305962,258.874779 C37.955077,258.886896 38.449688,259.149435 38.4351812,259.461339 C38.4213653,259.773244 37.9032672,260.016484 37.2794772,260.004367 C36.6549963,259.992699 36.1603854,259.730161 36.1748921,259.417807 C36.1887081,259.105903 36.7061153,258.862662 37.3305962,258.874779" id="Fill-248" fill="#94C234"></path>
                <path d="M254.337279,200.593068 L255.601117,197.388242 C255.963639,196.469632 257.263396,196.469632 257.625253,197.388242 L258.889755,200.593068 C259.000175,200.873773 259.222344,201.095277 259.502384,201.205697 L262.70721,202.4702 C263.625821,202.832056 263.625821,204.131814 262.70721,204.494336 L259.502384,205.758173 C259.222344,205.868593 259.000175,206.090762 258.889755,206.371467 L257.625253,209.576293 C257.263396,210.494238 255.963639,210.494238 255.601117,209.576293 L254.337279,206.371467 C254.22686,206.090762 254.00469,205.868593 253.72465,205.758173 L250.519159,204.494336 C249.601214,204.131814 249.601214,202.832056 250.519159,202.4702 L253.72465,201.205697 C254.00469,201.095277 254.22686,200.873773 254.337279,200.593068" id="Fill-250" fill="#E3F4EE"></path>
                <path d="M213.644668,290.0561 L214.592877,287.652543 C214.864282,286.963468 215.839152,286.963468 216.111241,287.652543 L217.058766,290.0561 C217.14217,290.26665 217.308295,290.432766 217.518856,290.516166 L219.922534,291.463643 C220.610959,291.735035 220.610959,292.709856 219.922534,292.981931 L217.518856,293.930092 C217.308295,294.012808 217.14217,294.178924 217.058766,294.389475 L216.111241,296.793032 C215.839152,297.482106 214.864282,297.482106 214.592877,296.793032 L213.644668,294.389475 C213.561948,294.178924 213.39514,294.012808 213.185262,293.930092 L210.781584,292.981931 C210.092475,292.709856 210.092475,291.735035 210.781584,291.463643 L213.185262,290.516166 C213.39514,290.432766 213.561948,290.26665 213.644668,290.0561" id="Fill-252" fill="#E3F4EE"></path>
                <path d="M64.4246356,222.22876 L65.3728283,219.825203 C65.6442288,219.136129 66.619083,219.136129 66.8904835,219.825203 L67.8386762,222.22876 C67.9213953,222.439311 68.0882006,222.605427 68.2987582,222.688143 L70.702396,223.636304 C71.3908098,223.907695 71.3908098,224.8832 70.702396,225.154592 L68.2987582,226.102753 C68.0882006,226.185469 67.9213953,226.351585 67.8386762,226.562136 L66.8904835,228.965693 C66.619083,229.654767 65.6442288,229.654767 65.3728283,228.965693 L64.4246356,226.562136 C64.3419165,226.351585 64.1751112,226.185469 63.9645536,226.102753 L61.5609159,225.154592 C60.872502,224.8832 60.872502,223.907695 61.5609159,223.636304 L63.9645536,222.688143 C64.1751112,222.605427 64.3419165,222.439311 64.4246356,222.22876" id="Fill-254" fill="#E3F4EE"></path>
                <path d="M42.9460349,104.661006 L43.8942435,102.257328 C44.1656486,101.568903 45.1405192,101.568903 45.4119243,102.257328 L46.3601329,104.661006 C46.4428533,104.871567 46.6096615,105.037692 46.8202226,105.120412 L49.2232171,106.068621 C49.9123262,106.34071 49.9123262,107.31558 49.2232171,107.586985 L46.8202226,108.535194 C46.6096615,108.617914 46.4428533,108.784039 46.3601329,108.9946 L45.4119243,111.398278 C45.1405192,112.087387 44.1656486,112.087387 43.8942435,111.398278 L42.9460349,108.9946 C42.8633145,108.784039 42.6965063,108.617914 42.4859452,108.535194 L40.0822671,107.586985 C39.3938416,107.31558 39.3938416,106.34071 40.0822671,106.068621 L42.4859452,105.120412 C42.6965063,105.037692 42.8633145,104.871567 42.9460349,104.661006" id="Fill-256" fill="#E3F4EE"></path>
                <path d="M217.040025,23.4254195 L217.671731,21.822888 C217.852923,21.363914 218.50296,21.363914 218.684153,21.822888 L219.315859,23.4254195 C219.371556,23.5657203 219.482246,23.6764099 219.622547,23.7321072 L221.225078,24.3638134 C221.684052,24.545006 221.684052,25.1950429 221.225078,25.3762355 L219.622547,26.0079417 C219.482246,26.063639 219.371556,26.1743286 219.315859,26.3146294 L218.684153,27.9171609 C218.50296,28.3761349 217.852923,28.3761349 217.671731,27.9171609 L217.040025,26.3146294 C216.985032,26.1743286 216.873638,26.063639 216.733337,26.0079417 L215.130805,25.3762355 C214.671831,25.1950429 214.671831,24.545006 215.130805,24.3638134 L216.733337,23.7321072 C216.873638,23.6764099 216.985032,23.5657203 217.040025,23.4254195" id="Fill-258" fill="#E3F4EE"></path>
                <path d="M298.432832,258.560196 L299.064538,256.957665 C299.245731,256.498691 299.895768,256.498691 300.07696,256.957665 L300.708666,258.560196 C300.764364,258.700497 300.875053,258.811187 301.015354,258.866884 L302.617885,259.49859 C303.07686,259.679783 303.07686,260.32982 302.617885,260.511012 L301.015354,261.142718 C300.875053,261.198416 300.764364,261.309105 300.708666,261.449406 L300.07696,263.051937 C299.895768,263.510912 299.245731,263.510912 299.064538,263.051937 L298.432832,261.449406 C298.37784,261.309105 298.266445,261.198416 298.126144,261.142718 L296.523613,260.511012 C296.064639,260.32982 296.064639,259.679783 296.523613,259.49859 L298.126144,258.866884 C298.266445,258.811187 298.37784,258.700497 298.432832,258.560196" id="Fill-260" fill="#F2F3CD"></path>
                <path d="M100.59912,319.447583 L101.547083,317.044031 C101.818863,316.355435 102.793611,316.355435 103.065391,317.044031 L104.013353,319.447583 C104.096325,319.657951 104.26292,319.824547 104.473288,319.907518 L106.876841,320.85548 C107.565436,321.12726 107.565436,322.102009 106.876841,322.373788 L104.473288,323.321751 C104.26292,323.404722 104.096325,323.570665 104.013353,323.781033 L103.065391,326.185238 C102.793611,326.873834 101.818863,326.873834 101.547083,326.185238 L100.59912,323.781033 C100.516149,323.570665 100.349553,323.404722 100.139185,323.321751 L97.7356333,322.373788 C97.0470375,322.102009 97.0470375,321.12726 97.7356333,320.85548 L100.139185,319.907518 C100.349553,319.824547 100.516149,319.657951 100.59912,319.447583" id="Fill-262" fill="#E3F4EE"></path>
                <path d="M245.304975,364.980212 L245.620809,364.178917 C245.711619,363.949323 246.036592,363.949323 246.12683,364.178917 L246.442665,364.980212 C246.47065,365.050461 246.52605,365.10586 246.596299,365.133274 L247.397593,365.44968 C247.627187,365.539919 247.627187,365.864891 247.397593,365.955701 L246.596299,366.271536 C246.52605,366.29895 246.47065,366.35492 246.442665,366.424598 L246.12683,367.225893 C246.036592,367.455487 245.711619,367.455487 245.620809,367.225893 L245.304975,366.424598 C245.277561,366.35492 245.22159,366.29895 245.151912,366.271536 L244.350617,365.955701 C244.121023,365.864891 244.121023,365.539919 244.350617,365.44968 L245.151912,365.133274 C245.22159,365.10586 245.277561,365.050461 245.304975,364.980212" id="Fill-264" fill="#40B856"></path>
                <path d="M47.4944923,179.114411 L46.2306392,175.909585 C45.8681129,174.990974 44.5683397,174.990974 44.2058134,175.909585 L42.9419602,179.114411 C42.8315394,179.395116 42.6093673,179.61662 42.3293241,179.727039 L39.1244586,180.991542 C38.2058369,181.353399 38.2058369,182.653156 39.1244586,183.015678 L42.3293241,184.279516 C42.6093673,184.389935 42.8315394,184.612105 42.9419602,184.89281 L44.2058134,188.097636 C44.5683397,189.015581 45.8681129,189.015581 46.2306392,188.097636 L47.4944923,184.89281 C47.6049131,184.612105 47.8270852,184.389935 48.1071285,184.279516 L51.311994,183.015678 C52.2306156,182.653156 52.2306156,181.353399 51.311994,180.991542 L48.1071285,179.727039 C47.8270852,179.61662 47.6049131,179.395116 47.4944923,179.114411" id="Fill-266" fill="#E3F4EE"></path>
                <path d="M89.3172769,268.577442 L88.3690683,266.173885 C88.0976632,265.484811 87.1227926,265.484811 86.8513876,266.173885 L85.9031789,268.577442 C85.8204585,268.787993 85.6536504,268.954109 85.4437729,269.036825 L83.0400948,269.984986 C82.3509857,270.257061 82.3509857,271.231882 83.0400948,271.503274 L85.4437729,272.451435 C85.6536504,272.534151 85.8204585,272.700267 85.9031789,272.910817 L86.8513876,275.314374 C87.1227926,276.003449 88.0976632,276.003449 88.3690683,275.314374 L89.3172769,272.910817 C89.3999974,272.700267 89.5668055,272.534151 89.7773666,272.451435 L92.1810448,271.503274 C92.8694702,271.231882 92.8694702,270.257061 92.1810448,269.984986 L89.7773666,269.036825 C89.5668055,268.954109 89.3999974,268.787993 89.3172769,268.577442" id="Fill-268" fill="#E3F4EE"></path>
                <path d="M208.537595,100.750103 L207.589386,98.3465457 C207.317981,97.6574713 206.34311,97.6574713 206.071022,98.3465457 L205.123497,100.750103 C205.040092,100.960653 204.873968,101.126769 204.663407,101.210169 L202.259729,102.157646 C201.571303,102.429721 201.571303,103.404543 202.259729,103.675934 L204.663407,104.624095 C204.873968,104.706811 205.040092,104.872928 205.123497,105.083478 L206.071022,107.487035 C206.34311,108.176109 207.317981,108.176109 207.589386,107.487035 L208.537595,105.083478 C208.620315,104.872928 208.787123,104.706811 208.997001,104.624095 L211.400679,103.675934 C212.089788,103.404543 212.089788,102.429721 211.400679,102.157646 L208.997001,101.210169 C208.787123,101.126769 208.620315,100.960653 208.537595,100.750103" id="Fill-270" fill="#E3F4EE"></path>
                <path d="M260.016138,84.3131701 L259.067945,81.9096131 C258.796545,81.2205387 257.82169,81.2205387 257.55029,81.9096131 L256.602097,84.3131701 C256.519378,84.5237206 256.352573,84.6898367 256.142015,84.772553 L253.738378,85.7207138 C253.049964,85.9921052 253.049964,86.9669267 253.738378,87.2390017 L256.142015,88.1871625 C256.352573,88.2698788 256.519378,88.4359949 256.602097,88.6465454 L257.55029,91.0501024 C257.82169,91.7391768 258.796545,91.7391768 259.067945,91.0501024 L260.016138,88.6465454 C260.098857,88.4359949 260.265662,88.2698788 260.475536,88.1871625 L262.879858,87.2390017 C263.568271,86.9669267 263.568271,85.9921052 262.879858,85.7207138 L260.475536,84.772553 C260.265662,84.6898367 260.098857,84.5237206 260.016138,84.3131701" id="Fill-272" fill="#E3F4EE"></path>
                <g id="Group-276" transform="translate(81.392807, 0.000000)">
                    <mask id="mask-3" fill="white">
                        <use xlink:href="#path-2"></use>
                    </mask>
                    <g id="Clip-275"></g>
                    <path d="M4.57746365,2.05091376 L3.96973069,0.649354283 C3.79541443,0.247939756 3.17004636,0.247939756 2.9957301,0.649354283 L2.38731887,2.05091376 C2.33441354,2.17361958 2.22792462,2.27042769 2.09294821,2.31914006 L0.551232787,2.87162457 C0.109676808,3.0300939 0.109676808,3.59861032 0.551232787,3.75707965 L2.09294821,4.30956416 C2.22792462,4.35827652 2.33441354,4.45508464 2.38731887,4.57779046 L2.9957301,5.97934994 C3.17004636,6.38076446 3.79541443,6.38076446 3.96973069,5.97934994 L4.57746365,4.57779046 C4.63036898,4.45508464 4.73753618,4.35827652 4.87251258,4.30956416 L6.41422801,3.75707965 C6.85578399,3.59861032 6.85578399,3.0300939 6.41422801,2.87162457 L4.87251258,2.31914006 C4.73753618,2.27042769 4.63036898,2.17361958 4.57746365,2.05091376" id="Fill-274" fill="#8EE2E3" mask="url(#mask-3)"></path>
                </g>
                <path d="M4.52928419,237.081539 L3.89757797,235.479007 C3.71638546,235.020033 3.06634848,235.020033 2.88515597,235.479007 L2.25274472,237.081539 C2.19775244,237.221839 2.08706285,237.332529 1.94676203,237.388226 L0.344230533,238.019933 C-0.114743511,238.201125 -0.114743511,238.851162 0.344230533,239.032355 L1.94676203,239.664061 C2.08706285,239.719758 2.19775244,239.830448 2.25274472,239.970749 L2.88515597,241.57328 C3.06634848,242.032254 3.71638546,242.032254 3.89757797,241.57328 L4.52928419,239.970749 C4.58427647,239.830448 4.69567109,239.719758 4.83597191,239.664061 L6.43850341,239.032355 C6.89747745,238.851162 6.89747745,238.201125 6.43850341,238.019933 L4.83597191,237.388226 C4.69567109,237.332529 4.58427647,237.221839 4.52928419,237.081539" id="Fill-277" fill="#E3F4EE"></path>
                <path d="M201.23254,297.969322 L200.284577,295.565847 C200.012798,294.87662 199.038049,294.87662 198.766269,295.565847 L197.818307,297.969322 C197.735336,298.179683 197.56874,298.346273 197.358372,298.429242 L194.95482,299.377174 C194.266224,299.648945 194.266224,300.623662 194.95482,300.895433 L197.358372,301.843365 C197.56874,301.926334 197.735336,302.092271 197.818307,302.302632 L198.766269,304.706107 C199.038049,305.395334 200.012798,305.395334 200.284577,304.706107 L201.23254,302.302632 C201.315511,302.092271 201.482107,301.926334 201.692475,301.843365 L204.096027,300.895433 C204.784623,300.623662 204.784623,299.648945 204.096027,299.377174 L201.692475,298.429242 C201.482107,298.346273 201.315511,298.179683 201.23254,297.969322" id="Fill-279" fill="#E3F4EE"></path>
                <path d="M55.3962299,343.501554 L55.0803953,342.70026 C54.9895857,342.470665 54.664613,342.470665 54.5743745,342.70026 L54.2579688,343.501554 C54.2305546,343.571803 54.175155,343.627203 54.1049061,343.654617 L53.3036114,343.971023 C53.0740174,344.061261 53.0740174,344.386234 53.3036114,344.477043 L54.1049061,344.792878 C54.175155,344.820292 54.2305546,344.875692 54.2579688,344.945941 L54.5743745,345.747235 C54.664613,345.976829 54.9895857,345.976829 55.0803953,345.747235 L55.3962299,344.945941 C55.4236441,344.875692 55.4796148,344.820292 55.5492926,344.792878 L56.3505873,344.477043 C56.5801814,344.386234 56.5801814,344.061261 56.3505873,343.971023 L55.5492926,343.654617 C55.4796148,343.627203 55.4236441,343.571803 55.3962299,343.501554" id="Fill-281" fill="#40B856"></path>
            </g>
        </g>
    </g>
</svg>