<?xml version="1.0" encoding="UTF-8"?>
<svg width="32px" height="24px" viewBox="0 0 32 24" version="1.1" xmlns="http://www.w3.org/2000/svg" xmlns:xlink="http://www.w3.org/1999/xlink">
    <!-- Generator: Sketch 48.2 (47327) - http://www.bohemiancoding.com/sketch -->
    <title>envelope (3)</title>
    <desc>Created with Sketch.</desc>
    <defs></defs>
    <g id="Landing-02" stroke="none" stroke-width="1" fill="none" fill-rule="evenodd" transform="translate(-512.000000, -3992.000000)">
        <g id="footer" transform="translate(0.000000, 3601.000000)" fill="#40B856" fill-rule="nonzero">
            <g id="envelope-(3)" transform="translate(512.000000, 391.000000)">
                <path d="M27.4803846,0.0485748018 L3.82769438,0.0485748018 C1.71630966,0.0485748018 0,1.76488447 0,3.87626919 L0,20.0419632 C0,22.153348 1.71630966,23.8696576 3.82769438,23.8696576 L27.4739079,23.8696576 C29.5852926,23.8696576 31.3016023,22.153348 31.3016023,20.0419632 L31.3016023,3.88274583 C31.3080789,1.77136111 29.5917693,0.0485748018 27.4803846,0.0485748018 Z M29.5593861,20.0419632 C29.5593861,21.1883286 28.6267499,22.1209647 27.4803846,22.1209647 L3.82769438,22.1209647 C2.68132906,22.1209647 1.74869287,21.1883286 1.74869287,20.0419632 L1.74869287,3.88274583 C1.74869287,2.7363805 2.68132906,1.80374431 3.82769438,1.80374431 L27.4739079,1.80374431 C28.6202732,1.80374431 29.5529094,2.7363805 29.5529094,3.88274583 L29.5529094,20.0419632 L29.5593861,20.0419632 Z" id="Shape"></path>
                <path d="M19.7407995,11.7583404 L27.3961882,4.8931017 C27.7524034,4.56926969 27.7847866,4.01875527 27.4609546,3.65606342 C27.1371226,3.2998482 26.5866082,3.267465 26.2239163,3.59129701 L15.6669927,13.0666217 L13.6074212,11.2272559 C13.6009445,11.2207792 13.5944679,11.2143026 13.5944679,11.2078259 C13.5491314,11.1624895 13.5037949,11.1236296 13.4519818,11.0847698 L5.07120931,3.58482037 C4.70851746,3.26098836 4.15800304,3.29337156 3.83417102,3.65606342 C3.51033901,4.01875527 3.54272221,4.56926969 3.90541407,4.8931017 L11.6514758,11.8166301 L3.93779727,19.038084 C3.58805869,19.3683926 3.56862877,19.9189071 3.89893743,20.2751223 C4.07380671,20.4564682 4.30696576,20.5536178 4.54012481,20.5536178 C4.75385394,20.5536178 4.96758307,20.4758981 5.13597571,20.3204588 L12.9662338,12.9953786 L15.0905718,14.8930342 C15.2589644,15.041997 15.4662169,15.11324 15.6734694,15.11324 C15.8807219,15.11324 16.094451,15.0355203 16.256367,14.8865576 L18.4389948,12.9306122 L26.2239163,20.3269354 C26.392309,20.4888514 26.6125148,20.5665711 26.8262439,20.5665711 C27.0594029,20.5665711 27.2860853,20.4758981 27.4609546,20.2945522 C27.7912633,19.9448136 27.77831,19.3878226 27.4285714,19.0575139 L19.7407995,11.7583404 Z" id="Shape"></path>
            </g>
        </g>
    </g>
</svg>