<?xml version="1.0" encoding="UTF-8"?>
<svg width="833px" height="262px" viewBox="0 0 833 262" version="1.1" xmlns="http://www.w3.org/2000/svg" xmlns:xlink="http://www.w3.org/1999/xlink">
  <!-- Generator: Sketch 48.2 (47327) - http://www.bohemiancoding.com/sketch -->
  <title>background</title>
  <desc>Created with Sketch.</desc>
  <defs>
    <rect id="path-1" x="0" y="0" width="833" height="262"></rect>
  </defs>
  <g id="New" stroke="none" stroke-width="1" fill="none" fill-rule="evenodd">
    <g id="background">
      <mask id="mask-2" fill="white">
        <use xlink:href="#path-1"></use>
      </mask>
      <g mask="url(#mask-2)" id="Path-2">
        <g transform="translate(-200.000000, -482.000000)">
          <path d="M177.825395,434.463331 C395.008432,534.699358 368.004076,592.7686 432.97067,663.464288 C497.937265,734.159977 634.478838,791.99976 768.827926,689.453895 C858.393984,621.089985 918.041589,597.883168 947.770741,619.833444 L986,165.486863 L71.4158099,48 C-2.43315804,238.818203 33.0367037,367.639313 177.825395,434.463331 Z" fill="#2BA942" transform="translate(510.000000, 396.500000) rotate(-6.000000) translate(-510.000000, -396.500000) "></path>
          <path d="M233.245181,423.103235 C424.267111,527.15809 384.516438,596.84679 449.55178,667.440824 C514.587122,738.034859 669.873081,781.932505 804.364336,679.534092 C894.025174,611.268483 951.396749,611.447379 976.479064,680.070779 L1021,163.648199 L149.694705,52 C78.047069,230.032253 105.897228,353.733332 233.245181,423.103235 Z" fill="#40B856" transform="translate(566.000000, 396.000000) rotate(-6.000000) translate(-566.000000, -396.000000) "></path>
          <path d="M194.39582,136.345079 C149.205491,277.242234 179.110175,378.133196 284.109872,439.017965 C441.609416,530.345119 406.904244,583.221861 470.037383,651.916649 C533.170522,720.611437 683.170749,770.45865 813.728303,670.815141 C900.766673,604.386135 973.857238,604.386135 1033,670.815141 L1033,66 L218.389333,66 L194.39582,136.345079 Z" fill="#102136"></path>
        </g>
      </g>
    </g>
  </g>
</svg>
