<?xml version="1.0" encoding="UTF-8"?>
<svg width="272px" height="272px" viewBox="0 0 272 272" version="1.1" xmlns="http://www.w3.org/2000/svg" xmlns:xlink="http://www.w3.org/1999/xlink">
    <!-- Generator: Sketch 48.2 (47327) - http://www.bohemiancoding.com/sketch -->
    <title>illus-01</title>
    <desc>Created with Sketch.</desc>
    <defs>
        <circle id="path-1" cx="136" cy="136" r="136"></circle>
        <path d="M11.925,3.53333333 L11.925,3.53333333 C17.0474411,3.53333333 21.2,7.68589228 21.2,12.8083333 L21.2,53 L2.65,53 L2.65,12.8083333 C2.65,7.68589228 6.80255895,3.53333333 11.925,3.53333333 Z" id="path-3"></path>
        <path d="M23.4083333,24.7333333 L23.4083333,24.7333333 C28.5307744,24.7333333 32.6833333,28.8858923 32.6833333,34.0083333 L32.6833333,53 L14.1333333,53 L14.1333333,34.0083333 C14.1333333,28.8858923 18.2858923,24.7333333 23.4083333,24.7333333 Z" id="path-4"></path>
    </defs>
    <g id="Illustrations" stroke="none" stroke-width="1" fill="none" fill-rule="evenodd" transform="translate(-24.000000, -45.000000)">
        <g id="illus-01" transform="translate(24.000000, 45.000000)">
            <mask id="mask-2" fill="white">
                <use xlink:href="#path-1"></use>
            </mask>
            <use id="Oval-5" fill="#E3F4EE" xlink:href="#path-1"></use>
            <g id="Page-1" mask="url(#mask-2)">
                <g transform="translate(109.000000, 37.000000)">
                    <path d="M26.5822785,58.2267969 L28.4976286,53.7933849 C32.703613,44.0557264 41.8256628,37.5292701 52.1693322,36.8561342 L54.4303797,36.7088608 C50.9640631,49.4736296 39.6269031,58.2820244 26.7356622,58.2275973 L26.5822785,58.2267969 Z" id="Fill-1" stroke="none" fill="#AFE877" fill-rule="evenodd"></path>
                    <path d="M26.5822785,58.2267969 L28.4976286,53.7933849 C32.703613,44.0557264 41.8256628,37.5292701 52.1693322,36.8561342 L54.4303797,36.7088608 C50.9640631,49.4736296 39.6269031,58.2820244 26.7356622,58.2275973 L26.5822785,58.2267969 Z" id="Stroke-3" stroke="#278D3A" stroke-width="2" fill="none" stroke-linecap="round"></path>
                    <path d="M25.6697931,17.721519 L25.4043554,15.1353204 C24.8218469,9.45668533 27.1664253,3.89285066 31.489787,0.698369276 L32.4344543,0 C34.0874402,6.87367568 31.345069,14.1108861 25.7366979,17.6792661 L25.6697931,17.721519 Z" id="Fill-5" stroke="none" fill="#AFE877" fill-rule="evenodd"></path>
                    <path d="M25.6697931,17.721519 L25.4043554,15.1353204 C24.8218469,9.45668533 27.1664253,3.89285066 31.489787,0.698369276 L32.4344543,0 C34.0874402,6.87367568 31.345069,14.1108861 25.7366979,17.6792661 L25.6697931,17.721519 Z" id="Stroke-7" stroke="#278D3A" stroke-width="2" fill="none" stroke-linecap="round"></path>
                    <path d="M24.0506329,50.6329114 L20.6737779,40.7698931 C18.8026531,35.3065047 14.6333486,30.9998852 9.32294721,29.0474469 L2.61871772,26.5822785 C1.67325922,37.2190814 8.51984035,46.9398484 18.6542116,49.3495232 L24.0506329,50.6329114 Z" id="Fill-9" stroke="none" fill="#AFE877" fill-rule="evenodd"></path>
                    <path d="M24.0506329,50.6329114 L20.6737779,40.7698931 C18.8026531,35.3065047 14.6333486,30.9998852 9.32294721,29.0474469 L2.61871772,26.5822785 C1.67325922,37.2190814 8.51984035,46.9398484 18.6542116,49.3495232 L24.0506329,50.6329114 Z" id="Stroke-11" stroke="#278D3A" stroke-width="2" fill="none" stroke-linecap="round"></path>
                    <path d="M45.5696203,17.721519 L38.0392461,21.9767798 C33.8684691,24.3340504 30.9699472,28.4675742 30.1493896,33.2287549 L29.1139241,39.2405063 C37.8977976,38.5243135 44.8107999,31.3600132 45.3062603,22.4605657 L45.5696203,17.721519 Z" id="Fill-13" stroke="none" fill="#AFE877" fill-rule="evenodd"></path>
                    <path d="M45.5696203,17.721519 L38.0392461,21.9767798 C33.8684691,24.3340504 30.9699472,28.4675742 30.1493896,33.2287549 L29.1139241,39.2405063 C37.8977976,38.5243135 44.8107999,31.3600132 45.3062603,22.4605657 L45.5696203,17.721519 Z" id="Stroke-15" stroke="#278D3A" stroke-width="2" fill="none" stroke-linecap="round"></path>
                    <path d="M13.9240506,13.9240506 L15.5706758,19.0002499 C16.4825551,21.8122722 18.6875872,24.0854549 21.5733515,25.1894006 L25.2161027,26.5822785 C25.9699123,21.2051395 22.4073874,16.1274393 16.8717719,14.6895331 L13.9240506,13.9240506 Z" id="Fill-17" stroke="none" fill="#AFE877" fill-rule="evenodd"></path>
                    <path d="M13.9240506,13.9240506 L15.5706758,19.0002499 C16.4825551,21.8122722 18.6875872,24.0854549 21.5733515,25.1894006 L25.2161027,26.5822785 C25.9699123,21.2051395 22.4073874,16.1274393 16.8717719,14.6895331 L13.9240506,13.9240506 Z" id="Stroke-19" stroke="#278D3A" stroke-width="2" fill="none" stroke-linecap="round"></path>
                    <polyline id="Stroke-21" stroke="#278D3A" stroke-width="2" fill="none" stroke-linecap="round" points="25.7393589 17.721519 24.0506329 26.5066904 27.8481013 38.7586352 25.0941789 57.9912674 25.0941789 64.556962"></polyline>
                    <path d="M43.3900227,97.4683544 L7.24288865,97.4683544 L0.0411489997,64.4795499 C-0.211880939,63.2114768 0.734097251,62.0253165 1.99770877,62.0253165 L48.6352026,62.0253165 C49.8988141,62.0253165 50.8447923,63.2114768 50.5917624,64.4795499 L43.3900227,97.4683544 Z" id="Fill-23" stroke="none" fill="#40B856" fill-rule="evenodd"></path>
                    <path d="M43.3900227,97.4683544 L7.24288865,97.4683544 L0.0411489997,64.4795499 C-0.211880939,63.2114768 0.734097251,62.0253165 1.99770877,62.0253165 L48.6352026,62.0253165 C49.8988141,62.0253165 50.8447923,63.2114768 50.5917624,64.4795499 L43.3900227,97.4683544 Z" id="Stroke-25" stroke="#278D3A" stroke-width="2" fill="none"></path>
                    <path d="M45.1674699,100 L6.73126427,100 L2.7661853,94.4040506 C2.16965539,93.5617722 2.78002233,92.4050633 3.82010606,92.4050633 L48.0786281,92.4050633 C49.1187118,92.4050633 49.7290788,93.5617722 49.1325489,94.4040506 L45.1674699,100 Z" id="Fill-27" stroke="none" fill="#40B856" fill-rule="evenodd"></path>
                    <path d="M45.1674699,100 L6.73126427,100 L2.7661853,94.4040506 C2.16965539,93.5617722 2.78002233,92.4050633 3.82010606,92.4050633 L48.0786281,92.4050633 C49.1187118,92.4050633 49.7290788,93.5617722 49.1325489,94.4040506 L45.1674699,100 Z" id="Stroke-29" stroke="#278D3A" stroke-width="2" fill="none"></path>
                    <path d="M50.6329114,67.0886076 L13.9240506,67.0886076" id="Stroke-31" stroke="#278D3A" stroke-width="2" fill="none" stroke-linecap="round"></path>
                    <path d="M48.1012658,73.4177215 L31.6455696,73.4177215" id="Stroke-33" stroke="#278D3A" stroke-width="2" fill="none" stroke-linecap="round"></path>
                    <path d="M48.1012658,77.2151899 L39.2405063,77.2151899" id="Stroke-35" stroke="#278D3A" stroke-width="2" fill="none" stroke-linecap="round"></path>
                    <path d="M46.835443,82.278481 L40.5063291,82.278481" id="Stroke-37" stroke="#278D3A" stroke-width="2" fill="none" stroke-linecap="round"></path>
                </g>
            </g>
            <g id="Group-18" mask="url(#mask-2)">
                <g transform="translate(29.000000, 47.000000)">
                    <g id="Group-17" transform="translate(7.000000, 0.000000)">
                        <g id="Rectangle-3">
                            <use fill="#40B856" fill-rule="evenodd" xlink:href="#path-3"></use>
                            <path stroke="#278D3A" stroke-width="2" d="M3.65,52 L20.2,52 L20.2,12.8083333 C20.2,8.23817703 16.4951563,4.53333333 11.925,4.53333333 C7.3548437,4.53333333 3.65,8.23817703 3.65,12.8083333 L3.65,52 Z"></path>
                        </g>
                        <path d="M0.441666667,10.1583333 L5.74166667,15.4583333" id="Line-2" stroke="#278D3A" stroke-width="2" stroke-linecap="round"></path>
                        <path d="M0.441666667,20.7583333 L5.74166667,26.0583333" id="Line-2" stroke="#278D3A" stroke-width="2" stroke-linecap="round"></path>
                        <g id="Rectangle-3">
                            <use fill="#40B856" fill-rule="evenodd" xlink:href="#path-4"></use>
                            <path stroke="#278D3A" stroke-width="2" d="M15.1333333,52 L31.6833333,52 L31.6833333,34.0083333 C31.6833333,29.438177 27.9784896,25.7333333 23.4083333,25.7333333 C18.838177,25.7333333 15.1333333,29.438177 15.1333333,34.0083333 L15.1333333,52 Z"></path>
                        </g>
                        <path d="M6.36621094,31.2424944 L9.32527902,35.0632068" id="Path-3" stroke="#278D3A" stroke-width="2" stroke-linecap="round"></path>
                        <path d="M1.94954427,36.5424944 L4.90861235,40.3632068" id="Path-3" stroke="#278D3A" stroke-width="2" stroke-linecap="round"></path>
                        <path d="M14.3162109,36.5424944 L17.275279,40.3632068" id="Path-3" stroke="#278D3A" stroke-width="2" stroke-linecap="round"></path>
                        <path d="M16.9662109,25.0591611 L19.925279,28.8798735" id="Path-3" stroke="#278D3A" stroke-width="2" stroke-linecap="round"></path>
                        <path d="M16.9662109,3.85916109 L19.925279,7.67987351" id="Path-3" stroke="#278D3A" stroke-width="2" stroke-linecap="round" transform="translate(18.445745, 5.769517) scale(-1, 1) translate(-18.445745, -5.769517) "></path>
                        <path d="M18.7328776,17.9924944 L21.6919457,21.8132068" id="Path-3" stroke="#278D3A" stroke-width="2" stroke-linecap="round" transform="translate(20.212412, 19.902851) scale(-1, 1) translate(-20.212412, -19.902851) "></path>
                        <path d="M15.1995443,12.6924944 L18.1586124,16.5132068" id="Path-3" stroke="#278D3A" stroke-width="2" stroke-linecap="round" transform="translate(16.679078, 14.602851) scale(-1, 1) translate(-16.679078, -14.602851) "></path>
                        <path d="M27.5662109,25.0591611 L30.525279,28.8798735" id="Path-3" stroke="#278D3A" stroke-width="2" stroke-linecap="round" transform="translate(29.045745, 26.969517) scale(-1, 1) translate(-29.045745, -26.969517) "></path>
                        <path d="M31.0995443,36.5424944 L34.0586124,40.3632068" id="Path-3" stroke="#278D3A" stroke-width="2" stroke-linecap="round" transform="translate(32.579078, 38.452851) scale(-1, 1) translate(-32.579078, -38.452851) "></path>
                        <path d="M22.525,33.125 L23.4083333,38.425" id="Line-3" stroke="#278D3A" stroke-width="2" stroke-linecap="round"></path>
                        <path d="M10.1583333,39.3083333 L11.0416667,44.6083333" id="Line-3" stroke="#278D3A" stroke-width="2" stroke-linecap="round"></path>
                        <path d="M9.275,0.441666667 L10.1583333,5.74166667" id="Line-3" stroke="#278D3A" stroke-width="2" stroke-linecap="round"></path>
                        <path d="M10.1583333,11.0416667 L10.5939906,13.6556106" id="Line-3" stroke="#278D3A" stroke-width="2" stroke-linecap="round"></path>
                        <path d="M9.70442456,20.0398713 L11.0478994,22.3240726" id="Line-3" stroke="#278D3A" stroke-width="2" stroke-linecap="round"></path>
                        <path d="M19.4210912,41.2398713 L20.7645661,43.5240726" id="Line-3" stroke="#278D3A" stroke-width="2" stroke-linecap="round"></path>
                        <path d="M23.8377579,23.5732047 L25.1812328,25.8574059" id="Line-3" stroke="#278D3A" stroke-width="2" stroke-linecap="round" transform="translate(24.509495, 24.715305) scale(-1, 1) translate(-24.509495, -24.715305) "></path>
                        <path d="M26.4877579,33.2898713 L27.8312328,35.5740726" id="Line-3" stroke="#278D3A" stroke-width="2" stroke-linecap="round" transform="translate(27.159495, 34.431972) scale(-1, 1) translate(-27.159495, -34.431972) "></path>
                        <path d="M25.6044246,43.006538 L26.9478994,45.2907392" id="Line-3" stroke="#278D3A" stroke-width="2" stroke-linecap="round" transform="translate(26.276162, 44.148639) scale(-1, 1) translate(-26.276162, -44.148639) "></path>
                        <path d="M13.4328776,28.5924944 L16.3919457,32.4132068" id="Path-3" stroke="#278D3A" stroke-width="2" stroke-linecap="round"></path>
                    </g>
                    <g id="Page-1" transform="translate(0.000000, 52.000000)">
                        <path d="M43.3900227,35.4683544 L7.24288865,35.4683544 L0.0411489997,2.47954993 C-0.211880939,1.21147679 0.734097251,0.0253164557 1.99770877,0.0253164557 L48.6352026,0.0253164557 C49.8988141,0.0253164557 50.8447923,1.21147679 50.5917624,2.47954993 L43.3900227,35.4683544 Z" id="Fill-23" fill="#40B856"></path>
                        <path d="M43.3900227,35.4683544 L7.24288865,35.4683544 L0.0411489997,2.47954993 C-0.211880939,1.21147679 0.734097251,0.0253164557 1.99770877,0.0253164557 L48.6352026,0.0253164557 C49.8988141,0.0253164557 50.8447923,1.21147679 50.5917624,2.47954993 L43.3900227,35.4683544 Z" id="Stroke-25" stroke="#278D3A" stroke-width="2"></path>
                        <path d="M45.1674699,38 L6.73126427,38 L2.7661853,32.4040506 C2.16965539,31.5617722 2.78002233,30.4050633 3.82010606,30.4050633 L48.0786281,30.4050633 C49.1187118,30.4050633 49.7290788,31.5617722 49.1325489,32.4040506 L45.1674699,38 Z" id="Fill-27" fill="#40B856"></path>
                        <path d="M45.1674699,38 L6.73126427,38 L2.7661853,32.4040506 C2.16965539,31.5617722 2.78002233,30.4050633 3.82010606,30.4050633 L48.0786281,30.4050633 C49.1187118,30.4050633 49.7290788,31.5617722 49.1325489,32.4040506 L45.1674699,38 Z" id="Stroke-29" stroke="#278D3A" stroke-width="2"></path>
                        <path d="M38.6329114,5.08860759 L18.6329114,5.08860759" id="Stroke-31" stroke="#278D3A" stroke-width="2" stroke-linecap="round"></path>
                        <path d="M28.4556962,11 L12,11" id="Stroke-33" stroke="#278D3A" stroke-width="2" stroke-linecap="round"></path>
                        <path d="M41.1012658,18.2151899 L32.2405063,18.2151899" id="Stroke-35" stroke="#278D3A" stroke-width="2" stroke-linecap="round"></path>
                        <path d="M39.835443,23.278481 L33.5063291,23.278481" id="Stroke-37" stroke="#278D3A" stroke-width="2" stroke-linecap="round"></path>
                    </g>
                </g>
            </g>
            <g id="Group-18" mask="url(#mask-2)">
                <g transform="translate(189.000000, 46.000000)">
                    <path d="M46.9304134,52.2505862 L43.5229112,52.2505862 C39.5361979,48.8442504 33.6759706,46.83334 27.2773546,46.6650352 L27.2773546,41.5038037 L31.3043071,37.4768511 C32.0409761,37.6137811 32.7872092,37.6818961 33.5348418,37.6818961 C36.9796673,37.6818961 40.4411717,36.2574284 43.0161306,33.6824695 C46.2718901,30.4267099 47.6879601,25.7546471 46.7119554,21.4896418 C46.6370755,21.1624796 46.3815274,20.9069315 46.0543652,20.8320516 C41.7893598,19.8560469 37.117297,21.2722335 33.8615375,24.5278764 C30.7276619,27.6616353 29.2993452,32.1075421 30.0671558,36.2398165 L27.2773546,39.0296177 L27.2773546,22.89988 L29.9046828,20.2725517 C30.4123965,20.3592118 30.925942,20.4019004 31.4399541,20.4019004 C34.0061653,20.4019004 36.5832237,19.3421514 38.4994261,17.4258324 C40.9228757,15.0024995 41.976443,11.5223335 41.2489882,8.34355324 C41.1741083,8.01627441 40.9185602,7.76084297 40.591398,7.68596306 C37.4126178,6.95874157 33.9325684,8.01207554 31.5091188,10.4355251 C29.20697,12.737674 28.1422058,15.9930836 28.6648488,19.0380831 L27.2773546,20.4255773 L27.2773546,18.7337814 C27.2773546,16.0330895 26.2341679,13.4934711 24.3403594,11.5721368 C24.8603199,8.52900347 23.795439,5.27650971 21.4949231,2.97599379 C19.0714735,0.55254419 15.5916574,-0.500906419 12.4125273,0.226431712 C12.0853651,0.301311616 11.829817,0.556859699 11.7549371,0.884021895 C11.0274823,4.06268547 12.0810496,7.54285147 14.5044992,9.96630107 C16.4209349,11.8827367 18.9976433,12.942369 21.5639712,12.942369 C22.0799661,12.942369 22.5957277,12.8992139 23.1055408,12.811854 C24.6672884,14.4024105 25.5277075,16.5017304 25.5277075,18.733898 L25.5277075,31.5648378 L22.7379062,28.7750365 C23.5057168,24.6428788 22.0772835,20.196972 18.9435245,17.0630964 C15.687765,13.8072202 11.0155855,12.3910337 6.75069682,13.3672716 C6.42353462,13.4421516 6.16798654,13.6976996 6.09310663,14.0248618 C5.11710191,18.2898672 6.53317186,22.96193 9.78893142,26.2176895 C12.3641236,28.7928817 15.8251614,30.2171162 19.2702202,30.2171162 C20.0176196,30.2171162 20.7640859,30.1488845 21.5007549,30.0119546 L25.5278241,34.0390238 L25.5278241,46.6649186 C19.129208,46.8332234 13.2689808,48.8441337 9.28226739,52.2504695 L5.87476523,52.2504695 C5.39166155,52.2504695 5,52.6421311 5,53.1252348 C5,53.6083384 5.39166155,54 5.87476523,54 L46.9304134,54 C47.4135171,54 47.8051786,53.6083384 47.8051786,53.1252348 C47.8051786,52.6421311 47.4135171,52.2505862 46.9304134,52.2505862 Z" id="Shape" fill="#278D3A" fill-rule="nonzero"></path>
                    <path d="M35.0986888,25.764911 C37.7924992,23.0712173 41.5845481,21.8207696 45.116267,22.42774 C45.7234707,25.9598087 44.4729063,29.7515078 41.7790959,32.4453182 C39.3653271,34.8589704 36.0701447,36.1129172 32.8701369,35.9110214 L41.0368285,27.7443298 C41.3784534,27.4027048 41.3784534,26.8488035 41.0368285,26.5072951 C40.6952035,26.1656702 40.1413021,26.1656702 39.7997938,26.5072951 L31.6331022,34.6739867 C31.4310898,31.4737456 32.6850366,28.1785633 35.0986888,25.764911 Z M32.7462701,11.6727931 C34.6062543,9.81280893 37.2050068,8.92614689 39.6477013,9.28748325 C40.0088044,11.7299444 39.1224922,14.3288136 37.2623914,16.1889144 C35.6956286,17.7556772 33.6048231,18.6314922 31.5243981,18.6528364 L36.555931,13.6213035 C36.897556,13.2796785 36.897556,12.7257771 36.555931,12.3842688 C36.2143061,12.0426438 35.6604047,12.0426438 35.3188964,12.3842688 L30.2819982,17.421167 C30.3006598,15.3374762 31.1768247,13.2422385 32.7462701,11.6727931 Z M13.3564573,1.82783526 C15.7991517,1.46696545 18.3977876,2.35304431 20.2578884,4.21314509 C21.8246513,5.77990794 22.7004662,7.87094675 22.7218105,9.95113847 L17.6902775,4.91960549 C17.3486525,4.57798051 16.7947512,4.57798051 16.4532429,4.91960549 C16.1116179,5.26123048 16.1116179,5.81513182 16.4532429,6.15664017 L21.4901411,11.1935384 C19.4065669,11.1749933 17.3112126,10.2987119 15.7417671,8.72926639 C13.8816663,6.86916561 12.9953542,4.27029642 13.3564573,1.82783526 Z M11.0260827,24.9806549 C8.33227235,22.2868445 7.08182461,18.4951454 7.68891169,14.9630767 C11.2207471,14.355873 15.0126795,15.606554 17.7064898,18.3002477 C20.1201421,20.7139 21.3739722,24.0090823 21.1720764,27.2092068 L13.0053849,19.0425152 C12.6637599,18.7008902 12.1098585,18.7008902 11.7683502,19.0425152 C11.4267252,19.3841402 11.4267252,19.9380415 11.7683502,20.2795499 L19.9350417,28.4462414 C16.7351505,28.6482539 13.4398516,27.3943071 11.0260827,24.9806549 Z" id="Combined-Shape" fill="#AFE877" fill-rule="evenodd"></path>
                    <path d="M26.4025893,48.4016192 C31.7293264,48.4016192 36.8465864,49.8131403 40.5981629,52.2505862 L12.2070158,52.2505862 C15.9585923,49.8130237 21.0758522,48.4016192 26.4025893,48.4016192 Z" id="Path" fill="#40B856" fill-rule="evenodd"></path>
                    <g id="Page-1" stroke-width="1" fill="none" fill-rule="evenodd" transform="translate(0.000000, 53.000000)">
                        <path d="M43.3900227,35.4683544 L7.24288865,35.4683544 L0.0411489997,2.47954993 C-0.211880939,1.21147679 0.734097251,0.0253164557 1.99770877,0.0253164557 L48.6352026,0.0253164557 C49.8988141,0.0253164557 50.8447923,1.21147679 50.5917624,2.47954993 L43.3900227,35.4683544 Z" id="Fill-23" fill="#40B856"></path>
                        <path d="M43.3900227,35.4683544 L7.24288865,35.4683544 L0.0411489997,2.47954993 C-0.211880939,1.21147679 0.734097251,0.0253164557 1.99770877,0.0253164557 L48.6352026,0.0253164557 C49.8988141,0.0253164557 50.8447923,1.21147679 50.5917624,2.47954993 L43.3900227,35.4683544 Z" id="Stroke-25" stroke="#278D3A" stroke-width="2"></path>
                        <path d="M45.1674699,38 L6.73126427,38 L2.7661853,32.4040506 C2.16965539,31.5617722 2.78002233,30.4050633 3.82010606,30.4050633 L48.0786281,30.4050633 C49.1187118,30.4050633 49.7290788,31.5617722 49.1325489,32.4040506 L45.1674699,38 Z" id="Fill-27" fill="#40B856"></path>
                        <path d="M45.1674699,38 L6.73126427,38 L2.7661853,32.4040506 C2.16965539,31.5617722 2.78002233,30.4050633 3.82010606,30.4050633 L48.0786281,30.4050633 C49.1187118,30.4050633 49.7290788,31.5617722 49.1325489,32.4040506 L45.1674699,38 Z" id="Stroke-29" stroke="#278D3A" stroke-width="2"></path>
                        <path d="M38.6329114,5.08860759 L18.6329114,5.08860759" id="Stroke-31" stroke="#278D3A" stroke-width="2" stroke-linecap="round"></path>
                        <path d="M28.4556962,11 L12,11" id="Stroke-33" stroke="#278D3A" stroke-width="2" stroke-linecap="round"></path>
                        <path d="M41.1012658,18.2151899 L32.2405063,18.2151899" id="Stroke-35" stroke="#278D3A" stroke-width="2" stroke-linecap="round"></path>
                        <path d="M39.835443,23.278481 L33.5063291,23.278481" id="Stroke-37" stroke="#278D3A" stroke-width="2" stroke-linecap="round"></path>
                    </g>
                </g>
            </g>
            <g id="hand" mask="url(#mask-2)">
                <g transform="translate(116.000000, 151.000000)">
                    <g id="Group-24" transform="translate(0.000000, 0.896985)">
                        <path d="M15.6885333,0.513271795 C13.7529436,0.513271795 12.1833026,2.08209231 12.1833026,4.01850256 L12.1833026,46.0213744 L19.1937641,46.0213744 L19.1937641,4.01850256 C19.1937641,2.08209231 17.6241231,0.513271795 15.6885333,0.513271795" id="Fill-1" fill="#E3F4EE"></path>
                        <path d="M15.6885333,0.513271795 C13.7529436,0.513271795 12.1833026,2.08209231 12.1833026,4.01850256 L12.1833026,46.0213744 L19.1937641,46.0213744 L19.1937641,4.01850256 C19.1937641,2.08209231 17.6241231,0.513271795 15.6885333,0.513271795 Z" id="Stroke-3" stroke="#278D3A" stroke-width="2"></path>
                        <path d="M0.41025641,35.6354872 L0.41025641,39.849641 C0.41025641,41.4488205 1.08061538,42.9741538 2.25887179,44.0564103 L13.0371282,53.9550769 L13.0371282,63.8717949 L32.2322051,63.8717949 L32.2322051,54.9462564 C35.489641,53.6129231 37.6172308,50.4424615 37.6172308,46.9224615 L37.6172308,31.5042051 L0.41025641,35.6354872 Z" id="Fill-5" fill="#E3F4EE"></path>
                        <path d="M0.41025641,35.6354872 L0.41025641,39.849641 C0.41025641,41.4488205 1.08061538,42.9741538 2.25887179,44.0564103 L13.0371282,53.9550769 L13.0371282,63.8717949 L32.2322051,63.8717949 L32.2322051,54.9462564 C35.489641,53.6129231 37.6172308,50.4424615 37.6172308,46.9224615 L37.6172308,31.5042051 L0.41025641,35.6354872 Z" id="Stroke-7" stroke="#278D3A" stroke-width="2" stroke-linecap="round"></path>
                        <path d="M22.4166564,18.8470564 L20.9725538,18.8470564 C19.9904,18.8470564 19.1936821,19.6437744 19.1936821,20.6267487 L19.1936821,35.2646974 C19.1936821,37.2002872 20.7625026,38.7699282 22.6980923,38.7699282 C24.6345026,38.7699282 26.2033231,37.2002872 26.2033231,35.2646974 L26.2033231,22.6337231 C26.2033231,20.5422359 24.5081436,18.8470564 22.4166564,18.8470564" id="Fill-9" fill="#E3F4EE"></path>
                        <path d="M22.4166564,18.8470564 L20.9725538,18.8470564 C19.9904,18.8470564 19.1936821,19.6437744 19.1936821,20.6267487 L19.1936821,35.2646974 C19.1936821,37.2002872 20.7625026,38.7699282 22.6980923,38.7699282 C24.6345026,38.7699282 26.2033231,37.2002872 26.2033231,35.2646974 L26.2033231,22.6337231 C26.2033231,20.5422359 24.5081436,18.8470564 22.4166564,18.8470564 Z" id="Stroke-11" stroke="#278D3A" stroke-width="2" stroke-linecap="round"></path>
                        <path d="M29.5610256,23.2477949 L27.9831795,23.2477949 C27.0002051,23.2477949 26.2034872,24.0445128 26.2034872,25.0274872 L26.2034872,35.2650256 C26.2034872,37.2006154 27.7723077,38.7694359 29.7087179,38.7694359 C31.6443077,38.7694359 33.2131282,37.2006154 33.2131282,35.2650256 L33.2131282,26.8998974 C33.2131282,25.305641 31.5778462,23.2477949 29.5610256,23.2477949" id="Fill-13" fill="#E3F4EE"></path>
                        <path d="M29.5610256,23.2477949 L27.9831795,23.2477949 C27.0002051,23.2477949 26.2034872,24.0445128 26.2034872,25.0274872 L26.2034872,35.2650256 C26.2034872,37.2006154 27.7723077,38.7694359 29.7087179,38.7694359 C31.6443077,38.7694359 33.2131282,37.2006154 33.2131282,35.2650256 L33.2131282,26.8998974 C33.2131282,25.305641 31.5778462,23.2477949 29.5610256,23.2477949 Z" id="Stroke-15" stroke="#278D3A" stroke-width="2" stroke-linecap="round"></path>
                        <path d="M35.6177231,26.5698872 L34.9933128,26.5698872 C34.0103385,26.5698872 33.2136205,27.3666051 33.2136205,28.3495795 L33.2136205,35.2648615 C33.2136205,37.2004513 34.782441,38.7700923 36.7180308,38.7700923 C38.654441,38.7700923 40.2232615,37.2004513 40.2232615,35.2648615 L40.2232615,31.1754256 C40.2232615,28.6318359 38.1613128,26.5698872 35.6177231,26.5698872" id="Fill-17" fill="#E3F4EE"></path>
                        <path d="M35.6177231,26.5698872 L34.9933128,26.5698872 C34.0103385,26.5698872 33.2136205,27.3666051 33.2136205,28.3495795 L33.2136205,35.2648615 C33.2136205,37.2004513 34.782441,38.7700923 36.7180308,38.7700923 C38.654441,38.7700923 40.2232615,37.2004513 40.2232615,35.2648615 L40.2232615,31.1754256 C40.2232615,28.6318359 38.1613128,26.5698872 35.6177231,26.5698872 Z" id="Stroke-19" stroke="#278D3A" stroke-width="2"></path>
                        <path d="M0.41025641,36.6173949 L0.41025641,33.2270359 C0.41025641,31.2873436 1.98317949,29.7144205 3.92287179,29.7144205 L14.6043077,29.7144205 C17.1388718,29.7144205 19.1934359,31.7689846 19.1934359,34.3035487 C19.1934359,36.8381128 17.1388718,38.8926769 14.6043077,38.8926769 L11.6077949,38.8926769" id="Fill-21" fill="#E3F4EE"></path>
                        <path d="M0.41025641,36.6173949 L0.41025641,33.2270359 C0.41025641,31.2873436 1.98317949,29.7144205 3.92287179,29.7144205 L14.6043077,29.7144205 C17.1388718,29.7144205 19.1934359,31.7689846 19.1934359,34.3035487 C19.1934359,36.8381128 17.1388718,38.8926769 14.6043077,38.8926769 L11.6077949,38.8926769" id="Stroke-23" stroke="#278D3A" stroke-width="2" stroke-linecap="round"></path>
                        <path d="M22.1420553,39.5489124 C25.1537472,42.4699526 25.4956561,45.7996683 23.167782,49.5380595" id="Path-12" stroke="#278D3A" stroke-width="2" stroke-linecap="round"></path>
                    </g>
                    <g id="Group-20" transform="translate(10.000000, 62.000000)">
                        <path d="M3,0 L23,0 L23,32 C23,37.5228475 18.5228475,42 13,42 L13,42 C7.4771525,42 3,37.5228475 3,32 L3,0 Z" id="Rectangle-4" stroke="#278D3A" stroke-width="2" fill="#40B856"></path>
                        <circle id="Oval-9" stroke="#278D3A" stroke-width="2" fill="#FFFFFF" cx="13" cy="33" r="4"></circle>
                        <rect id="Rectangle-4" stroke="#278D3A" stroke-width="2" fill="#E3F4EE" x="0" y="0" width="25" height="12"></rect>
                        <circle id="Oval-8" fill="#278D3A" cx="15.5" cy="6.5" r="1.5"></circle>
                    </g>
                </g>
            </g>
        </g>
    </g>
</svg>