<?xml version="1.0" encoding="UTF-8"?>
<svg width="272px" height="272px" viewBox="0 0 272 272" version="1.1" xmlns="http://www.w3.org/2000/svg" xmlns:xlink="http://www.w3.org/1999/xlink">
    <!-- Generator: Sketch 48.2 (47327) - http://www.bohemiancoding.com/sketch -->
    <title>illus-02</title>
    <desc>Created with Sketch.</desc>
    <defs>
        <circle id="path-1" cx="136" cy="136" r="136"></circle>
    </defs>
    <g id="Illustrations" stroke="none" stroke-width="1" fill="none" fill-rule="evenodd" transform="translate(-24.000000, -385.000000)">
        <g id="illus-02" transform="translate(24.000000, 385.000000)">
            <mask id="mask-2" fill="white">
                <use xlink:href="#path-1"></use>
            </mask>
            <use id="Oval-5" fill="#E3F4EE" xlink:href="#path-1"></use>
            <g id="Page-1" mask="url(#mask-2)">
                <g transform="translate(109.000000, 150.000000)">
                    <path d="M26.5822785,58.2267969 L28.4976286,53.7933849 C32.703613,44.0557264 41.8256628,37.5292701 52.1693322,36.8561342 L54.4303797,36.7088608 C50.9640631,49.4736296 39.6269031,58.2820244 26.7356622,58.2275973 L26.5822785,58.2267969 Z" id="Fill-1" stroke="none" fill="#AFE877" fill-rule="evenodd"></path>
                    <path d="M26.5822785,58.2267969 L28.4976286,53.7933849 C32.703613,44.0557264 41.8256628,37.5292701 52.1693322,36.8561342 L54.4303797,36.7088608 C50.9640631,49.4736296 39.6269031,58.2820244 26.7356622,58.2275973 L26.5822785,58.2267969 Z" id="Stroke-3" stroke="#278D3A" stroke-width="2" fill="none" stroke-linecap="round"></path>
                    <path d="M25.6697931,17.721519 L25.4043554,15.1353204 C24.8218469,9.45668533 27.1664253,3.89285066 31.489787,0.698369276 L32.4344543,0 C34.0874402,6.87367568 31.345069,14.1108861 25.7366979,17.6792661 L25.6697931,17.721519 Z" id="Fill-5" stroke="none" fill="#AFE877" fill-rule="evenodd"></path>
                    <path d="M25.6697931,17.721519 L25.4043554,15.1353204 C24.8218469,9.45668533 27.1664253,3.89285066 31.489787,0.698369276 L32.4344543,0 C34.0874402,6.87367568 31.345069,14.1108861 25.7366979,17.6792661 L25.6697931,17.721519 Z" id="Stroke-7" stroke="#278D3A" stroke-width="2" fill="none" stroke-linecap="round"></path>
                    <path d="M24.0506329,50.6329114 L20.6737779,40.7698931 C18.8026531,35.3065047 14.6333486,30.9998852 9.32294721,29.0474469 L2.61871772,26.5822785 C1.67325922,37.2190814 8.51984035,46.9398484 18.6542116,49.3495232 L24.0506329,50.6329114 Z" id="Fill-9" stroke="none" fill="#AFE877" fill-rule="evenodd"></path>
                    <path d="M24.0506329,50.6329114 L20.6737779,40.7698931 C18.8026531,35.3065047 14.6333486,30.9998852 9.32294721,29.0474469 L2.61871772,26.5822785 C1.67325922,37.2190814 8.51984035,46.9398484 18.6542116,49.3495232 L24.0506329,50.6329114 Z" id="Stroke-11" stroke="#278D3A" stroke-width="2" fill="none" stroke-linecap="round"></path>
                    <path d="M45.5696203,17.721519 L38.0392461,21.9767798 C33.8684691,24.3340504 30.9699472,28.4675742 30.1493896,33.2287549 L29.1139241,39.2405063 C37.8977976,38.5243135 44.8107999,31.3600132 45.3062603,22.4605657 L45.5696203,17.721519 Z" id="Fill-13" stroke="none" fill="#AFE877" fill-rule="evenodd"></path>
                    <path d="M45.5696203,17.721519 L38.0392461,21.9767798 C33.8684691,24.3340504 30.9699472,28.4675742 30.1493896,33.2287549 L29.1139241,39.2405063 C37.8977976,38.5243135 44.8107999,31.3600132 45.3062603,22.4605657 L45.5696203,17.721519 Z" id="Stroke-15" stroke="#278D3A" stroke-width="2" fill="none" stroke-linecap="round"></path>
                    <path d="M13.9240506,13.9240506 L15.5706758,19.0002499 C16.4825551,21.8122722 18.6875872,24.0854549 21.5733515,25.1894006 L25.2161027,26.5822785 C25.9699123,21.2051395 22.4073874,16.1274393 16.8717719,14.6895331 L13.9240506,13.9240506 Z" id="Fill-17" stroke="none" fill="#AFE877" fill-rule="evenodd"></path>
                    <path d="M13.9240506,13.9240506 L15.5706758,19.0002499 C16.4825551,21.8122722 18.6875872,24.0854549 21.5733515,25.1894006 L25.2161027,26.5822785 C25.9699123,21.2051395 22.4073874,16.1274393 16.8717719,14.6895331 L13.9240506,13.9240506 Z" id="Stroke-19" stroke="#278D3A" stroke-width="2" fill="none" stroke-linecap="round"></path>
                    <polyline id="Stroke-21" stroke="#278D3A" stroke-width="2" fill="none" stroke-linecap="round" points="25.7393589 17.721519 24.0506329 26.5066904 27.8481013 38.7586352 25.0941789 57.9912674 25.0941789 64.556962"></polyline>
                    <path d="M43.3900227,97.4683544 L7.24288865,97.4683544 L0.0411489997,64.4795499 C-0.211880939,63.2114768 0.734097251,62.0253165 1.99770877,62.0253165 L48.6352026,62.0253165 C49.8988141,62.0253165 50.8447923,63.2114768 50.5917624,64.4795499 L43.3900227,97.4683544 Z" id="Fill-23" stroke="none" fill="#40B856" fill-rule="evenodd"></path>
                    <path d="M43.3900227,97.4683544 L7.24288865,97.4683544 L0.0411489997,64.4795499 C-0.211880939,63.2114768 0.734097251,62.0253165 1.99770877,62.0253165 L48.6352026,62.0253165 C49.8988141,62.0253165 50.8447923,63.2114768 50.5917624,64.4795499 L43.3900227,97.4683544 Z" id="Stroke-25" stroke="#278D3A" stroke-width="2" fill="none"></path>
                    <path d="M45.1674699,100 L6.73126427,100 L2.7661853,94.4040506 C2.16965539,93.5617722 2.78002233,92.4050633 3.82010606,92.4050633 L48.0786281,92.4050633 C49.1187118,92.4050633 49.7290788,93.5617722 49.1325489,94.4040506 L45.1674699,100 Z" id="Fill-27" stroke="none" fill="#40B856" fill-rule="evenodd"></path>
                    <path d="M45.1674699,100 L6.73126427,100 L2.7661853,94.4040506 C2.16965539,93.5617722 2.78002233,92.4050633 3.82010606,92.4050633 L48.0786281,92.4050633 C49.1187118,92.4050633 49.7290788,93.5617722 49.1325489,94.4040506 L45.1674699,100 Z" id="Stroke-29" stroke="#278D3A" stroke-width="2" fill="none"></path>
                    <path d="M50.6329114,67.0886076 L13.9240506,67.0886076" id="Stroke-31" stroke="#278D3A" stroke-width="2" fill="none" stroke-linecap="round"></path>
                    <path d="M48.1012658,73.4177215 L31.6455696,73.4177215" id="Stroke-33" stroke="#278D3A" stroke-width="2" fill="none" stroke-linecap="round"></path>
                    <path d="M48.1012658,77.2151899 L39.2405063,77.2151899" id="Stroke-35" stroke="#278D3A" stroke-width="2" fill="none" stroke-linecap="round"></path>
                    <path d="M46.835443,82.278481 L40.5063291,82.278481" id="Stroke-37" stroke="#278D3A" stroke-width="2" fill="none" stroke-linecap="round"></path>
                </g>
            </g>
            <g id="hand" mask="url(#mask-2)">
                <g transform="translate(18.000000, -10.000000)">
                    <polyline id="Stroke-2" stroke="#278D3A" stroke-width="2" fill="#40B856" points="21.1869554 0 87 64.2822426 65.7888749 85 0 20.7413649"></polyline>
                    <g id="Group-28" stroke="none" stroke-width="1" fill="none" transform="translate(50.000000, 51.000000)">
                        <g id="Group-11" transform="translate(16.066318, 15.357143)">
                            <path d="M54.3780616,30.3296779 C57.8159249,33.7294571 63.388732,33.7294571 66.8265952,30.3296779 C67.9966981,29.1725372 67.9966981,27.296797 66.8265952,26.1396563 L54.7139448,14.1611877 L50.8787296,10.3684582 C49.4232358,8.9290881 47.4244015,8.15947013 45.368489,8.24630996 L26.5502491,9.03763788 L17.5253092,0.112674675 L0.0560902976,17.3883727 L8.1787557,25.4199712 C6.42799201,29.5524615 7.37746573,34.3210535 10.5804303,37.4885361 L11.4003804,38.299403 L24.6117859,51.3655405 L40.311581,66.891416" id="Fill-8" fill="#E3F4EE"></path>
                            <path d="M54.3780616,30.3296779 C57.8159249,33.7294571 63.388732,33.7294571 66.8265952,30.3296779 C67.9966981,29.1725372 67.9966981,27.296797 66.8265952,26.1396563 L54.7139448,14.1611877 L50.8787296,10.3684582 C49.4232358,8.9290881 47.4244015,8.15947013 45.368489,8.24630996 L26.5502491,9.03763788 L17.5253092,0.112674675 L0.0560902976,17.3883727 L8.1787557,25.4199712 C6.42799201,29.5524615 7.37746573,34.3210535 10.5804303,37.4885361 L11.4003804,38.299403 L24.6117859,51.3655405 L40.311581,66.891416" id="Stroke-10" stroke="#278D3A" stroke-width="2" stroke-linecap="round"></path>
                        </g>
                        <g id="Group-15" transform="translate(35.824153, 40.238095)">
                            <path d="M28.9757428,12.484814 L49.0079919,32.2951495 C50.7697322,34.0373735 53.625837,34.036288 55.3875772,32.2951495 C57.1493175,30.5529254 57.1493175,27.7273746 55.3875772,25.986236 L29.9405837,0.821139719 L27.1053344,1.99022089 C18.4173754,5.57236374 8.52638382,4.86353366 0.452015353,0.0808301948 L0.450917695,0.0808301948" id="Fill-12" fill="#E3F4EE"></path>
                            <path d="M28.9757428,12.484814 L49.0079919,32.2951495 C50.7697322,34.0373735 53.625837,34.036288 55.3875772,32.2951495 C57.1493175,30.5529254 57.1493175,27.7273746 55.3875772,25.986236 L29.9405837,0.821139719 L27.1053344,1.99022089 C18.4173754,5.57236374 8.52638382,4.86353366 0.452015353,0.0808301948 L0.450917695,0.0808301948" id="Stroke-14" stroke="#278D3A" stroke-width="2" stroke-linecap="round"></path>
                        </g>
                        <g id="Group-19" transform="translate(51.191358, 58.777056)">
                            <path d="M0.849367363,6.56367976 L20.8816165,26.3740153 C22.6433568,28.1162393 25.4994615,28.1162393 27.2612018,26.3740153 C29.0229421,24.6317912 29.0229421,21.8073259 27.2612018,20.0651018 L7.22895267,0.254766342" id="Fill-16" fill="#E3F4EE"></path>
                            <path d="M0.849367363,6.56367976 L20.8816165,26.3740153 C22.6433568,28.1162393 25.4994615,28.1162393 27.2612018,26.3740153 C29.0229421,24.6317912 29.0229421,21.8073259 27.2612018,20.0651018 L7.22895267,0.254766342" id="Stroke-18" stroke="#278D3A" stroke-width="2" stroke-linecap="round"></path>
                        </g>
                        <g id="Group-23" transform="translate(40.214783, 65.290043)">
                            <path d="M0.0312832384,1.00462825 L17.3556113,18.1370406 C19.1173516,19.8792646 21.9734564,19.8792646 23.7351967,18.1370406 C25.4969369,16.3948166 25.4969369,13.5703512 23.7351967,11.8281272 L11.8256129,0.0504756494" id="Fill-20" fill="#E3F4EE"></path>
                            <path d="M0.0312832384,1.00462825 L17.3556113,18.1370406 C19.1173516,19.8792646 21.9734564,19.8792646 23.7351967,18.1370406 C25.4969369,16.3948166 25.4969369,13.5703512 23.7351967,11.8281272 L11.8256129,0.0504756494" id="Stroke-22" stroke="#278D3A" stroke-width="2" stroke-linecap="round"></path>
                        </g>
                        <g id="Group-27" transform="translate(57.777303, 52.264069)">
                            <path d="M0.643007756,6.76775335 L25.1877268,31.0405705 C26.9494671,32.7827945 29.8055719,32.7827945 31.5673121,31.0405705 C33.3290524,29.2983464 33.3290524,26.4738811 31.5673121,24.731657 L7.02259307,0.458839935" id="Fill-24" fill="#E3F4EE"></path>
                            <path d="M0.643007756,6.76775335 L25.1877268,31.0405705 C26.9494671,32.7827945 29.8055719,32.7827945 31.5673121,31.0405705 C33.3290524,29.2983464 33.3290524,26.4738811 31.5673121,24.731657 L7.02259307,0.458839935" id="Stroke-26" stroke="#278D3A" stroke-width="2" stroke-linecap="round"></path>
                        </g>
                        <g id="Group-16">
                            <polygon id="Fill-4" fill="#FFFFFF" points="0 24.3351148 25.2221413 0 37.7564103 12.0934566 12.5342689 36.4285714"></polygon>
                            <polygon id="Stroke-5" stroke="#278D3A" stroke-width="2" points="0 24.3351148 25.2221413 0 37.7564103 12.0934566 12.5342689 36.4285714"></polygon>
                            <path d="M7.30485043,28.2305256 C6.10401314,27.042991 6.10401314,25.1184034 7.30485043,23.9319542 C8.50568772,22.7444196 10.4507368,22.7444196 11.6515741,23.9319542 C12.8524114,25.1194889 12.8524114,27.042991 11.6515741,28.2305256 C10.4507368,29.4169748 8.50568772,29.4180603 7.30485043,28.2305256" id="Fill-6" fill="#278D3A"></path>
                        </g>
                    </g>
                </g>
            </g>
            <g id="Page-1" mask="url(#mask-2)">
                <g transform="translate(112.000000, 99.000000)">
                    <g id="Group-31">
                        <path d="M13.3489143,4.05581235 C14.9748965,7.5621669 13.4505903,11.7227854 9.94360271,13.3488604 C6.43744852,14.9749355 2.27706779,13.4505422 0.651085654,9.94418765 C-0.974896479,6.4378331 0.549409683,2.27638118 4.05639729,0.651139587 C7.56255148,-0.974935459 11.7229322,0.549457805 13.3489143,4.05581235" id="Fill-1" fill="#40B856"></path>
                        <path d="M13.3489143,4.05581235 C14.9748965,7.5621669 13.4505903,11.7227854 9.94360271,13.3488604 C6.43744852,14.9749355 2.27706779,13.4505422 0.651085654,9.94418765 C-0.974896479,6.4378331 0.549409683,2.27638118 4.05639729,0.651139587 C7.56255148,-0.974935459 11.7229322,0.549457805 13.3489143,4.05581235 Z" id="Stroke-3" stroke="#278D3A" stroke-width="2" stroke-linecap="round"></path>
                        <path d="M5.77762139,9.9137931 L7.0468684,9.32962165 L5.48205489,5.98132184 L4.38845883,6.48503352 L4,5.65445402 C4.28965517,5.44743774 4.52610837,5.2496408 4.70682618,5.06357759 C4.88754398,4.87667625 5.0539057,4.6746887 5.20506685,4.45677682 L6.1981703,4 L8.39802956,8.70773467 L9.49247009,8.20402299 L10,9.29022989 L6.2851513,11 L5.77762139,9.9137931 Z" id="Fill-5" fill="#FFFFFF"></path>
                    </g>
                    <g id="Group-30" transform="translate(21.000000, 5.000000)">
                        <path d="M10.0016281,13.3220464 C6.51035499,14.9797552 2.33566246,13.4929012 0.677953643,10.0016281 C-0.979755171,6.51035499 0.507098787,2.33566246 3.9983719,0.677953643 C7.48964501,-0.979755171 11.6643375,0.507098787 13.3220464,3.9983719 C14.9797552,7.48964501 13.4929012,11.6643375 10.0016281,13.3220464" id="Fill-7" fill="#40B856"></path>
                        <path d="M10.0016281,13.3220464 C6.51035499,14.9797552 2.33566246,13.4929012 0.677953643,10.0016281 C-0.979755171,6.51035499 0.507098787,2.33566246 3.9983719,0.677953643 C7.48964501,-0.979755171 11.6643375,0.507098787 13.3220464,3.9983719 C14.9797552,7.48964501 13.4929012,11.6643375 10.0016281,13.3220464 Z" id="Stroke-9" stroke="#278D3A" stroke-width="2" stroke-linecap="round"></path>
                        <path d="M5.29220015,5.77489132 C5.21862046,5.99787514 5.17480334,6.22385203 5.15909531,6.45357026 C5.14421403,6.68179195 5.19381831,6.9062723 5.31038839,7.12850785 C5.44928039,7.39339467 5.63446972,7.57223068 5.86678313,7.66501589 C6.0982698,7.7578011 6.36034577,7.74133921 6.65301106,7.61488195 C6.93988918,7.49216602 7.11929135,7.32380576 7.19039083,7.11054942 C7.2614903,6.89804135 7.23338121,6.66981966 7.10606354,6.42663261 C7.06638011,6.35030929 7.02669668,6.28520999 6.98535978,6.22983817 C6.94567635,6.17371808 6.89855228,6.12283587 6.84564104,6.07644326 C6.79190306,6.03005066 6.72989771,5.98290978 6.66210518,5.93576891 C6.59348592,5.8893763 6.51246558,5.83999062 6.41904418,5.78686361 L6.5149458,5.09022625 L9.4680543,4 L11,6.92048939 L9.88803725,7.39788427 L8.89677827,5.5077597 L7.78398878,5.87740402 C7.88319736,5.95372734 7.96587117,6.03154719 8.03366369,6.11310839 C8.10145622,6.19317305 8.16346157,6.28670653 8.21967976,6.39520536 C8.33624984,6.61669265 8.41065627,6.841173 8.44289905,7.06939469 C8.4743151,7.29761638 8.45860708,7.51910366 8.39494824,7.73161173 C8.33046267,7.9441198 8.21058565,8.14166251 8.03531717,8.32349159 C7.85922195,8.50532068 7.6194679,8.66096039 7.31440154,8.79190726 C6.99693411,8.92809201 6.68938754,8.99768092 6.39176182,8.99992572 C6.09248263,9.00217053 5.81221841,8.95353312 5.55179591,8.85401349 C5.28971993,8.75449387 5.05492631,8.60858164 4.8441081,8.41777334 C4.63411662,8.22546851 4.46380857,8.00547776 4.33318395,7.75705284 C4.11244488,7.33502977 4.00083523,6.94518223 4.00000849,6.58825847 C3.99918176,6.23058644 4.0587069,5.90060032 4.17775719,5.59755184 L5.29220015,5.77489132 Z" id="Fill-11" fill="#FFFFFF"></path>
                    </g>
                    <g id="Group-29" transform="translate(5.000000, 30.000000)">
                        <path d="M12.6614771,2.8841307 C14.9345702,6.0108039 14.242723,10.3886465 11.1160739,12.6617571 C7.98859126,14.9348677 3.61161595,14.2421816 1.33852289,11.1155084 C-0.934570177,7.98883523 -0.242723003,3.61099262 2.88392609,1.33788203 C6.01140874,-0.934395004 10.388384,-0.242542497 12.6614771,2.8841307" id="Fill-13" fill="#40B856"></path>
                        <path d="M12.6614771,2.8841307 C14.9345702,6.0108039 14.242723,10.3886465 11.1160739,12.6617571 C7.98859126,14.9348677 3.61161595,14.2421816 1.33852289,11.1155084 C-0.934570177,7.98883523 -0.242723003,3.61099262 2.88392609,1.33788203 C6.01140874,-0.934395004 10.388384,-0.242542497 12.6614771,2.8841307 Z" id="Stroke-15" stroke="#278D3A" stroke-width="2" stroke-linecap="round"></path>
                        <path d="M6.82068047,10.3114982 C6.92747306,9.75816233 7.02070469,9.24453151 7.10122291,8.77314007 C7.18004601,8.30259341 7.23344231,7.87513092 7.26056423,7.49244217 C7.2868386,7.10975342 7.28175324,6.77521755 7.24446059,6.48883458 C7.2080155,6.20245161 7.12156435,5.9659111 6.98595472,5.78005784 C6.79779634,5.52324243 6.59014409,5.37455983 6.36045526,5.33738918 C6.131614,5.29768416 5.90192517,5.3627328 5.67138879,5.53000073 C5.47899261,5.66854589 5.34846834,5.84426169 5.27727328,6.05883773 C5.20692578,6.27256897 5.15776728,6.49812724 5.13064536,6.73551254 L4,6.56486546 C4.05848166,6.10445625 4.17120717,5.70740611 4.33817653,5.37371504 C4.5051459,5.03917918 4.77467006,4.73674524 5.14759656,4.46641323 C5.40525487,4.27971519 5.66884611,4.15046269 5.93837026,4.07612139 C6.20704686,4.00262488 6.47063809,3.98234997 6.72999152,4.01529669 C6.98934496,4.04993298 7.23428987,4.13779088 7.46397869,4.28055997 C7.69366751,4.42332907 7.89962465,4.62016456 8.08354522,4.87191125 C8.24288655,5.09071122 8.3590023,5.34668184 8.43104492,5.6406679 C8.50308754,5.93549875 8.54377043,6.25313886 8.55309359,6.59358824 C8.56241676,6.93319282 8.54970335,7.28884837 8.51495338,7.66139968 C8.48020341,8.03310619 8.43528272,8.40650228 8.38103887,8.77905358 C8.50139242,8.66754163 8.63700206,8.54589222 8.78786778,8.41579494 C8.94042862,8.28400809 9.0794285,8.17334092 9.20571498,8.08125908 L10.2583848,7.31926072 L11,8.33638491 L7.32328369,11 L6.82068047,10.3114982 Z" id="Fill-17" fill="#FFFFFF"></path>
                    </g>
                    <g id="Group-26" transform="translate(22.000000, 46.000000)">
                        <path d="M12.942371,10.6981571 C10.9002394,13.9797376 6.58342331,14.9849664 3.30184287,12.9420013 C0.0202624283,10.8998697 -0.984966429,6.58388712 1.05799869,3.30147315 C3.10013028,0.0198927132 7.41611288,-0.984502621 10.6985268,1.05762897 C13.9801073,3.09976056 14.9845026,7.41657669 12.942371,10.6981571" id="Fill-25" fill="#40B856"></path>
                        <path d="M12.942371,10.6981571 C10.9002394,13.9797376 6.58342331,14.9849664 3.30184287,12.9420013 C0.0202624283,10.8998697 -0.984966429,6.58388712 1.05799869,3.30147315 C3.10013028,0.0198927132 7.41611288,-0.984502621 10.6985268,1.05762897 C13.9801073,3.09976056 14.9845026,7.41657669 12.942371,10.6981571 Z" id="Stroke-27" stroke="#278D3A" stroke-width="2" stroke-linecap="round"></path>
                        <path d="M3.65367965,7.82391827 L4.87099567,8.56009615 L6.88571429,5.41514423 L5.83636364,4.77992788 L6.33593074,4 C6.67705628,4.12788462 6.98095238,4.21538462 7.24329004,4.26418269 C7.50649351,4.31213942 7.77489177,4.3390625 8.04761905,4.34579327 L9,4.92127404 L6.16796537,9.34423077 L7.21818182,9.97944712 L6.56450216,11 L3,8.84447115 L3.65367965,7.82391827 Z" id="Fill-29" fill="#FFFFFF"></path>
                    </g>
                    <g id="Group-21" transform="translate(42.000000, 33.000000)">
                        <path d="M12.942371,10.6981571 C10.9002394,13.9797376 6.58342331,14.9849664 3.30184287,12.9420013 C0.0202624283,10.8998697 -0.984966429,6.58388712 1.05799869,3.30147315 C3.10013028,0.0198927132 7.41611288,-0.984502621 10.6985268,1.05762897 C13.9801073,3.09976056 14.9845026,7.41657669 12.942371,10.6981571" id="Fill-25" fill="#40B856"></path>
                        <path d="M12.942371,10.6981571 C10.9002394,13.9797376 6.58342331,14.9849664 3.30184287,12.9420013 C0.0202624283,10.8998697 -0.984966429,6.58388712 1.05799869,3.30147315 C3.10013028,0.0198927132 7.41611288,-0.984502621 10.6985268,1.05762897 C13.9801073,3.09976056 14.9845026,7.41657669 12.942371,10.6981571 Z" id="Stroke-27" stroke="#278D3A" stroke-width="2" stroke-linecap="round"></path>
                        <path d="M3.65367965,7.82391827 L4.87099567,8.56009615 L6.88571429,5.41514423 L5.83636364,4.77992788 L6.33593074,4 C6.67705628,4.12788462 6.98095238,4.21538462 7.24329004,4.26418269 C7.50649351,4.31213942 7.77489177,4.3390625 8.04761905,4.34579327 L9,4.92127404 L6.16796537,9.34423077 L7.21818182,9.97944712 L6.56450216,11 L3,8.84447115 L3.65367965,7.82391827 Z" id="Fill-29" fill="#FFFFFF"></path>
                    </g>
                </g>
            </g>
        </g>
    </g>
</svg>