<?xml version="1.0" encoding="UTF-8"?>
<svg width="204px" height="50px" viewBox="0 0 204 50" version="1.1" xmlns="http://www.w3.org/2000/svg" xmlns:xlink="http://www.w3.org/1999/xlink">
    <g id="Landing-02" stroke="none" stroke-width="1" fill="none" fill-rule="evenodd" transform="translate(-150.000000, -63.000000)">
        <g id="logo" transform="translate(150.000000, 63.000000)">
            <path d="M58.2764654,26.0618333 C58.2764654,21.2807917 62.1460057,17.5099583 66.9922039,17.5099583 C70.2449516,17.5099583 72.7490047,18.9076667 74.4080936,21.5087083 L70.9607228,23.4276667 C70.0174051,22.09475 68.6837994,21.2807917 66.9922039,21.2807917 C64.3574991,21.2807917 62.1787207,23.4924583 62.1787207,26.0618333 C62.1787207,28.62975 64.3574991,30.8418333 66.9922039,30.8418333 C68.6837994,30.8418333 70.0174051,30.0937083 70.9607228,28.7276667 L74.3753785,30.614125 C72.7164981,33.2151667 70.2449516,34.645375 66.9922039,34.645375 C62.1460057,34.645375 58.2764654,30.776625 58.2764654,26.0618333" id="Fill-1" fill="#333333"></path>
            <path d="M76.4221091,11.8384167 L80.4873144,11.8384167 L80.4873144,19.004875 C81.593582,18.062375 83.1536923,17.509875 84.9757312,17.509875 C89.9515391,17.509875 91.8052511,20.663 91.8052511,25.5740417 L91.8052511,34.6455 L87.7400458,34.6455 L87.7400458,26.6144583 C87.7400458,23.102375 87.2199395,21.2809167 84.1303502,21.2809167 C81.8536351,21.2809167 80.4873144,22.7125833 80.4873144,25.0852917 L80.4873144,34.6455 L76.4221091,34.6455 L76.4221091,11.8384167 Z" id="Fill-3" fill="#333333"></path>
            <path d="M107.414981,26.0618333 C107.414981,23.4924583 105.235994,21.2807917 102.601289,21.2807917 C99.9665847,21.2807917 97.787598,23.4924583 97.787598,26.0618333 C97.787598,28.62975 99.9665847,30.8418333 102.601289,30.8418333 C105.235994,30.8418333 107.414981,28.62975 107.414981,26.0618333 M93.8845091,26.0618333 C93.8845091,21.2807917 97.7550913,17.5099583 102.601289,17.5099583 C104.291843,17.5099583 105.983439,17.9968333 107.414981,19.0049583 L107.414981,17.6724583 L111.480186,17.6724583 L111.480186,34.645375 L107.414981,34.645375 L107.414981,33.1824583 C106.080333,34.092875 104.259336,34.645375 102.601289,34.645375 C97.7550913,34.645375 93.8845091,30.776625 93.8845091,26.0618333" id="Fill-5" fill="#333333"></path>
            <path d="M114.20916,34.6454167 L118.307914,34.6454167 L118.307914,17.6725 L114.20916,17.6725 L114.20916,34.6454167 Z M114.20916,15.935 L118.307914,15.935 L118.307914,11.8383333 L114.20916,11.8383333 L114.20916,15.935 Z" id="Fill-7" fill="#333333"></path>
            <path d="M121.037743,17.6725 L125.10399,17.6725 L125.10399,19.005 C126.209216,18.0625 127.770368,17.51 129.591365,17.51 C134.568215,17.51 136.421926,20.663125 136.421926,25.5739583 L136.421926,34.6454167 L132.356513,34.6454167 L132.356513,26.614375 C132.356513,23.1025 131.835573,21.2808333 128.746192,21.2808333 C126.470311,21.2808333 125.10399,22.7125 125.10399,25.0854167 L125.10399,34.6454167 L121.037743,34.6454167 L121.037743,17.6725 Z" id="Fill-9" fill="#333333"></path>
            <path d="M140.289633,23.2650833 L138.630753,23.2650833 L138.630753,19.4927917 L140.289633,19.4927917 L140.289633,18.7775833 C140.289633,13.4775833 143.087288,11.6569583 149.038087,11.8515417 L148.74636,15.81925 C144.875778,15.81925 144.387553,16.5334167 144.387553,18.7775833 L144.387553,19.4927917 L148.127484,19.4927917 L148.127484,23.2650833 L144.387553,23.2650833 L144.387553,34.6455 L140.289633,34.6455 L140.289633,23.2650833 Z" id="Fill-10" fill="#333333"></path>
            <path d="M150.826535,26.3865625 L150.826535,17.6723958 L154.891741,17.6723958 L154.891741,25.3457292 C154.891741,28.8576042 155.411847,30.6784375 158.501436,30.6784375 C160.778151,30.6784375 162.144472,29.2480208 162.144472,26.8746875 L162.144472,17.6723958 L166.209677,17.6723958 L166.209677,34.6455208 L162.144472,34.6455208 L162.144472,32.9546875 C161.038204,33.8980208 159.47726,34.4503125 157.656055,34.4503125 C152.679414,34.4503125 150.826535,31.2961458 150.826535,26.3865625" id="Fill-11" fill="#333333"></path>
            <path d="M168.938693,17.6725 L173.00494,17.6725 L173.00494,19.005 C174.110166,18.0625 175.671318,17.51 177.493357,17.51 C182.468956,17.51 184.322668,20.663125 184.322668,25.5739583 L184.322668,34.6454167 L180.25663,34.6454167 L180.25663,26.614375 C180.25663,23.1025 179.736523,21.2808333 176.646934,21.2808333 C174.370219,21.2808333 173.00494,22.7125 173.00494,25.0854167 L173.00494,34.6454167 L168.938693,34.6454167 L168.938693,17.6725 Z" id="Fill-12" fill="#333333"></path>
            <path d="M199.931565,26.0618333 C199.931565,23.4924583 197.752578,21.2807917 195.117873,21.2807917 C192.48421,21.2807917 190.304182,23.4924583 190.304182,26.0618333 C190.304182,28.62975 192.48421,30.8418333 195.117873,30.8418333 C197.752578,30.8418333 199.931565,28.62975 199.931565,26.0618333 M186.402135,26.0618333 C186.402135,21.2807917 190.272509,17.5099583 195.117873,17.5099583 C196.809469,17.5099583 198.500022,17.9968333 199.931565,19.0049583 L199.931565,11.8376667 L203.997812,11.8376667 L203.997812,34.645375 L199.931565,34.645375 L199.931565,33.1824583 C198.597959,34.092875 196.776754,34.645375 195.117873,34.645375 C190.272509,34.645375 186.402135,30.776625 186.402135,26.0618333" id="Fill-13" fill="#333333"></path>
            <path d="M37.0225618,18.1216667 C37.0225618,15.2025 34.6477017,12.83 31.7318979,12.83 C28.8617283,12.83 26.525001,15.12625 26.4485271,17.9789583 L26.4493606,17.9789583 L26.4493606,23.411875 L31.8427538,23.411875 L31.8427538,26.4460417 L26.4493606,26.4460417 L26.4493606,31.7397917 L26.4587375,31.7397917 C26.4587375,31.8027083 26.4508192,31.8635417 26.4493606,31.92625 L26.4493606,32.2891667 L26.4310235,32.2891667 C26.1461736,36.6220833 22.5410623,40.0633333 18.1355792,40.0633333 C13.5431828,40.0633333 9.81096221,36.3289583 9.81096221,31.7397917 C9.81096221,27.1714583 13.5098427,23.4533333 18.0730664,23.4191667 L18.0730664,23.411875 L20.3514484,23.411875 L20.3514484,26.4460417 L18.1355792,26.4460417 L18.1355792,26.4479167 C15.2158161,26.4479167 12.8434566,28.821875 12.8434566,31.7397917 C12.8434566,34.656875 15.2158161,37.029375 18.1355792,37.029375 C20.9905373,37.029375 23.3166374,34.7572917 23.4168662,31.9277083 L23.4168662,18.1216667 L23.4058223,18.1216667 C23.4058223,13.5322917 27.1397099,9.79604167 31.7318979,9.79604167 C36.3201267,9.79604167 40.0552646,13.5322917 40.0552646,18.1216667 L37.0225618,18.1216667 Z M24.9317589,-2.84217094e-14 C11.1845761,-2.84217094e-14 0,11.1835417 0,24.9285417 C0,38.67375 11.1845761,49.8572917 24.9317589,49.8572917 C38.6816507,49.8572917 49.8662268,38.67375 49.8662268,24.9285417 C49.8662268,11.1835417 38.6816507,-2.84217094e-14 24.9317589,-2.84217094e-14 Z" id="Fill-14" fill="#41C85A"></path>
        </g>
    </g>
</svg>
