<?xml version="1.0" encoding="UTF-8"?>
<svg width="2104px" height="264px" viewBox="0 0 2104 264" version="1.1" xmlns="http://www.w3.org/2000/svg" xmlns:xlink="http://www.w3.org/1999/xlink">
    <!-- Generator: Sketch 48.2 (47327) - http://www.bohemiancoding.com/sketch -->
    <title>lower-wave</title>
    <desc>Created with Sketch.</desc>
    <defs></defs>
    <g id="New" stroke="none" stroke-width="1" fill="none" fill-rule="evenodd" opacity="0.497543031">
        <path d="M1967.643,26.4034369 C1853.742,71.2336939 1764.4,94.0916668 1682.893,61.8839772 C1601.385,29.6752879 1545.315,24.6340583 1445.068,33.6398957 C1340,43.0775815 1275.598,90.1960348 1175.28,43.0575885 C1137.461,25.286829 1096.367,16.6138747 1052,17.0227311 C1007.634,16.6138747 966.539,25.286829 928.721,43.0575885 C828.403,90.1960348 764,43.0775815 658.934,33.6398957 C558.686,24.6340583 502.616,29.6752879 421.108,61.8839772 C339.601,94.0916668 250.259,71.2336939 136.357,26.4034369 C90.906,8.51371926 45.454,-0.278193274 0,0.00670667708 L0,264 L2104,264 L2104,0.00670667708 C2058.547,-0.278193274 2013.095,8.51371926 1967.643,26.4034369" id="lower-wave" fill="#C0EADB"></path>
    </g>
</svg>