<?xml version="1.0" encoding="UTF-8"?>
<svg width="32px" height="24px" viewBox="0 0 32 24" version="1.1" xmlns="http://www.w3.org/2000/svg" xmlns:xlink="http://www.w3.org/1999/xlink">
    <!-- Generator: Sketch 48.2 (47327) - http://www.bohemiancoding.com/sketch -->
    <title>prob-3-ico-2</title>
    <desc>Created with Sketch.</desc>
    <defs></defs>
    <g id="Landing-02" stroke="none" stroke-width="1" fill="none" fill-rule="evenodd" transform="translate(-506.000000, -2471.000000)">
        <g id="prob-3-ico-2" transform="translate(506.000000, 2471.000000)" fill="#278D3A" fill-rule="nonzero">
            <path d="M31.878534,5.4361466 C31.878534,3.73629319 30.4963351,2.3539267 28.7963141,2.3539267 C27.0964607,2.3539267 25.7140942,3.73629319 25.7140942,5.4361466 C25.7140942,5.85918325 25.800712,6.2626178 25.9555183,6.63019895 C25.9022408,6.62450262 25.8487958,6.61327749 25.7948482,6.61327749 C25.7936754,6.61327749 25.7913298,6.61327749 25.789822,6.61327749 L19.6257173,6.0262199 C19.5741152,6.02136126 19.5201675,6.02387435 19.4680628,6.03258639 L16.1960209,6.61176963 C15.2906387,6.64159162 14.5645236,7.38714136 14.5645236,8.29905759 C14.5645236,9.22957068 15.3219686,9.98701571 16.2529843,9.98701571 C16.2921885,9.98701571 16.3315602,9.98282723 16.3702618,9.97445026 L19.5913717,9.31602094 L21.7511204,9.61759162 C18.6861571,12.3705969 18.6340524,12.4307435 18.6052356,12.4639162 C18.3599581,12.7470576 18.2155393,13.1003979 18.1935916,13.4666387 C18.0193508,13.8583455 17.0028901,15.5285445 16.0393717,17.0482932 L11.9396859,18.4770681 C11.8981361,18.4908063 11.8585969,18.5102408 11.8210681,18.5338639 C11.3239791,18.8456545 11.0267644,19.3796021 11.0267644,19.9631414 C11.0267644,20.8931518 11.7842094,21.6510995 12.7152251,21.6510995 C12.8237906,21.6510995 13.1111204,21.6510995 17.7169424,20.072712 C17.8310366,20.0343455 17.9300524,19.9607958 18.0012565,19.8634555 L20.5605864,16.3545131 C21.4555812,17.1240209 22.5100733,18.0334241 22.9456754,18.4095497 L22.9456754,21.9930471 C22.9456754,22.9240628 23.7031204,23.6808377 24.6336335,23.6808377 C25.5648168,23.6808377 26.3220942,22.9238953 26.3220942,21.9930471 L26.3220942,17.8109319 C26.3220942,17.4331309 26.0877068,16.9796021 26.0153298,16.8500942 C25.9878534,16.7996649 25.9528377,16.7537592 25.9109529,16.7142199 L22.9009424,13.7849634 L24.0665131,12.6136963 L24.2224921,14.054534 C24.2461152,14.2706597 24.3865131,14.4559581 24.5877277,14.5362094 C28.2320419,15.9983246 28.309445,15.9983246 28.4515183,15.9983246 C29.2466597,15.9983246 29.894534,15.3504503 29.894534,14.5546387 C29.894534,14.0568796 29.6410471,13.6006702 29.1974031,13.322555 L26.9704712,12.0417173 L26.7863455,10.0945759 C26.8614031,9.9114555 26.9451728,9.73302618 26.9714764,9.69382199 C27.3670366,9.25989529 27.4226597,8.76732984 27.4226597,8.29939267 C27.4226597,8.25633508 27.4127749,8.21595812 27.4105969,8.1740733 C27.8292775,8.38735079 28.2958743,8.51886911 28.7969843,8.51886911 C30.4963351,8.51836649 31.878534,7.13549738 31.878534,5.4361466 Z M28.5922513,14.3264503 C28.672,14.3762094 28.7195812,14.4611518 28.7195812,14.5529634 C28.7195812,14.6791204 28.6319581,14.7858429 28.5136754,14.8144921 C28.1387225,14.6826387 26.7121257,14.120712 25.3510366,13.5758743 L25.0998953,11.2641675 C25.075267,11.0394974 24.9244817,10.8485026 24.7107016,10.773445 C24.4990995,10.6988901 24.2595183,10.7528377 24.1000209,10.9130052 L21.6482513,13.3763351 C21.538178,13.4875812 21.476356,13.638199 21.4773613,13.7948482 C21.478534,13.9525026 21.5427016,14.1016126 21.6551204,14.2110157 L25.0234974,17.4894241 C25.0859895,17.6167539 25.1409424,17.7611728 25.1466387,17.8104293 L25.1466387,21.9925445 C25.1466387,22.2761885 24.9162723,22.5060524 24.6324607,22.5060524 C24.349822,22.5060524 24.1187853,22.2756859 24.1187853,21.9925445 L24.1187853,18.1401466 C24.1187853,17.9692565 24.0449005,17.8070785 23.9152251,17.6958325 C23.9152251,17.6958325 22.0421361,16.0797487 20.8420524,15.0493822 C20.7353298,14.9580733 20.5989529,14.9081466 20.4602304,14.9081466 C20.4372775,14.9081466 20.4144921,14.9094869 20.392712,14.9121675 C20.2298639,14.9310995 20.0824293,15.0170471 19.9855916,15.1495707 L17.1613822,19.0224084 C15.1437068,19.7116649 12.9521257,20.4322513 12.7155602,20.4776545 C12.4317487,20.4776545 12.2010471,20.2466178 12.2010471,19.9639791 C12.2010471,19.8053194 12.2744293,19.658555 12.4002513,19.5610471 L16.6192251,18.0910576 C16.7437068,18.0473298 16.8505969,17.9630576 16.921466,17.8519791 C19.3653613,14.0109738 19.3653613,13.7541361 19.3653613,13.5656545 C19.3653613,13.4136963 19.4353927,13.3012775 19.4685654,13.2605654 C19.6148272,13.1183246 21.9447958,11.022911 23.4762723,9.64908901 C23.6459895,9.49629319 23.7125026,9.25922513 23.6459895,9.04075393 C23.5789738,8.82228272 23.3913298,8.66211518 23.1656545,8.63112042 L19.6555393,8.14056545 C19.5891937,8.13135079 19.5220105,8.13369634 19.4571728,8.14709948 L16.2060733,8.81156021 C15.9453822,8.78693194 15.7404817,8.56678534 15.7404817,8.29989529 C15.7404817,8.01608377 15.9713508,7.7862199 16.2548272,7.7862199 C16.2895079,7.7862199 16.3233508,7.78303665 16.3568586,7.77734031 L19.5960628,7.20368586 L25.7358743,7.7862199 C26.0186806,7.7862199 26.2495497,8.01675393 26.2495497,8.29989529 C26.2495497,8.67367539 26.1991204,8.79983246 26.1063037,8.90102618 C25.9325654,9.09051309 25.7571518,9.49512042 25.6413822,9.80154974 C25.6093822,9.88548691 25.597822,9.97528796 25.6058639,10.0652565 L25.8312042,12.4543665 C25.8489634,12.6448586 25.9580314,12.8144084 26.1235602,12.9085654 L28.5922513,14.3264503 Z M26.8882094,5.4361466 C26.8882094,4.38383246 27.7441675,3.52804188 28.7963141,3.52804188 C29.8484607,3.52804188 30.7045864,4.38366492 30.7045864,5.4361466 C30.7045864,6.48829319 29.8486283,7.34425131 28.7963141,7.34425131 C27.7443351,7.34425131 26.8882094,6.48829319 26.8882094,5.4361466 Z" id="Shape"></path>
            <path d="M14.2872461,13.8070785 L12.5007749,15.5935497 C12.2710785,15.8234136 12.2710785,16.1938429 12.5007749,16.4237068 C12.6152042,16.5379686 12.7656545,16.5957696 12.9159372,16.5957696 C13.0660524,16.5957696 13.2163351,16.537801 13.3310995,16.4237068 L16.1199581,13.6350157 C16.1739058,13.5805654 16.217466,13.5157277 16.2466178,13.4438534 C16.3059267,13.3001047 16.3059267,13.1389319 16.2466178,12.9950157 C16.2167958,12.9233089 16.1737382,12.8579686 16.1199581,12.8040209 L13.4778639,10.1619267 C13.2481675,9.93223037 12.8774031,9.93223037 12.6477068,10.1619267 C12.4180105,10.391623 12.4180105,10.762555 12.6477068,10.9920838 L14.2874136,12.6317906 L10.9342827,12.6317906 L10.9342827,0.743371728 C10.9342827,0.419183246 10.6710785,0.156314136 10.3472251,0.156314136 L0.587057592,0.156314136 C0.26286911,0.156146597 0,0.419015707 0,0.743371728 L0,23.0936126 C0,23.4176335 0.26286911,23.6806702 0.587057592,23.6806702 L10.3477277,23.6806702 C10.6717487,23.6806702 10.9347853,23.4176335 10.9347853,23.0936126 L10.9347853,13.8070785 L14.2872461,13.8070785 Z M9.76067016,22.5062199 L1.17428272,22.5062199 L1.17428272,1.33093194 L9.76067016,1.33093194 L9.76067016,12.6327958 L7.48565445,12.6327958 C7.16146597,12.6327958 6.89859686,12.8958325 6.89859686,13.2198534 C6.89859686,13.5438743 7.16146597,13.8070785 7.48565445,13.8070785 L9.76067016,13.8070785 L9.76067016,22.5062199 Z" id="Shape"></path>
        </g>
    </g>
</svg>