<?xml version="1.0" encoding="UTF-8"?>
<svg width="32px" height="31px" viewBox="0 0 32 31" version="1.1" xmlns="http://www.w3.org/2000/svg" xmlns:xlink="http://www.w3.org/1999/xlink">
    <!-- Generator: Sketch 48.2 (47327) - http://www.bohemiancoding.com/sketch -->
    <title>prob-3-ico-1</title>
    <desc>Created with Sketch.</desc>
    <defs></defs>
    <g id="Landing-02" stroke="none" stroke-width="1" fill="none" fill-rule="evenodd" transform="translate(-563.000000, -2327.000000)">
        <g id="prob-3-ico-1" transform="translate(563.000000, 2327.000000)" fill="#278D3A" fill-rule="nonzero">
            <path d="M31.3786667,20.9180667 C30.9850667,20.5858 30.4650667,20.4466 29.9584,20.5346 L19.7333333,22.3132667 L19.7333333,18.6631333 C20.5216,18.6151333 21.9728,18.3874 22.9738667,17.3868667 C24.3765333,15.9852667 24.2666667,13.6834 24.2608,13.5863333 C24.2464,13.3143333 24.0293333,13.0978 23.7578667,13.0834 C23.6613333,13.0748667 21.3584,12.9682 19.9573333,14.3698 C19.8773333,14.4498 19.8037333,14.5335333 19.7333333,14.6183333 L19.7333333,12.8002 C20.5216,12.7522 21.9728,12.5244667 22.9738667,11.5239333 C24.3765333,10.1223333 24.2666667,7.82046667 24.2608,7.7234 C24.2464,7.4514 24.0293333,7.23486667 23.7578667,7.22046667 C23.6613333,7.213 21.3584,7.10526667 19.9573333,8.5074 C19.8773333,8.5874 19.8037333,8.67113333 19.7333333,8.75593333 L19.7333333,7.17193333 L22.7264,4.24073333 C23.2037333,3.77353333 23.4666667,3.1506 23.4666667,2.4882 C23.4666667,1.82526667 23.2037333,1.20233333 22.7264,0.735133333 C22.7264,0.7346 22.7258667,0.7346 22.7258667,0.7346 C21.7552,-0.2158 20.1802667,-0.222733333 19.2,0.712733333 C18.2192,-0.223266667 16.6448,-0.2158 15.6736,0.735133333 C15.1962667,1.20233333 14.9333333,1.82526667 14.9333333,2.4882 C14.9333333,3.1506 15.1962667,3.77353333 15.6741333,4.24126667 L18.6666667,7.1714 L18.6666667,8.7554 C18.5962667,8.67006667 18.5226667,8.58686667 18.4426667,8.50686667 C17.0416,7.1042 14.7386667,7.21246667 14.6421333,7.21993333 C14.3701333,7.23433333 14.1536,7.4514 14.1392,7.72286667 C14.1333333,7.81993333 14.0234667,10.1218 15.4261333,11.5234 C16.4272,12.525 17.8784,12.7522 18.6666667,12.7996667 L18.6666667,14.6178 C18.5962667,14.5324667 18.5226667,14.4487333 18.4426667,14.3692667 C17.0410667,12.9676667 14.7397333,13.0748667 14.6421333,13.0828667 C14.3701333,13.0972667 14.1536,13.3143333 14.1392,13.5858 C14.1333333,13.6828667 14.0234667,15.9847333 15.4261333,17.3863333 C16.4272,18.3879333 17.8784,18.6151333 18.6666667,18.6626 L18.6666667,21.6594 L16.3770667,19.3698 C16.2773333,19.2700667 16.1418667,19.2140667 16,19.2140667 L10.6666667,19.2140667 C10.6666667,18.9191333 10.4282667,18.6807333 10.1333333,18.6807333 L8,18.6807333 L0,18.6807333 L0,19.7474 L7.46666667,19.7474 L7.46666667,27.2140667 L0,27.2140667 L0,28.2807333 L8,28.2807333 L10.1333333,28.2807333 C10.4282667,28.2807333 10.6666667,28.0423333 10.6666667,27.7474 L12.1408,27.7474 L17.8426667,30.5986 C18.0890667,30.7218 18.3562667,30.7836667 18.6224,30.7836667 C18.9258667,30.7836667 19.2288,30.7042 19.5002667,30.5458 L31.1354667,23.7580667 C31.6688,23.4471333 32,22.8706 32,22.253 C32,21.7367333 31.7733333,21.2503333 31.3786667,20.9180667 Z M20.7114667,15.1234 C21.4304,14.4044667 22.5376,14.2114 23.1834667,14.1618 C23.1349333,14.8060667 22.9429333,15.909 22.2197333,16.6322 C21.5008,17.3511333 20.3936,17.5442 19.7482667,17.5938 C19.7968,16.9495333 19.9888,15.8466 20.7114667,15.1234 Z M20.7114667,9.261 C21.4304,8.54153333 22.5376,8.34846667 23.1834667,8.29886667 C23.1349333,8.94313333 22.9429333,10.0460667 22.2197333,10.7692667 C21.5013333,11.4876667 20.3957333,11.6807333 19.7498667,11.7308667 C19.8,11.085 19.9930667,9.9794 20.7114667,9.261 Z M16.1802667,10.7692667 C15.4608,10.0503333 15.2677333,8.94313333 15.2181333,8.29726667 C15.8624,8.3458 16.9653333,8.5378 17.6885333,9.261 C18.4069333,9.9794 18.6,11.085 18.6501333,11.7308667 C18.0042667,11.6807333 16.8986667,11.4876667 16.1802667,10.7692667 Z M16.1802667,16.6322 C15.4608,15.9132667 15.2677333,14.8055333 15.2181333,14.1602 C15.8624,14.2087333 16.9653333,14.4002 17.6885333,15.1234 C18.4069333,15.8423333 18.6,16.9479333 18.6501333,17.5938 C18.0042667,17.5436667 16.8986667,17.3506 16.1802667,16.6322 Z M9.6,27.2140667 L8.53333333,27.2140667 L8.53333333,19.7474 L9.6,19.7474 L9.6,27.2140667 Z M16.4202667,3.47913333 C16.1493333,3.21353333 16,2.86153333 16,2.4882 C16,2.11433333 16.1493333,1.76233333 16.4197333,1.49726667 C16.7034667,1.2194 17.0757333,1.08073333 17.4485333,1.08073333 C17.8202667,1.08073333 18.1930667,1.21993333 18.4768,1.49726667 L18.8272,1.84073333 C19.0346667,2.04393333 19.3658667,2.04393333 19.5728,1.84073333 L19.9232,1.49726667 C20.4901333,0.9426 21.4122667,0.9426 21.9792,1.49673333 C22.2506667,1.7618 22.4,2.11433333 22.4,2.4882 C22.4,2.86153333 22.2506667,3.21353333 21.9802667,3.4786 L19.2,6.20126667 L16.4202667,3.47913333 Z M30.5978667,22.8364667 L18.9632,29.6242 C18.7658667,29.7399333 18.5253333,29.7468667 18.32,29.6444667 L12.5056,26.7372667 C12.4314667,26.6999333 12.3493333,26.6807333 12.2666667,26.6807333 L10.6666667,26.6807333 L10.6666667,20.2807333 L15.7792,20.2807333 L19.9813333,24.4828667 C20.1626667,24.6642 20.2666667,24.9154 20.2666667,25.1724667 C20.2666667,25.7100667 19.8293333,26.1474 19.2917333,26.1474 C19.0352,26.1474 18.7834667,26.0434 18.6021333,25.8620667 L15.8437333,23.1036667 L15.0896,23.8578 L17.848,26.6162 C18.2336,27.0018 18.7461333,27.2140667 19.2917333,27.2140667 C20.4170667,27.2140667 21.3333333,26.2978 21.3333333,25.1724667 C21.3333333,24.6274 21.1210667,24.1143333 20.7354667,23.7287333 L20.3034667,23.2967333 L30.1402667,21.5858 C30.3386667,21.5500667 30.5386667,21.6055333 30.6917333,21.7346 C30.8453333,21.8636667 30.9333333,22.0524667 30.9333333,22.2524667 C30.9333333,22.4919333 30.8048,22.7159333 30.5978667,22.8364667 Z" id="Shape"></path>
            <path d="M11.2,1.61406667 L10.1333333,1.61406667 C10.1333333,2.4962 9.41546667,3.21406667 8.53333333,3.21406667 L8.53333333,4.28073333 C9.41546667,4.28073333 10.1333333,4.9986 10.1333333,5.88073333 L11.2,5.88073333 C11.2,4.9986 11.9178667,4.28073333 12.8,4.28073333 L12.8,3.21406667 C11.9178667,3.21406667 11.2,2.4962 11.2,1.61406667 Z M10.6666667,4.29726667 C10.5109333,4.08766667 10.3264,3.90313333 10.1168,3.7474 C10.3264,3.59166667 10.5109333,3.40713333 10.6666667,3.19753333 C10.8224,3.40713333 11.0069333,3.59166667 11.2165333,3.7474 C11.0069333,3.90313333 10.8224,4.08766667 10.6666667,4.29726667 Z" id="Shape"></path>
            <path d="M8,6.41406667 L6.93333333,6.41406667 C6.93333333,7.2962 6.21546667,8.01406667 5.33333333,8.01406667 L5.33333333,9.08073333 C6.21546667,9.08073333 6.93333333,9.7986 6.93333333,10.6807333 L8,10.6807333 C8,9.7986 8.71786667,9.08073333 9.6,9.08073333 L9.6,8.01406667 C8.71786667,8.01406667 8,7.2962 8,6.41406667 Z M7.46666667,9.09726667 C7.31093333,8.88766667 7.1264,8.70313333 6.9168,8.5474 C7.1264,8.39166667 7.31093333,8.20713333 7.46666667,7.99753333 C7.6224,8.20713333 7.80693333,8.39166667 8.01653333,8.5474 C7.80693333,8.70313333 7.6224,8.88766667 7.46666667,9.09726667 Z" id="Shape"></path>
            <path d="M28.2666667,3.7474 L27.2,3.7474 C27.2,4.62953333 26.4821333,5.3474 25.6,5.3474 L25.6,6.41406667 C26.4821333,6.41406667 27.2,7.13193333 27.2,8.01406667 L28.2666667,8.01406667 C28.2666667,7.13193333 28.9845333,6.41406667 29.8666667,6.41406667 L29.8666667,5.3474 C28.9845333,5.3474 28.2666667,4.62953333 28.2666667,3.7474 Z M27.7333333,6.4306 C27.5776,6.221 27.3930667,6.03646667 27.1834667,5.88073333 C27.3930667,5.725 27.5776,5.54046667 27.7333333,5.33086667 C27.8890667,5.54046667 28.0736,5.725 28.2832,5.88073333 C28.0736,6.03646667 27.8890667,6.221 27.7333333,6.4306 Z" id="Shape"></path>
            <rect id="Rectangle-path" x="9.6" y="16.5474" width="1.06666667" height="1.06666667"></rect>
            <rect id="Rectangle-path" x="7.46666667" y="16.5474" width="1.06666667" height="1.06666667"></rect>
            <rect id="Rectangle-path" x="5.33333333" y="16.5474" width="1.06666667" height="1.06666667"></rect>
        </g>
    </g>
</svg>