<?xml version="1.0" encoding="UTF-8"?>
<svg width="26px" height="30px" viewBox="0 0 26 30" version="1.1" xmlns="http://www.w3.org/2000/svg" xmlns:xlink="http://www.w3.org/1999/xlink">
    <!-- Generator: Sketch 48.2 (47327) - http://www.bohemiancoding.com/sketch -->
    <title>prob-3-ico-6</title>
    <desc>Created with Sketch.</desc>
    <defs></defs>
    <g id="Landing-02" stroke="none" stroke-width="1" fill="none" fill-rule="evenodd" transform="translate(-848.000000, -2608.000000)">
        <g id="prob-3-ico-6" transform="translate(850.000000, 2610.000000)">
            <path d="M-0.6,2.12223243 L11.315714,-0.615769384 L23.1333333,2.12315585 L23.1333333,15.7650215 C23.1333333,18.5536057 21.6061628,21.1182397 19.1544555,22.4468981 L11.3406368,26.6814558 L3.41465299,22.4407745 C0.943026012,21.1183667 -0.6,18.5427931 -0.6,15.7396338 L-0.6,2.12223243 Z" id="Rectangle-5" stroke="#278D3A" stroke-width="1.2"></path>
            <path d="M14.6397333,15.1510667 C14.6397333,16.7578667 13.7973333,17.9434667 12.3465333,18.3490667 L12.3465333,20.4082667 L10.3653333,20.4082667 L10.3653333,18.3490667 C8.78973333,17.9122667 7.85373333,16.7110667 7.85373333,15.3850667 L7.85373333,15.1822667 L9.94413333,15.1822667 C9.99093333,15.9934667 10.5057333,16.5238667 11.2545333,16.5238667 C12.0033333,16.5238667 12.5649333,15.9622667 12.5649333,15.2290667 C12.5649333,14.7298667 12.3933333,14.4178667 11.9565333,14.1370667 C11.6757333,13.9654667 11.6757333,13.9498667 10.3185333,13.4350667 C8.99253333,12.9514667 8.30613333,11.9998667 8.30613333,10.6270667 C8.30613333,9.28546667 8.96133333,8.11546667 10.3653333,7.78786667 L10.3653333,5.71306667 L12.3465333,5.71306667 L12.3465333,7.78786667 C13.4073333,7.99066667 14.2341333,9.14506667 14.2809333,10.4710667 L12.3153333,10.4710667 C12.1905333,9.84706667 11.8317333,9.50386667 11.3013333,9.50386667 C10.7709333,9.50386667 10.3809333,9.92506667 10.3809333,10.5022667 C10.3809333,11.2198667 10.6149333,11.4850667 12.1593333,12.0622667 C14.0937333,12.7330667 14.6397333,13.4818667 14.6397333,15.1510667 Z" id="$" fill="#278D3A"></path>
        </g>
    </g>
</svg>