<?xml version="1.0" encoding="UTF-8"?>
<svg width="32px" height="32px" viewBox="0 0 32 32" version="1.1" xmlns="http://www.w3.org/2000/svg" xmlns:xlink="http://www.w3.org/1999/xlink">
    <!-- Generator: Sketch 48.2 (47327) - http://www.bohemiancoding.com/sketch -->
    <title>prob-3-ico-3</title>
    <desc>Created with Sketch.</desc>
    <defs></defs>
    <g id="Landing-02" stroke="none" stroke-width="1" fill="none" fill-rule="evenodd" transform="translate(-564.000000, -2607.000000)">
        <g id="prob-3-ico-3" transform="translate(564.000000, 2607.000000)" fill="#278D3A" fill-rule="nonzero">
            <path d="M15.0096875,8.6179375 C14.8935,8.50175 14.7323125,8.434875 14.568,8.434875 C14.4030625,8.434875 14.2425,8.50175 14.1263125,8.6179375 C14.0095,8.734125 13.94325,8.8953125 13.94325,9.059625 C13.94325,9.2239375 14.0095,9.385125 14.1263125,9.5013125 C14.2425,9.6174375 14.4030625,9.684375 14.568,9.684375 C14.7323125,9.684375 14.8935,9.6175 15.0096875,9.5013125 C15.125875,9.385125 15.19275,9.2239375 15.19275,9.059625 C15.19275,8.8953125 15.1259375,8.734125 15.0096875,8.6179375 Z" id="Shape"></path>
            <path d="M17.85975,22.6474375 C17.7435625,22.53125 17.582375,22.464375 17.4180625,22.464375 C17.25375,22.464375 17.0925625,22.5311875 16.976375,22.6474375 C16.8601875,22.7636875 16.7933125,22.9248125 16.7933125,23.089125 C16.7933125,23.2534375 16.8601875,23.414625 16.976375,23.53075 C17.0925625,23.647 17.25375,23.713875 17.4180625,23.713875 C17.582375,23.713875 17.7435625,23.647 17.85975,23.53075 C17.9765625,23.414625 18.0428125,23.2534375 18.0428125,23.089125 C18.04275,22.9248125 17.9765625,22.763625 17.85975,22.6474375 Z" id="Shape"></path>
            <path d="M18.559375,13.38725 C18.2143125,13.38725 17.934625,13.667 17.934625,14.012 L17.934625,17.985 C17.934625,18.3300625 18.2143125,18.60975 18.559375,18.60975 C18.9044375,18.60975 19.184125,18.33 19.184125,17.985 L19.184125,14.012 C19.1840625,13.667 18.904375,13.38725 18.559375,13.38725 Z" id="Shape"></path>
            <path d="M17.0244375,17.7634375 L15.517625,13.7904375 C15.4255625,13.54775 15.1930625,13.38725 14.9335,13.38725 C14.6739375,13.38725 14.4414375,13.54775 14.349375,13.7904375 L12.8425625,17.7634375 C12.7203125,18.0860625 12.882625,18.44675 13.2051875,18.5690625 C13.527875,18.691625 13.8885,18.529125 14.0108125,18.2064375 L14.1766875,17.7690625 L15.6903125,17.7690625 L15.8561875,18.2064375 C15.950875,18.456125 16.1883125,18.6098125 16.4404375,18.6098125 C16.514,18.6098125 16.5889375,18.5966875 16.6618125,18.569 C16.9845,18.44675 17.1468125,18.086125 17.0244375,17.7634375 Z M14.6506875,16.5196875 L14.933625,15.7736875 L15.2165625,16.5196875 L14.6506875,16.5196875 Z" id="Shape"></path>
            <path d="M29.8759375,27.7465 C29.5174375,27.7465 29.1796875,27.8360625 28.8831875,27.9935625 L27.217125,26.3275 L27.217125,25.396375 C27.921875,24.660375 28.35625,23.6635 28.35625,22.5665 C28.35625,21.9999375 28.23675,21.4405625 28.0121875,20.926 C29.3241875,20.599 30.2993125,19.411125 30.2993125,17.9993125 L30.2993125,12.4365 C30.2993125,10.8484375 29.0654375,9.5440625 27.5061875,9.4294375 C27.57375,9.180375 27.6091875,8.9215 27.6091875,8.6583125 C27.6091875,8.1253125 27.4659375,7.6253125 27.2170625,7.1936875 L27.2170625,5.672625 L28.883125,4.0065625 C29.179625,4.164 29.5174375,4.253625 29.875875,4.253625 C31.047125,4.253625 31.9999375,3.3008125 31.9999375,2.1295625 C31.9999375,0.9583125 31.047125,0.0055 29.875875,0.0055 C28.704625,0.0055 27.7518125,0.9583125 27.7518125,2.1295625 C27.7518125,2.4884375 27.8415625,2.8265625 27.999375,3.1233125 L26.150625,4.972125 C26.0335,5.0893125 25.967625,5.2481875 25.967625,5.413875 L25.967625,6.0204375 C25.575375,5.8263125 25.134125,5.716625 24.6675625,5.716625 C24.41475,5.716625 24.1653125,5.74875 23.9245625,5.8114375 C23.54875,4.2170625 22.1150625,3.026375 20.4075,3.026375 C18.4146875,3.026375 16.793375,4.6476875 16.793375,6.6405 L16.793375,10.6258125 L12.775625,10.6258125 C12.6099375,10.6258125 12.451,10.6916875 12.333875,10.8088125 L10.8033125,12.339375 C10.6861875,12.4565625 10.6203125,12.6154375 10.6203125,12.781125 L10.6203125,19.2158125 C10.6203125,19.3815 10.6861875,19.540375 10.8033125,19.6575625 L12.333875,21.188125 C12.451,21.30525 12.6099375,21.371125 12.775625,21.371125 L13.943125,21.371125 L13.943125,25.3378125 C13.943125,26.6519375 12.8739375,27.721 11.559875,27.721 C10.6205,27.721 9.767875,27.167625 9.3845625,26.310625 C9.931,26.0684375 10.4225625,25.7075 10.8208125,25.2480625 C10.933625,25.2711875 11.0504375,25.283375 11.1700625,25.283375 C12.127875,25.283375 12.907125,24.504125 12.907125,23.5463125 C12.907125,22.5885 12.127875,21.80925 11.1700625,21.80925 C10.21225,21.80925 9.433,22.5885 9.433,23.5463125 C9.433,23.9231875 9.5540625,24.2721875 9.7588125,24.5571875 C9.2276875,25.09925 8.4975625,25.4125 7.725625,25.4125 C6.1561875,25.4125 4.879375,24.1356875 4.879375,22.56625 C4.879375,21.9730625 5.0573125,21.412375 5.394625,20.93325 C5.77075,20.8440625 6.127875,20.68375 6.4441875,20.4606875 C6.777375,20.68975 7.180375,20.8241875 7.614375,20.8241875 C8.7561875,20.8241875 9.685125,19.8953125 9.685125,18.7534375 C9.685125,17.6116875 8.756125,16.6826875 7.614375,16.6826875 C6.472625,16.6826875 5.543625,17.6115625 5.543625,18.7534375 C5.543625,19.007375 5.5898125,19.2506875 5.6738125,19.4756875 C5.3885625,19.6644375 5.05475,19.7659375 4.7030625,19.7659375 C3.728875,19.7659375 2.9363125,18.973375 2.9363125,17.999125 L2.9363125,12.4363125 C2.9363125,11.462125 3.728875,10.6695625 4.7030625,10.6695625 C5.512125,10.6695625 6.1955,11.2164375 6.404,11.9598125 C5.7888125,12.2274375 5.3574375,12.8408125 5.3574375,13.5533125 C5.3574375,14.511125 6.1366875,15.290375 7.0945,15.290375 C8.0523125,15.290375 8.8315625,14.511125 8.8315625,13.5533125 C8.8315625,12.798375 8.347375,12.1548125 7.673375,11.9158125 C7.502875,10.9401875 6.862625,10.12425 5.9944375,9.711125 C5.7565625,9.4124375 5.6264375,9.043 5.6264375,8.6580625 C5.6264375,7.725 6.3855625,6.965875 7.318625,6.965875 C7.547125,6.965875 7.77025,7.0124375 7.9771875,7.0999375 C8.0253125,7.5973125 8.21025,8.066125 8.5124375,8.4624375 C8.445625,8.6595625 8.408875,8.870375 8.408875,9.08975 C8.408875,10.1701875 9.2879375,11.0491875 10.368375,11.0491875 C11.4488125,11.0491875 12.327875,10.1701875 12.327875,9.08975 C12.327875,8.0093125 11.4488125,7.13025 10.368375,7.13025 C9.9913125,7.13025 9.6389375,7.2375625 9.3396875,7.4229375 C9.25825,7.240625 9.2139375,7.0423125 9.2139375,6.837125 L9.2139375,6.7583125 C9.2153125,6.7348125 9.2151875,6.711375 9.2139375,6.688 L9.2139375,6.6403125 C9.2139375,5.3364375 10.2746875,4.275625 11.5785625,4.275625 C12.8824375,4.275625 13.94325,5.336375 13.94325,6.6403125 C13.94325,6.9853125 14.2229375,7.2650625 14.568,7.2650625 C14.9130625,7.2650625 15.19275,6.9853125 15.19275,6.6403125 C15.19275,4.6475625 13.5714375,3.0261875 11.578625,3.0261875 C9.871125,3.0261875 8.4374375,4.216875 8.061625,5.81125 C7.820875,5.7485625 7.5714375,5.7164375 7.318625,5.7164375 C6.857625,5.7164375 6.42125,5.82325 6.0325,6.0130625 L6.0325,5.413625 C6.0325,5.2479375 5.966625,5.0890625 5.8495,4.971875 L4.0005625,3.12325 C4.158375,2.8265625 4.248125,2.488375 4.248125,2.1295 C4.248125,0.95825 3.2953125,0.0054375 2.1240625,0.0054375 C0.9528125,0.0054375 0,0.95825 0,2.1295 C0,3.30075 0.9528125,4.2535625 2.1240625,4.2535625 C2.4825625,4.2535625 2.8203125,4.164 3.1168125,4.0065 L4.782875,5.672625 L4.782875,7.1695 C4.5253125,7.6065625 4.3768125,8.11525 4.3768125,8.6583125 C4.3768125,8.9214375 4.412375,9.1803125 4.4798125,9.4294375 C2.920625,9.544125 1.6866875,10.8485 1.6866875,12.4365625 L1.6866875,17.999375 C1.6866875,19.411125 2.6618125,20.5990625 3.9738125,20.9260625 C3.7493125,21.4405 3.62975,22 3.62975,22.5665625 C3.62975,23.6708125 4.0698125,24.6736875 4.7828125,25.4110625 L4.7828125,26.3275625 L3.11675,27.993625 C2.82025,27.8361875 2.4824375,27.7465625 2.124,27.7465625 C0.9528125,27.7465 0,28.6993125 0,29.8705625 C0,31.0418125 0.9528125,31.994625 2.1240625,31.994625 C3.2953125,31.994625 4.248125,31.0418125 4.248125,29.8705625 C4.248125,29.51175 4.158375,29.1735625 4.0005625,28.8768125 L5.849375,27.028 C5.9665,26.9108125 6.032375,26.7519375 6.032375,26.58625 L6.032375,26.29425 C6.5488125,26.52975 7.1218125,26.6620625 7.7255625,26.6620625 C7.8725625,26.6620625 8.0184375,26.6536875 8.1628125,26.63825 L8.237875,26.8078125 C8.81925,28.1215625 10.1231875,28.9705 11.559875,28.9705 C13.5629375,28.9705 15.192625,27.340875 15.192625,25.3378125 L15.192625,21.371125 L19.2104375,21.371125 C19.376125,21.371125 19.5350625,21.30525 19.6521875,21.188125 L21.18275,19.6575625 C21.299875,19.540375 21.36575,19.3815 21.36575,19.2158125 L21.36575,12.781125 C21.36575,12.6154375 21.299875,12.4565625 21.18275,12.339375 L19.6521875,10.8088125 C19.5350625,10.6916875 19.376125,10.6258125 19.2104375,10.6258125 L18.0429375,10.6258125 L18.0429375,6.6405 C18.0429375,5.336625 19.1036875,4.2758125 20.407625,4.2758125 C21.7115625,4.2758125 22.7723125,5.3365625 22.7723125,6.6405 L22.7723125,6.6881875 C22.7710625,6.7115625 22.7709375,6.735 22.7723125,6.7585 L22.7723125,6.8373125 C22.7723125,7.0425 22.7280625,7.2408125 22.6465625,7.423125 C22.3473125,7.23775 21.995,7.1304375 21.617875,7.1304375 C20.5374375,7.1304375 19.658375,8.0095 19.658375,9.0899375 C19.658375,10.170375 20.5374375,11.049375 21.617875,11.049375 C22.6983125,11.049375 23.577375,10.170375 23.577375,9.0899375 C23.577375,8.8705625 23.5405625,8.65975 23.4738125,8.462625 C23.776,8.0663125 23.961,7.5974375 24.0090625,7.100125 C24.216125,7.012625 24.439125,6.9660625 24.667625,6.9660625 C25.60075,6.9660625 26.3598125,7.7251875 26.3598125,8.65825 C26.3598125,9.043125 26.229625,9.412625 25.9918125,9.7113125 C25.123625,10.124375 24.483375,10.9403125 24.312875,11.916 C23.638875,12.1549375 23.1546875,12.798625 23.1546875,13.5535 C23.1546875,14.5113125 23.9339375,15.2905625 24.89175,15.2905625 C25.8495625,15.2905625 26.6288125,14.5113125 26.6288125,13.5535 C26.6288125,12.841 26.1974375,12.2275625 25.58225,11.96 C25.7908125,11.216625 26.474125,10.66975 27.2831875,10.66975 C28.257375,10.66975 29.0499375,11.4623125 29.0499375,12.4365 L29.0499375,17.9993125 C29.0499375,18.9735625 28.2573125,19.766125 27.2831875,19.766125 C26.931375,19.766125 26.5976875,19.664625 26.3124375,19.475875 C26.3964375,19.250875 26.442625,19.0075625 26.442625,18.753625 C26.442625,17.611875 25.513625,16.682875 24.371875,16.682875 C23.230125,16.682875 22.301125,17.61175 22.301125,18.753625 C22.301125,19.8954375 23.230125,20.824375 24.371875,20.824375 C24.805875,20.824375 25.208875,20.6899375 25.5420625,20.460875 C25.858375,20.683875 26.2155,20.8441875 26.591625,20.9334375 C26.929,21.4125 27.106875,21.97325 27.106875,22.5664375 C27.106875,24.135875 25.8300625,25.4126875 24.260625,25.4126875 C23.4886875,25.4126875 22.7585625,25.0994375 22.2274375,24.557375 C22.4321875,24.272375 22.55325,23.923375 22.55325,23.5465 C22.55325,22.5886875 21.774,21.8094375 20.8161875,21.8094375 C19.858375,21.8094375 19.079125,22.5886875 19.079125,23.5465 C19.079125,24.5043125 19.858375,25.2835625 20.8161875,25.2835625 C20.93575,25.2835625 21.0525625,25.271375 21.1654375,25.24825 C21.5636875,25.707625 22.05525,26.0685625 22.6016875,26.3108125 C22.218375,27.1678125 21.3658125,27.7211875 20.426375,27.7211875 C19.1121875,27.7211875 18.043125,26.6520625 18.043125,25.338 C18.043125,24.993 17.7634375,24.71325 17.418375,24.71325 C17.0733125,24.71325 16.793625,24.993 16.793625,25.338 C16.793625,27.3410625 18.4233125,28.9706875 20.426375,28.9706875 C21.8630625,28.9706875 23.1670625,28.12175 23.7484375,26.8079375 L23.8234375,26.6384375 C23.9678125,26.6539375 24.1136875,26.66225 24.2606875,26.66225 C24.8698125,26.66225 25.44775,26.527625 25.96775,26.288125 L25.96775,26.586375 C25.96775,26.7520625 26.033625,26.9109375 26.15075,27.028125 L27.9995625,28.8769375 C27.84175,29.1736875 27.752,29.511875 27.752,29.8706875 C27.752,31.0419375 28.7048125,31.99475 29.8760625,31.99475 C31.0473125,31.99475 32.000125,31.0419375 32.000125,29.8706875 C32.000125,28.6994375 31.047125,27.7465 29.8759375,27.7465 Z M29.8759375,1.254875 C30.35825,1.254875 30.7505625,1.6471875 30.7505625,2.1295 C30.7505625,2.6118125 30.35825,3.004125 29.8759375,3.004125 C29.393625,3.004125 29.0013125,2.6118125 29.0013125,2.1295 C29.0013125,1.6471875 29.393625,1.254875 29.8759375,1.254875 Z M11.17,23.058875 C11.438875,23.058875 11.657625,23.2775625 11.657625,23.5465 C11.657625,23.8154375 11.4389375,24.034125 11.17,24.034125 C10.9010625,24.034125 10.682375,23.815375 10.682375,23.5465 C10.682375,23.277625 10.9011875,23.058875 11.17,23.058875 Z M7.6143125,17.9324375 C8.0671875,17.9324375 8.4355625,18.3008125 8.4355625,18.7536875 C8.4355625,19.2065625 8.0671875,19.5749375 7.6143125,19.5749375 C7.1614375,19.5749375 6.7930625,19.2065625 6.7930625,18.7536875 C6.7930625,18.300875 7.1614375,17.9324375 7.6143125,17.9324375 Z M7.0945,13.065875 C7.363375,13.065875 7.582125,13.2845625 7.582125,13.5535 C7.582125,13.8224375 7.363375,14.041125 7.0945,14.041125 C6.825625,14.041125 6.606875,13.8224375 6.606875,13.5535 C6.606875,13.2845625 6.8255625,13.065875 7.0945,13.065875 Z M10.3683125,8.379875 C10.7598125,8.379875 11.078375,8.6984375 11.078375,9.0899375 C11.078375,9.4814375 10.7598125,9.7999375 10.3683125,9.7999375 C9.9768125,9.7999375 9.65825,9.481375 9.65825,9.0899375 C9.65825,8.6984375 9.97675,8.379875 10.3683125,8.379875 Z M2.1240625,3.004125 C1.64175,3.004125 1.2494375,2.6118125 1.2494375,2.1295 C1.2494375,1.6471875 1.64175,1.254875 2.1240625,1.254875 C2.606375,1.254875 2.9986875,1.6471875 2.9986875,2.1295 C2.9986875,2.6118125 2.606375,3.004125 2.1240625,3.004125 Z M2.1240625,30.7451875 C1.64175,30.7451875 1.2494375,30.352875 1.2494375,29.8705625 C1.2494375,29.38825 1.64175,28.9959375 2.1240625,28.9959375 C2.606375,28.9959375 2.9986875,29.38825 2.9986875,29.8705625 C2.9986875,30.3528125 2.606375,30.7451875 2.1240625,30.7451875 Z M18.951625,11.87525 L20.11625,13.0399375 L20.11625,18.9570625 L18.951625,20.12175 L13.0344375,20.12175 L11.8698125,18.9570625 L11.8698125,13.0399375 L13.0344375,11.87525 L18.951625,11.87525 Z M21.61775,9.8000625 C21.22625,9.8000625 20.9076875,9.4815 20.9076875,9.0900625 C20.9076875,8.6985 21.22625,8.38 21.61775,8.38 C22.00925,8.38 22.3278125,8.6985625 22.3278125,9.0900625 C22.3278125,9.4815 22.0093125,9.8000625 21.61775,9.8000625 Z M24.891625,14.0410625 C24.62275,14.0410625 24.404,13.822375 24.404,13.5534375 C24.404,13.2845 24.6226875,13.0658125 24.891625,13.0658125 C25.1605625,13.0658125 25.37925,13.2845 25.37925,13.5534375 C25.37925,13.822375 25.1605,14.0410625 24.891625,14.0410625 Z M24.3716875,19.5749375 C23.9188125,19.5749375 23.5504375,19.2065625 23.5504375,18.7536875 C23.5504375,18.300875 23.9188125,17.9324375 24.3716875,17.9324375 C24.8245625,17.9324375 25.1929375,18.3008125 25.1929375,18.7536875 C25.1929375,19.2065625 24.8245625,19.5749375 24.3716875,19.5749375 Z M20.8160625,24.0340625 C20.5471875,24.0340625 20.3284375,23.8153125 20.3284375,23.5464375 C20.3284375,23.2775625 20.5471875,23.0588125 20.8160625,23.0588125 C21.0849375,23.0588125 21.3036875,23.2775625 21.3036875,23.5464375 C21.3036875,23.8153125 21.0849375,24.0340625 20.8160625,24.0340625 Z M29.8759375,30.7451875 C29.393625,30.7451875 29.0013125,30.352875 29.0013125,29.8705625 C29.0013125,29.38825 29.393625,28.9959375 29.8759375,28.9959375 C30.35825,28.9959375 30.7505625,29.38825 30.7505625,29.8705625 C30.7505625,30.3528125 30.358125,30.7451875 29.8759375,30.7451875 Z" id="Shape"></path>
        </g>
    </g>
</svg>