<?xml version="1.0" encoding="UTF-8"?>
<svg width="34px" height="34px" viewBox="0 0 34 34" version="1.1" xmlns="http://www.w3.org/2000/svg" xmlns:xlink="http://www.w3.org/1999/xlink">
    <!-- Generator: Sketch 48.2 (47327) - http://www.bohemiancoding.com/sketch -->
    <title>prob-3-ico-4</title>
    <desc>Created with Sketch.</desc>
    <defs></defs>
    <g id="Landing-02" stroke="none" stroke-width="1" fill="none" fill-rule="evenodd" transform="translate(-846.000000, -2326.000000)">
        <g id="prob-3-ico-4" transform="translate(847.000000, 2327.000000)" fill="#278D3A" fill-rule="nonzero" stroke="#278D3A" stroke-width="0.5">
            <path d="M31.5563125,18.592125 C31.1079375,17.965625 30.3609375,17.544625 29.607,17.493375 C28.9915625,17.4519375 28.433875,17.65975 28.037125,18.07975 C27.9500625,18.171875 27.856125,18.2730625 27.75675,18.3814375 C27.3178125,17.9793125 26.742625,17.7205625 26.16275,17.6811875 C25.5470625,17.6399375 24.9895625,17.847625 24.592875,18.2675625 C23.7293125,19.1816875 22.2001875,20.9674375 20.9993125,22.3890625 C20.8426875,22.2964375 20.675125,22.2200625 20.497875,22.16275 C19.923875,21.9155625 12.0111875,18.53625 8.5038125,18.53625 C2.838125,18.53625 0.23525,21.5815625 0.12725,21.711125 C-0.0384375,21.91 -0.0115625,22.2049375 0.18675,22.3711875 C0.385125,22.5375 0.681125,22.5114375 0.848,22.3135625 C0.854,22.3065 1.4620625,21.5945 2.7040625,20.8929375 C3.8488125,20.2464375 5.7843125,19.4755625 8.50375,19.4755625 C11.873375,19.4755625 20.0645625,22.9988125 20.1469375,23.034375 C20.2975,23.0993125 20.4528125,23.149 20.5903125,23.24075 C20.720125,23.327375 20.8363125,23.4343125 20.9336875,23.55625 C21.1228125,23.7931875 21.24125,24.0863125 21.266125,24.3886875 C21.3184375,25.0221875 20.962875,25.63425 20.3889375,25.9048125 C20.027,26.0754375 19.644375,26.0805625 19.264125,25.976375 L14.139375,24.5649375 C13.892625,24.4969375 13.62975,24.646375 13.5618125,24.893 C13.493875,25.13975 13.6431875,25.4025625 13.889875,25.4705 L19.0075,26.88 C19.6293125,27.0718125 20.3088125,27.0090625 20.8849375,26.7069375 C21.470125,26.400125 21.9008125,25.8836875 22.0975625,25.253 C22.1618125,25.04725 22.1980625,24.8373125 22.207875,24.6275 L23.582375,24.48275 C23.704,24.4699375 23.815875,24.4101875 23.8941875,24.3161875 C23.9280625,24.2755 27.298375,20.2294375 28.72,18.7246875 C29.310875,18.0989375 30.365875,18.5425 30.7925625,19.138625 C31.4486875,20.0553125 30.6333125,21.056 30.3678125,21.3409375 C29.0630625,22.7408125 26.6705,25.625 26.2404375,26.144875 L16.50275,31.0136875 L11.4926875,28.9041875 C11.2568125,28.804875 10.976875,28.9188125 10.8775625,29.1548125 C10.77825,29.3906875 10.89225,29.6705625 11.128125,29.769875 L16.337375,31.9631875 C16.462625,32.016 16.6081875,32.0111875 16.7296875,31.9504375 L26.749375,26.9405625 C26.808,26.91125 26.8598125,26.87 26.9015625,26.819375 C26.9290625,26.7860625 29.66775,23.4698125 31.0550625,21.98125 C32.0761875,20.8858125 32.2684375,19.5869375 31.5563125,18.592125 Z M23.2945625,23.5686875 L22.07075,23.6975625 C21.984,23.4519375 21.858875,23.221125 21.701125,23.0139375 C22.7240625,21.8030625 24.3863125,19.8541875 25.275625,18.9128125 C25.5325625,18.64075 25.8650625,18.60225 26.0989375,18.6185625 C26.467125,18.643625 26.8446875,18.8173125 27.128625,19.08 C25.7195,20.67075 23.8010625,22.962 23.2945625,23.5686875 Z" id="Shape"></path>
            <path d="M9.1868125,27.933625 L7.183,27.089875 C7.1253125,27.0655625 7.0633125,27.0530625 7.0006875,27.0530625 L0.487875,27.0530625 C0.2285,27.0530625 0.0181875,27.2633125 0.0181875,27.52275 C0.0181875,27.7821875 0.2285,27.9924375 0.487875,27.9924375 L6.9058125,27.9924375 L8.8221875,28.7993125 C9.0743125,28.9055 9.3698125,28.7675 9.452375,28.507625 C9.524875,28.2795 9.4071875,28.026375 9.1868125,27.933625 Z" id="Shape"></path>
            <path d="M24.9698125,15.6604375 L22.969875,15.9461875 C24.5961875,14.20375 25.505875,11.9210625 25.505875,9.487375 C25.505875,4.2560625 21.2498125,0 16.0185,0 C10.787125,0 6.531125,4.2560625 6.531125,9.487375 C6.531125,11.5864375 7.20275,13.575625 8.473375,15.23975 C9.703125,16.850375 11.4469375,18.045125 13.3836875,18.6039375 C13.639875,18.67775 13.911875,18.516625 13.971625,18.257375 C14.0269375,18.0176875 13.8800625,17.7695625 13.6440625,17.701375 C10.009125,16.652625 7.4704375,13.2748125 7.4704375,9.4873125 C7.4704375,4.773875 11.305125,0.93925 16.0185,0.93925 C20.7319375,0.93925 24.5665625,4.773875 24.5665625,9.4873125 C24.5665625,11.817375 23.6415625,13.99425 21.999,15.596375 L21.999,13.1194375 C21.999,12.86 21.78875,12.64975 21.5293125,12.64975 C21.269875,12.64975 21.059625,12.86 21.059625,13.1194375 L21.059625,16.6263125 C21.059625,16.907125 21.3175,17.13125 21.59575,17.0913125 L25.102625,16.5903125 C25.356,16.554125 25.5374375,16.3123125 25.5011875,16.0589375 C25.465,15.8058125 25.222875,15.624625 24.9698125,15.6604375 Z" id="Shape"></path>
            <path d="M16.0185,9.017625 L15.5175,9.017625 C14.94775,9.017625 14.48425,8.5540625 14.48425,7.984375 C14.48425,7.414625 14.9478125,6.9510625 15.5175,6.9510625 L17.5214375,6.9510625 C17.780875,6.9510625 17.991125,6.7408125 17.991125,6.481375 C17.991125,6.2219375 17.780875,6.0116875 17.5214375,6.0116875 L16.488125,6.0116875 L16.488125,5.479375 C16.488125,5.2199375 16.277875,5.0096875 16.0184375,5.0096875 C15.7590625,5.0096875 15.54875,5.2199375 15.54875,5.479375 L15.54875,6.0116875 L15.5174375,6.0116875 C14.42975,6.0116875 13.5448125,6.896625 13.5448125,7.9843125 C13.5448125,9.072 14.42975,9.9569375 15.5174375,9.9569375 L16.0184375,9.9569375 C16.5881875,9.9569375 17.05175,10.4205 17.05175,10.9901875 C17.05175,11.559875 16.5881875,12.0234375 16.0184375,12.0234375 L14.0145,12.0234375 C13.755125,12.0234375 13.5448125,12.2336875 13.5448125,12.493125 C13.5448125,12.7525625 13.755125,12.9628125 14.0145,12.9628125 L15.54875,12.9628125 L15.54875,13.495125 C15.54875,13.7545625 15.7590625,13.9648125 16.0184375,13.9648125 C16.277875,13.9648125 16.488125,13.7545625 16.488125,13.495125 L16.488125,12.9059375 C17.34975,12.694625 17.9910625,11.916125 17.9910625,10.99025 C17.991125,9.9025625 17.1061875,9.017625 16.0185,9.017625 Z" id="Shape"></path>
        </g>
    </g>
</svg>