<?xml version="1.0" encoding="UTF-8"?>
<svg width="31px" height="38px" viewBox="0 0 31 38" version="1.1" xmlns="http://www.w3.org/2000/svg" xmlns:xlink="http://www.w3.org/1999/xlink">
    <!-- Generator: Sketch 48.2 (47327) - http://www.bohemiancoding.com/sketch -->
    <title>prob-3-ico-5</title>
    <desc>Created with Sketch.</desc>
    <defs></defs>
    <g id="Landing-02" stroke="none" stroke-width="1" fill="none" fill-rule="evenodd" transform="translate(-906.000000, -2466.000000)">
        <g id="prob-3-ico-5" transform="translate(906.000000, 2466.000000)" fill="#278D3A" fill-rule="nonzero">
            <path d="M8.19718519,7.60103704 C7.86925926,7.60103704 7.60333333,7.86688889 7.60333333,8.19488889 C7.60333333,8.91525926 7.01725926,9.50133333 6.29688889,9.50133333 C5.57651852,9.50133333 4.99044444,8.91525926 4.99044444,8.19488889 C4.99044444,7.47451852 5.57651852,6.88844444 6.29688889,6.88844444 C6.62481481,6.88844444 6.89074074,6.62259259 6.89074074,6.29459259 C6.89074074,5.96659259 6.62488889,5.70074074 6.29688889,5.70074074 C4.92162963,5.70074074 3.80281481,6.81962963 3.80281481,8.19481481 C3.80281481,9.57 4.9217037,10.6888889 6.29688889,10.6888889 C7.67207407,10.6888889 8.79096296,9.57 8.79096296,8.19481481 C8.79103704,7.86688889 8.52511111,7.60103704 8.19718519,7.60103704 Z" id="Shape"></path>
            <path d="M8.19718519,14.5685926 C7.86925926,14.5685926 7.60333333,14.8344444 7.60333333,15.1624444 C7.60333333,15.8828148 7.01725926,16.4688889 6.29688889,16.4688889 C5.57651852,16.4688889 4.99044444,15.8828148 4.99044444,15.1624444 C4.99044444,14.4420741 5.57651852,13.856 6.29688889,13.856 C6.62481481,13.856 6.89074074,13.5901481 6.89074074,13.2621481 C6.89074074,12.9341481 6.62488889,12.6682963 6.29688889,12.6682963 C4.92162963,12.6682963 3.80281481,13.7871852 3.80281481,15.1623704 C3.80281481,16.5375556 4.9217037,17.6564444 6.29688889,17.6564444 C7.67207407,17.6564444 8.79096296,16.5375556 8.79096296,15.1623704 C8.79103704,14.8345185 8.52511111,14.5685926 8.19718519,14.5685926 Z" id="Shape"></path>
            <path d="M15.1647407,15.8354815 L10.7308148,15.8354815 C10.4028889,15.8354815 10.136963,16.1013333 10.136963,16.4293333 C10.136963,16.7573333 10.4028148,17.0231852 10.7308148,17.0231852 L15.1647407,17.0231852 C15.4926667,17.0231852 15.7585926,16.7573333 15.7585926,16.4293333 C15.7585926,16.1013333 15.4927407,15.8354815 15.1647407,15.8354815 Z" id="Shape"></path>
            <path d="M15.1647407,13.3017778 L10.7308148,13.3017778 C10.4028889,13.3017778 10.136963,13.5676296 10.136963,13.8956296 C10.136963,14.2236296 10.4028148,14.4894815 10.7308148,14.4894815 L15.1647407,14.4894815 C15.4926667,14.4894815 15.7585926,14.2236296 15.7585926,13.8956296 C15.7585926,13.5676296 15.4927407,13.3017778 15.1647407,13.3017778 Z" id="Shape"></path>
            <path d="M13.8979259,22.803037 L10.7308148,22.803037 C10.4028889,22.803037 10.136963,23.0688889 10.136963,23.3968889 C10.136963,23.7248889 10.4028148,23.9907407 10.7308148,23.9907407 L13.8979259,23.9907407 C14.2258519,23.9907407 14.4917778,23.7248889 14.4917778,23.3968889 C14.4917778,23.0688889 14.2258519,22.803037 13.8979259,22.803037 Z" id="Shape"></path>
            <path d="M15.1647407,20.2694074 L10.7308148,20.2694074 C10.4028889,20.2694074 10.136963,20.5352593 10.136963,20.8632593 C10.136963,21.1912593 10.4028148,21.4571111 10.7308148,21.4571111 L15.1647407,21.4571111 C15.4926667,21.4571111 15.7585926,21.1912593 15.7585926,20.8632593 C15.7585926,20.5352593 15.4927407,20.2694074 15.1647407,20.2694074 Z" id="Shape"></path>
            <path d="M20.8655556,8.86785185 L10.7308148,8.86785185 C10.4028889,8.86785185 10.136963,9.1337037 10.136963,9.4617037 C10.136963,9.7897037 10.4028148,10.0555556 10.7308148,10.0555556 L20.8654815,10.0555556 C21.1934074,10.0555556 21.4593333,9.7897037 21.4593333,9.4617037 C21.4593333,9.1337037 21.1934815,8.86785185 20.8655556,8.86785185 Z" id="Shape"></path>
            <path d="M18.3318519,6.33414815 L10.7308148,6.33414815 C10.4028889,6.33414815 10.136963,6.6 10.136963,6.928 C10.136963,7.256 10.4028148,7.52185185 10.7308148,7.52185185 L18.3318519,7.52185185 C18.6597778,7.52185185 18.9257037,7.256 18.9257037,6.928 C18.9257037,6.6 18.6598519,6.33414815 18.3318519,6.33414815 Z" id="Shape"></path>
            <path d="M8.19718519,21.5362222 C7.86925926,21.5362222 7.60333333,21.8020741 7.60333333,22.1300741 C7.60333333,22.8504444 7.01725926,23.4365185 6.29688889,23.4365185 C5.57651852,23.4365185 4.99044444,22.8504444 4.99044444,22.1300741 C4.99044444,21.4097037 5.57651852,20.8236296 6.29688889,20.8236296 C6.62481481,20.8236296 6.89074074,20.5577778 6.89074074,20.2297778 C6.89074074,19.9017778 6.62488889,19.6359259 6.29688889,19.6359259 C4.92162963,19.6359259 3.80281481,20.7548148 3.80281481,22.13 C3.80281481,23.5051852 4.9217037,24.6240741 6.29688889,24.6240741 C7.67207407,24.6240741 8.79096296,23.5051852 8.79096296,22.13 C8.79103704,21.8020741 8.52511111,21.5362222 8.19718519,21.5362222 Z" id="Shape"></path>
            <path d="M23.3991852,0 L1.86296296,0 C0.837037037,0 0.0022962963,0.834666667 0.0022962963,1.86066667 L0.0022962963,28.4642222 C0.0022962963,29.4902222 0.836962963,30.3248889 1.86296296,30.3248889 L12.6311111,30.3248889 C12.959037,30.3248889 13.224963,30.059037 13.224963,29.731037 C13.224963,29.4031111 12.9591111,29.1371852 12.6311111,29.1371852 L1.86296296,29.1371852 C1.49185185,29.1371852 1.18992593,28.8352593 1.18992593,28.4641481 L1.18992593,1.86066667 C1.18992593,1.48955556 1.49185185,1.18762963 1.86296296,1.18762963 L23.3991852,1.18762963 C23.7702963,1.18762963 24.0722222,1.48955556 24.0722222,1.86066667 L24.0722222,21.4967407 C24.0722222,21.8246667 24.3380741,22.0905926 24.6660741,22.0905926 C24.994,22.0905926 25.2599259,21.8247407 25.2599259,21.4967407 L25.2599259,1.86066667 C25.2598519,0.834666667 24.4251852,0 23.3991852,0 Z" id="Shape"></path>
            <path d="M29.0057778,24.081037 C28.4538519,24.026 27.9022222,24.1824444 27.4656296,24.5139259 C27.1178519,23.9303704 26.5248148,23.5163704 25.8386667,23.4476296 C25.2865926,23.3926667 24.735037,23.5491111 24.2985185,23.8805185 C23.9507407,23.296963 23.3577037,22.882963 22.6715556,22.8142222 C22.2500741,22.7721481 21.8291852,22.8533333 21.4593333,23.0415556 L21.4593333,15.4791852 C21.4593333,14.8651852 21.1981481,14.2765926 20.7425185,13.8643704 C20.2873333,13.4525185 19.6739259,13.2514815 19.0594815,13.312963 C17.9632593,13.4227407 17.1045926,14.4139259 17.1045926,15.5695556 L17.1045926,23.151037 L15.358963,24.8966667 C14.4313333,25.8242963 14.0568889,27.1404444 14.3574074,28.4174815 L15.6826667,34.0498519 C16.2196296,36.3321481 18.2321481,37.9260741 20.5767407,37.9260741 L25.9328148,37.9260741 C28.7051111,37.9260741 30.9605926,35.6706667 30.9605926,32.8982963 L30.9605926,26.3377778 C30.9606667,25.182 30.102,24.1908148 29.0057778,24.081037 Z M29.772963,32.8981481 C29.772963,35.0155556 28.0502963,36.7382222 25.9328889,36.7382222 L20.5768148,36.7382222 C18.7860741,36.7382222 17.2488889,35.5208148 16.8387407,33.7776296 L15.5134815,28.1452593 C15.3078519,27.2715556 15.5640741,26.370963 16.1987407,25.7362963 L17.1045926,24.8304444 L17.1045926,26.8806667 C17.1045926,27.2085926 17.3704444,27.4745185 17.6984444,27.4745185 C18.0264444,27.4745185 18.2922963,27.2086667 18.2922963,26.8806667 L18.2922963,15.5694815 C18.2922963,15.0165185 18.6812593,14.5443704 19.1779259,14.4947407 C19.4631852,14.4660741 19.736,14.5551111 19.9457778,14.745037 C20.152963,14.9325185 20.2717778,15.2001481 20.2717778,15.4792593 L20.2717778,25.9306667 C20.2717778,26.2585926 20.5376296,26.5245185 20.8656296,26.5245185 C21.1936296,26.5245185 21.4594815,26.2586667 21.4594815,25.9306667 L21.4594815,24.9805185 C21.4594815,24.7014074 21.5782222,24.4337778 21.7854815,24.2462963 C21.9954074,24.0563704 22.2680741,23.9672593 22.5533333,23.996 C23.0499259,24.0457037 23.438963,24.5178519 23.438963,25.0708148 L23.438963,26.5639259 C23.438963,26.8918519 23.7048148,27.1577778 24.0328148,27.1577778 C24.3607407,27.1577778 24.6266667,26.8919259 24.6266667,26.5639259 L24.6266667,25.6137778 C24.6266667,25.3346667 24.7454074,25.067037 24.9526667,24.8795556 C25.1625926,24.6896296 25.4353333,24.6005926 25.7205185,24.6292593 C26.2171111,24.678963 26.6061481,25.1511111 26.6061481,25.7040741 L26.6061481,27.1972593 C26.6061481,27.5251852 26.872,27.7911111 27.2,27.7911111 C27.5279259,27.7911111 27.7938519,27.5252593 27.7938519,27.1972593 L27.7938519,26.2471111 C27.7938519,25.968 27.9125926,25.7003704 28.1198519,25.5128889 C28.3297778,25.323037 28.6022963,25.2338519 28.8877037,25.2626667 C29.3842963,25.3122963 29.7733333,25.7844444 29.7733333,26.3374074 L29.7733333,32.8981481 L29.772963,32.8981481 Z" id="Shape"></path>
        </g>
    </g>
</svg>