<?xml version="1.0" encoding="UTF-8"?>
<svg width="14px" height="12px" viewBox="0 0 14 12" version="1.1" xmlns="http://www.w3.org/2000/svg" xmlns:xlink="http://www.w3.org/1999/xlink">
    <!-- Generator: Sketch 48.2 (47327) - http://www.bohemiancoding.com/sketch -->
    <title>twitter</title>
    <desc>Created with Sketch.</desc>
    <defs></defs>
    <g id="Landing-02" stroke="none" stroke-width="1" fill="none" fill-rule="evenodd" transform="translate(-737.000000, -4116.000000)" opacity="0.5">
        <g id="footer" transform="translate(0.000000, 3601.000000)" fill="#D9E6F9" fill-rule="nonzero">
            <g id="Socials" transform="translate(658.000000, 513.000000)">
                <g id="twitter">
                    <path d="M88.3543733,2.0025248 L88.3543733,2 L89.0108206,2 L89.2506763,2.04797115 C89.4105843,2.07911452 89.5557601,2.11992786 89.6862038,2.17042381 C89.8166601,2.22091975 89.9428999,2.27983589 90.0649234,2.3471596 C90.1869594,2.41448332 90.2976339,2.48308206 90.3969468,2.55293057 C90.4954139,2.6219459 90.5837818,2.69516501 90.6620505,2.77258792 C90.7394608,2.85085663 90.8602344,2.871055 91.0243463,2.83318305 C91.1884581,2.79531109 91.3651939,2.74270694 91.5545537,2.67538323 C91.7439134,2.60805951 91.9311776,2.5323156 92.116321,2.44815149 C92.301477,2.36398738 92.4142597,2.31055005 92.4546564,2.28782687 C92.4942074,2.26427051 92.5152516,2.25164653 92.5177764,2.24995491 L92.5202885,2.24616772 L92.5329125,2.23985573 L92.5455365,2.23354373 L92.5581605,2.22723174 L92.5707845,2.22091975 L92.5733093,2.21713255 L92.5770965,2.21460775 L92.5808963,2.21208296 L92.5834085,2.20829576 L92.5960325,2.20450857 L92.6086564,2.20198377 L92.6061443,2.22091975 L92.6023445,2.23985573 L92.5960325,2.2587917 L92.5897205,2.27772768 L92.5834085,2.29035167 L92.5770965,2.30297565 L92.5707845,2.32191163 C92.5665807,2.33453562 92.5623769,2.35136339 92.5581605,2.37240757 C92.5539567,2.39345176 92.5139766,2.47760325 92.4382326,2.62488729 C92.3624887,2.77217133 92.2678088,2.92155095 92.154193,3.07303877 C92.0405771,3.2245266 91.938752,3.33897565 91.8487051,3.41641118 C91.7578124,3.49467989 91.6976339,3.54937962 91.6681695,3.58052299 C91.6387178,3.61249955 91.602954,3.64195131 91.5608656,3.66889089 L91.4977457,3.71055005 L91.4851217,3.71686204 L91.4724977,3.72317403 L91.4699856,3.72696123 L91.4661858,3.72948602 L91.4623986,3.73201082 L91.4598738,3.73579802 L91.4472498,3.74211001 L91.4346258,3.748422 L91.4321136,3.7522092 L91.4283138,3.75473399 L91.4245266,3.75725879 L91.4220018,3.76104599 L91.4194896,3.76483318 L91.4156898,3.76735798 L91.4119026,3.76988278 L91.4093778,3.77366997 L91.4724977,3.77366997 L91.8259693,3.69792606 C92.0616213,3.64743012 92.2867448,3.58641839 92.5013526,3.51487827 L92.8422002,3.4012624 L92.8800721,3.38863841 L92.8990081,3.38232642 L92.9116321,3.37601443 L92.9242561,3.36970243 L92.9368801,3.36339044 L92.9495041,3.35707845 L92.974752,3.35329125 L93,3.35076646 L93,3.37601443 L92.993688,3.37853922 L92.987376,3.38232642 L92.9848638,3.38611362 L92.981064,3.38863841 L92.9772768,3.39116321 L92.974752,3.39495041 L92.9722399,3.3987376 L92.96844,3.4012624 L92.9646528,3.4037872 L92.962128,3.40757439 L92.9596159,3.41136159 L92.9558161,3.41388638 L92.9495041,3.42651037 L92.9431921,3.43913436 L92.9394049,3.44165915 C92.9377259,3.44418395 92.8842885,3.51571145 92.7790803,3.65626691 C92.6738846,3.79765555 92.6170766,3.86918305 92.6086564,3.87087466 C92.6002489,3.87339946 92.5884581,3.88602344 92.5733093,3.90874662 C92.5590063,3.93230298 92.4697926,4.02614968 92.3056808,4.1902615 C92.141569,4.35437331 91.9808404,4.50038233 91.8234572,4.6283138 C91.6652408,4.75707845 91.5852804,4.91529486 91.5836014,5.10297565 C91.5810766,5.28981064 91.571394,5.50106041 91.5545537,5.73669973 C91.5377259,5.97235167 91.5061659,6.22692696 91.4598738,6.50045086 C91.4135942,6.77397475 91.3420541,7.0832624 91.245266,7.4283138 C91.1484905,7.77336519 91.0306583,8.11000902 90.8917944,8.43823264 C90.7529306,8.76645627 90.6077547,9.06101172 90.4562669,9.32191163 C90.3047791,9.58281154 90.1659152,9.80373129 90.0396754,9.98467087 C89.9134355,10.1656105 89.7851001,10.3360343 89.6546438,10.4959423 C89.5242002,10.6558503 89.3592552,10.8359567 89.1597962,11.0362489 C88.9594914,11.2357078 88.850092,11.3451199 88.8315726,11.3644725 C88.81222,11.3829919 88.7297475,11.4520072 88.5841298,11.5715059 C88.4393832,11.6918503 88.283679,11.8121948 88.1170424,11.9325518 C87.9512516,12.0520631 87.7989179,12.1517926 87.6600541,12.2317403 C87.5211903,12.311688 87.3537205,12.4029973 87.1576195,12.5056808 C86.9623769,12.6091975 86.7511271,12.7051398 86.5238954,12.7935077 C86.2966637,12.8818756 86.0568079,12.9639315 85.8043282,13.0396754 C85.5518485,13.1154193 85.307789,13.1743354 85.0721371,13.2164112 C84.8364977,13.2584869 84.5692858,13.2942633 84.270514,13.3237151 L83.8223625,13.367899 L83.8223625,13.374211 L83.0018034,13.374211 L83.0018034,13.367899 L82.8944995,13.361587 C82.822972,13.3573832 82.7640559,13.3531668 82.7177638,13.348963 C82.6714842,13.3447592 82.496844,13.3216069 82.1938683,13.2795311 C81.8908927,13.2374554 81.6531452,13.195367 81.4806132,13.1532913 C81.3080938,13.1112155 81.0513977,13.0312552 80.71055,12.9134355 C80.3697024,12.7956159 80.0780884,12.6765212 79.8357078,12.5561767 C79.5941731,12.4366655 79.4426853,12.3609216 79.3812444,12.328945 C79.3206492,12.2978016 79.2524797,12.2590965 79.1767358,12.2128043 L79.0631199,12.1433724 L79.0606078,12.1395852 L79.0568079,12.1370604 L79.0530207,12.1345356 L79.0504959,12.1307484 L79.037872,12.1244364 L79.025248,12.1181244 L79.0227358,12.1143372 L79.018936,12.1118124 L79.0151488,12.1092876 L79.012624,12.1055005 L79.0101118,12.1017133 L79.006312,12.0991885 L79,12.0991885 L79,12.0739405 L79.012624,12.0764653 L79.025248,12.0802525 L79.0820559,12.0865645 C79.1199279,12.0907683 79.223028,12.0970803 79.3913436,12.1055005 C79.5596718,12.1139206 79.7385032,12.1139206 79.9278629,12.1055005 C80.1172227,12.0970803 80.3107989,12.0781443 80.5085663,12.0486925 C80.7063463,12.0192408 80.93989,11.9687448 81.2091975,11.8972047 C81.4785176,11.8256646 81.7259477,11.7406673 81.9515005,11.6422002 C82.1762074,11.5428999 82.3361028,11.468835 82.4312119,11.420018 C82.5254626,11.3720469 82.669376,11.2828332 82.8629396,11.1523895 L83.1532913,10.9567178 L83.1558161,10.9529306 L83.1596032,10.9504058 L83.1634031,10.947881 L83.1659152,10.9440938 L83.16844,10.9403066 L83.1722272,10.9377818 L83.1760271,10.935257 L83.1785392,10.9314698 L83.1911632,10.9276826 L83.2037872,10.9251578 L83.206312,10.9125338 L83.2100992,10.8999098 L83.213899,10.897385 L83.2164112,10.8935978 L83.1154193,10.8872858 C83.0480956,10.8830821 82.9828674,10.8788656 82.9197475,10.8746619 C82.8566276,10.8704581 82.7577439,10.8515221 82.6230839,10.8178539 C82.4884364,10.7841858 82.3432606,10.7336898 82.1875564,10.6663661 C82.0318647,10.5990424 81.8803769,10.5190821 81.7330929,10.4265104 C81.5858215,10.3339387 81.4793508,10.2569197 81.413706,10.1954914 C81.3489071,10.1348837 81.264743,10.0490532 81.1612263,9.93796213 C81.0585555,9.82603787 80.9693417,9.71114698 80.8935978,9.59332732 C80.8178539,9.47550766 80.7454806,9.33957259 80.6764779,9.18557259 L80.5716862,8.95581605 L80.5653742,8.93688007 L80.5590622,8.91794409 L80.555275,8.90532011 L80.5527502,8.89269612 L80.5716862,8.89522092 L80.5906222,8.89900812 L80.729486,8.91794409 C80.8220703,8.93056808 80.9672462,8.93477187 81.1650135,8.93056808 C81.3627935,8.92636429 81.4995491,8.91794409 81.5752931,8.90532011 C81.651037,8.89269612 81.6973291,8.88427592 81.7141569,8.88007214 L81.7394049,8.87376014 L81.7709648,8.86744815 L81.8025248,8.86113616 L81.8050496,8.85734896 L81.8088368,8.85482417 L81.8126366,8.85229937 L81.8151488,8.84851217 L81.7899008,8.84220018 L81.7646528,8.83588819 L81.7394049,8.82957619 L81.7141569,8.8232642 L81.6889089,8.81695221 C81.6720812,8.81274842 81.6426294,8.80432822 81.600541,8.79170424 C81.5584653,8.77908025 81.4448494,8.7327881 81.2596934,8.6528404 C81.07455,8.5728927 80.927266,8.49504058 80.8178539,8.41929666 C80.7081706,8.34333319 80.6035879,8.26025737 80.5047791,8.17060415 C80.406312,8.07971145 80.2981749,7.96272498 80.1803427,7.81965735 C80.062523,7.67658972 79.9573273,7.5103697 79.864743,7.32100992 C79.7721713,7.13165014 79.7027394,6.95071055 79.6564472,6.77817854 C79.6103412,6.60666141 79.5799227,6.43130802 79.5655672,6.25428314 L79.5428314,5.98917944 L79.5554554,5.99170424 L79.5680794,5.99549143 L79.5807033,6.00180343 L79.5933273,6.00811542 L79.6059513,6.01442741 L79.6185753,6.0207394 L79.8142471,6.1091073 C79.9447033,6.16802344 80.1067069,6.21851939 80.3002705,6.26059513 C80.4938467,6.30267087 80.6095582,6.32582326 80.6474301,6.33002705 L80.7042381,6.33633904 L80.8178539,6.33633904 L80.8153417,6.33255185 L80.8115419,6.33002705 L80.8077547,6.32750225 L80.8052299,6.32371506 L80.8027178,6.31992786 L80.7989179,6.31740307 L80.7951307,6.31487827 L80.792606,6.31109107 L80.779982,6.30477908 L80.767358,6.29846709 L80.7648458,6.29467989 L80.761046,6.29215509 L80.7572588,6.2896303 L80.754734,6.2858431 L80.74211,6.27953111 L80.729486,6.27321912 L80.7269739,6.26943192 C80.7244491,6.26774031 80.6882561,6.24081335 80.618395,6.18863841 C80.5493796,6.13561767 80.4770063,6.06703156 80.4012624,5.98286745 C80.3255185,5.89870334 80.2497746,5.81033544 80.1740307,5.71776375 C80.0981473,5.62497996 80.0305597,5.52571066 79.9720469,5.42110009 C79.9131434,5.31590442 79.8508566,5.18207755 79.7852119,5.01965735 C79.720413,4.85807033 79.6711794,4.69522092 79.6375113,4.53110911 C79.6038557,4.36699729 79.5849197,4.20499369 79.5807033,4.04508566 C79.5764995,3.88517764 79.5807033,3.748422 79.5933273,3.63480613 C79.6059513,3.52119026 79.6311993,3.3928422 79.6690712,3.24977457 C79.7069432,3.10670694 79.7616555,2.95521912 79.833183,2.79531109 L79.9404869,2.55545537 L79.9467989,2.53651939 L79.9531109,2.51758341 L79.9569107,2.51505861 L79.9594229,2.51127142 L79.9619477,2.50748422 L79.9657349,2.50495942 L79.9695347,2.50748422 L79.9720469,2.51127142 L79.9745717,2.51505861 L79.9783589,2.51758341 L79.9821587,2.52010821 L79.9846709,2.5238954 L79.9871957,2.5276826 L79.9909829,2.53020739 L79.9972949,2.54283138 L80.0036069,2.55545537 L80.0074067,2.55798016 L80.0099188,2.56176736 L80.1803427,2.75112714 C80.2939585,2.877367 80.4286186,3.01833904 80.5843102,3.17403066 C80.7400144,3.32972227 80.8262741,3.41051578 80.8431019,3.41641118 C80.8599423,3.42313977 80.8809739,3.44249234 80.9062218,3.47448151 C80.9314698,3.50562489 81.0156339,3.5801064 81.1587015,3.69792606 C81.3017818,3.81574572 81.4890334,3.95251398 81.7204689,4.10820559 C81.951917,4.2638972 82.2086005,4.41749324 82.490532,4.56898106 C82.7724761,4.72046889 83.0754518,4.85722453 83.399459,4.9792606 C83.7234788,5.10129666 83.9507106,5.18124436 84.0811542,5.21911632 C84.2116105,5.25698828 84.4346258,5.30537601 84.7502254,5.36429216 C85.0658251,5.4232083 85.3035852,5.46108025 85.4634806,5.47790803 C85.6233886,5.4947358 85.7328007,5.50441839 85.7917042,5.50694319 L85.8800721,5.50946799 L85.87756,5.49053201 L85.8737601,5.47159603 L85.8485122,5.31379621 C85.8316844,5.20860054 85.8232642,5.0613165 85.8232642,4.87195672 C85.8232642,4.68259693 85.8379964,4.50796934 85.8674482,4.34806132 C85.8969125,4.18815329 85.9410965,4.02614968 86,3.86203787 C86.0589161,3.69792606 86.1165699,3.56620739 86.1729486,3.46690712 C86.2301858,3.36844004 86.3050839,3.25608656 86.3976555,3.12984671 C86.4902399,3.00360685 86.6101677,2.87316321 86.7574391,2.73850316 C86.9047232,2.6038431 87.0730388,2.48391524 87.2623986,2.37871957 C87.4517583,2.2735239 87.6263986,2.19356357 87.786294,2.13886384 C87.946202,2.08416411 88.080862,2.04838774 88.1902615,2.03155996 C88.2996736,2.01473219 88.3543733,2.00504959 88.3543733,2.0025248 Z"></path>
                </g>
            </g>
        </g>
    </g>
</svg>