<?xml version="1.0" encoding="UTF-8"?>
<svg width="2060px" height="264px" viewBox="0 0 2060 264" version="1.1" xmlns="http://www.w3.org/2000/svg" xmlns:xlink="http://www.w3.org/1999/xlink">
    <!-- Generator: Sketch 48.2 (47327) - http://www.bohemiancoding.com/sketch -->
    <title>upper-wave</title>
    <desc>Created with Sketch.</desc>
    <defs></defs>
    <g id="New" stroke="none" stroke-width="1" fill="none" fill-rule="evenodd" opacity="0.497543031">
        <path d="M1957.721,43.2072598 C1857.403,90.5288781 1788.353,40.5991318 1687.933,33.753172 C1587.514,26.9072122 1531.616,29.7742464 1450.109,62.1064039 C1368.601,94.4395649 1279.259,71.4932564 1165.358,26.4887476 C1120.24,8.66235803 1075.12,-0.154499594 1030,0.00204829894 C984.88,-0.154499594 939.761,8.66235803 894.643,26.4887476 C780.742,71.4932564 691.4,94.4395649 609.892,62.1064039 C528.385,29.7742464 472.487,26.9072122 372.068,33.753172 C271.648,40.5991318 202.597,90.5288781 102.279,43.2072598 C65.071,25.6558325 30.981,17.089853 0,17.4812227 L0,264 L2060,264 L2060,17.4812227 C2029.02,17.089853 1994.93,25.6558325 1957.721,43.2072598" id="upper-wave" fill="#C0EADB"></path>
    </g>
</svg>