<?xml version="1.0" encoding="UTF-8"?>
<svg width="1259px" height="206px" viewBox="0 0 1259 206" version="1.1" xmlns="http://www.w3.org/2000/svg" xmlns:xlink="http://www.w3.org/1999/xlink">
    <!-- Generator: Sketch 48.2 (47327) - http://www.bohemiancoding.com/sketch -->
    <title>wave-bg</title>
    <desc>Created with Sketch.</desc>
    <defs></defs>
    <g id="Landing-02" stroke="none" stroke-width="1" fill="none" fill-rule="evenodd" transform="translate(-92.000000, -3084.000000)">
        <g id="wave-bg" transform="translate(92.000000, 3063.000000)" fill="#C0EADB">
            <path d="M3.34118439,36.4928986 C50.98928,11.8101859 107.683805,16.3448014 173.424759,50.0967449 C272.03619,100.72466 342.781042,53.4100378 443.377361,50.0967449 C543.97368,46.7834521 599.738097,51.5892442 680.071365,86.6337116 C760.404633,121.678179 850.490422,101.944022 965.887443,61.1002687 C1042.81879,33.8710996 1118.8671,31.9981594 1194.03236,55.4814481 C1182.28453,102.643123 1176.17358,127.636795 1175.6995,130.462464 C1174.98838,134.700966 1030.40412,215.59345 965.887443,217.056684 C922.876323,218.032174 616.664347,211.836189 47.2515149,198.468728 L3.34118439,36.4928986 Z" id="wave-2" opacity="0.400000006" transform="translate(598.686773, 119.005094) rotate(-2.000000) translate(-598.686773, -119.005094) "></path>
            <path d="M4.97011578,43.0896156 C93.1638573,20.7168473 170.131205,26.4064349 235.872159,60.1583785 C334.48359,110.786294 405.228442,63.4716714 505.824761,60.1583785 C606.42108,56.8450856 662.185497,61.6508777 742.518765,96.6953452 C822.852033,131.739813 912.937823,112.005656 1028.33484,71.1619023 C1105.26619,43.9327332 1181.3145,42.059793 1256.47976,65.5430816 C1244.73193,112.704757 1238.62098,137.698429 1238.1469,140.524097 C1237.43578,144.7626 1092.85152,225.655083 1028.33484,227.118318 C985.323724,228.093808 679.111748,221.897822 109.698915,208.530362 L4.97011578,43.0896156 Z" id="wave-1" opacity="0.497543031" transform="translate(630.724939, 128.464950) scale(-1, 1) rotate(-2.000000) translate(-630.724939, -128.464950) "></path>
        </g>
    </g>
</svg>