<?xml version="1.0" encoding="UTF-8"?>
<svg width="14px" height="11px" viewBox="0 0 14 11" version="1.1" xmlns="http://www.w3.org/2000/svg" xmlns:xlink="http://www.w3.org/1999/xlink">
    <!-- Generator: Sketch 48.2 (47327) - http://www.bohemiancoding.com/sketch -->
    <title>youtube</title>
    <desc>Created with Sketch.</desc>
    <defs></defs>
    <g id="Landing-02" stroke="none" stroke-width="1" fill="none" fill-rule="evenodd" transform="translate(-697.000000, -4116.000000)" opacity="0.5">
        <g id="footer" transform="translate(0.000000, 3601.000000)" fill="#D9E6F9" fill-rule="nonzero">
            <g id="Socials" transform="translate(658.000000, 513.000000)">
                <g id="youtube">
                    <path d="M44.798165,12.4869881 C42.1319258,12.4345642 41.2212746,12.3874105 40.6615331,12.2642561 C40.2828311,12.1824305 39.9537395,12.00075 39.7124403,11.7372439 C39.5259464,11.5378114 39.3776344,11.2335312 39.2625692,10.8113667 C39.1638677,10.4596553 39.1254261,10.1670249 39.0706208,9.45222992 C38.9867245,7.83901783 38.9667245,6.52010045 39.0706208,5.04640791 C39.1563353,4.23259011 39.1978938,3.26649354 39.7672456,2.70286785 C40.0360773,2.43908438 40.3488052,2.26933097 40.6999748,2.19915514 C41.2485473,2.08792783 43.585695,2 46.0051805,2 C48.4192114,2 50.7615539,2.08792783 51.3106459,2.19915514 C51.7493481,2.28708296 52.1607775,2.55058906 52.4023364,2.89037325 C52.921818,3.7629945 52.9309089,4.84808489 52.9836363,5.69685191 C53.0054546,6.10126443 53.0054546,8.39765076 52.9836363,8.80206329 C52.9015582,10.143448 52.8355841,10.6180364 52.6490902,11.1100994 C52.5337653,11.4207592 52.4353235,11.5846877 52.2649336,11.7663682 C51.9977027,12.0459505 51.6570257,12.2319172 51.2883082,12.2994827 C48.9810307,12.4847691 47.0218059,12.5249884 44.798165,12.4869881 Z M48.331419,7.09704012 C47.04778,6.36449316 45.8186866,5.68520217 44.5623204,4.98205694 L44.5623204,9.18872382 C45.884401,8.42122763 47.2781701,7.7180824 48.3368736,7.09121525 L48.331419,7.09704012 Z"></path>
                </g>
            </g>
        </g>
    </g>
</svg>