<?xml version="1.0" encoding="UTF-8"?>
<svg width="214px" height="302px" viewBox="0 0 214 302" version="1.1" xmlns="http://www.w3.org/2000/svg" xmlns:xlink="http://www.w3.org/1999/xlink">
    <!-- Generator: Sketch 55.2 (78181) - https://sketchapp.com -->
    <title>s1-a</title>
    <desc>Created with Sketch.</desc>
    <g id="illustration" stroke="none" stroke-width="1" fill="none" fill-rule="evenodd">
        <g id="S1" transform="translate(-630.000000, -437.000000)">
            <g id="s1-a" transform="translate(631.000000, 438.000000)">
                <path d="M108.977358,57.6962264 L99.745283,44.309434 C99.745283,44.309434 96.2132075,31.5169811 94.6509434,30.5433962 C93.0886792,29.5698113 83.3301887,28.7150943 83.3301887,28.7150943 C83.3301887,28.7150943 84.0660377,41.3886792 85.0283019,42.7301887 C85.990566,44.0716981 88.3169811,48.3339623 90.8754717,48.5773585 L94.6509434,48.5773585 L105.796226,66.3622642 L108.977358,57.6962264 Z" id="Path" stroke="#1D2A38" stroke-width="2" fill="#FAF5EA" fill-rule="nonzero" stroke-linecap="round" stroke-linejoin="round"></path>
                <path d="M93.9377358,35.4339623 L91.0622642,48.6792453 C91.0622642,48.6792453 88.4075472,48.1132075 87.7396226,46.5339623 L93.9377358,35.4339623 Z" id="Path" fill="#1D2A38" fill-rule="nonzero"></path>
                <path d="M158.262264,284.24717 C159.63814,288.244701 160.336433,292.444024 160.328302,296.671698 C160.350702,298.215419 159.131777,299.492268 157.588679,299.541509 L130.345283,299.541509 C130.345283,299.541509 129.411321,293.654717 133.14717,293.388679 C136.883019,293.122642 137.550943,293.479245 139.707547,292.511321 C141.864151,291.543396 147.09434,285.520755 147.179245,283.324528 C151.809434,282.792453 158.262264,284.24717 158.262264,284.24717 Z" id="Path" stroke="#1D2A38" stroke-width="1.5" fill="#849AB0" fill-rule="nonzero" stroke-linecap="round" stroke-linejoin="round"></path>
                <path d="M149.981132,284.818868 C149.981132,284.818868 149.545283,287.875472 145.45283,291.407547 C142.135849,294.283019 139.792453,294.169811 139.328302,292.449057 C139.492453,290.835849 146.120755,287.077358 146.584906,283.137736 C150.450943,284.071698 149.981132,284.818868 149.981132,284.818868 Z" id="Path" stroke="#1D2A38" stroke-width="1.5" fill="#849AB0" fill-rule="nonzero" stroke-linecap="round" stroke-linejoin="round"></path>
                <path d="M139.543396,292.816981 C143.370034,291.265709 146.46938,288.326082 148.220755,284.586792" id="Path" stroke="#1D2A38" stroke-linecap="round" stroke-linejoin="round"></path>
                <path d="M151.764151,286.415094 C151.764151,286.415094 159.258491,287.450943 160.079245,292.126415 C159.332075,287.983019 159.077358,286.301887 158.262264,284.264151 C152.539623,284.354717 151.764151,286.415094 151.764151,286.415094 Z" id="Path" fill="#1D2A38" fill-rule="nonzero"></path>
                <path d="M195.298113,275.015094 C195.298113,275.015094 196.781132,279.209434 198.467925,283.783019 C200.460377,289.171698 199.809434,294.928302 205.288679,294.662264 C210.767925,294.396226 213.332075,290.773585 211.628302,282.209434 C209.924528,273.645283 207.535849,271.160377 207.054717,267.390566 C206.573585,263.620755 203.828302,259.726415 198.835849,260.649057 C193.843396,261.571698 190.916981,264.130189 195.298113,275.015094 Z" id="Path" stroke="#1D2A38" stroke-width="1.5" fill="#849AB0" fill-rule="nonzero" stroke-linecap="round" stroke-linejoin="round"></path>
                <path d="M203.981132,270.254717 C203.981132,270.254717 207.875472,278.807547 207.69434,280.069811 C207.513208,281.332075 201.688679,283.732075 200.998113,282.826415 C200.307547,281.920755 196.622642,272.383019 196.622642,272.383019 L203.981132,270.254717 Z" id="Path" stroke="#1D2A38" stroke-width="1.5" fill="#849AB0" fill-rule="nonzero" stroke-linecap="round" stroke-linejoin="round"></path>
                <path d="M202.435849,271.398113 C202.435849,271.398113 205.566038,279.045283 205.203774,279.475472 C204.841509,279.90566 202.407547,281.133962 202.164151,280.579245 C201.920755,280.024528 198.943396,272.581132 198.943396,272.581132 L202.435849,271.398113 Z" id="Path" stroke="#1D2A38" fill="#849AB0" fill-rule="nonzero" stroke-linecap="round" stroke-linejoin="round"></path>
                <path d="M106.622642,51.2377358 L103.515094,47.1792453 C103.515094,47.1792453 98.4603774,49.2509434 98.0018868,55.9584906 C102.315094,61.9188679 104.533962,64.9301887 104.533962,64.9301887 L106.622642,51.2377358 Z" id="Path" stroke="#1D2A38" stroke-width="1.5" fill="#FAF5EA" fill-rule="nonzero" stroke-linecap="round" stroke-linejoin="round"></path>
                <path d="M154.283019,95.0320755 L126.433962,75.7358491 L105.530189,48.809434 C105.530189,48.809434 99.8698113,51.6396226 99.3037736,59.4622642 L113.890566,85.8792453 L143.95283,115.313208 L154.283019,95.0320755 Z" id="Path" stroke="#1D2A38" stroke-width="1.5" fill="#FAF5EA" fill-rule="nonzero" stroke-linecap="round" stroke-linejoin="round"></path>
                <path d="M139.662264,158.960377 L140.296226,221.530189 C140.296226,222.662264 140.356604,223.79434 140.477358,224.926415 L145.6,281.784906 C145.732649,284.236542 147.678107,286.201454 150.128302,286.358491 L155.103774,286.511321 C157.633962,286.590566 159.756604,284.484906 159.915094,281.756604 L164.171698,155.858491" id="Path" stroke="#1D2A38" stroke-width="1.5" fill="#617181" fill-rule="nonzero" stroke-linecap="round" stroke-linejoin="round"></path>
                <path d="M162.932075,183.962264 L173.601887,227.128302 C174.254102,229.77479 175.191669,232.342661 176.398113,234.786792 L193.028302,269.598113 C194.692453,273.084906 198.637736,274.471698 201.875472,272.711321 L201.875472,272.711321 C204.820964,270.995874 206.210196,267.487711 205.237736,264.220755 L190.667925,222.741509 L182.743396,158.971698 L157.696226,158.971698" id="Path" stroke="#1D2A38" stroke-width="1.5" fill="#617181" fill-rule="nonzero" stroke-linecap="round" stroke-linejoin="round"></path>
                <path d="M143.664151,59.2075472 C143.664151,59.2075472 142.74717,64.3018868 141.762264,69.9226415 C140.867925,75.0566038 141.462264,76.1490566 142.464151,77.0150943 C143.466038,77.8811321 147.666038,81.3509434 148.690566,81.7528302 C148.356604,84.554717 148.356604,91.8226415 148.356604,91.8226415 L163.441509,91.8226415 L163.396226,81.4415094 C163.396226,81.4415094 163.101887,77.5471698 164.369811,75.0792453 C166.435849,74.2811321 170.369811,74.0150943 170.901887,68.8528302 C171.433962,63.690566 170.969811,50.1113208 161.901887,48.1075472 C152.833962,46.1037736 153.807547,43.0188679 148.6,47.1283019 C143.392453,51.2377358 142.532075,54.8716981 143.664151,59.2075472 Z" id="Path" stroke="#1D2A38" stroke-width="1.5" fill="#FAF5EA" fill-rule="nonzero" stroke-linecap="round" stroke-linejoin="round"></path>
                <path d="M153.490566,50.4735849 C153.490566,50.4735849 152.873585,47.7962264 149.8,49.5339623 C146.726415,51.2716981 145.837736,53.3603774 145.101887,55.8849057 C144.909434,56.5245283 143.783019,60 143.783019,60 C143.783019,60 139.59434,56.0716981 139.662264,53.3320755 C139.730189,50.5924528 149.284906,40.3132075 152.873585,40.7943396 C155.471698,41.3943396 156.207547,44.1509434 156.207547,44.1509434 C156.207547,44.1509434 158.743396,42.0849057 160.277358,42.1528302 C161.811321,42.2207547 168.411321,45.2207547 170.466038,48.2207547 C172.520755,51.2207547 175.6,51.4924528 176.126415,55.0132075 C176.65283,58.5339623 174.39434,69.090566 173.596226,72.2886792 C172.798113,75.4867925 169.59434,78.0283019 166.458491,77.1622642 C163.322642,76.2962264 162.122642,75.2943396 162.320755,73.890566 C162.518868,72.4867925 166.849057,72.5433962 167.454717,70.5566038 C168.433962,67.2622642 167.188679,64.6188679 166.124528,64.2169811 C165.060377,63.8150943 164.05283,65.8867925 163.588679,65.8867925 C163.124528,65.8867925 165.054717,61.9245283 163.45283,59.0603774 C161.850943,56.1962264 157.441509,57.1358491 156.971698,54.0056604 C156.484906,50.5641509 155.222642,50.1113208 153.490566,50.4735849 Z" id="Path" fill="#1D2A38" fill-rule="nonzero"></path>
                <path d="M163.226415,73.7037736 C163.226415,73.7037736 160.916981,76.3245283 159.264151,76.754717 C157.611321,77.1849057 146.811321,76.1490566 146.811321,76.1490566 C146.811321,76.1490566 155.79434,79.0641509 157.990566,79.0245283 C160.186792,78.9849057 163.441509,79.0245283 163.441509,79.0245283 C163.441509,79.0245283 163.509434,76.2962264 164.392453,75.0622642 C163.039623,73.8849057 163.226415,73.7037736 163.226415,73.7037736 Z" id="Path" fill="#1D2A38" fill-rule="nonzero"></path>
                <polyline id="Path" stroke="#1D2A38" stroke-width="1.5" fill="#FAF5EA" fill-rule="nonzero" stroke-linecap="round" stroke-linejoin="round" points="143.454717 88.1264151 147.767925 87.7301887 150.790566 85.2396226 164.064151 87.3113208 177.275472 90.809434 183.926415 92.7622642 183.24717 156.843396 147.626415 157.737736 138.711321 155.84717 136.254717 153.022642 136.254717 106.381132"></polyline>
                <path d="M138.7,155.84717 C138.7,155.84717 138.609434,158.960377 139.577358,160.981132 L183.037736,160.981132 C183.433962,160.313208 183.733962,157.732075 183.275472,156.843396 C183.275472,156.843396 170.137736,156.679245 163.379245,156.679245 C156.620755,156.679245 141.716981,156.639623 138.7,155.84717 Z" id="Path" stroke="#1D2A38" stroke-width="1.5" fill="#617181" fill-rule="nonzero" stroke-linecap="round" stroke-linejoin="round"></path>
                <polygon id="Path" stroke="#1D2A38" stroke-width="1.72" fill="#1D2A38" fill-rule="nonzero" stroke-linecap="round" stroke-linejoin="round" points="162.450943 206.711321 163.401887 185.869811 161.007547 176.428302"></polygon>
                <polygon id="Path" stroke="#1D2A38" stroke-width="1.5" fill="#FAF5EA" fill-rule="nonzero" stroke-linecap="round" stroke-linejoin="round" points="164.392453 83.8018868 165.411321 90.2433962 154.820755 92.190566 150.949057 86.0150943 147.898113 92.190566 146.658491 91.0641509 147.615094 84.8773585"></polygon>
                <polygon id="Path" fill="#1D2A38" fill-rule="nonzero" points="174.530189 107.920755 177.275472 135.101887 183.258491 155.541509 183.926415 106.2"></polygon>
                <path d="M180.167925,130.49434 C180.167925,130.49434 175.073585,129.75283 174.603774,132.532075 C174.133962,135.311321 175.996226,141.249057 178.033962,141.803774 C180.071698,142.358491 188.222642,141.967925 188.222642,141.967925 L184.996226,130.081132 L180.167925,130.49434 Z" id="Path" stroke="#1D2A38" stroke-width="1.5" fill="#FAF5EA" fill-rule="nonzero" stroke-linecap="round" stroke-linejoin="round"></path>
                <polygon id="Path" stroke="#1D2A38" stroke-width="2" fill="#FAF5EA" fill-rule="nonzero" stroke-linecap="round" stroke-linejoin="round" points="187.220755 127.79434 182.443396 129.215094 185.998113 144.333962 191.222642 142.890566"></polygon>
                <path d="M185.301887,128.773585 L189.207547,144.339623 L204.750943,139.19434 C205.884187,138.819079 206.797474,137.968338 207.252052,136.864517 C207.70663,135.760697 207.657309,134.513531 207.116981,133.449057 C201.7,122.762264 187.775472,95.5811321 186.649057,94.1433962 C185.64717,92.8641509 177.275472,90.8150943 177.275472,90.8150943" id="Path" stroke="#1D2A38" stroke-width="1.5" fill="#FAF5EA" fill-rule="nonzero" stroke-linecap="round" stroke-linejoin="round"></path>
                <polygon id="Path" stroke="#1D2A38" fill="#FFD701" fill-rule="nonzero" stroke-linecap="round" stroke-linejoin="round" points="180.207547 135.101887 173.873585 104.779245 186.830189 103.80566 191.64717 132.922642"></polygon>
                <polygon id="Path" stroke="#1D2A38" fill="#FFD701" fill-rule="nonzero" stroke-linecap="round" stroke-linejoin="round" points="177.275472 102.481132 183.241509 134.524528 187.492453 133.715094 182.760377 102.016981"></polygon>
                <polygon id="Path" stroke="#1D2A38" fill="#FFD701" fill-rule="nonzero" stroke-linecap="round" stroke-linejoin="round" points="186.926415 104.366038 190.062264 104.366038 193.860377 132.498113 191.64717 132.922642"></polygon>
                <polygon id="Rectangle" stroke="#1D2A38" stroke-width="1.5" fill="#FFD701" fill-rule="nonzero" stroke-linecap="round" stroke-linejoin="round" transform="translate(76.866248, 41.443962) rotate(29.240000) translate(-76.866248, -41.443962) " points="64.8888898 27.3581128 88.8436068 27.3581128 88.8436068 55.5298109 64.8888898 55.5298109"></polygon>
                <rect id="Rectangle" stroke="#1D2A38" stroke-width="1.38" fill="#FFD701" fill-rule="nonzero" stroke-linecap="round" stroke-linejoin="round" x="20.5792453" y="179.173585" width="65.6264151" height="120.367925"></rect>
                <path d="M36.2867925,16.4150943 L61.1924528,16.4150943 C61.2237142,16.4150943 61.2490566,16.4404367 61.2490566,16.4716981 L61.2490566,58.8113208 L36.2867925,58.8113208 L36.2867925,16.4150943 Z" id="Path" stroke="#1D2A38" stroke-width="1.5" fill="#FFD701" fill-rule="nonzero" stroke-linecap="round" stroke-linejoin="round"></path>
                <path d="M25.7754717,22.8113208 L55.0679245,22.8113208 C55.3211419,22.8113208 55.5264151,22.9932772 55.5264151,23.2177319 L55.5264151,58.8113208 L25.7754717,58.8113208 L25.7754717,22.8113208 Z" id="Path" stroke="#1D2A38" stroke-width="1.5" fill="#FFD701" fill-rule="nonzero" stroke-linecap="round" stroke-linejoin="round"></path>
                <polygon id="Rectangle" stroke="#1D2A38" stroke-width="1.5" fill="#FFD701" fill-rule="nonzero" stroke-linecap="round" stroke-linejoin="round" transform="translate(32.692878, 96.131534) rotate(169.280000) translate(-32.692878, -96.131534) " points="29.6136324 75.1315345 35.772123 75.1315345 35.772123 117.131534 29.6136324 117.131534"></polygon>
                <polygon id="Rectangle" stroke="#1D2A38" stroke-width="1.5" fill="#FFD701" fill-rule="nonzero" stroke-linecap="round" stroke-linejoin="round" transform="translate(38.135454, 96.203866) rotate(169.280000) translate(-38.135454, -96.203866) " points="35.8826242 75.2038664 40.3882845 75.2038664 40.3882845 117.203866 35.8826242 117.203866"></polygon>
                <polygon id="Rectangle" stroke="#1D2A38" stroke-width="1.5" fill="#FFD701" fill-rule="nonzero" stroke-linecap="round" stroke-linejoin="round" transform="translate(42.947065, 97.382623) rotate(169.280000) translate(-42.947065, -97.382623) " points="40.6942351 77.4609244 45.1998955 77.4609244 45.1998955 117.304321 40.6942351 117.304321"></polygon>
                <rect id="Rectangle" stroke="#1D2A38" stroke-width="1.5" fill="#FFD701" fill-rule="nonzero" stroke-linecap="round" stroke-linejoin="round" x="31.9339623" y="137.269811" width="6.15849057" height="38.5924528"></rect>
                <rect id="Rectangle" stroke="#1D2A38" stroke-width="1.5" fill="#FFD701" fill-rule="nonzero" stroke-linecap="round" stroke-linejoin="round" x="25.7754717" y="133.856604" width="6.15849057" height="42"></rect>
                <path d="M88.6113208,65.445283 C89.5223572,65.4450877 90.3932095,65.0701873 91.0195027,64.4085647 C91.6457958,63.7469422 91.972391,62.856847 91.9226415,61.9471698 C91.7651046,60.1425615 90.2356289,58.7690032 88.4245283,58.8056604 L25.7754717,58.8056604 L25.7754717,6.91698113 L88.4245283,6.91698113 C90.2271459,6.94484292 91.7457557,5.57685953 91.9056604,3.78113208 C91.9554098,2.87145493 91.6288147,1.98135967 91.0025215,1.31973714 C90.3762283,0.658114604 89.5053761,0.283018868 88.5943396,0.283018868 L27.2132075,0.283018868 C23.5515821,0.286143123 20.5849057,3.25535432 20.5849057,6.91698113 L20.5849057,6.91698113 L20.5849057,299.558491 L25.7811321,299.558491 L25.7811321,241.018868 L88.6113208,241.018868 C89.4910388,241.018868 90.334726,240.669401 90.9567806,240.047347 C91.5788352,239.425292 91.9283019,238.581605 91.9283019,237.701887 L91.9283019,237.701887 C91.9283019,235.869969 90.4432388,234.384906 88.6113208,234.384906 L25.7811321,234.384906 L25.7811321,182.496226 L88.4245283,182.496226 C90.2356289,182.532884 91.7651046,181.159325 91.9226415,179.354717 C91.972391,178.44504 91.6457958,177.554945 91.0195027,176.893322 C90.3932095,176.2317 89.5223572,175.856799 88.6113208,175.856604 L25.7811321,175.856604 L25.7811321,123.962264 L88.4245283,123.962264 C90.2336308,123.999143 91.7623071,122.628776 91.9226415,120.826415 C91.972391,119.916738 91.6457958,119.026643 91.0195027,118.36502 C90.3932095,117.703398 89.5223572,117.328497 88.6113208,117.328302 L25.7811321,117.328302 L25.7811321,65.445283 L88.6113208,65.445283 Z" id="Path" stroke="#1D2A38" stroke-width="1.5" fill="#FFD701" fill-rule="nonzero" stroke-linecap="round" stroke-linejoin="round"></path>
                <path d="M23.6811321,268.539623 C23.6811321,268.539623 18.2132075,267.735849 20.6981132,248.654717 C23.1830189,229.573585 34.8943396,222.616981 40.3396226,225.815094 C45.7849057,229.013208 38.8,241.79434 32.9811321,252.798113 C27.1622642,263.801887 29.5113208,267.588679 23.6811321,268.539623 Z" id="Path" stroke="#1D2A38" stroke-width="1.5" fill="#FFD701" fill-rule="nonzero" stroke-linecap="round" stroke-linejoin="round"></path>
                <path d="M33.0037736,238.833962 C33.0037736,238.833962 23.890566,248.654717 22.4698113,283.449057" id="Path" stroke="#1D2A38" stroke-linecap="round" stroke-linejoin="round"></path>
                <path d="M8.13207547,270.079245 C5.38679245,266.903774 -1.92641509,258.481132 1.15283019,255.996226 C4.23207547,253.511321 11.2113208,257.060377 16.7754717,266.750943 C19.8490566,273.543396 18.354717,276.220755 14.290566,276.175472 C12.0150943,276.186792 9.56981132,271.698113 8.13207547,270.079245 Z" id="Path" stroke="#1D2A38" stroke-width="1.5" fill="#FFD701" fill-rule="nonzero" stroke-linecap="round" stroke-linejoin="round"></path>
                <path d="M10.045283,265.698113 C10.045283,265.698113 16.7924528,271.969811 18.5641509,283.449057" id="Path" stroke="#1D2A38" stroke-linecap="round" stroke-linejoin="round"></path>
                <path d="M19.1528302,263.688679 C19.1528302,263.688679 14.5396226,265.95283 8.86226415,251.85283 C3.18490566,237.75283 -4.62641509,218.122642 4.48113208,214.930189 C13.5886792,211.737736 21.1509434,228.532075 23.5339623,242.264151 C25.9169811,255.996226 24.5867925,262.267925 19.1528302,263.688679 Z" id="Path" stroke="#1D2A38" stroke-width="1.5" fill="#FFD701" fill-rule="nonzero" stroke-linecap="round" stroke-linejoin="round"></path>
                <path d="M12.2924528,236.467925 C12.2924528,236.467925 20.9301887,253.154717 19.8660377,283.924528" id="Path" stroke="#1D2A38" stroke-linecap="round" stroke-linejoin="round"></path>
                <path d="M26.7773585,274.573585 C26.7773585,274.573585 23.3811321,273.15283 26.7773585,259.188679 C30.1735849,245.224528 37.854717,242.830189 40.5320755,246.792453 C42.9603774,250.375472 39.9660377,256.913208 36.1566038,263.801887 C32.9245283,269.660377 29.9641509,275.326415 26.7773585,274.573585 Z" id="Path" stroke="#1D2A38" stroke-width="1.5" fill="#FFD701" fill-rule="nonzero" stroke-linecap="round" stroke-linejoin="round"></path>
                <path d="M33.9490566,258.113208 C33.9490566,258.113208 25.6792453,270.198113 24.4849057,287.830189" id="Path" stroke="#1D2A38" stroke-linecap="round" stroke-linejoin="round"></path>
                <polygon id="Path" stroke="#1D2A38" stroke-width="1.5" fill="#FFD701" fill-rule="nonzero" stroke-linecap="round" stroke-linejoin="round" points="30.7566038 282.979245 28.8603774 299.541509 12.1735849 299.541509 10.6339623 282.979245"></polygon>
                <polygon id="Path" stroke="#1D2A38" stroke-width="1.5" fill="#FFD701" fill-rule="nonzero" stroke-linecap="round" stroke-linejoin="round" points="33.9490566 278.954717 33.1226415 285.107547 8.6245283 285.107547 7.44150943 279.781132"></polygon>
                <rect id="Rectangle" stroke="#1D2A38" stroke-width="1.5" fill="#FFD701" fill-rule="nonzero" stroke-linecap="round" stroke-linejoin="round" x="81.4735849" y="6.91698113" width="5.19622642" height="292.624528"></rect>
            </g>
        </g>
    </g>
</svg>