<?xml version="1.0" encoding="UTF-8"?>
<svg width="127px" height="401px" viewBox="0 0 127 401" version="1.1" xmlns="http://www.w3.org/2000/svg" xmlns:xlink="http://www.w3.org/1999/xlink">
    <!-- Generator: Sketch 55.2 (78181) - https://sketchapp.com -->
    <title>s1-b</title>
    <desc>Created with Sketch.</desc>
    <g id="illustration" stroke="none" stroke-width="1" fill="none" fill-rule="evenodd" opacity="0.900000036">
        <g id="S1" transform="translate(-894.000000, -415.000000)">
            <g id="s1-b" transform="translate(895.000000, 415.000000)">
                <path d="M77.2033898,376.785311 L79.0112994,391.129944 C79.5118942,395.047657 83.0211228,397.868019 86.9548023,397.514124 L86.9548023,397.514124 C90.8966668,397.149302 93.8401771,393.726035 93.6101695,389.774011 L92.740113,375.338983 C92.4632768,370.700565 93.2090395,367.333333 88.6271186,368.112994 L88.6271186,364.542373 C84.5084746,365.248588 76.6836158,372.638418 77.2033898,376.785311 Z" id="Path" fill="#1D2A38" fill-rule="nonzero"></path>
                <path d="M95.3276836,263.700565 L94.960452,153.717514 C94.960452,153.717514 106.361582,138.949153 84.4180791,136.423729 C63.2033898,134.084746 56.8305085,148.853107 56.8305085,148.853107 L64.4576271,207.830508 L67.1468927,265.508475 L67.1468927,265.508475 L75.3163842,379.40678 C75.4613492,381.432096 77.1979747,382.970466 79.2259887,382.870056 L91.0903955,382.305085 C93.0710812,382.209125 94.6313909,380.581838 94.6440678,378.59887 L95.3502825,263.740113" id="Path" stroke="#1D2A38" stroke-width="1.5" fill="#617181" fill-rule="nonzero" stroke-linecap="round" stroke-linejoin="round"></path>
                <path d="M37.0338983,374.853107 L35.9717514,389.265537 C35.6866986,393.203938 38.5666527,396.662878 42.4915254,397.096045 L42.4915254,397.096045 C46.4263432,397.515799 49.9863468,394.742743 50.5423729,390.824859 L52.5423729,376.508475 C52.8500042,374.3113 52.2083915,372.087 50.7778149,370.391223 C49.3472382,368.695445 47.2627958,367.688332 45.0451977,367.621469 L45.0451977,367.621469 C40.8715118,367.504329 37.3432157,370.689251 37.0338983,374.853107 Z" id="Path" fill="#1D2A38" fill-rule="nonzero"></path>
                <path d="M48.4180791,133.542373 C21.0960452,133.542373 31.9322034,176.480226 31.9322034,176.480226 L32.4463277,262.768362 L32.4463277,262.768362 L34.2146893,375.627119 C34.2140257,378.458299 36.3534487,380.831912 39.1694915,381.124294 L48.3728814,382.067797 C49.8341073,382.219094 51.2952996,381.781061 52.4323193,380.850869 C53.5693391,379.920676 54.2881794,378.575231 54.4293785,377.112994 L61.5480226,264.683616 L61.5480226,264.683616 L64.4576271,207.813559 L63.8926554,150.99435 C63.8926554,150.99435 68.4915254,133.542373 48.4180791,133.542373 Z" id="Path" stroke="#1D2A38" stroke-width="1.5" fill="#617181" fill-rule="nonzero" stroke-linecap="round" stroke-linejoin="round"></path>
                <path d="M79.1638418,383.683616 C78.3728814,382.502825 76.1412429,382.502825 75.9322034,383.909605 C75.3672316,387.59887 75.2429379,399.463277 77.3333333,399.474576 C80.220339,399.474576 97.7683616,399.474576 102.723164,399.474576 C111.045198,399.474576 112.039548,399.745763 111.892655,397.435028 C111.525424,391.745763 106.898305,392.59887 103.655367,391.220339 C98.3333333,388.841808 97.079096,388.20904 95.5480226,384.813559 C94.2711864,381.988701 83.0282486,382.836158 83.1186441,387.491525 C82.0621469,388.412429 80.3841808,385.502825 79.1638418,383.683616 Z" id="Path" stroke="#1D2A38" stroke-width="1.5" fill="#D5B199" fill-rule="nonzero" stroke-linecap="round" stroke-linejoin="round"></path>
                <path d="M50.5254237,383.683616 C51.3220339,382.502825 53.5480226,382.502825 53.7627119,383.909605 C54.3276836,387.59887 54.4463277,399.463277 52.3559322,399.474576 C49.4689266,399.474576 31.9265537,399.474576 26.9717514,399.474576 C18.6497175,399.474576 17.6497175,399.745763 17.7966102,397.435028 C18.1638418,391.745763 22.7966102,392.59887 26.0338983,391.220339 C31.3615819,388.841808 32.6101695,388.20904 34.1412429,384.813559 C35.4180791,381.988701 46.6666667,382.836158 46.5706215,387.491525 C47.6271186,388.412429 49.3107345,385.502825 50.5254237,383.683616 Z" id="Path" stroke="#1D2A38" stroke-width="1.5" fill="#D5B199" fill-rule="nonzero" stroke-linecap="round" stroke-linejoin="round"></path>
                <polygon id="Path" stroke="#1D2A38" stroke-width="1.5" fill="#FAF5EA" fill-rule="nonzero" stroke-linecap="round" stroke-linejoin="round" points="51.4463277 61.7853107 52.3954802 40.9717514 78.7966102 40.9717514 78.7966102 64.3050847"></polygon>
                <path d="M61.1694915,165.20904 L30.4350282,164.276836 C30.4350282,164.276836 31,156.485876 31.3163842,156.485876 C31.6327684,156.485876 63.2316384,159.00565 63.519774,158.932203 C63.8079096,158.858757 85.6384181,155.717514 85.6384181,155.717514 L85.6384181,164.59887 L61.1694915,165.20904 Z" id="Path" fill="#1D2A38" fill-rule="nonzero"></path>
                <polygon id="Path" stroke="#1D2A38" stroke-width="2" fill="#FAF5EA" fill-rule="nonzero" stroke-linecap="round" stroke-linejoin="round" points="69.4350282 166.378531 53.6666667 166.559322 53.6666667 157.378531 69.4350282 157.378531"></polygon>
                <polygon id="Path" stroke="#1D2A38" stroke-width="1.3" fill="#FAF5EA" fill-rule="nonzero" stroke-linecap="round" stroke-linejoin="round" points="66.1073446 163.853107 57.0225989 163.971751 57.0225989 158.045198 66.1073446 158.045198"></polygon>
                <polygon id="Path" stroke="#1D2A38" stroke-width="1.5" fill="#FAF5EA" fill-rule="nonzero" stroke-linecap="round" stroke-linejoin="round" points="90.7118644 153.231638 70.8135593 159.853107 31.9322034 154.050847 33.4632768 81.0621469 48.6779661 67.3163842 79.9378531 65.1920904 97.8757062 111.372881"></polygon>
                <path d="M33.4632768,149.745763 L54.4463277,161.112994 C55.1102948,161.466542 55.9066544,161.466542 56.5706215,161.112994 L62.4124294,158.033898" id="Path" stroke="#1D2A38" stroke-width="1.5" fill="#FAF5EA" fill-rule="nonzero" stroke-linecap="round" stroke-linejoin="round"></path>
                <polygon id="Path" stroke="#1D2A38" stroke-width="1.5" fill="#FAF5EA" fill-rule="nonzero" stroke-linecap="round" stroke-linejoin="round" points="58.1073446 71.6045198 63.4632768 62.4971751 67.9774011 72.2937853 80.8361582 71.1468927 79.3841808 60.1242938 50.4519774 59.5141243 47.6214689 70.5367232"></polygon>
                <path d="M58.519774,70.5084746 L59.9435028,75.3163842 L51.2146893,144.858757 L57.7514124,160.621469 C58.0037939,161.252571 58.6087803,161.671863 59.2883156,161.687039 C59.9678509,161.701408 60.5904872,161.308804 60.8700565,160.689266 L68.0282486,145.435028 L64,75.6327684 L66.9265537,70.5028249 L63.2316384,62.4915254 L58.519774,70.5084746 Z" id="Path" fill="#1D2A38" fill-rule="nonzero"></path>
                <path d="M51.5649718,59.3220339 C51.5649718,59.3220339 57.5762712,58.1129944 59.9096045,56.1525424 C53.4576271,55.7683616 51.6666667,55.4745763 51.6666667,55.4745763 L51.5649718,59.3220339 Z" id="Path" fill="#1D2A38" fill-rule="nonzero"></path>
                <path d="M47.6723164,31.1073446 C47.6723164,31.1073446 45.0338983,26.1581921 41.7118644,29.1129944 C38.3898305,32.0677966 41.3898305,43.9378531 46.8474576,40.3615819" id="Path" stroke="#1D2A38" stroke-width="1.5" fill="#FAF5EA" fill-rule="nonzero" stroke-linecap="round" stroke-linejoin="round"></path>
                <path d="M77.819209,52.3163842 C83.9322034,52.4858757 81.5875706,25.5141243 81.5875706,25.5141243 L82.1525424,15.0734463 C82.3024459,12.4720657 81.3813994,9.92263413 79.6034854,8.01772625 C77.8255714,6.11281837 75.3456405,5.01834557 72.740113,4.98870056 C66.4858757,4.93220339 58.4745763,5.42372881 52.2881356,7.70621469 C46.6074019,9.89064566 42.9647935,15.4683898 43.2485876,21.5480226 L44.2316384,47.8813559 C44.3309438,50.5700428 45.5954558,53.0823999 47.6957639,54.7639482 C49.7960719,56.4454965 52.5242116,57.1297355 55.1694915,56.6384181 L59.6214689,55.8135593" id="Path" stroke="#1D2A38" stroke-width="1.5" fill="#FAF5EA" fill-rule="nonzero" stroke-linecap="round" stroke-linejoin="round"></path>
                <circle id="Oval" stroke="#1D2A38" stroke-width="1.5" fill="#FAF5EA" fill-rule="nonzero" stroke-linecap="round" stroke-linejoin="round" cx="51.2090395" cy="35.1694915" r="7.70621469"></circle>
                <circle id="Oval" stroke="#1D2A38" stroke-width="1.5" fill="#FAF5EA" fill-rule="nonzero" stroke-linecap="round" stroke-linejoin="round" cx="69.6779661" cy="35.8757062" r="7.70621469"></circle>
                <path d="M76.4293785,32.1638418 L81.9322034,27.1525424" id="Path" stroke="#1D2A38" stroke-width="1.5" fill="#FAF5EA" fill-rule="nonzero" stroke-linecap="round" stroke-linejoin="round"></path>
                <path d="M58.9039548,35.519774 L61.9717514,35.519774" id="Path" stroke="#1D2A38" stroke-width="1.5" stroke-linecap="round" stroke-linejoin="round"></path>
                <circle id="Oval" stroke="#1D2A38" stroke-width="1.5" stroke-linecap="round" stroke-linejoin="round" fill-rule="nonzero" cx="67.8389831" cy="50.720339" r="1.5"></circle>
                <path d="M87.3333333,25.740113 C86.9830508,30.8870056 84.7966102,32.8531073 81.9717514,29.8870056 C81.8936916,29.8011043 81.7710306,29.7716947 81.6625049,29.8128596 C81.5539792,29.8540245 81.4816793,29.9573849 81.480226,30.0734463 L81.3559322,32.7118644 C81.3398986,33.2114603 80.9975206,33.6411563 80.5141243,33.7683616 L80.5141243,33.7683616 C80.1935024,33.8622515 79.8477674,33.8094452 79.5697908,33.6241274 C79.2918141,33.4388096 79.1100948,33.1399798 79.0734463,32.8079096 C78.9466029,31.7757814 78.7368861,30.7555378 78.4463277,29.7570621 C77.5377572,26.6186521 74.4096927,24.6697022 71.1920904,25.2372881 C61.1129944,27 47.7231638,26.2655367 48.5028249,18.2655367 C45.0734463,26.5536723 43.2372881,27.9661017 43.2372881,27.9661017 C37.480226,14.559322 41.700565,5.46892655 48.8870056,6.81355932 C57.1073446,-6.98870056 83.2033898,5.11864407 85.6836158,13.8926554 C87.0056497,18.5536723 87.5367232,22.7514124 87.3333333,25.740113 Z" id="Path" fill="#1D2A38" fill-rule="nonzero"></path>
                <path d="M23.9435028,130.180791 L23.5649718,140.112994 L20.6836158,189.932203 L44.3389831,186.672316 C46.4981535,186.371352 48.0740527,184.477337 47.9774011,182.299435 L44.1751412,108.440678 L47.6214689,70.5536723 L48.6779661,66.4463277 L24.1525424,70.3220339 L1.1299435,130.293785 C-0.502911311,134.354973 0.202747791,138.982884 2.97175141,142.372881 C5.8700565,145.80226 14.9887006,146.112994 23.3107345,134.960452" id="Path" stroke="#1D2A38" stroke-width="1.5" fill="#FFD700" fill-rule="nonzero" stroke-linecap="round" stroke-linejoin="round"></path>
                <polygon id="Path" stroke="#1D2A38" stroke-width="1.5" fill="#FFD700" fill-rule="nonzero" stroke-linecap="round" stroke-linejoin="round" points="44.4858757 68.3107345 31.9322034 107.915254 36.8305085 108.576271 32.4971751 113.220339 45.9717514 148.327684 44.1751412 108.423729 47.6214689 70.5367232 48.6779661 66.4293785"></polygon>
                <path d="M101.80226,140.225989 C109.920904,150.39548 124.627119,151.525424 124.627119,139.661017 C124.627119,127.79661 107.158192,71.6666667 107.158192,71.6666667 L80.0734463,65.3220339 L80.8361582,71.1299435 L79.6610169,179.231638 C79.6303437,181.334912 81.1531829,183.139669 83.2316384,183.463277 L106.960452,186.813559 L105.689266,144.067797" id="Path" stroke="#1D2A38" stroke-width="1.5" fill="#FFD700" fill-rule="nonzero" stroke-linecap="round" stroke-linejoin="round"></path>
                <polygon id="Path" stroke="#1D2A38" stroke-width="1.5" fill="#FFD700" fill-rule="nonzero" stroke-linecap="round" stroke-linejoin="round" points="80.0734463 65.3389831 80.8361582 71.1468927 79.9378531 146.694915 91.8700565 110.022599 85.9039548 107.378531 91.8700565 105.497175 84.7627119 66.7288136"></polygon>
                <polygon id="Path" fill="#1D2A38" fill-rule="nonzero" points="76.4293785 71.5423729 80.4576271 97.1412429 80.8361582 71.1468927"></polygon>
                <path d="M86.1920904,133.361582 L92.8870056,88.6610169 C92.8870056,88.6610169 74.1751412,77.8926554 57.8587571,86.259887 C53.3954802,83.6779661 39.4293785,74.0621469 24.9322034,81.9661017 C25.2881356,82.7627119 27.8870056,110.169492 29.0508475,128.412429 L30.700565,130.960452 L67.7966102,106.412429 L84.5254237,135.847458 L86.1920904,133.361582 Z" id="Path" stroke="#1D2A38" stroke-width="1.5" fill="#FAF5EA" fill-rule="nonzero" stroke-linecap="round" stroke-linejoin="round"></path>
                <path d="M56.0169492,86.9096045 L55.9322034,135.847458 C44.5141243,126.242938 30.7062147,130.960452 30.7062147,130.960452 C30.7062147,130.960452 29.1694915,110.751412 27.6384181,84.4011299 C39.079096,77.7118644 56.0169492,86.9096045 56.0169492,86.9096045 Z" id="Path" stroke="#1D2A38" stroke-width="1.5" fill="#617181" fill-rule="nonzero" stroke-linecap="round" stroke-linejoin="round"></path>
                <path d="M90.819209,91.3954802 C90.819209,91.3954802 88.700565,112.864407 84.519774,135.847458 C70.7231638,126.242938 59.2259887,135.847458 59.2259887,135.847458 L59.2259887,87.0564972 C75.7683616,79.8079096 90.819209,91.3954802 90.819209,91.3954802 Z" id="Path" stroke="#1D2A38" stroke-width="1.5" fill="#617181" fill-rule="nonzero" stroke-linecap="round" stroke-linejoin="round"></path>
                <path d="M59.2259887,87.0564972 L59.2259887,135.847458 L59.1977401,135.847458 C58.1171735,135.685129 57.0184197,135.685129 55.9378531,135.847458 L56.0169492,86.9096045 C57.0851996,86.7347829 58.1781769,86.7848135 59.2259887,87.0564972 L59.2259887,87.0564972 Z" id="Path" stroke="#1D2A38" stroke-width="1.5" fill="#617181" fill-rule="nonzero" stroke-linecap="round" stroke-linejoin="round"></path>
                <path d="M106.706215,124.440678 L99.079096,119.107345 L92.7853107,105.451977 L90.5254237,103.649718 L89.8870056,107.937853 L84.4180791,106.502825 L82.0112994,121.19209 L90.0621469,124.734463 L102.412429,136.288136 C105.265537,138.954802 107.497175,137.740113 107.903955,133.858757 C108.107345,132.045198 107.943503,126.988701 106.706215,124.440678 Z" id="Path" stroke="#1D2A38" stroke-width="1.5" fill="#FAF5EA" fill-rule="nonzero" stroke-linecap="round" stroke-linejoin="round"></path>
                <path d="M84.4350282,106.502825 L79.2316384,105.265537 L75.8418079,102.677966 C75.1679825,102.168671 74.2120304,102.283485 73.6779661,102.937853 L73.6779661,102.937853 C73.1366307,103.601751 73.2271154,104.576975 73.8813559,105.129944 L78.1242938,108.689266 L83.7740113,110.581921 L84.4350282,106.502825 Z" id="Path" stroke="#1D2A38" stroke-width="1.5" fill="#FAF5EA" fill-rule="nonzero" stroke-linecap="round" stroke-linejoin="round"></path>
                <path d="M83.7627119,110.581921 L77.3276836,109.175141 L72.7288136,106.073446 C72.4116253,105.862073 72.0231513,105.786142 71.6497181,105.862526 C71.2762849,105.93891 70.9488274,106.161282 70.740113,106.480226 L70.740113,106.480226 C70.3371989,107.099266 70.4745924,107.923627 71.0564972,108.378531 L76.1412429,112.333333 L83.1638418,114.265537 L83.7627119,110.581921 Z" id="Path" stroke="#1D2A38" stroke-width="1.5" fill="#FAF5EA" fill-rule="nonzero" stroke-linecap="round" stroke-linejoin="round"></path>
                <path d="M82.5480226,117.903955 L74.7231638,116.20904 L70.4689266,113.163842 C69.8952066,112.752448 69.7394581,111.966289 70.1129944,111.367232 L70.1129944,111.367232 C70.473206,110.799455 71.1998213,110.588736 71.8079096,110.875706 L75.9717514,112.915254 L83.1299435,114.265537 L82.5480226,117.903955 Z" id="Path" stroke="#1D2A38" stroke-width="1.5" fill="#FAF5EA" fill-rule="nonzero" stroke-linecap="round" stroke-linejoin="round"></path>
                <path d="M82.5480226,117.903955 L76.3333333,117.728814 L73.2711864,116.59887 C72.9643997,116.481999 72.6231827,116.495539 72.3266213,116.636352 C72.0300599,116.777165 71.8039018,117.033026 71.700565,117.344633 L71.700565,117.344633 C71.4976645,117.959927 71.8133828,118.626167 72.4180791,118.858757 L76.3333333,120.338983 L82.0282486,121.180791 L82.5480226,117.903955 Z" id="Path" stroke="#1D2A38" stroke-width="1.5" fill="#FAF5EA" fill-rule="nonzero" stroke-linecap="round" stroke-linejoin="round"></path>
                <path d="M18.4011299,120.423729 L23.0451977,116.870056 L24.4858757,105.983051 L26.8474576,103.242938 L27.1129944,107.045198 L31.1412429,105.225989 L36.1581921,119.20904 L30.3107345,122.943503 L23.9491525,130.186441 C22.8628061,131.432634 21.1253259,131.888551 19.5670671,131.336304 C18.0088082,130.784057 16.9461741,129.33578 16.8870056,127.683616 C16.7966102,125.152542 17.1355932,122.531073 18.4011299,120.423729 Z" id="Path" stroke="#1D2A38" stroke-width="1.5" fill="#FAF5EA" fill-rule="nonzero" stroke-linecap="round" stroke-linejoin="round"></path>
                <path d="M31.1242938,105.242938 L36.0338983,103.107345 L38.920904,99.9661017 C39.4931267,99.3450994 40.4539585,99.2876991 41.0960452,99.8361582 L41.0960452,99.8361582 C41.7462123,100.394169 41.826797,101.371258 41.2768362,102.028249 L37.7288136,106.282486 L32.5084746,109.141243 L31.1242938,105.242938 Z" id="Path" stroke="#1D2A38" stroke-width="1.5" fill="#FAF5EA" fill-rule="nonzero" stroke-linecap="round" stroke-linejoin="round"></path>
                <path d="M32.5084746,109.141243 L38.5932203,106.621469 L42.5762712,102.762712 C42.8532085,102.490237 43.2294661,102.342769 43.6177947,102.354504 C44.0061233,102.36624 44.3727896,102.536158 44.6327684,102.824859 L44.6327684,102.824859 C45.1332329,103.369538 45.1332329,104.206733 44.6327684,104.751412 L40.3389831,109.525424 L33.7627119,112.661017 L32.5084746,109.141243 Z" id="Path" stroke="#1D2A38" stroke-width="1.5" fill="#FAF5EA" fill-rule="nonzero" stroke-linecap="round" stroke-linejoin="round"></path>
                <path d="M34.9887006,116.135593 L42.3898305,113.079096 L46.0451977,109.327684 C46.5370418,108.821756 46.5518712,108.020966 46.079096,107.497175 L46.079096,107.497175 C45.6175072,106.993165 44.850419,106.917674 44.299435,107.322034 L40.559322,110.056497 L33.7514124,112.644068 L34.9887006,116.135593 Z" id="Path" stroke="#1D2A38" stroke-width="1.5" fill="#FAF5EA" fill-rule="nonzero" stroke-linecap="round" stroke-linejoin="round"></path>
                <path d="M34.9887006,116.135593 L41.079096,114.870056 L43.9039548,113.175141 C44.1879357,113.002352 44.5305313,112.954108 44.8511861,113.041754 C45.1718409,113.1294 45.442264,113.345202 45.5988701,113.638418 L45.5988701,113.638418 C45.9086538,114.206342 45.7140039,114.917563 45.1581921,115.248588 L41.5649718,117.39548 L36.1129944,119.231638 L34.9887006,116.135593 Z" id="Path" stroke="#1D2A38" stroke-width="1.5" fill="#FAF5EA" fill-rule="nonzero" stroke-linecap="round" stroke-linejoin="round"></path>
                <path d="M25.1638418,169.966102 L41.0677966,166.892655" id="Path" stroke="#1D2A38" stroke-width="1.5" fill="#FFD700" fill-rule="nonzero" stroke-linecap="round" stroke-linejoin="round"></path>
                <path d="M86.4293785,166.372881 L103.497175,169.322034" id="Path" stroke="#1D2A38" stroke-width="1.5" fill="#FFD700" fill-rule="nonzero" stroke-linecap="round" stroke-linejoin="round"></path>
                <path d="M105.655367,123.056497 L103.745763,85.559322" id="Path" stroke="#1D2A38" stroke-width="1.5" fill="#FFD700" fill-rule="nonzero" stroke-linecap="round" stroke-linejoin="round"></path>
                <path d="M19.4858757,119.536723 C19.4858757,119.536723 14.5028249,131.435028 21.0112994,131.435028 C21.0112994,131.435028 23.920904,132.40678 25.5310734,130.59887 C25.5310734,130.59887 23.1751412,139.112994 17.7853107,136.322034 C12.3954802,133.531073 15.8813559,121.310734 19.4858757,119.536723 Z" id="Path" fill="#1D2A38" fill-rule="nonzero"></path>
                <path d="M18.4011299,120.423729 L7.10734463,127.20904" id="Path" stroke="#1D2A38" stroke-width="1.5" fill="#FAF5EA" fill-rule="nonzero" stroke-linecap="round" stroke-linejoin="round"></path>
                <path d="M106.468927,124 C107.813559,128.519774 106.99435,133.734463 104.022599,134.418079 C99.5932203,135.429379 98.9378531,133 98.9378531,133 C98.9378531,133 99.079096,141.350282 104.090395,141.977401 C109.101695,142.60452 111.079096,132.254237 106.468927,124 Z" id="Path" fill="#1D2A38" fill-rule="nonzero"></path>
                <path d="M106.706215,124.440678 L117.175141,130.864407" id="Path" stroke="#1D2A38" stroke-width="1.5" fill="#FAF5EA" fill-rule="nonzero" stroke-linecap="round" stroke-linejoin="round"></path>
                <path d="M20.8135593,131.440678 C20.8135593,131.440678 23.9491525,131.112994 26.3163842,127.485876 C26.3163842,127.485876 25.5932203,130.943503 24.7966102,132.451977 C24.7966102,132.480226 21.5649718,133.576271 20.8135593,131.440678 Z" id="Path" fill="#1D2A38" fill-rule="nonzero"></path>
                <path d="M81.3559322,32.7118644 C81.3559322,32.7118644 81.559322,26.1242938 86.7344633,28.4011299 C90.8022599,30.1864407 87.0621469,43.2259887 81.5988701,39.6497175" id="Path" stroke="#1D2A38" stroke-width="1.5" fill="#FAF5EA" fill-rule="nonzero" stroke-linecap="round" stroke-linejoin="round"></path>
            </g>
        </g>
    </g>
</svg>