<?xml version="1.0" encoding="UTF-8"?>
<svg width="149px" height="401px" viewBox="0 0 149 401" version="1.1" xmlns="http://www.w3.org/2000/svg" xmlns:xlink="http://www.w3.org/1999/xlink">
    <!-- Generator: Sketch 57.1 (83088) - https://sketch.com -->
    <title>s1-b-hover</title>
    <desc>Created with Sketch.</desc>
    <g stroke="none" stroke-width="1" fill="none" fill-rule="evenodd">
        <g transform="translate(-887.000000, -415.000000)">
            <g transform="translate(631.000000, 133.000000)">
                <g transform="translate(257.000000, 282.000000)">
                    <path d="M84.2033898,376.785311 L86.0112994,391.129944 C86.5118942,395.047657 90.0211228,397.868019 93.9548023,397.514124 L93.9548023,397.514124 C97.8966668,397.149302 100.840177,393.726035 100.610169,389.774011 L99.740113,375.338983 C99.4632768,370.700565 100.20904,367.333333 95.6271186,368.112994 L95.6271186,364.542373 C91.5084746,365.248588 83.6836158,372.638418 84.2033898,376.785311 Z" fill="#1D2A38" fill-rule="nonzero"></path>
                    <path d="M102.327684,263.700565 L101.960452,153.717514 C101.960452,153.717514 113.361582,138.949153 91.4180791,136.423729 C70.2033898,134.084746 63.8305085,148.853107 63.8305085,148.853107 L71.4576271,207.830508 L74.1468927,265.508475 L74.1468927,265.508475 L82.3163842,379.40678 C82.4613492,381.432096 84.1979747,382.970466 86.2259887,382.870056 L98.0903955,382.305085 C100.071081,382.209125 101.631391,380.581838 101.644068,378.59887 L102.350282,263.740113" stroke="#1D2A38" stroke-width="1.5" fill="#617181" fill-rule="nonzero" stroke-linecap="round" stroke-linejoin="round"></path>
                    <path d="M44.0338983,374.853107 L42.9717514,389.265537 C42.6866986,393.203938 45.5666527,396.662878 49.4915254,397.096045 L49.4915254,397.096045 C53.4263432,397.515799 56.9863468,394.742743 57.5423729,390.824859 L59.5423729,376.508475 C59.8500042,374.3113 59.2083915,372.087 57.7778149,370.391223 C56.3472382,368.695445 54.2627958,367.688332 52.0451977,367.621469 L52.0451977,367.621469 C47.8715118,367.504329 44.3432157,370.689251 44.0338983,374.853107 Z" fill="#1D2A38" fill-rule="nonzero"></path>
                    <path d="M55.4180791,133.542373 C28.0960452,133.542373 38.9322034,176.480226 38.9322034,176.480226 L39.4463277,262.768362 L39.4463277,262.768362 L41.2146893,375.627119 C41.2140257,378.458299 43.3534487,380.831912 46.1694915,381.124294 L55.3728814,382.067797 C56.8341073,382.219094 58.2952996,381.781061 59.4323193,380.850869 C60.5693391,379.920676 61.2881794,378.575231 61.4293785,377.112994 L68.5480226,264.683616 L68.5480226,264.683616 L71.4576271,207.813559 L70.8926554,150.99435 C70.8926554,150.99435 75.4915254,133.542373 55.4180791,133.542373 Z" stroke="#1D2A38" stroke-width="1.5" fill="#617181" fill-rule="nonzero" stroke-linecap="round" stroke-linejoin="round"></path>
                    <path d="M86.1638418,383.683616 C85.3728814,382.502825 83.1412429,382.502825 82.9322034,383.909605 C82.3672316,387.59887 82.2429379,399.463277 84.3333333,399.474576 C87.220339,399.474576 104.768362,399.474576 109.723164,399.474576 C118.045198,399.474576 119.039548,399.745763 118.892655,397.435028 C118.525424,391.745763 113.898305,392.59887 110.655367,391.220339 C105.333333,388.841808 104.079096,388.20904 102.548023,384.813559 C101.271186,381.988701 90.0282486,382.836158 90.1186441,387.491525 C89.0621469,388.412429 87.3841808,385.502825 86.1638418,383.683616 Z" stroke="#1D2A38" stroke-width="1.5" fill="#D5B199" fill-rule="nonzero" stroke-linecap="round" stroke-linejoin="round"></path>
                    <path d="M57.5254237,383.683616 C58.3220339,382.502825 60.5480226,382.502825 60.7627119,383.909605 C61.3276836,387.59887 61.4463277,399.463277 59.3559322,399.474576 C56.4689266,399.474576 38.9265537,399.474576 33.9717514,399.474576 C25.6497175,399.474576 24.6497175,399.745763 24.7966102,397.435028 C25.1638418,391.745763 29.7966102,392.59887 33.0338983,391.220339 C38.3615819,388.841808 39.6101695,388.20904 41.1412429,384.813559 C42.4180791,381.988701 53.6666667,382.836158 53.5706215,387.491525 C54.6271186,388.412429 56.3107345,385.502825 57.5254237,383.683616 Z" stroke="#1D2A38" stroke-width="1.5" fill="#D5B199" fill-rule="nonzero" stroke-linecap="round" stroke-linejoin="round"></path>
                    <polygon stroke="#1D2A38" stroke-width="1.5" fill="#FAF5EA" fill-rule="nonzero" stroke-linecap="round" stroke-linejoin="round" points="58.4463277 61.7853107 59.3954802 40.9717514 85.7966102 40.9717514 85.7966102 64.3050847"></polygon>
                    <path d="M58.5649718,59.3220339 C58.5649718,59.3220339 64.5762712,58.1129944 66.9096045,56.1525424 C60.4576271,55.7683616 58.6666667,55.4745763 58.6666667,55.4745763 L58.5649718,59.3220339 Z" fill="#1D2A38" fill-rule="nonzero"></path>
                    <path d="M54.6723164,31.1073446 C54.6723164,31.1073446 52.0338983,26.1581921 48.7118644,29.1129944 C45.3898305,32.0677966 48.3898305,43.9378531 53.8474576,40.3615819" stroke="#1D2A38" stroke-width="1.5" fill="#FAF5EA" fill-rule="nonzero" stroke-linecap="round" stroke-linejoin="round"></path>
                    <path d="M84.819209,52.3163842 C90.9322034,52.4858757 88.5875706,25.5141243 88.5875706,25.5141243 L89.1525424,15.0734463 C89.3024459,12.4720657 88.3813994,9.92263413 86.6034854,8.01772625 C84.8255714,6.11281837 82.3456405,5.01834557 79.740113,4.98870056 C73.4858757,4.93220339 65.4745763,5.42372881 59.2881356,7.70621469 C53.6074019,9.89064566 49.9647935,15.4683898 50.2485876,21.5480226 L51.2316384,47.8813559 C51.3309438,50.5700428 52.5954558,53.0823999 54.6957639,54.7639482 C56.7960719,56.4454965 59.5242116,57.1297355 62.1694915,56.6384181 L66.6214689,55.8135593" stroke="#1D2A38" stroke-width="1.5" fill="#FAF5EA" fill-rule="nonzero" stroke-linecap="round" stroke-linejoin="round"></path>
                    <circle stroke="#1D2A38" stroke-width="1.5" fill="#FAF5EA" fill-rule="nonzero" stroke-linecap="round" stroke-linejoin="round" cx="58.2090395" cy="35.1694915" r="7.70621469"></circle>
                    <circle stroke="#1D2A38" stroke-width="1.5" fill="#FAF5EA" fill-rule="nonzero" stroke-linecap="round" stroke-linejoin="round" cx="76.6779661" cy="35.8757062" r="7.70621469"></circle>
                    <path d="M83.4293785,32.1638418 L88.9322034,27.1525424" stroke="#1D2A38" stroke-width="1.5" fill="#FAF5EA" fill-rule="nonzero" stroke-linecap="round" stroke-linejoin="round"></path>
                    <path d="M65.9039548,35.519774 L68.9717514,35.519774" stroke="#1D2A38" stroke-width="1.5" stroke-linecap="round" stroke-linejoin="round"></path>
                    <circle stroke="#1D2A38" stroke-width="1.5" stroke-linecap="round" stroke-linejoin="round" fill-rule="nonzero" cx="74.8389831" cy="50.720339" r="1.5"></circle>
                    <path d="M94.3333333,25.740113 C93.9830508,30.8870056 91.7966102,32.8531073 88.9717514,29.8870056 C88.8936916,29.8011043 88.7710306,29.7716947 88.6625049,29.8128596 C88.5539792,29.8540245 88.4816793,29.9573849 88.480226,30.0734463 L88.3559322,32.7118644 C88.3398986,33.2114603 87.9975206,33.6411563 87.5141243,33.7683616 L87.5141243,33.7683616 C87.1935024,33.8622515 86.8477674,33.8094452 86.5697908,33.6241274 C86.2918141,33.4388096 86.1100948,33.1399798 86.0734463,32.8079096 C85.9466029,31.7757814 85.7368861,30.7555378 85.4463277,29.7570621 C84.5377572,26.6186521 81.4096927,24.6697022 78.1920904,25.2372881 C68.1129944,27 54.7231638,26.2655367 55.5028249,18.2655367 C52.0734463,26.5536723 50.2372881,27.9661017 50.2372881,27.9661017 C44.480226,14.559322 48.700565,5.46892655 55.8870056,6.81355932 C64.1073446,-6.98870056 90.2033898,5.11864407 92.6836158,13.8926554 C94.0056497,18.5536723 94.5367232,22.7514124 94.3333333,25.740113 Z" fill="#1D2A38" fill-rule="nonzero"></path>
                    <path d="M88.3559322,32.7118644 C88.3559322,32.7118644 88.559322,26.1242938 93.7344633,28.4011299 C97.8022599,30.1864407 94.0621469,43.2259887 88.5988701,39.6497175" stroke="#1D2A38" stroke-width="1.5" fill="#FAF5EA" fill-rule="nonzero" stroke-linecap="round" stroke-linejoin="round"></path>
                    <g transform="translate(0.000000, 60.000000)">
                        <path d="M68.6053952,105 L38,104.113139 C38,104.113139 38.5750732,96.7281022 38.8741113,96.7281022 C39.1731493,96.7281022 70.6641573,99.1149635 70.968946,99.0437956 C71.2737348,98.9726277 93,96 93,96 L93,104.425182 L68.6053952,105 Z" fill-opacity="0.9" fill="#1D2A38" fill-rule="nonzero"></path>
                        <polygon stroke="#1D2A38" stroke-width="1.5" fill="#FAF5EA" fill-rule="nonzero" stroke-linecap="round" stroke-linejoin="round" points="77 106.824418 61 107 61 98 77 98"></polygon>
                        <polygon stroke="#1D2A38" stroke-width="1.5" fill="#FAF5EA" fill-rule="nonzero" stroke-linecap="round" stroke-linejoin="round" points="74 103.877313 65 104 65 98 74 98"></polygon>
                        <polygon fill="#6445FF" fill-rule="nonzero" points="97.9391777 93.419466 78.3320591 100 40 94.2291128 41.5139314 21.6480046 56.5052667 7.97588286 71.5762827 0 87.3188923 5.86276199 107 44.1228826"></polygon>
                        <path d="M41,89 L62.0167564,100.725823 C62.6838185,101.091392 63.4843443,101.091392 64.1514063,100.725823 L70,97.5581272" stroke="#2E4257" stroke-width="1.27" fill="#FAF5EA" fill-rule="nonzero" stroke-linecap="round" stroke-linejoin="round"></path>
                        <path d="M91.196909,35.9396315 L91.196909,30.0070024 L96,35.543723 L89.8848733,43 L88.4745794,41.6923022 C86.3071195,39.6647707 83.908464,38.2910881 80.8682403,38.2430992 C77.0419512,38.1771145 73.215662,37.9491671 69.383593,37.781206 C67.0840863,37.6817019 64.8190032,37.1660693 62.690477,36.257558 C61.4593598,35.7356786 60.205123,35.1058242 60.0201664,33.5641804 C59.82943,31.9205602 61.0258678,31.0027723 62.1645067,30.2229525 C64.50415,28.6763412 67.2415204,27.9043874 70.0136013,28.009464 C72.6145532,28.009464 75.1692658,28.3633822 77.4523235,29.8090482 C79.3279073,31.0673656 80.7298059,32.9564694 81.42311,35.1598117 C81.5330949,35.6840557 82.0156771,36.0301887 82.5270696,35.9516287 C85.1338013,35.9156371 87.7289732,35.9516287 90.3588245,35.9516287 C90.6131398,35.9756232 90.8616752,35.9576273 91.196909,35.9396315 Z" fill="#FDFE00" fill-rule="nonzero"></path>
                        <path d="M56,45.0146425 C56.8061774,45.0146425 57.4408277,44.9816969 58.0697605,45.0146425 C64.6792718,45.5033364 71.2887832,45.9645756 77.8868594,46.5411245 C79.2748562,46.692888 80.6271847,47.0639526 81.8891587,47.639313 C83.3242688,48.2707714 83.375727,49.363469 82.0035101,50.121219 C80.7589874,50.7830974 79.4285264,51.2834783 78.0469514,51.6092644 C76.8076656,51.8461904 75.5482949,51.9730175 74.2847901,51.9881395 C73.0443549,52.0677568 71.8120363,51.7448156 70.785637,51.0711521 C67.7553247,49.1328494 64.3819582,48.8253566 60.8942402,49.3305233 C60.2729592,49.4994517 59.6077243,49.2806616 59.2247097,48.7814291 C58.4585553,47.8589507 57.6009197,46.9968727 56.8004599,46.0908672 C56.5374516,45.7723926 56.3201839,45.442936 56,45.0146425 Z" fill="#FDFE00" fill-rule="nonzero"></path>
                        <path d="M67.1006055,56 C70.9285532,57.1202412 75.0024717,57.1336224 78.8379134,56.0385523 L79,56.2753737 L73.1481136,63 C71.029809,60.6813533 69.0009315,58.472856 67,56.2643588 L67.1006055,56 Z" fill="#FDFE00" fill-rule="nonzero"></path>
                        <path d="M51.1778778,39.9882494 C50.1261803,38.6839291 49.0577892,37.3913594 48.0450435,36.0576625 C47.9337528,35.9166549 48.0450435,35.4701308 48.2008506,35.2409935 C49.4306132,33.5900295 50.6937631,31.9625667 51.9513484,30.335104 C52.1572363,30.0648394 52.3742532,29.8063255 52.5968347,29.5536869 C53.0586913,29.036659 53.4815961,28.1788627 54.0102271,28.0966083 C55.3378639,27.947419 56.677835,27.9710978 58,28.1671121 C54.1048242,31.1047705 50.8440056,34.3126934 51.4338465,40 L51.1778778,39.9882494 Z" fill="#FDFE00" fill-rule="nonzero"></path>
                        <polygon fill="#FDFE00" fill-rule="nonzero" points="81 28 85.8580645 28 86 28.2575107 83.6580645 31"></polygon>
                        <path d="M72.6357913,68 L71.1785686,66.3436238 C63.552054,57.7083062 55.9293641,49.0710781 48.310499,40.4319396 C46.9852296,38.9360427 45.7058569,37.4000261 44.3920616,35.8926664 C44.1437833,35.6879767 44,35.3831989 44,35.0616126 C44,34.7400263 44.1437833,34.4352485 44.3920616,34.2305588 C47.2606102,30.9923147 50.0316282,27.7082194 52.8714913,24.4871695 C53.1435173,24.1961803 53.5176816,24.0216066 53.915643,24 C65.9214752,24 77.9292197,24.0382094 89.9388765,24.1146281 C90.2934109,24.1178564 90.6359342,24.2433912 90.908446,24.4699753 C94.2321376,27.7139508 97.5405304,30.977031 100.833624,34.2592158 C100.898562,34.3489238 100.954301,34.4449306 101,34.5457861 L72.6357913,68 Z M91.7460622,35.3883027 C91.4133105,35.3883027 91.1723524,35.4226912 90.9199202,35.4226912 C88.3267522,35.4226912 85.7565327,35.3883027 83.1461534,35.4226912 C82.6385474,35.4977516 82.1595384,35.1670372 82.0503678,34.6661456 C81.3621971,32.5609513 79.9706785,30.7559976 78.108982,29.5537319 C75.8428286,28.1495376 73.3070317,27.8343103 70.7253379,27.8343103 C67.9737822,27.7339143 65.2566798,28.4714814 62.9343599,29.9491989 C61.7869404,30.6942816 60.639521,31.5711867 60.8058968,33.1415918 C60.9894839,34.614563 62.234434,35.2163606 63.4564357,35.7149928 C65.5742227,36.5764777 67.8264817,37.0613968 70.1114685,37.1478442 C73.915164,37.3083236 77.7131223,37.526117 81.5110807,37.5891624 C84.5287938,37.6350137 86.9096892,38.9475055 89.0611007,40.8847206 L90.4552153,42.134167 L96.5422755,35.01003 L91.7747477,29.7199427 L91.7460622,35.3883027 Z M56.5948674,44.9310929 C56.9161449,45.3781425 57.1341546,45.7220268 57.398061,46.0257913 C58.2012546,46.9714732 59.0618192,47.8713039 59.8305903,48.83418 C60.2149129,49.3552753 60.8824198,49.5836468 61.5058227,49.4073206 C65.005452,48.8800313 68.3903393,49.20099 71.4080525,51.2241761 C72.4379571,51.9273412 73.6744845,52.2644248 74.919156,52.1813208 C76.186976,52.1655367 77.4506477,52.0331554 78.694166,51.7858538 C80.0849778,51.4563148 81.4258017,50.9436452 82.6814485,50.2613 C84.0583519,49.470366 84.006718,48.3298163 82.5667066,47.6707047 C81.3004227,47.0701477 79.9434757,46.6828332 78.5507385,46.5244236 C71.9301283,45.9512831 65.2980439,45.441188 58.6659595,44.9310929 C58.0635643,44.8967044 57.4037981,44.9310929 56.5948674,44.9310929 Z M66.4626747,55.9124658 L66.3479327,56.1875733 C68.4247619,58.4801355 70.5073282,60.7726977 72.6587397,63.1970822 L78.7171144,56.1990361 L78.5507385,55.9525856 C74.6012574,57.1000433 70.4044368,57.0861142 66.4626747,55.9124658 L66.4626747,55.9124658 Z M51.4142686,39.1538361 L51.6781751,39.1538361 C51.0700428,33.611567 54.4032963,30.459294 58.4479498,27.6222483 C57.0847836,27.4310352 55.7032589,27.4079363 54.3344511,27.5534714 C53.7607414,27.6337111 53.3534075,28.4704963 52.8772284,28.97486 C52.6477445,29.2213104 52.4239977,29.4734922 52.2117251,29.7371369 C50.9151412,31.3247362 49.6128201,32.9123355 48.3449216,34.5228605 C48.19002,34.7234597 48.0695409,35.1819721 48.1842829,35.3195259 C49.2284346,36.6205549 50.3299572,37.8814641 51.4142686,39.1538361 Z M81.470921,27.6910251 L83.8346051,30.3790543 L85.9171714,27.9374756 L85.7909552,27.7082194 L81.470921,27.6910251 Z" stroke="#1D2A38" fill="#FF0103" fill-rule="nonzero" stroke-linecap="round" stroke-linejoin="round"></path>
                        <path d="M40,123.950439 L40,129 L56.5556298,127.877875 C57.5585046,127.799893 58.4871033,127.328055 59.1316627,126.568947 C59.776222,125.809838 60.0823637,124.827501 59.9809325,123.843838 L56.7896921,99 L40,123.950439 Z" fill-opacity="0.9" fill="#1D2A38" fill-rule="nonzero"></path>
                        <path d="M54.9301241,11.0781425 L56,7 L31.5711669,10.848064 C31.5711669,10.848064 28.4535715,9.69767116 25.9802025,14.1784512 C23.5068335,18.6592312 17.4384514,27.4022166 13.8376862,29.4326599 C10.2369211,31.4631033 12.4917133,33.9306958 9.81127156,36.1797138 C7.13082979,38.4287318 0.79785469,45.8890292 0.124868236,48.6787318 C-0.548118218,51.4684343 1.47084114,66.4062851 6.87198884,68.494248 C12.2731365,70.582211 31.3468381,70.4901796 31.3468381,70.4901796 L30.9729567,80.3720539 L28.0969462,130 L51.6802322,126.75014 C53.8322462,126.452449 55.4044479,124.566324 55.3097575,122.395903 L52.0080974,88.5686027 L33.6764066,50.0707071 L54.9301241,11.0781425" stroke="#1D2A38" stroke-width="1.5" fill="#FFD700" fill-rule="nonzero" stroke-linecap="round" stroke-linejoin="round"></path>
                        <polygon stroke="#1D2A38" stroke-width="1.5" fill="#FFD700" fill-rule="nonzero" stroke-linecap="round" stroke-linejoin="round" points="51.7876049 8.85609533 38.7320852 25.2982444 42.5029051 31.0949729 35.5945771 32.4028062 29 46.9603046 51.9677211 88 38.9412524 46.9603046 54.9425436 11.0605655 56 7"></polygon>
                        <path d="M84.8978273,103 L84.0031462,123.199329 C83.9673307,123.970216 84.2384668,124.723788 84.7568946,125.294231 C85.2753224,125.864673 85.9985647,126.205248 86.7674813,126.241016 L102,127 L102,101 L84.8978273,103 Z" fill-opacity="0.9" fill="#1D2A38" fill-rule="nonzero"></path>
                        <path d="M113.801485,84.4368969 L115.04318,127 L91.5367952,123.663973 C89.4764629,123.342693 87.9673249,121.543447 88,119.447925 L91.0561388,94.3356943 L105.292723,67.1815848 L105.04095,44.9739982 L89.1792902,11.7862813 L88.4182509,6 L115.254898,12.3269478 C118.086771,12.3361917 120.67747,13.9310565 121.972643,16.4624709 C124.44459,20.874079 131.854709,32.4236345 139.81415,37.680753 C147.77359,42.9378714 152.294049,63.3796644 135.968899,66.5086277 C130.401296,67.5727052 124.576198,71.0180159 120.061462,72.444455 C117.885345,73.1647705 115.56574,73.3327271 113.309384,72.9333555 L113.801485,84.4368969 Z" stroke="#1D2A38" stroke-width="1.5" fill="#FFD700" fill-rule="nonzero" stroke-linecap="round" stroke-linejoin="round"></path>
                        <polygon stroke="#1D2A38" stroke-width="1.5" fill="#FFD700" fill-rule="nonzero" stroke-linecap="round" stroke-linejoin="round" points="88 6 88.7790534 11.7642922 100.576148 45.5421279 103.422915 65.8775882 90.700328 94 109.68463 65.5108738 113 42.3734861 109.046157 34.6151843 101.888238 33.3431436 105.420337 27.802318 92.7621837 7.38090897"></polygon>
                        <path d="M33,110 L49,107" stroke="#1D2A38" stroke-width="2" stroke-linecap="round" stroke-linejoin="round"></path>
                        <path d="M94,107 L111,110" stroke="#1D2A38" stroke-width="2" stroke-linecap="round" stroke-linejoin="round"></path>
                        <path d="M113,47 L125.264164,47.439005 C125.264164,47.439005 137.889882,63.6988621 128.569806,68" stroke="#1D2A38" stroke-width="1.5" stroke-linecap="round" stroke-linejoin="round"></path>
                        <path d="M126,47 C126,47 138.624514,48.1726384 141,56" stroke="#1D2A38" stroke-width="1.5" stroke-linecap="round" stroke-linejoin="round"></path>
                        <path d="M126,48 C124.517045,31.1122062 111,18 111,18" stroke="#1D2A38" stroke-width="1.5" fill="#FFD700" fill-rule="nonzero" stroke-linecap="round" stroke-linejoin="round"></path>
                        <path d="M130,34 C127.625083,38.2624845 126.622308,43.1500543 127.127641,48" stroke="#1D2A38" stroke-width="1.5" fill="#FFD700" fill-rule="nonzero" stroke-linecap="round" stroke-linejoin="round"></path>
                        <path d="M109,67.9722414 C109,67.9722414 109.86461,74.534598 116.074616,73.964949 C122.284621,73.3953 124.971923,61.6491373 121.402485,53.7139266 C117.833046,45.7787158 109,67.9722414 109,67.9722414 Z" fill="#1D2A38" fill-rule="nonzero"></path>
                        <path d="M119.429654,61.0599009 C119.429654,61.0599009 115.603261,69.7837144 109.31497,64.0455607 C109.31497,64.0455607 101.842181,65.0009718 101.255738,63.8920125 C100.669296,62.7830531 96.1229135,48.5713125 97.1506397,46.8310994 C98.178366,45.0908863 109.924638,39.2219322 111.219457,40.0863518 C112.514276,40.9507714 116.793566,41.8663737 120.457381,51.1361365 C121.60704,54.0649265 120.770924,58.8533561 119.429654,61.0599009 Z" stroke="#1D2A38" stroke-width="1.5" fill="#FAF5EA" fill-rule="nonzero" stroke-linecap="round" stroke-linejoin="round"></path>
                        <path d="M98,52 C98,52 104.590838,47.3757225 109,46" stroke="#1D2A38" stroke-width="1.36" fill="#FFD700" fill-rule="nonzero" stroke-linecap="round" stroke-linejoin="round"></path>
                        <path d="M99,56 C99,56 105.590838,51.3757225 110,50" stroke="#1D2A38" stroke-width="1.36" fill="#FFD700" fill-rule="nonzero" stroke-linecap="round" stroke-linejoin="round"></path>
                        <path d="M101,61 C101,61 107.590838,56.3757225 112,55" stroke="#1D2A38" stroke-width="1.36" fill="#FFD700" fill-rule="nonzero" stroke-linecap="round" stroke-linejoin="round"></path>
                        <path d="M39,65.0005207 C39,65.0005207 38.1470634,71.5686682 31.9311421,70.9601905 C25.7152208,70.3517128 23.0278864,58.6825884 26.5973675,50.7211974 C30.1668486,42.7598065 39,65.0005207 39,65.0005207 Z" fill="#1D2A38" fill-rule="nonzero"></path>
                        <path d="M27.3560978,59.0599009 C27.3560978,59.0599009 31.2190122,67.7837144 37.5673221,62.0455607 C37.5673221,62.0455607 45.1172973,63.0009718 45.7093373,61.8920125 C46.3013772,60.7830531 50.8852908,46.5713125 49.8477554,44.8310994 C48.8102199,43.0908863 36.951835,37.2219322 35.6446576,38.0863518 C34.3374802,38.9507714 27.4381628,43.7733228 26.3185624,49.1361365 C25.6737664,52.2127878 26.0020262,56.8533561 27.3560978,59.0599009 Z" stroke="#1D2A38" stroke-width="1.5" fill="#FAF5EA" fill-rule="nonzero" stroke-linecap="round" stroke-linejoin="round"></path>
                        <path d="M49,49 C49,49 42.4091619,44.3757225 38,43" stroke="#1D2A38" stroke-width="1.36" fill="#FFD700" fill-rule="nonzero" stroke-linecap="round" stroke-linejoin="round"></path>
                        <path d="M48,54 C48,54 41.4091619,49.3757225 37,48" stroke="#1D2A38" stroke-width="1.36" fill="#FFD700" fill-rule="nonzero" stroke-linecap="round" stroke-linejoin="round"></path>
                        <path d="M46,59 C46,59 39.4091619,54.3757225 35,53" stroke="#1D2A38" stroke-width="1.36" fill="#FFD700" fill-rule="nonzero" stroke-linecap="round" stroke-linejoin="round"></path>
                        <path d="M103,66.9592757 L104.359477,63.166414 C104.359477,63.166414 110.854757,60.3622402 111,63.4497222 L108.129993,68" stroke="#1D2A38" stroke-width="1.5" fill="#FFD700" fill-rule="nonzero" stroke-linecap="round" stroke-linejoin="round"></path>
                        <path d="M37.9394183,63.4919236 L37.1617084,62.0254302 C36.9132386,61.5536653 36.9537107,60.9743698 37.2651475,60.5448606 C37.5765843,60.1153513 38.1012238,59.9152892 38.6060267,60.0335396 L43.3000611,61.1824852 L44,64" stroke="#1D2A38" stroke-width="1.5" fill="#FFD700" fill-rule="nonzero" stroke-linecap="round" stroke-linejoin="round"></path>
                        <polygon stroke="#1D2A38" stroke-width="1.5" fill="#FAF5EA" fill-rule="nonzero" stroke-linecap="round" stroke-linejoin="round" points="70 99.0528993 63.0751729 103 52.9489181 97.2275832 52.1775597 89.2694376 44 63"></polygon>
                        <polyline stroke="#1D2A38" stroke-width="1.5" fill="#FAF5EA" fill-rule="nonzero" stroke-linecap="round" stroke-linejoin="round" points="71 5 42 41 54.6676617 11.9363607"></polyline>
                        <polyline stroke="#1D2A38" stroke-width="1.5" fill="#FAF5EA" fill-rule="nonzero" stroke-linecap="round" stroke-linejoin="round" points="72 4 100 45 87.8412763 5.62209302"></polyline>
                        <polygon stroke="#1D2A38" stroke-width="1.5" fill="#FAF5EA" fill-rule="nonzero" stroke-linecap="round" stroke-linejoin="round" points="66.416826 12.295393 71.7399618 3.03568202 76.2256214 13 89 11.8315266 87.5544933 0.622402891 58.8107075 0 56 11.2091238"></polygon>
                        <polygon stroke="#1D2A38" stroke-width="1.5" fill="#FAF5EA" fill-rule="nonzero" stroke-linecap="round" stroke-linejoin="round" points="103 65 70 98.2123042 78.3474635 100 89.945622 96.1561684 90.180681 94.2313969"></polygon>
                        <path d="M66,13.1856108 L69.9005692,16.63968 C69.9005692,16.63968 77.7483513,45.4663051 106.690692,11.2809217 C106.98256,10.9376894 107.075632,10.4679117 106.936643,10.0394859 C106.797654,9.6110601 106.446442,9.28513352 106.008529,9.1781915 L97.2162148,7.01721394 C96.0374351,6.73044341 94.8029451,7.19234642 94.102756,8.18216141 C89.9223252,14.0068988 75.684373,32.5703367 75.9642344,13.9020535 L71.4048246,4 L66,13.1856108 Z" fill="#1D2A38" fill-rule="nonzero"></path>
                    </g>
                </g>
            </g>
        </g>
    </g>
</svg>