<?xml version="1.0" encoding="UTF-8"?>
<svg width="241px" height="191px" viewBox="0 0 241 191" version="1.1" xmlns="http://www.w3.org/2000/svg" xmlns:xlink="http://www.w3.org/1999/xlink">
    <!-- Generator: Sketch 55.2 (78181) - https://sketchapp.com -->
    <title>s1-c</title>
    <desc>Created with Sketch.</desc>
    <g id="illustration" stroke="none" stroke-width="1" fill="none" fill-rule="evenodd">
        <g id="S1" transform="translate(-1061.000000, -486.000000)">
            <g id="s1-c" transform="translate(1062.000000, 487.000000)">
                <path d="M130,188 L106,188 L106,184.437599 C106.000794,184.186898 106.017278,183.936463 106.049364,183.687619 L106.722513,178.518728 C106.743802,178.315118 106.819491,178.12004 106.942408,177.951983 C107.187898,177.577166 107.613285,177.342474 108.077786,177.32558 L115.827973,177.001725 C116.270916,176.980335 116.698478,177.158845 116.981301,177.483246 C116.995576,177.493899 117.007734,177.506887 117.017203,177.521597 L119.359761,180.359587 C120.069202,181.217928 121.096069,181.787728 122.231862,181.953292 L125.82199,182.460381 C127.718894,182.728942 129.22641,184.112456 129.573672,185.903467 L130,188 Z" id="Path" stroke="#1D2A38" stroke-width="2" fill="#D5B199" fill-rule="nonzero" stroke-linecap="round" stroke-linejoin="round"></path>
                <path d="M130,188.007501 C130,188.555643 129.602496,189 129.112276,189 L105.900942,189 C105.773425,188.99946 105.647607,188.967255 105.532579,188.905713 C105.208074,188.747356 104.998772,188.388508 105,187.992613 C105,187.444471 105.397408,187.000114 105.887628,187.000114 L129.098961,187.000114 C129.338999,186.996056 129.57027,187.100888 129.740021,187.290697 C129.909773,187.480505 130.003527,187.739102 130,188.007501 Z" id="Path" stroke="#1D2A38" stroke-width="1.5" stroke-linecap="round" stroke-linejoin="round" fill-rule="nonzero"></path>
                <path d="M117,187.958333 C117,188.53363 116.618817,189 116.148622,189 L105.510824,189 C105.199575,188.833799 104.998823,188.457173 105,188.041667 C105,187.46637 105.381174,187 105.85137,187 L116.493424,187 C116.803008,187.167776 117.001908,187.544063 117,187.958333 Z" id="Path" stroke="#1D2A38" stroke-width="1.5" stroke-linecap="round" stroke-linejoin="round" fill-rule="nonzero"></path>
                <path d="M115,177.387679 L115,178.898825 C114.987876,180.062695 114.00165,181.000055 112.78929,181 L109.185833,181 C108.110226,181.001867 107.193992,180.250214 107.02818,179.229918 C107.012809,179.154339 107.003936,179.077675 107.001651,179.0007 C106.99945,178.966774 106.99945,178.93275 107.001651,178.898825 L107.001651,177.765465 C107.195051,177.470757 107.523883,177.282917 107.885935,177.260335 L114.075923,177.001403 C114.429959,176.984133 114.771975,177.1271 115,177.387679 Z" id="Path" fill="#826C5D" fill-rule="nonzero"></path>
                <path d="M116,168.373105 L116,177.626888 C116,178.257041 115.738827,178.86132 115.274069,179.306491 C114.809312,179.751661 114.179133,180.001166 113.522478,180 L109.470031,180 C108.255381,180.002903 107.220474,179.154324 107.033958,178.002519 C107.033958,177.914135 107.010933,177.825751 107.001723,177.737367 C106.999426,177.700574 106.999426,177.663681 107.001723,177.626888 L107.001723,168.373105 C107.001723,167.062475 108.108884,166 109.474636,166 L113.550108,166 C113.777349,166.000224 114.003514,166.029955 114.222446,166.088384 C115.27789,166.386693 116.001875,167.317244 116,168.373105 L116,168.373105 Z" id="Path" stroke="#1D2A38" stroke-width="2" fill="#FAF5EA" fill-rule="nonzero" stroke-linecap="round" stroke-linejoin="round"></path>
                <path d="M115,167.835294 L115,175.549827 C115,177.455305 113.563508,179 111.79151,179 L110.088963,179 C109.336461,178.99872 108.608189,178.713801 108.030847,178.19481 C108.030847,178.104844 108.009931,178.014879 108.001565,177.924913 C107.999478,177.887461 107.999478,177.849909 108.001565,177.812457 L108.001565,168.415571 C108.001565,167.081488 109.007294,166 110.247923,166 L113.950022,166 C114.156445,166.000228 114.361889,166.030491 114.560764,166.089965 C114.849234,166.61924 115.00088,167.221817 115,167.835294 L115,167.835294 Z" id="Path" fill="#2E4257" fill-rule="nonzero"></path>
                <path d="M69.2863288,178.518428 L69.9506265,183.687483 C69.982854,183.93775 69.9993411,184.189618 70,184.441747 L70,188 L46,188 L46.4129418,185.899139 C46.7625436,184.108422 48.272159,182.726563 50.1698148,182.460205 L53.7606134,181.948839 C54.898795,181.788704 55.9287374,181.219703 56.6377408,180.359345 L58.9762484,177.521265 C59.2625651,177.175229 59.7071672,176.981632 60.1701889,177.001377 L67.9218253,177.325241 C68.6232397,177.351644 69.2010596,177.856917 69.2863288,178.518428 L69.2863288,178.518428 Z" id="Path" stroke="#1D2A38" stroke-width="2" fill="#D5B199" fill-rule="nonzero" stroke-linecap="round" stroke-linejoin="round"></path>
                <path d="M46,188.007501 C46,188.555643 46.3975742,189 46.8878815,189 L70.0988889,189 C70.227828,188.999215 70.3550668,188.96704 70.4717565,188.905713 C70.7945821,188.745856 71.0019897,188.38733 71,187.992613 C71,187.444471 70.602513,187.000114 70.1122056,187.000114 L46.9011982,187.000114 C46.6611184,186.996056 46.4298063,187.100888 46.2600249,187.290697 C46.0902434,187.480505 45.9964725,187.739102 46,188.007501 L46,188.007501 Z" id="Path" stroke="#1D2A38" stroke-width="1.5" stroke-linecap="round" stroke-linejoin="round" fill-rule="nonzero"></path>
                <path d="M59,187.958333 C59,188.53363 59.3811823,189 59.8513776,189 L70.4934247,189 C70.8030082,188.832224 71.0019081,188.455937 71,188.041667 C71,187.46637 70.6188177,187 70.1486224,187 L59.5065753,187 C59.1969918,187.167776 58.9980919,187.544063 59,187.958333 Z" id="Path" stroke="#1D2A38" stroke-width="1.5" stroke-linecap="round" stroke-linejoin="round" fill-rule="nonzero"></path>
                <path d="M69.982168,170.93692 L69.0158028,179.896533 C69.0135814,179.932451 69.0135814,179.968458 69.0158028,180.004376 C69.0030319,180.092364 68.9813576,180.179025 68.9510702,180.2632 C68.6486438,181.367804 67.5269808,182.100871 66.3109052,181.988691 L62.2373757,181.600456 C61.5804501,181.540583 60.9762638,181.238702 60.5587662,180.761742 C60.1412685,180.284782 59.9449551,179.672151 60.0133488,179.05967 L60.0919527,178.322022 L60.9797139,170.082802 C61.0225775,169.672917 61.1822241,169.281199 61.4420896,168.948291 C61.9663623,168.284 62.8281301,167.92795 63.7077303,168.012212 L67.7720123,168.396134 C68.7921099,168.488372 69.6445472,169.15998 69.9128116,170.082802 C69.9969037,170.360319 70.0204875,170.650751 69.982168,170.93692 L69.982168,170.93692 Z" id="Path" fill="#826C5D" fill-rule="nonzero"></path>
                <path d="M68.9811585,170.0076 L68.2373881,177.810346 C68.2353226,177.848031 68.2353226,177.88581 68.2373881,177.923495 C68.2255135,178.015811 68.2053603,178.106736 68.1771986,178.195052 C68.1602585,178.26888 68.1387156,178.341452 68.1127099,178.412298 C67.7521849,179.451316 66.7676157,180.100052 65.7223263,179.98733 L61.9346863,179.579994 C61.8401027,179.579994 61.74122,179.552839 61.6423372,179.534735 C60.5732488,179.230216 59.8802356,178.143602 60.0172203,176.986622 L60.76529,169.183876 C60.8051453,168.753825 60.9535876,168.342835 61.1952151,167.99355 C61.6860215,167.300955 62.4848227,166.928546 63.3018481,167.011417 L67.0808896,167.414227 C67.1763982,167.42198 67.2712369,167.437107 67.3646402,167.459487 C68.4337754,167.762582 69.1247994,168.851841 68.9811585,170.0076 L68.9811585,170.0076 Z" id="Path" stroke="#1D2A38" stroke-width="2" fill="#FAF5EA" fill-rule="nonzero" stroke-linecap="round" stroke-linejoin="round"></path>
                <rect id="Rectangle" stroke="#1D2A38" stroke-width="1.5" fill="#FFD701" fill-rule="nonzero" stroke-linecap="round" stroke-linejoin="round" x="32" y="0" width="120" height="74" rx="5"></rect>
                <rect id="Rectangle" stroke="#1D2A38" stroke-width="1.5" fill="#FFFFFF" fill-rule="nonzero" stroke-linecap="round" stroke-linejoin="round" x="37" y="5" width="110" height="64" rx="2"></rect>
                <path d="M101.408462,119.11585 L105,117.47201 L93.8297463,98.6120355 L81.002198,93 L74.5312758,99.0229955 L69.4494917,106.641223 L59.1408554,122.107463 C57.762427,124.132526 57.0169625,126.525217 57,128.978892 L57,170.918914 C57,174.281717 60.4069054,177 64.6138841,177 C66.3730155,177.020663 68.0983177,176.512839 69.5681839,175.541111 C70.877405,174.70581 71.8025648,173.381578 72.139848,171.860146 L81.002198,135.982889 L101.408462,119.11585 Z" id="Path" stroke="#1D2A38" stroke-width="1.5" fill="#617181" fill-rule="nonzero" stroke-linecap="round" stroke-linejoin="round"></path>
                <path d="M102,123.166282 L94.9733649,126.671817 L80.9908474,136.049124 L75.9895105,156 L77.4134101,138.152445 C77.4320209,137.893576 77.5605954,137.654686 77.767174,137.495157 L77.767174,137.495157 C77.9995271,137.313921 78.1314306,137.034273 78.1227116,136.741383 C78.1139927,136.448493 77.9656836,136.177036 77.7229535,136.009686 L72.2573015,132.193035 C71.0126697,131.328296 70.0908924,130.080634 69.6350267,128.643681 L69.6350267,128.643681 C68.9453625,126.495354 67.2396909,124.816615 65.0670506,124.147832 L59,122.289899 L66.3936652,112.145756 L98.4800494,99 L102,123.166282 Z" id="Path" fill="#1D2A38" fill-rule="nonzero"></path>
                <polygon id="Path" fill="#334258" fill-rule="nonzero" points="78.079322 133 77.920678 132.00722 77.9383051 132"></polygon>
                <path d="M120.61258,125.323642 L120.460998,133.397345 L120.383041,135.220439 L117.693544,172.596079 C117.597944,174.123828 116.838975,175.528566 115.623368,176.427666 C114.23893,177.472602 112.555898,178.024764 110.833378,177.999147 C107.420618,177.999147 104.531899,175.968582 104.051168,173.231734 L100.304928,151.871073 L97.5158196,135.979694 C97.4725105,135.754566 97.446525,135.538267 97.4248704,135.308725 C97.3111912,134.937831 97.2257629,134.558549 97.1693466,134.174257 C97.1693466,134.068315 97.1433611,133.971201 97.1303683,133.869672 L96.7665716,130.417712 L96,123.209206 L104.562215,113.970135 L111.010945,107 C113.480632,107.244106 115.826958,108.216654 117.762839,109.798648 L118.369167,110.341604 C120.091403,111.950505 121.049459,114.238112 120.998031,116.618698 L120.61258,125.323642 Z" id="Path" stroke="#1D2A38" stroke-width="1.5" fill="#617181" fill-rule="nonzero" stroke-linecap="round" stroke-linejoin="round"></path>
                <path d="M120.996995,116.939927 L120.524352,130.823408 L117.723186,131.39565 C111.32146,132.698915 106.042257,137.276794 103.773727,143.491973 L100.304791,153 L97.5122978,136.748317 C97.4689361,136.51942 97.442919,136.308131 97.4212382,136.061626 C97.3078507,135.681196 97.2223394,135.292772 97.1654041,134.899534 L97.1263786,134.587002 L96.7621403,131.06551 L94,120.412998 L97.5860126,102 L117.779557,109.958571 L118.38662,110.517607 C120.112181,112.187365 121.060597,114.520757 120.996995,116.939927 L120.996995,116.939927 Z" id="Path" fill="#1D2A38" fill-rule="nonzero"></path>
                <path d="M75,130 L75,189" id="Path" stroke="#1D2A38" stroke-width="1.5" fill="#8EBF97" fill-rule="nonzero" stroke-linecap="round" stroke-linejoin="round"></path>
                <path d="M116,129 L116,189" id="Path" stroke="#1D2A38" stroke-width="1.5" fill="#8EBF97" fill-rule="nonzero" stroke-linecap="round" stroke-linejoin="round"></path>
                <rect id="Rectangle" stroke="#1D2A38" fill="#FFD701" fill-rule="nonzero" stroke-linecap="round" stroke-linejoin="round" x="72" y="126" width="46" height="4"></rect>
                <path d="M31,99 L31,189" id="Path" stroke="#1D2A38" stroke-width="1.5" fill="#FFD701" fill-rule="nonzero" stroke-linecap="round" stroke-linejoin="round"></path>
                <path d="M163,99 L163,189" id="Path" stroke="#1D2A38" stroke-width="1.5" fill="#FFD701" fill-rule="nonzero" stroke-linecap="round" stroke-linejoin="round"></path>
                <rect id="Rectangle" stroke="#1D2A38" stroke-width="1.5" fill="#FFD701" fill-rule="nonzero" stroke-linecap="round" stroke-linejoin="round" x="4" y="87" width="183" height="8"></rect>
                <rect id="Rectangle" stroke="#1D2A38" stroke-width="1.5" fill="#FFD701" fill-rule="nonzero" stroke-linecap="round" stroke-linejoin="round" x="15" y="95" width="161" height="4"></rect>
                <g id="Group" transform="translate(0.000000, 151.000000)" stroke="#1D2A38" stroke-linecap="round" stroke-linejoin="round">
                    <path d="M62.3977931,11.2728 L62.2168276,11.528 L62.2168276,11.528 C57.2954483,18.3524 51.8664828,21.9164 47.1393103,17.7452 C44.9544828,15.8224 43.1933793,11.5016 46.1594483,6.93 C47.1413296,5.47682681 48.3619263,4.19905665 49.769931,3.1504 C59.9702069,-4.7168 67.3721379,4.2812 62.3977931,11.2728 Z" id="Path" stroke-width="1.5" fill="#FFD701" fill-rule="nonzero"></path>
                    <path d="M62.4198621,2.2792 C55.657931,5.0864 47.4350345,18.0048 47.4350345,18.0048 C44.7867586,22.572 39.6402759,29.3084 37.7953103,37.8048" id="Path" stroke-width="1.28"></path>
                    <path d="M56.8408276,0.1144 L56.1831724,6.9344" id="Path" fill="#FFD701" fill-rule="nonzero"></path>
                    <path d="M49.7478621,14.6432 L57.6088276,16.7332" id="Path" fill="#FFD701" fill-rule="nonzero"></path>
                    <path d="M50.710069,13.3452 L48.7062069,4.0304" id="Path" fill="#FFD701" fill-rule="nonzero"></path>
                    <path d="M51.478069,24.4596 C49.4874483,23.1924 47.9823448,23.826 46.1815172,26.6596 C45.1282737,28.3830215 44.1862283,30.1715764 43.3611034,32.0144 C42.5353919,33.7807249 41.9556074,34.0915922 41.5507374,36.1626697 C46.2977448,36.1626697 49.7478621,36.1626697 53.9642336,36.1626697 C54.0684602,35.192851 54.125815,37.144683 54.1351724,36.1626697 C54.166069,31.0322697 52.886069,25.3572 51.478069,24.4596 Z" id="Path" stroke-width="1.5" fill="#FFD701" fill-rule="nonzero"></path>
                    <path d="M46.0418978,37.19177 L49.2491034,23.8744" id="Path"></path>
                    <path d="M13.3309088,37.9263127 C24.1093916,37.8684049 38.2761932,37.9103127 44.2647444,37.8684049 C45.0172304,35.8230788 45.5563563,33.4875516 45.732564,30.8423127 C46.0392407,26.2796623 45.3650846,21.7043261 43.7551847,17.4223127 C41.1069088,10.4043127 36.2208399,5.47191273 31.4848399,5.02311273 C29.348564,4.82071273 26.7135295,5.95591273 24.1093916,8.10311273 C17.700564,13.4271127 11.4815295,24.9331127 13.3309088,37.9263127 Z" id="Path" stroke-width="1.5" fill="#FFD701" fill-rule="nonzero"></path>
                    <path d="M31.3407131,38 L36.9168789,7.77164097" id="Path"></path>
                    <path d="M42,13.4288 L31.9485977,37.736301" id="Path"></path>
                    <path d="M26.9417931,6.5428 L33.046069,28.952" id="Path"></path>
                    <path d="M0.151902184,38.103787 C-0.37895333,31.1446839 0.503252588,25.3670725 2.45909904,21.324145 C4.28199559,17.562145 7.03178869,15.304945 10.4348232,15.005745 C20.4673749,14.724145 26.3244783,24.848545 29.5024094,33.564945 C30.0064413,34.9545133 30.4672189,36.3586052 30.8842038,37.7751942 C21.5664094,37.7751942 8.50820249,38.103787 0.151902184,38.103787 Z" id="Path" stroke-width="1.5" fill="#FFD701" fill-rule="nonzero"></path>
                    <path d="M15.1198745,37.3897123 L9.86224677,14.9987019" id="Path"></path>
                    <path d="M21.8571034,20.2884 L15.9867586,37.8312" id="Path"></path>
                    <path d="M26.368,26.4352 L17.9641379,31.9308" id="Path"></path>
                    <path d="M2.33489655,22.682 L14.5,34.5" id="Path"></path>
                </g>
                <path d="M106.11681,31.1731786 L105.98629,31.2804845 C104.628875,32.405051 102.505738,32.1732701 101.88359,30.8512607 L101.161376,29.3446851 C100.870812,28.6772061 100.977948,27.9059567 101.43982,27.3402098 L101.43982,27.3402098 C101.905311,26.7407357 102.582547,26.3361755 103.33672,26.2070589 L104.172052,26.0525383 C105.686092,25.7735429 107,26.6362828 107,27.9153698 L107,29.4476988 C106.976678,30.1228935 106.653722,30.7538497 106.11681,31.1731786 Z" id="Path" stroke="#1D2A38" stroke-width="2" fill="#FAF5EA" fill-rule="nonzero" stroke-linecap="round" stroke-linejoin="round"></path>
                <path d="M79.3998503,31.7678428 L79.2514385,31.8271493 C77.7062091,32.4117426 75.7244742,31.4458928 75.4014602,29.9462839 L75.0435257,28.2857 C74.8873203,27.6026984 75.1591042,26.8943621 75.7375694,26.4768497 L75.7375694,26.4768497 C76.3330055,26.0620863 77.0802826,25.9084391 77.7978752,26.0532314 L78.6359657,26.2014978 C80.1550048,26.4726135 81.2288083,27.7561771 80.9581749,28.9677255 L80.6307958,30.4249726 C80.4831444,31.0469482 80.01919,31.553088 79.3998503,31.7678428 Z" id="Path" stroke="#1D2A38" stroke-width="1.5" fill="#FAF5EA" fill-rule="nonzero" stroke-linecap="round" stroke-linejoin="round"></path>
                <path d="M105,24.4730654 C105.003704,24.9665887 104.955944,25.4592002 104.857248,25.9431228 L103.031101,34.6934646 C102.978801,34.9596042 102.905839,35.2214209 102.812854,35.4766202 C101.476649,39.2698934 96.5460523,42 90.7870087,42 C85.3085681,42 80.5962184,39.5367788 78.9927724,36.0716434 C78.7444398,35.5430923 78.5706175,34.9837544 78.4761064,34.4090785 L77.0819992,25.6237353 C76.1911958,19.9360131 82.6717902,10 91.0008015,10 C98.8398709,10 105,18.5840853 105,24.4730654 Z" id="Path" stroke="#1D2A38" stroke-width="1.5" fill="#FAF5EA" fill-rule="nonzero" stroke-linecap="round" stroke-linejoin="round"></path>
                <path d="M105,24.6459179 C105.003704,25.1456373 104.955944,25.6444334 104.857248,26.1344315 L104.135697,29.60763 C103.484322,32.7906363 100.375458,34.8566967 97.1696146,34.2370847 C95.6552489,33.9314078 92.9828389,32.9080547 91.2992206,32.9080547 C87.682559,32.9080547 86.3998022,35.5926953 81.2509588,34.8794492 C79.6771456,34.5753899 78.4368424,33.3678832 78.097515,31.8093898 C77.5986651,28.9475451 77.0819992,25.8198944 77.0819992,25.8198944 C76.1911958,20.0607642 82.6717902,10 91.0008015,10 C98.8398709,9.99114657 105,18.6830031 105,24.6459179 Z" id="Path" fill="#1D2A38" fill-rule="nonzero"></path>
                <path d="M88.2101806,88 L130.456485,88 C131.927475,88 133.338153,87.4195321 134.37789,86.3864134 C135.417626,85.3532948 136.00116,83.9522436 136,82.4917701 L136,82.4917701 C136,80.9673776 135.362219,79.5114873 134.23862,78.4726009 C133.115021,77.4337145 131.606998,76.9053459 130.075532,77.0139725 L88.1970443,79.9572018 C88.0870982,79.9661266 88.0018844,80.0563715 88,80.1658798 L88,87.7869745 C88,87.9029482 88.0933962,87.9976332 88.2101806,88 L88.2101806,88 Z" id="Path" stroke="#334258" fill="#FFD700" fill-rule="nonzero" stroke-linecap="round" stroke-linejoin="round"></path>
                <path d="M97.9912568,88 L60.1202186,88 C58.9485474,87.9976058 58,87.0536486 58,85.8900472 L58,85.8900472 C58,83.9774842 58.8004338,82.1509626 60.2098381,80.8476003 C61.6192424,79.544238 63.5107511,78.8813241 65.431694,79.0175054 L98,81.3097998 L97.9912568,88 Z" id="Path" stroke="#334258" fill="#FFD700" fill-rule="nonzero" stroke-linecap="round" stroke-linejoin="round"></path>
                <polygon id="Path" stroke="#1D2A38" stroke-width="1.5" fill="#0AF" fill-rule="nonzero" stroke-linecap="round" stroke-linejoin="round" points="66.3800546 73.5481096 66.5347809 75.2581776 67.8079574 96.6340272 61 119.556871 93.8682876 125 96.2775972 106.087882 99.4738005 124.167003 129 120.072536 120.834872 88.0660578 119.446756 65.7117672 121.5864 52.7672579 119.261084 44.2521771 101.016643 42.0837404 81.5211286 42 64.8106878 46.2222812"></polygon>
                <path d="M103,42.8787699 C95.9105676,42.4297697 87.3135869,42.2232295 80.1142748,43 L80,39.1879877 C85.9291038,36.7139962 95.7127843,36.309896 102.446207,38.1193671 L103,42.8787699 Z" id="Path" stroke="#1D2A38" stroke-width="1.5" fill="#0AF" fill-rule="nonzero" stroke-linecap="round" stroke-linejoin="round"></path>
                <rect id="Rectangle" stroke="#1D2A38" stroke-width="1.5" fill="#FFD701" fill-rule="nonzero" stroke-linecap="round" stroke-linejoin="round" x="147" y="123" width="31" height="66"></rect>
                <rect id="Rectangle" stroke="#1D2A38" stroke-width="1.5" fill="#FFD701" fill-rule="nonzero" stroke-linecap="round" stroke-linejoin="round" x="147" y="123" width="31" height="16"></rect>
                <path d="M69.7932749,45 L62.9994409,46.7231385 L48.4829282,81.8990836 C46.868508,84.7916528 49.5046572,88.0740323 53.3792657,87.998728 L62.3580958,87.8215415 L73,68.4019038" id="Path" stroke="#334258" stroke-width="2" fill="#0AF" fill-rule="nonzero" stroke-linecap="round" stroke-linejoin="round"></path>
                <path d="M57.9926905,85.6084141 C58.0245713,86.3188745 57.9520419,87.0302028 57.7775152,87.7187337 L53.1575756,87.998674 C49.461624,88.0718892 46.9174929,85.1002147 48.4574727,82.2878909 L51.3602293,76 C55.3894916,77.3135663 57.9926905,81.0518466 57.9926905,85.6084141 Z" id="Path" stroke="#1D2A38" stroke-width="1.5" fill="#7F8A5F" fill-rule="nonzero" stroke-linecap="round" stroke-linejoin="round"></path>
                <path d="M116,44 L120.242964,44.5024539 C120.513143,44.5290558 120.76048,44.6644849 120.92717,44.8770905 L137.552482,80.9479889 C138.258487,82.4961165 138.122511,84.2941453 137.191564,85.7204435 C136.260618,87.1467417 134.662468,88.0055575 132.949643,88 L125.134591,87.955898 L116.919679,66.0506726" id="Path" stroke="#1D2A38" stroke-width="2" fill="#0AF" fill-rule="nonzero" stroke-linecap="round" stroke-linejoin="round"></path>
                <path d="M132.663743,87.9998731 L127.263852,87.952798 C127.062091,87.221018 126.975175,86.4634254 127.00609,85.7060315 C127.00609,81.1311868 129.719142,77.2667484 133.965659,76 L136.635022,81.6789699 C137.749077,84.1482733 136.281146,88.0255504 132.663743,87.9998731 Z" id="Path" stroke="#1D2A38" stroke-width="1.5" fill="#7F8A5F" fill-rule="nonzero" stroke-linecap="round" stroke-linejoin="round"></path>
                <path d="M69.7932749,45 L62.9994409,46.7231385 L48.4829282,81.8990836 C46.868508,84.7916528 49.5046572,88.0740323 53.3792657,87.998728 L62.3580958,87.8215415 L73,68.4019038" id="Path" stroke="#1D2A38" stroke-width="1.5" stroke-linecap="round" stroke-linejoin="round"></path>
                <path d="M116,44 L120.242964,44.5024539 C120.513143,44.5290558 120.76048,44.6644849 120.92717,44.8770905 L137.552482,80.9479889 C138.258487,82.4961165 138.122511,84.2941453 137.191564,85.7204435 C136.260618,87.1467417 134.662468,88.0055575 132.949643,88 L125.134591,87.955898 L116.919679,66.0506726" id="Path" stroke="#1D2A38" stroke-width="1.5" stroke-linecap="round" stroke-linejoin="round"></path>
                <path d="M93,46 C93,46 97.8050094,60.4937869 95.2528677,83" id="Path" stroke="#1D2A38" stroke-width="1.5" stroke-linecap="round" stroke-linejoin="round"></path>
                <path d="M82,94.7536393 C88.0652948,97.2526081 104.883491,96.3122745 110,89" id="Path" stroke="#1D2A38" stroke-width="1.5" stroke-linecap="round" stroke-linejoin="round"></path>
                <polygon id="Path" fill="#1D2A38" fill-rule="nonzero" points="67.4256355 90 70 73 62 87.5239787 67.2439156 87.5239787"></polygon>
                <polygon id="Path" stroke="#1D2A38" stroke-width="1.6" fill="#1D2A38" fill-rule="nonzero" stroke-linecap="round" stroke-linejoin="round" points="118 70 125 88 120.519268 87.7881314"></polygon>
                <path d="M216.451877,120.669883 C216.384188,121.278344 213.135086,122.228243 212.981657,122.447113 C212.598082,122.99429 216.081841,123.856641 215.9961,124.53514 C215.91036,125.21364 215.829133,125.905271 215.743393,126.596903 C215.00332,132.532678 214.204582,138.949968 214.168481,144.666872 C213.441946,152.025307 210.535806,154.599227 207.760532,156 C207.760532,156 202.489768,152.830751 203.04031,144.132828 C203.103487,143.147909 203.184715,141.882836 203.288505,140.416402 L203.288505,140.416402 C204.132369,128.978217 206.596271,105.335798 214.299348,106.014297 C217.485272,106.452039 217.336355,112.602307 216.451877,120.669883 Z" id="Path" stroke="#1D2A38" stroke-width="1.5" stroke-linecap="round" stroke-linejoin="round"></path>
                <path d="M207,177 C207,177 207.291545,138.871679 212,116" id="Path" stroke="#1D2A38" stroke-linecap="round" stroke-linejoin="round"></path>
                <path d="M203.134202,168 C201.028555,167.072016 199.285043,165.449422 198.180064,163.389446 C198.093149,163.251218 197.68465,162.368346 196.954566,160.633815 L196.954566,160.633815 C196.715551,160.063069 196.441769,159.407604 196.137568,158.649582 C195.985467,158.288407 197.875862,156.763446 197.702033,156.357682 C197.528203,155.951917 195.672574,157.592811 195.507436,157.182588 C195.072863,156.063391 194.264556,153.936472 193.73003,152.527444 C189.627656,141.754621 179.241348,131.079895 184.412773,129.202677 C187.498246,128.114693 190.80535,131.530249 193.803908,136.49306 C194.077689,136.938955 192.904341,138.722535 193.173776,139.190725 C193.443212,139.658914 195.120666,138.798337 195.368373,139.262068 C196.23752,140.889585 197.050172,142.60628 197.823713,144.336353 C197.825598,144.345166 197.825598,144.354294 197.823713,144.363107 C201.069978,151.631195 203.403638,159.117772 203.759988,160.928105 C204.226961,163.297637 204.009466,165.755511 203.134202,168 Z" id="Path" stroke="#1D2A38" stroke-width="1.5" stroke-linecap="round" stroke-linejoin="round"></path>
                <path d="M205,177 C205,177 201.833471,157.437507 189,136" id="Path" stroke="#1D2A38" stroke-linecap="round" stroke-linejoin="round"></path>
                <path d="M238.999344,144.10087 C238.903717,146.464226 232.366305,149.421746 227.045964,151.638778 C226.67215,151.807273 225.237744,150.011477 224.872623,150.184405 C224.507501,150.357334 225.824546,152.126525 225.446385,152.334926 C221.338769,154.600733 218.995907,157.212397 217.531074,159.66 L217.531074,159.66 C215.357733,163.313669 215.101278,166.652519 213.836393,168.13793 C212.511479,169.709389 210.914252,171.01857 209.124589,172 C208.283782,170.179786 207.904171,168.173442 208.020531,166.164772 C208.068345,165.313432 208.55952,163.712734 209.415816,161.76618 C209.425583,161.738787 209.437202,161.712118 209.45059,161.686367 C209.472323,161.62429 209.50275,161.566648 209.52883,161.504571 C209.535702,161.484552 209.544435,161.46525 209.55491,161.446928 C211.202303,157.775523 214.092848,152.991168 217.722328,149.661186 C229.649628,139.187927 239.090624,141.741948 238.999344,144.10087 Z" id="Path" stroke="#1D2A38" stroke-width="1.5" stroke-linecap="round" stroke-linejoin="round"></path>
                <path d="M208.049184,180 C208.049184,180 206.021788,157.279406 228,147" id="Path" stroke="#1D2A38" stroke-linecap="round" stroke-linejoin="round"></path>
                <polygon id="Path" stroke="#1D2A38" stroke-width="1.5" fill="#FFFFFF" fill-rule="nonzero" stroke-linecap="round" stroke-linejoin="round" points="214 177 212.683835 189 201.06857 189 200 177"></polygon>
                <polygon id="Path" stroke="#1D2A38" stroke-width="1.5" fill="#FFFFFF" fill-rule="nonzero" stroke-linecap="round" stroke-linejoin="round" points="216 174.196678 215.426587 178.506119 198.612216 179 198 174"></polygon>
            </g>
        </g>
    </g>
</svg>