<?xml version="1.0" encoding="UTF-8"?>
<svg width="222px" height="126px" viewBox="0 0 222 126" version="1.1" xmlns="http://www.w3.org/2000/svg" xmlns:xlink="http://www.w3.org/1999/xlink">
    <!-- Generator: Sketch 55.2 (78181) - https://sketchapp.com -->
    <title>s1-ufo</title>
    <desc>Created with Sketch.</desc>
    <g id="illustration" stroke="none" stroke-width="1" fill="none" fill-rule="evenodd">
        <g id="S1" transform="translate(-847.000000, -132.000000)">
            <g id="s1-ufo" transform="translate(848.000000, 133.000000)">
                <ellipse id="Oval" stroke="#1D2A38" stroke-width="1.5" fill="#FFDD50" fill-rule="nonzero" stroke-linecap="round" stroke-linejoin="round" cx="110.072363" cy="18.1247581" rx="14.3704048" ry="17.9119263"></ellipse>
                <path d="M173.730416,74.4358022 C173.730416,81.9851331 172.367163,89.4724253 169.703583,96.5362588 C152.949462,100.124603 132.266465,102.227382 109.897841,102.189587 C87.529216,102.150762 66.8547326,99.9841344 50.104868,96.3404535 C45.5454724,84.1046719 44.8896717,70.7566741 48.2276914,58.1328845 C55.4426902,31.0053401 80.3695534,11.0289451 109.995743,11.0671998 C139.621933,11.1055646 164.50623,31.1841189 171.661636,58.3159198 C173.042205,63.5719724 173.737542,68.9844397 173.730416,74.4187756 L173.730416,74.4358022 Z" id="Path" stroke="#1D2A38" stroke-width="1.67" fill="#F0F3F7" fill-rule="nonzero" stroke-linecap="round" stroke-linejoin="round"></path>
                <path d="M166.285504,96.5277455 C149.527126,100.120347 128.848386,102.218869 106.479762,102.185622 C84.1111369,102.150762 63.4238836,99.9798777 46.6867889,96.3361969 C42.1195561,84.1005534 41.4636417,70.7487551 44.8096123,58.1243712 C52.0203545,31.0010835 76.9472177,11.0204319 106.573408,11.0670909 C136.199598,11.1140779 161.083894,31.1756056 168.2393,58.3159198 C168.883648,60.7623143 169.378334,63.245697 169.72061,65.7522638 C170.116515,68.6283785 170.314206,71.5283106 170.31231,74.4315455 C170.31231,81.9793024 168.947042,89.4648245 166.285504,96.5277455 Z" id="Path" stroke="#1D2A38" stroke-width="1.5" fill="#FFD701" fill-rule="nonzero" stroke-linecap="round" stroke-linejoin="round"></path>
                <path d="M177.318755,74.4443155 C177.32014,81.9923005 175.955908,89.4782715 173.291928,96.5405154 C156.53355,100.12886 135.85481,102.231638 113.486185,102.197993 C91.1175606,102.163532 70.4430772,99.988391 53.6932126,96.3447102 C49.1338169,84.1089286 48.4780162,70.7609307 51.8160359,58.1371411 C59.0267781,31.0095968 83.957898,11.0332018 113.584088,11.0672114 C143.210278,11.1013079 168.094575,31.1756056 175.249981,58.3159198 C176.630164,63.573496 177.325491,68.98732 177.318755,74.4230323 L177.318755,74.4443155 Z" id="Path" stroke="#1D2A38" stroke-width="1.5" fill="#FFD701" fill-rule="nonzero" stroke-linecap="round" stroke-linejoin="round"></path>
                <path d="M218.64214,70.8602275 C218.64214,88.1719681 170.810309,117.329928 110.774708,117.232271 C50.7391069,117.134123 1.20462812,87.8186673 1.22165028,70.5069267 C1.23868122,53.1951861 49.9260893,39.2334185 109.965947,39.3308094 C170.005805,39.4292237 218.663416,53.5442303 218.64214,70.8602275 Z" id="Path" stroke="#1D2A38" stroke-width="1.67" fill="#F0F3F7" fill-rule="nonzero" stroke-linecap="round" stroke-linejoin="round"></path>
                <path d="M218.646394,70.8602275 C218.646394,76.206563 214.074762,82.6851637 205.995666,89.074375 C205.621082,89.3723396 205.237985,89.6703042 204.846374,89.9640121 C205.816887,89.087145 206.323427,88.1889947 206.323427,87.2695612 C206.323427,78.7562882 163.220726,71.8903336 110.055336,71.8903336 C56.8899466,71.8903336 13.7872456,78.7775714 13.7872456,87.2610479 C13.7978253,87.7956235 13.9554054,88.3169631 14.2427057,88.7678972 L14.0000774,88.5763486 C5.84436189,82.1913939 1.23016794,75.8064391 1.23016794,70.5026701 C1.23868122,53.207956 49.9260893,39.2334185 109.965947,39.3313211 C170.005805,39.4292237 218.663416,53.548487 218.646394,70.8602275 Z" id="Path" stroke="#1D2A38" stroke-width="1.5" fill="#FFD701" fill-rule="nonzero" stroke-linecap="round" stroke-linejoin="round"></path>
                <path d="M206.323427,87.2610479 C206.323427,88.1804814 205.816887,89.0786317 204.846374,89.9554988 C204.356861,90.3258262 203.858834,90.7004102 203.343781,91.0707376 L203.292702,91.1047907 C184.512422,104.679204 150.289064,117.287362 110.770451,117.21953 C72.8651033,117.168176 39.1610556,105.458169 19.4443155,92.4796842 C17.5855842,91.2537729 15.8517143,90.0193483 14.2427057,88.7764105 C13.9539062,88.3230209 13.796264,87.798529 13.7872456,87.2610479 C13.7872456,78.7477749 57.2304775,69.8088383 110.412894,69.8088383 C163.59531,69.8088383 206.323427,78.7775714 206.323427,87.2610479 Z" id="Path" stroke="#1D2A38" stroke-width="1.5" fill="#FFD701" fill-rule="nonzero" stroke-linecap="round" stroke-linejoin="round"></path>
                <ellipse id="Oval" stroke="#1D2A38" stroke-width="1.5" fill="#FFD701" fill-rule="nonzero" stroke-linecap="round" stroke-linejoin="round" transform="translate(109.988211, 106.027217) rotate(-89.900000) translate(-109.988211, -106.027217) " cx="109.988211" cy="106.027217" rx="17.2691742" ry="57.634858"></ellipse>
                <path d="M159.926089,110.91092 C149.96556,116.06145 131.321492,119.513583 109.965947,119.475273 C88.6104017,119.436963 69.953564,115.933751 60.0228311,110.749168 C58.9416454,110.183035 58.9416454,108.263292 60.0228311,107.70993 L60.0526275,107.70993 C60.3080257,107.577974 60.5676805,107.446018 60.8358486,107.318319 C70.9794134,102.384877 89.2020741,99.1200371 109.98723,99.1540902 C130.772386,99.1881433 148.986534,102.512576 159.117328,107.475815 L159.900549,107.871682 L159.926089,107.871682 C161.007275,108.429301 161.007275,110.349044 159.926089,110.91092 Z" id="Path" stroke="#1D2A38" stroke-width="1.5" stroke-linecap="round" stroke-linejoin="round"></path>
                <g id="Group" transform="translate(64.700875, 98.192090)" stroke="#1D2A38" stroke-linecap="round" stroke-linejoin="round" stroke-width="1.5">
                    <path d="M89.9791204,10.9944698 L88.4175891,6.97985498 L89.9791204,10.9944698 Z" id="Path"></path>
                    <path d="M82.930535,5.05479422 L85.5288443,12.7290424" id="Path"></path>
                    <path d="M77.8564596,3.87902521 L80.7409643,13.813847" id="Path"></path>
                    <path d="M73.0142684,3.16374291 L75.9062863,15.020833" id="Path"></path>
                    <path d="M68.227697,2.37674642 L70.8494038,15.5410614" id="Path"></path>
                    <path d="M63.5781692,2.02974304 L65.7994404,16.2484127" id="Path"></path>
                    <path d="M58.951069,1.57783933 L60.6568122,16.3582122" id="Path"></path>
                    <path d="M54.3555047,1.04053669 L55.5735878,17.3423143" id="Path"></path>
                    <path d="M49.8124444,0.879977284 L50.417789,17.5644928" id="Path"></path>
                    <path d="M45.2850558,0.977038336 L45.2690436,17.5314503" id="Path"></path>
                    <path d="M40.1226082,17.47043 L40.7627268,0.735562672" id="Path"></path>
                    <path d="M35.1358298,17.0986947 L36.5985605,1.88744237" id="Path"></path>
                    <path d="M29.9046739,16.3582122 L31.6268091,1.88744237" id="Path"></path>
                    <path d="M24.7114052,16.3574787 L27.0030496,1.88744237" id="Path"></path>
                    <path d="M19.6904393,15.456634 L22.3469586,2.26391982" id="Path"></path>
                    <path d="M14.6684695,14.7936051 L17.5995658,2.88165909" id="Path"></path>
                    <path d="M9.72482833,13.7379488 L12.5741042,3.75435338" id="Path"></path>
                    <path d="M5.0175557,12.5967358 L7.58781224,5.06151364 L5.0175557,12.5967358 Z" id="Path"></path>
                    <path d="M0.0263846108,11.0425778 L1.67364278,6.82653658" id="Path"></path>
                </g>
                <path d="M156.674019,108.841361 C150.842427,111.313538 142.976163,113.311479 133.832908,114.580501 C125.92011,115.65085 117.946409,116.170172 109.965947,116.134942 C100.521366,116.161761 91.0907342,115.384833 81.7699868,113.812062 C74.4741119,112.534258 68.1487501,110.773436 63.279158,108.683282 C62.4278307,108.327605 62.4278307,106.786336 63.279158,106.430659 C68.4296881,104.23512 75.1679437,102.425995 82.9661017,101.161365 C86.1160127,100.652 89.4404458,100.226065 92.9010912,99.9011253 C98.2985063,99.3961513 104.036452,99.1239044 109.98723,99.1370777 C115.938008,99.1502509 121.671697,99.435671 127.073369,99.9626004 C129.078245,100.160199 131.036298,100.401708 132.939014,100.647609 C142.469623,101.938586 150.655135,104.006784 156.682532,106.593129 C157.525346,106.953197 157.525346,108.490075 156.674019,108.841361 Z" id="Path" stroke="#1D2A38" stroke-width="1.5" stroke-linecap="round" stroke-linejoin="round"></path>
                <path d="M127.073369,99.9330547 C123.727653,105.539045 117.321415,109.297655 109.97446,109.297655 C102.627506,109.297655 96.229781,105.466682 92.9010912,99.8692052 C98.2985063,99.379692 104.036452,99.1200371 109.98723,99.1285504 C115.938008,99.1370637 121.675954,99.426515 127.073369,99.9330547 Z" id="Path" stroke="#1D2A38" stroke-width="1.5" fill="#FFFFFF" fill-rule="nonzero" stroke-linecap="round" stroke-linejoin="round"></path>
                <g id="Group" transform="translate(8.938937, 44.694683)" fill="#F0F3F7" fill-rule="nonzero" stroke="#1D2A38" stroke-width="1.5">
                    <ellipse id="Oval" transform="translate(198.722555, 24.482183) rotate(-25.720000) translate(-198.722555, -24.482183) " cx="198.722555" cy="24.4821828" rx="3.50746846" ry="4.00975157"></ellipse>
                    <ellipse id="Oval" transform="translate(182.105046, 17.878093) rotate(-18.370000) translate(-182.105046, -17.878093) " cx="182.105046" cy="17.8780927" rx="4.07360111" ry="4.56311431"></ellipse>
                    <ellipse id="Oval" transform="translate(158.043657, 12.273729) rotate(-11.140000) translate(-158.043657, -12.273729) " cx="158.043657" cy="12.2737289" rx="4.63547713" ry="5.17606996"></ellipse>
                    <ellipse id="Oval" transform="translate(130.005253, 8.414170) rotate(-5.580000) translate(-130.005253, -8.414170) " cx="130.005253" cy="8.41417044" rx="5.19735315" ry="5.82733535"></ellipse>
                    <ellipse id="Oval" transform="translate(101.462726, 6.938230) rotate(-1.770000) translate(-101.462726, -6.938230) " cx="101.462726" cy="6.93823021" rx="5.75497253" ry="6.50839718"></ellipse>
                    <ellipse id="Oval" transform="translate(73.025132, 8.024908) rotate(-89.770000) translate(-73.025132, -8.024908) " cx="73.0251322" cy="8.02490821" rx="5.89118489" ry="5.20586642"></ellipse>
                    <ellipse id="Oval" transform="translate(45.057236, 11.207896) rotate(-87.410000) translate(-45.057236, -11.207896) " cx="45.0572362" cy="11.2078959" rx="5.29525579" ry="4.66953022"></ellipse>
                    <ellipse id="Oval" transform="translate(20.993856, 16.300074) rotate(-84.780000) translate(-20.993856, -16.300074) " cx="20.9938565" cy="16.3000739" rx="4.7248665" ry="4.1417073"></ellipse>
                    <ellipse id="Oval" transform="translate(4.312550, 23.090747) rotate(-82.130000) translate(-4.312550, -23.090747) " cx="4.31255013" cy="23.0907468" rx="4.19704357" ry="3.63516756"></ellipse>
                </g>
                <path d="M132.939014,100.601347 C131.036298,100.345948 129.078245,100.12886 127.073369,99.9373114 C121.671697,99.426515 115.933751,99.145577 109.98723,99.1370637 C104.040709,99.1285504 98.2985063,99.3882052 92.9010912,99.8777184 C89.4404458,100.19271 86.1160127,100.605603 82.9661017,101.099373 L83.3917653,96.5788252 L132.670846,96.5788252 L132.939014,100.601347 Z" id="Path"></path>
                <path d="M5.68260971,79.8970668 C3.89482238,81.2208807 1.58772541,80.4844826 0.527822924,78.2540051 C-0.53207956,76.0235276 0.0595929108,73.1460413 1.84738023,71.826484 C3.63516756,70.5069267 7.47039703,78.5775095 5.68260971,79.8970668 Z" id="Path" stroke="#1D2A38" stroke-width="1.5" fill="#F0F3F7" fill-rule="nonzero" stroke-linecap="round" stroke-linejoin="round"></path>
                <path d="M214.257797,80.527049 C216.045585,81.8466063 218.352682,81.1102082 219.412584,78.8797307 C220.472487,76.6492532 219.885071,73.7717669 218.093027,72.4522096 C216.300983,71.1326523 212.47001,79.2074917 214.257797,80.527049 Z" id="Path" stroke="#1D2A38" stroke-width="1.5" fill="#F0F3F7" fill-rule="nonzero" stroke-linecap="round" stroke-linejoin="round"></path>
            </g>
        </g>
    </g>
</svg>