<svg height="202" viewBox="0 0 202 202" width="202" xmlns="http://www.w3.org/2000/svg"><g fill="none" transform="translate(1 1)"><path d="m12.3812709 99.9397993h43.4381271" fill="#faf5ea" stroke="#2e4257" stroke-linecap="round" stroke-linejoin="round" stroke-width="3"/><path d="m144.073579 99.9397993h43.431438" fill="#faf5ea" stroke="#2e4257" stroke-linecap="round" stroke-linejoin="round" stroke-width="3"/><path d="m99.9464883 12.4080268v43.4046822" fill="#faf5ea" stroke="#2e4257" stroke-linecap="round" stroke-linejoin="round" stroke-width="3"/><path d="m99.9464883 144.06689v43.431438" fill="#faf5ea" stroke="#2e4257" stroke-linecap="round" stroke-linejoin="round" stroke-width="3"/><path d="m99.9464883 0c-55.1952271 0-99.93979934 44.7445723-99.93979934 99.9397993 0 55.1952267 44.74457224 99.9397997 99.93979934 99.9397997 55.1952267 0 99.9397997-44.744573 99.9397997-99.9397997 0-55.195227-44.744573-99.9397993-99.9397997-99.9397993zm0 187.498328c-35.4180417.002705-67.3499734-21.330883-80.9051209-54.05237-13.55514756-32.721486-6.0638643-70.3864689 18.9804732-95.4308064s62.7093204-32.53562072 95.4308064-18.9804732c32.721486 13.5551475 54.055075 45.4870793 54.05237 80.9051209-.003694 48.3557097-39.202819 87.5548347-87.5585287 87.5585287z" fill="#fff" stroke="#2e4257" stroke-linecap="round" stroke-linejoin="round" stroke-width="2"/><path d="m58.3344482 99.9397993h83.4515048" fill="#faf5ea" stroke="#2e4257" stroke-linecap="round" stroke-linejoin="round"/><path d="m100.060201 58.2140468v83.4515052" fill="#faf5ea" stroke="#2e4257" stroke-linecap="round" stroke-linejoin="round"/><g fill="#2e4257"><circle cx="66.688963" cy="100.006689" r="1.090301"/><circle cx="74.983278" cy="100.006689" r="1.090301"/><circle cx="83.284281" cy="100.006689" r="1.090301"/><circle cx="91.585284" cy="100.006689" r="1.090301"/><circle cx="107.09699" cy="100.006689" r="1.090301"/><circle cx="115.391304" cy="100.006689" r="1.090301"/><circle cx="123.692308" cy="100.006689" r="1.090301"/><circle cx="131.986622" cy="100.006689" r="1.090301"/><circle cx="100.060201" cy="67.284281" r="1.090301"/><circle cx="100.060201" cy="75.585284" r="1.090301"/><circle cx="100.060201" cy="83.886288" r="1.090301"/><circle cx="100.060201" cy="92.180602" r="1.090301"/><circle cx="100.060201" cy="107.692308" r="1.090301"/><circle cx="100.060201" cy="115.993311" r="1.090301"/><circle cx="100.060201" cy="124.294314" r="1.090301"/><circle cx="100.060201" cy="132.588629" r="1.090301"/></g><circle cx="99.953177" cy="99.658863" fill="#dd2f2f" r="1.886288"/></g></svg>