<?xml version="1.0" encoding="UTF-8"?>
<svg width="407px" height="404px" viewBox="0 0 407 404" version="1.1" xmlns="http://www.w3.org/2000/svg" xmlns:xlink="http://www.w3.org/1999/xlink">
    <!-- Generator: Sketch 55.2 (78181) - https://sketchapp.com -->
    <title>s1-bot</title>
    <desc>Created with Sketch.</desc>
    <g id="illustration" stroke="none" stroke-width="1" fill="none" fill-rule="evenodd">
        <g id="How-3" transform="translate(-800.000000, -297.000000)">
            <g id="s1-bot" transform="translate(802.000000, 299.000000)">
                <circle id="Oval" stroke="#1D2A38" stroke-width="4" fill="#EAEAEA" fill-rule="nonzero" stroke-linecap="round" stroke-linejoin="round" cx="200.645161" cy="302.516129" r="30.8225806"></circle>
                <path d="M24.1935484,365.790323 L14.1935484,365.032258 C16.2903226,337.290323 20.7741935,312.354839 27.5483871,290.83871 C32.3262418,275.003356 39.2681662,259.903721 48.1774194,245.967742 C62.5645161,224.193548 76.0967742,217.741935 76.6612903,217.435484 L80.8870968,226.548387 L78.7741935,221.983871 L80.9193548,226.532258 C80.8064516,226.532258 68.8548387,232.5 55.983871,252.33871 C43.9677419,270.967742 28.7096774,305.612903 24.1935484,365.790323 Z" id="Path" stroke="#1D2A38" stroke-width="4" fill="#EAEAEA" fill-rule="nonzero" stroke-linecap="round" stroke-linejoin="round"></path>
                <circle id="Oval" stroke="#1D2A38" stroke-width="4" fill="#FFD701" fill-rule="nonzero" stroke-linecap="round" stroke-linejoin="round" cx="17.8870968" cy="381.790323" r="17.8870968"></circle>
                <path d="M378.580645,365.790323 C369.83871,250.16129 321.774194,226.774194 321.290323,226.548387 L325.483871,217.435484 C326.048387,217.693548 339.725806,224.145161 354.258065,245.951613 C363.301866,259.882759 370.359056,275.00686 375.225806,290.887097 C382.048387,312.33871 386.516129,337.290323 388.677419,365.080645 L378.580645,365.790323 Z" id="Path" stroke="#1D2A38" stroke-width="4" fill="#EAEAEA" fill-rule="nonzero" stroke-linecap="round" stroke-linejoin="round"></path>
                <circle id="Oval" stroke="#1D2A38" stroke-width="4" fill="#FFD701" fill-rule="nonzero" stroke-linecap="round" stroke-linejoin="round" cx="384.854839" cy="381.790323" r="17.8870968"></circle>
                <path d="M310.419355,196.446237 L319.758065,196.446237 C323.196482,196.446237 325.983871,201.041351 325.983871,206.709713 L325.983871,222.849427 C325.983871,228.517789 323.196482,233.112903 319.758065,233.112903 L310.419355,233.112903 L310.419355,196.446237 Z" id="Path" stroke="#1D2A38" stroke-width="4" fill="#FFFFFF" fill-rule="nonzero" stroke-linecap="round" stroke-linejoin="round"></path>
                <path d="M76.7580645,196.446237 L86.0967742,196.446237 C89.5351922,196.446237 92.3225806,201.041351 92.3225806,206.709713 L92.3225806,222.849427 C92.3225806,228.517789 89.5351922,233.112903 86.0967742,233.112903 L76.7580645,233.112903 L76.7580645,196.446237 Z" id="Path" stroke="#1D2A38" stroke-width="4" fill="#FFFFFF" fill-rule="nonzero" stroke-linecap="round" stroke-linejoin="round" transform="translate(84.540323, 214.779570) rotate(-180.000000) translate(-84.540323, -214.779570) "></path>
                <circle id="Oval" stroke="#1D2A38" stroke-width="4" fill="#EAEAEA" fill-rule="nonzero" stroke-linecap="round" stroke-linejoin="round" cx="201.370968" cy="203.048387" r="117.596774"></circle>
                <path d="M216.467742,315.26294 C211.460634,315.884651 206.418274,316.193548 201.370968,316.193548 C136.424063,316.193548 83.7741935,264.706288 83.7741935,201.193548 C83.7741935,137.6808 136.424063,86.1935484 201.370968,86.1935484 C206.418617,86.1968035 211.460981,86.5128945 216.467742,87.1399206 C157.847066,94.5707652 113.973789,143.395618 113.973789,201.20143 C113.973789,259.007243 157.847066,307.832095 216.467742,315.26294 L216.467742,315.26294 Z" id="Path" fill="#4C4C4C" fill-rule="nonzero" style="mix-blend-mode: color-dodge;"></path>
                <path d="M326.790323,203.645161 L326.790323,203.645161 C326.786687,204.683168 326.05084,205.574286 325.032258,205.774194 C321.693548,206.419355 314.370968,206.774194 310.516129,199.016129 C305.387097,188.758065 305.387097,163.080645 291.16129,163.532258 C276.935484,163.983871 280.564516,189.193548 201.370968,189.193548 C144.596774,189.193548 130.403226,176.290323 121.645161,168.709677 C118.209677,165.741935 115.612903,163.645161 111.580645,163.532258 C97.3709677,163.129032 97.3709677,188.806452 92.2258065,199.016129 C88.3548387,206.774194 81.0483871,206.419355 77.7096774,205.774194 C76.6846872,205.581053 75.9406241,204.688177 75.9354329,203.645161 L75.9354329,203.645161 C75.9054846,170.369897 89.1118528,138.449115 112.64254,114.921453 C136.173227,91.3937916 168.095708,78.1915283 201.370968,78.2257399 C206.410833,78.2276536 211.446289,78.5238568 216.451613,79.1129032 L216.451613,79.1129032 C279.461694,86.6727081 326.8583,140.167123 326.774194,203.629032 L326.790323,203.645161 Z" id="Path" stroke="#1D2A38" stroke-width="4" fill="#FFD701" fill-rule="nonzero" stroke-linecap="round" stroke-linejoin="round"></path>
                <circle id="Oval" stroke="#1D2A38" stroke-width="4" fill="#FFD701" fill-rule="nonzero" stroke-linecap="round" stroke-linejoin="round" cx="201.370968" cy="217.435484" r="21.8387097"></circle>
                <path d="M241.290323,84.7096774 C233.112903,88.483871 218.290323,91 201.370968,91 C184.451613,91 169.612903,88.483871 161.451613,84.7096774 C187.362436,76.0645901 215.379499,76.0645901 241.290323,84.7096774 Z" id="Path" stroke="#1D2A38" stroke-width="4" stroke-linecap="round" stroke-linejoin="round"></path>
                <path d="M201.370968,78.2254961 L201.370968,25.3870968" id="Path" stroke="#1D2A38" stroke-width="4" stroke-linecap="round" stroke-linejoin="round"></path>
                <ellipse id="Oval" stroke="#1D2A38" stroke-width="4" fill="#FFFFFF" fill-rule="nonzero" stroke-linecap="round" stroke-linejoin="round" cx="201.370968" cy="12.6935484" rx="110" ry="12.6935484"></ellipse>
                <path d="M76.4354839,192.516129 C76.4354839,192.516129 87.3225806,194.790323 94.5483871,192.516129" id="Path" stroke="#1D2A38" stroke-linecap="round" stroke-linejoin="round" fill-rule="nonzero"></path>
                <path d="M327.258065,192.516129 C327.258065,192.516129 316.354839,194.790323 309.145161,192.516129" id="Path" stroke="#1D2A38" fill="#FFD701" fill-rule="nonzero" stroke-linecap="round" stroke-linejoin="round"></path>
                <path d="M95.7096774,136.145161 C95.7096774,136.145161 110.629032,120.177419 131.919355,127.758065 C153.209677,135.33871 166.532258,148.629032 201.370968,148.629032 C236.209677,148.629032 249.548387,135.33871 270.822581,127.758065 C292.096774,120.177419 307.032258,136.145161 307.032258,136.145161" id="Path" stroke="#1D2A38" stroke-width="4" stroke-linecap="round" stroke-linejoin="round"></path>
                <circle id="Oval" fill="#4C4C4C" fill-rule="nonzero" style="mix-blend-mode: color-dodge;" cx="18.2258065" cy="376.564516" r="10.6935484"></circle>
                <circle id="Oval" fill="#4C4C4C" fill-rule="nonzero" style="mix-blend-mode: color-dodge;" cx="384.854839" cy="376.564516" r="10.6935484"></circle>
                <ellipse id="Oval" fill="#FFFFFF" fill-rule="nonzero" cx="387.290323" cy="371.322581" rx="4.58064516" ry="2.46774194"></ellipse>
                <ellipse id="Oval" fill="#FFFFFF" fill-rule="nonzero" cx="19.1451613" cy="371.322581" rx="4.58064516" ry="2.46774194"></ellipse>
                <circle id="Oval" fill="#4C4C4C" fill-rule="nonzero" style="mix-blend-mode: color-dodge;" cx="208.064516" cy="213.935484" r="12.1935484"></circle>
                <path d="M132.854839,299.387097 C132.854839,299.387097 201.548387,327.903226 269.870968,299.387097" id="Path" stroke="#1D2A38" stroke-width="3" stroke-linecap="round" stroke-linejoin="round"></path>
                <path d="M216.467742,79.1290323 C172.580645,80.9193548 181.145161,145.790323 167.741935,163.758065 C154.33871,181.725806 121.612903,168.596774 121.612903,168.596774 C118.177419,165.629032 115.580645,163.532258 111.548387,163.419355 C97.3387097,163.016129 97.3387097,188.693548 92.1935484,198.903226 C88.3225806,206.66129 81.016129,206.306452 77.6774194,205.66129 C76.6524292,205.46815 75.908366,204.575274 75.9032258,203.532258 C75.9032258,170.270957 89.1272283,138.374303 112.661642,114.870143 C136.196056,91.3659828 168.109694,78.1829936 201.370968,78.2254961 C206.410833,78.2276536 211.446289,78.5238568 216.451613,79.1129032 L216.467742,79.1290323 Z" id="Path" fill="#161616" fill-rule="nonzero" style="mix-blend-mode: color-dodge;"></path>
            </g>
        </g>
    </g>
</svg>