<?xml version="1.0" encoding="UTF-8"?>
<svg width="50px" height="50px" viewBox="0 0 50 50" version="1.1" xmlns="http://www.w3.org/2000/svg" xmlns:xlink="http://www.w3.org/1999/xlink">
    <!-- Generator: Sketch 52.4 (67378) - http://www.bohemiancoding.com/sketch -->
    <title>avt</title>
    <desc>Created with Sketch.</desc>
    <g id="Page-1" stroke="none" stroke-width="1" fill="none" fill-rule="evenodd">
        <g id="Chatbot-suggestions" transform="translate(-960.000000, -138.000000)">
            <g id="Group-13" transform="translate(960.000000, 93.000000)">
                <g id="avt" transform="translate(0.000000, 45.000000)">
                    <g id="send-button" fill="#2E4257">
                        <rect id="Rectangle" x="0" y="0" width="50" height="50" rx="25"></rect>
                    </g>
                    <g id="icon-bot" opacity="0.5" transform="translate(11.000000, 12.000000)">
                        <circle id="Oval" stroke="#FFFFFF" stroke-width="1.5" cx="14" cy="14.5" r="9"></circle>
                        <circle id="Oval" fill="#FFFFFF" cx="14" cy="16.5" r="2"></circle>
                        <circle id="Oval-Copy" fill="#FFFFFF" cx="26" cy="19.5" r="2"></circle>
                        <circle id="Oval-Copy-2" fill="#FFFFFF" cx="2" cy="19.5" r="2"></circle>
                        <path d="M6,13.5 L8.40097713,13.5 C9.22940426,13.5 9.90097713,12.8284271 9.90097713,12 L9.90097713,12 C9.90097713,11.1715729 10.57255,10.5 11.4009771,10.5 L16.484991,10.5 C17.3134181,10.5 17.984991,11.1715729 17.984991,12 L17.984991,12 C17.984991,12.8284271 18.6565639,13.5 19.484991,13.5 L22,13.5" id="Path-8" stroke="#FFFFFF" stroke-width="1.2" stroke-linecap="round" stroke-linejoin="round"></path>
                        <path d="M12,3 L15.5,3" id="Line-4" stroke="#FFFFFF" stroke-width="2" stroke-linecap="round" transform="translate(14.000000, 3.000000) rotate(-90.000000) translate(-14.000000, -3.000000) "></path>
                        <ellipse id="Oval" fill="#FFFFFF" cx="14" cy="1.5" rx="7" ry="1"></ellipse>
                    </g>
                </g>
            </g>
        </g>
    </g>
</svg>