<?xml version="1.0" encoding="UTF-8"?>
<svg width="420px" height="420px" viewBox="0 0 420 420" version="1.1" xmlns="http://www.w3.org/2000/svg" xmlns:xlink="http://www.w3.org/1999/xlink">
    <!-- Generator: Sketch 57.1 (83088) - https://sketch.com -->
    <title>c-1</title>
    <desc>Created with Sketch.</desc>
    <g stroke="none" stroke-width="1" fill="none" fill-rule="evenodd">
        <g>
            <g transform="translate(49.000000, 56.000000)">
                <rect stroke="#1D2A38" stroke-width="1.5" x="0.596899225" y="91.355297" width="74.4496124" height="84.1718346"></rect>
                <path d="M51.9031008,160.478036 L23.749354,160.478036 C22.5129183,160.561098 21.4400202,159.633404 21.3436693,158.397933 L21.3436693,158.397933 C21.4399564,157.163677 22.5144994,156.238601 23.749354,156.326873 L51.9031008,156.326873 C53.1379554,156.238601 54.2124984,157.163677 54.3087855,158.397933 L54.3087855,158.397933 C54.2124346,159.633404 53.1395365,160.561098 51.9031008,160.478036 Z" stroke="#1D2A38" stroke-width="1.5" fill="#FAD749" fill-rule="nonzero"></path>
                <rect stroke="#1D2A38" stroke-width="1.5" fill="#FAD749" fill-rule="nonzero" x="24.9431525" y="139.848837" width="25.7571059" height="4.16020672" rx="2.08010336"></rect>
                <path d="M27.4573643,139.848837 L48.1950904,139.848837 C48.1950904,139.848837 45.9702842,133.518088 45.1472868,130.651163 C44.3242894,127.784238 44.5865633,121.462532 44.5865633,121.462532 L31.0658915,121.462532 C31.0658915,121.462532 31.3281654,127.793282 30.505168,130.651163 C29.6821705,133.509044 27.4573643,139.848837 27.4573643,139.848837 Z" stroke="#1D2A38" stroke-width="1.5" fill="#FAD749" fill-rule="nonzero"></path>
                <path d="M49.2713178,109.04522 L47.4625323,117.103359 C47.2382431,118.03206 46.4101588,118.688559 45.4547804,118.69509 L30.2338501,118.69509 C29.284453,118.691057 28.4616625,118.036565 28.244186,117.112403 L26.381137,109.04522 C26.2373538,108.437082 26.3796695,107.796583 26.7674587,107.306559 C27.1552479,106.816534 27.7458974,106.530832 28.370801,106.531008 L28.8591731,106.531008 C29.8511946,106.529985 30.6993841,107.24445 30.8669251,108.222222 L31.4186047,111.224806 C31.5809365,112.338652 32.6154826,113.110006 33.7293282,112.947674 C34.8431737,112.785343 35.6145281,111.750796 35.4521964,110.636951 L35.1989664,107.923773 C35.1606043,107.5267 35.2921327,107.131947 35.5609904,106.837237 C35.8298481,106.542528 36.2109023,106.375412 36.6098191,106.377216 L39.0878553,106.377216 C39.4886905,106.377443 39.8705271,106.548116 40.1380037,106.846654 C40.4054803,107.145193 40.5333449,107.543412 40.4896641,107.94186 L40.1912145,110.609819 C40.1912145,110.691214 40.1912145,110.77261 40.1912145,110.863049 C40.1898024,111.927837 41.0060873,112.815335 42.0672787,112.902783 C43.1284701,112.99023 44.0790263,112.248329 44.251938,111.197674 L44.8036176,108.19509 C44.9711585,107.217319 45.8193481,106.502853 46.8113695,106.503876 L47.2997416,106.503876 C47.9275291,106.507222 48.518954,106.798887 48.9037724,107.294915 C49.2885907,107.790942 49.4241091,108.4363 49.2713178,109.04522 L49.2713178,109.04522 Z" stroke="#1D2A38" stroke-width="1.5" fill="#FAD749" fill-rule="nonzero"></path>
                <path d="M50.1033592,152.401809 C48.2945736,150.70155 46.8656331,150.475452 46.8656331,148.087855 C46.8548022,146.697774 47.0905805,145.316787 47.5620155,144.009044 L28.0904393,144.009044 C28.5618743,145.316787 28.7976526,146.697774 28.7868217,148.087855 C28.7868217,150.475452 27.3940568,150.70155 25.5490956,152.401809 C24.4702669,153.397306 24.0526581,154.92035 24.4728682,156.326873 L51.1795866,156.326873 C51.5997967,154.92035 51.1821879,153.397306 50.1033592,152.401809 L50.1033592,152.401809 Z" stroke="#1D2A38" stroke-width="1.5" fill="#FAD749" fill-rule="nonzero"></path>
                <rect stroke="#1D2A38" stroke-width="1.5" fill="#FAD749" fill-rule="nonzero" x="29.2390181" y="118.686047" width="17.1744186" height="2.76744186" rx="1.38372093"></rect>
                <path d="M16.0710594,167.5323 L75.0465116,167.5323" stroke="#1D2A38" stroke-width="1.5" fill="#FFFFFF" fill-rule="nonzero" stroke-linecap="round"></path>
                <circle fill="#1D2A38" fill-rule="nonzero" cx="17.2105943" cy="171.457364" r="1.55555556"></circle>
                <circle fill="#1D2A38" fill-rule="nonzero" cx="22.3565891" cy="171.457364" r="1.55555556"></circle>
                <circle fill="#1D2A38" fill-rule="nonzero" cx="27.4935401" cy="171.457364" r="1.55555556"></circle>
                <rect stroke="#1D2A38" stroke-width="1.5" x="260.799742" y="213.556848" width="39.7028424" height="44.8940568"></rect>
                <path d="M269.047804,254.182171 L300.502584,254.182171" stroke="#1D2A38" stroke-width="1.5" fill="#FFFFFF" fill-rule="nonzero" stroke-linecap="round"></path>
                <circle fill="#334258" fill-rule="nonzero" cx="269.653747" cy="256.280362" r="1"></circle>
                <circle fill="#334258" fill-rule="nonzero" cx="272.394057" cy="256.280362" r="1"></circle>
                <circle fill="#334258" fill-rule="nonzero" cx="275.143411" cy="256.280362" r="1"></circle>
                <path d="M287.850129,250.926357 L273.452196,250.926357 C272.85422,250.957306 272.342406,250.501912 272.303618,249.904393 L272.303618,249.904393 C272.319927,249.616382 272.450229,249.346715 272.665742,249.15496 C272.881255,248.963204 273.164243,248.86514 273.452196,248.882429 L287.850129,248.882429 C288.137172,248.865174 288.419182,248.963508 288.633261,249.1555 C288.847341,249.347492 288.975683,249.617172 288.989664,249.904393 L288.989664,249.904393 C288.95563,250.500521 288.446432,250.957182 287.850129,250.926357 L287.850129,250.926357 Z" stroke="#1D2A38" stroke-width="1.5" fill="#FAD749" fill-rule="nonzero"></path>
                <rect stroke="#1D2A38" stroke-width="1.5" fill="#FAD749" fill-rule="nonzero" x="273.931525" y="240.797158" width="13.4302326" height="2.04392765" rx="1.02196382"></rect>
                <path d="M275.242894,240.797158 L286.095607,240.797158 C286.095607,240.797158 284.928941,237.704134 284.503876,236.275194 C284.224271,234.785186 284.124075,233.26706 284.205426,231.75323 L277.160207,231.75323 C277.241558,233.26706 277.141362,234.785186 276.861757,236.275194 C276.400517,237.704134 275.242894,240.797158 275.242894,240.797158 Z" stroke="#1D2A38" stroke-width="1.5" fill="#FAD749" fill-rule="nonzero"></path>
                <path d="M287.04522,246.956072 C286.086563,246.124031 285.363049,246.05168 285.363049,244.839793 C285.358046,244.156837 285.480738,243.478961 285.724806,242.841085 L275.568475,242.841085 C275.818151,243.477651 275.944004,244.15603 275.939276,244.839793 C275.939276,246.015504 275.206718,246.124031 274.248062,246.956072 C273.686251,247.424014 273.461416,248.184171 273.678295,248.882429 L287.596899,248.882429 C287.817974,248.187808 287.60048,247.428363 287.04522,246.956072 Z" stroke="#1D2A38" stroke-width="1.5" fill="#FAD749" fill-rule="nonzero"></path>
                <path d="M277.829457,230.152455 L283.463824,230.152455 C284.542208,229.115075 285.144354,227.678432 285.127907,226.182171 C285.127907,223.369509 283.120155,221.081395 280.651163,221.081395 C278.182171,221.081395 276.129022,223.369509 276.129022,226.182171 C276.122165,227.683852 276.737749,229.121305 277.829457,230.152455 Z" stroke="#1D2A38" stroke-width="1.5" fill="#FAD749" fill-rule="nonzero"></path>
                <rect stroke="#1D2A38" stroke-width="1.5" fill="#FAD749" fill-rule="nonzero" x="276.337209" y="230.152455" width="8.61886305" height="1.61886305" rx="0.809431525"></rect>
                <rect stroke="#1D2A38" stroke-width="1.5" fill="#FFFBE9" fill-rule="nonzero" stroke-linecap="round" stroke-linejoin="round" x="104.005168" y="213.44832" width="91.497416" height="62.9457364"></rect>
                <path d="M159.77907,266.70801 L139.484496,266.70801 C138.686881,266.738714 138.013232,266.121539 137.97416,265.324289 L137.97416,265.324289 C137.990588,264.940385 138.159036,264.578779 138.442362,264.319205 C138.725688,264.05963 139.100624,263.923406 139.484496,263.940568 L159.77907,263.940568 C160.162942,263.923406 160.537878,264.05963 160.821204,264.319205 C161.10453,264.578779 161.272978,264.940385 161.289406,265.324289 L161.289406,265.324289 C161.250334,266.121539 160.576685,266.738714 159.77907,266.70801 L159.77907,266.70801 Z" stroke="#1D2A38" stroke-width="1.5" fill="#FAD749" fill-rule="nonzero" stroke-linecap="round" stroke-linejoin="round"></path>
                <path d="M158.268734,255.728682 L140.958656,255.728682 C140.177865,255.743854 139.531377,255.12565 139.511628,254.344961 L139.511628,254.344961 C139.531377,253.564272 140.177865,252.946068 140.958656,252.96124 L158.268734,252.96124 C158.644483,252.951535 159.008571,253.092169 159.28023,253.351943 C159.551889,253.611717 159.708659,253.969154 159.715762,254.344961 L159.715762,254.344961 C159.708659,254.720768 159.551889,255.078205 159.28023,255.337979 C159.008571,255.597754 158.644483,255.738387 158.268734,255.728682 Z" stroke="#1D2A38" stroke-width="1.5" fill="#FAD749" fill-rule="nonzero" stroke-linecap="round" stroke-linejoin="round"></path>
                <path d="M158.829457,261.354005 C157.445736,260.232558 156.405685,260.078811 156.405685,258.48708 C156.400187,257.556972 156.578448,256.634936 156.930233,255.773902 L142.342377,255.773902 C142.688365,256.636356 142.863445,257.557831 142.857881,258.48708 C142.857881,260.078811 141.817829,260.232558 140.434109,261.354005 C139.635511,261.968229 139.31264,263.020282 139.629199,263.976744 L159.634367,263.976744 C159.950926,263.020282 159.628055,261.968229 158.829457,261.354005 Z" stroke="#1D2A38" stroke-width="1.5" fill="#FAD749" fill-rule="nonzero" stroke-linecap="round" stroke-linejoin="round"></path>
                <path d="M141.085271,252.96124 L158.268734,252.96124 C158.268734,252.96124 158.648579,248.647287 159.978036,246.440568 C159.978036,246.440568 163.496124,239.160207 159.978036,231.563307 C156.459948,223.966408 149.514212,224.744186 149.514212,224.744186 L147.705426,223.27907 C147.496215,223.109971 147.206842,223.080486 146.967824,223.203913 C146.728806,223.32734 146.585314,223.580354 146.602067,223.848837 L146.728682,225.72093 C145.381947,227.220315 144.142857,228.812999 143.020672,230.48708 C141.501292,232.847545 139.44832,234.53876 139.44832,235.361757 C139.44832,236.184755 141.067183,238.54522 142.215762,237.930233 C143.364341,237.315245 143.255814,236.121447 144.069767,236.031008 C144.883721,235.940568 146.638243,236.745478 147.497416,235.877261 C148.193155,234.990938 148.753921,234.006549 149.161499,232.956072 C149.859184,234.680911 149.790126,236.621118 148.971576,238.29199 C147.587855,241.158915 142.405685,243.465116 141.736434,246.829457 C141.324032,248.847896 141.105981,250.901206 141.085271,252.96124 Z" stroke="#1D2A38" stroke-width="1.5" fill="#FAD749" fill-rule="nonzero" stroke-linecap="round" stroke-linejoin="round"></path>
                <path d="M185.29199,213.44832 L185.29199,267.947028" stroke="#1D2A38" stroke-width="1.5" fill="#FFFFFF" fill-rule="nonzero" stroke-linecap="round" stroke-linejoin="round"></path>
                <circle fill="#334258" fill-rule="nonzero" cx="190.239018" cy="266.644703" r="2.05297158"></circle>
                <circle fill="#334258" fill-rule="nonzero" cx="190.239018" cy="259.834625" r="2.05297158"></circle>
                <circle fill="#334258" fill-rule="nonzero" cx="190.239018" cy="253.015504" r="2.05297158"></circle>
                <rect stroke="#334258" stroke-width="1.5" fill="#FFFBE9" fill-rule="nonzero" stroke-linecap="round" stroke-linejoin="round" x="281.917313" y="42.8165375" width="69.0775194" height="47.5167959"></rect>
                <path d="M343.280362,42.8165375 L343.280362,83.957364" stroke="#334258" stroke-width="1.5" fill="#FFFFFF" fill-rule="nonzero" stroke-linecap="round" stroke-linejoin="round"></path>
                <circle fill="#334258" fill-rule="nonzero" cx="347.015504" cy="82.98062" r="1.55555556"></circle>
                <circle fill="#334258" fill-rule="nonzero" cx="347.015504" cy="77.834625" r="1.55555556"></circle>
                <circle fill="#334258" fill-rule="nonzero" cx="347.015504" cy="72.68863" r="1.55555556"></circle>
                <path d="M321.79199,83.043928 L307.611111,83.043928 C307.077996,83.074996 306.618756,82.672154 306.580103,82.139535 L306.580103,82.139535 C306.618756,81.606915 307.077996,81.204074 307.611111,81.235142 L321.79199,81.235142 C322.321676,81.20918 322.775306,81.610623 322.813953,82.139535 L322.813953,82.139535 C322.775306,82.668447 322.321676,83.06989 321.79199,83.043928 Z" stroke="#1D2A38" stroke-width="1.5" fill="#FAD749" fill-rule="nonzero" stroke-linecap="round" stroke-linejoin="round"></path>
                <rect stroke="#1D2A38" stroke-width="1.5" fill="#FAD749" fill-rule="nonzero" stroke-linecap="round" stroke-linejoin="round" x="308.189922" y="74.036176" width="13.0232558" height="1.81782946" rx="0.908914729"></rect>
                <path d="M309.456072,74.036176 L319.947028,74.036176 C319.947028,74.036176 318.816537,71.322997 318.400517,70.020672 C318.134253,68.699866 318.040017,67.350159 318.120155,66.005168 L311.282946,66.005168 C311.358499,67.350537 311.261237,68.700041 310.99354,70.020672 C310.577519,71.277778 309.456072,74.036176 309.456072,74.036176 Z" stroke="#1D2A38" stroke-width="1.5" fill="#FAD749" fill-rule="nonzero" stroke-linecap="round" stroke-linejoin="round"></path>
                <path d="M320.905685,79.516796 C320.001292,78.775194 319.268734,78.675711 319.268734,77.635659 C319.260899,77.014911 319.380963,76.399199 319.621447,75.826873 L309.77261,75.826873 C310.013094,76.399199 310.133158,77.014911 310.125323,77.635659 C310.125323,78.675711 309.419897,78.775194 308.488372,79.516796 C307.950699,79.908933 307.730783,80.605333 307.945736,81.235142 L321.457364,81.235142 C321.664352,80.603327 321.441772,79.910045 320.905685,79.516796 Z" stroke="#1D2A38" stroke-width="1.5" fill="#FAD749" fill-rule="nonzero" stroke-linecap="round" stroke-linejoin="round"></path>
                <path d="M319.042636,58.9418605 C318.897933,56.6537468 316.447028,54.1847545 315.669251,53.1627907 C316.088103,52.833718 316.331713,52.3298121 316.329457,51.7971576 C316.329457,50.8980894 315.600619,50.1692506 314.70155,50.1692506 C313.802482,50.1692506 313.073643,50.8980894 313.073643,51.7971576 C313.071388,52.3298121 313.314998,52.833718 313.73385,53.1627907 C312.956072,54.1847545 310.496124,56.6537468 310.360465,58.9418605 C310.296514,60.6277514 310.85321,62.278534 311.925065,63.581395 L317.44186,63.581395 C318.522269,62.281216 319.09142,60.631644 319.042636,58.9418605 Z" stroke="#1D2A38" stroke-width="1.5" fill="#FAD749" fill-rule="nonzero" stroke-linecap="round" stroke-linejoin="round"></path>
                <rect stroke="#1D2A38" stroke-width="1.5" fill="#FAD749" fill-rule="nonzero" stroke-linecap="round" stroke-linejoin="round" x="310.921189" y="63.581395" width="7.55167959" height="4" rx="0.67"></rect>
                <path d="M148.085271,143.782946 C148.085271,143.782946 155.157623,192.131783 169.917313,192.294574 C187.860465,192.502584 199.328165,135.580103 199.328165,135.580103" stroke="#1D2A38" stroke-width="1.5"></path>
                <circle stroke="#1D2A38" stroke-width="1.5" fill="#FFFFFF" fill-rule="nonzero" cx="241.816537" cy="126.210594" r="76.502584"></circle>
                <path d="M252.913437,42.6447028 L254.390893,7.4276486" stroke="#1D2A38" stroke-width="1.5" fill="#FFD700" fill-rule="nonzero" stroke-linecap="round"></path>
                <ellipse stroke="#1D2A38" stroke-width="1.5" fill="#FFFFFF" fill-rule="nonzero" transform="translate(255.171835, 13.000000) rotate(-84.920000) translate(-255.171835, -13.000000) " cx="255.171835" cy="13" rx="7.17183463" ry="55"></ellipse>
                <path d="M325.436693,131.537468 C324.741325,140.694135 322.534926,149.672528 318.906977,158.108527 C317.107923,162.340232 312.941818,165.076021 308.343669,165.045979 C283.925065,164.520672 300.204134,125.071059 292.064599,113.757106 C283.228682,101.421189 270.359173,117.211886 221.277778,112.970284 C194.453488,110.636951 180.263566,104.631783 172.919897,99.675711 C167.907256,96.220732 166.361201,89.510697 169.356589,84.210594 C188.546818,50.0576642 228.899588,33.8369592 266.388562,45.2064059 C303.877537,56.5758527 328.42265,92.478425 325.409561,131.537468 L325.436693,131.537468 Z" stroke="#1D2A38" stroke-width="1.5" fill="#FFD700" fill-rule="nonzero"></path>
                <path d="M300.014212,64.892765 C293.738971,62.891034 287.253858,61.619503 280.687339,61.1033592 C248.298367,58.6305057 217.410061,75.146826 201.48062,103.456072 C200.375426,105.420536 199.866322,107.664367 200.015504,109.913437 C186.449612,107.037468 178.029716,103.094315 172.956072,99.666667 C167.934412,96.229723 166.365145,89.528951 169.338501,84.219638 C181.995438,61.6982933 204.362987,46.302658 229.919096,42.5218753 C255.475205,38.7410927 281.342345,47.0008658 299.978036,64.892765 L300.014212,64.892765 Z" fill="#26241B" fill-rule="nonzero" opacity="0.7" style="mix-blend-mode: color-dodge;"></path>
                <path d="M235.757106,141.55814 C235.757106,141.55814 244.53876,188.48708 270.567183,197.114987 C302.031008,207.533592 308.343669,165.04522 308.343669,165.04522" stroke="#1D2A38" stroke-width="1.5"></path>
                <path d="M218.275194,45.0956072 C218.275194,45.0956072 243.516796,56.3281654 279.864341,50.5943152" stroke="#1D2A38" stroke-width="1.5"></path>
                <ellipse fill="#FFFFFF" fill-rule="nonzero" transform="translate(197.746975, 66.569382) rotate(-45.000000) translate(-197.746975, -66.569382) " cx="197.746975" cy="66.569382" rx="10.8436693" ry="5.79715762"></ellipse>
                <path d="M190.05814,109.913437 L244.990956,122.122739 C244.990956,122.122739 254.78553,124.600775 254.378553,138.067183 C253.971576,151.533592 245.262274,148.919897 245.262274,148.919897 L185.400517,158.732558 L190.05814,109.913437 Z" fill="#1D2A38" fill-rule="nonzero"></path>
                <path d="M144.377261,106.585271 L199.310078,118.794574 C199.310078,118.794574 209.095607,121.281654 208.68863,134.739018 C208.281654,148.196382 199.581395,145.591731 199.581395,145.591731 L139.665375,155.404393 L144.377261,106.585271 Z" fill="#1D2A38" fill-rule="nonzero"></path>
                <ellipse stroke="#1D2A38" stroke-width="1.5" fill="#F0F3F7" fill-rule="nonzero" transform="translate(140.758881, 131.005487) rotate(-86.210000) translate(-140.758881, -131.005487) " cx="140.758881" cy="131.005487" rx="26.8875969" ry="20.5568475"></ellipse>
                <ellipse stroke="#1D2A38" stroke-width="1.5" fill="#F0F3F7" fill-rule="nonzero" transform="translate(133.922920, 130.553667) rotate(-86.210000) translate(-133.922920, -130.553667) " cx="133.92292" cy="130.553667" rx="26.8875969" ry="20.5568475"></ellipse>
                <ellipse fill="#1D2A38" fill-rule="nonzero" transform="translate(133.922920, 130.553667) rotate(-86.210000) translate(-133.922920, -130.553667) " cx="133.92292" cy="130.553667" rx="23.1524548" ry="17.6989664"></ellipse>
                <ellipse fill="#FFFFFF" fill-rule="nonzero" transform="translate(128.983845, 122.136166) rotate(-86.210000) translate(-128.983845, -122.136166) " cx="128.983845" cy="122.136166" rx="8.84496124" ry="6.76485788"></ellipse>
                <ellipse stroke="#1D2A38" stroke-width="1.5" fill="#F0F3F7" fill-rule="nonzero" transform="translate(183.700851, 133.846538) rotate(-86.210000) translate(-183.700851, -133.846538) " cx="183.700851" cy="133.846538" rx="26.8875969" ry="20.5568475"></ellipse>
                <ellipse stroke="#1D2A38" stroke-width="1.5" fill="#F0F3F7" fill-rule="nonzero" transform="translate(176.864889, 133.394718) rotate(-86.210000) translate(-176.864889, -133.394718) " cx="176.864889" cy="133.394718" rx="26.8875969" ry="20.5568475"></ellipse>
                <ellipse fill="#1D2A38" fill-rule="nonzero" transform="translate(176.864889, 133.394718) rotate(-86.210000) translate(-176.864889, -133.394718) " cx="176.864889" cy="133.394718" rx="23.1524548" ry="17.6989664"></ellipse>
                <ellipse fill="#FFFFFF" fill-rule="nonzero" transform="translate(171.925795, 124.977815) rotate(-86.210000) translate(-171.925795, -124.977815) " cx="171.925795" cy="124.977815" rx="8.84496124" ry="6.76485788"></ellipse>
                <circle stroke="#1D2A38" stroke-width="1.5" fill="#FFD700" fill-rule="nonzero" cx="239.990004" cy="141.55814" r="14"></circle>
                <path d="M294.20801,147.70801 C294.20801,147.70801 303.098191,150.421189 323.456072,146.640827" stroke="#1D2A38" stroke-width="1.5"></path>
                <rect stroke="#1D2A38" stroke-width="1.5" stroke-linecap="round" stroke-linejoin="round" x="85.2932817" y="10.2945736" width="101.680879" height="31.2648579" rx="15.6324289"></rect>
                <path d="M100.27907,19.5465116 C100.280704,19.4007228 100.295842,19.2553989 100.324289,19.1124031 C100.349539,18.9779994 100.415902,18.8547532 100.514212,18.7596899 C100.621092,18.6840503 100.745707,18.6373194 100.875969,18.6240208 L105.081395,18.6240208 C105.30259,18.6237383 105.523424,18.641889 105.741602,18.6782946 C105.959838,18.7144094 106.174639,18.768866 106.383721,18.8410853 C106.767309,18.9876601 107.104595,19.2343784 107.360465,19.5555556 C107.609907,19.8762037 107.780313,20.2510984 107.857881,20.6498708 C107.912719,20.9085349 107.940003,21.1722803 107.939318,21.4366925 C107.939318,22.0335917 107.939318,22.630491 107.939318,23.245478 L107.939318,24.629199 C107.938613,24.8381467 107.905041,25.0456858 107.839793,25.244186 C107.766593,25.4407274 107.652542,25.6195098 107.505168,25.7687339 C107.457284,25.8098714 107.427952,25.8685349 107.423773,25.9315245 C107.43019,26.0018335 107.45868,26.0683114 107.505168,26.121447 C107.653674,26.2870923 107.767459,26.4808335 107.839793,26.6912145 C107.90643,26.9111232 107.939959,27.1397268 107.939318,27.369509 C107.939318,27.8217054 107.939318,28.2829457 107.939318,28.75323 C107.939318,29.4134367 107.939318,30.0736434 107.939318,30.7428941 C107.940268,31.0970832 107.869508,31.4478036 107.731266,31.7739018 C107.585069,32.1076232 107.358195,32.3997616 107.071059,32.6240208 C106.716186,32.9232197 106.283128,33.1146438 105.822997,33.1757106 C105.524287,33.2276893 105.221795,33.2549136 104.918605,33.2571059 C103.94789,33.2571059 102.980189,33.2571059 102.015504,33.2571059 L101.29199,33.2571059 C101.086853,33.2645537 100.881946,33.2370288 100.686047,33.1757106 C100.549087,33.1274328 100.440065,33.0217141 100.387597,32.8863049 C100.32596,32.6998135 100.298389,32.5037514 100.306202,32.3074935 L100.27907,19.5465116 Z M103.363049,24.1679587 C103.357767,24.2413764 103.376839,24.3144876 103.417313,24.375969 C103.456028,24.4366873 103.527071,24.4686569 103.598191,24.4573643 L103.851421,24.4573643 L104.602067,24.4573643 C104.694216,24.4675226 104.786325,24.4379161 104.855297,24.375969 C104.915573,24.2989784 104.944634,24.2021071 104.936693,24.1046512 L104.936693,21.9702842 C104.949827,21.872349 104.920172,21.7734988 104.855297,21.6989664 C104.78135,21.6478694 104.69136,21.625372 104.602067,21.6356589 L103.697674,21.6356589 C103.603714,21.6229816 103.508213,21.6420819 103.426357,21.6899225 C103.426357,21.6899225 103.363049,21.8165375 103.363049,21.9521964 L103.363049,24.1679587 Z M103.363049,29.9289406 C103.363049,30.0645995 103.363049,30.1459948 103.426357,30.1821705 C103.503307,30.2033448 103.584548,30.2033448 103.661499,30.1821705 C103.962692,30.2002602 104.264699,30.2002602 104.565891,30.1821705 C104.710594,30.1821705 104.810078,30.1821705 104.855297,30.1098191 C104.907449,30.0262975 104.926783,29.9264062 104.909561,29.8294574 L104.909561,27.7764858 C104.922695,27.6785506 104.89304,27.5797003 104.828165,27.505168 C104.75212,27.4413384 104.65613,27.4061421 104.556848,27.4056848 L103.652455,27.4056848 C103.561704,27.3941747 103.470197,27.4203195 103.399225,27.4780362 C103.345936,27.5544092 103.323336,27.6480375 103.335917,27.7403101 L103.363049,29.9289406 Z" fill="#1D2A38" fill-rule="nonzero"></path>
                <path d="M109.639418,19.5826873 C109.638498,19.430271 109.65673,19.2783347 109.693798,19.130491 C109.707136,18.9870864 109.775142,18.8543124 109.883721,18.7596899 C109.998385,18.6795228 110.132961,18.6325777 110.27261,18.6239369 L111.611111,18.6239369 C112.642119,18.6239369 113.682171,18.6239369 114.713178,18.6239369 C115.095137,18.6223391 115.474522,18.6865898 115.834625,18.8139535 C116.289336,18.9465748 116.68903,19.2225546 116.97416,19.6007752 C117.2456,19.9885984 117.410848,20.4406914 117.453488,20.9121447 C117.453488,21.1925065 117.453488,21.4728682 117.453488,21.75323 L117.453488,22.6576227 C117.453488,22.7661499 117.453488,22.8837209 117.453488,23.001292 C117.453488,23.8514212 117.453488,24.6925065 117.453488,25.5426357 C117.453216,25.9220535 117.416876,26.3005864 117.344961,26.6731266 C117.286135,26.944752 117.182197,27.2045964 117.037468,27.4418605 C116.889831,27.6769255 116.699676,27.8824152 116.476744,28.0478036 C116.399633,28.0980391 116.339686,28.1706068 116.30491,28.255814 C116.278779,28.3443658 116.278779,28.4385799 116.30491,28.5271318 C116.639535,29.7751938 116.965116,31.0232558 117.290698,32.2803618 C117.411451,32.5160083 117.411451,32.7953612 117.290698,33.0310078 C117.09492,33.2028884 116.834531,33.281994 116.576227,33.248062 L115.03876,33.248062 C114.876241,33.2421066 114.719031,33.1886551 114.586563,33.0943152 C114.4672,32.9795131 114.385249,32.8313703 114.351421,32.6692506 C114.197674,32.0994832 114.043928,31.5297158 113.908269,30.9689922 C113.844961,30.7338501 113.790698,30.4896641 113.718346,30.245478 C113.645995,30.001292 113.655039,30.001292 113.618863,29.8656331 C113.528424,29.5490956 113.447028,29.2325581 113.365633,28.9612403 C113.347379,28.8441233 113.282029,28.7395637 113.184755,28.6718346 C113.07656,28.6331902 112.958324,28.6331902 112.850129,28.6718346 L112.75969,28.7351421 C112.733426,28.7595609 112.714613,28.7909165 112.705426,28.8255814 C112.696459,28.9037056 112.696459,28.9825993 112.705426,29.0607235 L112.705426,32.5426357 C112.716269,32.7188299 112.661501,32.8928005 112.55168,33.0310078 C112.428546,33.1585935 112.258708,33.230448 112.081395,33.2299742 C111.484496,33.2299742 110.887597,33.2299742 110.27261,33.2299742 C110.10451,33.2286133 109.943079,33.1640409 109.820413,33.0490956 C109.707737,32.9178565 109.643843,32.7517307 109.639418,32.5788114 C109.639418,32.4793282 109.639418,32.379845 109.639418,32.2894057 L109.639418,19.5826873 Z M112.71447,25.2713178 C112.704463,25.3622766 112.723455,25.4540714 112.768734,25.5335917 C112.852516,25.5692801 112.947225,25.5692801 113.031008,25.5335917 C113.374439,25.5516754 113.718584,25.5516754 114.062016,25.5335917 C114.168191,25.5449084 114.274736,25.5158506 114.360465,25.4521964 C114.423773,25.3979328 114.44186,25.2984496 114.432817,25.1537468 C114.432817,24.0956072 114.432817,23.0284238 114.432817,21.9612403 C114.451449,21.8588556 114.425086,21.7534061 114.360465,21.6718346 C114.264397,21.6170269 114.154267,21.5918541 114.043928,21.5994832 L113.049096,21.5994832 C112.974162,21.5880678 112.897931,21.5880678 112.822997,21.5994832 C112.774899,21.603689 112.736764,21.6418238 112.732558,21.6899225 C112.72078,21.7678607 112.72078,21.8471264 112.732558,21.9250646 L112.71447,25.2713178 Z" fill="#1D2A38" fill-rule="nonzero"></path>
                <path d="M124.950904,18.624031 C125.107025,18.6207216 125.262689,18.6420873 125.412145,18.6873385 C125.525077,18.7209691 125.621665,18.7950199 125.683463,18.8953488 C125.761006,19.0293497 125.813129,19.1765217 125.837209,19.3294574 C125.95478,19.9173127 126.081395,20.505168 126.217054,21.0839793 C126.29845,21.4366925 126.370801,21.7984496 126.452196,22.1511628 L126.750646,23.5529716 L128.423773,31.0956072 C128.514212,31.5116279 128.595607,31.9186047 128.677003,32.3165375 C128.677003,32.4431525 128.677003,32.5516796 128.677003,32.6692506 C128.698476,32.9246814 128.515187,33.1518004 128.260982,33.1847545 C128.164734,33.2164406 128.063846,33.2317267 127.962532,33.2299742 L126.25323,33.2299742 C126.099554,33.2214031 125.951766,33.1679479 125.828165,33.0762274 C125.722758,32.9645097 125.656159,32.8217975 125.638243,32.6692506 C125.520672,32.1175711 125.403101,31.5658915 125.303618,30.996124 C125.287091,30.8674667 125.259865,30.7404115 125.222222,30.6162791 C125.212825,30.5500062 125.167597,30.4943408 125.104651,30.4715762 C125.026958,30.4568921 124.947202,30.4568921 124.869509,30.4715762 L124.652455,30.4715762 C124.145995,30.4715762 123.621447,30.4715762 123.105943,30.4715762 L122.997416,30.4715762 L122.762274,30.4715762 C122.713389,30.4754043 122.671109,30.5071139 122.653747,30.5529716 C122.619838,30.6268402 122.601373,30.706856 122.599483,30.7881137 L122.436693,31.6925065 C122.373385,31.9909561 122.319121,32.2894057 122.264858,32.5968992 C122.241202,32.7905756 122.155544,32.971408 122.020672,33.1124031 C121.859904,33.2248518 121.664255,33.2761698 121.468992,33.2571059 C120.962532,33.2571059 120.465116,33.2571059 119.9677,33.2571059 C119.854431,33.2605249 119.741374,33.2452468 119.633075,33.2118863 C119.477921,33.1981087 119.337737,33.1137027 119.252972,32.9830224 C119.168206,32.8523422 119.148289,32.6899255 119.198966,32.5426357 C119.271318,32.1989664 119.352713,31.8552972 119.425065,31.5297158 C119.425065,31.3397933 119.497416,31.1408269 119.542636,30.9418605 C119.786822,29.8294574 120.031008,28.7170543 120.26615,27.6046512 C120.60379,26.0551249 120.935401,24.502584 121.260982,22.9470284 C121.260982,22.8475452 121.260982,22.748062 121.333333,22.6485788 C121.568475,21.5452196 121.803618,20.4418605 122.047804,19.3385013 C122.073067,19.1317789 122.168902,18.9401099 122.319121,18.7958656 C122.492003,18.6878741 122.694571,18.6372322 122.897933,18.6511628 L124.950904,18.624031 Z M123.965116,27.7403101 L124.064599,27.7403101 C124.148751,27.7496436 124.233677,27.7496436 124.317829,27.7403101 C124.462532,27.7403101 124.543928,27.7403101 124.580103,27.6860465 C124.616279,27.6317829 124.580103,27.5594315 124.580103,27.4237726 C124.399225,26.4560724 124.22739,25.4883721 124.046512,24.5206718 L123.965116,24.3578811 C123.942361,24.3307927 123.924046,24.3002672 123.910853,24.2674419 L123.910853,24.3578811 C123.891607,24.4108983 123.876489,24.465324 123.865633,24.5206718 C123.72093,25.2713178 123.576227,26.0129199 123.449612,26.7635659 C123.443363,26.8115977 123.443363,26.8602369 123.449612,26.9082687 C123.440946,27.0151815 123.422786,27.1211114 123.395349,27.2248062 C123.395349,27.3242894 123.395349,27.4237726 123.395349,27.5232558 C123.395349,27.622739 123.395349,27.7403101 123.576227,27.7403101 L124.064599,27.7403101 L123.965116,27.7403101 Z" fill="#1D2A38" fill-rule="nonzero"></path>
                <path d="M130.404393,19.248062 C130.403204,19.0909314 130.461338,18.9391363 130.567183,18.8229974 C130.672684,18.7099865 130.81958,18.6446996 130.97416,18.6421189 C131.589147,18.6421189 132.19509,18.6421189 132.782946,18.6421189 C132.903762,18.6379397 133.022205,18.6763535 133.117571,18.750646 C133.213733,18.8340746 133.288216,18.9395912 133.334625,19.0581395 C133.328214,19.0970677 133.328214,19.1367824 133.334625,19.1757106 C133.443152,19.4560724 133.55168,19.7273902 133.651163,19.998708 C133.9677,20.9031008 134.293282,21.8074935 134.618863,22.7118863 C134.808786,23.2273902 134.998708,23.7609819 135.18863,24.2945736 L135.18863,24.2945736 C135.204266,24.356643 135.225454,24.4171799 135.251938,24.4754522 L135.251938,24.4754522 L135.251938,24.4754522 C135.251938,24.375969 135.251938,24.2764858 135.251938,24.1770026 L135.251938,19.5103359 C135.242688,19.4050262 135.242688,19.2991082 135.251938,19.1937984 C135.271387,18.8625852 135.553588,18.6086045 135.885013,18.624031 L137.648579,18.624031 C137.823121,18.6285196 137.990153,18.6959748 138.118863,18.8139535 C138.23594,18.9389004 138.300673,19.1039693 138.299742,19.2751938 L138.299742,32.3527132 C138.333237,32.593943 138.268026,32.8384868 138.118863,33.0310078 C137.924585,33.1914374 137.672189,33.2635505 137.422481,33.2299742 L136.165375,33.2299742 C135.960236,33.2449417 135.755355,33.1976614 135.577519,33.0943152 C135.416586,32.9580071 135.30267,32.774476 135.251938,32.5697674 C134.645995,30.8966408 134.049096,29.2325581 133.443152,27.5775194 C133.42549,27.5105599 133.398064,27.446566 133.361757,27.3875969 C133.33948,27.3651439 133.323832,27.336978 133.316537,27.3062016 C133.314135,27.3393191 133.314135,27.3725672 133.316537,27.4056848 C133.303473,27.4774464 133.303473,27.5509773 133.316537,27.622739 L133.316537,32.5426357 C133.322704,32.7350213 133.261977,32.923594 133.144703,33.0762274 C133.001361,33.2047247 132.812232,33.2699417 132.620155,33.2571059 C132.167959,33.2571059 131.715762,33.2571059 131.281654,33.2571059 C131.084742,33.2596946 130.887997,33.2445603 130.693798,33.2118863 C130.58505,33.1844391 130.487251,33.1244975 130.413437,33.0400517 C130.345181,32.9443335 130.304513,32.8317139 130.295866,32.7144703 C130.295866,32.624031 130.295866,32.5335917 130.295866,32.4431525 L130.404393,19.248062 Z" fill="#1D2A38" fill-rule="nonzero"></path>
                <path d="M140.180879,19.5826873 C140.167815,19.4322383 140.167815,19.28094 140.180879,19.130491 C140.207295,18.9866799 140.276664,18.8542473 140.379845,18.750646 C140.486136,18.6623624 140.621687,18.6171789 140.75969,18.624031 C142.242894,18.624031 143.717054,18.624031 145.200258,18.624031 C145.353715,18.6106707 145.508042,18.6106707 145.661499,18.624031 C145.807246,18.651166 145.949724,18.693606 146.086563,18.750646 C146.518063,18.8775151 146.904126,19.1254741 147.198966,19.4651163 C147.478728,19.8116421 147.659931,20.2271592 147.723514,20.6679587 C147.777915,20.9663445 147.805158,21.2690471 147.805078,21.5723514 C147.805078,24.4935401 147.805078,27.4328165 147.805078,30.3630491 C147.80691,30.7297455 147.758215,31.0949586 147.660207,31.4483204 C147.513647,31.9084801 147.23345,32.314609 146.855297,32.6149871 C146.464551,32.9079299 145.995453,33.0779386 145.507752,33.1033592 C144.956072,33.1033592 144.404393,33.1666667 143.852713,33.1666667 C143.301034,33.1666667 142.586563,33.1666667 141.944444,33.1666667 L140.859173,33.1666667 C140.690792,33.1712591 140.525563,33.1204194 140.388889,33.0219638 C140.265493,32.9025123 140.191286,32.7411933 140.180879,32.5697674 C140.180879,32.4521964 140.180879,32.3165375 140.180879,32.1899225 L140.180879,19.5826873 Z M143.255814,29.8927649 C143.249591,29.9710221 143.249591,30.0496498 143.255814,30.127907 C143.269896,30.1723689 143.308927,30.2043038 143.355297,30.2093023 C143.439363,30.2200893 143.524462,30.2200893 143.608527,30.2093023 C143.779884,30.2274237 143.952674,30.2274237 144.124031,30.2093023 L144.25969,30.2093023 C144.391119,30.2346894 144.526193,30.2346894 144.657623,30.2093023 C144.731129,30.1956123 144.788636,30.1381056 144.802326,30.0645995 C144.815098,29.9322627 144.815098,29.7990035 144.802326,29.6666667 L144.802326,21.9160207 C144.79649,21.8416173 144.771571,21.769975 144.729974,21.7080103 C144.671203,21.6541253 144.592268,21.6278137 144.51292,21.6356589 L143.445736,21.6356589 C143.282946,21.6356589 143.20155,21.7080103 143.219638,21.870801 L143.255814,29.8927649 Z" fill="#1D2A38" fill-rule="nonzero"></path>
                <path d="M152.571059,32.6511628 C152.563322,32.9127606 152.375649,33.1342149 152.118863,33.1847545 C152.007469,33.218143 151.891433,33.23334 151.775194,33.2299742 C151.295866,33.2299742 150.807494,33.2299742 150.319121,33.2299742 C150.104228,33.249356 149.89021,33.1845018 149.722222,33.0490956 C149.573013,32.894431 149.494447,32.6849226 149.505168,32.4702842 L149.505168,19.5826873 C149.505884,19.4308632 149.521025,19.2794505 149.550388,19.130491 C149.572016,18.9896321 149.638642,18.8595529 149.74031,18.7596899 C149.853176,18.6826041 149.983992,18.6358841 150.120155,18.624031 L151.928941,18.624031 C152.108008,18.6279276 152.27908,18.6989387 152.408269,18.8229974 C152.51931,18.9675507 152.573958,19.1475697 152.562016,19.3294574 L152.571059,32.6511628 Z" fill="#1D2A38" fill-rule="nonzero"></path>
                <path d="M154.244186,19.248062 C154.244588,19.092831 154.298938,18.9425671 154.397933,18.8229974 C154.50849,18.711893 154.657297,18.6471942 154.813953,18.6421189 C155.419897,18.6421189 156.034884,18.6421189 156.622739,18.6421189 C156.743342,18.639429 156.861297,18.6776848 156.957364,18.750646 C157.04797,18.8389572 157.121548,18.9431916 157.174419,19.0581395 C157.172458,19.0973054 157.172458,19.1365448 157.174419,19.1757106 C157.29199,19.4560724 157.391473,19.7273902 157.490956,19.998708 C157.816537,20.9031008 158.142119,21.8074935 158.458656,22.7118863 C158.648579,23.2273902 158.838501,23.7609819 159.028424,24.2945736 L159.028424,24.2945736 C159.028424,24.3578811 159.028424,24.4211886 159.100775,24.4754522 L159.100775,24.4754522 L159.100775,24.4754522 L159.100775,24.4754522 C159.100775,24.375969 159.100775,24.2764858 159.100775,24.1770026 L159.100775,19.5103359 C159.100775,19.4018088 159.100775,19.2932817 159.100775,19.1937984 C159.124859,18.8648348 159.404176,18.6134493 159.73385,18.624031 L161.542636,18.624031 C161.716369,18.6323134 161.882158,18.6992668 162.01292,18.8139535 C162.129997,18.9389004 162.19473,19.1039693 162.193798,19.2751938 L162.193798,32.3527132 C162.227294,32.593943 162.162082,32.8384868 162.01292,33.0310078 C161.816394,33.193911 161.560178,33.2661771 161.307494,33.2299742 L160.059432,33.2299742 C159.851362,33.2456547 159.643386,33.1983874 159.462532,33.0943152 C159.307806,32.952756 159.195143,32.7712446 159.136951,32.5697674 C158.540052,30.8966408 157.934109,29.2325581 157.328165,27.5775194 L157.364341,27.3875969 C157.33676,27.368158 157.317413,27.3391377 157.310078,27.3062016 C157.315174,27.3391668 157.315174,27.3727195 157.310078,27.4056848 C157.301364,27.4777738 157.301364,27.55065 157.310078,27.622739 L157.310078,32.5426357 C157.313672,32.7361222 157.24971,32.9248104 157.129199,33.0762274 C156.986398,33.2056404 156.796867,33.2709956 156.604651,33.2571059 C156.158484,33.2571059 155.715332,33.2571059 155.275194,33.2571059 C155.078282,33.2596946 154.881537,33.2445603 154.687339,33.2118863 C154.577632,33.1867494 154.479167,33.1263996 154.406977,33.0400517 C154.334969,32.9463439 154.293882,32.8325642 154.289406,32.7144703 C154.280399,32.6242552 154.280399,32.5333675 154.289406,32.4431525 L154.244186,19.248062 Z" fill="#1D2A38" fill-rule="nonzero"></path>
                <path d="M164.020672,21.2196382 C164.035919,20.8334989 164.121744,20.4534153 164.273902,20.0981912 C164.427969,19.7138198 164.688345,19.3812912 165.024548,19.1395349 C165.364496,18.9047088 165.754801,18.7529235 166.164083,18.6963824 C166.484539,18.6494666 166.807913,18.625289 167.131783,18.624031 L169.121447,18.624031 C169.44339,18.6403612 169.763756,18.6796514 170.080103,18.7416021 C170.596277,18.8487865 171.063192,19.1219477 171.409561,19.5193798 C171.753823,19.9488634 171.947632,20.4794546 171.96124,21.0297158 C171.96124,21.3191214 171.96124,21.6175711 171.96124,21.9341085 L171.96124,22.8385013 C171.96124,22.9922481 171.96124,23.1550388 171.96124,23.3178295 C171.971635,23.4814011 171.919963,23.6428768 171.816537,23.7700258 C171.710372,23.8918296 171.55246,23.9556665 171.391473,23.9418605 C170.794574,23.9418605 170.18863,23.9418605 169.582687,23.9418605 C169.426031,23.9367852 169.277224,23.8720864 169.166667,23.7609819 C169.056358,23.6397203 168.995107,23.4817573 168.994832,23.3178295 L168.994832,22.1692506 C169.004166,22.0850987 169.004166,22.0001727 168.994832,21.9160207 C168.993657,21.836426 168.964888,21.7597076 168.913437,21.6989664 C168.858735,21.6512362 168.786696,21.6283147 168.71447,21.6356589 L167.312661,21.6356589 C167.240772,21.6312683 167.169829,21.6538411 167.113695,21.6989664 C167.067758,21.7499792 167.036504,21.8124875 167.023256,21.879845 C167.023256,21.997416 167.023256,22.1059432 167.023256,22.2144703 L167.023256,29.5943152 C167.001507,29.7351689 167.001507,29.8785262 167.023256,30.0193798 C167.048589,30.1117803 167.120778,30.1839691 167.213178,30.2093023 C167.347664,30.2345378 167.48567,30.2345378 167.620155,30.2093023 L167.864341,30.2093023 C168.117571,30.2093023 168.361757,30.2093023 168.605943,30.2093023 C168.705167,30.221247 168.805252,30.1954185 168.886305,30.1369509 C168.948273,30.0608471 168.977543,29.9632803 168.9677,29.8656331 C168.9677,29.2988803 168.9677,28.7291128 168.9677,28.1563307 C168.985643,28.082702 168.963885,28.005046 168.910298,27.951459 C168.856711,27.8978719 168.779055,27.8761138 168.705426,27.8940568 L168.55168,27.8940568 L168.416021,27.8940568 C168.249136,27.8951633 168.087859,27.8338781 167.963824,27.7222222 C167.846167,27.5987876 167.786921,27.4309239 167.801034,27.2609819 C167.801034,26.8992248 167.801034,26.5465116 167.801034,26.1937984 L167.801034,25.7416021 C167.801034,25.6602067 167.801034,25.5788114 167.801034,25.4883721 C167.792524,25.3411868 167.848573,25.1975995 167.954546,25.0951017 C168.060518,24.992604 168.205893,24.9413711 168.352713,24.9547804 L171.373385,24.9547804 C171.744186,24.9547804 171.925065,25.1718346 171.925065,25.5788114 C171.925065,26.1485788 171.925065,26.7273902 171.925065,27.3062016 L171.925065,30.6162791 C171.923866,30.8502188 171.899632,31.0834719 171.852713,31.3126615 C171.801837,31.5483944 171.713275,31.7743794 171.590439,31.9819121 C171.402989,32.329799 171.124845,32.6204434 170.78553,32.8229974 C170.447489,33.0275379 170.066816,33.1513338 169.673127,33.1847545 C169.322249,33.230732 168.968857,33.2548955 168.614987,33.2571059 C168.262274,33.2571059 167.909561,33.2571059 167.547804,33.2571059 L166.797158,33.2571059 C166.643705,33.2705582 166.48937,33.2705582 166.335917,33.2571059 L165.865633,33.1666667 C164.915386,32.9727684 164.190599,32.2008711 164.056848,31.2403101 C164.029336,31.0847801 164.011215,30.9277344 164.002584,30.7700258 C164.002584,30.6072351 164.002584,30.4444444 164.002584,30.2726098 C164.002584,29.2416021 164.002584,28.2015504 164.002584,27.1524548 L164.002584,25.9405685 L164.002584,25.9405685 L164.020672,21.2196382 Z" fill="#1D2A38" fill-rule="nonzero"></path>
                <circle fill="#334258" fill-rule="nonzero" cx="186.540052" cy="28.8255814" r="1.8630491"></circle>
            </g>
        </g>
    </g>
</svg>