<?xml version="1.0" encoding="UTF-8"?>
<svg width="420px" height="420px" viewBox="0 0 420 420" version="1.1" xmlns="http://www.w3.org/2000/svg" xmlns:xlink="http://www.w3.org/1999/xlink">
    <!-- Generator: Sketch 57.1 (83088) - https://sketch.com -->
    <title>c-2</title>
    <desc>Created with Sketch.</desc>
    <g stroke="none" stroke-width="1" fill="none" fill-rule="evenodd">
        <g>
            <circle fill-opacity="0" fill="#FF0000" fill-rule="nonzero" cx="210" cy="210" r="210"></circle>
            <g transform="translate(52.000000, 21.000000)">
                <rect stroke="#1D2A38" stroke-width="1.5" fill="#FFFBE9" fill-rule="nonzero" stroke-linecap="round" stroke-linejoin="round" x="24.4342254" y="89.4780282" width="266.216479" height="186.816761" rx="3"></rect>
                <rect fill="#FFFFFF" fill-rule="nonzero" x="32.6535211" y="97.895493" width="249.768451" height="169.991268"></rect>
                <polygon stroke="#AEB4BB" stroke-width="1.5" fill="#FFFFFF" fill-rule="nonzero" stroke-linecap="round" stroke-linejoin="round" points="200.568732 253.137324 136.371408 224.157465 197.964225 195.470141 262.246479 224.195211"></polygon>
                <path d="M211.439718,201.264225 L149.761972,230.196901" stroke="#AEB4BB" fill="#FFFFFF" fill-rule="nonzero" stroke-linecap="round" stroke-linejoin="round"></path>
                <path d="M223.91493,206.888451 L162.237183,235.830563" stroke="#AEB4BB" fill="#FFFFFF" fill-rule="nonzero" stroke-linecap="round" stroke-linejoin="round"></path>
                <path d="M236.390141,212.522113 L174.712394,241.464225" stroke="#AEB4BB" fill="#FFFFFF" fill-rule="nonzero" stroke-linecap="round" stroke-linejoin="round"></path>
                <path d="M248.865352,218.155775 L187.187606,247.088451" stroke="#AEB4BB" fill="#FFFFFF" fill-rule="nonzero" stroke-linecap="round" stroke-linejoin="round"></path>
                <path d="M211.1,247.390423 L147.780282,218.806901" stroke="#AEB4BB" fill="#FFFFFF" fill-rule="nonzero" stroke-linecap="round" stroke-linejoin="round"></path>
                <path d="M224.065915,241.313239 L160.736761,212.729718" stroke="#AEB4BB" fill="#FFFFFF" fill-rule="nonzero" stroke-linecap="round" stroke-linejoin="round"></path>
                <path d="M237.022394,235.236056 L173.693239,206.643099" stroke="#AEB4BB" fill="#FFFFFF" fill-rule="nonzero" stroke-linecap="round" stroke-linejoin="round"></path>
                <path d="M249.978873,229.158873 L186.649718,200.565915" stroke="#AEB4BB" fill="#FFFFFF" fill-rule="nonzero" stroke-linecap="round" stroke-linejoin="round"></path>
                <path d="M215.790398,189.355211 C215.792918,182.619107 211.692831,176.560441 205.438469,174.058831 C199.184106,171.557221 192.036745,173.117152 187.393451,177.997206 C182.750157,182.87726 181.547314,190.093305 184.35662,196.215634 L184.35662,196.215634 L184.35662,196.28169 C184.35662,196.39493 184.460423,196.508169 184.517042,196.621408 L196.916761,222.647606 C197.36081,223.581838 198.30286,224.177121 199.337254,224.177121 C200.371647,224.177121 201.313697,223.581838 201.757746,222.647606 L214.138592,196.574225 C214.138592,196.508169 214.204648,196.432676 214.242394,196.357183 L214.308451,196.215634 L214.308451,196.215634 C215.294132,194.063381 215.799677,191.722418 215.790398,189.355211 Z M200.115775,195.422958 C197.550583,195.760628 195.055265,194.426812 193.910942,192.106305 C192.766619,189.785798 193.227532,186.994162 195.057044,185.16465 C196.886556,183.335138 199.678193,182.874224 201.9987,184.018548 C204.319207,185.162871 205.653022,187.658189 205.315352,190.22338 C204.957619,192.936587 202.820188,195.070145 200.106338,195.422958 L200.115775,195.422958 Z" stroke="#1D2A38" stroke-width="1.5" fill="#FFD701" fill-rule="nonzero" stroke-linecap="round" stroke-linejoin="round"></path>
                <rect stroke="#1D2A38" stroke-width="1.5" fill="#FFD701" fill-rule="nonzero" x="50.7008451" y="183.377746" width="5.98323944" height="60.2721127"></rect>
                <rect stroke="#1D2A38" stroke-width="1.5" fill="#FFD701" fill-rule="nonzero" x="63.2421127" y="193.220141" width="5.98323944" height="50.4202817"></rect>
                <rect stroke="#1D2A38" stroke-width="1.5" fill="#FFD701" fill-rule="nonzero" x="75.7833803" y="212.612394" width="5.98323944" height="31.0280282"></rect>
                <rect stroke="#1D2A38" stroke-width="1.5" fill="#FFD701" fill-rule="nonzero" x="88.324648" y="207.139155" width="5.98323944" height="36.5012676"></rect>
                <rect stroke="#1D2A38" stroke-width="1.5" fill="#FFD701" fill-rule="nonzero" x="100.865915" y="230.372113" width="5.98323944" height="13.2683099"></rect>
                <rect stroke="#1D2A38" stroke-width="1.5" fill="#FFD701" fill-rule="nonzero" x="113.407183" y="219.114225" width="5.98323944" height="24.5356338"></rect>
                <rect stroke="#A1BCD1" stroke-width="1.58" fill="#A1BCD1" fill-rule="nonzero" stroke-linecap="round" stroke-linejoin="round" x="252.904225" y="172.88831" width="12.0411268" height="12.0411268"></rect>
                <rect stroke="#A1BCD1" stroke-width="1.58" fill="#FFFFFF" fill-rule="nonzero" stroke-linecap="round" stroke-linejoin="round" x="252.904225" y="191.837042" width="12.0411268" height="12.0411268"></rect>
                <g stroke-linecap="round" stroke-linejoin="round" transform="translate(49.000000, 104.000000)" fill-rule="nonzero" stroke="#1D2A38" stroke-width="1.5">
                    <path d="M35.7214259,72 C16.0034389,71.9796517 0.0230786538,55.8758483 0,36.0026376 L10.4102441,36.0026376 C10.4102441,50.085838 21.7377596,61.5025277 35.710958,61.5025277 C49.6841565,61.5025277 61.011672,50.085838 61.011672,36.0026376 C61.011672,21.9194371 49.6841565,10.5027475 35.710958,10.5027475 L35.710958,0 C55.2692742,0.238621477 71,16.2862696 71,36 C71,55.7137304 55.2692742,71.7613785 35.710958,72 L35.7214259,72 Z" fill="#F8F8F8"></path>
                    <path d="M36.5414208,57 C26.0720723,56.9828375 17.2849853,48.9435357 16.1274465,38.3232642 C14.9699077,27.7029928 21.8111215,17.8891572 32.0208097,15.5239692 C42.2304979,13.1587812 52.5522132,18.9966331 56,29.0863431 L50.3239361,31.0982331 C47.8930556,23.941278 40.5806011,19.792328 33.3419388,21.4629653 C26.1032765,23.1336025 21.2511112,30.0900694 22.0735668,37.6182387 C22.8960224,45.1464081 29.1303296,50.8410794 36.5517409,50.8431953 L36.5414208,57 Z" fill="#FFD701"></path>
                </g>
                <g stroke-linecap="round" stroke-linejoin="round" transform="translate(155.736761, 114.815352)" fill="#FFFFFF" fill-rule="nonzero" stroke="#AEB4BB" stroke-width="1.5">
                    <g>
                        <path d="M4.26325641e-14,1.47183099 L38.5769014,1.47183099"></path>
                        <path d="M47.6266197,1.47183099 L55.0438028,1.47183099"></path>
                        <path d="M63.178169,1.47183099 L101.509718,1.47183099"></path>
                    </g>
                    <g transform="translate(0.000000, 9.543005)">
                        <path d="M-6.96331881e-13,1.47183099 L25.5921127,1.47183099"></path>
                        <path d="M32.5374648,1.47183099 L101.509718,1.47183099"></path>
                    </g>
                    <path d="M-2.34479103e-13,20.5578404 L101.509718,20.5578404"></path>
                    <g transform="translate(0.000000, 28.572676)">
                        <path d="M5.96855898e-13,1.47183099 L79.8432394,1.47183099"></path>
                        <path d="M86.4771831,1.47183099 L101.509718,1.47183099"></path>
                    </g>
                </g>
                <polygon stroke="#1D2A38" stroke-width="1.5" fill="#FFFFFF" fill-rule="nonzero" stroke-linecap="round" stroke-linejoin="round" points="247.213944 167.896338 247.213944 212.729718 250.082676 212.729718 263.992254 201.264225 263.992254 178.908873 250.082676 167.896338"></polygon>
                <path d="M258.471831,206.992254 C258.471831,206.992254 295.897465,209.181549 301.040423,223.553521" stroke="#1D2A38" stroke-width="1.5"></path>
                <path d="M294.113944,157.299014 C294.113944,157.299014 287.791408,184.533099 261.651972,175.228592" stroke="#1D2A38" stroke-width="1.5"></path>
                <path d="M341.580141,189.430704 C341.580987,201.909364 334.866788,213.423051 324.005806,219.567643 C313.144823,225.712236 299.817606,225.536965 289.121972,219.108873 L289.121972,219.108873 C274.786261,210.493091 268.65911,192.861036 274.562796,177.212049 C280.466483,161.563061 296.712981,152.371617 313.167297,155.371582 C329.621614,158.371546 341.579007,172.705145 341.580141,189.430704 L341.580141,189.430704 Z" stroke="#1D2A38" stroke-width="1.5" fill="#FFD701" fill-rule="nonzero"></path>
                <path d="M291.745352,162.800563 C286.743944,165.895775 276.646761,196.36662 288.282113,213.588451 C288.282113,213.588451 293.283521,217.948169 289.121972,219.108873 L289.121972,219.108873 C278.199513,212.536597 271.770471,200.495418 272.3857,187.762924 C273.00093,175.03043 280.560962,163.665198 292.066197,158.17662 L292.066197,158.17662 C292.066197,158.17662 296.756197,159.714789 291.745352,162.800563 Z" stroke="#1D2A38" stroke-width="1.5" fill="#FFFFFF" fill-rule="nonzero"></path>
                <circle stroke="#1D2A38" stroke-width="1.5" fill="#FFD701" fill-rule="nonzero" cx="317.365775" cy="190.666901" r="19.4583099"></circle>
                <circle stroke="#1D2A38" stroke-width="1.5" fill="#FFFFFF" fill-rule="nonzero" opacity="0.85" cx="322.744648" cy="189.430704" r="30.744507"></circle>
                <circle stroke="#1D2A38" stroke-width="1.5" fill="#FFD701" fill-rule="nonzero" cx="274.967042" cy="186.193944" r="5.20901408"></circle>
                <polygon stroke="#1D2A38" stroke-width="1.5" fill="#FFFFFF" fill-rule="nonzero" stroke-linecap="round" stroke-linejoin="round" points="250.082676 167.896338 250.082676 212.729718 266.860986 201.264225 266.860986 178.908873"></polygon>
                <path d="M257.981127,207.331972 C258.037746,207.284789 258.05662,204.37831 259.349437,204.37831 C260.642254,204.37831 262.331408,207.331972 260.906479,209.275915 C259.019155,211.786056 255.839014,211.361408 254.687746,209.577887 L257.981127,207.331972 Z" stroke="#1D2A38" stroke-width="1.5" fill="#FFD701" fill-rule="nonzero"></path>
                <path d="M258.896479,173.718732 C258.962535,173.718732 258.971972,176.672394 260.264789,176.672394 C261.557606,176.672394 263.256197,173.718732 261.821831,171.774789 C259.934507,169.264648 256.754366,169.689296 255.603099,171.472817 L258.896479,173.718732 Z" stroke="#1D2A38" stroke-width="1.5" fill="#FFD701" fill-rule="nonzero"></path>
                <polygon stroke="#000000" fill="#FFFFFF" fill-rule="nonzero" stroke-linecap="round" stroke-linejoin="round" points="259.292817 177.474507 259.292817 188.666338 252.422958 188.288873 252.422958 173.728169"></polygon>
                <path d="M252.422958,192.091831 L252.422958,206.105211" stroke="#000000" fill="#FFFFFF" fill-rule="nonzero" stroke-linecap="round" stroke-linejoin="round"></path>
                <path d="M255.131268,191.884225 L255.131268,204.623662" stroke="#000000" fill="#FFFFFF" fill-rule="nonzero" stroke-linecap="round" stroke-linejoin="round"></path>
                <path d="M257.38662,191.723803 L257.38662,203.396901" stroke="#000000" fill="#FFFFFF" fill-rule="nonzero" stroke-linecap="round" stroke-linejoin="round"></path>
                <path d="M259.292817,191.582254 L259.292817,202.349437" stroke="#000000" fill="#FFFFFF" fill-rule="nonzero" stroke-linecap="round" stroke-linejoin="round"></path>
                <path d="M336.824085,179.880845 C337.553571,180.642537 338.096267,181.563182 338.409437,182.570282" stroke="#1D2A38" stroke-width="1.5" stroke-linecap="round"></path>
                <path d="M338.720845,177.332958 C339.96063,178.512621 340.882459,179.986248 341.400845,181.617183" stroke="#1D2A38" stroke-width="1.5" stroke-linecap="round"></path>
                <path d="M341.070563,174.520845 C342.848697,176.147921 344.166865,178.214677 344.892394,180.513099" stroke="#1D2A38" stroke-width="1.5" stroke-linecap="round"></path>
                <polygon stroke="#1D2A38" stroke-width="1.5" fill="#FFFFFF" fill-rule="nonzero" stroke-linecap="round" stroke-linejoin="round" points="88.121972 99.1977465 85.611831 99.4902817 58.1512676 67.3019718 57.1604225 40.7473239 87.140563 72.6430986"></polygon>
                <polygon stroke="#1D2A38" stroke-width="1.5" fill="#FFFFFF" fill-rule="nonzero" stroke-linecap="round" stroke-linejoin="round" points="85.611831 99.4902817 55.6316901 67.594507 54.6502817 41.0398592 84.620986 72.9356338"></polygon>
                <circle stroke="#1D2A38" stroke-width="1.5" fill="#FFFFFF" fill-rule="nonzero" cx="43.203662" cy="67.3302817" r="34.6229577"></circle>
                <path d="M77.0716901,58.884507 C75.1277465,57.4690141 73.3819718,59.9508451 72.8723944,60.771831 C69.4686891,71.6947033 60.6747747,80.0914824 49.6063758,82.9871506 C38.5379769,85.8828187 26.7586903,82.8683143 18.4419718,75.0116901 L18.4419718,75.0116901 C12.2138028,71.0105634 14.3464789,81.1077465 13.1857746,83.6273239 C12.6856338,84.7030986 11.8269014,84.6653521 10.9870423,84.2595775 C10.2190618,83.8658655 9.5997664,83.2333232 9.2223944,82.4571831 C4.6579605,73.0829459 4.2571066,62.2187789 8.1183099,52.533662 C8.9039962,50.5925498 9.8509719,48.7206946 10.9492958,46.9377465 C16.9607214,37.1605335 27.1894,30.7476176 38.6089381,29.5964097 C50.0284763,28.4452018 61.3313128,32.6875176 69.1732394,41.068169 C71.1144044,43.1301769 72.8145062,45.406477 74.2407042,47.8530986 C76.0909362,51.0486847 77.4433186,54.5076018 78.2512676,58.1107042 C78.3304307,58.4194509 78.204552,58.7443709 77.9380446,58.9191997 C77.6715372,59.0940285 77.3233647,59.0800862 77.0716901,58.884507 L77.0716901,58.884507 Z" stroke="#1D2A38" stroke-width="1.5" fill="#FFD701" fill-rule="nonzero"></path>
                <ellipse stroke="#1D2A38" stroke-width="1.5" fill="#FFD701" fill-rule="nonzero" transform="translate(41.852527, 41.044797) rotate(-4.340000) translate(-41.852527, -41.044797) " cx="41.8525274" cy="41.0447967" rx="16.6273239" ry="10.0783099"></ellipse>
                <path d="M41.4107042,39.3790141 L39.8064789,20.4019718" stroke="#1D2A38" stroke-width="1.5" fill="#FFD701" fill-rule="nonzero" stroke-linecap="round"></path>
                <ellipse stroke="#1D2A38" stroke-width="1.5" fill="#FFFFFF" fill-rule="nonzero" opacity="0.8" transform="translate(37.303484, 20.818197) rotate(-7.260000) translate(-37.303484, -20.818197) " cx="37.3034837" cy="20.8181969" rx="35.434507" ry="16.4197183"></ellipse>
                <circle stroke="#1D2A38" stroke-width="1.5" fill="#FFD701" fill-rule="nonzero" cx="53.376338" cy="90.1857746" r="5.20901408"></circle>
                <path d="M17.1585915,81.74 C17.1585915,81.74 20.2443662,100.981268 37.9852113,127.507606" stroke="#1D2A38" stroke-width="1.5" stroke-linecap="round"></path>
                <path d="M48.9883099,141.860704 C48.4456232,142.104343 47.8280192,142.120743 47.2731674,141.906247 C46.7183156,141.691752 46.2723383,141.264192 46.0346479,140.718873 L44.2228169,136.62338 C41.9831888,138.093154 39.0331682,137.863051 37.0485276,136.063781 C35.0638871,134.264511 34.5465389,131.351108 35.7903651,128.978543 C37.0341913,126.605977 39.7246303,125.374268 42.3333659,125.983093 C44.9421016,126.591918 46.809389,128.887306 46.874507,131.565352 L50.1207042,138.907042 C50.6182185,140.035514 50.1127087,141.354052 48.9883099,141.860704 L48.9883099,141.860704 Z" stroke="#1D2A38" stroke-width="1.5" fill="#FFD701" fill-rule="nonzero"></path>
                <path d="M78.241831,91.6484507 C78.241831,91.6484507 78.5532394,88.0247887 77.8171831,87.1283099 C77.0811268,86.231831 74.9861972,83.2121127 73.8726761,85.958169 C72.7591549,88.7042254 73.5046479,93.5074648 76.9773239,94.4511268 C80.45,95.3947887 80.157465,93.7339437 80.157465,93.7339437 L78.241831,91.6484507 Z" stroke="#1D2A38" stroke-width="1.5" fill="#FFD701" fill-rule="nonzero"></path>
                <path d="M84.620986,72.9356338 L87.140563,72.6430986" stroke="#000000" stroke-width="0.86" fill="#FFFFFF" fill-rule="nonzero" stroke-linecap="round" stroke-linejoin="round"></path>
                <path d="M69.2015493,42.3704225 C69.2015493,55.7232394 56.0469014,66.5376056 39.8064789,66.5376056 C25.4628169,66.5376056 13.5160563,58.0446479 10.9304225,46.9094366 C16.9418481,37.1322236 27.1705267,30.7193077 38.5900649,29.5680998 C50.0096031,28.4168919 61.3124395,32.6592078 69.1543662,41.0398592 C69.1826761,41.5211268 69.2015493,41.9269014 69.2015493,42.3704225 Z" fill="#161616" fill-rule="nonzero" style="mix-blend-mode: color-dodge;"></path>
                <ellipse fill="#FFFFFF" fill-rule="nonzero" transform="translate(35.066531, 57.682529) rotate(-76.900000) translate(-35.066531, -57.682529) " cx="35.0665313" cy="57.6825291" rx="3.60478873" ry="5.00140845"></ellipse>
                <circle fill="#161616" fill-rule="nonzero" style="mix-blend-mode: color-dodge;" cx="52.5364789" cy="88.7042254" r="2.71774648"></circle>
                <circle fill="#161616" fill-rule="nonzero" style="mix-blend-mode: color-dodge;" cx="41.4107042" cy="130.395211" r="4.10492958"></circle>
                <path d="M18.2249296,12.3525352 C25.001078,9.19110449 32.3357469,7.40153508 39.8064789,7.08690141" stroke="#000000" stroke-width="0.74" stroke-linecap="round"></path>
                <path d="M22.1694366,13.4471831 C22.1694366,13.4471831 30.6623944,9.71971831 38.5325352,9.71971831" stroke="#000000" stroke-width="0.74" stroke-linecap="round"></path>
                <path d="M27.0576056,14.0322535 C30.283158,12.9955326 33.6173798,12.3337544 36.9943662,12.06" stroke="#000000" stroke-width="0.74" stroke-linecap="round"></path>
                <rect stroke="#1D2A38" stroke-width="1.5" fill="#FFFFFF" fill-rule="nonzero" x="37.7304225" y="249.098451" width="136.104366" height="22.4969014"></rect>
                <path d="M41.5333803,249.098451 L41.5333803,254.524507" stroke="#1D2A38" fill="#FFFFFF" fill-rule="nonzero"></path>
                <path d="M45.1098592,249.098451 L45.1098592,252.297465" stroke="#1D2A38" fill="#FFFFFF" fill-rule="nonzero"></path>
                <path d="M48.686338,249.098451 L48.686338,252.297465" stroke="#1D2A38" fill="#FFFFFF" fill-rule="nonzero"></path>
                <path d="M52.2628169,249.098451 L52.2628169,252.297465" stroke="#1D2A38" fill="#FFFFFF" fill-rule="nonzero"></path>
                <path d="M55.8487324,249.098451 L55.8487324,252.297465" stroke="#1D2A38" fill="#FFFFFF" fill-rule="nonzero"></path>
                <path d="M59.4252113,249.098451 L59.4252113,254.524507" stroke="#1D2A38" fill="#FFFFFF" fill-rule="nonzero"></path>
                <path d="M63.0016901,249.098451 L63.0016901,252.297465" stroke="#1D2A38" fill="#FFFFFF" fill-rule="nonzero"></path>
                <path d="M66.578169,249.098451 L66.578169,252.297465" stroke="#1D2A38" fill="#FFFFFF" fill-rule="nonzero"></path>
                <path d="M70.1546479,249.098451 L70.1546479,252.297465" stroke="#1D2A38" fill="#FFFFFF" fill-rule="nonzero"></path>
                <path d="M73.7405634,249.098451 L73.7405634,252.297465" stroke="#1D2A38" fill="#FFFFFF" fill-rule="nonzero"></path>
                <path d="M77.3170423,249.098451 L77.3170423,252.297465" stroke="#1D2A38" fill="#FFFFFF" fill-rule="nonzero"></path>
                <path d="M80.893521,249.098451 L80.893521,254.524507" stroke="#1D2A38" fill="#FFFFFF" fill-rule="nonzero"></path>
                <path d="M84.47,249.098451 L84.47,252.297465" stroke="#1D2A38" fill="#FFFFFF" fill-rule="nonzero"></path>
                <path d="M88.046479,249.098451 L88.046479,252.297465" stroke="#1D2A38" fill="#FFFFFF" fill-rule="nonzero"></path>
                <path d="M91.632394,249.098451 L91.632394,252.297465" stroke="#1D2A38" fill="#FFFFFF" fill-rule="nonzero"></path>
                <path d="M95.208873,249.098451 L95.208873,252.297465" stroke="#1D2A38" fill="#FFFFFF" fill-rule="nonzero"></path>
                <path d="M98.785352,249.098451 L98.785352,254.524507" stroke="#1D2A38" fill="#FFFFFF" fill-rule="nonzero"></path>
                <path d="M102.361831,249.098451 L102.361831,252.297465" stroke="#1D2A38" fill="#FFFFFF" fill-rule="nonzero"></path>
                <path d="M105.93831,249.098451 L105.93831,252.297465" stroke="#1D2A38" fill="#FFFFFF" fill-rule="nonzero"></path>
                <path d="M109.524225,249.098451 L109.524225,252.297465" stroke="#1D2A38" fill="#FFFFFF" fill-rule="nonzero"></path>
                <path d="M113.100704,249.098451 L113.100704,252.297465" stroke="#1D2A38" fill="#FFFFFF" fill-rule="nonzero"></path>
                <path d="M116.677183,249.098451 L116.677183,254.524507" stroke="#1D2A38" fill="#FFFFFF" fill-rule="nonzero"></path>
                <path d="M120.253662,249.098451 L120.253662,252.297465" stroke="#1D2A38" fill="#FFFFFF" fill-rule="nonzero"></path>
                <path d="M123.839577,249.098451 L123.839577,252.297465" stroke="#1D2A38" fill="#FFFFFF" fill-rule="nonzero"></path>
                <path d="M127.416056,249.098451 L127.416056,252.297465" stroke="#1D2A38" fill="#FFFFFF" fill-rule="nonzero"></path>
                <path d="M130.992535,249.098451 L130.992535,252.297465" stroke="#1D2A38" fill="#FFFFFF" fill-rule="nonzero"></path>
                <path d="M134.569014,249.098451 L134.569014,254.524507" stroke="#1D2A38" fill="#FFFFFF" fill-rule="nonzero"></path>
                <path d="M138.145493,249.098451 L138.145493,252.297465" stroke="#1D2A38" fill="#FFFFFF" fill-rule="nonzero"></path>
                <path d="M141.731408,249.098451 L141.731408,252.297465" stroke="#1D2A38" fill="#FFFFFF" fill-rule="nonzero"></path>
                <path d="M145.307887,249.098451 L145.307887,252.297465" stroke="#1D2A38" fill="#FFFFFF" fill-rule="nonzero"></path>
                <path d="M148.884366,249.098451 L148.884366,252.297465" stroke="#1D2A38" fill="#FFFFFF" fill-rule="nonzero"></path>
                <path d="M152.460845,249.098451 L152.460845,254.524507" stroke="#1D2A38" fill="#FFFFFF" fill-rule="nonzero"></path>
                <path d="M156.037324,249.098451 L156.037324,252.297465" stroke="#1D2A38" fill="#FFFFFF" fill-rule="nonzero"></path>
                <path d="M159.623239,249.098451 L159.623239,252.297465" stroke="#1D2A38" fill="#FFFFFF" fill-rule="nonzero"></path>
                <path d="M163.199718,249.098451 L163.199718,252.297465" stroke="#1D2A38" fill="#FFFFFF" fill-rule="nonzero"></path>
                <path d="M166.776197,249.098451 L166.776197,252.297465" stroke="#1D2A38" fill="#FFFFFF" fill-rule="nonzero"></path>
                <path d="M170.352676,249.098451 L170.352676,254.524507" stroke="#1D2A38" fill="#FFFFFF" fill-rule="nonzero"></path>
                <path d="M37.7304225,267.962254 L173.834789,267.962254" stroke="#1D2A38" stroke-width="1.5" fill="#FFFFFF" fill-rule="nonzero"></path>
                <path d="M137.683099,268.679437 C137.683146,280.190015 131.488499,290.809887 121.469128,296.476068 C111.449757,302.14225 99.156332,301.977799 89.292113,296.045634 L89.292113,296.045634 C76.065819,288.094774 70.4148997,271.825134 75.864992,257.387423 C81.315084,242.949712 96.307595,234.47276 111.488622,237.245382 C126.669649,240.018003 137.697791,253.247295 137.692541,268.679437 L137.683099,268.679437 Z" stroke="#1D2A38" stroke-width="1.5" fill="#FFFFFF" fill-rule="nonzero"></path>
                <path d="M139.966761,268.066056 L139.966761,268.066056 C139.915062,271.2141 138.751851,274.242461 136.682817,276.615634 C132.662817,281.088592 123.660282,291.383944 105.749577,291.383944 C87.838873,291.383944 78.4305634,280.937606 74.7597183,276.492958 C73.2309859,274.605634 71.5323944,270.538451 71.5229577,268.132113 L71.5229577,268.132113 C71.3176756,255.770361 77.7950639,244.258763 88.467752,238.017868 C99.140439,231.776972 112.349279,231.776972 123.021967,238.017868 C133.694654,244.258763 140.172043,255.770361 139.966761,268.132113 L139.966761,268.066056 Z" stroke="#1D2A38" stroke-width="1.5" fill="#FFD701" fill-rule="nonzero"></path>
                <ellipse stroke="#1D2A38" stroke-width="1.5" fill="#FFD701" fill-rule="nonzero" cx="105.749577" cy="242.662676" rx="18.4485915" ry="8.82323944"></ellipse>
                <path d="M105.749577,242.662676 L105.749577,219.552394" stroke="#1D2A38" stroke-width="1.5" fill="#FFD701" fill-rule="nonzero" stroke-linecap="round"></path>
                <ellipse stroke="#1D2A38" stroke-width="1.5" fill="#FFFFFF" fill-rule="nonzero" opacity="0.8" cx="105.91" cy="226.799718" rx="33.1602817" ry="14.07"></ellipse>
                <ellipse fill="#000000" fill-rule="nonzero" cx="105.749577" cy="242.964648" rx="1.17957746" ry="1"></ellipse>
                <path d="M115.139296,216.15493 C115.139296,216.15493 121.546761,216.843803 125.170423,218.608451" stroke="#1D2A38" stroke-width="1.5" fill="#FFD701" fill-rule="nonzero" stroke-linecap="round"></path>
                <path d="M114.469577,219.098873 C117.11141,219.353258 119.707421,219.959418 122.188732,220.901268" stroke="#1D2A38" stroke-width="1.5" fill="#FFD701" fill-rule="nonzero" stroke-linecap="round"></path>
                <path d="M158.481408,260.894225 C158.481408,266.829859 147.39338,266.829859 147.39338,260.894225 C147.309395,258.85898 148.347325,256.941341 150.097231,255.898698 C151.847138,254.856055 154.027651,254.856055 155.777557,255.898698 C157.527464,256.941341 158.565394,258.85898 158.481408,260.894225 Z" stroke="#1D2A38" stroke-width="1.5" fill="#FFD701" fill-rule="nonzero"></path>
                <path d="M136.324225,277.32338 C136.324225,277.32338 137.598169,283.598732 144.68507,282.551268 C151.771972,281.503803 152.942113,263.149577 152.942113,263.149577" stroke="#1D2A38" stroke-width="1.5" stroke-linecap="round"></path>
                <path d="M52.8478873,260.894225 C52.8478873,266.829859 63.9264789,266.829859 63.9264789,260.894225 C63.9264789,258.915226 62.8706952,257.086554 61.1568311,256.097054 C59.4429669,255.107554 57.3313993,255.107554 55.6175351,256.097054 C53.903671,257.086554 52.8478873,258.915226 52.8478873,260.894225 L52.8478873,260.894225 Z" stroke="#1D2A38" stroke-width="1.5" fill="#FFD701" fill-rule="nonzero"></path>
                <path d="M75.0050704,277.32338 C75.0050704,277.32338 73.7216901,283.598732 66.6347887,282.551268 C59.5478873,281.503803 58.3871831,263.149577 58.3871831,263.149577" stroke="#1D2A38" stroke-width="1.5" stroke-linecap="round"></path>
                <ellipse fill="#161616" fill-rule="nonzero" style="mix-blend-mode: color-dodge;" cx="105.759014" cy="251.089577" rx="26.6584507" ry="16.1460563"></ellipse>
                <ellipse fill="#FFFFFF" fill-rule="nonzero" transform="translate(119.623326, 256.072327) rotate(-21.140000) translate(-119.623326, -256.072327) " cx="119.623326" cy="256.072327" rx="5.92619718" ry="3.64253521"></ellipse>
                <circle fill="#161616" fill-rule="nonzero" style="mix-blend-mode: color-dodge;" cx="275.939014" cy="186.071268" r="3.36887324"></circle>
            </g>
        </g>
    </g>
</svg>