<?xml version="1.0" encoding="UTF-8"?>
<svg width="420px" height="420px" viewBox="0 0 420 420" version="1.1" xmlns="http://www.w3.org/2000/svg" xmlns:xlink="http://www.w3.org/1999/xlink">
    <!-- Generator: Sketch 57.1 (83088) - https://sketch.com -->
    <title>c-3</title>
    <desc>Created with Sketch.</desc>
    <g stroke="none" stroke-width="1" fill="none" fill-rule="evenodd">
        <g>
            <g transform="translate(38.000000, 58.000000)">
                <path d="M190.450026,21.8526649 C190.450026,21.8526649 189.730132,13.4317942 186.168549,9.5386807 C182.606966,5.64556728 187.37153,0.92836412 197.791055,0.92836412 C208.21058,0.92836412 221.5381,2.50076517 227.420396,15.7525066 C227.420396,15.7525066 236.589578,15.2125858 231.474538,35.1991293 C231.474538,35.1991293 198.132058,33.6646174 190.450026,21.8526649 Z" fill="#1D2A38" fill-rule="nonzero"></path>
                <path d="M164.808522,224.758707 L139.081768,324.407256" stroke="#1D2A38" stroke-width="3" fill="#FFF5E3" fill-rule="nonzero" stroke-linecap="round"></path>
                <path d="M94.258865,224.758707 L68.3805541,324.966121" stroke="#1D2A38" stroke-width="3" fill="#FFF5E3" fill-rule="nonzero" stroke-linecap="round"></path>
                <path d="M172.282164,223.101055 L198.160475,323.30847" stroke="#1D2A38" stroke-width="3" fill="#FFF5E3" fill-rule="nonzero" stroke-linecap="round"></path>
                <path d="M107,157 L152.135488,219.924459" stroke="#2E4257" stroke-width="3" fill="#1D2A38" fill-rule="nonzero"></path>
                <path d="M156.094011,223.101055 C168.747601,222.903014 179.517637,213.834968 181.868127,201.400026 L205.634116,77.1708707 C205.634116,77.1708707 207.339129,64.5727177 215.911557,64.6385041 L301.446385,64.6385041 C292.921319,64.6385041 291.244723,77.1708707 291.244723,77.1708707 L290.752164,79.7568074 L267.459789,201.475805 C265.131928,213.873822 254.393714,222.916737 241.780396,223.101055 L194.636781,223.101055 C194.636781,223.101055 181.943905,222.248549 177.236174,238.910317 L91.549789,238.910317 C96.285937,222.248549 108.950396,223.101055 108.950396,223.101055 L156.094011,223.101055 Z" stroke="#1D2A38" stroke-width="1.5" fill="#FFD701" fill-rule="nonzero" stroke-linejoin="round"></path>
                <polygon stroke="#1D2A38" stroke-width="1.5" fill="#F3EFE5" fill-rule="nonzero" points="61.1626649 285.949736 44.3114512 316.431583 32.347942 310.644011 49.6632982 274.86715"></polygon>
                <path d="M190.374248,22.2978628 L187.892507,44.8892876 C187.420434,49.2055222 188.871818,53.5107873 191.860719,56.6602642 C194.84962,59.8097411 199.073114,61.4842316 203.408127,61.2384697 L204.137493,61.2384697 L204.137493,69.3656992 L224.976544,67.8311873 L224.976544,47.6551979 C224.980021,46.5269837 225.637838,45.5033017 226.662612,45.031372 L229.797942,43.6010554 C230.822716,43.1291258 231.480533,42.1054438 231.484011,40.9772296 L231.484011,34.4034565 C231.484011,33.1176791 230.634942,31.9864052 229.400106,31.6280739 L223.622005,31.4007388 L223.622005,25.5279156 C223.617195,24.1152118 222.591461,22.913179 221.197098,22.6862269 L218.847968,22.3168074 L218.847968,22.3168074 C218.628432,19.6005771 216.484893,17.4370419 213.770818,17.1922955 C205.975119,16.4534565 191.075198,15.9608971 190.374248,22.2978628 Z" stroke="#1D2A38" stroke-width="1.5" fill="#F3EFE5" fill-rule="nonzero"></path>
                <circle fill="#1D2A38" fill-rule="nonzero" cx="193.320132" cy="34.0435092" r="1.50609499"></circle>
                <circle fill="#1D2A38" fill-rule="nonzero" cx="204.630053" cy="34.0435092" r="1.50609499"></circle>
                <polygon fill="#1D2A38" fill-rule="nonzero" points="39.5658311 295.734617 52.1924011 302.251557 56.2465435 294.323245 42.7579947 289.132427"></polygon>
                <polygon stroke="#1D2A38" stroke-width="1.5" fill="#F3EFE5" fill-rule="nonzero" points="175.881636 280.408443 173.987177 315.18124 160.707018 315.18124 160.707018 275.435488"></polygon>
                <polygon stroke="#1D2A38" stroke-width="1.5" fill="#D5B199" fill-rule="nonzero" points="134.440343 136.609525 135.577018 150.694828 162.544644 150.694828 177.454037 118.839499 190.014301 72.8041425 184.785594 72.8041425 149.690739 129.742111"></polygon>
                <polygon stroke="#1D2A38" stroke-width="1.5" fill="#3B4D63" fill-rule="nonzero" stroke-linecap="round" stroke-linejoin="round" points="151.822005 178.117124 198.823536 185.372902 229.352744 197.677414 239.298654 150.74219 239.298654 150.74219 241.903536 137.215752 251.157968 136.562164 236.494855 101.249446 240.975251 72.8041425 190.014301 72.8041425 177.454037 118.839499 168.578496 150.74219"></polygon>
                <path d="M40.3993931,289.312401 L58.8324802,295.128391 L112.852982,214.879103 L140.654169,219.927836 L159.59876,291.301583 L177.529815,291.301583 L172.43372,209.839842 L224.010369,222.684274 L229.305383,197.715303 L198.785646,185.401319 L153.631214,187.077916 C153.631214,187.077916 123.963984,179.500079 104.536306,178.145541 C92.658047,177.302507 88.101873,190.601609 88.101873,190.601609 L40.3993931,289.312401 Z" stroke="#1D2A38" stroke-width="1.5" fill="#617181" fill-rule="nonzero" stroke-linejoin="round"></path>
                <polygon stroke="#1D2A38" stroke-width="1.5" fill="#D5B199" fill-rule="nonzero" stroke-linecap="round" stroke-linejoin="round" points="198.823536 116.083061 206.865515 103.16285 225.762744 72.7946702 226.018496 65.6809763 203.123958 65.8041161 202.659815 71.0517678 200.689578 94.2210026"></polygon>
                <polyline stroke="#1D2A38" stroke-width="1.5" stroke-linecap="round" stroke-linejoin="round" points="217.806016 85.5822691 208.977836 72.7946702 201.750475 81.698628"></polyline>
                <polygon fill="#1D2A38" fill-rule="nonzero" points="223.489393 222.504301 222.561108 223.214723 173.295699 222.977916 172.481082 209.811425"></polygon>
                <path d="M140.654169,219.889947 L133.976201,190.68686 C133.976201,190.68686 129.770501,176.023747 155.629868,178.30657 C171.73277,179.727414 198.823536,185.372902 198.823536,185.372902" stroke="#1D2A38" stroke-width="1.5" fill="#617181" fill-rule="nonzero"></path>
                <path d="M228.329736,169.611003 C228.329736,169.611003 213.44876,165.623166 205.463615,167.072427" stroke="#1D2A38" stroke-width="0.97" stroke-linecap="round" stroke-linejoin="round"></path>
                <path d="M176.440501,164.893799 L165.073747,164.893799" stroke="#1D2A38" stroke-width="0.97" fill="#F3EFE5" fill-rule="nonzero" stroke-linecap="round" stroke-linejoin="round"></path>
                <path d="M184.785594,160.176596 L176.440501,178.117124" stroke="#1D2A38" stroke-width="0.97" fill="#F3EFE5" fill-rule="nonzero" stroke-linecap="round" stroke-linejoin="round"></path>
                <polygon stroke="#1D2A38" stroke-width="1.5" fill="#F3EFE5" fill-rule="nonzero" stroke-linecap="round" stroke-linejoin="round" points="198.823536 116.083061 206.865515 103.16285 207.784327 84.3792876 213.723456 79.6620844 208.977836 72.7946702 204.544802 78.2601847 205.151029 83.8772559 200.689578 94.2210026"></polygon>
                <path d="M174.972296,324.407294 L141.108839,324.407294 C140.434535,324.410178 139.80128,324.083684 139.412565,323.532689 C139.023849,322.981695 138.928645,322.275616 139.157546,321.641346 C139.803474,319.784053 141.103074,318.225207 142.813852,317.255673 C146.60277,315.247546 153.924855,312.017493 157.49591,304.231266 C157.830046,303.514452 158.552174,303.058956 159.343008,303.065955 L164.287546,303.065955 C165.065671,303.058041 165.779766,303.496069 166.125172,304.193377 C166.788232,305.528971 168.085937,307.660237 169.91409,308.304354 C170.954812,308.664683 172.091567,308.119548 172.462137,307.082427 C172.565985,306.786624 172.70937,306.506228 172.888391,306.248865 C173.424587,305.562238 174.335393,305.288206 175.161445,305.564976 C175.987498,305.841746 176.549353,306.609195 176.563641,307.480264 L177.027784,322.275989 C177.045696,322.833407 176.837377,323.374368 176.450221,323.775797 C176.063065,324.177226 175.529996,324.404985 174.972296,324.407294 Z" stroke="#1D2A38" stroke-width="1.5" fill="#D5B199" fill-rule="nonzero"></path>
                <polygon fill="#1D2A38" fill-rule="nonzero" points="160.707018 298.614195 174.905989 298.983615 175.332243 291.282639 160.707018 291.282639"></polygon>
                <path d="M49.1233773,311.913298 L42.1138786,322.759077 C41.6497361,323.469499 41.1666491,324.407256 40.0015567,324.407256 L27.3560422,324.407256 L2.0744855,313.485699 C0.8956545,313.042316 0.2920639,311.733833 0.7199472,310.549288 C1.0435281,309.452764 2.0791739,308.723104 3.2206332,308.787441 C6.2138786,308.891636 25.2247757,310.615594 31.6375198,303.691346 C31.9813185,303.308069 32.4459555,303.054022 32.9541689,302.971451 C34.2038114,302.758986 35.4883563,302.993759 36.582058,303.634512 C37.1257655,304.02128 37.4721082,304.62738 37.5292876,305.292164 C37.6997889,306.940343 38.9501319,310.43562 46.5942744,308.446438 C47.3545801,308.245992 48.1646386,308.44583 48.7444855,308.976887 L48.7444855,308.976887 C49.5670599,309.73383 49.7268685,310.972346 49.1233773,311.913298 L49.1233773,311.913298 Z" stroke="#1D2A38" stroke-width="1.5" fill="#D5B199" fill-rule="nonzero"></path>
                <rect stroke="#334258" stroke-width="0.97" fill="#627181" fill-rule="nonzero" x="128.453852" y="136.609525" width="14.2273879" height="14.2273879" rx="7.11369393"></rect>
                <rect stroke="#334258" stroke-width="0.97" fill="#F3EFE5" fill-rule="nonzero" stroke-linecap="round" stroke-linejoin="round" x="127.108786" y="138.409261" width="13.7253562" height="12.4276517"></rect>
                <path d="M127.108786,141.468813 L140.834142,141.468813" stroke="#334258" stroke-width="0.97" fill="#F3EFE5" fill-rule="nonzero" stroke-linecap="round" stroke-linejoin="round"></path>
                <path d="M127.108786,144.907256 L140.834142,144.907256" stroke="#334258" stroke-width="0.97" fill="#F3EFE5" fill-rule="nonzero" stroke-linecap="round" stroke-linejoin="round"></path>
                <path d="M127.108786,148.345699 L140.834142,148.345699" stroke="#334258" stroke-width="0.97" fill="#F3EFE5" fill-rule="nonzero" stroke-linecap="round" stroke-linejoin="round"></path>
                <path d="M208.076324,62.3059966 L204.137493,63.8931135 L204.137493,60.5967546 L207.640935,60.3803656 C208.192169,60.3463187 208.666634,60.765582 208.70068,61.3168163 C208.727224,61.7465741 208.475698,62.1450723 208.076324,62.3059966 Z" fill="#1D2A38" fill-rule="nonzero"></path>
                <path d="M229.040158,34.2803166 C225.25124,33.9866755 224.834459,38.7891293 224.834459,38.7891293 C224.834459,38.7891293 227.344617,37.2546174 228.831768,38.7891293" stroke="#1D2A38" stroke-width="1.5" fill="#F3EFE5" fill-rule="nonzero" stroke-linecap="round" stroke-linejoin="round"></path>
                <polygon fill="#334258" fill-rule="nonzero" points="242.822348 137.215752 236.47591 101.505198 251.394776 136.571636"></polygon>
                <path d="M186.33905,160.176596 L231.219036,222.744854" stroke="#1D2A38" stroke-width="3" fill="#1D2A38" fill-rule="nonzero" stroke-linecap="round" stroke-linejoin="round"></path>
                <path d="M240.965778,223 L262.724194,307.33627" stroke="#1D2A38" stroke-width="3" fill="#FFF5E3" fill-rule="nonzero" stroke-linecap="round"></path>
                <path d="M209.252533,29.3926121 C207.90759,26.960862 205.218512,25.5919454 202.460897,25.9352243" stroke="#1D2A38" stroke-width="1.5" stroke-linecap="round" stroke-linejoin="round"></path>
                <path d="M194.542058,25.9068074 C194.542058,25.9068074 191.444617,27.0908443 190.847863,29.7525594" stroke="#1D2A38" stroke-width="1.5" stroke-linecap="round" stroke-linejoin="round"></path>
                <rect fill="#1D2A38" fill-rule="nonzero" transform="translate(196.445989, 53.210699) rotate(-180.000000) translate(-196.445989, -53.210699) " x="189.123904" y="44.7093136" width="14.6441689" height="17.0027704" rx="4.83"></rect>
                <polyline stroke="#1D2A38" stroke-width="1.5" fill="#F3EFE5" fill-rule="nonzero" stroke-linecap="round" stroke-linejoin="round" points="195.394565 37.2925066 193.699024 45.7607388 197.93314 44.9840106"></polyline>
                <path d="M213.429815,39.868971 C213.429815,39.868971 210.275541,42.9664116 206.988654,43.0327177" stroke="#1D2A38" stroke-width="1.5" fill="#F3EFE5" fill-rule="nonzero" stroke-linecap="round" stroke-linejoin="round"></path>
                <rect fill="#F3EFE5" fill-rule="nonzero" transform="translate(195.872917, 51.107850) rotate(-180.000000) translate(-195.872917, -51.107850) " x="191.539342" y="48.2898425" width="8.6671504" height="5.63601583" rx="1.06"></rect>
                <path d="M193.14963,51.91773 L197.033271,51.91773 L197.033271,53.8121891 C197.033271,54.2725527 196.660072,54.6457511 196.199709,54.6457511 L193.992664,54.6457511 C193.5323,54.6457511 193.159102,54.2725527 193.159102,53.8121891 L193.159102,51.91773 L193.14963,51.91773 Z" fill="#1D2A38" fill-rule="nonzero" transform="translate(195.091451, 53.281741) rotate(-180.000000) translate(-195.091451, -53.281741) "></path>
                <rect stroke="#1D2A38" stroke-width="1.5" fill="#F3EFE5" fill-rule="nonzero" stroke-linecap="round" stroke-linejoin="round" transform="translate(167.711781, 143.216451) rotate(-180.000000) translate(-167.711781, -143.216451) " x="159.049366" y="133.24686" width="17.3248285" height="19.9391821"></rect>
                <path d="M181.451346,142.567599 L181.451346,145.08723 C181.45135,145.905341 181.125709,146.689808 180.546329,147.267411 C179.966948,147.845014 179.181485,148.168243 178.363377,148.165726 L176.364723,148.165726 L176.364723,150.694828 L179.367441,150.694828 C180.643643,150.694828 181.867575,150.187859 182.769986,149.285448 C183.672397,148.383037 184.179367,147.159105 184.179367,145.882902 L184.179367,141.762454 C184.179367,139.103364 182.026526,136.94628 179.367441,136.941055 L176.364723,136.941055 L176.364723,139.479631 L178.363377,139.479631 C179.182357,139.479631 179.967794,139.804969 180.546901,140.384076 C181.126007,140.963182 181.451346,141.748619 181.451346,142.567599 L181.451346,142.567599 Z" stroke="#1D2A38" fill="#F3EFE5" fill-rule="nonzero" stroke-linecap="round" stroke-linejoin="round"></path>
                <path d="M190.014301,72.8041425 L190.014301,72.7946702" stroke="#334258" stroke-width="0.97"></path>
                <path d="M122.031636,115.154776 L79.3305277,115.154776 C78.7708219,115.156564 78.2601654,115.47443 78.0114619,115.975848 C77.7627584,116.477266 77.8186999,117.076165 78.1559631,117.52285 L103.920607,151.727309 C104.71766,152.786323 105.967304,153.407635 107.292744,153.403939 L150.865303,153.403939 L122.031636,115.154776 Z" stroke="#1D2A38" stroke-width="1.5" fill="#FFF5E3" fill-rule="nonzero" stroke-linecap="round" stroke-linejoin="round"></path>
                <path d="M136.116429,110.393615 C136.817437,110.393615 137.385717,110.961895 137.385717,111.662903 L137.385717,157.186755 C137.385717,157.887763 136.817437,158.456043 136.116429,158.456043 C135.415421,158.456043 134.847141,157.887763 134.847141,157.186755 L134.847141,111.662903 C134.847141,110.961895 135.415421,110.393615 136.116429,110.393615 Z" stroke="#1D2A38" stroke-width="1.5" fill="#FFF5E3" fill-rule="nonzero" transform="translate(136.116429, 134.424829) rotate(142.250000) translate(-136.116429, -134.424829) "></path>
                <path d="M94.27781,152.058839 L104.242665,133.815198 C104.514454,133.32074 105.032977,133.012528 105.597203,133.010053 L123.102005,133.010053 C123.415342,133.011813 123.704689,133.178142 123.863899,133.448022 C124.023108,133.717902 124.028742,134.051602 123.878734,134.326702 L113.951768,152.513509 C113.554867,153.224579 112.805338,153.66633 111.991003,153.669129 L95.234512,153.669129 C94.850175,153.669129 94.494273,153.466627 94.297964,153.136207 C94.101656,152.805787 94.093997,152.39637 94.27781,152.058839 L94.27781,152.058839 Z" fill="#2E4257" fill-rule="nonzero"></path>
                <ellipse stroke="#495E77" stroke-width="0.81" fill="#3B4D63" fill-rule="nonzero" cx="203.749129" cy="124.323958" rx="2.57646438" ry="2.47226913"></ellipse>
                <ellipse stroke="#495E77" stroke-width="0.81" fill="#3B4D63" fill-rule="nonzero" cx="198.596201" cy="138.096675" rx="2.57646438" ry="2.47226913"></ellipse>
                <polygon stroke="#1D2A38" stroke-width="1.5" fill="#F3EFE5" fill-rule="nonzero" stroke-linecap="round" stroke-linejoin="round" points="209.85876 142.453931 196.796464 142.520237 181.403984 138.873404 181.299789 151.158971 194.731504 153.669129 209.85876 153.432322"></polygon>
                <path d="M209.85876,139.479631 L209.962955,153.403905 L262.259499,153.403905 C270.074142,153.403905 274.213536,145.826069 272.205409,138.305066 L254.681662,72.7946702 L240.975251,72.7946702 L236.47591,101.211557 L251.139024,136.524274 L209.85876,139.479631 Z" stroke="#1D2A38" stroke-width="1.5" fill="#D5B199" fill-rule="nonzero" stroke-linecap="round" stroke-linejoin="round"></path>
                <path d="M207.083377,75.1343272 L211.620607,81.3386807" stroke="#1D2A38" fill="#F3EFE5" fill-rule="nonzero"></path>
                <path d="M205.151029,77.5118734 L208.968364,83.4415303" stroke="#1D2A38" fill="#F3EFE5" fill-rule="nonzero"></path>
                <path d="M205.018417,82.6553298 L207.680132,86.5579156" stroke="#1D2A38" fill="#F3EFE5" fill-rule="nonzero"></path>
                <path d="M203.71124,87.2020317 L207.405435,92.2507652" stroke="#1D2A38" fill="#F3EFE5" fill-rule="nonzero"></path>
                <path d="M201.845198,91.5308707 L207.159156,97.1953034" stroke="#1D2A38" fill="#F3EFE5" fill-rule="nonzero"></path>
                <path d="M200.708522,95.8786544 L206.543456,103.674354" stroke="#1D2A38" fill="#F3EFE5" fill-rule="nonzero"></path>
                <path d="M200.035989,101.798839 L204.298522,107.283298" stroke="#1D2A38" fill="#F3EFE5" fill-rule="nonzero"></path>
                <path d="M199.571847,107.283298 L201.845198,111.223773" stroke="#1D2A38" fill="#F3EFE5" fill-rule="nonzero"></path>
                <path d="M216.044169,139.043905 L216.044169,153.432322" stroke="#1D2A38" stroke-width="1.5" fill="#F3EFE5" fill-rule="nonzero" stroke-linecap="round" stroke-linejoin="round"></path>
                <rect stroke="#1D2A38" fill="#F3EFE5" fill-rule="nonzero" stroke-linecap="round" stroke-linejoin="round" transform="translate(202.366174, 147.190079) rotate(-180.000000) translate(-202.366174, -147.190079) " x="200.092823" y="140.976253" width="4.54670185" height="12.4276517"></rect>
                <circle stroke="#1D2A38" stroke-width="1.5" fill="#F3EFE5" fill-rule="nonzero" stroke-linecap="round" stroke-linejoin="round" cx="202.441953" cy="147.673166" r="4.45197889"></circle>
                <path d="M202.441953,147.673166 L200.386464,145.589261" stroke="#334258" stroke-width="0.7" fill="#F3EFE5" fill-rule="nonzero" stroke-linecap="round" stroke-linejoin="round"></path>
                <rect stroke="#334258" stroke-width="0.7" fill="#F3EFE5" fill-rule="nonzero" stroke-linecap="round" stroke-linejoin="round" transform="translate(197.407427, 147.668430) rotate(-180.000000) translate(-197.407427, -147.668430) " x="196.786991" y="146.801715" width="1.24087071" height="1.73343008" rx="0.620435355"></rect>
                <polygon stroke="#1D2A38" fill="#F3EFE5" fill-rule="nonzero" stroke-linecap="round" stroke-linejoin="round" points="181.403984 138.873404 176.412084 140.237414 176.412084 142.577071 181.38504 141.37409"></polygon>
                <polygon stroke="#1D2A38" fill="#F3EFE5" fill-rule="nonzero" stroke-linecap="round" stroke-linejoin="round" points="176.383668 142.899129 176.364723 145.901847 181.356623 144.395752 181.38504 141.506702"></polygon>
                <polygon stroke="#1D2A38" fill="#F3EFE5" fill-rule="nonzero" stroke-linecap="round" stroke-linejoin="round" points="181.299789 147.73 176.554169 147.881557 176.535224 145.769235 181.356623 144.395752"></polygon>
                <polygon stroke="#1D2A38" fill="#F3EFE5" fill-rule="nonzero" stroke-linecap="round" stroke-linejoin="round" points="181.299789 151.158971 176.658364 150.382243 176.554169 147.881557 181.299789 147.73"></polygon>
                <rect stroke="#1D2A38" stroke-width="1.5" fill="#C2BBAB" fill-rule="nonzero" stroke-linejoin="round" x="84.349156" y="152.919129" width="144.73058" height="7.99799472"></rect>
                <rect fill="#DBD3C3" fill-rule="nonzero" transform="translate(124.016082, 156.927599) rotate(-180.000000) translate(-124.016082, -156.927599) " x="85.0991558" y="153.678601" width="77.8338522" height="6.49799472"></rect>
                <ellipse stroke="#1D2A38" stroke-width="1.5" fill="#FFF5E3" fill-rule="nonzero" stroke-linecap="round" stroke-linejoin="round" transform="translate(86.441575, 120.753197) rotate(-52.990000) translate(-86.441575, -120.753197) " cx="86.441575" cy="120.753197" rx="1" ry="1.71448549"></ellipse>
                <ellipse fill="#2E4257" fill-rule="nonzero" transform="translate(90.750421, 120.750058) rotate(-52.990000) translate(-90.750421, -120.750058) " cx="90.750421" cy="120.750058" rx="1" ry="1.17456464"></ellipse>
                <path d="M176.364723,136.116966 L159.039894,136.116966" stroke="#1D2A38" fill="#F3EFE5" fill-rule="nonzero"></path>
                <path d="M32.3505667,303.529501 C33.033265,303.529501 33.5867013,304.082937 33.5867013,304.765635 L33.5867013,308.450358 C33.5867013,309.133057 33.033265,309.686493 32.3505667,309.686493 C31.6678685,309.686493 31.1144322,309.133057 31.1144322,308.450358 L31.1144322,304.765635 C31.1144322,304.082937 31.6678685,303.529501 32.3505667,303.529501 Z" stroke="#1D2A38" stroke-width="1.5" fill="#D5B199" fill-rule="nonzero" transform="translate(32.350567, 306.607997) rotate(128.920000) translate(-32.350567, -306.607997) "></path>
                <path d="M159.314591,303.535053 C159.997289,303.535053 160.550726,304.088489 160.550726,304.771187 L160.550726,308.45591 C160.550726,309.138609 159.997289,309.692045 159.314591,309.692045 C158.631893,309.692045 158.078456,309.138609 158.078456,308.45591 L158.078456,304.771187 C158.078456,304.088489 158.631893,303.535053 159.314591,303.535053 Z" stroke="#1D2A38" stroke-width="1.5" fill="#D5B199" fill-rule="nonzero" transform="translate(159.314591, 306.613549) rotate(90.000000) translate(-159.314591, -306.613549) "></path>
                <path d="M154.947864,308.072282 C155.630562,308.072282 156.183998,308.625719 156.183998,309.308417 L156.183998,312.99314 C156.183998,313.675838 155.630562,314.229274 154.947864,314.229274 C154.265166,314.229274 153.711729,313.675838 153.711729,312.99314 L153.711729,309.308417 C153.711729,308.625719 154.265166,308.072282 154.947864,308.072282 Z" stroke="#1D2A38" stroke-width="1.5" fill="#D5B199" fill-rule="nonzero" transform="translate(154.947863, 311.150778) rotate(90.000000) translate(-154.947863, -311.150778) "></path>
                <path d="M149.671793,312.10748 C150.354491,312.10748 150.907928,312.660917 150.907928,313.343615 L150.907928,317.028338 C150.907928,317.711036 150.354491,318.264472 149.671793,318.264472 C148.989095,318.264472 148.435659,317.711036 148.435659,317.028338 L148.435659,313.343615 C148.435659,312.660917 148.989095,312.10748 149.671793,312.10748 Z" stroke="#1D2A38" stroke-width="1.5" fill="#D5B199" fill-rule="nonzero" transform="translate(149.671794, 315.185976) rotate(90.000000) translate(-149.671794, -315.185976) "></path>
                <path d="M27.2868229,305.937549 C27.9695212,305.937549 28.5229575,306.490985 28.5229575,307.173683 L28.5229575,310.858406 C28.5229575,311.541104 27.9695212,312.094541 27.2868229,312.094541 C26.6041247,312.094541 26.0506884,311.541104 26.0506884,310.858406 L26.0506884,307.173683 C26.0506884,306.490985 26.6041247,305.937549 27.2868229,305.937549 Z" stroke="#1D2A38" stroke-width="1.5" fill="#D5B199" fill-rule="nonzero" transform="translate(27.286823, 309.016045) rotate(128.920000) translate(-27.286823, -309.016045) "></path>
                <path d="M20.9364282,307.305781 C21.6191265,307.305781 22.1725628,307.859217 22.1725628,308.541915 L22.1725628,312.226638 C22.1725628,312.909337 21.6191265,313.462773 20.9364282,313.462773 C20.25373,313.462773 19.7002937,312.909337 19.7002937,312.226638 L19.7002937,308.541915 C19.7002937,307.859217 20.25373,307.305781 20.9364282,307.305781 Z" stroke="#1D2A38" stroke-width="1.5" fill="#D5B199" fill-rule="nonzero" transform="translate(20.936428, 310.384277) rotate(128.920000) translate(-20.936428, -310.384277) "></path>
                <circle stroke="#1D2A38" stroke-width="1.5" fill="#F3EFE5" fill-rule="nonzero" cx="198.899314" cy="37.7755937" r="2.3207124"></circle>
                <circle stroke="#1D2A38" stroke-width="1.5" fill="#F3EFE5" fill-rule="nonzero" cx="192.505515" cy="37.6524538" r="2.3207124"></circle>
                <path d="M225.109156,40.0015831 C224.834075,39.5369795 224.739663,38.9873667 224.843931,38.4575989 C225.034753,37.5621693 225.762877,36.8802093 226.66887,36.7483633 C227.574863,36.6165174 228.467156,37.0626639 228.905275,37.866566 C229.343394,38.6704682 229.2347,39.6621431 228.63285,40.352058 L228.63285,40.352058 L224.512401,45.4197361 C224.242873,45.752062 223.768757,45.8331074 223.404142,45.6091821 L223.404142,45.6091821 C223.023216,45.386385 222.875283,44.9097119 223.06314,44.5103958 L225.109156,40.0015831 Z" stroke="#1D2A38" stroke-width="1.5" fill="#F3EFE5" fill-rule="nonzero"></path>
                <circle fill="#334258" fill-rule="nonzero" cx="228.111873" cy="38.5807388" r="1"></circle>
                <path d="M227.530067,39.3134711 L227.795291,39.3134711 C227.899919,39.3134711 227.984737,39.3982889 227.984737,39.502917 C227.984737,39.6075451 227.899919,39.6923629 227.795291,39.6923629 L227.530067,39.6923629 C227.425439,39.6923629 227.340621,39.6075451 227.340621,39.502917 C227.340621,39.3982889 227.425439,39.3134711 227.530067,39.3134711 Z" fill="#334258" fill-rule="nonzero" transform="translate(227.662679, 39.502917) rotate(-146.780000) translate(-227.662679, -39.502917) "></path>
                <polygon stroke="#1D2A38" stroke-width="1.5" fill="#F3EFE5" fill-rule="nonzero" points="181.83971 104.744723 197.705805 104.744723 198.823536 100.292744 182.957441 100.292744"></polygon>
                <path d="M176.989894,320.87409 L139.489077,320.87409" stroke="#1D2A38" stroke-width="1.5" fill="#D5B199" fill-rule="nonzero"></path>
                <path d="M36.1747493,324.407256 L1.0420053,309.905172" stroke="#1D2A38" stroke-width="1.5" fill="#D5B199" fill-rule="nonzero"></path>
                <ellipse stroke="#1D2A38" stroke-width="1.5" fill="#FFFFFF" fill-rule="nonzero" transform="translate(129.000000, 15.364011) rotate(-4.330000) translate(-129.000000, -15.364011) " cx="129" cy="15.3640106" rx="15" ry="1.36401055"></ellipse>
                <circle stroke="#1D2A38" stroke-width="1.5" fill="#FFFFFF" fill-rule="nonzero" cx="131.248179" cy="45.8270449" r="18.3762533"></circle>
                <circle stroke="#1D2A38" stroke-width="1.5" fill="#FFD700" fill-rule="nonzero" cx="126.294169" cy="45.9217678" r="3.49527704"></circle>
                <path d="M147.654195,49.2844327 C147.654195,49.2844327 153.138654,63.9949077 145.48504,66.0977573 C138.854433,67.916438 136.476887,59.9691821 136.476887,59.9691821" stroke="#1D2A38" stroke-width="1.5" stroke-linecap="round"></path>
                <path d="M113.146623,49.4170449 C113.146623,49.4170449 105.672982,63.2465963 109.291398,64.8758311 C112.341478,66.249314 113.781266,59.7323747 113.781266,59.7323747" stroke="#1D2A38" stroke-width="1.5"></path>
                <polygon stroke="#1D2A38" stroke-width="1.5" fill="#F0F3F7" fill-rule="nonzero" points="118.223773 70.0761214 135.993799 70.0761214 130.916649 47.1247493 113.146623 47.1247493"></polygon>
                <path d="M114.936887,56.3791821 C114.936887,56.3791821 116.537704,55.8392612 117.162876,56.729657 C117.788047,57.6200528 117.664908,59.9218206 114.719024,59.9691821 C111.77314,60.0165435 113.023483,54.2858047 113.96124,54.5226121 C114.898997,54.7594195 114.936887,56.3791821 114.936887,56.3791821 Z" stroke="#1D2A38" stroke-width="1.5" fill="#FFD700" fill-rule="nonzero"></path>
                <path d="M136.635099,50.7668091 L137.435099,50.7668091 C137.76647,50.7668091 138.035099,51.0354383 138.035099,51.3668091 L138.035099,58.8114909 C138.035099,59.1428618 137.76647,59.4114909 137.435099,59.4114909 L136.635099,59.4114909 C136.303728,59.4114909 136.035099,59.1428618 136.035099,58.8114909 L136.035099,51.3668091 C136.035099,51.0354383 136.303728,50.7668091 136.635099,50.7668091 Z" fill="#1D2A38" fill-rule="nonzero" transform="translate(137.035099, 55.089150) rotate(-97.480886) translate(-137.035099, -55.089150) "></path>
                <path d="M133.805699,60.158628 C133.805699,60.158628 137.499894,61.1058575 137.594617,58.7567282 C137.68934,56.4075989 136.647388,54.6552243 134.904485,54.6173351 C134.010306,54.4567513 133.128012,54.9535385 132.801636,55.801372 L133.805699,60.158628 Z" stroke="#1D2A38" stroke-width="1.5" fill="#FFD700" fill-rule="nonzero"></path>
                <path d="M114.794802,39.1639578 C124.267098,41.6741161 134.790818,40.3101055 140.94781,39.0692348 L141.042533,39.0692348 C141.679945,38.9138026 142.353111,39.0222368 142.909474,39.3699635 C143.465836,39.7176902 143.858288,40.275267 143.997889,40.9163325 C144.594644,43.3128232 143.306412,52.9177309 150.10752,50.9853826 C150.436311,50.9964377 150.724842,50.7680172 150.789525,50.4454617 C152.962165,40.6561715 147.740545,30.7306491 138.442605,26.9758021 C129.144665,23.220955 118.494846,26.737012 113.26029,35.2897889 C112.827742,35.9877733 112.751013,36.8492796 113.053403,37.6127199 C113.355792,38.3761602 114.001626,38.9514684 114.794802,39.1639578 Z" stroke="#1D2A38" stroke-width="1.5" fill="#FFD700" fill-rule="nonzero"></path>
                <path d="M135.993799,26.1490237 C131.713342,26.9149401 127.360026,27.1945691 123.016755,26.9825858" stroke="#1D2A38" fill="#FFD700" fill-rule="nonzero"></path>
                <path d="M129.789446,25.4954354 L128.468309,17.7715828" stroke="#1D2A38" stroke-width="1.5" fill="#FFD700" fill-rule="nonzero" stroke-linecap="round"></path>
                <path d="M144.746201,31.0083113 C144.746201,31.0083113 133.06686,37.2126649 114.832691,33.0637995 C114.832691,33.0637995 119.834063,25.0786544 131.248179,25.4859631 C131.248179,25.4859631 139.318575,25.1828496 144.746201,31.0083113 Z" fill="#26241B" fill-rule="nonzero" opacity="0.7" style="mix-blend-mode: color-dodge;"></path>
                <ellipse fill="#FFFFFF" fill-rule="nonzero" cx="124.371293" cy="30.4589182" rx="2.30176781" ry="1.36401055"></ellipse>
            </g>
        </g>
    </g>
</svg>