<?xml version="1.0" encoding="UTF-8"?>
<svg width="376px" height="376px" viewBox="0 0 376 376" version="1.1" xmlns="http://www.w3.org/2000/svg" xmlns:xlink="http://www.w3.org/1999/xlink">
    <!-- Generator: Sketch 57.1 (83088) - https://sketch.com -->
    <title>c-4</title>
    <desc>Created with Sketch.</desc>
    <defs>
        <circle id="path-1" cx="187.786457" cy="187.786457" r="187.786457"></circle>
    </defs>
    <g stroke="none" stroke-width="1" fill="none" fill-rule="evenodd">
        <g>
            <mask id="mask-2" fill="white">
                <use xlink:href="#path-1"></use>
            </mask>
            <use fill="#FF0000" opacity="0" xlink:href="#path-1"></use>
            <g mask="url(#mask-2)">
                <g transform="translate(54.000000, 62.000000)">
                    <g stroke="none" stroke-width="1" fill="none" fill-rule="evenodd" transform="translate(116.000000, 65.000000)">
                        <g transform="translate(0.000000, 0.060000)">
                            <g transform="translate(0.540000, 0.087240)">
                                <path d="M79.86,172.18276 C79.86,172.18276 36.8,178.18276 28.17,241.25276 C20.6,296.56276 68.97,330.07276 114.79,329.25276 C160.61,328.43276 224.66,335.54276 241.16,303.31276 C257.66,271.08276 235.87,168.58276 172.1,165.61276 L143.99,155.67276" stroke="#334258" stroke-width="0.96" fill="#3B4D63" fill-rule="nonzero"></path>
                                <path d="M63.18,178.91276 C63.18,178.91276 27.11,179.66276 7.2475359e-13,265.00276 L73.63,265.00276 C73.63,265.00276 98.16,194.65276 63.18,178.91276 Z" stroke="#1D2A38" stroke-width="1.5" fill="#3B4D63" fill-rule="nonzero"></path>
                                <ellipse stroke="#2E4257" stroke-width="1.5" cx="65.34" cy="61.05276" rx="10.92" ry="21.14"></ellipse>
                                <path d="M70.64,21.13276 C70.64,21.13276 73.94,3.82275999 98.69,0.652759989 C123.44,-2.51724001 169.64,5.18275999 178.44,38.73276 C187.24,72.28276 161.39,110.23276 161.39,110.23276 L127.18,132.91276 L70.64,21.13276 Z" fill="#1D2A38" fill-rule="nonzero"></path>
                                <path d="M70.64,21.13276 C70.64,21.13276 61.46,79.49276 63.46,126.66276 C63.6639414,131.918458 67.9803508,136.075981 73.24,136.08276 L100.88,136.08276 L100.88,164.98276 L153.68,164.98276 L153.68,129.48276 L161.38,110.23276 C161.38,110.23276 117.72,123.66276 130.58,75.58276 C140.81,37.32276 108.58,51.26276 107.58,61.67276 L104.64,61.34276 C104.64,61.34276 104.03,17.46276 70.64,21.13276 Z" stroke="#1D2A38" stroke-width="1.5" fill="#FFFFFF" fill-rule="nonzero" stroke-linecap="round" stroke-linejoin="round"></path>
                                <path d="M54.43,61.05276 L107.71,61.05276" stroke="#2E4257" stroke-width="1.5"></path>
                                <path d="M70.64,135.72276 C71.04,135.82276 109.47,133.00276 109.47,133.00276 L108.25,165.00276 L100.89,165.00276 L100.89,136.10276 L70.64,135.72276 Z" fill="#334258" fill-rule="nonzero"></path>
                                <path d="M104.64,119.36276 C104.64,119.36276 118.81,112.04276 115.03,101.36276" stroke="#2E4257" stroke-width="1.5" stroke-linecap="round"></path>
                                <path d="M79.86,172.18276 C79.86,172.18276 107.71,144.57276 165.86,153.11276 C169.857414,156.025209 172.191648,160.697404 172.12,165.64276 C172.12,165.64276 117.15,165.64276 79.86,172.18276 Z" stroke="#1D2A38" stroke-width="1.5" fill="#3B4D63" fill-rule="nonzero"></path>
                                <path d="M144.77,166.25276 C144.77,166.25276 170.93,182.93276 163.77,265.01276" stroke="#1D2A38" stroke-width="1.5" fill="#3B4D63" fill-rule="nonzero"></path>
                            </g>
                        </g>
                    </g>
                    <ellipse stroke="#1D2A38" stroke-width="1.5" fill="#FFFFFF" fill-rule="nonzero" cx="51.92" cy="9.45" rx="30.95" ry="2.08"></ellipse>
                    <circle stroke="#2E4257" stroke-width="0.64" fill="#FFFFFF" fill-rule="nonzero" cx="52.07" cy="54.01" r="27.94"></circle>
                    <path d="M82.09,53.78 L82.09,53.78 C82.089357,54.542887 81.533687,55.191876 80.78,55.31 C77.14,55.83 76.53,51.58 75.91,46.47 C75.23,40.79 70.76,42.62 70.76,42.62 C49.1,49.62 36.38,42.51 32.42,42.51 C28.46,42.51 29.5,48.06 28.13,53.06 C27.26,56.24 25.07,56.9 23.57,56.95 C22.7138358,56.984116 21.988439,56.325473 21.94,55.47 C21.94,54.91 21.94,54.34 21.94,53.77 C21.94,37.146229 35.416229,23.67 52.04,23.67 C68.663771,23.67 82.14,37.146229 82.14,53.77 L82.09,53.78 Z" stroke="#1D2A38" stroke-width="1.5" fill="#FFD700" fill-rule="nonzero"></path>
                    <circle stroke="#1D2A38" stroke-width="1.5" fill="#FFD700" fill-rule="nonzero" stroke-linejoin="round" cx="52.04" cy="53.77" r="4.68"></circle>
                    <rect stroke="#1D2A38" stroke-width="1.5" fill="#FFFFFF" fill-rule="nonzero" x="5.26" y="54.38" width="95.68" height="41.07"></rect>
                    <path d="M5.26,65.2 C5.26,65.2 1.26,66.09 0.72,69.11 C0.18,72.13 0.59,78.82 7.02,77.81 C13.45,76.8 11.43,67.73 5.38,68.73 L5.26,65.2 Z" stroke="#1D2A38" stroke-width="1.5" fill="#FFD700" fill-rule="nonzero"></path>
                    <path d="M101,65.2 C101,65.2 105,66.09 105.54,69.11 C106.08,72.13 105.67,78.82 99.24,77.81 C92.81,76.8 94.83,67.73 100.88,68.73 L101,65.2 Z" stroke="#1D2A38" stroke-width="1.5" fill="#FFD700" fill-rule="nonzero"></path>
                    <path d="M39.56,26.34 C47.780725,27.5725283 56.139275,27.5725283 64.36,26.34" stroke="#1D2A38" stroke-width="1.5" fill="#FFD700" fill-rule="nonzero"></path>
                    <path d="M51.99,23.69 L51.99,9.5" stroke="#1D2A38" stroke-width="1.5" fill="#FFD700" fill-rule="nonzero" stroke-linecap="round"></path>
                    <g stroke="none" stroke-width="1" fill="none" fill-rule="evenodd" transform="translate(15.000000, 63.000000)" font-family="Helvetica-Bold, Helvetica" font-size="18.73" font-weight="bold">
                        <text fill="#272E33">
                            <tspan x="0.6" y="18.62">WE</tspan>
                        </text>
                    </g>
                    <path d="M29.71,33.55 C29.71,33.55 34.4,30.96 38.14,32.82 C41.88,34.68 55.14,37.06 66.56,33.33 C66.56,33.33 71.03,31.33 73.92,33.18 C73.92,33.18 65.59,21.53 47.37,24.04 C40.590124,25.1595427 34.3763653,28.5056834 29.71,33.55 L29.71,33.55 Z" stroke="none" fill="#26241B" fill-rule="nonzero" opacity="0.7" style="mix-blend-mode: color-dodge;"></path>
                    <ellipse stroke="none" fill="#FFFFFF" fill-rule="nonzero" transform="translate(61.409352, 31.270158) rotate(-22.150000) translate(-61.409352, -31.270158) " cx="61.4093521" cy="31.2701583" rx="1.59" ry="2.14"></ellipse>
                    <ellipse stroke="#1D2A38" stroke-width="1.5" fill="#FFFFFF" fill-rule="nonzero" cx="134.07" cy="1.82" rx="18.65" ry="1.26"></ellipse>
                    <circle stroke="#2E4257" stroke-width="0.39" fill="#FFFFFF" fill-rule="nonzero" cx="134.16" cy="28.67" r="16.84"></circle>
                    <path d="M152.26,28.54 L152.26,28.54 C152.26024,29.0052654 151.920076,29.4007052 151.46,29.47 C149.27,29.78 148.9,27.22 148.53,24.14 C148.12,20.72 145.43,21.82 145.43,21.82 C132.38,26.04 124.71,21.75 122.33,21.75 C119.95,21.75 120.57,25.07 119.74,28.11 C119.508343,29.4515473 118.35133,30.4360605 116.99,30.45 C116.738935,30.4663878 116.49178,30.3814433 116.303836,30.2141733 C116.115892,30.0469033 116.002849,29.8112709 115.99,29.56 C115.99,29.22 115.99,28.8866667 115.99,28.56 C115.99,18.5415546 124.111555,10.42 134.13,10.42 C144.148445,10.42 152.27,18.5415546 152.27,28.56 L152.26,28.54 Z" stroke="#1D2A38" stroke-width="1.5" fill="#FFD700" fill-rule="nonzero"></path>
                    <circle stroke="#1D2A38" stroke-width="1.5" fill="#FFD700" fill-rule="nonzero" stroke-linejoin="round" cx="134.15" cy="29.32" r="2.82"></circle>
                    <rect stroke="#1D2A38" stroke-width="1.5" fill="#FFFFFF" fill-rule="nonzero" x="105.96" y="30.29" width="57.65" height="24.75"></rect>
                    <path d="M106,35.42 C106,35.42 103.57,35.95 103.26,37.77 C102.95,39.59 103.19,43.62 107.06,43.01 C110.93,42.4 109.72,36.94 106.06,37.55 L106,35.42 Z" stroke="#1D2A38" stroke-width="1.5" fill="#FFD700" fill-rule="nonzero"></path>
                    <path d="M163.66,35.42 C163.66,35.42 166.09,35.95 166.4,37.77 C166.71,39.59 166.47,43.62 162.6,43.01 C158.73,42.4 159.94,36.94 163.6,37.55 L163.66,35.42 Z" stroke="#1D2A38" stroke-width="1.5" fill="#FFD700" fill-rule="nonzero"></path>
                    <path d="M126.63,12 C131.582357,12.742057 136.617643,12.742057 141.57,12" stroke="#1D2A38" stroke-width="1.5" fill="#FFD700" fill-rule="nonzero"></path>
                    <path d="M134.11,10.4 L134.11,1.85" stroke="#1D2A38" stroke-width="1.5" fill="#FFD700" fill-rule="nonzero" stroke-linecap="round"></path>
                    <path d="M120.69,16.34 C120.69,16.34 123.52,14.78 125.77,15.91 C128.02,17.04 136.01,18.46 142.9,16.21 C142.9,16.21 145.59,15 147.33,16.12 C147.33,16.12 142.33,9.12 131.33,10.61 C127.246163,11.2875854 123.503334,13.3032253 120.69,16.34 L120.69,16.34 Z" stroke="none" fill="#26241B" fill-rule="nonzero" opacity="0.7" style="mix-blend-mode: color-dodge;"></path>
                    <ellipse stroke="none" fill="#FFFFFF" fill-rule="nonzero" transform="translate(139.769027, 14.991113) rotate(-22.150000) translate(-139.769027, -14.991113) " cx="139.769027" cy="14.9911133" rx="1" ry="1.29"></ellipse>
                    <path d="M145.69,47.48 L145.69,46.99 C145.692709,46.761094 145.602973,46.540772 145.4411,46.3788997 C145.279228,46.2170274 145.058906,46.1272908 144.83,46.13 L133,46.13 C132.527291,46.1245971 132.145403,45.7427088 132.14,45.27 L132.14,39.8 C132.14,39.3250351 132.525035,38.94 133,38.94 L144.8,38.94 C145.028086,38.94 145.246831,38.8493931 145.408112,38.6881118 C145.569393,38.5268305 145.66,38.3080862 145.66,38.08 L145.66,37.71 C145.658,37.3683177 145.858468,37.0578616 146.170706,36.9190889 C146.482945,36.7803162 146.84772,36.8395533 147.1,37.07 L152.2,41.72 C152.368681,41.8821474 152.464013,42.1060236 152.464013,42.34 C152.464013,42.5739764 152.368681,42.7978526 152.2,42.96 L147.11,48.09 C146.858685,48.2964421 146.513209,48.3454693 146.21438,48.2170992 C145.915551,48.0887291 145.713277,47.8044005 145.69,47.48 L145.69,47.48 Z" stroke="none" fill="#272E33" fill-rule="nonzero"></path>
                    <rect stroke="none" fill="#272E33" fill-rule="nonzero" x="125.39" y="38.94" width="4.94" height="7.19" rx="0.86"></rect>
                    <rect stroke="none" fill="#272E33" fill-rule="nonzero" x="118.61" y="38.94" width="4.94" height="7.19" rx="0.86"></rect>
                    <path d="M203.41,36.82 C203.41,36.82 205.32,49.25 200.84,49.25 C196.36,49.25 196.84,40.66 196.84,40.66" stroke="#1D2A38" stroke-width="1.5" fill="none" stroke-linecap="round"></path>
                    <path d="M237.99,32.72 L263.6,32.72" stroke="#1D2A38" stroke-width="1.5" fill="#FFD700" fill-rule="nonzero" stroke-linecap="round"></path>
                    <ellipse stroke="#1D2A38" stroke-width="1.5" fill="#FFFFFF" fill-rule="nonzero" cx="219.86" cy="2.11" rx="15" ry="1.37"></ellipse>
                    <circle stroke="#1D2A38" stroke-width="1.5" fill="#FFFFFF" fill-rule="nonzero" cx="220.36" cy="33.49" r="18.42"></circle>
                    <path d="M240.16,33.34 L240.16,33.34 C240.164285,33.8452593 239.790992,34.2743321 239.29,34.34 C236.89,34.68 236.49,31.88 236.08,28.51 C235.63,24.77 232.69,25.98 232.69,25.98 C218.41,30.59 210.02,25.9 207.41,25.9 C204.8,25.9 205.49,29.53 204.58,32.85 C204.329642,34.3174829 203.068521,35.3978431 201.58,35.42 C201.302878,35.4394471 201.030156,35.3427396 200.827192,35.1530542 C200.624229,34.9633688 200.509318,34.6978025 200.509994,34.42 C200.509994,34.05 200.509994,33.68 200.509994,33.3 C200.509994,22.3371477 209.397148,13.45 220.36,13.45 C231.322852,13.45 240.21,22.3371477 240.21,33.3 L240.16,33.34 Z" stroke="#1D2A38" stroke-width="1.5" fill="#FFD700" fill-rule="nonzero"></path>
                    <circle stroke="#1D2A38" stroke-width="1.5" fill="#FFD700" fill-rule="nonzero" cx="220.35" cy="35.02" r="3.08"></circle>
                    <path d="M212.12,15.25 C217.539483,16.0656422 223.050517,16.0656422 228.47,15.25" stroke="#1D2A38" stroke-width="1.5" fill="#FFD700" fill-rule="nonzero"></path>
                    <path d="M220.31,13.5 L220.31,4.14" stroke="#1D2A38" stroke-width="1.5" fill="#FFD700" fill-rule="nonzero" stroke-linecap="round"></path>
                    <path d="M205.62,20 C205.62,20 208.72,18.29 211.18,19.52 C213.64,20.75 222.38,22.32 229.92,19.86 C229.92,19.86 232.87,18.53 234.77,19.76 C234.77,19.76 229.28,12.08 217.26,13.76 C212.795412,14.4917407 208.700728,16.6868289 205.62,20 L205.62,20 Z" stroke="none" fill="#26241B" fill-rule="nonzero" opacity="0.7" style="mix-blend-mode: color-dodge;"></path>
                    <ellipse stroke="none" fill="#FFFFFF" fill-rule="nonzero" transform="translate(226.504766, 18.517524) rotate(-22.150000) translate(-226.504766, -18.517524) " cx="226.504766" cy="18.5175235" rx="1.05" ry="1.41"></ellipse>
                    <path d="M198.37,32.64 C197.732627,32.487418 197.063105,32.5435037 196.46,32.8 C195.84628,33.0314352 195.309432,33.4297422 194.91,33.95 C194.05,35.13 193.08,40.15 195.84,40.56 C198.6,40.97 199.73,40.47 200.21,38.56 C200.49,37.48 200.15,37.06 199.81,36.91 C199.552527,36.7763917 199.439699,36.4682861 199.55,36.2 C199.93,35.18 200.39,33.16 198.37,32.64 Z" stroke="#1D2A38" stroke-width="1.5" fill="#FFD700" fill-rule="nonzero"></path>
                    <path d="M193.3,35.89 C193.3,35.89 193.67,32.82 195.86,32.21" stroke="#2E4257" stroke-width="0.17" fill="none" stroke-linejoin="round"></path>
                    <path d="M192.8,34.89 C192.8,34.89 193.3,32.67 194.42,32.21" stroke="#1D2A38" stroke-width="1.5" fill="none" stroke-linejoin="round"></path>
                    <path d="M274.11,30.48 C274.11,30.48 264.79,29.68 263.6,31.2 C262.880341,32.0203332 262.625138,33.1493355 262.921996,34.1994454 C263.218854,35.2495554 264.02737,36.0778523 265.07,36.4 C267.75,37.27 270.2,35.8 270.13,32.74 C270.13,32.74 275.85,33.06 274.11,30.48 Z" stroke="#1D2A38" stroke-width="1.5" fill="#FFD700" fill-rule="nonzero"></path>
                    <path d="M70,149.77 C69.268036,148.155119 67.582992,147.19166 65.82,147.38 C64.727049,147.543832 63.76152,148.180203 63.18,149.12 C61.06,152.32 61.65,160.34 67.09,163.72 C71.64,166.54 78.65,162.45 78.25,157.88 C77.85,153.31 73.81,157.32 73.81,157.32 L70,149.77 Z" stroke="#1D2A38" stroke-width="1.5" fill="#FFD700" fill-rule="nonzero" stroke-linecap="round" stroke-linejoin="round"></path>
                    <path d="M76.26,200.42 L70.23,161.62" stroke="#1D2A38" stroke-width="1.5" fill="#FFD700" fill-rule="nonzero" stroke-linecap="round" stroke-linejoin="round"></path>
                    <circle stroke="#1D2A38" stroke-width="1.5" fill="#FFFFFF" fill-rule="nonzero" cx="98.38" cy="225.09" r="35.87"></circle>
                    <path d="M124.18,220.67 C119.18,219.04 114.43,224.15 119.18,234.88 C122.06,241.29 116.78,259.88 86.83,258.31 C79.597359,257.952541 72.827558,254.64535 68.1,249.16 C62.288361,242.352327 59.03463,233.72994 58.9,224.78 C58.633453,208.933212 68.088095,194.536388 82.736064,188.48422 C97.384034,182.432051 114.24334,185.956621 125.24,197.37 C127.757308,200.012978 129.133149,203.540591 129.07,207.19 C129.06,213.22 128.28,222.06 124.18,220.67 Z" stroke="#1D2A38" stroke-width="1.5" fill="#FFD700" fill-rule="nonzero"></path>
                    <path d="M124.82,236.32 C124.82,236.32 142.65,261.32 161.41,252.88" stroke="#1D2A38" stroke-width="1.5" fill="none" stroke-linecap="round" stroke-linejoin="round"></path>
                    <path d="M167.69,257.24 C167.46,257.03 161.91,258.63 161.26,253.69 C160.61,248.75 168.5,246.95 170.39,247.76 C173.39,249.03 176.71,250.53 177.25,253.23 C177.79,255.93 173.32,262.4 167.69,257.24 Z" stroke="#1D2A38" stroke-width="1.5" fill="#FFD700" fill-rule="nonzero" stroke-linecap="round" stroke-linejoin="round"></path>
                    <ellipse stroke="#2E4257" stroke-width="1.5" fill="#FFD700" fill-rule="nonzero" transform="translate(79.916286, 210.779269) rotate(-55.770000) translate(-79.916286, -210.779269) " cx="79.916286" cy="210.779269" rx="19.2" ry="15.78"></ellipse>
                    <ellipse stroke="none" fill="#26241B" fill-rule="nonzero" opacity="0.7" style="mix-blend-mode: color-dodge;" transform="translate(83.286847, 214.893907) rotate(-65.710000) translate(-83.286847, -214.893907) " cx="83.286847" cy="214.893907" rx="26.9" ry="21.47"></ellipse>
                    <path d="M82.39,212.07 L56.33,200.42" stroke="#2E4257" stroke-width="2.1" fill="none" stroke-linecap="round"></path>
                    <ellipse stroke="#1D2A38" stroke-width="1.5" fill="#FFFFFF" fill-rule="nonzero" opacity="0.8" transform="translate(56.025071, 203.810451) rotate(-55.770000) translate(-56.025071, -203.810451) " cx="56.025071" cy="203.810451" rx="33" ry="24.05"></ellipse>
                    <ellipse stroke="none" fill="#FFFFFF" fill-rule="nonzero" cx="80.18" cy="235.36" rx="5.44" ry="3.26"></ellipse>
                </g>
            </g>
        </g>
    </g>
</svg>