<?xml version="1.0" encoding="UTF-8"?>
<svg width="420px" height="420px" viewBox="0 0 420 420" version="1.1" xmlns="http://www.w3.org/2000/svg" xmlns:xlink="http://www.w3.org/1999/xlink">
    <!-- Generator: Sketch 57.1 (83088) - https://sketch.com -->
    <title>c-5</title>
    <desc>Created with Sketch.</desc>
    <g stroke="none" stroke-width="1" fill="none" fill-rule="evenodd">
        <g>
            <circle fill-opacity="0" fill="#FF0000" fill-rule="nonzero" cx="210" cy="210" r="210"></circle>
            <g transform="translate(64.000000, 62.000000)">
                <path d="M267.003342,175.311671 C267.075116,174.522159 267.111003,173.732648 267.111003,172.934165 L267.111003,175.320643 L267.003342,175.311671 Z" stroke="#334258" stroke-width="0.86" fill="#F3EFE5" fill-rule="nonzero"></path>
                <path d="M145.723599,55.8621594 C182.678123,55.8621594 216.384884,61.7296658 241.945321,71.365296 C243.443512,71.929511 244.443678,73.353235 244.46639,74.953985 L244.46639,122.791208 C244.468794,124.04603 243.860767,125.223628 242.836309,125.948245 C241.811851,126.672861 240.498976,126.85395 239.316607,126.433728 C214.106067,117.372288 181.431054,111.899537 145.723599,111.899537 C110.016144,111.899537 77.314216,117.327429 52.1216195,126.379897 C50.9392507,126.80012 49.6263753,126.619031 48.6019175,125.894414 C47.5774597,125.169798 46.9694325,123.992199 46.9718366,122.737378 L46.9718366,74.989871 C46.995974,73.386861 48.0001568,71.962488 49.5018766,71.401183 C75.062314,61.7296658 108.769075,55.8621594 145.723599,55.8621594 Z" stroke="#334258" stroke-width="1.5" fill="#FFFFFF" fill-rule="nonzero" opacity="0.8"></path>
                <circle stroke="#334258" stroke-width="1.5" fill-opacity="0.203015734" fill="#FFD701" fill-rule="nonzero" cx="78.193445" cy="91.497841" r="20.6977635"></circle>
                <path d="M111.110694,73.249357 C122.609514,72.0528 134.16269,71.45388 145.723599,71.4550094 C170.844422,71.4550094 194.395193,74.14653 214.949409,78.901542" stroke="#334258" stroke-width="2" opacity="0.5" stroke-linecap="round" stroke-linejoin="round"></path>
                <path d="M111.110694,86.482648 C135.638322,83.971256 160.366426,84.136712 184.858252,86.976093 C194.975875,88.157502 205.021276,89.891637 214.949409,92.17072" stroke="#334258" stroke-width="1.5" opacity="0.5" stroke-linecap="round" stroke-linejoin="round"></path>
                <path d="M111.110694,99.715938 C122.609508,98.519301 134.162688,97.92038 145.723599,97.921594 C158.808073,97.905295 171.881964,98.666241 184.876195,100.200411 C194.988236,101.375293 205.027859,103.106469 214.949409,105.386067" stroke="#334258" stroke-width="1.5" opacity="0.5" stroke-linecap="round" stroke-linejoin="round"></path>
                <path d="M34.7524232,84.275604 L34.7524232,131.439949 C34.7578961,132.861286 33.9778481,134.169419 32.7247558,134.840231 C27.2703677,137.666514 22.107636,141.023191 17.3113368,144.861645 L17.2036761,144.951362 C6.9489974,136.562802 1.1622365,127.007918 1.1622365,116.950617 C1.1622365,116.421285 1.1622365,115.882982 1.2160668,115.35365 C1.987635,102.515116 12.1615681,90.645527 28.9207455,80.956067 C30.1145134,80.251789 31.593921,80.24031 32.7984738,80.925979 C34.0030267,81.611647 34.7484635,82.889576 34.7524232,84.275604 Z" stroke="#334258" stroke-width="1.5" fill="#FFFFFF" fill-rule="nonzero" opacity="0.8"></path>
                <polygon stroke="#334258" stroke-width="0.86" fill="#F3EFE5" fill-rule="nonzero" points="17.3292802 145.050051 17.2036761 144.951362 17.3113368 144.861645"></polygon>
                <path d="M17.9931877,120.099692 L16.6743445,120.234267 L15.8220308,120.844344 C15.7837483,120.864525 15.7597866,120.904243 15.7597866,120.947519 C15.7597866,120.990795 15.7837483,121.030514 15.8220308,121.050694 L16.7192031,121.418535 L18.0559897,121.257044 L17.9931877,120.099692 Z" fill="#1D2A38" fill-rule="nonzero"></path>
                <path d="M16.7281748,121.651799 L15.7682005,121.266015 C15.6613466,121.219887 15.5864554,121.121166 15.5708226,121.005835 C15.5585137,120.892509 15.61042,120.781776 15.7053985,120.71874 L16.6025707,120.072776 L18.1726221,119.920257 L18.3071979,121.472365 L16.7281748,121.651799 Z M16.0552956,120.952005 L16.7820051,121.248072 L17.8765553,121.122468 L17.8137532,120.359871 L16.7461183,120.45856 L16.0552956,120.952005 Z" fill="#2D4256" fill-rule="nonzero"></path>
                <path d="M21.2242931,124.2677 C25.6234799,132.002192 30.5345662,133.358527 35.9575521,128.336705" stroke="#1D2A38"></path>
                <circle stroke="#1D2A38" stroke-width="1.5" fill="#FFFFFF" fill-rule="nonzero" cx="48.7841388" cy="115.066555" r="18.1228792"></circle>
                <path d="M68.5578149,114.716658 L68.5578149,114.716658 C68.5519996,115.817998 67.9744333,116.837233 67.0326221,117.408175 C60.1961697,121.526195 59.1105913,115.290848 58.3300514,112.267378 C57.5495116,109.243907 53.4942931,110.724242 52.8214139,110.984422 L52.5881491,111.056195 C40.5929563,114.644884 34.5819023,114.77946 31.5763753,114.187326 C30.7216945,114.018864 29.970129,113.515016 29.4896426,112.788386 C29.0091562,112.061756 28.8398042,111.172918 29.0194344,110.320514 C29.2383122,109.31693 29.5383564,108.332785 29.9166067,107.377789 C33.4108132,98.406974 42.8009332,93.199081 52.2610979,94.98522 C61.7212626,96.771359 68.5660765,105.04451 68.5488432,114.671799 L68.5578149,114.716658 Z" stroke="#1D2A38" stroke-width="1.5" fill="#FFD701" fill-rule="nonzero"></path>
                <circle stroke="#1D2A38" stroke-width="1.5" fill="#FFD701" fill-rule="nonzero" cx="34.5370437" cy="120.027918" r="2.90683805"></circle>
                <rect stroke="#1D2A38" stroke-width="1.5" fill="#FFFFFF" fill-rule="nonzero" stroke-linejoin="round" x="45.3300257" y="126.056915" width="20.1056298" height="12.7577892"></rect>
                <rect fill="#FFFFFF" fill-rule="nonzero" x="47.1512853" y="127.860231" width="2.21601542" height="9.1062982"></rect>
                <path d="M49.6633676,137.262596 L46.8552185,137.262596 L46.8552185,127.564165 L49.6633676,127.564165 L49.6633676,137.262596 Z M47.4473522,136.670463 L49.0712339,136.670463 L49.0712339,128.174242 L47.4473522,128.174242 L47.4473522,136.670463 Z" fill="#1D2A38" fill-rule="nonzero"></path>
                <path d="M51.0808997,127.680797 L51.0808997,137.244653" fill="#FFFFFF" fill-rule="nonzero"></path>
                <rect fill="#1D2A38" fill-rule="nonzero" x="50.7848329" y="127.680797" width="1" height="9.56385604"></rect>
                <path d="M52.6778663,127.680797 L52.6778663,137.244653" fill="#FFFFFF" fill-rule="nonzero"></path>
                <rect fill="#1D2A38" fill-rule="nonzero" x="52.3817995" y="127.680797" width="1" height="9.56385604"></rect>
                <path d="M54.2838046,127.680797 L54.2838046,137.244653" fill="#FFFFFF" fill-rule="nonzero"></path>
                <rect fill="#1D2A38" fill-rule="nonzero" x="53.9877378" y="127.680797" width="1" height="9.56385604"></rect>
                <path d="M56.9125193,134.777429 C56.3421098,133.750197 55.1007948,133.301944 54.0056812,133.727738 C51.8704113,134.301928 52.0498458,138.626298 52.7944987,139.514499 C53.5391517,140.402699 56.0422622,140.555219 56.9573779,140.016915 C57.8724936,139.478612 57.7468895,138.904422 57.7468895,138.904422 L57.0381234,138.904422 C57.1671681,137.528859 57.1249775,136.142598 56.9125193,134.777429 L56.9125193,134.777429 Z" stroke="#1D2A38" stroke-width="1.5" fill="#FFD701" fill-rule="nonzero"></path>
                <rect fill="#FFFFFF" fill-rule="nonzero" x="61.6765039" y="127.860231" width="2.15321337" height="3.29262211"></rect>
                <path d="M64.1257841,131.44892 L61.380437,131.44892 L61.380437,127.564165 L64.1257841,127.564165 L64.1257841,131.44892 Z M61.9725707,130.856787 L63.5336504,130.856787 L63.5336504,128.16527 L61.9725707,128.16527 L61.9725707,130.856787 Z" fill="#1D2A38" fill-rule="nonzero"></path>
                <path d="M21.2947815,124.083136 C18.4686889,125.375064 15.9924936,119.498586 18.3251414,118.430951 C19.889093,117.644235 21.7951854,118.234688 22.6405398,119.767738 C23.0501453,120.515394 23.138157,121.397459 22.8843574,122.211309 C22.6305578,123.02516 22.0567633,123.70084 21.2947815,124.083136 L21.2947815,124.083136 Z" stroke="#1D2A38" stroke-width="1.5" fill="#FFD701" fill-rule="nonzero"></path>
                <path d="M20.256692,119.654967 L27.9903167,119.654967 C28.2231992,119.654967 28.4119877,119.938149 28.4119877,120.287473 L28.4119877,120.287473 C28.4119877,120.636797 28.2231992,120.919979 27.9903167,120.919979 L20.256692,120.919979 C20.2269624,120.919979 20.2028617,120.883828 20.2028617,120.839234 L20.2028617,119.735712 C20.2028617,119.691118 20.2269624,119.654967 20.256692,119.654967 L20.256692,119.654967 Z" fill="#1D2A38" fill-rule="nonzero" transform="translate(24.307425, 120.287473) rotate(-6.960000) translate(-24.307425, -120.287473) "></path>
                <path d="M37.4528535,98.038226 C42.4160928,97.85338 47.3108552,96.818591 51.9242416,94.978869" stroke="#1D2A38"></path>
                <path d="M44.6840617,95.050643 L43.5,89.5" stroke="#1D2A38" stroke-width="1.5" stroke-linecap="round"></path>
                <ellipse stroke="#1D2A38" stroke-width="1.5" fill="#FFFFFF" fill-rule="nonzero" transform="translate(43.000000, 88.318843) rotate(-9.080000) translate(-43.000000, -88.318843) " cx="43" cy="88.318843" rx="12" ry="1.31884319"></ellipse>
                <path d="M67.1043959,107.180411 C64.224473,102.317738 57.6123136,101.743548 48.7572237,106.175578 C40.1892288,110.446118 30.7599486,107.646941 29.9166067,107.386761 C32.9035544,99.756108 40.2417174,94.718327 48.4360234,94.672847 C56.6303293,94.627367 64.0239599,99.583384 67.0954242,107.180411 L67.1043959,107.180411 Z" fill="#161616" fill-rule="nonzero" style="mix-blend-mode: color-dodge;"></path>
                <path d="M59.7027249,116.295681 C61.1297705,116.446176 62.5724504,116.280773 63.9284062,115.811208 C65.8573265,115.030668 68.1810026,114.339846 68.5578149,113.42473" stroke="#1D2A38"></path>
                <path d="M12.4486632,140.653907 C12.4486632,140.653907 -1.5113368,129.152159 15.6425964,121.230129" stroke="#334258" stroke-width="1.5" stroke-linecap="round"></path>
                <polygon stroke="#1D2A38" stroke-width="1.5" fill="#F0F3F7" fill-rule="nonzero" stroke-linejoin="round" points="222.709949 104.82982 225.491183 99.339126 217.057763 94.700746 209.17162 108.974756 216.914216 114.994781"></polygon>
                <circle stroke="#1D2A38" stroke-width="1.5" fill="#FFD700" fill-rule="nonzero" cx="212.19509" cy="102.568946" r="3.13113111"></circle>
                <path d="M210.660925,101.465424 L206.507018,97.401234 C206.176631,97.054658 206.176631,96.509712 206.507018,96.163136 L206.507018,96.163136 C206.845706,95.865593 207.352597,95.865593 207.691285,96.163136 L211.907995,100.209383 C212.23272,100.554749 212.23272,101.093143 211.907995,101.438509 L211.907995,101.438509 C211.567555,101.782251 211.015879,101.794158 210.660925,101.465424 L210.660925,101.465424 Z" fill="#1D2A38" fill-rule="nonzero"></path>
                <polygon fill="#1D2A38" fill-rule="nonzero" points="215.245476 103.286684 216.124704 105.269434 213.935604 105.170746"></polygon>
                <circle stroke="#1D2A38" stroke-width="1.5" fill="#FFD700" fill-rule="nonzero" cx="208.866581" cy="105.700077" r="2.83506427"></circle>
                <circle stroke="#1D2A38" stroke-width="1.5" fill="#FFFFFF" fill-rule="nonzero" cx="192.286838" cy="103.071362" r="17.0014139"></circle>
                <path d="M194.709203,84.553728 L196.243368,74.801465" stroke="#1D2A38" stroke-width="1.5" fill="#FFD700" fill-rule="nonzero" stroke-linecap="round"></path>
                <ellipse stroke="#1D2A38" stroke-width="1.5" fill="#FFFFFF" fill-rule="nonzero" transform="translate(196.238845, 74.815153) rotate(-82.410000) translate(-196.238845, -74.815153) " cx="196.238845" cy="74.815153" rx="1.40856041" ry="13"></ellipse>
                <path d="M208.678175,94.135527 C208.997914,94.702907 208.954181,95.405246 208.566527,95.92858 C208.178873,96.451913 207.51976,96.698415 206.88383,96.557892 C205.406302,96.275789 203.900085,96.173366 202.397969,96.252853 C196.521491,96.477147 199.347584,98.289434 197.535296,108.239075 C196.458689,114.187326 188.922442,114.617969 183.036992,113.99892 C177.523659,113.424378 173.336283,108.776042 173.338558,103.232853 C173.338558,103.044447 173.338558,102.865013 173.338558,102.685578 C173.634627,93.399846 181.780951,85.029229 191.057712,84.499897 C198.296182,84.052782 205.148721,87.800047 208.678175,94.135527 L208.678175,94.135527 Z" stroke="#1D2A38" stroke-width="1.5" fill="#FFD700" fill-rule="nonzero"></path>
                <path d="M173.410334,102.685578 C173.410334,102.685578 173.939666,109.118303 178.488329,109.118303 C183.036992,109.118303 190.232314,106.256324 191.147429,95.364653 C192.062545,84.472982 195.498715,84.751105 195.498715,84.751105 C188.714438,83.525359 181.80871,86.152988 177.55527,91.578586 C174.975394,94.716087 173.516659,98.624992 173.410334,102.685578 L173.410334,102.685578 Z" fill="#26241B" fill-rule="nonzero" opacity="0.7" style="mix-blend-mode: color-dodge;"></path>
                <ellipse fill="#FFFFFF" fill-rule="nonzero" transform="translate(182.085631, 102.209001) rotate(-71.384308) translate(-182.085631, -102.209001) " cx="182.085631" cy="102.209001" rx="2.71609022" ry="2.46426729"></ellipse>
                <path d="M220.861774,111.648329 C220.861774,111.648329 219.345553,111.926452 219.264807,109.468201 C219.184062,107.009949 218.502211,107.584139 218.215116,106.776684 C218.048336,106.011183 218.260655,105.21222 218.785449,104.630499 C219.310243,104.048779 220.083199,103.755589 220.861774,103.842931 C223.158535,104.130026 224.504293,106.96509 223.077789,109.871928 C221.992211,112.078972 220.861774,111.666272 220.861774,111.666272" stroke="#2E4257" stroke-width="0.74" fill="#FFD700" fill-rule="nonzero"></path>
                <path d="M196.243368,113.568278 C196.243368,113.568278 203.034961,121.723573 211.495296,119.956144 C219.95563,118.188715 220.933548,111.450951 220.933548,111.450951" stroke="#1D2A38" stroke-width="1.5" stroke-linecap="round" stroke-linejoin="round"></path>
                <polygon stroke="#1D2A38" fill="#FFFFFF" fill-rule="nonzero" stroke-linejoin="round" points="218.753419 95.633805 217.551208 97.930566 221.507738 100.334987 223.032931 97.984396"></polygon>
                <path d="M208.678175,94.135527 C208.997914,94.702907 208.954181,95.405246 208.566527,95.92858 C208.178873,96.451913 207.51976,96.698415 206.88383,96.557892 C205.406302,96.275789 203.900085,96.173366 202.397969,96.252853 C196.521491,96.477147 199.347584,98.289434 197.535296,108.239075 C196.458689,114.187326 188.922442,114.617969 183.036992,113.99892 C177.523659,113.424378 173.336283,108.776042 173.338558,103.232853 C173.338558,103.044447 173.338558,102.865013 173.338558,102.685578 C173.634627,93.399846 181.780951,85.029229 191.057712,84.499897 C198.296182,84.052782 205.148721,87.800047 208.678175,94.135527 L208.678175,94.135527 Z" stroke="#1D2A38" stroke-width="0.74"></path>
                <path d="M188.258535,84.921568 C191.11469,86.28527 196.238845,87.442972 200.325501,86.28527" stroke="#1D2A38" stroke-width="1.5" fill="#FFD700" fill-rule="nonzero"></path>
                <path d="M169.624267,105.269434 C169.624267,105.269434 170.36892,112.913342 174.58563,115.829152" stroke="#1D2A38" stroke-width="1.5" stroke-linecap="round"></path>
                <path d="M167.722262,108.535141 C168.223078,111.190782 169.345212,113.690219 170.996941,115.829152" stroke="#1D2A38" stroke-width="1.5" stroke-linecap="round"></path>
                <circle stroke="#1D2A38" stroke-width="1.5" fill="#FFFFFF" fill-rule="nonzero" cx="205.654704" cy="175.526992" r="21.523162"></circle>
                <circle stroke="#1D2A38" stroke-width="1.5" fill="#FFD700" fill-rule="nonzero" cx="225.455296" cy="176.262674" r="3.09524422"></circle>
                <ellipse stroke="#1D2A38" stroke-width="1.5" fill="#FFFFFF" fill-rule="nonzero" stroke-linecap="round" stroke-linejoin="round" transform="translate(199.992851, 139.593099) rotate(-10.860000) translate(-199.992851, -139.593099) " cx="199.992851" cy="139.593099" rx="23.6584319" ry="4.03727506"></ellipse>
                <path d="M225.129352,163.4284 C224.632155,164.382166 223.622324,164.956201 222.548458,164.895501 C220.21581,164.778869 216.788612,164.294396 210.78653,163.998329 C198.226118,163.468997 202.954216,173.571157 200.693342,182.623625 C200.113789,185.07479 198.281411,187.036834 195.875527,187.782365 C189.371028,190.106041 182.471774,185.431774 181.682262,178.577378 C180.461222,167.811801 186.48985,157.531628 196.481411,153.341484 C206.472972,149.151341 218.030997,152.05623 224.85419,160.472442 C225.518885,161.318051 225.626548,162.474634 225.129352,163.4284 Z" stroke="#1D2A38" stroke-width="1.5" fill="#FFD700" fill-rule="nonzero"></path>
                <path d="M195.973737,157.296829 C187.919579,162.265803 183.467705,171.446063 184.553213,180.847224 C184.825606,183.219686 185.850586,185.442571 187.477995,187.190231 C184.259118,185.469484 182.092123,182.276018 181.682262,178.649152 C180.518953,168.593061 185.689686,158.863992 194.675356,154.201804 C203.661026,149.539616 214.59274,150.913978 222.14473,157.655321 C214.229699,152.467601 204.027894,152.327856 195.973737,157.296829 Z" fill="#26241B" fill-rule="nonzero" opacity="0.7" style="mix-blend-mode: color-dodge;"></path>
                <circle fill="#FFFFFF" fill-rule="nonzero" cx="226.253779" cy="175.544936" r="1.27398458"></circle>
                <path d="M189.676067,188.078432 C188.078228,194.470572 187.246981,201.030192 187.199871,207.618843" stroke="#2E4257" stroke-width="0.93"></path>
                <circle stroke="#1D2A38" stroke-width="1.5" fill="#FFD700" fill-rule="nonzero" cx="187.199871" cy="209.798972" r="3.09524422"></circle>
                <circle fill="#FFFFFF" fill-rule="nonzero" cx="188.437969" cy="209.798972" r="1.27398458"></circle>
                <path d="M225.903882,182.847918 C225.903882,182.847918 233.404242,187.414524 239.110257,182.201954 C243.497429,178.191594 244.538149,170.709177 244.538149,170.709177" stroke="#1D2A38" stroke-width="1.5" stroke-linecap="round"></path>
                <circle stroke="#2E4257" stroke-width="0.93" fill="#FFD700" fill-rule="nonzero" cx="245.542982" cy="169.067352" r="3.09524422"></circle>
                <circle fill="#FFFFFF" fill-rule="nonzero" cx="246.772108" cy="169.067352" r="1.27398458"></circle>
                <path d="M193.946607,154.595964 C193.946607,154.595964 199.85,154.398586 210.571208,151.904447" stroke="#1D2A38" stroke-width="1.5" fill="#FFD700" fill-rule="nonzero"></path>
                <path d="M202.236478,151.725013 L200.753514,143.558069" stroke="#1D2A38" stroke-width="1.5" fill="#FFD700" fill-rule="nonzero" stroke-linecap="round" stroke-linejoin="round"></path>
                <path d="M209.422828,136.544859 C209.422828,136.544859 212.571902,137.666324 209.979075,139.550386" stroke="#1D2A38" stroke-width="0.93" stroke-linecap="round" stroke-linejoin="round"></path>
                <path d="M212.446298,136.544859 C212.446298,136.544859 214.303445,137.442031 212.697506,138.707044" stroke="#1D2A38" stroke-width="0.93" stroke-linecap="round" stroke-linejoin="round"></path>
                <circle fill="#FFFFFF" fill-rule="nonzero" cx="191.192288" cy="177.707121" r="4.82678663"></circle>
                <path d="M235.21653,187.190231 C238.69932,186.761407 241.733311,184.610645 243.29108,181.466272" stroke="#1D2A38" stroke-width="1.5" stroke-linecap="round"></path>
                <path d="M290.284961,116.950617 C290.284961,126.972031 284.561003,136.428226 274.431928,144.762956 L274.243522,144.924447 C269.418479,141.04695 264.219105,137.659843 258.722442,134.813316 C257.464441,134.146426 256.680083,132.836858 256.685798,131.413033 L256.685798,84.248689 C256.692141,82.863443 257.437267,81.586865 258.640351,80.900182 C259.843436,80.213498 261.321544,80.221122 262.517481,80.92018 C279.976452,91.040283 290.284961,103.493033 290.284961,116.950617 Z" stroke="#334258" stroke-width="1.5" fill="#FFFFFF" fill-rule="nonzero" opacity="0.8"></path>
                <path d="M290.284961,116.950617 L290.284961,172.934165 C290.284961,173.732648 290.240103,174.522159 290.177301,175.311671 C287.378123,206.291028 230.003959,231.340077 157.530386,233.816272 C156.48176,233.855229 155.462331,233.466335 154.706089,232.738853 C153.949846,232.011371 153.521737,231.007779 153.520026,229.958432 L153.520026,181.699537 C153.528589,179.609119 155.189834,177.900297 157.279177,177.832725 C208.310334,176.137069 251.88599,163.226761 274.243522,144.951362 L274.431928,144.789871 C284.561003,136.428226 290.284961,126.972031 290.284961,116.950617 Z" stroke="#334258" stroke-width="1.5" fill="#FFFFFF" fill-rule="nonzero" opacity="0.8"></path>
                <path d="M236.660977,179.707815 C215.039126,187.109486 188.213676,191.927301 158.956889,193.048766" stroke="#334258" stroke-width="2" opacity="0.5" stroke-linecap="round"></path>
                <path d="M236.660977,189.549794 C215.039126,196.951465 188.213676,201.76928 158.956889,202.890746" stroke="#1D2A38" opacity="0.3" stroke-linecap="round"></path>
                <path d="M236.660977,199.382802 C215.039126,206.793445 188.213676,211.602288 158.956889,212.723753" stroke="#1D2A38" opacity="0.3" stroke-linecap="round"></path>
                <path d="M236.660977,209.224781 C215.039126,216.626452 188.213676,221.444267 158.956889,222.565733" stroke="#1D2A38" opacity="0.3" stroke-linecap="round"></path>
                <path d="M290.177301,175.311671 C290.240103,174.522159 290.284961,173.732648 290.284961,172.934165 L290.284961,175.320643 L290.177301,175.311671 Z" stroke="#334258" stroke-width="0.86" fill="#F3EFE5" fill-rule="nonzero"></path>
                <ellipse stroke="#334258" stroke-width="1.5" opacity="0.5" cx="266.068359" cy="177.837891" rx="9" ry="14"></ellipse>
                <circle stroke="#1D2A38" stroke-width="1.5" fill="#FFFFFF" fill-rule="nonzero" stroke-linecap="round" stroke-linejoin="round" cx="110.581362" cy="160.678792" r="20.4196401"></circle>
                <path d="M129.448895,149.526941 C130.446889,151.152136 130.257067,153.24018 128.982365,154.658766 C126.918869,156.874781 126.012725,153.259177 126.012725,153.259177 C124.756684,148.243985 119.122442,147.149434 118.960951,151.536607 C118.79946,155.923779 115.372262,162.033522 101.726272,163.289563 C96.737995,163.747121 93.579949,163.361337 91.588226,162.688458 C89.711733,162.01633 88.560078,160.124325 88.824936,158.148766 C89.961927,148.840448 96.885749,141.281997 106.058929,139.335127 C115.23211,137.388257 124.629117,141.482857 129.448895,149.526941 L129.448895,149.526941 Z" stroke="#2E4257" stroke-width="1.5" fill="#FFD700" fill-rule="nonzero"></path>
                <path d="M117.615193,155.986581 C115.614499,159.279203 111.047892,162.428278 101.726272,163.280591 C96.737995,163.747121 93.58892,163.352365 91.597198,162.688458 C89.718047,162.013284 88.563792,160.119408 88.824936,158.139794 C89.603834,151.814024 93.085797,146.136199 98.370848,142.573856 C95.718852,145.784185 94.046404,149.689679 93.553033,153.824396 C93.288175,155.799955 94.439831,157.69196 96.316324,158.364087 C98.308046,159.036967 101.466093,159.431722 106.445398,158.974165 C111.424704,158.516607 114.99545,157.422057 117.615193,155.986581 Z" fill="#26241B" fill-rule="nonzero" opacity="0.7" style="mix-blend-mode: color-dodge;"></path>
                <path d="M127.188021,158.857532 C127.188021,158.857532 140.250848,162.051465 142.439949,182.327558" stroke="#1D2A38" stroke-width="1.5" stroke-linecap="round" stroke-linejoin="round"></path>
                <polygon stroke="#1D2A38" stroke-width="1.5" fill="#F0F3F7" fill-rule="nonzero" stroke-linejoin="round" points="149.769846 183.628458 131.880231 187.199203 137.182519 211.548458 155.62838 208.013599"></polygon>
                <path d="M78.561285,184.480771 C78.561285,184.480771 96.19072,190.823779 99.68072,177.949357" stroke="#2E4257" stroke-width="1.5"></path>
                <circle stroke="#2E4257" stroke-width="1.5" fill="#FFD700" fill-rule="nonzero" cx="75.726221" cy="183.404165" r="3.4092545"></circle>
                <circle stroke="#2E4257" stroke-width="1.5" fill="#FFD700" fill-rule="nonzero" cx="102.542699" cy="170.090129" r="2.93375321"></circle>
                <ellipse stroke="#1D2A38" stroke-width="0.89" fill="#FFD700" fill-rule="nonzero" stroke-linecap="round" stroke-linejoin="round" transform="translate(104.931444, 141.886498) rotate(-15.900000) translate(-104.931444, -141.886498) " cx="104.931444" cy="141.886498" rx="7.12354756" ry="2.26984576"></ellipse>
                <path d="M104.974036,141.874062 L100.72144,128.326761" stroke="#1D2A38" stroke-width="1.5" fill="#FFD700" fill-rule="nonzero" stroke-linecap="round" stroke-linejoin="round"></path>
                <ellipse stroke="#1D2A38" stroke-width="1.5" fill="#FFFFFF" fill-rule="nonzero" stroke-linecap="round" stroke-linejoin="round" transform="translate(99.991633, 128.336705) rotate(-15.900000) translate(-99.991633, -128.336705) " cx="99.991633" cy="128.336705" rx="22.4382776" ry="3.83092545"></ellipse>
                <polygon stroke="#1D2A38" fill="#FFFFFF" fill-rule="nonzero" stroke-linejoin="round" points="134.805013 186.759589 135.764987 190.599486 148.07419 187.907969 147.096272 184.157789"></polygon>
                <circle stroke="#1D2A38" stroke-width="1.5" fill="#FFD700" fill-rule="nonzero" cx="141.838843" cy="185.324113" r="3.42719794"></circle>
                <ellipse fill="#2E4257" fill-rule="nonzero" transform="translate(127.181982, 159.132674) rotate(-21.490000) translate(-127.181982, -159.132674) " cx="127.181982" cy="159.132674" rx="1" ry="1.40856041"></ellipse>
                <circle fill="#FFFFFF" fill-rule="nonzero" cx="101.546838" cy="169.489023" r="1.30089974"></circle>
                <circle fill="#FFFFFF" fill-rule="nonzero" cx="141.121105" cy="184.480771" r="1.30089974"></circle>
                <circle fill="#FFFFFF" fill-rule="nonzero" cx="74.41635" cy="182.327558" r="1.30089974"></circle>
                <path d="M129.448895,149.526941 C130.446889,151.152136 130.257067,153.24018 128.982365,154.658766 C126.918869,156.874781 126.012725,153.259177 126.012725,153.259177 C124.756684,148.243985 119.122442,147.149434 118.960951,151.536607 C118.79946,155.923779 115.372262,162.033522 101.726272,163.289563 C96.737995,163.747121 93.579949,163.361337 91.588226,162.688458 C89.711733,162.01633 88.560078,160.124325 88.824936,158.148766 C89.961927,148.840448 96.885749,141.281997 106.058929,139.335127 C115.23211,137.388257 124.629117,141.482857 129.448895,149.526941 L129.448895,149.526941 Z" stroke="#1D2A38" stroke-width="0.89" stroke-linecap="round" stroke-linejoin="round"></path>
                <path d="M130.992031,143.928586 C133.874087,147.363664 135.50609,151.674556 135.62144,156.157044" stroke="#1D2A38" stroke-width="1.5" stroke-linecap="round" stroke-linejoin="round"></path>
                <path d="M134.805013,144.493805 C136.694394,147.373429 137.667176,150.757835 137.595219,154.201208" stroke="#1D2A38" stroke-width="1.5" stroke-linecap="round" stroke-linejoin="round"></path>
                <path d="M138.806401,147.292982 C138.806401,147.292982 139.79329,149.984499 139.344704,151.850617" stroke="#1D2A38" stroke-width="1.5" stroke-linecap="round" stroke-linejoin="round"></path>
                <path d="M137.918201,181.699537 L137.918201,229.958432 C137.916489,231.007779 137.48838,232.011371 136.732138,232.738853 C135.975895,233.466335 134.956466,233.855229 133.907841,233.816272 C60.4832648,231.30419 2.2926735,206.003933 0.9289717,174.468329 L0.9289717,174.073573 L1.1801799,115.272905 L1.1801799,115.35365 C1.1801799,115.882982 1.1263496,116.421285 1.1263496,116.950617 C1.1263496,127.034833 6.9131105,136.562802 17.1677892,144.951362 L17.2933933,145.050051 C39.7226992,163.27162 83.190694,176.137069 134.123162,177.832725 C136.228616,177.876593 137.913783,179.593631 137.918201,181.699537 Z" stroke="#334258" stroke-width="1.5" fill="#FFFFFF" fill-rule="nonzero" opacity="0.8"></path>
                <path d="M25.2782262,164.123933 C37.8386375,172.108766 54.7054756,178.765784 74.488123,183.511825" stroke="#334258" stroke-width="2" opacity="0.5" stroke-linecap="round"></path>
                <path d="M25.2782262,174.979717 C37.8386375,182.96455 54.7054756,189.63054 74.488123,194.367609" stroke="#334258" opacity="0.5" stroke-linecap="round"></path>
                <path d="M25.2782262,185.844473 C37.8386375,193.820334 54.7054756,200.486324 74.488123,205.223393" stroke="#334258" opacity="0.5" stroke-linecap="round"></path>
                <path d="M25.2782262,196.700257 C37.8386375,204.676118 54.7054756,211.342108 74.488123,216.088149" stroke="#334258" opacity="0.5" stroke-linecap="round"></path>
                <circle stroke="#334258" stroke-width="1.5" opacity="0.5" cx="102.623445" cy="204.155758" r="20.6977635"></circle>
                <circle stroke="#334258" stroke-width="1.5" fill="#FFD701" fill-rule="nonzero" cx="33.5" cy="28.5" r="12.5"></circle>
                <circle stroke="#334258" stroke-width="1.5" fill="#FFD701" fill-rule="nonzero" cx="156" cy="5" r="5"></circle>
                <circle stroke="#334258" stroke-width="1.5" cx="64.0360668" cy="31.9076607" r="4.23465296"></circle>
                <circle stroke="#334258" stroke-width="1.5" cx="72.234653" cy="239.234653" r="4.23465296"></circle>
                <circle stroke="#334258" stroke-width="1.5" fill="#FFD701" fill-rule="nonzero" cx="105.378355" cy="279.814884" r="4.23465296"></circle>
                <circle stroke="#334258" cx="234.355244" cy="46.1457841" r="2.11732648"></circle>
                <circle stroke="#1D2A38" stroke-width="1.5" stroke-linecap="round" stroke-linejoin="round" cx="155.62838" cy="156.157044" r="2.11732648"></circle>
                <circle stroke="#334258" stroke-width="1.5" cx="227.527763" cy="34.3928278" r="6.82748072"></circle>
                <circle stroke="#334258" stroke-width="1.5" cx="21.8274807" cy="240.827481" r="6.82748072"></circle>
                <circle stroke="#334258" stroke-width="1.5" fill-opacity="0.363882212" fill="#FFD701" fill-rule="nonzero" cx="305.501003" cy="131.682185" r="9.03452442"></circle>
                <circle stroke="#334258" stroke-width="1.5" fill="#FFD701" fill-rule="nonzero" cx="245.345604" cy="265.522339" r="34.2181491"></circle>
                <ellipse fill="#FFFFFF" fill-rule="nonzero" opacity="0.779999971" cx="261.5" cy="258" rx="11.5" ry="13"></ellipse>
            </g>
        </g>
    </g>
</svg>