<?xml version="1.0" encoding="UTF-8"?>
<svg width="420px" height="420px" viewBox="0 0 420 420" version="1.1" xmlns="http://www.w3.org/2000/svg" xmlns:xlink="http://www.w3.org/1999/xlink">
    <!-- Generator: Sketch 57.1 (83088) - https://sketch.com -->
    <title>c-6</title>
    <desc>Created with Sketch.</desc>
    <g stroke="none" stroke-width="1" fill="none" fill-rule="evenodd">
        <g>
            <circle fill-opacity="0" fill="#FF0000" fill-rule="nonzero" cx="210" cy="210" r="210"></circle>
            <g transform="translate(46.000000, 20.000000)">
                <path d="M61.3461902,90.9860628 C63.5197713,110.086334 84.8883841,135.061789 100.855619,140.255878" stroke="#1D2A38" stroke-width="1.5" stroke-linecap="round" stroke-linejoin="round"></path>
                <ellipse stroke="#1D2A38" stroke-width="2" fill="#FFD700" fill-rule="nonzero" stroke-linecap="round" stroke-linejoin="round" cx="100.820084" cy="140.593465" rx="6.82279451" ry="6.7398786"></ellipse>
                <ellipse stroke="#1D2A38" stroke-width="1.5" fill="#FFFFFF" fill-rule="nonzero" stroke-linecap="round" stroke-linejoin="round" cx="44.9584536" cy="76.6416112" rx="41.523101" ry="41.0137604"></ellipse>
                <path d="M75.0154694,84.1040427 C60.4874183,84.1040427 34.777565,80.7459485 30.5962343,68.1664211 C28.8964582,63.0611703 26.4504391,60.2538747 23.649066,60.2538747 C20.9602216,60.2538747 18.2713773,63.1026283 17.5369792,66.7390831 C16.7788909,70.4702988 13.9834405,75.16097 9.5652071,76.6416112 C8.83829624,76.8877054 8.07614772,77.0137299 7.30870999,77.0147327 L7.30870999,77.0147327 C5.17771356,76.9991598 3.16303403,76.0406148 1.80664745,74.3969591 C0.394580155,72.7291147 -0.204224577,70.5204795 0.172019535,68.3677884 C2.38663863,55.9565817 9.71527018,45.0474515 20.3679652,38.3048501 C27.6961306,33.650934 36.2004011,31.1853325 44.8814604,31.1976791 C45.811303,31.1976791 46.7529907,31.1976791 47.6769108,31.2866109 C64.3814158,32.2152504 79.216437,42.2691872 86.2683427,57.4406565 C88.0701439,61.3120917 89.2952937,65.4265198 89.9047965,69.6529848 C90.7991823,75.7717229 87.0385513,81.611196 81.0979428,83.3281867 C79.1157942,83.8653695 77.0689977,84.1264508 75.0154694,84.1040427 L75.0154694,84.1040427 Z" stroke="#1D2A38" stroke-width="1.5" fill="#FFD700" fill-rule="nonzero"></path>
                <path d="M85.8715301,57.6420237 C49.1516294,70.4939891 20.6048677,38.6898167 20.6048677,38.6898167 C31.5828764,31.7204294 45.0266667,29.8052125 57.5141721,33.4316775 C70.0016774,37.0581424 80.3283617,45.876483 85.8656079,57.6420237 C85.8675815,57.6419579 85.8695565,57.6419579 85.8715301,57.6420237 Z" stroke="#1D2A38" stroke-width="1.5" fill="#161616" fill-rule="nonzero" style="mix-blend-mode: color-dodge;"></path>
                <ellipse stroke="#1D2A38" stroke-width="1.5" fill="#FFD700" fill-rule="nonzero" stroke-linecap="round" stroke-linejoin="round" cx="66.0842418" cy="96.4525906" rx="7.29067712" ry="7.20183865"></ellipse>
                <ellipse stroke="#1D2A38" stroke-width="1.5" fill="#FFFFFF" fill-rule="nonzero" stroke-linecap="round" stroke-linejoin="round" transform="translate(66.430048, 15.211267) rotate(-73.100000) translate(-66.430048, -15.211267) " cx="66.4300485" cy="15.211267" rx="5.5849785" ry="31.6901408"></ellipse>
                <path d="M59.551653,36.4273971 L65.3794566,20.915493" stroke="#1D2A38" stroke-width="1.5" stroke-linecap="round" stroke-linejoin="round"></path>
                <path d="M38.8759798,32.6371324 C38.8759798,32.6371324 52.9598386,44.642171 76.8751542,45.0212152" stroke="#1D2A38" stroke-width="1.5" stroke-linecap="round" stroke-linejoin="round"></path>
                <path d="M17.0987095,75.4748659 C17.0987095,75.4748659 -24.2348694,130.619866 22.6540751,138.017149" stroke="#1D2A38" stroke-width="1.5" stroke-linecap="round" stroke-linejoin="round"></path>
                <ellipse stroke="#1D2A38" stroke-width="2" fill="#FFD700" fill-rule="nonzero" stroke-linecap="round" stroke-linejoin="round" cx="19.8349343" cy="138.34289" rx="6.82279451" ry="6.7398786"></ellipse>
                <ellipse fill="#FFFFFF" fill-rule="nonzero" transform="translate(56.472207, 51.650566) rotate(-70.690000) translate(-56.472207, -51.650566) " cx="56.472207" cy="51.6505662" rx="5.5672108" ry="8.04284283"></ellipse>
                <polyline stroke="#1D2A38" stroke-width="1.5" stroke-linecap="round" stroke-linejoin="round" points="21.4754847 177.941157 111.125346 167.049562 220.035388 167.049562 308.009164 178.782162"></polyline>
                <polygon stroke="#1D2A38" stroke-width="1.5" stroke-linecap="round" stroke-linejoin="round" points="21.4754847 177.941157 25.6686605 192.184925 164.742324 314.503654 304.656992 192.184925 308.009164 178.782162 261.925688 141.920119 164.742324 131.028523 67.5589604 141.079115"></polygon>
                <polygon stroke="#1D2A38" stroke-width="1.5" fill="#FAD749" fill-rule="nonzero" stroke-linecap="round" stroke-linejoin="round" points="204.121456 213.133037 164.742324 154.487801 125.363192 213.133037"></polygon>
                <polygon stroke="#1D2A38" stroke-width="1.5" fill="#FAD749" fill-rule="nonzero" stroke-linecap="round" stroke-linejoin="round" points="164.742324 314.503654 204.121456 213.133037 125.363192 213.133037"></polygon>
                <polyline stroke="#1D2A38" stroke-width="1.5" stroke-linecap="round" stroke-linejoin="round" points="125.363192 213.133037 111.125346 167.049562 164.742324 131.028523 220.035388 167.049562 204.121456 213.133037"></polyline>
                <polygon stroke="#1D2A38" stroke-width="1.5" fill="#334258" fill-rule="nonzero" stroke-linecap="round" stroke-linejoin="round" points="164.742324 314.503654 125.363192 213.133037 25.6686605 192.184925"></polygon>
                <polygon stroke="#1D2A38" stroke-width="1.5" fill="#334258" fill-rule="nonzero" stroke-linecap="round" stroke-linejoin="round" points="67.5589604 141.079115 21.4754847 177.941157 25.6686605 192.184925"></polygon>
                <polygon stroke="#1D2A38" stroke-width="1.5" fill="#FAD749" fill-rule="nonzero" stroke-linecap="round" stroke-linejoin="round" points="125.363192 213.133037 67.5589604 141.079115 25.6686605 192.184925"></polygon>
                <polygon stroke="#1D2A38" stroke-width="1.5" fill="#334258" fill-rule="nonzero" stroke-linecap="round" stroke-linejoin="round" points="125.363192 213.133037 164.742324 154.487801 67.5589604 141.079115"></polygon>
                <polygon stroke="#1D2A38" stroke-width="1.5" fill="#E1E3FF" fill-rule="nonzero" opacity="0.5" stroke-linecap="round" stroke-linejoin="round" points="67.5589604 141.079115 164.742324 131.028523 262.251428 141.920119 164.742324 154.487801"></polygon>
                <polygon stroke="#1D2A38" stroke-width="1.5" fill="#E1E3FF" fill-rule="nonzero" opacity="0.5" stroke-linecap="round" stroke-linejoin="round" points="261.925688 141.920119 204.121456 213.133037 164.742324 154.487801"></polygon>
                <polygon stroke="#1D2A38" stroke-width="1.5" stroke-linecap="round" stroke-linejoin="round" points="67.5589604 141.079115 25.6686605 192.184925 125.363192 213.133037 204.121456 213.133037 304.656992 192.184925 261.925688 141.920119 164.742324 154.487801"></polygon>
                <circle fill="#1D2A38" fill-rule="nonzero" cx="164.742324" cy="154.487801" r="6.28384112"></circle>
                <circle fill="#1D2A38" fill-rule="nonzero" cx="67.7129471" cy="141.079115" r="3.89704756"></circle>
                <circle fill="#1D2A38" fill-rule="nonzero" cx="164.742324" cy="131.028523" r="2.64146385"></circle>
                <circle fill="#1D2A38" fill-rule="nonzero" cx="21.4754847" cy="177.941157" r="2.64146385"></circle>
                <circle fill="#7F869B" fill-rule="nonzero" cx="220.035388" cy="167.049562" r="2.64146385"></circle>
                <circle fill="#1D2A38" fill-rule="nonzero" cx="308.009164" cy="178.782162" r="2.64146385"></circle>
                <circle fill="#1D2A38" fill-rule="nonzero" cx="261.925688" cy="142.050415" r="3.89704756"></circle>
                <circle fill="#1D2A38" fill-rule="nonzero" cx="125.363192" cy="213.133037" r="6.28384112"></circle>
                <circle fill="#1D2A38" fill-rule="nonzero" cx="204.121456" cy="213.133037" r="6.28384112"></circle>
                <circle fill="#1D2A38" fill-rule="nonzero" cx="25.6686605" cy="192.184925" r="3.89704756"></circle>
                <circle fill="#1D2A38" fill-rule="nonzero" cx="304.656992" cy="192.184925" r="3.89704756"></circle>
                <circle fill="#1D2A38" fill-rule="nonzero" cx="164.742324" cy="314.503654" r="3.24556545"></circle>
                <circle stroke="#1D2A38" stroke-width="1.5" stroke-linecap="round" stroke-linejoin="round" cx="45.6928517" cy="309.04305" r="20.5868348"></circle>
                <path d="M54.4819377,310.322324 L54.4819377,307.171519 L58.0354764,306.401585 C57.6555232,304.714765 56.9250581,303.126709 55.8915081,301.740527 L52.7051682,303.783812 L50.4545936,301.56285 L52.4031175,298.518651 C50.9385496,297.599165 49.2988598,296.994113 47.5880723,296.741883 L46.7826036,300.455331 L43.6317992,300.455331 L42.8618658,296.901791 C41.1773164,297.291577 39.5908247,298.023338 38.2008074,299.051683 L40.2440922,302.238023 L38.0172079,304.458985 L34.9848548,302.51046 C34.0642904,303.976653 33.4591857,305.618504 33.2080853,307.331428 L36.9096883,308.142819 L36.9096883,311.287702 L33.3857623,312.063557 C33.7713287,313.747402 34.4990869,315.333955 35.5238081,316.724615 L38.7101479,314.675408 L40.9429548,316.908215 L38.9825859,319.922801 C40.4448386,320.842612 42.0826708,321.447723 43.7917084,321.69957 L44.5971772,317.992045 L47.7479817,317.992045 L48.5238376,321.545583 C50.2080344,321.157906 51.7945567,320.428147 53.184896,319.401615 L51.1356886,316.215275 L53.3684955,314.000236 L56.4008486,315.94876 C57.3203349,314.484192 57.9253865,312.844501 58.177618,311.133714 L54.4819377,310.322324 Z M44.5201839,314.941923 C41.6571522,314.356628 39.6688934,311.743308 39.868521,308.827887 C40.0681484,305.912468 42.3940638,303.594554 45.3101538,303.40497 C48.2262437,303.215389 50.8326983,305.212639 51.4081266,308.077672 C51.8125648,309.998549 51.2176401,311.993624 49.8272049,313.379276 C48.4367697,314.76493 46.4396575,315.352977 44.5201839,314.941923 L44.5201839,314.941923 Z" stroke="#1D2A38" stroke-linecap="round" stroke-linejoin="round"></path>
                <circle fill="#1D2A38" fill-rule="nonzero" cx="65.3794566" cy="315.060375" r="3.0678885"></circle>
                <circle stroke="#1D2A38" stroke-width="1.5" fill="#FFD701" fill-rule="nonzero" stroke-linecap="round" stroke-linejoin="round" cx="139.221993" cy="85.3240909" r="19.2364901"></circle>
                <circle stroke="#1D2A38" stroke-linecap="round" stroke-linejoin="round" cx="139.221993" cy="85.8748895" r="9.89068301"></circle>
                <circle stroke="#1D2A38" stroke-linecap="round" stroke-linejoin="round" cx="139.221993" cy="85.8748895" r="7.32028994"></circle>
                <rect stroke="#1D2A38" stroke-linecap="round" stroke-linejoin="round" x="137.249779" y="72.5787318" width="3.94442807" height="1.97221404"></rect>
                <polygon stroke="#1D2A38" stroke-linecap="round" stroke-linejoin="round" points="140.293977 86.6803582 138.155931 85.0694207 141.89307 82.3154281"></polygon>
                <polygon stroke="#1D2A38" stroke-linecap="round" stroke-linejoin="round" points="140.293977 86.6803582 138.155931 85.0694207 136.556839 89.4343513"></polygon>
                <path d="M139.221993,79.8338735 L139.221993,80.3905947" stroke="#1D2A38" stroke-linecap="round" stroke-linejoin="round"></path>
                <path d="M133.180977,85.8571218 L133.737698,85.8571218" stroke="#1D2A38" stroke-linecap="round" stroke-linejoin="round"></path>
                <path d="M139.210148,91.9040603 L139.210148,91.3473393" stroke="#1D2A38" stroke-linecap="round" stroke-linejoin="round"></path>
                <path d="M145.251164,85.8748895 L144.694443,85.8748895" stroke="#1D2A38" stroke-linecap="round" stroke-linejoin="round"></path>
                <circle fill="#1D2A38" fill-rule="nonzero" cx="154.993783" cy="74.5509458" r="2.55262538"></circle>
                <circle stroke="#1D2A38" stroke-width="1.5" fill="#FFD701" fill-rule="nonzero" stroke-linecap="round" stroke-linejoin="round" cx="120.950881" cy="324.684543" r="15.6414933"></circle>
                <rect stroke="#1D2A38" stroke-linecap="round" stroke-linejoin="round" x="114.347221" y="316.635777" width="13.2073192" height="16.0916082"></rect>
                <path d="M116.491189,319.218015 L125.06114,319.218015" stroke="#1D2A38" stroke-linecap="round" stroke-linejoin="round"></path>
                <path d="M116.491189,321.314603 L124.320821,321.314603" stroke="#1D2A38" stroke-linecap="round" stroke-linejoin="round"></path>
                <path d="M116.491189,323.417113 L120.163179,323.417113" stroke="#1D2A38" stroke-linecap="round" stroke-linejoin="round"></path>
                <path d="M116.491189,325.513701 L123.006011,325.513701" stroke="#1D2A38" stroke-linecap="round" stroke-linejoin="round"></path>
                <circle fill="#1D2A38" fill-rule="nonzero" cx="136.402853" cy="321.438976" r="2.10843303"></circle>
                <circle fill="#1D2A38" fill-rule="nonzero" cx="110.669309" cy="336.440833" r="1.62278272"></circle>
                <circle stroke="#1D2A38" stroke-width="1.5" stroke-linecap="round" stroke-linejoin="round" cx="270.235046" cy="107.598857" r="17.0214509"></circle>
                <path d="M278.070599,112.040781 L269.779008,105.235754 C269.616075,105.106718 269.380135,105.130313 269.245977,105.289057 C269.190865,105.358249 269.15969,105.443459 269.15714,105.531882 L269.15714,116.867671 C269.15823,117.035037 269.268962,117.181877 269.429577,117.228947 C269.464871,117.234801 269.500889,117.234801 269.536183,117.228947 C269.662632,117.232435 269.781695,117.169533 269.850079,117.063115 L272.763981,112.698185 L277.851464,112.698185 C278.060804,112.698185 278.230509,112.528481 278.230509,112.319141 C278.221885,112.206994 278.163133,112.104723 278.070599,112.040781 Z" stroke="#1D2A38" stroke-linecap="round" stroke-linejoin="round"></path>
                <path d="M269.471036,101.771053 L269.471036,97.9509993" stroke="#1D2A38" stroke-linecap="round" stroke-linejoin="round"></path>
                <path d="M271.869674,102.760121 L274.570364,100.065354" stroke="#1D2A38" stroke-linecap="round" stroke-linejoin="round"></path>
                <path d="M272.858742,105.15876 L276.678796,105.15876" stroke="#1D2A38" stroke-linecap="round" stroke-linejoin="round"></path>
                <path d="M267.072396,107.557399 L264.371707,110.258089" stroke="#1D2A38" stroke-linecap="round" stroke-linejoin="round"></path>
                <path d="M266.083328,105.15876 L262.263274,105.15876" stroke="#1D2A38" stroke-linecap="round" stroke-linejoin="round"></path>
                <path d="M267.072396,102.760121 L264.371707,100.065354" stroke="#1D2A38" stroke-linecap="round" stroke-linejoin="round"></path>
                <circle fill="#1D2A38" fill-rule="nonzero" cx="258.555748" cy="119.941481" r="2.68884436"></circle>
                <circle fill="#1D2A38" fill-rule="nonzero" cx="285.130297" cy="115.807532" r="1.72346632"></circle>
                <circle stroke="#1D2A38" stroke-width="1.5" stroke-linecap="round" stroke-linejoin="round" cx="230.986211" cy="44.9203548" r="14.6879605"></circle>
                <circle stroke="#1D2A38" stroke-linecap="round" stroke-linejoin="round" cx="232.887353" cy="42.3618068" r="6.4555955"></circle>
                <path d="M225.158406,47.2360775 L230.459102,51.1745831" stroke="#1D2A38" stroke-linecap="round" stroke-linejoin="round"></path>
                <path d="M224.51877,49.4451942 L228.528346,52.4183216" stroke="#1D2A38" stroke-linecap="round" stroke-linejoin="round"></path>
                <path d="M223.725146,51.5299369 L226.763422,53.7864341" stroke="#1D2A38" stroke-linecap="round" stroke-linejoin="round"></path>
                <circle fill="#1D2A38" fill-rule="nonzero" cx="232.887353" cy="59.6083151" r="2.38679356"></circle>
                <circle fill="#1D2A38" fill-rule="nonzero" cx="221.593022" cy="33.5075726" r="1.37995756"></circle>
                <circle stroke="#2E4257" stroke-width="1.5" fill="#FFD700" fill-rule="nonzero" stroke-linecap="round" stroke-linejoin="round" cx="267.717956" cy="282.077612" r="8.17906182"></circle>
                <circle stroke="#1D2A38" stroke-width="1.5" fill="#FFFFFF" fill-rule="nonzero" stroke-linecap="round" stroke-linejoin="round" cx="310.810537" cy="290.718634" r="40.7176322"></circle>
                <path d="M334.737698,308.231658 C332.300724,308.271815 329.881547,307.810155 327.63062,306.875391 C319.179121,303.173787 319.931286,298.518651 320.689375,293.585155 C321.004302,291.895152 321.172734,290.181116 321.192792,288.462137 C321.098031,281.615652 310.674317,280.620662 310.573634,280.614738 C291.461518,278.411545 281.926189,274.5678 277.294743,271.730891 C275.667251,270.72737 274.543599,269.078789 274.204552,267.197078 C273.865505,265.315368 274.343091,263.378277 275.517974,261.869821 C287.722913,246.389694 308.497944,240.512708 327.003524,247.305231 C345.509105,254.097753 357.548764,272.019458 356.84071,291.719548 C356.559921,298.269373 352.289809,303.97618 346.085332,306.093611 C342.44505,307.421654 338.611669,308.143914 334.737698,308.231658 Z" stroke="#1D2A38" stroke-width="1.5" fill="#FFD700" fill-rule="nonzero"></path>
                <path d="M351.125435,268.882138 L351.125435,268.882138 C303.010519,274.686252 292.195917,249.207379 292.195917,249.207379 C305.047369,243.255611 319.939113,243.636664 332.469356,250.237904 C340.293064,254.300784 347.453445,261.490778 351.125435,268.882138 Z" fill="#161616" fill-rule="nonzero" style="mix-blend-mode: color-dodge;"></path>
                <path d="M303.875214,244.949054 C303.875214,244.949054 320.570924,252.99782 340.547735,254.774588" stroke="#1D2A38" stroke-width="1.5" stroke-linecap="round" stroke-linejoin="round"></path>
                <path d="M322.211474,247.791885 L328.73814,221.928045" stroke="#2E4257" stroke-width="1.5" fill="#FFD700" fill-rule="nonzero" stroke-linecap="round" stroke-linejoin="round"></path>
                <ellipse stroke="#1D2A38" stroke-width="1.5" fill="#FFFFFF" fill-rule="nonzero" stroke-linecap="round" stroke-linejoin="round" transform="translate(327.925979, 225.074625) rotate(-73.750000) translate(-327.925979, -225.074625) " cx="327.925979" cy="225.074625" rx="4.06880194" ry="31.6901408"></ellipse>
                <path d="M226.342919,267.425187 C226.342919,267.425187 249.861424,339.822617 316.063852,303.073104" stroke="#1D2A38" stroke-width="1.5" stroke-linecap="round" stroke-linejoin="round"></path>
                <path d="M234.14886,270.20287 C233.198806,272.404186 231.264834,274.02744 228.932139,274.581455 C226.599445,275.13547 224.142124,274.555148 222.303731,273.016088 C216.606224,268.37872 220.728329,258.74863 228.019006,259.678473 C230.403993,259.945814 232.521858,261.325838 233.729731,263.399646 C234.937605,265.473454 235.093041,267.99648 234.14886,270.20287 L234.14886,270.20287 Z" stroke="#2E4257" stroke-width="2" fill="#FFD700" fill-rule="nonzero" stroke-linecap="round" stroke-linejoin="round"></path>
                <ellipse fill="#FFFFFF" fill-rule="nonzero" transform="translate(305.863360, 253.687620) rotate(-71.927678) translate(-305.863360, -253.687620) " cx="305.86336" cy="253.68762" rx="4.17840271" ry="7.11985617"></ellipse>
            </g>
        </g>
    </g>
</svg>