<?xml version="1.0" encoding="UTF-8"?>
<svg width="420px" height="420px" viewBox="0 0 420 420" version="1.1" xmlns="http://www.w3.org/2000/svg" xmlns:xlink="http://www.w3.org/1999/xlink">
    <!-- Generator: Sketch 57.1 (83088) - https://sketch.com -->
    <title>cf-1</title>
    <desc>Created with Sketch.</desc>
    <g stroke="none" stroke-width="1" fill="none" fill-rule="evenodd">
        <g>
            <g transform="translate(18.000000, 47.000000)">
                <rect stroke="#1D2A38" stroke-width="0.78" x="0.39" y="115.4012" width="78.5044" height="88.764"></rect>
                <path d="M54.4908,188.2896 L24.7988,188.2896 C23.4,188.2896 22.2612,187.312 22.2612,186.1004 L22.2612,186.1004 C22.2612,184.8888 23.4,183.9112 24.7988,183.9112 L54.4908,183.9112 C55.8896,183.9112 57.0232,184.8888 57.0232,186.1004 L57.0232,186.1004 C57.0232,187.312 55.8896,188.2896 54.4908,188.2896 Z" stroke="#1D2A38" stroke-width="0.78" fill="#FAD749" fill-rule="nonzero"></path>
                <rect stroke="#1D2A38" stroke-width="0.78" fill="#FAD749" fill-rule="nonzero" x="26.0624" y="166.5432" width="27.1648" height="4.3836" rx="2.1892"></rect>
                <path d="M28.704,166.5432 L50.5804,166.5432 C50.5804,166.5432 48.2352,159.8872 47.3616,156.8452 C46.488,153.8032 46.7688,147.1472 46.7688,147.1472 L32.5208,147.1472 C32.5208,147.1472 32.7912,153.8032 31.9228,156.8452 C31.0544,159.8872 28.704,166.5432 28.704,166.5432 Z" stroke="#1D2A38" stroke-width="0.78" fill="#FAD749" fill-rule="nonzero"></path>
                <path d="M51.7088,134.0588 L49.7692,142.5556 C49.532528,143.533891 48.6592983,144.224751 47.6528,144.23 L31.6316,144.23 C30.6349337,144.223666 29.773602,143.532448 29.5516,142.5608 L27.56,134.0588 C27.4101313,133.420088 27.5582223,132.747873 27.9626117,132.231266 C28.3670012,131.714658 28.9839879,131.409486 29.64,131.4016 L30.16,131.4016 C31.204813,131.403787 32.097219,132.155864 32.2764,133.1852 L32.8588,136.3572 C33.0494937,137.516909 34.1350527,138.309357 35.2977153,138.137583 C36.4603778,137.96581 37.2704068,136.893307 37.1176,135.728 L36.8732,132.92 C36.8337267,132.502289 36.9719099,132.087256 37.2538982,131.776575 C37.5358865,131.465893 37.9356294,131.288263 38.3552,131.287185 L40.9552,131.287185 C41.3765804,131.285331 41.7791131,131.461687 42.0634042,131.772724 C42.3476953,132.08376 42.4872466,132.500485 42.4476,132.92 L42.12,135.728 C42.12,135.8216 42.12,135.91 42.12,135.9984 C42.1376787,137.107 42.9925676,138.021815 44.0974323,138.114446 C45.202297,138.207078 46.1975764,137.44738 46.3996,136.3572 L46.982,133.1852 C47.161181,132.155864 48.053587,131.403787 49.0984,131.4016 L49.6184,131.4016 C50.2762436,131.406352 50.8961768,131.710202 51.3029301,132.227244 C51.7096834,132.744286 51.8590498,133.418327 51.7088,134.0588 L51.7088,134.0588 Z" stroke="#1D2A38" stroke-width="0.78" fill="#FAD749" fill-rule="nonzero"></path>
                <path d="M52.5876,179.772 C50.648,177.9832 49.1712,177.744 49.1712,175.2272 C49.1625909,173.760569 49.4161779,172.304205 49.92,170.9268 L29.3748,170.9268 C29.875079,172.304852 30.1251408,173.761197 30.1132,175.2272 C30.1132,177.744 28.6416,177.9832 26.6968,179.772 C25.5513954,180.825873 25.1090688,182.441678 25.558,183.932 L53.7264,183.932 C54.1753312,182.441678 53.7330046,180.825873 52.5876,179.772 Z" stroke="#1D2A38" stroke-width="0.78" fill="#FAD749" fill-rule="nonzero"></path>
                <rect stroke="#1D2A38" stroke-width="0.78" fill="#FAD749" fill-rule="nonzero" x="30.5916" y="144.2248" width="18.1064" height="2.9224" rx="1.4612"></rect>
                <path d="M3.8376,118.568 L10.2336,118.568" stroke="#1D2A38" stroke-width="0.52" fill="#FFFFFF" fill-rule="nonzero" stroke-linecap="round"></path>
                <path d="M3.8376,120.7832 L10.2336,120.7832" stroke="#1D2A38" stroke-width="0.52" fill="#FFFFFF" fill-rule="nonzero" stroke-linecap="round"></path>
                <path d="M3.8376,122.9984 L10.2336,122.9984" stroke="#1D2A38" stroke-width="0.52" fill="#FFFFFF" fill-rule="nonzero" stroke-linecap="round"></path>
                <path d="M16.7024,195.7256 L78.8944,195.7256" stroke="#1D2A38" stroke-width="0.78" fill="#FFFFFF" fill-rule="nonzero" stroke-linecap="round"></path>
                <circle fill="#1D2A38" fill-rule="nonzero" cx="17.9036" cy="199.87" r="1.638"></circle>
                <circle fill="#1D2A38" fill-rule="nonzero" cx="23.3272" cy="199.87" r="1.638"></circle>
                <circle fill="#1D2A38" fill-rule="nonzero" cx="28.7508" cy="199.87" r="1.638"></circle>
                <rect stroke="#1D2A38" stroke-width="0.78" x="274.7576" y="244.2624" width="41.8652" height="47.3356"></rect>
                <path d="M276.5984,245.9472 L280.0096,245.9472" stroke="#1D2A38" stroke-width="0.52" fill="#FFFFFF" fill-rule="nonzero" stroke-linecap="round"></path>
                <path d="M276.5984,247.1328 L280.0096,247.1328" stroke="#1D2A38" stroke-width="0.52" fill="#FFFFFF" fill-rule="nonzero" stroke-linecap="round"></path>
                <path d="M276.5984,248.3132 L280.0096,248.3132" stroke="#1D2A38" stroke-width="0.52" fill="#FFFFFF" fill-rule="nonzero" stroke-linecap="round"></path>
                <path d="M283.4572,287.1 L316.628,287.1" stroke="#1D2A38" stroke-width="0.78" fill="#FFFFFF" fill-rule="nonzero" stroke-linecap="round"></path>
                <circle fill="#1D2A38" fill-rule="nonzero" cx="284.0968" cy="289.31" r="1"></circle>
                <circle fill="#1D2A38" fill-rule="nonzero" cx="286.9932" cy="289.31" r="1"></circle>
                <circle fill="#1D2A38" fill-rule="nonzero" cx="289.8844" cy="289.31" r="1"></circle>
                <path d="M303.2848,283.6628 L288.08,283.6628 C287.450788,283.695373 286.91267,283.215242 286.8736,282.5864 L286.8736,282.5864 C286.91267,281.957558 287.450788,281.477427 288.08,281.51 L303.264,281.51 C303.893212,281.477427 304.43133,281.957558 304.4704,282.5864 L304.4704,282.5864 C304.431372,283.206807 303.906082,283.683716 303.2848,283.6628 L303.2848,283.6628 Z" stroke="#1D2A38" stroke-width="0.78" fill="#FAD749" fill-rule="nonzero"></path>
                <rect stroke="#1D2A38" stroke-width="0.78" fill="#FAD749" fill-rule="nonzero" x="288.6104" y="272.9872" width="14.1648" height="2.1528" rx="1.0764"></rect>
                <path d="M289.9884,272.9872 L301.3972,272.9872 C301.3972,272.9872 300.1752,269.7216 299.7176,268.2292 C299.26,266.7368 299.4056,263.466 299.4056,263.466 L291.98,263.466 C291.98,263.466 292.1204,266.7316 291.668,268.2292 C291.2156,269.7268 289.9884,272.9872 289.9884,272.9872 Z" stroke="#1D2A38" stroke-width="0.78" fill="#FAD749" fill-rule="nonzero"></path>
                <path d="M302.4424,279.482 C301.4024,278.6032 300.664,278.4836 300.664,277.2512 C300.657925,276.529492 300.788489,275.813155 301.0488,275.14 L290.342,275.14 C290.602311,275.813155 290.732875,276.529492 290.7268,277.2512 C290.7268,278.4836 289.9572,278.6032 288.9432,279.482 C288.354053,279.97617 288.120164,280.776318 288.3504,281.51 L303.0352,281.51 C303.265436,280.776318 303.031547,279.97617 302.4424,279.482 Z" stroke="#1D2A38" stroke-width="0.78" fill="#FAD749" fill-rule="nonzero"></path>
                <path d="M292.7236,261.7604 L298.662,261.7604 C299.794836,260.674742 300.428962,259.169399 300.4144,257.6004 C300.4144,254.626 298.3032,252.2184 295.6928,252.2184 C293.0824,252.2184 290.9712,254.626 290.9712,257.6004 C290.956638,259.169399 291.590764,260.674742 292.7236,261.7604 L292.7236,261.7604 Z" stroke="#1D2A38" stroke-width="0.78" fill="#FAD749" fill-rule="nonzero"></path>
                <rect stroke="#1D2A38" stroke-width="0.78" fill="#FAD749" fill-rule="nonzero" x="291.148" y="261.7604" width="9.0948" height="1.7056" rx="0.8528"></rect>
                <rect stroke="#1D2A38" stroke-width="0.78" x="109.4028" y="24.5572" width="41.8652" height="47.3356"></rect>
                <path d="M111.2384,26.2472 L114.6548,26.2472" stroke="#1D2A38" stroke-width="0.52" fill="#FFFFFF" fill-rule="nonzero" stroke-linecap="round"></path>
                <path d="M111.2384,27.4276 L114.6548,27.4276" stroke="#1D2A38" stroke-width="0.52" fill="#FFFFFF" fill-rule="nonzero" stroke-linecap="round"></path>
                <path d="M111.2384,28.6132 L114.6548,28.6132" stroke="#1D2A38" stroke-width="0.52" fill="#FFFFFF" fill-rule="nonzero" stroke-linecap="round"></path>
                <path d="M118.1024,67.3948 L151.268,67.3948" stroke="#1D2A38" stroke-width="0.78" fill="#FFFFFF" fill-rule="nonzero" stroke-linecap="round"></path>
                <circle fill="#1D2A38" fill-rule="nonzero" cx="118.742" cy="69.6048" r="1"></circle>
                <circle fill="#1D2A38" fill-rule="nonzero" cx="121.6332" cy="69.6048" r="1"></circle>
                <circle fill="#1D2A38" fill-rule="nonzero" cx="124.5296" cy="69.6048" r="1"></circle>
                <path d="M137.93,63.9576 L122.746,63.9576 C122.115708,63.99612 121.573408,63.5166616 121.5344,62.8864 L121.5344,62.8864 C121.573449,62.2554194 122.114812,61.7744659 122.746,61.81 L137.93,61.81 C138.56023,61.7745247 139.100098,62.256217 139.1364,62.8864 L139.1364,62.8864 C139.097356,63.5145106 138.558319,63.993139 137.93,63.9576 L137.93,63.9576 Z" stroke="#1D2A38" stroke-width="0.78" fill="#FAD749" fill-rule="nonzero"></path>
                <rect stroke="#1D2A38" stroke-width="0.78" fill="#FAD749" fill-rule="nonzero" x="123.2556" y="53.2872" width="14.1648" height="2.1528" rx="1.0764"></rect>
                <path d="M124.6336,53.2872 L136.0372,53.2872 C136.0372,53.2872 134.8152,50.0164 134.3628,48.524 C133.9104,47.0316 134.0508,43.766 134.0508,43.766 L126.62,43.766 C126.62,43.766 126.7656,47.0316 126.308,48.524 C125.8504,50.0164 124.6336,53.2872 124.6336,53.2872 Z" stroke="#1D2A38" stroke-width="0.78" fill="#FAD749" fill-rule="nonzero"></path>
                <path d="M137.0876,59.7768 C136.0736,58.9032 135.304,58.7836 135.304,57.546 C135.298797,56.8243678 135.429332,56.1081918 135.6888,55.4348 L124.982,55.4348 C125.241468,56.1081918 125.372003,56.8243678 125.3668,57.546 C125.3668,58.7836 124.5972,58.9032 123.5832,59.7768 C122.996809,60.2750194 122.763653,61.0747021 122.9904,61.81 L137.6804,61.81 C137.91003,61.0747269 137.67641,60.2734487 137.0876,59.7768 Z" stroke="#1D2A38" stroke-width="0.78" fill="#FAD749" fill-rule="nonzero"></path>
                <path d="M127.3688,42.0604 L133.3072,42.0604 C134.436925,40.9726048 135.070459,39.4686665 135.0596,37.9004 C135.0596,34.9312 132.9432,32.5184 130.338,32.5184 C127.7328,32.5184 125.6164,34.9312 125.6164,37.9004 C125.600593,39.4696441 126.234919,40.9754618 127.3688,42.0604 L127.3688,42.0604 Z" stroke="#1D2A38" stroke-width="0.78" fill="#FAD749" fill-rule="nonzero"></path>
                <rect stroke="#1D2A38" stroke-width="0.78" fill="#FAD749" fill-rule="nonzero" x="125.788" y="42.0604" width="9.0948" height="1.7056" rx="0.8528"></rect>
                <rect stroke="#334258" stroke-width="1.56" stroke-linecap="round" stroke-linejoin="round" x="109.4236" y="244.1428" width="96.486" height="66.3728"></rect>
                <path d="M168.2408,300.308 L146.8428,300.308 C146.004402,300.329236 145.299247,299.6838 145.2464,298.8468 L145.2464,298.8468 C145.299247,298.0098 146.004402,297.364364 146.8428,297.3856 L168.2408,297.3856 C169.083448,297.350384 169.795443,298.004209 169.832,298.8468 L169.832,298.8468 C169.795443,299.689391 169.083448,300.343216 168.2408,300.308 L168.2408,300.308 Z" stroke="#334258" stroke-width="0.78" fill="#FAD749" fill-rule="nonzero" stroke-linecap="round" stroke-linejoin="round"></path>
                <path d="M166.686,288.7328 L148.3976,288.7328 C148.000379,288.742572 147.615556,288.594088 147.327849,288.320035 C147.040142,288.045982 146.873137,287.668827 146.8636,287.2716 L146.8636,287.2716 C146.873137,286.874373 147.040142,286.497218 147.327849,286.223165 C147.615556,285.949112 148.000379,285.800628 148.3976,285.8104 L166.686,285.8104 C167.511187,285.792965 168.194923,286.446468 168.2148,287.2716 L168.2148,287.2716 C168.194923,288.096732 167.511187,288.750235 166.686,288.7328 L166.686,288.7328 Z" stroke="#334258" stroke-width="0.78" fill="#FAD749" fill-rule="nonzero" stroke-linecap="round" stroke-linejoin="round"></path>
                <path d="M167.2372,294.64 C165.7812,293.4492 164.6788,293.288 164.6788,291.6084 C164.671929,290.626342 164.859253,289.652613 165.23,288.7432 L149.8484,288.7432 C150.219147,289.652613 150.406471,290.626342 150.3996,291.6084 C150.3996,293.288 149.2972,293.4492 147.8412,294.64 C146.999702,295.283786 146.657571,296.389456 146.9884,297.396 L168.09,297.396 C168.420829,296.389456 168.078698,295.283786 167.2372,294.64 L167.2372,294.64 Z" stroke="#334258" stroke-width="0.78" fill="#FAD749" fill-rule="nonzero" stroke-linecap="round" stroke-linejoin="round"></path>
                <path d="M148.5588,285.8 L166.6288,285.8 C166.6288,285.8 167.024,281.2552 168.4332,278.9308 C168.4332,278.9308 172.146,271.2504 168.4332,263.2424 C164.7204,255.2344 157.3936,256.0508 157.3936,256.0508 L155.5112,254.4908 C155.289746,254.313501 154.984629,254.283306 154.732718,254.413759 C154.480808,254.544213 154.329395,254.810826 154.3464,255.094 L154.4816,257.0648 C153.061566,258.648773 151.754866,260.330802 150.5712,262.0984 C148.9644,264.584 146.8064,266.3728 146.8064,267.236 C146.8064,268.0992 148.512,270.59 149.7132,269.94 C150.9144,269.29 150.8208,268.0472 151.6736,267.938 C152.5264,267.8288 154.3828,268.6972 155.2876,267.7768 C156.1924,266.8564 157.04,264.6932 157.04,264.6932 C157.781677,266.510644 157.70975,268.558665 156.8424,270.3196 C155.3864,273.346 149.916,275.7848 149.214,279.326 C148.79043,281.458285 148.571038,283.626086 148.5588,285.8 L148.5588,285.8 Z" stroke="#334258" stroke-width="0.78" fill="#FAD749" fill-rule="nonzero" stroke-linecap="round" stroke-linejoin="round"></path>
                <path d="M114.4572,248.23 L124.1032,248.23" stroke="#334258" stroke-width="1.04" fill="#FFFFFF" fill-rule="nonzero" stroke-linecap="round" stroke-linejoin="round"></path>
                <path d="M114.4572,251.272 L124.1032,251.272" stroke="#334258" stroke-width="1.04" fill="#FFFFFF" fill-rule="nonzero" stroke-linecap="round" stroke-linejoin="round"></path>
                <path d="M114.4572,254.314 L124.1032,254.314" stroke="#334258" stroke-width="1.04" fill="#FFFFFF" fill-rule="nonzero" stroke-linecap="round" stroke-linejoin="round"></path>
                <path d="M195.1404,244.1428 L195.1404,301.608" stroke="#334258" stroke-width="1.04" fill="#FFFFFF" fill-rule="nonzero" stroke-linecap="round" stroke-linejoin="round"></path>
                <circle fill="#334258" fill-rule="nonzero" cx="200.3612" cy="300.2456" r="2.1684"></circle>
                <circle fill="#334258" fill-rule="nonzero" cx="200.3612" cy="293.0592" r="2.1684"></circle>
                <circle fill="#334258" fill-rule="nonzero" cx="200.3612" cy="285.8728" r="2.1684"></circle>
                <rect stroke="#1D2A38" stroke-width="0.78" stroke-linecap="round" stroke-linejoin="round" x="297.0292" y="64.2176" width="72.8364" height="50.1072"></rect>
                <path d="M300.8304,67.3012 L308.1156,67.3012" stroke="#1D2A38" stroke-width="0.52" fill="#FFFFFF" fill-rule="nonzero" stroke-linecap="round" stroke-linejoin="round"></path>
                <path d="M300.8304,69.5996 L308.1156,69.5996" stroke="#1D2A38" stroke-width="0.52" fill="#FFFFFF" fill-rule="nonzero" stroke-linecap="round" stroke-linejoin="round"></path>
                <path d="M300.8304,71.8928 L308.1156,71.8928" stroke="#1D2A38" stroke-width="0.52" fill="#FFFFFF" fill-rule="nonzero" stroke-linecap="round" stroke-linejoin="round"></path>
                <path d="M361.738,64.2176 L361.738,107.596" stroke="#1D2A38" stroke-width="0.52" fill="#FFFFFF" fill-rule="nonzero" stroke-linecap="round" stroke-linejoin="round"></path>
                <circle fill="#1D2A38" fill-rule="nonzero" cx="365.6796" cy="106.5664" r="1.638"></circle>
                <circle fill="#1D2A38" fill-rule="nonzero" cx="365.6796" cy="101.1428" r="1.638"></circle>
                <circle fill="#1D2A38" fill-rule="nonzero" cx="365.6796" cy="95.7192" r="1.638"></circle>
                <path d="M339.0764,106.6444 L324.1212,106.6444 C323.562025,106.665531 323.086369,106.240428 323.0448,105.6824 L323.0448,105.6824 C323.089011,105.126441 323.563892,104.704325 324.1212,104.7256 L339.0764,104.7256 C339.635685,104.701455 340.113736,105.124347 340.158,105.6824 L340.158,105.6824 C340.116388,106.242524 339.637554,106.66841 339.0764,106.6444 L339.0764,106.6444 Z" stroke="#1D2A38" stroke-width="0.78" fill="#FAD749" fill-rule="nonzero" stroke-linecap="round" stroke-linejoin="round"></path>
                <rect stroke="#1D2A38" stroke-width="0.78" fill="#FAD749" fill-rule="nonzero" stroke-linecap="round" stroke-linejoin="round" x="324.7296" y="97.144" width="13.7384" height="1.9136" rx="0.9568"></rect>
                <path d="M326.0712,97.144 L337.1316,97.144 C337.1316,97.144 335.946,94.2372 335.504,92.906 C335.062,91.5748 335.2024,88.668 335.2024,88.668 L327.9952,88.668 C327.9952,88.668 328.1356,91.5748 327.6988,92.906 C327.262,94.2372 326.0712,97.144 326.0712,97.144 Z" stroke="#1D2A38" stroke-width="0.78" fill="#FAD749" fill-rule="nonzero" stroke-linecap="round" stroke-linejoin="round"></path>
                <path d="M338.1456,102.9212 C337.1628,102.1412 336.4192,102.032 336.4192,100.9348 C336.414962,100.290109 336.542362,99.6513374 336.7936,99.0576 L326.3936,99.0576 C326.644838,99.6513374 326.772238,100.290109 326.768,100.9348 C326.768,102.032 326.0192,102.1412 325.0364,102.9212 C324.471252,103.33257 324.23946,104.06377 324.4644,104.7256 L338.7072,104.7256 C338.932596,104.066008 338.705506,103.336375 338.1456,102.9212 L338.1456,102.9212 Z" stroke="#1D2A38" stroke-width="0.78" fill="#FAD749" fill-rule="nonzero" stroke-linecap="round" stroke-linejoin="round"></path>
                <path d="M336.18,81.2268 C336.0292,78.8088 333.4448,76.2036 332.618,75.1324 C333.061007,74.7839641 333.31819,74.2504053 333.3148,73.6868 C333.349777,73.0521375 333.03107,72.4501293 332.486526,72.1222686 C331.941983,71.7944079 331.260817,71.7944079 330.716274,72.1222686 C330.17173,72.4501293 329.853023,73.0521375 329.888,73.6868 C329.883357,74.2495164 330.138544,74.7829139 330.5796,75.1324 C329.758,76.2036 327.1684,78.8088 327.0228,81.2268 C326.959336,83.0039941 327.545321,84.7434666 328.6712,86.12 L334.5316,86.12 C335.657479,84.7434666 336.243464,83.0039941 336.18,81.2268 L336.18,81.2268 Z" stroke="#1D2A38" stroke-width="0.78" fill="#FAD749" fill-rule="nonzero" stroke-linecap="round" stroke-linejoin="round"></path>
                <rect stroke="#1D2A38" stroke-width="0.78" fill="#FAD749" fill-rule="nonzero" stroke-linecap="round" stroke-linejoin="round" x="327.0228" y="87.394" width="9.1572" height="1.274" rx="0.637"></rect>
                <rect stroke="#1D2A38" stroke-width="0.78" fill="#FAD749" fill-rule="nonzero" stroke-linecap="round" stroke-linejoin="round" x="327.6208" y="86.12" width="7.9612" height="1.2792" rx="0.6396"></rect>
                <path d="M155.9064,170.6772 C155.9064,170.6772 163.3632,221.6372 178.932,221.835395 C197.8496,222.0532 209.9396,162.0348 209.9396,162.0348" stroke="#1D2A38" stroke-width="1.04"></path>
                <circle stroke="#1D2A38" stroke-width="0.78" fill="#FFFFFF" fill-rule="nonzero" cx="254.748" cy="152.1548" r="80.6676"></circle>
                <ellipse stroke="#1D2A38" stroke-width="0.78" fill="#FFFFFF" fill-rule="nonzero" transform="translate(272.448821, 15.386325) rotate(-84.920000) translate(-272.448821, -15.386325) " cx="272.448821" cy="15.3863255" rx="7.5608" ry="88.66"></ellipse>
                <path d="M266.448,64.0356 L272.4592,15.3844" stroke="#1D2A38" stroke-width="0.78" fill="#FFD700" fill-rule="nonzero" stroke-linecap="round"></path>
                <path d="M342.9244,157.776 C342.188975,167.431328 339.86086,176.89841 336.0344,185.7936 C334.13836,190.256068 329.744436,193.140222 324.896,193.105123 C299.1352,192.5536 316.3056,150.9588 307.736,139.0248 C298.4228,126.0248 284.856,142.6648 233.0952,138.1928 C204.8072,135.7332 189.852,129.4048 182.0988,124.1528 C176.814466,120.519545 175.190164,113.446263 178.36,107.8716 C198.596589,71.8546587 241.152395,54.7499266 280.685983,66.7430516 C320.219571,78.7361766 346.099248,116.601871 342.914,157.7916 L342.9244,157.776 Z" stroke="#1D2A38" stroke-width="0.78" fill="#FFD700" fill-rule="nonzero"></path>
                <path d="M316.1132,87.5032 C309.497389,85.390962 302.658637,84.0542729 295.7344,83.52 C261.580394,80.9075596 229.007794,98.3265287 212.2172,128.1828 C211.045446,130.249516 210.503221,132.613617 210.6572,134.9844 C196.3104,131.9528 187.4756,127.7928 182.1196,124.184 C176.818379,120.554084 175.183933,113.466965 178.36,107.882 C191.704156,84.131982 215.290031,67.8959968 242.238795,63.9092764 C269.18756,59.9225561 296.464099,68.6341065 316.1132,87.5032 L316.1132,87.5032 Z" stroke="#1D2A38" stroke-width="0.52" fill="#26241B" fill-rule="nonzero" opacity="0.7" style="mix-blend-mode: color-dodge;"></path>
                <path d="M248.3572,168.3372 C248.3572,168.3372 257.6132,217.8256 285.064,226.9204 C318.2452,237.9132 324.896,193.1204 324.896,193.1204" stroke="#1D2A38" stroke-width="1.04"></path>
                <path d="M229.9232,66.62 C229.9232,66.62 256.542,78.4708 294.866,72.4232" stroke="#1D2A38" stroke-width="0.78"></path>
                <ellipse fill="#FFFFFF" fill-rule="nonzero" transform="translate(208.275325, 89.268347) rotate(-45.000000) translate(-208.275325, -89.268347) " cx="208.275325" cy="89.2683472" rx="11.4296" ry="6.1152"></ellipse>
                <path d="M200.2,134.9688 L258.1228,147.8492 C258.1228,147.8492 268.45,150.4492 268.0028,164.6556 C267.5556,178.862 258.3932,176.0956 258.3932,176.0956 L195.208,186.4488 L200.2,134.9688 Z" stroke="#1D2A38" stroke-width="0.52" fill="#2E4257" fill-rule="nonzero"></path>
                <path d="M151.996,131.464 L209.924,144.36 C209.924,144.36 220.246,146.96 219.804,161.1716 C219.362,175.3832 210.1996,172.6116 210.1996,172.6116 L147.0352,182.944 L151.996,131.464 Z" stroke="#1D2A38" stroke-width="0.52" fill="#2E4257" fill-rule="nonzero"></path>
                <ellipse stroke="#1D2A38" stroke-width="0.78" fill="#F0F3F7" fill-rule="nonzero" transform="translate(148.188023, 157.212116) rotate(-86.210000) translate(-148.188023, -157.212116) " cx="148.188023" cy="157.212116" rx="28.3504" ry="21.6736"></ellipse>
                <ellipse stroke="#1D2A38" stroke-width="0.78" fill="#F0F3F7" fill-rule="nonzero" transform="translate(140.978332, 156.738321) rotate(-86.210000) translate(-140.978332, -156.738321) " cx="140.978332" cy="156.738321" rx="28.3504" ry="21.6736"></ellipse>
                <ellipse stroke="#1D2A38" stroke-width="0.52" fill="#2E4257" fill-rule="nonzero" transform="translate(140.978332, 156.738321) rotate(-86.210000) translate(-140.978332, -156.738321) " cx="140.978332" cy="156.738321" rx="24.4088" ry="18.6628"></ellipse>
                <ellipse fill="#FFFFFF" fill-rule="nonzero" transform="translate(136.669312, 148.218244) rotate(-85.995827) translate(-136.669312, -148.218244) " cx="136.669312" cy="148.218244" rx="9.35162763" ry="7.1466452"></ellipse>
                <ellipse stroke="#1D2A38" stroke-width="0.78" fill="#F0F3F7" fill-rule="nonzero" transform="translate(193.471032, 160.213117) rotate(-86.210000) translate(-193.471032, -160.213117) " cx="193.471032" cy="160.213117" rx="28.3504" ry="21.6736"></ellipse>
                <ellipse stroke="#1D2A38" stroke-width="0.781908665" fill="#F0F3F7" fill-rule="nonzero" transform="translate(187.383352, 160.032020) rotate(-85.995827) translate(-187.383352, -160.032020) " cx="187.383352" cy="160.03202" rx="28.4197736" ry="21.7266354"></ellipse>
                <ellipse stroke="#1D2A38" stroke-width="0.52" fill="#2E4257" fill-rule="nonzero" transform="translate(186.261672, 159.734476) rotate(-86.210000) translate(-186.261672, -159.734476) " cx="186.261672" cy="159.734476" rx="24.4088" ry="18.6628"></ellipse>
                <ellipse fill="#FFFFFF" fill-rule="nonzero" transform="translate(181.048690, 150.852410) rotate(-86.210000) translate(-181.048690, -150.852410) " cx="181.04869" cy="150.85241" rx="9.3288" ry="7.1292"></ellipse>
                <circle stroke="#1D2A38" stroke-width="0.78" fill="#FFD700" fill-rule="nonzero" cx="248.3572" cy="168.3372" r="14.7628"></circle>
                <path d="M309.9928,174.8268 C309.9928,174.8268 319.3528,177.7284 340.834,173.7036" stroke="#1D2A38" stroke-width="2.5324"></path>
            </g>
        </g>
    </g>
</svg>