<?xml version="1.0" encoding="UTF-8"?>
<svg width="420px" height="420px" viewBox="0 0 420 420" version="1.1" xmlns="http://www.w3.org/2000/svg" xmlns:xlink="http://www.w3.org/1999/xlink">
    <!-- Generator: Sketch 57.1 (83088) - https://sketch.com -->
    <title>cf-3</title>
    <desc>Created with Sketch.</desc>
    <g stroke="none" stroke-width="1" fill="none" fill-rule="evenodd">
        <g>
            <g transform="translate(43.688630, 52.000000)">
                <path d="M192.1072,21.3992 C192.1072,21.3992 191.3844,12.9232 187.7964,9.0024 C184.2084,5.0816 189.0028,0.3288 199.4912,0.3288 C209.9796,0.3288 223.4112,1.9148 229.3288,15.258 C229.3288,15.258 238.5588,14.712 233.4004,34.8308 C233.4004,34.8308 199.8344,33.2968 192.1072,21.3992 Z" stroke="#1D2A38" stroke-width="0.52" fill="#2E4257" fill-rule="nonzero"></path>
                <path d="M166.2892,225.6864 L140.3828,326.0048" stroke="#1D2A38" stroke-width="0.78" fill="#FFF5E3" fill-rule="nonzero" stroke-linecap="round"></path>
                <path d="M95.252,225.6864 L69.2,326.5716" stroke="#1D2A38" stroke-width="0.78" fill="#FFF5E3" fill-rule="nonzero" stroke-linecap="round"></path>
                <path d="M173.8136,224.0172 L199.8656,324.9024" stroke="#1D2A38" stroke-width="0.78" fill="#FFF5E3" fill-rule="nonzero" stroke-linecap="round"></path>
                <path d="M109.63,160.6604 L155.0676,224.0172" stroke="#1D2A38" stroke-width="0.78" fill="#FFF5E3" fill-rule="nonzero"></path>
                <path d="M157.5168,224.012 C170.251894,223.811986 181.091559,214.686591 183.4596,202.172 L207.3796,77.0964 C207.3796,77.0964 209.0956,64.4084 217.7224,64.4808879 L303.8552,64.4808879 C295.2908,64.4808879 293.58,77.0964 293.58,77.0964 L293.06,79.6964 L269.634,202.2448 C267.277717,214.717032 256.476096,223.812905 243.7848,224.012 L196.3192,224.012 C196.3192,224.012 183.5428,223.1488 178.8004,239.924 L92.5324,239.924 C97.2748,223.1488 110.0512,224.012 110.0512,224.012 L157.5168,224.012 Z" stroke="#1D2A38" stroke-width="0.52" fill="#334258" fill-rule="nonzero"></path>
                <path d="M153.8612,224.012 C166.597042,223.813988 177.437804,214.68767 179.804,202.172 L203.724,77.0964 C203.724,77.0964 205.4452,64.4084 214.0668,64.4808879 L300.2048,64.4808879 C291.6352,64.4808879 289.9296,77.0964 289.9296,77.0964 L289.4096,79.6964 L265.9836,202.2448 C263.62323,214.716762 252.820966,223.811348 240.1292,224.012 L192.6636,224.012 C192.6636,224.012 179.8872,223.1488 175.1448,239.924 L88.8768,239.924 C93.6192,223.1488 106.3956,224.012 106.3956,224.012 L153.8612,224.012 L153.8612,224.012 Z" stroke="#1D2A38" stroke-width="0.78" fill="#FFFEEB" fill-rule="nonzero"></path>
                <polygon stroke="#1D2A38" stroke-width="0.78" fill="#F3EFE5" fill-rule="nonzero" points="61.9356 287.2856 44.9732 317.976 32.93 312.152 50.3604 276.1264"></polygon>
                <path d="M192.0292,21.8412 L189.528,44.5964 C189.049977,48.9382118 190.507595,53.2702971 193.513029,56.4400288 C196.518464,59.6097604 200.766912,61.295673 205.128,61.0492 L205.8612,61.0076 L205.8612,69.182 L226.838,67.622 L226.838,47.342 C226.838256,46.2058402 227.500441,45.1739693 228.5332,44.7004 L231.6844,43.26 C232.717979,42.7846206 233.380073,41.7508602 233.379601,40.6132 L233.379601,34.0352 C233.380391,32.7467388 232.534352,31.6109316 231.2996,31.2428 L225.4808,31.0088 L225.4808,25.0964 C225.482911,23.6669228 224.443597,22.4488742 223.0316,22.226 L220.6708,21.8412 L220.6708,21.8412 C220.443324,19.1116183 218.291537,16.9379188 215.5644,16.6828 C207.728,15.96 192.7364,15.44 192.0292,21.8412 Z" stroke="#1D2A38" stroke-width="0.78" fill="#F3EFE5" fill-rule="nonzero"></path>
                <circle stroke="#1D2A38" stroke-width="0.78" fill="#2E4257" fill-rule="nonzero" cx="194.9932" cy="33.6712" r="1.5132"></circle>
                <circle stroke="#1D2A38" stroke-width="0.78" fill="#2E4257" fill-rule="nonzero" cx="206.376" cy="33.6712" r="1.5132"></circle>
                <polygon stroke="#1D2A38" stroke-width="0.52" fill="#313E55" fill-rule="nonzero" points="40.1944 297.1344 52.9084 303.702 56.9852 295.7148 43.408 290.494"></polygon>
                <polygon stroke="#1D2A38" stroke-width="0.78" fill="#F3EFE5" fill-rule="nonzero" points="177.438 281.7112 175.5348 316.7228 162.1552 316.7228 162.1552 276.7088"></polygon>
                <polygon stroke="#1D2A38" stroke-width="0.78" fill="#D5B199" fill-rule="nonzero" points="135.7184 136.9328 136.852 151.1184 164.0116 151.1184 179.0188 119.0448 191.6652 72.6972 186.3976 72.6972 151.0636 130.0272"></polygon>
                <polygon stroke="#1D2A38" stroke-width="0.78" fill="#3B4D63" fill-rule="nonzero" points="153.206 178.7304 200.5312 186.0312 231.2632 198.4176 241.2836 151.16 241.2836 151.16 243.9044 137.5464 253.2176 136.8912 238.46 101.3388 242.9684 72.6972 191.6652 72.6972 179.0188 119.0448 170.0852 151.16"></polygon>
                <path d="M40.9796,290.676 L59.5384,296.5364 L113.9824,215.7024 L141.9636,220.7828 L161.0788,292.6416 L179.1332,292.6416 L174.006,210.6272 L225.928,223.5544 L231.2632,198.4176 L200.5312,186.0312 L155.0676,187.716 C155.0676,187.716 125.204,180.1188 105.6676,178.7304 C93.7076,177.8828 89.116,191.2676 89.116,191.2676 L40.9796,290.676 Z" stroke="#1D2A38" stroke-width="0.78" fill="#617181" fill-rule="nonzero"></path>
                <polygon stroke="#1D2A38" stroke-width="0.78" fill="#D5B199" fill-rule="nonzero" points="200.5312 116.268 208.6328 103.2576 227.6544 72.6868 227.9092 65.5212 204.8628 65.6512 204.3896 70.9344 202.4084 94.2616"></polygon>
                <polyline stroke="#1D2A38" stroke-width="0.78" stroke-linecap="round" stroke-linejoin="round" points="219.6412 85.562 210.7596 72.692 203.4796 81.6568"></polyline>
                <polygon stroke="#1D2A38" stroke-width="0.52" fill="#334258" fill-rule="nonzero" points="225.3664 223.4192 224.4252 224.1316 174.8328 223.8872 174.0112 210.6376"></polygon>
                <path d="M141.9636,220.7828 L135.24,191.3768 C135.24,191.3768 131.0072,176.614 157.0436,178.8968 C173.278,180.332 200.5312,186.0156 200.5312,186.0156" stroke="#1D2A38" stroke-width="0.78" fill="#617181" fill-rule="nonzero"></path>
                <path d="M230.2388,170.1608 C230.2388,170.1608 215.2576,166.1412 207.2236,167.6024" stroke="#1D2A38" stroke-width="0.78"></path>
                <path d="M177.9944,165.4132 L166.5492,165.4132" stroke="#1D2A38" stroke-width="0.78" fill="#F3EFE5" fill-rule="nonzero"></path>
                <path d="M186.3976,160.6604 L177.9944,178.7252" stroke="#1D2A38" stroke-width="0.78" fill="#F3EFE5" fill-rule="nonzero"></path>
                <polygon stroke="#1D2A38" stroke-width="0.78" fill="#F3EFE5" fill-rule="nonzero" points="200.5312 116.268 208.6328 103.2576 209.5584 84.3556 215.5332 79.608 210.7596 72.6868 206.2928 78.1936 206.9012 83.846 202.4084 94.2616"></polygon>
                <path d="M176.5176,326.0048 L142.4212,326.0048 C141.746125,326.003303 141.113763,325.674278 140.725108,325.122305 C140.336452,324.570331 140.239848,323.864069 140.466,323.228 C141.11223,321.354755 142.419334,319.781424 144.1424,318.8028 C147.928,316.7904 155.3328,313.5352 158.9208,305.6988 C159.261072,304.976917 159.989557,304.518316 160.7876,304.523555 L165.764,304.523555 C166.541931,304.524931 167.254097,304.960254 167.61,305.652 C168.2756,306.9988 169.5912,309.1464 171.4372,309.812 C172.484872,310.169796 173.625894,309.621272 174.0008,308.5796 C174.103077,308.283585 174.246626,308.003488 174.4272,307.7476 C175.5556,306.1876 178.0672,307.0508 178.1296,308.98 L178.5976,323.878 C178.610197,324.437714 178.396628,324.978873 178.005179,325.37913 C177.61373,325.779387 177.077455,326.0048 176.5176,326.0048 Z" stroke="#1D2A38" stroke-width="0.78" fill="#D5B199" fill-rule="nonzero"></path>
                <polygon stroke="#1D2A38" stroke-width="0.52" fill="#313E55" fill-rule="nonzero" points="162.1552 300.0464 176.4552 300.4156 176.8764 292.6624 162.1552 292.6624"></polygon>
                <path d="M49.8196,313.4312 L42.7528,324.3512 C42.29,325.0636 41.7804,326.0048 40.626,326.0048 L27.8964,326.0048 L2.4476,315.012 C1.25448751,314.57088 0.642943957,313.247807 1.08,312.0532 C1.40165567,310.94444 2.44980484,310.207494 3.602,310.28 C6.6128,310.384 25.754,312.1208 32.2488,305.1476 C32.5928121,304.761904 33.0592954,304.506624 33.5696,304.4248 C34.8240541,304.214659 36.1124608,304.452094 37.2096,305.0956 C37.7479305,305.487067 38.0865189,306.095765 38.1352,306.7596 C38.312,308.4236 39.5704,311.9596 47.2664,309.9368 C48.028969,309.730384 48.8441637,309.926344 49.4296,310.4568 L49.4296,310.4568 C50.269646,311.219402 50.4346468,312.477808 49.8196,313.4312 L49.8196,313.4312 Z" stroke="#1D2A38" stroke-width="0.78" fill="#D5B199" fill-rule="nonzero"></path>
                <rect stroke="#1D2A38" stroke-width="1.56" fill="#627181" fill-rule="nonzero" x="129.6864" y="136.938" width="14.326" height="14.326" rx="7.1604"></rect>
                <rect stroke="#1D2A38" stroke-width="1.56" fill="#F3EFE5" fill-rule="nonzero" stroke-linecap="round" stroke-linejoin="round" x="128.3344" y="138.7476" width="13.8164" height="12.5112"></rect>
                <path d="M128.3344,141.826 L142.1508,141.826" stroke="#1D2A38" stroke-width="1.56" fill="#F3EFE5" fill-rule="nonzero" stroke-linecap="round" stroke-linejoin="round"></path>
                <path d="M128.3344,145.2892 L142.1508,145.2892" stroke="#1D2A38" stroke-width="1.56" fill="#F3EFE5" fill-rule="nonzero" stroke-linecap="round" stroke-linejoin="round"></path>
                <path d="M128.3344,148.7524 L142.1508,148.7524" stroke="#1D2A38" stroke-width="1.56" fill="#F3EFE5" fill-rule="nonzero" stroke-linecap="round" stroke-linejoin="round"></path>
                <polygon stroke="#1D2A38" stroke-width="0.78" fill="#2E4257" fill-rule="nonzero" points="205.8872 61.0076 215.6112 60.3992 205.8872 64.3252"></polygon>
                <path d="M230.9616,33.9156 C227.15,33.614 226.7236,38.4448 226.7236,38.4448 C226.7236,38.4448 229.2456,36.8848 230.7432,38.4448" stroke="#1D2A38" stroke-width="0.78" fill="#F3EFE5" fill-rule="nonzero" stroke-linecap="round" stroke-linejoin="round"></path>
                <polygon stroke="#1D2A38" stroke-width="0.52" fill="#334258" fill-rule="nonzero" points="244.8352 137.5464 238.4392 101.5936 253.462 136.8912"></polygon>
                <path d="M3.3888,326.0048 L230.2388,326.0048" stroke="#1D2A38" stroke-width="0.78" fill="#334258" fill-rule="nonzero" stroke-linecap="round" stroke-linejoin="round"></path>
                <path d="M187.9628,160.6604 L233.4004,224.0172" stroke="#1D2A38" stroke-width="0.78" fill="#FFF5E3" fill-rule="nonzero"></path>
                <path d="M242.9632,224.0172 L265.0528,309.5624" stroke="#1D2A38" stroke-width="0.78" fill="#FFF5E3" fill-rule="nonzero" stroke-linecap="round"></path>
                <path d="M211.03,28.9912 C211.03,28.9912 209.1996,25.1068 204.192,25.5072" stroke="#1D2A38" stroke-width="0.78" stroke-linecap="round" stroke-linejoin="round"></path>
                <path d="M196.2204,25.476 C196.2204,25.476 193.1004,26.6668 192.5024,29.35" stroke="#1D2A38" stroke-width="0.78" stroke-linecap="round" stroke-linejoin="round"></path>
                <rect stroke="#1D2A38" stroke-width="0.52" fill="#2E4257" fill-rule="nonzero" transform="translate(198.136600, 52.971000) rotate(-180.000000) translate(-198.136600, -52.971000) " x="190.7656" y="44.4144" width="14.742" height="17.1132" rx="4.6072"></rect>
                <polyline stroke="#1D2A38" stroke-width="0.78" fill="#F3EFE5" fill-rule="nonzero" stroke-linecap="round" stroke-linejoin="round" points="197.0836 36.9472 195.3676 45.47 199.6316 44.6848"></polyline>
                <path d="M215.2368,39.5316 C215.2368,39.5316 212.0648,42.6516 208.7576,42.7244" stroke="#1D2A38" stroke-width="0.78" fill="#F3EFE5" fill-rule="nonzero" stroke-linecap="round" stroke-linejoin="round"></path>
                <rect stroke="#1D2A38" stroke-width="0.78" fill="#F3EFE5" fill-rule="nonzero" stroke-linecap="round" stroke-linejoin="round" transform="translate(197.562000, 50.854600) rotate(-180.000000) translate(-197.562000, -50.854600) " x="193.1992" y="48.018" width="8.7256" height="5.6732" rx="1.014"></rect>
                <path d="M194.8216,51.6372 L198.732,51.6372 L198.732,53.5716 C198.732,53.7950184 198.643247,54.0092861 198.485267,54.1672668 C198.327286,54.3252474 198.113018,54.414 197.8896,54.414 L195.6692,54.414 C195.203955,54.414 194.8268,54.0368447 194.8268,53.5716 L194.8268,51.6372 L194.8216,51.6372 Z" stroke="#1D2A38" stroke-width="0.52" fill="#2E4257" fill-rule="nonzero" transform="translate(196.776800, 53.025600) rotate(-180.000000) translate(-196.776800, -53.025600) "></path>
                <rect stroke="#1D2A38" stroke-width="0.78" fill="#F3EFE5" fill-rule="nonzero" stroke-linecap="round" stroke-linejoin="round" transform="translate(169.206400, 143.588800) rotate(-180.000000) translate(-169.206400, -143.588800) " x="160.486" y="133.5528" width="17.4408" height="20.072"></rect>
                <path d="M183.0384,142.9388 L183.0384,145.4712 C183.0384,147.194328 181.641528,148.5912 179.9184,148.5912 L177.8956,148.5912 L177.8956,151.134 L180.922,151.134 C183.598593,151.134 185.7684,148.964193 185.7684,146.2876 L185.7684,142.1276 C185.7684,139.451007 183.598593,137.2812 180.922,137.2812 L177.8956,137.2812 L177.8956,139.8344 L179.96,139.8344 C181.660804,139.857059 183.030046,141.237866 183.0384,142.9388 L183.0384,142.9388 Z" stroke="#1D2A38" stroke-width="0.78" fill="#F3EFE5" fill-rule="nonzero" stroke-linecap="round" stroke-linejoin="round"></path>
                <path d="M191.6652,72.6972 L191.6652,72.6868" stroke="#1D2A38" stroke-width="1.56"></path>
                <path d="M123.2228,115.3372 L80.2292,115.3372 C79.6658894,115.338183 79.1514819,115.657347 78.9004426,116.161628 C78.6494033,116.665909 78.7048244,117.268743 79.0436,117.7188 L104.9864,152.1584 C105.788388,153.222949 107.043965,153.848812 108.3768,153.8484 L152.218,153.8484 L123.2228,115.3372 Z" stroke="#1D2A38" stroke-width="0.78" fill="#FFF5E3" fill-rule="nonzero"></path>
                <rect stroke="#1D2A38" stroke-width="0.78" fill="#2E4257" fill-rule="nonzero" transform="translate(137.407286, 134.728202) rotate(142.250000) translate(-137.407286, -134.728202) " x="136.130686" y="110.535202" width="2.5532" height="48.386" rx="1.2766"></rect>
                <path d="M95.278,152.4912 L105.314,134.1196 C105.587067,133.624988 106.106224,133.316676 106.6712,133.3136 L124.32,133.3136 C124.635379,133.316023 124.926457,133.483427 125.087155,133.754805 C125.247853,134.026182 125.2547,134.361896 125.1052,134.6396 L115.1056,152.9436 C114.711994,153.664597 113.956239,154.113264 113.1348,154.1136 L96.24,154.1136 C95.8530356,154.11313 95.4949326,153.908855 95.2975693,153.576005 C95.1002061,153.243154 95.0927702,152.830952 95.278,152.4912 Z" stroke="#1D2A38" stroke-width="0.52" fill="#2E4257" fill-rule="nonzero"></path>
                <ellipse stroke="#1D2A38" stroke-width="0.78" fill="#3B4D63" fill-rule="nonzero" cx="205.492" cy="124.562" rx="2.5948" ry="2.4856"></ellipse>
                <ellipse stroke="#1D2A38" stroke-width="0.78" fill="#3B4D63" fill-rule="nonzero" cx="200.2972" cy="138.4304" rx="2.5948" ry="2.4856"></ellipse>
                <polygon stroke="#1D2A38" stroke-width="1.56" fill="#F3EFE5" fill-rule="nonzero" stroke-linecap="round" stroke-linejoin="round" points="211.6488 142.8192 198.4876 142.8868 182.9968 139.2156 182.8928 151.5864 196.4128 154.1136 211.6488 153.8744"></polygon>
                <path d="M211.6436,139.824 L211.7476,153.864 L264.3976,153.864 C272.2704,153.864 276.4356,146.2616 274.4076,138.6592 L256.7692,72.6972 L242.9684,72.6972 L238.46,101.3388 L253.2176,136.8912 L211.6436,139.824 Z" stroke="#1D2A38" stroke-width="0.78" fill="#D5B199" fill-rule="nonzero"></path>
                <path d="M217.868,139.3872 L217.868,153.8744" stroke="#1D2A38" stroke-width="0.78" fill="#F3EFE5" fill-rule="nonzero" stroke-linecap="round" stroke-linejoin="round"></path>
                <rect stroke="#1D2A38" stroke-width="0.78" fill="#F3EFE5" fill-rule="nonzero" stroke-linecap="round" stroke-linejoin="round" transform="translate(204.098400, 147.592800) rotate(-180.000000) translate(-204.098400, -147.592800) " x="201.8104" y="141.3372" width="4.576" height="12.5112"></rect>
                <circle stroke="#1D2A38" stroke-width="0.78" fill="#F3EFE5" fill-rule="nonzero" stroke-linecap="round" stroke-linejoin="round" cx="204.1712" cy="148.0712" r="4.4876"></circle>
                <path d="M204.1712,148.0712 L202.1016,145.9756" stroke="#1D2A38" stroke-width="0.78" fill="#F3EFE5" fill-rule="nonzero" stroke-linecap="round" stroke-linejoin="round"></path>
                <rect stroke="#1D2A38" stroke-width="0.52" fill="#1D2A38" fill-rule="nonzero" stroke-linecap="round" stroke-linejoin="round" transform="translate(199.116800, 148.071200) rotate(180.000000) translate(-199.116800, -148.071200) " x="198.4928" y="147.1976" width="1.248" height="1.7472" rx="0.624"></rect>
                <polygon stroke="#1D2A38" stroke-width="0.78" fill="#F3EFE5" fill-rule="nonzero" stroke-linecap="round" stroke-linejoin="round" points="182.9968 139.2156 177.9632 140.5832 177.9632 142.944 182.976 141.7324"></polygon>
                <polygon stroke="#1D2A38" stroke-width="0.78" fill="#F3EFE5" fill-rule="nonzero" stroke-linecap="round" stroke-linejoin="round" points="177.9372 143.2664 177.9164 146.2876 182.95 144.7692 182.976 141.8676"></polygon>
                <polygon stroke="#1D2A38" stroke-width="0.78" fill="#F3EFE5" fill-rule="nonzero" stroke-linecap="round" stroke-linejoin="round" points="182.8928 148.1336 178.1088 148.2844 178.0932 146.1576 182.95 144.7692"></polygon>
                <polygon stroke="#1D2A38" stroke-width="0.78" fill="#F3EFE5" fill-rule="nonzero" stroke-linecap="round" stroke-linejoin="round" points="182.8928 151.5864 178.2128 150.8012 178.1088 148.2844 182.8928 148.1336"></polygon>
                <rect stroke="#1D2A38" stroke-width="0.52" fill="#C2BBAB" fill-rule="nonzero" x="86.0376" y="154.1136" width="144.2012" height="6.5468"></rect>
                <rect stroke="#1D2A38" stroke-width="0.52" fill="#DBD3C3" fill-rule="nonzero" transform="translate(125.219600, 157.392200) rotate(-180.000000) translate(-125.219600, -157.392200) " x="86.0376" y="154.1188" width="78.364" height="6.5468"></rect>
                <ellipse stroke="#1D2A38" stroke-width="0.52" fill="#FFF5E3" fill-rule="nonzero" stroke-linecap="round" stroke-linejoin="round" transform="translate(87.381798, 120.968719) rotate(-52.990000) translate(-87.381798, -120.968719) " cx="87.3817976" cy="120.968719" rx="1" ry="1.7212"></ellipse>
                <ellipse stroke="#1D2A38" stroke-width="0.52" transform="translate(91.718753, 120.968852) rotate(-52.990000) translate(-91.718753, -120.968852) " cx="91.7187534" cy="120.968852" rx="1" ry="1.1856"></ellipse>
                <path d="M177.9164,136.444 L160.4808,136.444" stroke="#1D2A38" stroke-width="0.78" fill="#F3EFE5" fill-rule="nonzero"></path>
                <rect stroke="#1D2A38" stroke-width="0.78" fill="#D5B199" fill-rule="nonzero" transform="translate(32.932038, 308.092208) rotate(128.920000) translate(-32.932038, -308.092208) " x="31.6892377" y="304.990408" width="2.4856" height="6.2036" rx="1.2428"></rect>
                <rect stroke="#1D2A38" stroke-width="0.78" fill="#D5B199" fill-rule="nonzero" transform="translate(160.759000, 308.090800) rotate(90.000000) translate(-160.759000, -308.090800) " x="159.5162" y="304.989" width="2.4856" height="6.2036" rx="1.2428"></rect>
                <rect stroke="#1D2A38" stroke-width="0.78" fill="#D5B199" fill-rule="nonzero" transform="translate(156.359800, 312.656400) rotate(90.000000) translate(-156.359800, -312.656400) " x="155.117" y="309.5546" width="2.4856" height="6.2036" rx="1.2428"></rect>
                <rect stroke="#1D2A38" stroke-width="0.78" fill="#D5B199" fill-rule="nonzero" transform="translate(151.045400, 316.722800) rotate(90.000000) translate(-151.045400, -316.722800) " x="149.8026" y="313.621" width="2.4856" height="6.2036" rx="1.2428"></rect>
                <rect stroke="#1D2A38" stroke-width="0.78" fill="#D5B199" fill-rule="nonzero" transform="translate(27.829106, 310.499993) rotate(128.920000) translate(-27.829106, -310.499993) " x="26.5863055" y="307.398193" width="2.4856" height="6.2036" rx="1.2428"></rect>
                <rect stroke="#1D2A38" stroke-width="0.78" fill="#D5B199" fill-rule="nonzero" transform="translate(21.431153, 311.891066) rotate(128.920000) translate(-21.431153, -311.891066) " x="20.1883529" y="308.789266" width="2.4856" height="6.2036" rx="1.2428"></rect>
                <circle stroke="#1D2A38" stroke-width="0.78" fill="#F3EFE5" fill-rule="nonzero" cx="200.604" cy="37.4308" r="2.34"></circle>
                <circle stroke="#1D2A38" stroke-width="0.78" fill="#F3EFE5" fill-rule="nonzero" cx="194.1664" cy="37.306" r="2.34"></circle>
                <path d="M198.264,37.4308 C198.264,37.4308 197.1616,36.2764 196.5012,37.4308" stroke="#1D2A38" stroke-width="0.78"></path>
                <path d="M227.0356,39.6668 C226.756742,39.1977028 226.66222,38.6416936 226.7704,38.1068 C226.91261,37.3212829 227.479762,36.6799798 228.242,36.4428 C229.194478,36.1285422 230.238924,36.4984096 230.781356,37.3420561 C231.323787,38.1857026 231.22682,39.2894541 230.5456,40.0256 L230.5456,40.0256 L226.3856,45.1216 C226.116017,45.4598595 225.636799,45.5445586 225.2676,45.3192 L225.2676,45.3192 C224.885339,45.093234 224.736881,44.6141175 224.9244,44.2116 L227.0356,39.6668 Z" stroke="#1D2A38" stroke-width="0.78" fill="#F3EFE5" fill-rule="nonzero"></path>
                <circle fill="#1D2A38" fill-rule="nonzero" cx="230.0152" cy="38.2368" r="1"></circle>
                <rect fill="#1D2A38" fill-rule="nonzero" transform="translate(229.564948, 39.174964) rotate(-146.780000) translate(-229.564948, -39.174964) " x="229.239948" y="38.9851637" width="1" height="1" rx="0.1924"></rect>
                <polygon stroke="#1D2A38" stroke-width="0.52" fill="#F3EFE5" fill-rule="nonzero" points="183.4336 104.854 199.4028 104.854 200.5312 100.3768 184.562 100.3768"></polygon>
                <path d="M178.5508,322.448 L140.7988,322.448" stroke="#1D2A38" stroke-width="0.78" fill="#D5B199" fill-rule="nonzero"></path>
                <path d="M36.778,326.0048 L1.4024,311.4084" stroke="#1D2A38" stroke-width="0.78" fill="#D5B199" fill-rule="nonzero"></path>
                <ellipse stroke="#1D2A38" stroke-width="0.78" fill="#FFFFFF" fill-rule="nonzero" transform="translate(129.685257, 9.654397) rotate(-4.330000) translate(-129.685257, -9.654397) " cx="129.685257" cy="9.65439681" rx="23.4936" ry="1.3728"></ellipse>
                <circle stroke="#1D2A38" stroke-width="0.78" fill="#FFFFFF" fill-rule="nonzero" stroke-linecap="round" stroke-linejoin="round" cx="132.4996" cy="45.5376" r="18.5016"></circle>
                <circle stroke="#1D2A38" stroke-width="0.78" fill="#FFD700" fill-rule="nonzero" cx="127.5076" cy="45.6312" r="3.5204"></circle>
                <path d="M149.0096,49.0112 C149.0096,49.0112 154.532,63.826 146.8308,65.9424 C140.1488,67.778 137.762,59.7804 137.762,59.7804" stroke="#1D2A38" stroke-width="1.04" stroke-linecap="round"></path>
                <path d="M114.2736,49.1568 C114.2736,49.1568 106.7492,63.0772 110.3892,64.7152 C113.4676,66.0984 114.9132,59.5152 114.9132,59.5152" stroke="#1D2A38" stroke-width="1.04"></path>
                <polygon stroke="#1D2A38" stroke-width="0.52" fill="#F0F3F7" fill-rule="nonzero" stroke-linecap="round" stroke-linejoin="round" points="119.3852 69.9464 137.2784 69.9464 132.1668 46.8428 114.2736 46.8428"></polygon>
                <path d="M116.0728,56.1612 C116.0728,56.1612 117.69,55.61 118.314,56.5148 C118.938,57.4196 118.834,59.7232 115.8544,59.7804 C112.8748,59.8376 114.1488,54.0604 115.09,54.2892 C116.0312,54.518 116.0728,56.1612 116.0728,56.1612 Z" stroke="#1D2A38" stroke-width="0.78" fill="#FFD700" fill-rule="nonzero"></path>
                <rect fill="#1D2A38" fill-rule="nonzero" transform="translate(139.147626, 55.667767) rotate(-97.350000) translate(-139.147626, -55.667767) " x="138.575626" y="51.3101674" width="1.144" height="8.7152" rx="0.572"></rect>
                <path d="M135.0684,59.9676 C135.0684,59.9676 138.7968,60.8828 138.9268,58.5584 C139.0568,56.234 137.9804,54.4244 136.2124,54.3984 C134.4444,54.3724 134.1012,55.5944 134.1012,55.5944 L135.0684,59.9676 Z" stroke="#1D2A38" stroke-width="0.78" fill="#FFD700" fill-rule="nonzero"></path>
                <path d="M115.9272,37.8 C125.4432,40.3324 136.0616,38.9492 142.26,37.7012 L142.3588,37.7012 C143.000424,37.5473341 143.676951,37.6571447 144.236967,38.006055 C144.796982,38.3549653 145.193725,38.9138413 145.3384,39.5576 C145.9364,41.9756 144.6364,51.6424 151.4848,49.6976 C151.810601,49.713837 152.101526,49.4950965 152.1764,49.1776 C152.651187,46.9977662 152.775814,44.7562312 152.5456,42.5372 C151.619402,33.7364264 145.188314,26.5042235 136.556082,24.5558828 C127.92385,22.607542 119.009795,26.3762642 114.3932,33.926 C113.962748,34.6243147 113.887101,35.4848184 114.189112,36.2475249 C114.491123,37.0102313 115.135368,37.5856766 115.9272,37.8 L115.9272,37.8 Z" stroke="#1D2A38" stroke-width="0.78" fill="#FFD700" fill-rule="nonzero"></path>
                <path d="M137.2784,24.7168 C132.968374,25.4906055 128.584505,25.7732106 124.2108,25.5592" stroke="#1D2A38" stroke-width="0.52" fill="#FFD700" fill-rule="nonzero"></path>
                <path d="M131.028,24.0564 L129.6708,9.6576" stroke="#1D2A38" stroke-width="0.78" fill="#FFD700" fill-rule="nonzero" stroke-linecap="round"></path>
                <path d="M145.8012,29.61 C145.8012,29.61 134.0388,35.85 115.688,31.69 C115.688,31.69 120.7164,23.6508 132.2136,24.0668 C132.2136,24.0564 140.336,23.76 145.8012,29.61 Z" stroke="#1D2A38" stroke-width="0.52" fill="#26241B" fill-rule="nonzero" opacity="0.7" style="mix-blend-mode: color-dodge;"></path>
                <ellipse fill="#FFFFFF" fill-rule="nonzero" cx="125.568" cy="29.0588" rx="2.314" ry="1.3728"></ellipse>
            </g>
        </g>
    </g>
</svg>