<?xml version="1.0" encoding="UTF-8"?>
<svg width="376px" height="376px" viewBox="0 0 376 376" version="1.1" xmlns="http://www.w3.org/2000/svg" xmlns:xlink="http://www.w3.org/1999/xlink">
    <!-- Generator: Sketch 57.1 (83088) - https://sketch.com -->
    <title>cf-4</title>
    <desc>Created with Sketch.</desc>
    <g stroke="none" stroke-width="1" fill="none" fill-rule="evenodd">
        <g>
            <g>
                <!-- <path d="M375.578486,187.791905 C375.626065,229.262267 361.901835,269.574557 336.559922,302.401081 C334.202762,305.455583 331.751171,308.437444 329.205148,311.346666 C297.851312,347.326541 253.939689,369.973191 206.445792,374.657653 C200.311365,375.267827 194.091587,375.578362 187.786457,375.578362 C185.24225,375.578362 182.703491,375.52933 180.186524,375.425819 C79.998153,371.437896 0,288.960912 0,187.791905 C0,84.0786907 84.0732428,0 187.786457,0 C291.499671,0 375.578486,84.0786907 375.578486,187.791905 Z" fill="#FFFFFF" fill-rule="nonzero"></path> -->
                <ellipse stroke="#1D2A38" stroke-width="0.81719715" fill="#FFFFFF" fill-rule="nonzero" cx="114.184234" cy="59.3938888" rx="30.9172922" ry="2.08112874"></ellipse>
                <circle stroke="#1D2A38" stroke-width="1.6343943" fill="#FFFFFF" fill-rule="nonzero" cx="114.331329" cy="103.920238" r="27.9154546"></circle>
                <path d="M144.327913,103.691422 L144.327913,103.691422 C144.330979,104.456898 143.771955,105.108706 143.014949,105.222305 C139.375698,105.767103 138.770972,101.495886 138.15535,96.3911278 C137.468905,90.7143316 133.007008,92.5775411 133.007008,92.5775411 C111.367628,99.5618527 98.6847278,92.4631335 94.7022537,92.4631335 C90.7197796,92.4631335 91.7875838,97.9383544 90.4364846,102.966841 C89.5648076,106.143014 87.3747192,106.780428 85.8765245,106.856699 C85.01688,106.890727 84.289087,106.228436 84.2421302,105.3694 C84.2094423,104.824602 84.1930983,104.241668 84.1930983,103.675078 C84.4145356,87.2226479 97.8147568,74.0015698 114.268677,74.0015698 C130.722598,74.0015698 144.122819,87.2226479 144.344257,103.675078 L144.327913,103.691422 Z" stroke="#1D2A38" stroke-width="0.81719715" fill="#FFD700" fill-rule="nonzero"></path>
                <circle stroke="#1D2A38" stroke-width="0.81719715" fill="#FFD700" fill-rule="nonzero" cx="114.304089" cy="101.681117" r="4.6743677"></circle>
                <rect stroke="#1D2A38" stroke-width="0.5447981" fill="#FFFFFF" fill-rule="nonzero" x="67.5604124" y="103.288272" width="95.5957226" height="41.0341929"></rect>
                <path d="M67.5549644,115.104943 C67.5549644,115.104943 63.5234584,115.987515 63.0222442,119.005697 C62.5210299,122.023878 62.8969406,128.708551 69.3201102,127.722467 C75.7432798,126.736382 73.7275268,117.643702 67.6857159,118.651578 L67.5549644,115.104943 Z" stroke="#1D2A38" stroke-width="0.81719715" fill="#FFD700" fill-rule="nonzero"></path>
                <path d="M163.243303,115.104943 C163.243303,115.104943 167.274809,115.987515 167.776023,119.005697 C168.277237,122.023878 167.901326,128.708551 161.478157,127.722467 C155.054987,126.736382 157.07074,117.643702 163.112551,118.651578 L163.243303,115.104943 Z" stroke="#1D2A38" stroke-width="0.81719715" fill="#FFD700" fill-rule="nonzero"></path>
                <path d="M101.833661,76.271734 C101.833661,76.271734 112.3864,78.282039 126.611078,76.271734" stroke="#1D2A38" stroke-width="0.5447981" fill="#FFD700" fill-rule="nonzero"></path>
                <path d="M114.24961,73.6185672 L114.24961,59.4429207" stroke="#1D2A38" stroke-width="0.81719715" fill="#FFD700" fill-rule="nonzero" stroke-linecap="round"></path>
                <polygon fill="#1D2A38" fill-rule="nonzero" points="88.589619 129.422237 86.5575221 122.988171 84.5254252 129.422237 82.575048 129.422237 78.9630366 119.18548 81.4636599 119.18548 83.5556846 125.897393 85.6368133 119.18548 87.4618869 119.18548 89.5539116 125.897393 91.6295924 119.18548 94.1356637 119.18548 90.5182043 129.422237"></polygon>
                <polygon fill="#1D2A38" fill-rule="nonzero" points="101.332447 121.086826 97.4589321 121.086826 97.4589321 123.413114 101.332447 123.413114 101.332447 125.270875 97.4589321 125.270875 97.4589321 127.520891 101.332447 127.520891 101.332447 129.422237 95.0999563 129.422237 95.0999563 119.18548 101.332447 119.18548"></polygon>
                <polygon fill="#1D2A38" fill-rule="nonzero" points="105.58732 127.373796 108.496542 127.373796 108.496542 129.422237 103.217448 129.422237 103.217448 119.18548 105.58732 119.18548"></polygon>
                <path d="M116.690305,125.750297 L119.207272,125.750297 C119.011144,126.864071 118.411904,127.866682 117.523846,128.566904 C115.261024,130.218248 112.143976,130.028435 110.098248,128.114721 C108.10222,125.9641 108.10222,122.638169 110.098248,120.487548 C111.104272,119.420385 112.52259,118.840345 113.988106,118.896737 C115.304365,118.8255 116.599356,119.25133 117.616462,120.089845 C118.509231,120.873067 119.078303,121.960712 119.21272,123.140714 L116.739337,123.140714 C116.632822,122.549933 116.327103,122.013482 115.873108,121.620728 C115.385867,121.217567 114.767147,121.008094 114.135202,121.032346 C113.25947,120.999773 112.416812,121.368938 111.84705,122.034774 C111.292397,122.663999 110.994831,123.4789 111.013509,124.317478 C110.983685,125.178507 111.294993,126.016495 111.879738,126.649214 C112.491515,127.28712 113.35063,127.627186 114.233266,127.580819 C114.798896,127.578261 115.3474,127.386476 115.791388,127.036021 C116.231185,126.724781 116.548991,126.270222 116.690305,125.750297 Z" fill="#1D2A38" fill-rule="nonzero"></path>
                <path d="M125.55417,129.689188 C124.071322,129.753588 122.633083,129.173525 121.609832,128.098377 C119.634683,125.954242 119.634683,122.653475 121.609832,120.50934 C123.805499,118.388695 127.286497,118.388695 129.482164,120.50934 C131.457313,122.653475 131.457313,125.954242 129.482164,128.098377 C128.464369,129.171552 127.031906,129.75169 125.55417,129.689188 Z M123.374978,126.594734 C123.932624,127.209615 124.724082,127.560296 125.55417,127.560296 C126.384259,127.560296 127.175716,127.209615 127.733362,126.594734 C128.830217,125.264421 128.830217,123.343296 127.733362,122.012982 C127.175716,121.398102 126.384259,121.047421 125.55417,121.047421 C124.724082,121.047421 123.932624,121.398102 123.374978,122.012982 C122.271627,123.340956 122.271627,125.266761 123.374978,126.594734 L123.374978,126.594734 Z" fill="#1D2A38" fill-rule="nonzero"></path>
                <polygon fill="#1D2A38" fill-rule="nonzero" points="143.2819 119.18548 143.2819 129.422237 140.971956 129.422237 140.971956 123.075339 138.792764 129.422237 137.033066 129.422237 134.750362 123.075339 134.750362 129.422237 132.440418 129.422237 132.440418 119.18548 135.164409 119.18548 137.888399 126.305991 140.61239 119.18548"></polygon>
                <polygon fill="#1D2A38" fill-rule="nonzero" points="151.492008 121.086826 147.640285 121.086826 147.640285 123.413114 151.519248 123.413114 151.519248 125.270875 147.640285 125.270875 147.640285 127.520891 151.519248 127.520891 151.519248 129.422237 145.243173 129.422237 145.243173 119.18548 151.492008 119.18548"></polygon>
                <path d="M92.0708789,83.3050774 C92.0708789,83.3050774 96.7670385,80.7172865 100.493457,82.580496 C104.219876,84.4437055 117.469366,86.8190252 128.893782,83.0926062 C128.893782,83.0926062 133.361127,81.0823012 136.248557,82.9346147 C136.248557,82.9346147 127.918594,71.2977273 109.716889,73.8037986 C109.738681,73.8037986 99.4311012,75.0459382 92.0708789,83.3050774 Z" stroke="#1D2A38" stroke-width="0.81719715" fill="#26241B" fill-rule="nonzero" opacity="0.7" style="mix-blend-mode: color-dodge;"></path>
                <ellipse fill="#FFFFFF" fill-rule="nonzero" transform="translate(123.731870, 81.166390) rotate(-22.150000) translate(-123.731870, -81.166390) " cx="123.73187" cy="81.1663899" rx="1.59081045" ry="2.13560855"></ellipse>
                <ellipse stroke="#1D2A38" stroke-width="0.81719715" fill="#FFFFFF" fill-rule="nonzero" cx="196.263515" cy="51.7721634" rx="18.632095" ry="1.25303563"></ellipse>
                <circle stroke="#1D2A38" stroke-width="1.6343943" fill="#FFFFFF" fill-rule="nonzero" cx="196.356131" cy="78.6034698" r="16.8233653"></circle>
                <path d="M214.432532,78.4509264 L214.432532,78.4509264 C214.432532,78.911934 214.097867,79.3047158 213.642575,79.3770831 C211.463382,79.6876181 211.082024,77.127067 210.711561,74.0544057 C210.297514,70.6330736 207.61166,71.7390138 207.61166,71.7390138 C194.569193,75.9448551 186.909332,71.66819 184.528564,71.66819 C182.147797,71.66819 182.768867,74.9805625 181.946221,78.0150879 C181.401423,79.9327772 180.099356,80.3304798 179.194991,80.3631677 C178.679607,80.3758826 178.246419,79.9787939 178.214354,79.4642508 C178.214354,79.126476 178.187114,78.7887012 178.187114,78.4454784 C178.358534,68.5590652 186.421924,60.6342742 196.309823,60.6342742 C206.197723,60.6342742 214.261112,68.5590652 214.432532,78.4454784 L214.432532,78.4509264 Z" stroke="#1D2A38" stroke-width="0.81719715" fill="#FFD700" fill-rule="nonzero"></path>
                <circle stroke="#1D2A38" stroke-width="0.81719715" fill="#FFD700" fill-rule="nonzero" cx="196.339787" cy="77.2578185" r="2.81660618"></circle>
                <rect stroke="#1D2A38" stroke-width="0.81719715" fill="#FFFFFF" fill-rule="nonzero" x="168.173725" y="78.2221112" width="57.6015031" height="24.7283857"></rect>
                <path d="M168.173725,85.3426223 C168.173725,85.3426223 165.743926,85.8874204 165.449735,87.6961501 C165.155544,89.5048798 165.373463,93.5418337 169.263322,92.9316599 C173.15318,92.321486 171.921936,86.862609 168.277237,87.4836789 L168.173725,85.3426223 Z" stroke="#1D2A38" stroke-width="0.81719715" fill="#FFD700" fill-rule="nonzero"></path>
                <path d="M225.829708,85.3426223 C225.829708,85.3426223 228.259508,85.8874204 228.553699,87.6961501 C228.84789,89.5048798 228.629971,93.5418337 224.740112,92.9316599 C220.850254,92.321486 222.081497,86.862609 225.726197,87.4836789 L225.829708,85.3426223 Z" stroke="#1D2A38" stroke-width="0.81719715" fill="#FFD700" fill-rule="nonzero"></path>
                <path d="M188.827021,61.9489919 C193.775211,62.6906055 198.8063,62.6906055 203.754489,61.9489919" stroke="#1D2A38" stroke-width="0.5447981" fill="#FFD700" fill-rule="nonzero"></path>
                <path d="M196.307099,60.3472855 L196.307099,51.8048513" stroke="#1D2A38" stroke-width="0.81719715" fill="#FFD700" fill-rule="nonzero" stroke-linecap="round"></path>
                <path d="M182.392956,65.8824342 C182.392956,65.8824342 185.220458,64.3243116 187.465026,65.4465957 C189.709594,66.5688798 197.696334,68.0016988 204.582582,65.7516827 C204.582582,65.7516827 207.273885,64.5422309 209.011791,65.659067 C209.011791,65.659067 203.9942,58.6475154 193.021967,60.1566062 C188.941387,60.8318129 185.201738,62.8463547 182.392956,65.8824342 L182.392956,65.8824342 Z" stroke="#1D2A38" stroke-width="0.5447981" fill="#26241B" fill-rule="nonzero" opacity="0.7" style="mix-blend-mode: color-dodge;"></path>
                <ellipse fill="#FFFFFF" fill-rule="nonzero" transform="translate(202.023029, 64.906387) rotate(-22.150000) translate(-202.023029, -64.906387) " cx="202.023029" cy="64.9063865" rx="1" ry="1.28572352"></ellipse>
                <path d="M207.873163,95.3995952 L207.873163,94.903829 C207.873163,94.4284328 207.487778,94.043048 207.012382,94.043048 L195.228399,94.043048 C195.000106,94.043048 194.781163,93.9523588 194.619735,93.7909311 C194.458307,93.6295033 194.367618,93.4105603 194.367618,93.182267 L194.367618,87.7124941 C194.367618,87.2370978 194.753003,86.8517131 195.228399,86.8517131 L207.023278,86.8517131 C207.251571,86.8517131 207.470514,86.7610239 207.631942,86.5995961 C207.79337,86.4381684 207.884059,86.2192254 207.884059,85.9909321 L207.884059,85.6204694 C207.887279,85.2803625 208.089238,84.9736126 208.400383,84.836239 C208.711529,84.6988653 209.074275,84.7562923 209.327774,84.9830556 L214.416188,89.6247354 C214.589268,89.7842817 214.689962,90.0073963 214.695101,90.2427368 C214.700239,90.4780773 214.609379,90.7053743 214.443428,90.872323 L209.355014,95.9934252 C209.111993,96.2466709 208.73955,96.3270004 208.413749,96.1964402 C208.087947,96.06588 207.874047,95.7505823 207.873163,95.3995952 Z" fill="#1D2A38" fill-rule="nonzero"></path>
                <rect fill="#1D2A38" fill-rule="nonzero" x="187.595778" y="86.862609" width="4.94131876" height="7.18588694" rx="0.860780998"></rect>
                <rect fill="#1D2A38" fill-rule="nonzero" x="180.818489" y="86.862609" width="4.94131876" height="7.18588694" rx="0.860780998"></rect>
                <path d="M265.540042,86.7427534 C265.540042,86.7427534 267.446835,99.1587021 262.979491,99.1587021 C258.512146,99.1587021 258.969777,90.5781321 258.969777,90.5781321" stroke="#1D2A38" stroke-width="1.0895962" stroke-linecap="round"></path>
                <path d="M300.091137,82.6458717 L325.674856,82.6458717" stroke="#1D2A38" stroke-width="1.0895962" fill="#FFD700" fill-rule="nonzero" stroke-linecap="round"></path>
                <ellipse stroke="#1D2A38" stroke-width="0.81719715" fill="#FFFFFF" fill-rule="nonzero" cx="282.385199" cy="54.0603154" rx="20.3863449" ry="1.37289121"></ellipse>
                <circle stroke="#1D2A38" stroke-width="0.81719715" fill="#FFFFFF" fill-rule="nonzero" stroke-linecap="round" cx="282.483263" cy="83.419485" r="18.4087278"></circle>
                <path d="M302.259434,83.2669416 L302.259434,83.2669416 C302.259434,83.7709097 301.891492,84.1993577 301.393205,84.2748181 C298.996093,84.6180409 298.59839,81.8177786 298.189792,78.4509264 C297.73761,74.7081634 294.7957,75.9176152 294.7957,75.9176152 C280.527438,80.5266071 272.148443,75.8413435 269.53886,75.8413435 C266.929277,75.8413435 267.615723,79.4642508 266.711358,82.7875192 C266.13932,84.8849919 264.695605,85.3208304 263.70952,85.3535183 C263.138639,85.3813604 262.652163,84.943532 262.619924,84.3728817 C262.619924,84.002419 262.587236,83.6319563 262.587236,83.2832855 C262.587236,72.3311195 271.465721,63.4526347 282.417887,63.4526347 C293.370053,63.4526347 302.248538,72.3311195 302.248538,83.2832855 L302.259434,83.2669416 Z" stroke="#1D2A38" stroke-width="0.81719715" fill="#FFD700" fill-rule="nonzero"></path>
                <circle stroke="#1D2A38" stroke-width="0.81719715" fill="#FFD700" fill-rule="nonzero" cx="282.466919" cy="81.9430822" r="3.07810926"></circle>
                <path d="M274.240467,65.1959886 C279.658181,66.0081425 285.166697,66.0081425 290.58441,65.1959886" stroke="#1D2A38" stroke-width="0.5447981" fill="#FFD700" fill-rule="nonzero"></path>
                <path d="M282.428783,63.4417387 L282.428783,54.0930033" stroke="#1D2A38" stroke-width="0.81719715" fill="#FFD700" fill-rule="nonzero" stroke-linecap="round"></path>
                <path d="M267.817298,69.6088532 C267.817298,69.6088532 270.911751,67.9036352 273.374238,69.1348789 C275.836726,70.3661226 284.564391,71.9242451 292.098949,69.4672057 C292.098949,69.4672057 295.046307,68.1433463 296.947652,69.3636941 C296.947652,69.3636941 291.456087,61.6929368 279.454185,63.370915 C274.99185,64.1053206 270.899173,66.2991948 267.817298,69.6088532 L267.817298,69.6088532 Z" stroke="#1D2A38" stroke-width="0.5447981" fill="#26241B" fill-rule="nonzero" opacity="0.7" style="mix-blend-mode: color-dodge;"></path>
                <ellipse fill="#FFFFFF" fill-rule="nonzero" transform="translate(288.682426, 68.432557) rotate(-22.150000) translate(-288.682426, -68.432557) " cx="288.682426" cy="68.4325571" rx="1.04601235" ry="1.4055791"></ellipse>
                <path d="M260.506107,82.5696 C259.87035,82.4177889 259.20285,82.471189 258.599314,82.7221435 C257.985664,82.9575186 257.448534,83.3570683 257.046639,83.8771154 C256.196754,85.0484314 255.221566,90.0714698 257.978244,90.4746204 C260.734923,90.877771 261.862655,90.3929007 262.336629,88.4915553 C262.614476,87.4019591 262.276701,86.9933606 261.933478,86.857161 C261.67331,86.7296946 261.55841,86.4209016 261.671975,86.1543715 C262.047886,85.1029112 262.527308,83.0817102 260.506107,82.5696 Z" stroke="#1D2A38" stroke-width="0.81719715" fill="#FFD700" fill-rule="nonzero"></path>
                <path d="M336.184011,80.4067515 C336.184011,80.4067515 326.873412,79.6113463 325.674856,81.125885 C324.4763,82.6404238 324.481748,85.4842698 327.156707,86.3287069 C329.831666,87.1731439 332.283257,85.729429 332.206985,82.6676637 C332.206985,82.6676637 337.916469,83.0054385 336.184011,80.4067515 Z" stroke="#1D2A38" stroke-width="0.81719715" fill="#FFD700" fill-rule="nonzero"></path>
                <path d="M351.095135,280.571021 C346.76411,288.17891 341.907232,295.47515 336.559922,302.406529 C334.202762,305.461031 331.751171,308.442892 329.205148,311.352114 C297.850402,347.329965 253.938896,369.974606 206.445792,374.657653 C205.87699,368.474086 206.026902,362.245425 206.892526,356.096382 C211.942805,319.213551 228.771618,301.861731 241.863116,293.815063 C251.124684,288.116475 258.533938,287.086807 258.533938,287.086807 L286.5638,279.884576 L286.912471,279.797408 L322.618539,270.61756 L332.326841,274.033444 L350.702881,280.571021 L351.095135,280.571021 Z" stroke="#1D2A38" stroke-width="0.81719715" fill="#3B4D63" fill-rule="nonzero"></path>
                <path d="M257.079327,362.377904 C240.859187,368.820122 223.815065,372.953698 206.445792,374.657653 C200.311365,375.267827 194.091587,375.57473 187.786457,375.578362 C185.24225,375.578362 182.703491,375.52933 180.186524,375.425819 C206.805359,295.378634 241.154879,293.836855 241.890356,293.815063 L241.890356,293.815063 C265.654449,304.50945 261.90079,340.498812 257.079327,362.377904 Z" stroke="#1D2A38" stroke-width="0.81719715" fill="#3B4D63" fill-rule="nonzero"></path>
                <ellipse stroke="#1D2A38" stroke-width="0.81719715" cx="244.036861" cy="176.046058" rx="10.906858" ry="21.1218223"></ellipse>
                <path d="M248.340766,135.905334 C248.340766,135.905334 252.617431,118.869497 277.351265,115.698772 C302.085098,112.528048 348.240393,120.220597 357.033435,153.742024 C365.826476,187.263451 339.997598,225.181399 339.997598,225.181399 L305.816965,247.883135 L248.340766,135.905334 Z" stroke="#1D2A38" stroke-width="0.81719715" fill="#334258" fill-rule="nonzero"></path>
                <path d="M249.321402,136.155941 C249.321402,136.155941 240.163346,194.492922 242.162755,241.601613 C242.37563,246.846866 246.681439,250.994179 251.930985,251.010276 L279.546801,251.010276 L279.546801,279.884576 L332.326841,279.884576 L332.326841,244.418219 L340.01939,225.181399 C340.01939,225.181399 296.370166,238.621568 309.221953,190.564927 C319.447814,152.336445 287.228454,166.261484 286.231474,176.672576 L283.30046,176.334801 C283.30046,176.334801 282.684838,132.494898 249.321402,136.155941 Z" stroke="#1D2A38" stroke-width="0.81719715" fill="#FFFFFF" fill-rule="nonzero" stroke-linecap="round" stroke-linejoin="round"></path>
                <path d="M233.130003,176.046058 L286.367673,176.046058" stroke="#1D2A38" stroke-width="0.81719715"></path>
                <path d="M249.321402,250.65071 C249.730001,250.748773 288.127371,247.926719 288.127371,247.926719 L286.901575,279.87368 L279.546801,279.87368 L279.546801,250.999381 L249.321402,250.65071 Z" fill="#334258" fill-rule="nonzero"></path>
                <path d="M283.295012,234.306767 C283.295012,234.306767 297.459762,226.990128 293.646176,216.377461" stroke="#1D2A38" stroke-width="0.81719715" fill="#FFFFFF" fill-rule="nonzero" stroke-linecap="round" stroke-linejoin="round"></path>
                <path d="M258.533938,287.108599 C258.533938,287.108599 286.367673,259.514575 344.443151,268.040665 C348.437355,270.955961 350.770607,275.626526 350.702881,280.571021 C350.702881,280.571021 295.825368,280.571021 258.533938,287.108599 Z" stroke="#1D2A38" stroke-width="0.81719715" fill="#3B4D63" fill-rule="nonzero"></path>
                <path d="M336.559922,302.401081 C334.202762,305.455583 331.751171,308.437444 329.205148,311.346666 L323.3976,281.164851 L323.3976,281.164851 C323.669999,281.339187 330.834094,286.144306 336.559922,302.401081 Z" stroke="#1D2A38" stroke-width="0.81719715" fill="#3B4D63" fill-rule="nonzero"></path>
                <circle cx="187.786457" cy="187.791905" r="187.786457"></circle>
                <path d="M132.217051,199.59768 C131.481561,197.982317 129.791744,197.022044 128.027553,197.216912 C126.935008,197.378167 125.969723,198.014378 125.390731,198.954818 C123.266018,202.158231 123.859848,210.172211 129.296933,213.544511 C133.835101,216.361117 140.841205,212.28058 140.443502,207.709724 C140.0458,203.138867 136.008846,207.164925 136.008846,207.164925 L132.217051,199.59768 Z" stroke="#1D2A38" stroke-width="0.81719715" fill="#FFD700" fill-rule="nonzero"></path>
                <path d="M138.504021,250.203975 L132.478554,211.436143" stroke="#1D2A38" stroke-width="1.0895962" fill="#FFD700" fill-rule="nonzero" stroke-linecap="round"></path>
                <circle stroke="#1D2A38" stroke-width="0.81719715" fill="#FFFFFF" fill-rule="nonzero" cx="160.60648" cy="274.845193" r="35.842267"></circle>
                <path d="M186.380878,270.432329 C181.439559,268.797934 176.639888,273.913589 181.439559,284.635215 C184.310645,291.036593 179.037,309.614208 149.116688,308.061533 C141.889245,307.708795 135.123692,304.403818 130.402873,298.919821 C124.592642,292.122797 121.341508,283.508352 121.212129,274.567346 C120.85801,252.851694 139.010683,234.862461 160.726335,235.401811 C170.85239,235.645058 180.472431,239.878424 187.492266,247.180346 C190.001542,249.821735 191.371324,253.344032 191.305853,256.986712 C191.251373,262.995835 190.47776,271.783428 186.380878,270.432329 Z" stroke="#1D2A38" stroke-width="0.81719715" fill="#FFD700" fill-rule="nonzero"></path>
                <path d="M187.018292,286.073482 C187.018292,286.073482 204.844086,311.079715 223.579692,302.619" stroke="#1D2A38" stroke-width="1.0895962" stroke-linecap="round"></path>
                <path d="M229.855766,306.971937 C229.626951,306.764914 224.080906,308.361172 223.427149,303.43075 C222.773391,298.500327 230.662067,296.697045 232.552517,297.497898 C235.543458,298.772726 238.866727,300.270921 239.406077,302.945879 C239.945427,305.620838 235.478083,312.131175 229.855766,306.971937 Z" stroke="#1D2A38" stroke-width="0.81719715" fill="#FFD700" fill-rule="nonzero"></path>
                <ellipse stroke="#1D2A38" stroke-width="0.81719715" fill="#FFD700" fill-rule="nonzero" transform="translate(142.113394, 260.613042) rotate(-55.770000) translate(-142.113394, -260.613042) " cx="142.113394" cy="260.613042" rx="19.1877891" ry="15.761009"></ellipse>
                <ellipse stroke="#1D2A38" stroke-width="0.5447981" fill="#26241B" fill-rule="nonzero" opacity="0.7" style="mix-blend-mode: color-dodge;" transform="translate(143.673735, 265.868103) rotate(-65.710000) translate(-143.673735, -265.868103) " cx="143.673735" cy="265.868103" rx="26.8803382" ry="21.4487012"></ellipse>
                <path d="M144.622104,261.840863 L118.597098,250.203975" stroke="#1D2A38" stroke-width="0.81719715" stroke-linecap="round"></path>
                <ellipse stroke="#1D2A38" stroke-width="0.81719715" fill="#FFFFFF" fill-rule="nonzero" opacity="0.8" transform="translate(118.242632, 253.656412) rotate(-55.770000) translate(-118.242632, -253.656412) " cx="118.242632" cy="253.656412" rx="32.965733" ry="24.0310442"></ellipse>
                <ellipse fill="#FFFFFF" fill-rule="nonzero" cx="142.421119" cy="285.10919" rx="5.43163705" ry="3.25789264"></ellipse>
            </g>
        </g>
    </g>
</svg>