<?xml version="1.0" encoding="UTF-8"?>
<svg width="420px" height="420px" viewBox="0 0 420 420" version="1.1" xmlns="http://www.w3.org/2000/svg" xmlns:xlink="http://www.w3.org/1999/xlink">
    <!-- Generator: Sketch 57.1 (83088) - https://sketch.com -->
    <title>cf-5</title>
    <desc>Created with Sketch.</desc>
    <g stroke="none" stroke-width="1" fill="none" fill-rule="evenodd">
        <g>
            <g transform="translate(56.688630, 74.000000)">
                <path d="M154.612,53.788 C193.872,53.788 229.752,60.028 256.896,70.272 C258.508,70.896 259.548,72.404 259.6,74.12 L259.6,124.872 C259.6,127.16 257.728,128.98 255.492,128.98 C255.024,128.98 254.556,128.876 254.14,128.72 C227.36,119.1 192.572,113.276 154.664,113.276 C116.756,113.276 81.916,119.1 55.084,128.72 C52.952,129.5 50.612,128.356 49.832,126.224 C49.676,125.808 49.572,125.34 49.572,124.872 L49.572,74.12 C49.572,72.404 50.664,70.844 52.276,70.272 C79.472,60.028 115.3,53.788 154.612,53.788 Z" stroke="#1D2A38" stroke-width="0.52" fill="#FFFFFF" fill-rule="nonzero" opacity="0.8"></path>
                <path d="M36.624,84 L36.624,134.128 C36.624,135.636 35.792,137.04 34.492,137.768 C28.72,140.732 23.208,144.32 18.112,148.376 C18.06,148.428 18.008,148.428 18.008,148.48 C7.088,139.588 0.952,129.448 0.952,118.736 C0.952,118.164 0.952,117.592 1.004,117.02 C1.836,103.396 12.6,90.76 30.436,80.464 C32.412,79.32 34.908,79.944 36.052,81.92 C36.468,82.544 36.624,83.272 36.624,84 Z" stroke="#334258" stroke-width="0.52" fill="#FFFFFF" fill-rule="nonzero" opacity="0.8" stroke-linecap="round" stroke-linejoin="round"></path>
                <path d="M18.112,148.584 C18.06,148.532 18.008,148.532 18.008,148.48 C18.06,148.428 18.06,148.428 18.112,148.376 L18.112,148.584 Z" stroke="#334258" stroke-width="0.8216" fill="#F3EFE5" fill-rule="nonzero"></path>
                <path d="M18.84,122.116 L17.436,122.272 L16.552,122.896 C16.5,122.948 16.448,123 16.5,123.052 C16.5,123.052 16.552,123.104 16.552,123.104 L17.54,123.52 L18.944,123.364 L18.84,122.116 Z" stroke="#1D2A38" stroke-width="0.52" fill="#2D4256" fill-rule="nonzero"></path>
                <path d="M17.488,123.728 L16.448,123.312 C16.344,123.26 16.24,123.156 16.24,123 C16.24,122.896 16.292,122.74 16.396,122.688 L17.332,122.012 L18.996,121.856 L19.152,123.52 L17.488,123.728 Z M16.76,122.948 L17.54,123.26 L18.684,123.104 L18.632,122.272 L17.488,122.376 L16.76,122.948 Z" stroke="#1D2A38" stroke-width="0.52" fill="#2D4256" fill-rule="nonzero"></path>
                <path d="M30.644,134.388 C30.176,134.388 29.708,134.336 29.24,134.232 C24.144,133.088 21.908,126.328 21.804,126.016 L22.428,125.808 C22.428,125.86 24.664,132.568 29.396,133.608 C32.464,134.284 35.896,132.516 39.692,128.408 L40.16,128.824 C36.728,132.516 33.556,134.388 30.644,134.388 Z" stroke="#1D2A38" stroke-width="0.5" fill="#1D2A38" fill-rule="nonzero"></path>
                <circle stroke="#1D2A38" stroke-width="0.78" fill="#FFFFFF" fill-rule="nonzero" cx="51.548" cy="116.708" r="19.24"></circle>
                <path d="M51.548,136.26 C40.732,136.26 31.996,127.524 31.996,116.708 C31.996,105.892 40.732,97.156 51.548,97.156 C62.364,97.156 71.1,105.892 71.1,116.708 L71.1,116.708 C71.1,127.524 62.364,136.26 51.548,136.26 Z M51.548,97.728 C41.096,97.728 32.568,106.204 32.568,116.708 C32.568,127.16 41.044,135.688 51.548,135.688 C62.052,135.688 70.528,127.212 70.528,116.708 C70.528,106.256 62,97.728 51.548,97.728 Z" stroke="#1D2A38" stroke-width="0.5" fill="#1D2A38" fill-rule="nonzero"></path>
                <path d="M72.5563753,116.292 L72.5563753,116.292 C72.5563753,117.488 71.932,118.58 70.944,119.152 C63.664,123.52 62.52,116.916 61.688,113.692 C60.856,110.468 56.54,112.08 55.812,112.34 L55.552,112.392 C42.812,116.136 36.416,116.344 33.244,115.72 C31.372,115.356 30.176,113.536 30.54,111.664 C30.54,111.664 30.54,111.612 30.54,111.612 C30.748,110.572 31.112,109.48 31.476,108.492 C35.74,97.52 48.012,92.112 58.984,96.324 C67.252,99.548 72.608,107.504 72.5563753,116.292 L72.5563753,116.292 Z" stroke="#1D2A38" stroke-width="0.78" fill="#FFD700" fill-rule="nonzero"></path>
                <path d="M66.732,120.972 C66.212,120.972 65.692,120.868 65.224,120.66 C62.884,119.672 62.104,116.5 61.584,114.368 L61.428,113.796 C61.324,113.172 60.908,112.652 60.336,112.392 C58.828,111.612 56.436,112.496 55.968,112.652 L55.708,112.756 C42.656,116.604 36.312,116.708 33.244,116.084 C32.256,115.876 31.372,115.304 30.8,114.42 C30.228,113.588 30.072,112.6 30.28,111.612 C32.88,99.964 44.372,92.632 56.02,95.232 C65.9,97.416 72.92,106.204 72.92,116.292 L72.92,116.292 C72.92,117.592 72.244,118.736 71.152,119.412 C69.488,120.452 67.98,120.972 66.732,120.972 Z M58.828,111.456 C59.452,111.456 60.076,111.56 60.648,111.872 C61.376,112.236 61.844,112.912 62,113.692 L62.156,114.264 C62.676,116.396 63.404,119.256 65.484,120.14 C66.836,120.712 68.604,120.296 70.84,118.996 C71.724,118.424 72.296,117.436 72.296,116.396 L72.296,116.396 L72.296,116.396 C72.296,104.8 62.936,95.44 51.34,95.44 C41.512,95.44 32.984,102.252 30.852,111.872 C30.696,112.704 30.852,113.536 31.268,114.212 C31.736,114.94 32.516,115.46 33.348,115.616 C36.364,116.188 42.604,116.136 55.552,112.288 C55.604,112.288 55.708,112.236 55.76,112.236 C56.748,111.768 57.736,111.508 58.828,111.456 Z" fill="#1D2A38" fill-rule="nonzero"></path>
                <circle fill="#FFD701" fill-rule="nonzero" cx="36.416" cy="121.96" r="3.068"></circle>
                <path d="M36.416,125.392 C34.544,125.392 33.036,123.884 33.036,122.012 C33.036,120.14 34.544,118.632 36.416,118.632 C38.288,118.632 39.796,120.14 39.796,122.012 C39.796,122.012 39.796,122.012 39.796,122.012 C39.796,123.832 38.288,125.34 36.416,125.392 Z M36.416,119.204 C34.856,119.204 33.608,120.452 33.608,122.012 C33.608,123.572 34.856,124.82 36.416,124.82 C37.976,124.82 39.224,123.572 39.224,122.012 L39.224,122.012 C39.224,120.452 37.976,119.204 36.416,119.204 L36.416,119.204 Z" fill="#1D2A38" fill-rule="nonzero"></path>
                <polygon stroke="#1D2A38" stroke-width="0.52" fill="#FFFFFF" fill-rule="nonzero" points="48.168 141.616 68.916 141.616 68.916 128.72 48.168 128.72"></polygon>
                <path d="M58.152,136.728 C58.048,136.728 57.996,136.676 57.944,136.624 C57.84,136.468 57.84,136.312 57.996,136.208 C60.96,133.816 62.364,131.996 62.624,127.68 C63.04,121.804 60.544,119.152 60.492,119.152 C60.388,119.048 60.388,118.84 60.492,118.736 C60.596,118.632 60.804,118.632 60.908,118.736 C60.908,118.736 60.908,118.736 60.908,118.736 C61.012,118.84 63.612,121.544 63.196,127.732 C62.884,132.308 61.376,134.232 58.308,136.728 C58.308,136.676 58.256,136.728 58.152,136.728 Z" stroke="#1D2A38" stroke-width="0.5" fill="#1D2A38" fill-rule="nonzero"></path>
                <path d="M53.992,130.124 L53.992,140.264" stroke="#1D2A38" stroke-width="0.52"></path>
                <path d="M55.708,130.124 L55.708,140.264" stroke="#1D2A38" stroke-width="0.52"></path>
                <path d="M57.424,130.124 L57.424,140.264" stroke="#1D2A38" stroke-width="0.52"></path>
                <path d="M60.18,137.664 C60.18,137.664 59.348,135.948 57.112,136.572 C54.876,137.196 55.032,141.772 55.812,142.708 C56.592,143.644 59.244,143.8 60.232,143.228 C61.22,142.656 61.064,142.032 61.064,142.032 L60.336,142.032 C60.336,142.032 60.596,138.912 60.18,137.664 Z" stroke="#1D2A38" stroke-width="0.5" fill="#FFD701" fill-rule="nonzero"></path>
                <path d="M58.568,143.852 C57.424,143.852 56.124,143.54 55.552,142.864 C54.98,142.188 54.668,139.952 55.188,138.236 C55.5,137.144 56.124,136.468 56.956,136.26 C59.452,135.584 60.388,137.508 60.388,137.56 L60.388,137.612 C60.7,138.652 60.596,140.94 60.544,141.772 L61.22,141.772 L61.272,142.032 C61.272,142.084 61.428,142.864 60.284,143.54 C59.816,143.748 59.192,143.852 58.568,143.852 Z M58.048,136.728 C57.736,136.728 57.476,136.78 57.216,136.832 C56.54,137.092 56.02,137.664 55.864,138.392 C55.396,139.952 55.656,141.98 56.072,142.448 C56.748,143.228 59.244,143.436 60.128,142.916 C60.388,142.76 60.648,142.552 60.752,142.292 L60.024,142.292 L60.024,141.98 C60.024,141.928 60.284,138.912 59.92,137.768 C59.504,137.092 58.776,136.676 58.048,136.728 Z" stroke="#1D2A38" stroke-width="0.5" fill="#1D2A38" fill-rule="nonzero"></path>
                <path d="M22.324,126.276 C19.36,127.68 16.708,121.44 19.152,120.244 C20.816,119.412 22.844,120.036 23.728,121.648 C24.612,123.26 24.04,125.288 22.428,126.172 C22.428,126.224 22.376,126.276 22.324,126.276 Z" stroke="#1D2A38" stroke-width="0.5" fill="#FFD701" fill-rule="nonzero"></path>
                <path d="M21.492,126.796 C20.192,126.796 19.048,125.652 18.424,124.3 C17.696,122.688 17.644,120.66 19.1,120.036 C20.92,119.1 23.104,119.828 24.092,121.596 C24.56,122.532 24.664,123.572 24.3,124.56 C23.988,125.444 23.364,126.172 22.532,126.588 L22.532,126.588 C22.168,126.692 21.804,126.796 21.492,126.796 Z M20.764,120.244 C20.244,120.244 19.776,120.348 19.308,120.556 C18.268,121.024 18.32,122.688 18.944,124.04 C19.568,125.444 20.868,126.64 22.22,126.016 C22.948,125.704 23.468,125.08 23.676,124.352 C23.936,123.52 23.884,122.636 23.468,121.856 C22.948,120.816 21.908,120.192 20.764,120.244 Z" stroke="#1D2A38" stroke-width="0.5" fill="#1D2A38" fill-rule="nonzero"></path>
                <path d="M21.18,122.064 L29.292,121.076 C29.552,121.024 29.76,121.232 29.812,121.44 L29.812,121.44 C29.864,121.7 29.656,121.908 29.448,121.96 L21.336,122.948 C21.284,122.948 21.284,122.948 21.284,122.896 L21.18,122.116 C21.128,122.116 21.18,122.064 21.18,122.064 Z" fill="#1D2A38" fill-rule="nonzero"></path>
                <path d="M21.232,123.156 L21.128,123.104 C21.076,123.052 21.024,123 21.024,122.896 L20.92,122.116 C20.92,121.96 21.024,121.856 21.128,121.804 L29.24,120.816 C29.604,120.764 29.916,121.024 30.02,121.388 C30.072,121.752 29.812,122.064 29.448,122.168 C29.448,122.168 29.396,122.168 29.396,122.168 L21.232,123.156 Z M21.336,122.272 L21.388,122.74 L29.344,121.752 C29.448,121.752 29.552,121.596 29.552,121.492 C29.552,121.388 29.396,121.284 29.292,121.284 L21.336,122.272 Z" fill="#1D2A38" fill-rule="nonzero"></path>
                <path d="M39.484,98.612 C39.484,98.612 47.388,98.508 54.876,95.336" stroke="#1D2A38" stroke-width="0.78"></path>
                <path d="M47.18,95.44 L44.736,82.804" stroke="#1D2A38" stroke-width="0.78" stroke-linecap="round"></path>
                <ellipse stroke="#1D2A38" stroke-width="0.780022265" fill="#FFFFFF" fill-rule="nonzero" opacity="0.7" transform="translate(43.957877, 82.808633) rotate(-9.078962) translate(-43.957877, -82.808633) " cx="43.9578772" cy="82.8086332" rx="25.1167169" ry="1.40404008"></ellipse>
                <path d="M71.256,108.7 C68.292,103.448 61.272,102.72 51.756,107.244 C42.552,111.612 32.62,108.44 31.736,108.128 C36.208,97.26 48.636,92.112 59.504,96.584 C64.964,98.872 69.176,103.24 71.256,108.7 L71.256,108.7 Z" stroke="#1D2A38" stroke-width="0.52" fill="#161616" fill-rule="nonzero" opacity="0.48"></path>
                <path d="M63.144,118.008 C64.652,118.164 66.212,118.008 67.616,117.488 C69.644,116.656 72.14,115.928 72.504,114.94" stroke="#1D2A38" stroke-width="0.78"></path>
                <path d="M12.912,143.904 C12.912,143.904 -1.908,131.684 16.292,123.26" stroke="#1D2A38" stroke-width="0.52" stroke-linecap="round"></path>
                <polygon stroke="#1D2A38" stroke-width="0.52" fill="#F0F3F7" fill-rule="nonzero" points="236.46 105.84 239.372 99.964 230.428 95.076 222.056 110.208 230.272 116.604"></polygon>
                <circle stroke="#1D2A38" stroke-width="0.78" fill="#FFD700" fill-rule="nonzero" cx="225.228" cy="103.448" r="3.328"></circle>
                <path d="M223.616,102.252 L219.144,97.936 C218.78,97.572 218.78,97 219.092,96.636 C219.092,96.636 219.092,96.636 219.144,96.584 L219.144,96.584 C219.508,96.272 220.028,96.272 220.392,96.584 L224.864,100.9 C225.228,101.264 225.228,101.836 224.864,102.2 C224.864,102.2 224.864,102.2 224.864,102.2 L224.864,102.2 C224.552,102.564 223.98,102.616 223.616,102.252 Z" fill="#1D2A38" fill-rule="nonzero"></path>
                <polygon fill="#1D2A38" fill-rule="nonzero" points="228.504 104.176 229.44 106.308 227.1 106.204"></polygon>
                <circle stroke="#1D2A38" stroke-width="0.78" fill="#FFD700" fill-rule="nonzero" cx="221.692" cy="106.776" r="3.016"></circle>
                <circle stroke="#1D2A38" stroke-width="0.78" fill="#FFFFFF" fill-rule="nonzero" cx="204.116" cy="103.968" r="18.096"></circle>
                <ellipse stroke="#1D2A38" stroke-width="0.779971861" fill="#FFFFFF" fill-rule="nonzero" opacity="0.7" transform="translate(208.303066, 73.939508) rotate(-82.408764) translate(-208.303066, -73.939508) " cx="208.303066" cy="73.939508" rx="1.5079456" ry="19.8632834"></ellipse>
                <path d="M221.536,94.452 C222.004,95.284 221.692,96.376 220.86,96.844 C220.496,97.052 220.08,97.104 219.664,97.052 C218.104,96.74 216.492,96.636 214.932,96.74 C208.692,97 211.708,98.924 209.784,109.48 C208.64,115.824 200.632,116.24 194.392,115.616 C188.516,114.992 184.096,110.052 184.096,104.176 C184.096,103.968 184.096,103.76 184.096,103.604 C184.408,93.724 193.092,84.832 202.92,84.26 C210.512,83.74 217.792,87.744 221.536,94.452 Z" stroke="#1D2A38" stroke-width="0.78" fill="#FFD700" fill-rule="nonzero"></path>
                <path d="M184.044,103.552 C184.044,103.552 184.616,110.364 189.452,110.364 C194.288,110.364 201.932,107.296 202.92,95.752 C203.908,84.208 207.548,84.468 207.548,84.468 C207.548,84.468 196.628,81.816 188.464,91.748 C188.412,91.748 184.044,96.584 184.044,103.552 Z" stroke="#1D2A38" stroke-width="0.52" fill="#26241B" fill-rule="nonzero" opacity="0.7"></path>
                <ellipse fill="#FFFFFF" fill-rule="nonzero" transform="translate(190.497938, 97.881005) rotate(-71.561428) translate(-190.497938, -97.881005) " cx="190.497938" cy="97.8810048" rx="2.86011065" ry="2.60010059"></ellipse>
                <path d="M234.432,113.068 C234.432,113.068 232.82,113.38 232.716,110.728 C232.612,108.076 231.884,108.7 231.624,107.868 C231.364,107.036 231.988,104.436 234.432,104.748 C236.876,105.06 238.332,108.076 236.772,111.144 C235.68,113.536 234.432,113.068 234.432,113.068" stroke="#1D2A38" stroke-width="0.78" fill="#FFD700" fill-rule="nonzero"></path>
                <path d="M208.276,115.096 C208.276,115.096 215.504,123.78 224.448,121.856 C233.392,119.932 234.484,112.808 234.484,112.808" stroke="#1D2A38" stroke-width="1.04" stroke-linecap="round" stroke-linejoin="round"></path>
                <path d="M221.536,94.452 C222.004,95.284 221.692,96.376 220.86,96.844 C220.496,97.052 220.08,97.104 219.664,97.052 C218.104,96.74 216.492,96.636 214.932,96.74 C208.692,97 211.708,98.924 209.784,109.48 C208.64,115.824 200.632,116.24 194.392,115.616 C188.516,114.992 184.096,110.052 184.096,104.176 C184.096,103.968 184.096,103.76 184.096,103.604 C184.408,93.724 193.092,84.832 202.92,84.26 C210.512,83.74 217.792,87.744 221.536,94.452 Z" stroke="#1D2A38" stroke-width="0.52"></path>
                <path d="M199.8,84.676 C204.012,85.612 208.328,86.08 212.644,86.132" stroke="#1D2A38" stroke-width="0.52" fill="#FFD700" fill-rule="nonzero"></path>
                <path d="M206.664,84.26 L208.276,73.912" stroke="#1D2A38" stroke-width="0.78" stroke-linecap="round"></path>
                <path d="M179.988,106.308 C179.988,106.308 180.768,114.42 185.24,117.54" stroke="#1D2A38" stroke-width="0.52" stroke-linecap="round"></path>
                <path d="M177.96,109.74 C178.48,112.548 179.676,115.2 181.444,117.488" stroke="#1D2A38" stroke-width="0.52" stroke-linecap="round"></path>
                <circle stroke="#1D2A38" stroke-width="0.780011875" fill="#FFFFFF" fill-rule="nonzero" transform="translate(218.314844, 180.975809) rotate(-80.781636) translate(-218.314844, -180.975809) " cx="218.314844" cy="180.975809" r="22.8803483"></circle>
                <circle stroke="#1D2A38" stroke-width="0.780011875" fill="#FFD700" fill-rule="nonzero" transform="translate(239.354632, 181.781996) rotate(-80.781636) translate(-239.354632, -181.781996) " cx="239.354632" cy="181.781996" r="3.27604988"></circle>
                <ellipse stroke="#1D2A38" stroke-width="0.780005838" fill="#FFFFFF" fill-rule="nonzero" opacity="0.7" transform="translate(212.386038, 142.764742) rotate(-10.859342) translate(-212.386038, -142.764742) " cx="212.386038" cy="142.764742" rx="25.1681884" ry="4.26403192"></ellipse>
                <path d="M238.696,165.016 C239.684,166.264 239.424,168.136 238.176,169.072 C237.604,169.488 236.928,169.696 236.252,169.696 C233.756,169.592 230.116,169.072 223.72,168.812 C210.408,168.24 215.4,179.004 213.008,188.624 C212.28,191.588 210.304,193.252 207.912,194.084 C200.996,196.58 193.664,191.588 192.832,184.308 C191.168,170.112 201.36,157.216 215.608,155.552 C224.396,154.512 233.132,158.1 238.696,165.016 L238.696,165.016 Z" stroke="#1D2A38" stroke-width="0.78" fill="#FFD700" fill-rule="nonzero"></path>
                <path d="M235.836,162 C223.876,154.148 207.808,157.476 199.956,169.436 C197.2,173.648 195.692,178.588 195.692,183.632 C195.692,184.62 195.744,185.608 195.848,186.596 C196.16,189.144 197.252,191.484 198.968,193.356 C195.536,191.536 193.248,188.156 192.78,184.256 C192.676,183.268 192.624,182.28 192.624,181.292 C192.624,166.992 204.22,155.396 218.572,155.396 C224.916,155.448 231.052,157.788 235.836,162 L235.836,162 Z" stroke="#1D2A38" stroke-width="0.78" fill="#26241B" fill-rule="nonzero" opacity="0.7"></path>
                <circle fill="#FFFFFF" fill-rule="nonzero" cx="240.204" cy="180.98" r="1.352"></circle>
                <path d="M201.308,194.292 C199.592,201.104 198.708,208.072 198.708,215.04" stroke="#1D2A38" stroke-width="1.04"></path>
                <circle stroke="#1D2A38" stroke-width="0.78" fill="#FFD700" fill-rule="nonzero" cx="198.708" cy="217.38" r="3.276"></circle>
                <circle fill="#FFFFFF" fill-rule="nonzero" cx="200.008" cy="217.38" r="1.352"></circle>
                <path d="M239.84,188.78 C239.84,188.78 247.796,193.616 253.88,188.104 C258.56,183.84 259.652,175.884 259.652,175.884" stroke="#1D2A38" stroke-width="1.04"></path>
                <circle stroke="#1D2A38" stroke-width="0.78" fill="#FFD700" fill-rule="nonzero" cx="260.692" cy="174.116" r="3.276"></circle>
                <circle fill="#FFFFFF" fill-rule="nonzero" cx="261.992" cy="174.116" r="1.352"></circle>
                <path d="M205.832,158.724 C205.832,158.724 212.124,158.516 223.512,155.864" stroke="#1D2A38" stroke-width="0.78" fill="#FFD700" fill-rule="nonzero"></path>
                <path d="M214.672,155.656 L212.384,142.708" stroke="#1D2A38" stroke-width="0.78" stroke-linecap="round"></path>
                <circle fill="#FFFFFF" fill-rule="nonzero" cx="202.92" cy="183.268" r="5.148"></circle>
                <path d="M249.72,193.356 C253.412,192.888 256.636,190.6 258.3,187.272" stroke="#1D2A38" stroke-width="0.78" stroke-linecap="round"></path>
                <path d="M308.272,118.736 C308.272,129.396 302.188,139.432 291.424,148.324 C291.372,148.376 291.268,148.428 291.216,148.48 C286.068,144.372 280.556,140.784 274.732,137.716 C273.38,136.988 272.548,135.636 272.548,134.128 L272.548,84 C272.548,81.712 274.42,79.892 276.656,79.892 C277.384,79.892 278.112,80.1 278.736,80.464 C297.3,91.176 308.272,104.384 308.272,118.736 Z" stroke="#1D2A38" stroke-width="0.52" fill="#FFFFFF" fill-rule="nonzero" opacity="0.8" stroke-linecap="round" stroke-linejoin="round"></path>
                <path d="M308.272,117.8 L308.272,177.34 C308.272,178.172 308.22,179.004 308.168,179.888 C305.204,212.804 244.208,239.428 167.196,242.08 C164.908,242.184 163.036,240.416 162.932,238.128 C162.932,238.076 162.932,238.024 162.932,237.972 L162.932,186.7 C162.932,184.464 164.7,182.644 166.936,182.592 C221.172,180.772 267.504,167.044 291.268,147.648 L291.476,147.492 C302.188,138.548 308.272,128.46 308.272,117.8 Z" stroke="#1D2A38" stroke-width="0.52" fill="#FFFFFF" fill-rule="nonzero" opacity="0.8" stroke-linecap="round" stroke-linejoin="round"></path>
                <circle cx="278.216" cy="186.492" r="21.996"></circle>
                <circle stroke="#1D2A38" stroke-width="0.78" fill="#FFFFFF" fill-rule="nonzero" cx="117.224" cy="165.172" r="21.684"></circle>
                <path d="M137.296,153.316 C138.336,155.032 138.18,157.268 136.776,158.776 C134.592,161.116 133.604,157.268 133.604,157.268 C132.252,151.912 126.272,150.768 126.116,155.448 C125.96,160.128 122.268,166.628 107.812,167.928 C102.508,168.396 99.18,167.98 97.048,167.304 C95.072,166.576 93.824,164.6 94.136,162.468 C95.696,149.676 107.344,140.576 120.136,142.136 C127.26,143.072 133.552,147.18 137.296,153.316 L137.296,153.316 Z" stroke="#1D2A38" stroke-width="0.78" fill="#FFD700" fill-rule="nonzero"></path>
                <path d="M124.712,160.232 C122.58,163.716 117.744,167.096 107.812,167.98 C102.508,168.5 99.18,168.032 97.048,167.356 C95.072,166.628 93.824,164.6 94.136,162.52 C94.968,155.812 98.66,149.78 104.276,145.984 C101.468,149.416 99.7,153.524 99.18,157.944 C98.92,160.024 100.116,162.052 102.092,162.78 C104.224,163.508 107.552,163.924 112.856,163.404 C118.16,162.884 121.956,161.74 124.712,160.232 Z" stroke="#1D2A38" stroke-width="0.52" fill="#26241B" fill-rule="nonzero" opacity="0.7"></path>
                <path d="M134.904,163.248 C134.904,163.248 148.788,166.628 151.076,188.208" stroke="#1D2A38" stroke-width="1.04" stroke-linecap="round"></path>
                <polygon stroke="#1D2A38" stroke-width="0.52" fill="#F0F3F7" fill-rule="nonzero" points="158.876 189.56 139.896 193.408 145.512 219.252 165.116 215.508"></polygon>
                <path d="M83.216,190.496 C83.216,190.496 101.936,197.256 105.68,183.528" stroke="#1D2A38" stroke-width="1.04"></path>
                <circle stroke="#1D2A38" stroke-width="0.78" fill="#FFD700" fill-rule="nonzero" cx="80.2" cy="189.352" r="3.64"></circle>
                <circle stroke="#1D2A38" stroke-width="0.78" fill="#FFD700" fill-rule="nonzero" cx="108.696" cy="175.208" r="3.12"></circle>
                <ellipse stroke="#1D2A38" stroke-width="0.779977727" fill="#FFD700" fill-rule="nonzero" transform="translate(111.295511, 145.186887) rotate(-15.902896) translate(-111.295511, -145.186887) " cx="111.295511" cy="145.186887" rx="7.53978469" ry="2.3919317"></ellipse>
                <path d="M111.296,145.204 L106.772,130.8" stroke="#1D2A38" stroke-width="0.78" stroke-linecap="round"></path>
                <ellipse stroke="#1D2A38" stroke-width="0.779977727" fill="#FFFFFF" fill-rule="nonzero" opacity="0.7" transform="translate(106.044307, 130.781384) rotate(-15.902896) translate(-106.044307, -130.781384) " cx="106.044307" cy="130.781384" rx="23.8673184" ry="4.05588418"></ellipse>
                <path d="M114.624,126.172 C114.624,126.172 118.316,126.64 115.248,128.72" stroke="#1D2A38" stroke-width="0.5"></path>
                <path d="M116.86,125.912 C116.86,125.912 118.836,126.744 117.432,127.992" stroke="#1D2A38" stroke-width="0.5"></path>
                <path d="M118.472,125.912 C118.472,125.912 120.188,126.328 118.732,127.472" stroke="#1D2A38" stroke-width="0.5"></path>
                <polygon stroke="#1D2A38" stroke-width="0.52" fill="#FFFFFF" fill-rule="nonzero" points="143.016 192.94 144.004 196.996 157.108 194.136 156.068 190.132"></polygon>
                <circle stroke="#1D2A38" stroke-width="0.78" fill="#FFD700" fill-rule="nonzero" cx="150.452" cy="191.38" r="3.64"></circle>
                <ellipse stroke="#1D2A38" stroke-width="0.520001544" fill="#2E4257" fill-rule="nonzero" transform="translate(134.788924, 163.567592) rotate(-21.487542) translate(-134.788924, -163.567592) " cx="134.788924" cy="163.567592" rx="1" ry="1.50800448"></ellipse>
                <circle stroke="#1D2A38" stroke-width="0.52" fill="#FFFFFF" fill-rule="nonzero" cx="107.656" cy="174.532" r="1.404"></circle>
                <circle fill="#FFFFFF" fill-rule="nonzero" cx="149.724" cy="190.496" r="1.404"></circle>
                <circle fill="#FFFFFF" fill-rule="nonzero" cx="78.796" cy="188.208" r="1.404"></circle>
                <path d="M137.296,153.316 C138.336,155.032 138.18,157.268 136.776,158.776 C134.592,161.116 133.604,157.268 133.604,157.268 C132.252,151.912 126.272,150.768 126.116,155.448 C125.96,160.128 122.268,166.628 107.812,167.928 C102.508,168.396 99.18,167.98 97.048,167.304 C95.072,166.576 93.824,164.6 94.136,162.468 C95.696,149.676 107.344,140.576 120.136,142.136 C127.26,143.072 133.552,147.18 137.296,153.316 L137.296,153.316 Z" stroke="#1D2A38" stroke-width="0.78"></path>
                <path d="M138.96,147.388 C142.028,151.028 143.744,155.604 143.9,160.388" stroke="#1D2A38" stroke-width="0.52" stroke-linecap="round"></path>
                <path d="M143.016,147.96 C144.992,151.028 146.032,154.616 145.98,158.308" stroke="#1D2A38" stroke-width="0.52" stroke-linecap="round"></path>
                <path d="M147.228,150.976 C147.228,150.976 148.268,153.784 147.8,155.812" stroke="#1D2A38" stroke-width="0.52" stroke-linecap="round"></path>
                <path d="M95.852,193.98 C95.852,193.98 100.792,193.72 103.08,191.432" stroke="#1D2A38" stroke-width="0.52"></path>
                <path d="M146.552,187.532 L146.552,238.804 C146.552,241.092 144.732,242.912 142.444,242.912 C142.392,242.912 142.34,242.912 142.288,242.912 C64.236,240.26 2.408,213.324 0.952,179.836 L0.952,179.42 L1.212,116.916 L1.212,117.02 C1.16,117.592 1.16,118.164 1.16,118.736 C1.16,129.448 7.296,139.588 18.216,148.48 C18.268,148.532 18.32,148.532 18.32,148.584 C42.136,167.98 88.364,181.604 142.496,183.424 C144.784,183.476 146.552,185.296 146.552,187.532 Z" stroke="#1D2A38" stroke-width="0.52" fill="#FFFFFF" fill-rule="nonzero" opacity="0.8" stroke-linecap="round" stroke-linejoin="round"></path>
                <circle stroke="#1D2A38" stroke-width="0.52" cx="25.756" cy="7.404" r="7.28"></circle>
                <circle stroke="#1D2A38" stroke-width="0.52" cx="67.772" cy="28.308" r="4.524"></circle>
                <circle stroke="#1D2A38" stroke-width="0.52" cx="58.568" cy="238.7" r="4.524"></circle>
                <circle stroke="#1D2A38" stroke-width="0.52" cx="248.784" cy="43.44" r="2.236"></circle>
                <circle stroke="#1D2A38" stroke-width="0.52001313" transform="translate(241.568433, 30.944468) rotate(-67.499572) translate(-241.568433, -30.944468) " cx="241.568433" cy="30.9444676" r="7.28018382"></circle>
                <circle stroke="#1D2A38" stroke-width="0.5200157" transform="translate(40.110088, 234.184463) rotate(-3.170002) translate(-40.110088, -234.184463) " cx="40.1100885" cy="234.184463" r="7.2802198"></circle>
                <circle stroke="#1D2A38" stroke-width="0.52" cx="324.444" cy="134.388" r="9.62"></circle>
                <circle stroke="#1D2A38" stroke-width="0.52" cx="260.484" cy="276.66" r="36.348"></circle>
            </g>
        </g>
    </g>
</svg>