<?xml version="1.0" encoding="UTF-8"?>
<svg width="420px" height="420px" viewBox="0 0 420 420" version="1.1" xmlns="http://www.w3.org/2000/svg" xmlns:xlink="http://www.w3.org/1999/xlink">
    <!-- Generator: Sketch 57.1 (83088) - https://sketch.com -->
    <title>cf-6</title>
    <desc>Created with Sketch.</desc>
    <g stroke="none" stroke-width="1" fill="none" fill-rule="evenodd">
        <g>
            <g transform="translate(63.598630, 22.050000)">
                <path d="M54.4764,94.354 C56.3848,111.124 75.1464,133.0524 89.1656,137.6128" stroke="#1D2A38" stroke-width="1.04" stroke-linecap="round" stroke-linejoin="round"></path>
                <ellipse stroke="#1D2A38" stroke-width="1.04" fill="#FFD700" fill-rule="nonzero" stroke-linecap="round" stroke-linejoin="round" cx="89.1344" cy="137.9092" rx="5.9904" ry="5.9176"></ellipse>
                <ellipse stroke="#1D2A38" stroke-width="0.78" fill="#FFFFFF" fill-rule="nonzero" stroke-linecap="round" stroke-linejoin="round" cx="40.088" cy="81.7596" rx="36.4572" ry="36.01"></ellipse>
                <path d="M66.478,88.3116 C53.7224,88.3116 31.1492,85.3632 27.478,74.3184 C25.9856,69.836 23.838,67.3712 21.3784,67.3712 C19.0176,67.3712 16.6568,69.8724 16.012,73.0652 C15.3464,76.3412 12.892,80.4596 9.0128,81.7596 C8.37457372,81.9756702 7.70540884,82.0863195 7.0316,82.0872 L7.0316,82.0872 C5.16058933,82.073527 3.39170475,81.2319264 2.2008,79.7888 C0.96100779,78.3244359 0.435258354,76.3852586 0.7656,74.4952 C2.71003112,63.5981854 9.14455508,54.0199908 18.4976,48.1 C24.9317147,44.013871 32.3984473,41.8490778 40.0204,41.8599589 C40.8368,41.8599589 41.6636,41.8599589 42.4748,41.938 C57.1413221,42.7533437 70.1664408,51.5806801 76.358,64.9012 C77.9399785,68.3003125 79.0156575,71.9127721 79.5508,75.6236 C80.3360683,80.9958399 77.034242,86.1228856 71.8184,87.6304 C70.0780774,88.1020455 68.2809934,88.3312743 66.478,88.3116 L66.478,88.3116 Z" fill="#FFD700" fill-rule="nonzero"></path>
                <path d="M40.0204,42.2343817 C40.8264,42.2343817 41.6376,42.2343817 42.454,42.3072 C56.972641,43.1275219 69.8640566,51.8649926 76.0044,65.0468 C77.569095,68.4136607 78.6341797,71.9908036 79.166,75.6652 C79.9349804,80.8460195 76.7487288,85.7954934 71.7144,87.2404 C70.0084587,87.7066625 68.2464548,87.9358805 66.478,87.9216 C56.2444,87.9216 31.638,85.6544 27.8472,74.1936 C26.0948,68.9416 23.6404,66.9812 21.3732,66.9812 C18.6952,66.9812 16.2876,69.7164 15.6532,72.9872 C14.9356,76.5024 12.3356,80.236 8.8932,81.3904 C8.29557798,81.5944397 7.66829304,81.6981087 7.0368,81.6972 C5.25820636,81.663895 3.58277732,80.8558002 2.44946391,79.4846308 C1.3161505,78.1134615 0.83789606,76.3158652 1.14,74.5628 C3.05435391,63.7678475 9.43204278,54.2806105 18.7056,48.4328 C25.0765991,44.3776718 32.4735379,42.2271471 40.0256,42.2343817 L40.0204,42.2343817 Z M40.0256,41.4543818 C32.3280116,41.447097 24.788556,43.6391139 18.2948,47.7724 C8.83862406,53.744658 2.32983585,63.4182006 0.36,74.4276 C0.0229893426,76.4366243 0.594359241,78.4916514 1.92,80.0384 C3.1863392,81.5698414 5.06526223,82.462663 7.0524,82.4772 C7.75959258,82.4743771 8.46178663,82.3585151 9.1324,82.134 C13.1416,80.782 15.7052,76.5232 16.4124,73.1432 C17.0208,70.122 19.21,67.7612 21.394,67.7612 C23.656,67.7612 25.6892,70.1324 27.114,74.4432 C28.8664,79.6952 34.7372,83.6212 44.5756,86.112 C54.0708,88.5144 63.748,88.712 66.4884,88.712 C68.3269575,88.7256314 70.1587384,88.4876923 71.9328,88.0048 C77.3322109,86.4312532 80.7420886,81.1144191 79.92,75.5508 C79.3793293,71.8023572 78.2931606,68.153181 76.696,64.7192 C70.441427,51.2700124 57.289444,42.3574452 42.48,41.5324 C41.6584,41.4804 40.8212,41.4543818 39.9996,41.4543818 L40.0256,41.4543818 Z" fill="#1D2A38" fill-rule="nonzero"></path>
                <path d="M76.0096,65.078 C43.7696,76.362 18.7056,48.438 18.7056,48.438 C28.3442699,42.3188918 40.147891,40.6373352 51.1118958,43.8213642 C62.0759006,47.0053932 71.1427094,54.7478787 76.0044,65.078 C76.0061329,65.0779422 76.0078671,65.0779422 76.0096,65.078 Z" stroke="#1D2A38" stroke-width="0.78" fill="#161616" fill-rule="nonzero" style="mix-blend-mode: color-dodge;"></path>
                <ellipse stroke="#1D2A38" stroke-width="0.78" fill="#FFD700" fill-rule="nonzero" stroke-linecap="round" stroke-linejoin="round" cx="58.6364" cy="99.1536" rx="6.4012" ry="6.3232"></ellipse>
                <ellipse stroke="#1D2A38" stroke-width="0.78" fill="#FFFFFF" fill-rule="nonzero" stroke-linecap="round" stroke-linejoin="round" transform="translate(62.865343, 19.056666) rotate(-73.100000) translate(-62.865343, -19.056666) " cx="62.865343" cy="19.0566664" rx="4.9036" ry="49.0776"></ellipse>
                <path d="M52.9008,46.4516 L62.8692,19.058" stroke="#1D2A38" stroke-width="0.78" stroke-linecap="round" stroke-linejoin="round"></path>
                <path d="M34.7476,42.0108 C34.7476,42.0108 47.1132,52.5512 68.1108,52.884" stroke="#1D2A38" stroke-width="0.78" stroke-linecap="round" stroke-linejoin="round"></path>
                <path d="M15.6272,80.7352 C15.6272,80.7352 -20.6636,129.1524 20.5048,135.6472" stroke="#1D2A38" stroke-width="1.04" stroke-linecap="round" stroke-linejoin="round"></path>
                <ellipse stroke="#1D2A38" stroke-width="1.04" fill="#FFD700" fill-rule="nonzero" stroke-linecap="round" stroke-linejoin="round" cx="18.0296" cy="135.9332" rx="5.9904" ry="5.9176"></ellipse>
                <ellipse fill="#FFFFFF" fill-rule="nonzero" transform="translate(50.197053, 59.817512) rotate(-70.690000) translate(-50.197053, -59.817512) " cx="50.197053" cy="59.817512" rx="4.888" ry="7.0616"></ellipse>
                <polyline stroke="#1D2A38" stroke-width="0.78" stroke-linecap="round" stroke-linejoin="round" points="19.47 170.7004 98.1824 161.1376 193.8052 161.1376 271.046 171.4388"></polyline>
                <polygon stroke="#1D2A38" stroke-width="0.78" stroke-linecap="round" stroke-linejoin="round" points="19.47 170.7004 23.1516 183.2064 145.258 290.602 268.1028 183.2064 271.046 171.4388 230.5848 139.074 145.258 129.5112 59.9312 138.3356"></polygon>
                <polygon stroke="#1D2A38" stroke-width="0.78" fill="#FAD749" fill-rule="nonzero" stroke-linecap="round" stroke-linejoin="round" points="179.8328 201.5988 145.258 150.1084 110.6832 201.5988"></polygon>
                <polygon stroke="#1D2A38" stroke-width="0.78" fill="#FAD749" fill-rule="nonzero" stroke-linecap="round" stroke-linejoin="round" points="145.258 290.602 179.8328 201.5988 110.6832 201.5988"></polygon>
                <polyline stroke="#1D2A38" stroke-width="0.78" stroke-linecap="round" stroke-linejoin="round" points="110.6832 201.5988 98.1824 161.1376 145.258 129.5112 193.8052 161.1376 179.8328 201.5988"></polyline>
                <polygon stroke="#1D2A38" stroke-width="0.78" fill="#334258" fill-rule="nonzero" stroke-linecap="round" stroke-linejoin="round" points="145.258 290.602 110.6832 201.5988 23.1516 183.2064"></polygon>
                <polygon stroke="#1D2A38" stroke-width="0.78" fill="#334258" fill-rule="nonzero" stroke-linecap="round" stroke-linejoin="round" points="59.9312 138.3356 19.47 170.7004 23.1516 183.2064"></polygon>
                <polygon stroke="#1D2A38" stroke-width="0.78" fill="#FAD749" fill-rule="nonzero" stroke-linecap="round" stroke-linejoin="round" points="110.6832 201.5988 59.9312 138.3356 23.1516 183.2064"></polygon>
                <polygon stroke="#1D2A38" stroke-width="0.78" fill="#334258" fill-rule="nonzero" stroke-linecap="round" stroke-linejoin="round" points="110.6832 201.5988 145.258 150.1084 59.9312 138.3356"></polygon>
                <polygon stroke="#1D2A38" stroke-width="0.78" fill="#E1E3FF" fill-rule="nonzero" opacity="0.5" stroke-linecap="round" stroke-linejoin="round" points="59.9312 138.3356 145.258 129.5112 230.8708 139.074 145.258 150.1084"></polygon>
                <polygon stroke="#1D2A38" stroke-width="0.78" fill="#E1E3FF" fill-rule="nonzero" opacity="0.5" stroke-linecap="round" stroke-linejoin="round" points="230.5848 139.074 179.8328 201.5988 145.258 150.1084"></polygon>
                <polygon stroke="#1D2A38" stroke-width="0.78" stroke-linecap="round" stroke-linejoin="round" points="59.9312 138.3356 23.1516 183.2064 110.6832 201.5988 179.8328 201.5988 268.1028 183.2064 230.5848 139.074 145.258 150.1084"></polygon>
                <circle fill="#1D2A38" fill-rule="nonzero" cx="145.258" cy="150.1084" r="5.5172"></circle>
                <circle fill="#1D2A38" fill-rule="nonzero" cx="60.0664" cy="138.3356" r="3.4216"></circle>
                <circle fill="#1D2A38" fill-rule="nonzero" cx="145.258" cy="129.5112" r="2.3192"></circle>
                <circle fill="#1D2A38" fill-rule="nonzero" cx="19.47" cy="170.7004" r="2.3192"></circle>
                <circle fill="#1D2A38" fill-rule="nonzero" cx="193.8052" cy="161.1376" r="2.3192"></circle>
                <circle fill="#1D2A38" fill-rule="nonzero" cx="271.046" cy="171.4388" r="2.3192"></circle>
                <circle fill="#1D2A38" fill-rule="nonzero" cx="230.5848" cy="139.1884" r="3.4216"></circle>
                <circle fill="#1D2A38" fill-rule="nonzero" cx="110.6832" cy="201.5988" r="5.5172"></circle>
                <circle fill="#1D2A38" fill-rule="nonzero" cx="179.8328" cy="201.5988" r="5.5172"></circle>
                <circle fill="#1D2A38" fill-rule="nonzero" cx="23.1516" cy="183.2064" r="3.4216"></circle>
                <circle fill="#1D2A38" fill-rule="nonzero" cx="268.1028" cy="183.2064" r="3.4216"></circle>
                <circle fill="#1D2A38" fill-rule="nonzero" cx="145.258" cy="290.602" r="2.8496"></circle>
                <circle stroke="#1D2A38" stroke-width="0.52" stroke-linecap="round" stroke-linejoin="round" cx="40.7328" cy="285.8076" r="18.0752"></circle>
                <path d="M48.4496,286.9308 L48.4496,284.1644 L51.5696,283.4884 C51.2360017,282.007375 50.5946549,280.613066 49.6872,279.396 L46.8896,281.19 L44.9136,279.24 L46.6244,276.5672 C45.3385123,275.759893 43.8988679,275.228659 42.3968,275.0072 L41.6896,278.2676 L38.9232,278.2676 L38.2472,275.1476 C36.768169,275.489831 35.3752324,276.132316 34.1548,277.0352 L35.9488,279.8328 L33.9936,281.7828 L31.3312,280.072 C30.5229464,281.359314 29.9916655,282.800856 29.7712,284.3048 L33.0212,285.0172 L33.0212,287.7784 L29.9272,288.4596 C30.2657266,289.938012 30.9046967,291.331002 31.8044,292.552 L34.602,290.7528 L36.5624,292.7132 L34.8412,295.36 C36.1250549,296.167593 37.5630684,296.698879 39.0636,296.92 L39.7708,293.6648 L42.5372,293.6648 L43.2184,296.7848 C44.6971214,296.444421 46.0900849,295.803693 47.3108,294.9024 L45.5116,292.1048 L47.472,290.16 L50.1344,291.8708 C50.9417071,290.584912 51.4729412,289.145268 51.6944,287.6432 L48.4496,286.9308 Z M39.7032,290.9868 C37.1894638,290.472911 35.4437766,288.178422 35.6190492,285.618689 C35.7943218,283.058957 37.8364708,281.023831 40.396792,280.857379 C42.9571132,280.690926 45.2455751,282.444508 45.7508,284.96 C46.105896,286.646528 45.5835533,288.398199 44.3627539,289.614799 C43.1419545,290.8314 41.3884941,291.347704 39.7032,290.9868 L39.7032,290.9868 Z" stroke="#1D2A38" stroke-width="0.52" stroke-linecap="round" stroke-linejoin="round"></path>
                <circle fill="#1D2A38" fill-rule="nonzero" cx="58.0176" cy="291.0908" r="2.6936"></circle>
                <circle stroke="#1D2A38" stroke-width="0.52" stroke-linecap="round" stroke-linejoin="round" cx="122.8512" cy="89.3828" r="16.8896"></circle>
                <circle stroke="#1D2A38" stroke-width="0.52" stroke-linecap="round" stroke-linejoin="round" cx="122.8512" cy="89.8664" r="8.684"></circle>
                <circle stroke="#1D2A38" stroke-width="0.52" stroke-linecap="round" stroke-linejoin="round" cx="122.8512" cy="89.8664" r="6.4272"></circle>
                <rect stroke="#1D2A38" stroke-width="0.52" stroke-linecap="round" stroke-linejoin="round" x="121.1196" y="78.1924" width="3.4632" height="1.7316"></rect>
                <polygon stroke="#1D2A38" stroke-width="0.52" stroke-linecap="round" stroke-linejoin="round" points="123.7924 90.5736 121.9152 89.1592 125.1964 86.7412"></polygon>
                <polygon stroke="#1D2A38" stroke-width="0.52" stroke-linecap="round" stroke-linejoin="round" points="123.7924 90.5736 121.9152 89.1592 120.5112 92.9916"></polygon>
                <path d="M122.8512,84.5624 L122.8512,85.0512" stroke="#1D2A38" stroke-width="0.52" stroke-linecap="round" stroke-linejoin="round"></path>
                <path d="M117.5472,89.8508 L118.036,89.8508" stroke="#1D2A38" stroke-width="0.52" stroke-linecap="round" stroke-linejoin="round"></path>
                <path d="M122.8408,95.16 L122.8408,94.6712" stroke="#1D2A38" stroke-width="0.52" stroke-linecap="round" stroke-linejoin="round"></path>
                <path d="M128.1448,89.8664 L127.656,89.8664" stroke="#1D2A38" stroke-width="0.52" stroke-linecap="round" stroke-linejoin="round"></path>
                <circle fill="#1D2A38" fill-rule="nonzero" cx="136.6988" cy="79.924" r="2.2412"></circle>
                <circle stroke="#1D2A38" stroke-width="0.52" stroke-linecap="round" stroke-linejoin="round" cx="106.8092" cy="299.5408" r="13.7332"></circle>
                <rect stroke="#1D2A38" stroke-width="0.52" stroke-linecap="round" stroke-linejoin="round" x="101.0112" y="292.474" width="11.596" height="14.1284"></rect>
                <path d="M102.8936,294.7412 L110.418,294.7412" stroke="#1D2A38" stroke-width="0.52" stroke-linecap="round" stroke-linejoin="round"></path>
                <path d="M102.8936,296.582 L109.768,296.582" stroke="#1D2A38" stroke-width="0.52" stroke-linecap="round" stroke-linejoin="round"></path>
                <path d="M102.8936,298.428 L106.1176,298.428" stroke="#1D2A38" stroke-width="0.52" stroke-linecap="round" stroke-linejoin="round"></path>
                <path d="M102.8936,300.2688 L108.6136,300.2688" stroke="#1D2A38" stroke-width="0.52" stroke-linecap="round" stroke-linejoin="round"></path>
                <circle fill="#1D2A38" fill-rule="nonzero" cx="120.376" cy="296.6912" r="1.8512"></circle>
                <circle fill="#1D2A38" fill-rule="nonzero" cx="97.782" cy="309.8628" r="1.4248"></circle>
                <circle stroke="#1D2A38" stroke-width="0.52" stroke-linecap="round" stroke-linejoin="round" cx="237.8804" cy="108.94" r="14.9448"></circle>
                <path d="M244.76,112.84 L237.48,106.8652 C237.336944,106.751908 237.129789,106.772623 237.012,106.912 C236.96361,106.972751 236.936239,107.047564 236.934,107.1252 L236.934,117.078 C236.934957,117.224948 237.03218,117.353873 237.1732,117.3952 C237.204188,117.40034 237.235812,117.40034 237.2668,117.3952 C237.377822,117.398263 237.482359,117.343035 237.5424,117.2496 L240.1008,113.4172 L244.5676,113.4172 C244.7514,113.4172 244.9004,113.2682 244.9004,113.0844 C244.892829,112.985936 244.841245,112.896141 244.76,112.84 Z" stroke="#1D2A38" stroke-width="0.52" stroke-linecap="round" stroke-linejoin="round"></path>
                <path d="M237.2096,103.8232 L237.2096,100.4692" stroke="#1D2A38" stroke-width="0.52" stroke-linecap="round" stroke-linejoin="round"></path>
                <path d="M239.3156,104.6916 L241.6868,102.3256" stroke="#1D2A38" stroke-width="0.52" stroke-linecap="round" stroke-linejoin="round"></path>
                <path d="M240.184,106.7976 L243.538,106.7976" stroke="#1D2A38" stroke-width="0.52" stroke-linecap="round" stroke-linejoin="round"></path>
                <path d="M235.1036,108.9036 L232.7324,111.2748" stroke="#1D2A38" stroke-width="0.52" stroke-linecap="round" stroke-linejoin="round"></path>
                <path d="M234.2352,106.7976 L230.8812,106.7976" stroke="#1D2A38" stroke-width="0.52" stroke-linecap="round" stroke-linejoin="round"></path>
                <path d="M235.1036,104.6916 L232.7324,102.3256" stroke="#1D2A38" stroke-width="0.52" stroke-linecap="round" stroke-linejoin="round"></path>
                <circle fill="#1D2A38" fill-rule="nonzero" cx="227.626" cy="119.7768" r="2.3608"></circle>
                <circle fill="#1D2A38" fill-rule="nonzero" cx="250.9584" cy="116.1472" r="1.5132"></circle>
                <circle stroke="#1D2A38" stroke-width="0.52" stroke-linecap="round" stroke-linejoin="round" cx="203.42" cy="53.9084" r="12.896"></circle>
                <circle stroke="#1D2A38" stroke-width="0.52" stroke-linecap="round" stroke-linejoin="round" cx="205.0892" cy="51.662" r="5.668"></circle>
                <path d="M198.3032,55.9416 L202.9572,59.3996" stroke="#1D2A38" stroke-width="0.52" stroke-linecap="round" stroke-linejoin="round"></path>
                <path d="M197.7416,57.8812 L201.262,60.4916" stroke="#1D2A38" stroke-width="0.52" stroke-linecap="round" stroke-linejoin="round"></path>
                <path d="M197.0448,59.7116 L199.7124,61.6928" stroke="#1D2A38" stroke-width="0.52" stroke-linecap="round" stroke-linejoin="round"></path>
                <circle fill="#1D2A38" fill-rule="nonzero" cx="205.0892" cy="66.8044" r="2.0956"></circle>
                <circle fill="#1D2A38" fill-rule="nonzero" cx="195.1728" cy="43.888" r="1.2116"></circle>
                <circle stroke="#2E4257" stroke-width="0.78" fill="#FFD700" fill-rule="nonzero" stroke-linecap="round" stroke-linejoin="round" cx="235.6704" cy="262.132" r="7.1812"></circle>
                <circle stroke="#2E4257" stroke-width="0.78" fill="#FFFFFF" fill-rule="nonzero" stroke-linecap="round" stroke-linejoin="round" cx="273.5056" cy="269.7188" r="35.75"></circle>
                <path d="M294.5136,285.0952 C292.373942,285.130458 290.249909,284.725122 288.2736,283.9044 C280.8532,280.6544 281.5136,276.5672 282.1792,272.2356 C282.455705,270.751781 282.603588,269.24686 282.6212,267.7376 C282.538,261.7264 273.386,260.8528 273.2976,260.8476 C256.5172,258.9132 248.1452,255.5384 244.0788,253.0476 C242.649865,252.166509 241.663301,250.719059 241.365618,249.066921 C241.067936,247.414783 241.487254,245.71402 242.5188,244.3896 C253.234712,230.798079 271.475147,225.638097 287.72301,231.601918 C303.970873,237.56574 314.54167,253.30096 313.92,270.5976 C313.673468,276.348333 309.924318,281.358899 304.4768,283.218 C301.28064,284.384019 297.914939,285.018162 294.5136,285.0952 Z" fill="#FFD700" fill-rule="nonzero"></path>
                <path d="M273.9684,229.5332 C284.717221,229.545946 294.999658,233.924995 302.457227,241.665924 C309.914796,249.406854 313.907525,259.845373 313.5196,270.5872 C313.293567,276.180268 309.644257,281.055664 304.3416,282.8488 C301.186386,283.990769 297.867969,284.617581 294.5136,284.7052 C292.420512,284.743344 290.342122,284.348556 288.4088,283.5456 C278.9084,279.3856 283.0788,274.1856 282.9904,267.7324 C282.902,261.2792 273.308,260.4524 273.308,260.4524 C256.9332,258.57 248.5352,255.32 244.24,252.72 C242.906505,251.896034 241.98645,250.543737 241.709624,249.000851 C241.432797,247.457965 241.825335,245.870161 242.7892,244.634 C246.614399,239.774598 251.531415,235.885523 257.1412,233.2824 C262.402847,230.823083 268.139575,229.546874 273.9476,229.5436 L273.9684,229.5332 Z M273.9476,228.7636 L273.9476,228.7636 C268.02733,228.775622 262.180636,230.076267 256.8136,232.5752 C251.097044,235.237153 246.083725,239.201504 242.1756,244.1504 C241.075252,245.562601 240.627423,247.37613 240.943922,249.138205 C241.260421,250.900279 242.311377,252.444601 243.8344,253.3856 C247.932,255.9024 256.356,259.3032 273.1988,261.2428 C273.308,261.2428 282.1116,262.1008 282.1896,267.7532 C282.17014,269.24145 282.024012,270.725342 281.7528,272.1888 C281.0456,276.6712 280.38,280.904 288.076,284.2684 C290.114261,285.115552 292.306826,285.528208 294.5136,285.48 C297.955407,285.400064 301.361101,284.758972 304.5964,283.582 C310.204448,281.667415 314.05918,276.502983 314.2996,270.582 C314.687171,259.631765 310.613653,248.993155 303.011756,241.102082 C295.40986,233.21101 284.930671,228.743329 273.9736,228.722 L273.9476,228.7636 Z" fill="#2E4257" fill-rule="nonzero"></path>
                <path d="M308.902,250.5464 L308.902,250.5464 C266.6572,255.6424 257.162,233.272 257.162,233.272 C268.44555,228.04636 281.520471,228.380924 292.522,234.1768 C299.3912,237.744 305.678,244.0568 308.902,250.5464 Z" fill="#161616" fill-rule="nonzero" style="mix-blend-mode: color-dodge;"></path>
                <path d="M267.4164,229.5332 C267.4164,229.5332 282.0752,236.6 299.6148,238.16" stroke="#2E4257" stroke-width="0.78" stroke-linecap="round" stroke-linejoin="round"></path>
                <path d="M283.5156,232.0292 L289.246,209.3208" stroke="#2E4257" stroke-width="0.78" fill="#FFD700" fill-rule="nonzero" stroke-linecap="round" stroke-linejoin="round"></path>
                <ellipse stroke="#2E4257" stroke-width="0.78" fill="#FFFFFF" fill-rule="nonzero" stroke-linecap="round" stroke-linejoin="round" transform="translate(289.645879, 209.637551) rotate(-73.750000) translate(-289.645879, -209.637551) " cx="289.645879" cy="209.637551" rx="3.5724" ry="48.75"></ellipse>
                <path d="M199.3432,249.2672 C199.3432,249.2672 219.9924,312.832 278.118,280.566" stroke="#2E4257" stroke-width="1.04" stroke-linecap="round" stroke-linejoin="round"></path>
                <path d="M206.1968,251.706 C205.362655,253.638751 203.664631,255.063965 201.61653,255.550389 C199.568429,256.036813 197.410906,255.527292 195.7968,254.176 C190.7944,250.1044 194.4136,241.6492 200.8148,242.4656 C202.908815,242.700325 204.768295,243.911984 205.828806,245.732783 C206.889316,247.553583 207.02579,249.768793 206.1968,251.706 L206.1968,251.706 Z" stroke="#2E4257" stroke-width="1.04" fill="#FFD700" fill-rule="nonzero" stroke-linecap="round" stroke-linejoin="round"></path>
                <ellipse fill="#FFFFFF" fill-rule="nonzero" transform="translate(269.161988, 237.205644) rotate(-71.927678) translate(-269.161988, -237.205644) " cx="269.161988" cy="237.205644" rx="3.66862926" ry="6.25121955"></ellipse>
            </g>
        </g>
    </g>
</svg>