<?xml version="1.0" encoding="UTF-8"?>
<svg width="222px" height="222px" viewBox="0 0 222 222" version="1.1" xmlns="http://www.w3.org/2000/svg" xmlns:xlink="http://www.w3.org/1999/xlink">
    <!-- Generator: Sketch 52.4 (67378) - http://www.bohemiancoding.com/sketch -->
    <title>Group 12</title>
    <desc>Created with Sketch.</desc>
    <g id="Page-1" stroke="none" stroke-width="1" fill="none" fill-rule="evenodd">
        <g id="Chatbot-coming-soon" transform="translate(-1079.000000, -234.000000)">
            <g id="Group-12" transform="translate(1079.000000, 234.000000)">
                <circle id="Oval" fill="#F9F9F9" cx="111" cy="111" r="111"></circle>
                <g id="s1-bot" transform="translate(51.000000, 51.000000)">
                    <circle id="Oval" stroke="#1D2A38" stroke-width="1.5" fill="#EAEAEA" fill-rule="nonzero" stroke-linecap="round" stroke-linejoin="round" cx="60.1935484" cy="90.7548387" r="9.24677419"></circle>
                    <path d="M7.25806452,109.737097 L4.25806452,109.509677 C4.88709677,101.187097 6.23225806,93.7064516 8.26451613,87.2516129 C9.69787253,82.5010069 11.7804498,77.9711163 14.4532258,73.7903226 C18.7693548,67.2580645 22.8290323,65.3225806 22.9983871,65.2306452 L24.266129,67.9645161 L23.6322581,66.5951613 L24.2758065,67.9596774 C24.2419355,67.9596774 20.6564516,69.75 16.7951613,75.7016129 C13.1903226,81.2903226 8.61290323,91.683871 7.25806452,109.737097 Z" id="Path" stroke="#1D2A38" stroke-width="1.5" fill="#EAEAEA" fill-rule="nonzero" stroke-linecap="round" stroke-linejoin="round"></path>
                    <circle id="Oval" stroke="#1D2A38" stroke-width="1.5" fill="#FFD701" fill-rule="nonzero" stroke-linecap="round" stroke-linejoin="round" cx="5.36612903" cy="114.537097" r="5.36612903"></circle>
                    <path d="M113.574194,109.737097 C110.951613,75.0483871 96.5322581,68.0322581 96.3870968,67.9645161 L97.6451613,65.2306452 C97.8145161,65.3080645 101.917742,67.2435484 106.277419,73.7854839 C108.99056,77.9648277 111.107717,82.5020581 112.567742,87.266129 C114.614516,93.7016129 115.954839,101.187097 116.603226,109.524194 L113.574194,109.737097 Z" id="Path" stroke="#1D2A38" stroke-width="1.5" fill="#EAEAEA" fill-rule="nonzero" stroke-linecap="round" stroke-linejoin="round"></path>
                    <circle id="Oval" stroke="#1D2A38" stroke-width="1.5" fill="#FFD701" fill-rule="nonzero" stroke-linecap="round" stroke-linejoin="round" cx="115.456452" cy="114.537097" r="5.36612903"></circle>
                    <path d="M93.1258065,58.933871 L95.9274194,58.933871 C96.9589447,58.933871 97.7951613,60.3124054 97.7951613,62.0129138 L97.7951613,66.8548282 C97.7951613,68.5553366 96.9589447,69.933871 95.9274194,69.933871 L93.1258065,69.933871 L93.1258065,58.933871 Z" id="Path" stroke="#1D2A38" stroke-width="1.5" fill="#FFFFFF" fill-rule="nonzero" stroke-linecap="round" stroke-linejoin="round"></path>
                    <path d="M23.0274194,58.933871 L25.8290323,58.933871 C26.8605576,58.933871 27.6967742,60.3124054 27.6967742,62.0129138 L27.6967742,66.8548282 C27.6967742,68.5553366 26.8605576,69.933871 25.8290323,69.933871 L23.0274194,69.933871 L23.0274194,58.933871 Z" id="Path" stroke="#1D2A38" stroke-width="1.5" fill="#FFFFFF" fill-rule="nonzero" stroke-linecap="round" stroke-linejoin="round" transform="translate(25.362097, 64.433871) rotate(-180.000000) translate(-25.362097, -64.433871) "></path>
                    <circle id="Oval" stroke="#1D2A38" stroke-width="1.5" fill="#EAEAEA" fill-rule="nonzero" stroke-linecap="round" stroke-linejoin="round" cx="60.4112903" cy="60.9145161" r="35.2790323"></circle>
                    <path d="M64.9403226,94.578882 C63.4381903,94.7653952 61.9254822,94.858642 60.4112903,94.8580618 C40.9272188,94.8580618 25.1322581,79.4118863 25.1322581,60.3580632 C25.1322581,41.30424 40.9272188,25.8580645 60.4112903,25.8580645 C61.925585,25.8590411 63.4382943,25.9538683 64.9403226,26.1419762 C47.3541197,28.3712296 34.1921367,43.0186854 34.1921367,60.3604291 C34.1921367,77.7021728 47.3541197,92.3496286 64.9403226,94.578882 Z" id="Path" fill="#4C4C4C" fill-rule="nonzero" style="mix-blend-mode: color-dodge;"></path>
                    <path d="M98.0370968,61.0935484 C98.0360062,61.4049504 97.8152519,61.6722859 97.5096774,61.7322581 C96.5080645,61.9258065 94.3112903,62.0322581 93.1548387,59.7048387 C91.616129,56.6274194 91.616129,48.9241935 87.3483871,49.0596774 C83.0806452,49.1951613 84.1693548,56.7580645 60.4112903,56.7580645 C43.3790323,56.7580645 39.1209677,52.8870968 36.4935484,50.6129032 C35.4629032,49.7225806 34.683871,49.0935484 33.4741935,49.0596774 C29.2112903,48.9387097 29.2112903,56.6419355 27.6677419,59.7048387 C26.5064516,62.0322581 24.3145161,61.9258065 23.3129032,61.7322581 C23.0054062,61.6743158 22.7821872,61.4064531 22.7806452,61.0935484 C22.7716454,51.1109692 26.7335558,41.5347344 33.792762,34.4764359 C40.8519682,27.4181375 50.4287123,23.4574585 60.4112903,23.4677419 C61.9232499,23.4682961 63.4338866,23.557157 64.9354839,23.733871 C83.8385082,26.0018124 98.0574901,42.050137 98.0322581,61.0887097 L98.0370968,61.0935484 Z" id="Path" stroke="#1D2A38" stroke-width="1.5" fill="#FFD701" fill-rule="nonzero" stroke-linecap="round" stroke-linejoin="round"></path>
                    <circle id="Oval" stroke="#1D2A38" stroke-width="1.5" fill="#FFD701" fill-rule="nonzero" stroke-linecap="round" stroke-linejoin="round" cx="60.4112903" cy="65.2306452" r="6.5516129"></circle>
                    <path d="M72.3870968,25.4129032 C69.933871,26.5451613 65.4870968,27.3 60.4112903,27.3 C55.3354839,27.3 50.883871,26.5451613 48.4354839,25.4129032 C56.2087309,22.819377 64.6138498,22.819377 72.3870968,25.4129032 Z" id="Path" stroke="#1D2A38" stroke-width="1.5" stroke-linecap="round" stroke-linejoin="round"></path>
                    <path d="M60.4112903,23.4676488 L60.4112903,7.61612903" id="Path" stroke="#1D2A38" stroke-width="1.5" stroke-linecap="round" stroke-linejoin="round"></path>
                    <ellipse id="Oval" stroke="#1D2A38" stroke-width="1.5" fill="#FFFFFF" fill-rule="nonzero" stroke-linecap="round" stroke-linejoin="round" cx="60.4112903" cy="3.80806452" rx="33" ry="3.80806452"></ellipse>
                    <path d="M22.9306452,57.7548387 C22.9306452,57.7548387 26.1967742,58.4370968 28.3645161,57.7548387" id="Path" stroke="#1D2A38" stroke-linecap="round" stroke-linejoin="round" fill-rule="nonzero"></path>
                    <path d="M98.1774194,57.7548387 C98.1774194,57.7548387 94.9064516,58.4370968 92.7435484,57.7548387" id="Path" stroke="#1D2A38" fill="#FFD701" fill-rule="nonzero" stroke-linecap="round" stroke-linejoin="round"></path>
                    <path d="M28.7129032,40.8435484 C28.7129032,40.8435484 33.1887097,36.0532258 39.5758065,38.3274194 C45.9629032,40.6016129 49.9596774,44.5887097 60.4112903,44.5887097 C70.8629032,44.5887097 74.8645161,40.6016129 81.2467742,38.3274194 C87.6290323,36.0532258 92.1096774,40.8435484 92.1096774,40.8435484" id="Path" stroke="#1D2A38" stroke-width="1.5" stroke-linecap="round" stroke-linejoin="round"></path>
                    <circle id="Oval" fill="#4C4C4C" fill-rule="nonzero" style="mix-blend-mode: color-dodge;" cx="5.46774194" cy="112.969355" r="3.20806452"></circle>
                    <circle id="Oval" fill="#4C4C4C" fill-rule="nonzero" style="mix-blend-mode: color-dodge;" cx="115.456452" cy="112.969355" r="3.20806452"></circle>
                    <ellipse id="Oval" fill="#FFFFFF" fill-rule="nonzero" cx="116.187097" cy="111.396774" rx="1.37419355" ry="1"></ellipse>
                    <ellipse id="Oval" fill="#FFFFFF" fill-rule="nonzero" cx="5.74354839" cy="111.396774" rx="1.37419355" ry="1"></ellipse>
                    <circle id="Oval" fill="#4C4C4C" fill-rule="nonzero" style="mix-blend-mode: color-dodge;" cx="62.4193548" cy="64.1806452" r="3.65806452"></circle>
                    <path d="M39.8564516,89.816129 C39.8564516,89.816129 60.4645161,98.3709677 80.9612903,89.816129" id="Path" stroke="#1D2A38" stroke-linecap="round" stroke-linejoin="round"></path>
                    <path d="M64.9403226,23.7387097 C51.7741935,24.2758065 54.3435484,43.7370968 50.3225806,49.1274194 C46.3016129,54.5177419 36.483871,50.5790323 36.483871,50.5790323 C35.4532258,49.6887097 34.6741935,49.0596774 33.4645161,49.0258065 C29.2016129,48.9048387 29.2016129,56.6080645 27.6580645,59.6709677 C26.4967742,61.9983871 24.3048387,61.8919355 23.3032258,61.6983871 C22.9957288,61.6404449 22.7725098,61.3725821 22.7709677,61.0596774 C22.7709595,51.081287 26.7381685,41.5122909 33.7984926,34.4610429 C40.8588168,27.4097948 50.4329081,23.4548981 60.4112903,23.4677419 C61.9232499,23.4682961 63.4338866,23.557157 64.9354839,23.733871 L64.9403226,23.7387097 Z" id="Path" fill="#161616" fill-rule="nonzero" style="mix-blend-mode: color-dodge;"></path>
                </g>
            </g>
        </g>
    </g>
</svg>