<?xml version="1.0" encoding="UTF-8"?>
<svg width="16px" height="14px" viewBox="0 0 16 14" version="1.1" xmlns="http://www.w3.org/2000/svg" xmlns:xlink="http://www.w3.org/1999/xlink">
    <!-- Generator: Sketch 52.4 (67378) - http://www.bohemiancoding.com/sketch -->
    <title>Group 4</title>
    <desc>Created with Sketch.</desc>
    <g id="Mobile" stroke="none" stroke-width="1" fill="none" fill-rule="evenodd">
        <g id="Main-menu" transform="translate(-48.000000, -647.000000)" fill="#000000" fill-rule="nonzero">
            <g id="Group-3" transform="translate(48.000000, 479.000000)">
                <g id="Group-4" transform="translate(0.000000, 168.000000)">
                    <path d="M15,4.52970994e-14 L1,4.52970994e-14 C0.4,4.52970994e-14 0,0.4 0,1 L0,2.4 L8,6.9 L16,2.5 L16,1 C16,0.4 15.6,4.52970994e-14 15,4.52970994e-14 Z" id="Path"></path>
                    <path d="M7.5,8.9 L0,4.7 L0,13 C0,13.6 0.4,14 1,14 L15,14 C15.6,14 16,13.6 16,13 L16,4.7 L8.5,8.9 C8.22,9.04 7.78,9.04 7.5,8.9 Z" id="Path"></path>
                </g>
            </g>
        </g>
    </g>
</svg>