<?xml version="1.0" encoding="UTF-8"?>
<svg width="48px" height="34px" viewBox="0 0 48 34" version="1.1" xmlns="http://www.w3.org/2000/svg" xmlns:xlink="http://www.w3.org/1999/xlink">
    <!-- Generator: sketchtool 55.2 (78181) - https://sketchapp.com -->
    <title>9CFD383C-1FEB-488E-B1DA-97BB0465C0FD</title>
    <desc>Created with sketchtool.</desc>
    <g id="Page-1" stroke="none" stroke-width="1" fill="none" fill-rule="evenodd">
        <g id="Pricing" transform="translate(-1241.000000, -397.000000)" fill-rule="nonzero">
            <g id="icon-youtube" transform="translate(1241.000000, 397.000000)">
                <path d="M47.5,7.4 C47.5,7.4 47,4.1 45.6,2.6 C43.8,0.7 41.7,0.7 40.8,0.6 C34.1,0.1 24,0.1 24,0.1 L24,0.1 C24,0.1 13.9,0.1 7.2,0.6 C6.3,0.7 4.2,0.7 2.4,2.6 C1,4.1 0.5,7.4 0.5,7.4 C0.5,7.4 0,11.3 0,15.2 L0,18.8 C0,22.7 0.5,26.6 0.5,26.6 C0.5,26.6 1,29.9 2.4,31.4 C4.2,33.3 6.6,33.3 7.7,33.5 C11.5,33.9 24,34 24,34 C24,34 34.1,34 40.8,33.5 C41.7,33.4 43.8,33.4 45.6,31.5 C47,30 47.5,26.7 47.5,26.7 C47.5,26.7 48,22.8 48,18.9 L48,15.3 C48,11.3 47.5,7.4 47.5,7.4 Z" id="Path" fill="#1D2A38"></path>
                <polygon id="Path" fill="#FFD701" points="19 23.2 19 9.7 32 16.5"></polygon>
            </g>
        </g>
    </g>
</svg>