<?xml version="1.0" encoding="UTF-8"?>
<svg width="44px" height="44px" viewBox="0 0 44 44" version="1.1" xmlns="http://www.w3.org/2000/svg" xmlns:xlink="http://www.w3.org/1999/xlink">
    <!-- Generator: sketchtool 55.2 (78181) - https://sketchapp.com -->
    <title>353912D0-599D-4FF9-941E-19DE65ABF64D</title>
    <desc>Created with sketchtool.</desc>
    <g id="Page-1" stroke="none" stroke-width="1" fill="none" fill-rule="evenodd">
        <g id="Pricing" transform="translate(-562.000000, -391.000000)" fill-rule="nonzero">
            <g id="icon-content" transform="translate(562.000000, 393.000000)">
                <path d="M7.00250734,26.8616284 L7.00250734,1.75800806 C7.00250734,0.241920529 8.24156628,-0.981122377 9.76379263,-0.981122185 L40.2380952,-1 C41.7609411,-1 43,0.223042906 43,1.73913043 L43,36.5217391 C43,38.9978267 40.9716077,41 38.4761905,41 L3.74324698,41 L7.00250734,26.8616284 Z" id="Path" stroke="#1D2A38" stroke-width="2" fill="#FFFFFF" stroke-linejoin="round"></path>
                <path d="M35,7 L29,7 C28.447,7 28,6.552 28,6 C28,5.448 28.447,5 29,5 L35,5 C35.553,5 36,5.448 36,6 C36,6.552 35.553,7 35,7 Z" id="Path" fill="#B3B3B3"></path>
                <path d="M35,13 L29,13 C28.447,13 28,12.552 28,12 C28,11.448 28.447,11 29,11 L35,11 C35.553,11 36,11.448 36,12 C36,12.552 35.553,13 35,13 Z" id="Path-Copy" fill="#B3B3B3"></path>
                <path d="M35,19 L29,19 C28.447,19 28,18.552 28,18 C28,17.448 28.447,17 29,17 L35,17 C35.553,17 36,17.448 36,18 C36,18.552 35.553,19 35,19 Z" id="Path" fill="#B3B3B3"></path>
                <path d="M35,26 L15,26 C14.447,26 14,25.552 14,25 C14,24.448 14.447,24 15,24 L35,24 C35.553,24 36,24.448 36,25 C36,25.552 35.553,26 35,26 Z" id="Path" fill="#B3B3B3"></path>
                <path d="M35,33 L15,33 C14.447,33 14,32.552 14,32 C14,31.448 14.447,31 15,31 L35,31 C35.553,31 36,31.448 36,32 C36,32.552 35.553,33 35,33 Z" id="Path" fill="#B3B3B3"></path>
                <path d="M23,19 L15,19 C14.447,19 14,18.3728 14,17.6 L14,6.4 C14,5.6272 14.447,5 15,5 L23,5 C23.553,5 24,5.6272 24,6.4 L24,17.6 C24,18.3728 23.553,19 23,19 Z" id="Path" fill="#FFD701"></path>
                <path d="M4,42 L4,42 C6.209,42 8,40.209 8,38 L8,25 L1,25 C0.448,25 0,25.448 0,26 L0,38 C0,40.209 1.791,42 4,42 Z" id="Path" fill="#1D2A38"></path>
            </g>
        </g>
    </g>
</svg>