<?xml version="1.0" encoding="UTF-8"?>
<svg width="42px" height="42px" viewBox="0 0 42 42" version="1.1" xmlns="http://www.w3.org/2000/svg" xmlns:xlink="http://www.w3.org/1999/xlink">
    <!-- Generator: Sketch 57.1 (83088) - https://sketch.com -->
    <title>Shape 2</title>
    <desc>Created with Sketch.</desc>
    <g id="Page-1" stroke="none" stroke-width="1" fill="none" fill-rule="evenodd">
        <g id="Products" transform="translate(-466.000000, -733.000000)" fill-rule="nonzero">
            <g id="Group-4" transform="translate(153.000000, 215.000000)">
                <g id="Group-2-Copy" transform="translate(293.000000, 483.000000)">
                    <g id="Shape-2" transform="translate(20.000000, 35.000000)">
                        <path d="M2.95671209,39.5564763 L9.60501245,37.4311823 L10.0048895,37.696081 C13.2470386,39.8438446 17.0304706,41 21.00525,41 C32.0307638,41 41,32.027667 41,21 C41,9.97233301 32.0307638,1 21.00525,1 L20.99475,1 C9.96831105,1 1,9.97063344 1,21 C1,25.2709353 2.3460604,29.3413652 4.80626588,32.7199789 L5.1101262,33.137272 L2.95671209,39.5564763 Z" id="Path" stroke="#1D2A38" stroke-width="2" fill="#FFFFFF"></path>
                        <path d="M31.8980518,28.9240107 C31.4604251,30.1597961 29.723523,31.1847044 28.3380828,31.4840139 C27.3902694,31.685821 26.1522165,31.8468133 21.9845586,30.1189812 C16.6536751,27.9104399 13.2206859,22.4933916 12.9531214,22.1419297 C12.6968943,21.7904678 10.799,19.273547 10.799,16.6704614 C10.799,14.0673758 12.1209503,12.7998455 12.6538119,12.2556464 C13.0914386,11.8089497 13.8147699,11.604875 14.5086237,11.604875 C14.7331058,11.604875 14.934913,11.6162125 15.1163127,11.6252825 C15.6491743,11.6479574 15.9167388,11.6797024 16.2682007,12.5209435 C16.7058275,13.5753292 17.7715507,16.1784148 17.8985305,16.4459793 C18.0277778,16.7135439 18.1570251,17.0763432 17.9756254,17.4278052 C17.8055631,17.7906045 17.6559084,17.9515968 17.3883439,18.2599762 C17.1207793,18.5683557 16.8668197,18.8041753 16.5992552,19.1352298 C16.3543656,19.4232018 16.0777311,19.7315813 16.3861105,20.2644429 C16.69449,20.785967 17.7602132,22.5251365 19.3293206,23.9219142 C21.3541946,25.7245736 22.9958619,26.3005176 23.5831434,26.5454072 C24.0207701,26.7268069 24.5422943,26.6837245 24.8620112,26.3436001 C25.267893,25.9059733 25.7690097,25.1803745 26.2791963,24.4661132 C26.6419957,23.9536591 27.1000299,23.8901692 27.5807391,24.0715689 C28.0705183,24.2416311 30.6622664,25.5227665 31.195128,25.7880635 C31.7279896,26.0556281 32.0794515,26.1826078 32.2086988,26.40709 C32.3356786,26.6315721 32.3356786,27.6859578 31.8980518,28.9240107 Z" id="Path" fill="#FFD701"></path>
                    </g>
                </g>
            </g>
        </g>
    </g>
</svg>