<?xml version="1.0" encoding="UTF-8"?>
<svg width="30px" height="30px" viewBox="0 0 30 30" version="1.1" xmlns="http://www.w3.org/2000/svg" xmlns:xlink="http://www.w3.org/1999/xlink">
    <!-- Generator: Sketch 57.1 (83088) - https://sketch.com -->
    <title>icon-bot</title>
    <desc>Created with Sketch.</desc>
    <g stroke="none" stroke-width="1" fill="none" fill-rule="evenodd">
        <g transform="translate(1.000000, 1.000000)">
            <circle stroke="#FFD701" stroke-width="1.5" cx="14" cy="14.5" r="9"></circle>
            <circle fill="#FFD701" cx="14" cy="16.5" r="2"></circle>
            <circle fill="#FFD701" cx="26" cy="19.5" r="2"></circle>
            <circle fill="#FFD701" cx="2" cy="19.5" r="2"></circle>
            <path d="M6,13.5 L8.40097713,13.5 C9.22940426,13.5 9.90097713,12.8284271 9.90097713,12 C9.90097713,11.1715729 10.57255,10.5 11.4009771,10.5 L16.484991,10.5 C17.3134181,10.5 17.984991,11.1715729 17.984991,12 C17.984991,12.8284271 18.6565639,13.5 19.484991,13.5 L22,13.5 L22,13.5" stroke="#FFD701" stroke-width="1.2" stroke-linecap="round" stroke-linejoin="round"></path>
            <path d="M12,3 L15.5,3" stroke="#FFD701" stroke-width="2" stroke-linecap="round" transform="translate(14.000000, 3.000000) rotate(-90.000000) translate(-14.000000, -3.000000) "></path>
            <ellipse fill="#FFD701" cx="14" cy="1.5" rx="7" ry="1"></ellipse>
        </g>
    </g>
</svg>