<?xml version="1.0" encoding="UTF-8"?>
<svg width="44px" height="44px" viewBox="0 0 44 44" version="1.1" xmlns="http://www.w3.org/2000/svg" xmlns:xlink="http://www.w3.org/1999/xlink">
    <!-- Generator: sketchtool 55.2 (78181) - https://sketchapp.com -->
    <title>15A1EB30-213E-4E55-94BE-A4557AD246A6</title>
    <desc>Created with sketchtool.</desc>
    <g id="Page-1" stroke="none" stroke-width="1" fill="none" fill-rule="evenodd">
        <g id="Pricing" transform="translate(-331.000000, -392.000000)" fill-rule="nonzero" stroke="#1D2A38" stroke-width="2">
            <g id="icon-speaker" transform="translate(332.000000, 393.000000)">
                <path d="M21.08464,41.56934 C20.76335,41.56934 20.43913,41.53516 20.11589,41.46582 C18.90202,41.2041 17.87077,40.48047 17.21257,39.42773 L9.15202,26.53027 C8.96745,26.23437 8.94987,25.86425 9.10514,25.55273 L12.10514,19.55273 C12.25651,19.25097 12.54948,19.04589 12.88444,19.00683 C13.21647,18.96386 13.55241,19.10058 13.76823,19.35937 L18.76823,25.35937 C18.79069,25.38671 18.81218,25.41601 18.83171,25.44531 L24.86101,34.48926 C25.53581,35.50098 25.77605,36.71485 25.53777,37.90723 C25.29851,39.09961 24.61004,40.12793 23.59832,40.80274 C22.8405,41.30762 21.97331,41.56934 21.08464,41.56934 Z" id="Path" fill="#F0F3F7"></path>
                <path d="M22,28 L9,28 C4.03711,28 0,23.96289 0,19 C0,14.03711 4.03711,10 9,10 L22,10 C22.55273,10 23,10.44727 23,11 L23,27 C23,27.55273 22.55273,28 22,28 Z" id="Path" fill="#FFD701"></path>
                <path d="M41,38 C40.83301,38 40.66504,37.95801 40.51465,37.87402 L22,28 L22,10 L40.51465,0.12598 C40.82227,-0.04687 41.20117,-0.04199 41.50684,0.1377 C41.81248,0.31738 42,0.64551 42,1 L42,37 C42,37.35449 41.81248,37.68262 41.50684,37.8623 C41.35059,37.9541 41.17578,38 41,38 Z" id="Path" fill="#E6E6E6"></path>
            </g>
        </g>
    </g>
</svg>