<?xml version="1.0" encoding="UTF-8"?>
<svg width="43px" height="43px" viewBox="0 0 43 43" version="1.1" xmlns="http://www.w3.org/2000/svg" xmlns:xlink="http://www.w3.org/1999/xlink">
    <!-- Generator: Sketch 57.1 (83088) - https://sketch.com -->
    <title>messaging</title>
    <desc>Created with Sketch.</desc>
    <g id="Page-1" stroke="none" stroke-width="1" fill="none" fill-rule="evenodd" stroke-linecap="round" stroke-linejoin="round">
        <g id="Products" transform="translate(-745.000000, -2174.000000)" stroke="#1D2A38" stroke-width="2">
            <g id="Group-18" transform="translate(200.000000, 1916.000000)">
                <g id="Group-16" transform="translate(546.000000, 259.000000)">
                    <g id="messaging">
                        <g id="Group-17" transform="translate(20.185345, 0.000000)">
                            <circle id="Oval" fill="#FFD701" cx="10.137931" cy="10.137931" r="6.75862069"></circle>
                            <path d="M10.137931,3.37931034 L10.137931,1.01918474e-13" id="Path"></path>
                            <path d="M14.9162759,5.35958621 L17.3071379,2.96872414" id="Path"></path>
                            <path d="M16.8965517,10.137931 L20.2758621,10.137931" id="Path"></path>
                            <path d="M14.9162759,14.9162759 L17.3071379,17.3071379" id="Path"></path>
                            <path d="M10.137931,16.8965517 L10.137931,20.2758621" id="Path"></path>
                            <path d="M5.35958621,14.9162759 L2.96872414,17.3071379" id="Path"></path>
                            <path d="M3.37931034,10.137931 L-1.24344979e-13,10.137931" id="Path"></path>
                            <path d="M5.35958621,5.35958621 L2.96872414,2.96872414" id="Path"></path>
                        </g>
                        <path d="M18.7982586,6.04335345 C8.39800862,6.13459483 0,12.8991293 0,21.2413793 C0,29.6393879 8.5107931,36.4482759 19.0086207,36.4482759 C20.6081375,36.4444002 22.2030495,36.2766712 23.7683793,35.9477155 L34.2155172,40.25 L33.5983707,30.983931 C36.3523496,28.4851264 37.9514665,24.9594566 38.0172414,21.2413793 L38.0172414,21.2249052" id="Path"></path>
                    </g>
                </g>
            </g>
        </g>
    </g>
</svg>