<?xml version="1.0" encoding="UTF-8"?>
<svg width="42px" height="42px" viewBox="0 0 42 42" version="1.1" xmlns="http://www.w3.org/2000/svg" xmlns:xlink="http://www.w3.org/1999/xlink">
    <!-- Generator: Sketch 57.1 (83088) - https://sketch.com -->
    <title>intro_trigger-outter</title>
    <desc>Created with Sketch.</desc>
    <g stroke="none" stroke-width="1" fill="none" fill-rule="evenodd">
        <path d="M21,0 C32.5979797,0 42,9.40202025 42,21 C42,32.5979797 32.5979797,42 21,42 C9.40202025,42 0,32.5979797 0,21 C0,9.40202025 9.40202025,0 21,0 Z M18.5090332,13.3040622 C16.9902501,13.3040622 15.7590332,14.5352791 15.7590332,16.0540622 L15.7590332,25.9459652 C15.7590332,26.4492749 15.8971608,26.9429322 16.1583675,27.3731551 C16.9465827,28.6713919 18.6379863,29.0848461 19.9362231,28.2966309 L28.0824962,23.3506793 C28.46001,23.1214745 28.7767671,22.8047174 29.005972,22.4272035 C29.7941872,21.1289667 29.380733,19.4375632 28.0824962,18.649348 L19.9362231,13.7033965 C19.5060003,13.4421898 19.0123429,13.3040622 18.5090332,13.3040622 Z" fill="#131313"></path>
    </g>
</svg>