<?xml version="1.0" encoding="UTF-8"?>
<svg width="596px" height="418px" viewBox="0 0 596 418" version="1.1" xmlns="http://www.w3.org/2000/svg" xmlns:xlink="http://www.w3.org/1999/xlink">
    <!-- Generator: Sketch 52.4 (67378) - http://www.bohemiancoding.com/sketch -->
    <title>Group 282</title>
    <desc>Created with Sketch.</desc>
    <defs>
        <polygon id="path-1" points="0.0340621721 0.168928764 422.779475 0.168928764 422.779475 314.475979 0.0340621721 314.475979"></polygon>
        <path d="M0.300325581,98.4954067 C0.300325581,152.868427 44.4870698,196.945902 98.9943721,196.945902 C153.502186,196.945902 197.68893,152.868427 197.68893,98.4954067 C197.68893,44.1228964 153.502186,0.0454222798 98.9943721,0.0454222798 C44.4870698,0.0454222798 0.300325581,44.1228964 0.300325581,98.4954067 Z" id="path-3"></path>
        <path d="M15.942,0.0985 C10.261,3.8725 5.0045,8.2315 0.2555,13.0915 L0.2555,17.616 L21.632,17.616 L21.632,0.0985" id="path-5"></path>
        <path d="M15.942,0.0985 C10.261,3.8725 5.0045,8.2315 0.2555,13.0915 L0.2555,17.616 L21.632,17.616 L21.632,0.0985" id="path-7"></path>
        <path d="M15.942,0.0985 C10.261,3.8725 5.0045,8.2315 0.2555,13.0915 L0.2555,17.616 L21.632,17.616 L21.632,0.0985" id="path-9"></path>
        <path d="M15.942,0.0985 C10.261,3.8725 5.0045,8.2315 0.2555,13.0915 L0.2555,17.616 L21.632,17.616 L21.632,0.0985" id="path-11"></path>
        <path d="M15.942,0.0985 C10.261,3.8725 5.0045,8.2315 0.2555,13.0915 L0.2555,17.616 L21.632,17.616 L21.632,0.0985" id="path-13"></path>
        <path d="M15.942,0.0985 C10.261,3.8725 5.0045,8.2315 0.2555,13.0915 L0.2555,17.616 L21.632,17.616 L21.632,0.0985" id="path-15"></path>
        <path d="M15.942,0.0985 C10.261,3.8725 5.0045,8.2315 0.2555,13.0915 L0.2555,17.616 L21.632,17.616 L21.632,0.0985" id="path-17"></path>
        <path d="M15.942,0.0985 C10.261,3.8725 5.0045,8.2315 0.2555,13.0915 L0.2555,17.616 L21.632,17.616 L21.632,0.0985" id="path-19"></path>
        <path d="M15.942,0.0985 C10.261,3.8725 5.0045,8.2315 0.2555,13.0915 L0.2555,17.616 L21.632,17.616 L21.632,0.0985" id="path-21"></path>
        <path d="M15.942,0.0985 C10.261,3.8725 5.0045,8.2315 0.2555,13.0915 L0.2555,17.616 L21.632,17.616 L21.632,0.0985" id="path-23"></path>
        <path d="M15.942,0.0985 C10.261,3.8725 5.0045,8.2315 0.2555,13.0915 L0.2555,17.616 L21.632,17.616 L21.632,0.0985" id="path-25"></path>
        <path d="M15.942,0.0985 C10.261,3.8725 5.0045,8.2315 0.2555,13.0915 L0.2555,17.616 L21.632,17.616 L21.632,0.0985" id="path-27"></path>
        <path d="M15.942,0.0985 C10.261,3.8725 5.0045,8.2315 0.2555,13.0915 L0.2555,17.616 L21.632,17.616 L21.632,0.0985" id="path-29"></path>
        <path d="M15.942,0.0985 C10.261,3.8725 5.0045,8.2315 0.2555,13.0915 L0.2555,17.616 L21.632,17.616 L21.632,0.0985" id="path-31"></path>
    </defs>
    <g id="Page-1" stroke="none" stroke-width="1" fill="none" fill-rule="evenodd">
        <g id="Products" transform="translate(-844.000000, -282.000000)">
            <g id="Group-21">
                <g id="Group-282" transform="translate(846.000000, 284.000000)">
                    <g id="Group-72">
                        <path d="M402.131313,354.42245 C402.131313,354.42245 435.71396,367.95513 538.699175,454.344656 C606.481365,373.346658 596.475666,377.485898 596.475666,377.485898 C596.475666,377.485898 487.528294,320.952194 453.239892,297.22457 C421.696891,271.427835 373.189702,308.709071 402.131313,354.42245" id="Fill-1" fill="#FFCDAC"></path>
                        <path d="M280.419053,282.777663 C283.688409,284.341365 297.795357,285.267946 305.516286,285.668188 C308.561454,285.827468 310.612845,285.902514 310.612845,285.902514 L309.766142,283.94878 C309.755928,283.924786 309.748779,283.904876 309.737033,283.888029 L305.967214,275.175103 L288.83195,271.677068 L271.351978,268.108582 L270.407736,267.917139 C270.407736,267.917139 270.69678,268.592548 271.197243,269.656457 C271.806992,270.937334 272.719061,272.785902 273.805783,274.701858 C275.721844,278.095748 278.178201,281.706096 280.419053,282.777663" id="Fill-3" fill="#FFF2DF"></path>
                        <path d="M280.419053,282.777663 C283.688409,284.341365 297.795357,285.267946 305.516286,285.668188 C308.561454,285.827468 310.612845,285.902514 310.612845,285.902514 L309.766142,283.94878 C309.755928,283.924786 309.748779,283.904876 309.737033,283.888029 L305.967214,275.175103 L288.83195,271.677068 L271.351978,268.108582 L270.407736,267.917139 C270.407736,267.917139 270.69678,268.592548 271.197243,269.656457 C271.806992,270.937334 272.719061,272.785902 273.805783,274.701858 C275.721844,278.095748 278.178201,281.706096 280.419053,282.777663 Z" id="Stroke-5" stroke="#2D4256" stroke-width="3.094"></path>
                        <path d="M261.360936,266.326074 C265.287022,270.780301 296.860664,276.988139 296.860664,276.988139 L299.170968,269.878735 L286.382078,253.184958 C286.382078,253.184958 285.740667,252.690782 284.625348,251.923991 C282.938581,250.757469 280.164582,248.958421 276.912079,247.309974 C268.611021,243.097731 257.207087,239.851379 252.781558,250.501702 C252.781558,250.501702 253.524083,252.328317 254.655233,254.86863 C255.312474,256.339418 256.095853,258.05219 256.950216,259.778745 C258.664049,263.284948 259.687957,264.428497 261.360936,266.326074" id="Fill-7" fill="#FFF2DF"></path>
                        <path d="M261.360936,266.326074 C265.287022,270.780301 296.860664,276.988139 296.860664,276.988139 L299.170968,269.878735 L286.382078,253.184958 C286.382078,253.184958 285.740667,252.690782 284.625348,251.923991 C282.938581,250.757469 280.164582,248.958421 276.912079,247.309974 C268.611021,243.097731 257.207087,239.851379 252.781558,250.501702 C252.781558,250.501702 253.524083,252.328317 254.655233,254.86863 C255.312474,256.339418 256.095853,258.05219 256.950216,259.778745 C258.664049,263.284948 259.687957,264.428497 261.360936,266.326074 Z" id="Stroke-9" stroke="#2D4256" stroke-width="3.094"></path>
                        <path d="M449.165453,391.913762 C449.165453,391.913762 509.960047,336.066188 488.703107,318.453999 C488.703107,318.453999 415.042,270.635774 398.175863,242.444734 C384.046956,218.82738 361.936674,184.824659 355.785566,179.328986 C349.629352,173.824124 345.647091,168.236559 323.771721,173.270728 C306.08135,177.349727 269.243137,183.915435 251.433779,190.074265 C247.216606,191.535863 244.069302,192.971426 242.496416,194.344706 C234.260214,201.518435 245.588056,230.591132 245.588056,230.591132 C245.588056,230.591132 245.616654,232.020058 245.808669,234.189738 C245.861779,234.792144 245.921018,235.447132 246.007833,236.144493 C246.504211,240.496616 247.591954,246.487997 249.961496,250.662973 C249.961496,250.662973 257.967383,253.987944 264.772668,257.110752 C268.234549,258.705085 271.746477,259.740405 274.369826,260.371399 C276.890528,260.983504 278.580359,261.219872 278.580359,261.219872 L375.03146,344.143525 L388.247276,352.540954 L388.292215,352.55627 L413.980813,362.991156 L449.165453,391.913762 Z" id="Fill-11" fill="#FFF2DF"></path>
                        <path d="M449.165453,391.913762 C449.165453,391.913762 509.960047,336.066188 488.703107,318.453999 C488.703107,318.453999 415.042,270.635774 398.175863,242.444734 C384.046956,218.82738 361.936674,184.824659 355.785566,179.328986 C349.629352,173.824124 345.647091,168.236559 323.771721,173.270728 C306.08135,177.349727 269.243137,183.915435 251.433779,190.074265 C247.216606,191.535863 244.069302,192.971426 242.496416,194.344706 C234.260214,201.518435 245.588056,230.591132 245.588056,230.591132 C245.588056,230.591132 245.616654,232.020058 245.808669,234.189738 C245.861779,234.792144 245.921018,235.447132 246.007833,236.144493 C246.504211,240.496616 247.591954,246.487997 249.961496,250.662973 C249.961496,250.662973 257.967383,253.987944 264.772668,257.110752 C268.234549,258.705085 271.746477,259.740405 274.369826,260.371399 C276.890528,260.983504 278.580359,261.219872 278.580359,261.219872 L375.03146,344.143525 L388.247276,352.540954 L388.292215,352.55627 L413.980813,362.991156 L449.165453,391.913762 Z" id="Stroke-13" stroke="#2D4256" stroke-width="3.094"></path>
                        <path d="M377.415301,335.42432 C376.797892,334.943417 376.38935,334.630983 376.38935,334.630983 L376.384754,334.63762 C376.726908,334.892366 377.071104,335.158343 377.415301,335.42432" id="Fill-15" fill="#493E65"></path>
                        <path d="M283.466162,214.724846 C283.466162,214.724846 293.516801,223.468913 303.096595,208.914697" id="Stroke-17" stroke="#2D4256" stroke-width="3.094" stroke-linecap="round"></path>
                        <path d="M299.414867,219.634552 C299.414867,219.634552 308.883845,231.471818 326.113584,210.146667" id="Stroke-19" stroke="#2D4256" stroke-width="3.094" stroke-linecap="round"></path>
                        <path d="M322.715998,220.066293 C322.715998,220.066293 314.358254,232.524343 336.520114,230.399077" id="Stroke-21" stroke="#2D4256" stroke-width="3.094" stroke-linecap="round"></path>
                        <path d="M330.783626,234.143792 C330.783626,234.143792 331.400524,251.16787 353.948967,263.084266" id="Stroke-23" stroke="#2D4256" stroke-width="3.094" stroke-linecap="round"></path>
                        <g id="Group-27" transform="translate(414.159243, 292.523970)">
                            <mask id="mask-2" fill="white">
                                <use xlink:href="#path-1"></use>
                            </mask>
                            <g id="Clip-26"></g>
                            <path d="M422.779833,179.120084 C350.09463,143.567957 90.1348907,7.4544603 59.0453709,0.168928764 C38.3062574,10.9861895 8.40916894,57.7348892 0.0340621721,82.9766958 C25.1920658,102.118382 345.601692,314.475979 345.601692,314.475979 L422.779833,179.120084 Z" id="Fill-25" fill="#F96C5D" mask="url(#mask-2)"></path>
                        </g>
                        <path d="M481.073844,321.524275 C481.073844,321.524275 445.02667,367.319337 439.227419,387.132348" id="Stroke-28" stroke="#2D4256" stroke-width="3.094" stroke-linecap="round"></path>
                        <polygon id="Fill-30" fill="#F1EFF1" points="350.931937 278.023 340.653025 291.759885 181.560212 172.796053 191.839123 159.059168"></polygon>
                        <polygon id="Stroke-32" stroke="#2E4257" stroke-width="3.094" stroke-linecap="round" stroke-linejoin="round" points="350.931937 278.023 340.653025 291.759885 181.560212 172.796053 191.839123 159.059168"></polygon>
                        <polygon id="Fill-34" fill="#2D4256" points="345.792736 284.891494 340.65328 291.759936 181.559956 172.796104 186.699923 165.927662"></polygon>
                        <polygon id="Stroke-36" stroke="#2E4257" stroke-width="3.094" points="345.792736 284.891494 340.65328 291.759936 181.559956 172.796104 186.699923 165.927662"></polygon>
                        <polygon id="Fill-38" fill="#F1EFF1" points="200.299105 159.138502 184.026374 180.886868 174.747369 173.947975 191.020099 152.200119"></polygon>
                        <polygon id="Stroke-40" stroke="#2E4257" stroke-width="3.094" stroke-linecap="round" stroke-linejoin="round" points="200.299105 159.138502 184.026374 180.886868 174.747369 173.947975 191.020099 152.200119"></polygon>
                        <polygon id="Fill-42" fill="#2D4256" points="190.440123 172.314639 184.026017 180.886664 174.747522 173.948281 181.161118 165.376257"></polygon>
                        <polygon id="Stroke-44" stroke="#2E4257" stroke-width="3.094" points="190.440123 172.314639 184.026017 180.886664 174.747522 173.948281 181.161118 165.376257"></polygon>
                        <polygon id="Fill-46" fill="#F1EFF1" points="347.286365 269.050121 331.013124 290.798487 203.089496 195.141617 219.362226 173.393251"></polygon>
                        <polygon id="Stroke-48" stroke="#2E4257" stroke-width="3.094" stroke-linecap="round" stroke-linejoin="round" points="347.286365 269.050121 331.013124 290.798487 203.089496 195.141617 219.362226 173.393251"></polygon>
                        <polygon id="Fill-50" fill="#2D4256" points="337.427383 282.226258 331.012767 290.798283 203.089139 195.141413 209.503245 186.569388"></polygon>
                        <polygon id="Stroke-52" stroke="#2E4257" stroke-width="3.094" points="337.427383 282.226258 331.012767 290.798283 203.089139 195.141413 209.503245 186.569388"></polygon>
                        <path d="M192.991518,146.690765 C169.574923,195.668364 110.866957,216.40132 61.8608367,192.983066 C52.1799282,188.357818 43.6087214,182.353674 36.2559904,175.316252 C6.39924545,146.757131 -3.23468072,101.205074 15.5597738,61.8991441 C38.9809642,12.9154183 97.6894413,-7.81753717 146.688923,15.5956117 C152.940123,18.5938548 158.73631,22.148557 164.039693,26.2030516 C200.255391,53.8458009 213.420139,103.961334 192.991518,146.690765 M149.098298,10.5425537 C97.3100081,-14.2071183 35.2545523,7.70256964 10.5030478,59.4793123 C-14.2607131,111.246866 7.65602215,173.282368 59.4397159,198.038166 C111.239751,222.785796 173.295207,200.876618 198.052329,149.104981 C222.80894,97.3210911 200.892205,35.2860995 149.098298,10.5425537" id="Fill-54" fill="#F1EFF1"></path>
                        <path d="M192.991518,146.690765 C169.574923,195.668364 110.866957,216.40132 61.8608367,192.983066 C52.1799282,188.357818 43.6087214,182.353674 36.2559904,175.316252 C6.39924545,146.757131 -3.23468072,101.205074 15.5597738,61.8991441 C38.9809642,12.9154183 97.6894413,-7.81753717 146.688923,15.5956117 C152.940123,18.5938548 158.73631,22.148557 164.039693,26.2030516 C200.255391,53.8458009 213.420139,103.961334 192.991518,146.690765 Z M149.098298,10.5425537 C97.3100081,-14.2071183 35.2545523,7.70256964 10.5030478,59.4793123 C-14.2607131,111.246866 7.65602215,173.282368 59.4397159,198.038166 C111.239751,222.785796 173.295207,200.876618 198.052329,149.104981 C222.80894,97.3210911 200.892205,35.2860995 149.098298,10.5425537 Z" id="Stroke-56" stroke="#2E4257" stroke-width="3.094" stroke-linecap="round" stroke-linejoin="round"></path>
                        <polygon id="Fill-58" fill="#F1EFF1" points="361.184855 274.21008 339.890635 302.66914 205.218407 201.965849 226.512627 173.5073"></polygon>
                        <polygon id="Stroke-60" stroke="#2E4257" stroke-width="3.094" stroke-linecap="round" stroke-linejoin="round" points="361.184855 274.21008 339.890635 302.66914 205.218407 201.965849 226.512627 173.5073"></polygon>
                        <polygon id="Fill-62" fill="#2D4256" points="346.49793 293.838439 339.890788 302.669293 205.218561 201.966002 211.825703 193.135148"></polygon>
                        <polygon id="Stroke-64" stroke="#2E4257" stroke-width="3.094" points="346.49793 293.838439 339.890788 302.669293 205.218561 201.966002 211.825703 193.135148"></polygon>
                        <g id="Group-69" transform="translate(212.441733, 184.805719)">
                            <path d="M165.485267,88.4247378 C123.261451,71.5456452 117.708347,65.4577773 104.940394,57.5805611 C92.1683564,49.6936452 66.9214949,25.7490523 58.828282,18.901541 C54.0534498,14.8618513 46.9514614,8.1179741 38.9920459,5.26829033 C29.7043589,1.9305561 18.5920221,-1.91973322 10.6954199,1.14079243 C7.06807944,2.54623482 2.62467675,5.00946022 0.654483954,13.0250254 C-1.0767119,20.0690843 10.1418458,31.8828664 17.6110111,39.4068076 C19.5582234,41.3758563 22.5574309,43.6884804 26.0356536,46.1644686 C28.3852796,47.8369093 30.9519434,49.5838849 33.5661002,51.3385183 C41.8722655,56.9291465 50.6135279,62.6172828 54.1024748,66.4497041 C55.9592973,68.4881827 58.7220611,71.6880784 61.9280929,75.5659354 C69.4171746,84.6158 79.2946938,97.3224695 85.5607036,107.406633 C94.5006194,121.803612 110.908679,143.724531 175.805543,167.73498 L175.850483,167.750806" id="Fill-66" fill="#FFF2DF"></path>
                            <path d="M165.485267,88.4247378 C123.261451,71.5456452 117.708347,65.4577773 104.940394,57.5805611 C92.1683564,49.6936452 66.9214949,25.7490523 58.828282,18.901541 C54.0534498,14.8618513 46.9514614,8.1179741 38.9920459,5.26829033 C29.7043589,1.9305561 18.5920221,-1.91973322 10.6954199,1.14079243 C7.06807944,2.54623482 2.62467675,5.00946022 0.654483954,13.0250254 C-1.0767119,20.0690843 10.1418458,31.8828664 17.6110111,39.4068076 C19.5582234,41.3758563 22.5574309,43.6884804 26.0356536,46.1644686 C28.3852796,47.8369093 30.9519434,49.5838849 33.5661002,51.3385183 C41.8722655,56.9291465 50.6135279,62.6172828 54.1024748,66.4497041 C55.9592973,68.4881827 58.7220611,71.6880784 61.9280929,75.5659354 C69.4171746,84.6158 79.2946938,97.3224695 85.5607036,107.406633 C94.5006194,121.803612 110.908679,143.724531 175.805543,167.73498 L175.850483,167.750806" id="Stroke-68" stroke="#2D4256" stroke-width="3.094"></path>
                        </g>
                        <path d="M220.80249,209.02895 C220.80249,209.02895 231.287204,219.866121 236.565053,216.037784 C241.843413,212.208936 248.844798,203.349493 246.849072,199.424668 C244.853345,195.499334 234.468213,189.857143 234.468213,189.857143" id="Stroke-70" stroke="#2D4256" stroke-width="3.094" stroke-linecap="round"></path>
                    </g>
                    <g id="Group-224" transform="translate(6.000000, 5.000000)">
                        <mask id="mask-4" fill="white">
                            <use xlink:href="#path-3"></use>
                        </mask>
                        <g id="Clip-74"></g>
                        <polygon id="Fill-73" fill="#FFFFFF" mask="url(#mask-4)" points="-28.6511628 263.000104 215.074047 263.000104 215.074047 -27.4013731 -28.6511628 -27.4013731"></polygon>
                        <polygon id="Fill-75" fill="#FFD701" mask="url(#mask-4)" points="17.7586047 217.766658 172.391488 217.766658 172.391488 5.77577461 17.7586047 5.77577461"></polygon>
                        <polygon id="Stroke-76" stroke="#2D4256" stroke-width="2.011" mask="url(#mask-4)" points="17.7586047 217.766658 172.391488 217.766658 172.391488 5.77577461 17.7586047 5.77577461"></polygon>
                        <polygon id="Fill-77" fill="#9B275D" mask="url(#mask-4)" points="162.954409 234.213402 152.831851 228.003309 142.600828 234.033754 142.963572 205.56113 163.317153 205.740778"></polygon>
                        <polygon id="Stroke-78" stroke="#2D4256" stroke-width="2.011" mask="url(#mask-4)" points="162.954409 234.213402 152.831851 228.003309 142.600828 234.033754 142.963572 205.56113 163.317153 205.740778"></polygon>
                        <polygon id="Fill-79" fill="#FFFFFF" mask="url(#mask-4)" points="152.959144 188.689917 155.685609 191.016151 159.184121 190.220495 160.515377 193.544487 163.983191 194.462119 163.613284 198.021389 166.256353 200.441529 164.270214 203.422047 165.483284 206.790441 162.336772 208.509342 161.841516 212.053811 158.254493 212.116586 156.165005 215.026674 152.959144 213.419031 149.753284 215.026674 147.663284 212.116586 144.07626 212.053811 143.581516 208.509342 140.434493 206.790441 141.647563 203.422047 139.661423 200.441529 142.305005 198.021389 141.934586 194.462119 145.4024 193.544487 146.733656 190.220495 150.232167 191.016151"></polygon>
                        <polygon id="Stroke-80" stroke="#2D4256" stroke-width="2.011" mask="url(#mask-4)" points="152.959144 188.689917 155.685609 191.016151 159.184121 190.220495 160.515377 193.544487 163.983191 194.462119 163.613284 198.021389 166.256353 200.441529 164.270214 203.422047 165.483284 206.790441 162.336772 208.509342 161.841516 212.053811 158.254493 212.116586 156.165005 215.026674 152.959144 213.419031 149.753284 215.026674 147.663284 212.116586 144.07626 212.053811 143.581516 208.509342 140.434493 206.790441 141.647563 203.422047 139.661423 200.441529 142.305005 198.021389 141.934586 194.462119 145.4024 193.544487 146.733656 190.220495 150.232167 191.016151"></polygon>
                        <polygon id="Stroke-81" stroke="#FFFFFF" stroke-width="2.011" mask="url(#mask-4)" points="34.544093 161.031679 64.3131628 161.031679 64.3131628 150.102262 34.544093 150.102262"></polygon>
                        <path d="M45.4903209,138.111954 C45.4903209,136.153182 45.5332977,133.629438 45.5880419,132.14071 L45.4903209,132.14071 C44.9653907,134.82879 44.1191581,138.550866 43.200786,142.20149 L40.252786,142.20149 C39.5308791,138.661614 38.7061349,134.931373 38.216507,132.142752 L38.1059953,132.142752 C38.2093442,133.616679 38.2763674,136.063358 38.2763674,138.210964 L38.2763674,142.20149 L34.9988791,142.20149 L34.9988791,129.667492 L40.2993442,129.667492 C40.918414,132.203485 41.6428791,135.880648 41.924786,137.733265 L41.9877163,137.733265 C42.3105535,135.717842 43.1486,132.391809 43.8797163,129.667492 L49.0287395,129.667492 L49.0287395,142.20149 L45.4903209,142.20149 L45.4903209,138.111954 Z" id="Fill-82" fill="#2D4256" mask="url(#mask-4)"></path>
                        <polygon id="Fill-83" fill="#2D4256" mask="url(#mask-4)" points="62.7187767 137.129352 56.9951953 137.129352 56.9951953 139.479573 63.383893 139.479573 62.9730558 142.201337 53.4516605 142.201337 53.4516605 129.667339 62.9618 129.667339 62.9618 132.389614 56.9951953 132.389614 56.9951953 134.407588 62.7187767 134.407588"></polygon>
                        <polygon id="Fill-84" fill="#2D4256" mask="url(#mask-4)" points="66.8747814 129.667544 70.5677116 129.667544 70.5677116 139.479777 76.4898047 139.479777 76.0907349 142.201541 66.8747814 142.201541"></polygon>
                        <path d="M86.7843209,137.041876 C86.194414,135.072897 85.7109256,133.321332 85.4264605,132.099013 L85.3763209,132.099013 C85.0852047,133.449944 84.604786,135.238254 84.0952047,137.041876 L86.7843209,137.041876 Z M83.4873907,139.76364 L82.7598558,142.201643 L79.1728326,142.201643 L83.1440884,129.667646 L87.910414,129.667646 L92.0382279,142.201643 L88.1933442,142.201643 L87.430507,139.76364 L83.4873907,139.76364 Z" id="Fill-85" fill="#2D4256" mask="url(#mask-4)"></path>
                        <path d="M95.176707,142.201592 L95.176707,129.667595 L99.5823349,129.667595 C100.904381,132.490411 102.818893,136.304351 103.346893,137.848198 L103.4088,137.848198 C103.269126,136.546773 103.237405,134.33282 103.237405,132.33424 L103.237405,129.667595 L106.59266,129.667595 L106.59266,142.201592 L102.394753,142.201592 C101.329544,139.932519 99.0558698,135.229017 98.4659628,133.575442 L98.4163349,133.575442 C98.5334977,134.75438 98.5442419,137.180133 98.5442419,139.386942 L98.5442419,142.201592 L95.176707,142.201592 Z" id="Fill-86" fill="#2D4256" mask="url(#mask-4)"></path>
                        <polygon id="Fill-87" fill="#2D4256" mask="url(#mask-4)" points="111.016093 142.201337 114.708512 142.201337 114.708512 129.667339 111.016093 129.667339"></polygon>
                        <polygon id="Fill-88" fill="#2D4256" mask="url(#mask-4)" points="128.398037 137.129352 122.674456 137.129352 122.674456 139.479573 129.063665 139.479573 128.652828 142.201337 119.131433 142.201337 119.131433 129.667339 128.64106 129.667339 128.64106 132.389614 122.674456 132.389614 122.674456 134.407588 128.398037 134.407588"></polygon>
                        <path d="M37.282786,170.70688 L35.1462279,171.937364 C34.7742744,172.151716 34.5440419,172.548268 34.5440419,172.976973 L34.5440419,175.437942 C34.5440419,175.866646 34.7742744,176.263198 35.1462279,176.478061 L37.282786,177.708035 C37.6552512,177.922387 38.1141814,177.922387 38.4866465,177.708035 L40.622693,176.478061 C40.9951581,176.263198 41.2243674,175.866646 41.2243674,175.437942 L41.2243674,172.976973 C41.2243674,172.548268 40.9951581,172.151716 40.622693,171.937364 L38.4866465,170.70688 C38.1141814,170.492527 37.6552512,170.492527 37.282786,170.70688" id="Fill-89" fill="#F7EFE3" mask="url(#mask-4)"></path>
                        <path d="M37.282786,170.70688 L35.1462279,171.937364 C34.7742744,172.151716 34.5440419,172.548268 34.5440419,172.976973 L34.5440419,175.437942 C34.5440419,175.866646 34.7742744,176.263198 35.1462279,176.478061 L37.282786,177.708035 C37.6552512,177.922387 38.1141814,177.922387 38.4866465,177.708035 L40.622693,176.478061 C40.9951581,176.263198 41.2243674,175.866646 41.2243674,175.437942 L41.2243674,172.976973 C41.2243674,172.548268 40.9951581,172.151716 40.622693,171.937364 L38.4866465,170.70688 C38.1141814,170.492527 37.6552512,170.492527 37.282786,170.70688 Z" id="Stroke-90" stroke="#F6CB52" stroke-width="2.011" mask="url(#mask-4)"></path>
                        <path d="M42.4835349,172.513104 C42.4835349,173.261296 41.8757209,173.867607 41.1256744,173.867607 C40.3756279,173.867607 39.7673023,173.261296 39.7673023,172.513104 C39.7673023,171.764912 40.3756279,171.158602 41.1256744,171.158602 C41.8757209,171.158602 42.4835349,171.764912 42.4835349,172.513104" id="Fill-91" fill="#F7EFE3" mask="url(#mask-4)"></path>
                        <path d="M42.4835349,172.513104 C42.4835349,173.261296 41.8757209,173.867607 41.1256744,173.867607 C40.3756279,173.867607 39.7673023,173.261296 39.7673023,172.513104 C39.7673023,171.764912 40.3756279,171.158602 41.1256744,171.158602 C41.8757209,171.158602 42.4835349,171.764912 42.4835349,172.513104 Z" id="Stroke-92" stroke="#FFFFFF" stroke-width="2.165" mask="url(#mask-4)"></path>
                        <path d="M37.282786,183.868674 L35.1462279,185.099159 C34.7742744,185.313511 34.5440419,185.709552 34.5440419,186.138767 L34.5440419,188.599226 C34.5440419,189.028441 34.7742744,189.424993 35.1462279,189.639345 L37.282786,190.869319 C37.6552512,191.084182 38.1141814,191.084182 38.4866465,190.869319 L40.622693,189.639345 C40.9951581,189.424993 41.2243674,189.028441 41.2243674,188.599226 L41.2243674,186.138767 C41.2243674,185.709552 40.9951581,185.313511 40.622693,185.099159 L38.4866465,183.868674 C38.1141814,183.654322 37.6552512,183.654322 37.282786,183.868674" id="Fill-93" fill="#F7EFE3" mask="url(#mask-4)"></path>
                        <path d="M37.282786,183.868674 L35.1462279,185.099159 C34.7742744,185.313511 34.5440419,185.709552 34.5440419,186.138767 L34.5440419,188.599226 C34.5440419,189.028441 34.7742744,189.424993 35.1462279,189.639345 L37.282786,190.869319 C37.6552512,191.084182 38.1141814,191.084182 38.4866465,190.869319 L40.622693,189.639345 C40.9951581,189.424993 41.2243674,189.028441 41.2243674,188.599226 L41.2243674,186.138767 C41.2243674,185.709552 40.9951581,185.313511 40.622693,185.099159 L38.4866465,183.868674 C38.1141814,183.654322 37.6552512,183.654322 37.282786,183.868674 Z" id="Stroke-94" stroke="#F6CB52" stroke-width="2.011" mask="url(#mask-4)"></path>
                        <path d="M42.4835349,185.674592 C42.4835349,186.422784 41.8757209,187.029095 41.1256744,187.029095 C40.3756279,187.029095 39.7673023,186.422784 39.7673023,185.674592 C39.7673023,184.926401 40.3756279,184.32009 41.1256744,184.32009 C41.8757209,184.32009 42.4835349,184.926401 42.4835349,185.674592" id="Fill-95" fill="#F7EFE3" mask="url(#mask-4)"></path>
                        <path d="M42.4835349,185.674592 C42.4835349,186.422784 41.8757209,187.029095 41.1256744,187.029095 C40.3756279,187.029095 39.7673023,186.422784 39.7673023,185.674592 C39.7673023,184.926401 40.3756279,184.32009 41.1256744,184.32009 C41.8757209,184.32009 42.4835349,184.926401 42.4835349,185.674592 Z" id="Stroke-96" stroke="#FFFFFF" stroke-width="2.165" mask="url(#mask-4)"></path>
                        <path d="M37.282786,197.030162 L35.1462279,198.260647 C34.7742744,198.474999 34.5440419,198.871041 34.5440419,199.300256 L34.5440419,201.761225 C34.5440419,202.189929 34.7742744,202.586481 35.1462279,202.801344 L37.282786,204.031318 C37.6552512,204.24567 38.1141814,204.24567 38.4866465,204.031318 L40.622693,202.801344 C40.9951581,202.586481 41.2243674,202.189929 41.2243674,201.761225 L41.2243674,199.300256 C41.2243674,198.871041 40.9951581,198.474999 40.622693,198.260647 L38.4866465,197.030162 C38.1141814,196.81581 37.6552512,196.81581 37.282786,197.030162" id="Fill-97" fill="#F7EFE3" mask="url(#mask-4)"></path>
                        <path d="M37.282786,197.030162 L35.1462279,198.260647 C34.7742744,198.474999 34.5440419,198.871041 34.5440419,199.300256 L34.5440419,201.761225 C34.5440419,202.189929 34.7742744,202.586481 35.1462279,202.801344 L37.282786,204.031318 C37.6552512,204.24567 38.1141814,204.24567 38.4866465,204.031318 L40.622693,202.801344 C40.9951581,202.586481 41.2243674,202.189929 41.2243674,201.761225 L41.2243674,199.300256 C41.2243674,198.871041 40.9951581,198.474999 40.622693,198.260647 L38.4866465,197.030162 C38.1141814,196.81581 37.6552512,196.81581 37.282786,197.030162 Z" id="Stroke-98" stroke="#F6CB52" stroke-width="2.011" mask="url(#mask-4)"></path>
                        <path d="M42.4835349,198.836387 C42.4835349,199.584579 41.8757209,200.19089 41.1256744,200.19089 C40.3756279,200.19089 39.7673023,199.584579 39.7673023,198.836387 C39.7673023,198.088195 40.3756279,197.481884 41.1256744,197.481884 C41.8757209,197.481884 42.4835349,198.088195 42.4835349,198.836387" id="Fill-99" fill="#F7EFE3" mask="url(#mask-4)"></path>
                        <path d="M42.4835349,198.836387 C42.4835349,199.584579 41.8757209,200.19089 41.1256744,200.19089 C40.3756279,200.19089 39.7673023,199.584579 39.7673023,198.836387 C39.7673023,198.088195 40.3756279,197.481884 41.1256744,197.481884 C41.8757209,197.481884 42.4835349,198.088195 42.4835349,198.836387 Z" id="Stroke-100" stroke="#FFFFFF" stroke-width="2.165" mask="url(#mask-4)"></path>
                        <g id="Group-103" mask="url(#mask-4)">
                            <g transform="translate(68.046512, 171.992228)">
                                <path d="M0.17727907,0.520876166 L8.29118605,0.520876166" id="Fill-101" stroke="none" fill="#020202" fill-rule="evenodd"></path>
                                <path d="M0.17727907,0.520876166 L8.29118605,0.520876166" id="Stroke-102" stroke="#6B8599" stroke-width="2.165" fill="none"></path>
                            </g>
                        </g>
                        <g id="Group-106" mask="url(#mask-4)">
                            <g transform="translate(49.116279, 171.992228)">
                                <path d="M0.312706977,0.520876166 L15.8518698,0.520876166" id="Fill-104" stroke="none" fill="#020202" fill-rule="evenodd"></path>
                                <path d="M0.312706977,0.520876166 L15.8518698,0.520876166" id="Stroke-105" stroke="#6B8599" stroke-width="2.165" fill="none"></path>
                            </g>
                        </g>
                        <g id="Group-109" mask="url(#mask-4)">
                            <g transform="translate(49.116279, 175.054404)">
                                <path d="M0.312706977,0.721959067 L27.2217767,0.721959067" id="Fill-107" stroke="none" fill="#020202" fill-rule="evenodd"></path>
                                <path d="M0.312706977,0.721959067 L27.2217767,0.721959067" id="Stroke-108" stroke="#6B8599" stroke-width="2.165" fill="none"></path>
                            </g>
                        </g>
                        <g id="Group-112" mask="url(#mask-4)">
                            <g transform="translate(70.093023, 185.261658)">
                                <path d="M0.327186047,0.475760104 L6.1674186,0.475760104" id="Fill-110" stroke="none" fill="#020202" fill-rule="evenodd"></path>
                                <path d="M0.327186047,0.475760104 L6.1674186,0.475760104" id="Stroke-111" stroke="#6B8599" stroke-width="2.165" fill="none"></path>
                            </g>
                        </g>
                        <g id="Group-115" mask="url(#mask-4)">
                            <g transform="translate(49.116279, 185.261658)">
                                <path d="M0.312706977,0.475760104 L17.814986,0.475760104" id="Fill-113" stroke="none" fill="#020202" fill-rule="evenodd"></path>
                                <path d="M0.312706977,0.475760104 L17.814986,0.475760104" id="Stroke-114" stroke="#6B8599" stroke-width="2.165" fill="none"></path>
                            </g>
                        </g>
                        <g id="Group-118" mask="url(#mask-4)">
                            <g transform="translate(73.162791, 188.323834)">
                                <path d="M0.177790698,0.677098187 L3.17490698,0.677098187" id="Fill-116" stroke="none" fill="#020202" fill-rule="evenodd"></path>
                                <path d="M0.177790698,0.677098187 L3.17490698,0.677098187" id="Stroke-117" stroke="#6B8599" stroke-width="2.165" fill="none"></path>
                            </g>
                        </g>
                        <g id="Group-121" mask="url(#mask-4)">
                            <g transform="translate(49.116279, 188.323834)">
                                <path d="M0.312706977,0.677098187 L21.2608,0.677098187" id="Fill-119" stroke="none" fill="#020202" fill-rule="evenodd"></path>
                                <path d="M0.312706977,0.677098187 L21.2608,0.677098187" id="Stroke-120" stroke="#6B8599" stroke-width="2.165" fill="none"></path>
                            </g>
                        </g>
                        <g id="Group-124" mask="url(#mask-4)">
                            <g transform="translate(57.302326, 198.531088)">
                                <path d="M0.493055814,0.430899223 L19.0354744,0.430899223" id="Fill-122" stroke="none" fill="#020202" fill-rule="evenodd"></path>
                                <path d="M0.493055814,0.430899223 L19.0354744,0.430899223" id="Stroke-123" stroke="#6B8599" stroke-width="2.165" fill="none"></path>
                            </g>
                        </g>
                        <g id="Group-127" mask="url(#mask-4)">
                            <g transform="translate(49.116279, 198.531088)">
                                <path d="M0.312706977,0.430899223 L5.87717209,0.430899223" id="Fill-125" stroke="none" fill="#020202" fill-rule="evenodd"></path>
                                <path d="M0.312706977,0.430899223 L5.87717209,0.430899223" id="Stroke-126" stroke="#6B8599" stroke-width="2.165" fill="none"></path>
                            </g>
                        </g>
                        <g id="Group-130" mask="url(#mask-4)">
                            <g transform="translate(72.651163, 201.593264)">
                                <path d="M0.206748837,0.631777979 L3.68684186,0.631777979" id="Fill-128" stroke="none" fill="#020202" fill-rule="evenodd"></path>
                                <path d="M0.206748837,0.631777979 L3.68684186,0.631777979" id="Stroke-129" stroke="#6B8599" stroke-width="2.165" fill="none"></path>
                            </g>
                        </g>
                        <g id="Group-133" mask="url(#mask-4)">
                            <g transform="translate(59.860465, 201.593264)">
                                <path d="M0.452586047,0.631777979 L11.2059814,0.631777979" id="Fill-131" stroke="none" fill="#020202" fill-rule="evenodd"></path>
                                <path d="M0.452586047,0.631777979 L11.2059814,0.631777979" id="Stroke-132" stroke="#6B8599" stroke-width="2.165" fill="none"></path>
                            </g>
                        </g>
                        <g id="Group-136" mask="url(#mask-4)">
                            <g transform="translate(49.116279, 201.593264)">
                                <path d="M0.312706977,0.631777979 L13.7674977,0.631777979" id="Fill-134" stroke="none" fill="#020202" fill-rule="evenodd"></path>
                                <path d="M0.312706977,0.631777979 L13.7674977,0.631777979" id="Stroke-135" stroke="#6B8599" stroke-width="2.165" fill="none"></path>
                            </g>
                        </g>
                        <path d="M38.1966558,153.504799 L59.903493,153.504799" id="Stroke-137" stroke="#FFFFFF" stroke-width="4.041" stroke-linecap="round" mask="url(#mask-4)"></path>
                        <path d="M49.2221349,157.629091 L55.200507,157.629091" id="Stroke-138" stroke="#FFFFFF" stroke-width="4.041" stroke-linecap="round" mask="url(#mask-4)"></path>
                        <path d="M45.2255023,157.629091 L45.8195023,157.629091" id="Stroke-139" stroke="#FFFFFF" stroke-width="4.041" stroke-linecap="round" mask="url(#mask-4)"></path>
                        <path d="M38.1966558,157.629091 L41.8143767,157.629091" id="Stroke-140" stroke="#FFFFFF" stroke-width="4.041" stroke-linecap="round" mask="url(#mask-4)"></path>
                        <polygon id="Fill-141" fill="#FFFFFF" mask="url(#mask-4)" points="28.4009767 99.096614 162.09907 99.096614 162.09907 16.1999326 28.4009767 16.1999326"></polygon>
                        <polygon id="Stroke-142" stroke="#2D4256" stroke-width="1.616" mask="url(#mask-4)" points="28.4009767 99.096614 162.09907 99.096614 162.09907 16.1999326 28.4009767 16.1999326"></polygon>
                        <path d="M152.950191,194.744503 C152.376144,194.586801 151.767819,194.841982 151.466981,195.367656 C151.212702,195.80963 151.133912,196.299578 151.155912,196.793099 C151.181493,197.37185 151.260284,197.949581 151.3314,198.52578 C151.365679,198.804438 151.299167,198.887627 151.02033,198.859558 C150.024191,198.757995 149.027028,198.695731 148.037028,198.89069 C147.760749,198.944788 147.484981,199.04584 147.233772,199.173431 C146.831121,199.378596 146.68633,199.747078 146.819865,200.178335 C146.881772,200.378907 146.986144,200.568252 147.086423,200.754024 C147.150888,200.872428 147.156516,200.967355 147.076702,201.078615 C147.012237,201.168949 146.954935,201.267449 146.912981,201.370032 C146.73647,201.798736 146.861819,202.149866 147.264981,202.383102 C147.50033,202.518858 147.491633,202.531107 147.445074,202.796495 C147.408237,203.008296 147.388284,203.228773 147.400563,203.443125 C147.417447,203.723824 147.564795,203.938687 147.827772,204.060153 C147.936237,204.110679 147.970516,204.191827 147.989958,204.30921 C148.034981,204.583275 148.073353,204.864995 148.173121,205.121197 C148.335307,205.536633 148.679633,205.71526 149.126795,205.678513 C149.210191,205.671879 149.294609,205.669837 149.379028,205.669837 C150.955353,205.668817 152.531679,205.670858 154.108005,205.665244 C154.218516,205.665244 154.338749,205.630029 154.43954,205.581034 C154.670795,205.468754 154.891307,205.333508 155.120005,205.215615 C155.210051,205.168661 155.247912,205.114052 155.247912,205.008407 C155.24433,203.385964 155.246377,201.763011 155.241772,200.140058 C155.241772,200.086469 155.2034,200.011956 155.1594,199.982866 C153.892609,199.135153 153.194237,197.93478 152.99726,196.446052 C152.930237,195.940283 152.96247,195.420734 152.950191,194.907309 C152.948656,194.8527 152.950191,194.797581 152.950191,194.744503" id="Fill-143" fill="#2D4256" mask="url(#mask-4)"></path>
                        <path d="M155.591265,202.672579 C155.591265,203.484056 155.590753,204.295533 155.591265,205.10752 C155.591777,205.479574 155.74987,205.635745 156.124381,205.635745 C156.960381,205.636255 157.796381,205.636255 158.63187,205.635745 C158.981312,205.635235 159.146056,205.468856 159.146056,205.120789 C159.146056,203.492222 159.145544,201.863654 159.146567,200.235597 C159.146567,199.884978 158.984381,199.716048 158.637498,199.715538 C157.790242,199.715027 156.942986,199.715027 156.09573,199.716048 C155.754474,199.717069 155.590753,199.881916 155.590242,200.221307 L155.590242,202.672579 L155.591265,202.672579 Z" id="Fill-144" fill="#2D4256" mask="url(#mask-4)"></path>
                        <polygon id="Fill-145" fill="#F7EFE3" mask="url(#mask-4)" points="64.3131628 161.031679 76.9928372 161.031679 76.9928372 150.102262 64.3131628 150.102262"></polygon>
                        <polygon id="Stroke-146" stroke="#99255D" stroke-width="2.011" mask="url(#mask-4)" points="64.3131628 161.031679 76.9928372 161.031679 76.9928372 150.102262 64.3131628 150.102262"></polygon>
                        <polygon id="Fill-147" fill="#9B275D" mask="url(#mask-4)" points="172.391488 60.8520751 176.857488 60.8520751 176.857488 30.5258135 172.391488 30.5258135"></polygon>
                        <polygon id="Stroke-148" stroke="#2D4256" stroke-width="2.011" mask="url(#mask-4)" points="172.391488 60.8520751 176.857488 60.8520751 176.857488 30.5258135 172.391488 30.5258135"></polygon>
                        <polygon id="Fill-149" fill="#9B275D" mask="url(#mask-4)" points="172.391488 185.893487 176.857488 185.893487 176.857488 155.567225 172.391488 155.567225"></polygon>
                        <polygon id="Stroke-150" stroke="#2D4256" stroke-width="2.011" mask="url(#mask-4)" points="172.391488 185.893487 176.857488 185.893487 176.857488 155.567225 172.391488 155.567225"></polygon>
                        <path d="M110.056842,90.1909381 C110.056842,90.1909381 130.616609,90.7962282 131.693074,98.9875495 L61.9126558,98.9875495 C64.9466093,92.3584484 85.3380512,89.8015313 85.3380512,89.8015313 L110.056842,90.1909381 Z" id="Fill-151" fill="#E5D99C" mask="url(#mask-4)"></path>
                        <path d="M110.056842,90.1909381 C110.056842,90.1909381 130.616609,90.7962282 131.693074,98.9875495 L61.9126558,98.9875495 C64.9466093,92.3584484 85.3380512,89.8015313 85.3380512,89.8015313 L110.056842,90.1909381 Z" id="Stroke-152" stroke="#2D4256" stroke-width="0.929" stroke-linecap="round" mask="url(#mask-4)"></path>
                        <g id="Group-155" mask="url(#mask-4)">
                            <g transform="translate(84.930233, 82.168394)">
                                <path d="M19.6650837,0.290855699 C19.6650837,0.290855699 28.6569442,0.134174352 23.5677814,16.8189516 L1.8409907,16.8189516 C-2.5625907,1.50143601 4.58331628,0.290855699 4.58331628,0.290855699" id="Fill-153" stroke="none" fill="#9B275D" fill-rule="evenodd"></path>
                                <path d="M19.6650837,0.290855699 C19.6650837,0.290855699 28.6569442,0.134174352 23.5677814,16.8189516 L1.8409907,16.8189516 C-2.5625907,1.50143601 4.58331628,0.290855699 4.58331628,0.290855699" id="Stroke-154" stroke="#2D4256" stroke-width="0.929" fill="none" stroke-linecap="round"></path>
                            </g>
                        </g>
                        <g id="Group-158" mask="url(#mask-4)">
                            <g transform="translate(88.511628, 77.064767)">
                                <path d="M16.5788419,0.401196114 C16.5788419,0.401196114 14.9953535,17.1482376 14.0166093,21.9226806 L4.81702791,21.9226806 C3.64284186,19.1008852 0.129493023,0.999851554 0.129493023,0.999851554" id="Fill-156" stroke="none" fill="#FAF5EA" fill-rule="evenodd"></path>
                                <path d="M16.5788419,0.401196114 C16.5788419,0.401196114 14.9953535,17.1482376 14.0166093,21.9226806 L4.81702791,21.9226806 C3.64284186,19.1008852 0.129493023,0.999851554 0.129493023,0.999851554" id="Stroke-157" stroke="#2D4256" stroke-width="0.929" fill="none" stroke-linecap="round"></path>
                            </g>
                        </g>
                        <g id="Group-161" mask="url(#mask-4)">
                            <g transform="translate(110.511628, 50.015544)">
                                <path d="M8.03056279,2.60116554 C8.03056279,2.60116554 8.37744651,-1.53277228 2.87079535,0.625041192 C-2.63534419,2.78336503 2.87079535,13.252435 2.87079535,13.252435 C10.2356791,12.6925671 8.03056279,2.60116554 8.03056279,2.60116554" id="Fill-159" stroke="none" fill="#FAF5EA" fill-rule="evenodd"></path>
                                <path d="M8.03056279,2.60116554 C8.03056279,2.60116554 8.37744651,-1.53277228 2.87079535,0.625041192 C-2.63534419,2.78336503 2.87079535,13.252435 2.87079535,13.252435 C10.2356791,12.6925671 8.03056279,2.60116554 8.03056279,2.60116554" id="Stroke-160" stroke="#2D4256" stroke-width="0.929" fill="none"></path>
                            </g>
                        </g>
                        <g id="Group-164" mask="url(#mask-4)">
                            <g transform="translate(73.674419, 55.629534)">
                                <path d="M5.36150233,10.9147187 C-1.36896279,11.5557342 0.318386047,3.27816166 0.318386047,3.27816166 C0.318386047,3.27816166 3.33392093,-0.228030052 5.78257209,0.405840415" id="Fill-162" stroke="none" fill="#FAF5EA" fill-rule="evenodd"></path>
                                <path d="M5.36150233,10.9147187 C-1.36896279,11.5557342 0.318386047,3.27816166 0.318386047,3.27816166 C0.318386047,3.27816166 3.33392093,-0.228030052 5.78257209,0.405840415" id="Stroke-163" stroke="#2D4256" stroke-width="0.929" fill="none"></path>
                            </g>
                        </g>
                        <path d="M96.4482558,79.818735 C82.6941628,79.818735 78.5172326,69.0322194 77.3323023,60.8000692 C76.6027209,55.7357402 77.0084419,51.6390588 77.0084419,51.6390588 C77.0084419,51.6390588 77.2417442,48.8846313 79.4412326,44.035165 C81.6345814,39.1862091 93.3140233,34.3045899 96.0583953,34.7720821 C98.8032791,35.2400847 100.396488,34.74095 106.077605,35.6861417 C106.077605,35.6861417 110.433093,36.6002013 112.126581,42.9383956 C113.393372,47.6832376 113.796023,51.6390588 113.796023,51.6390588 C113.796023,51.6390588 113.872256,52.5617946 113.878395,54.0729785 C113.935698,60.9138801 112.604442,79.818735 96.4482558,79.818735" id="Fill-165" fill="#FAF5EA" mask="url(#mask-4)"></path>
                        <path d="M96.4482558,79.818735 C82.6941628,79.818735 78.5172326,69.0322194 77.3323023,60.8000692 C76.6027209,55.7357402 77.0084419,51.6390588 77.0084419,51.6390588 C77.0084419,51.6390588 77.2417442,48.8846313 79.4412326,44.035165 C81.6345814,39.1862091 93.3140233,34.3045899 96.0583953,34.7720821 C98.8032791,35.2400847 100.396488,34.74095 106.077605,35.6861417 C106.077605,35.6861417 110.433093,36.6002013 112.126581,42.9383956 C113.393372,47.6832376 113.796023,51.6390588 113.796023,51.6390588 C113.796023,51.6390588 113.872256,52.5617946 113.878395,54.0729785 C113.935698,60.9138801 112.604442,79.818735 96.4482558,79.818735 Z" id="Stroke-166" stroke="#2D4256" stroke-width="0.929" stroke-linecap="round" mask="url(#mask-4)"></path>
                        <path d="M94.7090279,57.2797404 C94.7090279,61.8240098 91.0160977,65.5078078 86.4605628,65.5078078 C81.9050279,65.5078078 78.2120977,61.8240098 78.2120977,57.2797404 C78.2120977,52.735471 81.9050279,49.0516731 86.4605628,49.0516731 C91.0160977,49.0516731 94.7090279,52.735471 94.7090279,57.2797404" id="Fill-167" fill="#FAF5EA" mask="url(#mask-4)"></path>
                        <path d="M94.7090279,57.2797404 C94.7090279,61.8240098 91.0160977,65.5078078 86.4605628,65.5078078 C81.9050279,65.5078078 78.2120977,61.8240098 78.2120977,57.2797404 C78.2120977,52.735471 81.9050279,49.0516731 86.4605628,49.0516731 C91.0160977,49.0516731 94.7090279,52.735471 94.7090279,57.2797404 Z" id="Stroke-168" stroke="#2D4256" stroke-width="0.929" stroke-linecap="round" mask="url(#mask-4)"></path>
                        <path d="M113.82314,57.2797404 C113.82314,61.8240098 110.130209,65.5078078 105.575186,65.5078078 C101.019651,65.5078078 97.3267209,61.8240098 97.3267209,57.2797404 C97.3267209,52.735471 101.019651,49.0516731 105.575186,49.0516731 C110.130209,49.0516731 113.82314,52.735471 113.82314,57.2797404" id="Fill-169" fill="#FAF5EA" mask="url(#mask-4)"></path>
                        <path d="M113.82314,57.2797404 C113.82314,61.8240098 110.130209,65.5078078 105.575186,65.5078078 C101.019651,65.5078078 97.3267209,61.8240098 97.3267209,57.2797404 C97.3267209,52.735471 101.019651,49.0516731 105.575186,49.0516731 C110.130209,49.0516731 113.82314,52.735471 113.82314,57.2797404 Z" id="Stroke-170" stroke="#2D4256" stroke-width="0.929" stroke-linecap="round" mask="url(#mask-4)"></path>
                        <g id="Group-173" mask="url(#mask-4)">
                            <g transform="translate(94.651163, 56.650259)">
                                <path d="M0.0578651163,0.469482642 L2.67535349,0.469482642" id="Fill-171" stroke="none" fill="#FAF5EA" fill-rule="evenodd"></path>
                                <path d="M0.0578651163,0.469482642 L2.67535349,0.469482642" id="Stroke-172" stroke="#2D4256" stroke-width="0.929" fill="none" stroke-linecap="round"></path>
                            </g>
                        </g>
                        <path d="M113.8786,54.0730295 L113.87246,53.4963197 C113.866321,51.9851358 113.880647,51.3920943 113.880647,51.3920943 C113.880647,51.3920943 108.028135,49.6134803 109.207437,44.8461824 C110.380088,40.0722497 104.345949,39.6047575 104.345949,39.6047575 C104.02874,42.7343016 99.0915302,44.9222264 96.3466465,44.4542238 C93.6022744,43.9862212 89.7614837,43.5120943 87.5686465,48.3615606 C85.3686465,53.2110269 77.344786,51.478856 77.344786,51.478856 C77.344786,51.478856 76.6745535,55.5755373 77.4036233,60.6398663 C75.4323209,60.0708119 67.146507,57.0994803 69.3014837,48.3615606 C71.7291581,38.5110503 77.5407395,42.7200114 80.126507,34.741001 C82.712786,26.7686254 91.4278558,25.1237264 94.7994837,26.6099026 C98.1654837,28.0955684 105.575391,24.2428404 105.366135,31.0000425 C105.366135,31.0000425 111.394135,27.8699881 114.220879,32.0937497 C117.047623,36.317001 114.931019,39.9967161 119.709623,42.6521332 C124.495391,45.314185 120.147577,54.5471565 113.8786,54.0730295" id="Fill-174" fill="#2D4256" mask="url(#mask-4)"></path>
                        <path d="M104.10267,57.6936446 C104.10267,58.2279943 103.668298,58.6612922 103.132623,58.6612922 C102.59746,58.6612922 102.163088,58.2279943 102.163088,57.6936446 C102.163088,57.1592948 102.59746,56.7259969 103.132623,56.7259969 C103.668298,56.7259969 104.10267,57.1592948 104.10267,57.6936446" id="Fill-175" fill="#2D4256" mask="url(#mask-4)"></path>
                        <g id="Group-178" mask="url(#mask-4)">
                            <g transform="translate(102.837209, 56.139896)">
                                <path d="M0.278223256,0.839036269 C0.278223256,0.839036269 1.87450233,1.17179275 2.25259535,0.586406736" id="Fill-176" stroke="none" fill="#FAF5EA" fill-rule="evenodd"></path>
                                <path d="M0.278223256,0.839036269 C0.278223256,0.839036269 1.87450233,1.17179275 2.25259535,0.586406736" id="Stroke-177" stroke="#2D4256" stroke-width="0.929" fill="none" stroke-linecap="round"></path>
                            </g>
                        </g>
                        <g id="Group-181" mask="url(#mask-4)">
                            <g transform="translate(103.348837, 56.139896)">
                                <path d="M1.02965117,0.25691658 C1.02965117,0.25691658 1.03067442,0.900994301 0.0621627907,0.887214508" id="Fill-179" stroke="none" fill="#FAF5EA" fill-rule="evenodd"></path>
                                <path d="M1.02965117,0.25691658 C1.02965117,0.25691658 1.03067442,0.900994301 0.0621627907,0.887214508" id="Stroke-180" stroke="#2D4256" stroke-width="0.929" fill="none" stroke-linecap="round"></path>
                            </g>
                        </g>
                        <path d="M87.4478,57.8583896 C87.4478,58.3927394 87.8821721,58.8260373 88.4178465,58.8260373 C88.9530093,58.8260373 89.3873814,58.3927394 89.3873814,57.8583896 C89.3873814,57.3240399 88.9530093,56.890742 88.4178465,56.890742 C87.8821721,56.890742 87.4478,57.3240399 87.4478,57.8583896" id="Fill-182" fill="#2D4256" mask="url(#mask-4)"></path>
                        <g id="Group-185" mask="url(#mask-4)">
                            <g transform="translate(85.953488, 56.650259)">
                                <path d="M2.48211163,0.493163472 C2.48211163,0.493163472 0.88532093,0.825919948 0.507227907,0.240533938" id="Fill-183" stroke="none" fill="#FAF5EA" fill-rule="evenodd"></path>
                                <path d="M2.48211163,0.493163472 C2.48211163,0.493163472 0.88532093,0.825919948 0.507227907,0.240533938" id="Stroke-184" stroke="#2D4256" stroke-width="0.929" fill="none" stroke-linecap="round"></path>
                            </g>
                        </g>
                        <g id="Group-188" mask="url(#mask-4)">
                            <g transform="translate(86.976744, 56.139896)">
                                <path d="M0.195288372,0.421661658 C0.195288372,0.421661658 0.194776744,1.06573938 1.16277674,1.05195959" id="Fill-186" stroke="none" fill="#FAF5EA" fill-rule="evenodd"></path>
                                <path d="M0.195288372,0.421661658 C0.195288372,0.421661658 0.194776744,1.06573938 1.16277674,1.05195959" id="Stroke-187" stroke="#2D4256" stroke-width="0.929" fill="none" stroke-linecap="round"></path>
                            </g>
                        </g>
                        <g id="Group-191" mask="url(#mask-4)">
                            <g transform="translate(101.813953, 51.546632)">
                                <path d="M0.150827907,1.79897746 L7.46147907,0.182148446" id="Fill-189" stroke="none" fill="#FAF5EA" fill-rule="evenodd"></path>
                                <path d="M0.150827907,1.79897746 L7.46147907,0.182148446" id="Stroke-190" stroke="#2D4256" stroke-width="0.929" fill="none" stroke-linecap="round"></path>
                            </g>
                        </g>
                        <g id="Group-194" mask="url(#mask-4)">
                            <g transform="translate(83.395349, 52.567358)">
                                <path d="M7.70828837,1.73717254 L0.397125581,0.120343523" id="Fill-192" stroke="none" fill="#FAF5EA" fill-rule="evenodd"></path>
                                <path d="M7.70828837,1.73717254 L0.397125581,0.120343523" id="Stroke-193" stroke="#2D4256" stroke-width="0.929" fill="none" stroke-linecap="round"></path>
                            </g>
                        </g>
                        <g id="Group-197" mask="url(#mask-4)">
                            <g transform="translate(97.209302, 58.691710)">
                                <path d="M0.247730233,0.314740674 C0.247730233,0.314740674 0.424753488,2.59197902 2.41293953,3.12428731 C2.70507907,3.20288316 2.82019535,3.54584689 2.64266047,3.7892899 C2.33619535,4.20778731 1.75089302,4.76867591 0.672381395,5.15553083" id="Fill-195" stroke="none" fill="#FAF5EA" fill-rule="evenodd"></path>
                                <path d="M0.247730233,0.314740674 C0.247730233,0.314740674 0.424753488,2.59197902 2.41293953,3.12428731 C2.70507907,3.20288316 2.82019535,3.54584689 2.64266047,3.7892899 C2.33619535,4.20778731 1.75089302,4.76867591 0.672381395,5.15553083" id="Stroke-196" stroke="#2D4256" stroke-width="0.929" fill="none" stroke-linecap="round"></path>
                            </g>
                        </g>
                        <g id="Group-200" mask="url(#mask-4)">
                            <g transform="translate(88.511628, 71.450777)">
                                <path d="M6.28785581,2.75815311 C6.28785581,2.75815311 1.6821814,2.43764534 0.129390698,0.0869147668" id="Fill-198" stroke="none" fill="#FAF5EA" fill-rule="evenodd"></path>
                                <path d="M6.28785581,2.75815311 C6.28785581,2.75815311 1.6821814,2.43764534 0.129390698,0.0869147668" id="Stroke-199" stroke="#2D4256" stroke-width="0.929" fill="none" stroke-linecap="round"></path>
                            </g>
                        </g>
                        <path d="M106.302619,64.4019028 C106.302619,64.577978 106.159874,64.7203692 105.983363,64.7203692 C105.807363,64.7203692 105.664107,64.577978 105.664107,64.4019028 C105.664107,64.2258277 105.807363,64.0834365 105.983363,64.0834365 C106.159874,64.0834365 106.302619,64.2258277 106.302619,64.4019028" id="Fill-201" fill="#2D4256" mask="url(#mask-4)"></path>
                        <path d="M85.6241535,63.4633969 C85.6241535,63.6527415 85.4696419,63.8063606 85.2798279,63.8063606 C85.090014,63.8063606 84.936014,63.6527415 84.936014,63.4633969 C84.936014,63.2740523 85.090014,63.1204332 85.2798279,63.1204332 C85.4696419,63.1204332 85.6241535,63.2740523 85.6241535,63.4633969" id="Fill-202" fill="#2D4256" mask="url(#mask-4)"></path>
                        <path d="M88.3431488,67.1874624 C88.3431488,67.376807 88.1891488,67.5304262 87.9993349,67.5304262 C87.8095209,67.5304262 87.6555209,67.376807 87.6555209,67.1874624 C87.6555209,66.9976075 87.8095209,66.8444987 87.9993349,66.8444987 C88.1891488,66.8444987 88.3431488,66.9976075 88.3431488,67.1874624" id="Fill-203" fill="#2D4256" mask="url(#mask-4)"></path>
                        <path d="M85.6241535,66.4485593 C85.6241535,66.6379039 85.4696419,66.7915231 85.2798279,66.7915231 C85.090014,66.7915231 84.936014,66.6379039 84.936014,66.4485593 C84.936014,66.2587044 85.090014,66.1055956 85.2798279,66.1055956 C85.4696419,66.1055956 85.6241535,66.2587044 85.6241535,66.4485593" id="Fill-204" fill="#2D4256" mask="url(#mask-4)"></path>
                        <path d="M83.3812791,67.873492 C83.3812791,68.0628365 83.2272791,68.2164557 83.0374651,68.2164557 C82.8476512,68.2164557 82.6931395,68.0628365 82.6931395,67.873492 C82.6931395,67.6841474 82.8476512,67.5305282 83.0374651,67.5305282 C83.2272791,67.5305282 83.3812791,67.6841474 83.3812791,67.873492" id="Fill-205" fill="#2D4256" mask="url(#mask-4)"></path>
                        <path d="M104.857167,66.8064256 C104.857167,66.9717832 104.722609,67.1060085 104.556842,67.1060085 C104.391074,67.1060085 104.256516,66.9717832 104.256516,66.8064256 C104.256516,66.6410681 104.391074,66.5068427 104.556842,66.5068427 C104.722609,66.5068427 104.857167,66.6410681 104.857167,66.8064256" id="Fill-206" fill="#2D4256" mask="url(#mask-4)"></path>
                        <path d="M87.6891349,64.2311865 C87.6891349,64.4205311 87.5351349,64.5741503 87.3453209,64.5741503 C87.155507,64.5741503 87.0009953,64.4205311 87.0009953,64.2311865 C87.0009953,64.0413316 87.155507,63.8882228 87.3453209,63.8882228 C87.5351349,63.8882228 87.6891349,64.0413316 87.6891349,64.2311865" id="Fill-207" fill="#2D4256" mask="url(#mask-4)"></path>
                        <path d="M107.288884,66.6105484 C107.206,66.4671365 107.255628,66.2839163 107.398884,66.2012376 C107.542651,66.1185588 107.725814,66.1675536 107.809209,66.3109655 C107.892093,66.4543775 107.842977,66.6375977 107.699209,66.7202764 C107.555442,66.8024448 107.371767,66.75345 107.288884,66.6105484" id="Fill-208" fill="#2D4256" mask="url(#mask-4)"></path>
                        <path d="M109.497786,66.5983508 C109.414902,66.4549389 109.46453,66.2717187 109.607786,66.1890399 C109.751042,66.1063611 109.934716,66.155356 110.018112,66.2987679 C110.100995,66.4421798 110.051367,66.6254 109.908112,66.7080788 C109.764344,66.7902472 109.58067,66.7412523 109.497786,66.5983508" id="Fill-209" fill="#2D4256" mask="url(#mask-4)"></path>
                        <path d="M107.733079,64.8511751 C107.650195,64.7077632 107.699823,64.524543 107.843079,64.4418642 C107.986847,64.3591855 108.170009,64.4081803 108.253405,64.5515922 C108.336288,64.6950041 108.287172,64.8782244 108.143405,64.9609031 C107.999637,65.0435819 107.815963,64.994587 107.733079,64.8511751" id="Fill-210" fill="#2D4256" mask="url(#mask-4)"></path>
                        <path d="M108.445521,63.4173111 C108.362637,63.2744096 108.411753,63.0911894 108.555009,63.0085106 C108.698777,62.9258319 108.882451,62.9748267 108.965335,63.1182386 C109.048219,63.2611402 108.999102,63.4443604 108.855335,63.5270391 C108.712079,63.6097179 108.527893,63.5607231 108.445521,63.4173111" id="Fill-211" fill="#2D4256" mask="url(#mask-4)"></path>
                        <g id="Group-214" mask="url(#mask-4)">
                            <g transform="translate(114.604651, 54.098446)">
                                <path d="M0.1628,2.61361839 C0.1628,2.61361839 1.33954419,-0.654233938 3.01154419,0.54052513" id="Fill-212" stroke="none" fill="#FAF5EA" fill-rule="evenodd"></path>
                                <path d="M0.1628,2.61361839 C0.1628,2.61361839 1.33954419,-0.654233938 3.01154419,0.54052513" id="Stroke-213" stroke="#2D4256" stroke-width="0.929" fill="none" stroke-linecap="round"></path>
                            </g>
                        </g>
                        <g id="Group-217" mask="url(#mask-4)">
                            <g transform="translate(115.627907, 54.098446)">
                                <path d="M0.378144186,4.90800492 C0.378144186,4.90800492 2.21591163,1.40895829 0.801772093,0.377515285" id="Fill-215" stroke="none" fill="#FAF5EA" fill-rule="evenodd"></path>
                                <path d="M0.378144186,4.90800492 C0.378144186,4.90800492 2.21591163,1.40895829 0.801772093,0.377515285" id="Stroke-216" stroke="#2D4256" stroke-width="0.929" fill="none" stroke-linecap="round"></path>
                            </g>
                        </g>
                        <g id="Group-220" mask="url(#mask-4)">
                            <g transform="translate(75.209302, 60.733161)">
                                <polyline id="Fill-218" stroke="none" fill="#FAF5EA" fill-rule="evenodd" points="0.124837209 0.0363888601 1.68683721 1.71650285 0.624697674 2.73008316"></polyline>
                                <polyline id="Stroke-219" stroke="#2D4256" stroke-width="0.929" fill="none" stroke-linecap="round" points="0.124837209 0.0363888601 1.68683721 1.71650285 0.624697674 2.73008316"></polyline>
                            </g>
                        </g>
                        <path d="M89.0626512,80.2062023 C89.0626512,80.2062023 96.6511163,88.4674433 104.841767,80.2062023 L104.857116,77.5615028 C104.857116,77.5615028 101.506465,79.9331583 96.9601395,79.818837 C92.4133023,79.7040054 88.8984186,78.6113189 88.8984186,78.6113189 L89.0626512,80.2062023 Z" id="Fill-221" fill="#2D4256" mask="url(#mask-4)"></path>
                        <path d="M85.1320186,91.6208723 C85.1320186,91.6208723 85.2604372,97.0521521 85.5791814,98.9874474 L86.6525767,98.9874474 C86.6525767,98.9874474 85.1652744,93.0427427 85.1320186,91.6208723" id="Fill-222" fill="#2D4256" mask="url(#mask-4)"></path>
                        <path d="M110.237753,91.6208723 C110.237753,91.6208723 110.109335,97.0521521 109.790591,98.9874474 L108.717195,98.9874474 C108.717195,98.9874474 110.204498,93.0427427 110.237753,91.6208723" id="Fill-223" fill="#2D4256" mask="url(#mask-4)"></path>
                    </g>
                    <g id="Group-281" transform="translate(34.000000, 22.000000)">
                        <g id="Group-228">
                            <mask id="mask-6" fill="white">
                                <use xlink:href="#path-5"></use>
                            </mask>
                            <g id="Clip-226"></g>
                            <path d="M2.1635,-3.4568 L-23.0715,21.7782" id="Fill-225" fill="#F7EFE3" mask="url(#mask-6)"></path>
                            <path d="M2.1635,-3.4568 L-23.0715,21.7782" id="Stroke-227" stroke="#2D4256" stroke-width="1.276" mask="url(#mask-6)"></path>
                        </g>
                        <g id="Group-232">
                            <mask id="mask-8" fill="white">
                                <use xlink:href="#path-7"></use>
                            </mask>
                            <g id="Clip-230"></g>
                            <path d="M5.372,-3.4568 L-19.863,21.7782" id="Fill-229" fill="#F7EFE3" mask="url(#mask-8)"></path>
                            <path d="M5.372,-3.4568 L-19.863,21.7782" id="Stroke-231" stroke="#2D4256" stroke-width="1.276" mask="url(#mask-8)"></path>
                        </g>
                        <g id="Group-236">
                            <mask id="mask-10" fill="white">
                                <use xlink:href="#path-9"></use>
                            </mask>
                            <g id="Clip-234"></g>
                            <path d="M8.5805,-3.4568 L-16.6545,21.7782" id="Fill-233" fill="#F7EFE3" mask="url(#mask-10)"></path>
                            <path d="M8.5805,-3.4568 L-16.6545,21.7782" id="Stroke-235" stroke="#2D4256" stroke-width="1.276" mask="url(#mask-10)"></path>
                        </g>
                        <g id="Group-240">
                            <mask id="mask-12" fill="white">
                                <use xlink:href="#path-11"></use>
                            </mask>
                            <g id="Clip-238"></g>
                            <path d="M11.789,-3.4568 L-13.446,21.7782" id="Fill-237" fill="#F7EFE3" mask="url(#mask-12)"></path>
                            <path d="M11.789,-3.4568 L-13.446,21.7782" id="Stroke-239" stroke="#2D4256" stroke-width="1.276" mask="url(#mask-12)"></path>
                        </g>
                        <g id="Group-244">
                            <mask id="mask-14" fill="white">
                                <use xlink:href="#path-13"></use>
                            </mask>
                            <g id="Clip-242"></g>
                            <path d="M14.99795,-3.4568 L-10.23755,21.7782" id="Fill-241" fill="#F7EFE3" mask="url(#mask-14)"></path>
                            <path d="M14.99795,-3.4568 L-10.23755,21.7782" id="Stroke-243" stroke="#2D4256" stroke-width="1.276" mask="url(#mask-14)"></path>
                        </g>
                        <g id="Group-248">
                            <mask id="mask-16" fill="white">
                                <use xlink:href="#path-15"></use>
                            </mask>
                            <g id="Clip-246"></g>
                            <path d="M18.20645,-3.4568 L-7.02905,21.7782" id="Fill-245" fill="#F7EFE3" mask="url(#mask-16)"></path>
                            <path d="M18.20645,-3.4568 L-7.02905,21.7782" id="Stroke-247" stroke="#2D4256" stroke-width="1.276" mask="url(#mask-16)"></path>
                        </g>
                        <g id="Group-252">
                            <mask id="mask-18" fill="white">
                                <use xlink:href="#path-17"></use>
                            </mask>
                            <g id="Clip-250"></g>
                            <path d="M21.41495,-3.4568 L-3.82005,21.7782" id="Fill-249" fill="#F7EFE3" mask="url(#mask-18)"></path>
                            <path d="M21.41495,-3.4568 L-3.82005,21.7782" id="Stroke-251" stroke="#2D4256" stroke-width="1.276" mask="url(#mask-18)"></path>
                        </g>
                        <g id="Group-256">
                            <mask id="mask-20" fill="white">
                                <use xlink:href="#path-19"></use>
                            </mask>
                            <g id="Clip-254"></g>
                            <path d="M24.62345,-3.4568 L-0.61155,21.7782" id="Fill-253" fill="#F7EFE3" mask="url(#mask-20)"></path>
                            <path d="M24.62345,-3.4568 L-0.61155,21.7782" id="Stroke-255" stroke="#2D4256" stroke-width="1.276" mask="url(#mask-20)"></path>
                        </g>
                        <g id="Group-260">
                            <mask id="mask-22" fill="white">
                                <use xlink:href="#path-21"></use>
                            </mask>
                            <g id="Clip-258"></g>
                            <path d="M27.83195,-3.4568 L2.59695,21.7782" id="Fill-257" fill="#F7EFE3" mask="url(#mask-22)"></path>
                            <path d="M27.83195,-3.4568 L2.59695,21.7782" id="Stroke-259" stroke="#2D4256" stroke-width="1.276" mask="url(#mask-22)"></path>
                        </g>
                        <g id="Group-264">
                            <mask id="mask-24" fill="white">
                                <use xlink:href="#path-23"></use>
                            </mask>
                            <g id="Clip-262"></g>
                            <path d="M31.04095,-3.4568 L5.80545,21.7782" id="Fill-261" fill="#F7EFE3" mask="url(#mask-24)"></path>
                            <path d="M31.04095,-3.4568 L5.80545,21.7782" id="Stroke-263" stroke="#2D4256" stroke-width="1.276" mask="url(#mask-24)"></path>
                        </g>
                        <g id="Group-268">
                            <mask id="mask-26" fill="white">
                                <use xlink:href="#path-25"></use>
                            </mask>
                            <g id="Clip-266"></g>
                            <path d="M34.24945,-3.4568 L9.01395,21.7782" id="Fill-265" fill="#F7EFE3" mask="url(#mask-26)"></path>
                            <path d="M34.24945,-3.4568 L9.01395,21.7782" id="Stroke-267" stroke="#2D4256" stroke-width="1.276" mask="url(#mask-26)"></path>
                        </g>
                        <g id="Group-272">
                            <mask id="mask-28" fill="white">
                                <use xlink:href="#path-27"></use>
                            </mask>
                            <g id="Clip-270"></g>
                            <path d="M37.4579,-3.4568 L12.2224,21.7782" id="Fill-269" fill="#F7EFE3" mask="url(#mask-28)"></path>
                            <path d="M37.4579,-3.4568 L12.2224,21.7782" id="Stroke-271" stroke="#2D4256" stroke-width="1.276" mask="url(#mask-28)"></path>
                        </g>
                        <g id="Group-276">
                            <mask id="mask-30" fill="white">
                                <use xlink:href="#path-29"></use>
                            </mask>
                            <g id="Clip-274"></g>
                            <path d="M40.6664,-3.4568 L15.4314,21.7782" id="Fill-273" fill="#F7EFE3" mask="url(#mask-30)"></path>
                            <path d="M40.6664,-3.4568 L15.4314,21.7782" id="Stroke-275" stroke="#2D4256" stroke-width="1.276" mask="url(#mask-30)"></path>
                        </g>
                        <g id="Group-280">
                            <mask id="mask-32" fill="white">
                                <use xlink:href="#path-31"></use>
                            </mask>
                            <g id="Clip-278"></g>
                            <path d="M43.8749,-3.4568 L18.6399,21.7782" id="Fill-277" fill="#F7EFE3" mask="url(#mask-32)"></path>
                            <path d="M43.8749,-3.4568 L18.6399,21.7782" id="Stroke-279" stroke="#2D4256" stroke-width="1.276" mask="url(#mask-32)"></path>
                        </g>
                    </g>
                </g>
            </g>
        </g>
    </g>
</svg>