<?xml version="1.0" encoding="UTF-8"?>
<svg width="433px" height="360px" viewBox="0 0 433 360" version="1.1" xmlns="http://www.w3.org/2000/svg" xmlns:xlink="http://www.w3.org/1999/xlink">
    <!-- Generator: Sketch 57.1 (83088) - https://sketch.com -->
    <title>01</title>
    <desc>Created with Sketch.</desc>
    <g id="Page-1" stroke="none" stroke-width="1" fill="none" fill-rule="evenodd">
        <g id="Products" transform="translate(-200.000000, -2152.000000)">
            <g id="Group-18" transform="translate(200.000000, 1916.000000)">
                <g id="01" transform="translate(0.000000, 232.000000)">
                    <rect id="Rectangle" stroke="#334258" stroke-width="1.33" x="0.735515632" y="134.982831" width="91.7388589" height="103.718848"></rect>
                    <path d="M63.9564275,220.15777 L29.2646068,220.15777 C27.7410368,220.260121 26.4189823,219.116991 26.3002559,217.594609 L26.3002559,217.594609 C26.4189037,216.073726 27.742985,214.933821 29.2646068,215.042593 L63.9564275,215.042593 C65.4780493,214.933821 66.8021307,216.073726 66.9207784,217.594609 L66.9207784,217.594609 C66.8020521,219.116991 65.4799975,220.260121 63.9564275,220.15777 Z" id="Path" stroke="#334258" stroke-width="1.33" fill="#FAD749" fill-rule="nonzero"></path>
                    <rect id="Rectangle" stroke="#334258" stroke-width="1.33" fill="#FAD749" fill-rule="nonzero" x="30.7356381" y="194.737904" width="31.738614" height="5.12632107" rx="2.3"></rect>
                    <path d="M33.8337191,194.737904 L59.3873152,194.737904 C59.3873152,194.737904 56.6458479,186.93698 55.6317278,183.404276 C54.6176078,179.871573 54.9407889,172.081793 54.9407889,172.081793 L38.2802454,172.081793 C38.2802454,172.081793 38.6034265,179.882717 37.5893065,183.404276 C36.5751865,186.925836 33.8337191,194.737904 33.8337191,194.737904 Z" id="Path" stroke="#334258" stroke-width="1.33" fill="#FAD749" fill-rule="nonzero"></path>
                    <path d="M60.7134722,156.780839 L58.484637,166.7103 C58.2082617,167.854671 57.1878734,168.663627 56.0106298,168.671675 L37.2549812,168.671675 C36.0851079,168.666706 35.0712429,167.860222 34.8032624,166.721445 L32.5075621,156.780839 C32.3303886,156.031476 32.5057539,155.242235 32.9835984,154.638414 C33.4614429,154.034592 34.1892575,153.682542 34.9592809,153.682758 L35.5610664,153.682758 C36.7834625,153.681497 37.828625,154.561882 38.0350735,155.766719 L38.7148683,159.466586 C38.914898,160.839097 40.1896942,161.789581 41.5622053,161.589551 C42.9347164,161.389522 43.8852005,160.114726 43.6851709,158.742214 L43.373134,155.398962 C43.3258631,154.909678 43.4879361,154.423252 43.8192299,154.060103 C44.1505237,153.696954 44.6200692,153.491029 45.1116255,153.493289 L48.1651298,153.493289 C48.65905,153.493532 49.1295594,153.703839 49.4591515,154.071707 C49.7887435,154.439574 49.9463018,154.930271 49.8924771,155.42125 L49.5247193,158.708782 C49.5247193,158.809079 49.5247193,158.909377 49.5247193,159.020819 C49.5229793,160.332879 50.528828,161.426479 51.8364572,161.534235 C53.1440864,161.64199 54.3153878,160.727799 54.5284544,159.433153 L55.2082491,155.733287 C55.4146977,154.52845 56.4598602,153.648065 57.6822563,153.649326 L58.2840418,153.649326 C59.0576188,153.653449 59.7863888,154.012847 60.2605726,154.624066 C60.7347564,155.235284 60.9017458,156.030512 60.7134722,156.780839 L60.7134722,156.780839 Z" id="Path" stroke="#334258" stroke-width="1.33" fill="#FAD749" fill-rule="nonzero"></path>
                    <path d="M61.7387364,210.20602 C59.5099012,208.110915 57.7491213,207.832311 57.7491213,204.890248 C57.7357752,203.177352 58.0263077,201.475662 58.6072229,199.864225 L34.6138114,199.864225 C35.1947267,201.475662 35.4852591,203.177352 35.471913,204.890248 C35.471913,207.832311 33.7557099,208.110915 31.4822979,210.20602 C30.1529355,211.432699 29.6383464,213.309436 30.1561409,215.042593 L63.0648934,215.042593 C63.5826879,213.309436 63.0680988,211.432699 61.7387364,210.20602 L61.7387364,210.20602 Z" id="Path" stroke="#334258" stroke-width="1.33" fill="#FAD749" fill-rule="nonzero"></path>
                    <rect id="Rectangle" stroke="#334258" stroke-width="1.33" fill="#FAD749" fill-rule="nonzero" x="36.0291218" y="168.660531" width="21.1627907" height="3.41011793" rx="1.53"></rect>
                    <path d="M4.76970743,138.682697 L12.2474497,138.682697" id="Path" stroke="#334258" stroke-width="1.56" fill="#FFFFFF" fill-rule="nonzero" stroke-linecap="round"></path>
                    <path d="M4.76970743,141.268146 L12.2474497,141.268146" id="Path" stroke="#334258" stroke-width="1.56" fill="#FFFFFF" fill-rule="nonzero" stroke-linecap="round"></path>
                    <path d="M4.76970743,143.864739 L12.2474497,143.864739" id="Path" stroke="#334258" stroke-width="1.56" fill="#FFFFFF" fill-rule="nonzero" stroke-linecap="round"></path>
                    <path d="M19.8032012,228.850227 L92.4743745,228.850227" id="Path" stroke="#334258" stroke-width="1.33" fill="#FFFFFF" fill-rule="nonzero" stroke-linecap="round"></path>
                    <circle id="Oval" fill="#334258" fill-rule="nonzero" cx="21.2073674" cy="233.6868" r="1.91679831"></circle>
                    <circle id="Oval" fill="#334258" fill-rule="nonzero" cx="27.5484037" cy="233.6868" r="1.91679831"></circle>
                    <circle id="Oval" fill="#334258" fill-rule="nonzero" cx="33.8782958" cy="233.6868" r="1.91679831"></circle>
                    <rect id="Rectangle" stroke="#334258" stroke-width="0.83" x="321.364611" y="285.56294" width="48.9229337" height="55.3196909"></rect>
                    <path d="M323.504292,287.535459 L327.493907,287.535459" id="Path" stroke="#334258" stroke-width="0.83" fill="#FFFFFF" fill-rule="nonzero" stroke-linecap="round"></path>
                    <path d="M323.504292,288.917337 L327.493907,288.917337" id="Path" stroke="#334258" stroke-width="0.83" fill="#FFFFFF" fill-rule="nonzero" stroke-linecap="round"></path>
                    <path d="M323.504292,290.299215 L327.493907,290.299215" id="Path" stroke="#334258" stroke-width="0.83" fill="#FFFFFF" fill-rule="nonzero" stroke-linecap="round"></path>
                    <path d="M331.528099,335.62258 L370.287544,335.62258" id="Path" stroke="#334258" stroke-width="0.83" fill="#FFFFFF" fill-rule="nonzero" stroke-linecap="round"></path>
                    <circle id="Oval" fill="#334258" fill-rule="nonzero" cx="332.274759" cy="338.208029" r="1.01412004"></circle>
                    <circle id="Oval" fill="#334258" fill-rule="nonzero" cx="335.651444" cy="338.208029" r="1.01412004"></circle>
                    <circle id="Oval" fill="#334258" fill-rule="nonzero" cx="339.039274" cy="338.208029" r="1.01412004"></circle>
                    <path d="M354.696842,331.610676 L336.955313,331.610676 C336.21847,331.648813 335.587799,331.087664 335.540003,330.351384 L335.540003,330.351384 C335.560099,329.99649 335.720661,329.664199 335.986222,329.427913 C336.251783,329.191626 336.600489,329.070789 336.955313,329.092093 L354.696842,329.092093 C355.050543,329.07083 355.398044,329.192 355.661838,329.428578 C355.925633,329.665156 356.083781,329.997464 356.101008,330.351384 L356.101008,330.351384 C356.05907,331.08595 355.431622,331.648661 354.696842,331.610676 L354.696842,331.610676 Z" id="Path" stroke="#334258" stroke-width="0.93" fill="#FAD749" fill-rule="nonzero"></path>
                    <rect id="Rectangle" stroke="#334258" stroke-width="0.93" fill="#FAD749" fill-rule="nonzero" x="337.545954" y="319.129199" width="16.5491017" height="2.51858383" rx="1.13"></rect>
                    <path d="M339.16186,319.129199 L352.534871,319.129199 C352.534871,319.129199 351.097273,315.317891 350.573496,313.557111 C350.22896,311.721083 350.105495,309.850406 350.205739,307.985023 L341.524425,307.985023 C341.624669,309.850406 341.501204,311.721083 341.156668,313.557111 C340.588315,315.317891 339.16186,319.129199 339.16186,319.129199 Z" id="Path" stroke="#334258" stroke-width="0.93" fill="#FAD749" fill-rule="nonzero"></path>
                    <path d="M353.70501,326.718383 C352.523727,325.693119 351.632193,325.603965 351.632193,324.110646 C351.626028,323.269088 351.777213,322.433791 352.07796,321.647783 L339.56305,321.647783 C339.870707,322.432177 340.025787,323.268094 340.019962,324.110646 C340.019962,325.559389 339.117283,325.693119 337.936001,326.718383 C337.243722,327.294993 336.966674,328.23168 337.233917,329.092093 L354.384805,329.092093 C354.657219,328.236161 354.389217,327.300353 353.70501,326.718383 Z" id="Path" stroke="#334258" stroke-width="0.93" fill="#FAD749" fill-rule="nonzero"></path>
                    <path d="M342.349094,306.012504 L349.291916,306.012504 C350.62073,304.734215 351.362711,302.963944 351.342445,301.12021 C351.342445,297.654371 348.868437,294.834895 345.826077,294.834895 C342.783717,294.834895 340.253916,297.654371 340.253916,301.12021 C340.245322,302.970623 341.003861,304.741893 342.349094,306.012504 Z" id="Path" stroke="#334258" stroke-width="0.93" fill="#FAD749" fill-rule="nonzero"></path>
                    <rect id="Rectangle" stroke="#334258" stroke-width="0.93" fill="#FAD749" fill-rule="nonzero" x="340.510305" y="306.012504" width="10.6204" height="1.99480755" rx="0.89"></rect>
                    <rect id="Rectangle" stroke="#334258" stroke-width="1.2" stroke-linecap="round" stroke-linejoin="round" x="128.158027" y="285.42921" width="112.745631" height="77.5634667"></rect>
                    <path d="M196.884162,351.057264 L171.87663,351.057264 C170.893787,351.095098 170.063698,350.334597 170.015553,349.352205 L170.015553,349.352205 C170.035796,348.879147 170.243362,348.433566 170.592484,348.113712 C170.941606,347.793857 171.403612,347.625998 171.87663,347.647146 L196.884162,347.647146 C197.35718,347.625998 197.819186,347.793857 198.168308,348.113712 C198.51743,348.433566 198.724997,348.879147 198.745239,349.352205 L198.745239,349.352205 C198.697094,350.334597 197.867005,351.095098 196.884162,351.057264 L196.884162,351.057264 Z" id="Path" stroke="#334258" stroke-width="1.2" fill="#FAD749" fill-rule="nonzero" stroke-linecap="round" stroke-linejoin="round"></path>
                    <path d="M195.023084,337.528234 L173.693131,337.528234 C172.731019,337.546929 171.934398,336.785161 171.910063,335.823175 L171.910063,335.823175 C171.934398,334.861189 172.731019,334.09942 173.693131,334.118116 L195.023084,334.118116 C195.486093,334.106157 195.934732,334.27945 196.269478,334.599551 C196.604224,334.919652 196.7974,335.360095 196.806153,335.823175 L196.806153,335.823175 C196.7974,336.286255 196.604224,336.726698 196.269478,337.046799 C195.934732,337.3669 195.486093,337.540193 195.023084,337.528234 Z" id="Path" stroke="#334258" stroke-width="1.2" fill="#FAD749" fill-rule="nonzero" stroke-linecap="round" stroke-linejoin="round"></path>
                    <path d="M195.714023,344.459912 C194.008964,343.078034 192.727384,342.888583 192.727384,340.927208 C192.72061,339.781102 192.940267,338.644944 193.373746,337.583955 L175.39819,337.583955 C175.824525,338.646695 176.040264,339.782161 176.033408,340.927208 C176.033408,342.888583 174.751828,343.078034 173.046769,344.459912 C172.062715,345.216775 171.664864,346.513144 172.054937,347.691723 L196.705855,347.691723 C197.095928,346.513144 196.698077,345.216775 195.714023,344.459912 Z" id="Path" stroke="#334258" stroke-width="1.2" fill="#FAD749" fill-rule="nonzero" stroke-linecap="round" stroke-linejoin="round"></path>
                    <path d="M173.849149,334.118116 L195.023084,334.118116 C195.023084,334.118116 195.49114,328.802344 197.129334,326.083165 C197.129334,326.083165 201.464418,317.112103 197.129334,307.750995 C192.794249,298.389887 184.235522,299.348286 184.235522,299.348286 L182.006687,297.54293 C181.74889,297.334561 181.392318,297.298229 181.097793,297.450319 C180.803268,297.60241 180.626453,297.91418 180.647097,298.245013 L180.803115,300.551857 C179.143632,302.39944 177.616791,304.361989 176.234003,306.424838 C174.361782,309.333468 171.832054,311.417429 171.832054,312.431549 C171.832054,313.445669 173.826861,316.354299 175.242172,315.596495 C176.657482,314.838691 176.523752,313.36766 177.526728,313.256218 C178.529704,313.144776 180.691674,314.136608 181.75037,313.066767 C182.607679,311.974616 183.298671,310.761624 183.800899,309.467198 C184.660606,311.592592 184.575511,313.983369 183.566871,316.042262 C181.861812,319.574966 175.476199,322.416731 174.65153,326.562365 C174.143357,329.04954 173.874669,331.579685 173.849149,334.118116 Z" id="Path" stroke="#334258" stroke-width="1.2" fill="#FAD749" fill-rule="nonzero" stroke-linecap="round" stroke-linejoin="round"></path>
                    <path d="M134.031008,290.198917 L145.308914,290.198917" id="Path" stroke="#334258" stroke-width="2.07" fill="#FFFFFF" fill-rule="nonzero" stroke-linecap="round" stroke-linejoin="round"></path>
                    <path d="M134.031008,293.75391 L145.308914,293.75391" id="Path" stroke="#334258" stroke-width="2.07" fill="#FFFFFF" fill-rule="nonzero" stroke-linecap="round" stroke-linejoin="round"></path>
                    <path d="M134.031008,297.308902 L145.308914,297.308902" id="Path" stroke="#334258" stroke-width="2.07" fill="#FFFFFF" fill-rule="nonzero" stroke-linecap="round" stroke-linejoin="round"></path>
                    <path d="M228.321883,285.42921 L228.321883,352.584016" id="Path" stroke="#334258" stroke-width="1.2" fill="#FFFFFF" fill-rule="nonzero" stroke-linecap="round" stroke-linejoin="round"></path>
                    <circle id="Oval" fill="#334258" fill-rule="nonzero" cx="234.417747" cy="350.979255" r="2.52972801"></circle>
                    <circle id="Oval" fill="#334258" fill-rule="nonzero" cx="234.417747" cy="342.58769" r="2.52972801"></circle>
                    <circle id="Oval" fill="#334258" fill-rule="nonzero" cx="234.417747" cy="334.184981" r="2.52972801"></circle>
                    <rect id="Rectangle" stroke="#334258" stroke-width="0.66" stroke-linecap="round" stroke-linejoin="round" x="347.386262" y="75.1720367" width="85.1192182" height="58.551502"></rect>
                    <path d="M351.821644,78.7716056 L360.335795,78.7716056" id="Path" stroke="#334258" stroke-width="0.66" fill="#FFFFFF" fill-rule="nonzero" stroke-linecap="round" stroke-linejoin="round"></path>
                    <path d="M351.821644,81.4573521 L360.335795,81.4573521" id="Path" stroke="#334258" stroke-width="0.66" fill="#FFFFFF" fill-rule="nonzero" stroke-linecap="round" stroke-linejoin="round"></path>
                    <path d="M351.821644,84.1430986 L360.335795,84.1430986" id="Path" stroke="#334258" stroke-width="0.66" fill="#FFFFFF" fill-rule="nonzero" stroke-linecap="round" stroke-linejoin="round"></path>
                    <path d="M422.999498,75.1720367 L422.999498,125.866894" id="Path" stroke="#334258" stroke-width="0.66" fill="#FFFFFF" fill-rule="nonzero" stroke-linecap="round" stroke-linejoin="round"></path>
                    <circle id="Oval" fill="#334258" fill-rule="nonzero" cx="427.602043" cy="124.663323" r="1.91679831"></circle>
                    <circle id="Oval" fill="#334258" fill-rule="nonzero" cx="427.602043" cy="118.322287" r="1.91679831"></circle>
                    <circle id="Oval" fill="#334258" fill-rule="nonzero" cx="427.602043" cy="111.981251" r="1.91679831"></circle>
                    <path d="M396.520935,124.741333 L379.046867,124.741333 C378.389947,124.779616 377.824059,124.283223 377.776431,123.626915 L377.776431,123.626915 C377.824059,122.970607 378.389947,122.474214 379.046867,122.512497 L396.520935,122.512497 C397.173629,122.480506 397.732605,122.975175 397.780227,123.626915 L397.780227,123.626915 C397.732605,124.278655 397.173629,124.773324 396.520935,124.741333 Z" id="Path" stroke="#334258" stroke-width="0.66" fill="#FAD749" fill-rule="nonzero" stroke-linecap="round" stroke-linejoin="round"></path>
                    <rect id="Rectangle" stroke="#334258" stroke-width="0.66" fill="#FAD749" fill-rule="nonzero" stroke-linecap="round" stroke-linejoin="round" x="379.760094" y="113.641733" width="16.0476138" height="2.23997943" rx="1"></rect>
                    <path d="M381.320279,113.641733 L394.247523,113.641733 C394.247523,113.641733 392.854501,110.29848 392.341869,108.693719 C392.013772,107.066186 391.897651,105.40304 391.9964,103.745705 L383.571402,103.745705 C383.664501,105.403505 383.544652,107.066402 383.214789,108.693719 C382.702157,110.242759 381.320279,113.641733 381.320279,113.641733 Z" id="Path" stroke="#334258" stroke-width="0.66" fill="#FAD749" fill-rule="nonzero" stroke-linecap="round" stroke-linejoin="round"></path>
                    <path d="M395.428806,120.395104 C394.314388,119.481281 393.41171,119.358696 393.41171,118.077115 C393.402056,117.312213 393.550002,116.553515 393.846333,115.84828 L381.710325,115.84828 C382.006656,116.553515 382.154602,117.312213 382.144948,118.077115 C382.144948,119.358696 381.275702,119.481281 380.127852,120.395104 C379.465316,120.878306 379.19433,121.736429 379.459201,122.512497 L396.108601,122.512497 C396.363657,121.733957 396.089388,120.879676 395.428806,120.395104 Z" id="Path" stroke="#334258" stroke-width="0.66" fill="#FAD749" fill-rule="nonzero" stroke-linecap="round" stroke-linejoin="round"></path>
                    <path d="M393.133106,95.0421029 C392.954799,92.2226264 389.934727,89.1802662 388.976328,87.9209743 C389.492449,87.5154819 389.792632,86.8945552 389.789853,86.2382037 C389.789853,85.1303472 388.891757,84.232252 387.783901,84.232252 C386.676044,84.232252 385.777949,85.1303472 385.777949,86.2382037 C385.77517,86.8945552 386.075353,87.5154819 386.591474,87.9209743 C385.633075,89.1802662 382.601859,92.2226264 382.434696,95.0421029 C382.355893,97.1195041 383.041871,99.1536443 384.362639,100.759065 L391.160586,100.759065 C392.491896,99.1569491 393.193219,97.1243007 393.133106,95.0421029 Z" id="Path" stroke="#334258" stroke-width="0.66" fill="#FAD749" fill-rule="nonzero" stroke-linecap="round" stroke-linejoin="round"></path>
                    <rect id="Rectangle" stroke="#334258" stroke-width="0.66" fill="#FAD749" fill-rule="nonzero" stroke-linecap="round" stroke-linejoin="round" x="382.434696" y="102.252385" width="10.6984092" height="1.49331962" rx="0.67"></rect>
                    <rect id="Rectangle" stroke="#334258" stroke-width="0.66" fill="#FAD749" fill-rule="nonzero" stroke-linecap="round" stroke-linejoin="round" x="383.125635" y="100.759065" width="9.30538717" height="1.49331962" rx="0.67"></rect>
                    <path d="M182.474742,199.58562 C182.474742,199.58562 191.189488,259.162387 209.376783,259.362982 C231.486829,259.619298 245.617645,189.477852 245.617645,189.477852" id="Path" stroke="#2E4257" stroke-width="3.29"></path>
                    <circle id="Oval" stroke="#2E4257" stroke-width="2.66" fill="#FFFFFF" fill-rule="nonzero" cx="297.972985" cy="177.932486" r="94.2685869"></circle>
                    <ellipse id="Oval" stroke="#2E4257" stroke-width="1.87" fill="#FFFFFF" fill-rule="nonzero" transform="translate(318.656632, 18.104108) rotate(-84.920000) translate(-318.656632, -18.104108) " cx="318.656632" cy="18.1041084" rx="8.83733177" ry="103.607407"></ellipse>
                    <path d="M311.646889,74.9602973 L318.66772,18.1027101" id="Path" stroke="#2E4257" stroke-width="3.29" fill="#FFD700" fill-rule="nonzero" stroke-linecap="round"></path>
                    <path d="M401.012038,184.496406 C400.155187,195.779503 397.436402,206.842926 392.965943,217.237996 C390.749099,222.452418 385.61551,225.823534 379.949545,225.785896 C349.860269,225.139216 369.919786,176.52832 359.890028,162.586955 C349.002168,147.386299 333.144005,166.844031 272.66456,161.617412 C239.610934,158.742214 222.125721,151.342481 213.07665,145.235473 C206.899936,140.978154 204.994845,132.709864 208.685844,126.178931 C232.332572,84.0947521 282.056364,64.1071535 328.251309,78.1168983 C374.446254,92.1266431 404.691417,136.366779 400.978606,184.496406 L401.012038,184.496406 Z" id="Path" stroke="#2E4257" stroke-width="2.66" fill="#FFD700" fill-rule="nonzero"></path>
                    <path d="M369.685759,102.374971 C361.953234,99.9083835 353.962099,98.3415677 345.870654,97.7055611 C305.960073,94.658443 267.898653,115.010307 248.269958,149.893738 C246.908108,152.314405 246.280776,155.079314 246.464602,157.85068 C229.748338,154.306832 219.373109,149.447971 213.121227,145.224329 C206.933399,140.989232 204.999705,132.732357 208.663556,126.190076 C224.259781,98.4386553 251.82169,79.4677302 283.31263,74.8089459 C314.80357,70.1501616 346.677772,80.328081 369.641182,102.374971 L369.685759,102.374971 Z" id="Path" fill="#26241B" fill-rule="nonzero" opacity="0.7" style="mix-blend-mode: color-dodge;"></path>
                    <path d="M290.506386,196.844153 C290.506386,196.844153 301.327382,254.671284 333.400321,265.302828 C372.17091,278.140919 379.949545,225.785579 379.949545,225.785579" id="Path" stroke="#2E4257" stroke-width="3.38"></path>
                    <path d="M268.964694,77.9803691 C268.964694,77.9803691 300.06809,91.821436 344.856534,84.7560283" id="Path" stroke="#2E4257" stroke-width="2.66"></path>
                    <ellipse id="Oval" fill="#FFFFFF" fill-rule="nonzero" transform="translate(243.669258, 104.440945) rotate(-45.000000) translate(-243.669258, -104.440945) " cx="243.669258" cy="104.440945" rx="13.3618673" ry="7.14341698"></ellipse>
                    <path d="M234.194864,157.85068 L301.88459,172.895318 C301.88459,172.895318 313.953733,175.948823 313.452245,192.542501 C312.950757,209.136179 302.218916,205.915512 302.218916,205.915512 L228.455613,218.006944 L234.194864,157.85068 Z" id="Path" fill="#2E4257" fill-rule="nonzero"></path>
                    <path d="M177.90563,153.749623 L245.595356,168.794261 C245.595356,168.794261 257.653355,171.85891 257.151867,188.441444 C256.650379,205.023978 245.929681,201.814456 245.929681,201.814456 L172.099514,213.905887 L177.90563,153.749623 Z" id="Path" fill="#2E4257" fill-rule="nonzero"></path>
                    <ellipse id="Oval" stroke="#2E4257" stroke-width="2.96" fill="#F0F3F7" fill-rule="nonzero" transform="translate(173.446963, 183.840884) rotate(-86.210000) translate(-173.446963, -183.840884) " cx="173.446963" cy="183.840884" rx="33.131636" ry="25.3307126"></ellipse>
                    <ellipse id="Oval" stroke="#2E4257" stroke-width="2.96" fill="#F0F3F7" fill-rule="nonzero" transform="translate(165.023503, 183.284139) rotate(-86.210000) translate(-165.023503, -183.284139) " cx="165.023503" cy="183.284139" rx="33.131636" ry="25.3307126"></ellipse>
                    <ellipse id="Oval" fill="#2E4257" fill-rule="nonzero" transform="translate(165.023503, 183.284139) rotate(-86.210000) translate(-165.023503, -183.284139) " cx="165.023503" cy="183.284139" rx="28.5290912" ry="21.8091529"></ellipse>
                    <ellipse id="Oval" fill="#FFFFFF" fill-rule="nonzero" transform="translate(158.937440, 172.911863) rotate(-86.210000) translate(-158.937440, -172.911863) " cx="158.93744" cy="172.911863" rx="10.8990044" ry="8.33584383"></ellipse>
                    <ellipse id="Oval" stroke="#2E4257" stroke-width="2.96" fill="#F0F3F7" fill-rule="nonzero" transform="translate(226.361238, 187.341705) rotate(-86.210000) translate(-226.361238, -187.341705) " cx="226.361238" cy="187.341705" rx="33.131636" ry="25.3307126"></ellipse>
                    <ellipse id="Oval" stroke="#2E4257" stroke-width="2.96" fill="#F0F3F7" fill-rule="nonzero" transform="translate(217.937778, 186.784961) rotate(-86.210000) translate(-217.937778, -186.784961) " cx="217.937778" cy="186.784961" rx="33.131636" ry="25.3307126"></ellipse>
                    <ellipse id="Oval" fill="#2E4257" fill-rule="nonzero" transform="translate(217.937778, 186.784961) rotate(-86.210000) translate(-217.937778, -186.784961) " cx="217.937778" cy="186.784961" rx="28.5290912" ry="21.8091529"></ellipse>
                    <ellipse id="Oval" fill="#FFFFFF" fill-rule="nonzero" transform="translate(211.851691, 176.413421) rotate(-86.210000) translate(-211.851691, -176.413421) " cx="211.851691" cy="176.413421" rx="10.8990044" ry="8.33584383"></ellipse>
                    <circle id="Oval" stroke="#2E4257" stroke-width="3.29" fill="#FFD700" fill-rule="nonzero" cx="290.506386" cy="196.844153" r="17.2511848"></circle>
                    <path d="M362.531198,204.422193 C362.531198,204.422193 373.485923,207.765446 398.571464,203.10718" id="Path" stroke="#2E4257" stroke-width="2.66"></path>
                    <rect id="Rectangle" stroke="#334258" stroke-width="1.54" stroke-linecap="round" stroke-linejoin="round" x="105.100726" y="35.0975789" width="125.293974" height="38.5254173" rx="17.29"></rect>
                    <path d="M123.566626,46.4980712 C123.56864,46.3184262 123.587293,46.1393541 123.622347,45.9631507 C123.65346,45.7975348 123.735235,45.6456674 123.856375,45.5285279 C123.988075,45.4353226 124.14163,45.3777395 124.302142,45.3613609 L129.484184,45.3613609 C129.756746,45.3610046 130.028863,45.3833704 130.297709,45.4282303 C130.566626,45.4727319 130.831308,45.5398348 131.088945,45.6288255 C131.561613,45.809439 131.977226,46.1134521 132.292516,46.5092154 C132.599885,46.9043268 132.809865,47.3662823 132.905446,47.8576607 C132.973019,48.1763937 133.006639,48.501388 133.005761,48.827204 C133.005761,49.5627197 133.005761,50.2982353 133.005761,51.0560393 L133.005761,52.7610983 C133.004926,53.0185694 132.963557,53.2743048 132.883158,53.5189022 C132.792958,53.7610859 132.652421,53.9813864 132.470823,54.1652645 C132.411819,54.2159553 132.375676,54.2882421 132.370525,54.3658596 C132.378433,54.4524962 132.413539,54.5344121 132.470823,54.5998873 C132.653816,54.804 132.794025,55.0427333 132.883158,55.3019704 C132.96527,55.572948 133.006584,55.8546397 133.005761,56.1377837 C133.005761,56.6949925 133.005761,57.2633455 133.005761,57.8428426 C133.005761,58.6563675 133.005761,59.4698924 133.005761,60.2945614 C133.006965,60.731003 132.919773,61.1631703 132.749427,61.5649975 C132.569279,61.9762181 132.289719,62.3361991 131.935903,62.6125501 C131.498617,62.9812186 130.964992,63.2170966 130.398006,63.2923448 C130.029928,63.3563944 129.657189,63.3899409 129.283589,63.3926424 C128.087447,63.3926424 126.89502,63.3926424 125.706308,63.3926424 L124.814774,63.3926424 C124.561999,63.4018197 124.309507,63.3679028 124.068114,63.2923448 C123.899349,63.2328556 123.765009,63.1025861 123.700356,62.9357312 C123.624405,62.7059313 123.590431,62.4643382 123.600059,62.2225039 L123.566626,46.4980712 Z M127.36679,52.1927453 C127.360281,52.2832127 127.383783,52.3733022 127.433655,52.4490613 C127.481361,52.5238801 127.568903,52.5632739 127.656539,52.5493589 L127.968576,52.5493589 L128.893543,52.5493589 C129.007091,52.5618762 129.12059,52.5253942 129.205579,52.4490613 C129.279853,52.3541914 129.315663,52.2348239 129.305877,52.114736 L129.305877,49.4847104 C129.322062,49.364032 129.28552,49.242226 129.205579,49.1503851 C129.11446,49.087422 129.003572,49.0597 128.893543,49.0723759 L127.779125,49.0723759 C127.663345,49.0567546 127.545665,49.0802904 127.4448,49.139241 C127.4448,49.139241 127.36679,49.2952594 127.36679,49.4624221 L127.36679,52.1927453 Z M127.36679,59.2915855 C127.36679,59.4587482 127.36679,59.5590458 127.4448,59.6036225 C127.53962,59.629714 127.639727,59.629714 127.734548,59.6036225 C128.105686,59.6259131 128.477828,59.6259131 128.848966,59.6036225 C129.027273,59.6036225 129.149859,59.6036225 129.205579,59.5144691 C129.269843,59.4115515 129.293666,59.2884627 129.272444,59.1689996 L129.272444,56.6392716 C129.288629,56.5185931 129.252088,56.3967871 129.172147,56.3049463 C129.078441,56.2262938 128.96016,56.1829239 128.837822,56.1823604 L127.723404,56.1823604 C127.611578,56.1681774 127.498821,56.2003937 127.411367,56.2715138 C127.345703,56.3656227 127.317855,56.480994 127.333358,56.5946949 L127.36679,59.2915855 Z" id="Shape" fill="#334258" fill-rule="nonzero"></path>
                    <path d="M135.100797,46.5426479 C135.099571,46.3548363 135.122037,46.1676163 135.167714,45.9854391 C135.184149,45.808732 135.267948,45.6451243 135.401741,45.5285279 C135.543034,45.4297437 135.708862,45.3718967 135.880941,45.3613251 L137.530279,45.3613251 C138.800715,45.3613251 140.082295,45.3613251 141.352732,45.3613251 C141.823392,45.3592804 142.290881,45.4384519 142.734609,45.5953929 C143.294916,45.7588125 143.787431,46.0988824 144.138776,46.5649363 C144.473251,47.0428227 144.676874,47.5999041 144.729417,48.1808418 C144.729417,48.5263113 144.729417,48.8717807 144.729417,49.2172502 L144.729417,50.3316678 C144.729417,50.4653979 144.729417,50.6102722 144.729417,50.7551465 C144.729417,51.8026991 144.729417,52.8391075 144.729417,53.8866601 C144.729081,54.3541892 144.684303,54.8206278 144.595687,55.2796821 C144.5232,55.6143864 144.395125,55.9345738 144.216785,56.2269371 C144.034863,56.5165907 143.800549,56.7698007 143.525846,56.9735969 C143.430828,57.0354984 143.356959,57.1249183 143.314107,57.2299129 C143.281908,57.339029 143.281908,57.4551222 143.314107,57.5642382 C143.726441,59.1021345 144.127631,60.6400309 144.528822,62.1890714 C144.677617,62.4794415 144.677617,62.8236678 144.528822,63.114038 C144.287579,63.325834 143.96672,63.4233102 143.648432,63.3814982 L141.753922,63.3814982 C141.553662,63.3741598 141.359943,63.3082954 141.196713,63.1920472 C141.049631,63.0505849 140.948648,62.8680392 140.906964,62.6682709 C140.717514,61.9661878 140.528063,61.2641047 140.3609,60.5731658 C140.282891,60.2834172 140.216026,59.9825245 140.126872,59.6816317 C140.037719,59.3807389 140.048863,59.3807389 140.004286,59.2135763 C139.892844,58.8235301 139.792547,58.433484 139.692249,58.0991587 C139.669756,57.9548439 139.58923,57.8260027 139.469366,57.742545 C139.336045,57.6949263 139.190352,57.6949263 139.057031,57.742545 L138.945589,57.8205543 C138.913227,57.8506437 138.890044,57.889281 138.878724,57.931996 C138.867675,58.0282628 138.867675,58.1254778 138.878724,58.2217446 L138.878724,62.5122525 C138.892086,62.7293638 138.824598,62.9437352 138.689273,63.114038 C138.537545,63.2712526 138.328266,63.3597938 138.109776,63.3592099 C137.374261,63.3592099 136.638745,63.3592099 135.880941,63.3592099 C135.673804,63.357533 135.474884,63.2779651 135.323732,63.1363263 C135.184889,62.9746099 135.106157,62.7699052 135.100797,62.5568292 C135.100797,62.4342432 135.100797,62.3116573 135.100797,62.2002155 L135.100797,46.5426479 Z M138.889869,53.5523348 C138.877538,53.6644166 138.90094,53.7775288 138.956734,53.8755159 C139.059973,53.919492 139.176676,53.919492 139.279915,53.8755159 C139.7031,53.8977991 140.127165,53.8977991 140.550351,53.8755159 C140.681183,53.8894606 140.812471,53.8536547 140.918109,53.7752183 C140.996118,53.7083532 141.018406,53.5857673 141.007262,53.4074605 C141.007262,52.1035919 141.007262,50.7885791 141.007262,49.4735663 C141.030221,49.347405 140.997736,49.2174672 140.918109,49.1169526 C140.799731,49.049417 140.664025,49.0183984 140.528063,49.0277992 L139.302203,49.0277992 C139.209868,49.0137328 139.115934,49.0137328 139.023599,49.0277992 C138.96433,49.0329817 138.917339,49.0799725 138.912157,49.139241 C138.897644,49.2352786 138.897644,49.3329519 138.912157,49.4289896 L138.889869,53.5523348 Z" id="Shape" fill="#334258" fill-rule="nonzero"></path>
                    <path d="M153.967939,45.3613652 C154.160315,45.3572873 154.352129,45.3836146 154.536292,45.4393745 C154.675451,45.480815 154.794469,45.5720624 154.870617,45.6956905 C154.966168,45.8608101 155.030396,46.0421594 155.060068,46.230611 C155.204943,46.9549824 155.360961,47.6793539 155.528124,48.3925812 C155.628421,48.827204 155.717575,49.2729711 155.817872,49.707594 L156.18563,51.4349413 L158.247303,60.7291843 C158.358745,61.2418164 158.459042,61.7433043 158.55934,62.2336481 C158.55934,62.3896665 158.55934,62.5233966 158.55934,62.6682709 C158.585799,62.9830197 158.359945,63.262882 158.046708,63.303489 C157.928109,63.3425334 157.803792,63.3613694 157.67895,63.3592099 L155.5727,63.3592099 C155.383337,63.3486483 155.201228,63.2827794 155.048924,63.1697589 C154.919038,63.0320972 154.836973,62.8562434 154.814896,62.6682709 C154.670022,61.9884762 154.525148,61.3086814 154.402562,60.6065983 C154.382198,60.4480632 154.348649,60.2915023 154.302264,60.1385429 C154.290685,60.0568797 154.234954,59.9882873 154.15739,59.9602361 C154.061655,59.9421419 153.963377,59.9421419 153.867641,59.9602361 L153.600181,59.9602361 C152.976107,59.9602361 152.329745,59.9602361 151.694527,59.9602361 L151.560797,59.9602361 L151.271048,59.9602361 C151.210811,59.9649531 151.158713,60.0040266 151.137318,60.0605337 C151.095535,60.1515567 151.072782,60.2501543 151.070453,60.3502823 L150.869858,61.4646999 C150.791849,61.8324577 150.724984,62.2002155 150.658119,62.5791175 C150.628969,62.8177709 150.523419,63.0405975 150.357226,63.2143356 C150.159124,63.352898 149.918039,63.4161334 149.677431,63.3926424 C149.053357,63.3926424 148.440428,63.3926424 147.827498,63.3926424 C147.687925,63.3968553 147.548612,63.3780293 147.415163,63.3369215 C147.223979,63.3199444 147.05124,63.2159369 146.94679,63.0549092 C146.842339,62.8938814 146.817797,62.6937471 146.880243,62.5122525 C146.969396,62.0887738 147.069694,61.6652951 147.158847,61.2641047 C147.158847,61.030077 147.248001,60.7849052 147.303722,60.5397333 C147.604614,59.1689996 147.905507,57.7982659 148.195256,56.4275322 C148.611305,54.5181634 149.019925,52.6050798 149.421115,50.6882815 C149.421115,50.5656955 149.421115,50.4431096 149.510269,50.3205237 C149.800017,48.9609342 150.089766,47.6013446 150.390658,46.2417551 C150.421789,45.9870261 150.539879,45.7508463 150.724984,45.5731046 C150.938013,45.4400345 151.187623,45.377632 151.438211,45.3947978 L153.967939,45.3613652 Z M152.753224,56.5946949 L152.87581,56.5946949 C152.979504,56.6061959 153.084152,56.6061959 153.187847,56.5946949 C153.366154,56.5946949 153.466451,56.5946949 153.511028,56.5278298 C153.555605,56.4609648 153.511028,56.3718114 153.511028,56.2046487 C153.288144,55.0122219 153.076405,53.819795 152.853521,52.6273681 L152.753224,52.426773 C152.725185,52.3933938 152.702616,52.3557795 152.686359,52.3153312 L152.686359,52.426773 C152.662643,52.4921021 152.644014,52.559167 152.630638,52.6273681 C152.452331,53.5523348 152.274024,54.4661572 152.118006,55.3911238 C152.110305,55.45031 152.110305,55.5102445 152.118006,55.5694307 C152.107327,55.7011715 152.08495,55.8317012 152.051141,55.9594768 C152.051141,56.0820628 152.051141,56.2046487 152.051141,56.3272347 C152.051141,56.4498206 152.051141,56.5946949 152.274024,56.5946949 L152.87581,56.5946949 L152.753224,56.5946949 Z" id="Shape" fill="#334258" fill-rule="nonzero"></path>
                    <path d="M160.687877,46.1303134 C160.686412,45.9366927 160.758047,45.7496466 160.888473,45.6065371 C161.018473,45.467282 161.199482,45.3868337 161.38996,45.3836536 C162.147764,45.3836536 162.894424,45.3836536 163.618796,45.3836536 C163.767669,45.3785039 163.913617,45.4258384 164.03113,45.5173837 C164.149624,45.6201867 164.241403,45.7502072 164.29859,45.8962857 C164.290691,45.944254 164.290691,45.9931916 164.29859,46.04116 C164.432321,46.3866294 164.566051,46.7209547 164.688637,47.05528 C165.078683,48.1696976 165.479873,49.2841153 165.881063,50.3985329 C166.115091,51.0337509 166.349119,51.6912573 166.583147,52.3487637 L166.583147,52.3487637 C166.602413,52.4252473 166.628521,52.4998425 166.661156,52.5716473 L166.661156,52.5716473 L166.661156,52.5716473 C166.661156,52.4490613 166.661156,52.3264754 166.661156,52.2038894 L166.661156,46.4534945 C166.649758,46.3237289 166.649758,46.1932139 166.661156,46.0634483 C166.685122,45.6553183 167.032857,45.3423562 167.441248,45.3613652 L169.614363,45.3613652 C169.829439,45.3668962 170.03526,45.4500163 170.19386,45.5953929 C170.338125,45.749356 170.417891,45.9527583 170.416743,46.1637459 L170.416743,62.2782248 C170.458017,62.5754748 170.377662,62.8768083 170.19386,63.114038 C169.954465,63.3117238 169.643456,63.4005835 169.335758,63.3592099 L167.786718,63.3592099 C167.53394,63.3776533 167.28148,63.3193932 167.062346,63.1920472 C166.86404,63.0240846 166.72367,62.7979325 166.661156,62.545685 C165.914496,60.4840124 165.17898,58.433484 164.432321,56.3940997 C164.410556,56.3115904 164.376761,56.2327354 164.332023,56.160072 C164.304573,56.1324048 164.285291,56.097698 164.276302,56.0597744 C164.273341,56.1005828 164.273341,56.141552 164.276302,56.1823604 C164.260204,56.2707871 164.260204,56.3613939 164.276302,56.4498206 L164.276302,62.5122525 C164.283901,62.7493153 164.209072,62.9816798 164.064563,63.1697589 C163.887934,63.3280967 163.654883,63.408459 163.418201,63.3926424 C162.860992,63.3926424 162.303783,63.3926424 161.768862,63.3926424 C161.526223,63.3958322 161.283788,63.3771834 161.044491,63.3369215 C160.910488,63.3031004 160.789977,63.2292387 160.699022,63.1251822 C160.614915,63.0072356 160.564802,62.8684626 160.554147,62.7239918 C160.554147,62.6125501 160.554147,62.5011083 160.554147,62.3896665 L160.687877,46.1303134 Z" id="Path" fill="#334258" fill-rule="nonzero"></path>
                    <path d="M172.734732,46.5426479 C172.718635,46.3572604 172.718635,46.1708266 172.734732,45.9854391 C172.767283,45.8082311 172.852762,45.6450441 172.979904,45.5173837 C173.110879,45.4085982 173.277908,45.3529219 173.447959,45.3613652 C175.275604,45.3613652 177.092105,45.3613652 178.91975,45.3613652 C179.108843,45.3449022 179.299009,45.3449022 179.488103,45.3613652 C179.667697,45.3948017 179.843261,45.4470975 180.011879,45.5173837 C180.543585,45.6737153 181.019302,45.9792572 181.382613,46.3977736 C181.727343,46.8247722 181.950626,47.3367839 182.028975,47.8799491 C182.096009,48.2476283 182.129579,48.6206268 182.129345,48.9943667 C182.129345,52.5939356 182.129345,56.2157929 182.129345,59.826506 C182.131738,60.2783594 182.071735,60.728385 181.950966,61.1638071 C181.770371,61.7308286 181.425104,62.2312717 180.959134,62.6014059 C180.477645,62.9623781 179.89961,63.1718675 179.298652,63.2031914 C178.618857,63.2031914 177.939062,63.2812006 177.259267,63.2812006 C176.579473,63.2812006 175.699083,63.2812006 174.907846,63.2812006 L173.570545,63.2812006 C173.363061,63.2868595 173.159462,63.2242135 172.991048,63.1028938 C172.838996,62.9557024 172.747557,62.7569207 172.734732,62.545685 C172.734732,62.4008107 172.734732,62.2336481 172.734732,62.0776296 L172.734732,46.5426479 Z M176.523752,59.2470088 C176.516084,59.3434395 176.516084,59.4403267 176.523752,59.5367574 C176.541104,59.5915447 176.589199,59.6308957 176.646338,59.637055 C176.749925,59.650347 176.854787,59.650347 176.958375,59.637055 C177.169525,59.6593847 177.382442,59.6593847 177.593593,59.637055 L177.760755,59.637055 C177.922706,59.6683376 178.089148,59.6683376 178.251099,59.637055 C178.341675,59.6201857 178.412537,59.5493245 178.429406,59.4587482 C178.445145,59.2956791 178.445145,59.1314735 178.429406,58.9684044 L178.429406,49.4178454 C178.422215,49.3261635 178.391509,49.2378839 178.340253,49.1615293 C178.267833,49.0951307 178.170567,49.0627088 178.072792,49.0723759 L176.757779,49.0723759 C176.557184,49.0723759 176.456887,49.1615293 176.479175,49.3621245 L176.523752,59.2470088 Z" id="Shape" fill="#334258" fill-rule="nonzero"></path>
                    <path d="M188.002253,62.6459826 C187.992719,62.9683306 187.761463,63.2412127 187.445045,63.303489 C187.307782,63.3446312 187.164799,63.3633573 187.021566,63.3592099 C186.430924,63.3592099 185.829139,63.3592099 185.227353,63.3592099 C184.962556,63.3830927 184.698837,63.3031776 184.491838,63.1363263 C184.307978,62.9457443 184.211167,62.6875824 184.224378,62.4230991 L184.224378,46.5426479 C184.22526,46.355566 184.243917,46.1689911 184.280098,45.9854391 C184.30675,45.8118689 184.388848,45.6515817 184.514126,45.5285279 C184.653202,45.4335406 184.814398,45.3759709 184.982182,45.3613652 L187.211017,45.3613652 C187.431668,45.3661667 187.642468,45.4536685 187.801658,45.6065371 C187.938486,45.7846597 188.005825,46.006484 187.991109,46.230611 L188.002253,62.6459826 Z" id="Path" fill="#334258" fill-rule="nonzero"></path>
                    <path d="M190.063926,46.1303134 C190.064421,45.9390335 190.131393,45.7538742 190.253377,45.6065371 C190.389608,45.4696311 190.572973,45.3899075 190.766009,45.3836536 C191.512669,45.3836536 192.270473,45.3836536 192.994844,45.3836536 C193.143454,45.3803391 193.288802,45.4274789 193.407179,45.5173837 C193.518826,45.6262032 193.60949,45.7546437 193.674639,45.8962857 C193.672223,45.9445469 193.672223,45.9928988 193.674639,46.04116 C193.819513,46.3866294 193.942099,46.7209547 194.064685,47.05528 C194.465876,48.1696976 194.867066,49.2841153 195.257112,50.3985329 C195.49114,51.0337509 195.725167,51.6912573 195.959195,52.3487637 L195.959195,52.3487637 C195.959195,52.426773 195.959195,52.5047822 196.048349,52.5716473 L196.048349,52.5716473 L196.048349,52.5716473 L196.048349,52.5716473 C196.048349,52.4490613 196.048349,52.3264754 196.048349,52.2038894 L196.048349,46.4534945 C196.048349,46.3197644 196.048349,46.1860343 196.048349,46.0634483 C196.078025,45.6580903 196.422207,45.3483262 196.828441,45.3613652 L199.057276,45.3613652 C199.271355,45.371571 199.475645,45.4540728 199.636773,45.5953929 C199.781039,45.749356 199.860804,45.9527583 199.859657,46.1637459 L199.859657,62.2782248 C199.900931,62.5754748 199.820576,62.8768083 199.636773,63.114038 C199.394609,63.3147719 199.078892,63.4038202 198.767528,63.3592099 L197.229631,63.3592099 C196.973242,63.3785318 196.716968,63.3202878 196.494116,63.1920472 C196.303457,63.017614 196.164632,62.7939507 196.092925,62.545685 C195.35741,60.4840124 194.61075,58.433484 193.86409,56.3940997 L193.908667,56.160072 C193.87468,56.1361188 193.850841,56.1003593 193.841802,56.0597744 C193.848081,56.1003951 193.848081,56.1417396 193.841802,56.1823604 C193.831064,56.2711905 193.831064,56.3609905 193.841802,56.4498206 L193.841802,62.5122525 C193.846231,62.7506719 193.767415,62.9831787 193.618918,63.1697589 C193.442954,63.3292251 193.20941,63.4097576 192.972556,63.3926424 C192.422777,63.3926424 191.876712,63.3926424 191.334362,63.3926424 C191.091722,63.3958322 190.849288,63.3771834 190.609991,63.3369215 C190.474807,63.3059471 190.353476,63.2315825 190.264521,63.1251822 C190.175792,63.0097128 190.125163,62.8695103 190.119647,62.7239918 C190.108549,62.6128263 190.108549,62.500832 190.119647,62.3896665 L190.063926,46.1303134 Z" id="Path" fill="#334258" fill-rule="nonzero"></path>
                    <path d="M202.11078,48.5597438 C202.129568,48.0839323 202.235325,47.6155829 202.422817,47.177866 C202.612664,46.7042329 202.933506,46.2944821 203.347784,45.9965833 C203.766678,45.7072241 204.247622,45.5201901 204.75195,45.4505186 C205.146825,45.3927076 205.545296,45.3629154 205.944377,45.3613652 L208.396096,45.3613652 C208.792802,45.3814877 209.187566,45.4299022 209.577379,45.5062395 C210.213422,45.6383151 210.788767,45.9749119 211.215572,46.4646387 C211.639782,46.9938601 211.878598,47.6476691 211.895367,48.3257161 C211.895367,48.6823297 211.895367,49.0500876 211.895367,49.4401337 L211.895367,50.5545514 C211.895367,50.7440024 211.895367,50.9445975 211.895367,51.1451927 C211.908176,51.3467502 211.844504,51.5457249 211.71706,51.7024015 C211.58624,51.8524915 211.391656,51.931153 211.193284,51.9141409 C210.457768,51.9141409 209.711109,51.9141409 208.964449,51.9141409 C208.771412,51.9078869 208.588048,51.8281633 208.451817,51.6912573 C208.315891,51.5418354 208.240416,51.3471891 208.240077,51.1451927 L208.240077,49.7298823 C208.251578,49.6261879 208.251578,49.5215398 208.240077,49.4178454 C208.238629,49.3197667 208.203179,49.2252322 208.13978,49.1503851 C208.072375,49.0915707 207.983606,49.0633262 207.894608,49.0723759 L206.167261,49.0723759 C206.078677,49.0669657 205.991259,49.0947806 205.922089,49.1503851 C205.865484,49.2132445 205.826971,49.2902689 205.810647,49.3732687 C205.810647,49.518143 205.810647,49.6518731 205.810647,49.7856032 L205.810647,58.879251 C205.783848,59.0528147 205.783848,59.2294636 205.810647,59.4030273 C205.841863,59.5168857 205.930816,59.6058387 206.044675,59.637055 C206.210391,59.6681509 206.380446,59.6681509 206.546163,59.637055 L206.847055,59.637055 C207.159092,59.637055 207.459985,59.637055 207.760878,59.637055 C207.883144,59.6517736 208.006472,59.619947 208.106347,59.5479016 C208.182706,59.4541244 208.218774,59.3338999 208.206645,59.2135763 C208.206645,58.5152079 208.206645,57.8131248 208.206645,57.107327 C208.228755,57.0165996 208.201944,56.9209098 208.135912,56.8548783 C208.069881,56.7888469 207.974191,56.762036 207.883464,56.7841459 L207.694013,56.7841459 L207.52685,56.7841459 C207.32121,56.7855093 207.122481,56.709992 206.969641,56.5724065 C206.82466,56.420307 206.751656,56.2134607 206.769046,56.0040535 C206.769046,55.5582865 206.769046,55.1236636 206.769046,54.6890407 L206.769046,54.1318319 C206.769046,54.0315343 206.769046,53.9312368 206.769046,53.819795 C206.758561,53.6384292 206.827626,53.4614971 206.958208,53.3351965 C207.08879,53.2088959 207.267925,53.1457653 207.448841,53.1622886 L211.170996,53.1622886 C211.627907,53.1622886 211.850791,53.4297488 211.850791,53.9312368 C211.850791,54.6333199 211.850791,55.3465471 211.850791,56.0597744 L211.850791,60.1385429 C211.849313,60.4268099 211.819451,60.7142308 211.761637,60.9966445 C211.698946,61.2871211 211.589818,61.565586 211.438456,61.8213135 C211.207474,62.2499893 210.864738,62.6081293 210.446624,62.8577219 C210.030081,63.1097624 209.561006,63.262307 209.075891,63.303489 C208.64353,63.3601437 208.20807,63.3899187 207.772022,63.3926424 C207.337399,63.3926424 206.902776,63.3926424 206.457009,63.3926424 L205.532043,63.3926424 C205.342954,63.4092186 205.152778,63.4092186 204.96369,63.3926424 L204.384192,63.2812006 C203.213271,63.0422738 202.32017,62.0911208 202.155357,60.9074911 C202.121456,60.7158427 202.099128,60.5223267 202.088492,60.3279939 C202.088492,60.1273988 202.088492,59.9268036 202.088492,59.7150642 C202.088492,58.4446281 202.088492,57.1630479 202.088492,55.8703234 L202.088492,54.3770038 L202.088492,54.3770038 L202.11078,48.5597438 Z" id="Path" fill="#334258" fill-rule="nonzero"></path>
                    <circle id="Oval" fill="#334258" fill-rule="nonzero" cx="133.028032" cy="35.0975789" r="3.53270387"></circle>
                    <circle id="Oval" fill="#334258" fill-rule="nonzero" cx="229.859779" cy="57.931996" r="2.29570031"></circle>
                </g>
            </g>
        </g>
    </g>
</svg>