<?xml version="1.0" encoding="UTF-8"?>
<svg width="550px" height="412px" viewBox="0 0 550 412" version="1.1" xmlns="http://www.w3.org/2000/svg" xmlns:xlink="http://www.w3.org/1999/xlink">
    <!-- Generator: Sketch 57.1 (83088) - https://sketch.com -->
    <title>Group 13</title>
    <desc>Created with Sketch.</desc>
    <g id="Page-1" stroke="none" stroke-width="1" fill="none" fill-rule="evenodd">
        <g id="Products" transform="translate(-738.000000, -1280.000000)">
            <g id="Group-13" transform="translate(738.000000, 1281.000000)">
                <g id="Group-12" transform="translate(82.928972, 0.000000)">
                    <path d="M354.765827,233.748895 C354.861525,232.696213 354.909374,231.64353 354.909374,230.578886 L354.909374,233.760857 L354.765827,233.748895 Z" id="Path" stroke="#334258" stroke-width="0.86" fill="#F3EFE5" fill-rule="nonzero"></path>
                    <path d="M193.059503,74.4828792 C242.332202,74.4828792 287.27455,82.3062211 321.355133,95.1537275 C323.352721,95.9060147 324.686275,97.8043131 324.716548,99.9386461 L324.716548,163.721611 C324.719763,165.394706 323.90906,166.964838 322.543116,167.930993 C321.177172,168.897148 319.426672,169.1386 317.85018,168.578303 C284.236127,156.496384 240.669443,149.199383 193.059503,149.199383 C145.449563,149.199383 101.846992,156.436572 68.2568638,168.50653 C66.680372,169.066826 64.9298715,168.825374 63.5639277,167.859219 C62.1979839,166.893064 61.3872811,165.322933 61.390496,163.649837 L61.390496,99.9864953 C61.4226697,97.8491473 62.7615801,95.9499837 64.7638732,95.2015767 C98.8444559,82.3062211 143.786804,74.4828792 193.059503,74.4828792 Z" id="Path" stroke="#334258" stroke-width="1.5" fill="#FFFFFF" fill-rule="nonzero" opacity="0.8"></path>
                    <circle id="Oval" stroke="#334258" stroke-width="1.5" fill-opacity="0.203015734" fill="#FFD701" cx="103.019297" cy="121.997121" r="27.597018"></circle>
                    <path d="M146.908963,97.6658098 C162.240723,96.0704003 177.644958,95.2718396 193.059503,95.2733483 C226.553933,95.2733483 257.954961,98.8620394 285.360583,105.202057" id="Path" stroke="#334258" stroke-width="2" opacity="0.5" stroke-linecap="round" stroke-linejoin="round"></path>
                    <path d="M146.908963,115.310197 C179.612467,111.961675 212.583273,112.182283 245.23904,115.968123 C258.729205,117.543337 272.123073,119.855516 285.360583,122.894293" id="Path" stroke="#334258" stroke-width="1.5" opacity="0.5" stroke-linecap="round" stroke-linejoin="round"></path>
                    <path d="M146.908963,132.954584 C162.240715,131.359068 177.644955,130.560507 193.059503,130.562125 C210.505469,130.540393 227.937323,131.554988 245.262965,133.600548 C258.745686,135.167057 272.131849,137.475292 285.360583,140.514756" id="Path" stroke="#334258" stroke-width="1.5" opacity="0.5" stroke-linecap="round" stroke-linejoin="round"></path>
                    <g id="Group-2" transform="translate(94.071028, 39.000000)">
                        <polygon id="Path" stroke="#2E4257" stroke-width="1.5" fill="#FAF5EA" fill-rule="nonzero" stroke-linecap="round" stroke-linejoin="round" points="121.852471 293.403213 119.85679 314.025244 131.339512 314.025244 132.85895 292.239067"></polygon>
                        <polygon id="Path" stroke="#2E4257" stroke-width="1.5" fill="#FAF5EA" fill-rule="nonzero" stroke-linecap="round" stroke-linejoin="round" points="139.012298 291.392414 139.957222 314.025244 152.11273 313.178591 150.086812 291.392414"></polygon>
                        <path d="M120.680765,284.105157 C120.680765,284.105157 118.261758,284.452889 117.98206,285.428051 C117.702363,286.403213 117.61165,292.231507 119.49394,292.828699 C121.376229,293.425892 131.959382,295.897814 137.122449,292.685071 C137.122449,292.685071 145.634328,295.754185 150.941024,294.287663 C156.247719,292.82114 155.476661,283.969088 152.566294,285.397814 L135.663486,279.138635 L120.680765,284.105157 Z" id="Path" stroke="#1D2A38" stroke-width="1.5" fill="#FAF5EA" fill-rule="nonzero" stroke-linecap="round" stroke-linejoin="round"></path>
                        <path d="M116.198043,162.361097 L120.680765,284.105157 C120.680765,284.105157 130.10733,288.247706 137.402147,284.105157 C137.402147,284.105157 145.468022,290.273624 152.520937,285.397814 L161.796315,135.298462 L152.528497,120.051162 L116.182924,125.629995 L116.198043,162.361097 Z" id="Path" stroke="#1D2A38" stroke-width="1.5" fill="#617181" fill-rule="nonzero" stroke-linecap="round" stroke-linejoin="round"></path>
                        <path d="M136.328713,321.327619 L100.799555,321.327619 C100.799555,321.327619 100.73908,320.57168 100.73908,319.339498 C100.73908,319.052241 100.73908,318.734747 100.73908,318.394574 C100.73908,318.054401 100.73908,317.5706 100.799555,317.132155 L100.799555,317.086799 C101.018778,314.902133 101.872989,310.5706 105.206682,308.869736 L105.206682,308.869736 C106.209274,308.532086 107.238448,308.279217 108.283356,308.113797 C109.727201,307.864337 111.216402,307.69803 112.539296,307.478807 C114.157006,307.214229 115.510138,306.866496 116.152687,306.239067 C116.439155,305.939529 116.692591,305.610062 116.908626,305.256345 C117.104,304.957608 117.280722,304.64708 117.437784,304.32654 C118.057654,303.147274 118.579253,301.907533 119.524177,301.136475 C120.125115,300.64927 120.874746,300.382498 121.648367,300.380535 C125.11057,300.282263 123.825473,304.742306 126.698043,304.742306 C129.570613,304.742306 129.374069,298.800622 132.700203,300.486367 C135.202363,301.756345 135.958302,312.929131 136.177525,318.349218 C136.313594,320.163473 136.328713,321.327619 136.328713,321.327619 Z" id="Path" stroke="#2E4257" stroke-width="1.5" fill="#CC9679" fill-rule="nonzero" stroke-linecap="round" stroke-linejoin="round"></path>
                        <rect id="Rectangle" stroke="#2E4257" stroke-width="1.5" fill="#FAF5EA" fill-rule="nonzero" stroke-linecap="round" stroke-linejoin="round" x="100.761758" y="318.394574" width="35.5669546" height="2.92548596"></rect>
                        <path d="M121.391348,306.511205 C121.391348,306.511205 119.977741,304.092198 117.664566,304.364337 C116.455063,304.530643 117.248799,300.834099 120.076013,301.204509 C122.903227,301.57492 124.951823,304.228267 125.450743,305.740146 C125.949663,307.252025 125.390268,308.665632 123.878389,308.937771 C122.36651,309.209909 121.391348,306.511205 121.391348,306.511205 Z" id="Path" stroke="#2E4257" stroke-width="1.5" fill="#FAF5EA" fill-rule="nonzero" stroke-linecap="round" stroke-linejoin="round"></path>
                        <path d="M116.2434,310.154833 C116.2434,310.154833 115.132168,307.584639 112.803875,307.56952 C111.579253,307.56952 112.803875,304.016604 115.578173,304.727187 C118.352471,305.437771 120.053335,308.3179 120.370829,309.844898 C120.688324,311.371896 119.955063,312.732587 118.420505,312.8233 C116.885948,312.914013 116.2434,310.154833 116.2434,310.154833 Z" id="Path" stroke="#2E4257" stroke-width="1.5" fill="#FAF5EA" fill-rule="nonzero" stroke-linecap="round" stroke-linejoin="round"></path>
                        <path d="M171.895667,319.32438 C171.895667,320.518764 171.835192,321.327619 171.835192,321.327619 L136.306035,321.327619 C136.306035,321.327619 136.306035,320.163473 136.396747,318.394574 C136.60841,312.974488 137.36435,301.763905 139.874069,300.531723 C143.192644,298.845978 142.996099,304.787663 145.86867,304.787663 C148.74124,304.787663 147.456143,300.327619 150.918346,300.425892 C151.693933,300.429753 152.445344,300.696211 153.050095,301.181831 C153.98746,301.937771 154.501499,303.177511 155.121369,304.349218 C155.328398,304.764354 155.56591,305.163576 155.831952,305.543602 C156.009488,305.813914 156.211957,306.066999 156.436704,306.299542 C157.132168,306.979887 158.651607,307.327619 160.450743,307.599758 C161.667806,307.796302 163.013378,307.94749 164.306035,308.174272 C165.346591,308.327823 166.372989,308.565462 167.375149,308.884855 L167.375149,308.884855 C170.708842,310.585719 171.563054,314.932371 171.782276,317.101917 L171.782276,317.162393 C171.782276,317.600838 171.827633,318.016604 171.835192,318.409693 C171.842752,318.802781 171.895667,319.037123 171.895667,319.32438 Z" id="Path" stroke="#1D2A38" stroke-width="1.5" fill="#CC9679" fill-rule="nonzero" stroke-linecap="round" stroke-linejoin="round"></path>
                        <rect id="Rectangle" stroke="#1D2A38" stroke-width="1.5" fill="#FAF5EA" fill-rule="nonzero" stroke-linecap="round" stroke-linejoin="round" transform="translate(154.112190, 319.864876) rotate(-180.000000) translate(-154.112190, -319.864876) " x="136.328713" y="318.402133" width="35.5669546" height="2.92548596"></rect>
                        <path d="M151.568454,306.511205 C151.568454,306.511205 152.98206,304.092198 155.302795,304.364337 C156.504739,304.530643 155.711002,300.834099 152.883788,301.204509 C150.056574,301.57492 148.007978,304.228267 147.509058,305.740146 C147.010138,307.252025 147.577093,308.665632 149.088972,308.937771 C150.600851,309.209909 151.568454,306.511205 151.568454,306.511205 Z" id="Path" stroke="#1D2A38" stroke-width="1.5" fill="#FAF5EA" fill-rule="nonzero" stroke-linecap="round" stroke-linejoin="round"></path>
                        <path d="M156.663486,310.343818 C156.663486,310.343818 157.774717,307.773624 160.103011,307.758505 C161.327633,307.758505 160.103011,304.205589 157.328713,304.916172 C154.554415,305.626756 152.853551,308.506885 152.536056,310.033883 C152.218562,311.560881 152.951823,312.921572 154.48638,313.012285 C156.020937,313.102997 156.663486,310.343818 156.663486,310.343818 Z" id="Path" stroke="#1D2A38" stroke-width="1.5" fill="#FAF5EA" fill-rule="nonzero" stroke-linecap="round" stroke-linejoin="round"></path>
                        <path d="M115.525257,318.394574 L100.761758,318.394574 C100.761758,318.394574 100.761758,317.903213 100.837352,317.132155 L100.837352,317.086799 C101.056574,314.902133 101.910786,310.5706 105.244479,308.869736 L105.244479,308.869736 C106.178313,308.381857 107.214677,308.122767 108.268238,308.113797 L108.268238,308.113797 C115.910786,308.06844 115.525257,318.394574 115.525257,318.394574 Z" id="Path" stroke="#2E4257" stroke-width="1.5" fill="#FAF5EA" fill-rule="nonzero" stroke-linecap="round" stroke-linejoin="round"></path>
                        <path d="M171.895667,318.394574 L157.419425,318.394574 C157.419425,318.394574 156.746639,308.06844 164.328713,308.151594 L164.328713,308.151594 C165.377941,308.152124 166.412829,308.395323 167.352471,308.862177 L167.352471,308.862177 C170.686164,310.563041 171.540376,314.909693 171.759598,317.079239 L171.759598,317.139714 C171.826764,317.555348 171.872183,317.974204 171.895667,318.394574 Z" id="Path" stroke="#1D2A38" stroke-width="1.5" fill="#FAF5EA" fill-rule="nonzero" stroke-linecap="round" stroke-linejoin="round"></path>
                        <path d="M139.012298,301.491766 C139.012298,301.491766 141.000419,300.554401 141.74124,301.983127 C142.48206,303.411853 143.782276,306.722868 147.509058,305.702349" id="Path" stroke="#2E4257" stroke-width="1.5" stroke-linecap="round" stroke-linejoin="round"></path>
                        <path d="M125.450743,305.702349 C125.450743,305.702349 127.627849,306.874056 129.154847,305.407533 C130.681844,303.94101 131.248799,300.221788 133.690484,301.522004" id="Path" stroke="#2E4257" stroke-width="1.5" stroke-linecap="round" stroke-linejoin="round"></path>
                        <polyline id="Path" stroke="#1D2A38" stroke-width="1.5" stroke-linecap="round" stroke-linejoin="round" points="142.194803 137.702349 141.053335 149.729347 137.402147 284.105157 137.099771 292.685071"></polyline>
                        <polygon id="Path" stroke="#1D2A38" stroke-width="1.5" fill="#FAF5EA" fill-rule="nonzero" stroke-linecap="round" stroke-linejoin="round" points="116.976661 179.173192 127.499339 178.870816 129.056574 199.810341 117.98962 200.997166"></polygon>
                        <polygon id="Path" stroke="#1D2A38" stroke-width="1.5" fill="#FAF5EA" fill-rule="nonzero" stroke-linecap="round" stroke-linejoin="round" points="158.757438 176.837339 146.322233 176.837339 146.322233 201.102997 156.875149 201.904293"></polygon>
                        <path d="M120.453983,178.893494 L119.85679,169.232587" id="Path" stroke="#293B4C" stroke-width="1.5" stroke-linecap="round" stroke-linejoin="round"></path>
                        <path d="M124.558734,55.5921983 C124.558734,55.5921983 129.752039,64.8373387 135.020937,98.5900384 L151.893508,98.5900384 C151.893508,98.5900384 150.139728,72.532803 146.896747,61.057641 L156.663486,51.3891745 L130.160246,48.3654164 L124.558734,55.5921983 Z" id="Path" stroke="#2E4257" stroke-width="1.5" fill="#FAF5EA" fill-rule="nonzero" stroke-linecap="round" stroke-linejoin="round"></path>
                        <path d="M148.937784,23.1094769 C148.937784,23.1094769 153.11057,22.3535374 151.825473,18.8308592 C151.825473,18.8308592 156.799555,15.9431702 152.142968,12.0878786 C152.142968,12.0878786 155.748799,7.91509245 151.538216,6.62999525 C147.327633,5.34489806 151.024177,0.045761992 145.399987,1.17211188 C139.775797,2.29846178 141.098691,0.529563288 138.513378,0.045761992 C135.928065,-0.438039304 135.769317,3.06952009 134.166726,3.25850497 C132.564134,3.44748985 128.708842,0.688310588 127.899987,3.57599957 C127.091132,6.46368856 127.74124,6.78874255 125.337352,6.14619396 C122.933464,5.50364536 121.157006,5.66995206 121.157006,9.04144234 C121.157006,12.4129326 118.428065,7.11379655 116.825473,10.4852868 C115.222881,13.8567771 116.825473,15.4593689 116.825473,15.4593689 L109.266078,37.7747037 L124.558734,55.5921983 L129.411866,51.3438181 L148.937784,23.1094769 Z" id="Path" stroke="#1D2A38" stroke-width="1.5" fill="#6D4123" fill-rule="nonzero" stroke-linecap="round" stroke-linejoin="round"></path>
                        <path d="M147.554415,19.3071011 C147.554415,19.3071011 156.028497,41.7055892 156.625689,51.3891745 L142.194803,56.1289153 C139.113266,57.1380693 135.730065,56.5115505 133.214242,54.4658484 L127.582492,49.8772955 C127.582492,49.8772955 124.853551,51.0867987 120.620289,46.8535374 C116.387028,42.620276 120.317914,38.3718959 124.551175,40.1937102 C124.551175,40.1937102 120.015538,29.2930622 123.644047,28.6883106 C127.272557,28.083559 129.094371,27.7811832 128.791996,23.5403624 C128.48962,19.2995417 134.24232,19.9118527 135.451823,23.8427382 C136.661326,27.7736238 139.685084,23.7671443 140.599771,21.2347469 C141.514458,18.7023495 146.36003,16.0490017 147.554415,19.3071011 Z" id="Path" stroke="#1D2A38" stroke-width="1.5" fill="#FAF5EA" fill-rule="nonzero" stroke-linecap="round" stroke-linejoin="round"></path>
                        <path d="M129.381628,51.32114 L137.35679,62.2142285 L146.579253,61.7228678 L156.633248,51.3664963 L141.393508,56.370816 C138.815481,57.2183415 135.983295,56.6940739 133.879469,54.9798873 L129.381628,51.32114 Z" id="Path" fill="#1D2A38" fill-rule="nonzero"></path>
                        <path d="M125.125689,70.3254596 L148.559814,68.2088289 L155.053335,75.9269715 L163.799555,143.545762 C163.799555,144.142954 148.680765,156.835179 148.680765,156.835179 L143.389188,139.955049 L137.092212,158.044682 C137.092212,158.044682 124.082492,153.977727 118.949663,150.32654 C102.636488,138.564121 125.125689,70.3254596 125.125689,70.3254596 Z" id="Path" stroke="#1D2A38" stroke-width="1.5" fill="#FFFFFF" fill-rule="nonzero" stroke-linecap="round" stroke-linejoin="round"></path>
                        <path d="M150.910786,88.7477058 C150.910786,88.7477058 151.49286,189.166712 144.583572,211.965848 L156.943184,214.188311 C156.943184,214.188311 166.188324,102.543602 150.910786,88.7477058 Z" id="Path" fill="#1D2A38" fill-rule="nonzero"></path>
                        <path d="M166.173205,78.3308592 L154.040376,70.9755676 L155.023097,143.666712 C155.023097,143.666712 148.582492,199.462609 146.314674,209.493926 C146.314674,209.493926 165.712082,215.171032 168.932384,209.493926 C168.947503,209.463689 174.692644,102.377295 166.173205,78.3308592 Z" id="Path" stroke="#1D2A38" stroke-width="1.5" fill="#FFF8DC" fill-rule="nonzero" stroke-linecap="round" stroke-linejoin="round"></path>
                        <path d="M148.189404,66.4399305 C148.189404,66.4399305 155.748799,123.279023 155.038216,143.628915 L165.077093,111.32006 L159.959382,101.56844 L165.077093,97.1764315 L156.761758,70.1667123 L148.189404,66.4399305 Z" id="Path" stroke="#1D2A38" stroke-width="1.5" fill="#FFE6BD" fill-rule="nonzero" stroke-linecap="round" stroke-linejoin="round"></path>
                        <path d="M171.041456,132.56952 L166.415106,134.081399 L170.247719,154.438851 C170.247719,154.438851 172.36435,138.405373 171.041456,132.56952 Z" id="Path" stroke="#1D2A38" stroke-width="1.5" fill="#FAF5EA" fill-rule="nonzero" stroke-linecap="round" stroke-linejoin="round"></path>
                        <circle id="Oval" stroke="#1D2A38" fill="#FAF5EA" fill-rule="nonzero" stroke-linecap="round" stroke-linejoin="round" cx="126.372989" cy="47.458289" r="1.55723542"></circle>
                        <path d="M118.465862,71.8902544 L103.505819,77.5749197 C103.505819,77.5749197 111.647287,126.038203 108.99394,144.218548 C106.340592,162.398894 97.2315205,203.869736 97.2315205,203.869736 C97.2315205,203.869736 108.668886,212.683991 123.250959,208.405373 C123.250959,208.405373 132.874069,175.007965 136.290916,143.651594 C138.052255,127.459369 137.046855,111.304941 134.552255,101.636475 C127.36327,73.2433862 118.465862,71.8902544 118.465862,71.8902544 Z" id="Path" stroke="#1D2A38" stroke-width="1.5" fill="#FFF8DC" fill-rule="nonzero" stroke-linecap="round" stroke-linejoin="round"></path>
                        <path d="M128.338432,66.1904704 L117.248799,69.970168 L116.23584,98.9982458 L123.394587,100.290902 L118.103011,112.212069 L136.336272,143.651594 C136.336272,143.651594 142.905387,124.647274 128.338432,66.1904704 Z" id="Path" stroke="#1D2A38" stroke-width="1.5" fill="#FFE6BD" fill-rule="nonzero" stroke-linecap="round" stroke-linejoin="round"></path>
                        <path d="M114.300635,100.275784 C114.300635,100.275784 112.970181,78.5198441 103.505819,77.5975978 C103.505819,77.5975978 95.1904838,78.1645525 90.6548466,142.532803 C90.6548466,142.532803 92.7487991,149.162393 116.220721,152.94965 C116.220721,152.94965 121.897827,144.634315 120.476661,134.051162 L111.291996,131.216388 L114.300635,100.275784 Z" id="Path" stroke="#1D2A38" stroke-width="1.5" fill="#FFE6BD" fill-rule="nonzero" stroke-linecap="round" stroke-linejoin="round"></path>
                        <path d="M120.453983,133.990686 L119.826553,131.420492 L125.269317,130.611637 C125.269317,130.611637 130.009058,143.409693 119.826553,158.022004 L114.693724,154.69587 C114.693724,154.69587 121.081413,148.557641 120.453983,133.990686 Z" id="Path" stroke="#1D2A38" stroke-width="1.5" fill="#FAF5EA" fill-rule="nonzero" stroke-linecap="round" stroke-linejoin="round"></path>
                        <polygon id="Path" stroke="#1D2A38" stroke-width="1.5" fill="#FFFFFF" fill-rule="nonzero" stroke-linecap="round" stroke-linejoin="round" points="127.469101 63.3934942 147.131089 62.0403624 148.544695 68.2088289 129.222881 69.9550492"></polygon>
                        <path d="M141.189404,70.4388505 C143.517923,91.82076 144.275894,113.3446 143.457222,134.837339" id="Path" stroke="#1D2A38" stroke-width="1.5" stroke-linecap="round" stroke-linejoin="round"></path>
                        <circle id="Oval" stroke="#1D2A38" stroke-width="1.5" stroke-linecap="round" stroke-linejoin="round" cx="134.98314" cy="35.8017015" r="7.05291577"></circle>
                        <circle id="Oval" stroke="#1D2A38" stroke-width="1.5" stroke-linecap="round" stroke-linejoin="round" cx="150.850311" cy="30.5403624" r="7.05291577"></circle>
                        <path d="M144.024177,32.3092609 L141.522017,33.1559132" id="Path" stroke="#1D2A38" stroke-width="1.5" stroke-linecap="round" stroke-linejoin="round"></path>
                        <path d="M128.209922,37.7747037 L124.543616,40.1937102" id="Path" stroke="#1D2A38" stroke-width="1.5" stroke-linecap="round" stroke-linejoin="round"></path>
                        <path d="M157.351391,27.7963019 L151.712082,31.2433862" id="Path" stroke="#1D2A38" stroke-width="1.5" stroke-linecap="round" stroke-linejoin="round"></path>
                        <rect id="Rectangle" stroke="#293B4C" stroke-width="1.5" fill="#CEB06E" fill-rule="nonzero" stroke-linecap="round" stroke-linejoin="round" x="51.2023628" y="159.390254" width="22.549676" height="31.8930886"></rect>
                        <path d="M22.3859481,96.9723279 C22.3859481,96.9723279 13.5414557,100.381615 13.0349762,117.979887 C12.5284967,135.578159 19.4453434,144.437771 19.4453434,144.437771 C19.4453434,144.437771 19.4831404,109.770384 22.3859481,96.9723279 Z" id="Path" stroke="#1D2A38" stroke-width="1.5" fill="#39605C" fill-rule="nonzero" stroke-linecap="round" stroke-linejoin="round"></path>
                        <path d="M52.8276328,36.345978 C52.8276328,36.345978 53.4853002,31.7271875 58.0738531,32.9215719 C58.0738531,32.9215719 58.6937235,27.7358268 62.9950194,29.7466259 C62.9950194,29.7466259 67.2056026,26.5943581 69.7304406,30.7217879 C69.7304406,30.7217879 75.6645659,29.5652004 75.1051706,35.4464099 C75.1051706,35.4464099 78.7563585,38.5684402 76.1030108,41.32006 C76.1030108,41.32006 78.3708294,44.9032134 75.3470713,47.2390665 C75.3470713,47.2390665 75.3470713,51.5554812 71.249879,51.3740557 C71.249879,51.3740557 70.6980432,55.2217879 65.6483672,53.4680082 C65.6483672,53.4680082 62.450743,56.9982458 59.7520389,53.8762156 C59.7520389,53.8762156 55.2164017,56.3859348 53.1678056,52.8859348 C51.1192095,49.3859348 47.5738531,39.7628246 52.8276328,36.345978 Z" id="Path" stroke="#1D2A38" stroke-width="1.5" fill="#EFC36A" fill-rule="nonzero" stroke-linecap="round" stroke-linejoin="round"></path>
                        <path d="M53.6591663,171.19047 C53.4172656,167.342738 53.1300086,164.258505 52.7898358,162.119196 L27.4885399,168.128915 L31.5781728,247.978807 L37.0284967,336.370816 L52.8351922,337.3233 C52.8351922,337.3233 55.3222332,258.592198 54.7099222,205.956129" id="Path" stroke="#1D2A38" stroke-width="1.5" fill="#CEB06E" fill-rule="nonzero" stroke-linecap="round" stroke-linejoin="round"></path>
                        <polyline id="Path" stroke="#1D2A38" stroke-width="1.5" fill="#CEB06E" fill-rule="nonzero" stroke-linecap="round" stroke-linejoin="round" points="47.1580864 188.652673 52.5479352 243.057641 61.6418877 336.370816 76.8135939 336.370816 76.2390799 242.8233 75.4529028 168.937771"></polyline>
                        <path d="M31.1926436,167.123516 C31.1926436,167.123516 42.4863801,187.972328 63.1764449,166.677511 C83.8665097,145.382695 63.1764449,93.3513775 63.1764449,93.3513775 L44.4971792,91.8848549 L22.3859481,101.137555 L23.0360561,164.908613 L31.1926436,167.123516 Z" id="Path" stroke="#1D2A38" stroke-width="1.5" fill="#FFFFFF" fill-rule="nonzero" stroke-linecap="round" stroke-linejoin="round"></path>
                        <path d="M17.3816285,43.9507296 C17.3816285,43.9507296 14.9475032,80.3718959 18.7725572,81.7477058 C22.5976112,83.1235158 31.9712613,80.3340989 34.3978272,82.7909024 C36.8243931,85.2477058 35.7056026,98.8470579 35.7056026,98.8470579 C35.7056026,98.8470579 37.1796846,106.043602 46.9086263,101.870816 C56.637568,97.6980298 55.9799006,92.232587 55.9799006,92.232587 C55.9799006,92.232587 53.3643499,76.2217879 55.450743,72.5781594 C57.5371361,68.9345309 68.0824924,47.057641 56.962622,41.5014855 C45.8427516,35.94533 18.0392959,29.3988937 17.3816285,43.9507296 Z" id="Path" stroke="#1D2A38" stroke-width="1.5" fill="#FAF5EA" fill-rule="nonzero" stroke-linecap="round" stroke-linejoin="round"></path>
                        <path d="M17.4269849,43.3232998 C17.4269849,43.3232998 23.4291447,36.3384186 28.9853002,39.845978 C34.5414557,43.3535374 34.3902678,60.1429542 46.0695335,59.2660644 C46.0695335,59.2660644 46.2207214,53.2790233 52.2077624,52.9917663 C58.1948034,52.7045093 58.1948034,66.5986778 48.700203,69.3502976 C48.700203,69.3502976 48.2617581,75.4809672 54.2487991,75.7757836 C60.2358402,76.0706 64.7639179,72.5630406 65.7919957,63.6807512 C66.8200734,54.7984618 67.9388639,35.8017015 50.6732052,32.1505136 C33.4075464,28.4993257 25.5533348,27.2671443 22.0457754,30.4798873 C22.0457754,30.4798873 19.0220173,27.4561292 14.3427516,30.5252436 C14.3427516,30.5252436 9.52741683,28.045762 7.63000862,33.1559132 C7.63000862,33.1559132 0.766077737,34.9096929 3.850311,41.471248 C3.850311,41.471248 -1.84191362,44.245546 1.95290279,51.5479218 C1.95290279,51.5479218 -3.33867388,59.0014855 6.62460905,62.0630406 C6.62460905,62.0630406 6.14080776,70.3783754 16.6105702,64.5500816 C16.6181296,64.5274035 16.5349762,48.7055892 17.4269849,43.3232998 Z" id="Path" stroke="#1D2A38" stroke-width="1.5" fill="#EFC36A" fill-rule="nonzero" stroke-linecap="round" stroke-linejoin="round"></path>
                        <path d="M36.000419,92.1418743 C36.000419,92.1418743 37.2552786,95.0144445 35.6678056,99.308181 C33.762838,104.471248 23.4442635,116.505805 27.2315205,126.854617 C31.0187775,137.203429 31.925905,178.167792 37.5198574,204.020924 C37.5198574,204.020924 23.912946,206.341658 19.6570065,193.520924 C19.6570065,193.520924 13.0047386,107.041442 22.3859481,96.9723279 C22.3859481,96.9723279 31.6310885,92.4442501 36.000419,92.1418743 Z" id="Path" stroke="#1D2A38" stroke-width="1.5" fill="#39605C" fill-rule="nonzero" stroke-linecap="round" stroke-linejoin="round"></path>
                        <path d="M55.8891879,89.745546 C55.8891879,89.745546 60.6516069,166.095438 57.1289287,204.020924 C57.1289287,204.020924 80.1321685,202.115956 87.1699654,195.372976 C94.2077624,188.629995 84.1915637,108.530643 82.5738531,98.7865827 C82.5738531,98.7865827 73.5857322,89.8740557 55.8891879,89.745546 Z" id="Path" stroke="#1D2A38" stroke-width="1.5" fill="#39605C" fill-rule="nonzero" stroke-linecap="round" stroke-linejoin="round"></path>
                        <path d="M78.8092743,95.9744877 C78.8092743,95.9744877 72.5425356,96.9723279 72.8297926,109.07492 C73.0036587,116.460449 75.8081944,136.288743 82.0295767,152.163473 L89.6494471,176.867576 C89.6494471,176.867576 93.5047386,172.634315 95.9388639,164.243386 C98.3729892,155.852457 97.6775248,138.866496 97.6775248,138.866496 C97.6775248,138.866496 91.9701814,95.0975978 78.8092743,95.9744877 Z" id="Path" stroke="#1D2A38" stroke-width="1.5" fill="#39605C" fill-rule="nonzero" stroke-linecap="round" stroke-linejoin="round"></path>
                        <path d="M32.9539827,104.456129 C32.9539827,104.456129 31.3287127,114.774704 40.0371361,114.774704 C48.2839031,114.56716 55.2033078,108.49399 56.4788207,100.343818" id="Path" stroke="#1D2A38" stroke-width="1.5" stroke-linecap="round" stroke-linejoin="round"></path>
                        <polygon id="Path" stroke="#1D2A38" stroke-width="1.5" fill="#FFFFFF" fill-rule="nonzero" stroke-linecap="round" stroke-linejoin="round" points="36.9982592 336.370816 19.7326004 346.001486 19.7326004 349.471248 53.3038747 349.471248 52.8049546 337.3233"></polygon>
                        <polygon id="Path" stroke="#293B4C" stroke-width="1.5" fill="#FFFFFF" fill-rule="nonzero" stroke-linecap="round" stroke-linejoin="round" points="61.6418877 336.370816 56.6073304 346.152673 56.6073304 349.471248 78.0835723 349.471248 76.8135939 336.370816"></polygon>
                        <circle id="Oval" stroke="#1D2A38" stroke-width="1.5" fill="#FFFFFF" fill-rule="nonzero" stroke-linecap="round" stroke-linejoin="round" cx="49.9777408" cy="64.2401464" r="2.03347732"></circle>
                        <path d="M67.3416717,173.783343 C74.2556069,173.61608 81.129298,172.677952 87.8351922,170.986367 L89.6494471,176.867576 C89.6494471,176.867576 81.9539827,179.777943 67.3416717,180.904293 L67.3416717,173.783343 Z" id="Path" stroke="#1D2A38" stroke-width="1.5" fill="#FFFFFF" fill-rule="nonzero" stroke-linecap="round" stroke-linejoin="round"></path>
                        <path d="M19.7326004,346.001486 L53.1602462,346.001486" id="Path" stroke="#1D2A38" stroke-width="1.5" fill="#FFFFFF" fill-rule="nonzero" stroke-linecap="round" stroke-linejoin="round"></path>
                        <path d="M56.6073304,346.152673 L77.7660777,346.152673" id="Path" stroke="#2E4257" stroke-width="1.5" fill="#FFFFFF" fill-rule="nonzero" stroke-linecap="round" stroke-linejoin="round"></path>
                        <path d="M172.855711,258.168872 L171.328713,274.028483" id="Path"></path>
                        <path d="M163.716402,282.495006 L185.729361,284.112717" id="Path"></path>
                    </g>
                    <g id="Group-11" transform="translate(0.000000, 107.187302)">
                        <g id="Group-9" transform="translate(0.000000, 0.038933)">
                            <path d="M45.0978967,5.14123712 L45.0978967,68.0270298 C45.1052325,69.9221457 44.0651685,71.6663238 42.3943787,72.5607401 C35.1218613,76.3291164 28.2382191,80.8046859 21.8431534,85.9226253 L21.6996058,86.0422483 C8.02670094,74.857501 0.311019709,62.1176553 0.311019709,48.7079209 C0.311019709,48.0021454 0.311019709,47.2844076 0.382793488,46.5786321 C1.41155099,29.4605859 14.9767952,13.6344676 37.322365,0.715187419 C38.9140556,-0.223849594 40.886599,-0.239155075 42.4926695,0.675069672 C44.09874,1.58929442 45.0926557,3.29319971 45.0978967,5.14123712 Z" id="Path" stroke="#1D2A38" stroke-width="1.5" fill="#FFD701" fill-rule="nonzero"></path>
                            <path d="M15.3595887,80.3123082 C15.3595887,80.3123082 -3.25374464,64.9766441 19.6181662,54.4139363" id="Path" stroke="#334258" stroke-width="1.5" stroke-linecap="round"></path>
                            <path d="M182.652305,135.039815 L182.652305,199.385007 C182.650023,200.784137 182.079211,202.12226 181.070888,203.092235 C180.062564,204.062211 178.703326,204.580737 177.305159,204.528795 C79.4057241,201.179352 1.81826907,167.445676 9.09494702e-13,125.398204 L9.09494702e-13,124.871863 L0.334944302,46.4709715 L0.334944302,46.5786321 C0.334944302,47.2844076 0.263170523,48.0021454 0.263170523,48.7079209 C0.263170523,62.1535422 7.97885176,74.857501 21.6517566,86.0422483 L21.8192288,86.1738335 C51.72497,110.469258 109.682296,127.623191 177.592254,129.884065 C180.399526,129.942556 182.646415,132.23194 182.652305,135.039815 Z" id="Path" stroke="#334258" stroke-width="1.5" fill-opacity="0.6" fill="#FFD701" fill-rule="nonzero"></path>
                            <path d="M32.4656727,111.605676 C49.2128877,122.25212 71.7020051,131.128144 98.0788689,137.456199" id="Path" stroke="#334258" stroke-width="2" opacity="0.5" stroke-linecap="round"></path>
                            <path d="M32.4656727,126.080055 C49.2128877,136.726498 71.7020051,145.614485 98.0788689,151.930577" id="Path" stroke="#334258" opacity="0.5" stroke-linecap="round"></path>
                            <path d="M32.4656727,140.566396 C49.2128877,151.200877 71.7020051,160.088864 98.0788689,166.404956" id="Path" stroke="#334258" opacity="0.5" stroke-linecap="round"></path>
                            <path d="M32.4656727,155.040774 C49.2128877,165.675256 71.7020051,174.563242 98.0788689,180.891297" id="Path" stroke="#334258" opacity="0.5" stroke-linecap="round"></path>
                            <circle id="Oval" stroke="#334258" stroke-width="1.5" opacity="0.5" cx="135.592631" cy="164.981443" r="27.597018"></circle>
                        </g>
                        <g id="Group-10" transform="translate(203.454739, 0.000000)">
                            <path d="M182.353248,48.7468544 C182.353248,62.1087395 174.721302,74.717 161.21587,85.8299735 L160.964662,86.0452948 C154.531271,80.8752981 147.598773,76.3591562 140.269889,72.5637867 C138.592554,71.6745994 137.546742,69.9285088 137.554405,68.0300763 L137.554405,5.14428366 C137.562821,3.29728851 138.556321,1.59518562 140.160434,0.679607416 C141.764547,-0.235970789 143.735357,-0.225805372 145.32994,0.706271665 C168.608569,14.1997421 182.353248,30.8034096 182.353248,48.7468544 Z" id="Path" stroke="#1D2A38" stroke-width="1.5" fill="#FFD701" fill-rule="nonzero"></path>
                            <path d="M182.353248,48.7468544 L182.353248,123.391584 C182.353248,124.456229 182.293436,125.508911 182.2097,126.561593 C178.477464,167.867403 101.978578,201.266135 5.34714653,204.567728 C3.94897933,204.61967 2.58974092,204.101145 1.5814173,203.131169 C0.573093686,202.161193 0.00228176159,200.823071 -1.53477231e-12,199.423941 L-1.53477231e-12,135.078748 C0.0114176112,132.291524 2.22641119,130.013094 5.01220223,129.922998 C73.0537446,127.662124 131.154619,110.44838 160.964662,86.0811817 L161.21587,85.8658604 C174.721302,74.717 182.353248,62.1087395 182.353248,48.7468544 Z" id="Path" stroke="#334258" stroke-width="1.5" fill-opacity="0.6" fill="#FFD701" fill-rule="nonzero"></path>
                            <path d="M110.854602,132.423118 C82.025467,142.292013 46.2582005,148.715766 7.24915167,150.211053" id="Path" stroke="#334258" stroke-width="2" opacity="0.5" stroke-linecap="round"></path>
                            <path d="M110.854602,145.545758 C82.025467,155.414652 46.2582005,161.838405 7.24915167,163.333692" id="Path" stroke="#1D2A38" opacity="0.3" stroke-linecap="round"></path>
                            <path d="M110.854602,158.656434 C82.025467,168.537291 46.2582005,174.949082 7.24915167,176.444369" id="Path" stroke="#1D2A38" opacity="0.3" stroke-linecap="round"></path>
                            <path d="M110.854602,171.779074 C82.025467,181.647968 46.2582005,188.071722 7.24915167,189.567009" id="Path" stroke="#1D2A38" opacity="0.3" stroke-linecap="round"></path>
                            <ellipse id="Oval" stroke="#334258" stroke-width="1.5" opacity="0.5" transform="translate(150.064445, 129.929886) rotate(-360.000000) translate(-150.064445, -129.929886) " cx="150.064445" cy="129.929886" rx="12" ry="18.6666667"></ellipse>
                        </g>
                    </g>
                    <polygon id="Path" stroke="#334258" stroke-width="0.86" fill="#F3EFE5" fill-rule="nonzero" points="21.867078 193.400069 21.6996058 193.268483 21.8431534 193.14886"></polygon>
                    <path d="M22.7522879,160.132922 L20.9938303,160.312356 L19.8574122,161.125793 C19.8063687,161.1527 19.7744199,161.205658 19.7744199,161.263359 C19.7744199,161.32106 19.8063687,161.374018 19.8574122,161.400925 L21.0536418,161.89138 L22.836024,161.676058 L22.7522879,160.132922 Z" id="Path" fill="#1D2A38" fill-rule="nonzero"></path>
                    <path d="M21.0656041,162.202399 L19.7856384,161.688021 C19.6431665,161.626516 19.5433115,161.494889 19.5224679,161.341114 C19.506056,161.190012 19.5752643,161.042368 19.7019023,160.95832 L20.898132,160.097035 L22.9915338,159.893676 L23.1709683,161.963153 L21.0656041,162.202399 Z M20.1684319,161.26934 L21.1373779,161.664096 L22.5967781,161.496624 L22.513042,160.479829 L21.0895287,160.611414 L20.1684319,161.26934 Z" id="Shape" fill="#2D4256" fill-rule="nonzero"></path>
                    <path d="M68.9985261,170.241063 L68.9985261,182.992871" id="Path" fill="#FFFFFF" fill-rule="nonzero"></path>
                    <path d="M71.1397772,170.241063 L71.1397772,182.992871" id="Path" fill="#FFFFFF" fill-rule="nonzero"></path>
                    <path d="M385.664439,233.748895 C385.748175,232.696213 385.807986,231.64353 385.807986,230.578886 L385.807986,233.760857 L385.664439,233.748895 Z" id="Path" stroke="#334258" stroke-width="0.86" fill="#F3EFE5" fill-rule="nonzero"></path>
                    <circle id="Oval" fill="#FFFFFF" fill-rule="nonzero" cx="97.9831705" cy="243.10341" r="1.73453299"></circle>
                    <circle id="Oval" stroke="#334258" stroke-width="1.5" fill="#FFD701" cx="43.4280377" cy="38" r="16.6666667"></circle>
                    <circle id="Oval-Copy-4" stroke="#334258" stroke-width="1.5" fill="#FFD701" cx="206.761371" cy="6.66666667" r="6.66666667"></circle>
                    <circle id="Oval" stroke="#334258" stroke-width="1.5" cx="84.1427935" cy="42.5435476" r="5.64620394"></circle>
                    <circle id="Oval" stroke="#334258" stroke-width="1.5" cx="95.0742416" cy="318.979537" r="5.64620394"></circle>
                    <circle id="Oval" stroke="#334258" stroke-width="1.5" fill="#FFD701" cx="59.7172322" cy="146.646204" r="5.64620394"></circle>
                    <circle id="Oval" stroke="#334258" cx="311.23503" cy="61.5277121" r="2.82310197"></circle>
                    <circle id="Oval" stroke="#334258" stroke-width="1.5" cx="302.131722" cy="45.8571037" r="9.10330763"></circle>
                    <circle id="Oval" stroke="#334258" stroke-width="1.5" cx="407.864679" cy="341.103308" r="9.10330763"></circle>
                    <circle id="Oval" stroke="#334258" stroke-width="1.5" fill-opacity="0.363882212" fill="#FFD701" cx="426.096041" cy="115.576247" r="12.0460326"></circle>
                    <circle id="Oval" stroke="#334258" stroke-width="1.5" fill-opacity="0.363882212" fill="#FFD701" cx="379.050009" cy="48.5302142" r="5"></circle>
                    <circle id="Oval" stroke="#334258" stroke-width="1.5" fill="#FFD701" cx="344.071028" cy="348" r="25"></circle>
                    <ellipse id="Oval" fill="#FFFFFF" opacity="0.779999971" cx="355.571028" cy="348.5" rx="9.5" ry="10.5"></ellipse>
                </g>
                <g id="Group-7" transform="translate(44.571429, 181.000000) scale(-1, 1) translate(-44.571429, -181.000000) translate(0.000000, 133.000000)">
                    <path d="M6.55790213,67.3160577 C14.0993653,80.5751865 22.5183704,82.900332 31.8149176,74.2914941" id="Path-8" stroke="#1D2A38" stroke-width="1.5"></path>
                    <circle id="Oval" stroke="#1D2A38" stroke-width="1.5" fill="#FFFFFF" fill-rule="nonzero" cx="53.803352" cy="51.5426662" r="31.0677929"></circle>
                    <path d="M87.7010824,50.9428425 L87.7010824,50.9428425 C87.6911134,52.8308536 86.7009997,54.5781131 85.0864662,55.5568711 C73.3668335,62.6163349 71.5058419,51.9271686 70.1677736,46.7440764 C68.8297053,41.5609842 61.8779021,44.0987 60.724395,44.5447227 L60.3245125,44.6677635 C39.7613248,50.8198017 29.4566608,51.0505031 24.3043289,50.0354168 C22.8391617,49.7466241 21.5507638,48.8828853 20.7270728,47.6372333 C19.9033817,46.3915813 19.6130641,44.867859 19.9210016,43.4065957 C20.2962206,41.686165 20.8105822,39.9990592 21.4590112,38.3619243 C27.4490794,22.9833836 43.546428,14.0555675 59.7638533,17.1175198 C75.9812786,20.1794721 87.7152452,34.3620163 87.6857023,50.865942 L87.7010824,50.9428425 Z" id="Path" stroke="#1D2A38" stroke-width="1.5" fill="#FFD701" fill-rule="nonzero"></path>
                    <circle id="Oval" stroke="#1D2A38" stroke-width="1.5" fill="#FFD701" fill-rule="nonzero" cx="29.3797604" cy="60.047859" r="4.98315094"></circle>
                    <rect id="Rectangle" stroke="#1D2A38" stroke-width="1.5" fill="#FFFFFF" fill-rule="nonzero" stroke-linejoin="round" x="47.8820152" y="70.3832831" width="34.466794" height="21.8704958"></rect>
                    <rect id="Rectangle" fill="#FFFFFF" fill-rule="nonzero" x="51.0041746" y="73.4746823" width="3.79888358" height="15.6107969"></rect>
                    <rect id="Rectangle" fill="#1D2A38" fill-rule="nonzero" x="57.2331133" y="73.1670804" width="1.0150863" height="16.3951818"></rect>
                    <rect id="Rectangle" fill="#1D2A38" fill-rule="nonzero" x="59.9707703" y="73.1670804" width="1.0150863" height="16.3951818"></rect>
                    <rect id="Rectangle" fill="#1D2A38" fill-rule="nonzero" x="62.7238074" y="73.1670804" width="1.0150863" height="16.3951818"></rect>
                    <path d="M67.7377185,85.332736 C66.7598737,83.5717655 64.6319051,82.8033324 62.7545676,83.5332648 C59.0941048,84.5175909 59.4017068,91.9307969 60.6782547,93.4534264 C61.9548026,94.9760558 66.2458492,95.2375174 67.814619,94.3147117 C69.3833887,93.391906 69.1680674,92.4075799 69.1680674,92.4075799 L67.9530398,92.4075799 C68.1742593,90.049473 68.1019326,87.6730253 67.7377185,85.332736 L67.7377185,85.332736 Z" id="Path" stroke="#1D2A38" stroke-width="1.5" fill="#FFD701" fill-rule="nonzero"></path>
                    <rect id="Rectangle" fill="#FFFFFF" fill-rule="nonzero" x="75.9045492" y="73.4746823" width="3.69122292" height="5.64449504"></rect>
                    <path d="M6.67873944,66.9996621 C1.83400936,69.2143959 -2.41089699,59.1404333 1.58792783,57.310202 C4.26898766,55.9615455 7.53657468,56.9737502 8.98575376,59.6018362 C9.68793457,60.8835332 9.83881168,62.3956433 9.40372672,63.7908157 C8.96864176,65.1859882 7.9849939,66.3442963 6.67873944,66.9996621 L6.67873944,66.9996621 Z" id="Path" stroke="#1D2A38" stroke-width="1.5" fill="#FFD701" fill-rule="nonzero"></path>
                    <path d="M4.89915754,59.4085141 L18.1567998,59.4085141 C18.5560269,59.4085141 18.8796643,59.8939703 18.8796643,60.4928109 L18.8796643,60.4928109 C18.8796643,61.0916514 18.5560269,61.5771076 18.1567998,61.5771076 L4.89915754,61.5771076 C4.84819239,61.5771076 4.80687697,61.5151345 4.80687697,61.4386867 L4.80687697,59.546935 C4.80687697,59.4704873 4.84819239,59.4085141 4.89915754,59.4085141 L4.89915754,59.4085141 Z" id="Path" fill="#1D2A38" fill-rule="nonzero" transform="translate(11.843271, 60.492811) rotate(-6.960000) translate(-11.843271, -60.492811) "></path>
                    <path d="M46.7746484,17.2296732 L44.7448283,7.71428571" id="Path" stroke="#1D2A38" stroke-width="1.5" stroke-linecap="round"></path>
                    <ellipse id="Oval" stroke="#1D2A38" stroke-width="1.5" fill="#FFFFFF" fill-rule="nonzero" transform="translate(43.887685, 5.689445) rotate(-9.080000) translate(-43.887685, -5.689445) " cx="43.8876855" cy="5.68944546" rx="20.5714286" ry="2.26087404"></ellipse>
                    <path d="M85.209507,38.0235622 C80.2724963,29.6875505 68.937366,28.7032244 53.7572117,36.3009916 C39.0692205,43.621917 22.9047402,38.8233272 21.4590112,38.3773044 C26.579493,25.2961854 39.159201,16.6599884 53.2065827,16.5820227 C67.2539643,16.504057 79.9287596,25.0000866 85.1941269,38.0235622 L85.209507,38.0235622 Z" id="Path" fill="#161616" fill-rule="nonzero" style="mix-blend-mode: color-dodge;"></path>
                    <path d="M72.5209282,53.6497393 C74.967292,53.9077308 77.4404575,53.6241831 79.7649532,52.8192141 C83.0716737,51.4811458 87.0551184,50.2968784 87.7010824,48.7281087" id="Path" stroke="#1D2A38"></path>
                    <path d="M34.3782914,22.351245 C42.8867018,22.0343656 51.2777229,20.2604423 59.1863854,17.1066324" id="Path" stroke="#1D2A38"></path>
                </g>
                <g id="Group-6" transform="translate(17.000000, 296.000000)">
                    <path d="M52.9749293,2.41337872 C52.2429657,0.798497413 50.5579213,-0.164960987 48.7949293,0.0233787167 C47.7019779,0.187210631 46.7364493,0.823581787 46.1549293,1.76337872 C44.0349293,4.96337872 44.6249293,12.9833787 50.0649293,16.3633787 C54.6149293,19.1833787 61.6249293,15.0933787 61.2249293,10.5233787 C60.8249293,5.95337872 56.7849293,9.96337872 56.7849293,9.96337872 L52.9749293,2.41337872 Z" id="Path" stroke="#1D2A38" stroke-width="1.5" fill="#FFD700" fill-rule="nonzero" stroke-linecap="round" stroke-linejoin="round"></path>
                    <path d="M59.2349293,53.0633787 L53.2049293,14.2633787" id="Path" stroke="#1D2A38" stroke-width="1.5" fill="#FFD700" fill-rule="nonzero" stroke-linecap="round" stroke-linejoin="round"></path>
                    <circle id="Oval" stroke="#1D2A38" stroke-width="1.5" fill="#FFFFFF" fill-rule="nonzero" cx="81.3549293" cy="77.7333787" r="35.87"></circle>
                    <path d="M107.154929,73.3133787 C102.154929,71.6833787 97.4049293,76.7933787 102.154929,87.5233787 C105.034929,93.9333787 99.7549293,112.523379 69.8049293,110.953379 C62.572288,110.595919 55.8024877,107.288729 51.0749293,101.803379 C45.2632903,94.995706 42.0095593,86.373319 41.8749293,77.4233787 C41.6083821,61.5765902 51.0630242,47.1797668 65.7109937,41.1275985 C80.3589633,35.0754302 97.2182691,38.5999999 108.214929,50.0133787 C110.732238,52.6563562 112.108079,56.1839702 112.044929,59.8333787 C112.034929,65.8633787 111.254929,74.7033787 107.154929,73.3133787 Z" id="Path" stroke="#1D2A38" stroke-width="1.5" fill="#FFD700" fill-rule="nonzero"></path>
                    <path d="M107.794929,88.9633787 C107.794929,88.9633787 125.624929,113.963379 144.384929,105.523379" id="Path" stroke="#1D2A38" stroke-width="1.5" stroke-linecap="round" stroke-linejoin="round"></path>
                    <path d="M150.664929,109.883379 C150.434929,109.673379 144.884929,111.273379 144.234929,106.333379 C143.584929,101.393379 151.474929,99.5933787 153.364929,100.403379 C156.364929,101.673379 159.684929,103.173379 160.224929,105.873379 C160.764929,108.573379 156.294929,115.043379 150.664929,109.883379 Z" id="Path" stroke="#1D2A38" stroke-width="1.5" fill="#FFD700" fill-rule="nonzero" stroke-linecap="round" stroke-linejoin="round"></path>
                    <ellipse id="Oval" stroke="#2E4257" stroke-width="1.5" fill="#FFD700" fill-rule="nonzero" transform="translate(62.891215, 63.422647) rotate(-55.770000) translate(-62.891215, -63.422647) " cx="62.8912153" cy="63.4226472" rx="19.2" ry="15.78"></ellipse>
                    <ellipse id="Oval" fill="#26241B" fill-rule="nonzero" opacity="0.7" style="mix-blend-mode: color-dodge;" transform="translate(66.261776, 67.537285) rotate(-65.710000) translate(-66.261776, -67.537285) " cx="66.2617764" cy="67.5372852" rx="26.9" ry="21.47"></ellipse>
                    <path d="M65.3649293,64.7133787 L39.3049293,53.0633787" id="Path" stroke="#2E4257" stroke-width="2.1" stroke-linecap="round"></path>
                    <ellipse id="Oval" stroke="#1D2A38" stroke-width="1.5" fill="#FFFFFF" fill-rule="nonzero" opacity="0.8" transform="translate(39.000000, 56.453829) rotate(-55.770000) translate(-39.000000, -56.453829) " cx="39" cy="56.4538294" rx="33" ry="24.05"></ellipse>
                    <ellipse id="Oval" fill="#FFFFFF" fill-rule="nonzero" cx="63.1549293" cy="88.0033787" rx="5.44" ry="3.26"></ellipse>
                </g>
                <g id="Group-8" transform="translate(502.400000, 215.000000) scale(-1, 1) translate(-502.400000, -215.000000) translate(456.000000, 175.000000)">
                    <polygon id="Path" stroke="#1D2A38" stroke-width="1.5" fill="#F0F3F7" fill-rule="nonzero" stroke-linejoin="round" points="87.9802982 54.4234674 92.4302725 45.6383569 78.9368021 38.2169482 66.3189717 61.0553646 78.707126 70.6874057"></polygon>
                    <circle id="Oval" stroke="#1D2A38" stroke-width="1.5" fill="#FFD700" fill-rule="nonzero" cx="71.1565244" cy="50.806069" r="5.00980977"></circle>
                    <path d="M68.7018612,49.040434 L62.0556093,42.5377297 C61.5269894,41.9832079 61.5269894,41.1112951 62.0556093,40.5567734 L62.0556093,40.5567734 C62.5975103,40.0807038 63.408536,40.0807038 63.950437,40.5567734 L70.6971722,47.0307682 C71.216732,47.5833546 71.216732,48.4447834 70.6971722,48.9973698 L70.6971722,48.9973698 C70.1524683,49.547357 69.2697873,49.5664077 68.7018612,49.040434 L68.7018612,49.040434 Z" id="Path" fill="#1D2A38" fill-rule="nonzero"></path>
                    <polygon id="Path" fill="#1D2A38" fill-rule="nonzero" points="76.0371414 51.9544495 77.4439075 55.1268505 73.941347 54.9689482"></polygon>
                    <circle id="Oval" stroke="#1D2A38" stroke-width="1.5" fill="#FFD700" fill-rule="nonzero" cx="65.83091" cy="55.8158788" r="4.53610283"></circle>
                    <circle id="Oval" stroke="#1D2A38" stroke-width="1.5" fill="#FFFFFF" fill-rule="nonzero" cx="39.3033213" cy="51.6099353" r="27.2022622"></circle>
                    <path d="M43.1791054,21.9817194 L45.6337686,6.37809984" id="Path" stroke="#1D2A38" stroke-width="1.5" fill="#FFD700" fill-rule="nonzero" stroke-linecap="round"></path>
                    <ellipse id="Oval" stroke="#1D2A38" stroke-width="1.5" fill="#FFFFFF" fill-rule="nonzero" transform="translate(45.626532, 6.400000) rotate(-82.410000) translate(-45.626532, -6.400000) " cx="45.6265324" cy="6.4" rx="2.25369666" ry="20.8"></ellipse>
                    <path d="M65.5294602,37.3125986 C66.0410424,38.220407 65.9710705,39.3441496 65.3508238,40.1814826 C64.7305772,41.0188156 63.6759967,41.4132186 62.658509,41.1883826 C60.2944642,40.7370173 57.8845169,40.5731409 55.4811311,40.7003209 C46.0787661,41.0591898 50.6005141,43.9588505 47.7008535,59.8782746 C45.9782828,69.3954777 33.9202879,70.084506 24.5035681,69.0940279 C15.6822352,68.1747602 8.98243308,60.737422 8.98607564,51.8683209 C8.98607564,51.566871 8.98607564,51.2797759 8.98607564,50.9926808 C9.45978406,36.1355086 22.4939023,22.7425214 37.3367198,21.8955908 C48.918271,21.1802073 59.8823341,27.1758304 65.5294602,37.3125986 L65.5294602,37.3125986 Z" id="Path" stroke="#1D2A38" stroke-width="1.5" fill="#FFD700" fill-rule="nonzero"></path>
                    <path d="M9.10091517,50.9926808 C9.10091517,50.9926808 9.94784576,61.2850407 17.2257069,61.2850407 C24.5035681,61.2850407 36.0160823,56.7058736 37.4802674,39.2792001 C38.9444524,21.8525266 44.4423239,22.297524 44.4423239,22.297524 C33.5874812,20.3363298 22.5383168,24.5405369 15.7328123,33.2214932 C11.6050111,38.241494 9.27103476,44.4957423 9.10091517,50.9926808 L9.10091517,50.9926808 Z" id="Path" fill="#26241B" fill-rule="nonzero" opacity="0.7" style="mix-blend-mode: color-dodge;"></path>
                    <ellipse id="Oval" fill="#FFFFFF" fill-rule="nonzero" transform="translate(22.981390, 50.230156) rotate(-71.384308) translate(-22.981390, -50.230156) " cx="22.9813898" cy="50.2301562" rx="4.34574435" ry="3.94282766"></ellipse>
                    <path d="M85.0232185,65.3330818 C85.0232185,65.3330818 82.5972648,65.7780793 82.468072,61.8448762 C82.3388792,57.9116731 81.2479177,58.8303775 80.7885656,57.5384495 C80.5217189,56.3136476 80.8614288,55.0353069 81.7010989,54.104554 C82.5407689,53.173801 83.7774987,52.7046984 85.0232185,52.8444443 C88.698036,53.3037965 90.8512494,57.8398993 88.5688432,62.4908402 C86.8319177,66.0221101 85.0232185,65.3617914 85.0232185,65.3617914" id="Path" stroke="#1D2A38" stroke-width="1.5" fill="#FFD700" fill-rule="nonzero"></path>
                    <path d="M45.6337686,68.4049996 C45.6337686,68.4049996 56.5003188,81.4534726 70.0368535,78.6255857 C83.5733882,75.7976988 85.1380566,65.0172772 85.1380566,65.0172772" id="Path" stroke="#1D2A38" stroke-width="1.5" stroke-linecap="round" stroke-linejoin="round"></path>
                    <polygon id="Path" stroke="#1D2A38" fill="#FFFFFF" fill-rule="nonzero" stroke-linejoin="round" points="81.6498509 39.7098428 79.7263136 43.3846602 86.0567609 47.2317348 88.4970694 43.4707888"></polygon>
                    <path d="M65.5294602,37.3125986 C66.0410424,38.220407 65.9710705,39.3441496 65.3508238,40.1814826 C64.7305772,41.0188156 63.6759967,41.4132186 62.658509,41.1883826 C60.2944642,40.7370173 57.8845169,40.5731409 55.4811311,40.7003209 C46.0787661,41.0591898 50.6005141,43.9588505 47.7008535,59.8782746 C45.9782828,69.3954777 33.9202879,70.084506 24.5035681,69.0940279 C15.6822352,68.1747602 8.98243308,60.737422 8.98607564,51.8683209 C8.98607564,51.566871 8.98607564,51.2797759 8.98607564,50.9926808 C9.45978406,36.1355086 22.4939023,22.7425214 37.3367198,21.8955908 C48.918271,21.1802073 59.8823341,27.1758304 65.5294602,37.3125986 L65.5294602,37.3125986 Z" id="Path" stroke="#1D2A38" stroke-width="0.74"></path>
                    <path d="M32.858036,22.5702644 C37.4278839,24.7521872 45.6265324,26.6045104 52.1651825,24.7521872" id="Path" stroke="#1D2A38" stroke-width="1.5" fill="#FFD700" fill-rule="nonzero"></path>
                    <path d="M3.04320823,55.1268505 C3.04320823,55.1268505 4.23465296,67.3571024 10.9813882,72.022398" id="Path" stroke="#1D2A38" stroke-width="1.5" stroke-linecap="round"></path>
                    <path d="M0,60.3519816 C0.801305748,64.6010061 2.59671942,68.6001056 5.23948586,72.022398" id="Path" stroke="#1D2A38" stroke-width="1.5" stroke-linecap="round"></path>
                </g>
            </g>
        </g>
    </g>
</svg>