<?xml version="1.0" encoding="UTF-8"?>
<svg width="551px" height="611px" viewBox="0 0 551 611" version="1.1" xmlns="http://www.w3.org/2000/svg" xmlns:xlink="http://www.w3.org/1999/xlink">
    <!-- Generator: Sketch 57.1 (83088) - https://sketch.com -->
    <title>s2-brand</title>
    <desc>Created with Sketch.</desc>
    <g id="Page-1" stroke="none" stroke-width="1" fill="none" fill-rule="evenodd">
        <g id="Products" transform="translate(-766.000000, -2788.000000)">
            <g id="s2-brand" transform="translate(767.000000, 2788.000000)">
                <g id="Group-14" transform="translate(0.578139, 167.847335)" stroke-linejoin="round">
                    <path d="M15.1626016,148.911474 L15.1626016,-7.10542736e-14 L62.6513098,-7.10542736e-14 C75.5691057,-7.10542736e-14 85.0301114,2.6076483 91.034327,7.8229449 C96.854863,13.1616983 99.7666366,22.2282445 99.7696477,35.0225836 C99.7696477,44.6010238 98.7157483,51.6967781 96.6079494,56.3098464 C93.99729,62.4917194 88.7819934,67.0701596 80.9620596,70.0451671 C89.0258958,71.5507377 94.8012647,75.3553147 98.2881662,81.4588979 C101.775068,87.5624812 103.518519,95.3101475 103.518519,104.701897 C103.518519,118.044264 100.728696,128.536585 95.1490515,136.178862 C88.7834989,144.67028 78.3529058,148.914484 63.8572719,148.911474 L15.1626016,148.911474 Z M49.4579946,25.3883542 L49.4579946,58.9476061 L55.8265583,58.9476061 C60.6775068,58.9476061 64.0063234,57.2463114 65.8130081,53.8437218 C67.0867209,51.1156278 67.7235772,47.0219813 67.7235772,41.5627823 C67.7235772,35.9831376 66.9813309,31.8894911 65.4968383,29.2818428 C64.0123457,26.6741945 61.2134899,25.3763927 57.100271,25.3883542 L49.4579946,25.3883542 Z M49.4579946,83.1526649 L49.4579946,123.541102 L56.5537489,123.541102 C61.6485998,123.541102 65.0752785,122.237278 66.833785,119.62963 C68.411623,116.778079 69.1990364,111.320385 69.1960339,103.256549 C69.1960339,96.7645288 68.593797,92.0972599 67.3893406,89.2547425 C65.6278229,85.192713 62.2613671,83.1616983 57.2899729,83.1616983 L49.4579946,83.1526649 Z" id="Shape" stroke="#1D2A38" stroke-width="2" fill="#CCCCCC" fill-rule="nonzero" stroke-linecap="round"></path>
                    <path d="M34.2908762,25.3884164 L34.2908762,58.9476061 L40.6594399,58.9476061 C45.5103884,58.9476061 48.8467329,57.2493225 50.6684734,53.8527552 C51.9421861,51.1246612 52.5790425,47.0310148 52.5790425,41.5718157 C52.5790425,35.992171 51.8352906,31.8985245 50.3477868,29.2908762 C48.860283,26.6832279 46.055405,25.3824149 41.9331527,25.3884164 L34.2908762,25.3884164 Z M-8.52651283e-14,148.920506 L-8.52651283e-14,4.26325641e-14 L47.4841915,4.26325641e-14 C60.4019874,4.26325641e-14 69.8614875,2.6076483 75.862692,7.8229449 C81.6862391,13.1616983 84.5980126,22.2282445 84.5980126,35.0225836 C84.5980126,44.6010238 83.5365854,51.6967781 81.4137308,56.3098464 C78.8090936,62.4947305 73.593797,67.0731707 65.767841,70.0451671 C73.8286661,71.5507377 79.6055405,75.3553147 83.0984643,81.4588979 C86.5913881,87.5624812 88.3348389,95.3101475 88.3288322,104.701897 C88.3288322,118.044264 85.5389943,128.536585 79.9593496,136.178862 C73.5907859,144.67028 63.1601927,148.914484 48.66757,148.911472 L-8.52651283e-14,148.920506 Z M34.2908762,83.1526649 L34.2908762,123.541102 L41.3866305,123.541102 C46.4814815,123.541102 49.9081602,122.237278 51.6666667,119.62963 C53.2445047,116.778079 54.0334237,111.320385 54.0334237,103.256549 C54.0334237,96.7645288 53.4311954,92.0972599 52.2267389,89.2547425 C50.4652213,85.192713 47.0987654,83.1616983 42.1273713,83.1616983 L34.2908762,83.1526649 Z" id="Shape" stroke="#1D2A38" stroke-width="2" fill="#FFD701" fill-rule="nonzero"></path>
                    <path d="M-8.52651283e-14,148.911474 L-8.52651283e-14,-7.10542736e-14 L47.4841915,-7.10542736e-14 C60.4019874,-7.10542736e-14 69.8614875,2.6076483 75.862692,7.8229449 C81.6862391,13.1616983 84.5980126,22.2282445 84.5980126,35.0225836 C84.5980126,44.6010238 83.5365854,51.6967781 81.4137308,56.3098464 C78.8090936,62.4947305 73.593797,67.0731707 65.767841,70.0451671 C73.8286661,71.5507377 79.6055405,75.3553147 83.0984643,81.4588979 C86.5913881,87.5624812 88.3348389,95.3101475 88.3288322,104.701897 C88.3288322,118.044264 85.5389943,128.536585 79.9593496,136.178862 C73.5907859,144.67028 63.1601927,148.914484 48.66757,148.911474 L-8.52651283e-14,148.911474 Z M34.2908762,25.3884164 L34.2908762,58.9476061 L40.6594399,58.9476061 C45.5103884,58.9476061 48.8467329,57.2493225 50.6684734,53.8527552 C51.9421861,51.1246612 52.5790425,47.0310148 52.5790425,41.5718157 C52.5790425,35.992171 51.8352906,31.8985245 50.3477868,29.2908762 C48.860283,26.6832279 46.055405,25.3824149 41.9331527,25.3884164 L34.2908762,25.3884164 Z M34.2908762,83.1526649 L34.2908762,123.541102 L41.3866305,123.541102 C46.4814815,123.541102 49.9081602,122.237278 51.6666667,119.62963 C53.2445047,116.778079 54.0334237,111.320385 54.0334237,103.256549 C54.0334237,96.7645288 53.4311954,92.0972599 52.2267389,89.2547425 C50.4652213,85.192713 47.0987654,83.1616983 42.1273713,83.1616983 L34.2908762,83.1526649 Z" id="Shape" stroke="#1D2A38" stroke-width="2" stroke-linecap="round"></path>
                    <path d="M82.3757904,18.5049684 L97.6874435,18.5049684" id="Path" stroke="#233442" stroke-linecap="round"></path>
                    <path d="M84.6341463,37.0099368 L99.7109304,37.0099368" id="Path" stroke="#233442" stroke-linecap="round"></path>
                    <path d="M81.7479675,55.5103884 L96.9196025,55.5103884" id="Path" stroke="#233442" stroke-linecap="round"></path>
                    <path d="M34.2908762,37.0099368 L49.4579946,37.0099368" id="Path" stroke="#233442" stroke-linecap="round"></path>
                    <path d="M34.2908762,55.5103884 L49.5483288,55.5103884" id="Path" stroke="#233442" stroke-linecap="round"></path>
                    <path d="M34.2908762,92.5203252 L49.4579946,92.5203252" id="Path" stroke="#233442" stroke-linecap="round"></path>
                    <path d="M34.2908762,111.296296 L49.4579946,111.296296" id="Path" stroke="#233442" stroke-linecap="round"></path>
                    <path d="M76.1201445,74.0153568 L91.2872629,74.0153568" id="Path" stroke="#233442" stroke-linecap="round"></path>
                </g>
                <g id="Group-13" transform="translate(108.906956, 167.847335)">
                    <path d="M15.1626016,148.911472 L15.1626016,0 L60.4652213,0 C75.7497742,0 86.7871123,2.66787112 93.5772358,8.00361337 C100.430593,13.4025896 103.857272,22.7371274 103.857272,36.0072267 C103.857272,45.5284553 102.735622,52.7160494 100.492322,57.570009 C97.5203252,63.5712135 91.7585065,67.8756399 83.2068654,70.4832882 C89.3947606,71.5763324 94.2125866,74.3661548 97.6603433,78.8527552 C101.300813,83.0412526 103.121048,88.2565492 103.121048,94.498645 L103.121048,135.433604 C103.124888,136.866837 103.245735,138.297365 103.482385,139.71093 C103.482385,143.3514 104.536284,146.413731 106.644083,148.897922 L72.7461608,148.897922 C71.6531165,147.62421 70.6519121,144.68383 69.7425474,140.076784 C69.2754014,136.395759 69.0325563,132.689731 69.0153568,128.979223 C68.8949112,125.459199 68.8346883,122.7296 68.8346883,120.790425 L68.8346883,96.8518519 C68.8346883,92.7928335 67.8334839,89.7003914 65.831075,87.5745257 C63.8888889,85.575128 60.55405,84.5739235 55.8265583,84.5709124 L49.4579946,84.5709124 L49.4579946,148.911472 L15.1626016,148.911472 Z M49.4579946,25.3884372 L49.4579946,59.3089431 L57.8274616,59.3089431 C62.7988558,59.3089431 66.2255345,57.6106594 68.1074977,54.2140921 L69.200542,49.7606143 L69.561879,41.7524842 C69.561879,35.9319482 69.0168624,31.9000301 67.9268293,29.6567299 C66.1653117,26.8051792 62.2508281,25.3794038 56.1833785,25.3794038 L49.4579946,25.3884372 Z" id="Shape" stroke="#1D2A38" stroke-width="2" fill="#CCCCCC" fill-rule="nonzero" stroke-linecap="round" stroke-linejoin="round"></path>
                    <path d="M88.3288166,139.724481 C88.0884782,138.312835 87.9661042,136.883627 87.962963,135.451671 L87.962963,94.5167118 C87.962963,88.2716049 86.1442337,83.0563083 82.5067751,78.870822 C79.0529961,74.3812105 74.2351701,71.5913881 68.0532972,70.501355 C76.6049383,67.8967179 82.3652514,63.5907859 85.3342367,57.5835592 C86.7615176,54.5031617 87.7326107,50.480277 88.2475158,45.5149051 C88.5639621,42.36329 88.7147267,39.1972343 88.699187,36.0298103 C88.699187,22.7446552 85.2740139,13.4101174 78.4236676,8.02619693 C71.630533,2.68744354 60.5931948,0.0180668473 45.3116531,0.0180668473 L0,0.0180668473 L0,148.934056 L34.295393,148.934056 L34.295393,84.6025294 L40.6594399,84.6025294 C45.3929539,84.6025294 48.7292984,85.6022282 50.6684734,87.601626 C52.6708823,89.7094249 53.6705812,92.8018669 53.66757,96.8789521 L53.66757,120.817525 C53.66757,122.759711 53.7292984,125.48931 53.8527552,129.006323 C53.8718273,132.720203 54.1192075,136.429398 54.5934959,140.112918 C55.4968383,144.725986 56.4965372,147.667871 57.5925926,148.938573 L91.5266486,148.938573 C89.3947606,146.436314 88.3288166,143.36495 88.3288166,139.724481 Z M54.0334237,49.7786811 L52.9403794,54.2366757 C51.0614273,57.633243 47.6362541,59.3315266 42.66486,59.3315266 L34.295393,59.3315266 L34.295393,25.3884372 L41.0433604,25.3884372 C47.1047877,25.3884372 51.0192713,26.8142126 52.7868112,29.6657633 C53.8798555,31.9090635 54.4263776,35.9424872 54.4263776,41.7660343 L54.2502258,45.6504065 L54.0334237,49.7786811 Z" id="Shape" stroke="#1D2A38" stroke-width="2" fill="#FFF5CC" fill-rule="nonzero" stroke-linecap="round" stroke-linejoin="round"></path>
                    <path d="M87.6106682,36.0072267 C87.6236738,39.1069728 87.4745724,42.2052459 87.1639886,45.2890696 L76.2158724,45.2890696 L76.2158724,39.8419151 L60.6848238,39.8419151 L60.6848238,45.4290876 L36.5641271,45.4290876 L36.5641271,35.1671183 L21.9041036,35.1671183 L21.9041036,43.2429991 L1.09304426,43.2429991 L1.09304426,0.785907859 L45.5423864,0.785907859 C60.3602366,0.785907859 71.0626791,3.39807287 77.6497138,8.62240289 C84.2933279,13.8888889 87.613646,23.0171635 87.6106682,36.0072267 Z" id="Path" fill="#FFD701" fill-rule="nonzero"></path>
                    <path d="M85.9078591,18.5049684 L101.074977,18.5049684" id="Path" stroke="#233442" stroke-linecap="round" stroke-linejoin="round"></path>
                    <path d="M88.6856369,37.0099368 L103.843722,37.0099368" id="Path" stroke="#233442" stroke-linecap="round" stroke-linejoin="round"></path>
                    <path d="M86.1653117,55.5103884 L101.074977,55.5103884" id="Path" stroke="#233442" stroke-linecap="round" stroke-linejoin="round"></path>
                    <path d="M77.2809395,74.0153568 L92.4480578,74.0153568" id="Path" stroke="#233442" stroke-linecap="round" stroke-linejoin="round"></path>
                    <path d="M87.899729,92.5203252 L103.084914,92.5203252" id="Path" stroke="#233442" stroke-linecap="round" stroke-linejoin="round"></path>
                    <path d="M87.899729,111.260163 L103.084914,111.260163" id="Path" stroke="#233442" stroke-linecap="round" stroke-linejoin="round"></path>
                    <path d="M87.899729,130.004517 L103.084914,130.004517" id="Path" stroke="#233442" stroke-linecap="round" stroke-linejoin="round"></path>
                    <path d="M34.2908762,92.5203252 L49.4579946,92.5203252" id="Path" stroke="#233442" stroke-linecap="round" stroke-linejoin="round"></path>
                    <path d="M34.2908762,111.260163 L49.4579946,111.260163" id="Path" stroke="#233442" stroke-linecap="round" stroke-linejoin="round"></path>
                    <path d="M34.2908762,130.004517 L49.4579946,130.004517" id="Path" stroke="#233442" stroke-linecap="round" stroke-linejoin="round"></path>
                    <polyline id="Path" stroke="#1D2A38" stroke-width="2" fill="#EBEBEB" fill-rule="nonzero" stroke-linecap="round" stroke-linejoin="round" points="34.2908762 111.666667 34.2908762 148.911472 0 148.911472 0 111.666667"></polyline>
                </g>
                <g id="Group-12" transform="translate(211.996387, 167.847335)" stroke="#1D2A38" stroke-linecap="round" stroke-linejoin="round">
                    <polygon id="Path" stroke-width="2" fill="#CCCCCC" fill-rule="nonzero" points="59.9096658 18.5049684 59.9096658 63.1526649 59.3902439 67.3170732 55.8130081 95.971093 41.3866305 95.971093 45.4787715 63.1526649 45.4787715 18.5049684 36.9692864 18.5049684 36.9692864 5.68434189e-14 51.6937669 5.68434189e-14 51.6350497 18.5049684"></polygon>
                    <polygon id="Path" stroke-width="2" fill="#CCCCCC" fill-rule="nonzero" points="64.3450768 74.0153568 78.7714544 74.0153568 78.7714544 92.5203252 95.8717254 92.5203252 95.8717254 111.025294 108.292683 111.025294 115.397471 148.911472 100.971093 148.911472 80.6187895 111.025294 64.3450768 92.5203252"></polygon>
                    <polygon id="Path" stroke-width="2" fill="#CCCCCC" fill-rule="nonzero" points="34.2908762 148.911472 48.4417344 148.911472 55.8130081 95.971093 41.3866305 95.971093"></polygon>
                    <polygon id="Path" stroke-width="2" fill="#EBEBEB" fill-rule="nonzero" points="93.7082204 111.025294 100.971093 148.911472 65.0406504 148.911472 61.8563686 122.439024 37.8410117 122.439024 34.2908762 148.911472 -2.13162821e-14 148.911472 27.5609756 0 36.9692864 0 36.9692864 18.5049684 45.4787715 18.5049684 45.4787715 63.1526649 41.3866305 95.971093 58.4914182 95.971093 56.0794941 74.0153568 64.3450768 74.0153568 64.3450768 92.5203252 80.6187895 92.5203252 80.6187895 111.025294"></polygon>
                    <path d="M45.2935863,18.5049684 L59.7244806,18.5049684" id="Path" stroke-width="2" fill="#F15A24" fill-rule="nonzero"></path>
                    <path d="M59.9096658,63.1526649 L45.4787715,63.1526649" id="Path" stroke-width="2"></path>
                    <path d="M45.4787715,37.0099368 L59.9096658,37.0099368" id="Path"></path>
                    <path d="M45.4787715,55.5103884 L59.9096658,55.5103884" id="Path"></path>
                    <path d="M44.1237579,74.0153568 L56.0794941,74.0153568" id="Path"></path>
                    <path d="M36.9738031,130.004517 L51.0749774,130.004517" id="Path"></path>
                </g>
                <polygon id="Path" stroke="#1D2A38" stroke-width="2" fill="#CCCCCC" fill-rule="nonzero" stroke-linecap="round" stroke-linejoin="round" points="376.210479 223.357724 376.210479 316.758808 360.921409 316.758808 343.906956 225.67028 343.906956 204.857272 360.921409 204.857272 360.921409 223.357724"></polygon>
                <polygon id="Path" stroke="#1D2A38" stroke-width="2" fill="#CCCCCC" fill-rule="nonzero" stroke-linecap="round" stroke-linejoin="round" points="441.802168 260.36766 441.802168 316.758808 426.025294 316.758808 386.205962 241.862692 417.69196 241.862692 417.69196 253.330623 432.741644 253.330623 432.741644 260.36766"></polygon>
                <polygon id="Path" stroke="#1D2A38" stroke-width="2" fill="#EBEBEB" fill-rule="nonzero" stroke-linecap="round" stroke-linejoin="round" points="426.025294 260.36766 426.025294 316.758808 389.774164 316.758808 367.163505 241.862692 388.270099 241.862692 393.717254 256.248419 393.717254 241.862692 402.841012 241.862692 402.841012 260.36766"></polygon>
                <polygon id="Path" stroke="#1D2A38" stroke-width="2" fill="#EBEBEB" fill-rule="nonzero" stroke-linecap="round" stroke-linejoin="round" points="360.921409 316.758808 328.62692 316.758808 328.62692 204.857272 343.906956 204.857272 343.906956 223.357724 360.921409 223.357724"></polygon>
                <path d="M514.480578,260.36766 L514.480578,278.737127 C514.480578,287.168323 509.688347,291.383921 500.103884,291.383921 L494.738031,291.383921 L494.738031,279.31075 L487.63776,279.31075 L487.63776,260.36766 L460.447154,260.36766 L460.447154,316.758808 L511.485998,316.758808 C521.796146,316.758808 530.31617,313.7567 537.04607,307.752484 C544.875038,300.721469 548.789521,290.989461 548.789521,278.556459 L548.789521,260.36766 L514.480578,260.36766 Z" id="Path" stroke="#1D2A38" stroke-width="2" fill="#CCCCCC" fill-rule="nonzero" stroke-linecap="round" stroke-linejoin="round"></path>
                <path d="M498.595303,260.36766 L498.595303,278.737127 C498.595303,283.100271 497.309545,286.334237 494.738031,288.439024 C492.350196,290.399277 488.845227,291.379404 484.223126,291.379404 L478.852755,291.379404 L478.852755,260.36766 L444.557362,260.36766 L444.557362,316.758808 L495.596206,316.758808 C505.903342,316.758808 514.424872,313.7567 521.160795,307.752484 C528.989762,300.721469 532.904246,290.989461 532.904246,278.556459 L532.904246,260.36766 L498.595303,260.36766 Z" id="Path" stroke="#1D2A38" stroke-width="2" fill="#EBEBEB" fill-rule="nonzero" stroke-linecap="round" stroke-linejoin="round"></path>
                <g id="Group-17" transform="translate(498.595303, 207.357818)" stroke="#1D2A38" stroke-linecap="round" stroke-linejoin="round" stroke-width="1.5">
                    <rect id="Rectangle" fill="#EBEBEB" fill-rule="nonzero" x="0" y="26.5048739" width="16.7208672" height="18.5049684"></rect>
                    <rect id="Rectangle" fill="#EBEBEB" fill-rule="nonzero" x="16.7253839" y="26.5048739" width="16.7208672" height="18.5049684"></rect>
                    <circle id="Oval" fill="#FFD700" fill-rule="nonzero" cx="23.5636856" cy="34.7433563" r="2.633243"></circle>
                    <circle id="Oval" fill="#FFFFFF" fill-rule="nonzero" cx="36.0930443" cy="28.1670239" r="13.1120145"></circle>
                    <path d="M47.696477,19.1742506 C48.9215401,20.8212166 49.0076842,23.0519883 47.9132791,24.7885234 C46.9150858,26.3738893 45.4290876,28.1444403 43.5320687,28.6638622 C39.8690154,29.6756056 39.8509485,27.2275478 38.33785,25.4118297 C36.8247516,23.5961115 33.8979223,25.5744313 33.8979223,25.5744313 C28.7985547,28.8174304 25.6549232,29.8336906 23.8301716,30.0911431 C23.2634537,30.1574863 22.6950655,29.9814784 22.2650155,29.6064749 C21.8349656,29.2314713 21.5832293,28.6923306 21.5718157,28.1218568 C21.4903585,21.837206 25.4576517,16.2121658 31.4051237,14.1796676 C37.3525956,12.1471694 43.932706,14.1677237 47.7145438,19.1878008 L47.696477,19.1742506 Z" id="Path" fill="#FFD700" fill-rule="nonzero"></path>
                    <path d="M10.2393857,39.4678369 C10.2393857,39.4678369 30.8039747,52.8102037 39.9141825,30.1950275" id="Path"></path>
                    <path d="M25.3387534,18.1444403 C29.1271805,17.165727 32.7232881,15.5547319 35.9756098,13.3793093" id="Path" fill="#FFD700" fill-rule="nonzero"></path>
                    <path d="M30.1355014,14.8878911 L26.630533,7.32239877" id="Path" fill="#FFD700" fill-rule="nonzero"></path>
                    <ellipse id="Oval" fill="#FFFFFF" fill-rule="nonzero" transform="translate(26.818601, 7.309846) rotate(-22.780000) translate(-26.818601, -7.309846) " cx="26.8186009" cy="7.30984643" rx="15.6007227" ry="1.30984643"></ellipse>
                    <path d="M12.9448961,38.5283608 C13.1724232,39.3334043 13.0052677,40.1986385 12.4942507,40.8610019 C11.9832338,41.5233653 11.1887327,41.9045989 10.3523035,41.8887944 C7.79584463,41.8887944 6.80216802,38.3793093 8.99728997,37.0333292 C9.69890405,36.5902732 10.5678975,36.5025478 11.3439067,36.7964368 C12.1199158,37.0903259 12.7127904,37.7316878 12.9448961,38.5283608 L12.9448961,38.5283608 Z" id="Path" fill="#FFD700" fill-rule="nonzero"></path>
                </g>
                <path d="M87.7461608,260.36766 L102.908762,260.36766" id="Path" stroke="#233442" stroke-width="0.5" stroke-linecap="round" stroke-linejoin="round"></path>
                <path d="M88.6585366,279.143631 L103.794038,279.143631" id="Path" stroke="#233442" stroke-width="0.5" stroke-linecap="round" stroke-linejoin="round"></path>
                <path d="M84.1553749,297.851852 L99.3224932,297.851852" id="Path" stroke="#233442" stroke-width="0.5" stroke-linecap="round" stroke-linejoin="round"></path>
                <path d="M143.197832,204.857272 L158.36495,204.857272" id="Path" stroke="#233442" stroke-width="0.5" stroke-linecap="round" stroke-linejoin="round"></path>
                <path d="M143.197832,223.357724 L158.36495,223.357724" id="Path" stroke="#233442" stroke-width="0.5" stroke-linecap="round" stroke-linejoin="round"></path>
                <path d="M253.812105,260.36766 L268.242999,260.36766" id="Path" stroke="#1D2A38" stroke-linecap="round" stroke-linejoin="round"></path>
                <path d="M309.34056,297.851852 L323.95664,297.851852" id="Path" stroke="#1D2A38" stroke-linecap="round" stroke-linejoin="round"></path>
                <path d="M360.921409,241.862692 L367.163505,241.862692" id="Path" stroke="#1D2A38" stroke-linecap="round" stroke-linejoin="round"></path>
                <path d="M360.921409,260.36766 L372.881662,260.36766" id="Path" stroke="#1D2A38" stroke-linecap="round" stroke-linejoin="round"></path>
                <path d="M360.921409,279.31075 L376.210479,279.31075" id="Path" stroke="#1D2A38" stroke-linecap="round" stroke-linejoin="round"></path>
                <path d="M360.921409,297.851852 L376.210479,297.851852" id="Path" stroke="#1D2A38" stroke-linecap="round" stroke-linejoin="round"></path>
                <path d="M426.025294,260.36766 L432.741644,260.36766" id="Path" stroke="#233442" stroke-width="3" fill="#EBEBEB" fill-rule="nonzero" stroke-linecap="round" stroke-linejoin="round"></path>
                <path d="M426.025294,279.31075 L441.802168,279.31075" id="Path" stroke="#1D2A38" stroke-linecap="round" stroke-linejoin="round"></path>
                <path d="M426.025294,297.851852 L441.802168,297.851852" id="Path" stroke="#1D2A38" stroke-linecap="round" stroke-linejoin="round"></path>
                <path d="M478.852755,279.31075 L487.592593,279.31075" id="Path" stroke="#1D2A38" stroke-linecap="round" stroke-linejoin="round"></path>
                <path d="M532.886179,279.143631 L548.775971,279.143631" id="Path" stroke="#1D2A38" stroke-linecap="round" stroke-linejoin="round"></path>
                <path d="M528.748871,297.851852 L544.634146,297.851852" id="Path" stroke="#1D2A38" stroke-linecap="round" stroke-linejoin="round"></path>
                <g id="Group-8" transform="translate(78.588296, 258.942806)" stroke="#1D2A38" stroke-linecap="round" stroke-linejoin="round" stroke-width="1.5">
                    <path d="M47.2627702,30.0958714 C48.3665914,30.0958714 49.2614152,30.9906952 49.2614152,32.0945164 L49.2614152,40.8840376 C49.2614152,41.9878588 48.3665914,42.8826826 47.2627702,42.8826826 C46.1589491,42.8826826 45.2641252,41.9878588 45.2641252,40.8840376 L45.2641252,32.0945164 C45.2641252,30.9906952 46.1589491,30.0958714 47.2627702,30.0958714 Z" id="Rectangle" fill="#FFFFFF" fill-rule="nonzero" transform="translate(47.262770, 36.489277) rotate(-0.300000) translate(-47.262770, -36.489277) "></path>
                    <path d="M47.2247124,30.1014576 L47.2247124,28.3805904 C47.2247124,28.0535963 47.0939142,27.7401886 46.8614252,27.5102451 C46.6289363,27.2803016 46.3141073,27.1529416 45.9871333,27.1565615 L38.3087232,27.1926952 C37.9816921,27.1950998 37.6671011,27.0674888 37.434161,26.8379369 C37.201221,26.6083851 37.0690145,26.2956975 37.0666274,25.9686663 L37.0440353,21.8494251 C37.0415376,21.1676808 37.5908587,20.612301 38.2725895,20.6073293 L45.1650918,20.5621622" id="Path"></path>
                    <path d="M42.8229096,17.5765091 L54.8644634,17.5765091 C56.5058516,17.5765091 57.8364598,18.9071172 57.8364598,20.5485054 C57.8364598,22.1898937 56.5058516,23.5205018 54.8644634,23.5205018 L42.8229096,23.5205018 C41.1815213,23.5205018 39.8509132,22.1898937 39.8509132,20.5485054 C39.8509132,18.9071172 41.1815213,17.5765091 42.8229096,17.5765091 Z" id="Rectangle" fill="#FFFFFF" fill-rule="nonzero" transform="translate(48.843686, 20.548505) rotate(-0.300000) translate(-48.843686, -20.548505) "></path>
                    <path d="M57.8360778,18.912105 L58.0709468,18.912105 C58.774399,18.912105 59.3446596,19.4823656 59.3446596,20.1858177 L59.3446596,20.8136407 C59.3446596,21.5170928 58.774399,22.0873534 58.0709468,22.0873534 L57.8360778,22.0873534 L57.8360778,18.9256551 L57.8360778,18.912105 Z" id="Path" fill="#FFFFFF" fill-rule="nonzero" transform="translate(58.590369, 20.499729) rotate(-0.300000) translate(-58.590369, -20.499729) "></path>
                    <circle id="Oval" fill="#FFFFFF" fill-rule="nonzero" cx="17.5002318" cy="32.7572841" r="16.4498645"></circle>
                    <path d="M3.3132399,36.4971215 C6.8995091,38.6696599 13.0557873,41.5739056 20.31866,40.6795967 C31.7865913,39.2568325 27.6176663,30.3950439 30.7793646,30.7834811 C32.9744865,31.0544838 31.9672598,33.0870041 32.5860493,34.4194341 C33.1325714,35.5711956 34.8895723,35.1872751 34.9844233,33.9180791 C35.6784423,24.8740026 29.3547856,16.7956336 20.4086486,15.2977631 C11.4625117,13.7998927 2.85234588,19.3778605 0.562562398,28.1547548 C0.245172301,29.375196 0.0574422863,30.6257201 0.00249013041,31.8855588 C-0.0449446804,33.2517688 0.587752813,34.5526896 1.69174036,35.3589102 C2.36473042,35.8421983 3.03320377,36.3254865 3.3132399,36.4971215 Z" id="Path" fill="#FFD700" fill-rule="nonzero"></path>
                    <path d="M19.8715055,15.2369589 L21.0277837,3.85484512" id="Path"></path>
                    <ellipse id="Oval" fill="#FFFFFF" fill-rule="nonzero" transform="translate(21.037167, 3.858175) rotate(-83.650000) translate(-21.037167, -3.858175) " cx="21.0371667" cy="3.85817525" rx="1.14272809" ry="20.8581752"></ellipse>
                    <path d="M29.0404305,38.981313 C29.0404305,38.981313 27.7351008,48.9180791 35.3638271,49.7627042 C42.9925534,50.6073293 45.4948117,39.6001026 45.4948117,39.6001026" id="Path"></path>
                    <path d="M45.427061,40.3047096 C45.427061,40.3047096 43.6203763,39.7356039 43.3538903,37.2062453 C43.2846456,36.5704612 43.5263107,35.9403124 44.0029251,35.5138679 C44.4795396,35.0874234 45.1325796,34.9170466 45.756781,35.0562905 L46.0052002,35.1240411 C46.0052002,35.1240411 48.1416049,33.6380429 49.4604847,34.2432823 C50.7793646,34.8485217 52.0214603,41.2803194 45.427061,40.3047096 Z" id="Path" fill="#FFD700" fill-rule="nonzero"></path>
                </g>
                <g id="Group-7" transform="translate(70.000000, 0.000000)" stroke="#1D2A38" stroke-linecap="round" stroke-linejoin="round" stroke-width="1.5">
                    <circle id="Oval" fill="#FFFFFF" fill-rule="nonzero" cx="26.6095863" cy="45.3445359" r="22.804878"></circle>
                    <ellipse id="Oval" fill="#FFFFFF" fill-rule="nonzero" transform="translate(12.229017, 109.763723) rotate(-56.470000) translate(-12.229017, -109.763723) " cx="12.2290165" cy="109.763723" rx="5.18066847" ry="10.7317073"></ellipse>
                    <polyline id="Path" fill="#FFFFFF" fill-rule="nonzero" points="3.28528638 103.849504 13.6059729 88.2803986 31.4966685 100.136767 21.175982 115.705873"></polyline>
                    <ellipse id="Oval" fill="#FFFFFF" fill-rule="nonzero" transform="translate(22.546150, 94.194769) rotate(-56.470000) translate(-22.546150, -94.194769) " cx="22.5461497" cy="94.194769" rx="5.18066847" ry="10.7317073"></ellipse>
                    <path d="M15.1732719,94.4818439 C15.4126577,94.0979234 15.6565601,93.7094862 15.9140127,93.3255657 C21.0224138,85.6155386 27.585196,80.9633254 30.5662259,82.9371285 C32.7252141,84.3689261 32.413561,88.8901547 30.1145547,94.2063245" id="Path"></path>
                    <ellipse id="Oval" fill="#FFEC9C" fill-rule="nonzero" transform="translate(28.249284, 120.388803) rotate(-77.970000) translate(-28.249284, -120.388803) " cx="28.2492835" cy="120.388803" rx="2.32610659" ry="1.42276423"></ellipse>
                    <path d="M16.0766143,55.7329731 C24.6990172,55.0373995 21.3431003,30.922675 29.278963,32.2460716 C35.9185294,33.3481492 32.2193424,37.2144546 47.8607155,39.8115639 C48.5251701,39.9199111 49.1982406,39.6756025 49.6384931,39.1662727 C50.0787457,38.6569429 50.2230728,37.9556011 50.0197037,37.3138222 C46.2708883,25.6785712 34.5477914,18.5605528 22.4950995,20.6014602 C10.4424077,22.6423675 1.71627645,33.2230963 2.00705693,45.4439035 C2.09517594,49.8962621 5.03999137,53.7856066 9.30154654,55.0780499 C11.4997827,55.7144295 13.797186,55.9365118 16.0766143,55.7329731 Z" id="Path" fill="#FFD700" fill-rule="nonzero"></path>
                    <circle id="Oval" fill="#FFD700" fill-rule="nonzero" cx="47.9871834" cy="48.9804889" r="3.91598916"></circle>
                    <path d="M25.0829377,48.9443552 C25.0829377,48.9443552 19.5906161,80.4935874 29.4325312,82.819694 C38.7730913,85.0419162 39.2744463,64.3011754 39.2744463,64.3011754" id="Path"></path>
                    <circle id="Oval" fill="#FFD700" fill-rule="nonzero" cx="30.1190714" cy="82.3770562" r="4.64769648"></circle>
                    <ellipse id="Oval" fill="#FFFFFF" fill-rule="nonzero" transform="translate(33.881998, 7.651310) rotate(-77.970000) translate(-33.881998, -7.651310) " cx="33.8819976" cy="7.65130985" rx="1.43179765" ry="27.6513098"></ellipse>
                    <path d="M21.5282855,20.7510399 C21.5282855,20.7510399 30.7694779,24.9515819 41.049514,24.9109315" id="Path" fill="#FFD700" fill-rule="nonzero"></path>
                    <path d="M31.112748,20.6336054 L33.8814923,7.64805891" id="Path" fill="#FFD700" fill-rule="nonzero"></path>
                    <path d="M10.7197941,92.6299921 C10.7197941,92.6299921 7.96008313,98.3616994 11.7134707,99.4050598 C15.4668582,100.44842 20.2410226,100.10515 21.4921518,103.695936 C22.743281,107.286722 26.6231364,107.471907 26.6231364,107.471907" id="Path"></path>
                    <path d="M13.8182584,92.3454392 C13.8182584,92.3454392 24.1118446,91.6543823 31.8444553,97.5893417 C39.577066,103.524301 34.5815827,118.560435 31.9799567,116.731166 C28.9673099,114.608312 33.7550244,105.285819 31.7315375,106.157544 C29.7080506,107.029269 31.8534887,110.05095 29.7035339,109.879315 C28.2988365,109.766397 29.1524951,107.264138 29.044094,104.685096 C28.9769828,103.035309 27.8000811,101.640876 26.1850154,101.297562 C20.9985245,100.160207 16.5185951,96.917249 13.8182584,92.3454392 Z" id="Path" fill="#FFEC9C" fill-rule="nonzero"></path>
                </g>
                <g id="Group-9" transform="translate(131.955736, 188.181572)" stroke="#1D2A38" stroke-linecap="round" stroke-linejoin="round" stroke-width="1.5">
                    <ellipse id="Oval" fill="#FFFFFF" fill-rule="nonzero" cx="17.303523" cy="28.1436314" rx="14.6251129" ry="14.7741644"></ellipse>
                    <path d="M39.6689218,25.6091478 C40.6505119,25.6091478 41.4462479,26.4048838 41.4462479,27.3864739 L41.4462479,35.3178199 C41.4462479,36.29941 40.6505119,37.095146 39.6689218,37.095146 C38.6873317,37.095146 37.8915957,36.29941 37.8915957,35.3178199 L37.8915957,27.3864739 C37.8915957,26.4048838 38.6873317,25.6091478 39.6689218,25.6091478 Z" id="Rectangle" fill="#FFFFFF" fill-rule="nonzero" transform="translate(39.668922, 31.352147) rotate(2.070000) translate(-39.668922, -31.352147) "></path>
                    <path d="M39.8690154,25.6142728 L39.9232159,24.0740741 C39.9366682,23.7814009 39.8325472,23.4954974 39.6340347,23.280018 C39.4355222,23.0645387 39.1590978,22.9373715 38.8663053,22.9268293 L32.0505872,22.6693767 C31.4428249,22.6424955 30.9707346,22.1300556 30.9936766,21.5221319 L31.1246612,17.8274616 C31.1329274,17.5351321 31.2570441,17.2580744 31.4696799,17.0572987 C31.6823157,16.8565231 31.9660333,16.7484942 32.2583559,16.7570009 L38.3965673,16.9783198" id="Path"></path>
                    <path d="M36.3272545,14.4345836 L46.9821777,14.4345836 C48.4564338,14.4345836 49.6515544,15.6297043 49.6515544,17.1039603 C49.6515544,18.5782164 48.4564338,19.773337 46.9821777,19.773337 L36.3272545,19.773337 C34.8529985,19.773337 33.6578778,18.5782164 33.6578778,17.1039603 C33.6578778,15.6297043 34.8529985,14.4345836 36.3272545,14.4345836 Z" id="Rectangle" fill="#FFFFFF" fill-rule="nonzero" transform="translate(41.654716, 17.103960) rotate(2.070000) translate(-41.654716, -17.103960) "></path>
                    <path d="M49.6434374,15.993657 L49.7699053,15.993657 C50.4384343,15.993657 50.9803841,16.5356068 50.9803841,17.2041358 L50.9803841,17.6332234 C50.9803841,18.3017524 50.4384343,18.8437022 49.7699053,18.8437022 L49.6434374,18.8437022 L49.6434374,15.993657 L49.6434374,15.993657 Z" id="Path" fill="#FFFFFF" fill-rule="nonzero" transform="translate(50.311911, 17.418680) rotate(2.070000) translate(-50.311911, -17.418680) "></path>
                    <path d="M26.7524842,33.7714544 C26.7524842,33.7714544 23.9521229,42.7777778 30.7497742,43.495935 C35.469738,43.99729 38.7353207,35.0496838 38.7353207,35.0496838" id="Path"></path>
                    <path d="M37.899729,34.7064137 C37.899729,34.7064137 36.300813,34.1282746 36.1698284,31.8473351 C36.130043,31.2781573 36.3662844,30.7245511 36.8047525,30.3594592 C37.2432207,29.9943674 37.8304585,29.862301 38.3830172,30.0045167 L38.5998193,30.0767841 C38.5998193,30.0767841 40.5510388,28.8211382 41.7028004,29.4128275 C42.8545619,30.0045167 43.7398374,35.8265583 37.899729,34.7064137 Z" id="Path" fill="#FFD700" fill-rule="nonzero"></path>
                    <path d="M32.6738934,21.7073171 C32.9194128,22.2467189 32.8274202,22.8798001 32.4385358,23.3270171 C32.0496514,23.7742341 31.4354774,23.9532446 30.8672087,23.7850045 L30.831075,23.7850045 C23.0171635,21.3143631 24.2818428,32.899729 22.4480578,35.9485095 C20.1897019,39.733514 14.6476965,39.4218609 9.17795845,38.8301716 C3.8934056,38.2610659 2.30352304,33.6720867 2.18608853,33.4101174 L2.18608853,33.4101174 C1.57090668,31.4713667 1.30182,29.4394566 1.39114724,27.4074074 C1.94218609,18.2113821 9.48057814,11.300813 18.5862692,11.8608853 C24.7551586,12.246959 30.1915949,16.0467125 32.6738934,21.7073171 L32.6738934,21.7073171 Z" id="Path" fill="#FFD700" fill-rule="nonzero"></path>
                    <path d="M10.8943089,13.2429991 C10.8943089,13.2429991 18.2339657,14.4715447 24.5754291,13.369467" id="Path" fill="#FFD700" fill-rule="nonzero"></path>
                    <path d="M17.7371274,11.8066847 L17.7371274,0.916892502" id="Path" fill="#FFD700" fill-rule="nonzero"></path>
                    <ellipse id="Oval" fill="#FFFFFF" fill-rule="nonzero" cx="17.7371274" cy="1.04336043" rx="17.7371274" ry="1.04336043"></ellipse>
                    <ellipse id="Oval" fill="#FFFFFF" fill-rule="nonzero" cx="7.27190605" cy="70.1626016" rx="6.39114724" ry="1.27371274"></ellipse>
                    <polyline id="Path" fill="#FFFFFF" fill-rule="nonzero" points="13.6630533 70.1626016 13.6630533 58.3965673 0.880758808 58.3965673 0.880758808 70.1626016"></polyline>
                    <ellipse id="Oval" fill="#FFFFFF" fill-rule="nonzero" cx="7.27190605" cy="58.3965673" rx="6.39114724" ry="1.27371274"></ellipse>
                    <path d="M3.05781391,57.3848238 C3.83017164,53.1210479 5.18518519,50.0271003 7.93134598,50.0271003 C11.0930443,50.0271003 12.0234869,53.7669377 12.33514,59.0605239" id="Path"></path>
                    <path d="M0.880758808,64.6747967 C0.880758808,64.6747967 2.35320687,62.2357724 4.36314363,62.7913279 C6.3730804,63.3468835 9.0469738,64.3812105 10.501355,62.3396567 C11.9557362,60.298103 13.6630533,60.4290876 13.6630533,60.4290876" id="Path" fill="#FFFFFF" fill-rule="nonzero"></path>
                    <path d="M8.56368564,39.9954833 C8.56368564,39.9954833 7.80487805,45.6323397 7.87714544,47.7190605" id="Path"></path>
                    <ellipse id="Oval" fill="#FFD700" fill-rule="nonzero" cx="7.76874435" cy="49.2682927" rx="2.60614273" ry="2.62872629"></ellipse>
                </g>
                <g id="Group-10" transform="translate(206.000000, 92.000000)" stroke="#1D2A38" stroke-linecap="round" stroke-linejoin="round" stroke-width="1.5">
                    <circle id="Oval" fill="#FFFFFF" fill-rule="nonzero" cx="13.2282047" cy="28.9620009" r="12.2944896"></circle>
                    <path d="M26.4079699,26.8797967 C26.6706882,28.639885 25.5980132,30.3249669 23.8921614,30.8319196 C23.3190953,30.9933357 22.7259825,31.0724174 22.1306438,31.0667886 C18.6798759,31.0667886 10.387193,30.2899142 9.09993013,26.3784417 C7.81266725,22.4669693 5.39622642,23.9078003 4.98068893,25.9674209 C4.74130321,27.1688663 3.86506111,28.442579 2.72233302,28.835533 C2.03821272,29.04503 1.29435442,28.8819565 0.760619231,28.4054732 C0.22688404,27.9289899 -0.0191883535,27.208319 0.111673576,26.5049096 C1.23974136,20.0583561 6.88253593,15.3854104 13.42638,15.4786532 C19.970224,15.5718959 25.4775858,20.4037194 26.42152,26.8797967 L26.4079699,26.8797967 Z" id="Path" fill="#FFD700" fill-rule="nonzero"></path>
                    <circle id="Oval" fill="#FFD700" fill-rule="nonzero" cx="20.4088732" cy="35.4019286" r="2.15898826"></circle>
                    <ellipse id="Oval" fill="#FFFFFF" fill-rule="nonzero" transform="translate(20.749885, 5.742940) rotate(-72.890000) translate(-20.749885, -5.742940) " cx="20.749885" cy="5.74294036" rx="1.5" ry="12.5"></ellipse>
                    <path d="M18.249885,16.2429404 L20.9111316,7.5573035" id="Path"></path>
                    <rect id="Rectangle" fill="#EBEBEB" fill-rule="nonzero" x="5.42332669" y="40.9448374" width="12.9945799" height="20.4426378"></rect>
                    <rect id="Rectangle" fill="#CCCCCC" fill-rule="nonzero" x="15.5136609" y="40.9448374" width="12.9945799" height="20.4426378"></rect>
                    <path d="M4.98068893,28.6142141 C4.98068893,28.6142141 -7.25508342,45.1408627 6.62928875,47.3585682" id="Path"></path>
                    <path d="M11.6157386,15.5654336 C11.6157386,15.5654336 15.152324,18.3341779 22.3655128,19.1020189" id="Path"></path>
                    <circle id="Oval" fill="#FFD700" fill-rule="nonzero" cx="5.79369706" cy="47.4579358" r="2.01897019"></circle>
                    <circle id="Oval" fill="#FFD700" fill-rule="nonzero" cx="29.7684035" cy="48.1309259" r="2.01897019"></circle>
                </g>
                <g id="Group-15" transform="translate(356.847335, 133.342089)" stroke-linecap="round" stroke-linejoin="round" stroke-width="1.5">
                    <polygon id="Rectangle" stroke="#2E4257" fill="#FFFFFF" fill-rule="nonzero" transform="translate(17.488367, 42.479198) rotate(-27.970000) translate(-17.488367, -42.479198) " points="7.63515967 32.6259911 27.3415734 32.6259911 27.3415734 52.3324049 7.63515967 52.3324049"></polygon>
                    <polygon id="Rectangle" stroke="#1D2A38" fill="#EBEBEB" fill-rule="nonzero" transform="translate(13.329866, 50.826527) rotate(-27.970000) translate(-13.329866, -50.826527) " points="3.47665905 40.9733202 23.1830728 40.9733202 23.1830728 60.6797339 3.47665905 60.6797339"></polygon>
                    <polygon id="Path" stroke="#1D2A38" fill="#CCCCCC" fill-rule="nonzero" points="0 46.7274683 4.1598916 38.3805849 21.567299 29.1348758 17.4074074 37.4862759"></polygon>
                    <polygon id="Path" stroke="#1D2A38" fill="#CCCCCC" fill-rule="nonzero" points="26.6485998 54.8891666 30.8084914 46.5422832 21.567299 29.1348758 17.4074074 37.4862759"></polygon>
                    <ellipse id="Oval" stroke="#1D2A38" fill="#FFFFFF" fill-rule="nonzero" transform="translate(22.069730, 5.219512) rotate(-12.890000) translate(-22.069730, -5.219512) " cx="22.0697296" cy="5.2195122" rx="15.0180668" ry="1.2195122"></ellipse>
                    <circle id="Oval" stroke="#1D2A38" fill="#FFFFFF" fill-rule="nonzero" cx="26.8925023" cy="25.4221386" r="12.0641373"></circle>
                    <circle id="Oval" stroke="#1D2A38" fill="#FFD700" fill-rule="nonzero" cx="15.6187895" cy="30.7066915" r="2.34417344"></circle>
                    <path d="M29.9141825,27.0436382 C29.9141825,27.0436382 30.6820235,42.5856436 16.097561,46.1673961" id="Path" stroke="#1D2A38"></path>
                    <circle id="Oval" stroke="#1D2A38" fill="#FFD700" fill-rule="nonzero" cx="14.8915989" cy="46.6281007" r="2.04155375"></circle>
                    <path d="M23.7850045,12.2333401 L22.0776874,5.25502029" id="Path" stroke="#1D2A38" fill="#FFD700" fill-rule="nonzero"></path>
                    <path d="M40.0135501,22.1068721 C40.334069,23.3936017 39.8837669,24.749785 38.8572719,25.589257 C37.7693789,26.45723 36.4826025,27.0408584 35.1129178,27.2875406 C31.2917796,28.0237646 32.4887082,24.22521 30.8897922,22.5901603 C29.7606143,21.4383988 25.8581752,23.1953997 25.8581752,23.1953997 C20.5826558,25.0788685 17.4616079,25.2505036 15.6684734,24.9659507 C15.0253458,24.8616567 14.4554374,24.4924214 14.0974093,23.9480813 C13.7393812,23.4037412 13.6260554,22.7341983 13.7850045,22.1023554 C15.2972828,16.0920675 20.701653,11.8790672 26.8992773,11.8790672 C33.0969016,11.8790672 38.5012719,16.0920675 40.0135501,22.1023554 L40.0135501,22.1068721 Z" id="Path" stroke="#1D2A38" fill="#FFD700" fill-rule="nonzero"></path>
                </g>
                <g id="Group-11" transform="translate(267.000000, 187.000000)" stroke="#1D2A38" stroke-linecap="round" stroke-linejoin="round" stroke-width="1.5">
                    <polygon id="Path" fill="#EBEBEB" fill-rule="nonzero" points="21.1472448 39.1534135 0 39.1534135 0 20.7116791 19.1147245 20.7116791"></polygon>
                    <rect id="Rectangle" fill="#CCCCCC" fill-rule="nonzero" x="14.9774164" y="20.7116791" width="14.3360434" height="18.4417344"></rect>
                    <circle id="Oval" fill="#FFD700" fill-rule="nonzero" cx="30.532972" cy="29.867054" r="2.61969286"></circle>
                    <path d="M27.163505,31.3124018 C27.1458709,32.0109141 26.8494397,32.6733213 26.3403221,33.1518918 C25.8312045,33.6304624 25.1517449,33.8853925 24.4534779,33.8598273 C23.0081301,33.8236936 23.1436314,28.5843078 24.5889792,28.6249582 C25.2881944,28.6355588 25.9540383,28.9257528 26.4377925,29.4307242 C26.9215466,29.9356956 27.1829095,30.6133755 27.163505,31.3124018 Z" id="Path" fill="#FFD700" fill-rule="nonzero"></path>
                    <circle id="Oval" fill="#FFFFFF" fill-rule="nonzero" cx="44.2411924" cy="26.6556719" r="13.0442638"></circle>
                    <path d="M57.6513098,20.8833142 C58.4257895,22.7746061 57.9512633,24.9477203 56.4588979,26.3440188 C55.1038844,27.6267649 53.229449,28.9591949 51.2782294,28.9908119 C47.4932249,29.0495291 48.0894309,26.6872889 47.0822042,24.5599176 C46.0749774,22.4325463 42.7687444,23.6114081 42.7687444,23.6114081 C37.0460705,25.4677767 33.7714544,25.6619953 31.928636,25.4406764 C31.3616412,25.3678831 30.8522729,25.0576236 30.5274676,24.5872159 C30.2026622,24.1168082 30.0930096,23.5305546 30.2258356,22.9745517 C31.7071902,16.8965434 36.930662,12.4614839 43.1684492,11.9854503 C49.4062363,11.5094168 55.2422176,15.1004798 57.6287263,20.8833142 L57.6513098,20.8833142 Z" id="Path" fill="#FFD700" fill-rule="nonzero"></path>
                    <path d="M21.065944,31.764073 C21.065944,31.764073 36.1427281,35.8742807 47.4028907,29.5599176" id="Path"></path>
                    <path d="M21.5401987,31.9853918 C21.4887236,33.4308069 20.275611,34.5610235 18.8301716,34.5102338 C17.3848238,34.4605499 17.5745257,29.2211642 19.0198735,29.2753647 C20.4635009,29.329267 21.5910196,30.5416527 21.5401987,31.9853918 Z" id="Path" fill="#FFD700" fill-rule="nonzero"></path>
                    <path d="M36.3685637,14.3250486 C40.2612599,14.3250486 44.1260706,13.6684251 47.8003613,12.3828625" id="Path" fill="#FFD700" fill-rule="nonzero"></path>
                    <path d="M41.8112014,12.3828625 L40.3206865,4.22568091" id="Path" fill="#FFD700" fill-rule="nonzero"></path>
                    <ellipse id="Oval" fill="#FFFFFF" fill-rule="nonzero" transform="translate(40.499929, 4.305330) rotate(-8.270000) translate(-40.499929, -4.305330) " cx="40.4999285" cy="4.30532972" rx="15.5194219" ry="1.30532972"></ellipse>
                </g>
                <g id="Group-16" transform="translate(447.381543, 115.683884)" stroke-linecap="round" stroke-linejoin="round" stroke-width="1.5">
                    <polygon id="Path" stroke="#2E4257" fill="#FFFFFF" fill-rule="nonzero" points="84.1405891 64.2185548 67.2029198 65.3161158 64.9761808 48.6178321 81.9138502 47.5247879"></polygon>
                    <polygon id="Path" stroke="#2E4257" fill="#FFFFFF" fill-rule="nonzero" points="67.1622694 65.3161158 50.2246 66.40916 47.997861 49.7153931 64.9355304 48.6178321"></polygon>
                    <polygon id="Path" stroke="#1D2A38" fill="#FFD700" fill-rule="nonzero" points="79.4974094 71.1652576 37.7133082 73.9882025 37.5010227 72.2266849 46.5841302 68.5184645 88.1604627 63.934002 88.3682314 65.6955196"></polygon>
                    <polyline id="Path" stroke="#1D2A38" points="38.625684 71.5311113 30.9201736 47.5247879 45.3149342 67.4931709"></polyline>
                    <polygon id="Path" stroke="#1D2A38" fill="#FFD700" fill-rule="nonzero" points="79.2896406 69.40374 37.5010227 72.2266849 46.3718448 66.7524301 88.1604627 63.934002"></polygon>
                    <polygon id="Path" stroke="#1D2A38" fill="#EBEBEB" fill-rule="nonzero" points="75.6536876 69.6115087 58.7115015 70.7090697 56.5796135 54.1824211 73.5172829 53.0848601"></polygon>
                    <polygon id="Path" stroke="#1D2A38" fill="#EBEBEB" fill-rule="nonzero" points="58.6708511 70.7090697 41.7331817 71.802114 39.6012937 55.2799821 56.5389631 54.1824211"></polygon>
                    <polygon id="Path" stroke="#1D2A38" fill="#CCCCCC" fill-rule="nonzero" points="39.6012937 55.2799821 47.997861 49.7153931 81.9138502 47.5247879 73.5172829 53.0848601"></polygon>
                    <polygon id="Path" stroke="#1D2A38" fill="#CCCCCC" fill-rule="nonzero" points="84.1405891 64.2185548 75.6536876 69.6115087 73.5172829 53.0848601 82.2480869 47.6557725"></polygon>
                    <polyline id="Path" stroke="#1D2A38" points="80.0890986 68.9611022 79.2760905 38.5997653 86.7783488 64.9231619"></polyline>
                    <path d="M56.6021971,54.137254 L66.1189089,48.5274979" id="Path" stroke="#1D2A38" fill="#FFFFFF" fill-rule="nonzero"></path>
                    <path d="M14.9626307,22.4344536 L12.5416731,16.0929902" id="Path" stroke="#1D2A38" fill="#FFD700" fill-rule="nonzero"></path>
                    <ellipse id="Oval" stroke="#1D2A38" fill="#FFFFFF" fill-rule="nonzero" transform="translate(12.741644, 16.121442) rotate(-19.050000) translate(-12.741644, -16.121442) " cx="12.7416441" cy="16.1214416" rx="12.7416441" ry="1.83830172"></ellipse>
                    <circle id="Oval" stroke="#1D2A38" fill="#FFFFFF" fill-rule="nonzero" cx="19.2444735" cy="33.3558628" r="10.7091238"></circle>
                    <path d="M31.2408601,32.6241555 L31.2408601,32.6241555 C31.2600618,33.2522613 30.9054205,33.8320998 30.3375178,34.1011203 C29.7006614,34.4172901 28.9373371,34.5527915 28.530833,33.7352666 C27.762992,32.1679676 27.7900923,25.6819694 22.7042748,29.670226 C17.6184572,33.6584825 13.3772648,33.4778141 10.8072558,33.7352666 C10.4499637,33.7737579 10.0895705,33.7737579 9.73227839,33.7352666 C9.07809617,33.6557893 8.48631367,33.308167 8.0983566,32.7754754 C7.71039953,32.2427838 7.56112533,31.5728845 7.68620793,30.9258719 C8.80427159,24.9984519 14.1886286,20.8510318 20.205093,21.2829239 C26.2215574,21.714816 30.958314,26.5887804 31.2182766,32.6151221 L31.2408601,32.6241555 Z" id="Path" stroke="#1D2A38" fill="#FFD700" fill-rule="nonzero"></path>
                    <path d="M26.995151,32.4660706 C26.995151,32.4660706 30.1568493,38.9159351 29.4341754,46.5446614 C26.6423822,46.50245 23.9349789,45.5810161 21.697048,43.9114184" id="Path" stroke="#1D2A38"></path>
                    <circle id="Oval" stroke="#1D2A38" fill="#FFD700" fill-rule="nonzero" cx="29.8542296" cy="47.3938032" r="2.01445348"></circle>
                    <circle id="Oval" stroke="#1D2A38" fill="#FFD700" fill-rule="nonzero" cx="13.4766325" cy="37.0821501" r="1.82023487"></circle>
                    <path d="M67.4919893,11.4001266 L65.9156569,4.79217721" id="Path" stroke="#1D2A38" fill="#FFD700" fill-rule="nonzero"></path>
                    <ellipse id="Oval" stroke="#1D2A38" fill="#FFFFFF" fill-rule="nonzero" transform="translate(66.111972, 4.838302) rotate(-11.570000) translate(-66.111972, -4.838302) " cx="66.1119721" cy="4.83830172" rx="12.7416441" ry="1.83830172"></ellipse>
                    <circle id="Oval" stroke="#1D2A38" fill="#FFFFFF" fill-rule="nonzero" cx="70.3149342" cy="22.7822404" r="10.7091238"></circle>
                    <path d="M82.3068041,23.6223488 L82.3068041,23.6223488 C82.2466326,24.2448798 81.8280437,24.7747392 81.2363434,24.9773624 C80.5633534,25.2077147 79.7819622,25.2438484 79.4928927,24.3766397 C78.9373371,22.7280399 79.8090625,16.300759 74.2444735,19.5889252 C68.6798845,22.8770914 64.5019261,22.1453841 61.9228836,22.0731167 C61.5636695,22.0636032 61.2064249,22.016677 60.8569396,21.9330986 C60.2176375,21.7700211 59.6749401,21.34844 59.358826,20.7693257 C59.0427118,20.1902114 58.9816529,19.5057241 59.190273,18.8798014 C61.0626059,13.1362847 66.9486676,9.71390511 72.8664072,10.9279783 C78.7841467,12.1420515 82.8471925,17.6055727 82.3068041,23.6223488 L82.3068041,23.6223488 Z" id="Path" stroke="#1D2A38" fill="#FFD700" fill-rule="nonzero"></path>
                    <path d="M63.0972287,13.2700593 C63.0972287,13.2700593 68.6211673,13.2971456 73.0339947,10.9665223" id="Path" stroke="#1D2A38" fill="#FFD700" fill-rule="nonzero"></path>
                    <path d="M78.1152956,22.899675 C78.1152956,22.899675 80.427852,29.7108764 78.6979514,37.1770011 C75.9364484,36.7737243 73.3726544,35.5092143 71.3718448,33.5636316" id="Path" stroke="#1D2A38"></path>
                    <circle id="Oval" stroke="#1D2A38" fill="#FFD700" fill-rule="nonzero" cx="79.0096045" cy="38.0848601" r="2.01445348"></circle>
                    <circle id="Oval" stroke="#1D2A38" fill="#FFD700" fill-rule="nonzero" cx="64.1089722" cy="25.7271366" r="1.82023487"></circle>
                </g>
                <path d="M458.233966,140.543812 C458.233966,140.543812 463.712737,139.852755 467.773261,136.971093" id="Path" stroke="#1D2A38" stroke-width="2" fill="#FFD700" fill-rule="nonzero" stroke-linecap="round" stroke-linejoin="round"></path>
                <g id="Group-6" transform="translate(117.000000, 339.000000)" stroke="#1D2A38" stroke-linecap="round" stroke-linejoin="round" stroke-width="1.5">
                    <path d="M28.8987435,75.7269066 C28.8987435,75.7269066 25.5892256,107.855099 35.3124743,107.017454" id="Path"></path>
                    <polygon id="Rectangle" fill="#FFFFFF" fill-rule="nonzero" transform="translate(66.356102, 102.294596) rotate(14.452428) translate(-66.356102, -102.294596) " points="48.2544537 88.0407304 84.4577497 88.0407304 84.4577497 116.548461 48.2544537 116.548461"></polygon>
                    <polygon id="Rectangle" fill="#FFFFFF" fill-rule="nonzero" points="35.1703076 93.3011649 70.1340059 102.454155 62.926624 129.985784 27.9629256 120.832793"></polygon>
                    <polygon id="Path" fill="#FFFFFF" fill-rule="nonzero" points="62.9177958 129.984934 80.3420383 120.813956 87.5502997 93.2825443 70.1260573 102.455575"></polygon>
                    <circle id="Oval" fill="#FFFFFF" fill-rule="nonzero" cx="46.0273466" cy="68.9518388" r="31.865402"></circle>
                    <path d="M18.4507678,75.8110817 C25.3346473,80.1224884 37.1848567,85.9120918 51.2790507,84.3743567 C73.5279626,81.9373854 65.6935206,64.6650687 71.809559,65.486289 C76.0532151,66.0673024 74.0494375,69.9804173 75.2340478,72.5775266 C76.2605732,74.8194581 79.6706906,74.12758 79.8924201,71.6741842 C81.4873134,53.7817187 68.8680115,37.7436955 51.1024883,35.0847123 C34.2428349,32.5491945 17.9026033,43.1429368 13.3735731,59.5796618 C12.7235337,61.9356341 12.3257449,64.3540247 12.1869097,66.7940824 C12.0546288,69.4402447 13.2456421,71.9792264 15.3650324,73.5691502 C16.6297118,74.5156066 17.9108155,75.4723283 18.4507678,75.8110817 Z" id="Path" fill="#FFD700" fill-rule="nonzero"></path>
                    <path d="M37.9403794,35.7129458 C37.9403794,35.7129458 48.5751827,39.3509519 62.6775889,39.0265699" id="Path" fill="#FFD700" fill-rule="nonzero"></path>
                    <path d="M68.9352878,78.3732891 C68.9352878,78.3732891 65.6257699,110.503535 75.3469656,109.66589" id="Path"></path>
                    <path d="M75.4106102,115.443175 C72.4172621,114.724607 75.0205305,103.884499 78.0138786,104.603067 C79.9502775,105.068096 81.4914937,106.530857 82.0569661,108.440342 C82.6224385,110.349827 82.1262584,112.41594 80.7553319,113.860396 C79.3844054,115.304852 77.347009,115.908204 75.4106102,115.443175 Z" id="Path" fill="#FFD700" fill-rule="nonzero"></path>
                    <path d="M6.86540199,69.8757117 C6.86540199,69.8757117 8.3846596,82.6682714 13.7041143,90.2666126" id="Path"></path>
                    <path d="M3.4409132,75.9527422 C3.4409132,75.9527422 5.33793217,84.1793169 8.25326435,88.991668" id="Path"></path>
                    <path d="M0,79.3217986 C0,79.3217986 0.767841012,83.7050621 2.68744354,87.4498268" id="Path"></path>
                    <path d="M51.1024883,35.0847123 L53.917221,10.8628185" id="Path"></path>
                    <ellipse id="Oval" fill="#FFFFFF" fill-rule="nonzero" transform="translate(53.915361, 10.860639) rotate(-82.850000) translate(-53.915361, -10.860639) " cx="53.9153611" cy="10.8606389" rx="5.42210725" ry="40.4060935"></ellipse>
                </g>
                <g id="Group-6" transform="translate(426.500000, 491.000000) scale(-1, 1) translate(-426.500000, -491.000000) translate(339.000000, 371.000000)" stroke="#1D2A38" stroke-linecap="round" stroke-linejoin="round" stroke-width="1.5">
                    <path d="M53.0145475,139 C53.0145475,139 46.8299926,198.52203 65,196.970174" id="Path"></path>
                    <polygon id="Rectangle" fill="#FFFFFF" fill-rule="nonzero" transform="translate(122.234924, 188.064680) rotate(14.452428) translate(-122.234924, -188.064680) " points="88.9064435 161.872202 155.588509 161.840321 155.563405 214.257157 88.8813394 214.289038"></polygon>
                    <polygon id="Rectangle" fill="#FFFFFF" fill-rule="nonzero" points="64.3308369 172 129 188.716825 115.669163 239 51 222.283175"></polygon>
                    <polygon id="Path" fill="#FFFFFF" fill-rule="nonzero" points="116 239 147.831555 222.258433 161 172 129.168445 188.745315"></polygon>
                    <circle id="Oval" fill="#FFFFFF" fill-rule="nonzero" cx="84.5" cy="126.5" r="58.5"></circle>
                    <path d="M33.5580354,139.750516 C46.2399506,147.696689 68.0711511,158.367264 94.0363608,155.533129 C135.024704,151.041649 120.591603,119.207768 131.858953,120.721325 C139.676883,121.792166 135.985398,129.004264 138.167762,133.790887 C140.058891,137.922897 146.341224,136.647725 146.749708,132.125974 C149.687921,99.1491227 126.43985,69.5901157 93.7110865,64.6894553 C62.6511735,60.016349 32.5481722,79.5412305 24.2045082,109.835068 C23.0069648,114.177262 22.2741333,118.634496 22.0183624,123.131664 C21.7746662,128.008694 23.9688256,132.688185 27.8732997,135.618507 C30.2031714,137.362881 32.5633012,139.126174 33.5580354,139.750516 Z" id="Path" fill="#FFD700" fill-rule="nonzero"></path>
                    <path d="M70,66 C70,66 89.775915,72.5469143 116,71.96316" id="Path" fill="#FFD700" fill-rule="nonzero"></path>
                    <path d="M127.015082,144 C127.015082,144 120.828823,203.521932 139,201.970178" id="Path"></path>
                    <path d="M139.424315,211.720296 C133.949635,210.417189 138.710879,190.758886 144.18556,192.061993 C147.727134,192.905314 150.545939,195.557999 151.580159,199.020809 C152.614379,202.483619 151.706891,206.230471 149.199537,208.849961 C146.692183,211.46945 142.965889,212.563616 139.424315,211.720296 Z" id="Path" fill="#FFD700" fill-rule="nonzero"></path>
                    <path d="M12,129 C12,129 14.8880216,152.212545 25,166" id="Path"></path>
                    <path d="M6,140 C6,140 9.54778157,155.142182 15,164" id="Path"></path>
                    <path d="M0,146 C0,146 1.42857143,154.089164 5,161" id="Path"></path>
                    <path d="M94,65 L99,20" id="Path"></path>
                    <ellipse id="Oval" fill="#FFFFFF" fill-rule="nonzero" transform="translate(99.317770, 19.966867) rotate(-82.850000) translate(-99.317770, -19.966867) " cx="99.3177705" cy="19.9668669" rx="9.96865866" ry="74.4299965"></ellipse>
                </g>
            </g>
        </g>
    </g>
</svg>