<?xml version="1.0" encoding="UTF-8"?>
<svg width="501px" height="471px" viewBox="0 0 501 471" version="1.1" xmlns="http://www.w3.org/2000/svg" xmlns:xlink="http://www.w3.org/1999/xlink">
    <!-- Generator: Sketch 57.1 (83088) - https://sketch.com -->
    <title>cf-2</title>
    <desc>Created with Sketch.</desc>
    <defs>
        <circle id="path-1" cx="233.957219" cy="233.957219" r="233.957219"></circle>
    </defs>
    <g id="Page-1" stroke="none" stroke-width="1" fill="none" fill-rule="evenodd">
        <g id="Products" transform="translate(-153.000000, -219.000000)">
            <g id="Group-4" transform="translate(153.000000, 215.000000)">
                <g id="cf-2">
                    <g id="Oval-2" transform="translate(0.000000, 6.307901)">
                        <mask id="mask-2" fill="white">
                            <use xlink:href="#path-1"></use>
                        </mask>
                        <use id="Oval" fill="#FFFFFF" fill-rule="nonzero" xlink:href="#path-1"></use>
                    </g>
                    <rect id="Rectangle" stroke="#1D2A38" stroke-width="1.5" fill="#FFFBE9" fill-rule="nonzero" stroke-linecap="round" stroke-linejoin="round" x="59.4040446" y="119.623032" width="355.904384" height="249.755027" rx="3"></rect>
                    <rect id="Rectangle" fill="#FFFFFF" fill-rule="nonzero" x="70.3924079" y="130.876327" width="333.915041" height="227.261053"></rect>
                    <polygon id="Path" stroke="#AEB4BB" stroke-width="1.5" fill="#FFFFFF" fill-rule="nonzero" stroke-linecap="round" stroke-linejoin="round" points="294.877984 338.418882 209.052685 299.675755 291.396023 261.323718 377.334865 299.726218"></polygon>
                    <path d="M309.411388,269.06982 L226.954508,307.749868" id="Path" stroke="#AEB4BB" fill="#FFFFFF" fill-rule="nonzero" stroke-linecap="round" stroke-linejoin="round"></path>
                    <path d="M326.089478,276.588838 L243.632598,315.281502" id="Path" stroke="#AEB4BB" fill="#FFFFFF" fill-rule="nonzero" stroke-linecap="round" stroke-linejoin="round"></path>
                    <path d="M342.767568,284.120471 L260.310688,322.813135" id="Path" stroke="#AEB4BB" fill="#FFFFFF" fill-rule="nonzero" stroke-linecap="round" stroke-linejoin="round"></path>
                    <path d="M359.445658,291.652105 L276.988778,330.332153" id="Path" stroke="#AEB4BB" fill="#FFFFFF" fill-rule="nonzero" stroke-linecap="round" stroke-linejoin="round"></path>
                    <path d="M308.957219,330.735859 L224.305189,292.522595" id="Path" stroke="#AEB4BB" fill="#FFFFFF" fill-rule="nonzero" stroke-linecap="round" stroke-linejoin="round"></path>
                    <path d="M326.291331,322.611283 L241.626685,284.398019" id="Path" stroke="#AEB4BB" fill="#FFFFFF" fill-rule="nonzero" stroke-linecap="round" stroke-linejoin="round"></path>
                    <path d="M343.612827,314.486706 L258.948181,276.260827" id="Path" stroke="#AEB4BB" fill="#FFFFFF" fill-rule="nonzero" stroke-linecap="round" stroke-linejoin="round"></path>
                    <path d="M360.934323,306.36213 L276.269677,268.136251" id="Path" stroke="#AEB4BB" fill="#FFFFFF" fill-rule="nonzero" stroke-linecap="round" stroke-linejoin="round"></path>
                    <path d="M315.227455,253.148678 C315.231173,244.143192 309.749775,236.04337 301.388327,232.698972 C293.026879,229.354574 283.471585,231.440043 277.263972,237.964179 C271.05636,244.488315 269.44828,254.135435 273.204037,262.320366 L273.204037,262.320366 L273.204037,262.408677 C273.204037,262.560066 273.342811,262.711456 273.418506,262.862846 L289.995669,297.657227 C290.589319,298.9062 291.848743,299.702034 293.231622,299.702034 C294.614501,299.702034 295.873926,298.9062 296.467576,297.657227 L313.019507,262.799767 C313.019507,262.711456 313.107818,262.610529 313.158281,262.509603 L313.246592,262.320366 L313.246592,262.320366 C314.564347,259.443022 315.240209,256.313393 315.227455,253.148678 Z M294.272426,261.260639 C290.843026,261.712069 287.507039,259.928893 285.977195,256.826611 C284.447351,253.724329 285.063545,249.992195 287.509417,247.546323 C289.955289,245.100451 293.687423,244.484257 296.789705,246.014101 C299.891987,247.543945 301.675163,250.879932 301.223733,254.309332 C300.74548,257.936613 297.887953,260.788964 294.25981,261.260639 L294.272426,261.260639 Z" id="Shape" stroke="#1D2A38" stroke-width="1.5" fill="#FFD701" fill-rule="nonzero" stroke-linecap="round" stroke-linejoin="round"></path>
                    <rect id="Rectangle" stroke="#1D2A38" stroke-width="1.5" fill="#FFD701" fill-rule="nonzero" x="94.2671726" y="244.904741" width="8.5043308" height="81.0830383"></rect>
                    <rect id="Rectangle" stroke="#1D2A38" stroke-width="1.5" fill="#FFD701" fill-rule="nonzero" x="111.033573" y="258.063023" width="8.5043308" height="67.9121413"></rect>
                    <rect id="Rectangle" stroke="#1D2A38" stroke-width="1.5" fill="#FFD701" fill-rule="nonzero" x="127.799974" y="283.988495" width="8.5043308" height="41.9866687"></rect>
                    <rect id="Rectangle" stroke="#1D2A38" stroke-width="1.5" fill="#FFD701" fill-rule="nonzero" x="144.566374" y="276.67133" width="8.5043308" height="49.3038337"></rect>
                    <rect id="Rectangle" stroke="#1D2A38" stroke-width="1.5" fill="#FFD701" fill-rule="nonzero" x="161.332775" y="307.731434" width="8.5043308" height="18.2437298"></rect>
                    <rect id="Rectangle" stroke="#1D2A38" stroke-width="1.5" fill="#FFD701" fill-rule="nonzero" x="178.099175" y="292.680783" width="8.5043308" height="33.3069971"></rect>
                    <rect id="Rectangle" stroke="#A1BCD1" stroke-width="1.58" fill="#A1BCD1" fill-rule="nonzero" stroke-linecap="round" stroke-linejoin="round" x="364.845221" y="231.134104" width="16.097763" height="16.097763"></rect>
                    <rect id="Rectangle" stroke="#A1BCD1" stroke-width="1.58" fill="#FFFFFF" fill-rule="nonzero" stroke-linecap="round" stroke-linejoin="round" x="364.845221" y="256.466634" width="16.097763" height="16.097763"></rect>
                    <path d="M93.5171726,211.16329 C93.5171726,211.16329 106.132974,186.108308 120.287904,185.010733 C134.442833,183.913158 131.831363,204.111057 145.923213,203.328877 C160.015064,202.546697 156.886345,170.136703 170.498795,169.266212 C184.111245,168.395722 177.66457,185.666755 194.746366,183.976237 L194.746366,222.656285 L93.5171726,222.656285 L93.5171726,211.16329 Z" id="Path" fill="#FFD701" fill-rule="nonzero"></path>
                    <rect id="Rectangle" stroke="#1D2A38" stroke-width="1.5" stroke-linecap="round" stroke-linejoin="round" x="93.5171726" y="154.12725" width="101.229193" height="68.4659562"></rect>
                    <g id="Group-27" transform="translate(234.942193, 154.833358)" fill="#FFFFFF" fill-rule="nonzero" stroke="#AEB4BB" stroke-linecap="round" stroke-linejoin="round" stroke-width="1.5">
                        <g id="Group-26">
                            <path d="M4.26325641e-14,0.630790088 L51.5733976,0.630790088" id="Path"></path>
                            <path d="M63.6719515,0.630790088 L73.5879717,0.630790088" id="Path"></path>
                            <path d="M84.4627928,0.630790088 L135.70818,0.630790088" id="Path"></path>
                        </g>
                        <g id="Group-25" transform="translate(0.000000, 12.758028)">
                            <path d="M-6.96331881e-13,0.630790088 L34.2140544,0.630790088" id="Path"></path>
                            <path d="M43.4992845,0.630790088 L135.70818,0.630790088" id="Path"></path>
                        </g>
                        <path d="M-2.34479103e-13,26.1468454 L135.70818,26.1468454" id="Path"></path>
                        <g id="Group-24" transform="translate(0.000000, 38.198765)">
                            <path d="M5.96855898e-13,0.630790088 L106.742299,0.630790088" id="Path"></path>
                            <path d="M115.611207,0.630790088 L135.70818,0.630790088" id="Path"></path>
                        </g>
                    </g>
                    <polygon id="Path" stroke="#1D2A38" stroke-width="1.5" fill="#FFFFFF" fill-rule="nonzero" stroke-linecap="round" stroke-linejoin="round" points="357.237893 224.460345 357.237893 284.398019 361.073096 284.398019 379.668788 269.06982 379.668788 239.182986 361.073096 224.460345"></polygon>
                    <path d="M372.288544,276.727612 C372.288544,276.727612 422.322814,279.654478 429.198426,298.868344" id="Path" stroke="#1D2A38" stroke-width="1.5"></path>
                    <path d="M419.938427,210.2928 C419.938427,210.2928 411.48584,246.702003 376.540069,234.262823" id="Path" stroke="#1D2A38" stroke-width="1.5"></path>
                    <path d="M483.39591,253.249605 C483.397041,269.932305 474.42084,285.324934 459.90081,293.53963 C445.38078,301.754326 427.563645,301.520006 413.264668,292.926301 L413.264668,292.926301 C394.099279,281.407875 385.9079,257.83561 393.80053,236.914503 C401.693159,215.993397 423.413076,203.705371 445.410825,207.716018 C467.408575,211.726665 483.394395,230.889232 483.39591,253.249605 L483.39591,253.249605 Z" id="Path" stroke="#1D2A38" stroke-width="1.5" fill="#FFD701" fill-rule="nonzero"></path>
                    <path d="M416.771861,217.647812 C410.085486,221.785795 396.586578,262.522219 412.141862,285.546057 C412.141862,285.546057 418.828237,291.374558 413.264668,292.926301 L413.264668,292.926301 C398.662451,284.139836 390.067474,268.042002 390.889974,251.019951 C391.712473,233.9979 401.819468,218.80374 417.200798,211.466069 L417.200798,211.466069 C417.200798,211.466069 423.470852,213.522445 416.771861,217.647812 Z" id="Path" stroke="#1D2A38" stroke-width="1.5" fill="#FFFFFF" fill-rule="nonzero"></path>
                    <circle id="Oval" stroke="#1D2A38" stroke-width="1.5" fill="#FFD701" fill-rule="nonzero" cx="451.023763" cy="254.902275" r="26.0137832"></circle>
                    <circle id="Oval" stroke="#1D2A38" stroke-width="1.5" fill="#FFFFFF" fill-rule="nonzero" opacity="0.85" cx="458.21477" cy="253.249605" r="41.1022821"></circle>
                    <circle id="Oval" stroke="#1D2A38" stroke-width="1.5" fill="#FFD701" fill-rule="nonzero" cx="394.340966" cy="248.922385" r="6.96392257"></circle>
                    <polygon id="Path" stroke="#1D2A38" stroke-width="1.5" fill="#FFFFFF" fill-rule="nonzero" stroke-linecap="round" stroke-linejoin="round" points="361.073096 224.460345 361.073096 284.398019 383.503992 269.06982 383.503992 239.182986"></polygon>
                    <path d="M371.632522,277.181781 C371.708217,277.118702 371.733449,273.233035 373.461814,273.233035 C375.190179,273.233035 377.448407,277.181781 375.543421,279.780636 C373.020261,283.136439 368.768735,282.568728 367.229608,280.184341 L371.632522,277.181781 Z" id="Path" stroke="#1D2A38" stroke-width="1.5" fill="#FFD701" fill-rule="nonzero"></path>
                    <path d="M372.856255,232.244295 C372.944566,232.244295 372.957182,236.193041 374.685546,236.193041 C376.413911,236.193041 378.684756,232.244295 376.767154,229.645439 C374.243993,226.289636 369.992468,226.857347 368.45334,229.241734 L372.856255,232.244295 Z" id="Path" stroke="#1D2A38" stroke-width="1.5" fill="#FFD701" fill-rule="nonzero"></path>
                    <polygon id="Path" stroke="#000000" fill="#FFFFFF" fill-rule="nonzero" stroke-linecap="round" stroke-linejoin="round" points="373.386119 237.265384 373.386119 252.227725 364.201815 251.723093 364.201815 232.25691"></polygon>
                    <path d="M364.201815,256.807261 L364.201815,275.541726" id="Path" stroke="#000000" fill="#FFFFFF" fill-rule="nonzero" stroke-linecap="round" stroke-linejoin="round"></path>
                    <path d="M367.82255,256.529713 L367.82255,273.561045" id="Path" stroke="#000000" fill="#FFFFFF" fill-rule="nonzero" stroke-linecap="round" stroke-linejoin="round"></path>
                    <path d="M370.837727,256.315244 L370.837727,271.920991" id="Path" stroke="#000000" fill="#FFFFFF" fill-rule="nonzero" stroke-linecap="round" stroke-linejoin="round"></path>
                    <path d="M373.386119,256.126007 L373.386119,270.520637" id="Path" stroke="#000000" fill="#FFFFFF" fill-rule="nonzero" stroke-linecap="round" stroke-linejoin="round"></path>
                    <path d="M477.037546,240.482413 C478.012795,241.500718 478.738325,242.731527 479.157001,244.077917" id="Path" stroke="#1D2A38" stroke-width="1.5" stroke-linecap="round"></path>
                    <path d="M479.573322,237.076147 C481.230789,238.653237 482.46318,240.623327 483.15621,242.803721" id="Path" stroke="#1D2A38" stroke-width="1.5" stroke-linecap="round"></path>
                    <path d="M482.714657,233.316638 C485.091841,235.491873 486.854097,238.254915 487.824057,241.327672" id="Path" stroke="#1D2A38" stroke-width="1.5" stroke-linecap="round"></path>
                    <polygon id="Path" stroke="#1D2A38" stroke-width="1.5" fill="#FFFFFF" fill-rule="nonzero" stroke-linecap="round" stroke-linejoin="round" points="144.548091 132.617308 141.192287 133.008398 104.480304 89.9758982 103.155645 54.475032 143.236047 97.116442"></polygon>
                    <polygon id="Path" stroke="#1D2A38" stroke-width="1.5" fill="#FFFFFF" fill-rule="nonzero" stroke-linecap="round" stroke-linejoin="round" points="141.192287 133.008398 101.111885 90.366988 99.7998418 54.8661219 139.867628 97.5075318"></polygon>
                    <circle id="Oval" stroke="#1D2A38" stroke-width="1.5" fill="#FFFFFF" fill-rule="nonzero" cx="84.4968743" cy="90.0137456" r="46.2873767"></circle>
                    <path d="M129.774987,78.722603 C127.176132,76.8302327 124.842208,80.1481886 124.160955,81.2457634 C119.610547,95.8485338 107.853977,107.074174 93.0566521,110.945388 C78.2593274,114.816603 62.511618,110.786516 51.3930105,100.283008 L51.3930105,100.283008 C43.0665813,94.9339083 45.9177525,108.432816 44.3660089,111.801235 C43.6973714,113.239437 42.5493334,113.188973 41.4265271,112.646494 C40.3998152,112.120141 39.5718802,111.274496 39.0673721,110.236876 C32.9651878,97.7044731 32.429287,83.1801856 37.5913233,70.2321684 C38.6417062,67.6370987 39.9077164,65.1346185 41.3760639,62.750998 C49.4127291,49.6798576 63.0874331,41.1064406 78.3541954,39.5673926 C93.6209576,38.0283446 108.731702,43.6998899 119.215561,54.9039693 C121.810701,57.6606643 124.083564,60.7038463 125.990246,63.9747307 C128.463818,68.2469047 130.271816,72.8711254 131.351962,77.6881073 C131.457795,78.1008702 131.289508,78.5352552 130.933215,78.7689836 C130.576921,79.002712 130.11145,78.9840724 129.774987,78.722603 L129.774987,78.722603 Z" id="Path" stroke="#1D2A38" stroke-width="1.5" fill="#FFD701" fill-rule="nonzero"></path>
                    <ellipse id="Oval" stroke="#1D2A38" stroke-width="1.5" fill="#FFD701" fill-rule="nonzero" transform="translate(82.690545, 54.872723) rotate(-4.340000) translate(-82.690545, -54.872723) " cx="82.6905446" cy="54.8727229" rx="22.2290427" ry="13.4736763"></ellipse>
                    <path d="M82.099872,52.6457408 L79.9551857,27.2753634" id="Path" stroke="#1D2A38" stroke-width="1.5" fill="#FFD701" fill-rule="nonzero" stroke-linecap="round"></path>
                    <ellipse id="Oval" stroke="#1D2A38" stroke-width="1.5" fill="#FFFFFF" fill-rule="nonzero" opacity="0.8" transform="translate(76.608935, 27.831814) rotate(-7.260000) translate(-76.608935, -27.831814) " cx="76.6089354" cy="27.8318141" rx="47.3723356" ry="21.9514951"></ellipse>
                    <circle id="Oval" stroke="#1D2A38" stroke-width="1.5" fill="#FFD701" fill-rule="nonzero" cx="98.0967086" cy="120.569217" r="6.96392257"></circle>
                    <path d="M49.6772614,109.278075 C49.6772614,109.278075 53.8026286,135.001695 77.5203359,170.464713" id="Path" stroke="#1D2A38" stroke-width="1.5" stroke-linecap="round"></path>
                    <path d="M92.2303608,189.653348 C91.5048438,189.979068 90.67917,190.000993 89.9373896,189.714234 C89.1956091,189.427476 88.5993828,188.855871 88.2816148,188.126836 L85.8593809,182.651578 C82.8652257,184.616516 78.9213479,184.308891 76.2680851,181.903451 C73.6148223,179.49801 72.9231803,175.603085 74.5860496,172.431207 C76.2489188,169.259328 79.8457624,167.612658 83.3333769,168.426595 C86.8209914,169.240532 89.317365,172.309233 89.4044212,175.889508 L93.744257,185.704602 C94.409383,187.213254 93.7335678,188.976005 92.2303608,189.653348 L92.2303608,189.653348 Z" id="Path" stroke="#1D2A38" stroke-width="1.5" fill="#FFD701" fill-rule="nonzero"></path>
                    <path d="M131.339346,122.524667 C131.339346,122.524667 131.755668,117.680199 130.771635,116.481698 C129.787603,115.283197 126.986895,111.24614 125.49823,114.917338 C124.009565,118.588537 125.006214,125.00998 129.648829,126.27156 C134.291444,127.53314 133.900354,125.312759 133.900354,125.312759 L131.339346,122.524667 Z" id="Path" stroke="#1D2A38" stroke-width="1.5" fill="#FFD701" fill-rule="nonzero"></path>
                    <path d="M139.867628,97.5075318 L143.236047,97.116442" id="Path" stroke="#000000" stroke-width="0.86" fill="#FFFFFF" fill-rule="nonzero" stroke-linecap="round" stroke-linejoin="round"></path>
                    <path d="M119.253408,56.6449499 C119.253408,74.4963094 101.66698,88.9540182 79.9551857,88.9540182 C60.779167,88.9540182 44.8075619,77.5997966 41.3508323,62.7131506 C49.3874975,49.6420102 63.0622015,41.0685932 78.3289637,39.5295452 C93.595726,37.9904972 108.70647,43.6620425 119.190329,54.8661219 C119.228177,55.5095278 119.253408,56.0520072 119.253408,56.6449499 Z" id="Path" fill="#161616" fill-rule="nonzero" style="mix-blend-mode: color-dodge;"></path>
                    <ellipse id="Oval" fill="#FFFFFF" fill-rule="nonzero" transform="translate(73.618357, 77.115681) rotate(-76.900000) translate(-73.618357, -77.115681) " cx="73.6183566" cy="77.1156806" rx="4.81923627" ry="6.68637493"></ellipse>
                    <circle id="Oval" fill="#161616" fill-rule="nonzero" style="mix-blend-mode: color-dodge;" cx="96.9739022" cy="118.588537" r="3.63335091"></circle>
                    <circle id="Oval" fill="#161616" fill-rule="nonzero" style="mix-blend-mode: color-dodge;" cx="82.099872" cy="174.325149" r="5.48787377"></circle>
                    <path d="M51.102847,16.5140845 C60.1618689,12.2875728 69.967576,9.89510037 79.9551857,9.47446712" id="Path" stroke="#000000" stroke-width="0.74" stroke-linecap="round"></path>
                    <path d="M56.3762522,17.9775175 C56.3762522,17.9775175 67.7304738,12.9942758 78.2520524,12.9942758" id="Path" stroke="#000000" stroke-width="0.74" stroke-linecap="round"></path>
                    <path d="M62.9112375,18.7596972 C67.2234732,17.3737066 71.6809891,16.4889765 76.1956767,16.1229947" id="Path" stroke="#000000" stroke-width="0.74" stroke-linecap="round"></path>
                    <rect id="Rectangle" stroke="#1D2A38" stroke-width="1.5" fill="#FFFFFF" fill-rule="nonzero" x="77.1797093" y="333.019319" width="181.957709" height="30.0760714"></rect>
                    <path d="M82.2638774,333.019319 L82.2638774,340.273405" id="Path" stroke="#1D2A38" fill="#FFFFFF" fill-rule="nonzero"></path>
                    <path d="M87.0452662,333.019319 L87.0452662,337.296076" id="Path" stroke="#1D2A38" fill="#FFFFFF" fill-rule="nonzero"></path>
                    <path d="M91.8266551,333.019319 L91.8266551,337.296076" id="Path" stroke="#1D2A38" fill="#FFFFFF" fill-rule="nonzero"></path>
                    <path d="M96.608044,333.019319 L96.608044,337.296076" id="Path" stroke="#1D2A38" fill="#FFFFFF" fill-rule="nonzero"></path>
                    <path d="M101.402049,333.019319 L101.402049,337.296076" id="Path" stroke="#1D2A38" fill="#FFFFFF" fill-rule="nonzero"></path>
                    <path d="M106.183438,333.019319 L106.183438,340.273405" id="Path" stroke="#1D2A38" fill="#FFFFFF" fill-rule="nonzero"></path>
                    <path d="M110.964826,333.019319 L110.964826,337.296076" id="Path" stroke="#1D2A38" fill="#FFFFFF" fill-rule="nonzero"></path>
                    <path d="M115.746215,333.019319 L115.746215,337.296076" id="Path" stroke="#1D2A38" fill="#FFFFFF" fill-rule="nonzero"></path>
                    <path d="M120.527604,333.019319 L120.527604,337.296076" id="Path" stroke="#1D2A38" fill="#FFFFFF" fill-rule="nonzero"></path>
                    <path d="M125.321609,333.019319 L125.321609,337.296076" id="Path" stroke="#1D2A38" fill="#FFFFFF" fill-rule="nonzero"></path>
                    <path d="M130.102998,333.019319 L130.102998,337.296076" id="Path" stroke="#1D2A38" fill="#FFFFFF" fill-rule="nonzero"></path>
                    <path d="M134.884387,333.019319 L134.884387,340.273405" id="Path" stroke="#1D2A38" fill="#FFFFFF" fill-rule="nonzero"></path>
                    <path d="M139.665775,333.019319 L139.665775,337.296076" id="Path" stroke="#1D2A38" fill="#FFFFFF" fill-rule="nonzero"></path>
                    <path d="M144.447164,333.019319 L144.447164,337.296076" id="Path" stroke="#1D2A38" fill="#FFFFFF" fill-rule="nonzero"></path>
                    <path d="M149.241169,333.019319 L149.241169,337.296076" id="Path" stroke="#1D2A38" fill="#FFFFFF" fill-rule="nonzero"></path>
                    <path d="M154.022558,333.019319 L154.022558,337.296076" id="Path" stroke="#1D2A38" fill="#FFFFFF" fill-rule="nonzero"></path>
                    <path d="M158.803947,333.019319 L158.803947,340.273405" id="Path" stroke="#1D2A38" fill="#FFFFFF" fill-rule="nonzero"></path>
                    <path d="M163.585336,333.019319 L163.585336,337.296076" id="Path" stroke="#1D2A38" fill="#FFFFFF" fill-rule="nonzero"></path>
                    <path d="M168.366724,333.019319 L168.366724,337.296076" id="Path" stroke="#1D2A38" fill="#FFFFFF" fill-rule="nonzero"></path>
                    <path d="M173.160729,333.019319 L173.160729,337.296076" id="Path" stroke="#1D2A38" fill="#FFFFFF" fill-rule="nonzero"></path>
                    <path d="M177.942118,333.019319 L177.942118,337.296076" id="Path" stroke="#1D2A38" fill="#FFFFFF" fill-rule="nonzero"></path>
                    <path d="M182.723507,333.019319 L182.723507,340.273405" id="Path" stroke="#1D2A38" fill="#FFFFFF" fill-rule="nonzero"></path>
                    <path d="M187.504896,333.019319 L187.504896,337.296076" id="Path" stroke="#1D2A38" fill="#FFFFFF" fill-rule="nonzero"></path>
                    <path d="M192.2989,333.019319 L192.2989,337.296076" id="Path" stroke="#1D2A38" fill="#FFFFFF" fill-rule="nonzero"></path>
                    <path d="M197.080289,333.019319 L197.080289,337.296076" id="Path" stroke="#1D2A38" fill="#FFFFFF" fill-rule="nonzero"></path>
                    <path d="M201.861678,333.019319 L201.861678,337.296076" id="Path" stroke="#1D2A38" fill="#FFFFFF" fill-rule="nonzero"></path>
                    <path d="M206.643067,333.019319 L206.643067,340.273405" id="Path" stroke="#1D2A38" fill="#FFFFFF" fill-rule="nonzero"></path>
                    <path d="M211.424456,333.019319 L211.424456,337.296076" id="Path" stroke="#1D2A38" fill="#FFFFFF" fill-rule="nonzero"></path>
                    <path d="M216.21846,333.019319 L216.21846,337.296076" id="Path" stroke="#1D2A38" fill="#FFFFFF" fill-rule="nonzero"></path>
                    <path d="M220.999849,333.019319 L220.999849,337.296076" id="Path" stroke="#1D2A38" fill="#FFFFFF" fill-rule="nonzero"></path>
                    <path d="M225.781238,333.019319 L225.781238,337.296076" id="Path" stroke="#1D2A38" fill="#FFFFFF" fill-rule="nonzero"></path>
                    <path d="M230.562627,333.019319 L230.562627,340.273405" id="Path" stroke="#1D2A38" fill="#FFFFFF" fill-rule="nonzero"></path>
                    <path d="M235.344016,333.019319 L235.344016,337.296076" id="Path" stroke="#1D2A38" fill="#FFFFFF" fill-rule="nonzero"></path>
                    <path d="M240.138021,333.019319 L240.138021,337.296076" id="Path" stroke="#1D2A38" fill="#FFFFFF" fill-rule="nonzero"></path>
                    <path d="M244.91941,333.019319 L244.91941,337.296076" id="Path" stroke="#1D2A38" fill="#FFFFFF" fill-rule="nonzero"></path>
                    <path d="M249.700798,333.019319 L249.700798,337.296076" id="Path" stroke="#1D2A38" fill="#FFFFFF" fill-rule="nonzero"></path>
                    <path d="M254.482187,333.019319 L254.482187,340.273405" id="Path" stroke="#1D2A38" fill="#FFFFFF" fill-rule="nonzero"></path>
                    <path d="M77.1797093,358.238307 L259.137418,358.238307" id="Path" stroke="#1D2A38" stroke-width="1.5" fill="#FFFFFF" fill-rule="nonzero"></path>
                    <path d="M210.806282,359.197108 C210.806344,374.585581 202.524731,388.783272 189.12985,396.35838 C175.734969,403.933489 159.299909,403.713635 146.11245,395.782933 L146.11245,395.782933 C128.430239,385.153442 120.875534,363.402585 128.161754,344.100833 C135.447973,324.79908 155.491438,313.466257 175.786928,317.17297 C196.082419,320.879683 210.825924,338.565903 210.8189,359.197108 L210.806282,359.197108 Z" id="Path" stroke="#1D2A38" stroke-width="1.5" fill="#FFFFFF" fill-rule="nonzero"></path>
                    <path d="M213.859306,358.377081 L213.859306,358.377081 C213.79019,362.585695 212.235094,366.634306 209.469007,369.806997 C204.094675,375.786887 192.0592,389.550727 168.114408,389.550727 C144.169617,389.550727 131.591662,375.585034 126.684115,369.642992 C124.640356,367.119831 122.369511,361.682421 122.356895,358.465391 L122.356895,358.465391 C122.082454,341.938986 130.742064,326.549149 145.010363,318.205705 C159.278662,309.862262 176.937539,309.862262 191.205838,318.205705 C205.474137,326.549149 214.133747,341.938986 213.859306,358.465391 L213.859306,358.377081 Z" id="Path" stroke="#1D2A38" stroke-width="1.5" fill="#FFD701" fill-rule="nonzero"></path>
                    <ellipse id="Oval" stroke="#1D2A38" stroke-width="1.5" fill="#FFD701" fill-rule="nonzero" cx="168.114408" cy="324.415342" rx="24.6638924" ry="11.7957746"></ellipse>
                    <path d="M168.114408,324.415342 L168.114408,293.519244" id="Path" stroke="#1D2A38" stroke-width="1.5" fill="#FFD701" fill-rule="nonzero" stroke-linecap="round"></path>
                    <ellipse id="Oval" stroke="#1D2A38" stroke-width="1.5" fill="#FFFFFF" fill-rule="nonzero" opacity="0.8" cx="168.328877" cy="303.20818" rx="44.3319274" ry="18.8101604"></ellipse>
                    <ellipse id="Oval" fill="#000000" fill-rule="nonzero" cx="168.114408" cy="324.819048" rx="1.57697522" ry="1.12280636"></ellipse>
                    <path d="M180.667508,288.977179 C180.667508,288.977179 189.233637,289.898132 194.078105,292.257287" id="Path" stroke="#1D2A38" stroke-width="1.5" fill="#FFD701" fill-rule="nonzero" stroke-linecap="round"></path>
                    <path d="M179.772162,292.912932 C183.304024,293.253019 186.774627,294.063392 190.091888,295.32255" id="Path" stroke="#1D2A38" stroke-width="1.5" fill="#FFD701" fill-rule="nonzero" stroke-linecap="round"></path>
                    <path d="M238.611509,348.789071 C238.611509,356.724411 223.787942,356.724411 223.787942,348.789071 C223.675661,346.068155 225.063269,343.504467 227.402716,342.110559 C229.742163,340.716651 232.657287,340.716651 234.996734,342.110559 C237.336182,343.504467 238.723789,346.068155 238.611509,348.789071 Z" id="Path" stroke="#1D2A38" stroke-width="1.5" fill="#FFD701" fill-rule="nonzero"></path>
                    <path d="M208.989606,370.753182 C208.989606,370.753182 210.692739,379.14269 220.167206,377.742336 C229.641674,376.341982 231.206033,351.804248 231.206033,351.804248" id="Path" stroke="#1D2A38" stroke-width="1.5" stroke-linecap="round"></path>
                    <path d="M97.3902237,348.789071 C97.3902237,356.724411 112.201175,356.724411 112.201175,348.789071 C112.201175,346.14335 110.789699,343.698602 108.498437,342.375741 C106.207175,341.05288 103.384224,341.05288 101.092961,342.375741 C98.8016992,343.698602 97.3902237,346.14335 97.3902237,348.789071 L97.3902237,348.789071 Z" id="Path" stroke="#1D2A38" stroke-width="1.5" fill="#FFD701" fill-rule="nonzero"></path>
                    <path d="M127.012126,370.753182 C127.012126,370.753182 125.296377,379.14269 115.82191,377.742336 C106.347443,376.341982 104.795699,351.804248 104.795699,351.804248" id="Path" stroke="#1D2A38" stroke-width="1.5" stroke-linecap="round"></path>
                    <ellipse id="Oval" fill="#161616" fill-rule="nonzero" style="mix-blend-mode: color-dodge;" cx="168.127024" cy="335.681253" rx="35.63964" ry="21.5856368"></ellipse>
                    <ellipse id="Oval" fill="#FFFFFF" fill-rule="nonzero" transform="translate(186.662201, 342.342683) rotate(-21.140000) translate(-186.662201, -342.342683) " cx="186.662201" cy="342.342683" rx="7.92272351" ry="4.86969948"></ellipse>
                    <circle id="Oval" fill="#161616" fill-rule="nonzero" style="mix-blend-mode: color-dodge;" cx="395.640393" cy="248.758379" r="4.50384123"></circle>
                </g>
            </g>
        </g>
    </g>
</svg>