<?xml version="1.0" encoding="UTF-8"?>
<svg width="709px" height="645px" viewBox="0 0 709 645" version="1.1" xmlns="http://www.w3.org/2000/svg" xmlns:xlink="http://www.w3.org/1999/xlink">
    <!-- Generator: Sketch 52.4 (67378) - http://www.bohemiancoding.com/sketch -->
    <title>Group</title>
    <desc>Created with Sketch.</desc>
    <g id="Page-1" stroke="none" stroke-width="1" fill="none" fill-rule="evenodd">
        <g id="Services" transform="translate(-25.000000, -2139.000000)">
            <g id="Group" transform="translate(26.000000, 2140.000000)">
                <g id="illust-2b" opacity="0.5" stroke="#D8D8D8" stroke-linecap="round">
                    <path d="M195.444194,596.848707 C195.442892,606.339751 187.826643,614.072383 178.340675,614.213583 L177.828387,614.213583 C168.242099,614.213583 160.470876,606.439064 160.470876,596.848707 C160.470876,587.258351 168.242099,579.483831 177.828387,579.483831 L178.340675,579.483831 C187.826643,579.625032 195.442892,587.357664 195.444194,596.848707 Z" id="Path" stroke-width="2"></path>
                    <path d="M195.444194,596.848707 C195.442892,606.339751 187.826643,614.072383 178.340675,614.213583 L177.828387,614.213583 C174.896724,611.491708 172.683986,607.516564 171.642191,602.869565 C170.761377,598.898211 170.761377,594.781977 171.642191,590.810623 C172.683986,586.163624 174.896724,582.197093 177.828387,579.466604 L178.340675,579.466604 C187.833349,579.607901 195.452307,587.350957 195.444194,596.848707 Z" id="Path" stroke-width="2"></path>
                    <path d="M185.181221,596.848707 C185.185009,598.876468 184.96557,600.898479 184.526871,602.878178 C183.485076,607.525177 181.272338,611.491708 178.33637,614.222197 L177.824082,614.222197 C168.237794,614.222197 160.466571,606.447677 160.466571,596.857321 C160.466571,587.266965 168.237794,579.492445 177.824082,579.492445 L178.33637,579.492445 C181.272338,582.21432 183.502296,586.189464 184.526871,590.836463 C184.964315,592.81054 185.183747,594.826705 185.181221,596.848707 Z" id="Path" stroke-width="2"></path>
                    <path d="M191.453516,585.776015 C188.156712,589.762384 183.254088,592.069458 178.082378,592.068198 C172.910669,592.069458 168.008045,589.762384 164.71124,585.776015 C167.947901,581.855755 172.742126,579.555251 177.824082,579.483831 L178.33637,579.483831 C183.419565,579.555158 188.21515,581.855559 191.453516,585.776015 Z" id="Path" stroke-width="2"></path>
                    <path d="M191.453516,607.9214 C188.216255,611.84327 183.419975,614.144005 178.33637,614.213583 L177.824082,614.213583 C172.741716,614.143913 167.946794,611.843075 164.71124,607.9214 C168.008762,603.93593 172.910904,601.629004 178.082378,601.629004 C183.253853,601.629004 188.155995,603.93593 191.453516,607.9214 Z" id="Path" stroke-width="2"></path>
                    <path d="M178.082378,579.483831 L178.082378,614.213583" id="Path" stroke-width="2"></path>
                    <path d="M681.721403,23.687207 L681.721404,28.2523778 L640.785744,28.2523778 L640.785746,23.687207 C640.784603,22.1021947 641.413179,20.5817093 642.533073,19.4605323 C643.652967,18.3393553 645.172355,17.7094169 646.756695,17.7094173 L675.746149,17.7094173 C677.331235,17.7082736 678.851728,18.3377073 679.972554,19.4590084 C681.093379,20.5803094 681.722546,22.1014482 681.721403,23.687207 Z" id="Path" stroke-width="2" stroke-linejoin="round"></path>
                    <path d="M681.721403,28.2523778 L681.721403,52.6846551 C681.721403,54.2696677 681.091732,55.7896995 679.971031,56.9100687 C678.850329,58.030438 677.330489,58.6592807 675.746149,58.658138 L646.756695,58.658138 C643.459031,58.658138 640.785746,55.9837186 640.785746,52.6846551 L640.785746,28.2523778 L681.721403,28.2523778 Z" id="Path" stroke-width="2" stroke-linejoin="round"></path>
                    <ellipse id="Oval" stroke-width="2" stroke-linejoin="round" cx="675.98292" cy="22.9808975" rx="1.8597333" ry="1.86052244"></ellipse>
                    <ellipse id="Oval" stroke-width="2" stroke-linejoin="round" cx="669.159593" cy="22.9808975" rx="1.8597333" ry="1.86052244"></ellipse>
                    <path d="M651.793473,35.0786001 L675.98292,35.0786001" id="Path" stroke-width="2" stroke-linejoin="round"></path>
                    <path d="M646.524228,35.0786001 L649.111496,35.0786001" id="Path" stroke-width="2" stroke-linejoin="round"></path>
                    <path d="M671.940583,40.6644742 L675.98292,40.6644742" id="Path" stroke-width="2" stroke-linejoin="round"></path>
                    <path d="M646.524228,40.6644742 L669.159593,40.6644742" id="Path" stroke-width="2" stroke-linejoin="round"></path>
                    <path d="M656.757066,46.2503483 L675.98292,46.2503483" id="Path" stroke-width="2" stroke-linejoin="round"></path>
                    <path d="M646.524228,46.2503483 L653.963161,46.2503483" id="Path" stroke-width="2" stroke-linejoin="round"></path>
                    <path d="M646.524228,51.8319156 L661.251422,51.8319156" id="Path" stroke-width="2" stroke-linejoin="round"></path>
                    <path d="M294.948536,459.609337 L294.948536,476.147314 L287.763594,483.330998 L271.232631,483.330998 C269.820365,483.330998 268.675498,482.185645 268.675498,480.77278 L268.675498,459.609337 C268.675498,458.196472 269.820365,457.051119 271.232631,457.051119 L292.391402,457.051119 C293.803668,457.051119 294.948536,458.196472 294.948536,459.609337 Z" id="Path" stroke-width="2"></path>
                    <path d="M287.76359,483.330998 L287.763594,478.705532 C287.762449,478.0267 288.031492,477.375341 288.511296,476.895334 C288.9911,476.415326 289.642183,476.146168 290.320727,476.147314 L294.948536,476.14731 L287.76359,483.330998 Z" id="Path" stroke-width="2" stroke-linejoin="round"></path>
                    <path d="M273.953352,463.227019 L289.670681,463.227019" id="Path" stroke-width="2" stroke-linejoin="round"></path>
                    <path d="M273.953352,470.191058 L289.670681,470.191058" id="Path" stroke-width="2" stroke-linejoin="round"></path>
                    <path d="M273.953352,477.155097 L285.21507,477.155097" id="Path" stroke-width="2" stroke-linejoin="round"></path>
                    <path d="M525.680308,601.33205 L525.680308,630.320884 L513.088364,642.922478 L484.111825,642.922478 C481.6354,642.920104 479.628452,640.912305 479.626079,638.434829 L479.626079,601.33205 C479.628455,598.855272 481.636096,596.848706 484.111825,596.848707 L521.198867,596.848707 C522.38777,596.847563 523.528306,597.319546 524.368987,598.160584 C525.209669,599.001622 525.681452,600.142643 525.680308,601.33205 Z" id="Path" stroke-width="2"></path>
                    <path d="M513.088362,642.922478 L513.088364,634.817147 C513.087221,633.627344 513.558867,632.485882 514.399424,631.644161 C515.239981,630.802439 516.380506,630.329497 517.569805,630.329498 L525.680308,630.329498 L513.088362,642.922478 Z" id="Path" stroke-width="2" stroke-linejoin="round"></path>
                    <path d="M488.877391,607.675914 L516.428996,607.675914" id="Path" stroke-width="2" stroke-linejoin="round"></path>
                    <path d="M488.877391,619.885593 L516.428996,619.885593" id="Path" stroke-width="2" stroke-linejoin="round"></path>
                    <path d="M488.877391,632.090965 L508.624143,632.090965" id="Path" stroke-width="2" stroke-linejoin="round"></path>
                    <path d="M689.95675,473.744139 L701.735061,473.744139 C704.551476,473.746514 706.834039,476.030046 706.836412,478.847656 L706.836412,494.184046 C706.836413,497.003337 704.553156,499.289492 701.735061,499.291869 L671.600493,499.291869 C668.782398,499.289492 666.49914,497.003337 666.499141,494.184046 L666.499141,478.847656 C666.500282,477.492229 667.039884,476.192835 667.999119,475.235616 C668.958354,474.278397 670.258558,473.741853 671.613408,473.744139 L683.391719,473.744139" id="Path" stroke-width="2" stroke-linejoin="round"></path>
                    <path d="M685.268672,487.594695 L700.787974,487.594695" id="Path" stroke-width="2" stroke-linejoin="round"></path>
                    <path d="M685.268672,492.749893 L693.671911,492.749893" id="Path" stroke-width="2" stroke-linejoin="round"></path>
                    <path d="M689.702758,476.504776 L687.270468,477.87002 C686.920789,478.050864 686.505169,478.050864 686.155489,477.87002 L683.65432,476.500469 C683.50308,476.432095 683.400871,476.286963 683.387414,476.121474 L683.387414,469.308171 C683.387414,469.041152 683.710284,468.825814 684.106339,468.825814 L689.24213,468.825814 C689.638184,468.825814 689.961055,469.041152 689.961055,469.308171 L689.961055,476.130087 C689.947768,476.292079 689.849391,476.434786 689.702758,476.504776 Z" id="Path" stroke-width="2" stroke-linejoin="round"></path>
                    <path d="M680.481581,493.985934 C680.481581,496.208225 678.677812,496.035954 676.456463,496.035954 C674.235115,496.035954 672.431346,496.208225 672.431346,493.985934 C672.431346,491.76198 674.233453,489.959109 676.456463,489.959109 C678.679474,489.959109 680.481581,491.76198 680.481581,493.985934 Z" id="Path" stroke-width="2" stroke-linejoin="round"></path>
                    <ellipse id="Oval" stroke-width="2" stroke-linejoin="round" cx="676.456463" cy="486.354347" rx="2.02332095" ry="2.0241795"></ellipse>
                    <path d="M666.512056,481.035492 L706.836412,481.035492" id="Path" stroke-width="2" stroke-linejoin="round"></path>
                    <path d="M188.05692,312.322284 C188.05692,319.643784 184.634494,327.826638 179.309286,333.472806 L150.974183,333.472806 C145.648974,327.843865 142.226548,319.635171 142.226548,312.322284 C142.226548,299.661206 152.486026,289.397374 165.141734,289.397374 C177.797442,289.397374 188.05692,299.661206 188.05692,312.322284 Z" id="Path" stroke-width="2" stroke-linejoin="round"></path>
                    <path d="M169.184071,348.847957 L161.103702,348.847957 L161.185496,348.791969 L169.102277,348.791969 C169.132412,348.847957 169.184071,348.847957 169.184071,348.847957 Z" id="Path" stroke-width="2" stroke-linejoin="round"></path>
                    <path d="M172.968112,356.505385 C172.510506,360.483266 169.144173,363.485673 165.141734,363.485673 C161.139295,363.485673 157.772962,360.483266 157.315357,356.505385 L172.968112,356.505385 Z" id="Path" stroke-width="2" stroke-linejoin="round"></path>
                    <path d="M184.040413,337.292907 C184.042702,338.307157 183.641272,339.280587 182.924796,339.998176 C182.208319,340.715765 181.235754,341.118461 180.221933,341.117314 L150.057231,341.117314 C148.661665,341.164186 147.351583,340.446094 146.639924,339.244193 C145.928265,338.042293 145.928265,336.547827 146.639924,335.345927 C147.351583,334.144027 148.661665,333.425935 150.057231,333.472806 L180.221933,333.472806 C182.330821,333.472806 184.040413,335.183124 184.040413,337.292907 Z" id="Path" stroke-width="2" stroke-linejoin="round"></path>
                    <path d="M180.626597,344.971869 C180.630037,345.985327 180.229431,346.958332 179.513512,347.675363 C178.797593,348.392394 177.825453,348.794268 176.812422,348.791969 L153.475352,348.791969 C152.081342,348.838815 150.772707,348.121538 150.061833,346.920981 C149.350959,345.720424 149.350959,344.22762 150.061833,343.027063 C150.772707,341.826506 152.081342,341.109229 153.475352,341.156075 L176.812422,341.156075 C177.824004,341.156075 178.794154,341.558095 179.509451,342.273695 C180.224747,342.989295 180.626597,343.959857 180.626597,344.971869 Z" id="Path" stroke-width="2" stroke-linejoin="round"></path>
                    <path d="M178.082378,352.680978 C178.08238,354.791459 176.373483,356.503008 174.263898,356.505385 L156.015265,356.505385 C153.905681,356.503008 152.196784,354.791459 152.196785,352.680978 C152.203884,350.574842 153.910016,348.86991 156.015265,348.865184 L174.263898,348.865184 C175.276226,348.864041 176.247483,349.265556 176.963711,349.98128 C177.679939,350.697005 178.082379,351.66822 178.082378,352.680978 Z" id="Path" stroke-width="2" stroke-linejoin="round"></path>
                    <path d="M170.63914,332.968915 C170.875912,326.564756 171.706765,318.618774 173.157529,313.437736 C174.414571,308.975928 176.123631,306.568446 178.323455,308.980234 C180.264982,311.133617 177.29888,312.524702 173.157529,313.437736 C171.284881,313.868413 169.179766,314.165579 167.182275,314.402451 C165.842416,314.561789 164.488407,314.561789 163.148548,314.402451 L162.950521,314.376611 C161.000384,314.144046 158.955538,313.842572 157.143159,313.437736 C153.019028,312.524702 150.048621,311.120697 151.977233,308.980234 C154.164142,306.568446 155.877507,308.980234 157.143159,313.437736 C158.593923,318.605854 159.424776,326.564756 159.661548,332.968915" id="Path" stroke-width="2" stroke-linejoin="round"></path>
                    <rect id="Rectangle" stroke-width="2" stroke-linejoin="round" x="561.609322" y="518.853195" width="28.6020094" height="28.614146" rx="10"></rect>
                    <path d="M567.356415,523.198721 L567.356415,543.121815" id="Path" stroke-width="2" stroke-linejoin="round"></path>
                    <ellipse id="Oval" stroke-width="2" stroke-linejoin="round" cx="567.356415" cy="530.421165" rx="1.73919503" ry="1.73993302"></ellipse>
                    <path d="M575.910327,523.198721 L575.910327,543.121815" id="Path" stroke-width="2" stroke-linejoin="round"></path>
                    <ellipse id="Oval" stroke-width="2" stroke-linejoin="round" cx="575.910327" cy="537.953697" rx="1.73919503" ry="1.73993302"></ellipse>
                    <path d="M584.464239,523.198721 L584.464239,543.121815" id="Path" stroke-width="2" stroke-linejoin="round"></path>
                    <ellipse id="Oval" stroke-width="2" stroke-linejoin="round" cx="584.464239" cy="531.825171" rx="1.73919503" ry="1.73993302"></ellipse>
                    <ellipse id="Oval" stroke-width="2" stroke-linejoin="round" cx="491.757395" cy="138.695057" rx="21.6882786" ry="21.6974816"></ellipse>
                    <path d="M491.886543,138.953463 L503.118127,127.846316" id="Path" stroke-width="2" stroke-linejoin="round"></path>
                    <path d="M491.886543,138.953463 L491.757395,132.110013" id="Path" stroke-width="2" stroke-linejoin="round"></path>
                    <ellipse id="Oval" stroke-width="2" stroke-linejoin="round" cx="491.757395" cy="138.695057" rx="2.84125921" ry="2.84246484"></ellipse>
                    <path d="M491.757395,116.308493 L491.757395,113.444494" id="Path" stroke-width="4" stroke-linejoin="round"></path>
                    <path d="M488.627705,113.315291 L494.887085,113.315291" id="Path" stroke-width="4" stroke-linejoin="round"></path>
                    <path d="M510.996164,138.695057 L508.284053,138.695057" id="Path" stroke-width="2" stroke-linejoin="round"></path>
                    <path d="M508.417506,129.073744 L506.06701,130.430375" id="Path" stroke-width="2" stroke-linejoin="round"></path>
                    <path d="M501.378932,122.032184 L500.022876,124.383677" id="Path" stroke-width="2" stroke-linejoin="round"></path>
                    <path d="M503.570146,118.160402 L502.90288,119.280161" id="Path" stroke-width="4" stroke-linejoin="round"></path>
                    <path d="M491.757395,122.165693 L491.757395,119.452431" id="Path" stroke-width="2" stroke-linejoin="round"></path>
                    <rect id="Rectangle" stroke-width="2" x="501.835255" y="193.920703" width="196.925093" height="103.237461" rx="20"></rect>
                    <path d="M579.070152,214.907569 L625.059806,214.907569" id="Path" stroke-width="5" stroke-linejoin="round"></path>
                    <path d="M516.954198,214.907569 L572.014358,214.907569" id="Path" stroke-width="5" stroke-linejoin="round"></path>
                    <path d="M607.547318,235.325941 L625.059806,235.325941" id="Path" stroke-width="5" stroke-linejoin="round"></path>
                    <path d="M530.183273,235.325941 L602.256549,235.325941" id="Path" stroke-width="5" stroke-linejoin="round"></path>
                    <path d="M516.954198,235.325941 L524.388827,235.325941" id="Path" stroke-width="5" stroke-linejoin="round"></path>
                    <path d="M588.20523,255.74862 L625.059806,255.74862" id="Path" stroke-width="5" stroke-linejoin="round"></path>
                    <path d="M516.954198,255.74862 L582.096523,255.74862" id="Path" stroke-width="5" stroke-linejoin="round"></path>
                    <path d="M516.954198,276.166993 L559.921787,276.166993" id="Path" stroke-width="5" stroke-linejoin="round"></path>
                    <rect id="Rectangle" stroke-width="2" stroke-linejoin="round" x="637.535517" y="203.56355" width="49.1408695" height="83.9517683" rx="20"></rect>
                    <rect id="Rectangle" stroke-width="2" stroke-linejoin="round" x="643.661444" y="269.504427" width="37.892066" height="12.9504421" rx="6.47522103"></rect>
                    <ellipse id="Oval" stroke-width="2" stroke-linejoin="round" cx="650.56226" cy="276.166993" rx="3.02206661" ry="3.02334896"></ellipse>
                    <ellipse id="Oval" stroke-width="2" fill="#DBDBDB" fill-rule="nonzero" stroke-linejoin="round" cx="662.607477" cy="276.166993" rx="3.02206661" ry="3.02334896"></ellipse>
                    <ellipse id="Oval" stroke-width="2" stroke-linejoin="round" cx="674.656999" cy="276.166993" rx="3.02206661" ry="3.02334896"></ellipse>
                    <rect id="Rectangle" stroke-width="2" stroke-linejoin="round" x="593.569183" y="0" width="26.1309749" height="12.9504421" rx="6.47522103"></rect>
                    <ellipse id="Oval" stroke-width="2" stroke-linejoin="round" cx="600.469999" cy="6.66687207" rx="3.02206661" ry="3.02334896"></ellipse>
                    <ellipse id="Oval" stroke-width="2" fill="#DBDBDB" fill-rule="nonzero" stroke-linejoin="round" cx="612.515216" cy="6.66687207" rx="3.02206661" ry="3.02334896"></ellipse>
                    <rect id="Rectangle" stroke-width="2" x="0.538117275" y="477.534092" width="162.300475" height="85.0844474" rx="20"></rect>
                    <rect id="Rectangle" stroke-width="2" stroke-linejoin="round" x="0" y="461.792867" width="37.892066" height="12.9504421" rx="6.47522103"></rect>
                    <ellipse id="Oval" stroke-width="2" stroke-linejoin="round" cx="6.89651099" cy="468.459739" rx="3.02206661" ry="3.02334896"></ellipse>
                    <ellipse id="Oval" stroke-width="2" fill="#DBDBDB" fill-rule="nonzero" stroke-linejoin="round" cx="18.946033" cy="468.459739" rx="3.02206661" ry="3.02334896"></ellipse>
                    <ellipse id="Oval" stroke-width="2" stroke-linejoin="round" cx="30.995555" cy="468.459739" rx="3.02206661" ry="3.02334896"></ellipse>
                    <rect id="Rectangle" stroke-width="2" stroke-linejoin="round" x="40.3717104" y="543.414675" width="36.7125129" height="12.9504421" rx="6.47522103"></rect>
                    <rect id="Rectangle" stroke-width="2" stroke-linejoin="round" x="86.2967911" y="543.414675" width="36.7125129" height="12.9504421" rx="6.47522103"></rect>
                    <path d="M10.1854838,488.628319 L65.8784692,488.628319" id="Path" stroke-width="5" stroke-linejoin="round"></path>
                    <path d="M97.0031724,501.987904 L150.427455,501.987904" id="Path" stroke-width="5" stroke-linejoin="round"></path>
                    <path d="M10.8183097,501.987904 L90.1970651,501.987904" id="Path" stroke-width="5" stroke-linejoin="round"></path>
                    <path d="M134.80053,516.359578 L150.427455,516.359578" id="Path" stroke-width="5" stroke-linejoin="round"></path>
                    <path d="M55.1720879,516.359578 L130.013438,516.359578" id="Path" stroke-width="5" stroke-linejoin="round"></path>
                    <path d="M10.8183097,516.359578 L49.3776411,516.359578" id="Path" stroke-width="5" stroke-linejoin="round"></path>
                    <path d="M10.8183097,530.726946 L83.3952627,530.726946" id="Path" stroke-width="5" stroke-linejoin="round"></path>
                    <ellipse id="Oval" stroke-width="2" stroke-linejoin="round" cx="151.055976" cy="486.423255" rx="4.1585703" ry="4.1603349"></ellipse>
                    <rect id="Rectangle" stroke-width="2" stroke-linejoin="round" x="272.171108" y="130.189196" width="37.892066" height="12.9504421" rx="6.47522103"></rect>
                    <ellipse id="Oval" stroke-width="2" stroke-linejoin="round" cx="279.067619" cy="136.856068" rx="3.02206661" ry="3.02334896"></ellipse>
                    <ellipse id="Oval" stroke-width="2" fill="#DBDBDB" fill-rule="nonzero" stroke-linejoin="round" cx="291.117141" cy="136.856068" rx="3.02206661" ry="3.02334896"></ellipse>
                    <ellipse id="Oval" stroke-width="2" stroke-linejoin="round" cx="303.166663" cy="136.856068" rx="3.02206661" ry="3.02334896"></ellipse>
                    <rect id="Rectangle" stroke-width="2" stroke-linejoin="round" x="162.455453" y="127.58791" width="150.367186" height="18.1530141" rx="9.07650703"></rect>
                    <rect id="Rectangle" stroke-width="2" stroke-linejoin="round" x="268.976843" y="127.58791" width="43.9189795" height="18.1530141" rx="9.07650703"></rect>
                </g>
                <g id="s1-bot" transform="translate(208.000000, 184.000000)">
                    <ellipse id="Oval" stroke="#1D2A38" stroke-width="4" fill="#EAEAEA" fill-rule="nonzero" stroke-linecap="round" stroke-linejoin="round" cx="171.76819" cy="259.407581" rx="26.3865765" ry="26.4303629"></ellipse>
                    <path d="M20.7115985,313.665202 L12.1508045,313.015161 C13.9458097,289.226452 17.7843592,267.844274 23.5836068,249.394194 C27.6738298,235.815378 33.6166683,222.867441 41.2436965,210.917339 C53.5601937,192.245968 65.1448811,186.71371 65.6281518,186.450927 L69.2457776,194.265242 L67.4369647,190.351169 L69.2733931,194.251411 C69.176739,194.251411 58.9452093,199.36875 47.9266389,216.380444 C37.6398783,232.354839 24.5777635,262.063065 20.7115985,313.665202 Z" id="Path" stroke="#1D2A38" stroke-width="4" fill="#EAEAEA" fill-rule="nonzero" stroke-linecap="round" stroke-linejoin="round"></path>
                    <ellipse id="Oval" stroke="#1D2A38" stroke-width="4" fill="#FFD701" fill-rule="nonzero" stroke-linecap="round" stroke-linejoin="round" cx="15.3127752" cy="327.385202" rx="15.3127752" ry="15.3381855"></ellipse>
                    <path d="M324.095093,313.665202 C316.611302,214.513306 275.46426,194.458871 275.050028,194.265242 L278.640038,186.450927 C279.123309,186.672218 290.832266,192.204476 303.273033,210.903508 C311.015245,222.849466 317.05676,235.818383 321.223085,249.435685 C327.063756,267.830444 330.888498,289.226452 332.738734,313.056653 L324.095093,313.665202 Z" id="Path" stroke="#1D2A38" stroke-width="4" fill="#EAEAEA" fill-rule="nonzero" stroke-linecap="round" stroke-linejoin="round"></path>
                    <ellipse id="Oval" stroke="#1D2A38" stroke-width="4" fill="#FFD701" fill-rule="nonzero" stroke-linecap="round" stroke-linejoin="round" cx="329.466301" cy="327.385202" rx="15.3127752" ry="15.3381855"></ellipse>
                    <path d="M265.743616,168.452648 L273.738293,168.452648 C276.681852,168.452648 279.068078,172.392959 279.068078,177.253578 L279.068078,191.093384 C279.068078,195.954004 276.681852,199.894315 273.738293,199.894315 L265.743616,199.894315 L265.743616,168.452648 Z" id="Path" stroke="#1D2A38" stroke-width="4" fill="#FFFFFF" fill-rule="nonzero" stroke-linecap="round" stroke-linejoin="round"></path>
                    <path d="M65.7109982,168.452648 L73.7056752,168.452648 C76.649234,168.452648 79.0354599,172.392959 79.0354599,177.253578 L79.0354599,191.093384 C79.0354599,195.954004 76.649234,199.894315 73.7056752,199.894315 L65.7109982,199.894315 L65.7109982,168.452648 Z" id="Path" stroke="#1D2A38" stroke-width="4" fill="#FFFFFF" fill-rule="nonzero" stroke-linecap="round" stroke-linejoin="round" transform="translate(72.373229, 184.173481) rotate(-180.000000) translate(-72.373229, -184.173481) "></path>
                    <ellipse id="Oval" stroke="#1D2A38" stroke-width="4" fill="#EAEAEA" fill-rule="nonzero" stroke-linecap="round" stroke-linejoin="round" cx="172.389538" cy="174.113992" rx="100.672176" ry="100.839234"></ellipse>
                    <path d="M185.313576,270.337971 C181.027094,270.871088 176.710433,271.137618 172.389538,271.13596 C116.78983,271.13596 71.7173617,226.985642 71.7173617,172.523464 C71.7173617,118.061286 116.78983,73.9109677 172.389538,73.9109677 C176.710727,73.913759 181.027391,74.184807 185.313576,74.7224819 C135.129622,81.0944312 97.5706135,122.961743 97.5706135,172.530227 C97.5706135,222.098711 135.129622,263.966022 185.313576,270.337971 Z" id="Path" fill="#4C4C4C" fill-rule="nonzero" style="mix-blend-mode: color-dodge;"></path>
                    <path d="M279.758465,174.625726 C279.755353,175.515817 279.125409,176.27995 278.253422,176.451371 C275.395221,177.004597 269.126511,177.308871 265.826463,170.656331 C261.435604,161.86004 261.435604,139.841653 249.257184,140.228911 C237.078764,140.616169 240.185504,162.233468 172.389538,162.233468 C123.78632,162.233468 111.635516,151.168952 104.137917,144.668548 C101.19687,142.12371 98.9738253,140.325726 95.5218923,140.228911 C83.3572801,139.883145 83.3572801,161.901532 78.9526135,170.656331 C75.6387577,177.308871 69.383855,177.004597 66.5256544,176.451371 C65.6481814,176.285753 65.0112042,175.520112 65.0068038,174.625726 C64.9811221,146.092187 76.2868219,118.720116 96.4309586,98.5451461 C116.575095,78.3701763 143.903273,67.0492355 172.389538,67.078629 C176.704063,67.0802129 181.014813,67.3342072 185.299768,67.8393145 C239.241401,74.3218472 279.816659,120.193308 279.744657,174.611895 L279.758465,174.625726 Z" id="Path" stroke="#1D2A38" stroke-width="4" fill="#FFD701" fill-rule="nonzero" stroke-linecap="round" stroke-linejoin="round"></path>
                    <ellipse id="Oval" stroke="#1D2A38" stroke-width="4" fill="#FFD701" fill-rule="nonzero" stroke-linecap="round" stroke-linejoin="round" cx="172.389538" cy="186.450927" rx="18.6956696" ry="18.7266935"></ellipse>
                    <path d="M206.563676,72.6385484 C199.563155,75.8749194 186.873849,78.0325 172.389538,78.0325 C157.905227,78.0325 145.202113,75.8749194 138.215401,72.6385484 C160.397123,65.225386 184.381953,65.225386 206.563676,72.6385484 Z" id="Path" stroke="#1D2A38" stroke-width="4" stroke-linecap="round" stroke-linejoin="round"></path>
                    <path d="M172.389538,67.0783629 L172.389538,21.7694355" id="Path" stroke="#1D2A38" stroke-width="4" stroke-linecap="round" stroke-linejoin="round"></path>
                    <ellipse id="Oval" stroke="#1D2A38" stroke-width="4" fill="#FFFFFF" fill-rule="nonzero" stroke-linecap="round" stroke-linejoin="round" cx="172.389538" cy="10.8847177" rx="94.1687345" ry="10.8847177"></ellipse>
                    <path d="M65.4348435,165.082581 C65.4348435,165.082581 74.7550628,167.032702 80.9409269,165.082581" id="Path" stroke="#1D2A38" stroke-linecap="round" stroke-linejoin="round" fill-rule="nonzero"></path>
                    <path d="M280.158889,165.082581 C280.158889,165.082581 270.824862,167.032702 264.652806,165.082581" id="Path" stroke="#1D2A38" fill="#FFD701" fill-rule="nonzero" stroke-linecap="round" stroke-linejoin="round"></path>
                    <path d="M81.9350836,116.744476 C81.9350836,116.744476 94.7072361,103.052137 112.933443,109.55254 C131.159649,116.052944 142.564836,127.449395 172.389538,127.449395 C202.21424,127.449395 213.633235,116.052944 231.845634,109.55254 C250.058032,103.052137 262.843993,116.744476 262.843993,116.744476" id="Path" stroke="#1D2A38" stroke-width="4" stroke-linecap="round" stroke-linejoin="round"></path>
                    <ellipse id="Oval" fill="#4C4C4C" fill-rule="nonzero" style="mix-blend-mode: color-dodge;" cx="15.6027375" cy="322.904073" rx="9.15452653" ry="9.16971774"></ellipse>
                    <ellipse id="Oval" fill="#4C4C4C" fill-rule="nonzero" style="mix-blend-mode: color-dodge;" cx="329.466301" cy="322.904073" rx="9.15452653" ry="9.16971774"></ellipse>
                    <ellipse id="Oval" fill="#FFFFFF" fill-rule="nonzero" cx="331.551269" cy="318.409113" rx="3.92139598" ry="2.11608871"></ellipse>
                    <ellipse id="Oval" fill="#FFFFFF" fill-rule="nonzero" cx="16.3897783" cy="318.409113" rx="3.92139598" ry="2.11608871"></ellipse>
                    <ellipse id="Oval" fill="#4C4C4C" fill-rule="nonzero" style="mix-blend-mode: color-dodge;" cx="178.119747" cy="183.449677" rx="10.4386456" ry="10.4559677"></ellipse>
                    <path d="M113.734291,256.724435 C113.734291,256.724435 172.541423,281.177016 231.030977,256.724435" id="Path" stroke="#1D2A38" stroke-width="3" stroke-linecap="round" stroke-linejoin="round"></path>
                    <path d="M185.313576,67.8531452 C147.742736,69.3883468 155.074642,125.015202 143.600416,140.42254 C132.126191,155.829879 104.110302,144.571734 104.110302,144.571734 C101.169255,142.026895 98.9462099,140.228911 95.4942768,140.132097 C83.3296646,139.786331 83.3296646,161.804718 78.924998,170.559516 C75.6111422,177.212056 69.3562395,176.907782 66.4980389,176.354556 C65.6205659,176.188938 64.9835888,175.423297 64.9791883,174.528911 C64.9791648,146.007345 76.2999845,118.655965 96.4473115,98.5011475 C116.594638,78.3463303 143.915247,67.041917 172.389538,67.078629 C176.704063,67.0802129 181.014813,67.3342072 185.299768,67.8393145 L185.313576,67.8531452 Z" id="Path" fill="#161616" fill-rule="nonzero" style="mix-blend-mode: color-dodge;"></path>
                </g>
            </g>
        </g>
    </g>
</svg>