<?xml version="1.0" encoding="UTF-8"?>
<svg width="948px" height="334px" viewBox="0 0 948 334" version="1.1" xmlns="http://www.w3.org/2000/svg" xmlns:xlink="http://www.w3.org/1999/xlink">
    <!-- Generator: Sketch 52.4 (67378) - http://www.bohemiancoding.com/sketch -->
    <title>Asset 1</title>
    <desc>Created with Sketch.</desc>
    <g id="Page-1" stroke="none" stroke-width="1" fill="none" fill-rule="evenodd">
        <g id="Services" transform="translate(-492.000000, -265.000000)">
            <g id="Asset-1">
                <g transform="translate(492.000000, 265.000000)">
                    <path d="M403.19539,156.705081 L352.084861,264.641173 C349.716211,269.643503 349.461026,275.388757 351.37685,280.581388 C353.292674,285.774019 357.218191,289.976801 362.268203,292.242012 C372.00596,296.622537 383.476604,292.830833 388.685175,283.509691 L395.081194,272.074384 L420.57098,224.866422 L434.489261,178.287061 L403.19539,156.705081 Z" id="Path" fill="#546775" fill-rule="nonzero"></path>
                    <path d="M403.19539,156.705081 L352.084861,264.641173 C349.716211,269.643503 349.461026,275.388757 351.37685,280.581388 C353.292674,285.774019 357.218191,289.976801 362.268203,292.242012 C372.00596,296.622537 383.476604,292.830833 388.685175,283.509691 L395.081194,272.074384 L420.57098,224.866422 L434.489261,178.287061 L403.19539,156.705081 Z" id="Path" stroke="#1D2A38" stroke-width="1.5"></path>
                    <path d="M598.706129,158.35516 L644.84023,268.501833 C646.979047,273.606959 646.973149,279.358074 644.823866,284.458802 C642.674583,289.55953 638.562812,293.580562 633.415401,295.615506 C623.484088,299.532817 612.205739,295.212481 607.433211,285.662651 L601.58198,273.965427 L578.26087,225.646936 L566.474594,178.501833 L598.706129,158.35516 Z" id="Path" fill="#546775" fill-rule="nonzero"></path>
                    <path d="M598.706129,158.35516 L644.84023,268.501833 C646.979047,273.606959 646.973149,279.358074 644.823866,284.458802 C642.674583,289.55953 638.562812,293.580562 633.415401,295.615506 C623.484088,299.532817 612.205739,295.212481 607.433211,285.662651 L601.58198,273.965427 L578.26087,225.646936 L566.474594,178.501833 L598.706129,158.35516 Z" id="Path" stroke="#1D2A38" stroke-width="1.5"></path>
                    <polygon id="Path" fill="#FFF2DF" fill-rule="nonzero" points="527.81561 99.072813 530.869565 133.022525 530.869565 224.211629 468.051336 224.211629 468.051336 133.022525 470.958617 99.072813"></polygon>
                    <polygon id="Path" stroke="#1D2A38" stroke-width="1.5" points="527.81561 99.072813 530.869565 133.022525 530.869565 224.211629 468.051336 224.211629 468.051336 133.022525 470.958617 99.072813"></polygon>
                    <path d="M530.869565,146.951283 C530.869565,146.951283 531.864851,175.720272 500.261917,175.510739 C470.005238,175.311682 468.051336,147.255107 468.051336,147.255107 L442.022001,157.019382 L415.662651,178.103719 L413.782085,437.716082 L587.988476,435.390257 L585.856469,170.88528 L530.869565,146.951283 Z" id="Path" stroke="#322C74" stroke-width="1.73" fill="#FFF2DF" fill-rule="nonzero"></path>
                    <polygon id="Path" fill="#2E4257" fill-rule="nonzero" points="488.328968 174.997381 493.619696 193.247774 483.95495 253.090623 482.734416 379.649031 505.185961 415.641697 523.792562 377.124149 519.360922 248.617077 509.376637 191.131482 514.562598 174.997381"></polygon>
                    <polygon id="Path" stroke="#1D2A38" stroke-width="1.5" fill="#E2CC6F" fill-rule="nonzero" points="518.192771 168.465165 512.755369 179.324254 506.846517 191.131482 493.645888 191.786276 488.198009 179.706653 482.713463 167.548455 499.02043 156.396019"></polygon>
                    <path d="M504.174961,407.62703 L482.697748,377.187009 L485.997905,244.578313 L491.063384,209.481404 C491.063384,209.481404 491.063384,209.481404 491.063384,209.439497 L491.210058,208.391828 L491.210058,208.302776 L493.598743,191.754845 L506.799371,191.100052 L518.187533,244.68308 L522.551074,376.217915 L504.174961,407.62703 Z" id="Path" stroke="#1D2A38" stroke-width="1.5" fill="#E2CC6F" fill-rule="nonzero"></path>
                    <path d="M453.792562,148.486118 L403.16396,156.568884 L414.646412,333.624935 L392.482975,469.198533 C392.482975,469.198533 485.290728,481.403876 496.280775,464.740702 C507.270822,448.077528 503.263489,364.913567 503.263489,364.913567 L465.358827,148.486118 L453.792562,148.486118 Z" id="Path" stroke="#1D2A38" stroke-width="1.5" fill="#546775" fill-rule="nonzero"></path>
                    <polygon id="Path" fill="#2E4257" fill-rule="nonzero" points="480.827658 317.857517 439.659508 244.913567 455.987428 232.666317 441.702462 223.064432 465.358827 215.578837 474.499738 266.720796"></polygon>
                    <polygon id="Path" stroke="#1D2A38" stroke-width="1.5" fill="#546775" fill-rule="nonzero" points="453.792562 148.486118 441.702462 223.064432 465.290728 230.09429 443.28968 243.022525 502.634887 361.33054 465.358827 148.486118"></polygon>
                    <path d="M544.876899,149.654269 L598.250393,158.271346 L589.193295,332.079623 L611.36197,467.663698 C611.36197,467.663698 518.554217,479.832373 507.56417,463.211105 C496.574123,446.589838 500.581456,363.383971 500.581456,363.383971 L534.630697,162.807753 L544.876899,149.654269 Z" id="Path" stroke="#1D2A38" stroke-width="1.5" fill="#546775" fill-rule="nonzero"></path>
                    <polygon id="Path" stroke="#1D2A38" stroke-width="1.5" fill="#546775" fill-rule="nonzero" points="544.876899 149.654269 562.142483 221.534835 538.554217 228.564694 560.555265 241.492928 501.204819 359.800943 534.384494 148.486118"></polygon>
                    <polygon id="Path" stroke="#1D2A38" stroke-width="1.5" fill="#FFF2DF" fill-rule="nonzero" points="468.051336 133.022525 500.293347 156.003143 477.50131 184.735464 453.792562 148.486118"></polygon>
                    <polygon id="Path" stroke="#1D2A38" stroke-width="1.5" fill="#FFF2DF" fill-rule="nonzero" points="530.869565 133.022525 500.293347 156.003143 524.379256 183.525406 544.876899 149.654269"></polygon>
                    <polygon id="Path" fill="#1D2A38" fill-rule="nonzero" points="468.486118 127.925616 505.28549 123.493976 469.916186 109.958093"></polygon>
                    <path d="M530,60.6286014 C530,60.6286014 542.273442,52.6663174 543.200629,59.8795181 C544.127816,67.0927187 542.755369,82.8234678 536.600314,80.4033525 C530.445259,77.9832373 525.987428,72.1372446 525.987428,72.1372446 L530,60.6286014 Z" id="Path" stroke="#1D2A38" stroke-width="1.73" fill="#FFF2DF" fill-rule="nonzero" stroke-linecap="round" stroke-linejoin="round"></path>
                    <path d="M534.724987,61.686747 C534.724987,61.686747 538.334206,61.3776847 539.11472,64.0701938 C539.544264,65.5421687 539.685699,69.1618649 538.664222,70.471451" id="Path" stroke="#1D2A38" stroke-width="1.73" stroke-linecap="round" stroke-linejoin="round"></path>
                    <path d="M467.951807,59.0518596 C467.951807,59.0518596 455.678366,51.0895757 454.74594,58.3027763 C453.813515,65.515977 455.196438,81.246726 461.351493,78.8266108 C467.506548,76.4064955 471.974856,70.5605029 471.974856,70.5605029 L467.951807,59.0518596 Z" id="Path" stroke="#1D2A38" stroke-width="1.73" fill="#FFF2DF" fill-rule="nonzero" stroke-linecap="round" stroke-linejoin="round"></path>
                    <path d="M470.052383,23.6406496 C470.052383,23.6406496 457.192247,32.7553693 457.008905,43.7925616 C456.856993,53.0225249 455.615506,81.7705605 468.051336,70.1990571 C480.487166,58.6275537 480.03143,28.5751702 470.052383,23.6406496 Z" id="Path" fill="#1D2A38" fill-rule="nonzero"></path>
                    <path d="M526.904138,117.5956 C532.928235,114.573075 530.377161,28.5437402 528.569932,24.4735464 C521.492928,8.45992666 475.971713,-7.21843897 470.052383,23.6406496 C470.052383,23.6406496 453.813515,110.036668 455.688842,116.086957 C456.422211,118.433735 486.223153,123.593504 505.28549,123.493976" id="Path" stroke="#1D2A38" stroke-width="1.5" fill="#FFF2DF" fill-rule="nonzero"></path>
                    <path d="M526.375065,20.9167103 C526.375065,20.9167103 485.552645,52.6715558 463.965427,36.595076 C442.378208,20.5185961 456.223153,1.04766894 470.733368,0.110005238 C491.492928,-1.25196438 511.540073,10.7438449 522.551074,9.96333159 C533.562074,9.18281823 530.644316,17.857517 526.375065,20.9167103 Z" id="Path" fill="#1D2A38" fill-rule="nonzero"></path>
                    <path d="M526.616029,16.9617601 C526.616029,16.9617601 533.106338,16.3855422 540.969094,22.6872708 C548.831849,28.9889995 535.987428,65.7464641 531.67627,70.1990571 C527.365113,74.6516501 515.777894,23.3001572 520.508119,19.3399686 C525.238345,15.37978 526.616029,16.9617601 526.616029,16.9617601 Z" id="Path" fill="#1D2A38" fill-rule="nonzero"></path>
                    <path d="M491.278156,64.7302252 C491.278156,64.7302252 487.87847,78.5070718 485.610267,84.012572 C483.342064,89.5180723 494.227344,85.6678889 494.227344,85.6678889" id="Path" stroke="#1D2A38" stroke-width="1.56" stroke-linecap="round" stroke-linejoin="round"></path>
                    <circle id="Oval" fill="#1D2A38" fill-rule="nonzero" cx="479.486642" cy="67.5065479" r="2.76060765"></circle>
                    <circle id="Oval" fill="#1D2A38" fill-rule="nonzero" cx="506.809848" cy="67.5065479" r="2.76060765"></circle>
                    <path d="M475.322158,54.1121006 C475.322158,54.1121006 482.132006,51.7077004 485.301205,54.0440021" id="Path" stroke="#1D2A38" stroke-width="6.06" stroke-linecap="round"></path>
                    <path d="M501.231011,54.2325825 C501.231011,54.2325825 504.981666,51.2833944 511.183866,54.164484" id="Path" stroke="#1D2A38" stroke-width="6.06" stroke-linecap="round"></path>
                    <path d="M479.90571,94.6935568 C479.90571,94.6935568 486.191723,96.7888947 499.628078,95.7412258" id="Path" stroke="#1D2A38" stroke-width="1.73" stroke-linecap="round" stroke-linejoin="round"></path>
                    <circle id="Oval" stroke="#1D2A38" stroke-width="1.56" stroke-linecap="round" stroke-linejoin="round" cx="477.464641" cy="67.1817706" r="10.8800419"></circle>
                    <circle id="Oval" stroke="#1D2A38" stroke-width="1.56" stroke-linecap="round" stroke-linejoin="round" cx="506.223153" cy="67.1817706" r="10.8800419"></circle>
                    <path d="M517.103195,66.0764798 L532.928235,63.9182818" id="Path" stroke="#1D2A38" stroke-width="1.56" stroke-linecap="round" stroke-linejoin="round"></path>
                    <path d="M466.584599,64.7302252 L460.675746,58.9261393" id="Path" stroke="#1D2A38" stroke-width="1.56" stroke-linecap="round" stroke-linejoin="round"></path>
                    <path d="M488.344683,67.1817706 L495.343112,67.1817706" id="Path" stroke="#1D2A38" stroke-width="1.56" stroke-linecap="round" stroke-linejoin="round"></path>
                    <polygon id="Path" stroke="#1D2A38" stroke-width="1.5" fill="#DFD7C7" fill-rule="nonzero" points="0.0576217915 335.426925 87.8889471 278.716606 941.964379 278.716606 999.497119 335.426925 35.6312205 335.426925"></polygon>
                    <path d="M81.8459927,285.31692 C81.8459927,285.31692 214.771978,281.885804 260.124052,288.538502 C305.476127,295.1912 541.02925,293.373494 565.499196,288.538502 C589.969141,283.70351 876.864432,297.207962 903.273878,292.870613 C929.683324,288.533263 947.845993,286.411734 947.845993,286.411734" id="Path" stroke="#EDE8DF" stroke-width="2.22" stroke-linecap="round"></path>
                    <path d="M75.8459927,289.088528 C75.8459927,289.088528 235.695448,296.8989 290.592505,298.433735 C345.489563,299.96857 567.438844,299.203772 591.798243,298.433735 C616.157642,297.663698 716.959998,294.829754 786.267792,299.319015 C855.575587,303.808277 956.845993,295.238345 956.845993,295.238345" id="Path" stroke="#EDE8DF" stroke-width="2.22" stroke-linecap="round"></path>
                    <path d="M61.8459927,297.894185 C61.8459927,297.894185 130.635249,290.717653 170.891358,295.343112 C211.147467,299.96857 319.330239,313.116815 348.279095,310.764798 C377.22795,308.412782 471.432546,299.848088 542.419858,311.047669 C613.407169,322.24725 665.162797,306.401257 694.516968,304.719749 C723.871138,303.03824 959.047462,315.542169 962.845993,301.938188" id="Path" stroke="#EDE8DF" stroke-width="2.22" stroke-linecap="round"></path>
                    <path d="M57.8459927,300.513358 C57.8459927,300.513358 155.717666,315.872184 209.892635,310.764798 C264.067604,305.657412 378.304091,319.753798 409.983292,319.078051 C441.662493,318.402305 501.890415,314.426401 546.112332,319.078051 C590.33425,323.729701 666.568176,312.383447 727.560518,314.997381 C788.552859,317.611315 878.515133,307.72132 899.861672,310.743845 C921.208212,313.76637 975.845993,314.012572 975.845993,314.012572" id="Path" stroke="#EDE8DF" stroke-width="2.22" stroke-linecap="round"></path>
                    <path d="M46.8459927,307.333683 C46.8459927,307.333683 124.273567,317.475118 175.313409,317.171294 C226.35325,316.86747 320.814892,321.272918 365.77485,324.447355 C410.734808,327.621792 482.357913,322.042954 519.2997,324.447355 C556.241487,326.851755 646.140618,319.77999 700.23599,321.011001 C754.331363,322.242012 860.755305,319.009953 875.357418,320.240964 C889.959531,321.471975 980.845993,319.81142 980.845993,319.81142" id="Path" stroke="#EDE8DF" stroke-width="2.22" stroke-linecap="round"></path>
                    <path d="M30.8459927,318.774227 C30.8459927,318.774227 221.087908,327.637507 284.50188,325.447878 C347.915852,323.25825 519.965234,333.761131 577.895457,332.226296 C635.825679,330.691461 765.366909,323.467784 820.994477,326.312205 C876.622044,329.156627 987.845993,326.348874 987.845993,326.348874" id="Path" stroke="#EDE8DF" stroke-width="2.22" stroke-linecap="round"></path>
                    <path d="M9.72760608,329.182818 C9.72760608,329.182818 143.776847,338.926139 193.431116,332.378208 C243.085385,325.830278 438.936616,341.419591 489.617601,338.742797 C540.298586,336.066003 660.869565,335.133578 733.059193,339.057098 C805.248821,342.980618 855.793609,334.515453 883.514929,334.908329 C911.236249,335.301205 997.632268,333.593504 997.632268,333.593504" id="Path" stroke="#F4EDE4" stroke-width="2.22" style="mix-blend-mode: multiply;" stroke-linecap="round"></path>
                    <path d="M96.5845993,300.513358 C96.5845993,300.513358 145.557884,296.474594 162.283918,298.025144 C179.009953,299.575694 200.052383,303.027763 192.980618,306.820325 C185.908853,310.612886 106.401257,307.459403 113.473023,303.153483 C120.544788,298.847564 182.980618,301.990571 178.496595,304.405448 C174.012572,306.820325 143.315872,304.405448 143.315872,304.405448" id="Path" stroke="#EDE8DF" stroke-width="2.22" stroke-linecap="round"></path>
                    <path d="M556.584599,305.123101 C556.584599,305.123101 588.491357,310.984809 615.217391,310.120482 C641.943426,309.256155 658.507072,303.22682 652.126768,302.708224 C645.746464,302.189628 616.600314,306.244107 606.081718,306.458879 C595.563122,306.673651 570.209534,306.275537 576.746988,304.405448 C583.284442,302.535359 619.512834,302.661079 619.512834,302.661079" id="Path" stroke="#EDE8DF" stroke-width="2.22" stroke-linecap="round"></path>
                    <path d="M293.593504,280.716606 C293.593504,280.716606 307.035097,286.394971 326.485071,286.43164 C345.935045,286.468308 410.010477,282.686223 432.603457,287.578837 C455.196438,292.471451 526.998428,289.260346 541.011001,286.43164 C555.023573,283.602933 663.436354,282.680985 690.303824,286.43164 C717.171294,290.182294 800.623363,289.260346 825.264536,286.43164 C849.90571,283.602933 871.36197,287.322158 897.679413,288.469356 C923.996857,289.616553 940.298586,280.716606 940.298586,280.716606" id="Path" stroke="#EDE8DF" stroke-width="2.22" stroke-linecap="round"></path>
                    <ellipse id="Oval" fill="#D6CDB9" fill-rule="nonzero" style="mix-blend-mode: multiply;" cx="655.41121" cy="303.855422" rx="14.1749607" ry="2.81299109"></ellipse>
                    <circle id="Oval" fill="#E5DECF" fill-rule="nonzero" cx="661.718177" cy="294.311158" r="10.3404924"></circle>
                    <circle id="Oval" fill="#FAF5EA" fill-rule="nonzero" cx="663.294919" cy="292.640126" r="8.05657412"></circle>
                    <path d="M652.257727,290.136197 C652.257727,290.136197 666.29649,290.874804 663.960189,304.40021" id="Path" stroke="#2D4256" stroke-width="1.55"></path>
                    <path d="M660.466213,284.04924 C660.466213,284.04924 664.656888,292.095338 672.048193,294.002095" id="Path" stroke="#2D4256" stroke-width="1.55"></path>
                    <path d="M322.482975,293.818753 L282.346778,293.431116 C281.349756,293.432286 280.385814,293.788889 279.628078,294.436878 L255.715034,291.817706 C255.643705,291.785089 255.567696,291.763877 255.489785,291.754845 C255.406146,291.74721 255.321984,291.74721 255.238345,291.754845 L248.522787,291.896281 L245.662651,291.953903 L248.019906,292.697748 L253.949712,294.567837 L277.386066,297.228916 C277.147702,297.700407 276.944597,298.18891 276.778418,298.690414 L266.563646,298.308015 L266.506024,298.308015 C265.884784,298.406228 265.403854,298.904258 265.327397,299.528549 C265.201676,300.204295 265.521215,300.764798 266.039811,300.82242 L266.097433,300.82242 L276.280775,301.204819 C276.233471,301.74858 276.233471,302.295422 276.280775,302.839183 L260.15715,303.651126 L260.18858,303.755893 C259.867747,304.020838 259.734109,304.450534 259.848088,304.850707 C259.932824,305.362187 260.290616,305.786312 260.780513,305.955998 L260.780513,305.997905 L260.990047,305.997905 L261.037192,305.997905 L276.846517,305.007858 C277.459403,306.291252 278.48088,307.103195 279.769513,307.155579 L319.921425,307.548455 C322.488214,307.642745 325.15977,304.641173 325.851231,300.843373 C326.542693,297.045574 325.049764,293.918282 322.482975,293.818753 Z" id="Path" fill="#D6CDB9" fill-rule="nonzero" style="mix-blend-mode: multiply;"></path>
                    <ellipse id="Oval" fill="#556575" fill-rule="nonzero" cx="318.229439" cy="303.090623" rx="15.3745416" ry="4.66736511"></ellipse>
                    <polygon id="Path" fill="#556575" fill-rule="nonzero" points="302.854898 303.090623 300.382399 263.001572 331.131482 263.001572 333.603981 303.090623"></polygon>
                    <ellipse id="Oval" fill="#2D4256" fill-rule="nonzero" cx="315.756941" cy="263.001572" rx="15.3745416" ry="4.66736511"></ellipse>
                    <polygon id="Path" fill="#8A9669" fill-rule="nonzero" points="306.500786 266.726035 301.346255 243.871137 306.500786 242.802514 311.367208 267.475118"></polygon>
                    <rect id="Rectangle" fill="#E5D99C" fill-rule="nonzero" x="313.273965" y="248.124673" width="5.65741226" height="19.4866422"></rect>
                    <path d="M320.780513,267.417496 L326.181247,234.939759 L332.46726,236.160293 L327.84704,265.914091 C325.538774,266.616059 323.174625,267.119032 320.780513,267.417496 Z" id="Path" fill="#9B285E" fill-rule="nonzero"></path>
                    <ellipse id="Oval" fill="#FFFFFF" fill-rule="nonzero" cx="316.097433" cy="248.182294" rx="2.82870613" ry="1.01100052"></ellipse>
                    <ellipse id="Oval" fill="#594800" fill-rule="nonzero" cx="316.097433" cy="248.182294" rx="1.06862232" ry="1"></ellipse>
                    <ellipse id="Oval" fill="#FFFFFF" fill-rule="nonzero" transform="translate(329.410509, 235.502127) rotate(-81.770000) translate(-329.410509, -235.502127) " cx="329.410509" cy="235.502127" rx="1.14719749" ry="3.21634364"></ellipse>
                    <ellipse id="Oval" fill="#FFFFFF" fill-rule="nonzero" transform="translate(303.974556, 243.629040) rotate(-10.020000) translate(-303.974556, -243.629040) " cx="303.974556" cy="243.62904" rx="2.61917234" ry="1"></ellipse>
                    <ellipse id="Oval" fill="#594800" fill-rule="nonzero" transform="translate(303.974556, 243.629040) rotate(-10.020000) translate(-303.974556, -243.629040) " cx="303.974556" cy="243.62904" rx="1" ry="1"></ellipse>
                    <path d="M332.566789,235.940283 L326.176008,234.924044 L329.84285,228.63803 C330.211268,228.914392 330.660477,229.061673 331.121006,229.057098 C331.297108,229.051347 331.472378,229.030315 331.64484,228.994238 L332.566789,235.940283 Z" id="Path" fill="#FFFFFF" fill-rule="nonzero"></path>
                    <path d="M331.660555,229.02043 C331.488093,229.056507 331.312823,229.077539 331.136721,229.08329 C330.676192,229.087865 330.226984,228.940584 329.858565,228.664222 L331.314825,226.181247 L331.660555,229.02043 Z" id="Path" fill="#594800" fill-rule="nonzero"></path>
                    <polygon id="Path" fill="#C0B6A4" fill-rule="nonzero" points="689.057098 278.632792 688.166579 291.932949 725.751702 322.860136 794.908329 321.320063 795.866946 305.138816"></polygon>
                    <polygon id="Path" fill="#FAF5EA" fill-rule="nonzero" points="689.057098 278.632792 727.778942 307.480356 795.866946 305.138816 749.869041 278.632792"></polygon>
                    <polygon id="Path" fill="#E5DECF" fill-rule="nonzero" points="727.778942 307.480356 725.751702 322.860136 794.908329 321.320063 795.866946 305.138816"></polygon>
                    <polyline id="Path" stroke="#FAF5EA" stroke-width="2.43" stroke-linecap="round" points="689.057098 281.938188 727.433211 310.089052 795.730749 307.480356"></polyline>
                    <polyline id="Path" stroke="#FAF5EA" stroke-width="2.43" stroke-linecap="round" points="688.54374 286.322682 726.794133 314.955474 795.426925 312.577266"></polyline>
                    <polyline id="Path" stroke="#FAF5EA" stroke-width="2.43" stroke-linecap="round" points="688.35516 289.135673 726.17077 319.675223 795.096909 318.192771"></polyline>
                    <polygon id="Path" stroke="#1D2A38" stroke-width="1.5" fill="#C0B6A4" fill-rule="nonzero" stroke-linejoin="round" points="698.884233 265.311682 697.993714 278.611839 735.584075 309.539026 804.740702 307.998952 805.699319 291.817706"></polygon>
                    <polygon id="Path" stroke="#1D2A38" stroke-width="1.5" fill="#FAF5EA" fill-rule="nonzero" stroke-linejoin="round" points="698.884233 265.311682 737.611315 294.159246 805.699319 291.817706 759.696176 265.311682"></polygon>
                    <polygon id="Path" stroke="#1D2A38" stroke-width="1.5" fill="#E5DECF" fill-rule="nonzero" stroke-linejoin="round" points="737.611315 294.159246 735.584075 309.539026 804.740702 307.998952 805.699319 291.817706"></polygon>
                    <polygon id="Path" stroke="#1D2A38" stroke-linecap="round" stroke-linejoin="round" points="740.75956 289.434259 791.540073 288.339445 779.355684 282.592981 731.314825 282.592981"></polygon>
                    <path d="M724.4945,278.428497 L754.321634,278.428497" id="Path" stroke="#1D2A38" stroke-linecap="round" stroke-linejoin="round"></path>
                    <path d="M719.408067,274.814039 L738.381351,274.814039" id="Path" stroke="#1D2A38" stroke-linecap="round" stroke-linejoin="round"></path>
                    <path d="M713.541121,270.88528 L756.862232,270.649555" id="Path" stroke="#1D2A38" stroke-linecap="round" stroke-linejoin="round"></path>
                    <polygon id="Path" fill="#D6CDB9" fill-rule="nonzero" style="mix-blend-mode: multiply;" points="725.751702 322.860136 706.003143 322.860136 674.861184 291.817706 688.166579 291.932949"></polygon>
                    <path d="M214.332111,313.583028 L173.687795,310.110005 C171.35834,310.848402 169.489534,312.603537 168.6066,314.882137 C161.000524,313.944474 139.952855,311.451021 128.103719,310.937664 L127.375589,310.911472 L127.600838,310.911472 C132.315348,304.562598 119.392352,305.547407 118.239916,307.008905 C117.08748,308.470403 123.158722,310.85385 123.158722,310.85385 L123.200629,310.85385 C112.325825,310.927187 98.905186,312.551074 96.8517548,315.405972 C96.13934,316.390781 96.7941331,317.50131 99.4028287,318.800419 C105.715034,321.880566 127.46988,321.419591 145.44264,320.413829 C143.268727,321.545312 138.486118,324.421163 142.236773,326.050288 C146.893662,328.072289 159.151388,326.322682 151.48769,320.047145 C158.297538,319.601886 164.112101,319.130435 167.684652,318.821372 C167.526755,320.747668 167.634274,322.686525 168.004191,324.583552 L215.395495,322.441069 L214.332111,313.583028 Z" id="Path" fill="#D6CDB9" fill-rule="nonzero" style="mix-blend-mode: multiply;"></path>
                    <ellipse id="Oval" fill="#E5DECF" fill-rule="nonzero" cx="212.828706" cy="318.727082" rx="17.826087" ry="3.70874804"></ellipse>
                    <polygon id="Path" fill="#E5DECF" fill-rule="nonzero" points="183.839707 278.402305 195.002619 318.727082 230.654793 318.727082 241.817706 278.402305"></polygon>
                    <ellipse id="Oval" fill="#FFFFFF" fill-rule="nonzero" cx="212.828706" cy="278.402305" rx="28.9889995" ry="6.02933473"></ellipse>
                    <path d="M237.920377,278.402305 C237.920377,279.502357 235.463594,280.497643 231.414353,281.257203 C226.778418,282.132006 220.06286,282.676794 212.587742,282.676794 C206.563837,282.736515 200.544857,282.312594 194.58879,281.409115 C190.052383,280.639078 187.255107,279.575694 187.255107,278.402305 C187.255107,276.039811 198.596124,274.127816 212.587742,274.127816 C226.579361,274.127816 237.920377,276.060765 237.920377,278.402305 Z" id="Path" fill="#C0B6A4" fill-rule="nonzero"></path>
                    <path d="M231.414353,281.257203 C226.778418,282.132006 220.06286,282.676794 212.587742,282.676794 C206.563837,282.736515 200.544857,282.312594 194.58879,281.409115 C197.344159,279.952855 204.62022,278.915663 213.158722,278.915663 C221.3934,278.915663 228.459927,279.884756 231.414353,281.257203 Z" id="Path" fill="#B79E76" fill-rule="nonzero"></path>
                    <path d="M227.344159,239.099005 C226.726035,253.76637 218.889471,282.540597 218.889471,282.540597 C218.889471,282.540597 216.474594,282.608696 214.064955,282.640126 C212.493452,282.666317 210.921949,282.676794 210.010477,282.640126 C210.010477,282.640126 189.376637,222.063908 203.614458,210.607648 C206.8989,207.988476 209.963332,207.281299 212.718701,207.988476 C221.927711,210.261917 227.810372,227.826087 227.344159,239.099005 Z" id="Path" fill="#5B6530" fill-rule="nonzero"></path>
                    <path d="M227.344159,239.099005 C226.726035,253.76637 218.889471,282.540597 218.889471,282.540597 C218.889471,282.540597 216.474594,282.608696 214.064955,282.640126 C213.724463,281.634364 193.551598,221.980094 207.668937,210.623363 C209.135669,209.384444 210.861098,208.489512 212.718701,208.004191 C221.927711,210.261917 227.810372,227.826087 227.344159,239.099005 Z" id="Path" fill="#6D7647" fill-rule="nonzero"></path>
                    <path d="M227.176532,234.154007 C227.176532,234.154007 233.237297,228.025144 237.328444,229.130435 C241.419591,230.235726 245.102148,243.116815 227.375589,238.596124 L227.176532,234.154007 Z" id="Path" fill="#5B6530" fill-rule="nonzero"></path>
                    <path d="M204.112101,257.653222 C204.112101,257.653222 192.315348,248.821372 187.008905,253.645888 C181.702462,258.470403 187.794657,271.089576 205.206915,262.221058 L204.112101,257.653222 Z" id="Path" fill="#5B6530" fill-rule="nonzero"></path>
                    <path d="M206.998428,257.653222 C206.998428,257.653222 195.201676,248.842326 189.916186,253.645888 C184.630697,258.44945 190.701938,271.089576 208.114196,262.221058 L206.998428,257.653222 Z" id="Path" fill="#6D7647" fill-rule="nonzero"></path>
                    <path d="M218.082766,261.959141 L221.959141,260.083814" id="Path" stroke="#5B6530" stroke-width="1.11" stroke-linecap="round"></path>
                    <path d="M212.126768,247.737035 L217.349398,247.737035" id="Path" stroke="#5B6530" stroke-width="1.11" stroke-linecap="round"></path>
                    <path d="M217.349398,239.884756 L221.959141,237.46988" id="Path" stroke="#5B6530" stroke-width="1.11" stroke-linecap="round"></path>
                    <path d="M208.590885,236.746988 L204.8088,236.26506" id="Path" stroke="#5B6530" stroke-width="1.11" stroke-linecap="round"></path>
                    <path d="M212.587742,232.409639 L216.464117,231.524358" id="Path" stroke="#5B6530" stroke-width="1.11" stroke-linecap="round"></path>
                    <path d="M219.277108,229.434259 L223.378732,227.747512" id="Path" stroke="#5B6530" stroke-width="1.11" stroke-linecap="round"></path>
                    <path d="M224.573075,234.578313 L227.317968,235.620744" id="Path" stroke="#5B6530" stroke-width="1.11" stroke-linecap="round"></path>
                    <path d="M223.939235,252.210581 L228.444212,252.210581" id="Path" stroke="#5B6530" stroke-width="1.11" stroke-linecap="round"></path>
                    <path d="M223.378732,258.051336 L226.673651,258.753274" id="Path" stroke="#5B6530" stroke-width="1.11" stroke-linecap="round"></path>
                    <path d="M221.33054,267.857517 L223.378732,269.381875" id="Path" stroke="#5B6530" stroke-width="1.11" stroke-linecap="round"></path>
                    <path d="M212.828706,272.37297 L215.007858,272.388685" id="Path" stroke="#5B6530" stroke-width="1.11" stroke-linecap="round"></path>
                    <path d="M216.946045,277.422734 L220.88528,277.422734" id="Path" stroke="#5B6530" stroke-width="1.11" stroke-linecap="round"></path>
                    <path d="M212.587742,266.17077 L215.741226,264.803562" id="Path" stroke="#5B6530" stroke-width="1.11" stroke-linecap="round"></path>
                    <path d="M209.633316,260.083814 L213.001572,260.623363" id="Path" stroke="#5B6530" stroke-width="1.11" stroke-linecap="round"></path>
                    <path d="M212.126768,254.997381 L217.349398,253.064432" id="Path" stroke="#5B6530" stroke-width="1.11" stroke-linecap="round"></path>
                    <path d="M223.939235,246.396019 L228.444212,245.992666" id="Path" stroke="#5B6530" stroke-width="1.11" stroke-linecap="round"></path>
                    <path d="M222.352017,241.891042 L225.547407,242.37297" id="Path" stroke="#5B6530" stroke-width="1.11" stroke-linecap="round"></path>
                    <path d="M213.001572,241.891042 L216.464117,242.776323" id="Path" stroke="#5B6530" stroke-width="1.11" stroke-linecap="round"></path>
                    <path d="M206.699843,242.776323 L209.633316,242.776323" id="Path" stroke="#5B6530" stroke-width="1.11" stroke-linecap="round"></path>
                    <path d="M206.217915,249.449974 L208.910424,248.968046" id="Path" stroke="#5B6530" stroke-width="1.11" stroke-linecap="round"></path>
                    <path d="M205.227868,230.319539 L208.910424,229.434259" id="Path" stroke="#5B6530" stroke-width="1.11" stroke-linecap="round"></path>
                    <path d="M205.615506,225.898376 L210.115244,225.898376" id="Path" stroke="#5B6530" stroke-width="1.11" stroke-linecap="round"></path>
                    <path d="M215.395495,222.603457 L220.72813,221.634364" id="Path" stroke="#5B6530" stroke-width="1.11" stroke-linecap="round"></path>
                    <path d="M220.72813,224.447355 L225.028811,224.447355" id="Path" stroke="#5B6530" stroke-width="1.11" stroke-linecap="round"></path>
                    <path d="M217.349398,217.616553 L220.72813,216.092195" id="Path" stroke="#5B6530" stroke-width="1.11" stroke-linecap="round"></path>
                    <path d="M222.352017,219.785228 L225.028811,219.224725" id="Path" stroke="#5B6530" stroke-width="1.11" stroke-linecap="round"></path>
                    <path d="M217.349398,212.472499 L220.020953,209.821896" id="Path" stroke="#5B6530" stroke-width="1.11" stroke-linecap="round"></path>
                    <path d="M225.028811,230.319539 L228.119434,230.319539" id="Path" stroke="#5B6530" stroke-width="1.11" stroke-linecap="round"></path>
                    <path d="M211.320063,214.641173 L214.52593,211.828182" id="Path" stroke="#5B6530" stroke-width="1.11" stroke-linecap="round"></path>
                    <path d="M208.114196,221.152436 L212.587742,221.152436" id="Path" stroke="#5B6530" stroke-width="1.11" stroke-linecap="round"></path>
                    <path d="M206.217915,216.851755 L210.115244,216.490309" id="Path" stroke="#5B6530" stroke-width="1.11" stroke-linecap="round"></path>
                    <path d="M211.320063,209.497119 L215.395495,207.731797" id="Path" stroke="#5B6530" stroke-width="1.11" stroke-linecap="round"></path>
                    <path d="M220.020953,254.594028 L223.693033,255.395495" id="Path" stroke="#5B6530" stroke-width="1.11" stroke-linecap="round"></path>
                    <path d="M219.654269,273.242535 L223.378732,274.127816" id="Path" stroke="#5B6530" stroke-width="1.11" stroke-linecap="round"></path>
                    <path d="M201.744369,208.617077 L205.615506,210.660031" id="Path" stroke="#5B6530" stroke-width="1.11" stroke-linecap="round"></path>
                    <path d="M199.596647,213.237297 L202.650602,213.67208" id="Path" stroke="#5B6530" stroke-width="1.11" stroke-linecap="round"></path>
                    <path d="M196.799371,227.747512 L199.596647,228.088004" id="Path" stroke="#5B6530" stroke-width="1.11" stroke-linecap="round"></path>
                    <path d="M197.338921,235.620744 L201.121006,237.46988" id="Path" stroke="#5B6530" stroke-width="1.11" stroke-linecap="round"></path>
                    <path d="M198.093243,243.247774 L201.744369,243.247774" id="Path" stroke="#5B6530" stroke-width="1.11" stroke-linecap="round"></path>
                    <path d="M199.921425,245.311682 L201.744369,245.311682" id="Path" stroke="#5B6530" stroke-width="1.11" stroke-linecap="round"></path>
                    <path d="M198.198009,248.198009 L202.650602,246.396019" id="Path" stroke="#5B6530" stroke-width="1.11" stroke-linecap="round"></path>
                    <path d="M200.424306,252.210581 L202.650602,252.210581" id="Path" stroke="#5B6530" stroke-width="1.11" stroke-linecap="round"></path>
                    <path d="M202.650602,267.857517 L206.647459,266.966998" id="Path" stroke="#5B6530" stroke-width="1.11" stroke-linecap="round"></path>
                    <path d="M205.227868,273.682556 L210.115244,274.148769" id="Path" stroke="#5B6530" stroke-width="1.11" stroke-linecap="round"></path>
                    <path d="M186.291252,251.801991 L189.004715,254.033525" id="Path" stroke="#5B6530" stroke-width="1.11" stroke-linecap="round"></path>
                    <path d="M183.420639,255.95076 L185.971713,255.95076" id="Path" stroke="#5B6530" stroke-width="1.11" stroke-linecap="round"></path>
                    <path d="M184.374018,258.753274 L186.689366,258.402305" id="Path" stroke="#5B6530" stroke-width="1.11" stroke-linecap="round"></path>
                    <path d="M190.12572,265.484547 L191.430068,263.761131" id="Path" stroke="#5B6530" stroke-width="1.11" stroke-linecap="round"></path>
                    <path d="M193.530644,254.033525 L196.375065,253.823992" id="Path" stroke="#5B6530" stroke-width="1.11" stroke-linecap="round"></path>
                    <path d="M197.11891,257.045574 L199.921425,257.370351" id="Path" stroke="#5B6530" stroke-width="1.11" stroke-linecap="round"></path>
                    <path d="M191.430068,259.654269 L194.085909,259.282347" id="Path" stroke="#5B6530" stroke-width="1.11" stroke-linecap="round"></path>
                    <path d="M198.198009,261.021477 L201.121006,261.382923" id="Path" stroke="#5B6530" stroke-width="1.11" stroke-linecap="round"></path>
                    <path d="M205.426925,259.282347 L206.956522,258.753274" id="Path" stroke="#5B6530" stroke-width="1.11" stroke-linecap="round"></path>
                    <path d="M235.872184,229.87428 L238.150864,226.636983" id="Path" stroke="#5B6530" stroke-width="1.11" stroke-linecap="round"></path>
                    <path d="M238.150864,231.524358 L241.220534,230.843373" id="Path" stroke="#5B6530" stroke-width="1.11" stroke-linecap="round"></path>
                    <path d="M238.150864,230.319539 L238.941854,229.434259" id="Path" stroke="#5B6530" stroke-width="1.11" stroke-linecap="round"></path>
                    <path d="M238.150864,236.746988 L239.685699,239.172342" id="Path" stroke="#5B6530" stroke-width="1.11" stroke-linecap="round"></path>
                    <path d="M231.314825,237.962284 L230.612886,240.576218" id="Path" stroke="#5B6530" stroke-width="1.11" stroke-linecap="round"></path>
                    <path d="M230.089052,233.122053 L228.774227,229.87428" id="Path" stroke="#5B6530" stroke-width="1.11" stroke-linecap="round"></path>
                    <path d="M186.123625,284.007334 L187.81561,281.451021 L190.392876,286.113148 L195.201676,283.190152 L198.093243,288.077528 L203.273965,284.096386 L207.207962,289.088528 L212.587742,284.442116 L216.726035,289.057098 L220.88528,284.206391 L227.092719,288.2923 L230.052383,283.263489 L235.248821,286.642221 L238.26087,281.299109 L240.712415,283.25825 C240.712415,283.25825 239.664746,288.496595 215.395495,289.093766 C191.126244,289.690938 185.180723,283.25825 185.180723,283.25825" id="Path" stroke="#C0B6A4" stroke-width="1.11" stroke-linecap="round" stroke-linejoin="round"></path>
                    <path d="M193.818753,314.384494 C193.818753,314.384494 217.983237,321.110529 232.058669,313.635411" id="Path" stroke="#C0B6A4" stroke-width="1.11" stroke-linecap="round" stroke-linejoin="round"></path>
                </g>
            </g>
        </g>
    </g>
</svg>